<?xml version="1.0" encoding="UTF-8" standalone="no"?>
<!DOCTYPE svg PUBLIC "-//W3C//DTD SVG 1.1//EN" "http://www.w3.org/Graphics/SVG/1.1/DTD/svg11.dtd">
<svg width="20px" height="20px" version="1.1" xmlns="http://www.w3.org/2000/svg" xmlns:xlink="http://www.w3.org/1999/xlink" xml:space="preserve" xmlns:serif="http://www.serif.com/" style="fill-rule:evenodd;clip-rule:evenodd;stroke-linejoin:round;stroke-miterlimit:2;">
    <rect x="0" y="0" width="20" height="20" style="fill-opacity:0;"/>
    <g id="Scanner" transform="matrix(1.18519,0,0,1.18519,-0.666667,-1.77778)">
        <path d="M14.85,8.119C14.85,8.119 6.393,5.029 3.859,4.103C3.467,3.96 3.033,4.161 2.889,4.552C2.889,4.553 2.889,4.553 2.888,4.554C2.819,4.743 2.827,4.952 2.912,5.135C2.998,5.318 3.152,5.459 3.342,5.528C5.72,6.388 13.2,9.094 13.2,9.094L3.75,9.094C2.925,9.094 2.25,9.675 2.25,10.5L2.25,14.344C2.25,15.169 2.925,15.844 3.75,15.844L14.25,15.844C15.075,15.844 15.75,15.169 15.75,14.344L15.75,9.469C15.75,8.869 15.375,8.269 14.85,8.119ZM5.625,12.469C5.625,12.935 5.247,13.313 4.781,13.313C4.315,13.312 3.937,12.935 3.937,12.469C3.938,12.003 4.315,11.625 4.781,11.625C5.247,11.625 5.625,12.003 5.625,12.469ZM14.25,12.469C14.25,12.935 13.872,13.312 13.406,13.312C11.963,13.313 9.037,13.313 7.594,13.313C7.128,13.312 6.75,12.935 6.75,12.469C6.75,12.003 7.128,11.625 7.594,11.625L13.406,11.625C13.872,11.625 14.25,12.003 14.25,12.469Z" style="fill:black;fill-rule:nonzero;"/>
    </g>
</svg>
