<?xml version="1.0" encoding="UTF-8" standalone="no"?>
<!DOCTYPE svg PUBLIC "-//W3C//DTD SVG 1.1//EN" "http://www.w3.org/Graphics/SVG/1.1/DTD/svg11.dtd">
<svg width="22px" height="22px" version="1.1" xmlns="http://www.w3.org/2000/svg" xmlns:xlink="http://www.w3.org/1999/xlink" xml:space="preserve" xmlns:serif="http://www.serif.com/" style="fill-rule:evenodd;clip-rule:evenodd;stroke-linejoin:round;stroke-miterlimit:2;">
    <rect x="0" y="0" width="22" height="22" style="fill-opacity:0;"/>
    <g transform="matrix(0.8125,0,0,0.777778,-247.375,-60.067)">
        <path d="M311,90.729C311,90.729 313.6,86.229 318,86.229C322.4,86.229 325,90.729 325,90.729C325,90.729 322.4,95.229 318,95.229C313.6,95.229 311,90.729 311,90.729ZM318,87.129C316.068,87.129 314.5,88.742 314.5,90.729C314.5,92.716 316.068,94.329 318,94.329L318.023,94.329C319.944,94.316 321.5,92.708 321.5,90.729C321.5,88.75 319.944,87.142 318.023,87.129L318,87.129Z" style="fill:white;fill-rule:nonzero;"/>
    </g>
    <g transform="matrix(0.8125,0,0,0.777778,3.687,3.88883)">
        <circle cx="8" cy="7.5" r="1.5" style="fill:white;"/>
    </g>
    <g transform="matrix(0.9375,0,0,0.875,-287.125,-68.25)">
        <path d="M311.082,98.57L312.146,98.57C312.44,98.57 312.678,98.315 312.678,98C312.678,97.685 312.44,97.43 312.146,97.43L311.082,97.43C310.789,97.43 310.55,97.685 310.55,98C310.55,98.315 310.789,98.57 311.082,98.57ZM314.284,98.57L315.348,98.57C315.641,98.57 315.88,98.315 315.88,98C315.88,97.685 315.641,97.43 315.348,97.43L314.284,97.43C313.99,97.43 313.752,97.685 313.752,98C313.752,98.315 313.99,98.57 314.284,98.57ZM317.485,98.57L318.549,98.57C318.843,98.57 319.081,98.315 319.081,98C319.081,97.685 318.843,97.43 318.549,97.43L317.485,97.43C317.192,97.43 316.953,97.685 316.953,98C316.953,98.315 317.192,98.57 317.485,98.57ZM309.468,95.729L309.468,96.869C309.468,97.184 309.706,97.439 310,97.439C310.294,97.439 310.532,97.184 310.532,96.869L310.532,95.729C310.532,95.415 310.294,95.159 310,95.159C309.706,95.159 309.468,95.415 309.468,95.729ZM309.468,92.299L309.468,93.439C309.468,93.754 309.706,94.009 310,94.009C310.294,94.009 310.532,93.754 310.532,93.439L310.532,92.299C310.532,91.985 310.294,91.729 310,91.729C309.706,91.729 309.468,91.985 309.468,92.299ZM309.468,88.869L309.468,90.009C309.468,90.323 309.706,90.579 310,90.579C310.294,90.579 310.532,90.323 310.532,90.009L310.532,88.869C310.532,88.554 310.294,88.299 310,88.299C309.706,88.299 309.468,88.554 309.468,88.869ZM326.532,89.971L326.532,88.832C326.532,88.517 326.294,88.262 326,88.262C325.706,88.262 325.468,88.517 325.468,88.832L325.468,89.971C325.468,90.286 325.706,90.541 326,90.541C326.294,90.541 326.532,90.286 326.532,89.971ZM309.468,85.439L309.468,86.579C309.468,86.893 309.706,87.149 310,87.149C310.294,87.149 310.532,86.893 310.532,86.579L310.532,85.439C310.532,85.124 310.294,84.869 310,84.869C309.706,84.869 309.468,85.124 309.468,85.439ZM326.532,86.541L326.532,85.401C326.532,85.087 326.294,84.831 326,84.831C325.706,84.831 325.468,85.087 325.468,85.401L325.468,86.541C325.468,86.856 325.706,87.111 326,87.111C326.294,87.111 326.532,86.856 326.532,86.541ZM309.468,82.008L309.468,83.148C309.468,83.463 309.706,83.718 310,83.718C310.294,83.718 310.532,83.463 310.532,83.148L310.532,82.008C310.532,81.694 310.294,81.438 310,81.438C309.706,81.438 309.468,81.694 309.468,82.008ZM325.468,82.57L324.936,82.57C324.642,82.57 324.404,82.315 324.404,82C324.404,81.685 324.642,81.43 324.936,81.43L326.001,81.43C326.142,81.43 326.277,81.489 326.377,81.596C326.476,81.703 326.532,81.848 326.532,81.999L326.532,83.111C326.532,83.426 326.294,83.681 326,83.681C325.706,83.681 325.468,83.426 325.468,83.111L325.468,82.57ZM316.395,81.43L315.331,81.43C315.038,81.43 314.799,81.685 314.799,82C314.799,82.315 315.038,82.57 315.331,82.57L316.395,82.57C316.689,82.57 316.927,82.315 316.927,82C316.927,81.685 316.689,81.43 316.395,81.43ZM322.798,81.43L321.734,81.43C321.441,81.43 321.203,81.685 321.203,82C321.203,82.315 321.441,82.57 321.734,82.57L322.798,82.57C323.092,82.57 323.33,82.315 323.33,82C323.33,81.685 323.092,81.43 322.798,81.43ZM319.597,81.43L318.533,81.43C318.239,81.43 318.001,81.685 318.001,82C318.001,82.315 318.239,82.57 318.533,82.57L319.597,82.57C319.89,82.57 320.129,82.315 320.129,82C320.129,81.685 319.89,81.43 319.597,81.43ZM313.194,81.43L312.13,81.43C311.836,81.43 311.598,81.685 311.598,82C311.598,82.315 311.836,82.57 312.13,82.57L313.194,82.57C313.487,82.57 313.726,82.315 313.726,82C313.726,81.685 313.487,81.43 313.194,81.43Z" style="fill:white;"/>
        <g transform="matrix(2.13317,0,0,1.14286,292.402,78)">
            <path d="M14,17.499C14,17.224 13.888,17 13.75,17L13.25,17C13.112,17 13,17.224 13,17.499C13,17.775 13.112,17.999 13.25,17.999L13.75,17.999C13.888,17.999 14,17.775 14,17.499Z" style="fill:white;"/>
        </g>
        <g transform="matrix(1.06667,0,0,1.14286,306.267,78)">
            <path d="M18.999,12.512C18.999,12.236 18.775,12.013 18.5,12.013C18.225,12.013 18.001,12.236 18.001,12.512L18.001,13.501C18.001,13.777 18.225,14 18.5,14C18.775,14 18.999,13.777 18.999,13.501L18.999,12.512Z" style="fill:white;"/>
        </g>
    </g>
    <g transform="matrix(1,0,0,1,-472,-154)">
        <path d="M491,171L493,171L493,172L491,172L491,174L490,174L490,172L488,172L488,171L490,171L490,169L491,169L491,171Z" style="fill:white;"/>
    </g>
</svg>

