<?xml version="1.0" encoding="UTF-8" standalone="no"?>
<!DOCTYPE svg PUBLIC "-//W3C//DTD SVG 1.1//EN" "http://www.w3.org/Graphics/SVG/1.1/DTD/svg11.dtd">
<svg width="22px" height="22px" version="1.1" xmlns="http://www.w3.org/2000/svg" xmlns:xlink="http://www.w3.org/1999/xlink" xml:space="preserve" xmlns:serif="http://www.serif.com/" style="fill-rule:evenodd;clip-rule:evenodd;stroke-linejoin:round;stroke-miterlimit:2;">
    <rect x="0" y="0" width="22" height="22" style="fill-opacity:0;"/>
    <path d="M12,13C12,12.735 11.895,12.48 11.707,12.293C11.52,12.105 11.265,12 11,12C10.735,12 10.48,12.105 10.293,12.293C10.105,12.48 10,12.735 10,13C10,13.871 10,15.129 10,16C10,16.265 10.105,16.52 10.293,16.707C10.48,16.895 10.735,17 11,17C11.265,17 11.52,16.895 11.707,16.707C11.895,16.52 12,16.265 12,16C12,15.129 12,13.871 12,13ZM15,8C15,7.448 14.552,7 14,7C13.448,7 13,7.448 13,8C13,9.916 13,14.084 13,16C13,16.552 13.448,17 14,17C14.552,17 15,16.552 15,16C15,14.084 15,9.916 15,8ZM18,6C18,5.735 17.895,5.48 17.707,5.293C17.52,5.105 17.265,5 17,5C16.735,5 16.48,5.105 16.293,5.293C16.105,5.48 16,5.735 16,6C16,8.26 16,13.74 16,16C16,16.265 16.105,16.52 16.293,16.707C16.48,16.895 16.735,17 17,17C17.265,17 17.52,16.895 17.707,16.707C17.895,16.52 18,16.265 18,16C18,13.74 18,8.26 18,6ZM9,11C9,10.735 8.895,10.48 8.707,10.293C8.52,10.105 8.265,10 8,10C7.735,10 7.48,10.105 7.293,10.293C7.105,10.48 7,10.735 7,11C7,12.331 7,14.669 7,16C7,16.265 7.105,16.52 7.293,16.707C7.48,16.895 7.735,17 8,17C8.265,17 8.52,16.895 8.707,16.707C8.895,16.52 9,16.265 9,16C9,14.669 9,12.331 9,11ZM6,14C6,13.448 5.552,13 5,13C4.448,13 4,13.448 4,14C4,14.611 4,15.389 4,16C4,16.552 4.448,17 5,17C5.552,17 6,16.552 6,16C6,15.389 6,14.611 6,14Z" style="fill:white;"/>
</svg>

