<?xml version="1.0" encoding="UTF-8" standalone="no"?>
<!DOCTYPE svg PUBLIC "-//W3C//DTD SVG 1.1//EN" "http://www.w3.org/Graphics/SVG/1.1/DTD/svg11.dtd">
<svg width="22px" height="22px" version="1.1" xmlns="http://www.w3.org/2000/svg" xmlns:xlink="http://www.w3.org/1999/xlink" xml:space="preserve" xmlns:serif="http://www.serif.com/" style="fill-rule:evenodd;clip-rule:evenodd;stroke-linejoin:round;stroke-miterlimit:2;">
    <rect x="0" y="0" width="22" height="22" style="fill-opacity:0;"/>
    <g transform="matrix(1,0,0,1.2,1,-0.979)">
        <path d="M8,5C8.552,5 9,5.373 9,5.833C9,7.717 9,12.283 9,14.167C9,14.627 8.552,15 8,15C7.678,15 7.322,15 7,15C6.448,15 6,14.627 6,14.167C6,12.283 6,7.717 6,5.833C6,5.373 6.448,5 7,5C7.322,5 7.678,5 8,5ZM13,5C13.552,5 14,5.373 14,5.833C14,7.717 14,12.283 14,14.167C14,14.627 13.552,15 13,15C12.678,15 12.322,15 12,15C11.448,15 11,14.627 11,14.167C11,12.283 11,7.717 11,5.833C11,5.373 11.448,5 12,5C12.322,5 12.678,5 13,5Z" style="fill:white;"/>
    </g>
</svg>

