<?xml version="1.0" encoding="UTF-8" standalone="no"?>
<!DOCTYPE svg PUBLIC "-//W3C//DTD SVG 1.1//EN" "http://www.w3.org/Graphics/SVG/1.1/DTD/svg11.dtd">
<svg width="22px" height="22px" version="1.1" xmlns="http://www.w3.org/2000/svg" xmlns:xlink="http://www.w3.org/1999/xlink" xml:space="preserve" xmlns:serif="http://www.serif.com/" style="fill-rule:evenodd;clip-rule:evenodd;stroke-linejoin:round;stroke-miterlimit:2;">
    <rect x="0" y="0" width="22" height="22" style="fill-opacity:0;"/>
    <g transform="matrix(0.8125,0,0,0.777778,-247.375,-60.067)">
        <path d="M311,90.729C311,90.729 313.6,86.229 318,86.229C322.4,86.229 325,90.729 325,90.729C325,90.729 322.4,95.229 318,95.229C313.6,95.229 311,90.729 311,90.729ZM318,87.129C316.068,87.129 314.5,88.742 314.5,90.729C314.5,92.716 316.068,94.329 318,94.329L318.023,94.329C319.944,94.316 321.5,92.708 321.5,90.729C321.5,88.75 319.944,87.142 318.023,87.129L318,87.129Z" style="fill:white;fill-rule:nonzero;"/>
    </g>
    <g transform="matrix(0.8125,0,0,0.777778,3.687,4.88883)">
        <circle cx="8" cy="7.5" r="1.5" style="fill:white;"/>
    </g>
    <g transform="matrix(1,0,0,1,-487,-189)">
        <path d="M491.5,207L492.5,207C492.776,207 493,206.776 493,206.5C493,206.224 492.776,206 492.5,206L491.5,206C491.224,206 491,206.224 491,206.5C491,206.776 491.224,207 491.5,207ZM494.5,207L495.5,207C495.776,207 496,206.776 496,206.5C496,206.224 495.776,206 495.5,206L494.5,206C494.224,206 494,206.224 494,206.5C494,206.776 494.224,207 494.5,207ZM490,204.5L490,205.5C490,205.776 490.224,206 490.5,206C490.776,206 491,205.776 491,205.5L491,204.5C491,204.224 490.776,204 490.5,204C490.224,204 490,204.224 490,204.5ZM490,201.5L490,202.5C490,202.776 490.224,203 490.5,203C490.776,203 491,202.776 491,202.5L491,201.5C491,201.224 490.776,201 490.5,201C490.224,201 490,201.224 490,201.5ZM506,199.5L506,198.5C506,198.224 505.776,198 505.5,198C505.224,198 505,198.224 505,198.5L505,199.5C505,199.776 505.224,200 505.5,200C505.776,200 506,199.776 506,199.5ZM490,198.5L490,199.5C490,199.776 490.224,200 490.5,200C490.776,200 491,199.776 491,199.5L491,198.5C491,198.224 490.776,198 490.5,198C490.224,198 490,198.224 490,198.5ZM506,196.5L506,195.5C506,195.224 505.776,195 505.5,195C505.224,195 505,195.224 505,195.5L505,196.5C505,196.776 505.224,197 505.5,197C505.776,197 506,196.776 506,196.5ZM490,195.5L490,196.5C490,196.776 490.224,197 490.5,197C490.776,197 491,196.776 491,196.5L491,195.5C491,195.224 490.776,195 490.5,195C490.224,195 490,195.224 490,195.5ZM505.5,192C505.776,192 506,192.224 506,192.5L506,193.5C506,193.776 505.776,194 505.5,194C505.224,194 505,193.776 505,193.5L505,193L504.5,193C504.224,193 504,192.776 504,192.5C504,192.224 504.224,192 504.5,192L505.5,192ZM491,192.5L491,193.5C491,193.776 490.776,194 490.5,194C490.224,194 490,193.776 490,193.5L490,192.5L490.5,192.5C490.5,192.224 490.5,192 490.5,192.5L490.5,192C490.776,192 491,192.224 491,192.5ZM502.5,192L501.5,192C501.224,192 501,192.224 501,192.5C501,192.776 501.224,193 501.5,193L502.5,193C502.776,193 503,192.776 503,192.5C503,192.224 502.776,192 502.5,192ZM499.5,192L498.5,192C498.224,192 498,192.224 498,192.5C498,192.776 498.224,193 498.5,193L499.5,193C499.776,193 500,192.776 500,192.5C500,192.224 499.776,192 499.5,192ZM493.5,192L492.5,192C492.224,192 492,192.224 492,192.5C492,192.776 492.224,193 492.5,193L493.5,193C493.776,193 494,192.776 494,192.5C494,192.224 493.776,192 493.5,192ZM496.5,192L495.5,192C495.224,192 495,192.224 495,192.5C495,192.776 495.224,193 495.5,193L496.5,193C496.776,193 497,192.776 497,192.5C497,192.224 496.776,192 496.5,192Z" style="fill:white;"/>
    </g>
    <g transform="matrix(1,0,0,1,5.5,7.00002)">
        <g transform="matrix(1,0,0,1,1,0)">
            <path d="M15.5,11C15.5,9.344 14.156,8 12.5,8L9.5,8C7.844,8 6.5,9.344 6.5,11C6.5,12.656 7.844,14 9.5,14L12.5,14C14.156,14 15.5,12.656 15.5,11ZM12.5,9C13.604,9 14.5,9.902 14.5,11.012C14.5,12.123 13.604,13.025 12.5,13.025C11.396,13.025 10.5,12.123 10.5,11.012C10.5,9.902 11.396,9 12.5,9Z" style="fill:white;"/>
        </g>
        <g transform="matrix(1,0,0,1,-5.5,-7.00002)">
            <path d="M19,12.5C19,12.224 18.776,12 18.5,12C18.224,12 18,12.224 18,12.5L18,13.5C18,13.776 18.224,14 18.5,14C18.776,14 19,13.776 19,13.5L19,12.5Z" style="fill:white;"/>
        </g>
        <g transform="matrix(1,0,0,1,-5.5,-7.00002)">
            <path d="M12,17.506C12,17.227 11.773,17 11.494,17L10.506,17C10.227,17 10,17.227 10,17.506C10,17.786 10.227,18.013 10.506,18.013L11.494,18.013C11.773,18.013 12,17.786 12,17.506Z" style="fill:white;"/>
        </g>
    </g>
</svg>

