<?xml version="1.0" encoding="UTF-8" standalone="no"?>
<!DOCTYPE svg PUBLIC "-//W3C//DTD SVG 1.1//EN" "http://www.w3.org/Graphics/SVG/1.1/DTD/svg11.dtd">
<svg width="18px" height="18px" version="1.1" xmlns="http://www.w3.org/2000/svg" xmlns:xlink="http://www.w3.org/1999/xlink" xml:space="preserve" xmlns:serif="http://www.serif.com/" style="fill-rule:evenodd;clip-rule:evenodd;stroke-linejoin:round;stroke-miterlimit:2;">
    <g transform="matrix(0.9,0,0,0.9,3.33067e-16,3.33067e-16)">
        <rect x="0" y="0" width="20" height="20" style="fill-opacity:0;"/>
    </g>
    <g transform="matrix(0.6,0,0,0.7,1.75,2.95)">
        <path d="M12.5,15.071C12.5,14.48 11.94,14 11.25,14C10.56,14 10,14.48 10,15.071L10,17.929C10,18.52 10.56,19 11.25,19C11.94,19 12.5,18.52 12.5,17.929L12.5,15.071Z"/>
    </g>
    <g transform="matrix(0.6,0,0,0.7,1.75,-2.05)">
        <path d="M12.5,15.071C12.5,14.48 11.94,14 11.25,14C10.56,14 10,14.48 10,15.071L10,17.929C10,18.52 10.56,19 11.25,19C11.94,19 12.5,18.52 12.5,17.929L12.5,15.071Z"/>
    </g>
    <g transform="matrix(0.6,0,0,0.7,1.75,-7.05)">
        <path d="M12.5,15.071C12.5,14.48 11.94,14 11.25,14C10.56,14 10,14.48 10,15.071L10,17.929C10,18.52 10.56,19 11.25,19C11.94,19 12.5,18.52 12.5,17.929L12.5,15.071Z"/>
    </g>
    <g transform="matrix(1.22465e-16,2,-1.125,6.88864e-17,17.1875,1)">
        <path d="M4.25,9.5L6,13.5L2.5,13.5L4.25,9.5Z"/>
    </g>
    <g transform="matrix(-1.22465e-16,2,1.125,6.88864e-17,-0.1875,1)">
        <path d="M4.25,9.5L6,13.5L2.5,13.5L4.25,9.5Z"/>
    </g>
</svg>
