<?xml version="1.0" encoding="UTF-8" standalone="no"?>
<!DOCTYPE svg PUBLIC "-//W3C//DTD SVG 1.1//EN" "http://www.w3.org/Graphics/SVG/1.1/DTD/svg11.dtd">
<svg width="18px" height="18px" version="1.1" xmlns="http://www.w3.org/2000/svg" xmlns:xlink="http://www.w3.org/1999/xlink" xml:space="preserve" xmlns:serif="http://www.serif.com/" style="fill-rule:evenodd;clip-rule:evenodd;stroke-linejoin:round;stroke-miterlimit:2;">
    <g transform="matrix(0.818182,0,0,0.818182,-6.66134e-16,-6.66134e-16)">
        <rect x="0" y="0" width="22" height="22" style="fill:rgb(51,51,51);fill-opacity:0;"/>
    </g>
    <g transform="matrix(1,0,0,1,0,-1)">
        <g transform="matrix(1,0,0,1,-4.44089e-16,1)">
            <path d="M8.414,3L16,3L16,16.111L0,16.111L0,1L6.414,1L8.414,3ZM1,15.111L15,15.111L15,7L1,7L1,15.111ZM1,6L1,2L6,2L8,4L15,4L15,6L1,6Z" style="fill:rgb(48,48,48);"/>
        </g>
        <path d="M1,7L1,3L6,3L8,5L15,5L15,7L1,7Z" style="fill:rgb(235,198,75);"/>
        <g transform="matrix(0.933333,0,0,1.11111,-1.8,-3.55554)">
            <rect x="3" y="10.4" width="15" height="7.3" style="fill:rgb(235,198,75);"/>
        </g>
    </g>
    <g transform="matrix(1,0,0,1,-1,0)">
        <rect x="2" y="10" width="14" height="1" style="fill:rgb(48,48,48);"/>
        <g transform="matrix(0.750001,0,0,0.750001,2.37499,2.62499)">
            <rect x="3.5" y="8.5" width="4" height="4" style="fill:white;"/>
            <path d="M7.5,8.5L3.5,8.5L3.5,12.5L7.5,12.5L7.5,8.5ZM4.833,9.833L4.833,11.167L6.167,11.167L6.167,9.833L4.833,9.833Z" style="fill:rgb(48,48,48);"/>
        </g>
    </g>
</svg>
