<?xml version="1.0" encoding="UTF-8" standalone="no"?>
<!DOCTYPE svg PUBLIC "-//W3C//DTD SVG 1.1//EN" "http://www.w3.org/Graphics/SVG/1.1/DTD/svg11.dtd">
<svg width="18px" height="18px" version="1.1" xmlns="http://www.w3.org/2000/svg" xmlns:xlink="http://www.w3.org/1999/xlink" xml:space="preserve" xmlns:serif="http://www.serif.com/" style="fill-rule:evenodd;clip-rule:evenodd;stroke-linejoin:round;stroke-miterlimit:2;">
    <g transform="matrix(0.818182,0,0,0.818182,-6.66134e-16,-6.66134e-16)">
        <rect x="0" y="0" width="22" height="22" style="fill:rgb(51,51,51);fill-opacity:0;"/>
    </g>
    <g transform="matrix(1,0,0,1,0,-1)">
        <path d="M1,16L1,4L6,4L8,6L15,6L15,11L1,16Z" style="fill:rgb(255,233,110);"/>
        <g transform="matrix(1,0,0,1,0,1)">
            <path d="M8.414,4L16,4L16,16L0,16L0,2L6.414,2L8.414,4ZM3,6L15,6L15,5L8,5L6,3L1,3L1,15.111L15,15.111L15,7L3,7L3,6Z" style="fill:rgb(48,48,48);"/>
        </g>
        <g transform="matrix(0.933333,0,0,1.11111,-1.8,-3.55554)">
            <g transform="matrix(0.964286,0,-0.271078,0.986302,5.44094,0.142453)">
                <rect x="3" y="10.4" width="15" height="7.3" style="fill:rgb(255,233,110);"/>
            </g>
            <g transform="matrix(1.07143,0,0,0.900001,1.92857,4.09999)">
                <path d="M18,6L18,6.451L15.795,16L0.948,16L0.948,14.886L3,6L18,6ZM1.948,15L15,15L16.847,7L3.795,7L1.948,15Z" style="fill:rgb(48,48,48);"/>
            </g>
        </g>
    </g>
</svg>
