<?xml version="1.0" encoding="UTF-8" standalone="no"?>
<!DOCTYPE svg PUBLIC "-//W3C//DTD SVG 1.1//EN" "http://www.w3.org/Graphics/SVG/1.1/DTD/svg11.dtd">
<svg width="18px" height="18px" version="1.1" xmlns="http://www.w3.org/2000/svg" xmlns:xlink="http://www.w3.org/1999/xlink" xml:space="preserve" xmlns:serif="http://www.serif.com/" style="fill-rule:evenodd;clip-rule:evenodd;stroke-linejoin:round;stroke-miterlimit:2;">
    <g transform="matrix(0.857143,0,0,0.866667,0.42857,0.26667)">
        <path d="M14.424,4.576C15.996,5.86 17,7.814 17,10C17,13.863 13.863,17 10,17C6.137,17 3,13.863 3,10C3,7.814 4.004,5.86 5.576,4.576L6.822,5.822C5.563,6.781 4.75,8.297 4.75,10C4.75,12.898 7.102,15.25 10,15.25C12.898,15.25 15.25,12.898 15.25,10C15.25,8.297 14.437,6.781 13.178,5.822L14.424,4.576ZM11,2L11,9L9,9L9,2L11,2Z" style="fill:black;"/>
    </g>
</svg>
