<?xml version="1.0" encoding="UTF-8" standalone="no"?>
<!DOCTYPE svg PUBLIC "-//W3C//DTD SVG 1.1//EN" "http://www.w3.org/Graphics/SVG/1.1/DTD/svg11.dtd">
<svg width="18px" height="18px" version="1.1" xmlns="http://www.w3.org/2000/svg" xmlns:xlink="http://www.w3.org/1999/xlink" xml:space="preserve" xmlns:serif="http://www.serif.com/" style="fill-rule:evenodd;clip-rule:evenodd;stroke-linecap:round;stroke-linejoin:round;stroke-miterlimit:1.5;">
    <g transform="matrix(0.9,0,0,0.9,2.44249e-15,2.44249e-15)">
        <rect x="0" y="0" width="20" height="20" style="fill-opacity:0;"/>
    </g>
    <g transform="matrix(0.836128,0,0,0.836128,8.75748,10.6019)">
        <path d="M0.888,4.662L4.444,8.25L10.456,2.27" style="fill:none;stroke:black;stroke-width:1.2px;"/>
    </g>
    <path d="M8.171,16L4.5,16C3.672,16 3,15.328 3,14.5L3,3.5C3,2.672 3.672,2 4.5,2L5,2L5,6L13,6L13,2L13.5,2C14.328,2 15,2.672 15,3.5L15,12.166L12.484,14.669L10.921,13.092C10.889,13.06 10.857,13.029 10.823,13L13,13L13,12L9,12L9,12.564C8.668,12.649 8.353,12.821 8.093,13.079C8.06,13.111 8.03,13.144 8,13.178L8,11L5,11L5,14L7.564,14C7.394,14.66 7.566,15.389 8.08,15.908L8.171,16ZM6,12L6,13L7,13L7,12L6,12ZM8,7L5,7L5,10L8,10L8,7ZM6,8L6,9L7,9L7,8L6,8ZM13,8L9,8L9,9L13,9L13,8ZM12,2L12,5L6,5L6,2L7,2C7,0.896 7.896,0 9,0C10.104,0 11,0.896 11,2L12,2ZM9,1C9.552,1 10,1.448 10,2C10,2.552 9.552,3 9,3C8.448,3 8,2.552 8,2C8,1.448 8.448,1 9,1Z" style="fill:black;"/>
</svg>
