<?xml version="1.0" encoding="UTF-8" standalone="no"?>
<!DOCTYPE svg PUBLIC "-//W3C//DTD SVG 1.1//EN" "http://www.w3.org/Graphics/SVG/1.1/DTD/svg11.dtd">
<svg width="60px" height="60px" version="1.1" xmlns="http://www.w3.org/2000/svg" xmlns:xlink="http://www.w3.org/1999/xlink" xml:space="preserve" xmlns:serif="http://www.serif.com/" style="fill-rule:evenodd;clip-rule:evenodd;stroke-linejoin:round;stroke-miterlimit:2;">
    <rect x="0" y="0" width="60" height="60" style="fill-opacity:0;"/>
    <g transform="matrix(1,0,0,1,-1,1)">
        <g id="page">
            <g id="outline">
                <g transform="matrix(1,0,0,1,1,0)">
                    <path d="M8,34L14.5,40.5L22,33L29.5,40.5L37,33L44.5,40.5L51,34L51,56L8,56L8,34ZM51,23L44.5,29.5L37,22L29.5,29.5L22,22L14.5,29.5L8,23L8,2L40,2L51,13L51,23Z" style="fill:rgb(228,228,228);fill-rule:nonzero;"/>
                </g>
                <g transform="matrix(1,0,0,1,1,0)">
                    <path d="M40,2L51,13L40,13L40,2Z" style="fill:white;fill-rule:nonzero;"/>
                </g>
            </g>
        </g>
    </g>
    <g transform="matrix(1,0,0,1,-1,1)">
        <path d="M41,13L52,13L52,24L41,13Z" style="fill-opacity:0.25;"/>
    </g>
    <path d="M15,41L14,41L14,42L15,42L15,41ZM45,41L44,41L44,42L45,42L45,41ZM30,41L29,41L29,42L30,42L30,41ZM44,40L43,40L43,41L44,41L44,40ZM46,40L45,40L45,41L46,41L46,40ZM29,40L28,40L28,41L29,41L29,40ZM31,40L30,40L30,41L31,41L31,40ZM14,40L13,40L13,41L14,41L14,40ZM16,40L15,40L15,41L16,41L16,40ZM17,39L16,39L16,40L17,40L17,39ZM13,39L12,39L12,40L13,40L13,39ZM43,39L42,39L42,40L43,40L43,39ZM47,39L46,39L46,40L47,40L47,39ZM28,39L27,39L27,40L28,40L28,39ZM32,39L31,39L31,40L32,40L32,39ZM27,38L26,38L26,39L27,39L27,38ZM33,38L32,38L32,39L33,39L33,38ZM12,38L11,38L11,39L12,39L12,38ZM18,38L17,38L17,39L18,39L18,38ZM42,38L41,38L41,39L42,39L42,38ZM48,38L47,38L47,39L48,39L48,38ZM41,37L40,37L40,38L41,38L41,37ZM49,37L48,37L48,38L49,38L49,37ZM26,37L25,37L25,38L26,38L26,37ZM34,37L33,37L33,38L34,38L34,37ZM11,37L10,37L10,38L11,38L11,37ZM19,37L18,37L18,38L19,38L19,37ZM20,36L19,36L19,37L20,37L20,36ZM10,36L9,36L9,37L10,37L10,36ZM35,36L34,36L34,37L35,37L35,36ZM25,36L24,36L24,37L25,37L25,36ZM40,36L39,36L39,37L40,37L40,36ZM50,36L49,36L49,37L50,37L50,36ZM39,35L38,35L38,36L39,36L39,35ZM24,35L23,35L23,36L24,36L24,35ZM36,35L35,35L35,36L36,36L36,35ZM8,57L51,57L51,36L50,36L50,35L51,35L51,34L52,34L52,58L7,58L7,34L8,34L8,35L9,35L9,36L8,36L8,57ZM21,35L20,35L20,36L21,36L21,35ZM36,35L36,34L38,34L38,35L36,35ZM23,34L23,35L21,35L21,34L23,34ZM15,30L14,30L14,31L15,31L15,30ZM30,30L29,30L29,31L30,31L30,30ZM45,30L44,30L44,31L45,31L45,30ZM16,29L15,29L15,30L16,30L16,29ZM29,29L28,29L28,30L29,30L29,29ZM14,29L13,29L13,30L14,30L14,29ZM31,29L30,29L30,30L31,30L31,29ZM46,29L45,29L45,30L46,30L46,29ZM44,29L43,29L43,30L44,30L44,29ZM43,28L42,28L42,29L43,29L43,28ZM13,28L12,28L12,29L13,29L13,28ZM17,28L16,28L16,29L17,29L17,28ZM32,28L31,28L31,29L32,29L32,28ZM28,28L27,28L27,29L28,29L28,28ZM47,28L46,28L46,29L47,29L47,28ZM42,27L41,27L41,28L42,28L42,27ZM48,27L47,27L47,28L48,28L48,27ZM18,27L17,27L17,28L18,28L18,27ZM12,27L11,27L11,28L12,28L12,27ZM27,27L26,27L26,28L27,28L27,27ZM33,27L32,27L32,28L33,28L33,27ZM41,26L40,26L40,27L41,27L41,26ZM49,26L48,26L48,27L49,27L49,26ZM26,26L25,26L25,27L26,27L26,26ZM34,26L33,26L33,27L34,27L34,26ZM11,26L10,26L10,27L11,27L11,26ZM19,26L18,26L18,27L19,27L19,26ZM20,25L19,25L19,26L20,26L20,25ZM10,25L9,25L9,26L10,26L10,25ZM35,25L34,25L34,26L35,26L35,25ZM25,25L24,25L24,26L25,26L25,25ZM50,25L49,25L49,26L50,26L50,25ZM40,25L39,25L39,26L40,26L40,25ZM51,24L50,24L50,25L51,25L51,24ZM39,24L38,24L38,25L39,25L39,24ZM9,24L8,24L8,25L9,25L9,24ZM36,24L35,24L35,25L36,25L36,24ZM24,24L23,24L23,25L24,25L24,24ZM21,24L20,24L20,25L21,25L21,24ZM51,14L40,3L8,3L8,24L7,24L7,2L41,2L41,3L42,3L42,4L43,4L43,5L44,5L44,6L45,6L45,7L46,7L46,8L47,8L47,9L48,9L48,10L49,10L49,11L50,11L50,12L51,12L51,13L52,13L52,24L51,24L51,14ZM23,23L23,24L21,24L21,23L23,23ZM36,24L36,23L38,23L38,24L36,24Z" style="fill:rgb(39,39,39);"/>
</svg>
