<?xml version="1.0" encoding="UTF-8" standalone="no"?>
<!DOCTYPE svg PUBLIC "-//W3C//DTD SVG 1.1//EN" "http://www.w3.org/Graphics/SVG/1.1/DTD/svg11.dtd">
<svg width="60px" height="60px" version="1.1" xmlns="http://www.w3.org/2000/svg" xmlns:xlink="http://www.w3.org/1999/xlink" xml:space="preserve" xmlns:serif="http://www.serif.com/" style="fill-rule:evenodd;clip-rule:evenodd;stroke-linejoin:round;stroke-miterlimit:2;">
    <rect x="0" y="0" width="60" height="60" style="fill:rgb(59,59,59);fill-opacity:0;"/>
    <g id="page">
        <g id="base" transform="matrix(1,0,0,1,-1,1)">
            <path d="M53,57L8,57L8,1L42,1L42,2L43,2L43,3L44,3L44,4L45,4L45,5L46,5L46,6L47,6L47,7L48,7L48,8L49,8L49,9L50,9L50,10L51,10L51,11L52,11L52,12L53,12L53,57Z" style="fill:rgb(72,121,52);fill-rule:nonzero;"/>
        </g>
        <g transform="matrix(1,0,0,1,-1,0)">
            <path d="M41,14L41,2L42,2L42,3L43,3L43,4L44,4L44,5L45,5L45,6L46,6L46,7L47,7L47,8L48,8L48,9L49,9L49,10L50,10L50,11L51,11L51,12L52,12L52,13L53,13L53,14L41,14Z" style="fill:rgb(150,206,127);fill-rule:nonzero;"/>
        </g>
        <g transform="matrix(1,0,0,1,-1,1)">
            <path d="M41,13L52,13L52,24L41,13Z" style="fill-opacity:0.25;"/>
        </g>
        <g id="outline" transform="matrix(1,0,0,1,-1,1)">
            <g transform="matrix(1,0,0,0.947836,8.71586,16.3208)">
                <g transform="matrix(13,0,0,13.1217,9.77559,38.544)">
                    <path d="M0.575,-0.029C0.522,-0.002 0.456,0.012 0.378,0.012C0.276,0.012 0.195,-0.02 0.134,-0.084C0.073,-0.149 0.042,-0.233 0.042,-0.337C0.042,-0.449 0.076,-0.539 0.145,-0.608C0.214,-0.677 0.301,-0.712 0.406,-0.712C0.474,-0.712 0.53,-0.702 0.575,-0.683L0.575,-0.568C0.528,-0.596 0.475,-0.61 0.418,-0.61C0.343,-0.61 0.281,-0.586 0.234,-0.537C0.187,-0.489 0.164,-0.424 0.164,-0.343C0.164,-0.266 0.186,-0.204 0.229,-0.158C0.273,-0.113 0.331,-0.09 0.403,-0.09C0.469,-0.09 0.526,-0.105 0.575,-0.137L0.575,-0.029Z" style="fill-opacity:0.3;fill-rule:nonzero;"/>
                </g>
                <g transform="matrix(13,0,0,13.561,18.0832,38.6978)">
                    <path d="M0.474,0L0.086,0L0.086,-0.7L0.203,-0.7L0.203,-0.098L0.474,-0.098L0.474,0Z" style="fill-opacity:0.3;fill-rule:nonzero;"/>
                </g>
                <g transform="matrix(12.1579,0,0,13.561,24.9773,38.6978)">
                    <path d="M0.68,0L0.553,0L0.219,-0.515C0.21,-0.528 0.203,-0.541 0.198,-0.555L0.195,-0.555C0.197,-0.54 0.199,-0.508 0.199,-0.459L0.199,0L0.086,0L0.086,-0.7L0.222,-0.7L0.545,-0.198C0.559,-0.177 0.567,-0.163 0.571,-0.155L0.573,-0.155C0.57,-0.173 0.568,-0.205 0.568,-0.249L0.568,-0.7L0.68,-0.7L0.68,0Z" style="fill-opacity:0.3;fill-rule:nonzero;"/>
                </g>
            </g>
            <g>
                <path d="M53,57L8,57L8,1L42,1L42,2L43,2L43,3L44,3L44,4L45,4L45,5L46,5L46,6L47,6L47,7L48,7L48,8L49,8L49,9L50,9L50,10L51,10L51,11L52,11L52,12L53,12L53,57ZM41,2L9,2L9,56L52,56L52,13L41,2Z" style="fill:rgb(33,63,21);"/>
            </g>
            <g transform="matrix(1,0,0,0.947836,8.71586,15.3208)">
                <g transform="matrix(13,0,0,13.1217,9.77559,38.544)">
                    <path d="M0.575,-0.029C0.522,-0.002 0.456,0.012 0.378,0.012C0.276,0.012 0.195,-0.02 0.134,-0.084C0.073,-0.149 0.042,-0.233 0.042,-0.337C0.042,-0.449 0.076,-0.539 0.145,-0.608C0.214,-0.677 0.301,-0.712 0.406,-0.712C0.474,-0.712 0.53,-0.702 0.575,-0.683L0.575,-0.568C0.528,-0.596 0.475,-0.61 0.418,-0.61C0.343,-0.61 0.281,-0.586 0.234,-0.537C0.187,-0.489 0.164,-0.424 0.164,-0.343C0.164,-0.266 0.186,-0.204 0.229,-0.158C0.273,-0.113 0.331,-0.09 0.403,-0.09C0.469,-0.09 0.526,-0.105 0.575,-0.137L0.575,-0.029Z" style="fill:white;fill-rule:nonzero;"/>
                </g>
                <g transform="matrix(13,0,0,13.561,18.0832,38.6978)">
                    <path d="M0.474,0L0.086,0L0.086,-0.7L0.203,-0.7L0.203,-0.098L0.474,-0.098L0.474,0Z" style="fill:white;fill-rule:nonzero;"/>
                </g>
                <g transform="matrix(12.1579,0,0,13.561,24.9773,38.6978)">
                    <path d="M0.68,0L0.553,0L0.219,-0.515C0.21,-0.528 0.203,-0.541 0.198,-0.555L0.195,-0.555C0.197,-0.54 0.199,-0.508 0.199,-0.459L0.199,0L0.086,0L0.086,-0.7L0.222,-0.7L0.545,-0.198C0.559,-0.177 0.567,-0.163 0.571,-0.155L0.573,-0.155C0.57,-0.173 0.568,-0.205 0.568,-0.249L0.568,-0.7L0.68,-0.7L0.68,0Z" style="fill:white;fill-rule:nonzero;"/>
                </g>
            </g>
        </g>
        <g transform="matrix(1.22828,0,0,1.20913,-6.96115,-20.1923)">
            <g transform="matrix(0.564739,0,0,0.564739,13.9574,18.7774)">
                <g>
                    <path d="M33.862,42.304C35.557,39.628 35.78,37.025 33.29,34.535C30.799,32.045 27.505,32.22 25.605,34.083C22.136,36.502 18.621,38.391 14.343,39.046C13.863,39.526 14.445,40.916 14.445,40.916C17.154,40.74 21.227,39.813 23.46,38.361C20.341,41.498 18.501,42.948 16.149,44.035C16.149,44.035 16.205,44.113 16.233,44.152C16.615,44.678 17.386,45.7 17.386,45.7C18.587,45.349 20.682,44.465 21.695,43.551C21.066,44.717 19.641,46.155 18.637,46.947C18.637,46.947 22.43,50.792 24.446,52.18C24.525,52.236 24.662,52.362 24.715,52.283C26.411,49.781 28.298,47.896 28.283,47.939C28.227,48.103 26.838,50.53 26.885,53.526C26.885,53.526 28.33,53.93 28.779,53.481C29.792,49.942 31.647,45.353 33.862,42.304ZM35.299,30.017L40.961,24.355C41.652,23.664 42.774,23.664 43.465,24.355C44.156,25.046 44.156,26.168 43.465,26.859L37.803,32.521C38.488,33.957 37.905,36.224 37.228,37.661C37.23,36.022 36.55,34.413 34.978,32.842C33.5,31.363 31.787,30.659 30.153,30.593C31.593,29.914 33.862,29.331 35.299,30.017Z" style="fill-opacity:0.3;"/>
                </g>
            </g>
            <g transform="matrix(0.564739,0,0,0.564739,13.9574,18.7774)">
                <g>
                    <path d="M42.611,44.082L40.966,47.017C40.902,47.133 40.868,47.262 40.868,47.395C40.868,47.528 40.902,47.657 40.967,47.772L42.61,50.707L39.675,49.064C39.56,48.999 39.431,48.965 39.298,48.965C39.165,48.965 39.036,48.999 38.92,49.063L35.985,50.708L37.629,47.772C37.694,47.657 37.727,47.526 37.728,47.395C37.728,47.262 37.693,47.132 37.629,47.018L35.985,44.082L38.921,45.726C39.035,45.79 39.165,45.825 39.298,45.825C39.429,45.823 39.56,45.791 39.675,45.726L42.611,44.082ZM24.408,24.574L22.763,27.509C22.699,27.626 22.665,27.755 22.665,27.887C22.665,28.02 22.699,28.149 22.764,28.264L24.407,31.199L21.472,29.556C21.357,29.491 21.228,29.458 21.095,29.458C20.962,29.458 20.833,29.491 20.717,29.555L17.782,31.2L19.426,28.264C19.491,28.149 19.524,28.019 19.525,27.887C19.525,27.755 19.49,27.625 19.426,27.511L17.782,24.574L20.718,26.218C20.832,26.282 20.962,26.317 21.095,26.317C21.227,26.316 21.357,26.284 21.472,26.218L24.408,24.574Z" style="fill-opacity:0.3;"/>
                </g>
            </g>
        </g>
        <g transform="matrix(1.22828,0,0,1.20913,-6.96115,-21.1923)">
            <g transform="matrix(0.564739,0,0,0.564739,13.9574,18.7774)">
                <g>
                    <path d="M33.862,42.304C35.557,39.628 35.78,37.025 33.29,34.535C30.799,32.045 27.505,32.22 25.605,34.083C22.136,36.502 18.621,38.391 14.343,39.046C13.863,39.526 14.445,40.916 14.445,40.916C17.154,40.74 21.227,39.813 23.46,38.361C20.341,41.498 18.501,42.948 16.149,44.035C16.149,44.035 16.205,44.113 16.233,44.152C16.615,44.678 17.386,45.7 17.386,45.7C18.587,45.349 20.682,44.465 21.695,43.551C21.066,44.717 19.641,46.155 18.637,46.947C18.637,46.947 22.43,50.792 24.446,52.18C24.525,52.236 24.662,52.362 24.715,52.283C26.411,49.781 28.298,47.896 28.283,47.939C28.227,48.103 26.838,50.53 26.885,53.526C26.885,53.526 28.33,53.93 28.779,53.481C29.792,49.942 31.647,45.353 33.862,42.304ZM35.299,30.017L40.961,24.355C41.652,23.664 42.774,23.664 43.465,24.355C44.156,25.046 44.156,26.168 43.465,26.859L37.803,32.521C38.488,33.957 37.905,36.224 37.228,37.661C37.23,36.022 36.55,34.413 34.978,32.842C33.5,31.363 31.787,30.659 30.153,30.593C31.593,29.914 33.862,29.331 35.299,30.017Z" style="fill:white;"/>
                </g>
            </g>
            <g transform="matrix(0.564739,0,0,0.564739,13.9574,18.7774)">
                <g>
                    <path d="M42.611,44.082L40.966,47.017C40.902,47.133 40.868,47.262 40.868,47.395C40.868,47.528 40.902,47.657 40.967,47.772L42.61,50.707L39.675,49.064C39.56,48.999 39.431,48.965 39.298,48.965C39.165,48.965 39.036,48.999 38.92,49.063L35.985,50.708L37.629,47.772C37.694,47.657 37.727,47.526 37.728,47.395C37.728,47.262 37.693,47.132 37.629,47.018L35.985,44.082L38.921,45.726C39.035,45.79 39.165,45.825 39.298,45.825C39.429,45.823 39.56,45.791 39.675,45.726L42.611,44.082ZM24.408,24.574L22.763,27.509C22.699,27.626 22.665,27.755 22.665,27.887C22.665,28.02 22.699,28.149 22.764,28.264L24.407,31.199L21.472,29.556C21.357,29.491 21.228,29.458 21.095,29.458C20.962,29.458 20.833,29.491 20.717,29.555L17.782,31.2L19.426,28.264C19.491,28.149 19.524,28.019 19.525,27.887C19.525,27.755 19.49,27.625 19.426,27.511L17.782,24.574L20.718,26.218C20.832,26.282 20.962,26.317 21.095,26.317C21.227,26.316 21.357,26.284 21.472,26.218L24.408,24.574Z" style="fill:white;"/>
                </g>
            </g>
        </g>
    </g>
</svg>
