<?xml version="1.0" encoding="UTF-8" standalone="no"?>
<!DOCTYPE svg PUBLIC "-//W3C//DTD SVG 1.1//EN" "http://www.w3.org/Graphics/SVG/1.1/DTD/svg11.dtd">
<svg width="60px" height="60px" version="1.1" xmlns="http://www.w3.org/2000/svg" xmlns:xlink="http://www.w3.org/1999/xlink" xml:space="preserve" xmlns:serif="http://www.serif.com/" style="fill-rule:evenodd;clip-rule:evenodd;stroke-linejoin:round;stroke-miterlimit:2;">
    <rect x="0" y="0" width="60" height="60" style="fill:rgb(184,184,184);fill-opacity:0;"/>
    <g id="page">
        <g transform="matrix(1,0,0,1,-1,1)">
            <path d="M53,57L8,57L8,1L42,1L42,2L43,2L43,3L44,3L44,4L45,4L45,5L46,5L46,6L47,6L47,7L48,7L48,8L49,8L49,9L50,9L50,10L51,10L51,11L52,11L52,12L53,12L53,57Z" style="fill:rgb(72,121,52);fill-rule:nonzero;"/>
        </g>
        <g transform="matrix(1,0,0,1,-1,0)">
            <path d="M41,14L41,2L42,2L42,3L43,3L43,4L44,4L44,5L45,5L45,6L46,6L46,7L47,7L47,8L48,8L48,9L49,9L49,10L50,10L50,11L51,11L51,12L52,12L52,13L53,13L53,14L41,14Z" style="fill:rgb(150,206,127);fill-rule:nonzero;"/>
        </g>
        <g transform="matrix(1,0,0,1,-1,1)">
            <path d="M41,13L52,13L52,24L41,13Z" style="fill-opacity:0.25;"/>
        </g>
        <g transform="matrix(1,0,0,1,-1,1)">
            <path d="M53,57L8,57L8,1L42,1L42,2L43,2L43,3L44,3L44,4L45,4L45,5L46,5L46,6L47,6L47,7L48,7L48,8L49,8L49,9L50,9L50,10L51,10L51,11L52,11L52,12L53,12L53,57ZM41,2L9,2L9,56L52,56L52,13L41,2Z" style="fill:rgb(33,63,21);"/>
        </g>
        <g transform="matrix(1,0,0,1,0,-12)">
            <path d="M46,52L13,52L13,31L46,31L46,52ZM15,45L15,50L20,50L20,45L15,45ZM21,45L21,50L26,50L26,45L21,45ZM27,45L27,50L32,50L32,45L27,45ZM33,45L33,50L38,50L38,45L33,45ZM39,45L39,50L44,50L44,45L39,45ZM15,39L15,44L20,44L20,39L15,39ZM21,39L21,44L26,44L26,39L21,39ZM27,39L27,44L32,44L32,39L27,39ZM33,39L33,44L38,44L38,39L33,39ZM39,39L39,44L44,44L44,39L39,39ZM15,33L15,38L20,38L20,33L15,33ZM21,33L21,38L26,38L26,33L21,33ZM27,33L27,38L32,38L32,33L27,33ZM33,33L33,38L38,38L38,33L33,33ZM39,33L39,38L44,38L44,33L39,33Z" style="fill-opacity:0.5;"/>
        </g>
        <g>
            <path d="M44,38.056C39.45,37.996 36.227,37.2 34.419,36.056C32.783,35.021 28.941,30.642 26.204,27.851C21.956,23.52 15.328,24.083 15.328,24.083C15.216,24.092 15.106,24.088 15,24.074L15,21.102C15.028,21.098 15.056,21.095 15.085,21.093C15.085,21.093 23.283,20.343 28.346,25.751C32.257,29.928 34.225,32.272 36.098,33.57C37.533,34.564 40.735,35.035 44,35.204L44,38.056Z" style="fill:rgb(255,127,33);"/>
        </g>
        <g transform="matrix(1,0,0,1.0221,-1.32985,2.89295)">
            <g transform="matrix(11.2123,0,0,10.8163,13.886,49.8752)">
                <path d="M0.575,-0.029C0.522,-0.002 0.456,0.012 0.378,0.012C0.276,0.012 0.195,-0.02 0.134,-0.084C0.073,-0.149 0.042,-0.233 0.042,-0.337C0.042,-0.449 0.076,-0.539 0.145,-0.608C0.214,-0.677 0.301,-0.712 0.406,-0.712C0.474,-0.712 0.53,-0.702 0.575,-0.683L0.575,-0.568C0.528,-0.596 0.475,-0.61 0.418,-0.61C0.343,-0.61 0.281,-0.586 0.234,-0.537C0.187,-0.489 0.164,-0.424 0.164,-0.343C0.164,-0.266 0.186,-0.204 0.229,-0.158C0.273,-0.113 0.331,-0.09 0.403,-0.09C0.469,-0.09 0.526,-0.105 0.575,-0.137L0.575,-0.029Z" style="fill-opacity:0.3;fill-rule:nonzero;"/>
            </g>
            <g transform="matrix(11,0,0,10.9382,20.9705,49.8338)">
                <path d="M0.625,-0.283C0.625,-0.087 0.532,0.012 0.346,0.012C0.167,0.012 0.078,-0.083 0.078,-0.272L0.078,-0.7L0.194,-0.7L0.194,-0.296C0.194,-0.159 0.248,-0.09 0.354,-0.09C0.457,-0.09 0.509,-0.156 0.509,-0.289L0.509,-0.7L0.625,-0.7L0.625,-0.283Z" style="fill-opacity:0.3;fill-rule:nonzero;"/>
            </g>
            <g transform="matrix(11,0,0,11.1783,28.4614,50.002)">
                <path d="M0.627,0L0.492,0L0.38,-0.188C0.37,-0.205 0.36,-0.219 0.35,-0.232C0.341,-0.244 0.331,-0.254 0.321,-0.262C0.311,-0.27 0.3,-0.275 0.289,-0.279C0.277,-0.282 0.264,-0.284 0.249,-0.284L0.202,-0.284L0.202,0L0.086,0L0.086,-0.7L0.317,-0.7C0.35,-0.7 0.38,-0.696 0.408,-0.688C0.435,-0.681 0.459,-0.669 0.48,-0.653C0.5,-0.637 0.517,-0.618 0.528,-0.594C0.54,-0.57 0.545,-0.543 0.545,-0.511C0.545,-0.486 0.542,-0.464 0.534,-0.443C0.527,-0.422 0.517,-0.404 0.503,-0.388C0.49,-0.372 0.473,-0.358 0.454,-0.347C0.435,-0.335 0.414,-0.326 0.39,-0.32L0.39,-0.318C0.403,-0.311 0.414,-0.303 0.423,-0.295C0.433,-0.286 0.442,-0.277 0.45,-0.268C0.459,-0.259 0.467,-0.249 0.475,-0.237C0.484,-0.226 0.493,-0.212 0.503,-0.197L0.627,0ZM0.202,-0.606L0.202,-0.378L0.299,-0.378C0.317,-0.378 0.333,-0.381 0.348,-0.387C0.364,-0.392 0.377,-0.4 0.388,-0.411C0.399,-0.421 0.407,-0.434 0.414,-0.449C0.42,-0.464 0.423,-0.48 0.423,-0.499C0.423,-0.533 0.412,-0.559 0.391,-0.578C0.37,-0.597 0.34,-0.606 0.3,-0.606L0.202,-0.606Z" style="fill-opacity:0.3;fill-rule:nonzero;"/>
            </g>
            <g transform="matrix(11,0,0,11.1783,35.3421,50.002)">
                <path d="M0.635,-0.7L0.384,0L0.254,0L0.007,-0.7L0.134,-0.7L0.307,-0.169C0.312,-0.152 0.316,-0.132 0.319,-0.11L0.321,-0.11C0.324,-0.128 0.328,-0.148 0.335,-0.17L0.512,-0.7L0.635,-0.7Z" style="fill-opacity:0.3;fill-rule:nonzero;"/>
            </g>
            <g transform="matrix(11,0,0,11.1783,42.3671,50.002)">
                <path d="M0.479,0L0.086,0L0.086,-0.7L0.464,-0.7L0.464,-0.602L0.203,-0.602L0.203,-0.403L0.443,-0.403L0.443,-0.305L0.203,-0.305L0.203,-0.098L0.479,-0.098L0.479,0Z" style="fill-opacity:0.3;fill-rule:nonzero;"/>
            </g>
        </g>
        <g transform="matrix(1,0,0,1.0221,-1.32985,1.89295)">
            <g transform="matrix(11.2123,0,0,10.8163,13.886,49.8752)">
                <path d="M0.575,-0.029C0.522,-0.002 0.456,0.012 0.378,0.012C0.276,0.012 0.195,-0.02 0.134,-0.084C0.073,-0.149 0.042,-0.233 0.042,-0.337C0.042,-0.449 0.076,-0.539 0.145,-0.608C0.214,-0.677 0.301,-0.712 0.406,-0.712C0.474,-0.712 0.53,-0.702 0.575,-0.683L0.575,-0.568C0.528,-0.596 0.475,-0.61 0.418,-0.61C0.343,-0.61 0.281,-0.586 0.234,-0.537C0.187,-0.489 0.164,-0.424 0.164,-0.343C0.164,-0.266 0.186,-0.204 0.229,-0.158C0.273,-0.113 0.331,-0.09 0.403,-0.09C0.469,-0.09 0.526,-0.105 0.575,-0.137L0.575,-0.029Z" style="fill:white;fill-rule:nonzero;"/>
            </g>
            <g transform="matrix(11,0,0,10.9382,20.9705,49.8338)">
                <path d="M0.625,-0.283C0.625,-0.087 0.532,0.012 0.346,0.012C0.167,0.012 0.078,-0.083 0.078,-0.272L0.078,-0.7L0.194,-0.7L0.194,-0.296C0.194,-0.159 0.248,-0.09 0.354,-0.09C0.457,-0.09 0.509,-0.156 0.509,-0.289L0.509,-0.7L0.625,-0.7L0.625,-0.283Z" style="fill:white;fill-rule:nonzero;"/>
            </g>
            <g transform="matrix(11,0,0,11.1783,28.4614,50.002)">
                <path d="M0.627,0L0.492,0L0.38,-0.188C0.37,-0.205 0.36,-0.219 0.35,-0.232C0.341,-0.244 0.331,-0.254 0.321,-0.262C0.311,-0.27 0.3,-0.275 0.289,-0.279C0.277,-0.282 0.264,-0.284 0.249,-0.284L0.202,-0.284L0.202,0L0.086,0L0.086,-0.7L0.317,-0.7C0.35,-0.7 0.38,-0.696 0.408,-0.688C0.435,-0.681 0.459,-0.669 0.48,-0.653C0.5,-0.637 0.517,-0.618 0.528,-0.594C0.54,-0.57 0.545,-0.543 0.545,-0.511C0.545,-0.486 0.542,-0.464 0.534,-0.443C0.527,-0.422 0.517,-0.404 0.503,-0.388C0.49,-0.372 0.473,-0.358 0.454,-0.347C0.435,-0.335 0.414,-0.326 0.39,-0.32L0.39,-0.318C0.403,-0.311 0.414,-0.303 0.423,-0.295C0.433,-0.286 0.442,-0.277 0.45,-0.268C0.459,-0.259 0.467,-0.249 0.475,-0.237C0.484,-0.226 0.493,-0.212 0.503,-0.197L0.627,0ZM0.202,-0.606L0.202,-0.378L0.299,-0.378C0.317,-0.378 0.333,-0.381 0.348,-0.387C0.364,-0.392 0.377,-0.4 0.388,-0.411C0.399,-0.421 0.407,-0.434 0.414,-0.449C0.42,-0.464 0.423,-0.48 0.423,-0.499C0.423,-0.533 0.412,-0.559 0.391,-0.578C0.37,-0.597 0.34,-0.606 0.3,-0.606L0.202,-0.606Z" style="fill:white;fill-rule:nonzero;"/>
            </g>
            <g transform="matrix(11,0,0,11.1783,35.3421,50.002)">
                <path d="M0.635,-0.7L0.384,0L0.254,0L0.007,-0.7L0.134,-0.7L0.307,-0.169C0.312,-0.152 0.316,-0.132 0.319,-0.11L0.321,-0.11C0.324,-0.128 0.328,-0.148 0.335,-0.17L0.512,-0.7L0.635,-0.7Z" style="fill:white;fill-rule:nonzero;"/>
            </g>
            <g transform="matrix(11,0,0,11.1783,42.3671,50.002)">
                <path d="M0.479,0L0.086,0L0.086,-0.7L0.464,-0.7L0.464,-0.602L0.203,-0.602L0.203,-0.403L0.443,-0.403L0.443,-0.305L0.203,-0.305L0.203,-0.098L0.479,-0.098L0.479,0Z" style="fill:white;fill-rule:nonzero;"/>
            </g>
        </g>
    </g>
</svg>
