<?xml version="1.0" encoding="UTF-8" standalone="no"?>
<!DOCTYPE svg PUBLIC "-//W3C//DTD SVG 1.1//EN" "http://www.w3.org/Graphics/SVG/1.1/DTD/svg11.dtd">
<svg width="60px" height="60px" version="1.1" xmlns="http://www.w3.org/2000/svg" xmlns:xlink="http://www.w3.org/1999/xlink" xml:space="preserve" xmlns:serif="http://www.serif.com/" style="fill-rule:evenodd;clip-rule:evenodd;stroke-linejoin:round;stroke-miterlimit:2;">
    <rect x="0" y="0" width="60" height="60" style="fill:rgb(59,59,59);fill-opacity:0;"/>
    <g id="page">
        <g id="outline" transform="matrix(1,0,0,1,-1,1)">
            <g transform="matrix(1,0,0,1,1,0)">
                <path d="M40,2L8,2L8,56L51,56L51,13L40,2Z" style="fill:rgb(228,228,228);fill-rule:nonzero;"/>
            </g>
            <g transform="matrix(1,0,0,1,1,0)">
                <path d="M40,2L51,13L40,13L40,2Z" style="fill:white;fill-rule:nonzero;"/>
            </g>
            <path d="M53,57L8,57L8,1L42,1L42,2L43,2L43,3L44,3L44,4L45,4L45,5L46,5L46,6L47,6L47,7L48,7L48,8L49,8L49,9L50,9L50,10L51,10L51,11L52,11L52,12L53,12L53,57ZM41,2L9,2L9,56L52,56L52,13L41,2Z" style="fill-opacity:0.6;"/>
        </g>
        <g transform="matrix(0.943825,0,0,0.871141,2.60099,0.57182)">
            <path d="M26.38,23.595C26.82,22.794 27.627,22.302 28.5,22.302C29.373,22.302 30.18,22.794 30.62,23.595C33.912,29.584 40.217,41.056 43.529,47.082C43.971,47.888 43.975,48.883 43.537,49.692C43.099,50.501 42.287,51 41.408,51L15.592,51C14.713,51 13.901,50.501 13.463,49.692C13.025,48.883 13.029,47.888 13.471,47.082C16.783,41.056 23.088,29.584 26.38,23.595Z" style="fill-opacity:0.7;"/>
        </g>
        <g transform="matrix(16,0,0,16,24.96,42.068)">
            <path d="M0.367,-0.185L0.242,-0.185L0.242,-0.217C0.242,-0.258 0.248,-0.291 0.262,-0.317C0.275,-0.343 0.302,-0.372 0.342,-0.405C0.382,-0.437 0.406,-0.459 0.414,-0.469C0.426,-0.485 0.432,-0.502 0.432,-0.521C0.432,-0.548 0.421,-0.571 0.4,-0.59C0.378,-0.609 0.35,-0.619 0.313,-0.619C0.279,-0.619 0.25,-0.609 0.226,-0.589C0.203,-0.569 0.187,-0.539 0.178,-0.498L0.052,-0.514C0.055,-0.572 0.08,-0.621 0.126,-0.662C0.172,-0.703 0.233,-0.723 0.308,-0.723C0.386,-0.723 0.449,-0.703 0.496,-0.661C0.542,-0.62 0.565,-0.572 0.565,-0.518C0.565,-0.487 0.557,-0.459 0.54,-0.432C0.523,-0.405 0.486,-0.368 0.43,-0.321C0.401,-0.297 0.383,-0.278 0.376,-0.263C0.369,-0.249 0.366,-0.222 0.367,-0.185ZM0.242,0L0.242,-0.137L0.379,-0.137L0.379,0L0.242,0Z" style="fill-opacity:0.25;fill-rule:nonzero;"/>
        </g>
        <g transform="matrix(16,0,0,16,24.96,41.068)">
            <path d="M0.367,-0.185L0.242,-0.185L0.242,-0.217C0.242,-0.258 0.248,-0.291 0.262,-0.317C0.275,-0.343 0.302,-0.372 0.342,-0.405C0.382,-0.437 0.406,-0.459 0.414,-0.469C0.426,-0.485 0.432,-0.502 0.432,-0.521C0.432,-0.548 0.421,-0.571 0.4,-0.59C0.378,-0.609 0.35,-0.619 0.313,-0.619C0.279,-0.619 0.25,-0.609 0.226,-0.589C0.203,-0.569 0.187,-0.539 0.178,-0.498L0.052,-0.514C0.055,-0.572 0.08,-0.621 0.126,-0.662C0.172,-0.703 0.233,-0.723 0.308,-0.723C0.386,-0.723 0.449,-0.703 0.496,-0.661C0.542,-0.62 0.565,-0.572 0.565,-0.518C0.565,-0.487 0.557,-0.459 0.54,-0.432C0.523,-0.405 0.486,-0.368 0.43,-0.321C0.401,-0.297 0.383,-0.278 0.376,-0.263C0.369,-0.249 0.366,-0.222 0.367,-0.185ZM0.242,0L0.242,-0.137L0.379,-0.137L0.379,0L0.242,0Z" style="fill:white;fill-rule:nonzero;"/>
        </g>
    </g>
    <g transform="matrix(1,0,0,1,-1,1)">
        <path d="M41,13L52,13L52,24L41,13Z" style="fill-opacity:0.25;"/>
    </g>
</svg>
