<?xml version="1.0" encoding="UTF-8" standalone="no"?>
<!DOCTYPE svg PUBLIC "-//W3C//DTD SVG 1.1//EN" "http://www.w3.org/Graphics/SVG/1.1/DTD/svg11.dtd">
<svg width="60px" height="60px" version="1.1" xmlns="http://www.w3.org/2000/svg" xmlns:xlink="http://www.w3.org/1999/xlink" xml:space="preserve" xmlns:serif="http://www.serif.com/" style="fill-rule:evenodd;clip-rule:evenodd;stroke-linejoin:round;stroke-miterlimit:2;">
    <rect x="0" y="0" width="60" height="60" style="fill:rgb(184,184,184);fill-opacity:0;"/>
    <g id="page">
        <g transform="matrix(1,0,0,1,-1,1)">
            <path d="M53,57L8,57L8,1L42,1L42,2L43,2L43,3L44,3L44,4L45,4L45,5L46,5L46,6L47,6L47,7L48,7L48,8L49,8L49,9L50,9L50,10L51,10L51,11L52,11L52,12L53,12L53,57Z" style="fill:rgb(72,121,52);fill-rule:nonzero;"/>
        </g>
        <g transform="matrix(1,0,0,1,-1,0)">
            <path d="M41,14L41,2L42,2L42,3L43,3L43,4L44,4L44,5L45,5L45,6L46,6L46,7L47,7L47,8L48,8L48,9L49,9L49,10L50,10L50,11L51,11L51,12L52,12L52,13L53,13L53,14L41,14Z" style="fill:rgb(150,206,127);fill-rule:nonzero;"/>
        </g>
        <g transform="matrix(1,0,0,1,-1,1)">
            <path d="M41,13L52,13L52,24L41,13Z" style="fill-opacity:0.25;"/>
        </g>
        <g transform="matrix(1,0,0,1,-1,1)">
            <path d="M53,57L8,57L8,1L42,1L42,2L43,2L43,3L44,3L44,4L45,4L45,5L46,5L46,6L47,6L47,7L48,7L48,8L49,8L49,9L50,9L50,10L51,10L51,11L52,11L52,12L53,12L53,57ZM41,2L9,2L9,56L52,56L52,13L41,2Z" style="fill:rgb(33,63,21);"/>
        </g>
    </g>
    <g transform="matrix(0.884821,-0.237087,0.237087,0.884821,-4.15421,4.8312)">
        <path d="M33.708,47.264L39.212,49.042L38.541,51.204L30.342,48.595C29.82,48.296 29.522,47.849 29.522,47.402C29.522,47.327 29.522,47.178 29.596,47.104L32.205,38.532L34.367,39.202L32.463,45.406C34.159,44.627 35.663,43.84 36.976,43.004L37.05,43.004L38.169,44.868C36.873,45.656 35.365,46.487 33.708,47.264ZM38.69,41.886C38.69,41.811 38.765,41.811 38.69,41.886C40.703,40.395 42.045,38.83 42.641,37.264L42.716,37.264L44.728,38.084L44.728,38.159C43.908,40.097 42.343,41.886 40.032,43.675L39.958,43.675L38.69,41.886ZM41.333,29.152C42.743,29.681 44.509,30.952 45.101,33.985L45.101,34.134C45.175,34.357 45.25,34.879 45.25,35.475L45.25,35.55L43.088,35.55L43.088,35.475C43.088,35.028 43.014,34.73 43.014,34.655C43.014,34.581 42.939,34.506 42.939,34.357C42.717,33.544 42.349,31.996 40.523,31.171L40.479,31.152L41.225,29.139L41.299,29.139L41.333,29.152ZM14.017,30.928L15.583,29.438C16.03,29.885 16.701,30.332 17.446,30.63C18.042,30.854 18.639,31.003 18.713,31.003L18.788,31.003C19.086,31.003 19.608,31.077 20.502,31.077L20.95,31.077L20.95,33.239L20.428,33.239C19.459,33.239 18.788,33.239 18.564,33.165L18.49,33.165C18.117,33.165 17.521,33.015 16.552,32.643C15.583,32.27 14.688,31.674 14.017,30.928ZM23.186,31.003C25.273,30.779 27.435,30.556 29.745,30.034L30.193,32.196L30.193,32.27C27.807,32.717 25.497,33.015 23.409,33.165L23.186,31.003ZM31.833,29.661C32.429,29.512 33.025,29.363 33.696,29.214C35.261,28.841 36.752,28.618 38.019,28.618L38.765,28.618C38.765,28.618 38.839,28.618 38.765,28.692L38.616,30.854L38.019,30.854C36.901,30.854 35.634,31.077 34.218,31.376C33.547,31.525 32.876,31.674 32.28,31.823L32.205,31.823L31.833,29.661ZM12.75,27.723C12.75,26.754 13.048,25.636 13.644,24.518C14.166,23.474 14.837,22.505 15.657,21.536L17.297,22.952C16.626,23.772 16.03,24.667 15.583,25.561C15.135,26.381 14.986,27.127 14.986,27.723L14.986,28.17L12.825,28.468C12.75,28.17 12.75,27.947 12.75,27.723ZM23.931,17.809C23.931,17.809 23.782,17.884 23.484,18.033C23.111,18.256 22.664,18.48 22.291,18.704C21.397,19.225 20.055,20.12 18.713,21.387L17.222,19.822C19.906,17.287 22.589,16.02 23.037,15.796L23.931,17.809Z" style="fill-opacity:0.25;fill-rule:nonzero;"/>
    </g>
    <g transform="matrix(0.884821,-0.237087,0.237087,0.884821,-4.15421,3.8312)">
        <path d="M33.708,47.264L39.212,49.042L38.541,51.204L30.342,48.595C29.82,48.296 29.522,47.849 29.522,47.402C29.522,47.327 29.522,47.178 29.596,47.104L32.205,38.532L34.367,39.202L32.463,45.406C34.159,44.627 35.663,43.84 36.976,43.004L37.05,43.004L38.169,44.868C36.873,45.656 35.365,46.487 33.708,47.264ZM38.69,41.886C38.69,41.811 38.765,41.811 38.69,41.886C40.703,40.395 42.045,38.83 42.641,37.264L42.716,37.264L44.728,38.084L44.728,38.159C43.908,40.097 42.343,41.886 40.032,43.675L39.958,43.675L38.69,41.886ZM41.333,29.152C42.743,29.681 44.509,30.952 45.101,33.985L45.101,34.134C45.175,34.357 45.25,34.879 45.25,35.475L45.25,35.55L43.088,35.55L43.088,35.475C43.088,35.028 43.014,34.73 43.014,34.655C43.014,34.581 42.939,34.506 42.939,34.357C42.717,33.544 42.349,31.996 40.523,31.171L40.479,31.152L41.225,29.139L41.299,29.139L41.333,29.152ZM14.017,30.928L15.583,29.438C16.03,29.885 16.701,30.332 17.446,30.63C18.042,30.854 18.639,31.003 18.713,31.003L18.788,31.003C19.086,31.003 19.608,31.077 20.502,31.077L20.95,31.077L20.95,33.239L20.428,33.239C19.459,33.239 18.788,33.239 18.564,33.165L18.49,33.165C18.117,33.165 17.521,33.015 16.552,32.643C15.583,32.27 14.688,31.674 14.017,30.928ZM23.186,31.003C25.273,30.779 27.435,30.556 29.745,30.034L30.193,32.196L30.193,32.27C27.807,32.717 25.497,33.015 23.409,33.165L23.186,31.003ZM31.833,29.661C32.429,29.512 33.025,29.363 33.696,29.214C35.261,28.841 36.752,28.618 38.019,28.618L38.765,28.618C38.765,28.618 38.839,28.618 38.765,28.692L38.616,30.854L38.019,30.854C36.901,30.854 35.634,31.077 34.218,31.376C33.547,31.525 32.876,31.674 32.28,31.823L32.205,31.823L31.833,29.661ZM12.75,27.723C12.75,26.754 13.048,25.636 13.644,24.518C14.166,23.474 14.837,22.505 15.657,21.536L17.297,22.952C16.626,23.772 16.03,24.667 15.583,25.561C15.135,26.381 14.986,27.127 14.986,27.723L14.986,28.17L12.825,28.468C12.75,28.17 12.75,27.947 12.75,27.723ZM23.931,17.809C23.931,17.809 23.782,17.884 23.484,18.033C23.111,18.256 22.664,18.48 22.291,18.704C21.397,19.225 20.055,20.12 18.713,21.387L17.222,19.822C19.906,17.287 22.589,16.02 23.037,15.796L23.931,17.809Z" style="fill:white;fill-rule:nonzero;"/>
    </g>
    <g transform="matrix(1,0,0,1.03867,-2.03566,1.38139)">
        <g transform="matrix(10.639,0,0,11,13.1202,50.6595)">
            <path d="M0.838,0L0.723,0L0.723,-0.453C0.723,-0.49 0.725,-0.536 0.73,-0.589L0.728,-0.589C0.721,-0.559 0.715,-0.537 0.709,-0.523L0.5,0L0.42,0L0.21,-0.52C0.205,-0.535 0.198,-0.558 0.192,-0.589L0.19,-0.589C0.193,-0.561 0.194,-0.516 0.194,-0.452L0.194,0L0.086,0L0.086,-0.7L0.25,-0.7L0.434,-0.234C0.448,-0.198 0.457,-0.171 0.461,-0.154L0.464,-0.154C0.476,-0.191 0.486,-0.218 0.493,-0.236L0.681,-0.7L0.838,-0.7L0.838,0Z" style="fill-opacity:0.3;fill-rule:nonzero;"/>
        </g>
        <g transform="matrix(11,0,0,11,22.9637,50.6595)">
            <path d="M0.202,-0.254L0.202,0L0.086,0L0.086,-0.7L0.299,-0.7C0.379,-0.7 0.442,-0.681 0.486,-0.644C0.53,-0.607 0.552,-0.554 0.552,-0.486C0.552,-0.418 0.529,-0.362 0.483,-0.319C0.437,-0.276 0.374,-0.254 0.295,-0.254L0.202,-0.254ZM0.202,-0.604L0.202,-0.349L0.277,-0.349C0.327,-0.349 0.365,-0.36 0.391,-0.383C0.417,-0.406 0.43,-0.439 0.43,-0.481C0.43,-0.563 0.382,-0.604 0.287,-0.604L0.202,-0.604Z" style="fill-opacity:0.3;fill-rule:nonzero;"/>
        </g>
        <g transform="matrix(11,0,0,11,28.8507,50.6705)">
            <path d="M0.662,0L0.534,0L0.471,-0.178L0.196,-0.178L0.135,0L0.008,0L0.271,-0.7L0.401,-0.7L0.662,0ZM0.44,-0.273L0.343,-0.552C0.34,-0.561 0.337,-0.576 0.334,-0.596L0.332,-0.596C0.329,-0.578 0.326,-0.563 0.322,-0.552L0.226,-0.273L0.44,-0.273Z" style="fill-opacity:0.3;fill-rule:nonzero;"/>
        </g>
        <g transform="matrix(11,0,0,11,35.4929,50.6595)">
            <path d="M0.536,-0.602L0.334,-0.602L0.334,0L0.218,0L0.218,-0.602L0.018,-0.602L0.018,-0.7L0.536,-0.7L0.536,-0.602Z" style="fill-opacity:0.3;fill-rule:nonzero;"/>
        </g>
        <g transform="matrix(11,0,0,11,41.9912,50.6595)">
            <path d="M0.649,0L0.532,0L0.532,-0.304L0.203,-0.304L0.203,0L0.086,0L0.086,-0.7L0.203,-0.7L0.203,-0.406L0.532,-0.406L0.532,-0.7L0.649,-0.7L0.649,0Z" style="fill-opacity:0.3;fill-rule:nonzero;"/>
        </g>
    </g>
    <g transform="matrix(1,0,0,1.03867,-2.03566,0.381386)">
        <g transform="matrix(10.639,0,0,11,13.1202,50.6595)">
            <path d="M0.838,0L0.723,0L0.723,-0.453C0.723,-0.49 0.725,-0.536 0.73,-0.589L0.728,-0.589C0.721,-0.559 0.715,-0.537 0.709,-0.523L0.5,0L0.42,0L0.21,-0.52C0.205,-0.535 0.198,-0.558 0.192,-0.589L0.19,-0.589C0.193,-0.561 0.194,-0.516 0.194,-0.452L0.194,0L0.086,0L0.086,-0.7L0.25,-0.7L0.434,-0.234C0.448,-0.198 0.457,-0.171 0.461,-0.154L0.464,-0.154C0.476,-0.191 0.486,-0.218 0.493,-0.236L0.681,-0.7L0.838,-0.7L0.838,0Z" style="fill:white;fill-rule:nonzero;"/>
        </g>
        <g transform="matrix(11,0,0,11,22.9637,50.6595)">
            <path d="M0.202,-0.254L0.202,0L0.086,0L0.086,-0.7L0.299,-0.7C0.379,-0.7 0.442,-0.681 0.486,-0.644C0.53,-0.607 0.552,-0.554 0.552,-0.486C0.552,-0.418 0.529,-0.362 0.483,-0.319C0.437,-0.276 0.374,-0.254 0.295,-0.254L0.202,-0.254ZM0.202,-0.604L0.202,-0.349L0.277,-0.349C0.327,-0.349 0.365,-0.36 0.391,-0.383C0.417,-0.406 0.43,-0.439 0.43,-0.481C0.43,-0.563 0.382,-0.604 0.287,-0.604L0.202,-0.604Z" style="fill:white;fill-rule:nonzero;"/>
        </g>
        <g transform="matrix(11,0,0,11,28.8507,50.6705)">
            <path d="M0.662,0L0.534,0L0.471,-0.178L0.196,-0.178L0.135,0L0.008,0L0.271,-0.7L0.401,-0.7L0.662,0ZM0.44,-0.273L0.343,-0.552C0.34,-0.561 0.337,-0.576 0.334,-0.596L0.332,-0.596C0.329,-0.578 0.326,-0.563 0.322,-0.552L0.226,-0.273L0.44,-0.273Z" style="fill:white;fill-rule:nonzero;"/>
        </g>
        <g transform="matrix(11,0,0,11,35.4929,50.6595)">
            <path d="M0.536,-0.602L0.334,-0.602L0.334,0L0.218,0L0.218,-0.602L0.018,-0.602L0.018,-0.7L0.536,-0.7L0.536,-0.602Z" style="fill:white;fill-rule:nonzero;"/>
        </g>
        <g transform="matrix(11,0,0,11,41.9912,50.6595)">
            <path d="M0.649,0L0.532,0L0.532,-0.304L0.203,-0.304L0.203,0L0.086,0L0.086,-0.7L0.203,-0.7L0.203,-0.406L0.532,-0.406L0.532,-0.7L0.649,-0.7L0.649,0Z" style="fill:white;fill-rule:nonzero;"/>
        </g>
    </g>
</svg>
