<?xml version="1.0" encoding="UTF-8" standalone="no"?>
<!DOCTYPE svg PUBLIC "-//W3C//DTD SVG 1.1//EN" "http://www.w3.org/Graphics/SVG/1.1/DTD/svg11.dtd">
<svg width="60px" height="60px" version="1.1" xmlns="http://www.w3.org/2000/svg" xmlns:xlink="http://www.w3.org/1999/xlink" xml:space="preserve" xmlns:serif="http://www.serif.com/" style="fill-rule:evenodd;clip-rule:evenodd;stroke-linejoin:round;stroke-miterlimit:2;">
    <rect x="0" y="0" width="60" height="60" style="fill:rgb(42,42,42);fill-opacity:0;"/>
    <g id="page">
        <g id="base" transform="matrix(1,0,0,1,-1,1)">
            <path d="M53,57L8,57L8,1L42,1L42,2L43,2L43,3L44,3L44,4L45,4L45,5L46,5L46,6L47,6L47,7L48,7L48,8L49,8L49,9L50,9L50,10L51,10L51,11L52,11L52,12L53,12L53,57Z" style="fill:rgb(33,44,102);fill-rule:nonzero;"/>
        </g>
        <g transform="matrix(1,0,0,1,-1,0)">
            <path d="M41,14L41,2L42,2L42,3L43,3L43,4L44,4L44,5L45,5L45,6L46,6L46,7L47,7L47,8L48,8L48,9L49,9L49,10L50,10L50,11L51,11L51,12L52,12L52,13L53,13L53,14L41,14Z" style="fill:rgb(42,122,176);fill-rule:nonzero;"/>
        </g>
        <g transform="matrix(1,0,0,1,-1,1)">
            <path d="M41,13L52,13L52,24L41,13Z" style="fill-opacity:0.25;"/>
        </g>
        <g id="outline" transform="matrix(1,0,0,1,-1,1)">
            <path d="M53,57L8,57L8,1L42,1L42,2L43,2L43,3L44,3L44,4L45,4L45,5L46,5L46,6L47,6L47,7L48,7L48,8L49,8L49,9L50,9L50,10L51,10L51,11L52,11L52,12L53,12L53,57ZM41,2L9,2L9,56L52,56L52,13L41,2Z" style="fill:rgb(14,22,67);"/>
        </g>
    </g>
    <g transform="matrix(1,0,0,1,2.03191,-0.79639)">
        <g transform="matrix(1,0,0,1,6.39312,4.66075)">
            <g transform="matrix(13,0,0,13,9.28273,50.1869)">
                <path d="M0.202,-0.254L0.202,0L0.086,0L0.086,-0.7L0.299,-0.7C0.379,-0.7 0.442,-0.681 0.486,-0.644C0.53,-0.607 0.552,-0.554 0.552,-0.486C0.552,-0.418 0.529,-0.362 0.483,-0.319C0.437,-0.276 0.374,-0.254 0.295,-0.254L0.202,-0.254ZM0.202,-0.604L0.202,-0.349L0.277,-0.349C0.327,-0.349 0.365,-0.36 0.391,-0.383C0.417,-0.406 0.43,-0.439 0.43,-0.481C0.43,-0.563 0.382,-0.604 0.287,-0.604L0.202,-0.604Z" style="fill-opacity:0.3;fill-rule:nonzero;"/>
            </g>
            <g transform="matrix(13,0,0,13,16.8809,50.1869)">
                <path d="M0.054,-0.028L0.054,-0.147C0.065,-0.138 0.078,-0.129 0.093,-0.121C0.107,-0.113 0.123,-0.107 0.14,-0.101C0.156,-0.096 0.173,-0.092 0.189,-0.089C0.206,-0.086 0.221,-0.084 0.235,-0.084C0.284,-0.084 0.321,-0.093 0.344,-0.109C0.368,-0.125 0.38,-0.149 0.38,-0.18C0.38,-0.196 0.376,-0.211 0.368,-0.223C0.36,-0.235 0.349,-0.246 0.335,-0.256C0.321,-0.266 0.304,-0.276 0.284,-0.285C0.265,-0.295 0.244,-0.304 0.222,-0.314C0.198,-0.327 0.176,-0.34 0.156,-0.353C0.135,-0.366 0.117,-0.38 0.102,-0.396C0.087,-0.412 0.075,-0.43 0.067,-0.45C0.058,-0.47 0.054,-0.493 0.054,-0.52C0.054,-0.552 0.061,-0.581 0.076,-0.605C0.091,-0.629 0.11,-0.649 0.135,-0.665C0.159,-0.681 0.186,-0.693 0.217,-0.7C0.248,-0.708 0.28,-0.712 0.312,-0.712C0.385,-0.712 0.439,-0.704 0.472,-0.687L0.472,-0.572C0.432,-0.601 0.381,-0.615 0.319,-0.615C0.302,-0.615 0.284,-0.614 0.267,-0.61C0.25,-0.607 0.235,-0.602 0.221,-0.594C0.208,-0.587 0.197,-0.577 0.188,-0.565C0.18,-0.554 0.176,-0.54 0.176,-0.523C0.176,-0.507 0.179,-0.494 0.186,-0.482C0.192,-0.471 0.202,-0.461 0.214,-0.451C0.227,-0.442 0.242,-0.433 0.26,-0.424C0.278,-0.415 0.299,-0.405 0.323,-0.395C0.347,-0.382 0.37,-0.368 0.392,-0.354C0.413,-0.34 0.433,-0.325 0.449,-0.308C0.465,-0.291 0.478,-0.272 0.488,-0.252C0.498,-0.231 0.502,-0.208 0.502,-0.181C0.502,-0.146 0.495,-0.116 0.481,-0.091C0.467,-0.067 0.447,-0.047 0.423,-0.032C0.399,-0.016 0.371,-0.005 0.339,0.001C0.308,0.008 0.274,0.012 0.239,0.012C0.228,0.012 0.213,0.011 0.196,0.009C0.179,0.007 0.161,0.005 0.144,0.001C0.126,-0.002 0.109,-0.006 0.093,-0.011C0.077,-0.016 0.064,-0.022 0.054,-0.028Z" style="fill-opacity:0.3;fill-rule:nonzero;"/>
            </g>
            <g transform="matrix(13,0,0,13,23.9585,50.1869)">
                <path d="M0.086,0L0.086,-0.7L0.289,-0.7C0.547,-0.7 0.676,-0.586 0.676,-0.359C0.676,-0.251 0.64,-0.164 0.568,-0.098C0.497,-0.033 0.401,0 0.28,0L0.086,0ZM0.202,-0.602L0.202,-0.098L0.295,-0.098C0.377,-0.098 0.44,-0.121 0.486,-0.166C0.531,-0.21 0.554,-0.274 0.554,-0.356C0.554,-0.52 0.469,-0.602 0.299,-0.602L0.202,-0.602Z" style="fill-opacity:0.3;fill-rule:nonzero;"/>
            </g>
        </g>
        <g transform="matrix(1,0,0,1,6.39312,3.66075)">
            <g transform="matrix(13,0,0,13,9.28273,50.1869)">
                <path d="M0.202,-0.254L0.202,0L0.086,0L0.086,-0.7L0.299,-0.7C0.379,-0.7 0.442,-0.681 0.486,-0.644C0.53,-0.607 0.552,-0.554 0.552,-0.486C0.552,-0.418 0.529,-0.362 0.483,-0.319C0.437,-0.276 0.374,-0.254 0.295,-0.254L0.202,-0.254ZM0.202,-0.604L0.202,-0.349L0.277,-0.349C0.327,-0.349 0.365,-0.36 0.391,-0.383C0.417,-0.406 0.43,-0.439 0.43,-0.481C0.43,-0.563 0.382,-0.604 0.287,-0.604L0.202,-0.604Z" style="fill:white;fill-rule:nonzero;"/>
            </g>
            <g transform="matrix(13,0,0,13,16.8809,50.1869)">
                <path d="M0.054,-0.028L0.054,-0.147C0.065,-0.138 0.078,-0.129 0.093,-0.121C0.107,-0.113 0.123,-0.107 0.14,-0.101C0.156,-0.096 0.173,-0.092 0.189,-0.089C0.206,-0.086 0.221,-0.084 0.235,-0.084C0.284,-0.084 0.321,-0.093 0.344,-0.109C0.368,-0.125 0.38,-0.149 0.38,-0.18C0.38,-0.196 0.376,-0.211 0.368,-0.223C0.36,-0.235 0.349,-0.246 0.335,-0.256C0.321,-0.266 0.304,-0.276 0.284,-0.285C0.265,-0.295 0.244,-0.304 0.222,-0.314C0.198,-0.327 0.176,-0.34 0.156,-0.353C0.135,-0.366 0.117,-0.38 0.102,-0.396C0.087,-0.412 0.075,-0.43 0.067,-0.45C0.058,-0.47 0.054,-0.493 0.054,-0.52C0.054,-0.552 0.061,-0.581 0.076,-0.605C0.091,-0.629 0.11,-0.649 0.135,-0.665C0.159,-0.681 0.186,-0.693 0.217,-0.7C0.248,-0.708 0.28,-0.712 0.312,-0.712C0.385,-0.712 0.439,-0.704 0.472,-0.687L0.472,-0.572C0.432,-0.601 0.381,-0.615 0.319,-0.615C0.302,-0.615 0.284,-0.614 0.267,-0.61C0.25,-0.607 0.235,-0.602 0.221,-0.594C0.208,-0.587 0.197,-0.577 0.188,-0.565C0.18,-0.554 0.176,-0.54 0.176,-0.523C0.176,-0.507 0.179,-0.494 0.186,-0.482C0.192,-0.471 0.202,-0.461 0.214,-0.451C0.227,-0.442 0.242,-0.433 0.26,-0.424C0.278,-0.415 0.299,-0.405 0.323,-0.395C0.347,-0.382 0.37,-0.368 0.392,-0.354C0.413,-0.34 0.433,-0.325 0.449,-0.308C0.465,-0.291 0.478,-0.272 0.488,-0.252C0.498,-0.231 0.502,-0.208 0.502,-0.181C0.502,-0.146 0.495,-0.116 0.481,-0.091C0.467,-0.067 0.447,-0.047 0.423,-0.032C0.399,-0.016 0.371,-0.005 0.339,0.001C0.308,0.008 0.274,0.012 0.239,0.012C0.228,0.012 0.213,0.011 0.196,0.009C0.179,0.007 0.161,0.005 0.144,0.001C0.126,-0.002 0.109,-0.006 0.093,-0.011C0.077,-0.016 0.064,-0.022 0.054,-0.028Z" style="fill:white;fill-rule:nonzero;"/>
            </g>
            <g transform="matrix(13,0,0,13,23.9585,50.1869)">
                <path d="M0.086,0L0.086,-0.7L0.289,-0.7C0.547,-0.7 0.676,-0.586 0.676,-0.359C0.676,-0.251 0.64,-0.164 0.568,-0.098C0.497,-0.033 0.401,0 0.28,0L0.086,0ZM0.202,-0.602L0.202,-0.098L0.295,-0.098C0.377,-0.098 0.44,-0.121 0.486,-0.166C0.531,-0.21 0.554,-0.274 0.554,-0.356C0.554,-0.52 0.469,-0.602 0.299,-0.602L0.202,-0.602Z" style="fill:white;fill-rule:nonzero;"/>
            </g>
        </g>
    </g>
    <g>
        <g transform="matrix(1.19231,0,0,0.846154,-12.2307,7.15384)">
            <rect x="22" y="14" width="26" height="26" style="fill-opacity:0.25;"/>
        </g>
        <g transform="matrix(1.19231,0,0,0.846154,-12.2307,6.15384)">
            <rect x="22" y="14" width="26" height="26" style="fill:rgb(42,122,176);"/>
        </g>
        <g>
            <g transform="matrix(0.857143,0,0,0.857143,4.28571,5.57143)">
                <circle cx="40.5" cy="21.5" r="3.5" style="fill:white;"/>
            </g>
            <g transform="matrix(1.54545,0,0,1.2,-9.27273,-5)">
                <path d="M22.5,25L28,35L17,35L22.5,25Z" style="fill:rgb(149,189,216);"/>
            </g>
            <g transform="matrix(1.3,0,0,1.33333,-12.6,-11)">
                <path d="M37,30L42,36L32,36L37,30Z" style="fill:white;"/>
            </g>
        </g>
    </g>
</svg>
