<?xml version="1.0" encoding="UTF-8" standalone="no"?>
<!DOCTYPE svg PUBLIC "-//W3C//DTD SVG 1.1//EN" "http://www.w3.org/Graphics/SVG/1.1/DTD/svg11.dtd">
<svg width="60px" height="60px" version="1.1" xmlns="http://www.w3.org/2000/svg" xmlns:xlink="http://www.w3.org/1999/xlink" xml:space="preserve" xmlns:serif="http://www.serif.com/" style="fill-rule:evenodd;clip-rule:evenodd;stroke-linejoin:round;stroke-miterlimit:2;">
    <rect x="0" y="0" width="60" height="60" style="fill:rgb(184,184,184);fill-opacity:0;"/>
    <g id="page">
        <g id="base" transform="matrix(1,0,0,1,-1,1)">
            <path d="M53,57L8,57L8,1L42,1L42,2L43,2L43,3L44,3L44,4L45,4L45,5L46,5L46,6L47,6L47,7L48,7L48,8L49,8L49,9L50,9L50,10L51,10L51,11L52,11L52,12L53,12L53,57Z" style="fill:rgb(239,216,29);fill-rule:nonzero;"/>
        </g>
        <g transform="matrix(1,0,0,1,-1,0)">
            <path d="M41,14L41,2L42,2L42,3L43,3L43,4L44,4L44,5L45,5L45,6L46,6L46,7L47,7L47,8L48,8L48,9L49,9L49,10L50,10L50,11L51,11L51,12L52,12L52,13L53,13L53,14L41,14Z" style="fill:rgb(242,238,190);fill-rule:nonzero;"/>
        </g>
        <g transform="matrix(1,0,0,1,-1,1)">
            <path d="M41,13L52,13L52,24L41,13Z" style="fill-opacity:0.25;"/>
        </g>
        <g transform="matrix(1,0,0,1,-1,1)">
            <path d="M53,57L8,57L8,1L42,1L42,2L43,2L43,3L44,3L44,4L45,4L45,5L46,5L46,6L47,6L47,7L48,7L48,8L49,8L49,9L50,9L50,10L51,10L51,11L52,11L52,12L53,12L53,57ZM41,2L9,2L9,56L52,56L52,13L41,2Z" style="fill:rgb(131,122,19);"/>
        </g>
        <g transform="matrix(0.842601,0,0,1.26869,-0.600865,-4.37553)">
            <g transform="matrix(20,0,0,20,18.1277,30.2886)">
                <path d="M0.511,-0.142C0.521,-0.137 0.527,-0.129 0.528,-0.12C0.53,-0.11 0.525,-0.095 0.516,-0.076C0.511,-0.066 0.506,-0.058 0.502,-0.052C0.497,-0.047 0.493,-0.043 0.489,-0.041C0.485,-0.038 0.48,-0.037 0.476,-0.038C0.471,-0.038 0.467,-0.04 0.462,-0.042L0.081,-0.239C0.073,-0.243 0.068,-0.248 0.064,-0.254C0.06,-0.26 0.059,-0.271 0.059,-0.285C0.059,-0.299 0.06,-0.309 0.064,-0.315C0.068,-0.322 0.073,-0.327 0.081,-0.331L0.462,-0.527C0.467,-0.529 0.471,-0.531 0.476,-0.531C0.48,-0.532 0.485,-0.531 0.489,-0.529C0.493,-0.527 0.497,-0.523 0.502,-0.517C0.506,-0.511 0.511,-0.503 0.516,-0.494C0.525,-0.474 0.53,-0.459 0.528,-0.45C0.527,-0.44 0.521,-0.432 0.511,-0.427L0.225,-0.285L0.511,-0.142Z" style="fill-rule:nonzero;"/>
            </g>
            <g transform="matrix(20,0,0,20,30.1199,30.2886)">
                <path d="M0.193,0.13C0.19,0.136 0.186,0.14 0.179,0.143C0.172,0.145 0.164,0.146 0.156,0.146C0.146,0.146 0.137,0.145 0.126,0.142C0.116,0.14 0.108,0.136 0.1,0.131C0.092,0.126 0.087,0.12 0.083,0.113C0.079,0.106 0.08,0.098 0.083,0.089L0.407,-0.637C0.409,-0.643 0.414,-0.647 0.421,-0.65C0.428,-0.652 0.436,-0.654 0.445,-0.654C0.454,-0.654 0.464,-0.652 0.474,-0.65C0.484,-0.647 0.493,-0.643 0.5,-0.638C0.508,-0.633 0.513,-0.627 0.517,-0.62C0.52,-0.613 0.52,-0.605 0.516,-0.596L0.193,0.13Z" style="fill-rule:nonzero;"/>
            </g>
            <g transform="matrix(20,0,0,20,42.1121,30.2886)">
                <path d="M0.089,-0.427C0.078,-0.432 0.073,-0.44 0.071,-0.45C0.07,-0.459 0.074,-0.474 0.084,-0.494C0.089,-0.503 0.094,-0.511 0.098,-0.517C0.102,-0.523 0.107,-0.527 0.111,-0.529C0.115,-0.531 0.119,-0.532 0.124,-0.531C0.128,-0.531 0.133,-0.529 0.138,-0.527L0.519,-0.331C0.526,-0.327 0.532,-0.322 0.536,-0.315C0.539,-0.309 0.541,-0.299 0.541,-0.285C0.541,-0.271 0.539,-0.26 0.536,-0.254C0.532,-0.248 0.526,-0.243 0.519,-0.239L0.138,-0.042C0.133,-0.04 0.128,-0.038 0.124,-0.038C0.119,-0.037 0.115,-0.038 0.111,-0.041C0.107,-0.043 0.102,-0.047 0.098,-0.052C0.094,-0.058 0.089,-0.066 0.084,-0.076C0.074,-0.095 0.07,-0.11 0.071,-0.12C0.073,-0.129 0.078,-0.137 0.089,-0.142L0.375,-0.285L0.089,-0.427Z" style="fill-rule:nonzero;"/>
            </g>
        </g>
        <g transform="matrix(0.991441,0,0,0.964309,-2.6367,5.83796)">
            <g transform="matrix(15.4155,0,0,14.2441,23.5773,48.7337)">
                <path d="M0.331,-0.716L0.475,-0.716L0.475,-0.263C0.475,-0.203 0.47,-0.158 0.459,-0.126C0.445,-0.084 0.42,-0.051 0.383,-0.026C0.347,0 0.298,0.012 0.238,0.012C0.167,0.012 0.113,-0.008 0.075,-0.047C0.037,-0.087 0.017,-0.145 0.017,-0.221L0.153,-0.237C0.155,-0.196 0.161,-0.167 0.171,-0.15C0.187,-0.124 0.211,-0.111 0.243,-0.111C0.275,-0.111 0.298,-0.121 0.311,-0.139C0.324,-0.157 0.331,-0.195 0.331,-0.253L0.331,-0.716Z" style="fill-rule:nonzero;"/>
            </g>
            <g transform="matrix(13.8636,0,0,14,32.4175,48.7299)">
                <path d="M0.036,-0.233L0.177,-0.247C0.185,-0.199 0.202,-0.165 0.228,-0.143C0.254,-0.12 0.289,-0.109 0.333,-0.109C0.38,-0.109 0.415,-0.119 0.438,-0.139C0.462,-0.159 0.474,-0.182 0.474,-0.208C0.474,-0.225 0.469,-0.239 0.459,-0.251C0.449,-0.263 0.431,-0.273 0.407,-0.282C0.39,-0.288 0.351,-0.299 0.291,-0.313C0.214,-0.333 0.159,-0.356 0.128,-0.384C0.084,-0.424 0.062,-0.472 0.062,-0.528C0.062,-0.565 0.072,-0.599 0.093,-0.631C0.114,-0.662 0.143,-0.687 0.182,-0.703C0.221,-0.72 0.268,-0.728 0.323,-0.728C0.413,-0.728 0.481,-0.708 0.526,-0.669C0.572,-0.63 0.595,-0.577 0.598,-0.511L0.453,-0.505C0.447,-0.542 0.434,-0.568 0.413,-0.584C0.393,-0.6 0.362,-0.608 0.322,-0.608C0.28,-0.608 0.247,-0.6 0.223,-0.583C0.208,-0.571 0.2,-0.557 0.2,-0.538C0.2,-0.521 0.207,-0.507 0.222,-0.495C0.24,-0.479 0.284,-0.463 0.354,-0.447C0.425,-0.43 0.477,-0.413 0.51,-0.395C0.544,-0.378 0.571,-0.353 0.59,-0.323C0.609,-0.292 0.618,-0.254 0.618,-0.208C0.618,-0.167 0.607,-0.129 0.584,-0.093C0.561,-0.057 0.529,-0.031 0.487,-0.013C0.446,0.004 0.394,0.013 0.332,0.013C0.241,0.013 0.172,-0.008 0.123,-0.05C0.075,-0.092 0.046,-0.153 0.036,-0.233Z" style="fill-rule:nonzero;"/>
            </g>
        </g>
    </g>
</svg>
