<?xml version="1.0" encoding="UTF-8" standalone="no"?>
<!DOCTYPE svg PUBLIC "-//W3C//DTD SVG 1.1//EN" "http://www.w3.org/Graphics/SVG/1.1/DTD/svg11.dtd">
<svg width="60px" height="60px" version="1.1" xmlns="http://www.w3.org/2000/svg" xmlns:xlink="http://www.w3.org/1999/xlink" xml:space="preserve" xmlns:serif="http://www.serif.com/" style="fill-rule:evenodd;clip-rule:evenodd;stroke-linejoin:round;stroke-miterlimit:2;">
    <rect x="0" y="0" width="60" height="60" style="fill:rgb(59,59,59);fill-opacity:0;"/>
    <g id="page">
        <g id="base" transform="matrix(1,0,0,1,-1,1)">
            <path d="M53,57L8,57L8,1L42,1L42,2L43,2L43,3L44,3L44,4L45,4L45,5L46,5L46,6L47,6L47,7L48,7L48,8L49,8L49,9L50,9L50,10L51,10L51,11L52,11L52,12L53,12L53,57Z" style="fill:rgb(229,78,62);fill-rule:nonzero;"/>
        </g>
        <g transform="matrix(1,0,0,1,-1,0)">
            <path d="M41,14L41,2L42,2L42,3L43,3L43,4L44,4L44,5L45,5L45,6L46,6L46,7L47,7L47,8L48,8L48,9L49,9L49,10L50,10L50,11L51,11L51,12L52,12L52,13L53,13L53,14L41,14Z" style="fill:rgb(244,125,113);fill-rule:nonzero;"/>
        </g>
        <g transform="matrix(1,0,0,1,-1,1)">
            <path d="M41,13L52,13L52,24L41,13Z" style="fill-opacity:0.25;"/>
        </g>
        <g id="outline" transform="matrix(1,0,0,1,-1,1)">
            <path d="M53,57L8,57L8,1L42,1L42,2L43,2L43,3L44,3L44,4L45,4L45,5L46,5L46,6L47,6L47,7L48,7L48,8L49,8L49,9L50,9L50,10L51,10L51,11L52,11L52,12L53,12L53,57ZM41,2L9,2L9,56L52,56L52,13L41,2Z" style="fill:rgb(124,44,35);"/>
            <g transform="matrix(1,0,0,1.06301,2.06643,0.562347)">
                <g transform="matrix(13.3711,0,0,13,15.2154,49.1769)">
                    <path d="M0.054,-0.028L0.054,-0.147C0.065,-0.138 0.078,-0.129 0.093,-0.121C0.107,-0.113 0.123,-0.107 0.14,-0.101C0.156,-0.096 0.173,-0.092 0.189,-0.089C0.206,-0.086 0.221,-0.084 0.235,-0.084C0.284,-0.084 0.321,-0.093 0.344,-0.109C0.368,-0.125 0.38,-0.149 0.38,-0.18C0.38,-0.196 0.376,-0.211 0.368,-0.223C0.36,-0.235 0.349,-0.246 0.335,-0.256C0.321,-0.266 0.304,-0.276 0.284,-0.285C0.265,-0.295 0.244,-0.304 0.222,-0.314C0.198,-0.327 0.176,-0.34 0.156,-0.353C0.135,-0.366 0.117,-0.38 0.102,-0.396C0.087,-0.412 0.075,-0.43 0.067,-0.45C0.058,-0.47 0.054,-0.493 0.054,-0.52C0.054,-0.552 0.061,-0.581 0.076,-0.605C0.091,-0.629 0.11,-0.649 0.135,-0.665C0.159,-0.681 0.186,-0.693 0.217,-0.7C0.248,-0.708 0.28,-0.712 0.312,-0.712C0.385,-0.712 0.439,-0.704 0.472,-0.687L0.472,-0.572C0.432,-0.601 0.381,-0.615 0.319,-0.615C0.302,-0.615 0.284,-0.614 0.267,-0.61C0.25,-0.607 0.235,-0.602 0.221,-0.594C0.208,-0.587 0.197,-0.577 0.188,-0.565C0.18,-0.554 0.176,-0.54 0.176,-0.523C0.176,-0.507 0.179,-0.494 0.186,-0.482C0.192,-0.471 0.202,-0.461 0.214,-0.451C0.227,-0.442 0.242,-0.433 0.26,-0.424C0.278,-0.415 0.299,-0.405 0.323,-0.395C0.347,-0.382 0.37,-0.368 0.392,-0.354C0.413,-0.34 0.433,-0.325 0.449,-0.308C0.465,-0.291 0.478,-0.272 0.488,-0.252C0.498,-0.231 0.502,-0.208 0.502,-0.181C0.502,-0.146 0.495,-0.116 0.481,-0.091C0.467,-0.067 0.447,-0.047 0.423,-0.032C0.399,-0.016 0.371,-0.005 0.339,0.001C0.308,0.008 0.274,0.012 0.239,0.012C0.228,0.012 0.213,0.011 0.196,0.009C0.179,0.007 0.161,0.005 0.144,0.001C0.126,-0.002 0.109,-0.006 0.093,-0.011C0.077,-0.016 0.064,-0.022 0.054,-0.028Z" style="fill-opacity:0.3;fill-rule:nonzero;"/>
                </g>
                <g transform="matrix(14.3217,0,0,13.4351,22.8357,49.3293)">
                    <path d="M0.635,-0.7L0.384,0L0.254,0L0.007,-0.7L0.134,-0.7L0.307,-0.169C0.312,-0.152 0.316,-0.132 0.319,-0.11L0.321,-0.11C0.324,-0.128 0.328,-0.148 0.335,-0.17L0.512,-0.7L0.635,-0.7Z" style="fill-opacity:0.3;fill-rule:nonzero;"/>
                </g>
                <g transform="matrix(13.5293,0,0,13,32.372,49.1769)">
                    <path d="M0.633,-0.048C0.56,-0.008 0.479,0.012 0.389,0.012C0.286,0.012 0.202,-0.021 0.138,-0.085C0.074,-0.149 0.042,-0.235 0.042,-0.341C0.042,-0.449 0.077,-0.538 0.147,-0.608C0.217,-0.677 0.306,-0.712 0.414,-0.712C0.492,-0.712 0.557,-0.701 0.61,-0.678L0.61,-0.558C0.557,-0.594 0.493,-0.612 0.418,-0.612C0.344,-0.612 0.283,-0.587 0.235,-0.538C0.187,-0.489 0.164,-0.425 0.164,-0.347C0.164,-0.267 0.184,-0.204 0.225,-0.157C0.266,-0.111 0.322,-0.088 0.392,-0.088C0.44,-0.088 0.482,-0.098 0.517,-0.116L0.517,-0.283L0.37,-0.283L0.37,-0.38L0.633,-0.38L0.633,-0.048Z" style="fill-opacity:0.3;fill-rule:nonzero;"/>
                </g>
            </g>
            <g transform="matrix(1,0,0,1.06301,2.06643,-0.437653)">
                <g transform="matrix(13.3711,0,0,13,15.2154,49.1769)">
                    <path d="M0.054,-0.028L0.054,-0.147C0.065,-0.138 0.078,-0.129 0.093,-0.121C0.107,-0.113 0.123,-0.107 0.14,-0.101C0.156,-0.096 0.173,-0.092 0.189,-0.089C0.206,-0.086 0.221,-0.084 0.235,-0.084C0.284,-0.084 0.321,-0.093 0.344,-0.109C0.368,-0.125 0.38,-0.149 0.38,-0.18C0.38,-0.196 0.376,-0.211 0.368,-0.223C0.36,-0.235 0.349,-0.246 0.335,-0.256C0.321,-0.266 0.304,-0.276 0.284,-0.285C0.265,-0.295 0.244,-0.304 0.222,-0.314C0.198,-0.327 0.176,-0.34 0.156,-0.353C0.135,-0.366 0.117,-0.38 0.102,-0.396C0.087,-0.412 0.075,-0.43 0.067,-0.45C0.058,-0.47 0.054,-0.493 0.054,-0.52C0.054,-0.552 0.061,-0.581 0.076,-0.605C0.091,-0.629 0.11,-0.649 0.135,-0.665C0.159,-0.681 0.186,-0.693 0.217,-0.7C0.248,-0.708 0.28,-0.712 0.312,-0.712C0.385,-0.712 0.439,-0.704 0.472,-0.687L0.472,-0.572C0.432,-0.601 0.381,-0.615 0.319,-0.615C0.302,-0.615 0.284,-0.614 0.267,-0.61C0.25,-0.607 0.235,-0.602 0.221,-0.594C0.208,-0.587 0.197,-0.577 0.188,-0.565C0.18,-0.554 0.176,-0.54 0.176,-0.523C0.176,-0.507 0.179,-0.494 0.186,-0.482C0.192,-0.471 0.202,-0.461 0.214,-0.451C0.227,-0.442 0.242,-0.433 0.26,-0.424C0.278,-0.415 0.299,-0.405 0.323,-0.395C0.347,-0.382 0.37,-0.368 0.392,-0.354C0.413,-0.34 0.433,-0.325 0.449,-0.308C0.465,-0.291 0.478,-0.272 0.488,-0.252C0.498,-0.231 0.502,-0.208 0.502,-0.181C0.502,-0.146 0.495,-0.116 0.481,-0.091C0.467,-0.067 0.447,-0.047 0.423,-0.032C0.399,-0.016 0.371,-0.005 0.339,0.001C0.308,0.008 0.274,0.012 0.239,0.012C0.228,0.012 0.213,0.011 0.196,0.009C0.179,0.007 0.161,0.005 0.144,0.001C0.126,-0.002 0.109,-0.006 0.093,-0.011C0.077,-0.016 0.064,-0.022 0.054,-0.028Z" style="fill:white;fill-rule:nonzero;"/>
                </g>
                <g transform="matrix(14.3217,0,0,13.4351,22.8357,49.3293)">
                    <path d="M0.635,-0.7L0.384,0L0.254,0L0.007,-0.7L0.134,-0.7L0.307,-0.169C0.312,-0.152 0.316,-0.132 0.319,-0.11L0.321,-0.11C0.324,-0.128 0.328,-0.148 0.335,-0.17L0.512,-0.7L0.635,-0.7Z" style="fill:white;fill-rule:nonzero;"/>
                </g>
                <g transform="matrix(13.5293,0,0,13,32.372,49.1769)">
                    <path d="M0.633,-0.048C0.56,-0.008 0.479,0.012 0.389,0.012C0.286,0.012 0.202,-0.021 0.138,-0.085C0.074,-0.149 0.042,-0.235 0.042,-0.341C0.042,-0.449 0.077,-0.538 0.147,-0.608C0.217,-0.677 0.306,-0.712 0.414,-0.712C0.492,-0.712 0.557,-0.701 0.61,-0.678L0.61,-0.558C0.557,-0.594 0.493,-0.612 0.418,-0.612C0.344,-0.612 0.283,-0.587 0.235,-0.538C0.187,-0.489 0.164,-0.425 0.164,-0.347C0.164,-0.267 0.184,-0.204 0.225,-0.157C0.266,-0.111 0.322,-0.088 0.392,-0.088C0.44,-0.088 0.482,-0.098 0.517,-0.116L0.517,-0.283L0.37,-0.283L0.37,-0.38L0.633,-0.38L0.633,-0.048Z" style="fill:white;fill-rule:nonzero;"/>
                </g>
            </g>
        </g>
    </g>
    <g transform="matrix(1,0,0,1,0,3)">
        <g transform="matrix(2,0,0,-2,14,43)">
            <rect x="2" y="12" width="12" height="1" style="fill-opacity:0.3;"/>
        </g>
        <g transform="matrix(1.83333,0,0,-1.83333,14.8333,40.6667)">
            <rect x="5" y="8" width="6" height="6" style="fill-opacity:0.3;"/>
        </g>
        <g transform="matrix(2,0,0,-2,13,43)">
            <path d="M16,12.5C16,13.323 15.323,14 14.5,14C13.677,14 13,13.323 13,12.5C13,11.677 13.677,11 14.5,11C15.323,11 16,11.677 16,12.5Z" style="fill-opacity:0.3;"/>
        </g>
        <path d="M16.034,35.016C16.001,35.566 15.546,35.995 14.995,35.995C14.981,36 14.967,36 14.953,36C14.698,36 14.454,35.896 14.278,35.713C14.102,35.529 14.008,35.281 14.02,35.026C14.533,26.649 21.496,20 30,20C38.488,20 45.442,26.624 45.968,34.981C45.982,35.245 45.887,35.503 45.705,35.695C45.523,35.887 45.27,35.996 45.006,35.996L45.005,36C44.451,36 43.994,35.569 43.961,35.016C43.46,27.747 37.396,22 30,22C22.604,22 16.54,27.747 16.034,35.016Z" style="fill-opacity:0.3;"/>
        <g transform="matrix(2,0,0,-2,14,43)">
            <path d="M3,12.5C3,13.323 2.323,14 1.5,14C0.677,14 0,13.323 0,12.5C0,11.677 0.677,11 1.5,11C2.323,11 3,11.677 3,12.5Z" style="fill-opacity:0.3;"/>
        </g>
    </g>
    <g transform="matrix(1,0,0,1,0,2)">
        <g transform="matrix(2,0,0,-2,14,43)">
            <rect x="2" y="12" width="12" height="1" style="fill:white;"/>
        </g>
        <g transform="matrix(1.83333,0,0,-1.83333,14.8333,40.6667)">
            <rect x="5" y="8" width="6" height="6" style="fill:white;"/>
        </g>
        <g transform="matrix(2,0,0,-2,13,43)">
            <path d="M16,12.5C16,13.323 15.323,14 14.5,14C13.677,14 13,13.323 13,12.5C13,11.677 13.677,11 14.5,11C15.323,11 16,11.677 16,12.5Z" style="fill:white;"/>
        </g>
        <path d="M16.034,35.016C16.001,35.566 15.546,35.995 14.995,35.995C14.981,36 14.967,36 14.953,36C14.698,36 14.454,35.896 14.278,35.713C14.102,35.529 14.008,35.281 14.02,35.026C14.533,26.649 21.496,20 30,20C38.488,20 45.442,26.624 45.968,34.981C45.982,35.245 45.887,35.503 45.705,35.695C45.523,35.887 45.27,35.996 45.006,35.996L45.005,36C44.451,36 43.994,35.569 43.961,35.016C43.46,27.747 37.396,22 30,22C22.604,22 16.54,27.747 16.034,35.016Z" style="fill:white;"/>
        <g transform="matrix(2,0,0,-2,14,43)">
            <path d="M3,12.5C3,13.323 2.323,14 1.5,14C0.677,14 0,13.323 0,12.5C0,11.677 0.677,11 1.5,11C2.323,11 3,11.677 3,12.5Z" style="fill:white;"/>
        </g>
    </g>
</svg>
