<?xml version="1.0" encoding="UTF-8" standalone="no"?>
<!DOCTYPE svg PUBLIC "-//W3C//DTD SVG 1.1//EN" "http://www.w3.org/Graphics/SVG/1.1/DTD/svg11.dtd">
<svg width="60px" height="60px" version="1.1" xmlns="http://www.w3.org/2000/svg" xmlns:xlink="http://www.w3.org/1999/xlink" xml:space="preserve" xmlns:serif="http://www.serif.com/" style="fill-rule:evenodd;clip-rule:evenodd;stroke-linejoin:round;stroke-miterlimit:2;">
    <rect x="0" y="0" width="60" height="60" style="fill:rgb(184,184,184);fill-opacity:0;"/>
    <g id="page">
        <g transform="matrix(1,0,0,1,-1,1)">
            <path d="M41,13L52,13L52,24L41,13Z" style="fill-opacity:0.25;"/>
        </g>
        <g transform="matrix(1,0,0,1,-1,1)">
            <path d="M53,57L8,57L8,1L42,1L42,2L43,2L43,3L44,3L44,4L45,4L45,5L46,5L46,6L47,6L47,7L48,7L48,8L49,8L49,9L50,9L50,10L51,10L51,11L52,11L52,12L53,12L53,57Z" style="fill:rgb(72,121,52);fill-rule:nonzero;"/>
        </g>
        <g transform="matrix(1,0,0,1,-1,0)">
            <path d="M41,14L41,2L42,2L42,3L43,3L43,4L44,4L44,5L45,5L45,6L46,6L46,7L47,7L47,8L48,8L48,9L49,9L49,10L50,10L50,11L51,11L51,12L52,12L52,13L53,13L53,14L41,14Z" style="fill:rgb(150,206,127);fill-rule:nonzero;"/>
        </g>
        <g transform="matrix(1,0,0,0.999721,0,5.85109)">
            <g id="outline">
                <g>
                    <g transform="matrix(10,0,0,10,10.8083,48.1623)">
                        <path d="M0.536,-0.602L0.334,-0.602L0.334,0L0.218,0L0.218,-0.602L0.018,-0.602L0.018,-0.7L0.536,-0.7L0.536,-0.602Z" style="fill-opacity:0.3;fill-rule:nonzero;"/>
                    </g>
                    <g transform="matrix(10,0,0,10,16.1357,48.1623)">
                        <path d="M0.68,0L0.553,0L0.219,-0.515C0.21,-0.528 0.203,-0.541 0.198,-0.555L0.195,-0.555C0.197,-0.54 0.199,-0.508 0.199,-0.459L0.199,0L0.086,0L0.086,-0.7L0.222,-0.7L0.545,-0.198C0.559,-0.177 0.567,-0.163 0.571,-0.155L0.573,-0.155C0.57,-0.173 0.568,-0.205 0.568,-0.249L0.568,-0.7L0.68,-0.7L0.68,0Z" style="fill-opacity:0.3;fill-rule:nonzero;"/>
                    </g>
                    <g transform="matrix(10,0,0,10,24.3242,48.1623)">
                        <path d="M0.564,-0.649L0.18,-0.098L0.559,-0.098L0.559,0L0.018,0L0.018,-0.053L0.403,-0.602L0.047,-0.602L0.047,-0.7L0.564,-0.7L0.564,-0.649Z" style="fill-opacity:0.3;fill-rule:nonzero;"/>
                    </g>
                    <g transform="matrix(10,0,0,10,30.3945,48.1623)">
                        <path d="M0.086,0L0.086,-0.7L0.309,-0.7C0.376,-0.7 0.43,-0.685 0.469,-0.656C0.509,-0.626 0.529,-0.588 0.529,-0.54C0.529,-0.5 0.518,-0.466 0.495,-0.437C0.473,-0.407 0.442,-0.386 0.402,-0.374L0.402,-0.372C0.45,-0.367 0.489,-0.349 0.517,-0.319C0.546,-0.288 0.561,-0.249 0.561,-0.201C0.561,-0.141 0.537,-0.093 0.49,-0.056C0.443,-0.019 0.383,0 0.311,0L0.086,0ZM0.202,-0.607L0.202,-0.408L0.277,-0.408C0.318,-0.408 0.349,-0.417 0.372,-0.436C0.395,-0.455 0.407,-0.482 0.407,-0.517C0.407,-0.577 0.367,-0.607 0.287,-0.607L0.202,-0.607ZM0.202,-0.314L0.202,-0.093L0.301,-0.093C0.345,-0.093 0.378,-0.103 0.402,-0.123C0.425,-0.143 0.437,-0.17 0.437,-0.206C0.437,-0.278 0.387,-0.314 0.286,-0.314L0.202,-0.314Z" style="fill-opacity:0.3;fill-rule:nonzero;"/>
                    </g>
                    <g transform="matrix(10,0,0,10,36.6504,48.1623)">
                        <path d="M0.662,0L0.534,0L0.471,-0.178L0.196,-0.178L0.135,0L0.008,0L0.271,-0.7L0.401,-0.7L0.662,0ZM0.44,-0.273L0.343,-0.552C0.34,-0.561 0.337,-0.576 0.334,-0.596L0.332,-0.596C0.329,-0.578 0.326,-0.563 0.322,-0.552L0.226,-0.273L0.44,-0.273Z" style="fill-opacity:0.3;fill-rule:nonzero;"/>
                    </g>
                    <g transform="matrix(10,0,0,10,42.8242,48.1623)">
                        <path d="M0.536,-0.602L0.334,-0.602L0.334,0L0.218,0L0.218,-0.602L0.018,-0.602L0.018,-0.7L0.536,-0.7L0.536,-0.602Z" style="fill-opacity:0.3;fill-rule:nonzero;"/>
                    </g>
                </g>
            </g>
        </g>
        <g transform="matrix(1,0,0,1,-1,1)">
            <path d="M53,57L8,57L8,1L42,1L42,2L43,2L43,3L44,3L44,4L45,4L45,5L46,5L46,6L47,6L47,7L48,7L48,8L49,8L49,9L50,9L50,10L51,10L51,11L52,11L52,12L53,12L53,57ZM41,2L9,2L9,56L52,56L52,13L41,2Z" style="fill:rgb(33,63,21);"/>
        </g>
        <g transform="matrix(1,0,0,0.999721,0,4.85109)">
            <g id="outline1" serif:id="outline">
                <g>
                    <g transform="matrix(10,0,0,10,10.8083,48.1623)">
                        <path d="M0.536,-0.602L0.334,-0.602L0.334,0L0.218,0L0.218,-0.602L0.018,-0.602L0.018,-0.7L0.536,-0.7L0.536,-0.602Z" style="fill:white;fill-rule:nonzero;"/>
                    </g>
                    <g transform="matrix(10,0,0,10,16.1357,48.1623)">
                        <path d="M0.68,0L0.553,0L0.219,-0.515C0.21,-0.528 0.203,-0.541 0.198,-0.555L0.195,-0.555C0.197,-0.54 0.199,-0.508 0.199,-0.459L0.199,0L0.086,0L0.086,-0.7L0.222,-0.7L0.545,-0.198C0.559,-0.177 0.567,-0.163 0.571,-0.155L0.573,-0.155C0.57,-0.173 0.568,-0.205 0.568,-0.249L0.568,-0.7L0.68,-0.7L0.68,0Z" style="fill:white;fill-rule:nonzero;"/>
                    </g>
                    <g transform="matrix(10,0,0,10,24.3242,48.1623)">
                        <path d="M0.564,-0.649L0.18,-0.098L0.559,-0.098L0.559,0L0.018,0L0.018,-0.053L0.403,-0.602L0.047,-0.602L0.047,-0.7L0.564,-0.7L0.564,-0.649Z" style="fill:white;fill-rule:nonzero;"/>
                    </g>
                    <g transform="matrix(10,0,0,10,30.3945,48.1623)">
                        <path d="M0.086,0L0.086,-0.7L0.309,-0.7C0.376,-0.7 0.43,-0.685 0.469,-0.656C0.509,-0.626 0.529,-0.588 0.529,-0.54C0.529,-0.5 0.518,-0.466 0.495,-0.437C0.473,-0.407 0.442,-0.386 0.402,-0.374L0.402,-0.372C0.45,-0.367 0.489,-0.349 0.517,-0.319C0.546,-0.288 0.561,-0.249 0.561,-0.201C0.561,-0.141 0.537,-0.093 0.49,-0.056C0.443,-0.019 0.383,0 0.311,0L0.086,0ZM0.202,-0.607L0.202,-0.408L0.277,-0.408C0.318,-0.408 0.349,-0.417 0.372,-0.436C0.395,-0.455 0.407,-0.482 0.407,-0.517C0.407,-0.577 0.367,-0.607 0.287,-0.607L0.202,-0.607ZM0.202,-0.314L0.202,-0.093L0.301,-0.093C0.345,-0.093 0.378,-0.103 0.402,-0.123C0.425,-0.143 0.437,-0.17 0.437,-0.206C0.437,-0.278 0.387,-0.314 0.286,-0.314L0.202,-0.314Z" style="fill:white;fill-rule:nonzero;"/>
                    </g>
                    <g transform="matrix(10,0,0,10,36.6504,48.1623)">
                        <path d="M0.662,0L0.534,0L0.471,-0.178L0.196,-0.178L0.135,0L0.008,0L0.271,-0.7L0.401,-0.7L0.662,0ZM0.44,-0.273L0.343,-0.552C0.34,-0.561 0.337,-0.576 0.334,-0.596L0.332,-0.596C0.329,-0.578 0.326,-0.563 0.322,-0.552L0.226,-0.273L0.44,-0.273Z" style="fill:white;fill-rule:nonzero;"/>
                    </g>
                    <g transform="matrix(10,0,0,10,42.8242,48.1623)">
                        <path d="M0.536,-0.602L0.334,-0.602L0.334,0L0.218,0L0.218,-0.602L0.018,-0.602L0.018,-0.7L0.536,-0.7L0.536,-0.602Z" style="fill:white;fill-rule:nonzero;"/>
                    </g>
                </g>
            </g>
        </g>
        <g transform="matrix(1,0,0,1,0,-7)">
            <path d="M27,40C27,38.895 26.105,38 25,38L19,38C17.895,38 17,38.895 17,40L17,46C17,47.105 17.895,48 19,48L25,48C26.105,48 27,47.105 27,46L27,40ZM25,40L19,40L19,46L25,46L25,40ZM41,43.5C41,43.224 40.776,43 40.5,43L31.5,43C31.224,43 31,43.224 31,43.5L31,44.5C31,44.776 31.224,45 31.5,45L40.5,45C40.776,45 41,44.776 41,44.5L41,43.5ZM27,27C27,25.895 26.105,25 25,25L19,25C17.895,25 17,25.895 17,27L17,33C17,34.105 17.895,35 19,35L25,35C26.105,35 27,34.105 27,33L27,27ZM25,27L19,27L19,33L25,33L25,27ZM34.978,30.585L39.295,26.291C39.686,25.902 40.32,25.903 40.709,26.295C41.098,26.686 41.097,27.32 40.705,27.709L35.678,32.709C35.49,32.896 35.235,33.001 34.97,33C34.704,32.999 34.45,32.893 34.263,32.704L31.29,29.704C30.901,29.312 30.904,28.678 31.296,28.29C31.688,27.901 32.322,27.904 32.71,28.296L34.978,30.585Z" style="fill-opacity:0.3;"/>
        </g>
        <g transform="matrix(1,0,0,1,0,-8)">
            <path d="M27,40C27,38.895 26.105,38 25,38L19,38C17.895,38 17,38.895 17,40L17,46C17,47.105 17.895,48 19,48L25,48C26.105,48 27,47.105 27,46L27,40ZM25,40L19,40L19,46L25,46L25,40ZM41,43.5C41,43.224 40.776,43 40.5,43L31.5,43C31.224,43 31,43.224 31,43.5L31,44.5C31,44.776 31.224,45 31.5,45L40.5,45C40.776,45 41,44.776 41,44.5L41,43.5ZM27,27C27,25.895 26.105,25 25,25L19,25C17.895,25 17,25.895 17,27L17,33C17,34.105 17.895,35 19,35L25,35C26.105,35 27,34.105 27,33L27,27ZM25,27L19,27L19,33L25,33L25,27ZM34.978,30.585L39.295,26.291C39.686,25.902 40.32,25.903 40.709,26.295C41.098,26.686 41.097,27.32 40.705,27.709L35.678,32.709C35.49,32.896 35.235,33.001 34.97,33C34.704,32.999 34.45,32.893 34.263,32.704L31.29,29.704C30.901,29.312 30.904,28.678 31.296,28.29C31.688,27.901 32.322,27.904 32.71,28.296L34.978,30.585Z" style="fill:white;"/>
        </g>
    </g>
</svg>
