<?xml version="1.0" encoding="UTF-8" standalone="no"?>
<!DOCTYPE svg PUBLIC "-//W3C//DTD SVG 1.1//EN" "http://www.w3.org/Graphics/SVG/1.1/DTD/svg11.dtd">
<svg width="60px" height="60px" version="1.1" xmlns="http://www.w3.org/2000/svg" xmlns:xlink="http://www.w3.org/1999/xlink" xml:space="preserve" xmlns:serif="http://www.serif.com/" style="fill-rule:evenodd;clip-rule:evenodd;stroke-miterlimit:1.5;">
    <rect x="0" y="0" width="60" height="60" style="fill:rgb(59,59,59);fill-opacity:0;"/>
    <g id="page">
        <g id="base" transform="matrix(1,0,0,1,-1,1)">
            <path d="M53,57L8,57L8,1L42,1L42,2L43,2L43,3L44,3L44,4L45,4L45,5L46,5L46,6L47,6L47,7L48,7L48,8L49,8L49,9L50,9L50,10L51,10L51,11L52,11L52,12L53,12L53,57Z" style="fill:rgb(229,216,152);fill-rule:nonzero;"/>
        </g>
        <g transform="matrix(1,0,0,1,-1,0)">
            <path d="M41,14L41,2L42,2L42,3L43,3L43,4L44,4L44,5L45,5L45,6L46,6L46,7L47,7L47,8L48,8L48,9L49,9L49,10L50,10L50,11L51,11L51,12L52,12L52,13L53,13L53,14L41,14Z" style="fill:rgb(246,241,216);fill-rule:nonzero;"/>
        </g>
        <g id="outline" transform="matrix(1,0,0,1,-1,1)">
            <path d="M53,57L8,57L8,1L42,1L42,2L43,2L43,3L44,3L44,4L45,4L45,5L46,5L46,6L47,6L47,7L48,7L48,8L49,8L49,9L50,9L50,10L51,10L51,11L52,11L52,12L53,12L53,57ZM41,2L9,2L9,56L52,56L52,13L41,2Z" style="fill:rgb(116,106,55);"/>
        </g>
        <g transform="matrix(0.943825,0,0,0.871141,1.60099,7.57182)">
            <g transform="matrix(1.05952,0,0,1.14792,-2.7558,-5.24808)">
                <g id="g4">
                    <g opacity="0.7">
                        <g transform="matrix(13.2987,0,0,12.8536,15.8896,50)">
                            <path d="M0.61,0L0.471,0L0.327,-0.257C0.323,-0.265 0.318,-0.276 0.313,-0.29L0.311,-0.29C0.308,-0.283 0.303,-0.272 0.296,-0.257L0.148,0L0.008,0L0.238,-0.352L0.027,-0.7L0.169,-0.7L0.295,-0.464C0.304,-0.448 0.311,-0.433 0.317,-0.417L0.319,-0.417C0.328,-0.438 0.336,-0.454 0.343,-0.466L0.475,-0.7L0.605,-0.7L0.39,-0.353L0.61,0Z" style="fill-rule:nonzero;"/>
                        </g>
                        <g transform="matrix(11.8774,0,0,12.8536,23.9735,50)">
                            <path d="M0.086,0L0.086,-0.7L0.289,-0.7C0.547,-0.7 0.676,-0.586 0.676,-0.359C0.676,-0.251 0.64,-0.164 0.568,-0.098C0.497,-0.033 0.401,0 0.28,0L0.086,0ZM0.202,-0.602L0.202,-0.098L0.295,-0.098C0.377,-0.098 0.44,-0.121 0.486,-0.166C0.531,-0.21 0.554,-0.274 0.554,-0.356C0.554,-0.52 0.469,-0.602 0.299,-0.602L0.202,-0.602Z" style="fill-rule:nonzero;"/>
                        </g>
                        <g transform="matrix(11.5815,0,0,12.8536,32.2964,50)">
                            <path d="M0.536,-0.602L0.334,-0.602L0.334,0L0.218,0L0.218,-0.602L0.018,-0.602L0.018,-0.7L0.536,-0.7L0.536,-0.602Z" style="fill-rule:nonzero;"/>
                        </g>
                        <g transform="matrix(13,0,0,12.4372,38.385,49.8543)">
                            <path d="M0.054,-0.028L0.054,-0.147C0.065,-0.138 0.078,-0.129 0.093,-0.121C0.107,-0.113 0.123,-0.107 0.14,-0.101C0.156,-0.096 0.173,-0.092 0.189,-0.089C0.206,-0.086 0.221,-0.084 0.235,-0.084C0.284,-0.084 0.321,-0.093 0.344,-0.109C0.368,-0.125 0.38,-0.149 0.38,-0.18C0.38,-0.196 0.376,-0.211 0.368,-0.223C0.36,-0.235 0.349,-0.246 0.335,-0.256C0.321,-0.266 0.304,-0.276 0.284,-0.285C0.265,-0.295 0.244,-0.304 0.222,-0.314C0.198,-0.327 0.176,-0.34 0.156,-0.353C0.135,-0.366 0.117,-0.38 0.102,-0.396C0.087,-0.412 0.075,-0.43 0.067,-0.45C0.058,-0.47 0.054,-0.493 0.054,-0.52C0.054,-0.552 0.061,-0.581 0.076,-0.605C0.091,-0.629 0.11,-0.649 0.135,-0.665C0.159,-0.681 0.186,-0.693 0.217,-0.7C0.248,-0.708 0.28,-0.712 0.312,-0.712C0.385,-0.712 0.439,-0.704 0.472,-0.687L0.472,-0.572C0.432,-0.601 0.381,-0.615 0.319,-0.615C0.302,-0.615 0.284,-0.614 0.267,-0.61C0.25,-0.607 0.235,-0.602 0.221,-0.594C0.208,-0.587 0.197,-0.577 0.188,-0.565C0.18,-0.554 0.176,-0.54 0.176,-0.523C0.176,-0.507 0.179,-0.494 0.186,-0.482C0.192,-0.471 0.202,-0.461 0.214,-0.451C0.227,-0.442 0.242,-0.433 0.26,-0.424C0.278,-0.415 0.299,-0.405 0.323,-0.395C0.347,-0.382 0.37,-0.368 0.392,-0.354C0.413,-0.34 0.433,-0.325 0.449,-0.308C0.465,-0.291 0.478,-0.272 0.488,-0.252C0.498,-0.231 0.502,-0.208 0.502,-0.181C0.502,-0.146 0.495,-0.116 0.481,-0.091C0.467,-0.067 0.447,-0.047 0.423,-0.032C0.399,-0.016 0.371,-0.005 0.339,0.001C0.308,0.008 0.274,0.012 0.239,0.012C0.228,0.012 0.213,0.011 0.196,0.009C0.179,0.007 0.161,0.005 0.144,0.001C0.126,-0.002 0.109,-0.006 0.093,-0.011C0.077,-0.016 0.064,-0.022 0.054,-0.028Z" style="fill-rule:nonzero;"/>
                        </g>
                    </g>
                </g>
            </g>
            <g transform="matrix(1,0,0,1,0,1.14792)">
                <g opacity="0.7">
                    <g id="rect4533" transform="matrix(1.05952,0,0,1.14792,-2.7558,-0.656403)">
                        <rect x="10.5" y="8.5" width="40" height="25" style="fill:none;stroke:black;stroke-width:1px;"/>
                    </g>
                    <g>
                        <g id="path4535" transform="matrix(1.05952,0,0,1.14792,-2.7558,-0.656403)">
                            <path d="M10.5,12.5L50.5,12.5" style="fill:none;fill-rule:nonzero;stroke:black;stroke-width:0.5px;stroke-miterlimit:4;"/>
                        </g>
                        <g id="path4535-4" transform="matrix(1.05952,0,0,1.14792,-2.7558,-0.656403)">
                            <path d="M10.5,15.484L50.5,15.484" style="fill:none;fill-rule:nonzero;stroke:black;stroke-width:0.5px;stroke-miterlimit:4;"/>
                        </g>
                        <g id="path4535-3" transform="matrix(1.05952,0,0,1.14792,-2.7558,-0.656403)">
                            <path d="M10.5,18.49L45.5,18.49" style="fill:none;fill-rule:nonzero;stroke:black;stroke-width:0.5px;stroke-miterlimit:4;"/>
                        </g>
                        <g id="path4535-4-3" transform="matrix(1.05952,0,0,1.14792,-2.7558,-0.656403)">
                            <path d="M10.5,21.497L45.5,21.497" style="fill:none;fill-rule:nonzero;stroke:black;stroke-width:0.5px;stroke-miterlimit:4;"/>
                        </g>
                        <g id="path4535-4-9" transform="matrix(1.05952,0,0,1.14792,-2.7558,-0.656403)">
                            <path d="M10.5,24.503L45.5,24.503" style="fill:none;fill-rule:nonzero;stroke:black;stroke-width:0.5px;stroke-miterlimit:4;"/>
                        </g>
                        <g id="path4535-3-1" transform="matrix(1.05952,0,0,1.14792,-2.7558,-0.656403)">
                            <path d="M10.5,27.51L45.5,27.51" style="fill:none;fill-rule:nonzero;stroke:black;stroke-width:0.5px;stroke-miterlimit:4;"/>
                        </g>
                        <g id="path4535-4-3-1" transform="matrix(1.05952,0,0,1.14792,-2.7558,-0.656403)">
                            <path d="M10.5,30.516L45.5,30.516" style="fill:none;fill-rule:nonzero;stroke:black;stroke-width:0.5px;stroke-miterlimit:4;"/>
                        </g>
                        <g id="path4535-9" transform="matrix(1.05952,0,0,1.14792,-2.7558,-0.656403)">
                            <path d="M31.25,33.5L31.25,12.5" style="fill:none;fill-rule:nonzero;stroke:black;stroke-width:0.5px;stroke-miterlimit:4;"/>
                        </g>
                        <g id="path4535-9-1" transform="matrix(1.05952,0,0,1.14792,-2.7558,-0.656403)">
                            <path d="M17.25,33.5L17.25,12.5" style="fill:none;fill-rule:nonzero;stroke:black;stroke-width:0.5px;stroke-miterlimit:4;"/>
                        </g>
                        <g id="path4535-9-9" transform="matrix(1.05952,0,0,1.14792,-2.7558,-0.656403)">
                            <path d="M38.25,33.5L38.25,12.5" style="fill:none;fill-rule:nonzero;stroke:black;stroke-width:0.5px;stroke-miterlimit:4;"/>
                        </g>
                        <g id="path4535-9-1-4" transform="matrix(1.05952,0,0,1.14792,-2.7558,-0.656403)">
                            <path d="M24.25,33.5L24.25,12.5" style="fill:none;fill-rule:nonzero;stroke:black;stroke-width:0.5px;stroke-miterlimit:4;"/>
                        </g>
                        <g id="path4535-9-9-5" transform="matrix(1.05952,0,0,1.14792,-2.7558,-0.656403)">
                            <path d="M45.25,33.5L45.25,12.5" style="fill:none;fill-rule:nonzero;stroke:black;stroke-width:0.5px;stroke-miterlimit:4;"/>
                        </g>
                        <g id="text4670" transform="matrix(1.05952,0,0,1.14792,-2.7558,-0.656403)">
                            <path id="path4775" d="M14.755,15L14.48,15L14.29,14.46L13.452,14.46L13.262,15L13,15L13.706,13.061L14.049,13.061L14.755,15ZM14.211,14.238L13.871,13.286L13.53,14.238L14.211,14.238Z" style="fill-rule:nonzero;"/>
                        </g>
                        <g id="text4670-1" transform="matrix(1.05952,0,0,1.14792,-2.7558,-0.656403)">
                            <path id="path4772" d="M21.489,14.404C21.489,14.5 21.471,14.585 21.434,14.659C21.398,14.733 21.349,14.793 21.287,14.841C21.214,14.898 21.134,14.939 21.046,14.964C20.959,14.988 20.849,15 20.714,15L20.027,15L20.027,13.061L20.601,13.061C20.742,13.061 20.848,13.066 20.918,13.077C20.989,13.087 21.056,13.109 21.12,13.142C21.191,13.179 21.243,13.227 21.275,13.286C21.307,13.345 21.323,13.414 21.323,13.496C21.323,13.588 21.3,13.667 21.253,13.732C21.206,13.796 21.144,13.848 21.066,13.887L21.066,13.897C21.197,13.924 21.3,13.982 21.376,14.07C21.451,14.158 21.489,14.269 21.489,14.404ZM21.055,13.53C21.055,13.483 21.047,13.444 21.032,13.411C21.016,13.379 20.991,13.353 20.956,13.333C20.915,13.31 20.866,13.296 20.808,13.29C20.75,13.284 20.678,13.281 20.592,13.281L20.284,13.281L20.284,13.841L20.618,13.841C20.698,13.841 20.763,13.837 20.81,13.829C20.858,13.821 20.902,13.803 20.943,13.777C20.984,13.751 21.013,13.718 21.029,13.677C21.047,13.635 21.055,13.586 21.055,13.53ZM21.221,14.414C21.221,14.336 21.209,14.274 21.185,14.228C21.162,14.182 21.119,14.143 21.058,14.111C21.016,14.089 20.965,14.075 20.905,14.069C20.846,14.062 20.774,14.059 20.689,14.059L20.284,14.059L20.284,14.78L20.626,14.78C20.738,14.78 20.831,14.774 20.903,14.763C20.975,14.751 21.034,14.729 21.08,14.698C21.129,14.664 21.164,14.625 21.187,14.582C21.209,14.539 21.221,14.483 21.221,14.414Z" style="fill-rule:nonzero;"/>
                        </g>
                        <g id="text4670-0" transform="matrix(1.05952,0,0,1.14792,-2.7558,-0.656403)">
                            <path id="path4769" d="M28.524,14.859C28.476,14.88 28.433,14.9 28.394,14.918C28.356,14.936 28.305,14.955 28.243,14.975C28.19,14.992 28.132,15.006 28.07,15.017C28.008,15.029 27.94,15.035 27.865,15.035C27.724,15.035 27.596,15.016 27.481,14.977C27.366,14.937 27.267,14.875 27.182,14.79C27.098,14.708 27.033,14.603 26.986,14.477C26.939,14.349 26.916,14.201 26.916,14.033C26.916,13.873 26.938,13.73 26.984,13.604C27.029,13.478 27.094,13.372 27.179,13.285C27.261,13.201 27.361,13.137 27.477,13.092C27.594,13.048 27.724,13.026 27.866,13.026C27.971,13.026 28.074,13.039 28.178,13.064C28.282,13.089 28.397,13.133 28.524,13.197L28.524,13.503L28.504,13.503C28.398,13.413 28.292,13.348 28.187,13.307C28.082,13.266 27.969,13.246 27.849,13.246C27.751,13.246 27.663,13.262 27.584,13.294C27.506,13.326 27.436,13.375 27.374,13.441C27.314,13.507 27.267,13.589 27.234,13.689C27.201,13.788 27.184,13.902 27.184,14.033C27.184,14.169 27.202,14.286 27.239,14.384C27.276,14.482 27.324,14.562 27.382,14.624C27.443,14.688 27.514,14.736 27.594,14.767C27.676,14.797 27.762,14.812 27.852,14.812C27.976,14.812 28.093,14.791 28.201,14.749C28.31,14.706 28.411,14.642 28.506,14.557L28.524,14.557L28.524,14.859Z" style="fill-rule:nonzero;"/>
                        </g>
                        <g id="text4670-1-0" transform="matrix(1.05952,0,0,1.14792,-2.7558,-0.656403)">
                            <path id="path4766" d="M35.665,14.033C35.665,14.209 35.626,14.368 35.549,14.512C35.472,14.655 35.37,14.766 35.243,14.845C35.154,14.9 35.055,14.939 34.946,14.964C34.837,14.988 34.694,15 34.516,15L34.027,15L34.027,13.061L34.511,13.061C34.7,13.061 34.85,13.075 34.961,13.103C35.073,13.13 35.168,13.167 35.245,13.215C35.377,13.297 35.48,13.407 35.554,13.544C35.628,13.681 35.665,13.844 35.665,14.033ZM35.395,14.029C35.395,13.877 35.369,13.749 35.316,13.645C35.263,13.54 35.184,13.458 35.079,13.398C35.002,13.355 34.921,13.325 34.835,13.309C34.749,13.291 34.646,13.283 34.527,13.283L34.284,13.283L34.284,14.779L34.527,14.779C34.651,14.779 34.759,14.77 34.851,14.751C34.944,14.733 35.029,14.699 35.106,14.65C35.202,14.588 35.274,14.507 35.322,14.406C35.371,14.306 35.395,14.18 35.395,14.029Z" style="fill-rule:nonzero;"/>
                        </g>
                        <g id="text4670-1-0-2" transform="matrix(1.05952,0,0,1.14792,-2.7558,-0.656403)">
                            <path id="path4763" d="M42.304,15L41.027,15L41.027,13.061L42.304,13.061L42.304,13.29L41.284,13.29L41.284,13.822L42.304,13.822L42.304,14.051L41.284,14.051L41.284,14.771L42.304,14.771L42.304,15Z" style="fill-rule:nonzero;"/>
                        </g>
                        <g id="text4670-10" transform="matrix(1.05952,0,0,1.14792,-2.7558,-0.656403)">
                            <path id="path4750" d="M28.234,11.65L27.959,11.65L27.769,11.11L26.93,11.11L26.74,11.65L26.479,11.65L27.184,9.711L27.528,9.711L28.234,11.65ZM27.689,10.888L27.35,9.936L27.008,10.888L27.689,10.888Z" style="fill-rule:nonzero;"/>
                            <path id="path4752" d="M29.584,11.559C29.502,11.598 29.425,11.628 29.351,11.65C29.278,11.672 29.2,11.682 29.118,11.682C29.013,11.682 28.916,11.667 28.829,11.637C28.741,11.606 28.666,11.559 28.604,11.496C28.54,11.434 28.491,11.355 28.456,11.259C28.422,11.164 28.404,11.052 28.404,10.925C28.404,10.687 28.469,10.5 28.6,10.365C28.731,10.229 28.903,10.162 29.118,10.162C29.201,10.162 29.283,10.173 29.363,10.197C29.443,10.22 29.517,10.249 29.584,10.283L29.584,10.555L29.571,10.555C29.496,10.497 29.419,10.452 29.339,10.421C29.26,10.39 29.183,10.374 29.107,10.374C28.969,10.374 28.859,10.421 28.778,10.515C28.698,10.607 28.658,10.744 28.658,10.925C28.658,11.1 28.697,11.235 28.775,11.33C28.854,11.423 28.965,11.47 29.107,11.47C29.157,11.47 29.207,11.464 29.258,11.451C29.31,11.438 29.356,11.421 29.396,11.4C29.432,11.382 29.466,11.363 29.497,11.343C29.528,11.322 29.553,11.304 29.571,11.289L29.584,11.289L29.584,11.559Z" style="fill-rule:nonzero;"/>
                            <path id="path4754" d="M30.654,11.637C30.608,11.649 30.558,11.659 30.503,11.667C30.449,11.675 30.401,11.679 30.359,11.679C30.21,11.679 30.097,11.639 30.02,11.559C29.943,11.479 29.904,11.351 29.904,11.175L29.904,10.401L29.739,10.401L29.739,10.195L29.904,10.195L29.904,9.778L30.149,9.778L30.149,10.195L30.654,10.195L30.654,10.401L30.149,10.401L30.149,11.064C30.149,11.14 30.151,11.2 30.154,11.244C30.158,11.286 30.17,11.326 30.191,11.363C30.21,11.398 30.236,11.424 30.269,11.44C30.303,11.456 30.354,11.464 30.423,11.464C30.462,11.464 30.504,11.458 30.548,11.447C30.591,11.435 30.622,11.425 30.641,11.417L30.654,11.417L30.654,11.637Z" style="fill-rule:nonzero;"/>
                            <path id="path4756" d="M31.214,9.952L30.938,9.952L30.938,9.698L31.214,9.698L31.214,9.952ZM31.199,11.65L30.954,11.65L30.954,10.195L31.199,10.195L31.199,11.65Z" style="fill-rule:nonzero;"/>
                            <path id="path4758" d="M32.925,10.923C32.925,11.16 32.864,11.347 32.743,11.485C32.621,11.622 32.459,11.69 32.255,11.69C32.049,11.69 31.885,11.622 31.764,11.485C31.643,11.347 31.583,11.16 31.583,10.923C31.583,10.686 31.643,10.499 31.764,10.362C31.885,10.224 32.049,10.155 32.255,10.155C32.459,10.155 32.621,10.224 32.743,10.362C32.864,10.499 32.925,10.686 32.925,10.923ZM32.673,10.923C32.673,10.735 32.636,10.595 32.562,10.504C32.488,10.412 32.386,10.366 32.255,10.366C32.122,10.366 32.018,10.412 31.945,10.504C31.872,10.595 31.835,10.735 31.835,10.923C31.835,11.106 31.872,11.244 31.946,11.339C32.02,11.432 32.123,11.479 32.255,11.479C32.385,11.479 32.487,11.433 32.561,11.34C32.635,11.246 32.673,11.107 32.673,10.923Z" style="fill-rule:nonzero;"/>
                            <path id="path4760" d="M34.521,11.65L34.277,11.65L34.277,10.822C34.277,10.755 34.273,10.692 34.265,10.634C34.257,10.575 34.243,10.529 34.222,10.496C34.2,10.46 34.169,10.433 34.128,10.416C34.087,10.397 34.035,10.388 33.969,10.388C33.903,10.388 33.833,10.405 33.76,10.438C33.687,10.471 33.617,10.513 33.55,10.564L33.55,11.65L33.305,11.65L33.305,10.195L33.55,10.195L33.55,10.357C33.627,10.294 33.706,10.244 33.787,10.209C33.869,10.173 33.952,10.155 34.038,10.155C34.196,10.155 34.315,10.202 34.398,10.297C34.48,10.392 34.521,10.528 34.521,10.706L34.521,11.65Z" style="fill-rule:nonzero;"/>
                        </g>
                    </g>
                </g>
            </g>
        </g>
    </g>
    <g transform="matrix(1,0,0,1,-1,1)">
        <path d="M41,13L52,13L52,24L41,13Z" style="fill-opacity:0.25;"/>
    </g>
</svg>
