<?xml version="1.0" encoding="UTF-8" standalone="no"?>
<!DOCTYPE svg PUBLIC "-//W3C//DTD SVG 1.1//EN" "http://www.w3.org/Graphics/SVG/1.1/DTD/svg11.dtd">
<svg width="20px" height="20px" version="1.1" xmlns="http://www.w3.org/2000/svg" xmlns:xlink="http://www.w3.org/1999/xlink" xml:space="preserve" xmlns:serif="http://www.serif.com/" style="fill-rule:evenodd;clip-rule:evenodd;stroke-linejoin:round;stroke-miterlimit:2;">
    <rect x="0" y="0" width="20" height="20" style="fill-opacity:0;"/>
    <g transform="matrix(1,0,0,1,-7,-6)">
        <g transform="matrix(1,0,0,1,8,6)">
            <path d="M4,14C3.735,14 3.48,13.895 3.293,13.707C3.105,13.52 3,13.265 3,13L3,5C3,4.448 3.448,4 4,4L14,4C14.552,4 15,4.448 15,5L4,5L4,14Z"/>
        </g>
        <g transform="matrix(1,0,0,1,6,4)">
            <path d="M4,14C3.735,14 3.48,13.895 3.293,13.707C3.105,13.52 3,13.265 3,13L3,5C3,4.448 3.448,4 4,4L14,4C14.552,4 15,4.448 15,5L4,5L4,14Z"/>
        </g>
        <g transform="matrix(1,0,0,1,7,6)">
            <path d="M6,7C6,6.448 6.448,6 7,6L17,6C17.552,6 18,6.448 18,7L18,17C18,17.265 17.895,17.52 17.707,17.707C17.52,17.895 17.265,18 17,18L10.414,18C10.149,18 9.895,17.895 9.707,17.707C8.968,16.968 7.032,15.032 6.293,14.293C6.105,14.105 6,13.851 6,13.586L6,7ZM10,16L10,13L7,13L10,16ZM9,7.5C9,7.224 8.776,7 8.5,7L7.5,7C7.224,7 7,7.224 7,7.5C7,7.776 7.224,8 7.5,8L8.5,8C8.776,8 9,7.776 9,7.5ZM12.756,7.5C12.756,7.224 12.532,7 12.256,7L11.752,7C11.476,7 11.252,7.224 11.252,7.5C11.252,7.776 11.476,8 11.752,8L12.256,8C12.532,8 12.756,7.776 12.756,7.5ZM17,7.5C17,7.224 16.776,7 16.5,7L15.5,7C15.224,7 15,7.224 15,7.5C15,7.776 15.224,8 15.5,8L16.5,8C16.776,8 17,7.776 17,7.5Z"/>
        </g>
    </g>
</svg>
