<?xml version="1.0" encoding="UTF-8" standalone="no"?>
<!DOCTYPE svg PUBLIC "-//W3C//DTD SVG 1.1//EN" "http://www.w3.org/Graphics/SVG/1.1/DTD/svg11.dtd">
<svg width="20px" height="20px" version="1.1" xmlns="http://www.w3.org/2000/svg" xmlns:xlink="http://www.w3.org/1999/xlink" xml:space="preserve" xmlns:serif="http://www.serif.com/" style="fill-rule:evenodd;clip-rule:evenodd;stroke-linejoin:round;stroke-miterlimit:2;">
    <rect x="0" y="0" width="20" height="20" style="fill-opacity:0;"/>
    <g transform="matrix(4.29985e-17,-0.702219,0.746926,4.5736e-17,1.99174,17.0018)">
        <path d="M2.621,9.383C2.465,9.043 2.382,8.671 2.382,8.292C2.382,7.594 2.654,6.938 3.148,6.444C3.641,5.951 4.298,5.679 4.996,5.679C5.008,5.679 5.02,5.679 5.033,5.679C5.715,5.689 6.358,5.962 6.843,6.447C7.328,6.933 7.6,7.577 7.609,8.259C7.614,8.649 7.531,9.033 7.37,9.383L9.994,9.383L9.994,5.941C10.105,6.004 10.309,6.142 10.497,6.271C10.846,6.512 11.254,6.684 11.71,6.684C11.719,6.684 11.727,6.684 11.736,6.684C12.807,6.671 13.683,5.797 13.698,4.725C13.703,4.358 13.608,4.013 13.439,3.716C13.098,3.115 12.451,2.709 11.71,2.709C11.254,2.709 10.856,2.896 10.498,3.122C10.277,3.262 10.105,3.39 9.994,3.453L9.994,0.011L0.837,0.011C0.376,0.011 0.003,0.385 0.003,0.845L0.003,9.383L2.621,9.383Z" style="fill:black;"/>
    </g>
    <g transform="matrix(6.12323e-17,-1,1,6.12323e-17,-8.88178e-16,19)">
        <path d="M10.016,2L16.377,2C16.721,2 17,2.262 17,2.586L17,9.016L14.429,9.016C14.476,9.094 14.572,9.215 14.676,9.37C14.845,9.621 14.984,9.901 14.984,10.221C14.984,10.742 14.682,11.196 14.232,11.436C14.011,11.554 13.753,11.62 13.479,11.617C12.679,11.606 12.026,10.992 12.016,10.239C12.016,10.233 12.016,10.227 12.016,10.221C12.016,9.901 12.144,9.615 12.324,9.37C12.421,9.237 12.524,9.094 12.571,9.016L10.016,9.016C10.016,9.011 10.016,9.005 10.016,9L10.016,7.975L10.255,7.984C11.527,7.967 12.599,6.89 12.617,5.534C12.623,5.083 12.512,4.661 12.318,4.296C11.905,3.524 11.116,3.016 10.221,3.016C10.152,3.016 10.084,3.019 10.016,3.026L10.016,2Z" style="fill:black;"/>
    </g>
    <path d="M17.639,1.976C16.914,1.976 15.951,1.932 15.127,2.114C14.437,2.267 13.839,2.575 13.446,3.096C12.962,3.738 12.588,4.319 12.498,5.091C12.438,5.607 12.503,6.215 12.786,6.995C13.181,8.085 14.225,9.125 15.207,10.253C16.019,11.185 16.797,12.187 16.838,13.439C16.868,14.315 16.498,15.023 15.625,15.472C15.135,15.724 13.946,15.823 12.516,15.79C12.124,15.781 11.799,16.092 11.79,16.484C11.781,16.876 12.092,17.201 12.484,17.21C14.232,17.25 15.676,17.044 16.275,16.735C17.708,15.998 18.306,14.83 18.258,13.392C18.206,11.808 17.306,10.5 16.279,9.32C15.422,8.336 14.466,7.462 14.121,6.511C13.934,5.995 13.87,5.596 13.909,5.255C13.969,4.742 14.259,4.377 14.58,3.951C14.838,3.609 15.295,3.505 15.768,3.444C16.409,3.36 17.098,3.396 17.639,3.396C18.031,3.396 18.349,3.078 18.349,2.686C18.349,2.294 18.031,1.976 17.639,1.976Z" style="fill:black;"/>
</svg>
