<?xml version="1.0" encoding="UTF-8" standalone="no"?>
<!DOCTYPE svg PUBLIC "-//W3C//DTD SVG 1.1//EN" "http://www.w3.org/Graphics/SVG/1.1/DTD/svg11.dtd">
<svg width="20px" height="20px" version="1.1" xmlns="http://www.w3.org/2000/svg" xmlns:xlink="http://www.w3.org/1999/xlink" xml:space="preserve" xmlns:serif="http://www.serif.com/" style="fill-rule:evenodd;clip-rule:evenodd;stroke-linejoin:round;stroke-miterlimit:2;">
    <rect x="0" y="0" width="20" height="20" style="fill-opacity:0;"/>
    <path d="M9,6L3,6C2.448,6 2,5.552 2,5L2,3C2,2.448 2.448,2 3,2L16,2C16.552,2 17,2.448 17,3L17,5C17,5.552 16.552,6 16,6L10,6L10,8L16,8C16.552,8 17,8.448 17,9L17,11C17,11.552 16.552,12 16,12L10,12L10,14L16,14C16.552,14 17,14.448 17,15L17,17C17,17.552 16.552,18 16,18L3,18C2.448,18 2,17.552 2,17L2,15C2,14.448 2.448,14 3,14L9,14L9,12L3,12C2.448,12 2,11.552 2,11L2,9C2,8.448 2.448,8 3,8L9,8L9,6ZM15,15C15.552,15 16,15.448 16,16C16,16.552 15.552,17 15,17C14.448,17 14,16.552 14,16C14,15.448 14.448,15 15,15ZM7,15L3,15L3,16L7,16L7,15ZM15,9C15.552,9 16,9.448 16,10C16,10.552 15.552,11 15,11C14.448,11 14,10.552 14,10C14,9.448 14.448,9 15,9ZM7,9L3,9L3,10L7,10L7,9ZM15,3C15.552,3 16,3.448 16,4C16,4.552 15.552,5 15,5C14.448,5 14,4.552 14,4C14,3.448 14.448,3 15,3ZM7,3L3,3L3,4L7,4L7,3Z" style="fill:black;"/>
</svg>
