<?xml version="1.0" encoding="UTF-8" standalone="no"?>
<!DOCTYPE svg PUBLIC "-//W3C//DTD SVG 1.1//EN" "http://www.w3.org/Graphics/SVG/1.1/DTD/svg11.dtd">
<svg width="20px" height="20px" version="1.1" xmlns="http://www.w3.org/2000/svg" xmlns:xlink="http://www.w3.org/1999/xlink" xml:space="preserve" xmlns:serif="http://www.serif.com/" style="fill-rule:evenodd;clip-rule:evenodd;stroke-linecap:round;stroke-linejoin:round;stroke-miterlimit:1.5;">
    <rect x="0" y="0" width="20" height="20" style="fill-opacity:0;"/>
    <g transform="matrix(1,0,0,0.888889,0,-0.888889)">
        <rect x="9" y="1" width="1" height="18" style="fill:black;"/>
    </g>
    <g transform="matrix(1,0,0,1,0,-2)">
        <path d="M11,7L11,3L12,3L12,5L15,5L15,8L17,8L17,12L15,12L15,15L12,15L12,17L11,17L11,13L13,13L13,11L15,11L15,9L13,9L13,7L11,7Z" style="fill:black;"/>
    </g>
    <g transform="matrix(1,0,0,1,0,-2)">
        <path d="M8,3.29L8,5.417C6.235,6.189 5,7.951 5,10C5,12.049 6.235,13.811 8,14.583L8,16.71C5.11,15.848 3,13.168 3,10C3,6.832 5.11,4.152 8,3.29Z" style="fill:black;"/>
    </g>
    <g transform="matrix(-0.749824,0,0,-0.749824,19.1135,23.9997)">
        <path d="M8.25,12L1.5,5.25L1.5,12L8.25,12Z" style="fill:black;fill-rule:nonzero;"/>
    </g>
    <path d="M16.5,16.5C16.5,16.5 10.747,23.238 3.5,16.5" style="fill:none;stroke:black;stroke-width:1px;"/>
</svg>
