<?xml version="1.0" encoding="UTF-8" standalone="no"?>
<!DOCTYPE svg PUBLIC "-//W3C//DTD SVG 1.1//EN" "http://www.w3.org/Graphics/SVG/1.1/DTD/svg11.dtd">
<svg width="20px" height="20px" version="1.1" xmlns="http://www.w3.org/2000/svg" xmlns:xlink="http://www.w3.org/1999/xlink" xml:space="preserve" xmlns:serif="http://www.serif.com/" style="fill-rule:evenodd;clip-rule:evenodd;stroke-linejoin:round;stroke-miterlimit:2;">
    <rect x="0" y="0" width="20" height="20" style="fill-opacity:0;"/>
    <g transform="matrix(1,0,0,1,-1,-1)">
        <path d="M11,1.5C11,1.224 10.776,1 10.5,1C10.224,1 10,1.224 10,1.5L10,3.5C10,3.776 10.224,4 10.5,4C10.776,4 11,3.776 11,3.5L11,1.5Z" style="fill:black;"/>
    </g>
    <g transform="matrix(1,0,0,1,-1,15)">
        <path d="M11,1.5C11,1.224 10.776,1 10.5,1C10.224,1 10,1.224 10,1.5L10,3.5C10,3.776 10.224,4 10.5,4C10.776,4 11,3.776 11,3.5L11,1.5Z" style="fill:black;"/>
    </g>
    <g transform="matrix(6.12323e-17,1,-1,6.12323e-17,4,-1)">
        <path d="M11,1.5C11,1.224 10.776,1 10.5,1C10.224,1 10,1.224 10,1.5L10,3.5C10,3.776 10.224,4 10.5,4C10.776,4 11,3.776 11,3.5L11,1.5Z" style="fill:black;"/>
    </g>
    <g transform="matrix(-1.83697e-16,-1,1,-1.83697e-16,15,20)">
        <path d="M11,1.5C11,1.224 10.776,1 10.5,1C10.224,1 10,1.224 10,1.5L10,3.5C10,3.776 10.224,4 10.5,4C10.776,4 11,3.776 11,3.5L11,1.5Z" style="fill:black;"/>
    </g>
    <g transform="matrix(-0.707107,-0.707107,0.707107,-0.707107,21.4498,13.3994)">
        <path d="M11,1.5C11,1.224 10.776,1 10.5,1C10.224,1 10,1.224 10,1.5L10,3.5C10,3.776 10.224,4 10.5,4C10.776,4 11,3.776 11,3.5L11,1.5Z" style="fill:black;"/>
    </g>
    <g transform="matrix(0.707107,0.707107,-0.707107,0.707107,-2.44985,6.6006)">
        <path d="M11,1.5C11,1.224 10.776,1 10.5,1C10.224,1 10,1.224 10,1.5L10,3.5C10,3.776 10.224,4 10.5,4C10.776,4 11,3.776 11,3.5L11,1.5Z" style="fill:black;"/>
    </g>
    <g transform="matrix(-0.707107,0.707107,-0.707107,-0.707107,12.3994,-1.44985)">
        <path d="M11,1.5C11,1.224 10.776,1 10.5,1C10.224,1 10,1.224 10,1.5L10,3.5C10,3.776 10.224,4 10.5,4C10.776,4 11,3.776 11,3.5L11,1.5Z" style="fill:black;"/>
    </g>
    <g transform="matrix(-0.707107,0.707107,-0.707107,-0.707107,24.9854,10.1361)">
        <path d="M11,1.5C11,1.224 10.776,1 10.5,1C10.224,1 10,1.224 10,1.5L10,3.5C10,3.776 10.224,4 10.5,4C10.776,4 11,3.776 11,3.5L11,1.5Z" style="fill:black;"/>
    </g>
    <g transform="matrix(0.916667,0,0,0.916667,0.333333,-0.583333)">
        <path d="M10,5C13.311,5 16,7.689 16,11C16,14.311 13.311,17 10,17C6.689,17 4,14.311 4,11C4,7.689 6.689,5 10,5ZM10,6.091C12.709,6.091 14.909,8.291 14.909,11C14.909,13.709 12.709,15.909 10,15.909C7.291,15.909 5.091,13.709 5.091,11C5.091,8.291 7.291,6.091 10,6.091Z" style="fill:black;"/>
    </g>
    <path d="M9.5,4C12.536,4 15,6.464 15,9.5C15,12.536 12.536,15 9.5,15L9.5,4Z" style="fill:black;"/>
</svg>
