<?xml version="1.0" encoding="UTF-8" standalone="no"?>
<!DOCTYPE svg PUBLIC "-//W3C//DTD SVG 1.1//EN" "http://www.w3.org/Graphics/SVG/1.1/DTD/svg11.dtd">
<svg width="20px" height="20px" version="1.1" xmlns="http://www.w3.org/2000/svg" xmlns:xlink="http://www.w3.org/1999/xlink" xml:space="preserve" xmlns:serif="http://www.serif.com/" style="fill-rule:evenodd;clip-rule:evenodd;stroke-linejoin:round;stroke-miterlimit:2;">
    <rect x="0" y="0" width="20" height="20" style="fill-opacity:0;"/>
    <g transform="matrix(0.707107,0.707107,-0.707107,0.707107,9.00735,-4.57122)">
        <path d="M10,4.233L10,-0.289C10,-0.841 10.448,-1.289 11,-1.289C11.552,-1.289 12,-0.841 12,-0.289L12,4.233C12.847,4.533 13.519,5.671 13.823,6.515C13.169,5.86 12.255,5.489 11,5.489C9.819,5.489 8.854,5.892 8.175,6.518C8.479,5.672 9.152,4.533 10,4.233Z" style="fill:black;"/>
    </g>
    <g transform="matrix(0.707107,0.707107,-0.707107,0.707107,4.79369,-1.55171)">
        <path d="M4.322,1.294L4.837,3.123C4.858,3.195 4.896,3.26 4.949,3.313C5.002,3.366 5.067,3.404 5.139,3.424L6.967,3.94L5.139,4.456C5.067,4.476 5.002,4.514 4.949,4.567C4.896,4.62 4.858,4.685 4.837,4.757L4.322,6.586L3.806,4.757C3.786,4.685 3.747,4.62 3.695,4.567C3.642,4.514 3.576,4.476 3.505,4.456L1.676,3.94L3.505,3.424C3.576,3.404 3.642,3.366 3.695,3.313C3.747,3.26 3.786,3.195 3.806,3.123L4.322,1.294Z" style="fill:black;"/>
    </g>
    <path d="M8,15.991C8,15.991 10.248,12 14.001,12C17.752,12 20,15.991 20,15.991C20,15.991 17.761,20 14.001,20C10.239,20 8,15.991 8,15.991ZM14,13C15.656,13 17,14.344 17,16C17,17.656 15.656,19 14,19C12.344,19 11,17.656 11,16C11,14.344 12.344,13 14,13ZM14,14.5C14.828,14.5 15.5,15.172 15.5,16C15.5,16.828 14.828,17.5 14,17.5C13.172,17.5 12.5,16.828 12.5,16C12.5,15.172 13.172,14.5 14,14.5Z" style="fill:black;"/>
    <path d="M7.016,16.166C6.851,16.39 6.766,16.526 6.766,16.526C6.766,16.526 7.021,16.935 7.505,17.508C7.373,17.687 7.239,17.874 7.108,18.068C7.078,18.112 7.001,18.041 6.956,18.01C5.817,17.226 3.676,15.054 3.676,15.054C4.243,14.607 5.048,13.795 5.403,13.136C4.831,13.652 3.647,14.152 2.969,14.35C2.969,14.35 2.534,13.773 2.318,13.475C2.302,13.454 2.271,13.41 2.271,13.41C3.599,12.796 4.638,11.977 6.399,10.205C5.138,11.025 2.838,11.549 1.308,11.648C1.308,11.648 0.98,10.863 1.251,10.592C3.667,10.222 5.652,9.155 7.611,7.789C8.684,6.737 10.544,6.638 11.951,8.045C12.941,9.035 13.171,10.057 12.886,11.103C9.277,11.774 7.129,15.5 7.129,15.5C7.013,15.705 6.975,15.941 7.016,16.166Z" style="fill:black;"/>
</svg>
