<?xml version="1.0" encoding="UTF-8" standalone="no"?>
<!DOCTYPE svg PUBLIC "-//W3C//DTD SVG 1.1//EN" "http://www.w3.org/Graphics/SVG/1.1/DTD/svg11.dtd">
<svg width="20px" height="20px" version="1.1" xmlns="http://www.w3.org/2000/svg" xmlns:xlink="http://www.w3.org/1999/xlink" xml:space="preserve" xmlns:serif="http://www.serif.com/" style="fill-rule:evenodd;clip-rule:evenodd;stroke-linejoin:round;stroke-miterlimit:2;">
    <rect x="0" y="0" width="20" height="20" style="fill-opacity:0;"/>
    <g transform="matrix(0.509513,0.509513,-0.509513,0.509513,7.36489,1.42093)">
        <path d="M15.623,5.988C15.079,3.566 13.76,2 11,2C8.24,2 6.511,3.923 6.491,6.008C5.909,9.271 5.008,12.266 3,15C3,15.532 4.093,15.98 4.093,15.98C5.497,14.381 7.24,11.61 7.673,9.568C7.683,13.035 7.467,14.858 6.766,16.764C6.766,16.764 6.84,16.776 6.877,16.782C7.38,16.862 8.374,17.001 8.374,17.001C8.845,16.141 9.516,14.49 9.571,13.422C9.869,14.417 9.876,16.004 9.758,16.999C9.758,16.999 13.991,17.028 15.878,16.68C15.953,16.667 16.098,16.661 16.084,16.588C15.637,14.261 15.638,12.171 15.654,12.203C15.714,12.325 16.289,14.44 17.975,16.074C17.975,16.074 19,15.497 19,15C17.6,12.477 16.085,8.906 15.623,5.988Z" style="fill:black;"/>
    </g>
    <g transform="matrix(0.707107,0.707107,-0.707107,0.707107,9.00735,-4.57122)">
        <path d="M10,4.233L10,-0.289C10,-0.841 10.448,-1.289 11,-1.289C11.552,-1.289 12,-0.841 12,-0.289L12,4.233C12.847,4.533 13.519,5.671 13.823,6.515C13.169,5.86 12.255,5.489 11,5.489C9.819,5.489 8.854,5.892 8.175,6.518C8.479,5.672 9.152,4.533 10,4.233Z" style="fill:black;"/>
    </g>
    <g transform="matrix(0.707107,0.707107,-0.707107,0.707107,4.79369,-1.55171)">
        <path d="M4.322,1.294L4.837,3.123C4.858,3.195 4.896,3.26 4.949,3.313C5.002,3.366 5.067,3.404 5.139,3.424L6.967,3.94L5.139,4.456C5.067,4.476 5.002,4.514 4.949,4.567C4.896,4.62 4.858,4.685 4.837,4.757L4.322,6.586L3.806,4.757C3.786,4.685 3.747,4.62 3.695,4.567C3.642,4.514 3.576,4.476 3.505,4.456L1.676,3.94L3.505,3.424C3.576,3.404 3.642,3.366 3.695,3.313C3.747,3.26 3.786,3.195 3.806,3.123L4.322,1.294Z" style="fill:black;"/>
    </g>
    <g transform="matrix(0.707107,0.707107,-0.707107,0.707107,15.0736,9.4649)">
        <path d="M4.322,1.294L4.837,3.123C4.858,3.195 4.896,3.26 4.949,3.313C5.002,3.366 5.067,3.404 5.139,3.424L6.967,3.94L5.139,4.456C5.067,4.476 5.002,4.514 4.949,4.567C4.896,4.62 4.858,4.685 4.837,4.757L4.322,6.586L3.806,4.757C3.786,4.685 3.747,4.62 3.695,4.567C3.642,4.514 3.576,4.476 3.505,4.456L1.676,3.94L3.505,3.424C3.576,3.404 3.642,3.366 3.695,3.313C3.747,3.26 3.786,3.195 3.806,3.123L4.322,1.294Z" style="fill:black;"/>
    </g>
</svg>
