<?xml version="1.0" encoding="UTF-8" standalone="no"?>
<!DOCTYPE svg PUBLIC "-//W3C//DTD SVG 1.1//EN" "http://www.w3.org/Graphics/SVG/1.1/DTD/svg11.dtd">
<svg width="20px" height="20px" version="1.1" xmlns="http://www.w3.org/2000/svg" xmlns:xlink="http://www.w3.org/1999/xlink" xml:space="preserve" xmlns:serif="http://www.serif.com/" style="fill-rule:evenodd;clip-rule:evenodd;stroke-linejoin:round;stroke-miterlimit:2;">
    <rect x="0" y="0" width="20" height="20" style="fill-opacity:0;"/>
    <rect x="9" y="2" width="1" height="16" style="fill:black;"/>
    <path d="M10,3L10,4L3,4L3,16L10,16L10,17L3,17C2.448,17 2,16.552 2,16L2,4C2,3.448 2.448,3 3,3L10,3Z" style="fill:black;"/>
    <path d="M10,15L4,15L4,13.571L6.5,10L8.763,13.232L10,11.5L10,15Z" style="fill:black;"/>
    <path d="M11,3L17,3C17.552,3 18,3.448 18,4L18,16C18,16.552 17.552,17 17,17L11,17L11,16L17,16L17,4L11,4L11,3ZM11,10.1L12.5,8L16,12.9L16,15L11,15L11,10.1Z" style="fill:black;fill-opacity:0.5;"/>
    <circle cx="6.5" cy="7.5" r="1.5" style="fill:black;"/>
</svg>
