<?xml version="1.0" encoding="UTF-8" standalone="no"?>
<!DOCTYPE svg PUBLIC "-//W3C//DTD SVG 1.1//EN" "http://www.w3.org/Graphics/SVG/1.1/DTD/svg11.dtd">
<svg width="20px" height="20px" version="1.1" xmlns="http://www.w3.org/2000/svg" xmlns:xlink="http://www.w3.org/1999/xlink" xml:space="preserve" xmlns:serif="http://www.serif.com/" style="fill-rule:evenodd;clip-rule:evenodd;stroke-linejoin:round;stroke-miterlimit:2;">
    <rect x="0" y="0" width="20" height="20" style="fill-opacity:0;"/>
    <g transform="matrix(0.285714,0,0,1,1.85714,-1)">
        <rect x="4" y="4" width="14" height="2" style="fill:black;fill-opacity:0.6;"/>
    </g>
    <g transform="matrix(0.285714,0,0,1,6.85714,-1)">
        <rect x="4" y="4" width="14" height="2" style="fill:black;fill-opacity:0.2;"/>
    </g>
    <g transform="matrix(1,0,0,1,-1,-1)">
        <path d="M19,8L3,8L3,18C3,18.552 3.448,19 4,19C6.873,19 15.127,19 18,19C18.552,19 19,18.552 19,18C19,15.289 19,8 19,8ZM14,16L14,18L13,18L13,16L9,16L9,18L18,18L18,16L14,16ZM8,14L4,14L4,16L8,16L8,14ZM14,11L14,13L13,13L13,11L9,11L9,13L18,13L18,11L14,11ZM8,9L4,9L4,11L8,11L8,9ZM9,4L8,4L8,6L9,6L9,4ZM14,4L13,4L13,6L14,6L14,4Z" style="fill:black;"/>
    </g>
    <g transform="matrix(0.285714,0,0,1,11.8571,-1)">
        <rect x="4" y="4" width="14" height="2" style="fill:black;fill-opacity:0.4;"/>
    </g>
    <g transform="matrix(0.285714,0,0,1,11.8571,6)">
        <rect x="4" y="4" width="14" height="2" style="fill:black;fill-opacity:0.4;"/>
    </g>
    <g transform="matrix(0.285714,0,0,1,11.8571,11)">
        <rect x="4" y="4" width="14" height="2" style="fill:black;fill-opacity:0.4;"/>
    </g>
    <g transform="matrix(0.285714,0,0,1,6.85714,11)">
        <rect x="4" y="4" width="14" height="2" style="fill:black;fill-opacity:0.2;"/>
    </g>
    <g transform="matrix(0.285714,0,0,1,1.85714,9)">
        <rect x="4" y="4" width="14" height="2" style="fill:black;fill-opacity:0.6;"/>
    </g>
    <g transform="matrix(0.285714,0,0,1,1.85714,4)">
        <rect x="4" y="4" width="14" height="2" style="fill:black;fill-opacity:0.4;"/>
    </g>
    <g transform="matrix(0.285714,0,0,1,6.85714,6)">
        <rect x="4" y="4" width="14" height="2" style="fill:black;fill-opacity:0.6;"/>
    </g>
    <g transform="matrix(1,0,0,1,-1,-1)">
        <path d="M19,4C19,3.448 18.552,3 18,3C15.127,3 6.873,3 4,3C3.448,3 3,3.448 3,4C3,5.185 3,7 3,7L19,7L19,4ZM18,4L4,4L4,6L18,6L18,4Z" style="fill:black;"/>
    </g>
</svg>
