<?xml version="1.0" encoding="UTF-8" standalone="no"?>
<!DOCTYPE svg PUBLIC "-//W3C//DTD SVG 1.1//EN" "http://www.w3.org/Graphics/SVG/1.1/DTD/svg11.dtd">
<svg width="20px" height="20px" version="1.1" xmlns="http://www.w3.org/2000/svg" xmlns:xlink="http://www.w3.org/1999/xlink" xml:space="preserve" xmlns:serif="http://www.serif.com/" style="fill-rule:evenodd;clip-rule:evenodd;stroke-linejoin:round;stroke-miterlimit:2;">
    <rect x="0" y="0" width="20" height="20" style="fill-opacity:0;"/>
    <g transform="matrix(1,0,0,1,-249,-142)">
        <g transform="matrix(1,0,0,1,0,1)">
            <path d="M265,155C265,154.735 264.895,154.48 264.707,154.293C264.52,154.105 264.265,154 264,154C262.669,154 260.331,154 259,154C258.735,154 258.48,154.105 258.293,154.293C258.105,154.48 258,154.735 258,155C258,155.265 258.105,155.52 258.293,155.707C258.48,155.895 258.735,156 259,156C260.331,156 262.669,156 264,156C264.265,156 264.52,155.895 264.707,155.707C264.895,155.52 265,155.265 265,155Z" style="fill:black;"/>
        </g>
        <g transform="matrix(1,0,0,1,-1,1)">
            <path d="M254.632,147.959L259.239,151.835L254.632,155.718L253.572,154.638L256.956,151.849L253.572,149.039L254.632,147.959Z" style="fill:black;"/>
        </g>
        <g transform="matrix(1,0,0,1,249,142)">
            <path d="M16.5,18.001C16.898,18.001 17.28,17.843 17.56,17.561C17.842,17.279 18,16.898 18,16.5L18,3.5C18,2.672 17.328,1.999 16.5,1.999L3.5,1.999C3.102,1.999 2.72,2.157 2.44,2.439C2.158,2.72 2,3.102 2,3.5L2,16.5C2,16.898 2.158,17.279 2.44,17.561C2.72,17.843 3.102,18.001 3.5,18.001L16.5,18.001ZM17,5L3,5L3,15.985C3,16.25 3.105,16.504 3.293,16.692C3.48,16.88 3.735,16.986 4,16.986L16,16.986C16.265,16.986 16.52,16.88 16.707,16.692C16.895,16.504 17,16.25 17,15.985L17,5ZM17,3.5C17,3.224 16.776,3 16.5,3L14.5,3C14.224,3 14,3.224 14,3.5C14,3.776 14.224,4 14.5,4L16.5,4C16.776,4 17,3.776 17,3.5Z" style="fill:black;"/>
        </g>
    </g>
</svg>
