<?xml version="1.0" encoding="UTF-8" standalone="no"?>
<!DOCTYPE svg PUBLIC "-//W3C//DTD SVG 1.1//EN" "http://www.w3.org/Graphics/SVG/1.1/DTD/svg11.dtd">
<svg width="20px" height="20px" version="1.1" xmlns="http://www.w3.org/2000/svg" xmlns:xlink="http://www.w3.org/1999/xlink" xml:space="preserve" xmlns:serif="http://www.serif.com/" style="fill-rule:evenodd;clip-rule:evenodd;stroke-linejoin:round;stroke-miterlimit:2;">
    <rect x="0" y="0" width="20" height="20" style="fill-opacity:0;"/>
    <g transform="matrix(0.88003,0,0,0.88003,-0.68033,1.02217)">
        <g transform="matrix(1.13632,0,0,1.13632,-1.49957,-2.29784)">
            <path d="M19,13L22,13L22,14L21,14L21,21L14,21L14,14L13,14L13,13L16,13L16,12L19,12L19,13ZM15,14L15,20L20,20L20,14L15,14ZM19,15L18,15L18,19L19,19L19,15ZM17,15L16,15L16,19L17,19L17,15Z" style="fill:black;"/>
        </g>
        <g transform="matrix(1.13632,0,0,1.13632,0.773076,-1.16152)">
            <path d="M11,18.786C10.284,18.565 9.617,18.171 9,17.605C7.485,18.995 5.67,19.346 3.555,18.659C3.378,18.602 3.224,18.49 3.115,18.339C1.808,16.541 1.581,14.706 2.435,12.836C0.645,11.824 -0.25,10.206 -0.25,7.983C-0.25,7.798 -0.191,7.616 -0.082,7.466C1.225,5.667 2.9,4.885 4.943,5.118C5.351,3.103 6.613,1.753 8.728,1.065C8.905,1.008 9.095,1.008 9.272,1.065C11.387,1.753 12.649,3.103 13.057,5.118C15.1,4.885 16.775,5.667 18.082,7.466C18.191,7.616 18.25,7.798 18.25,7.983C18.25,8.722 18.151,9.395 17.953,10L17.003,10C17.248,9.41 17.37,8.738 17.37,7.983C16.096,6.23 14.409,5.619 12.307,6.15C12.164,3.988 11.061,2.572 9,1.902C6.939,2.572 5.836,3.988 5.693,6.15C3.591,5.619 1.904,6.23 0.63,7.983C0.63,10.15 1.637,11.636 3.649,12.441C2.494,14.275 2.554,16.069 3.827,17.822C5.888,18.492 7.613,17.994 9,16.329C9.603,17.053 10.27,17.556 11,17.839L11,18.786ZM10,13.453C9.688,13.567 9.351,13.629 9,13.629C7.385,13.629 6.074,12.317 6.074,10.703C6.074,9.088 7.385,7.776 9,7.776C10.615,7.776 11.926,9.088 11.926,10.703C11.926,10.803 11.921,10.902 11.911,11L11.025,11C11.039,10.903 11.046,10.804 11.046,10.703C11.046,9.573 10.129,8.656 9,8.656C7.871,8.656 6.954,9.573 6.954,10.703C6.954,11.832 7.871,12.749 9,12.749C9.363,12.749 9.704,12.654 10,12.488L10,13.453Z" style="fill:black;"/>
        </g>
    </g>
</svg>
