<?xml version="1.0" encoding="UTF-8" standalone="no"?>
<!DOCTYPE svg PUBLIC "-//W3C//DTD SVG 1.1//EN" "http://www.w3.org/Graphics/SVG/1.1/DTD/svg11.dtd">
<svg width="20px" height="20px" version="1.1" xmlns="http://www.w3.org/2000/svg" xmlns:xlink="http://www.w3.org/1999/xlink" xml:space="preserve" xmlns:serif="http://www.serif.com/" style="fill-rule:evenodd;clip-rule:evenodd;stroke-linejoin:round;stroke-miterlimit:2;">
    <rect x="0" y="0" width="20" height="20" style="fill-opacity:0;"/>
    <g>
        <g>
            <g transform="matrix(1,0,0,1,0,-1)">
                <path d="M8,8C8,7.448 8.448,7 9,7L18,7C18.552,7 19,7.448 19,8L19,17C19,17.547 18.56,17.992 18.015,18L18.002,18L18,17.999L18,18L9,18C8.735,18 8.48,17.895 8.293,17.707C8.105,17.52 8,17.265 8,17L8,14L12,14L12,16L13,16L13,15L14,15L14,14L15,14L15,13L14,13L14,12L13,12L13,11L12,11L12,13L8,13L8,8ZM11,8.5C11,8.224 10.776,8 10.5,8L9.5,8C9.224,8 9,8.224 9,8.5C9,8.776 9.224,9 9.5,9L10.5,9C10.776,9 11,8.776 11,8.5ZM18,8.5C18,8.224 17.776,8 17.5,8L16.5,8C16.224,8 16,8.224 16,8.5C16,8.776 16.224,9 16.5,9L17.5,9C17.776,9 18,8.776 18,8.5ZM14.5,8.5C14.5,8.224 14.276,8 14,8L13,8C12.724,8 12.5,8.224 12.5,8.5C12.5,8.776 12.724,9 13,9L14,9C14.276,9 14.5,8.776 14.5,8.5Z"/>
            </g>
            <path d="M12,5L10.5,5C10.776,5 11,4.776 11,4.5C11,4.224 10.776,4 10.5,4L9.5,4C9.224,4 9,4.224 9,4.5C9,4.776 9.224,5 9.5,5L8,5C7.448,5 7,5.448 7,6L7,12L6,12L6,8L5,8L5,13L7,13L7,13.998L2,14C1.735,14 1.48,13.895 1.293,13.707C1.105,13.52 1,13.265 1,13L1,4C1,3.448 1.448,3 2,3L11,3C11.552,3 12,3.448 12,4L12,5ZM4,4.5C4,4.224 3.776,4 3.5,4L2.5,4C2.224,4 2,4.224 2,4.5C2,4.776 2.224,5 2.5,5L3.5,5C3.776,5 4,4.776 4,4.5ZM7.5,4.5C7.5,4.224 7.276,4 7,4L6,4C5.724,4 5.5,4.224 5.5,4.5C5.5,4.776 5.724,5 6,5L7,5C7.276,5 7.5,4.776 7.5,4.5Z" style="fill-opacity:0.5;"/>
        </g>
    </g>
</svg>
