<?xml version="1.0" encoding="UTF-8" standalone="no"?>
<!DOCTYPE svg PUBLIC "-//W3C//DTD SVG 1.1//EN" "http://www.w3.org/Graphics/SVG/1.1/DTD/svg11.dtd">
<svg width="20px" height="20px" version="1.1" xmlns="http://www.w3.org/2000/svg" xmlns:xlink="http://www.w3.org/1999/xlink" xml:space="preserve" xmlns:serif="http://www.serif.com/" style="fill-rule:evenodd;clip-rule:evenodd;stroke-linejoin:round;stroke-miterlimit:2;">
    <rect x="0" y="0" width="20" height="20" style="fill-opacity:0;"/>
    <g transform="matrix(1,0,0,1,-1,-1)">
        <path d="M9,16L3.5,16C3.224,16 3,15.776 3,15.5L3,3.5C3,3.224 3.224,3 3.5,3L12,3C12.265,3 12.52,3.105 12.707,3.293C12.895,3.48 13,3.735 13,4L13,5L12,5L12,4L4,4L4,15L9,15L9,16Z" style="fill:black;"/>
    </g>
    <g transform="matrix(1,9.958e-17,-9.958e-17,1,-2.00001,-1.00001)">
        <path d="M9,12.999L8.99,12.999C8.462,12.999 7.956,12.79 7.583,12.417C7.21,12.044 7,11.538 7,11.01L7,8L8,8L8,11.045C8,11.573 8.427,12 8.955,12L13,12L13,10L15.5,12.5L13,15L13,13L9,12.999Z" style="fill:black;"/>
    </g>
    <path d="M18,17.083C18,17.589 17.602,18 17.111,18L8.889,18C8.398,18 8,17.589 8,17.083L8,12.999L10,13L10,14C10,14.404 10.244,14.769 10.617,14.924C10.991,15.079 11.421,14.993 11.707,14.707L14.207,12.207C14.598,11.817 14.598,11.183 14.207,10.793L11.707,8.293C11.421,8.007 10.991,7.921 10.617,8.076C10.244,8.231 10,8.596 10,9L10,10L8,10L8,5.917C8,5.411 8.398,5 8.889,5L15,5L18,8L18,17.083ZM14,6L17,9L14,9L14,6Z" style="fill:black;"/>
</svg>
