<?xml version="1.0" encoding="UTF-8" standalone="no"?>
<!DOCTYPE svg PUBLIC "-//W3C//DTD SVG 1.1//EN" "http://www.w3.org/Graphics/SVG/1.1/DTD/svg11.dtd">
<svg width="20px" height="20px" version="1.1" xmlns="http://www.w3.org/2000/svg" xmlns:xlink="http://www.w3.org/1999/xlink" xml:space="preserve" xmlns:serif="http://www.serif.com/" style="fill-rule:evenodd;clip-rule:evenodd;stroke-linejoin:round;stroke-miterlimit:2;">
    <g transform="matrix(1,0,0,1,-10,-370)">
        <g id="eraser_normal">
            <g transform="matrix(1,0,0,1,0,360)">
                <rect x="10" y="10" width="20" height="20" style="fill-opacity:0;"/>
            </g>
            <g transform="matrix(1,0,0,1,-0.100776,39)">
                <path d="M25.511,340.321C25.297,340.378 25.099,340.493 24.939,340.657C24.939,340.657 18.459,347.346 18.459,347.346C18.228,347.585 18.097,347.909 18.101,348.247C18.103,348.585 18.238,348.907 18.474,349.142L20.191,350.853C20.284,350.947 20.411,350.999 20.544,350.999L21.075,351C21.082,351 21.088,351 21.095,351L29.539,351C29.661,351 29.779,350.947 29.865,350.854C29.951,350.76 30,350.633 30,350.5C30,350.367 29.951,350.24 29.865,350.146C29.779,350.053 29.661,350 29.539,350L24.976,350C26.139,348.731 28.327,346.346 29.405,345.179C29.406,345.179 29.406,345.179 29.406,345.179C29.863,344.683 29.853,343.903 29.385,343.42C29.385,343.42 26.708,340.657 26.708,340.657C26.518,340.461 26.273,340.335 26.01,340.295C25.942,340.239 25.857,340.209 25.768,340.21C25.671,340.212 25.579,340.252 25.511,340.321ZM22.78,344.323L25.908,347.504C24.9,348.602 23.971,349.616 23.619,350C23.619,350 20.751,350 20.751,350C20.439,349.689 19.697,348.949 19.18,348.434C19.129,348.383 19.101,348.313 19.101,348.24C19.101,348.239 19.101,348.238 19.101,348.237C19.1,348.164 19.127,348.094 19.177,348.042L22.78,344.323Z"/>
            </g>
            <g transform="matrix(0.69174,-0.297954,0.351032,0.814971,-15.7059,359.817)">
                <path d="M26,22L32.6,35L27.5,32.936L27.5,39L24.5,39L24.5,32.936L19.4,35L26,22Z"/>
            </g>
        </g>
    </g>
</svg>
