<?xml version="1.0" encoding="UTF-8" standalone="no"?>
<!DOCTYPE svg PUBLIC "-//W3C//DTD SVG 1.1//EN" "http://www.w3.org/Graphics/SVG/1.1/DTD/svg11.dtd">
<svg width="100%" height="100%" viewBox="0 0 20 20" version="1.1" xmlns="http://www.w3.org/2000/svg" xmlns:xlink="http://www.w3.org/1999/xlink" xml:space="preserve" xmlns:serif="http://www.serif.com/" style="fill-rule:evenodd;clip-rule:evenodd;stroke-linejoin:round;stroke-miterlimit:2;">
    <g id="eraser_polyline">
        <rect x="0" y="0" width="20" height="20" style="fill-opacity:0;"/>
        <path d="M15.36,9.321c-0.214,0.057 -0.412,0.172 -0.572,0.336c0,0 -6.48,6.689 -6.48,6.689c-0.231,0.239 -0.362,0.563 -0.358,0.901c0.002,0.338 0.137,0.66 0.373,0.895l1.717,1.711c0.093,0.094 0.22,0.146 0.353,0.146l0.531,0.001c0.007,-0 0.013,0 0.019,0l8.445,0c0.122,0 0.24,-0.053 0.326,-0.146c0.085,-0.094 0.135,-0.221 0.135,-0.354c-0,-0.133 -0.05,-0.26 -0.135,-0.354c-0.086,-0.093 -0.204,-0.146 -0.326,-0.146l-4.564,0c1.164,-1.269 3.352,-3.654 4.43,-4.821c0,0 0.001,-0 0.001,-0c0.456,-0.496 0.447,-1.276 -0.021,-1.759c0,0 -2.677,-2.763 -2.677,-2.763c-0.19,-0.196 -0.435,-0.322 -0.699,-0.362c-0.133,-0.019 -0.359,-0.012 -0.498,0.026Zm-2.731,4.002l3.128,3.181c-1.008,1.098 -1.937,2.112 -2.289,2.496c-0,-0 -2.869,-0 -2.869,-0c-0.311,-0.311 -1.053,-1.051 -1.57,-1.566c-0.051,-0.051 -0.079,-0.121 -0.079,-0.194c-0,-0.001 -0,-0.002 -0,-0.003c-0.001,-0.073 0.026,-0.143 0.076,-0.195l3.603,-3.719Z"/>
        <path d="M15,1.734l-0.534,0.533c-0.195,0.195 -0.512,0.195 -0.707,0c-0.195,-0.195 -0.195,-0.512 0,-0.707l1.304,-1.304c0.086,-0.153 0.25,-0.256 0.437,-0.256c0.276,-0 0.5,0.224 0.5,0.5c0,0.017 0,0.035 -0,0.052l0,1.948c0,0.276 -0.224,0.5 -0.5,0.5c-0.276,-0 -0.5,-0.224 -0.5,-0.5l0,-0.766Zm1,3.766l0,2c0,0.276 -0.224,0.5 -0.5,0.5c-0.276,0 -0.5,-0.224 -0.5,-0.5l0,-2c0,-0.276 0.224,-0.5 0.5,-0.5c0.276,0 0.5,0.224 0.5,0.5Zm-10.782,8.448l-1.44,0.42c-0.252,0.074 -0.518,-0.061 -0.609,-0.307c0,0 -0.063,-0.172 -0.173,-0.469c-0.095,-0.259 0.037,-0.547 0.296,-0.642c0.259,-0.096 0.547,0.037 0.642,0.296l0.012,0.031l0.992,-0.289c0.265,-0.077 0.543,0.075 0.62,0.34c0.077,0.265 -0.075,0.543 -0.34,0.62Zm1.64,-1.52l1.92,-0.56c0.265,-0.077 0.543,0.075 0.62,0.34c0.077,0.265 -0.075,0.543 -0.34,0.62l-1.92,0.56c-0.265,0.077 -0.543,-0.075 -0.62,-0.34c-0.077,-0.265 0.075,-0.543 0.34,-0.62Zm-5.245,-2.59c-0.095,-0.259 0.038,-0.546 0.296,-0.642c0.259,-0.095 0.547,0.038 0.643,0.297l0.691,1.876c0.095,0.259 -0.037,0.547 -0.296,0.642c-0.259,0.096 -0.547,-0.037 -0.642,-0.296l-0.692,-1.877Zm-0.691,-1.876l-0.692,-1.877c-0.095,-0.259 0.038,-0.547 0.297,-0.642c0.259,-0.095 0.546,0.037 0.642,0.296l0.691,1.877c0.095,0.259 -0.037,0.547 -0.296,0.642c-0.259,0.095 -0.547,-0.037 -0.642,-0.296Zm9.301,-1.452l-0.731,0.732c-0.128,0.127 -0.314,0.176 -0.488,0.128c0,0 -0.357,-0.1 -0.93,-0.259c-0.266,-0.073 -0.421,-0.349 -0.348,-0.615c0.074,-0.266 0.35,-0.422 0.616,-0.348l0.649,0.18l0.525,-0.525c0.195,-0.196 0.512,-0.196 0.707,0c0.196,0.195 0.196,0.512 0,0.707Zm-4.076,0.066l-1.927,-0.535c-0.266,-0.074 -0.421,-0.35 -0.348,-0.616c0.074,-0.266 0.35,-0.421 0.616,-0.348l1.927,0.536c0.266,0.074 0.422,0.349 0.348,0.615c-0.074,0.266 -0.35,0.422 -0.616,0.348Zm-3.854,-1.07l-1.927,-0.536c-0.266,-0.074 -0.422,-0.349 -0.348,-0.615c0.074,-0.266 0.35,-0.422 0.616,-0.348l1.927,0.535c0.266,0.074 0.422,0.35 0.348,0.616c-0.074,0.266 -0.35,0.421 -0.616,0.348Zm8.638,-1.118l1.414,-1.414c0.195,-0.195 0.512,-0.195 0.707,0c0.195,0.195 0.195,0.512 0,0.707l-1.414,1.414c-0.196,0.196 -0.512,0.196 -0.707,0c-0.196,-0.195 -0.196,-0.511 0,-0.707Z"/>
    </g>
</svg>
