<?xml version="1.0" encoding="UTF-8" standalone="no"?>
<!DOCTYPE svg PUBLIC "-//W3C//DTD SVG 1.1//EN" "http://www.w3.org/Graphics/SVG/1.1/DTD/svg11.dtd">
<svg width="100%" height="100%" viewBox="0 0 20 20" version="1.1" xmlns="http://www.w3.org/2000/svg" xmlns:xlink="http://www.w3.org/1999/xlink" xml:space="preserve" xmlns:serif="http://www.serif.com/" style="fill-rule:evenodd;clip-rule:evenodd;stroke-linecap:round;stroke-linejoin:round;stroke-miterlimit:1.5;">
    <g id="type_erase_segment">
        <rect x="-0.028" y="0" width="20" height="20" style="fill-opacity:0;"/>
        <rect x="14" y="16" width="1.972" height="4"/>
        <path d="M20,15l-3,0l0,-2l3,0l-0,2Z"/>
        <path d="M12.986,15l-11.014,0l0,-2l11.014,0l0,2Z" style="fill:url(#_Linear1);"/>
        <rect x="14" y="2" width="1.972" height="10" style="fill:url(#_Linear2);"/>
        <path d="M16.986,12l0,4l-4,0l0,-4l4,0Zm-1,1l-2,-0l0,2l2,0l0,-2Z"/>
        <path d="M12.028,10.5c-0,-0.133 -0.042,-0.26 -0.115,-0.354c-0.073,-0.093 -0.173,-0.146 -0.277,-0.146l-8.216,0c-0.104,0 -0.204,0.053 -0.278,0.146c-0.072,0.094 -0.114,0.221 -0.114,0.354c-0,0.133 0.042,0.26 0.114,0.354c0.074,0.093 0.174,0.146 0.278,0.146l8.216,0c0.104,0 0.204,-0.053 0.277,-0.146c0.073,-0.094 0.115,-0.221 0.115,-0.354Zm8,0c-0,-0.133 -0.041,-0.26 -0.114,-0.354c-0.074,-0.093 -0.174,-0.146 -0.278,-0.146l-1.215,0c-0.105,0 -0.204,0.053 -0.278,0.146c-0.073,0.094 -0.115,0.221 -0.115,0.354c-0,0.133 0.042,0.26 0.115,0.354c0.074,0.093 0.173,0.146 0.278,0.146l1.215,0c0.104,0 0.204,-0.053 0.278,-0.146c0.073,-0.094 0.114,-0.221 0.114,-0.354Z"/>
        <path d="M11.512,4.737c0.293,-0.308 0.287,-0.792 -0.013,-1.092l-2.812,-2.813c-0.147,-0.146 -0.346,-0.228 -0.553,-0.228c-0.207,-0 -0.405,0.082 -0.552,0.228l-6.81,6.811c-0.148,0.148 -0.231,0.349 -0.229,0.559c0.002,0.209 0.087,0.409 0.238,0.555c0.704,0.679 1.804,1.742 1.804,1.742l3.463,0.001c0,-0 3.877,-4.099 5.464,-5.763Z" style="fill:none;stroke:#000;stroke-width:1px;"/>
        <path d="M11.472,4.221l-3.619,-3.517l-3.124,3.253l3.585,3.533l3.158,-3.269Z" style="stroke:#000;stroke-width:0.75px;"/>
    </g>
    <defs>
        <linearGradient id="_Linear1" x1="0" y1="0" x2="1" y2="0" gradientUnits="userSpaceOnUse" gradientTransform="matrix(-10.9884,1.40764e-15,-1.40764e-15,-12,12.9861,14)"><stop offset="0" style="stop-color:#000;stop-opacity:1"/><stop offset="1" style="stop-color:#000;stop-opacity:0"/></linearGradient>
        <linearGradient id="_Linear2" x1="0" y1="0" x2="1" y2="0" gradientUnits="userSpaceOnUse" gradientTransform="matrix(6.73556e-16,-10,11,6.12323e-16,15,12)"><stop offset="0" style="stop-color:#000;stop-opacity:1"/><stop offset="1" style="stop-color:#000;stop-opacity:0"/></linearGradient>
    </defs>
</svg>
