<?xml version="1.0" encoding="UTF-8" standalone="no"?>
<!DOCTYPE svg PUBLIC "-//W3C//DTD SVG 1.1//EN" "http://www.w3.org/Graphics/SVG/1.1/DTD/svg11.dtd">
<svg width="20px" height="20px" version="1.1" xmlns="http://www.w3.org/2000/svg" xmlns:xlink="http://www.w3.org/1999/xlink" xml:space="preserve" xmlns:serif="http://www.serif.com/" style="fill-rule:evenodd;clip-rule:evenodd;stroke-linejoin:round;stroke-miterlimit:2;">
    <g transform="matrix(1,0,0,1,-10,-430)">
        <g id="eraser_polyline" transform="matrix(1,0,0,1,-0.100776,0)">
            <g transform="matrix(1,0,0,1,0.100776,420)">
                <rect x="10" y="10" width="20" height="20" style="fill-opacity:0;"/>
            </g>
            <g transform="matrix(1,0,0,1,-0.0503878,99)">
                <path d="M25.511,340.321C25.297,340.378 25.099,340.493 24.939,340.657C24.939,340.657 18.459,347.346 18.459,347.346C18.228,347.585 18.097,347.909 18.101,348.247C18.103,348.585 18.238,348.907 18.474,349.142L20.191,350.853C20.284,350.947 20.411,350.999 20.544,350.999L21.075,351C21.082,351 21.088,351 21.095,351L29.539,351C29.661,351 29.779,350.947 29.865,350.854C29.951,350.76 30,350.633 30,350.5C30,350.367 29.951,350.24 29.865,350.146C29.779,350.053 29.661,350 29.539,350L24.976,350C26.139,348.731 28.327,346.346 29.405,345.179C29.406,345.179 29.406,345.179 29.406,345.179C29.863,344.683 29.853,343.903 29.385,343.42C29.385,343.42 26.708,340.657 26.708,340.657C26.518,340.461 26.273,340.335 26.01,340.295C25.942,340.239 25.857,340.209 25.768,340.21C25.671,340.212 25.579,340.252 25.511,340.321ZM22.78,344.323L25.908,347.504C24.9,348.602 23.971,349.616 23.619,350C23.619,350 20.751,350 20.751,350C20.439,349.689 19.697,348.949 19.18,348.434C19.129,348.383 19.101,348.313 19.101,348.24C19.101,348.239 19.101,348.238 19.101,348.237C19.1,348.164 19.127,348.094 19.177,348.042L22.78,344.323Z"/>
            </g>
            <g transform="matrix(1,0,0,1,-29.8992,0)">
                <path d="M45.218,443.948L43.778,444.368C43.526,444.442 43.26,444.307 43.169,444.061C43.169,444.061 43.106,443.889 42.996,443.592C42.901,443.333 43.033,443.045 43.292,442.95C43.551,442.854 43.839,442.987 43.934,443.246L43.946,443.277L44.938,442.988C45.203,442.911 45.481,443.063 45.558,443.328C45.635,443.593 45.483,443.871 45.218,443.948ZM46.858,442.428L48.778,441.868C49.043,441.791 49.321,441.943 49.398,442.208C49.475,442.473 49.323,442.751 49.058,442.828L47.138,443.388C46.873,443.465 46.595,443.313 46.518,443.048C46.441,442.783 46.593,442.505 46.858,442.428ZM41.613,439.838C41.518,439.579 41.651,439.292 41.909,439.196C42.168,439.101 42.456,439.234 42.552,439.493L43.243,441.369C43.338,441.628 43.206,441.916 42.947,442.011C42.688,442.107 42.4,441.974 42.305,441.715L41.613,439.838ZM51.258,441.145L50.401,442.03C50.383,441.999 50.369,441.964 50.358,441.928C50.281,441.663 50.433,441.385 50.698,441.308L51.258,441.145ZM40.922,437.962L40.23,436.085C40.135,435.826 40.268,435.538 40.527,435.443C40.786,435.348 41.073,435.48 41.169,435.739L41.86,437.616C41.955,437.875 41.823,438.163 41.564,438.258C41.305,438.353 41.017,438.221 40.922,437.962ZM55.284,437.741C55.194,437.651 55.138,437.526 55.138,437.388L55.138,435.388C55.138,435.112 55.362,434.888 55.638,434.888C55.914,434.888 56.138,435.112 56.138,435.388L56.138,437.388C56.138,437.528 56.081,437.655 55.988,437.746C55.859,437.72 55.726,437.708 55.591,437.711C55.488,437.712 55.385,437.723 55.284,437.741ZM50.223,436.51L49.492,437.242C49.364,437.369 49.178,437.418 49.004,437.37C49.004,437.37 48.647,437.27 48.074,437.111C47.808,437.038 47.653,436.762 47.726,436.496C47.8,436.23 48.076,436.074 48.342,436.148L48.991,436.328L49.516,435.803C49.711,435.607 50.028,435.607 50.223,435.803C50.419,435.998 50.419,436.315 50.223,436.51ZM46.147,436.576L44.22,436.041C43.954,435.967 43.799,435.691 43.872,435.425C43.946,435.159 44.222,435.004 44.488,435.077L46.415,435.613C46.681,435.687 46.837,435.962 46.763,436.228C46.689,436.494 46.413,436.65 46.147,436.576ZM42.293,435.506L40.366,434.97C40.1,434.896 39.944,434.621 40.018,434.355C40.092,434.089 40.368,433.933 40.634,434.007L42.561,434.542C42.827,434.616 42.983,434.892 42.909,435.158C42.835,435.424 42.559,435.579 42.293,435.506ZM50.931,434.388L52.345,432.974C52.54,432.779 52.857,432.779 53.052,432.974C53.247,433.169 53.247,433.486 53.052,433.681L51.638,435.095C51.442,435.291 51.126,435.291 50.931,435.095C50.735,434.9 50.735,434.584 50.931,434.388ZM53.759,431.56L55.173,430.146C55.368,429.951 55.685,429.951 55.88,430.146C56.075,430.341 56.075,430.658 55.88,430.853L55.813,430.92C56.003,430.991 56.138,431.174 56.138,431.388L56.138,433.388C56.138,433.664 55.914,433.888 55.638,433.888C55.362,433.888 55.138,433.664 55.138,433.388L55.138,431.595L54.466,432.267C54.271,432.462 53.954,432.462 53.759,432.267C53.564,432.072 53.564,431.755 53.759,431.56Z"/>
            </g>
        </g>
    </g>
</svg>
