<?xml version="1.0" encoding="UTF-8" standalone="no"?>
<!DOCTYPE svg PUBLIC "-//W3C//DTD SVG 1.1//EN" "http://www.w3.org/Graphics/SVG/1.1/DTD/svg11.dtd">
<svg width="20px" height="20px" version="1.1" xmlns="http://www.w3.org/2000/svg" xmlns:xlink="http://www.w3.org/1999/xlink" xml:space="preserve" xmlns:serif="http://www.serif.com/" style="fill-rule:evenodd;clip-rule:evenodd;stroke-linejoin:round;stroke-miterlimit:2;">
    <rect x="0" y="0" width="20" height="20" style="fill-opacity:0;"/>
    <g transform="matrix(1,0,0,-1,6,18)">
        <g>
            <g transform="matrix(1,0,0,-1,-6,18)">
                <path d="M19,19L19,16.5C19,16.224 19.224,16 19.5,16C19.776,16 20,16.224 20,16.5L20,19.5C20,19.776 19.776,20 19.5,20L11.5,20C11.224,20 11,19.776 11,19.5L11,16.5C11,16.224 11.224,16 11.5,16C11.776,16 12,16.224 12,16.5L12,19L19,19ZM15,11.707L15,17.5C15,17.776 15.224,18 15.5,18C15.776,18 16,17.776 16,17.5L16,11.707L18.146,13.854C18.342,14.049 18.658,14.049 18.854,13.854C19.049,13.658 19.049,13.342 18.854,13.146L15.815,10.112L15.796,10.097C15.763,10.073 15.728,10.053 15.692,10.038L15.691,10.038C15.632,10.013 15.567,10 15.5,10C15.433,10 15.368,10.013 15.309,10.038L15.308,10.038C15.249,10.063 15.194,10.099 15.146,10.146L12.146,13.146C11.951,13.342 11.951,13.658 12.146,13.854C12.342,14.049 12.658,14.049 12.854,13.854L15,11.707Z" style="fill:black;"/>
            </g>
            <g transform="matrix(1,0,0,-1,-6,18)">
                <path d="M11,15.085C10.418,15.292 10,15.847 10,16.5L10,18L4.5,18C3.672,18 3,17.328 3,16.5L3,3.5C3,2.672 3.672,2 4.5,2L13,2L17,6L17,9.882L16.522,9.404L16.384,9.288C16.287,9.217 16.183,9.159 16.077,9.115C16.06,9.108 16.043,9.102 16.027,9.096C15.862,9.033 15.684,9 15.5,9C15.316,9 15.137,9.034 14.971,9.096C14.953,9.103 14.936,9.11 14.918,9.117C14.746,9.19 14.586,9.295 14.446,9.431L11.437,12.441C11.135,12.744 10.989,13.144 11,13.54L11,15.085ZM12,3L16,7L12,7L12,3Z" style="fill:black;"/>
            </g>
        </g>
    </g>
</svg>
