<?xml version="1.0" encoding="UTF-8" standalone="no"?>
<!DOCTYPE svg PUBLIC "-//W3C//DTD SVG 1.1//EN" "http://www.w3.org/Graphics/SVG/1.1/DTD/svg11.dtd">
<svg width="20px" height="20px" version="1.1" xmlns="http://www.w3.org/2000/svg" xmlns:xlink="http://www.w3.org/1999/xlink" xml:space="preserve" xmlns:serif="http://www.serif.com/" style="fill-rule:evenodd;clip-rule:evenodd;stroke-linejoin:round;stroke-miterlimit:2;">
    <rect x="0" y="0" width="20" height="20" style="fill-opacity:0;"/>
    <path d="M8,17.5L8,19.5C8,19.776 7.776,20 7.5,20C7.224,20 7,19.776 7,19.5L7,15.5C7,15.26 7.17,15.054 7.405,15.009C7.641,14.964 7.875,15.092 7.964,15.314L9.5,18L11.036,15.314C11.125,15.092 11.359,14.964 11.595,15.009C11.83,15.054 12,15.26 12,15.5L12,19.5C12,19.776 11.776,20 11.5,20C11.224,20 11,19.776 11,19.5L11,17.499L9.964,19.686C9.888,19.876 9.704,20 9.5,20C9.296,20 9.112,19.876 9.036,19.686L8,17.5ZM13.01,15.399C13.057,15.171 13.259,15 13.5,15L15.5,15C15.776,15 16,15.224 16,15.5L16,17.5C16,17.776 15.776,18 15.5,18L14,18L14,19.5C14,19.776 13.776,20 13.5,20C13.224,20 13,19.776 13,19.5L13.003,15.448L13.01,15.399ZM19,17L19,15.5C19,15.224 19.224,15 19.5,15C19.776,15 20,15.224 20,15.5L20,19.5L19.994,19.576L19.97,19.672L19.928,19.759L19.87,19.836L19.799,19.901L19.717,19.951L19.625,19.984L19.551,19.997L19.474,19.999L19.399,19.99L19.305,19.961L19.22,19.915L19.146,19.854L19.085,19.78L19.039,19.695L19.01,19.601L19.001,19.526L19,18L17.5,18C17.224,18 17,17.776 17,17.5L17,15.5C17,15.224 17.224,15 17.5,15C17.776,15 18,15.224 18,15.5L18,17L19,17ZM14,17L15,17L15,16L14,16L14,17Z" style="fill:black;"/>
    <path d="M7,15.489C7.005,15.254 7.174,15.053 7.405,15.009C7.641,14.964 7.875,15.092 7.964,15.314L8.356,16L7.4,16C7.179,16 7,15.776 7,15.5L7,15.489ZM10.644,16L11.036,15.314C11.125,15.092 11.359,14.964 11.595,15.009C11.83,15.054 12,15.26 12,15.5L12,16L10.644,16ZM6.405,14.474C6.078,14.136 5.798,13.751 5.576,13.332C5.156,13.112 4.439,12.614 3.5,11.5C2.844,10.722 2,8 2,8L1,7L3,7L5.298,9.298C5.632,8.375 6.23,7.579 7.001,7L12.999,7C13.211,7.159 13.409,7.334 13.593,7.524C13.996,7.251 14.606,6.995 15.475,6.992C16.659,6.988 17.268,7.374 17.608,7.861C18.079,8.534 17.992,9.463 17.997,9.823C18.017,11.234 16.624,12.518 15.829,12.838C15.485,12.976 14.954,13.015 14.573,13.023C14.419,13.371 14.226,13.699 13.999,14L13.5,14C13.116,14 12.766,14.144 12.5,14.382C12.303,14.205 12.058,14.079 11.783,14.027C11.105,13.898 10.435,14.245 10.145,14.858L9.5,15.986L8.855,14.858C8.565,14.245 7.895,13.898 7.218,14.027C6.897,14.088 6.616,14.249 6.405,14.474ZM14.948,11.724C15.093,11.708 15.234,11.68 15.344,11.632C15.873,11.4 16.608,10.64 16.686,9.805C16.7,9.651 16.727,9.358 16.689,9.043C16.666,8.85 16.614,8.635 16.431,8.485C16.236,8.326 15.93,8.249 15.473,8.251C14.949,8.253 14.589,8.408 14.363,8.557C14.769,9.28 15,10.113 15,11C15,11.246 14.982,11.488 14.948,11.724ZM9.027,4.231C9.009,4.157 9,4.079 9,4C9,3.448 9.448,3 10,3C10.552,3 11,3.448 11,4C11,4.079 10.991,4.157 10.973,4.231C11.759,4.526 12.571,5 12.571,5C12.802,5.145 13,5.224 13,5.5C13,5.776 12.808,6 12.571,6L7.429,6C7.192,6 7,5.776 7,5.5C7,5.224 7.194,5.14 7.429,5C7.429,5 8.241,4.526 9.027,4.231Z" style="fill:black;"/>
</svg>
