<?xml version="1.0" encoding="UTF-8" standalone="no"?>
<!DOCTYPE svg PUBLIC "-//W3C//DTD SVG 1.1//EN" "http://www.w3.org/Graphics/SVG/1.1/DTD/svg11.dtd">
<svg width="20px" height="20px" version="1.1" xmlns="http://www.w3.org/2000/svg" xmlns:xlink="http://www.w3.org/1999/xlink" xml:space="preserve" xmlns:serif="http://www.serif.com/" style="fill-rule:evenodd;clip-rule:evenodd;stroke-linejoin:round;stroke-miterlimit:2;">
    <rect x="0" y="0" width="20" height="20" style="fill-opacity:0;"/>
    <path d="M8,17.5L8,19.5C8,19.776 7.776,20 7.5,20C7.224,20 7,19.776 7,19.5L7,15.5C7,15.26 7.17,15.054 7.405,15.009C7.641,14.964 7.875,15.092 7.964,15.314L9.5,18L11.036,15.314C11.125,15.092 11.359,14.964 11.595,15.009C11.83,15.054 12,15.26 12,15.5L12,19.5C12,19.776 11.776,20 11.5,20C11.224,20 11,19.776 11,19.5L11,17.499L9.964,19.686C9.888,19.876 9.704,20 9.5,20C9.296,20 9.112,19.876 9.036,19.686L8,17.5ZM13.01,15.399C13.057,15.171 13.259,15 13.5,15L15.5,15C15.776,15 16,15.224 16,15.5L16,17.5C16,17.776 15.776,18 15.5,18L14,18L14,19.5C14,19.776 13.776,20 13.5,20C13.224,20 13,19.776 13,19.5L13.003,15.448L13.01,15.399ZM19,17L19,15.5C19,15.224 19.224,15 19.5,15C19.776,15 20,15.224 20,15.5L20,19.5L19.994,19.576L19.97,19.672L19.928,19.759L19.87,19.836L19.799,19.901L19.717,19.951L19.625,19.984L19.551,19.997L19.474,19.999L19.399,19.99L19.305,19.961L19.22,19.915L19.146,19.854L19.085,19.78L19.039,19.695L19.01,19.601L19.001,19.526L19,18L17.5,18C17.224,18 17,17.776 17,17.5L17,15.5C17,15.224 17.224,15 17.5,15C17.776,15 18,15.224 18,15.5L18,17L19,17ZM14,17L15,17L15,16L14,16L14,17Z"/>
    <path d="M13.002,17L13.003,15.448L13.01,15.399C13.057,15.171 13.259,15 13.5,15L15.5,15C15.776,15 16,15.224 16,15.5L16,17L13.002,17ZM10.072,17L11.036,15.314C11.125,15.092 11.359,14.964 11.595,15.009C11.83,15.054 12,15.26 12,15.5L12,17L10.072,17ZM7,17L7,15.5C7,15.26 7.17,15.054 7.405,15.009C7.641,14.964 7.875,15.092 7.964,15.314L8.928,17L7,17ZM18,14.085C17.844,14.03 17.675,14 17.5,14C17.116,14 16.765,14.145 16.5,14.383C16.235,14.145 15.884,14 15.5,14L13.5,14C13.116,14 12.766,14.144 12.5,14.382C12.303,14.205 12.058,14.079 11.783,14.027C11.105,13.898 10.435,14.245 10.145,14.858L9.5,15.986L8.855,14.858C8.845,14.836 8.833,14.813 8.822,14.792L9.438,13.438L11.5,12.5L9.438,11.563L8.5,9.5L7.563,11.563L5.5,12.5L7.563,13.438L7.835,14.038C7.638,13.992 7.428,13.987 7.218,14.027C6.511,14.162 6,14.779 6,15.5L6,17L3,17C2.448,17 2,16.552 2,16L2,7L18,7L18,14.085ZM14,17L15,17L15,16L14,16L14,17ZM17,17L17,15.5C17,15.224 17.224,15 17.5,15C17.776,15 18,15.224 18,15.5L18,16C18,16.552 17.552,17 17,17ZM13.705,10.955L13,12.5L12.295,10.955L10.75,10.25L12.295,9.545L13,8L13.705,9.545L15.25,10.25L13.705,10.955ZM3.814,3L4.886,6L2,6L2,4C2,3.735 2.105,3.48 2.293,3.293C2.48,3.105 2.735,3 3,3L3.814,3ZM14.885,3L18,3L18,6L15.956,6L14.885,3ZM9.386,6L6.956,6L5.885,3L8.314,3L9.386,6ZM13.886,6L11.456,6L10.385,3L12.814,3L13.886,6Z"/>
</svg>
