<?xml version="1.0" encoding="UTF-8" standalone="no"?>
<!DOCTYPE svg PUBLIC "-//W3C//DTD SVG 1.1//EN" "http://www.w3.org/Graphics/SVG/1.1/DTD/svg11.dtd">
<svg width="20px" height="20px" version="1.1" xmlns="http://www.w3.org/2000/svg" xmlns:xlink="http://www.w3.org/1999/xlink" xml:space="preserve" xmlns:serif="http://www.serif.com/" style="fill-rule:evenodd;clip-rule:evenodd;stroke-linejoin:round;stroke-miterlimit:2;">
    <g transform="matrix(0.818182,0,0,0.818182,1,1)">
        <rect x="0" y="0" width="22" height="22" style="fill:rgb(51,51,51);fill-opacity:0;"/>
    </g>
    <g transform="matrix(1,0,0,1,1,0)">
        <g transform="matrix(1,0,0,1,1,0)">
            <path d="M0,7L0,3L6,3L8,5L16,5L16,7L0,7Z"/>
        </g>
        <g transform="matrix(1,0,0,1,2.22045e-16,1)">
            <path d="M4,16L1,16L1,7L17,7L17,16L14,16L14,10L4,10L4,16ZM11,16L7,16L7,12L11,12L11,16Z"/>
        </g>
    </g>
</svg>
