<?xml version="1.0" encoding="UTF-8" standalone="no"?>
<!DOCTYPE svg PUBLIC "-//W3C//DTD SVG 1.1//EN" "http://www.w3.org/Graphics/SVG/1.1/DTD/svg11.dtd">
<svg width="20px" height="20px" version="1.1" xmlns="http://www.w3.org/2000/svg" xmlns:xlink="http://www.w3.org/1999/xlink" xml:space="preserve" xmlns:serif="http://www.serif.com/" style="fill-rule:evenodd;clip-rule:evenodd;stroke-linejoin:round;stroke-miterlimit:2;">
    <g transform="matrix(1,0,0,1,-10,-610)">
        <g id="fill_mode_lines" transform="matrix(1,0,0,1,7.10543e-15,30)">
            <g transform="matrix(1,0,0,1,0,570)">
                <rect x="10" y="10" width="20" height="20" style="fill-opacity:0;"/>
            </g>
            <g transform="matrix(-1,0,0,1,31.013,585.309)">
                <path d="M4.72,5.099L2.316,2.695C2.072,2.451 2.072,2.055 2.316,1.812C2.559,1.568 2.955,1.568 3.199,1.812L5.604,4.216L7.493,2.327C7.656,2.164 7.919,2.164 8.082,2.327L13.376,7.621L13.373,7.614C14.686,9.071 16,10.82 16,12.193C16,13.112 15.254,13.858 14.335,13.858C13.416,13.858 12.67,13.112 12.67,12.193C12.67,10.899 14.017,10.011 13.492,7.997C13.476,8.075 13.438,8.15 13.377,8.211L7.264,14.325C7.029,14.559 6.712,14.691 6.38,14.691C6.049,14.69 5.732,14.559 5.498,14.325L1.38,10.207C1.145,9.972 1.014,9.655 1.013,9.324C1.013,8.992 1.145,8.675 1.379,8.441L4.72,5.099ZM6.192,4.805L7.283,5.896C7.527,6.14 7.527,6.536 7.284,6.78C7.04,7.023 6.644,7.023 6.4,6.779L5.309,5.688L3.306,7.691L12.269,7.691L7.787,3.21L6.192,4.805Z"/>
            </g>
            <g transform="matrix(1,0,0,1,-30,0)">
                <path d="M45.79,595.316C45.835,595.376 45.884,595.434 45.939,595.489L46.382,595.932C46.065,596.002 45.738,596.036 45.4,596.034C45.511,595.797 45.643,595.557 45.79,595.316ZM43.87,595.799C43.795,595.778 43.72,595.754 43.644,595.73C43.486,595.679 43.349,595.579 43.251,595.445C42.086,593.841 41.883,592.204 42.645,590.536C41.048,589.634 40.25,588.191 40.25,586.208C40.25,586.043 40.303,585.881 40.4,585.747C41.565,584.142 43.059,583.445 44.882,583.653C45.246,581.856 46.371,580.651 48.257,580.038C48.415,579.987 48.585,579.987 48.743,580.038C50.629,580.651 51.754,581.856 52.118,583.653C53.941,583.445 55.435,584.142 56.6,585.747C56.671,585.845 56.718,585.957 56.739,586.075L55.925,586.888C55.952,586.671 55.965,586.444 55.965,586.208C54.829,584.645 53.324,584.099 51.45,584.573C51.322,582.645 50.338,581.382 48.5,580.785C46.662,581.382 45.678,582.645 45.55,584.573C43.676,584.099 42.171,584.645 41.035,586.208C41.035,588.141 41.933,589.466 43.727,590.185C42.697,591.82 42.751,593.42 43.886,594.983C43.992,595.018 44.097,595.049 44.201,595.076C44.074,595.319 43.963,595.561 43.87,595.799ZM47.431,591.015L48.045,590.401C47.258,590.199 46.675,589.483 46.675,588.634C46.675,587.627 47.493,586.809 48.5,586.809C49.35,586.809 50.065,587.391 50.267,588.178L50.881,587.565C50.472,586.657 49.56,586.024 48.5,586.024C47.06,586.024 45.89,587.193 45.89,588.634C45.89,589.693 46.523,590.606 47.431,591.015Z"/>
            </g>
        </g>
    </g>
</svg>
