<?xml version="1.0" encoding="UTF-8" standalone="no"?>
<!DOCTYPE svg PUBLIC "-//W3C//DTD SVG 1.1//EN" "http://www.w3.org/Graphics/SVG/1.1/DTD/svg11.dtd">
<svg width="20px" height="20px" version="1.1" xmlns="http://www.w3.org/2000/svg" xmlns:xlink="http://www.w3.org/1999/xlink" xml:space="preserve" xmlns:serif="http://www.serif.com/" style="fill-rule:evenodd;clip-rule:evenodd;stroke-linejoin:round;stroke-miterlimit:2;">
    <rect x="0" y="0" width="20" height="20" style="fill-opacity:0;"/>
    <g>
        <path d="M19.965,10L11,10L11,20L19.965,20L19.965,10ZM13.786,17.15L13.097,18.756C12.956,19.086 12.574,19.239 12.244,19.097C11.914,18.956 11.761,18.574 11.903,18.244L14.903,11.244C14.936,11.166 14.983,11.097 15.04,11.04C15.097,10.983 15.166,10.936 15.244,10.903C15.328,10.867 15.414,10.85 15.5,10.85C15.586,10.85 15.672,10.867 15.756,10.903C15.834,10.936 15.903,10.983 15.96,11.04C16.017,11.097 16.064,11.166 16.097,11.244L19.097,18.244L19.13,18.338L19.149,18.465L19.144,18.592L19.114,18.712L19.063,18.826L18.99,18.928L18.897,19.015L18.816,19.068L18.725,19.11L18.63,19.137L18.503,19.15L18.378,19.139L18.259,19.104L18.148,19.046L18.049,18.968L17.966,18.871L17.917,18.786L17.214,17.15L13.786,17.15ZM15.5,13.15L14.343,15.85L16.657,15.85L15.5,13.15Z" style="fill:black;"/>
    </g>
    <path d="M10,14.519C9.909,14.465 9.825,14.401 9.749,14.325L3.636,8.211C3.575,8.15 3.537,8.075 3.521,7.997C2.996,10.011 4.343,10.899 4.343,12.193C4.343,13.112 3.597,13.858 2.678,13.858C1.759,13.858 1.013,13.112 1.013,12.193C1.013,10.82 2.327,9.071 3.64,7.614L3.637,7.621L8.931,2.327C9.094,2.164 9.357,2.164 9.52,2.327L11.409,4.216L13.814,1.812C14.058,1.568 14.454,1.568 14.697,1.812C14.941,2.055 14.941,2.451 14.697,2.695L12.293,5.099L15.634,8.441C15.79,8.597 15.901,8.79 15.957,9L10,9L10,14.519ZM10.821,4.805L9.73,5.896C9.486,6.14 9.486,6.536 9.729,6.78C9.973,7.023 10.369,7.023 10.613,6.779L11.704,5.688L14.058,8.042L4.633,8.031L4.518,7.917L9.226,3.21L10.821,4.805Z" style="fill:black;"/>
</svg>
