<?xml version="1.0" encoding="UTF-8" standalone="no"?>
<!DOCTYPE svg PUBLIC "-//W3C//DTD SVG 1.1//EN" "http://www.w3.org/Graphics/SVG/1.1/DTD/svg11.dtd">
<svg width="100%" height="100%" viewBox="0 0 20 20" version="1.1" xmlns="http://www.w3.org/2000/svg" xmlns:xlink="http://www.w3.org/1999/xlink" xml:space="preserve" xmlns:serif="http://www.serif.com/" style="fill-rule:evenodd;clip-rule:evenodd;stroke-linejoin:round;stroke-miterlimit:2;">
    <g id="fill_polyline">
        <rect x="0" y="0" width="20" height="20" style="fill-opacity:0;"/>
        <path d="M16.293,10.408l2.404,-2.404c0.244,-0.244 0.244,-0.64 0,-0.883c-0.243,-0.244 -0.639,-0.244 -0.883,-0l-2.405,2.404l-1.889,-1.889c-0.163,-0.163 -0.426,-0.163 -0.589,-0l-5.294,5.294l0.003,-0.007c-1.313,1.457 -2.627,3.206 -2.627,4.579c0,0.919 0.746,1.665 1.665,1.665c0.919,-0 1.665,-0.746 1.665,-1.665c0,-1.294 -1.347,-2.182 -0.822,-4.196c0.016,0.078 0.054,0.153 0.115,0.214l6.113,6.114c0.235,0.234 0.552,0.366 0.884,0.366c0.331,-0.001 0.648,-0.132 0.882,-0.366l4.118,-4.118c0.235,-0.235 0.366,-0.552 0.367,-0.883c0,-0.332 -0.132,-0.649 -0.366,-0.883l-3.341,-3.342Zm-1.472,-0.294l-1.091,1.091c-0.244,0.244 -0.244,0.64 -0.001,0.884c0.244,0.243 0.64,0.243 0.884,-0.001l1.091,-1.091l2.003,2.003l-8.963,-0l4.482,-4.481l1.595,1.595Z"/>
        <path d="M15,1.734l-0.534,0.533c-0.195,0.195 -0.512,0.195 -0.707,0c-0.195,-0.195 -0.195,-0.512 0,-0.707l1.304,-1.304c0.086,-0.153 0.25,-0.256 0.437,-0.256c0.276,0 0.5,0.224 0.5,0.5c0,0.017 0,0.035 -0,0.052l0,1.948c0,0.276 -0.224,0.5 -0.5,0.5c-0.276,0 -0.5,-0.224 -0.5,-0.5l0,-0.766Zm1,3.766l0,2c0,0.276 -0.224,0.5 -0.5,0.5c-0.276,0 -0.5,-0.224 -0.5,-0.5l0,-2c0,-0.276 0.224,-0.5 0.5,-0.5c0.276,0 0.5,0.224 0.5,0.5Zm-10.782,8.448l-1.44,0.42c-0.252,0.074 -0.518,-0.061 -0.609,-0.307c0,0 -0.063,-0.172 -0.173,-0.469c-0.095,-0.259 0.037,-0.547 0.296,-0.642c0.259,-0.096 0.547,0.037 0.642,0.296l0.012,0.031l0.992,-0.289c0.265,-0.077 0.543,0.075 0.62,0.34c0.077,0.265 -0.075,0.543 -0.34,0.62Zm-3.605,-4.11c-0.095,-0.259 0.038,-0.546 0.296,-0.642c0.259,-0.095 0.547,0.038 0.643,0.297l0.691,1.876c0.095,0.259 -0.037,0.547 -0.296,0.642c-0.259,0.096 -0.547,-0.037 -0.642,-0.296l-0.692,-1.877Zm-0.691,-1.876l-0.692,-1.877c-0.095,-0.259 0.038,-0.547 0.297,-0.642c0.259,-0.095 0.546,0.037 0.642,0.296l0.691,1.877c0.095,0.259 -0.037,0.547 -0.296,0.642c-0.259,0.095 -0.547,-0.037 -0.642,-0.296Zm9.301,-1.452l-0.731,0.732c-0.128,0.127 -0.314,0.176 -0.488,0.128c0,0 -0.357,-0.1 -0.93,-0.259c-0.266,-0.073 -0.421,-0.349 -0.348,-0.615c0.074,-0.266 0.35,-0.422 0.616,-0.348l0.649,0.18l0.525,-0.525c0.195,-0.196 0.512,-0.196 0.707,0c0.196,0.195 0.196,0.512 0,0.707Zm-4.076,0.066l-1.927,-0.535c-0.266,-0.074 -0.421,-0.35 -0.348,-0.616c0.074,-0.266 0.35,-0.421 0.616,-0.348l1.927,0.536c0.266,0.074 0.422,0.349 0.348,0.615c-0.074,0.266 -0.35,0.422 -0.616,0.348Zm-3.854,-1.07l-1.927,-0.536c-0.266,-0.074 -0.422,-0.349 -0.348,-0.615c0.074,-0.266 0.35,-0.422 0.616,-0.348l1.927,0.535c0.266,0.074 0.422,0.35 0.348,0.616c-0.074,0.266 -0.35,0.421 -0.616,0.348Zm8.638,-1.118l1.414,-1.414c0.195,-0.195 0.512,-0.195 0.707,0c0.195,0.195 0.195,0.512 0,0.707l-1.414,1.414c-0.196,0.196 -0.512,0.196 -0.707,0c-0.196,-0.195 -0.196,-0.511 0,-0.707Z"/>
    </g>
</svg>
