<?xml version="1.0" encoding="UTF-8" standalone="no"?>
<!DOCTYPE svg PUBLIC "-//W3C//DTD SVG 1.1//EN" "http://www.w3.org/Graphics/SVG/1.1/DTD/svg11.dtd">
<svg width="20px" height="20px" version="1.1" xmlns="http://www.w3.org/2000/svg" xmlns:xlink="http://www.w3.org/1999/xlink" xml:space="preserve" xmlns:serif="http://www.serif.com/" style="fill-rule:evenodd;clip-rule:evenodd;stroke-linejoin:round;stroke-miterlimit:2;">
    <rect x="0" y="0" width="20" height="20" style="fill-opacity:0;"/>
    <g transform="matrix(-1,0,0,1,21.013,0)">
        <g>
            <path d="M4.72,5.099L2.316,2.695C2.072,2.451 2.072,2.055 2.316,1.812C2.559,1.568 2.955,1.568 3.199,1.812L5.604,4.216L7.493,2.327C7.656,2.164 7.919,2.164 8.082,2.327L13.376,7.621L13.373,7.614C14.686,9.071 16,10.82 16,12.193C16,13.112 15.254,13.858 14.335,13.858C13.416,13.858 12.67,13.112 12.67,12.193C12.67,10.899 14.017,10.011 13.492,7.997C13.476,8.075 13.438,8.15 13.377,8.211L7.264,14.325C7.029,14.559 6.712,14.691 6.38,14.691C6.049,14.69 5.732,14.559 5.498,14.325L1.38,10.207C1.145,9.972 1.014,9.655 1.013,9.324C1.013,8.992 1.145,8.675 1.379,8.441L4.72,5.099ZM6.192,4.805L7.283,5.896C7.527,6.14 7.527,6.536 7.284,6.78C7.04,7.023 6.644,7.023 6.4,6.779L5.309,5.688L2.955,8.042L12.38,8.031L12.495,7.917L7.787,3.21L6.192,4.805Z" style="fill:black;"/>
            <g transform="matrix(-0.557146,0,0,0.557146,21.8773,8.25214)">
                <g transform="matrix(1.79486,0,0,1.79486,1.55128,-14.8115)">
                    <path d="M4.658,9.973C4.463,9.989 4.28,10.02 4.117,10.063C2.487,10.491 1.794,11.745 1.528,12.186C1.356,12.471 1.108,13.118 1.026,13.799C0.975,14.219 0.983,14.654 1.14,15.015C1.204,15.16 1.292,15.291 1.415,15.399C2.084,15.988 2.712,16.394 3.14,16.802C3.706,17.339 3.978,17.887 3.801,18.67C3.667,19.259 3.237,19.612 2.748,19.803C2.139,20.04 1.452,20.008 1.452,20.008C1.177,19.995 0.965,19.761 0.978,19.486C0.992,19.211 1.226,18.999 1.5,19.012C1.5,19.012 1.969,19.036 2.386,18.874C2.579,18.798 2.775,18.682 2.828,18.449C2.918,18.055 2.738,17.795 2.454,17.524C2.032,17.124 1.413,16.726 0.756,16.147C0.521,15.941 0.348,15.692 0.227,15.415C0.001,14.899 -0.037,14.278 0.036,13.678C0.139,12.829 0.459,12.027 0.674,11.671C0.999,11.131 1.869,9.622 3.864,9.098C4.261,8.994 4.745,8.95 5.265,8.98C5.046,9.3 4.848,9.62 4.678,9.935C4.672,9.948 4.665,9.96 4.658,9.973ZM9.531,11.521C9.7,11.858 9.83,12.233 9.91,12.649C10.159,13.932 9.787,15.007 9.372,15.64C9.163,15.959 8.934,16.174 8.755,16.281C7.516,17.019 6.011,17.032 4.071,16.99C3.796,16.984 3.578,16.756 3.583,16.481C3.59,16.206 3.818,15.988 4.093,15.993C5.809,16.03 7.149,16.077 8.245,15.424C8.373,15.348 8.524,15.148 8.663,14.877C8.845,14.526 8.987,14.058 8.993,13.514C9.216,13.124 9.343,12.673 9.343,12.193C9.343,11.826 9.268,11.482 9.152,11.142L9.531,11.521Z" style="fill:black;"/>
                </g>
                <g transform="matrix(1.79486,0,0,1.79486,-16.3974,-14.8115)">
                    <path d="M12.926,14.796C12.291,14.796 11.733,15.026 11.385,15.358C11.1,15.63 10.943,15.97 10.943,16.332C10.943,16.694 11.1,17.034 11.385,17.306C11.733,17.638 12.291,17.868 12.926,17.868C13.56,17.868 14.118,17.638 14.467,17.306C14.751,17.034 14.908,16.694 14.908,16.332C14.908,15.97 14.751,15.63 14.467,15.358C14.118,15.026 13.56,14.796 12.926,14.796Z" style="fill:black;"/>
                </g>
            </g>
        </g>
    </g>
</svg>
