<?xml version="1.0" encoding="UTF-8" standalone="no"?>
<!DOCTYPE svg PUBLIC "-//W3C//DTD SVG 1.1//EN" "http://www.w3.org/Graphics/SVG/1.1/DTD/svg11.dtd">
<svg width="20px" height="20px" version="1.1" xmlns="http://www.w3.org/2000/svg" xmlns:xlink="http://www.w3.org/1999/xlink" xml:space="preserve" xmlns:serif="http://www.serif.com/" style="fill-rule:evenodd;clip-rule:evenodd;stroke-linejoin:round;stroke-miterlimit:2;">
    <g transform="matrix(1,0,0,1,-10,-550)">
        <g id="fill_rectangular" transform="matrix(1,0,0,1,-7.10543e-15,150)">
            <g transform="matrix(1,0,0,1,0,390)">
                <rect x="10" y="10" width="20" height="20" style="fill-opacity:0;"/>
            </g>
            <g transform="matrix(-1,0,0,1,31.013,405.309)">
                <path d="M4.72,5.099L2.316,2.695C2.072,2.451 2.072,2.055 2.316,1.812C2.559,1.568 2.955,1.568 3.199,1.812L5.604,4.216L7.493,2.327C7.656,2.164 7.919,2.164 8.082,2.327L13.376,7.621L13.373,7.614C14.686,9.071 16,10.82 16,12.193C16,13.112 15.254,13.858 14.335,13.858C13.416,13.858 12.67,13.112 12.67,12.193C12.67,10.899 14.017,10.011 13.492,7.997C13.476,8.075 13.438,8.15 13.377,8.211L7.264,14.325C7.029,14.559 6.712,14.691 6.38,14.691C6.049,14.69 5.732,14.559 5.498,14.325L1.38,10.207C1.145,9.972 1.014,9.655 1.013,9.324C1.013,8.992 1.145,8.675 1.379,8.441L4.72,5.099ZM6.192,4.805L7.283,5.896C7.527,6.14 7.527,6.536 7.284,6.78C7.04,7.023 6.644,7.023 6.4,6.779L5.309,5.688L3.306,7.691L12.269,7.691L7.787,3.21L6.192,4.805Z"/>
            </g>
            <g transform="matrix(1,0,0,1,7.10543e-15,-150)">
                <path d="M11,562L12,562L12,563L10,563L10,561L11,561L11,562ZM15.5,562L13.5,562L13.5,563L15.5,563L15.5,562ZM11,557L10,557L10,559L11,559L11,557ZM11,553.5L10,553.5L10,555.5L11,555.5L11,553.5ZM23,553.5L22,553.5L22,555.5L23,555.5L23,553.5ZM12,550L12,551L11,551L11,552L10,552L10,550L12,550ZM23,552L22,552L22,551L21,551L21,550L23,550L23,552ZM19,550L17,550L17,551L19,551L19,550ZM15.5,550L13.5,550L13.5,551L15.5,551L15.5,550Z"/>
            </g>
        </g>
    </g>
</svg>
