<?xml version="1.0" encoding="UTF-8" standalone="no"?>
<!DOCTYPE svg PUBLIC "-//W3C//DTD SVG 1.1//EN" "http://www.w3.org/Graphics/SVG/1.1/DTD/svg11.dtd">
<svg width="20px" height="20px" version="1.1" xmlns="http://www.w3.org/2000/svg" xmlns:xlink="http://www.w3.org/1999/xlink" xml:space="preserve" xmlns:serif="http://www.serif.com/" style="fill-rule:evenodd;clip-rule:evenodd;stroke-linejoin:round;stroke-miterlimit:2;">
    <g transform="matrix(1,0,0,1,-10,-580)">
        <g id="fill_polyline" transform="matrix(1,0,0,1,-0.100776,150)">
            <g transform="matrix(1,0,0,1,0.100776,420)">
                <rect x="10" y="10" width="20" height="20" style="fill-opacity:0;"/>
            </g>
            <g transform="matrix(-1,0,0,1,31.1138,435.309)">
                <path d="M4.72,5.099L2.316,2.695C2.072,2.451 2.072,2.055 2.316,1.812C2.559,1.568 2.955,1.568 3.199,1.812L5.604,4.216L7.493,2.327C7.656,2.164 7.919,2.164 8.082,2.327L13.376,7.621L13.373,7.614C14.686,9.071 16,10.82 16,12.193C16,13.112 15.254,13.858 14.335,13.858C13.416,13.858 12.67,13.112 12.67,12.193C12.67,10.899 14.017,10.011 13.492,7.997C13.476,8.075 13.438,8.15 13.377,8.211L7.264,14.325C7.029,14.559 6.712,14.691 6.38,14.691C6.049,14.69 5.732,14.559 5.498,14.325L1.38,10.207C1.145,9.972 1.014,9.655 1.013,9.324C1.013,8.992 1.145,8.675 1.379,8.441L4.72,5.099ZM6.192,4.805L7.283,5.896C7.527,6.14 7.527,6.536 7.284,6.78C7.04,7.023 6.644,7.023 6.4,6.779L5.309,5.688L3.306,7.691L12.269,7.691L7.787,3.21L6.192,4.805Z"/>
            </g>
            <g transform="matrix(1,0,0,1,0.100776,-150)">
                <path d="M14.812,594.067L13.778,594.368C13.526,594.442 13.26,594.307 13.169,594.061C13.169,594.061 13.106,593.889 12.996,593.592C12.901,593.333 13.033,593.045 13.292,592.95C13.551,592.854 13.839,592.987 13.934,593.246L13.946,593.277L14.938,592.988C15.142,592.929 15.353,593.005 15.475,593.163C15.241,593.461 15.017,593.764 14.812,594.067ZM11.613,589.838C11.518,589.579 11.651,589.292 11.909,589.196C12.168,589.101 12.456,589.234 12.552,589.493L13.243,591.369C13.338,591.628 13.206,591.916 12.947,592.011C12.688,592.107 12.4,591.974 12.305,591.715L11.613,589.838ZM10.922,587.962L10.23,586.085C10.135,585.826 10.268,585.538 10.527,585.443C10.786,585.348 11.073,585.48 11.169,585.739L11.86,587.616C11.955,587.875 11.823,588.163 11.564,588.258C11.305,588.353 11.017,588.221 10.922,587.962ZM25.138,587.133L25.138,585.388C25.138,585.112 25.362,584.888 25.638,584.888C25.914,584.888 26.138,585.112 26.138,585.388L26.138,586.675L25.409,587.404L25.138,587.133ZM20.223,586.51L19.492,587.242C19.364,587.369 19.178,587.418 19.004,587.37C19.004,587.37 18.647,587.27 18.074,587.111C17.808,587.038 17.653,586.762 17.726,586.496C17.8,586.23 18.076,586.074 18.342,586.148L18.991,586.328L19.516,585.803C19.711,585.607 20.028,585.607 20.223,585.803C20.419,585.998 20.419,586.315 20.223,586.51ZM16.147,586.576L14.22,586.041C13.954,585.967 13.799,585.691 13.872,585.425C13.946,585.159 14.222,585.004 14.488,585.077L16.415,585.613C16.681,585.687 16.837,585.962 16.763,586.228C16.689,586.494 16.413,586.65 16.147,586.576ZM12.293,585.506L10.366,584.97C10.1,584.896 9.944,584.621 10.018,584.355C10.092,584.089 10.368,583.933 10.634,584.007L12.561,584.542C12.827,584.616 12.983,584.892 12.909,585.158C12.835,585.424 12.559,585.579 12.293,585.506ZM20.931,584.388L22.345,582.974C22.54,582.779 22.857,582.779 23.052,582.974C23.247,583.169 23.247,583.486 23.052,583.681L21.638,585.095C21.442,585.291 21.126,585.291 20.931,585.095C20.735,584.9 20.735,584.584 20.931,584.388ZM23.759,581.56L25.173,580.146C25.368,579.951 25.685,579.951 25.88,580.146C26.075,580.341 26.075,580.658 25.88,580.853L25.813,580.92C26.003,580.991 26.138,581.174 26.138,581.388L26.138,583.388C26.138,583.664 25.914,583.888 25.638,583.888C25.362,583.888 25.138,583.664 25.138,583.388L25.138,581.595L24.466,582.267C24.271,582.462 23.954,582.462 23.759,582.267C23.564,582.072 23.564,581.755 23.759,581.56Z"/>
            </g>
        </g>
    </g>
</svg>
