<?xml version="1.0" encoding="UTF-8" standalone="no"?>
<!DOCTYPE svg PUBLIC "-//W3C//DTD SVG 1.1//EN" "http://www.w3.org/Graphics/SVG/1.1/DTD/svg11.dtd">
<svg width="100%" height="100%" viewBox="0 0 20 20" version="1.1" xmlns="http://www.w3.org/2000/svg" xmlns:xlink="http://www.w3.org/1999/xlink" xml:space="preserve" xmlns:serif="http://www.serif.com/" style="fill-rule:evenodd;clip-rule:evenodd;stroke-linecap:round;stroke-linejoin:bevel;stroke-miterlimit:1;">
    <g id="pick_freehand">
        <rect x="0" y="0" width="20" height="20" style="fill-opacity:0;"/>
        <path d="M13.237,10.082l-0.814,-0.815l1.643,-1.641l1.088,1.088l2.196,-2.195c0.606,-0.607 1.589,-0.607 2.195,-0c0.607,0.605 0.607,1.589 0,2.195l-2.195,2.195l1.098,1.099l-1.643,1.641l-0.823,-0.822l-6.62,6.62c-0.771,0.77 -2.019,0.77 -2.789,-0c-0.001,-0 -0.001,-0.001 -0.001,-0.001c-0.745,-0.745 -0.746,-1.953 0,-2.699l6.665,-6.665Zm0.549,0.549l-6.665,6.665c-0.442,0.442 -0.442,1.158 0,1.6c0.001,0 0.001,0.001 0.002,0.001c0.466,0.467 1.223,0.467 1.69,0.001l6.62,-6.62l-1.647,-1.647Z"/>
        <path d="M1.489,14.56c0.918,0.031 2.311,0.189 2.849,-0.864c0.811,-1.708 -0.751,-3.005 -1.33,-3.535c-2.024,-1.569 -2.133,-1.859 -2.352,-2.415c-0.273,-0.694 -0.187,-1.665 0.019,-2.373c0.266,-0.92 0.573,-1.645 1.12,-2.359c0.337,-0.44 0.66,-0.781 1.103,-1.102c1.318,-0.954 2.626,-1.372 4.113,-1.419c2.335,-0.072 4.881,0.197 6.277,2.611c0.282,0.486 0.884,1.861 0.601,3.42c-0.1,0.553 -0.545,1.354 -1.03,1.859c-0.794,0.827 -1.881,1.212 -2.534,1.479c-0.885,0.361 -2.591,0.611 -4.115,0.527" style="fill:none;stroke:#000;stroke-width:1px;"/>
        <ellipse cx="3.621" cy="10.323" rx="2.392" ry="1.846" style="fill:none;stroke:#000;stroke-width:1px;stroke-linejoin:round;stroke-miterlimit:1.5;"/>
    </g>
</svg>
