<?xml version="1.0" encoding="UTF-8" standalone="no"?>
<!DOCTYPE svg PUBLIC "-//W3C//DTD SVG 1.1//EN" "http://www.w3.org/Graphics/SVG/1.1/DTD/svg11.dtd">
<svg width="20px" height="20px" version="1.1" xmlns="http://www.w3.org/2000/svg" xmlns:xlink="http://www.w3.org/1999/xlink" xml:space="preserve" xmlns:serif="http://www.serif.com/" style="fill-rule:evenodd;clip-rule:evenodd;stroke-linecap:round;stroke-linejoin:round;stroke-miterlimit:1.5;">
    <g transform="matrix(1,0,0,1,-10,-490)">
        <g id="fill_freehand" transform="matrix(1,0,0,1,-0.100776,150)">
            <g transform="matrix(1,0,0,1,0.100776,330)">
                <rect x="10" y="10" width="20" height="20" style="fill-opacity:0;"/>
            </g>
            <g transform="matrix(-1,0,0,1,31.1138,345.309)">
                <path d="M4.72,5.099L2.316,2.695C2.072,2.451 2.072,2.055 2.316,1.812C2.559,1.568 2.955,1.568 3.199,1.812L5.604,4.216L7.493,2.327C7.656,2.164 7.919,2.164 8.082,2.327L13.376,7.621L13.373,7.614C14.686,9.071 16,10.82 16,12.193C16,13.112 15.254,13.858 14.335,13.858C13.416,13.858 12.67,13.112 12.67,12.193C12.67,10.899 14.017,10.011 13.492,7.997C13.476,8.075 13.438,8.15 13.377,8.211L7.264,14.325C7.029,14.559 6.712,14.691 6.38,14.691C6.049,14.69 5.732,14.559 5.498,14.325L1.38,10.207C1.145,9.972 1.014,9.655 1.013,9.324C1.013,8.992 1.145,8.675 1.379,8.441L4.72,5.099ZM6.192,4.805L7.283,5.896C7.527,6.14 7.527,6.536 7.284,6.78C7.04,7.023 6.644,7.023 6.4,6.779L5.309,5.688L3.306,7.691L12.269,7.691L7.787,3.21L6.192,4.805Z"/>
            </g>
            <g transform="matrix(1,0,0,1,0.100776,-150)">
                <path d="M23.423,496.023C23.47,495.507 23.421,494.903 23.22,494.199C23.22,494.198 23.22,494.198 23.22,494.198C22.734,492.5 21.375,491.646 19.892,491.263C18.331,490.861 16.626,490.972 15.536,491.24C13.159,491.824 12.158,493.387 11.77,493.989C11.521,494.377 11.159,495.255 11.039,496.181C10.964,496.761 10.98,497.363 11.213,497.862C11.313,498.075 11.454,498.268 11.647,498.428C12.608,499.22 13.519,499.884 14.141,500.589C14.857,501.399 15.221,502.263 14.993,503.369C14.852,504.27 14.208,504.741 13.458,504.955C12.502,505.228 11.386,505.052 11.386,505.052C11.113,505.009 10.927,504.752 10.971,504.479C11.015,504.207 11.271,504.021 11.544,504.065C11.544,504.065 12.427,504.209 13.183,503.993C13.571,503.883 13.936,503.673 14.006,503.205C14.008,503.196 14.01,503.186 14.012,503.177C14.174,502.406 13.89,501.814 13.392,501.251C12.799,500.58 11.926,499.953 11.011,499.199C11.011,499.199 11.011,499.199 11.011,499.199C10.698,498.941 10.469,498.631 10.307,498.286C10.307,498.286 10.307,498.285 10.306,498.285C9.997,497.621 9.947,496.824 10.047,496.052C10.19,494.95 10.633,493.909 10.93,493.448C10.93,493.448 10.93,493.448 10.93,493.448C11.379,492.75 12.544,490.945 15.297,490.269C15.297,490.269 15.297,490.269 15.297,490.269C16.509,489.971 18.406,489.847 20.142,490.295C21.956,490.763 23.587,491.845 24.181,493.924C24.462,494.904 24.501,495.728 24.4,496.416C24.11,496.19 23.77,496.059 23.423,496.023ZM18.664,499.782C17.904,499.848 17.078,499.835 16.14,499.816C15.864,499.81 15.636,500.03 15.63,500.306C15.625,500.582 15.844,500.81 16.12,500.816C16.651,500.827 17.148,500.833 17.62,500.825L18.664,499.782Z"/>
            </g>
            <g transform="matrix(0.788509,0,0,1.00377,9.35783,333.923)">
                <ellipse cx="5.534" cy="16.339" rx="3.034" ry="1.839" style="fill:none;stroke:black;stroke-width:1.11px;"/>
            </g>
        </g>
    </g>
</svg>
