<?xml version="1.0" encoding="UTF-8" standalone="no"?>
<!DOCTYPE svg PUBLIC "-//W3C//DTD SVG 1.1//EN" "http://www.w3.org/Graphics/SVG/1.1/DTD/svg11.dtd">
<svg width="20px" height="20px" version="1.1" xmlns="http://www.w3.org/2000/svg" xmlns:xlink="http://www.w3.org/1999/xlink" xml:space="preserve" xmlns:serif="http://www.serif.com/" style="fill-rule:evenodd;clip-rule:evenodd;stroke-linejoin:round;stroke-miterlimit:2;">
    <rect x="0" y="0" width="20" height="20" style="fill-opacity:0;"/>
    <g transform="matrix(-1,0,0,1,21,-1)">
        <path d="M16.328,15.965L20.146,12.146C20.289,12.003 20.505,11.961 20.691,12.038C20.878,12.115 21,12.298 21,12.5L21,18.5C21,18.723 20.852,18.919 20.637,18.981L13.637,20.981C13.42,21.043 13.188,20.951 13.071,20.757L10.071,15.757C9.971,15.59 9.977,15.38 10.087,15.219C10.196,15.057 10.39,14.975 10.582,15.007L16.328,15.965ZM20,13.707L16.854,16.854C16.739,16.968 16.577,17.02 16.418,16.993L11.486,16.171L13.731,19.914L20,18.123L20,13.707Z" style="fill:black;"/>
    </g>
    <g transform="matrix(-1,0,0,1,21.013,0)">
        <g>
            <path d="M4.72,5.099L2.316,2.695C2.072,2.451 2.072,2.055 2.316,1.812C2.559,1.568 2.955,1.568 3.199,1.812L5.604,4.216L7.493,2.327C7.656,2.164 7.919,2.164 8.082,2.327L13.376,7.621L13.373,7.614C14.686,9.071 16,10.82 16,12.193C16,13.112 15.254,13.858 14.335,13.858C13.416,13.858 12.67,13.112 12.67,12.193C12.67,10.899 14.017,10.011 13.492,7.997C13.476,8.075 13.438,8.15 13.377,8.211L7.264,14.325C7.029,14.559 6.712,14.691 6.38,14.691C6.049,14.69 5.732,14.559 5.498,14.325L1.38,10.207C1.145,9.972 1.014,9.655 1.013,9.324C1.013,8.992 1.145,8.675 1.379,8.441L4.72,5.099ZM6.192,4.805L7.283,5.896C7.527,6.14 7.527,6.536 7.284,6.78C7.04,7.023 6.644,7.023 6.4,6.779L5.309,5.688L2.955,8.042L12.38,8.031L12.495,7.917L7.787,3.21L6.192,4.805Z" style="fill:black;"/>
        </g>
    </g>
</svg>
