<?xml version="1.0" encoding="UTF-8" standalone="no"?>
<!DOCTYPE svg PUBLIC "-//W3C//DTD SVG 1.1//EN" "http://www.w3.org/Graphics/SVG/1.1/DTD/svg11.dtd">
<svg width="20px" height="20px" version="1.1" xmlns="http://www.w3.org/2000/svg" xmlns:xlink="http://www.w3.org/1999/xlink" xml:space="preserve" xmlns:serif="http://www.serif.com/" style="fill-rule:evenodd;clip-rule:evenodd;stroke-linejoin:round;stroke-miterlimit:2;">
    <g transform="matrix(1,0,0,1,-10,-640)">
        <g id="fill_mode_lines_areas" transform="matrix(1,0,0,1,0.013,120)">
            <g transform="matrix(1,0,0,1,-0.013,-120)">
                <rect x="10" y="640" width="20" height="20" style="fill-opacity:0;"/>
            </g>
            <g transform="matrix(-1,0,0,1,31,525.309)">
                <path d="M4.72,5.099L2.316,2.695C2.072,2.451 2.072,2.055 2.316,1.812C2.559,1.568 2.955,1.568 3.199,1.812L5.604,4.216L7.493,2.327C7.656,2.164 7.919,2.164 8.082,2.327L13.376,7.621L13.373,7.614C14.686,9.071 16,10.82 16,12.193C16,13.112 15.254,13.858 14.335,13.858C13.416,13.858 12.67,13.112 12.67,12.193C12.67,10.899 14.017,10.011 13.492,7.997C13.476,8.075 13.438,8.15 13.377,8.211L7.264,14.325C7.029,14.559 6.712,14.691 6.38,14.691C6.049,14.69 5.732,14.559 5.498,14.325L1.38,10.207C1.145,9.972 1.014,9.655 1.013,9.324C1.013,8.992 1.145,8.675 1.379,8.441L4.72,5.099ZM6.192,4.805L7.283,5.896C7.527,6.14 7.527,6.536 7.284,6.78C7.04,7.023 6.644,7.023 6.4,6.779L5.309,5.688L3.306,7.691L12.269,7.691L7.787,3.21L6.192,4.805Z"/>
            </g>
            <g transform="matrix(1,0,0,1,-30,0)">
                <path d="M43.858,535.796C43.787,535.775 43.716,535.753 43.644,535.73C43.486,535.679 43.349,535.579 43.251,535.445C42.086,533.841 41.883,532.204 42.645,530.536C41.048,529.634 40.25,528.191 40.25,526.208C40.25,526.043 40.303,525.881 40.4,525.747C41.565,524.142 43.059,523.445 44.882,523.653C45.246,521.856 46.371,520.651 48.257,520.038C48.415,519.987 48.585,519.987 48.743,520.038C50.629,520.651 51.754,521.856 52.118,523.653C53.941,523.445 55.435,524.142 56.6,525.747C56.669,525.842 56.715,525.95 56.737,526.064L55.927,526.874C55.952,526.66 55.965,526.439 55.965,526.208C54.829,524.645 53.324,524.099 51.45,524.573C51.322,522.645 50.338,521.382 48.5,520.785C46.662,521.382 45.678,522.645 45.55,524.573C43.676,524.099 42.171,524.645 41.035,526.208C41.035,528.141 41.933,529.466 43.727,530.185C42.697,531.82 42.751,533.42 43.886,534.983C43.988,535.017 44.09,535.046 44.19,535.073C44.063,535.316 43.952,535.557 43.858,535.796ZM44.874,533.958C44.794,533.942 44.714,533.923 44.633,533.901C43.897,532.767 43.902,531.609 44.647,530.425C44.763,530.241 44.792,530.013 44.724,529.806C44.657,529.598 44.501,529.431 44.298,529.35C42.999,528.831 42.315,527.896 42.243,526.546C43.094,525.496 44.198,525.143 45.554,525.486C45.765,525.539 45.99,525.496 46.167,525.367C46.344,525.239 46.454,525.039 46.469,524.821C46.561,523.426 47.239,522.485 48.5,522C49.761,522.485 50.439,523.426 50.531,524.821C50.546,525.039 50.656,525.239 50.833,525.367C51.01,525.496 51.235,525.539 51.446,525.486C52.802,525.143 53.906,525.496 54.757,526.546C54.753,526.615 54.748,526.682 54.741,526.749L54.568,526.575C53.818,525.825 52.607,525.825 51.857,526.575L51.49,526.943C50.91,525.887 49.788,525.171 48.5,525.171C46.619,525.171 45.092,526.698 45.092,528.579C45.092,529.867 45.808,530.99 46.864,531.569L46.563,531.869C46.563,531.869 46.403,532.041 46.513,531.919C45.934,532.561 45.358,533.258 44.874,533.958ZM47.422,531.011L48.193,530.24C47.437,530.096 46.864,529.431 46.864,528.633C46.864,527.731 47.597,526.998 48.5,526.998C49.298,526.998 49.963,527.57 50.107,528.326L50.877,527.556C50.466,526.653 49.556,526.024 48.5,526.024C47.06,526.024 45.89,527.193 45.89,528.634C45.89,529.69 46.519,530.6 47.422,531.011Z"/>
            </g>
        </g>
    </g>
</svg>
