<?xml version="1.0" encoding="UTF-8" standalone="no"?>
<!DOCTYPE svg PUBLIC "-//W3C//DTD SVG 1.1//EN" "http://www.w3.org/Graphics/SVG/1.1/DTD/svg11.dtd">
<svg width="20px" height="20px" version="1.1" xmlns="http://www.w3.org/2000/svg" xmlns:xlink="http://www.w3.org/1999/xlink" xml:space="preserve" xmlns:serif="http://www.serif.com/" style="fill-rule:evenodd;clip-rule:evenodd;stroke-linejoin:round;stroke-miterlimit:2;">
    <rect x="0" y="0" width="20" height="20" style="fill-opacity:0;"/>
    <g transform="matrix(-1,0,0,-1,17.013,23)">
        <path d="M11,3.5C11,3.224 10.776,3 10.5,3C10.224,3 10,3.224 10,3.5L10,6.5C10,6.776 10.224,7 10.5,7C10.776,7 11,6.776 11,6.5L11,3.5Z" style="fill:black;"/>
        <g transform="matrix(0.707107,-0.707107,0.676801,0.676801,-4.30858,9.54066)">
            <path d="M11,3.522C11,3.234 10.776,3 10.5,3C10.224,3 10,3.234 10,3.522L10,6.478C10,6.766 10.224,7 10.5,7C10.776,7 11,6.766 11,6.478L11,3.522Z" style="fill:black;"/>
        </g>
        <g transform="matrix(6.12323e-17,1,-1,6.12323e-17,20,-2)">
            <path d="M11,3.5C11,3.224 10.776,3 10.5,3C10.224,3 10,3.224 10,3.5L10,6.5C10,6.776 10.224,7 10.5,7C10.776,7 11,6.776 11,6.5L11,3.5Z" style="fill:black;"/>
        </g>
        <g transform="matrix(0.707107,0.707107,-0.676801,0.676801,10.4593,-5.30858)">
            <path d="M11,3.522C11,3.234 10.776,3 10.5,3C10.224,3 10,3.234 10,3.522L10,6.478C10,6.766 10.224,7 10.5,7C10.776,7 11,6.766 11,6.478L11,3.522Z" style="fill:black;"/>
        </g>
        <g transform="matrix(6.12323e-17,1,-1,6.12323e-17,11,-2)">
            <path d="M11,3.5C11,3.224 10.776,3 10.5,3C10.224,3 10,3.224 10,3.5L10,6.5C10,6.776 10.224,7 10.5,7C10.776,7 11,6.776 11,6.5L11,3.5Z" style="fill:black;"/>
        </g>
    </g>
    <g transform="matrix(-1,0,0,1,21.013,0)">
        <g>
            <path d="M4.72,5.099L2.316,2.695C2.072,2.451 2.072,2.055 2.316,1.812C2.559,1.568 2.955,1.568 3.199,1.812L5.604,4.216L7.493,2.327C7.656,2.164 7.919,2.164 8.082,2.327L13.376,7.621L13.373,7.614C14.686,9.071 16,10.82 16,12.193C16,13.112 15.254,13.858 14.335,13.858C13.416,13.858 12.67,13.112 12.67,12.193C12.67,10.899 14.017,10.011 13.492,7.997C13.476,8.075 13.438,8.15 13.377,8.211L7.264,14.325C7.029,14.559 6.712,14.691 6.38,14.691C6.049,14.69 5.732,14.559 5.498,14.325L1.38,10.207C1.145,9.972 1.014,9.655 1.013,9.324C1.013,8.992 1.145,8.675 1.379,8.441L4.72,5.099ZM6.192,4.805L7.283,5.896C7.527,6.14 7.527,6.536 7.284,6.78C7.04,7.023 6.644,7.023 6.4,6.779L5.309,5.688L2.955,8.042L12.38,8.031L12.495,7.917L7.787,3.21L6.192,4.805Z" style="fill:black;"/>
        </g>
    </g>
</svg>
