<?xml version="1.0" encoding="UTF-8" standalone="no"?>
<!DOCTYPE svg PUBLIC "-//W3C//DTD SVG 1.1//EN" "http://www.w3.org/Graphics/SVG/1.1/DTD/svg11.dtd">
<svg width="20px" height="20px" version="1.1" xmlns="http://www.w3.org/2000/svg" xmlns:xlink="http://www.w3.org/1999/xlink" xml:space="preserve" xmlns:serif="http://www.serif.com/" style="fill-rule:evenodd;clip-rule:evenodd;stroke-linejoin:round;stroke-miterlimit:2;">
    <g transform="matrix(1,0,0,1,-10,-670)">
        <g id="fill_mode_areas" transform="matrix(1,0,0,1,0,120)">
            <g transform="matrix(1,0,0,1,0,540)">
                <rect x="10" y="10" width="20" height="20" style="fill-opacity:0;"/>
            </g>
            <g transform="matrix(-1,0,0,1,31,555.309)">
                <path d="M4.72,5.099L2.316,2.695C2.072,2.451 2.072,2.055 2.316,1.812C2.559,1.568 2.955,1.568 3.199,1.812L5.604,4.216L7.493,2.327C7.656,2.164 7.919,2.164 8.082,2.327L13.376,7.621L13.373,7.614C14.686,9.071 16,10.82 16,12.193C16,13.112 15.254,13.858 14.335,13.858C13.416,13.858 12.67,13.112 12.67,12.193C12.67,10.899 14.017,10.011 13.492,7.997C13.476,8.075 13.438,8.15 13.377,8.211L7.264,14.325C7.029,14.559 6.712,14.691 6.38,14.691C6.049,14.69 5.732,14.559 5.498,14.325L1.38,10.207C1.145,9.972 1.014,9.655 1.013,9.324C1.013,8.992 1.145,8.675 1.379,8.441L4.72,5.099ZM6.192,4.805L7.283,5.896C7.527,6.14 7.527,6.536 7.284,6.78C7.04,7.023 6.644,7.023 6.4,6.779L5.309,5.688L3.306,7.691L12.269,7.691L7.787,3.21L6.192,4.805Z"/>
            </g>
            <g transform="matrix(1,0,0,1,-30,0)">
                <path d="M43.84,565.843C43.693,565.807 43.544,565.764 43.394,565.715C42.136,563.985 42.077,562.214 43.217,560.404C41.231,559.609 40.237,558.142 40.237,556.003C41.495,554.272 43.161,553.669 45.235,554.193C45.377,552.059 46.465,550.661 48.5,550C50.535,550.661 51.623,552.059 51.765,554.193C53.839,553.669 55.505,554.272 56.763,556.003L56.762,556.039C56.755,556.046 56.748,556.053 56.74,556.06C56.741,556.06 55.396,557.404 55.396,557.404C55.396,557.404 54.568,556.575 54.568,556.575C53.818,555.825 52.607,555.825 51.857,556.575L51.068,557.365C50.588,556.435 49.618,555.799 48.5,555.799C46.906,555.799 45.611,557.093 45.611,558.687C45.611,559.805 46.248,560.775 47.177,561.255L46.563,561.869C46.563,561.869 46.403,562.041 46.513,561.919C45.643,562.884 44.782,563.97 44.225,565.007C44.074,565.288 43.945,565.568 43.84,565.843Z"/>
            </g>
        </g>
    </g>
</svg>
