<?xml version="1.0" encoding="UTF-8" standalone="no"?>
<!DOCTYPE svg PUBLIC "-//W3C//DTD SVG 1.1//EN" "http://www.w3.org/Graphics/SVG/1.1/DTD/svg11.dtd">
<svg width="20px" height="20px" version="1.1" xmlns="http://www.w3.org/2000/svg" xmlns:xlink="http://www.w3.org/1999/xlink" xml:space="preserve" xmlns:serif="http://www.serif.com/" style="fill-rule:evenodd;clip-rule:evenodd;stroke-linejoin:round;stroke-miterlimit:2;">
    <rect x="0" y="0" width="20" height="20" style="fill-opacity:0;"/>
    <g transform="matrix(1,0,0,1,-250,-118)">
        <g transform="matrix(1.25,0,0,1,250.75,118)">
            <path d="M9,10.5C9,10.224 8.821,10 8.6,10L5.4,10C5.179,10 5,10.224 5,10.5C5,10.776 5.179,11 5.4,11L8.6,11C8.821,11 9,10.776 9,10.5Z" style="fill:black;"/>
        </g>
        <g transform="matrix(0.75,0,0,1,248.25,118)">
            <path d="M9,10.5C9,10.224 8.701,10 8.333,10L5.667,10C5.299,10 5,10.224 5,10.5C5,10.776 5.299,11 5.667,11L8.333,11C8.701,11 9,10.776 9,10.5Z" style="fill:black;"/>
        </g>
        <g transform="matrix(0.75,0,0,1,260.25,118)">
            <path d="M9,10.5C9,10.224 8.701,10 8.333,10L5.667,10C5.299,10 5,10.224 5,10.5C5,10.776 5.299,11 5.667,11L8.333,11C8.701,11 9,10.776 9,10.5Z" style="fill:black;"/>
        </g>
        <g transform="matrix(-2.29621e-16,1.25,-1,-1.83697e-16,270,119.75)">
            <path d="M9,10.5C9,10.224 8.821,10 8.6,10L5.4,10C5.179,10 5,10.224 5,10.5C5,10.776 5.179,11 5.4,11L8.6,11C8.821,11 9,10.776 9,10.5Z" style="fill:black;"/>
        </g>
        <g transform="matrix(-1.49215e-16,0.75,-1,-1.74543e-16,270,117.25)">
            <path d="M9,10.5C9,10.224 8.701,10 8.333,10L5.667,10C5.299,10 5,10.224 5,10.5C5,10.776 5.299,11 5.667,11L8.333,11C8.701,11 9,10.776 9,10.5Z" style="fill:black;"/>
        </g>
        <g transform="matrix(-1.49215e-16,0.75,-1,-1.74543e-16,270,129.25)">
            <path d="M9,10.5C9,10.224 8.701,10 8.333,10L5.667,10C5.299,10 5,10.224 5,10.5C5,10.776 5.299,11 5.667,11L8.333,11C8.701,11 9,10.776 9,10.5Z" style="fill:black;"/>
        </g>
    </g>
    <path d="M9.5,5C6.464,5 4,7.464 4,10.5C4,13.536 6.464,16 9.5,16C12.536,16 15,13.536 15,10.5C15,7.464 12.536,5 9.5,5ZM9.5,6C11.984,6 14,8.016 14,10.5C14,12.984 11.984,15 9.5,15C7.016,15 5,12.984 5,10.5C5,8.016 7.016,6 9.5,6Z" style="fill:black;"/>
</svg>
