<?xml version="1.0" encoding="UTF-8" standalone="no"?>
<!DOCTYPE svg PUBLIC "-//W3C//DTD SVG 1.1//EN" "http://www.w3.org/Graphics/SVG/1.1/DTD/svg11.dtd">
<svg width="20px" height="20px" version="1.1" xmlns="http://www.w3.org/2000/svg" xmlns:xlink="http://www.w3.org/1999/xlink" xml:space="preserve" xmlns:serif="http://www.serif.com/" style="fill-rule:evenodd;clip-rule:evenodd;stroke-linejoin:round;stroke-miterlimit:2;">
    <g transform="matrix(1.25,0,0,1.25,8.10463e-15,-1.11022e-15)">
        <rect x="0" y="0" width="16" height="16" style="fill-opacity:0;"/>
    </g>
    <g transform="matrix(1.08333,0,0,1.08333,-1.91663,-1.91663)">
        <g transform="matrix(1,0,0,1,-2.76924,-2.76924)">
            <path d="M11,5L17,11L11,17L5,11L11,5Z" style="fill:black;"/>
        </g>
        <g transform="matrix(0.92308,0,0,0.92308,1.7692,1.7692)">
            <g transform="matrix(0.909091,0,0,1,1.81818,1)">
                <rect x="9" y="17" width="11" height="1" style="fill:black;"/>
            </g>
            <g transform="matrix(0.909091,0,0,1,1.81818,-2)">
                <rect x="9" y="17" width="11" height="1" style="fill:black;"/>
            </g>
            <g transform="matrix(0.909091,0,0,1,1.81818,-5)">
                <rect x="9" y="17" width="11" height="1" style="fill:black;"/>
            </g>
            <g transform="matrix(1,0,0,1,2,1)">
                <circle cx="15.5" cy="17.5" r="1.5" style="fill:black;"/>
            </g>
            <g transform="matrix(1,0,0,1,-3,-2)">
                <circle cx="15.5" cy="17.5" r="1.5" style="fill:black;"/>
            </g>
            <g transform="matrix(1,0,0,1,2,-5)">
                <circle cx="15.5" cy="17.5" r="1.5" style="fill:black;"/>
            </g>
        </g>
    </g>
</svg>
