<?xml version="1.0" encoding="UTF-8" standalone="no"?>
<!DOCTYPE svg PUBLIC "-//W3C//DTD SVG 1.1//EN" "http://www.w3.org/Graphics/SVG/1.1/DTD/svg11.dtd">
<svg width="20px" height="20px" version="1.1" xmlns="http://www.w3.org/2000/svg" xmlns:xlink="http://www.w3.org/1999/xlink" xml:space="preserve" xmlns:serif="http://www.serif.com/" style="fill-rule:evenodd;clip-rule:evenodd;stroke-linejoin:round;stroke-miterlimit:2;">
    <rect x="0" y="0" width="20" height="20" style="fill-opacity:0;"/>
    <g transform="matrix(0.160497,0,0,0.160497,2,2.36218)">
        <path d="M93.779,63.676C92.798,62.594 91.539,62.023 90.14,62.023C88.995,62.023 86.187,62.419 84.822,66.085C84.478,67.007 84.379,67.498 83.915,67.448C83.129,67.37 80.07,64.102 79.07,59.303L76.588,47.703C78.549,44.526 80.565,42.074 82.576,40.411C83.656,39.529 84.89,39.062 86.384,38.981C90.199,38.721 91.587,38.241 92.524,37.582C94.071,36.467 94.921,34.854 94.921,33.04C94.921,31.444 94.317,30.021 93.171,28.925C92.065,27.866 90.59,27.307 88.911,27.307C86.443,27.307 83.672,28.449 80.437,30.797C78.527,32.185 76.502,34.203 74.316,36.908C73.605,34.255 72.997,33.019 72.545,32.28C71.149,29.977 68.881,29.977 68.135,29.977L67.322,29.99L44.277,30.534L45.574,25.028C46.402,21.435 47.489,18.592 48.8,16.578C49.438,15.598 50.414,14.43 51.438,14.43C51.825,14.43 52.59,14.493 54.02,14.79C57.998,15.65 59.485,15.749 60.259,15.749C61.967,15.749 63.469,15.178 64.606,14.098C65.782,12.979 66.403,11.515 66.403,9.865C66.403,8.575 65.979,6.709 63.958,5.143C62.562,4.062 60.647,3.514 58.267,3.514C54.699,3.514 50.918,4.655 47.026,6.904C43.164,9.136 39.988,12.221 37.588,16.075C35.483,19.454 33.659,24.199 32.033,30.534L21.877,30.534L19.639,39.365L29.825,39.365L22.085,70.481C20.482,76.924 19.308,78.509 18.987,78.842C18.112,79.746 16.307,79.936 14.947,79.936C13.264,79.936 11.47,79.815 9.598,79.575C8.312,79.418 7.333,79.341 6.607,79.341C4.729,79.341 3.184,79.829 2.017,80.789C0.716,81.858 0,83.403 0,85.14C0,86.497 0.44,88.449 2.539,90.035C3.973,91.115 5.928,91.663 8.352,91.663C14.421,91.663 20.077,89.252 25.165,84.498C30.112,79.874 33.736,73.085 35.938,64.303L42.057,39.368L62.927,39.722L65.171,49.362L60.598,56.11C59.774,57.319 58.547,58.811 56.94,60.551C56.1,61.471 55.542,61.977 55.219,62.24C53.903,60.632 52.41,59.816 50.787,59.816C49.262,59.816 47.877,60.441 46.785,61.62C45.749,62.736 45.202,64.134 45.202,65.658C45.202,67.488 45.985,69.117 47.466,70.367C48.823,71.513 50.5,72.095 52.447,72.095C54.861,72.095 57.331,71.174 59.791,69.358C61.844,67.839 64.488,64.832 67.865,60.169C70.035,66.409 73.113,70.421 74.579,72.096C76.892,74.74 80.628,76.316 84.572,76.316C87.92,76.316 89.816,74.914 91.488,73.675L91.636,73.566C94.562,71.402 95.176,69.021 95.176,67.4C95.174,65.965 94.691,64.679 93.779,63.676Z" style="fill:black;fill-rule:nonzero;"/>
    </g>
</svg>
