<?xml version="1.0" encoding="UTF-8" standalone="no"?>
<!DOCTYPE svg PUBLIC "-//W3C//DTD SVG 1.1//EN" "http://www.w3.org/Graphics/SVG/1.1/DTD/svg11.dtd">
<svg width="20px" height="20px" version="1.1" xmlns="http://www.w3.org/2000/svg" xmlns:xlink="http://www.w3.org/1999/xlink" xml:space="preserve" xmlns:serif="http://www.serif.com/" style="fill-rule:evenodd;clip-rule:evenodd;stroke-linejoin:round;stroke-miterlimit:2;">
    <rect x="0" y="0" width="20" height="20" style="fill-opacity:0;"/>
    <g transform="matrix(0.909091,0,0,1,1.81818,1)">
        <rect x="9" y="17" width="11" height="1" style="fill:black;"/>
    </g>
    <g transform="matrix(0.909091,0,0,1,1.81818,-2)">
        <rect x="9" y="17" width="11" height="1" style="fill:black;"/>
    </g>
    <g transform="matrix(0.909091,0,0,1,1.81818,-5)">
        <rect x="9" y="17" width="11" height="1" style="fill:black;"/>
    </g>
    <g transform="matrix(1,0,0,1,2,1)">
        <circle cx="15.5" cy="17.5" r="1.5" style="fill:black;"/>
    </g>
    <g transform="matrix(1,0,0,1,-3,-2)">
        <circle cx="15.5" cy="17.5" r="1.5" style="fill:black;"/>
    </g>
    <g transform="matrix(1,0,0,1,2,-5)">
        <circle cx="15.5" cy="17.5" r="1.5" style="fill:black;"/>
    </g>
    <path d="M9,11.869C8.859,11.823 8.732,11.752 8.618,11.656C8.38,11.455 8.255,11.194 8.255,10.9C8.255,10.655 8.343,10.431 8.509,10.252C8.684,10.063 8.906,9.962 9.151,9.962C9.412,9.962 9.651,10.093 9.862,10.352C9.914,10.309 10.004,10.228 10.139,10.08C10.397,9.801 10.594,9.562 10.726,9.368L11.46,8.285L11.1,6.737L7.75,6.681L6.768,10.683C6.415,12.092 5.833,13.182 5.039,13.924C4.222,14.687 3.315,15.074 2.34,15.074C1.951,15.074 1.638,14.986 1.408,14.813C1.071,14.558 1,14.245 1,14.027C1,13.748 1.115,13.5 1.324,13.329C1.511,13.174 1.759,13.096 2.06,13.096C2.177,13.096 2.334,13.109 2.54,13.134C2.841,13.172 3.129,13.192 3.399,13.192C3.617,13.192 3.907,13.161 4.047,13.016C4.099,12.963 4.287,12.708 4.545,11.674L5.787,6.68L4.152,6.68L4.511,5.263L6.141,5.263C6.402,4.246 6.695,3.484 7.033,2.942C7.418,2.324 7.928,1.828 8.548,1.47C9.172,1.109 9.779,0.926 10.352,0.926C10.734,0.926 11.041,1.014 11.265,1.188C11.589,1.439 11.657,1.738 11.657,1.945C11.657,2.21 11.558,2.445 11.369,2.625C11.187,2.798 10.946,2.89 10.671,2.89C10.547,2.89 10.309,2.874 9.67,2.736C9.441,2.688 9.318,2.678 9.256,2.678C9.091,2.678 8.935,2.866 8.832,3.023C8.622,3.346 8.447,3.802 8.314,4.379L8.106,5.263L11.805,5.175L11.935,5.173C12.055,5.173 12.419,5.173 12.643,5.543C12.716,5.662 12.813,5.86 12.927,6.286C13.278,5.852 13.603,5.528 13.91,5.305C14.429,4.928 14.874,4.745 15.27,4.745C15.539,4.745 15.776,4.835 15.954,5.005C16.138,5.18 16.235,5.409 16.235,5.665C16.235,5.956 16.098,6.215 15.85,6.394C15.699,6.5 15.477,6.577 14.864,6.619C14.625,6.632 14.427,6.706 14.253,6.848C13.93,7.115 13.607,7.508 13.292,8.018L13.69,9.88C13.795,10.383 14.041,10.781 14.234,11L12.327,11C12.176,10.725 12.024,10.397 11.892,10.019C11.601,10.422 11.343,10.747 11.116,11L9,11L9,11.869ZM14.602,11C14.606,10.99 14.61,10.979 14.614,10.969C14.833,10.38 15.283,10.317 15.467,10.317C15.692,10.317 15.894,10.408 16.051,10.582C16.158,10.7 16.229,10.842 16.259,11L14.602,11Z" style="fill:black;fill-rule:nonzero;"/>
</svg>
