<?xml version="1.0" encoding="UTF-8" standalone="no"?>
<!DOCTYPE svg PUBLIC "-//W3C//DTD SVG 1.1//EN" "http://www.w3.org/Graphics/SVG/1.1/DTD/svg11.dtd">
<svg width="20px" height="20px" version="1.1" xmlns="http://www.w3.org/2000/svg" xmlns:xlink="http://www.w3.org/1999/xlink" xml:space="preserve" xmlns:serif="http://www.serif.com/" style="fill-rule:evenodd;clip-rule:evenodd;stroke-linecap:round;stroke-linejoin:round;stroke-miterlimit:1.5;">
    <rect x="0" y="0" width="20" height="20" style="fill-opacity:0;"/>
    <path d="M4.464,9C4.189,9 3.964,9.224 3.964,9.5L3.964,9.512C3.964,9.788 4.189,10.012 4.464,10.012L6.5,10.012C6.776,10.012 7,9.788 7,9.512L7,9.5C7,9.224 6.776,9 6.5,9L4.464,9Z" style="fill:black;"/>
    <path d="M6.463,5.718C6.271,5.52 5.954,5.516 5.756,5.709C5.559,5.901 5.554,6.218 5.747,6.416L7.142,7.849C7.334,8.047 7.651,8.051 7.849,7.858C8.047,7.666 8.051,7.349 7.858,7.151L6.463,5.718Z" style="fill:black;"/>
    <path d="M10,4.5C10,4.224 9.776,4 9.5,4C9.224,4 9,4.224 9,4.5L9,6.5C9,6.776 9.224,7 9.5,7C9.776,7 10,6.776 10,6.5L10,4.5Z" style="fill:black;"/>
    <g transform="matrix(0.836128,0,0,0.836128,10.7575,12.6019)">
        <path d="M0.888,4.662L4.444,8.25L10.456,2.27" style="fill:none;stroke:black;stroke-width:1.2px;"/>
    </g>
    <g transform="matrix(1,0,0,1,-1,-2)">
        <path d="M14.501,16.294C14.694,16.491 15.01,16.496 15.208,16.303C15.406,16.111 15.41,15.794 15.218,15.596L13.823,14.163C13.63,13.965 13.313,13.961 13.116,14.153C12.918,14.346 12.914,14.663 13.106,14.86L14.501,16.294ZM16.5,13.012C16.776,13.012 17,12.788 17,12.512L17,12.5C17,12.224 16.776,12 16.5,12L14.464,12C14.189,12 13.964,12.224 13.964,12.5L13.964,12.512C13.964,12.788 14.189,13.012 14.464,13.012L16.5,13.012Z" style="fill:black;"/>
    </g>
    <g transform="matrix(1,0,0,1,-1,-1)">
        <path d="M5.121,19L3,16.879L7.258,12.62C7.844,12.035 8.794,12.035 9.38,12.62C9.965,13.206 9.965,14.156 9.38,14.742L5.121,19ZM16.879,3L19,5.121L14.328,9.793C14.047,10.074 13.666,10.232 13.269,10.232C12.871,10.232 12.49,10.074 12.209,9.793L12.208,9.792C11.622,9.206 11.622,8.256 12.208,7.671L16.879,3Z" style="fill:black;"/>
    </g>
    <path d="M10,15.176L10,13.5C10,13.224 10.224,13 10.5,13C10.776,13 11,13.224 11,13.5L11,14.563C10.668,14.648 10.353,14.82 10.092,15.079C10.06,15.111 10.029,15.143 10,15.176Z" style="fill:black;"/>
</svg>
