<?xml version="1.0" encoding="UTF-8" standalone="no"?>
<!DOCTYPE svg PUBLIC "-//W3C//DTD SVG 1.1//EN" "http://www.w3.org/Graphics/SVG/1.1/DTD/svg11.dtd">
<svg width="20px" height="20px" version="1.1" xmlns="http://www.w3.org/2000/svg" xmlns:xlink="http://www.w3.org/1999/xlink" xml:space="preserve" xmlns:serif="http://www.serif.com/" style="fill-rule:evenodd;clip-rule:evenodd;stroke-linecap:round;stroke-linejoin:round;stroke-miterlimit:1.5;">
    <rect x="0" y="0" width="20" height="20" style="fill-opacity:0;"/>
    <g transform="matrix(0.714286,0,0,1,1.21428,-8.88178e-16)">
        <rect x="6" y="6.5" width="7" height="5" style="fill:black;stroke:black;stroke-width:1.15px;"/>
    </g>
    <g transform="matrix(1,0,0,1,-2,-2)">
        <g transform="matrix(1,0,0,1,2,3)">
            <path d="M11,8L13.5,8C13.776,8 14,8.224 14,8.5L14,13.5C14,13.776 13.776,14 13.5,14L8.5,14C8.224,14 8,13.776 8,13.5L8,11L9,10L9,13L13,13L13,9L11,9L11,8Z" style="fill:black;"/>
        </g>
        <g transform="matrix(0.571429,0,0,0.8,3.35714,3.5)">
            <rect x="2" y="2.5" width="3.5" height="2.5" style="fill:none;stroke:black;stroke-width:1.44px;"/>
        </g>
        <g transform="matrix(0.571429,0,0,0.8,15.3571,3.5)">
            <rect x="2" y="2.5" width="3.5" height="2.5" style="fill:none;stroke:black;stroke-width:1.44px;"/>
        </g>
        <g transform="matrix(0.571429,0,0,0.8,15.3571,15.5)">
            <rect x="2" y="2.5" width="3.5" height="2.5" style="fill:none;stroke:black;stroke-width:1.44px;"/>
        </g>
        <g transform="matrix(0.571429,0,0,0.8,3.35714,15.5)">
            <rect x="2" y="2.5" width="3.5" height="2.5" style="fill:none;stroke:black;stroke-width:1.44px;"/>
        </g>
        <g transform="matrix(1.1,0,0,1,0.5,3)">
            <rect x="5" y="15" width="10" height="1" style="fill:black;"/>
        </g>
        <g transform="matrix(1,0,0,1.1,2,1.5)">
            <rect x="15" y="5" width="1" height="10" style="fill:black;"/>
        </g>
        <g transform="matrix(1,0,0,1,1,2)">
            <path d="M16,5L5,5L5,16L4,16L4,5L5,5L5,4L16,4L16,5Z" style="fill:black;"/>
        </g>
    </g>
</svg>
