<?xml version="1.0" encoding="UTF-8" standalone="no"?>
<!DOCTYPE svg PUBLIC "-//W3C//DTD SVG 1.1//EN" "http://www.w3.org/Graphics/SVG/1.1/DTD/svg11.dtd">
<svg width="20px" height="20px" version="1.1" xmlns="http://www.w3.org/2000/svg" xmlns:xlink="http://www.w3.org/1999/xlink" xml:space="preserve" xmlns:serif="http://www.serif.com/" style="fill-rule:evenodd;clip-rule:evenodd;stroke-linejoin:round;stroke-miterlimit:2;">
    <rect x="0" y="0" width="20" height="20" style="fill-opacity:0;"/>
    <g transform="matrix(0.196653,0,0,0.196653,2.84265,2.90239)">
        <path d="M31.5,71.416C28.381,70.225 22.588,62.507 20.292,57.169C19.6,55.56 18.136,52.841 15.178,48.159C10.122,40.157 5.031,38.094 3.408,36.389C2.714,35.661 1.45,34.709 1.288,33.985C1.07,33.014 1.922,32.104 2.759,31.6C4.139,30.769 8.522,31.356 10.145,32.168C11.769,32.98 15.746,36.308 16.477,37.282C17.207,38.256 19.48,39.068 20.941,38.743C22.402,38.418 23.295,35.821 23.458,34.279C23.62,32.736 21.915,27.054 21.753,25.999C21.591,24.944 19.561,15.528 19.237,14.716C18.912,13.904 18.181,8.628 18.181,8.628C18.181,8.628 18.019,5.462 20.535,5.3C23.052,5.138 24.188,6.68 24.838,9.602C25.487,12.524 27.841,22.103 28.003,23.483C28.166,24.863 29.546,30.301 29.87,31.032C30.195,31.762 31.981,32.331 32.711,31.681C33.442,31.032 33.361,27.541 33.523,26.405C33.685,25.269 33.361,17.638 33.279,16.177C33.198,14.716 33.361,4.407 33.442,3.758C33.523,3.108 34.534,0.548 36.573,0.498C38.904,0.441 40.098,1.846 40.179,4.768C40.26,7.69 40.666,27.659 40.666,29.931C40.666,32.204 41.153,32.691 42.208,33.097C43.264,33.503 44.725,33.178 45.212,31.555C45.699,29.931 47.16,15.32 47.322,13.778C47.485,12.236 48.296,7.122 48.54,6.31C48.783,5.499 50.082,3.956 51.543,4.037C53.004,4.119 54.871,5.336 54.547,8.096C54.222,10.856 52.274,28.227 52.03,31.636C51.787,35.045 51.787,35.045 52.599,36.344C53.41,37.643 55.196,37.237 56.332,35.857C57.469,34.477 60.983,25.721 61.852,23.681C62.66,21.786 63.246,20.399 65.181,18.623C65.982,17.889 67.462,17.583 68.346,17.999C69.303,18.45 70.311,20.222 69.255,23.063C68.2,25.904 68.427,25.223 68.427,25.223C68.427,25.223 60.635,41.945 59.742,44.055C58.849,46.166 52.945,64.452 50.569,67.595C48.299,70.6 48.215,71.462 44.644,71.543C41.072,71.624 33.604,71.462 33.604,71.462C33.604,71.462 32.043,71.623 31.5,71.416Z" style="fill:black;"/>
    </g>
</svg>
