<?xml version="1.0" encoding="UTF-8" standalone="no"?>
<!DOCTYPE svg PUBLIC "-//W3C//DTD SVG 1.1//EN" "http://www.w3.org/Graphics/SVG/1.1/DTD/svg11.dtd">
<svg width="20px" height="20px" version="1.1" xmlns="http://www.w3.org/2000/svg" xmlns:xlink="http://www.w3.org/1999/xlink" xml:space="preserve" xmlns:serif="http://www.serif.com/" style="fill-rule:evenodd;clip-rule:evenodd;stroke-linejoin:round;stroke-miterlimit:2;">
    <rect x="0" y="0" width="20" height="20" style="fill-opacity:0;"/>
    <g transform="matrix(4.84482e-17,0.791254,-0.923102,5.65262e-17,20.3586,2.87872)">
        <path d="M8.187,6.626C8.341,6.318 8.656,6.124 9,6.124C9.344,6.124 9.659,6.318 9.813,6.626C10.797,8.594 12.434,11.868 13.342,13.684C13.483,13.966 13.468,14.301 13.302,14.569C13.137,14.837 12.844,15 12.529,15L5.471,15C5.156,15 4.863,14.837 4.698,14.569C4.532,14.301 4.517,13.966 4.658,13.684C5.566,11.868 7.203,8.594 8.187,6.626Z" style="fill:black;fill-opacity:0.4;"/>
    </g>
    <g transform="matrix(1.02418,3.19976e-23,-3.19962e-23,1.02422,-0.145143,-0.242233)">
        <path d="M15.211,9.106C15.55,9.275 15.764,9.622 15.764,10C15.764,10.378 15.55,10.725 15.211,10.894C13.047,11.977 9.445,13.777 7.448,14.776C7.137,14.931 6.769,14.915 6.474,14.732C6.179,14.551 6,14.228 6,13.882L6,6.118C6,5.772 6.179,5.449 6.474,5.268C6.769,5.085 7.137,5.069 7.448,5.224C9.445,6.223 13.047,8.023 15.211,9.106ZM13.604,9.45C13.847,9.555 14,9.767 14,10C14,10.233 13.847,10.445 13.604,10.55C12.052,11.215 9.47,12.321 8.038,12.935C7.815,13.03 7.551,13.02 7.34,12.908C7.129,12.796 7,12.598 7,12.386L7,7.614C7,7.402 7.129,7.204 7.34,7.092C7.551,6.98 7.815,6.97 8.038,7.065C9.47,7.679 12.052,8.785 13.604,9.45Z" style="fill:black;"/>
    </g>
</svg>
