<?xml version="1.0" encoding="UTF-8" standalone="no"?>
<!DOCTYPE svg PUBLIC "-//W3C//DTD SVG 1.1//EN" "http://www.w3.org/Graphics/SVG/1.1/DTD/svg11.dtd">
<svg width="20px" height="20px" version="1.1" xmlns="http://www.w3.org/2000/svg" xmlns:xlink="http://www.w3.org/1999/xlink" xml:space="preserve" xmlns:serif="http://www.serif.com/" style="fill-rule:evenodd;clip-rule:evenodd;stroke-linejoin:round;stroke-miterlimit:2;">
    <rect x="0" y="0" width="20" height="20" style="fill-opacity:0;"/>
    <path d="M17,5C17,3.896 16.104,3 15,3L5,3C3.896,3 3,3.896 3,5L3,15C3,16.104 3.896,17 5,17L15,17C16.104,17 17,16.104 17,15L17,5ZM15.24,11.825C15.129,11.702 14.986,11.638 14.827,11.638C14.697,11.638 14.379,11.682 14.224,12.098C14.185,12.203 14.174,12.259 14.121,12.253C14.032,12.244 13.685,11.873 13.571,11.329L13.29,10.013C13.512,9.653 13.741,9.374 13.969,9.186C14.092,9.086 14.232,9.033 14.401,9.024C14.834,8.994 14.991,8.94 15.098,8.865C15.273,8.738 15.37,8.555 15.37,8.35C15.37,8.168 15.301,8.007 15.171,7.883C15.046,7.763 14.878,7.699 14.688,7.699C14.408,7.699 14.094,7.829 13.727,8.095C13.51,8.253 13.28,8.481 13.032,8.788C12.951,8.487 12.883,8.347 12.831,8.263C12.673,8.002 12.416,8.002 12.331,8.002L9.624,8.065L9.772,7.441C9.865,7.033 9.989,6.711 10.137,6.482C10.21,6.371 10.321,6.238 10.437,6.238C10.481,6.238 10.567,6.246 10.73,6.279C11.181,6.377 11.35,6.388 11.437,6.388C11.631,6.388 11.802,6.323 11.931,6.201C12.064,6.074 12.134,5.908 12.134,5.72C12.134,5.574 12.086,5.362 11.857,5.185C11.699,5.062 11.481,5 11.211,5C10.807,5 10.378,5.129 9.936,5.385C9.498,5.638 9.138,5.988 8.866,6.425C8.627,6.808 8.42,7.347 8.235,8.065L7.083,8.065L6.829,9.067L7.985,9.067L7.107,12.597C6.925,13.328 6.792,13.508 6.755,13.546C6.656,13.648 6.451,13.67 6.297,13.67C6.106,13.67 5.903,13.656 5.69,13.629C5.544,13.611 5.433,13.602 5.351,13.602C5.138,13.602 4.963,13.658 4.83,13.766C4.683,13.888 4.601,14.063 4.601,14.26C4.601,14.414 4.651,14.635 4.889,14.815C5.052,14.938 5.274,15 5.549,15C6.237,15 6.879,14.726 7.456,14.187C8.017,13.663 8.429,12.892 8.678,11.896L9.373,9.067L11.74,9.108L11.995,10.201L11.476,10.967C11.382,11.104 11.243,11.273 11.061,11.471C10.966,11.575 10.902,11.632 10.866,11.662C10.716,11.48 10.547,11.387 10.363,11.387C10.19,11.387 10.033,11.458 9.909,11.592C9.791,11.718 9.729,11.877 9.729,12.05C9.729,12.257 9.818,12.442 9.986,12.584C10.14,12.714 10.33,12.78 10.551,12.78C10.825,12.78 11.105,12.676 11.384,12.47C11.617,12.297 11.917,11.956 12.3,11.427C12.546,12.135 12.896,12.59 13.062,12.78C13.324,13.08 13.748,13.259 14.196,13.259C14.575,13.259 14.791,13.1 14.98,12.959L14.997,12.947C15.329,12.702 15.399,12.431 15.399,12.248C15.398,12.085 15.344,11.939 15.24,11.825Z" style="fill:black;"/>
</svg>
