<?xml version="1.0" encoding="UTF-8" standalone="no"?>
<!DOCTYPE svg PUBLIC "-//W3C//DTD SVG 1.1//EN" "http://www.w3.org/Graphics/SVG/1.1/DTD/svg11.dtd">
<svg width="20px" height="20px" version="1.1" xmlns="http://www.w3.org/2000/svg" xmlns:xlink="http://www.w3.org/1999/xlink" xml:space="preserve" xmlns:serif="http://www.serif.com/" style="fill-rule:evenodd;clip-rule:evenodd;stroke-linecap:round;stroke-linejoin:round;stroke-miterlimit:1.5;">
    <rect x="0" y="0" width="20" height="20" style="fill-opacity:0;"/>
    <g transform="matrix(1,0,0,1,-2,0)">
        <g transform="matrix(0.769231,0,0,2,2.23077,-4.5)">
            <rect x="7.5" y="5.5" width="6.5" height="1" style="fill:black;stroke:black;stroke-width:0.66px;"/>
        </g>
        <path d="M15,2L6,2L6,7L15,7L15,2ZM8,3L7,3L7,6L8,6L8,3ZM10,3L9,3L9,6L10,6L10,3ZM12,3L11,3L11,6L12,6L12,3ZM14,3L13,3L13,6L14,6L14,3Z" style="fill:black;"/>
    </g>
    <g transform="matrix(1,0,0,1,8,0)">
        <g transform="matrix(1,0,0,1,-9,-1)">
            <path d="M12,15L13,15L13,13L14,13L14,15L16,15L16,16L14,16L14,18L16,18L16,19L14,19L14,21L13,21L13,19L12,19L12,21L11,21L11,19L9,19L9,18L11,18L11,16L9,16L9,15L11,15L11,13L12,13L12,15ZM21,13L21,21L19,21L19,15L17,15L17,13L21,13ZM13,16L12,16L12,18L13,18L13,16Z" style="fill:black;"/>
        </g>
        <g transform="matrix(1,0,0,1,-9,-1)">
            <path d="M15,11.5C15,10.672 14.328,10 13.5,10L5.5,10C4.672,10 4,10.672 4,11.5L4,16.5C4,17.328 4.672,18 5.5,18L8,18L8,19L5.5,19C4.12,19 3,17.88 3,16.5L3,11.5C3,10.12 4.12,9 5.5,9L13.5,9C14.88,9 16,10.12 16,11.5L16,14L15,14L15,11.5Z" style="fill:black;"/>
        </g>
    </g>
</svg>
