<?xml version="1.0" encoding="UTF-8" standalone="no"?>
<!DOCTYPE svg PUBLIC "-//W3C//DTD SVG 1.1//EN" "http://www.w3.org/Graphics/SVG/1.1/DTD/svg11.dtd">
<svg width="20px" height="20px" version="1.1" xmlns="http://www.w3.org/2000/svg" xmlns:xlink="http://www.w3.org/1999/xlink" xml:space="preserve" xmlns:serif="http://www.serif.com/" style="fill-rule:evenodd;clip-rule:evenodd;stroke-linejoin:round;stroke-miterlimit:2;">
    <rect x="0" y="0" width="20" height="20" style="fill-opacity:0;"/>
    <g id="RemoveMultipleKeys" transform="matrix(0.5,0,0,0.5,-52.1362,-95.4995)">
        <g transform="matrix(2.16666,0,0,2.16666,104.439,187.166)">
            <g transform="matrix(0.692311,0,0,0.692311,3.84618,0.153688)">
                <g>
                    <path d="M11,5L17,11L11,17L5,11L11,5Z" style="fill:black;fill-opacity:0.4;"/>
                    <path d="M11,5L17,11L11,17L5,11L11,5ZM6.886,11L11,15.114L15.114,11L11,6.886L6.886,11Z" style="fill:black;"/>
                </g>
            </g>
            <g transform="matrix(0.692311,0,0,0.692311,-2.61538,6.61525)">
                <g>
                    <path d="M11,5L17,11L11,17L5,11L11,5Z" style="fill:black;fill-opacity:0.4;"/>
                    <path d="M11,5L17,11L11,17L5,11L11,5ZM6.886,11L11,15.114L15.114,11L11,6.886L6.886,11Z" style="fill:black;"/>
                </g>
            </g>
        </g>
        <g transform="matrix(2,0,0,2,102.272,188.999)">
            <path d="M17.5,14C19.432,14 21,15.568 21,17.5C21,19.432 19.432,21 17.5,21C15.568,21 14,19.432 14,17.5C14,15.568 15.568,14 17.5,14ZM18,17L20,17L20,18L18,18L18,20L17,20L17,18L15,18L15,17L17,17L17,15L18,15L18,17Z" style="fill:black;"/>
        </g>
    </g>
</svg>
