<?xml version="1.0" encoding="UTF-8" standalone="no"?>
<!DOCTYPE svg PUBLIC "-//W3C//DTD SVG 1.1//EN" "http://www.w3.org/Graphics/SVG/1.1/DTD/svg11.dtd">
<svg width="20px" height="20px" version="1.1" xmlns="http://www.w3.org/2000/svg" xmlns:xlink="http://www.w3.org/1999/xlink" xml:space="preserve" xmlns:serif="http://www.serif.com/" style="fill-rule:evenodd;clip-rule:evenodd;stroke-linejoin:round;stroke-miterlimit:2;">
    <rect x="0" y="0" width="20" height="20" style="fill-opacity:0;"/>
    <g transform="matrix(1,0,0,1,-144,-61.9793)">
        <path d="M159,79L149,79C148.435,79 147.925,78.765 147.561,78.388L147.536,78.362L147.52,78.344L147.504,78.327L147.488,78.309L147.472,78.29L147.457,78.272L147.412,78.215L147.398,78.196L147.383,78.177L147.361,78.146L147.323,78.09L147.302,78.057L147.285,78.03L147.249,77.967L147.23,77.932L147.205,77.882L147.194,77.861L147.164,77.795L147.155,77.772L147.137,77.728L147.128,77.705L147.12,77.682L147.111,77.659L147.104,77.636L147.096,77.613L147.082,77.567L147.075,77.543L147.068,77.52L147.05,77.448L147.04,77.4L147.035,77.375L147.027,77.327L147.019,77.277L147.016,77.253L147.01,77.203L147.006,77.153L147.004,77.127L147.003,77.102L147.001,77.077L147.001,77.051L147,77.026L147,66.974L147.001,66.948L147.001,66.923L147.003,66.897L147.004,66.872L147.006,66.846L147.01,66.796L147.013,66.77L147.016,66.745C147.141,65.762 147.982,65 149,65L159.026,65L159.052,65.001L159.077,65.001L159.103,65.003L159.128,65.004L159.154,65.006L159.204,65.01L159.23,65.013L159.28,65.019L159.304,65.023L159.354,65.031L159.378,65.036L159.403,65.041L159.451,65.051L159.476,65.057L159.5,65.063L159.523,65.069L159.571,65.083L159.594,65.09L159.618,65.097L159.687,65.121L159.756,65.148L159.778,65.157L159.801,65.167L159.867,65.197L159.889,65.208L159.91,65.219L159.932,65.23L159.953,65.242L159.974,65.253L160.016,65.277L160.037,65.29L160.057,65.302L160.078,65.315L160.098,65.328L160.118,65.342L160.138,65.355L160.157,65.369L160.177,65.383L160.196,65.398L160.215,65.412L160.272,65.457L160.29,65.472L160.309,65.488L160.327,65.504L160.344,65.52L160.362,65.536L160.397,65.569L160.405,65.578C160.772,65.94 161,66.444 161,67L161,77C161,78.104 160.104,79 159,79ZM159.698,66.285L148.285,77.698C148.466,77.884 148.72,78 149,78L159,78C159.552,78 160,77.552 160,77L160,67C160,66.72 159.884,66.466 159.698,66.285ZM156.85,69.194C157.561,69.916 158,70.907 158,72C158,74.208 156.208,76 154,76C152.907,76 151.916,75.561 151.194,74.85L156.85,69.194ZM156.819,69.164L156.794,69.138L156.724,69.072L156.689,69.04L156.617,68.976L156.581,68.945L156.544,68.914L156.507,68.884L156.431,68.824L156.393,68.795L156.354,68.767L156.315,68.738L156.276,68.711L156.196,68.657L156.155,68.631L156.115,68.605L156.073,68.579L156.032,68.555L155.99,68.53L155.948,68.506L155.899,68.479L155.857,68.457L155.771,68.413L155.727,68.392L155.684,68.371L155.64,68.351L155.595,68.331L155.551,68.312L155.461,68.276L155.415,68.258L155.37,68.241L155.278,68.209L155.231,68.193L155.184,68.179L155.138,68.164L155.09,68.151L155.043,68.138L154.995,68.125L154.948,68.113L154.899,68.102L154.851,68.091L154.803,68.081L154.754,68.071L154.705,68.062L154.656,68.054L154.606,68.046L154.557,68.039L154.507,68.032L154.457,68.026L154.357,68.016L154.256,68.008L154.23,68.007L154.205,68.005L154.103,68.001L154.077,68.001L154.051,68L154,68C151.792,68 150,69.792 150,72L150,72.034L150.001,72.077L150.002,72.114L150.003,72.155L150.005,72.192L150.007,72.231L150.01,72.282L150.018,72.384L150.023,72.434L150.035,72.534L150.042,72.584L150.05,72.634L150.058,72.683L150.076,72.781L150.086,72.83L150.097,72.879L150.108,72.927L150.132,73.023L150.145,73.071L150.187,73.212L150.203,73.259L150.218,73.306L150.235,73.352L150.251,73.398L150.269,73.443L150.287,73.489L150.305,73.534L150.324,73.579L150.344,73.623L150.364,73.668L150.384,73.712L150.405,73.755L150.427,73.799L150.449,73.842L150.472,73.885L150.518,73.969L150.542,74.011L150.567,74.053L150.592,74.094L150.644,74.176L150.67,74.216L150.697,74.256L150.725,74.295L150.752,74.334L150.81,74.412L150.839,74.45L150.869,74.488L150.929,74.562L150.96,74.599L151.056,74.707L151.122,74.777L151.155,74.811L151.164,74.819L156.819,69.164Z" style="fill:black;"/>
    </g>
</svg>
