<?xml version="1.0" encoding="UTF-8" standalone="no"?>
<!DOCTYPE svg PUBLIC "-//W3C//DTD SVG 1.1//EN" "http://www.w3.org/Graphics/SVG/1.1/DTD/svg11.dtd">
<svg width="20px" height="20px" version="1.1" xmlns="http://www.w3.org/2000/svg" xmlns:xlink="http://www.w3.org/1999/xlink" xml:space="preserve" xmlns:serif="http://www.serif.com/" style="fill-rule:evenodd;clip-rule:evenodd;stroke-linecap:round;stroke-linejoin:round;stroke-miterlimit:1.5;">
    <rect x="0" y="0" width="20" height="20" style="fill-opacity:0;"/>
    <g transform="matrix(-0.571429,0,0,0.8,17.6428,1.5)">
        <rect x="2" y="2.5" width="3.5" height="2.5" style="fill:none;stroke:black;stroke-width:1.44px;"/>
    </g>
    <g transform="matrix(-0.571429,0,0,0.8,5.64286,1.5)">
        <rect x="2" y="2.5" width="3.5" height="2.5" style="fill:none;stroke:black;stroke-width:1.44px;"/>
    </g>
    <g transform="matrix(-0.571429,0,0,0.8,5.64286,13.5)">
        <rect x="2" y="2.5" width="3.5" height="2.5" style="fill:none;stroke:black;stroke-width:1.44px;"/>
    </g>
    <g transform="matrix(-0.571429,0,0,0.8,17.6428,13.5)">
        <rect x="2" y="2.5" width="3.5" height="2.5" style="fill:none;stroke:black;stroke-width:1.44px;"/>
    </g>
    <g transform="matrix(-1.1,0,0,1,20.5,1)">
        <rect x="5" y="15" width="10" height="1" style="fill:black;"/>
    </g>
    <g transform="matrix(-1,0,0,1.1,19,-0.5)">
        <rect x="15" y="5" width="1" height="10" style="fill:black;"/>
    </g>
    <g>
        <g>
            <path d="M16,15L16,16L15,16L15,15L16,15ZM15,6L15,5L4,5L4,4L15,4L15,5L16,5L16,6L15,6Z" style="fill:black;"/>
        </g>
    </g>
    <g transform="matrix(1,0,0,1,-1.48059,1.00474)">
        <path d="M10.481,10L10.481,9L16.481,9L16.481,5.995L19.981,9.498L16.481,13L16.481,10L10.481,10Z" style="fill:black;"/>
    </g>
</svg>
