<?xml version="1.0" encoding="UTF-8" standalone="no"?>
<!DOCTYPE svg PUBLIC "-//W3C//DTD SVG 1.1//EN" "http://www.w3.org/Graphics/SVG/1.1/DTD/svg11.dtd">
<svg width="20px" height="20px" version="1.1" xmlns="http://www.w3.org/2000/svg" xmlns:xlink="http://www.w3.org/1999/xlink" xml:space="preserve" xmlns:serif="http://www.serif.com/" style="fill-rule:evenodd;clip-rule:evenodd;stroke-linejoin:round;stroke-miterlimit:2;">
    <rect x="0" y="0" width="20" height="20" style="fill-opacity:0;"/>
    <path d="M19,19L19,16.5C19,16.224 19.224,16 19.5,16C19.776,16 20,16.224 20,16.5L20,19.5C20,19.776 19.776,20 19.5,20L11.5,20C11.224,20 11,19.776 11,19.5L11,16.5C11,16.224 11.224,16 11.5,16C11.776,16 12,16.224 12,16.5L12,19L19,19ZM15,16.293L15,10.5C15,10.224 15.224,10 15.5,10C15.776,10 16,10.224 16,10.5L16,16.293L18.146,14.146C18.342,13.951 18.658,13.951 18.854,14.146C19.049,14.342 19.049,14.658 18.854,14.854L15.815,17.888L15.796,17.903C15.763,17.927 15.728,17.947 15.692,17.962L15.691,17.962C15.632,17.987 15.567,18 15.5,18C15.433,18 15.368,17.987 15.309,17.962L15.308,17.962C15.249,17.937 15.194,17.901 15.146,17.854L12.146,14.854C11.951,14.658 11.951,14.342 12.146,14.146C12.342,13.951 12.658,13.951 12.854,14.146L15,16.293Z"/>
    <path d="M18,13.085C17.796,13.157 17.604,13.274 17.441,13.437L17,13.878L17,10.5C17,9.672 16.328,9 15.5,9C14.672,9 14,9.672 14,10.5L14,13.878L13.559,13.437C12.973,12.854 12.027,12.854 11.441,13.437C11.003,13.877 10.892,14.514 11.105,15.053C10.468,15.226 10,15.809 10,16.5L10,17L3,17C2.448,17 2,16.552 2,16L2,7L18,7L18,13.085ZM3.814,3L4.886,6L2,6L2,4C2,3.735 2.105,3.48 2.293,3.293C2.48,3.105 2.735,3 3,3L3.814,3ZM14.885,3L18,3L18,6L15.956,6L14.885,3ZM9.386,6L6.956,6L5.885,3L8.314,3L9.386,6ZM13.886,6L11.456,6L10.385,3L12.814,3L13.886,6Z"/>
</svg>
