<?xml version="1.0" encoding="UTF-8" standalone="no"?>
<!DOCTYPE svg PUBLIC "-//W3C//DTD SVG 1.1//EN" "http://www.w3.org/Graphics/SVG/1.1/DTD/svg11.dtd">
<svg width="20px" height="20px" version="1.1" xmlns="http://www.w3.org/2000/svg" xmlns:xlink="http://www.w3.org/1999/xlink" xml:space="preserve" xmlns:serif="http://www.serif.com/" style="fill-rule:evenodd;clip-rule:evenodd;stroke-linejoin:round;stroke-miterlimit:2;">
    <rect x="0" y="0" width="20" height="20" style="fill-opacity:0;"/>
    <g transform="matrix(6.12323e-17,1,-1,6.12323e-17,20.0006,-0.5)">
        <path d="M14.2,10.5L17,11.5L10,14L3,11.5L5.8,10.5L10,12L14.2,10.5Z" style="fill:black;"/>
    </g>
    <g transform="matrix(0.707107,0.707107,-0.707107,0.707107,10.0864,-4.43503)">
        <path d="M12.621,7.086L5.904,3.904L9.086,10.621L15.803,13.803L12.621,7.086Z" style="fill:black;"/>
    </g>
    <g transform="matrix(-6.12324e-17,1,1,6.12324e-17,-6.99938,2)">
        <path d="M7.5,10.793L10.146,8.145C10.342,7.95 10.658,7.95 10.854,8.145C11.049,8.341 11.049,8.657 10.854,8.853L7.815,11.888L7.796,11.903C7.763,11.927 7.728,11.947 7.692,11.962L7.691,11.962C7.632,11.987 7.567,12 7.5,12C7.433,12 7.368,11.987 7.309,11.962L7.308,11.962C7.249,11.937 7.194,11.901 7.146,11.854L4.146,8.854C3.951,8.658 3.951,8.342 4.146,8.146C4.342,7.951 4.658,7.951 4.854,8.146L7.5,10.793Z" style="fill:black;"/>
    </g>
    <g transform="matrix(1.83697e-16,1,-1,1.83697e-16,26.9994,2)">
        <path d="M7.5,10.793L10.146,8.145C10.342,7.95 10.658,7.95 10.854,8.145C11.049,8.341 11.049,8.657 10.854,8.853L7.815,11.888L7.796,11.903C7.763,11.927 7.728,11.947 7.692,11.962L7.691,11.962C7.632,11.987 7.567,12 7.5,12C7.433,12 7.368,11.987 7.309,11.962L7.308,11.962C7.249,11.937 7.194,11.901 7.146,11.854L4.146,8.854C3.951,8.658 3.951,8.342 4.146,8.146C4.342,7.951 4.658,7.951 4.854,8.146L7.5,10.793Z" style="fill:black;"/>
    </g>
</svg>
