<?xml version="1.0" encoding="UTF-8" standalone="no"?>
<!DOCTYPE svg PUBLIC "-//W3C//DTD SVG 1.1//EN" "http://www.w3.org/Graphics/SVG/1.1/DTD/svg11.dtd">
<svg width="20px" height="20px" version="1.1" xmlns="http://www.w3.org/2000/svg" xmlns:xlink="http://www.w3.org/1999/xlink" xml:space="preserve" xmlns:serif="http://www.serif.com/" style="fill-rule:evenodd;clip-rule:evenodd;stroke-linejoin:round;stroke-miterlimit:2;">
    <rect x="0" y="0" width="20" height="20" style="fill-opacity:0;"/>
    <g transform="matrix(6.12323e-17,1,-1,6.12323e-17,20.0006,-1.5)">
        <path d="M14.2,10.5L17,11.5L10,14L3,11.5L5.8,10.5L10,12L14.2,10.5Z" style="fill:black;"/>
    </g>
    <g transform="matrix(0.707107,0.707107,-0.707107,0.707107,10.0864,-5.43503)">
        <path d="M12.621,7.086L5.904,3.904L9.086,10.621L15.803,13.803L12.621,7.086Z" style="fill:black;"/>
    </g>
    <g transform="matrix(-6.12324e-17,1,1,6.12324e-17,-6.99938,1)">
        <path d="M7.5,10.793L10.146,8.145C10.342,7.95 10.658,7.95 10.854,8.145C11.049,8.341 11.049,8.657 10.854,8.853L7.815,11.888L7.796,11.903C7.763,11.927 7.728,11.947 7.692,11.962L7.691,11.962C7.632,11.987 7.567,12 7.5,12C7.433,12 7.368,11.987 7.309,11.962L7.308,11.962C7.249,11.937 7.194,11.901 7.146,11.854L4.146,8.854C3.951,8.658 3.951,8.342 4.146,8.146C4.342,7.951 4.658,7.951 4.854,8.146L7.5,10.793Z" style="fill:black;"/>
    </g>
    <g transform="matrix(1.83697e-16,1,-1,1.83697e-16,26.9994,1)">
        <path d="M7.5,10.793L10.146,8.145C10.342,7.95 10.658,7.95 10.854,8.145C11.049,8.341 11.049,8.657 10.854,8.853L7.815,11.888L7.796,11.903C7.763,11.927 7.728,11.947 7.692,11.962L7.691,11.962C7.632,11.987 7.567,12 7.5,12C7.433,12 7.368,11.987 7.309,11.962L7.308,11.962C7.249,11.937 7.194,11.901 7.146,11.854L4.146,8.854C3.951,8.658 3.951,8.342 4.146,8.146C4.342,7.951 4.658,7.951 4.854,8.146L7.5,10.793Z" style="fill:black;"/>
    </g>
    <g transform="matrix(1,0,0,1,0.000625,9.63332e-05)">
        <path d="M18.854,19.854C18.907,19.8 18.949,19.734 18.974,19.658L19.974,16.658C20.062,16.396 19.92,16.113 19.658,16.026C19.396,15.938 19.113,16.08 19.026,16.342L18.5,17.919L17.974,16.342C17.887,16.08 17.604,15.938 17.342,16.026C17.08,16.113 16.938,16.396 17.026,16.658L18.026,19.658C18.051,19.734 18.093,19.8 18.146,19.854C18.2,19.907 18.266,19.949 18.342,19.974C18.393,19.992 18.446,20 18.497,20L18.503,20C18.554,20 18.607,19.992 18.658,19.974C18.734,19.949 18.8,19.907 18.854,19.854ZM11.5,16L9.5,16C9.224,16 9,16.224 9,16.5C9,16.776 9.224,17 9.5,17L10,17L10,19.5C10,19.776 10.224,20 10.5,20C10.776,20 11,19.776 11,19.5L11,17L11.5,17C11.776,17 12,16.776 12,16.5C12,16.224 11.776,16 11.5,16ZM14,19L14,16.5C14,16.224 13.776,16 13.5,16C13.224,16 13,16.224 13,16.5L13,19.5C13,19.776 13.224,20 13.5,20L15.5,20C15.776,20 16,19.776 16,19.5C16,19.224 15.776,19 15.5,19L14,19Z" style="fill:black;"/>
    </g>
</svg>
