<?xml version="1.0" encoding="UTF-8" standalone="no"?>
<!DOCTYPE svg PUBLIC "-//W3C//DTD SVG 1.1//EN" "http://www.w3.org/Graphics/SVG/1.1/DTD/svg11.dtd">
<svg width="20px" height="20px" version="1.1" xmlns="http://www.w3.org/2000/svg" xmlns:xlink="http://www.w3.org/1999/xlink" xml:space="preserve" xmlns:serif="http://www.serif.com/" style="fill-rule:evenodd;clip-rule:evenodd;stroke-linejoin:round;stroke-miterlimit:2;">
    <rect x="0" y="0" width="20" height="20" style="fill-opacity:0;"/>
    <g transform="matrix(0.88003,0,0,0.88003,0.31967,1.02217)">
        <path d="M6.39,4.654C6.854,2.365 8.288,0.83 10.691,0.049C10.892,-0.016 11.108,-0.016 11.309,0.049C13.712,0.83 15.146,2.365 15.61,4.654C17.932,4.389 19.835,5.278 21.32,7.322C21.444,7.493 21.511,7.699 21.511,7.91C21.511,10.436 20.494,12.274 18.46,13.424C19.43,15.549 19.172,17.634 17.687,19.678C17.563,19.849 17.388,19.976 17.187,20.041C14.784,20.822 12.722,20.423 11,18.843C9.278,20.423 7.216,20.822 4.813,20.041C4.612,19.976 4.437,19.849 4.313,19.678C2.828,17.634 2.57,15.549 3.54,13.424C1.506,12.274 0.489,10.436 0.489,7.91C0.489,7.699 0.556,7.493 0.68,7.322C2.165,5.278 4.068,4.389 6.39,4.654ZM11,1C8.658,1.761 7.405,3.37 7.242,5.827C4.854,5.223 2.937,5.918 1.489,7.91C1.489,10.372 2.633,12.061 4.919,12.976C3.607,15.06 3.675,17.098 5.122,19.09C7.464,19.851 9.424,19.286 11,17.394C12.576,19.286 14.536,19.851 16.878,19.09C18.325,17.098 18.393,15.06 17.081,12.976C19.367,12.061 20.511,10.372 20.511,7.91C19.063,5.918 17.146,5.223 14.758,5.827C14.595,3.37 13.342,1.761 11,1ZM11,7.675C12.835,7.675 14.325,9.165 14.325,11C14.325,12.835 12.835,14.325 11,14.325C9.165,14.325 7.675,12.835 7.675,11C7.675,9.165 9.165,7.675 11,7.675ZM11,8.675C12.283,8.675 13.325,9.717 13.325,11C13.325,12.283 12.283,13.325 11,13.325C9.717,13.325 8.675,12.283 8.675,11C8.675,9.717 9.717,8.675 11,8.675Z" style="fill:black;"/>
    </g>
</svg>
