<?xml version="1.0" encoding="UTF-8" standalone="no"?>
<!DOCTYPE svg PUBLIC "-//W3C//DTD SVG 1.1//EN" "http://www.w3.org/Graphics/SVG/1.1/DTD/svg11.dtd">
<svg width="20px" height="20px" version="1.1" xmlns="http://www.w3.org/2000/svg" xmlns:xlink="http://www.w3.org/1999/xlink" xml:space="preserve" xmlns:serif="http://www.serif.com/" style="fill-rule:evenodd;clip-rule:evenodd;stroke-linejoin:round;stroke-miterlimit:2;">
    <rect x="0" y="0" width="20" height="20" style="fill-opacity:0;"/>
    <g transform="matrix(0.88003,0,0,0.88003,0.31967,1.02217)">
        <path d="M6.39,4.654C6.854,2.365 8.288,0.83 10.691,0.049C10.892,-0.016 11.108,-0.016 11.309,0.049C13.712,0.83 15.146,2.365 15.61,4.654C17.932,4.389 19.835,5.278 21.32,7.322C21.444,7.493 21.511,7.699 21.511,7.91C21.511,10.436 20.494,12.274 18.46,13.424C19.43,15.549 19.172,17.634 17.687,19.678C17.563,19.849 17.388,19.976 17.187,20.041C14.784,20.822 12.722,20.423 11,18.843C9.278,20.423 7.216,20.822 4.813,20.041C4.612,19.976 4.437,19.849 4.313,19.678C2.828,17.634 2.57,15.549 3.54,13.424C1.506,12.274 0.489,10.436 0.489,7.91C0.489,7.699 0.556,7.493 0.68,7.322C2.165,5.278 4.068,4.389 6.39,4.654ZM11,1C8.658,1.761 7.405,3.37 7.242,5.827C4.854,5.223 2.937,5.918 1.489,7.91C1.489,10.372 2.633,12.061 4.919,12.976C3.607,15.06 3.675,17.098 5.122,19.09C7.464,19.851 9.424,19.286 11,17.394C12.576,19.286 14.536,19.851 16.878,19.09C18.325,17.098 18.393,15.06 17.081,12.976C19.367,12.061 20.511,10.372 20.511,7.91C19.063,5.918 17.146,5.223 14.758,5.827C14.595,3.37 13.342,1.761 11,1ZM11,7.675C12.835,7.675 14.325,9.165 14.325,11C14.325,12.835 12.835,14.325 11,14.325C9.165,14.325 7.675,12.835 7.675,11C7.675,9.165 9.165,7.675 11,7.675ZM11,8.675C12.283,8.675 13.325,9.717 13.325,11C13.325,12.283 12.283,13.325 11,13.325C9.717,13.325 8.675,12.283 8.675,11C8.675,9.717 9.717,8.675 11,8.675Z" style="fill:black;"/>
    </g>
    <g transform="matrix(0.88003,0,0,0.88003,0.31967,0.76591)">
        <path d="M11,2.352C9.286,3.011 8.366,4.289 8.24,6.185C8.22,6.481 8.07,6.753 7.83,6.927C7.589,7.102 7.284,7.161 6.997,7.088C5.155,6.622 3.655,7.102 2.499,8.529C2.596,10.363 3.526,11.633 5.291,12.339C5.566,12.449 5.778,12.676 5.87,12.958C5.962,13.24 5.923,13.549 5.765,13.8C4.753,15.408 4.746,16.982 5.746,18.523C7.52,18.997 9.015,18.505 10.232,17.045C10.422,16.817 10.703,16.685 11,16.685C11.297,16.685 11.578,16.817 11.768,17.045C12.985,18.505 14.48,18.997 16.254,18.523C17.254,16.982 17.247,15.408 16.235,13.8C16.077,13.549 16.038,13.24 16.13,12.958C16.222,12.676 16.434,12.449 16.709,12.339C18.474,11.633 19.404,10.363 19.501,8.529C18.345,7.102 16.845,6.622 15.003,7.088C14.716,7.161 14.411,7.102 14.17,6.927C13.93,6.753 13.78,6.481 13.76,6.185C13.634,4.289 12.714,3.011 11,2.352ZM11,6.967C8.613,6.967 6.675,8.904 6.675,11.291C6.675,13.678 8.613,15.616 11,15.616C13.387,15.616 15.325,13.678 15.325,11.291C15.325,8.904 13.387,6.967 11,6.967Z" style="fill:black;"/>
    </g>
</svg>
