<?xml version="1.0" encoding="UTF-8" standalone="no"?>
<!DOCTYPE svg PUBLIC "-//W3C//DTD SVG 1.1//EN" "http://www.w3.org/Graphics/SVG/1.1/DTD/svg11.dtd">
<svg width="20px" height="20px" version="1.1" xmlns="http://www.w3.org/2000/svg" xmlns:xlink="http://www.w3.org/1999/xlink" xml:space="preserve" xmlns:serif="http://www.serif.com/" style="fill-rule:evenodd;clip-rule:evenodd;stroke-linejoin:round;stroke-miterlimit:2;">
    <rect x="0" y="0" width="20" height="20" style="fill-opacity:0;"/>
    <g transform="matrix(1,0,0,1,-1,-1)">
        <path d="M19.144,9.387C19.144,9.387 18.937,7.834 18.184,6.582C17.615,5.634 16.747,4.872 15.511,4.85C13.725,4.819 12.76,5.784 12.161,6.766C11.827,7.312 11.627,7.861 11.444,8.164C10.992,8.912 8.782,14.098 7.986,15.064C7.548,15.597 6.327,16.206 5.322,15.374C4.266,14.5 4.132,13.554 4.15,12.511C4.156,12.152 3.87,11.856 3.511,11.85C3.152,11.844 2.856,12.13 2.85,12.489C2.826,13.912 3.052,15.184 4.494,16.376C6.189,17.778 8.25,16.789 8.99,15.89C9.804,14.9 12.094,9.602 12.556,8.836C12.739,8.534 12.938,7.987 13.27,7.443C13.669,6.79 14.3,6.129 15.489,6.15C16.236,6.163 16.725,6.678 17.07,7.252C17.688,8.281 17.856,9.557 17.856,9.557C17.903,9.913 18.23,10.164 18.585,10.116C18.941,10.069 19.192,9.742 19.144,9.387Z" style="fill:black;"/>
    </g>
</svg>
