<?xml version="1.0" encoding="UTF-8" standalone="no"?>
<!DOCTYPE svg PUBLIC "-//W3C//DTD SVG 1.1//EN" "http://www.w3.org/Graphics/SVG/1.1/DTD/svg11.dtd">
<svg width="20px" height="20px" version="1.1" xmlns="http://www.w3.org/2000/svg" xmlns:xlink="http://www.w3.org/1999/xlink" xml:space="preserve" xmlns:serif="http://www.serif.com/" style="fill-rule:evenodd;clip-rule:evenodd;stroke-linejoin:round;stroke-miterlimit:2;">
    <rect x="0" y="0" width="20" height="20" style="fill-opacity:0;"/>
    <g>
        <path d="M17,16.5C17,17.328 16.328,18 15.5,18C12.18,18 4.5,18 4.5,18C3.672,18 3,17.328 3,16.5L3,3.5C3,2.672 3.672,2 4.5,2L13,2L17,6L17,16.5ZM16,16L16,15L12,11L9,14L7,13L4,16L16,16ZM6.5,8C7.328,8 8,8.672 8,9.5C8,10.328 7.328,11 6.5,11C5.672,11 5,10.328 5,9.5C5,8.672 5.672,8 6.5,8ZM12,3L16,7L12,7L12,3Z" style="fill:black;"/>
    </g>
</svg>
