<?xml version="1.0" encoding="UTF-8" standalone="no"?>
<!DOCTYPE svg PUBLIC "-//W3C//DTD SVG 1.1//EN" "http://www.w3.org/Graphics/SVG/1.1/DTD/svg11.dtd">
<svg width="20px" height="20px" version="1.1" xmlns="http://www.w3.org/2000/svg" xmlns:xlink="http://www.w3.org/1999/xlink" xml:space="preserve" xmlns:serif="http://www.serif.com/" style="fill-rule:evenodd;clip-rule:evenodd;stroke-linejoin:round;stroke-miterlimit:2;">
    <g transform="matrix(0.9,0,0,0.9,1,1)">
        <rect x="0" y="0" width="20" height="20" style="fill-opacity:0;"/>
    </g>
    <path d="M3.814,2L4.886,6L2,6L2,3C2,2.735 2.105,2.48 2.293,2.293C2.48,2.105 2.735,2 3,2C3.42,2 3.814,2 3.814,2ZM9.386,6L6.956,6L5.885,2L8.314,2L9.386,6ZM13.886,6L11.456,6L10.385,2L12.814,2L13.886,6ZM14.885,2L18,2L18,6L15.956,6L14.885,2Z" style="fill:black;"/>
    <g transform="matrix(1,0,0,1,-1,-1)">
        <path d="M17.5,14C19.432,14 21,15.568 21,17.5C21,19.432 19.432,21 17.5,21C15.568,21 14,19.432 14,17.5C14,15.568 15.568,14 17.5,14ZM18,17L20,17L20,18L18,18L18,20L17,20L17,18L15,18L15,17L17,17L17,15L18,15L18,17Z" style="fill:black;"/>
    </g>
    <path d="M18,12.256C17.531,12.09 17.026,12 16.5,12C14.016,12 12,14.016 12,16.5C12,17.026 12.09,17.531 12.256,18L3,18C2.448,18 2,17.552 2,17L2,7L18,7L18,12.256Z" style="fill:black;"/>
</svg>
