<?xml version="1.0" encoding="UTF-8" standalone="no"?>
<!DOCTYPE svg PUBLIC "-//W3C//DTD SVG 1.1//EN" "http://www.w3.org/Graphics/SVG/1.1/DTD/svg11.dtd">
<svg width="20px" height="20px" version="1.1" xmlns="http://www.w3.org/2000/svg" xmlns:xlink="http://www.w3.org/1999/xlink" xml:space="preserve" xmlns:serif="http://www.serif.com/" style="fill-rule:evenodd;clip-rule:evenodd;stroke-linejoin:round;stroke-miterlimit:2;">
    <rect x="0" y="0" width="20" height="20" style="fill-opacity:0;"/>
    <path d="M17,16.5C17,17.328 16.328,18 15.5,18C12.18,18 4.5,18 4.5,18C3.672,18 3,17.328 3,16.5L3,3.5C3,2.672 3.672,2 4.5,2L13,2L17,6L17,16.5ZM7,14L5,14L5,16L7,16L7,14ZM15,14L13,14L13,16L15,16L15,14ZM6.662,13.5C6.827,12.391 7.532,11.458 8.5,10.976L8.5,9.756C6.904,10.321 5.72,11.762 5.528,13.5L6.662,13.5ZM14.472,13.5C14.28,11.762 13.096,10.321 11.5,9.756L11.5,10.976C12.468,11.458 13.173,12.391 13.338,13.5L14.472,13.5ZM11,9L9,9L9,11L11,11L11,9ZM12,3L16,7L12,7L12,3Z" style="fill:black;"/>
</svg>
