<?xml version="1.0" encoding="UTF-8" standalone="no"?>
<!DOCTYPE svg PUBLIC "-//W3C//DTD SVG 1.1//EN" "http://www.w3.org/Graphics/SVG/1.1/DTD/svg11.dtd">
<svg width="20px" height="20px" version="1.1" xmlns="http://www.w3.org/2000/svg" xmlns:xlink="http://www.w3.org/1999/xlink" xml:space="preserve" xmlns:serif="http://www.serif.com/" style="fill-rule:evenodd;clip-rule:evenodd;stroke-linejoin:round;stroke-miterlimit:2;">
    <rect x="0" y="0" width="20" height="20" style="fill-opacity:0;"/>
    <g>
        <path d="M17,16.5C17,17.328 16.328,18 15.5,18C12.18,18 4.5,18 4.5,18C3.672,18 3,17.328 3,16.5L3,3.5C3,2.672 3.672,2 4.5,2L13,2L17,6L17,16.5ZM13,14.5C13,14.367 12.927,14.24 12.796,14.146C12.664,14.053 12.486,14 12.3,14L6.7,14C6.515,14 6.336,14.053 6.204,14.146C6.074,14.24 6,14.367 6,14.5C6,14.633 6.074,14.76 6.204,14.854C6.336,14.947 6.515,15 6.7,15L12.3,15C12.486,15 12.664,14.947 12.796,14.854C12.927,14.76 13,14.633 13,14.5ZM11,11.5C11,11.367 10.948,11.24 10.854,11.146C10.76,11.053 10.633,11 10.5,11L6.5,11C6.368,11 6.24,11.053 6.146,11.146C6.053,11.24 6,11.367 6,11.5C6,11.633 6.053,11.76 6.146,11.854C6.24,11.947 6.368,12 6.5,12L10.5,12C10.633,12 10.76,11.947 10.854,11.854C10.948,11.76 11,11.633 11,11.5ZM14,8.5C14,8.224 13.776,8 13.5,8L6.5,8C6.224,8 6,8.224 6,8.5C6,8.776 6.224,9 6.5,9L13.5,9C13.776,9 14,8.776 14,8.5ZM12,3L16,7L12,7L12,3Z" style="fill:black;"/>
    </g>
</svg>
