<?xml version="1.0" encoding="UTF-8" standalone="no"?>
<!DOCTYPE svg PUBLIC "-//W3C//DTD SVG 1.1//EN" "http://www.w3.org/Graphics/SVG/1.1/DTD/svg11.dtd">
<svg width="20px" height="20px" version="1.1" xmlns="http://www.w3.org/2000/svg" xmlns:xlink="http://www.w3.org/1999/xlink" xml:space="preserve" xmlns:serif="http://www.serif.com/" style="fill-rule:evenodd;clip-rule:evenodd;stroke-linejoin:round;stroke-miterlimit:2;">
    <rect x="0" y="0" width="20" height="20" style="fill-opacity:0;"/>
    <g>
        <g>
            <path d="M4.5,16C4.102,16 3.721,15.842 3.439,15.561C3.158,15.279 3,14.898 3,14.5L3,5.5C3,4.672 3.672,4 4.5,4L7.5,4C8.328,4 9,4.672 9,5.5L9,7L15.5,7C16.328,7 17,7.672 17,8.5L17,14.5C17,14.898 16.842,15.279 16.561,15.561C16.279,15.842 15.898,16 15.5,16L4.5,16ZM8,8L8,5.5C8,5.224 7.776,5 7.5,5L4.5,5C4.224,5 4,5.224 4,5.5L4,14.5C4,14.633 4.053,14.76 4.146,14.854C4.24,14.947 4.367,15 4.5,15L15.5,15C15.776,15 16,14.776 16,14.5L16,8.5C16,8.224 15.776,8 15.5,8L8,8Z" style="fill:black;"/>
        </g>
    </g>
    <rect x="12" y="4.5" width="1" height="3" style="fill:black;"/>
    <path d="M15.5,4C15.898,4 16.279,4.158 16.561,4.439C16.842,4.721 17,5.102 17,5.5L17,9L16,9L16,5.5C16,5.367 15.947,5.24 15.854,5.146C15.76,5.053 15.633,5 15.5,5L7,5L7,4L15.5,4Z" style="fill:black;"/>
</svg>
