<?xml version="1.0" encoding="UTF-8" standalone="no"?>
<!DOCTYPE svg PUBLIC "-//W3C//DTD SVG 1.1//EN" "http://www.w3.org/Graphics/SVG/1.1/DTD/svg11.dtd">
<svg width="20px" height="20px" version="1.1" xmlns="http://www.w3.org/2000/svg" xmlns:xlink="http://www.w3.org/1999/xlink" xml:space="preserve" xmlns:serif="http://www.serif.com/" style="fill-rule:evenodd;clip-rule:evenodd;stroke-linejoin:round;stroke-miterlimit:2;">
    <rect x="0" y="0" width="20" height="20" style="fill-opacity:0;"/>
    <g transform="matrix(1,0,0,1,-879.95,-18)">
        <g transform="matrix(0.75,0,0,1,224.7,0)">
            <path d="M889,23.75C889,23.336 888.552,23 888,23C887.448,23 887,23.336 887,23.75L887,25.25C887,25.664 887.448,26 888,26C888.552,26 889,25.664 889,25.25L889,23.75Z" style="fill:black;"/>
        </g>
        <g transform="matrix(1,0,0,1,-20.05,0)">
            <g transform="matrix(1.33333,0,0,1.33333,892,18)">
                <path d="M12.75,10.5C12.75,10.086 12.414,9.75 12,9.75L9.75,9.75L9.75,8.25L11.25,8.25C12.075,8.25 12.75,7.582 12.75,6.75L12.75,5.25C12.75,4.417 12.075,3.75 11.25,3.75L9,3.75C8.586,3.75 8.25,4.086 8.25,4.5C8.25,4.914 8.586,5.25 9,5.25L11.25,5.25L11.25,6.75L9.75,6.75C8.925,6.75 8.25,7.418 8.25,8.25L8.25,10.5C8.25,10.699 8.329,10.89 8.47,11.03C8.61,11.171 8.801,11.25 9,11.25L12,11.25C12.199,11.25 12.39,11.171 12.53,11.03C12.671,10.89 12.75,10.699 12.75,10.5Z" style="fill:black;fill-rule:nonzero;"/>
            </g>
            <g transform="matrix(1.30075,0,0,1.23003,911.594,32.8704)">
                <text x="0px" y="0px" style="font-family:'ArialMT', 'Arial', sans-serif;font-size:9px;fill:black;">s</text>
            </g>
        </g>
    </g>
</svg>
