<?xml version="1.0" encoding="UTF-8" standalone="no"?>
<!DOCTYPE svg PUBLIC "-//W3C//DTD SVG 1.1//EN" "http://www.w3.org/Graphics/SVG/1.1/DTD/svg11.dtd">
<svg width="20px" height="20px" version="1.1" xmlns="http://www.w3.org/2000/svg" xmlns:xlink="http://www.w3.org/1999/xlink" xml:space="preserve" xmlns:serif="http://www.serif.com/" style="fill-rule:evenodd;clip-rule:evenodd;stroke-linejoin:round;stroke-miterlimit:2;">
    <rect x="0" y="0" width="20" height="20" style="fill-opacity:0;"/>
    <path d="M5.655,14.345C3.746,13.413 2.36,11.574 2.061,9.39L2.002,8.675L2,8.5C2,4.927 4.89,2.023 8.458,2L8.542,2L9.275,2.046L9.39,2.061C11.574,2.36 13.413,3.746 14.345,5.655C16.508,6.711 18,8.932 18,11.5C18,15.087 15.087,18 11.5,18C8.932,18 6.711,16.508 5.655,14.345ZM14.858,7.145C14.951,7.582 15,8.035 15,8.5C15,12.087 12.087,15 8.5,15C8.035,15 7.582,14.951 7.145,14.858C8.151,16.161 9.728,17 11.5,17C14.536,17 17,14.536 17,11.5C17,9.728 16.161,8.151 14.858,7.145ZM6.015,11.091C6.005,11.226 6,11.362 6,11.5C6,12.239 6.146,12.944 6.411,13.589C7.055,13.854 7.761,14 8.5,14C8.638,14 8.774,13.995 8.909,13.985L6.015,11.091ZM7.217,8.051C6.78,8.592 6.444,9.218 6.237,9.899L10.101,13.763C10.782,13.556 11.408,13.22 11.949,12.783L7.217,8.051ZM9.708,6.299C9.043,6.528 8.435,6.882 7.913,7.332L12.668,12.087C13.118,11.565 13.472,10.957 13.701,10.292L9.708,6.299ZM13.589,6.411C12.944,6.146 12.239,6 11.5,6C11.284,6 11.07,6.013 10.86,6.037L13.963,9.14C13.987,8.93 14,8.716 14,8.5C14,7.761 13.854,7.055 13.589,6.411Z" style="fill:black;"/>
</svg>
