<?xml version="1.0" encoding="UTF-8" standalone="no"?>
<!DOCTYPE svg PUBLIC "-//W3C//DTD SVG 1.1//EN" "http://www.w3.org/Graphics/SVG/1.1/DTD/svg11.dtd">
<svg width="20px" height="20px" version="1.1" xmlns="http://www.w3.org/2000/svg" xmlns:xlink="http://www.w3.org/1999/xlink" xml:space="preserve" xmlns:serif="http://www.serif.com/" style="fill-rule:evenodd;clip-rule:evenodd;stroke-linejoin:round;stroke-miterlimit:2;">
    <rect x="0" y="0" width="20" height="20" style="fill-opacity:0;"/>
    <g>
        <path d="M9,8L9,3.5C9,3.224 9.224,3 9.5,3L13.5,3C13.776,3 14,3.224 14,3.5L14,4.5C14,4.776 13.776,5 13.5,5L11,5L11,15L13.5,15C13.776,15 14,15.224 14,15.5L14,16.5C14,16.776 13.776,17 13.5,17L9.5,17C9.224,17 9,16.776 9,16.5L9,12L6,12L6,8L9,8ZM7,9L7,11L9,11L9,9L7,9Z" style="fill:black;"/>
    </g>
</svg>
