<?xml version="1.0" encoding="UTF-8" standalone="no"?>
<!DOCTYPE svg PUBLIC "-//W3C//DTD SVG 1.1//EN" "http://www.w3.org/Graphics/SVG/1.1/DTD/svg11.dtd">
<svg width="20px" height="20px" version="1.1" xmlns="http://www.w3.org/2000/svg" xmlns:xlink="http://www.w3.org/1999/xlink" xml:space="preserve" xmlns:serif="http://www.serif.com/" style="fill-rule:evenodd;clip-rule:evenodd;stroke-linejoin:round;stroke-miterlimit:2;">
    <g transform="matrix(1,0,0,1,-40,-610)">
        <g id="paintbrush_mode_lines" transform="matrix(1,0,0,1,30,0)">
            <g transform="matrix(1,0,0,1,0,600)">
                <rect x="10" y="10" width="20" height="20" style="fill-opacity:0;"/>
            </g>
            <g transform="matrix(1,0,0,1,-30,0)">
                <path d="M48.688,626.116L47,624.429L49.786,621.643L55.357,627.214L52.571,630L51.881,629.309L53.273,626.455L50.545,627.974L49.786,627.214L50.482,625.378L48.688,626.116ZM54.925,620.218L57.755,617.389C57.982,617.161 58.285,617.023 58.607,617.002L58.607,617.002C58.921,616.981 59.229,617.098 59.451,617.32C59.526,617.394 59.605,617.474 59.68,617.549C59.902,617.771 60.018,618.079 59.997,618.392L59.997,618.393C59.976,618.715 59.839,619.017 59.611,619.245L56.782,622.074L57.711,623.003C58.223,623.516 58.223,624.347 57.711,624.86C57.246,625.324 56,626.571 56,626.571L50.429,621C50.429,621 51.675,619.753 52.14,619.289C52.652,618.776 53.484,618.776 53.996,619.289L54.925,620.218ZM58.687,617.656C59.049,617.656 59.343,617.951 59.343,618.313C59.343,618.675 59.049,618.969 58.687,618.969C58.324,618.969 58.03,618.675 58.03,618.313C58.03,617.951 58.324,617.656 58.687,617.656Z"/>
            </g>
            <g transform="matrix(1,0,0,1,-30,0)">
                <path d="M46.382,625.932L45.939,625.489C45.858,625.408 45.788,625.32 45.729,625.226C45.153,625.276 44.538,625.195 43.886,624.983C42.751,623.42 42.697,621.82 43.727,620.185C41.933,619.466 41.035,618.141 41.035,616.208C42.171,614.645 43.676,614.099 45.55,614.573C45.678,612.645 46.662,611.382 48.5,610.785C50.338,611.382 51.322,612.645 51.45,614.573C53.324,614.099 54.829,614.645 55.965,616.208C55.965,616.534 55.94,616.842 55.889,617.133L56.694,616.328C56.712,616.309 56.731,616.291 56.75,616.274C56.75,616.252 56.75,616.23 56.75,616.208C56.75,616.043 56.697,615.881 56.6,615.747C55.435,614.142 53.941,613.445 52.118,613.653C51.754,611.856 50.629,610.651 48.743,610.038C48.585,609.987 48.415,609.987 48.257,610.038C46.371,610.651 45.246,611.856 44.882,613.653C43.059,613.445 41.565,614.142 40.4,615.747C40.303,615.881 40.25,616.043 40.25,616.208C40.25,618.191 41.048,619.634 42.645,620.536C41.883,622.204 42.086,623.841 43.251,625.445C43.349,625.579 43.486,625.679 43.644,625.73C44.63,626.05 45.542,626.118 46.382,625.932ZM48.095,621.212L48.423,620.884C48.38,620.744 48.359,620.599 48.36,620.453C47.418,620.381 46.675,619.593 46.675,618.634C46.675,617.627 47.493,616.809 48.5,616.809C49.507,616.809 50.325,617.627 50.325,618.634C50.325,618.768 50.31,618.899 50.283,619.025L51.079,618.229C50.884,616.981 49.803,616.024 48.5,616.024C47.06,616.024 45.89,617.193 45.89,618.634C45.89,619.936 46.847,621.017 48.095,621.212Z"/>
            </g>
        </g>
    </g>
</svg>
