<?xml version="1.0" encoding="UTF-8" standalone="no"?>
<!DOCTYPE svg PUBLIC "-//W3C//DTD SVG 1.1//EN" "http://www.w3.org/Graphics/SVG/1.1/DTD/svg11.dtd">
<svg width="20px" height="20px" version="1.1" xmlns="http://www.w3.org/2000/svg" xmlns:xlink="http://www.w3.org/1999/xlink" xml:space="preserve" xmlns:serif="http://www.serif.com/" style="fill-rule:evenodd;clip-rule:evenodd;stroke-linejoin:round;stroke-miterlimit:2;">
    <g transform="matrix(1,0,0,1,-40,-670)">
        <g id="paintbrush_mode_lines_areas" transform="matrix(1,0,0,1,30,60)">
            <g transform="matrix(1,0,0,1,0,600)">
                <rect x="10" y="10" width="20" height="20" style="fill-opacity:0;"/>
            </g>
            <g transform="matrix(1,0,0,1,-30,0)">
                <path d="M48.688,626.116L47,624.429L49.786,621.643L55.357,627.214L52.571,630L51.881,629.309L53.273,626.455L50.545,627.974L49.786,627.214L50.482,625.378L48.688,626.116ZM54.925,620.218L57.755,617.389C57.982,617.161 58.285,617.023 58.607,617.002L58.607,617.002C58.921,616.981 59.229,617.098 59.451,617.32C59.526,617.394 59.605,617.474 59.68,617.549C59.902,617.771 60.018,618.079 59.997,618.392L59.997,618.393C59.976,618.715 59.839,619.017 59.611,619.245L56.782,622.074L57.711,623.003C58.223,623.516 58.223,624.347 57.711,624.86C57.246,625.324 56,626.571 56,626.571L50.429,621C50.429,621 51.675,619.753 52.14,619.289C52.652,618.776 53.484,618.776 53.996,619.289L54.925,620.218ZM58.687,617.656C59.049,617.656 59.343,617.951 59.343,618.313C59.343,618.675 59.049,618.969 58.687,618.969C58.324,618.969 58.03,618.675 58.03,618.313C58.03,617.951 58.324,617.656 58.687,617.656Z"/>
            </g>
            <g transform="matrix(1,0,0,1,-30,-60)">
                <path d="M46.332,685.882L45.939,685.489C45.85,685.4 45.774,685.302 45.712,685.198C45.069,685.296 44.377,685.224 43.636,684.983C42.501,683.42 42.447,681.82 43.477,680.185C41.683,679.466 40.785,678.141 40.785,676.208C41.921,674.645 43.426,674.099 45.3,674.573C45.428,672.645 46.412,671.382 48.25,670.785C50.088,671.382 51.072,672.645 51.2,674.573C53.074,674.099 54.579,674.645 55.715,676.208C55.715,676.655 55.667,677.069 55.571,677.45L56.493,676.529C56.498,676.424 56.5,676.317 56.5,676.208C56.5,676.043 56.447,675.881 56.35,675.747C55.185,674.142 53.691,673.445 51.868,673.653C51.504,671.856 50.379,670.651 48.493,670.038C48.335,669.987 48.165,669.987 48.007,670.038C46.121,670.651 44.996,671.856 44.632,673.653C42.809,673.445 41.315,674.142 40.15,675.747C40.053,675.881 40,676.043 40,676.208C40,678.191 40.798,679.634 42.395,680.536C41.633,682.204 41.836,683.841 43.001,685.445C43.099,685.579 43.236,685.679 43.394,685.73C44.459,686.076 45.438,686.127 46.332,685.882ZM45.557,684.019C45.186,684.051 44.795,684.011 44.383,683.901C43.647,682.767 43.652,681.609 44.397,680.425C44.513,680.241 44.542,680.013 44.474,679.806C44.407,679.598 44.251,679.431 44.048,679.35C42.749,678.831 42.065,677.896 41.993,676.546C42.844,675.496 43.948,675.143 45.304,675.486C45.515,675.539 45.74,675.496 45.917,675.367C46.094,675.239 46.204,675.039 46.219,674.821C46.311,673.426 46.989,672.485 48.25,672C49.511,672.485 50.189,673.426 50.281,674.821C50.296,675.039 50.406,675.239 50.583,675.367C50.76,675.496 50.985,675.539 51.196,675.486C52.552,675.143 53.656,675.496 54.507,676.546C54.485,676.961 54.405,677.336 54.267,677.673C53.41,677.268 52.391,677.322 51.576,677.832C51.235,676.31 49.875,675.171 48.25,675.171C46.369,675.171 44.842,676.698 44.842,678.579C44.842,680.174 45.94,681.515 47.422,681.886L45.939,683.368C45.752,683.556 45.624,683.781 45.557,684.019ZM48.07,681.237L48.25,681.057C48.161,680.802 48.124,680.457 48.124,680.264C47.28,680.2 46.614,679.494 46.614,678.633C46.614,677.731 47.347,676.998 48.25,676.998C49.153,676.998 49.886,677.731 49.886,678.633C49.886,678.76 49.871,678.883 49.844,679.001C49.928,679.027 50.05,679.073 50.177,679.13L50.854,678.454C50.761,677.097 49.63,676.024 48.25,676.024C46.81,676.024 45.64,677.193 45.64,678.634C45.64,680.013 46.714,681.145 48.07,681.237Z"/>
            </g>
        </g>
    </g>
</svg>
