<?xml version="1.0" encoding="UTF-8" standalone="no"?>
<!DOCTYPE svg PUBLIC "-//W3C//DTD SVG 1.1//EN" "http://www.w3.org/Graphics/SVG/1.1/DTD/svg11.dtd">
<svg width="20px" height="20px" version="1.1" xmlns="http://www.w3.org/2000/svg" xmlns:xlink="http://www.w3.org/1999/xlink" xml:space="preserve" xmlns:serif="http://www.serif.com/" style="fill-rule:evenodd;clip-rule:evenodd;stroke-linejoin:round;stroke-miterlimit:2;">
    <g transform="matrix(1,0,0,1,-40,-640)">
        <g id="paintbrush_mode_areas" transform="matrix(1,0,0,1,30,30)">
            <g transform="matrix(1,0,0,1,0,600)">
                <rect x="10" y="10" width="20" height="20" style="fill-opacity:0;"/>
            </g>
            <g transform="matrix(1,0,0,1,-30,0)">
                <path d="M48.688,626.116L47,624.429L49.786,621.643L55.357,627.214L52.571,630L51.881,629.309L53.273,626.455L50.545,627.974L49.786,627.214L50.482,625.378L48.688,626.116ZM54.925,620.218L57.755,617.389C57.982,617.161 58.285,617.023 58.607,617.002L58.607,617.002C58.921,616.981 59.229,617.098 59.451,617.32C59.526,617.394 59.605,617.474 59.68,617.549C59.902,617.771 60.018,618.079 59.997,618.392L59.997,618.393C59.976,618.715 59.839,619.017 59.611,619.245L56.782,622.074L57.711,623.003C58.223,623.516 58.223,624.347 57.711,624.86C57.246,625.324 56,626.571 56,626.571L50.429,621C50.429,621 51.675,619.753 52.14,619.289C52.652,618.776 53.484,618.776 53.996,619.289L54.925,620.218ZM58.687,617.656C59.049,617.656 59.343,617.951 59.343,618.313C59.343,618.675 59.049,618.969 58.687,618.969C58.324,618.969 58.03,618.675 58.03,618.313C58.03,617.951 58.324,617.656 58.687,617.656Z"/>
            </g>
            <g transform="matrix(1,0,0,1,-30,-30)">
                <path d="M46.211,655.761L45.939,655.489C45.354,654.903 45.354,653.954 45.939,653.368L47.773,651.534C46.412,651.302 45.374,650.115 45.374,648.687C45.374,647.093 46.668,645.799 48.263,645.799C49.69,645.799 50.877,646.837 51.11,648.198C52.166,647.174 53.827,647.141 54.92,648.101L56.505,646.517C56.518,646.35 56.525,646.179 56.525,646.003C55.267,644.272 53.602,643.669 51.527,644.193C51.386,642.059 50.297,640.661 48.263,640C46.228,640.661 45.139,642.059 44.998,644.193C42.923,643.669 41.258,644.272 40,646.003C40,648.142 40.994,649.609 42.98,650.404C41.84,652.214 41.899,653.985 43.156,655.715C44.275,656.079 45.293,656.094 46.211,655.761Z"/>
            </g>
        </g>
    </g>
</svg>
