<?xml version="1.0" encoding="UTF-8" standalone="no"?>
<!DOCTYPE svg PUBLIC "-//W3C//DTD SVG 1.1//EN" "http://www.w3.org/Graphics/SVG/1.1/DTD/svg11.dtd">
<svg width="20px" height="20px" version="1.1" xmlns="http://www.w3.org/2000/svg" xmlns:xlink="http://www.w3.org/1999/xlink" xml:space="preserve" xmlns:serif="http://www.serif.com/" style="fill-rule:evenodd;clip-rule:evenodd;stroke-linejoin:round;stroke-miterlimit:2;">
    <rect x="0" y="0" width="20" height="20" style="fill-opacity:0;"/>
    <path id="rect11" d="M17,6L10,6L10,13L17,13L17,6ZM9,6L2,6L2,13L9,13L9,6ZM6,9L8,9L8,10L6,10L6,12L5,12L5,10L3,10L3,9L5,9L5,7L6,7L6,9ZM16,10L11,10L11,9L16,9L16,10Z" style="fill:black;"/>
</svg>
