<?xml version="1.0" encoding="UTF-8" standalone="no"?>
<svg
   width="100%"
   height="100%"
   viewBox="0 0 20 20"
   version="1.1"
   xml:space="preserve"
   style="fill-rule:evenodd;clip-rule:evenodd;stroke-linejoin:round;stroke-miterlimit:2;"
   id="svg8"
   sodipodi:docname="pane_perspective.svg"
   inkscape:version="1.1.2 (b8e25be833, 2022-02-05)"
   xmlns:inkscape="http://www.inkscape.org/namespaces/inkscape"
   xmlns:sodipodi="http://sodipodi.sourceforge.net/DTD/sodipodi-0.dtd"
   xmlns="http://www.w3.org/2000/svg"
   xmlns:svg="http://www.w3.org/2000/svg"><defs
   id="defs12" /><sodipodi:namedview
   id="namedview10"
   pagecolor="#ffffff"
   bordercolor="#666666"
   borderopacity="1.0"
   inkscape:pageshadow="2"
   inkscape:pageopacity="0.0"
   inkscape:pagecheckerboard="0"
   showgrid="true"
   inkscape:zoom="35.95"
   inkscape:cx="11.696801"
   inkscape:cy="11.515994"
   inkscape:window-width="1920"
   inkscape:window-height="1141"
   inkscape:window-x="-7"
   inkscape:window-y="-7"
   inkscape:window-maximized="1"
   inkscape:current-layer="svg8"
   inkscape:snap-global="false"><inkscape:grid
     type="xygrid"
     id="grid841" /></sodipodi:namedview>
    
    
    <g
   id="g10931"><rect
     x="3"
     y="3"
     width="14"
     height="14"
     style="fill-opacity:0;stroke-width:0.7"
     id="rect2" /><path
     d="m 12.5,6.5 -9,-2 v 11 l 9,-5 z"
     style="fill-opacity:0.2;stroke-width:0.707107"
     id="path4" /><path
     d="M 3,4.6998912 V 15.719991 C 3,16.106391 3.3446154,16.5 3.7692308,16.5 H 17.231 c 0.212308,0 0.384385,-0.3068 0.384385,-0.5 0,-0.0931 -0.04077,-0.2122 -0.112308,-0.278 -0.07231,-0.0651 -0.170003,-0.12116 -0.272308,-0.122 L 5.25,15.5 l 1.5,-1 h 9.711538 c 0.102309,0 0.2,-0.1169 0.272308,-0.182 0.07154,-0.0658 0.112308,-0.2249 0.112308,-0.318 0,-0.0931 -0.04077,-0.3122 -0.112308,-0.378 -0.07231,-0.0651 -0.17,-0.122 -0.272308,-0.122 H 8.4 l 1.6,-1 h 5.692308 c 0.212307,0 0.384615,-0.3068 0.384615,-0.5 0,-0.1932 -0.172308,-0.5 -0.384615,-0.5 H 11.5 L 12.3,11 h 2.623077 c 0.10231,0 0.2,-0.1169 0.272308,-0.182 0.07154,-0.0658 0.112307,-0.2249 0.112307,-0.318 0,-0.0931 -0.04077,-0.3122 -0.112307,-0.378 C 15.123075,10.0569 15.025385,10 14.923077,10 H 13 V 6.4771912 c 0,-0.3262 -0.246923,-0.609 -0.596154,-0.6825 -1.673846,-0.3514 -6.4276922,-1.3496 -8.4615383,-1.7766 -0.2284615,-0.0483 -0.4684615,0.0014 -0.6523077,0.1337 -0.1830769,0.133 -0.29,0.3346 -0.29,0.5481 z M 7,13.244 V 9.675 l -3,0.567 v 4.924991 z M 8,9.558 v 3.056 l 2,-1.29255 V 9.2085501 Z M 12,8.8581001 11,9.092 v 1.598 l 1,-0.661 z M 4,9.142 7,8.675 V 5.657 L 4,5.011 Z M 8,8.458 10,8.2081 V 6.304 L 8,5.819 Z M 11,6.465 V 7.992 L 12,7.8581 V 6.689 Z"
     id="path6"
     style="stroke-width:0.733799"
     sodipodi:nodetypes="ssssscsccscscsccsssccscscscscccscccccccccccccccccccccccccccccc" /></g>
</svg>
