<?xml version="1.0" encoding="UTF-8" standalone="no"?>
<!DOCTYPE svg PUBLIC "-//W3C//DTD SVG 1.1//EN" "http://www.w3.org/Graphics/SVG/1.1/DTD/svg11.dtd">
<svg width="20px" height="18px" version="1.1" xmlns="http://www.w3.org/2000/svg" xmlns:xlink="http://www.w3.org/1999/xlink" xml:space="preserve" xmlns:serif="http://www.serif.com/" style="fill-rule:evenodd;clip-rule:evenodd;stroke-linejoin:round;stroke-miterlimit:2;">
    <g id="path820" transform="matrix(0.857142,0,0,0.857142,2.28572,1.28572)">
        <path d="M9.04,2C5.12,2 2,5.12 2,9.04C2,12.88 5.12,16 9.04,16C12.88,16 16,12.88 16,9.04C16,5.12 12.88,2 9.04,2ZM5.52,5.52L6.72,5.52L9.04,7.76L11.28,5.52L12.48,5.52L12.48,6.72L10.24,9.04L12.48,11.28L12.48,12.48L11.28,12.48L9.04,10.24L6.72,12.48L5.52,12.48L5.52,11.28L7.76,9.04L5.52,6.72L5.52,5.52Z" style="fill-rule:nonzero;"/>
    </g>
</svg>
