<?xml version="1.0" encoding="UTF-8" standalone="no"?>
<!DOCTYPE svg PUBLIC "-//W3C//DTD SVG 1.1//EN" "http://www.w3.org/Graphics/SVG/1.1/DTD/svg11.dtd">
<svg width="20px" height="18px" version="1.1" xmlns="http://www.w3.org/2000/svg" xmlns:xlink="http://www.w3.org/1999/xlink" xml:space="preserve" xmlns:serif="http://www.serif.com/" style="fill-rule:evenodd;clip-rule:evenodd;stroke-linejoin:round;stroke-miterlimit:2;">
    <g transform="matrix(1,0,0,1,0,-1)">
        <path d="M13.021,15.493C13.023,15.627 12.971,15.756 12.877,15.851C12.783,15.946 12.655,16 12.521,16L5.5,16C5.367,16 5.24,15.947 5.146,15.854C5.053,15.76 5,15.633 5,15.5L5,11.5C5,11.367 5.053,11.24 5.146,11.146C5.24,11.053 5.367,11 5.5,11L8,11L8,10L6.5,10C5.12,10 4,8.88 4,7.5C4,6.12 5.12,5 6.5,5C7.709,5 8.718,5.859 8.95,7L10,7C10,5.344 11.344,4 13,4C14.656,4 16,5.344 16,7C16,8.656 14.656,10 13,10L11,10L11,11L12.5,11C12.633,11 12.76,11.053 12.854,11.146C12.947,11.24 13,11.367 13,11.5L13,13L16,11L17,11L17,16L16,16L13,14C13,14 13.013,14.9 13.021,15.493ZM6.5,6.5C7.052,6.5 7.5,6.948 7.5,7.5C7.5,8.052 7.052,8.5 6.5,8.5C5.948,8.5 5.5,8.052 5.5,7.5C5.5,6.948 5.948,6.5 6.5,6.5ZM13,6C13.552,6 14,6.448 14,7C14,7.552 13.552,8 13,8C12.448,8 12,7.552 12,7C12,6.448 12.448,6 13,6Z"/>
    </g>
</svg>
