<?xml version="1.0" encoding="UTF-8" standalone="no"?>
<!DOCTYPE svg PUBLIC "-//W3C//DTD SVG 1.1//EN" "http://www.w3.org/Graphics/SVG/1.1/DTD/svg11.dtd">
<svg width="24px" height="18px" version="1.1" xmlns="http://www.w3.org/2000/svg" xmlns:xlink="http://www.w3.org/1999/xlink" xml:space="preserve" xmlns:serif="http://www.serif.com/" style="fill-rule:evenodd;clip-rule:evenodd;stroke-linejoin:round;stroke-miterlimit:2;">
    <g transform="matrix(1,0,0,1,1,0)">
        <rect x="0" y="0" width="22" height="18" style="fill-opacity:0;"/>
    </g>
    <g transform="matrix(1,0,0,1,1,0)">
        <path d="M3.5,8.989C3.5,8.989 6.31,4 11,4C15.69,4 18.5,8.989 18.5,8.989C18.5,8.989 15.701,14 11,14C6.299,14 3.5,8.989 3.5,8.989ZM11,5C13.208,5 15,6.792 15,9C15,11.208 13.208,13 11,13C8.792,13 7,11.208 7,9C7,6.792 8.792,5 11,5ZM11,7C12.104,7 13,7.896 13,9C13,10.104 12.104,11 11,11C9.896,11 9,10.104 9,9C9,7.896 9.896,7 11,7Z"/>
    </g>
    <g transform="matrix(1,0,0,1,1,0)">
        <path d="M18,16L18,15L19,15L19,14L20,14L20,16L18,16ZM3,15L4,15L4,16L2,16L2,14L3,14L3,15ZM16,15L14,15L14,16L16,16L16,15ZM12,15L10,15L10,16L12,16L12,15ZM8,15L6,15L6,16L8,16L8,15ZM3,10L2,10L2,12L3,12L3,10ZM20,10L19,10L19,12L20,12L20,10ZM3,6L2,6L2,8L3,8L3,6ZM20,6L19,6L19,8L20,8L20,6ZM4,2L4,3L3,3L3,4L2,4L2,2L4,2ZM20,4L19,4L19,3L18,3L18,2L20,2L20,4ZM12,2L10,2L10,3L12,3L12,2ZM16,2L14,2L14,3L16,3L16,2ZM8,2L6,2L6,3L8,3L8,2Z"/>
    </g>
</svg>
