<?xml version="1.0" encoding="UTF-8" standalone="no"?>
<!DOCTYPE svg PUBLIC "-//W3C//DTD SVG 1.1//EN" "http://www.w3.org/Graphics/SVG/1.1/DTD/svg11.dtd">
<svg width="20px" height="20px" version="1.1" xmlns="http://www.w3.org/2000/svg" xmlns:xlink="http://www.w3.org/1999/xlink" xml:space="preserve" xmlns:serif="http://www.serif.com/" style="fill-rule:evenodd;clip-rule:evenodd;stroke-linejoin:round;stroke-miterlimit:2;">
    <rect x="0" y="0" width="20" height="20" style="fill-opacity:0;"/>
    <g>
        <path d="M6.085,17L2.5,17C1.672,17 1,16.328 1,15.5L1,4.5C1,3.672 1.672,3 2.5,3L5,3C5,1.896 5.896,1 7,1C8.104,1 9,1.896 9,3L10.268,3C10.098,3.294 10,3.636 10,4L7.5,4C6.672,4 6,4.672 6,5.5L6,6L4,6L4,4L2.5,4C2.224,4 2,4.224 2,4.5L2,15.5C2,15.776 2.224,16 2.5,16L6,16L6,16.5C6,16.675 6.03,16.844 6.085,17ZM7,2C7.552,2 8,2.448 8,3C8,3.552 7.552,4 7,4C6.448,4 6,3.552 6,3C6,2.448 6.448,2 7,2Z" style="fill:black;"/>
        <g transform="matrix(1,-2.28848e-17,2.28848e-17,1,-2.00001,-6.18898e-06)">
            <path d="M8,12.999L7.99,12.999C7.462,12.999 6.956,12.79 6.583,12.417C6.21,12.044 6,11.538 6,11.01L6,8L7,8L7,11.045C7,11.573 7.427,12 7.955,12L13,12L13,10L15.5,12.5L13,15L13,13L8,12.999Z" style="fill:black;"/>
        </g>
        <path d="M7,11L7,6.5C7,5.672 7.672,5 8.5,5L11,5C11,3.896 11.896,3 13,3C14.104,3 15,3.896 15,5L17.5,5C18.328,5 19,5.672 19,6.5L19,17.5C19,18.328 18.328,19 17.5,19L8.5,19C7.672,19 7,18.328 7,17.5L7,14L8,14L8,17.5C8,17.776 8.224,18 8.5,18L17.5,18C17.776,18 18,17.776 18,17.5L18,6.5C18,6.224 17.776,6 17.5,6L16,6L16,8L10,8L10,6L8.5,6C8.224,6 8,6.224 8,6.5L8,11L7,11ZM8,13L7,13L7,12L8,12L8,13ZM13,4C13.552,4 14,4.448 14,5C14,5.552 13.552,6 13,6C12.448,6 12,5.552 12,5C12,4.448 12.448,4 13,4Z" style="fill:black;"/>
    </g>
</svg>
