<?xml version="1.0" encoding="UTF-8" standalone="no"?>
<!DOCTYPE svg PUBLIC "-//W3C//DTD SVG 1.1//EN" "http://www.w3.org/Graphics/SVG/1.1/DTD/svg11.dtd">
<svg width="20px" height="20px" version="1.1" xmlns="http://www.w3.org/2000/svg" xmlns:xlink="http://www.w3.org/1999/xlink" xml:space="preserve" xmlns:serif="http://www.serif.com/" style="fill-rule:evenodd;clip-rule:evenodd;stroke-linejoin:round;stroke-miterlimit:2;">
    <rect x="0" y="0" width="20" height="20" style="fill-opacity:0;"/>
    <g transform="matrix(-3.06166e-16,-1,1,-3.06166e-16,4,19.5)">
        <g>
            <g transform="matrix(1,0,0,1,1.5,1)">
                <path d="M12,13L7.99,12.999L8,7L9,7L9,12L12,12L12,10L14.5,12.5L12,15L12,13Z" style="fill:black;"/>
            </g>
            <g transform="matrix(-2.29476e-16,1,1,2.29476e-16,-6.5,0.01)">
                <path d="M13,13L4.99,12.999L5,12L13,12L13,10L15.5,12.5L13,15L13,13Z" style="fill:black;"/>
            </g>
            <g transform="matrix(-3.06166e-16,1,-1,-3.06166e-16,19.5,-4)">
                <path d="M14,16.5C14,16.898 13.842,17.279 13.561,17.561C13.279,17.842 12.898,18 12.5,18L3.5,18C2.672,18 2,17.328 2,16.5L2,5.5C2,4.672 2.672,4 3.5,4L6,4C6,2.896 6.896,2 8,2C9.104,2 10,2.896 10,4L12.5,4C13.328,4 14,4.672 14,5.5L14,8L13,8L13,5.5C13,5.224 12.776,5 12.5,5L11,5L11,7L5,7L5,5L3.5,5C3.224,5 3,5.224 3,5.5L3,16.5C3,16.776 3.224,17 3.5,17L12.5,17C12.633,17 12.76,16.947 12.854,16.854C12.947,16.76 13,16.633 13,16.5L13,15L14,15L14,16.5ZM8,3C8.552,3 9,3.448 9,4C9,4.552 8.552,5 8,5C7.448,5 7,4.552 7,4C7,3.448 7.448,3 8,3Z" style="fill:black;"/>
            </g>
        </g>
    </g>
</svg>
