<?xml version="1.0" encoding="UTF-8" standalone="no"?>
<!DOCTYPE svg PUBLIC "-//W3C//DTD SVG 1.1//EN" "http://www.w3.org/Graphics/SVG/1.1/DTD/svg11.dtd">
<svg width="20px" height="20px" version="1.1" xmlns="http://www.w3.org/2000/svg" xmlns:xlink="http://www.w3.org/1999/xlink" xml:space="preserve" xmlns:serif="http://www.serif.com/" style="fill-rule:evenodd;clip-rule:evenodd;stroke-linejoin:round;stroke-miterlimit:2;">
    <rect x="0" y="0" width="20" height="20" style="fill-opacity:0;"/>
    <g transform="matrix(0.556697,0,0,0.556697,3.88688,4.88455)">
        <g transform="matrix(1.19633,0,0,1.19633,-7.57779,-9.37425)">
            <path d="M11.306,7.176L10.257,6.127L12.373,4.012L13.775,5.414L16.604,2.586C17.384,1.805 18.651,1.805 19.432,2.586C20.213,3.366 20.213,4.633 19.432,5.414L16.604,8.242L18.018,9.657L15.902,11.772L14.842,10.712L6.314,19.24C5.321,20.232 3.713,20.232 2.721,19.24C2.72,19.24 2.72,19.239 2.719,19.239C1.76,18.279 1.759,16.723 2.72,15.762L11.306,7.176ZM12.013,7.883L3.427,16.47C2.858,17.039 2.858,17.961 3.427,18.531C3.428,18.531 3.428,18.532 3.429,18.532C4.03,19.134 5.005,19.134 5.606,18.533L14.134,10.005L12.013,7.883Z" style="fill:black;"/>
        </g>
        <g transform="matrix(1.79631,0,0,1.79631,-5.18573,-6.97965)">
            <path d="M16.5,18.001C16.898,18.001 17.28,17.843 17.56,17.561C17.842,17.279 18,16.898 18,16.5L18,9.5C18,8.672 17.328,7.999 16.5,7.999L8.5,7.999C8.102,7.999 7.72,8.157 7.44,8.439C7.158,8.72 7,9.102 7,9.5L7,16.5C7,16.898 7.158,17.279 7.44,17.561C7.72,17.843 8.102,18.001 8.5,18.001L16.5,18.001ZM17,11L8,11L8,15.985C8,16.25 8.105,16.504 8.293,16.692C8.48,16.88 8.735,16.986 9,16.986L16,16.986C16.265,16.986 16.52,16.88 16.707,16.692C16.895,16.504 17,16.25 17,15.985L17,11ZM17,9.5C17,9.224 16.776,9 16.5,9L14.5,9C14.224,9 14,9.224 14,9.5C14,9.776 14.224,10 14.5,10L16.5,10C16.776,10 17,9.776 17,9.5Z" style="fill:black;"/>
        </g>
    </g>
</svg>
