<?xml version="1.0" encoding="UTF-8" standalone="no"?>
<!DOCTYPE svg PUBLIC "-//W3C//DTD SVG 1.1//EN" "http://www.w3.org/Graphics/SVG/1.1/DTD/svg11.dtd">
<svg width="20px" height="20px" version="1.1" xmlns="http://www.w3.org/2000/svg" xmlns:xlink="http://www.w3.org/1999/xlink" xml:space="preserve" xmlns:serif="http://www.serif.com/" style="fill-rule:evenodd;clip-rule:evenodd;stroke-linejoin:round;stroke-miterlimit:2;">
    <rect x="0" y="0" width="20" height="20" style="fill-opacity:0;"/>
    <g transform="matrix(0.571444,0,0,0.571444,-168.005,-12.5719)">
        <path d="M323.095,43.086C322.37,42.971 321.63,42.971 320.905,43.086C320.699,43.689 320.589,44.31 320.575,44.947C320.178,45.059 319.795,45.218 319.435,45.419C318.974,44.979 318.458,44.618 317.886,44.337C317.291,44.769 316.769,45.291 316.337,45.886C316.618,46.458 316.979,46.974 317.419,47.435C317.218,47.795 317.059,48.178 316.947,48.575C316.31,48.589 315.689,48.699 315.086,48.905C314.971,49.63 314.971,50.37 315.086,51.095C315.689,51.301 316.31,51.411 316.947,51.425C317.059,51.822 317.218,52.205 317.419,52.565C316.979,53.026 316.618,53.542 316.337,54.114C316.769,54.709 317.291,55.231 317.886,55.663C318.458,55.382 318.974,55.021 319.435,54.581C319.795,54.782 320.178,54.941 320.575,55.053C320.589,55.69 320.699,56.311 320.905,56.914C321.63,57.029 322.37,57.029 323.095,56.914C323.301,56.311 323.411,55.69 323.425,55.053C323.822,54.941 324.205,54.782 324.565,54.581C325.026,55.021 325.542,55.382 326.114,55.663C326.709,55.231 327.231,54.709 327.663,54.114C327.382,53.542 327.021,53.026 326.581,52.565C326.782,52.205 326.941,51.822 327.053,51.425C327.69,51.411 328.311,51.301 328.914,51.095C329.029,50.37 329.029,49.63 328.914,48.905C328.311,48.699 327.69,48.589 327.053,48.575C326.941,48.178 326.782,47.795 326.581,47.435C327.021,46.974 327.382,46.458 327.663,45.886C327.231,45.291 326.709,44.769 326.114,44.337C325.542,44.618 325.026,44.979 324.565,45.419C324.205,45.218 323.822,45.059 323.425,44.947C323.411,44.31 323.301,43.689 323.095,43.086ZM322,46.53C323.915,46.53 325.47,48.085 325.47,50C325.47,51.915 323.915,53.47 322,53.47C320.085,53.47 318.53,51.915 318.53,50C318.53,48.085 320.085,46.53 322,46.53Z" style="fill:black;"/>
    </g>
    <path d="M11.259,14.761C10.707,14.913 10.12,15 9.5,15C4.799,15 2,9.989 2,9.989C2,9.989 4.81,5 9.5,5C14.19,5 17,9.989 17,9.989C17,9.989 16.764,10.411 16.315,11.01C15.949,10.987 15.581,11.004 15.218,11.062C14.852,11.12 14.548,11.375 14.428,11.726C14.397,11.817 14.369,11.909 14.344,12.001C14.261,11.954 14.177,11.909 14.09,11.867C13.758,11.703 13.362,11.737 13.062,11.955C13.019,11.986 12.976,12.018 12.934,12.051C13.293,11.451 13.5,10.75 13.5,10C13.5,7.792 11.708,6 9.5,6C7.292,6 5.5,7.792 5.5,10C5.5,12.208 7.292,14 9.5,14C10.38,14 11.194,13.715 11.855,13.233C11.731,13.503 11.733,13.818 11.867,14.09C11.909,14.177 11.954,14.261 12.001,14.344C11.909,14.369 11.817,14.397 11.726,14.428C11.538,14.492 11.377,14.61 11.259,14.761ZM9.5,8C10.604,8 11.5,8.896 11.5,10C11.5,11.104 10.604,12 9.5,12C8.396,12 7.5,11.104 7.5,10C7.5,8.896 8.396,8 9.5,8Z" style="fill:black;"/>
</svg>
