<?xml version="1.0" encoding="UTF-8" standalone="no"?>
<!DOCTYPE svg PUBLIC "-//W3C//DTD SVG 1.1//EN" "http://www.w3.org/Graphics/SVG/1.1/DTD/svg11.dtd">
<svg width="20px" height="20px" version="1.1" xmlns="http://www.w3.org/2000/svg" xmlns:xlink="http://www.w3.org/1999/xlink" xml:space="preserve" xmlns:serif="http://www.serif.com/" style="fill-rule:evenodd;clip-rule:evenodd;stroke-linejoin:round;stroke-miterlimit:2;">
    <rect x="0" y="0" width="20" height="20" style="fill-opacity:0;"/>
    <g id="Random" transform="matrix(1,0,0,1,-1,-1)">
        <path d="M12.105,14.8L7.255,7.992L4.5,7.992C4.224,7.992 4,7.768 4,7.492C4,7.216 4.224,6.992 4.5,6.992L7.5,6.992C7.654,6.992 7.8,7.064 7.895,7.185L12.745,13.993L15,13.993L15,12.492C15,12.365 15.049,12.237 15.146,12.139C15.342,11.944 15.658,11.944 15.854,12.139L17.854,14.139C17.888,14.174 17.917,14.213 17.939,14.254L17.972,14.328L17.994,14.417L18,14.493L17.994,14.569L17.972,14.658L17.939,14.732C17.917,14.773 17.888,14.812 17.854,14.847L15.839,16.861C15.644,17.056 15.327,17.056 15.132,16.861C15.004,16.733 14.96,16.552 15,16.388L15,14.993L12.5,14.993C12.346,14.993 12.2,14.922 12.105,14.8Z" style="fill:black;"/>
        <g transform="matrix(1,0,0,1,1,1)">
            <path d="M6.255,13.008L11.105,6.2C11.2,6.078 11.346,6.007 11.5,6.007L14,6.007L14,4.612C13.96,4.448 14.004,4.267 14.132,4.139C14.327,3.944 14.644,3.944 14.839,4.139L16.854,6.153C16.888,6.188 16.917,6.227 16.939,6.268L16.972,6.342L16.994,6.431L17,6.507L16.994,6.583L16.972,6.672L16.939,6.746C16.917,6.787 16.888,6.826 16.854,6.861L14.854,8.861C14.658,9.056 14.342,9.056 14.146,8.861C14.049,8.763 14,8.635 14,8.507L14,7L11.745,7.007L6.895,13.815C6.8,13.936 6.654,14.008 6.5,14.008L3.5,14.008C3.224,14.008 3,13.784 3,13.508C3,13.232 3.224,13.008 3.5,13.008L6.255,13.008Z" style="fill:black;"/>
        </g>
    </g>
</svg>
