<?xml version="1.0" encoding="UTF-8" standalone="no"?>
<!DOCTYPE svg PUBLIC "-//W3C//DTD SVG 1.1//EN" "http://www.w3.org/Graphics/SVG/1.1/DTD/svg11.dtd">
<svg width="20px" height="20px" version="1.1" xmlns="http://www.w3.org/2000/svg" xmlns:xlink="http://www.w3.org/1999/xlink" xml:space="preserve" xmlns:serif="http://www.serif.com/" style="fill-rule:evenodd;clip-rule:evenodd;stroke-linejoin:round;stroke-miterlimit:2;">
    <rect x="0" y="0" width="20" height="20" style="fill-opacity:0;"/>
    <g transform="matrix(1,0,0,1,-1,-1)">
        <g transform="matrix(1,0,0,1,1,1)">
            <path d="M13.5,20C12.745,20 12.033,19.814 11.409,19.485L12.236,18.657C12.627,18.814 13.054,18.9 13.5,18.9L13.541,18.9L13.582,18.899L13.623,18.898L13.662,18.896L13.7,18.894L13.738,18.892L13.779,18.889L13.818,18.885L13.857,18.881L13.895,18.877L13.933,18.873C13.946,18.871 13.959,18.869 13.972,18.868L14.013,18.862L14.053,18.855L14.093,18.848L14.132,18.841L14.155,18.837L14.171,18.834L14.195,18.829L14.235,18.82L14.274,18.811L14.282,18.81C14.341,18.796 14.399,18.78 14.457,18.763L14.498,18.751L14.535,18.739L14.571,18.728L14.605,18.716C15.788,18.309 16.676,17.268 16.863,16L15,16L15.533,15.36L17.679,13.215L20,16L17.972,16C17.913,16.536 17.76,17.044 17.529,17.506L17.516,17.531L17.503,17.557L17.494,17.573L17.469,17.621L17.456,17.645C16.911,18.649 15.994,19.422 14.891,19.781L14.85,19.794L14.801,19.809L14.776,19.816L14.751,19.824L14.731,19.829C14.687,19.842 14.642,19.854 14.598,19.865L14.567,19.873L14.525,19.883L14.475,19.894L14.424,19.905L14.398,19.91L14.372,19.915L14.347,19.92L14.323,19.925C14.296,19.93 14.269,19.935 14.242,19.939L14.206,19.945L14.157,19.952L14.113,19.959L14.061,19.965L14.008,19.972L13.982,19.974L13.955,19.977L13.929,19.98L13.903,19.982L13.868,19.985L13.817,19.989L13.76,19.993L13.716,19.995L13.662,19.997L13.608,19.999L13.581,19.999L13.554,20L13.527,20L13.5,20ZM14.749,12.337C14.362,12.184 13.941,12.1 13.5,12.1L13.459,12.1L13.418,12.101L13.377,12.102L13.338,12.104L13.3,12.106L13.262,12.108L13.221,12.111L13.182,12.115L13.143,12.119L13.105,12.123L13.067,12.127C13.054,12.129 13.041,12.131 13.028,12.132L12.987,12.138L12.947,12.145L12.907,12.152L12.868,12.159L12.845,12.163L12.829,12.166L12.805,12.171L12.765,12.18L12.726,12.189L12.718,12.19C12.659,12.204 12.601,12.22 12.543,12.237L12.502,12.249L12.465,12.261L12.429,12.272L12.395,12.284C11.212,12.691 10.324,13.732 10.137,15L12,15L11.571,15.515L9.312,17.774L7,15L9.028,15C9.087,14.464 9.24,13.956 9.471,13.494L9.484,13.469L9.497,13.443L9.506,13.427L9.531,13.379L9.544,13.355C10.089,12.351 11.006,11.578 12.109,11.219L12.15,11.206L12.199,11.191L12.224,11.184L12.249,11.176L12.269,11.171C12.313,11.158 12.358,11.146 12.402,11.135L12.433,11.127L12.475,11.117L12.525,11.106L12.576,11.095L12.602,11.09L12.628,11.085L12.653,11.08L12.677,11.075C12.704,11.07 12.731,11.065 12.758,11.061L12.794,11.055L12.843,11.048L12.887,11.041L12.939,11.035L12.992,11.028L13.018,11.026L13.045,11.023L13.071,11.02L13.097,11.018L13.132,11.015L13.183,11.011L13.24,11.007L13.284,11.005L13.338,11.003L13.392,11.001L13.419,11.001L13.446,11L13.472,11C13.481,11 13.491,11 13.5,11C14.249,11 14.956,11.184 15.578,11.508L14.749,12.337Z" style="fill:black;"/>
        </g>
        <g transform="matrix(1,0,0,1,1,1)">
            <path d="M8.198,18L4.5,18C3.672,18 3,17.328 3,16.5L3,3.5C3,2.672 3.672,2 4.5,2L13,2L17,6L17,12.207C16.805,12.152 16.606,12.107 16.402,12.074C16.545,11.866 16.605,11.61 16.566,11.356C16.518,11.042 16.323,10.769 16.041,10.621C15.281,10.225 14.416,10 13.5,10L13.417,10.001C13.418,10.001 13.404,10.001 13.404,10.001L13.397,10.001L12.927,10.03L12.406,10.109L11.991,10.21C11.993,10.21 11.974,10.215 11.974,10.215L11.962,10.218C11.966,10.217 11.965,10.217 11.965,10.217L11.797,10.269C10.452,10.706 9.332,11.651 8.665,12.878L8.603,12.995C8.605,12.99 8.604,12.993 8.604,12.993L8.589,13.023C8.591,13.018 8.589,13.023 8.589,13.023L8.575,13.05C8.425,13.351 8.301,13.669 8.208,14L7,14C6.612,14 6.259,14.224 6.094,14.576C5.93,14.927 5.983,15.342 6.232,15.64L8.198,18ZM12,3L16,7L12,7L12,3Z" style="fill:black;"/>
        </g>
    </g>
</svg>
