<?xml version="1.0" encoding="UTF-8" standalone="no"?>
<!DOCTYPE svg PUBLIC "-//W3C//DTD SVG 1.1//EN" "http://www.w3.org/Graphics/SVG/1.1/DTD/svg11.dtd">
<svg width="20px" height="20px" version="1.1" xmlns="http://www.w3.org/2000/svg" xmlns:xlink="http://www.w3.org/1999/xlink" xml:space="preserve" xmlns:serif="http://www.serif.com/" style="fill-rule:evenodd;clip-rule:evenodd;stroke-linejoin:round;stroke-miterlimit:2;">
    <rect x="0" y="0" width="20" height="20" style="fill-opacity:0;"/>
    <g id="RemoveMultipleKeys" transform="matrix(0.5,0,0,0.5,-52.1362,-95.4995)">
        <g transform="matrix(2.16666,0,0,2.16666,104.439,187.166)">
            <g transform="matrix(0.692311,0,0,0.692311,3.84618,0.153688)">
                <g>
                    <path d="M11,5L17,11L11,17L5,11L11,5Z" style="fill:black;"/>
                </g>
            </g>
            <g transform="matrix(0.692311,0,0,0.692311,-2.61538,6.61525)">
                <g>
                    <path d="M11,5L17,11L11,17L5,11L11,5Z" style="fill:black;"/>
                </g>
            </g>
        </g>
        <g transform="matrix(2,0,0,2,100.272,188.999)">
            <g transform="matrix(1,0,0,1,1.0002,1)">
                <path d="M18,12L21,12L21,13L20,13L20,20L13,20L13,13L12,13L12,12L15,12L15,11L18,11L18,12ZM14,13L14,19L19,19L19,13L14,13Z" style="fill:black;"/>
            </g>
            <g transform="matrix(1,0,0,1.25,0,-4.25)">
                <rect x="18" y="15" width="1" height="4" style="fill:black;"/>
            </g>
            <g transform="matrix(1,0,0,1.25,0,-4.25)">
                <rect x="16" y="15" width="1" height="4" style="fill:black;"/>
            </g>
        </g>
    </g>
</svg>
