<?xml version="1.0" encoding="UTF-8" standalone="no"?>
<!DOCTYPE svg PUBLIC "-//W3C//DTD SVG 1.1//EN" "http://www.w3.org/Graphics/SVG/1.1/DTD/svg11.dtd">
<svg width="20px" height="20px" version="1.1" xmlns="http://www.w3.org/2000/svg" xmlns:xlink="http://www.w3.org/1999/xlink" xml:space="preserve" xmlns:serif="http://www.serif.com/" style="fill-rule:evenodd;clip-rule:evenodd;stroke-linejoin:round;stroke-miterlimit:2;">
    <rect x="0" y="0" width="20" height="20" style="fill-opacity:0;"/>
    <g transform="matrix(0.8,0,0,1,1,-1)">
        <path d="M15,15.5C15,15.224 14.776,15 14.5,15L8,15C7.724,15 7.5,15.224 7.5,15.5L7.5,16.5C7.5,16.776 7.724,17 8,17L14.5,17C14.776,17 15,16.776 15,16.5L15,15.5Z" style="fill:black;"/>
    </g>
    <g transform="matrix(0.869565,0,0,1,0.217391,-1)">
        <path d="M14.699,8C16.096,8.913 17,10.365 17,12C17,14.066 15.557,15.84 13.5,16.602C12.809,16.858 12.048,17 11.25,17C10.64,17 10.052,16.917 9.5,16.764C7.181,16.12 5.5,14.229 5.5,12C5.5,10.365 6.404,8.913 7.801,8L14.699,8Z" style="fill:black;"/>
    </g>
    <g transform="matrix(0.857143,0,0,1,0.142857,-1)">
        <path d="M15,6.5C15,6.224 14.769,6.145 14.5,6C14.5,6 12.5,5 11.5,5C10.5,5 8.5,6 8.5,6C8.226,6.14 8,6.224 8,6.5C8,6.776 8.224,7 8.5,7L14.5,7C14.776,7 15,6.776 15,6.5Z" style="fill:black;"/>
    </g>
    <g transform="matrix(0.666667,0,0,0.666667,2.33333,1.66667)">
        <circle cx="11.5" cy="3.5" r="1.5" style="fill:black;"/>
    </g>
    <g transform="matrix(1,0,0,1,-2,-1)">
        <path d="M16.058,9.833C16.058,9.833 16.458,9.254 17.473,9.251C17.93,9.249 18.236,9.326 18.431,9.485C18.614,9.635 18.666,9.85 18.689,10.043C18.727,10.358 18.7,10.651 18.686,10.805C18.608,11.64 17.873,12.4 17.344,12.632C16.958,12.801 16.196,12.722 16.196,12.722C15.838,12.698 15.529,12.97 15.505,13.328C15.482,13.686 15.754,13.996 16.112,14.019C16.112,14.019 17.243,14.074 17.829,13.838C18.624,13.518 20.017,12.234 19.997,10.823C19.992,10.463 20.079,9.534 19.608,8.861C19.268,8.374 18.659,7.988 17.475,7.992C15.614,7.998 14.942,9.167 14.942,9.167C14.758,9.475 14.859,9.874 15.167,10.058C15.475,10.242 15.874,10.141 16.058,9.833Z" style="fill:black;"/>
    </g>
    <g>
        <path d="M6.5,10.5L3,7L1,7L2,8C2,8 2.844,10.722 3.5,11.5C5.055,13.344 6,13.5 6,13.5L6.5,13.5L6.5,10.5Z" style="fill:black;"/>
    </g>
</svg>
