<?xml version="1.0" encoding="UTF-8" standalone="no"?>
<!DOCTYPE svg PUBLIC "-//W3C//DTD SVG 1.1//EN" "http://www.w3.org/Graphics/SVG/1.1/DTD/svg11.dtd">
<svg width="20px" height="20px" version="1.1" xmlns="http://www.w3.org/2000/svg" xmlns:xlink="http://www.w3.org/1999/xlink" xml:space="preserve" xmlns:serif="http://www.serif.com/" style="fill-rule:evenodd;clip-rule:evenodd;stroke-linejoin:round;stroke-miterlimit:2;">
    <rect x="0" y="0" width="20" height="20" style="fill-opacity:0;"/>
    <g transform="matrix(1,0,0,1,-1,-1)">
        <path d="M17.5,14C19.432,14 21,15.568 21,17.5C21,19.432 19.432,21 17.5,21C15.568,21 14,19.432 14,17.5C14,15.568 15.568,14 17.5,14ZM18,17L20,17L20,18L18,18L18,20L17,20L17,18L15,18L15,17L17,17L17,15L18,15L18,17Z" style="fill:black;"/>
    </g>
    <path d="M12.028,16L7.4,16C7.179,16 7,15.776 7,15.5L7,14.999C6.411,14.557 5.923,13.987 5.576,13.332C5.156,13.112 4.439,12.614 3.5,11.5C2.844,10.722 2,8 2,8L1,7L3,7L5.298,9.298C5.632,8.375 6.23,7.579 7.001,7L12.999,7C13.211,7.159 13.409,7.334 13.593,7.524C13.996,7.251 14.606,6.995 15.475,6.992C16.659,6.988 17.268,7.374 17.608,7.861C18.079,8.534 17.992,9.463 17.997,9.823C18.009,10.659 17.524,11.451 16.962,12.024C16.811,12.008 16.656,12 16.5,12C14.185,12 12.276,13.751 12.028,16ZM14.948,11.724C15.093,11.708 15.234,11.68 15.344,11.632C15.873,11.4 16.608,10.64 16.686,9.805C16.7,9.651 16.727,9.358 16.689,9.043C16.666,8.85 16.614,8.635 16.431,8.485C16.236,8.326 15.93,8.249 15.473,8.251C14.949,8.253 14.589,8.408 14.363,8.557C14.769,9.28 15,10.113 15,11C15,11.246 14.982,11.488 14.948,11.724ZM9.027,4.231C9.009,4.157 9,4.079 9,4C9,3.448 9.448,3 10,3C10.552,3 11,3.448 11,4C11,4.079 10.991,4.157 10.973,4.231C11.759,4.526 12.571,5 12.571,5C12.802,5.145 13,5.224 13,5.5C13,5.776 12.808,6 12.571,6L7.429,6C7.192,6 7,5.776 7,5.5C7,5.224 7.194,5.14 7.429,5C7.429,5 8.241,4.526 9.027,4.231Z" style="fill:black;"/>
</svg>
