<?xml version="1.0" encoding="UTF-8" standalone="no"?>
<!DOCTYPE svg PUBLIC "-//W3C//DTD SVG 1.1//EN" "http://www.w3.org/Graphics/SVG/1.1/DTD/svg11.dtd">
<svg width="20px" height="20px" version="1.1" xmlns="http://www.w3.org/2000/svg" xmlns:xlink="http://www.w3.org/1999/xlink" xml:space="preserve" xmlns:serif="http://www.serif.com/" style="fill-rule:evenodd;clip-rule:evenodd;stroke-linecap:round;stroke-linejoin:round;stroke-miterlimit:1.5;">
    <rect x="0" y="0" width="20" height="20" style="fill-opacity:0;"/>
    <g transform="matrix(1,0,0,1,10.2409,9.09326)">
        <text x="0px" y="0px" style="font-family:'ArialMT', 'Arial', sans-serif;font-size:10px;fill:black;">1</text>
    </g>
    <g transform="matrix(1,0,0,1,10.8321,18)">
        <text x="0px" y="0px" style="font-family:'ArialMT', 'Arial', sans-serif;font-size:10px;fill:black;">2</text>
    </g>
    <g transform="matrix(0.720063,0.693909,-0.693909,0.720063,5.55087,-3.75165)">
        <path d="M13,13L13,12L13.041,10.003L15.469,12.523L12.951,14.95L13,13Z" style="fill:black;"/>
    </g>
    <g transform="matrix(0.720063,-0.693909,-0.693909,-0.720063,5.55087,23.7392)">
        <path d="M13,13L13,12L13.02,9.981L15.461,12.514L12.941,14.943L13,13Z" style="fill:black;"/>
    </g>
    <g transform="matrix(1,0,0,1,-3.81857,-2.56295)">
        <path d="M10.5,7.5C10.5,7.5 6.069,11.996 10.5,17.5" style="fill:none;stroke:black;stroke-width:1px;"/>
    </g>
</svg>
