<?xml version="1.0" encoding="UTF-8" standalone="no"?>
<!DOCTYPE svg PUBLIC "-//W3C//DTD SVG 1.1//EN" "http://www.w3.org/Graphics/SVG/1.1/DTD/svg11.dtd">
<svg width="20px" height="20px" version="1.1" xmlns="http://www.w3.org/2000/svg" xmlns:xlink="http://www.w3.org/1999/xlink" xml:space="preserve" xmlns:serif="http://www.serif.com/" style="fill-rule:evenodd;clip-rule:evenodd;stroke-linejoin:round;stroke-miterlimit:2;">
    <rect x="0" y="0" width="20" height="20" style="fill-opacity:0;"/>
    <g id="Random" transform="matrix(1,0,0,1,-1,-1)">
        <path d="M11,14.486L11,18.38C11.04,18.545 10.996,18.725 10.868,18.854C10.673,19.049 10.356,19.049 10.161,18.854L8.146,16.839C8.112,16.804 8.083,16.766 8.061,16.725L8.028,16.651L8.006,16.562L8,16.486L8.006,16.409L8.028,16.32L8.061,16.246C8.083,16.205 8.112,16.167 8.146,16.132L10.146,14.132C10.342,13.937 10.658,13.937 10.854,14.132C10.951,14.23 11,14.358 11,14.486ZM11,7.507L11,3.612C10.96,3.448 11.004,3.267 11.132,3.139C11.327,2.944 11.644,2.944 11.839,3.139L13.854,5.153C13.888,5.188 13.917,5.227 13.939,5.268L13.972,5.342L13.994,5.431L14,5.507L13.994,5.583L13.972,5.672L13.939,5.746C13.917,5.787 13.888,5.826 13.854,5.861L11.854,7.861C11.658,8.056 11.342,8.056 11.146,7.861C11.049,7.763 11,7.635 11,7.507Z" style="fill:black;"/>
        <g transform="matrix(1,0,0,1,1,1)">
            <path d="M15.549,7.715C15.84,8.419 16,9.191 16,10C16,13.311 13.311,16 10,16C9.191,16 8.419,15.84 7.715,15.549L8.494,14.769C8.97,14.919 9.475,15 10,15C12.76,15 15,12.76 15,10C15,9.475 14.919,8.97 14.769,8.494L15.549,7.715ZM4.451,12.285C4.16,11.581 4,10.809 4,10C4,6.689 6.689,4 10,4C10.809,4 11.581,4.16 12.285,4.451L11.506,5.231C11.03,5.081 10.525,5 10,5C7.24,5 5,7.24 5,10C5,10.525 5.081,11.03 5.231,11.506L4.451,12.285Z" style="fill:black;"/>
        </g>
    </g>
</svg>
