<?xml version="1.0" encoding="UTF-8" standalone="no"?>
<!DOCTYPE svg PUBLIC "-//W3C//DTD SVG 1.1//EN" "http://www.w3.org/Graphics/SVG/1.1/DTD/svg11.dtd">
<svg width="20px" height="20px" version="1.1" xmlns="http://www.w3.org/2000/svg" xmlns:xlink="http://www.w3.org/1999/xlink" xml:space="preserve" xmlns:serif="http://www.serif.com/" style="fill-rule:evenodd;clip-rule:evenodd;stroke-linejoin:round;stroke-miterlimit:2;">
    <g transform="matrix(0.9,0,0,0.9,1,1)">
        <rect x="0" y="0" width="20" height="20" style="fill-opacity:0;"/>
    </g>
    <g transform="matrix(1,0,0,1,-1,-1)">
        <g transform="matrix(1,0,0,1,1,1)">
            <path d="M15,16L15,13L16,13L16,15L18,15L18,16L15,16Z"/>
        </g>
        <g transform="matrix(1,0,0,1,1,1)">
            <path d="M11.028,15C11.276,12.751 13.185,11 15.5,11C17.984,11 20,13.016 20,15.5C20,17.984 17.984,20 15.5,20C14.724,20 13.994,19.803 13.357,19.457L14.18,18.634C14.586,18.805 15.032,18.9 15.5,18.9C17.377,18.9 18.9,17.377 18.9,15.5C18.9,13.623 17.377,12.1 15.5,12.1C13.793,12.1 12.379,13.36 12.137,15L14,15L11.5,18L9,15L11.028,15Z"/>
        </g>
        <g transform="matrix(1,0,0,1,1,1)">
            <path d="M18,10.6C17.25,10.217 16.4,10 15.5,10C12.984,10 10.861,11.693 10.208,14L9,14C8.612,14 8.259,14.224 8.094,14.576C7.93,14.927 7.983,15.342 8.232,15.64L9.365,17L3,17C2.448,17 2,16.552 2,16L2,7L18,7L18,10.6ZM3.814,3L4.886,6L2,6L2,4C2,3.735 2.105,3.48 2.293,3.293C2.48,3.105 2.735,3 3,3L3.814,3ZM14.885,3L18,3L18,6L15.956,6L14.885,3ZM9.386,6L6.956,6L5.885,3L8.314,3L9.386,6ZM13.886,6L11.456,6L10.385,3L12.814,3L13.886,6Z"/>
        </g>
    </g>
</svg>
