<?xml version="1.0" encoding="UTF-8" standalone="no"?>
<!DOCTYPE svg PUBLIC "-//W3C//DTD SVG 1.1//EN" "http://www.w3.org/Graphics/SVG/1.1/DTD/svg11.dtd">
<svg width="20px" height="20px" version="1.1" xmlns="http://www.w3.org/2000/svg" xmlns:xlink="http://www.w3.org/1999/xlink" xml:space="preserve" xmlns:serif="http://www.serif.com/" style="fill-rule:evenodd;clip-rule:evenodd;stroke-linejoin:round;stroke-miterlimit:2;">
    <rect x="0" y="0" width="20" height="20" style="fill-opacity:0;"/>
    <g transform="matrix(1,0,0,1,-1,-1)">
        <g transform="matrix(1,0,0,1,1,1)">
            <path d="M15,16L15,13L16,13L16,15L18,15L18,16L15,16Z" style="fill:black;"/>
        </g>
        <g transform="matrix(1,0,0,1,1,1)">
            <path d="M11.028,15C11.276,12.751 13.185,11 15.5,11C17.984,11 20,13.016 20,15.5C20,17.984 17.984,20 15.5,20C14.724,20 13.994,19.803 13.357,19.457L14.18,18.634C14.586,18.805 15.032,18.9 15.5,18.9C17.377,18.9 18.9,17.377 18.9,15.5C18.9,13.623 17.377,12.1 15.5,12.1C13.793,12.1 12.379,13.36 12.137,15L14,15L11.5,18L9,15L11.028,15Z" style="fill:black;"/>
        </g>
        <g transform="matrix(1,0,0,1,1,1)">
            <path d="M10.198,18L4.5,18C3.672,18 3,17.328 3,16.5L3,3.5C3,2.672 3.672,2 4.5,2L13,2L17,6L17,10.207C16.523,10.072 16.02,10 15.5,10C12.984,10 10.861,11.693 10.208,14L9,14C8.612,14 8.259,14.224 8.094,14.576C7.93,14.927 7.983,15.342 8.232,15.64L10.198,18ZM12,3L16,7L12,7L12,3Z" style="fill:black;"/>
        </g>
    </g>
</svg>
