<?xml version="1.0" encoding="UTF-8" standalone="no"?>
<!DOCTYPE svg PUBLIC "-//W3C//DTD SVG 1.1//EN" "http://www.w3.org/Graphics/SVG/1.1/DTD/svg11.dtd">
<svg width="20px" height="20px" version="1.1" xmlns="http://www.w3.org/2000/svg" xmlns:xlink="http://www.w3.org/1999/xlink" xml:space="preserve" xmlns:serif="http://www.serif.com/" style="fill-rule:evenodd;clip-rule:evenodd;stroke-linejoin:round;stroke-miterlimit:2;">
    <rect x="0" y="0" width="20" height="20" style="fill-opacity:0;"/>
    <g transform="matrix(1,0,0,1,-270,-140)">
        <path d="M278.226,147.121L282.833,150.997L278.226,154.879L277.167,153.799L280.55,151.01L277.167,148.201L278.226,147.121Z" style="fill:black;"/>
    </g>
    <g transform="matrix(1,0,0,1,-1,-1)">
        <path d="M17.5,14C19.432,14 21,15.568 21,17.5C21,19.432 19.432,21 17.5,21C15.568,21 14,19.432 14,17.5C14,15.568 15.568,14 17.5,14ZM20,17.5L16,15L16,20L20,17.5Z" style="fill:black;"/>
    </g>
    <g transform="matrix(1,0,0,1,-1,-1)">
        <path d="M13.028,18L6.5,18C5.672,18 5,17.328 5,16.5L5,4.5C5,3.672 5.672,3 6.5,3L13,3L17,7L17,13.028C16.653,13.066 16.318,13.144 16,13.256L16,8L12,8L12,4L6.5,4C6.224,4 6,4.224 6,4.5L6,16.5C6,16.776 6.224,17 6.5,17L13.028,17C13.009,17.164 13,17.331 13,17.5C13,17.669 13.009,17.836 13.028,18Z" style="fill:black;"/>
    </g>
</svg>
