<?xml version="1.0" encoding="UTF-8" standalone="no"?>
<!DOCTYPE svg PUBLIC "-//W3C//DTD SVG 1.1//EN" "http://www.w3.org/Graphics/SVG/1.1/DTD/svg11.dtd">
<svg width="20px" height="20px" version="1.1" xmlns="http://www.w3.org/2000/svg" xmlns:xlink="http://www.w3.org/1999/xlink" xml:space="preserve" xmlns:serif="http://www.serif.com/" style="fill-rule:evenodd;clip-rule:evenodd;stroke-linejoin:round;stroke-miterlimit:2;">
    <rect x="0" y="0" width="20" height="20" style="fill-opacity:0;"/>
    <g transform="matrix(1.03704,0,0,1.03704,5.667,3.68736)">
        <path d="M11.786,6.107L5.679,6.107C4.846,6.107 4.179,6.782 4.179,7.607L4.179,14.25C4.179,15.075 4.847,15.75 5.679,15.75L12.321,15.75C13.146,15.75 13.821,15.075 13.821,14.25L13.821,8.143L11.786,6.107ZM9,13.801C7.933,13.801 7.071,12.94 7.071,11.873C7.071,10.806 7.933,9.944 9,9.944C10.067,9.944 10.929,10.806 10.929,11.873C10.929,12.94 10.067,13.801 9,13.801ZM10.929,8.994L6.108,9L6.108,7.072L10.929,7.072L10.929,8.994Z" style="fill:black;fill-rule:nonzero;"/>
    </g>
    <path d="M3,16C2.448,16 2,15.552 2,15L2,2C2,1.448 2.448,1 3,1L10.379,1C10.777,1 11.158,1.158 11.439,1.439L12,2L3,2L3,16Z" style="fill:black;"/>
    <path d="M9,18L5.5,18C4.672,18 4,17.328 4,16.5L4,4.5C4,3.672 4.672,3 5.5,3L12,3L16,7L16,9L10.5,9C10.102,9 9.721,9.158 9.439,9.439C9.158,9.721 9,10.102 9,10.5C9,13.06 9,18 9,18ZM11,4L15,8L11,8L11,4Z" style="fill:black;"/>
</svg>
