<?xml version="1.0" encoding="UTF-8" standalone="no"?>
<!DOCTYPE svg PUBLIC "-//W3C//DTD SVG 1.1//EN" "http://www.w3.org/Graphics/SVG/1.1/DTD/svg11.dtd">
<svg width="20px" height="20px" version="1.1" xmlns="http://www.w3.org/2000/svg" xmlns:xlink="http://www.w3.org/1999/xlink" xml:space="preserve" xmlns:serif="http://www.serif.com/" style="fill-rule:evenodd;clip-rule:evenodd;stroke-linejoin:round;stroke-miterlimit:2;">
    <rect x="0" y="0" width="20" height="20" style="fill-opacity:0;"/>
    <g transform="matrix(1,0,0,1,0,-0.021)">
        <g transform="matrix(0.499809,0,0,0.499809,-253.894,17.9414)">
            <path d="M545.213,-10C544.991,-10 544.779,-9.911 544.623,-9.754L543.717,-8.842L546.842,-5.717L547.752,-6.623C548.082,-6.953 548.082,-7.473 547.752,-7.803L545.802,-9.753C545.647,-9.911 545.434,-10 545.213,-10ZM542.658,-7.78L533.992,0.888L533.992,4.007L537.113,4.007L545.778,-4.657L542.658,-7.78ZM535,1L536,1L536,2L537,2L537,3L535,3L535,1Z" style="fill:black;fill-rule:nonzero;"/>
        </g>
        <path d="M18.829,11.961C18.757,11.949 18.683,11.943 18.608,11.943C18.231,11.943 17.87,12.094 17.604,12.361L17.151,12.817C17.058,12.911 16.987,13.018 16.939,13.133C16.823,13.183 16.716,13.254 16.624,13.346L15.4,14.57C15.04,14.217 14.546,14 14,14C12.894,14 12,14.893 12,16C12,16.546 12.217,17.04 12.571,17.4L12.293,17.678C12.105,17.866 12,18.12 12,18.385L12,19.944C12,19.97 12.001,19.995 12.003,20.021L10.556,20.021C9.693,20.021 9,19.321 9,18.465L9,11.576C9,10.721 9.692,10.021 10.556,10.021L16.889,10.021L18.829,11.961ZM19,16.918L19,18.465C19,19.321 18.3,20.021 17.445,20.021L15.898,20.021L19,16.918ZM16.001,13.014L11.001,13.02L11.001,11.021L16.001,11.021L16.001,13.014Z" style="fill:black;"/>
    </g>
    <path d="M18,9L17,9L17,8C17,6.896 16.104,6 15,6L5,6C3.896,6 3,6.896 3,8L3,12C3,13.104 3.896,14 5,14L8,14L8,15L6,15L6,17L8,17L8,18L2,18L2,2L18,2L18,9ZM5,15L3,15L3,17L5,17L5,15ZM8,3L6,3L6,5L8,5L8,3ZM11,3L9,3L9,5L11,5L11,3ZM5,3L3,3L3,5L5,5L5,3ZM14,3L12,3L12,5L14,5L14,3ZM17,3L15,3L15,5L17,5L17,3Z" style="fill:black;"/>
</svg>
