<?xml version="1.0" encoding="UTF-8" standalone="no"?>
<!DOCTYPE svg PUBLIC "-//W3C//DTD SVG 1.1//EN" "http://www.w3.org/Graphics/SVG/1.1/DTD/svg11.dtd">
<svg width="20px" height="20px" version="1.1" xmlns="http://www.w3.org/2000/svg" xmlns:xlink="http://www.w3.org/1999/xlink" xml:space="preserve" xmlns:serif="http://www.serif.com/" style="fill-rule:evenodd;clip-rule:evenodd;stroke-linejoin:round;stroke-miterlimit:2;">
    <g transform="matrix(0.9,0,0,0.9,1,1)">
        <rect x="0" y="0" width="20" height="20" style="fill-opacity:0;"/>
    </g>
    <path d="M3.814,2L4.886,6L2,6L2,3C2,2.735 2.105,2.48 2.293,2.293C2.48,2.105 2.735,2 3,2C3.42,2 3.814,2 3.814,2ZM9.386,6L6.956,6L5.885,2L8.314,2L9.386,6ZM13.886,6L11.456,6L10.385,2L12.814,2L13.886,6ZM14.885,2L18,2L18,6L15.956,6L14.885,2Z" style="fill:black;"/>
    <g transform="matrix(1.03704,0,0,1.03704,5.55118,3.6668)">
        <g transform="matrix(1,0,0,1,0.111753,0)">
            <path d="M11.786,6.107L5.679,6.107C4.846,6.107 4.179,6.782 4.179,7.607L4.179,14.25C4.179,15.075 4.847,15.75 5.679,15.75L12.321,15.75C13.146,15.75 13.821,15.075 13.821,14.25L13.821,8.143L11.786,6.107ZM9,13.801C7.933,13.801 7.071,12.94 7.071,11.873C7.071,10.806 7.933,9.944 9,9.944C10.067,9.944 10.929,10.806 10.929,11.873C10.929,12.94 10.067,13.801 9,13.801ZM10.929,8.994L6.108,9L6.108,7.072L10.929,7.072L10.929,8.994Z" style="fill:black;fill-rule:nonzero;"/>
        </g>
        <g transform="matrix(0.964283,0,0,0.964283,-5.35291,-3.53583)">
            <path d="M18,9L10.5,9C9.673,9 9,9.672 9,10.5L9,18L3,18C2.448,18 2,17.552 2,17L2,7L18,7L18,9Z" style="fill:black;"/>
        </g>
    </g>
</svg>
