<?xml version="1.0" encoding="UTF-8" standalone="no"?>
<!DOCTYPE svg PUBLIC "-//W3C//DTD SVG 1.1//EN" "http://www.w3.org/Graphics/SVG/1.1/DTD/svg11.dtd">
<svg width="20px" height="20px" version="1.1" xmlns="http://www.w3.org/2000/svg" xmlns:xlink="http://www.w3.org/1999/xlink" xml:space="preserve" xmlns:serif="http://www.serif.com/" style="fill-rule:evenodd;clip-rule:evenodd;stroke-linejoin:round;stroke-miterlimit:2;">
    <g transform="matrix(1.25,0,0,1.25,-1.77636e-15,0)">
        <rect x="0" y="0" width="16" height="16" style="fill-opacity:0;"/>
    </g>
    <g transform="matrix(1,1.8378e-17,-1.8378e-17,1,-606,-18)">
        <path d="M622,31C622.552,31 623,31.448 623,32L623,34C623,34.552 622.552,35 622,35L619,35C618.448,35 618,34.552 618,34L618,32C618,31.448 618.448,31 619,31L622,31ZM610,28C610,27.448 610.448,27 611,27L620,27C620.552,27 621,27.448 621,28L621,31L622,31L619,31L620,31L620,28L611,28L611,31L612,31C612.552,31 613,31.448 613,32L613,34C613,34.552 612.552,35 612,35L609,35C608.448,35 608,34.552 608,34L608,32C608,31.448 608.448,31 609,31L610,31L610,28ZM614,24L617,24L616,24L616,27L615,27L615,24L614,24ZM617,20C617.552,20 618,20.448 618,21L618,23C618,23.552 617.552,24 617,24L614,24C613.448,24 613,23.552 613,23L613,21C613,20.448 613.448,20 614,20L617,20Z" style="fill:black;"/>
    </g>
</svg>
