<?xml version="1.0" encoding="UTF-8" standalone="no"?>
<!DOCTYPE svg PUBLIC "-//W3C//DTD SVG 1.1//EN" "http://www.w3.org/Graphics/SVG/1.1/DTD/svg11.dtd">
<svg width="20px" height="20px" version="1.1" xmlns="http://www.w3.org/2000/svg" xmlns:xlink="http://www.w3.org/1999/xlink" xml:space="preserve" xmlns:serif="http://www.serif.com/" style="fill-rule:evenodd;clip-rule:evenodd;stroke-linejoin:round;stroke-miterlimit:2;">
    <rect x="0" y="0" width="20" height="20" style="fill-opacity:0;"/>
    <g transform="matrix(1,0,0,1,1.77636e-15,0.030697)">
        <path d="M10,13L13,13L13,10L11,10L11,9L12,9L12,8L13,8L13,7L14,7L14,8L15,8L15,9L16,9L16,10L14,10L14,13L17,13L17,11L18,11L18,12L19,12L19,13L20,13L20,14L19,14L19,15L18,15L18,16L17,16L17,14L14,14L14,17L16,17L16,18L15,18L15,19L14,19L14,20L13,20L13,19L12,19L12,18L11,18L11,17L13,17L13,14L10,14L10,16L9,16L9,15L8,15L8,14L7,14L7,13L8,13L8,12L9,12L9,11L10,11L10,13Z" style="fill:black;"/>
    </g>
    <path d="M2.97,14.057C3.148,13.879 3.148,13.591 2.97,13.413L1.682,12.125C1.504,11.947 1.216,11.947 1.038,12.125C0.861,12.303 0.861,12.591 1.038,12.769L2.326,14.057C2.504,14.235 2.792,14.235 2.97,14.057ZM4.902,13.413C5.08,13.235 5.08,12.947 4.902,12.769L2.326,10.193C2.148,10.016 1.86,10.016 1.682,10.193C1.504,10.371 1.504,10.659 1.682,10.837L4.258,13.413C4.436,13.591 4.724,13.591 4.902,13.413ZM6,12.06C5.725,12.1 5.435,12.014 5.224,11.803L3.292,9.871C2.937,9.516 2.937,8.939 3.292,8.583L4.151,7.725L4.709,3.818C4.764,3.428 4.945,3.067 5.224,2.788L5.493,3.057L5.224,2.788C5.224,2.788 5.437,2.574 5.546,2.466C7.5,0.511 10.674,0.511 12.629,2.466C13.612,3.449 14.101,4.741 14.095,6.031L13.184,6.031C13.19,4.974 12.791,3.916 11.985,3.11C10.386,1.511 7.789,1.511 6.19,3.11C6.081,3.219 5.868,3.432 5.868,3.432L10.467,8.031L10,8.031L10,10.031L8,10.031L8,10.855L7.37,10.944L7.284,11.031L7,11.031L7,11.315L6.512,11.803C6.402,11.913 6.271,11.989 6.132,12.031L6,12.031L6,12.06ZM13.99,7.031C13.799,7.954 13.345,8.833 12.629,9.549C12.629,9.549 12.629,9.549 12.629,9.549C12.443,9.736 12.235,9.897 12.012,10.031L11,10.031L11,9.031L11.467,9.031L11.663,9.227L11.86,9.031L12,9.031L12,8.89C12.26,8.627 12.478,8.338 12.652,8.031L13,8.031L13,7.227C13.02,7.162 13.039,7.097 13.056,7.031L13.99,7.031Z" style="fill:black;"/>
</svg>
