<?xml version="1.0" encoding="UTF-8" standalone="no"?>
<!DOCTYPE svg PUBLIC "-//W3C//DTD SVG 1.1//EN" "http://www.w3.org/Graphics/SVG/1.1/DTD/svg11.dtd">
<svg width="20px" height="20px" version="1.1" xmlns="http://www.w3.org/2000/svg" xmlns:xlink="http://www.w3.org/1999/xlink" xml:space="preserve" xmlns:serif="http://www.serif.com/" style="fill-rule:evenodd;clip-rule:evenodd;stroke-linejoin:round;stroke-miterlimit:2;">
    <rect x="0" y="0" width="20" height="20" style="fill-opacity:0;"/>
    <g transform="matrix(0.643935,0.643935,-0.643935,0.643935,9.44347,-3.00743)">
        <path d="M9,17.5C9,17.224 8.776,17 8.5,17L6.5,17C6.224,17 6,17.224 6,17.5C6,17.776 6.224,18 6.5,18L8.5,18C8.776,18 9,17.776 9,17.5ZM10,15.5C10,15.224 9.776,15 9.5,15L5.5,15C5.224,15 5,15.224 5,15.5C5,15.776 5.224,16 5.5,16L9.5,16C9.776,16 10,15.776 10,15.5ZM12,7L12,6.5C12,4.016 9.984,2 7.5,2C5.016,2 3,4.016 3,6.5L3,7L12,7ZM2,7L2,6.5C2,3.464 4.464,1 7.5,1C10.536,1 13,3.464 13,6.5L13,6.5C13,7.257 12.754,7.994 12.3,8.6L10,11.667L10,13C10,13.552 9.552,14 9,14L6,14C5.448,14 5,13.552 5,13L5,11.667L2.4,8.2C2.14,7.854 2,7.433 2,7L2.418,7L2.418,7L2,7Z" style="fill:black;"/>
    </g>
    <g transform="matrix(1,0,0,1,-1,-1)">
        <g transform="matrix(1,0,0,1,1,1)">
            <path d="M15,16L15,13L16,13L16,15L18,15L18,16L15,16Z" style="fill:black;"/>
        </g>
        <g transform="matrix(1,0,0,1,1,1)">
            <path d="M11.028,15C11.276,12.751 13.185,11 15.5,11C17.984,11 20,13.016 20,15.5C20,17.984 17.984,20 15.5,20C14.724,20 13.994,19.803 13.357,19.457L14.18,18.634C14.586,18.805 15.032,18.9 15.5,18.9C17.377,18.9 18.9,17.377 18.9,15.5C18.9,13.623 17.377,12.1 15.5,12.1C13.793,12.1 12.379,13.36 12.137,15L14,15L11.5,18L9,15L11.028,15Z" style="fill:black;"/>
        </g>
    </g>
</svg>
