<?xml version="1.0" encoding="UTF-8" standalone="no"?>
<!DOCTYPE svg PUBLIC "-//W3C//DTD SVG 1.1//EN" "http://www.w3.org/Graphics/SVG/1.1/DTD/svg11.dtd">
<svg width="20px" height="20px" version="1.1" xmlns="http://www.w3.org/2000/svg" xmlns:xlink="http://www.w3.org/1999/xlink" xml:space="preserve" xmlns:serif="http://www.serif.com/" style="fill-rule:evenodd;clip-rule:evenodd;stroke-linejoin:round;stroke-miterlimit:2;">
    <rect x="0" y="0" width="20" height="20" style="fill-opacity:0;"/>
    <g transform="matrix(1,0,0,1,0,2)">
        <path d="M3,6.5C3,6.224 2.776,6 2.5,6L1.5,6C1.224,6 1,6.224 1,6.5C1,6.776 1.224,7 1.5,7L2.5,7C2.776,7 3,6.776 3,6.5Z" style="fill:black;"/>
    </g>
    <g transform="matrix(0.853602,0.853602,-0.707107,0.707107,5.88904,-2.30335)">
        <path d="M3,6.5C3,6.224 2.814,6 2.586,6L1.414,6C1.186,6 1,6.224 1,6.5C1,6.776 1.186,7 1.414,7L2.586,7C2.814,7 3,6.776 3,6.5Z" style="fill:black;"/>
    </g>
    <g transform="matrix(-0.853602,0.853602,0.707107,0.707107,14.1111,-2.30335)">
        <path d="M3,6.5C3,6.224 2.814,6 2.586,6L1.414,6C1.186,6 1,6.224 1,6.5C1,6.776 1.186,7 1.414,7L2.586,7C2.814,7 3,6.776 3,6.5Z" style="fill:black;"/>
    </g>
    <g transform="matrix(1,0,0,1,15,2)">
        <path d="M3,6.5C3,6.224 2.776,6 2.5,6L1.5,6C1.224,6 1,6.224 1,6.5C1,6.776 1.224,7 1.5,7L2.5,7C2.776,7 3,6.776 3,6.5Z" style="fill:black;"/>
    </g>
    <g transform="matrix(-1.83697e-16,1,-1,-1.83697e-16,16,-1)">
        <path d="M3,6.5C3,6.224 2.776,6 2.5,6L1.5,6C1.224,6 1,6.224 1,6.5C1,6.776 1.224,7 1.5,7L2.5,7C2.776,7 3,6.776 3,6.5Z" style="fill:black;"/>
    </g>
    <g transform="matrix(1,0,0,1,2,2)">
        <path d="M9,17.5C9,17.224 8.776,17 8.5,17L6.5,17C6.224,17 6,17.224 6,17.5C6,17.776 6.224,18 6.5,18L8.5,18C8.776,18 9,17.776 9,17.5ZM10,15.5C10,15.224 9.776,15 9.5,15L5.5,15C5.224,15 5,15.224 5,15.5C5,15.776 5.224,16 5.5,16L9.5,16C9.776,16 10,15.776 10,15.5ZM12,7L12,6.5C12,4.016 9.984,2 7.5,2C5.016,2 3,4.016 3,6.5L3,7L12,7ZM2,7L2,6.5C2,3.464 4.464,1 7.5,1C10.536,1 13,3.464 13,6.5L13,6.5C13,7.257 12.754,7.994 12.3,8.6L10,11.667L10,13C10,13.552 9.552,14 9,14L6,14C5.448,14 5,13.552 5,13L5,11.667L2.4,8.2C2.14,7.854 2,7.433 2,7L2.418,7L2.418,7L2,7Z" style="fill:black;"/>
    </g>
</svg>
