<?xml version="1.0" encoding="UTF-8" standalone="no"?>
<!DOCTYPE svg PUBLIC "-//W3C//DTD SVG 1.1//EN" "http://www.w3.org/Graphics/SVG/1.1/DTD/svg11.dtd">
<svg width="20px" height="20px" version="1.1" xmlns="http://www.w3.org/2000/svg" xmlns:xlink="http://www.w3.org/1999/xlink" xml:space="preserve" xmlns:serif="http://www.serif.com/" style="fill-rule:evenodd;clip-rule:evenodd;stroke-linejoin:round;stroke-miterlimit:2;">
    <rect x="0" y="0" width="20" height="20" style="fill-opacity:0;"/>
    <g transform="matrix(0.643935,0.643935,-0.643935,0.643935,8.44347,-3.00743)">
        <path d="M9,17.5C9,17.224 8.776,17 8.5,17L6.5,17C6.224,17 6,17.224 6,17.5C6,17.776 6.224,18 6.5,18L8.5,18C8.776,18 9,17.776 9,17.5ZM10,15.5C10,15.224 9.776,15 9.5,15L5.5,15C5.224,15 5,15.224 5,15.5C5,15.776 5.224,16 5.5,16L9.5,16C9.776,16 10,15.776 10,15.5ZM12,7L12,6.5C12,4.016 9.984,2 7.5,2C5.016,2 3,4.016 3,6.5L3,7L12,7ZM2,7L2,6.5C2,3.464 4.464,1 7.5,1C10.536,1 13,3.464 13,6.5L13,6.5C13,7.257 12.754,7.994 12.3,8.6L10,11.667L10,13C10,13.552 9.552,14 9,14L6,14C5.448,14 5,13.552 5,13L5,11.667L2.4,8.2C2.14,7.854 2,7.433 2,7L2.418,7L2.418,7L2,7Z" style="fill:black;"/>
    </g>
    <path d="M8,15.991C8,15.991 10.248,12 14.001,12C17.752,12 20,15.991 20,15.991C20,15.991 17.761,20 14.001,20C10.239,20 8,15.991 8,15.991ZM14,13C15.656,13 17,14.344 17,16C17,17.656 15.656,19 14,19C12.344,19 11,17.656 11,16C11,14.344 12.344,13 14,13ZM14,14.5C14.828,14.5 15.5,15.172 15.5,16C15.5,16.828 14.828,17.5 14,17.5C13.172,17.5 12.5,16.828 12.5,16C12.5,15.172 13.172,14.5 14,14.5Z" style="fill:black;"/>
</svg>
