<?xml version="1.0" encoding="UTF-8" standalone="no"?>
<!DOCTYPE svg PUBLIC "-//W3C//DTD SVG 1.1//EN" "http://www.w3.org/Graphics/SVG/1.1/DTD/svg11.dtd">
<svg width="20px" height="20px" version="1.1" xmlns="http://www.w3.org/2000/svg" xmlns:xlink="http://www.w3.org/1999/xlink" xml:space="preserve" xmlns:serif="http://www.serif.com/" style="fill-rule:evenodd;clip-rule:evenodd;stroke-linejoin:round;stroke-miterlimit:2;">
    <rect x="0" y="0" width="20" height="20" style="fill-opacity:0;"/>
    <g transform="matrix(1,0,0,1,-878.05,-40)">
        <g transform="matrix(1.4,0,0,1.4,878.25,39.5)">
            <path d="M10.571,10.357C10.571,10.752 10.891,11.071 11.286,11.071C11.68,11.071 12,10.752 12,10.357L12,4.643C12,4.248 11.68,3.929 11.286,3.929L9.857,3.929C9.463,3.929 9.143,4.248 9.143,4.643C9.143,5.037 9.463,5.357 9.857,5.357L10.571,5.357L10.571,10.357Z" style="fill:black;fill-rule:nonzero;"/>
        </g>
        <g transform="matrix(1,0,0,1,0.05,0)">
            <path d="M881,49L884,49L884,46L886,46L886,49L889,49L889,51L886,51L886,54L884,54L884,51L881,51L881,49Z" style="fill:black;"/>
        </g>
    </g>
</svg>
