<?xml version="1.0" encoding="UTF-8" standalone="no"?>
<!DOCTYPE svg PUBLIC "-//W3C//DTD SVG 1.1//EN" "http://www.w3.org/Graphics/SVG/1.1/DTD/svg11.dtd">
<svg width="20px" height="20px" version="1.1" xmlns="http://www.w3.org/2000/svg" xmlns:xlink="http://www.w3.org/1999/xlink" xml:space="preserve" xmlns:serif="http://www.serif.com/" style="fill-rule:evenodd;clip-rule:evenodd;stroke-linejoin:round;stroke-miterlimit:2;">
    <rect x="0" y="0" width="20" height="20" style="fill-opacity:0;"/>
    <g transform="matrix(1,0,0,1,-900,-40)">
        <g transform="matrix(1,0,0,1,21,0)">
            <path d="M881,49L884,49L884,46L886,46L886,49L889,49L889,51L886,51L886,54L884,54L884,51L881,51L881,49Z" style="fill:black;"/>
        </g>
        <g transform="matrix(1.33333,0,0,1.33333,901,40)">
            <path d="M12.75,9.75L12.75,8.625C12.75,8.002 12.247,7.5 11.625,7.5C12.247,7.5 12.75,6.998 12.75,6.375L12.75,5.25C12.75,4.417 12.075,3.75 11.25,3.75L9,3.75C8.586,3.75 8.25,4.086 8.25,4.5C8.25,4.914 8.586,5.25 9,5.25L11.25,5.25L11.25,6.75L10.5,6.75C10.301,6.75 10.11,6.829 9.97,6.97C9.829,7.11 9.75,7.301 9.75,7.5C9.75,7.914 10.086,8.25 10.5,8.25L11.25,8.25L11.25,9.75L9,9.75C8.586,9.75 8.25,10.086 8.25,10.5C8.25,10.914 8.586,11.25 9,11.25L11.25,11.25C12.075,11.25 12.75,10.583 12.75,9.75Z" style="fill:black;fill-rule:nonzero;"/>
        </g>
    </g>
</svg>
