<?xml version="1.0" encoding="UTF-8" standalone="no"?>
<!DOCTYPE svg PUBLIC "-//W3C//DTD SVG 1.1//EN" "http://www.w3.org/Graphics/SVG/1.1/DTD/svg11.dtd">
<svg width="100%" height="100%" viewBox="0 0 20 20" version="1.1" xmlns="http://www.w3.org/2000/svg" xmlns:xlink="http://www.w3.org/1999/xlink" xml:space="preserve" xmlns:serif="http://www.serif.com/" style="fill-rule:evenodd;clip-rule:evenodd;stroke-linejoin:round;stroke-miterlimit:2;">
    <rect x="0" y="0" width="20" height="20" style="fill-opacity:0;"/>
    <path d="M14.198,11.447l-0.699,-0.698l1.409,-1.409l0.934,0.934l1.884,-1.884c0.52,-0.52 1.363,-0.52 1.884,0c0.52,0.52 0.52,1.364 -0,1.884l-1.884,1.883l0.942,0.942l-1.409,1.409l-0.706,-0.706l-5.68,5.68c-0.661,0.66 -1.732,0.66 -2.393,-0c-0.001,-0 -0.001,-0.001 -0.001,-0.001c-0.639,-0.639 -0.64,-1.676 0,-2.316l5.719,-5.718Zm0.471,0.471l-5.719,5.719c-0.379,0.379 -0.379,0.993 0,1.372c0.001,0 0.001,0.001 0.002,0.001c0.4,0.401 1.049,0.401 1.45,0.001l5.679,-5.68l-1.412,-1.413Z"/>
    <path d="M8.932,15.299c-0.147,-0.11 -0.291,-0.229 -0.432,-0.359c-1.365,1.253 -3,1.569 -4.906,0.95c-0.159,-0.051 -0.298,-0.152 -0.396,-0.288c-1.178,-1.62 -1.382,-3.274 -0.613,-4.958c-1.613,-0.912 -2.419,-2.37 -2.419,-4.372c-0,-0.168 0.053,-0.331 0.151,-0.467c1.178,-1.62 2.687,-2.325 4.528,-2.115c0.368,-1.815 1.505,-3.032 3.41,-3.651c0.159,-0.052 0.331,-0.052 0.49,-0c1.905,0.619 3.042,1.836 3.41,3.651c1.841,-0.21 3.35,0.495 4.528,2.115c0.098,0.136 0.151,0.299 0.151,0.467c0,0.694 -0.097,1.323 -0.291,1.887l-0.701,0.701l-0.227,-0.227c-0.038,-0.039 -0.079,-0.073 -0.121,-0.104c0.365,-0.629 0.547,-1.382 0.547,-2.257c-1.148,-1.58 -2.668,-2.131 -4.561,-1.652c-0.13,-1.948 -1.123,-3.224 -2.98,-3.827c-1.857,0.603 -2.85,1.879 -2.98,3.827c-1.893,-0.479 -3.413,0.072 -4.561,1.652c-0,1.952 0.907,3.291 2.719,4.016c-1.04,1.653 -0.986,3.269 0.161,4.848c1.857,0.604 3.411,0.156 4.661,-1.345c0.315,0.379 0.65,0.691 1.004,0.935l-0.572,0.573Zm-0.432,-9.214c1.455,0 2.636,1.182 2.636,2.637c0,1.455 -1.181,2.636 -2.636,2.636c-1.455,-0 -2.636,-1.181 -2.636,-2.636c-0,-1.455 1.181,-2.637 2.636,-2.637Zm0,0.793c-1.017,0 -1.843,0.826 -1.843,1.844c-0,1.017 0.826,1.843 1.843,1.843c1.017,0 1.843,-0.826 1.843,-1.843c0,-1.018 -0.826,-1.844 -1.843,-1.844Z"/>
</svg>