<?xml version="1.0" encoding="UTF-8" standalone="no"?>
<!DOCTYPE svg PUBLIC "-//W3C//DTD SVG 1.1//EN" "http://www.w3.org/Graphics/SVG/1.1/DTD/svg11.dtd">
<svg width="100%" height="100%" viewBox="0 0 20 20" version="1.1" xmlns="http://www.w3.org/2000/svg" xmlns:xlink="http://www.w3.org/1999/xlink" xml:space="preserve" xmlns:serif="http://www.serif.com/" style="fill-rule:evenodd;clip-rule:evenodd;stroke-linejoin:round;stroke-miterlimit:2;">
    <rect x="0" y="0" width="20" height="20" style="fill-opacity:0;"/>
    <path d="M14.198,11.447l-0.699,-0.698l1.409,-1.409l0.934,0.934l1.884,-1.884c0.52,-0.52 1.363,-0.52 1.884,0c0.52,0.52 0.52,1.364 -0,1.884l-1.884,1.883l0.942,0.942l-1.409,1.409l-0.706,-0.706l-5.68,5.68c-0.661,0.66 -1.732,0.66 -2.393,-0c-0.001,-0 -0.001,-0.001 -0.001,-0.001c-0.639,-0.639 -0.64,-1.676 0,-2.316l5.719,-5.718Zm0.471,0.471l-5.719,5.719c-0.379,0.379 -0.379,0.993 0,1.372c0.001,0 0.001,0.001 0.002,0.001c0.4,0.401 1.049,0.401 1.45,0.001l5.679,-5.68l-1.412,-1.413Z"/>
    <path d="M8.936,15.295c-0.159,-0.117 -0.315,-0.245 -0.467,-0.384c-1.363,1.25 -2.994,1.566 -4.896,0.948c-0.159,-0.052 -0.298,-0.152 -0.396,-0.288c-1.175,-1.617 -1.379,-3.267 -0.611,-4.949c-1.61,-0.91 -2.415,-2.364 -2.415,-4.363c0,-0.167 0.053,-0.33 0.151,-0.465c1.176,-1.618 2.681,-2.321 4.519,-2.111c0.367,-1.812 1.502,-3.026 3.403,-3.644c0.159,-0.052 0.33,-0.052 0.489,-0c1.902,0.618 3.037,1.832 3.404,3.644c1.837,-0.21 3.343,0.493 4.518,2.111c0.098,0.135 0.151,0.298 0.151,0.465c0,0.734 -0.108,1.395 -0.325,1.982l-0.619,0.619l-0.227,-0.227c-0.05,-0.05 -0.104,-0.094 -0.161,-0.131c0.361,-0.626 0.541,-1.373 0.541,-2.243c-1.146,-1.576 -2.663,-2.126 -4.552,-1.648c-0.129,-1.944 -1.121,-3.218 -2.974,-3.82c-1.853,0.602 -2.845,1.876 -2.974,3.82c-1.89,-0.478 -3.407,0.072 -4.552,1.648c-0,1.948 0.905,3.285 2.714,4.009c-1.038,1.649 -0.985,3.262 0.161,4.838c1.853,0.602 3.404,0.155 4.651,-1.342c0.326,0.391 0.672,0.71 1.039,0.958l-0.572,0.573Zm1.152,-1.152c-0.361,-0.214 -0.698,-0.509 -1.011,-0.886c-0.151,-0.18 -0.373,-0.284 -0.608,-0.284c-0.235,-0 -0.457,0.104 -0.608,0.284c-0.963,1.156 -2.146,1.545 -3.55,1.17c-0.791,-1.219 -0.785,-2.465 0.015,-3.737c0.125,-0.199 0.156,-0.444 0.083,-0.667c-0.072,-0.223 -0.24,-0.403 -0.458,-0.49c-1.396,-0.558 -2.132,-1.563 -2.209,-3.014c0.915,-1.13 2.102,-1.51 3.559,-1.141c0.227,0.058 0.469,0.011 0.659,-0.127c0.19,-0.138 0.309,-0.353 0.325,-0.587c0.1,-1.501 0.828,-2.512 2.184,-3.033c1.356,0.521 2.084,1.532 2.184,3.033c0.016,0.234 0.134,0.449 0.324,0.587c0.191,0.138 0.432,0.185 0.66,0.127c1.457,-0.369 2.644,0.011 3.559,1.141c-0.04,0.747 -0.254,1.375 -0.643,1.886c-0.128,0.048 -0.248,0.124 -0.352,0.228l-0.603,0.603c-0.188,0.11 -0.391,0.209 -0.611,0.297c-0.218,0.087 -0.386,0.267 -0.459,0.49c-0.052,0.16 -0.051,0.331 -0,0.487c-0.019,0.078 -0.029,0.158 -0.029,0.238c0,0.262 0.102,0.512 0.285,0.699l-2.696,2.696Zm-1.619,-8.861c-1.889,0 -3.423,1.533 -3.423,3.422c0,1.889 1.534,3.423 3.423,3.423c1.889,-0 3.422,-1.534 3.422,-3.423c0,-1.889 -1.533,-3.422 -3.422,-3.422Zm-0,0.791c1.452,0 2.631,1.179 2.631,2.631c0,1.452 -1.179,2.631 -2.631,2.631c-1.452,0 -2.631,-1.179 -2.631,-2.631c-0,-1.452 1.179,-2.631 2.631,-2.631Zm-0,0.791c-1.015,0 -1.84,0.825 -1.84,1.84c0,1.016 0.825,1.84 1.84,1.84c1.015,0 1.84,-0.824 1.84,-1.84c-0,-1.015 -0.825,-1.84 -1.84,-1.84Z"/>
</svg>