<?xml version="1.0" encoding="UTF-8" standalone="no"?>
<!DOCTYPE svg PUBLIC "-//W3C//DTD SVG 1.1//EN" "http://www.w3.org/Graphics/SVG/1.1/DTD/svg11.dtd">
<svg width="20px" height="20px" version="1.1" xmlns="http://www.w3.org/2000/svg" xmlns:xlink="http://www.w3.org/1999/xlink" xml:space="preserve" xmlns:serif="http://www.serif.com/" style="fill-rule:evenodd;clip-rule:evenodd;stroke-linejoin:round;stroke-miterlimit:2;">
    <rect x="0" y="0" width="20" height="20" style="fill-opacity:0;"/>
    <g transform="matrix(0.996608,-0.575392,0.575392,0.996608,-7.87469,6.76749)">
        <g transform="matrix(0.564437,0.325878,-0.325878,0.564437,11.2704,3.73046)">
            <path d="M6.305,12.885C7.66,12.9 8.678,13.896 9.076,15.086C9.346,15.891 9.337,16.812 9.208,17.507C9.138,17.884 9.054,18.225 8.791,18.645C8.53,19.064 8.228,19.312 7.848,19.551C7.394,19.837 6.745,19.989 5.641,19.991C5.11,19.992 1.992,19.992 1.992,19.992C1.992,19.992 2.719,19.226 2.864,19.05C3.811,17.899 3.522,17.74 3.543,16.171C3.553,15.481 3.615,14.882 3.821,14.373C4.392,12.962 5.743,12.879 6.305,12.885ZM7.508,11.754L7.463,11.709C7.463,11.709 11.805,7.744 13.774,6.09C14.524,5.46 15.891,4.61 16.675,4.137C17.024,3.925 17.464,3.974 17.746,4.256L17.745,4.256C18.026,4.537 18.074,4.978 17.864,5.325C17.391,6.111 16.542,7.478 15.911,8.227C14.257,10.196 10.292,14.538 10.292,14.538L10.247,14.493C10.073,13.856 9.737,13.257 9.24,12.761C8.744,12.265 8.145,11.928 7.508,11.754Z" style="fill:black;"/>
        </g>
        <g transform="matrix(0.752553,0.434487,-0.434487,0.752553,8.8665,-1.67145)">
            <path d="M9.039,13.959C9.477,13.685 9.97,13.662 10.233,13.665C10.616,13.669 10.963,13.778 11.263,13.959L9.039,13.959ZM7.666,13.959L5.393,13.959L1.941,7.98L5.393,2L12.298,2L15.505,7.555C15.391,7.641 15.285,7.724 15.192,7.802C13.705,9.051 10.427,12.044 10.427,12.044C10.249,12.207 10.136,12.428 10.108,12.666C9.487,12.68 8.339,12.857 7.666,13.959ZM14.991,9.294L12.489,13.628C12.471,13.609 12.453,13.59 12.434,13.572C12.062,13.199 11.613,12.947 11.135,12.816L11.101,12.782C11.101,12.782 13.381,10.701 14.991,9.294Z" style="fill:black;"/>
        </g>
    </g>
</svg>
