<?xml version="1.0" encoding="UTF-8" standalone="no"?>
<!DOCTYPE svg PUBLIC "-//W3C//DTD SVG 1.1//EN" "http://www.w3.org/Graphics/SVG/1.1/DTD/svg11.dtd">
<svg width="100%" height="100%" viewBox="0 0 20 20" version="1.1" xmlns="http://www.w3.org/2000/svg" xmlns:xlink="http://www.w3.org/1999/xlink" xml:space="preserve" xmlns:serif="http://www.serif.com/" style="fill-rule:evenodd;clip-rule:evenodd;stroke-linejoin:round;stroke-miterlimit:2;">
    <rect x="0" y="0" width="20" height="20" style="fill-opacity:0;"/>
    <path d="M14.198,11.447l-0.699,-0.698l1.409,-1.409l0.934,0.934l1.884,-1.884c0.52,-0.52 1.363,-0.52 1.884,0c0.52,0.52 0.52,1.364 -0,1.884l-1.884,1.883l0.942,0.942l-1.409,1.409l-0.706,-0.706l-5.68,5.68c-0.661,0.66 -1.732,0.66 -2.393,-0c-0.001,-0 -0.001,-0.001 -0.001,-0.001c-0.639,-0.639 -0.64,-1.676 0,-2.316l5.719,-5.718Zm0.471,0.471l-5.719,5.719c-0.379,0.379 -0.379,0.993 0,1.372c0.001,0 0.001,0.001 0.002,0.001c0.4,0.401 1.049,0.401 1.45,0.001l5.679,-5.68l-1.412,-1.413Z"/>
    <path d="M16.065,8.636l-0.223,0.224l-0.227,-0.227c-0.39,-0.391 -1.023,-0.391 -1.414,-0l-1.409,1.408c-0.187,0.188 -0.293,0.442 -0.293,0.707c0,0.262 0.102,0.512 0.285,0.699l-3.545,3.545c-0.257,-0.215 -0.503,-0.464 -0.74,-0.748c-1.369,1.644 -3.072,2.134 -5.107,1.473c-1.257,-1.73 -1.316,-3.501 -0.176,-5.312c-1.986,-0.795 -2.98,-2.262 -2.98,-4.401c1.258,-1.731 2.924,-2.335 4.998,-1.81c0.142,-2.135 1.231,-3.533 3.265,-4.194c2.035,0.661 3.124,2.059 3.266,4.194c2.074,-0.525 3.74,0.079 4.998,1.81c0,1.034 -0.233,1.912 -0.698,2.632Zm-7.566,-2.837c-1.594,0 -2.888,1.295 -2.888,2.889c-0,1.595 1.294,2.889 2.888,2.889c1.595,0 2.889,-1.294 2.889,-2.889c0,-1.594 -1.294,-2.889 -2.889,-2.889Z"/>
</svg>