<?xml version="1.0" encoding="UTF-8" standalone="no"?>
<!DOCTYPE svg PUBLIC "-//W3C//DTD SVG 1.1//EN" "http://www.w3.org/Graphics/SVG/1.1/DTD/svg11.dtd">
<svg width="20px" height="20px" version="1.1" xmlns="http://www.w3.org/2000/svg" xmlns:xlink="http://www.w3.org/1999/xlink" xml:space="preserve" xmlns:serif="http://www.serif.com/" style="fill-rule:evenodd;clip-rule:evenodd;stroke-linejoin:round;stroke-miterlimit:2;">
    <rect x="0" y="0" width="20" height="20" style="fill-opacity:0;"/>
    <g transform="matrix(1,0,0,1,-2,-4)">
        <g transform="matrix(0.718603,0,0,0.718603,-377.728,15.1451)">
            <path d="M542.378,-7.5L533.992,0.888L533.992,4.007L537.113,4.007L545.498,-4.377L542.378,-7.5Z" style="fill:black;"/>
        </g>
        <g transform="matrix(0.718603,0,0,0.718603,-372.966,10.3823)">
            <path d="M538.636,-3.423L539.225,-3.176L541.175,-1.226C541.505,-0.896 541.505,-0.376 541.175,-0.046L540.265,0.86L537.14,-2.265L538.046,-3.177C538.202,-3.335 538.415,-3.423 538.636,-3.423Z" style="fill:black;"/>
        </g>
        <g id="path832" transform="matrix(1,0,0,1,0,2)">
            <g transform="matrix(1,0,0,1,2,2)">
                <path d="M8,15.991C8,15.991 10.248,12 14.001,12C17.752,12 20,15.991 20,15.991C20,15.991 17.761,20 14.001,20C10.239,20 8,15.991 8,15.991ZM14,13C15.656,13 17,14.344 17,16C17,17.656 15.656,19 14,19C12.344,19 11,17.656 11,16C11,14.344 12.344,13 14,13ZM14,14.5C14.828,14.5 15.5,15.172 15.5,16C15.5,16.828 14.828,17.5 14,17.5C13.172,17.5 12.5,16.828 12.5,16C12.5,15.172 13.172,14.5 14,14.5Z" style="fill:black;"/>
            </g>
            <g transform="matrix(1,0,0,1,2,2)">
                <path d="M7.457,17L3,17C1.895,17 1,16.105 1,15L1,3C1,1.895 1.895,1 3,1L15,1C15.53,1 16.039,1.211 16.414,1.586C16.789,1.961 17,2.47 17,3L17,11.766C16.684,11.6 16.35,11.454 16,11.335L16,3C16,2.448 15.552,2 15,2L3,2C2.448,2 2,2.448 2,3L2,15C2,15.552 2.448,16 3,16L7,16C7.002,16.165 7.044,16.33 7.127,16.478C7.127,16.478 7.239,16.681 7.457,17Z" style="fill:black;"/>
            </g>
        </g>
    </g>
</svg>
