<?xml version="1.0" encoding="UTF-8" standalone="no"?>
<!DOCTYPE svg PUBLIC "-//W3C//DTD SVG 1.1//EN" "http://www.w3.org/Graphics/SVG/1.1/DTD/svg11.dtd">
<svg width="20px" height="20px" version="1.1" xmlns="http://www.w3.org/2000/svg" xmlns:xlink="http://www.w3.org/1999/xlink" xml:space="preserve" xmlns:serif="http://www.serif.com/" style="fill-rule:evenodd;clip-rule:evenodd;stroke-linejoin:round;stroke-miterlimit:2;">
    <rect x="0" y="0" width="20" height="20" style="fill-opacity:0;"/>
    <g transform="matrix(1,0,0,1,1,-3)">
        <path d="M16,7C15.794,6.418 15.153,6 14.5,6L3.5,6C3.348,6 3.202,6.023 3.064,6.064C3.251,5.449 3.824,5 4.5,5L15.5,5C16.328,5 17,5.672 17,6.5L17,16.5C17,17.176 16.551,17.749 15.936,17.936C15.977,17.798 16,17.652 16,17.5L16,7Z" style="fill:black;"/>
    </g>
    <g transform="matrix(1,0,0,1,0,0.001)">
        <path d="M14.5,18.001C14.898,18.001 15.28,17.843 15.56,17.561C15.842,17.279 16,16.898 16,16.5L16,5.5C16,4.672 15.328,3.999 14.5,3.999L3.5,3.999C3.102,3.999 2.72,4.157 2.44,4.439C2.158,4.72 2,5.102 2,5.5L2,16.5C2,16.898 2.158,17.279 2.44,17.561C2.72,17.843 3.102,18.001 3.5,18.001L14.5,18.001ZM15,7L3,7L3,15.985C3,16.25 3.105,16.504 3.293,16.692C3.48,16.88 3.735,16.986 4,16.986L14,16.986C14.265,16.986 14.52,16.88 14.707,16.692C14.895,16.504 15,16.25 15,15.985L15,7ZM15,5.5C15,5.224 14.776,5 14.5,5L12.5,5C12.224,5 12,5.224 12,5.5C12,5.776 12.224,6 12.5,6L14.5,6C14.776,6 15,5.776 15,5.5Z" style="fill:black;"/>
    </g>
</svg>
