<?xml version="1.0" encoding="UTF-8" standalone="no"?>
<!DOCTYPE svg PUBLIC "-//W3C//DTD SVG 1.1//EN" "http://www.w3.org/Graphics/SVG/1.1/DTD/svg11.dtd">
<svg width="100%" height="100%" viewBox="0 0 20 20" version="1.1" xmlns="http://www.w3.org/2000/svg" xmlns:xlink="http://www.w3.org/1999/xlink" xml:space="preserve" xmlns:serif="http://www.serif.com/" style="fill-rule:evenodd;clip-rule:evenodd;stroke-linecap:round;stroke-linejoin:round;">
    <g id="tape_polyline">
        <rect id="bg" x="0" y="-0" width="20" height="20" style="fill-opacity:0;"/>
        <g>
            <path d="M10.867,20l5.891,-0c1.73,-0 3.135,-1.334 3.135,-2.977l-0,-2.023c-0,-0.613 -0.117,-1.2 -0.329,-1.743c-0.746,-1.902 -2.675,-3.257 -4.936,-3.257c-1.343,-0 -2.568,0.478 -3.499,1.265l0.952,1.937c0.612,1.244 0.199,2.731 -1.175,3.358c-0.236,0.107 -0.688,0.352 -1.181,0.352c0,-0 -1.728,0.039 -2.555,-1.532c-0,-0 -0.196,-0.398 -0.388,-0.788c-0.094,-0.191 -0.268,-0.337 -0.48,-0.4c-0.213,-0.063 -0.443,-0.037 -0.635,0.069c-0.331,0.183 -0.391,0.532 -0.353,0.894c0.328,2.712 2.617,4.827 5.553,4.845Zm4.166,-6.923c-0.894,-0 -1.62,0.689 -1.62,1.538c0,0.85 0.726,1.539 1.62,1.539c0.894,-0 1.62,-0.689 1.62,-1.539c0,-0.849 -0.726,-1.538 -1.62,-1.538Z"/>
            <path d="M4,15.007c0,0 1.041,-0.922 4.525,-0.921c2.391,0 4.073,-2.268 4.073,-2.268" style="fill:none;stroke:#000;stroke-width:0.91px;"/>
        </g>
        <path d="M15,1.734l-0.534,0.533c-0.195,0.195 -0.512,0.195 -0.707,0c-0.195,-0.195 -0.195,-0.512 0,-0.707l1.304,-1.304c0.086,-0.153 0.25,-0.256 0.437,-0.256c0.276,0 0.5,0.224 0.5,0.5c0,0.017 0,0.035 -0,0.052l0,1.948c0,0.276 -0.224,0.5 -0.5,0.5c-0.276,0 -0.5,-0.224 -0.5,-0.5l0,-0.766Zm1,3.766l0,2c0,0.276 -0.224,0.5 -0.5,0.5c-0.276,0 -0.5,-0.224 -0.5,-0.5l0,-2c0,-0.276 0.224,-0.5 0.5,-0.5c0.276,0 0.5,0.224 0.5,0.5Zm-12.066,7.746c0.255,0.305 -0.198,1.174 -0.843,0.604c0,-0 0.015,0.039 -0.095,-0.258c-0.095,-0.259 0.037,-0.547 0.296,-0.642c0.259,-0.096 0.55,0.058 0.642,0.296Zm-2.321,-3.408c-0.095,-0.259 0.038,-0.546 0.296,-0.642c0.259,-0.095 0.547,0.038 0.643,0.297l0.691,1.876c0.095,0.259 -0.037,0.547 -0.296,0.642c-0.259,0.096 -0.547,-0.037 -0.642,-0.296l-0.692,-1.877Zm-0.691,-1.876l-0.692,-1.877c-0.095,-0.259 0.038,-0.547 0.297,-0.642c0.259,-0.095 0.546,0.037 0.642,0.296l0.691,1.877c0.095,0.259 -0.037,0.547 -0.296,0.642c-0.259,0.095 -0.547,-0.037 -0.642,-0.296Zm9.301,-1.452l-0.731,0.732c-0.128,0.127 -0.314,0.176 -0.488,0.128c0,0 -0.357,-0.1 -0.93,-0.259c-0.266,-0.073 -0.421,-0.349 -0.348,-0.615c0.074,-0.266 0.35,-0.422 0.616,-0.348l0.649,0.18l0.525,-0.525c0.195,-0.196 0.512,-0.196 0.707,0c0.196,0.195 0.196,0.512 0,0.707Zm-4.076,0.066l-1.927,-0.535c-0.266,-0.074 -0.421,-0.35 -0.348,-0.616c0.074,-0.266 0.35,-0.421 0.616,-0.348l1.927,0.536c0.266,0.074 0.422,0.349 0.348,0.615c-0.074,0.266 -0.35,0.422 -0.616,0.348Zm-3.854,-1.07l-1.927,-0.536c-0.266,-0.074 -0.422,-0.349 -0.348,-0.615c0.074,-0.266 0.35,-0.422 0.616,-0.348l1.927,0.535c0.266,0.074 0.422,0.35 0.348,0.616c-0.074,0.266 -0.35,0.421 -0.616,0.348Zm8.638,-1.118l1.414,-1.414c0.195,-0.195 0.512,-0.195 0.707,0c0.195,0.195 0.195,0.512 0,0.707l-1.414,1.414c-0.196,0.196 -0.512,0.196 -0.707,0c-0.196,-0.195 -0.196,-0.511 0,-0.707Z"/>
    </g>
</svg>
