<?xml version="1.0" encoding="UTF-8" standalone="no"?>
<!DOCTYPE svg PUBLIC "-//W3C//DTD SVG 1.1//EN" "http://www.w3.org/Graphics/SVG/1.1/DTD/svg11.dtd">
<svg width="100%" height="100%" viewBox="0 0 20 20" version="1.1" xmlns="http://www.w3.org/2000/svg" xmlns:xlink="http://www.w3.org/1999/xlink" xml:space="preserve" xmlns:serif="http://www.serif.com/" style="fill-rule:evenodd;clip-rule:evenodd;stroke-linecap:round;stroke-linejoin:round;">
    <g id="tape_rectangular">
        <rect id="bg" x="0" y="0" width="20" height="20" style="fill-opacity:0;"/>
        <g>
            <path d="M10.974,20l5.892,0c1.73,0 3.134,-1.334 3.134,-2.977l0,-2.023c0,-0.613 -0.117,-1.2 -0.329,-1.743c-0.746,-1.902 -2.675,-3.257 -4.935,-3.257c-1.343,-0 -2.569,0.478 -3.499,1.265l0.951,1.937c0.612,1.244 0.199,2.731 -1.175,3.358c-0.236,0.107 -0.687,0.352 -1.181,0.352c0,-0 -1.728,0.039 -2.555,-1.532c-0,0 -0.196,-0.398 -0.388,-0.788c-0.094,-0.191 -0.268,-0.337 -0.48,-0.4c-0.212,-0.063 -0.443,-0.037 -0.635,0.069c-0.331,0.183 -0.391,0.532 -0.353,0.894c0.328,2.712 2.617,4.827 5.553,4.845Zm4.166,-6.923c-0.894,-0 -1.619,0.689 -1.619,1.538c-0,0.85 0.725,1.539 1.619,1.539c0.895,-0 1.62,-0.689 1.62,-1.539c0,-0.849 -0.725,-1.538 -1.62,-1.538Z"/>
            <path d="M4.107,15.007c0,0 1.041,-0.922 4.526,-0.921c2.391,0 4.072,-2.268 4.072,-2.268" style="fill:none;stroke:#000;stroke-width:0.91px;"/>
        </g>
        <path d="M12,1l0,1l1,0l0,-2l-2,0l0,1l1,0Zm0,4.5l0,-2l1,0l0,2l-1,0Zm-5,-4.5l0,-1l2,0l0,1l-2,0Zm-3.5,0l0,-1l2,0l0,1l-2,0Zm0,12l0,-1l2,0l0,1l-2,0Zm-3.5,-11l1,0l0,-1l1,0l0,-1l-2,0l0,2Zm2,11l0,-1l-1,0l0,-1l-1,0l0,2l2,0Zm-2,-4l0,-2l1,0l0,2l-1,0Zm0,-3.5l0,-2l1,0l0,2l-1,0Z"/>
        <rect x="12" y="7" width="1" height="2" style="fill-opacity:0.2;"/>
        <rect x="12" y="7" width="1" height="2"/>
    </g>
</svg>
