<?xml version="1.0" encoding="UTF-8" standalone="no"?>
<!DOCTYPE svg PUBLIC "-//W3C//DTD SVG 1.1//EN" "http://www.w3.org/Graphics/SVG/1.1/DTD/svg11.dtd">
<svg width="100%" height="100%" viewBox="0 0 20 20" version="1.1" xmlns="http://www.w3.org/2000/svg" xmlns:xlink="http://www.w3.org/1999/xlink" xml:space="preserve" xmlns:serif="http://www.serif.com/" style="fill-rule:evenodd;clip-rule:evenodd;stroke-linecap:round;stroke-linejoin:bevel;stroke-miterlimit:1;">
    <g id="tape_freehand">
        <rect id="bg" x="0" y="-0" width="20" height="20" style="fill-opacity:0;"/>
        <g>
            <path d="M10.974,20l5.892,-0c1.73,-0 3.134,-1.334 3.134,-2.977l-0,-2.023c-0,-0.613 -0.117,-1.2 -0.329,-1.743c-0.746,-1.902 -2.675,-3.257 -4.935,-3.257c-1.343,-0 -2.569,0.478 -3.499,1.265l0.951,1.937c0.612,1.244 0.199,2.731 -1.175,3.358c-0.236,0.107 -0.687,0.352 -1.181,0.352c0,-0 -1.728,0.039 -2.555,-1.532c-0,-0 -0.196,-0.398 -0.388,-0.788c-0.094,-0.191 -0.268,-0.337 -0.48,-0.4c-0.212,-0.063 -0.443,-0.037 -0.635,0.069c-0.331,0.183 -0.391,0.532 -0.353,0.894c0.328,2.712 2.617,4.827 5.553,4.845Zm4.166,-6.923c-0.894,-0 -1.619,0.689 -1.619,1.538c-0,0.85 0.725,1.539 1.619,1.539c0.895,-0 1.62,-0.689 1.62,-1.539c0,-0.849 -0.725,-1.538 -1.62,-1.538Z"/>
            <path d="M4.409,15.348c-0.188,0.166 -0.476,0.148 -0.642,-0.039c-0.166,-0.188 -0.149,-0.476 0.039,-0.642c-0,-0 1.102,-1.036 4.827,-1.035c2.181,-0 3.707,-2.085 3.707,-2.085c0.15,-0.201 0.435,-0.243 0.636,-0.094c0.202,0.149 0.244,0.434 0.095,0.636c-0,-0 -1.838,2.452 -4.438,2.452c-3.245,-0.001 -4.224,0.807 -4.224,0.807Z"/>
        </g>
        <g>
            <path d="M1.404,13.389c0.841,0.028 2.116,0.172 2.609,-0.791c0.742,-1.565 -0.688,-2.752 -1.218,-3.237c-1.853,-1.437 -1.953,-1.702 -2.153,-2.211c-0.25,-0.636 -0.171,-1.525 0.017,-2.173c0.244,-0.843 0.525,-1.507 1.025,-2.16c0.309,-0.403 0.604,-0.715 1.01,-1.009c1.207,-0.874 2.405,-1.256 3.766,-1.299c2.138,-0.066 4.469,0.181 5.747,2.39c0.258,0.445 0.809,1.704 0.551,3.132c-0.092,0.506 -0.5,1.239 -0.944,1.702c-0.726,0.757 -1.722,1.109 -2.32,1.354c-0.81,0.33 -2.372,0.559 -3.767,0.483" style="fill:none;stroke:#000;stroke-width:1px;"/>
            <ellipse cx="3.356" cy="9.509" rx="2.19" ry="1.69" style="fill:none;stroke:#000;stroke-width:0.92px;stroke-linejoin:round;stroke-miterlimit:1.5;"/>
        </g>
    </g>
</svg>
