<?xml version="1.0" encoding="UTF-8" standalone="no"?>
<!DOCTYPE svg PUBLIC "-//W3C//DTD SVG 1.1//EN" "http://www.w3.org/Graphics/SVG/1.1/DTD/svg11.dtd">
<svg width="20px" height="20px" version="1.1" xmlns="http://www.w3.org/2000/svg" xmlns:xlink="http://www.w3.org/1999/xlink" xml:space="preserve" xmlns:serif="http://www.serif.com/" style="fill-rule:evenodd;clip-rule:evenodd;stroke-linejoin:round;stroke-miterlimit:2;">
    <rect x="0" y="0" width="20" height="20" style="fill-opacity:0;"/>
    <g transform="matrix(0.889315,0,0,1,0.221718,1)">
        <rect x="2" y="3" width="9" height="1" style="fill:black;"/>
    </g>
    <g transform="matrix(0.88885,0,0,1,0.222647,13)">
        <rect x="2" y="3" width="9" height="1" style="fill:black;"/>
    </g>
    <g transform="matrix(1,0,0,1,-1,1)">
        <path d="M7.364,9.019C8.793,8.576 9.439,7.466 9.74,6.368C10.068,5.173 10,3.978 10,3.5C10,3.224 10.224,3 10.5,3C10.776,3 11,3.224 11,3.5C11,4.022 11.062,5.327 10.705,6.632C10.406,7.724 9.821,8.81 8.71,9.5C9.821,10.19 10.406,11.275 10.705,12.368C11.062,13.673 11,14.978 11,15.5C11,15.776 10.776,16 10.5,16C10.224,16 10,15.776 10,15.5C10,15.022 10.068,13.827 9.74,12.632C9.439,11.533 8.793,10.424 7.364,9.981C7.33,9.972 7.297,9.958 7.266,9.942C7.248,9.932 7.231,9.922 7.215,9.911L7.203,9.902C7.119,9.84 7.055,9.753 7.022,9.647C7.012,9.615 7.006,9.582 7.002,9.55C6.999,9.582 6.993,9.615 6.983,9.647C6.95,9.753 6.885,9.84 6.802,9.902L6.79,9.911C6.774,9.922 6.757,9.932 6.739,9.942C6.708,9.958 6.675,9.972 6.64,9.981C5.212,10.424 4.566,11.533 4.265,12.632C3.937,13.827 4.005,15.022 4.005,15.5C4.005,15.776 3.781,16 3.505,16C3.229,16 3.005,15.776 3.005,15.5C3.005,14.978 2.942,13.673 3.3,12.368C3.599,11.275 4.184,10.19 5.295,9.5C4.184,8.81 3.599,7.724 3.3,6.632C2.942,5.327 3.005,4.022 3.005,3.5C3.005,3.224 3.229,3 3.505,3C3.781,3 4.005,3.224 4.005,3.5C4.005,3.978 3.937,5.173 4.265,6.368C4.566,7.466 5.212,8.576 6.64,9.019C6.675,9.028 6.708,9.042 6.739,9.058C6.757,9.068 6.774,9.078 6.79,9.089L6.802,9.098C6.885,9.159 6.95,9.247 6.983,9.353C6.993,9.385 6.999,9.417 7.002,9.45C7.006,9.417 7.012,9.385 7.022,9.353C7.055,9.247 7.119,9.159 7.203,9.098L7.215,9.089C7.231,9.078 7.248,9.068 7.266,9.058C7.297,9.042 7.33,9.028 7.364,9.019Z" style="fill:black;"/>
    </g>
    <path d="M4.035,15C4.067,14.65 4.126,14.273 4.229,13.896C4.448,13.095 4.892,12.263 5.931,11.938C5.955,11.931 5.979,11.923 6.002,11.915C6.032,11.925 6.062,11.935 6.092,11.943C7.112,12.26 7.556,13.094 7.776,13.896C7.879,14.273 7.938,14.65 7.97,15L4.035,15ZM5.937,11.936L5.913,11.944L5.937,11.936Z" style="fill:black;fill-opacity:0.5;"/>
    <g id="TimeStretch">
        <g>
            <path d="M18,10.5C18,10.224 17.776,10 17.5,10L11.5,10C11.224,10 11,10.224 11,10.5C11,10.776 11.224,11 11.5,11L17.5,11C17.776,11 18,10.776 18,10.5Z" style="fill:black;"/>
        </g>
    </g>
    <g transform="matrix(-1.83697e-16,1,-1,-1.83697e-16,22.0004,0.999375)">
        <path d="M7,9.471C7.008,9.609 6.959,9.749 6.854,9.854C6.659,10.05 6.341,10.05 6.146,9.854L4.146,7.854C4.111,7.819 4.082,7.781 4.06,7.739L4.027,7.666L4.005,7.576L3.999,7.5L4.005,7.424L4.027,7.334L4.06,7.26C4.082,7.219 4.111,7.18 4.146,7.146L6.146,5.145C6.341,4.95 6.659,4.95 6.854,5.145C6.959,5.25 7.008,5.391 7,5.528L7,9.471Z" style="fill:black;"/>
    </g>
    <g transform="matrix(-1.83697e-16,-1,-1,1.83697e-16,22.0004,19.9984)">
        <path d="M7,9.471C7.008,9.609 6.959,9.749 6.854,9.854C6.659,10.05 6.341,10.05 6.146,9.854L4.146,7.854C4.111,7.819 4.082,7.781 4.06,7.739L4.027,7.666L4.005,7.576L3.999,7.5L4.005,7.424L4.027,7.334L4.06,7.26C4.082,7.219 4.111,7.18 4.146,7.146L6.146,5.145C6.341,4.95 6.659,4.95 6.854,5.145C6.959,5.25 7.008,5.391 7,5.528L7,9.471Z" style="fill:black;"/>
    </g>
</svg>
