<?xml version="1.0" encoding="UTF-8" standalone="no"?>
<!DOCTYPE svg PUBLIC "-//W3C//DTD SVG 1.1//EN" "http://www.w3.org/Graphics/SVG/1.1/DTD/svg11.dtd">
<svg width="20px" height="20px" version="1.1" xmlns="http://www.w3.org/2000/svg" xmlns:xlink="http://www.w3.org/1999/xlink" xml:space="preserve" xmlns:serif="http://www.serif.com/" style="fill-rule:evenodd;clip-rule:evenodd;stroke-linejoin:round;stroke-miterlimit:2;">
    <g transform="matrix(1.375,0,0,1.375,3.55271e-15,1.77636e-15)">
        <rect x="0" y="0" width="16" height="16" style="fill-opacity:0;"/>
    </g>
    <g transform="matrix(-0.707107,-0.707107,-0.589255,0.589255,166.9,127.043)">
        <g transform="matrix(-0.707107,-0.848528,-0.707107,0.848528,209.263,33.8192)">
            <path d="M17,17L17,10L17.999,10L17.999,17C17.999,17.265 17.859,17.52 17.672,17.707C17.484,17.895 17.23,18 16.965,18L10,18L10,17L17,17ZM4,5.035C4,4.77 4.105,4.516 4.293,4.328C4.48,4.141 4.735,4 5,4L12,4L12,5L5,5L5,12L4,12L4,5.035Z" style="fill:black;"/>
        </g>
        <g transform="matrix(-1.20274e-15,-1.2,-1,1.39888e-15,203.205,45.92)">
            <path d="M11.395,10L11.395,9L16.481,9L16.481,5.995L19.981,9.498L16.481,13L16.481,10L11.395,10Z" style="fill:black;"/>
        </g>
        <g transform="matrix(4.0338e-16,1.2,1,-3.99682e-16,184.209,21.7197)">
            <path d="M11.395,10L11.395,9L16.481,9L16.481,5.995L19.981,9.498L16.481,13L16.481,10L11.395,10Z" style="fill:black;"/>
        </g>
    </g>
</svg>
