<?xml version="1.0" encoding="UTF-8" standalone="no"?>
<svg
   xmlns:dc="http://purl.org/dc/elements/1.1/"
   xmlns:cc="http://creativecommons.org/ns#"
   xmlns:rdf="http://www.w3.org/1999/02/22-rdf-syntax-ns#"
   xmlns:svg="http://www.w3.org/2000/svg"
   xmlns="http://www.w3.org/2000/svg"
   xmlns:sodipodi="http://sodipodi.sourceforge.net/DTD/sodipodi-0.dtd"
   xmlns:inkscape="http://www.inkscape.org/namespaces/inkscape"
   width="20"
   height="20"
   viewBox="0 0 360 360"
   version="1.1"
   xml:space="preserve"
   style="clip-rule:evenodd;fill-rule:evenodd;stroke-linecap:round;stroke-miterlimit:1.5"
   id="svg5062"
   sodipodi:docname="touch.svg"
   inkscape:version="0.92.1 r15371"><metadata
     id="metadata5068"><rdf:RDF><cc:Work
         rdf:about=""><dc:format>image/svg+xml</dc:format><dc:type
           rdf:resource="http://purl.org/dc/dcmitype/StillImage" /><dc:title></dc:title></cc:Work></rdf:RDF></metadata><defs
     id="defs5066" /><sodipodi:namedview
     pagecolor="#ffffff"
     bordercolor="#666666"
     borderopacity="1"
     objecttolerance="10"
     gridtolerance="10"
     guidetolerance="10"
     inkscape:pageopacity="0"
     inkscape:pageshadow="2"
     inkscape:window-width="1383"
     inkscape:window-height="1103"
     id="namedview5064"
     showgrid="false"
     units="px"
     scale-x="180"
     inkscape:zoom="9.2709556"
     inkscape:cx="4.3473481"
     inkscape:cy="24.482"
     inkscape:window-x="111"
     inkscape:window-y="150"
     inkscape:window-maximized="0"
     inkscape:current-layer="svg5062" /><path
     id="path6759"
     d="m 339.18007,280.91784 c -26.82449,6.6594 3.08566,-133.52844 -32.71187,-120.07722 -12.26695,4.59726 -8.61336,14.30257 -28.0739,-10.5188 -3.12353,-3.99186 -14.80364,6.18642 -23.43594,6.62155 -4.1079,0.2081 -10.46855,-7.07563 -13.36491,-9.40261 -3.46429,-2.79998 -20.89926,9.7999 -25.2154,22.57004 -2.65027,7.92694 -18.04076,-9.53505 -40.53016,-22.09707 -22.28118,-12.42962 -49.91968,-60.785904 -68.66086,-50.834646 -27.846738,14.813366 21.94043,58.023746 49.54107,92.304496 20.48277,25.38897 28.9447,63.43454 25.68866,70.62367 -11.15005,1.39996 -21.95935,6.64046 -29.81551,3.99183 -37.53913,-12.69447 -51.92631,13.47014 -45.48993,24.49977 6.43636,11.02962 33.46907,2.68645 54.76588,12.97826 19.32802,9.30801 83.86203,23.04301 114.66191,22.39978 z"
     style="fill:#000000;fill-opacity:1;stroke:#ffffff;stroke-width:0;stroke-linecap:round;stroke-linejoin:miter;stroke-miterlimit:1.5;stroke-dasharray:none;stroke-opacity:1;paint-order:markers fill stroke"
     inkscape:connector-curvature="0" /><path
     style="color:#000000;font-style:normal;font-variant:normal;font-weight:normal;font-stretch:normal;font-size:medium;line-height:normal;font-family:sans-serif;font-variant-ligatures:normal;font-variant-position:normal;font-variant-caps:normal;font-variant-numeric:normal;font-variant-alternates:normal;font-feature-settings:normal;text-indent:0;text-align:start;text-decoration:none;text-decoration-line:none;text-decoration-style:solid;text-decoration-color:#000000;letter-spacing:normal;word-spacing:normal;text-transform:none;writing-mode:lr-tb;direction:ltr;text-orientation:mixed;dominant-baseline:auto;baseline-shift:baseline;text-anchor:start;white-space:normal;shape-padding:0;clip-rule:nonzero;display:inline;overflow:visible;visibility:visible;opacity:1;isolation:auto;mix-blend-mode:normal;color-interpolation:sRGB;color-interpolation-filters:linearRGB;solid-color:#000000;solid-opacity:1;vector-effect:none;fill:#000000;fill-opacity:1;fill-rule:nonzero;stroke:none;stroke-width:1;stroke-linecap:butt;stroke-linejoin:miter;stroke-miterlimit:1.5;stroke-dasharray:none;stroke-dashoffset:0;stroke-opacity:1;color-rendering:auto;image-rendering:auto;shape-rendering:auto;text-rendering:auto;enable-background:accumulate"
     d="M 6 1 C 3.2457473 1 1 3.2448961 1 6 C 1 8.7541822 3.2457474 11 6 11 C 6.678189 11 7.3234717 10.85771 7.9140625 10.611328 C 7.685129 10.332019 7.5122034 10.012212 7.2675781 9.7441406 C 6.8642725 9.8804548 6.4499921 10 6 10 C 3.7868284 10 2 8.2131139 2 6 C 2 3.785739 3.7868285 2 6 2 C 8.2131717 2 10 3.7858875 10 6 C 10 6.4644773 9.8811805 6.8942291 9.7363281 7.3085938 C 10.018825 7.5309407 10.2845 7.7727389 10.585938 7.9726562 C 10.848392 7.3660328 11 6.7012258 11 6 C 11 3.2447476 8.7542533 1 6 1 z "
     id="path6735"
     transform="scale(18)" /><path
     style="color:#000000;font-style:normal;font-variant:normal;font-weight:normal;font-stretch:normal;font-size:medium;line-height:normal;font-family:sans-serif;font-variant-ligatures:normal;font-variant-position:normal;font-variant-caps:normal;font-variant-numeric:normal;font-variant-alternates:normal;font-feature-settings:normal;text-indent:0;text-align:start;text-decoration:none;text-decoration-line:none;text-decoration-style:solid;text-decoration-color:#000000;letter-spacing:normal;word-spacing:normal;text-transform:none;writing-mode:lr-tb;direction:ltr;text-orientation:mixed;dominant-baseline:auto;baseline-shift:baseline;text-anchor:start;white-space:normal;shape-padding:0;clip-rule:nonzero;display:inline;overflow:visible;visibility:visible;opacity:1;isolation:auto;mix-blend-mode:normal;color-interpolation:sRGB;color-interpolation-filters:linearRGB;solid-color:#000000;solid-opacity:1;vector-effect:none;fill:#000000;fill-opacity:1;fill-rule:nonzero;stroke:none;stroke-width:1;stroke-linecap:butt;stroke-linejoin:miter;stroke-miterlimit:1.5;stroke-dasharray:none;stroke-dashoffset:0;stroke-opacity:1;color-rendering:auto;image-rendering:auto;shape-rendering:auto;text-rendering:auto;enable-background:accumulate"
     d="M 6 2.9726562 C 4.3342346 2.9726562 2.9707031 4.3341529 2.9707031 6 C 2.9707031 7.6658456 4.3342345 9.0292969 6 9.0292969 C 6.2198432 9.0292969 6.357678 8.8399404 6.5644531 8.7949219 C 6.3533164 8.5543689 6.1875435 8.2817589 5.9960938 8.0273438 C 4.8738864 8.0248115 3.9707031 7.1229373 3.9707031 6 C 3.9707031 4.8754841 4.8756001 3.9726562 6 3.9726562 C 7.0016042 3.9726562 7.726915 4.7337846 7.8964844 5.6835938 C 8.1754363 5.9477996 8.4477201 6.2252169 8.6992188 6.5 C 8.7235251 6.5308159 8.7660286 6.5402879 8.7910156 6.5703125 C 8.8368594 6.3615631 9.0273438 6.2219876 9.0273438 6 C 9.0273438 4.3344173 7.6666578 2.9726563 6 2.9726562 z "
     id="path6731"
     transform="scale(18)" /></svg>