<?xml version="1.0" encoding="UTF-8" standalone="no"?>
<!DOCTYPE svg PUBLIC "-//W3C//DTD SVG 1.1//EN" "http://www.w3.org/Graphics/SVG/1.1/DTD/svg11.dtd">
<svg width="20px" height="20px" version="1.1" xmlns="http://www.w3.org/2000/svg" xmlns:xlink="http://www.w3.org/1999/xlink" xml:space="preserve" xmlns:serif="http://www.serif.com/" style="fill-rule:evenodd;clip-rule:evenodd;stroke-linejoin:round;stroke-miterlimit:2;">
    <rect x="0" y="0" width="20" height="20" style="fill-opacity:0;"/>
    <g transform="matrix(0.571444,0,0,0.571444,-169.005,-13.5724)">
        <path d="M323.095,43.086C322.37,42.971 321.63,42.971 320.905,43.086C320.699,43.689 320.589,44.31 320.575,44.947C320.178,45.059 319.795,45.218 319.435,45.419C318.974,44.979 318.458,44.618 317.886,44.337C317.291,44.769 316.769,45.291 316.337,45.886C316.618,46.458 316.979,46.974 317.419,47.435C317.218,47.795 317.059,48.178 316.947,48.575C316.31,48.589 315.689,48.699 315.086,48.905C314.971,49.63 314.971,50.37 315.086,51.095C315.689,51.301 316.31,51.411 316.947,51.425C317.059,51.822 317.218,52.205 317.419,52.565C316.979,53.026 316.618,53.542 316.337,54.114C316.769,54.709 317.291,55.231 317.886,55.663C318.458,55.382 318.974,55.021 319.435,54.581C319.795,54.782 320.178,54.941 320.575,55.053C320.589,55.69 320.699,56.311 320.905,56.914C321.63,57.029 322.37,57.029 323.095,56.914C323.301,56.311 323.411,55.69 323.425,55.053C323.822,54.941 324.205,54.782 324.565,54.581C325.026,55.021 325.542,55.382 326.114,55.663C326.709,55.231 327.231,54.709 327.663,54.114C327.382,53.542 327.021,53.026 326.581,52.565C326.782,52.205 326.941,51.822 327.053,51.425C327.69,51.411 328.311,51.301 328.914,51.095C329.029,50.37 329.029,49.63 328.914,48.905C328.311,48.699 327.69,48.589 327.053,48.575C326.941,48.178 326.782,47.795 326.581,47.435C327.021,46.974 327.382,46.458 327.663,45.886C327.231,45.291 326.709,44.769 326.114,44.337C325.542,44.618 325.026,44.979 324.565,45.419C324.205,45.218 323.822,45.059 323.425,44.947C323.411,44.31 323.301,43.689 323.095,43.086ZM322,46.53C323.915,46.53 325.47,48.085 325.47,50C325.47,51.915 323.915,53.47 322,53.47C320.085,53.47 318.53,51.915 318.53,50C318.53,48.085 320.085,46.53 322,46.53Z" style="fill:black;"/>
    </g>
    <g transform="matrix(1,0,0,1,-1,-1)">
        <path d="M11,16.543C10.931,16.553 10.862,16.563 10.792,16.571L10.792,17.163C10.792,17.384 10.704,17.598 10.547,17.755C10.39,17.912 10.177,18 9.955,18C9.733,18 9.52,17.912 9.363,17.755C9.206,17.598 9.118,17.384 9.118,17.163L9.118,16.56C6.17,16.167 3.832,13.83 3.439,10.882L2.882,10.882C2.395,10.882 2,10.487 2,10C2,9.513 2.395,9.118 2.882,9.118L3.439,9.118C3.832,6.17 6.17,3.833 9.118,3.44L9.118,2.837C9.118,2.616 9.206,2.402 9.363,2.245C9.52,2.088 9.733,2 9.955,2C10.177,2 10.39,2.088 10.547,2.245C10.704,2.402 10.792,2.616 10.792,2.837L10.792,3.429C13.782,3.786 16.161,6.14 16.559,9.118L17.118,9.118C17.605,9.118 18,9.513 18,10C18,10.487 17.605,10.882 17.118,10.882L16.559,10.882C16.553,10.922 16.548,10.961 16.542,11C16.24,10.998 15.938,11.02 15.639,11.068L15.634,11.069C15.646,11.007 15.656,10.945 15.666,10.882L14.853,10.882C14.366,10.882 13.971,10.487 13.971,10C13.971,9.513 14.366,9.118 14.853,9.118L15.666,9.118C15.281,6.629 13.293,4.667 10.792,4.32L10.792,5.192C10.792,5.414 10.704,5.627 10.547,5.784C10.39,5.941 10.177,6.029 9.955,6.029C9.733,6.029 9.52,5.941 9.363,5.784C9.206,5.627 9.118,5.414 9.118,5.192L9.118,4.333C6.658,4.713 4.712,6.658 4.332,9.118L5.147,9.118C5.634,9.118 6.029,9.513 6.029,10C6.029,10.487 5.634,10.882 5.147,10.882L4.332,10.882C4.712,13.341 6.658,15.287 9.118,15.667L9.118,14.808C9.118,14.586 9.206,14.373 9.363,14.216C9.52,14.059 9.733,13.971 9.955,13.971C10.177,13.971 10.39,14.059 10.547,14.216C10.704,14.373 10.792,14.586 10.792,14.808L10.792,15.68C10.885,15.667 10.977,15.652 11.068,15.635L11.067,15.64C11.02,15.939 10.997,16.241 11,16.543ZM10,6.911C8.295,6.911 6.911,8.295 6.911,10C6.911,11.705 8.295,13.089 10,13.089C11.705,13.089 13.089,11.705 13.089,10C13.089,8.295 11.705,6.911 10,6.911ZM10,7.795C11.217,7.795 12.205,8.783 12.205,10C12.205,11.217 11.217,12.205 10,12.205C8.783,12.205 7.795,11.217 7.795,10C7.795,8.783 8.783,7.795 10,7.795Z" style="fill:black;"/>
    </g>
</svg>
