<?xml version="1.0" encoding="UTF-8" standalone="no"?>
<!DOCTYPE svg PUBLIC "-//W3C//DTD SVG 1.1//EN" "http://www.w3.org/Graphics/SVG/1.1/DTD/svg11.dtd">
<svg width="100%" height="100%" viewBox="0 0 20 20" version="1.1" xmlns="http://www.w3.org/2000/svg" xmlns:xlink="http://www.w3.org/1999/xlink" xml:space="preserve" xmlns:serif="http://www.serif.com/" style="fill-rule:evenodd;clip-rule:evenodd;stroke-linecap:round;stroke-linejoin:round;stroke-miterlimit:1.5;">
    <g id="type_freehand">
        <rect x="0" y="0" width="20" height="20" style="fill-opacity:0;"/>
        <path d="M5.168,17.556c-0,0 1.395,-0.148 1.765,-1.673c0.423,-1.745 -1.431,-2.402 -3.531,-4.133c-0.283,-0.234 -0.49,-0.516 -0.637,-0.828c-0.759,-1.627 0.151,-4.084 0.661,-4.875c0.469,-0.728 1.681,-2.613 4.552,-3.319c2.577,-0.633 8.066,-0.526 9.274,3.702c0.972,3.398 -0.909,4.943 -1.541,5.437c-2.052,1.598 -4.039,1.624 -6.934,1.565" style="fill:none;stroke:#000;stroke-width:0.86px;"/>
        <ellipse cx="5.968" cy="13.441" rx="2.678" ry="2.066" style="fill:none;stroke:#000;stroke-width:0.85px;"/>
        <path id="mode" d="M0,17l3,3l-2,-0c-0.552,-0 -1,-0.448 -1,-1c0,-0.873 0,-2 0,-2Zm3,-17l-3,3l0,-2c0,-0.552 0.448,-1 1,-1c0.873,-0 2,-0 2,-0Zm17,3l-3,-3l2,-0c0.552,0 1,0.448 1,1c0,0.873 0,2 0,2Zm-3,17l3,-3l0,2c-0,0.552 -0.448,1 -1,1c-0.873,-0 -2,0 -2,0Z"/>
    </g>
</svg>
