<?xml version="1.0" encoding="UTF-8" standalone="no"?>
<!DOCTYPE svg PUBLIC "-//W3C//DTD SVG 1.1//EN" "http://www.w3.org/Graphics/SVG/1.1/DTD/svg11.dtd">
<svg width="100%" height="100%" viewBox="0 0 20 20" version="1.1" xmlns="http://www.w3.org/2000/svg" xmlns:xlink="http://www.w3.org/1999/xlink" xml:space="preserve" xmlns:serif="http://www.serif.com/" style="fill-rule:evenodd;clip-rule:evenodd;stroke-linejoin:round;stroke-miterlimit:2;">
    <g id="type_rectangular">
        <rect x="0" y="0" width="20" height="20" style="fill-opacity:0;"/>
        <path d="M16,18l0,-1l1,0l0,-1l1,0l0,2l-2,0Zm-13,-1l1,0l0,1l-2,0l0,-2l1,0l0,1Zm11.5,0l-2,0l0,1l2,0l0,-1Zm-3.5,0l-2,0l0,1l2,0l0,-1Zm-3.5,0l-2,0l0,1l2,0l0,-1Zm-4.5,-4.5l-1,0l0,2l1,0l0,-2Zm15,0l-1,0l0,2l1,0l0,-2Zm-15,-3.5l-1,0l0,2l1,0l0,-2Zm15,0l-1,0l0,2l1,0l0,-2Zm-15,-3.5l-1,0l0,2l1,0l0,-2Zm15,0l-1,0l0,2l1,0l0,-2Zm-14,-3.5l0,1l-1,0l0,1l-1,0l0,-2l2,0Zm14,2l-1,0l0,-1l-1,0l0,-1l2,0l0,2Zm-7,-2l-2,0l0,1l2,0l0,-1Zm3.5,0l-2,0l0,1l2,0l0,-1Zm-7,0l-2,0l0,1l2,0l0,-1Z"/>
        <path id="mode" d="M0,17l3,3l-2,-0c-0.552,-0 -1,-0.448 -1,-1c0,-0.873 0,-2 0,-2Zm3,-17l-3,3l0,-2c0,-0.552 0.448,-1 1,-1c0.873,-0 2,-0 2,-0Zm17,3l-3,-3l2,-0c0.552,0 1,0.448 1,1c0,0.873 0,2 0,2Zm-3,17l3,-3l0,2c-0,0.552 -0.448,1 -1,1c-0.873,-0 -2,0 -2,0Z"/>
    </g>
</svg>
