<?xml version="1.0" encoding="UTF-8" standalone="no"?>
<!DOCTYPE svg PUBLIC "-//W3C//DTD SVG 1.1//EN" "http://www.w3.org/Graphics/SVG/1.1/DTD/svg11.dtd">
<svg width="100%" height="100%" viewBox="0 0 20 20" version="1.1" xmlns="http://www.w3.org/2000/svg" xmlns:xlink="http://www.w3.org/1999/xlink" xml:space="preserve" xmlns:serif="http://www.serif.com/" style="fill-rule:evenodd;clip-rule:evenodd;stroke-linecap:round;stroke-linejoin:bevel;stroke-miterlimit:1;">
    <g id="type_picker_lasso">
        <rect x="-0" y="0" width="20" height="20" style="fill-opacity:0;"/>
        <path id="mode" d="M-0,17l3,3l-2,-0c-0.552,-0 -1,-0.448 -1,-1c-0,-0.873 -0,-2 -0,-2Zm3,-17l-3,3l-0,-2c0,-0.552 0.448,-1 1,-1c0.873,-0 2,-0 2,-0Zm17,3l-3,-3l2,-0c0.552,0 1,0.448 1,1c-0,0.873 -0,2 -0,2Zm-3,17l3,-3l-0,2c-0,0.552 -0.448,1 -1,1c-0.873,-0 -2,0 -2,-0Z"/>
        <g id="pick_freehand">
            <rect x="-0" y="0" width="20" height="20" style="fill-opacity:0;"/>
            <path d="M12.691,9.748l-0.76,-0.759l1.533,-1.532l1.015,1.015l2.049,-2.048c0.565,-0.565 1.482,-0.565 2.048,0c0.565,0.565 0.565,1.483 -0,2.048l-2.048,2.048l1.024,1.025l-1.533,1.532l-0.767,-0.768l-6.177,6.176c-0.719,0.719 -1.883,0.719 -2.602,0c-0,0 -0,-0 -0.001,-0c-0.695,-0.696 -0.695,-1.822 0.001,-2.518l6.218,-6.219Zm0.512,0.512l-6.218,6.219c-0.412,0.412 -0.412,1.08 -0,1.493c0,-0 0,0.001 0.001,0.001c0.435,0.436 1.141,0.436 1.577,0l6.176,-6.176l-1.536,-1.537Z"/>
            <path d="M2.308,13.557c0.787,0.026 1.981,0.161 2.443,-0.741c0.695,-1.464 -0.645,-2.576 -1.14,-3.03c-1.735,-1.345 -1.829,-1.593 -2.016,-2.07c-0.235,-0.595 -0.161,-1.427 0.015,-2.034c0.229,-0.789 0.492,-1.41 0.961,-2.022c0.288,-0.377 0.565,-0.67 0.945,-0.945c1.13,-0.817 2.251,-1.176 3.525,-1.216c2.002,-0.062 4.184,0.169 5.381,2.238c0.241,0.417 0.757,1.595 0.515,2.932c-0.086,0.473 -0.468,1.16 -0.884,1.593c-0.679,0.708 -1.611,1.039 -2.172,1.267c-0.758,0.31 -2.22,0.524 -3.526,0.452" style="fill:none;stroke:#000;stroke-width:1px;"/>
            <ellipse cx="4.135" cy="9.925" rx="2.051" ry="1.582" style="fill:none;stroke:#000;stroke-width:0.86px;stroke-linejoin:round;stroke-miterlimit:1.5;"/>
        </g>
    </g>
</svg>
