<?xml version="1.0" encoding="UTF-8" standalone="no"?>
<!DOCTYPE svg PUBLIC "-//W3C//DTD SVG 1.1//EN" "http://www.w3.org/Graphics/SVG/1.1/DTD/svg11.dtd">
<svg width="100%" height="100%" viewBox="0 0 20 20" version="1.1" xmlns="http://www.w3.org/2000/svg" xmlns:xlink="http://www.w3.org/1999/xlink" xml:space="preserve" xmlns:serif="http://www.serif.com/" style="fill-rule:evenodd;clip-rule:evenodd;stroke-linejoin:round;stroke-miterlimit:2;">
    <g id="type_polyline">
        <rect x="0" y="0" width="20" height="20" style="fill-opacity:0;"/>
        <path d="M7.08,16.56l-1.44,0.42c-0.252,0.074 -0.518,-0.061 -0.609,-0.307c-0,-0 -0.063,-0.172 -0.173,-0.469c-0.095,-0.259 0.037,-0.547 0.296,-0.642c0.259,-0.096 0.547,0.037 0.642,0.296l0.012,0.031l0.992,-0.289c0.265,-0.077 0.543,0.075 0.62,0.34c0.077,0.265 -0.075,0.543 -0.34,0.62Zm1.64,-1.52l1.92,-0.56c0.265,-0.077 0.543,0.075 0.62,0.34c0.077,0.265 -0.075,0.543 -0.34,0.62l-1.92,0.56c-0.265,0.077 -0.543,-0.075 -0.62,-0.34c-0.077,-0.265 0.075,-0.543 0.34,-0.62Zm3.84,-1.12l1.92,-0.56c0.265,-0.077 0.543,0.075 0.62,0.34c0.077,0.265 -0.075,0.543 -0.34,0.62l-1.92,0.56c-0.265,0.077 -0.543,-0.075 -0.62,-0.34c-0.077,-0.265 0.075,-0.543 0.34,-0.62Zm-9.085,-1.47c-0.095,-0.259 0.038,-0.546 0.296,-0.642c0.259,-0.095 0.547,0.038 0.643,0.297l0.691,1.876c0.095,0.259 -0.037,0.547 -0.296,0.642c-0.259,0.096 -0.547,-0.037 -0.642,-0.296l-0.692,-1.877Zm13.525,0.175l0,-0.625c0,-0.276 0.224,-0.5 0.5,-0.5c0.276,-0 0.5,0.224 0.5,0.5l0,1c0,0.227 -0.152,0.419 -0.36,0.48c0,-0 -0.362,0.106 -0.96,0.28c-0.265,0.077 -0.543,-0.075 -0.62,-0.34c-0.077,-0.265 0.075,-0.543 0.34,-0.62l0.6,-0.175Zm-14.216,-2.051l-0.692,-1.877c-0.095,-0.259 0.038,-0.547 0.297,-0.642c0.259,-0.095 0.546,0.037 0.642,0.296l0.691,1.877c0.095,0.259 -0.037,0.547 -0.296,0.642c-0.259,0.095 -0.547,-0.037 -0.642,-0.296Zm15.216,-2.574l0,2c0,0.276 -0.224,0.5 -0.5,0.5c-0.276,-0 -0.5,-0.224 -0.5,-0.5l0,-2c0,-0.276 0.224,-0.5 0.5,-0.5c0.276,-0 0.5,0.224 0.5,0.5Zm-5.915,1.122l-0.731,0.732c-0.128,0.127 -0.314,0.176 -0.488,0.128c-0,-0 -0.357,-0.1 -0.93,-0.259c-0.266,-0.073 -0.421,-0.349 -0.348,-0.615c0.074,-0.266 0.35,-0.422 0.616,-0.348l0.649,0.18l0.525,-0.525c0.195,-0.196 0.512,-0.196 0.707,-0c0.196,0.195 0.196,0.512 -0,0.707Zm-4.076,0.066l-1.927,-0.535c-0.266,-0.074 -0.421,-0.35 -0.348,-0.616c0.074,-0.266 0.35,-0.421 0.616,-0.348l1.927,0.536c0.266,0.074 0.422,0.349 0.348,0.615c-0.074,0.266 -0.35,0.422 -0.616,0.348Zm-3.854,-1.07l-1.927,-0.536c-0.266,-0.074 -0.422,-0.349 -0.348,-0.615c0.074,-0.266 0.35,-0.422 0.616,-0.348l1.927,0.535c0.266,0.074 0.422,0.35 0.348,0.616c-0.074,0.266 -0.35,0.421 -0.616,0.348Zm8.638,-1.118l1.414,-1.414c0.195,-0.195 0.512,-0.195 0.707,-0c0.195,0.195 0.195,0.512 -0,0.707l-1.414,1.414c-0.196,0.196 -0.512,0.196 -0.707,-0c-0.196,-0.195 -0.196,-0.511 -0,-0.707Zm2.828,-2.828l1.59,-1.635c0.195,-0.195 0.471,-0.26 0.707,0c0.1,0.181 0.086,0.556 0.086,0.556c-0,-0 -0.004,0.78 -0.004,0.907l0,2c0,0.276 -0.224,0.5 -0.5,0.5c-0.276,-0 -0.5,-0.224 -0.5,-0.5l0,-1.793l-0.672,0.672c-0.195,0.195 -0.512,0.195 -0.707,-0c-0.195,-0.195 -0.195,-0.512 -0,-0.707Z"/>
        <path id="mode" d="M-0,17l3,3l-2,-0c-0.552,-0 -1,-0.448 -1,-1c-0,-0.873 -0,-2 -0,-2Zm3,-17l-3,3l-0,-2c0,-0.552 0.448,-1 1,-1c0.873,-0 2,-0 2,-0Zm17,3l-3,-3l2,-0c0.552,0 1,0.448 1,1c-0,0.873 -0,2 -0,2Zm-3,17l3,-3l-0,2c-0,0.552 -0.448,1 -1,1c-0.873,-0 -2,0 -2,-0Z"/>
    </g>
</svg>
