<?xml version="1.0" encoding="UTF-8" standalone="no"?>
<!DOCTYPE svg PUBLIC "-//W3C//DTD SVG 1.1//EN" "http://www.w3.org/Graphics/SVG/1.1/DTD/svg11.dtd">
<svg width="20px" height="20px" version="1.1" xmlns="http://www.w3.org/2000/svg" xmlns:xlink="http://www.w3.org/1999/xlink" xml:space="preserve" xmlns:serif="http://www.serif.com/" style="fill-rule:evenodd;clip-rule:evenodd;stroke-linejoin:round;stroke-miterlimit:2;">
    <g transform="matrix(1,0,0,1,-10,-70)">
        <g id="type_polyline">
            <g transform="matrix(1,0,0,1,0,60)">
                <rect x="10" y="10" width="20" height="20" style="fill-opacity:0;"/>
            </g>
            <g transform="matrix(1,0,0,1,9,66.9998)">
                <path d="M8.08,19.56L6.64,19.98C6.388,20.054 6.122,19.919 6.031,19.673C6.031,19.673 5.968,19.501 5.858,19.204C5.763,18.945 5.895,18.657 6.154,18.562C6.413,18.466 6.701,18.599 6.796,18.858L6.808,18.889L7.8,18.6C8.065,18.523 8.343,18.675 8.42,18.94C8.497,19.205 8.345,19.483 8.08,19.56ZM9.72,18.04L11.64,17.48C11.905,17.403 12.183,17.555 12.26,17.82C12.337,18.085 12.185,18.363 11.92,18.44L10,19C9.735,19.077 9.457,18.925 9.38,18.66C9.303,18.395 9.455,18.117 9.72,18.04ZM13.56,16.92L15.48,16.36C15.745,16.283 16.023,16.435 16.1,16.7C16.177,16.965 16.025,17.243 15.76,17.32L13.84,17.88C13.575,17.957 13.297,17.805 13.22,17.54C13.143,17.275 13.295,16.997 13.56,16.92ZM4.475,15.45C4.38,15.191 4.513,14.904 4.771,14.808C5.03,14.713 5.318,14.846 5.414,15.105L6.105,16.981C6.2,17.24 6.068,17.528 5.809,17.623C5.55,17.719 5.262,17.586 5.167,17.327L4.475,15.45ZM18,15.625L18,15C18,14.724 18.224,14.5 18.5,14.5C18.776,14.5 19,14.724 19,15L19,16C19,16.227 18.848,16.419 18.64,16.48C18.64,16.48 18.278,16.586 17.68,16.76C17.415,16.837 17.137,16.685 17.06,16.42C16.983,16.155 17.135,15.877 17.4,15.8L18,15.625ZM3.784,13.574L3.092,11.697C2.997,11.438 3.13,11.15 3.389,11.055C3.648,10.96 3.935,11.092 4.031,11.351L4.722,13.228C4.817,13.487 4.685,13.775 4.426,13.87C4.167,13.965 3.879,13.833 3.784,13.574ZM19,11L19,13C19,13.276 18.776,13.5 18.5,13.5C18.224,13.5 18,13.276 18,13L18,11C18,10.724 18.224,10.5 18.5,10.5C18.776,10.5 19,10.724 19,11ZM13.085,12.122L12.354,12.854C12.226,12.981 12.04,13.03 11.866,12.982C11.866,12.982 11.509,12.882 10.936,12.723C10.67,12.65 10.515,12.374 10.588,12.108C10.662,11.842 10.938,11.686 11.204,11.76L11.853,11.94L12.378,11.415C12.573,11.219 12.89,11.219 13.085,11.415C13.281,11.61 13.281,11.927 13.085,12.122ZM9.009,12.188L7.082,11.653C6.816,11.579 6.661,11.303 6.734,11.037C6.808,10.771 7.084,10.616 7.35,10.689L9.277,11.225C9.543,11.299 9.699,11.574 9.625,11.84C9.551,12.106 9.275,12.262 9.009,12.188ZM5.155,11.118L3.228,10.582C2.962,10.508 2.806,10.233 2.88,9.967C2.954,9.701 3.23,9.545 3.496,9.619L5.423,10.154C5.689,10.228 5.845,10.504 5.771,10.77C5.697,11.036 5.421,11.191 5.155,11.118ZM13.793,10L15.207,8.586C15.402,8.391 15.719,8.391 15.914,8.586C16.109,8.781 16.109,9.098 15.914,9.293L14.5,10.707C14.304,10.903 13.988,10.903 13.793,10.707C13.597,10.512 13.597,10.196 13.793,10ZM16.621,7.172L18.035,5.758C18.23,5.563 18.547,5.563 18.742,5.758C18.937,5.953 18.937,6.27 18.742,6.465L18.675,6.532C18.865,6.603 19,6.786 19,7L19,9C19,9.276 18.776,9.5 18.5,9.5C18.224,9.5 18,9.276 18,9L18,7.207L17.328,7.879C17.133,8.074 16.816,8.074 16.621,7.879C16.426,7.684 16.426,7.367 16.621,7.172Z"/>
            </g>
            <g transform="matrix(1,0,0,1,-2.88765e-10,60)">
                <path d="M25,29.5C25,29.633 25.053,29.76 25.146,29.854C25.24,29.947 25.367,30 25.5,30C25.9,30 26.992,30 28,30C29.105,30 30,29.105 30,28C30,26.992 30,25.9 30,25.5C30,25.367 29.947,25.24 29.854,25.146C29.76,25.053 29.633,25 29.5,25C29.367,25 29.24,25.053 29.146,25.146C29.053,25.24 29,25.367 29,25.5C29,26.123 29,27.204 29,28C29,28.265 28.895,28.52 28.707,28.707C28.52,28.895 28.265,29 28,29C27.204,29 26.123,29 25.5,29C25.367,29 25.24,29.053 25.146,29.146C25.053,29.24 25,29.367 25,29.5ZM10.5,25C10.367,25 10.24,25.053 10.146,25.146C10.053,25.24 10,25.367 10,25.5C10,25.9 10,26.992 10,28C10,29.105 10.895,30 12,30C13.008,30 14.1,30 14.5,30C14.633,30 14.76,29.947 14.854,29.854C14.947,29.76 15,29.633 15,29.5C15,29.367 14.947,29.24 14.854,29.146C14.76,29.053 14.633,29 14.5,29C13.877,29 12.796,29 12,29C11.735,29 11.48,28.895 11.293,28.707C11.105,28.52 11,28.265 11,28C11,27.204 11,26.123 11,25.5C11,25.367 10.947,25.24 10.854,25.146C10.76,25.053 10.633,25 10.5,25ZM29.5,15C29.633,15 29.76,14.947 29.854,14.854C29.947,14.76 30,14.633 30,14.5C30,14.1 30,13.008 30,12C30,10.895 29.105,10 28,10C26.992,10 25.9,10 25.5,10C25.367,10 25.24,10.053 25.146,10.146C25.053,10.24 25,10.367 25,10.5C25,10.633 25.053,10.76 25.146,10.854C25.24,10.947 25.367,11 25.5,11C26.123,11 27.204,11 28,11C28.265,11 28.52,11.105 28.707,11.293C28.895,11.48 29,11.735 29,12C29,12.796 29,13.877 29,14.5C29,14.633 29.053,14.76 29.146,14.854C29.24,14.947 29.367,15 29.5,15ZM15,10.5C15,10.367 14.947,10.24 14.854,10.146C14.76,10.053 14.633,10 14.5,10C14.1,10 13.008,10 12,10C10.895,10 10,10.895 10,12C10,13.008 10,14.1 10,14.5C10,14.633 10.053,14.76 10.146,14.854C10.24,14.947 10.367,15 10.5,15C10.633,15 10.76,14.947 10.854,14.854C10.947,14.76 11,14.633 11,14.5C11,13.877 11,12.796 11,12C11,11.735 11.105,11.48 11.293,11.293C11.48,11.105 11.735,11 12,11C12.796,11 13.877,11 14.5,11C14.633,11 14.76,10.947 14.854,10.854C14.947,10.76 15,10.633 15,10.5Z"/>
            </g>
        </g>
    </g>
</svg>
