<?xml version="1.0" encoding="UTF-8" standalone="no"?>
<!DOCTYPE svg PUBLIC "-//W3C//DTD SVG 1.1//EN" "http://www.w3.org/Graphics/SVG/1.1/DTD/svg11.dtd">
<svg width="100%" height="100%" viewBox="0 0 20 20" version="1.1" xmlns="http://www.w3.org/2000/svg" xmlns:xlink="http://www.w3.org/1999/xlink" xml:space="preserve" xmlns:serif="http://www.serif.com/" style="fill-rule:evenodd;clip-rule:evenodd;stroke-linejoin:round;stroke-miterlimit:2;">
    <g id="type_erase_segment">
        <rect x="0" y="-0" width="20" height="20" style="fill-opacity:0;"/>
        <rect x="9" y="15" width="3" height="5"/>
        <path d="M20,13l-0,-3l-6,-0l0,3l6,-0Z"/>
        <path d="M7,13l-0,-3l-7,-0l0,3l7,-0Z" style="fill:url(#_Linear1);"/>
        <rect x="9" y="-0" width="3" height="9" style="fill:url(#_Linear2);"/>
        <path d="M14,8l0,7l-7,-0l-0,-7l7,-0Zm-2,2l-3,0l0,3l3,-0l0,-3Z"/>
        <path d="M20,6.5c0,0.133 -0.061,0.26 -0.171,0.354c-0.111,0.093 -0.261,0.146 -0.417,0.146l-1.822,-0c-0.158,-0 -0.306,-0.053 -0.418,-0.146c-0.109,-0.094 -0.172,-0.221 -0.172,-0.354c0,-0.133 0.063,-0.26 0.172,-0.354c0.112,-0.093 0.26,-0.146 0.418,-0.146l1.822,-0c0.156,-0 0.306,0.053 0.417,0.146c0.11,0.094 0.171,0.221 0.171,0.354Zm-4,-0c0,0.133 -0.061,0.26 -0.171,0.354c-0.111,0.093 -0.261,0.146 -0.417,0.146l-1.822,-0c-0.158,-0 -0.306,-0.053 -0.418,-0.146c-0.109,-0.094 -0.172,-0.221 -0.172,-0.354c0,-0.133 0.063,-0.26 0.172,-0.354c0.112,-0.093 0.26,-0.146 0.418,-0.146l1.822,-0c0.156,-0 0.306,0.053 0.417,0.146c0.11,0.094 0.171,0.221 0.171,0.354Zm-8,-0c0,0.133 -0.061,0.26 -0.171,0.354c-0.111,0.093 -0.261,0.146 -0.417,0.146l-1.822,-0c-0.158,-0 -0.306,-0.053 -0.418,-0.146c-0.109,-0.094 -0.172,-0.221 -0.172,-0.354c0,-0.133 0.063,-0.26 0.172,-0.354c0.112,-0.093 0.26,-0.146 0.418,-0.146l1.822,-0c0.156,-0 0.306,0.053 0.417,0.146c0.11,0.094 0.171,0.221 0.171,0.354Zm-4,-0c0,0.133 -0.061,0.26 -0.171,0.354c-0.111,0.093 -0.261,0.146 -0.417,0.146l-1.822,-0c-0.158,-0 -0.306,-0.053 -0.418,-0.146c-0.109,-0.094 -0.172,-0.221 -0.172,-0.354c0,-0.133 0.063,-0.26 0.172,-0.354c0.112,-0.093 0.26,-0.146 0.418,-0.146l1.822,-0c0.156,-0 0.306,0.053 0.417,0.146c0.11,0.094 0.171,0.221 0.171,0.354Z"/>
        <path id="mode" d="M0,17l3,3l-1.995,0c-0.266,0 -0.522,-0.106 -0.711,-0.294c-0.188,-0.189 -0.294,-0.445 -0.294,-0.711c0,-0.872 0,-1.995 0,-1.995Zm3,-17l-3,3l0,-1.995c-0,-0.266 0.106,-0.522 0.294,-0.711c0.189,-0.188 0.445,-0.294 0.711,-0.294c0.872,-0 1.995,-0 1.995,-0Zm17,3l-3,-3l1.995,0c0.266,-0 0.522,0.106 0.711,0.294c0.188,0.189 0.294,0.445 0.294,0.711c0,0.872 0,1.995 0,1.995Zm-3,17l3,-3l0,1.995c0,0.266 -0.106,0.522 -0.294,0.711c-0.189,0.188 -0.445,0.294 -0.711,0.294c-0.872,0 -1.995,0 -1.995,0Z"/>
    </g>
    <defs>
        <linearGradient id="_Linear1" x1="0" y1="0" x2="1" y2="0" gradientUnits="userSpaceOnUse" gradientTransform="matrix(-6.9838,1.52982e-15,-1.52982e-15,-18,7,11.5)"><stop offset="0" style="stop-color:#000;stop-opacity:1"/><stop offset="1" style="stop-color:#000;stop-opacity:0"/></linearGradient>
        <linearGradient id="_Linear2" x1="0" y1="0" x2="1" y2="0" gradientUnits="userSpaceOnUse" gradientTransform="matrix(1.02459e-15,-9,16.7329,5.51091e-16,10.5212,9)"><stop offset="0" style="stop-color:#000;stop-opacity:1"/><stop offset="1" style="stop-color:#000;stop-opacity:0"/></linearGradient>
    </defs>
</svg>
