<?xml version="1.0" encoding="UTF-8" standalone="no"?>
<!DOCTYPE svg PUBLIC "-//W3C//DTD SVG 1.1//EN" "http://www.w3.org/Graphics/SVG/1.1/DTD/svg11.dtd">
<svg width="20px" height="20px" version="1.1" xmlns="http://www.w3.org/2000/svg" xmlns:xlink="http://www.w3.org/1999/xlink" xml:space="preserve" xmlns:serif="http://www.serif.com/" style="fill-rule:evenodd;clip-rule:evenodd;stroke-linejoin:round;stroke-miterlimit:2;">
    <rect x="0" y="0" width="20" height="20" style="fill-opacity:0;"/>
    <g transform="matrix(0.571429,0,0,0.8,5.35714,4.5)">
        <path d="M6.375,2.5C6.375,2.155 5.983,1.875 5.5,1.875L2,1.875C1.517,1.875 1.125,2.155 1.125,2.5L1.125,5C1.125,5.345 1.517,5.625 2,5.625L5.5,5.625C5.983,5.625 6.375,5.345 6.375,5L6.375,2.5ZM2.875,3.125L2.875,4.375L4.625,4.375L4.625,3.125L2.875,3.125Z" style="fill:black;"/>
    </g>
    <g transform="matrix(0.571429,0,0,0.8,14.3571,4.5)">
        <path d="M6.375,2.5C6.375,2.155 5.983,1.875 5.5,1.875L2,1.875C1.517,1.875 1.125,2.155 1.125,2.5L1.125,5C1.125,5.345 1.517,5.625 2,5.625L5.5,5.625C5.983,5.625 6.375,5.345 6.375,5L6.375,2.5ZM2.875,3.125L2.875,4.375L4.625,4.375L4.625,3.125L2.875,3.125Z" style="fill:black;"/>
    </g>
    <g transform="matrix(0.571429,0,0,0.8,14.3571,13.5)">
        <path d="M6.375,2.5C6.375,2.155 5.983,1.875 5.5,1.875L2,1.875C1.517,1.875 1.125,2.155 1.125,2.5L1.125,5C1.125,5.345 1.517,5.625 2,5.625L5.5,5.625C5.983,5.625 6.375,5.345 6.375,5L6.375,2.5ZM2.875,3.125L2.875,4.375L4.625,4.375L4.625,3.125L2.875,3.125Z" style="fill:black;"/>
    </g>
    <g transform="matrix(0.571429,0,0,0.8,5.35714,13.5)">
        <path d="M6.375,2.5C6.375,2.155 5.983,1.875 5.5,1.875L2,1.875C1.517,1.875 1.125,2.155 1.125,2.5L1.125,5C1.125,5.345 1.517,5.625 2,5.625L5.5,5.625C5.983,5.625 6.375,5.345 6.375,5L6.375,2.5ZM2.875,3.125L2.875,4.375L4.625,4.375L4.625,3.125L2.875,3.125Z" style="fill:black;"/>
    </g>
    <g transform="matrix(0.571429,0,0,0.8,10.3571,9.5)">
        <path d="M6.375,2.5C6.375,2.155 5.983,1.875 5.5,1.875L2,1.875C1.517,1.875 1.125,2.155 1.125,2.5L1.125,5C1.125,5.345 1.517,5.625 2,5.625L5.5,5.625C5.983,5.625 6.375,5.345 6.375,5L6.375,2.5ZM2.875,3.125L2.875,4.375L4.625,4.375L4.625,3.125L2.875,3.125Z" style="fill:black;"/>
    </g>
    <g transform="matrix(0.571429,0,0,0.8,10.3571,0.5)">
        <path d="M6.375,2.5C6.375,2.155 5.983,1.875 5.5,1.875L2,1.875C1.517,1.875 1.125,2.155 1.125,2.5L1.125,5C1.125,5.345 1.517,5.625 2,5.625L5.5,5.625C5.983,5.625 6.375,5.345 6.375,5L6.375,2.5ZM2.875,3.125L2.875,4.375L4.625,4.375L4.625,3.125L2.875,3.125Z" style="fill:black;"/>
    </g>
    <g transform="matrix(0.571429,0,0,0.8,1.35714,0.5)">
        <path d="M6.375,2.5C6.375,2.155 5.983,1.875 5.5,1.875L2,1.875C1.517,1.875 1.125,2.155 1.125,2.5L1.125,5C1.125,5.345 1.517,5.625 2,5.625L5.5,5.625C5.983,5.625 6.375,5.345 6.375,5L6.375,2.5ZM2.875,3.125L2.875,4.375L4.625,4.375L4.625,3.125L2.875,3.125Z" style="fill:black;"/>
    </g>
    <g transform="matrix(0.571429,0,0,0.8,1.35714,9.5)">
        <path d="M6.375,2.5C6.375,2.155 5.983,1.875 5.5,1.875L2,1.875C1.517,1.875 1.125,2.155 1.125,2.5L1.125,5C1.125,5.345 1.517,5.625 2,5.625L5.5,5.625C5.983,5.625 6.375,5.345 6.375,5L6.375,2.5ZM2.875,3.125L2.875,4.375L4.625,4.375L4.625,3.125L2.875,3.125Z" style="fill:black;"/>
    </g>
    <g>
        <g transform="matrix(1,0,0,1,0,-1)">
            <path d="M16,18L8,18L8,17L16,17L16,18Z" style="fill:black;"/>
        </g>
        <g transform="matrix(1,0,0,1,-1,0)">
            <rect x="17" y="8" width="1" height="8" style="fill:black;"/>
        </g>
    </g>
    <g transform="matrix(1,0,0,1,-1,-1)">
        <g transform="matrix(1,0,0,1,1,1)">
            <rect x="4" y="12" width="2" height="1" style="fill:black;"/>
        </g>
        <g transform="matrix(1,0,0,1,1,1)">
            <rect x="9" y="12" width="3" height="1" style="fill:black;"/>
        </g>
        <g transform="matrix(1,0,0,1,0,1)">
            <rect x="13" y="4" width="1" height="2" style="fill:black;"/>
        </g>
        <g transform="matrix(1,0,0,1,0,1)">
            <rect x="13" y="8" width="1" height="2" style="fill:black;"/>
        </g>
    </g>
    <g transform="matrix(1,0,0,0.888889,3,0.888889)">
        <rect x="4" y="8" width="1" height="9" style="fill:black;"/>
    </g>
    <g transform="matrix(1,0,0,0.888889,-1,-3.11111)">
        <rect x="4" y="8" width="1" height="9" style="fill:black;"/>
    </g>
    <g transform="matrix(0.888889,0,0,1,0.888889,3)">
        <rect x="8" y="4" width="9" height="1" style="fill:black;"/>
    </g>
    <g transform="matrix(0.888884,0,0,1,-3.11107,-1)">
        <rect x="8" y="4" width="9" height="1" style="fill:black;"/>
    </g>
</svg>
