<?xml version="1.0" encoding="UTF-8" standalone="no"?>
<svg
   xmlns:dc="http://purl.org/dc/elements/1.1/"
   xmlns:cc="http://creativecommons.org/ns#"
   xmlns:rdf="http://www.w3.org/1999/02/22-rdf-syntax-ns#"
   xmlns:svg="http://www.w3.org/2000/svg"
   xmlns="http://www.w3.org/2000/svg"
   width="100%"
   height="100%"
   viewBox="0 0 22 17"
   version="1.1"
   id="svg4489">
  <defs
     id="defs4483" />
  <metadata
     id="metadata4486">
    <rdf:RDF>
      <cc:Work
         rdf:about="">
        <dc:format>image/svg+xml</dc:format>
        <dc:type
           rdf:resource="http://purl.org/dc/dcmitype/StillImage" />
        <dc:title></dc:title>
      </cc:Work>
    </rdf:RDF>
  </metadata>
  <g
     id="layer1"
     transform="translate(0,-1106.5197)" />
  <rect
     id="rect2"
     style="clip-rule:evenodd;fill:#ffffff;fill-opacity:0.17647101;fill-rule:evenodd;stroke-linecap:round;stroke-linejoin:round;stroke-miterlimit:1.5"
     height="13"
     width="18"
     y="2"
     x="2" />
  <g
     id="g8"
     style="clip-rule:evenodd;fill-rule:evenodd;stroke-linecap:round;stroke-linejoin:round;stroke-miterlimit:1.5">
    <path
       id="path4"
       style="fill:none;stroke:#1b1b1b;stroke-width:2px"
       d="M 19.5,1 C 20.328,1 21,1.672 21,2.5 v 12 C 21,15.328 20.328,16 19.5,16 H 2.5 C 1.672,16 1,15.328 1,14.5 V 2.5 C 1,1.672 1.672,1 2.5,1 Z M 18.65,2 H 3.35 C 2.605,2 2,2.583 2,3.3 V 13.7 C 2,14.417 2.605,15 3.35,15 h 15.3 C 19.395,15 20,14.417 20,13.7 V 3.3 C 20,2.583 19.395,2 18.65,2 Z" />
    <path
       id="path6"
       style="fill:#565656"
       d="M 19.5,1 C 20.328,1 21,1.672 21,2.5 v 12 C 21,15.328 20.328,16 19.5,16 H 2.5 C 1.672,16 1,15.328 1,14.5 V 2.5 C 1,1.672 1.672,1 2.5,1 Z M 18.65,2 H 3.35 C 2.605,2 2,2.583 2,3.3 V 13.7 C 2,14.417 2.605,15 3.35,15 h 15.3 C 19.395,15 20,14.417 20,13.7 V 3.3 C 20,2.583 19.395,2 18.65,2 Z" />
  </g>
</svg>
