<?xml version="1.0" encoding="utf-8"?>
<!-- Generator: Adobe Illustrator 21.0.2, SVG Export Plug-In . SVG Version: 6.00 Build 0)  -->
<svg version="1.1"
	 id="svg4489" inkscape:version="0.91 r13725" sodipodi:docname="gear.svg" xmlns:cc="http://creativecommons.org/ns#" xmlns:dc="http://purl.org/dc/elements/1.1/" xmlns:inkscape="http://www.inkscape.org/namespaces/inkscape" xmlns:rdf="http://www.w3.org/1999/02/22-rdf-syntax-ns#" xmlns:sodipodi="http://sodipodi.sourceforge.net/DTD/sodipodi-0.dtd" xmlns:svg="http://www.w3.org/2000/svg"
	 xmlns="http://www.w3.org/2000/svg" xmlns:xlink="http://www.w3.org/1999/xlink" x="0px" y="0px" viewBox="0 0 15 15"
	 style="enable-background:new 0 0 15 15;" xml:space="preserve">
<style type="text/css">
	.st0{fill:none;stroke:#000000;stroke-width:2;stroke-opacity:0.549;}
	.st1{fill:#E6E6E6;}
</style>
<path id="path4497" inkscape:connector-curvature="0" class="st0" d="M12.5,8.1c0-0.2,0-0.4,0-0.6c0-0.2,0-0.4,0-0.6l1.4-1.1
	C14,5.7,14,5.5,14,5.4l-1.3-2.2C12.5,3,12.4,2.9,12.2,3l-1.7,0.7C10.2,3.4,9.8,3.2,9.4,3L9.2,1.3C9.1,1.1,9,1,8.8,1H6.2
	C6,1,5.9,1.1,5.8,1.3L5.6,3C5.2,3.2,4.8,3.4,4.5,3.6L2.8,3C2.6,2.9,2.5,3,2.4,3.1L1,5.4C1,5.5,1,5.7,1.1,5.8l1.4,1.1
	c0,0.2,0,0.4,0,0.6c0,0.2,0,0.4,0,0.6L1.1,9.2C1,9.3,1,9.5,1,9.6l1.3,2.2C2.5,12,2.6,12.1,2.8,12l1.7-0.7c0.3,0.3,0.7,0.5,1.1,0.6
	l0.3,1.7C5.9,13.9,6,14,6.2,14h2.7c0.2,0,0.3-0.1,0.3-0.3L9.4,12c0.4-0.2,0.8-0.4,1.1-0.6l1.7,0.7c0.2,0.1,0.3,0,0.4-0.1L14,9.6
	c0.1-0.1,0-0.3-0.1-0.4L12.5,8.1z M7.5,9.8c-1.3,0-2.3-1-2.3-2.3c0-1.3,1-2.3,2.3-2.3s2.3,1,2.3,2.3C9.8,8.8,8.8,9.8,7.5,9.8z"/>
<path id="path4" inkscape:connector-curvature="0" class="st1" d="M12.5,8.1c0-0.2,0-0.4,0-0.6c0-0.2,0-0.4,0-0.6l1.4-1.1
	C14,5.7,14,5.5,14,5.4l-1.3-2.2C12.5,3,12.4,2.9,12.2,3l-1.7,0.7C10.2,3.4,9.8,3.2,9.4,3L9.2,1.3C9.1,1.1,9,1,8.8,1H6.2
	C6,1,5.9,1.1,5.8,1.3L5.6,3C5.2,3.2,4.8,3.4,4.5,3.6L2.8,3C2.6,2.9,2.5,3,2.4,3.1L1,5.4C1,5.5,1,5.7,1.1,5.8l1.4,1.1
	c0,0.2,0,0.4,0,0.6c0,0.2,0,0.4,0,0.6L1.1,9.2C1,9.3,1,9.5,1,9.6l1.3,2.2C2.5,12,2.6,12.1,2.8,12l1.7-0.7c0.3,0.3,0.7,0.5,1.1,0.6
	l0.3,1.7C5.9,13.9,6,14,6.2,14h2.7c0.2,0,0.3-0.1,0.3-0.3L9.4,12c0.4-0.2,0.8-0.4,1.1-0.6l1.7,0.7c0.2,0.1,0.3,0,0.4-0.1L14,9.6
	c0.1-0.1,0-0.3-0.1-0.4L12.5,8.1z M7.5,9.8c-1.3,0-2.3-1-2.3-2.3c0-1.3,1-2.3,2.3-2.3s2.3,1,2.3,2.3C9.8,8.8,8.8,9.8,7.5,9.8z"/>
</svg>
