<?xml version="1.0" encoding="UTF-8" standalone="no"?>
<svg
   xmlns:dc="http://purl.org/dc/elements/1.1/"
   xmlns:cc="http://creativecommons.org/ns#"
   xmlns:rdf="http://www.w3.org/1999/02/22-rdf-syntax-ns#"
   xmlns:svg="http://www.w3.org/2000/svg"
   xmlns="http://www.w3.org/2000/svg"
   id="svg6"
   style="clip-rule:evenodd;fill-rule:evenodd;stroke-linejoin:round;stroke-miterlimit:1.41420996"
   xml:space="preserve"
   version="1.1"
   viewBox="0 0 18 18"
   height="100%"
   width="100%"><metadata
     id="metadata12"><rdf:RDF><cc:Work
         rdf:about=""><dc:format>image/svg+xml</dc:format><dc:type
           rdf:resource="http://purl.org/dc/dcmitype/StillImage" /><dc:title></dc:title></cc:Work></rdf:RDF></metadata><defs
     id="defs10" /><path
     style="clip-rule:evenodd;fill:#e6e6e6;fill-opacity:1;fill-rule:evenodd;stroke:#303030;stroke-width:1.99999988;stroke-linejoin:round;stroke-miterlimit:1.41420996;stroke-dasharray:none;stroke-opacity:1;paint-order:stroke fill markers"
     d="m 2,9.5762712 c 0,0 2.6226666,-4.4900001 7,-4.4900001 4.377334,0 7,4.4900001 7,4.4900001 0,0 -2.6124,4.5099998 -7,4.5099998 -4.3876001,0 -7,-4.5099998 -7,-4.5099998 z"
     id="path821" /><path
     id="path832"
     d="m 2,9.5762712 c 0,0 2.6226666,-4.4900001 7,-4.4900001 4.377334,0 7,4.4900001 7,4.4900001 0,0 -2.6124,4.5099998 -7,4.5099998 -4.3876001,0 -7,-4.5099998 -7,-4.5099998 z"
     style="clip-rule:evenodd;fill:#e6e6e6;fill-opacity:1;fill-rule:evenodd;stroke:none;stroke-width:1.99999988;stroke-linejoin:round;stroke-miterlimit:1.41420996;stroke-dasharray:none;stroke-opacity:0.76470588;paint-order:stroke fill markers" /><ellipse
     id="path21"
     cx="9"
     cy="9.5862713"
     rx="3.5"
     ry="3.6207628"
     style="clip-rule:evenodd;fill:#303030;fill-opacity:1;fill-rule:evenodd;stroke-linejoin:round;stroke-miterlimit:1.41420996" /><circle
     style="clip-rule:evenodd;fill:#e6e6e6;fill-opacity:1;fill-rule:evenodd;stroke-linejoin:round;stroke-miterlimit:1.41420996"
     id="path1450"
     cx="8"
     cy="8.5862713"
     r="1.5" /></svg>