<?xml version="1.0" encoding="utf-8"?>
<!-- Generator: Adobe Illustrator 21.0.2, SVG Export Plug-In . SVG Version: 6.00 Build 0)  -->
<svg version="1.1"
	 id="svg6" inkscape:version="0.91 r13725" sodipodi:docname="layer_header_lock.svg" xmlns:cc="http://creativecommons.org/ns#" xmlns:dc="http://purl.org/dc/elements/1.1/" xmlns:inkscape="http://www.inkscape.org/namespaces/inkscape" xmlns:rdf="http://www.w3.org/1999/02/22-rdf-syntax-ns#" xmlns:sodipodi="http://sodipodi.sourceforge.net/DTD/sodipodi-0.dtd" xmlns:svg="http://www.w3.org/2000/svg"
	 xmlns="http://www.w3.org/2000/svg" xmlns:xlink="http://www.w3.org/1999/xlink" x="0px" y="0px" viewBox="0 0 18 18"
	 style="enable-background:new 0 0 18 18;" xml:space="preserve">
<style type="text/css">
	.st0{fill:#FBFBFB;stroke:#303030;stroke-width:2;stroke-linejoin:round;stroke-miterlimit:1.4142;}
	.st1{fill:#E6E6E6;}
	.st2{fill:#303030;}
</style>
<path id="path4493" inkscape:connector-curvature="0" class="st0" d="M9,3C7.1,3,5.5,4.6,5.5,6.5V7h1V6.5C6.5,5.1,7.6,4,9,4
	c1.4,0,2.5,1.1,2.5,2.5V7h1V6.5C12.5,4.6,10.9,3,9,3z M4.5,8v7h9V8H4.5z"/>
<g id="g4491" transform="matrix(0.05555556,0,0,0.05555556,-8e-7,-1.4e-6)">
	<path id="rect4488" inkscape:connector-curvature="0" class="st1" d="M81,144v126h162V144H81z"/>
	<path id="path4509" inkscape:connector-curvature="0" class="st1" d="M162,54c-34.8,0-63,28.2-63,63v9h18v-9c0-24.8,20.2-45,45-45
		c24.8,0,45,20.1,45,45v9h18v-9C225,82.2,196.8,54,162,54z"/>
</g>
<circle id="path820" class="st2" cx="9" cy="10.5" r="1.5"/>
<rect id="rect822" x="8.2" y="11" class="st2" width="1.5" height="3"/>
</svg>
