<?xml version="1.0" encoding="UTF-8" standalone="no"?>
<svg
   xmlns:dc="http://purl.org/dc/elements/1.1/"
   xmlns:cc="http://creativecommons.org/ns#"
   xmlns:rdf="http://www.w3.org/1999/02/22-rdf-syntax-ns#"
   xmlns:svg="http://www.w3.org/2000/svg"
   xmlns="http://www.w3.org/2000/svg"
   id="svg6"
   style="clip-rule:evenodd;fill-rule:evenodd;stroke-linejoin:round;stroke-miterlimit:1.41420996"
   xml:space="preserve"
   version="1.1"
   viewBox="0 0 18 18"
   height="100%"
   width="100%"><metadata
     id="metadata12"><rdf:RDF><cc:Work
         rdf:about=""><dc:format>image/svg+xml</dc:format><dc:type
           rdf:resource="http://purl.org/dc/dcmitype/StillImage" /><dc:title></dc:title></cc:Work></rdf:RDF></metadata><defs
     id="defs10" /><rect
     id="rect2"
     style="clip-rule:evenodd;fill:none;fill-rule:evenodd;stroke-width:0.05555556;stroke-linejoin:round;stroke-miterlimit:1.41420996"
     height="1.0000001"
     width="1.0000001"
     y="17"
     x="-7.1525574e-007" /><path
     id="path4493"
     d="m 9.5000001,2.9999987 c -1.9322341,-3e-7 -3.4989225,1.56386 -3.5000003,3.4960941 V 6.999999 H 6.9999999 V 6.4960928 C 7.0010799,5.1161438 8.1200511,3.9999983 9.5000001,3.9999988 10.879949,3.9999983 11.998922,5.1161438 12,6.4960928 V 6.999999 h 1 V 6.4960928 C 12.9989,4.5638587 11.432234,2.9999984 9.5000001,2.9999987 Z M 4.9999997,7.9999991 V 15 H 14 V 7.9999991 Z"
     style="clip-rule:evenodd;fill:#fbfbfb;fill-opacity:1;fill-rule:evenodd;stroke:#303030;stroke-width:2.00000024;stroke-linecap:butt;stroke-linejoin:round;stroke-miterlimit:1.41420996;stroke-dasharray:none;stroke-opacity:1;paint-order:markers stroke fill" /><g
     style="clip-rule:evenodd;fill:#e6e6e6;fill-opacity:1;fill-rule:evenodd;stroke-linejoin:round;stroke-miterlimit:1.41420996"
     id="g4491"
     transform="matrix(0.05555556,0,0,0.05555556,-8e-7,-1.4e-6)"><path
       style="fill:#e6e6e6;fill-opacity:1;stroke:none;stroke-width:36;stroke-linecap:butt;stroke-linejoin:round;stroke-miterlimit:1.41420996;stroke-dasharray:none;stroke-opacity:0.27638191;paint-order:markers stroke fill"
       d="M 90,144 V 270 H 252 V 144 Z"
       id="rect4488" /><path
       style="fill:#e6e6e6;fill-opacity:1;stroke:none;stroke-width:36;stroke-linecap:butt;stroke-linejoin:round;stroke-miterlimit:1.41420996;stroke-dasharray:none;stroke-opacity:0.27638191;paint-order:markers stroke fill"
       d="m 171,54 c -34.78021,-5e-6 -62.98059,28.18463 -63,62.96484 V 126 h 18 v -9.03516 C 126.01941,92.12576 146.16091,71.999992 171,72 c 24.83909,-8e-6 44.98059,20.12576 45,44.96484 V 126 h 18 v -9.03516 C 233.98059,82.18463 205.78021,53.999995 171,54 Z"
       id="path4509" /></g><circle
     style="fill:#303030;fill-opacity:1;stroke:none;stroke-width:2;stroke-linecap:round;stroke-linejoin:round;stroke-miterlimit:4;stroke-dasharray:none;stroke-opacity:1;paint-order:normal"
     id="path820"
     cx="9.5"
     cy="10.5"
     r="1.5" /><rect
     style="fill:#303030;fill-opacity:1;stroke:none;stroke-width:2;stroke-linecap:round;stroke-linejoin:round;stroke-miterlimit:4;stroke-dasharray:none;stroke-opacity:1;paint-order:normal"
     id="rect822"
     width="1.5"
     height="3"
     x="8.749999"
     y="10.999999" /></svg>