<?xml version="1.0" encoding="UTF-8" standalone="no"?>
<svg
   xmlns:dc="http://purl.org/dc/elements/1.1/"
   xmlns:cc="http://creativecommons.org/ns#"
   xmlns:rdf="http://www.w3.org/1999/02/22-rdf-syntax-ns#"
   xmlns:svg="http://www.w3.org/2000/svg"
   xmlns="http://www.w3.org/2000/svg"
   id="svg10"
   style="fill-rule:evenodd;clip-rule:evenodd;stroke-linejoin:round;stroke-miterlimit:1.41421;"
   xml:space="preserve"
   version="1.1"
   viewBox="0 0 18 18"
   height="100%"
   width="100%"><metadata
     id="metadata16"><rdf:RDF><cc:Work
         rdf:about=""><dc:format>image/svg+xml</dc:format><dc:type
           rdf:resource="http://purl.org/dc/dcmitype/StillImage" /><dc:title></dc:title></cc:Work></rdf:RDF></metadata><defs
     id="defs14" /><rect
     id="rect2"
     style="fill:none;"
     height="18"
     width="18"
     y="0"
     x="0" /><g
     id="g8"><path
       id="path4"
       style="fill:#e6e6e6;fill-opacity:0.2;"
       d="M4,9l9,-5l0,10l-9,-5Z" /><path
       id="path6"
       style="fill-opacity:0.301961;"
       d="M12.934,3.002l-0.063,0.006l-0.062,0.01l-0.061,0.014l-0.061,0.018l-0.059,0.022l-0.058,0.025l-0.056,0.029l-9,5l-0.053,0.032l-0.052,0.035l-0.049,0.039l-0.047,0.041l-0.044,0.045l-0.041,0.047l-0.039,0.049l-0.035,0.052l-0.031,0.054l-0.029,0.056l-0.024,0.057l-0.021,0.059l-0.018,0.06l-0.013,0.061l-0.01,0.062l-0.006,0.062l-0.002,0.063l0.002,0.063l0.006,0.062l0.01,0.062l0.013,0.061l0.018,0.06l0.021,0.059l0.024,0.057l0.029,0.056l0.031,0.054l0.035,0.052l0.039,0.049l0.041,0.047l0.044,0.045l0.047,0.041l0.049,0.039l0.052,0.035l0.053,0.032l9,5l0.056,0.029l0.058,0.025l0.059,0.022l0.061,0.018l0.061,0.014l0.062,0.01l0.063,0.006l0.063,0.002l0.063,-0.002l0.062,-0.006l0.062,-0.009l0.062,-0.014l0.06,-0.017l0.06,-0.021l0.058,-0.025l0.056,-0.029l0.054,-0.032l0.052,-0.035l0.05,-0.038l0.047,-0.042l0.045,-0.044l0.042,-0.047l0.038,-0.05l0.036,-0.052l0.032,-0.054l0.028,-0.056l0.025,-0.058l0.022,-0.059l0.017,-0.061l0.014,-0.061l0.01,-0.062l0.006,-0.063l0.002,-0.063l0,-10l-0.002,-0.063l-0.006,-0.063l-0.01,-0.062l-0.014,-0.061l-0.017,-0.061l-0.022,-0.059l-0.025,-0.058l-0.028,-0.056l-0.032,-0.054l-0.036,-0.052l-0.038,-0.05l-0.042,-0.047l-0.045,-0.044l-0.047,-0.042l-0.05,-0.038l-0.052,-0.035l-0.054,-0.032l-0.056,-0.029l-0.058,-0.025l-0.06,-0.021l-0.06,-0.017l-0.062,-0.014l-0.062,-0.009l-0.062,-0.006l-0.063,-0.002l-0.063,0.002l0,0Zm0.066,10.998l-9,-5l9,-5l0,10Z" /></g></svg>