<?xml version="1.0" encoding="UTF-8" standalone="no"?>
<svg
   xmlns:dc="http://purl.org/dc/elements/1.1/"
   xmlns:cc="http://creativecommons.org/ns#"
   xmlns:rdf="http://www.w3.org/1999/02/22-rdf-syntax-ns#"
   xmlns:svg="http://www.w3.org/2000/svg"
   xmlns="http://www.w3.org/2000/svg"
   width="100%"
   height="100%"
   viewBox="0 0 11 11"
   version="1.1"
   xml:space="preserve"
   style="fill-rule:evenodd;clip-rule:evenodd;stroke-linecap:round;stroke-linejoin:round;stroke-miterlimit:1.5;"
   id="svg6"><metadata
     id="metadata12"><rdf:RDF><cc:Work
         rdf:about=""><dc:format>image/svg+xml</dc:format><dc:type
           rdf:resource="http://purl.org/dc/dcmitype/StillImage" /><dc:title></dc:title></cc:Work></rdf:RDF></metadata><defs
     id="defs10" /><circle
     style="fill:#000000;fill-opacity:0.4509804;stroke:none;stroke-width:1.29999995;stroke-linecap:round;stroke-linejoin:round;stroke-miterlimit:4;stroke-dasharray:none;stroke-opacity:0;paint-order:markers stroke fill"
     id="path4484"
     cx="5.5"
     cy="5.5"
     r="4.5" /><path
     style="clip-rule:evenodd;fill:#000000;fill-opacity:0.58943087;fill-rule:evenodd;stroke-linecap:round;stroke-linejoin:round;stroke-miterlimit:1.5"
     d="M 5.4915254,0 A 5.5,5.5 0 0 0 -0.00847458,5.5 5.5,5.5 0 0 0 5.4915254,11 5.5,5.5 0 0 0 10.991526,5.5 5.5,5.5 0 0 0 5.4915254,0 Z m 0,1 a 4.5,4.5 0 0 1 4.5,4.5 4.5,4.5 0 0 1 -4.5,4.5 A 4.5,4.5 0 0 1 0.99152542,5.5 4.5,4.5 0 0 1 5.4915254,1 Z"
     id="circle2" /><circle
     r="2.5"
     cy="5.4999995"
     cx="5.5"
     id="circle4486"
     style="fill:#e6e6e6;fill-opacity:1;stroke:none;stroke-width:1.29999995;stroke-linecap:round;stroke-linejoin:round;stroke-miterlimit:4;stroke-dasharray:none;stroke-opacity:1;paint-order:markers stroke fill" /></svg>