<?xml version="1.0" encoding="UTF-8" standalone="no"?><!DOCTYPE svg PUBLIC "-//W3C//DTD SVG 1.1//EN" "http://www.w3.org/Graphics/SVG/1.1/DTD/svg11.dtd"><svg width="11px" height="11px" viewBox="0 0 11 11" version="1.1" xmlns="http://www.w3.org/2000/svg" xmlns:xlink="http://www.w3.org/1999/xlink" xml:space="preserve" xmlns:serif="http://www.serif.com/" style="fill-rule:evenodd;clip-rule:evenodd;stroke-linejoin:round;stroke-miterlimit:2;"><circle cx="5.5" cy="5.5" r="4.5" style="fill-opacity:0.5;"/><path d="M5.5,0c3.036,0 5.5,2.464 5.5,5.5c0,3.036 -2.464,5.5 -5.5,5.5c-3.036,0 -5.5,-2.464 -5.5,-5.5c0,-3.036 2.464,-5.5 5.5,-5.5Zm0,1c2.484,0 4.5,2.016 4.5,4.5c0,2.484 -2.016,4.5 -4.5,4.5c-2.484,0 -4.5,-2.016 -4.5,-4.5c0,-2.484 2.016,-4.5 4.5,-4.5Z" style="fill:#60a2cd;"/><circle cx="5.5" cy="5.5" r="2.5" style="fill:#60a2cd;"/></svg>