<?xml version="1.0" encoding="UTF-8" standalone="no"?><!DOCTYPE svg PUBLIC "-//W3C//DTD SVG 1.1//EN" "http://www.w3.org/Graphics/SVG/1.1/DTD/svg11.dtd"><svg width="100%" height="100%" viewBox="0 0 13 11" version="1.1" xmlns="http://www.w3.org/2000/svg" xmlns:xlink="http://www.w3.org/1999/xlink" xml:space="preserve" style="fill-rule:evenodd;clip-rule:evenodd;stroke-linejoin:round;stroke-miterlimit:1.41421;"><path d="M6,6l1,0l0,-2l5,0l0,5l-5,0l0,-2l-1,0l0,2l-5,0l0,-5c1.667,0 3.333,0 5,0l0,2Zm2,1l0,1l3,0l0,-3c-1,0 -2,0 -3,0l0,1l1,0l0,1l-1,0Zm-3,-1l0,-1l-3,0l0,3c1,0 2,0 3,0l0,-1l-1,0l0,-1l1,0Z" style="fill:#d6d6d6;"/></svg>