<?xml version="1.0" encoding="utf-8"?>
<!-- Generator: Adobe Illustrator 21.0.2, SVG Export Plug-In . SVG Version: 6.00 Build 0)  -->
<svg version="1.1"
	 id="svg4489" inkscape:version="0.91 r13725" sodipodi:docname="subfolder.svg" xmlns:cc="http://creativecommons.org/ns#" xmlns:dc="http://purl.org/dc/elements/1.1/" xmlns:inkscape="http://www.inkscape.org/namespaces/inkscape" xmlns:rdf="http://www.w3.org/1999/02/22-rdf-syntax-ns#" xmlns:sodipodi="http://sodipodi.sourceforge.net/DTD/sodipodi-0.dtd" xmlns:svg="http://www.w3.org/2000/svg"
	 xmlns="http://www.w3.org/2000/svg" xmlns:xlink="http://www.w3.org/1999/xlink" x="0px" y="0px" viewBox="0 0 15 15"
	 style="enable-background:new 0 0 15 15;" xml:space="preserve">
<style type="text/css">
	.st0{fill:none;stroke:#000000;stroke-width:2;stroke-linecap:round;stroke-linejoin:round;stroke-opacity:0.549;}
	.st1{fill:#E6E6E6;}
	.st2{fill:#5DB8E6;}
</style>
<path id="path4487" inkscape:connector-curvature="0" class="st0" d="M2,1C1.4,1,1,1.4,1,2v2v2v4c0,0,0,1,1,1h1V9V7V5
	c0-0.6,0.4-1,1-1h5c0.6,0,1,0.4,1,1v1h2V4c0-0.6-0.4-1-1-1H6V2c0-0.6-0.4-1-1-1H2z M5,5C4.4,5,4,5.4,4,6v2v5c0,0,0,1,1,1h8
	c0,0,1,0,1-1V8c0-0.6-0.4-1-1-1H9V6c0-0.6-0.4-1-1-1H5z"/>
<path id="rect4508" inkscape:connector-curvature="0" class="st1" d="M2,1C1.4,1,1,1.4,1,2v2v2v4c0,0,0,1,1,1h1V9V7V5
	c0-0.6,0.4-1,1-1h5c0.6,0,1,0.4,1,1v1h2V4c0-0.6-0.4-1-1-1H6V2c0-0.6-0.4-1-1-1H2z"/>
<path id="rect4521" inkscape:connector-curvature="0" class="st2" d="M5,5C4.4,5,4,5.4,4,6v2v5c0,0,0,1,1,1h8c0,0,1,0,1-1V8
	c0-0.6-0.4-1-1-1H9V6c0-0.6-0.4-1-1-1H5z"/>
</svg>
