<?xml version="1.0" encoding="UTF-8" standalone="no"?>
<svg
   xmlns:dc="http://purl.org/dc/elements/1.1/"
   xmlns:cc="http://creativecommons.org/ns#"
   xmlns:rdf="http://www.w3.org/1999/02/22-rdf-syntax-ns#"
   xmlns:svg="http://www.w3.org/2000/svg"
   xmlns="http://www.w3.org/2000/svg"
   width="100%"
   height="100%"
   viewBox="0 0 18 18"
   version="1.1"
   xml:space="preserve"
   style="clip-rule:evenodd;fill-rule:evenodd;stroke-linejoin:round;stroke-miterlimit:1.41420996"
   id="svg6"><metadata
     id="metadata12"><rdf:RDF><cc:Work
         rdf:about=""><dc:format>image/svg+xml</dc:format><dc:type
           rdf:resource="http://purl.org/dc/dcmitype/StillImage" /><dc:title></dc:title></cc:Work></rdf:RDF></metadata><defs
     id="defs10" /><path
     id="path4506"
     d="M 9.5 6 A 3.5 3.5 0 0 0 6 9.5 A 3.5 3.5 0 0 0 9.5 13 A 3.5 3.5 0 0 0 13 9.5 A 3.5 3.5 0 0 0 9.5 6 z M 9.5 7 A 2.5 2.5 0 0 1 12 9.5 A 2.5 2.5 0 0 1 9.5 12 A 2.5 2.5 0 0 1 7 9.5 A 2.5 2.5 0 0 1 9.5 7 z "
     style="fill:#303030;fill-opacity:0.44705882;stroke:none;stroke-width:1.99999988;stroke-linecap:round;stroke-linejoin:round;stroke-miterlimit:1.41420996;stroke-dasharray:none;stroke-opacity:1;paint-order:normal" /><circle
     style="fill:#8f8f8f;fill-opacity:0.44705883;stroke:none;stroke-width:1.99999988;stroke-linecap:round;stroke-linejoin:round;stroke-miterlimit:1.41420996;stroke-dasharray:none;stroke-opacity:1;paint-order:normal"
     id="circle4508"
     cx="9.5"
     cy="9.5"
     r="2.5" /></svg>