<?xml version="1.0" encoding="UTF-8" standalone="no"?>
<svg
   xmlns:dc="http://purl.org/dc/elements/1.1/"
   xmlns:cc="http://creativecommons.org/ns#"
   xmlns:rdf="http://www.w3.org/1999/02/22-rdf-syntax-ns#"
   xmlns:svg="http://www.w3.org/2000/svg"
   xmlns="http://www.w3.org/2000/svg"
   width="100%"
   height="100%"
   viewBox="0 0 18 18"
   version="1.1"
   xml:space="preserve"
   style="clip-rule:evenodd;fill-rule:evenodd;stroke-linejoin:round;stroke-miterlimit:1.41420996"
   id="svg6"><metadata
     id="metadata12"><rdf:RDF><cc:Work
         rdf:about=""><dc:format>image/svg+xml</dc:format><dc:type
           rdf:resource="http://purl.org/dc/dcmitype/StillImage" /><dc:title></dc:title></cc:Work></rdf:RDF></metadata><defs
     id="defs10" /><path
     id="path4506"
     d="M 9.4999995,5.0000004 A 4.4999998,4.4999998 0 0 0 4.9999998,9.5000002 4.4999998,4.4999998 0 0 0 9.4999995,13.999999 4.4999998,4.4999998 0 0 0 13.999997,9.5000002 4.4999998,4.4999998 0 0 0 9.4999995,5.0000004 Z m 0,1.2857141 A 3.2142855,3.2142855 0 0 1 12.714283,9.5000002 3.2142855,3.2142855 0 0 1 9.4999995,12.714285 3.2142855,3.2142855 0 0 1 6.2857139,9.5000002 3.2142855,3.2142855 0 0 1 9.4999995,6.2857145 Z"
     style="fill:#303030;fill-opacity:1;stroke:none;stroke-width:1.99999964;stroke-linecap:round;stroke-linejoin:round;stroke-miterlimit:1.41420996;stroke-dasharray:none;stroke-opacity:1;paint-order:normal" /><ellipse
     ry="3.5"
     rx="3.5000002"
     style="fill:#ffffff;fill-opacity:1;stroke:none;stroke-width:1.99999964;stroke-linecap:round;stroke-linejoin:round;stroke-miterlimit:1.41420996;stroke-dasharray:none;stroke-opacity:1;paint-order:normal"
     id="circle4508"
     cx="9.5"
     cy="9.5" /></svg>