<?xml version="1.0" encoding="UTF-8" standalone="no"?>
<svg
   xmlns:dc="http://purl.org/dc/elements/1.1/"
   xmlns:cc="http://creativecommons.org/ns#"
   xmlns:rdf="http://www.w3.org/1999/02/22-rdf-syntax-ns#"
   xmlns:svg="http://www.w3.org/2000/svg"
   xmlns="http://www.w3.org/2000/svg"
   height="19"
   width="14"
   xml:space="preserve"
   viewBox="0 0 14 19"
   y="0px"
   x="0px"
   id="svg2"
   version="1.1"><metadata
   id="metadata12"><rdf:RDF><cc:Work
       rdf:about=""><dc:format>image/svg+xml</dc:format><dc:type
         rdf:resource="http://purl.org/dc/dcmitype/StillImage" /><dc:title></dc:title></cc:Work></rdf:RDF></metadata><defs
   id="defs10" />
<style
   id="style2"
   type="text/css">
	.st0{fill:#C0C0C0;}
	.st1{fill:#FFFFFF;}
</style>

<g
   transform="translate(0,2)"
   id="g7">
	<path
   id="path4"
   transform="translate(0,-2)"
   d="M 6 0 L 6 5 L 2 5 L 2 14 L 6 14 L 6 17 L 6 19 L 7 19 L 7 17 L 7 14 L 11 14 L 11 10 L 14 10 L 14 9 L 11 9 L 11 5 L 7 5 L 7 0 L 6 0 z M 3 6 L 10 6 L 10 8.5 L 10 13 L 3 13 L 3 6 z "
   style="fill:#c0c0c0" />
	<rect
   style="fill:#ffffff"
   height="1"
   width="5"
   class="st1"
   y="7"
   x="4"
   id="rect6" />
</g>
</svg>