<?xml version="1.0" encoding="utf-8"?>
<!-- Generator: Adobe Illustrator 21.0.2, SVG Export Plug-In . SVG Version: 6.00 Build 0)  -->
<svg version="1.1"
	 id="svg6" inkscape:version="0.91 r13725" sodipodi:docname="x_lock_off.svg" xmlns:cc="http://creativecommons.org/ns#" xmlns:dc="http://purl.org/dc/elements/1.1/" xmlns:inkscape="http://www.inkscape.org/namespaces/inkscape" xmlns:rdf="http://www.w3.org/1999/02/22-rdf-syntax-ns#" xmlns:sodipodi="http://sodipodi.sourceforge.net/DTD/sodipodi-0.dtd" xmlns:svg="http://www.w3.org/2000/svg"
	 xmlns="http://www.w3.org/2000/svg" xmlns:xlink="http://www.w3.org/1999/xlink" x="0px" y="0px" viewBox="0 0 17 17"
	 style="enable-background:new 0 0 17 17;" xml:space="preserve">
<style type="text/css">
	.st0{fill:none;}
	.st1{fill:#BBBBBB;fill-opacity:0.4471;}
</style>
<rect id="rect2" x="1.5" y="16" class="st0" width="1" height="1"/>
<g id="g4491" transform="matrix(0.05555556,0,0,0.05555556,-1.0000008,-1.000001)">
	<path id="path4509" inkscape:connector-curvature="0" class="st1" d="M216,54c-34.8,0-63,28.2-63,63v9h18v-9c0-24.8,20.2-45,45-45
		c24.8,0,45,20.1,45,45v9h18v-9C279,82.2,250.8,54,216,54z"/>
</g>
<path id="rect845" inkscape:connector-curvature="0" class="st1" d="M6.5,7v7h9V7H6.5z M11,8c0.8,0,1.5,0.7,1.5,1.5
	c0,0.5-0.3,1-0.8,1.3V13h-1.5v-2.2C9.8,10.5,9.5,10,9.5,9.5C9.5,8.7,10.2,8,11,8z"/>
</svg>
