<?xml version="1.0" encoding="UTF-8"?>
<!-- Generator: Adobe Illustrator 21.0.2, SVG Export Plug-In . SVG Version: 6.00 Build 0)  -->
<svg version="1.1"
     id="svg6" inkscape:version="0.91 r13725" sodipodi:docname="x_lock_off.svg" xmlns:cc="http://creativecommons.org/ns#" xmlns:dc="http://purl.org/dc/elements/1.1/" xmlns:inkscape="http://www.inkscape.org/namespaces/inkscape" xmlns:rdf="http://www.w3.org/1999/02/22-rdf-syntax-ns#" xmlns:sodipodi="http://sodipodi.sourceforge.net/DTD/sodipodi-0.dtd" xmlns:svg="http://www.w3.org/2000/svg"
     xmlns="http://www.w3.org/2000/svg" xmlns:xlink="http://www.w3.org/1999/xlink" x="0px" y="0px" viewBox="0 0 17 17"
     style="enable-background:new 0 0 17 17;" xml:space="preserve">
<style type="text/css">
	.st0{fill:none;}
	.st1{fill:#BBBBBB;fill-opacity:0.4471;}
</style>
<rect id="rect2" x="1.5" y="16" class="st0" width="1" height="1"/>
<g id="g4491" transform="matrix(0.0617284,0,0,0.05555556,-4.8333342,-1.000001)">
    <path id="path4509" inkscape:connector-curvature="0" class="st1" d="m 216,54 c -34.8,0 -63,28.2 -63,63 l 0,9 18,0 0,-9 c 0,-24.8 20.2,-45 45,-45 24.8,0 45,20.1 45,45 l 0,9 18,0 0,-9 C 279,82.2 250.8,54 216,54 Z"/>
</g>
<path id="rect845" inkscape:connector-curvature="0" class="st1" d="m 3.5,7 0,7 10,0 0,-7 -10,0 z m 5,1 c 0.8888889,0 1.666667,0.7 1.666667,1.5 0,0.5 -0.3333337,1 -0.8888892,1.3 l 0,2.2 -1.6666667,0 0,-2.2 C 7.1666667,10.5 6.8333333,10 6.8333333,9.5 6.8333333,8.7 7.6111111,8 8.5,8 Z"/>
</svg>
