<?xml version="1.0" encoding="utf-8"?>
<!-- Generator: Adobe Illustrator 21.0.2, SVG Export Plug-In . SVG Version: 6.00 Build 0)  -->
<svg version="1.1"
	 id="svg6" inkscape:version="0.91 r13725" sodipodi:docname="x_lock_on.svg" xmlns:cc="http://creativecommons.org/ns#" xmlns:dc="http://purl.org/dc/elements/1.1/" xmlns:inkscape="http://www.inkscape.org/namespaces/inkscape" xmlns:rdf="http://www.w3.org/1999/02/22-rdf-syntax-ns#" xmlns:sodipodi="http://sodipodi.sourceforge.net/DTD/sodipodi-0.dtd" xmlns:svg="http://www.w3.org/2000/svg"
	 xmlns="http://www.w3.org/2000/svg" xmlns:xlink="http://www.w3.org/1999/xlink" x="0px" y="0px" viewBox="0 0 17 17"
	 style="enable-background:new 0 0 17 17;" xml:space="preserve">
<style type="text/css">
	.st0{fill:#FBFBFB;stroke:#303030;stroke-width:2;stroke-linejoin:round;stroke-miterlimit:1.4142;}
	.st1{fill:#E6E6E6;}
	.st2{fill:#303030;}
</style>
<path id="path4493" inkscape:connector-curvature="0" class="st0" d="M8.5,2C6.6,2,5,3.6,5,5.5V6h1V5.5C6,4.1,7.1,3,8.5,3
	C9.9,3,11,4.1,11,5.5V6h1V5.5C12,3.6,10.4,2,8.5,2z M4,7v7h9V7H4z"/>
<g id="g4491" transform="matrix(0.05555556,0,0,0.05555556,-1.0000011,-1.0000006)">
	<path id="rect4488" inkscape:connector-curvature="0" class="st1" d="M90,144v126h162V144H90z"/>
	<path id="path4509" inkscape:connector-curvature="0" class="st1" d="M171,54c-34.8,0-63,28.2-63,63v9h18v-9c0-24.8,20.2-45,45-45
		c24.8,0,45,20.1,45,45v9h18v-9C234,82.2,205.8,54,171,54z"/>
</g>
<circle id="path820" class="st2" cx="8.5" cy="9.5" r="1.5"/>
<rect id="rect822" x="7.7" y="10" class="st2" width="1.5" height="3"/>
</svg>
