<?xml version="1.0" encoding="UTF-8" standalone="no"?>
<svg
   xmlns:dc="http://purl.org/dc/elements/1.1/"
   xmlns:cc="http://creativecommons.org/ns#"
   xmlns:rdf="http://www.w3.org/1999/02/22-rdf-syntax-ns#"
   xmlns:svg="http://www.w3.org/2000/svg"
   xmlns="http://www.w3.org/2000/svg"
   id="svg6"
   style="fill-rule:evenodd;clip-rule:evenodd;stroke-linejoin:round;stroke-miterlimit:1.41421;"
   xml:space="preserve"
   version="1.1"
   viewBox="0 0 17 17"
   height="100%"
   width="100%"><metadata
     id="metadata12"><rdf:RDF><cc:Work
         rdf:about=""><dc:format>image/svg+xml</dc:format><dc:type
           rdf:resource="http://purl.org/dc/dcmitype/StillImage" /><dc:title></dc:title></cc:Work></rdf:RDF></metadata><defs
     id="defs10" /><path
     id="path4493"
     d="m 8.4999999,1.9999995 c -1.9322343,-3e-7 -3.4989227,1.56386 -3.5000005,3.4960939 v 0.503906 H 5.9999995 V 5.4960934 C 6.0010795,4.1161444 7.1200507,2.9999991 8.4999999,2.9999996 9.8799489,2.9999991 10.998922,4.1161444 11,5.4960934 v 0.503906 h 1 V 5.4960934 C 11.9989,3.5638595 10.432234,1.9999992 8.4999999,1.9999995 Z M 3.9999993,7.0000004 V 14.000001 H 13 V 7.0000004 Z"
     style="clip-rule:evenodd;fill:#fbfbfb;fill-opacity:1;fill-rule:evenodd;stroke:#303030;stroke-width:2.00000024;stroke-linecap:butt;stroke-linejoin:round;stroke-miterlimit:1.41420996;stroke-dasharray:none;stroke-opacity:1;paint-order:markers stroke fill" /><g
     style="clip-rule:evenodd;fill:#e6e6e6;fill-opacity:1;fill-rule:evenodd;stroke-linejoin:round;stroke-miterlimit:1.41420996"
     id="g4491"
     transform="matrix(0.05555556,0,0,0.05555556,-1.0000011,-1.0000006)"><path
       style="fill:#e6e6e6;fill-opacity:1;stroke:none;stroke-width:36;stroke-linecap:butt;stroke-linejoin:round;stroke-miterlimit:1.41420996;stroke-dasharray:none;stroke-opacity:0.27638191;paint-order:markers stroke fill"
       d="M 90,144 V 270 H 252 V 144 Z"
       id="rect4488" /><path
       style="fill:#e6e6e6;fill-opacity:1;stroke:none;stroke-width:36;stroke-linecap:butt;stroke-linejoin:round;stroke-miterlimit:1.41420996;stroke-dasharray:none;stroke-opacity:0.27638191;paint-order:markers stroke fill"
       d="m 171,54 c -34.78021,-5e-6 -62.98059,28.18463 -63,62.96484 V 126 h 18 v -9.03516 C 126.01941,92.12576 146.16091,71.999992 171,72 c 24.83909,-8e-6 44.98059,20.12576 45,44.96484 V 126 h 18 v -9.03516 C 233.98059,82.18463 205.78021,53.999995 171,54 Z"
       id="path4509" /></g><circle
     style="fill:#303030;fill-opacity:1;stroke:none;stroke-width:2;stroke-linecap:round;stroke-linejoin:round;stroke-miterlimit:4;stroke-dasharray:none;stroke-opacity:1;paint-order:normal"
     id="path820"
     cx="8.5"
     cy="9.500001"
     r="1.5" /><rect
     style="fill:#303030;fill-opacity:1;stroke:none;stroke-width:2;stroke-linecap:round;stroke-linejoin:round;stroke-miterlimit:4;stroke-dasharray:none;stroke-opacity:1;paint-order:normal"
     id="rect822"
     width="1.5"
     height="3"
     x="7.7499986"
     y="10" /></svg>