<?xml version="1.0" encoding="UTF-8" standalone="no"?>
<!DOCTYPE svg PUBLIC "-//W3C//DTD SVG 1.1//EN" "http://www.w3.org/Graphics/SVG/1.1/DTD/svg11.dtd">
<svg width="35px" height="18px" version="1.1" xmlns="http://www.w3.org/2000/svg" xmlns:xlink="http://www.w3.org/1999/xlink" xml:space="preserve" xmlns:serif="http://www.serif.com/" style="fill-rule:evenodd;clip-rule:evenodd;stroke-linejoin:round;stroke-miterlimit:2;">
    <g transform="matrix(1.75,0,0,0.9,0,-8.88179e-16)">
        <rect x="0" y="0" width="20" height="20" style="fill-opacity:0;"/>
    </g>
    <g transform="matrix(1,0,0,1,4.5,-21)">
        <g transform="matrix(1,0,0,1,-4.5,21)">
            <path d="M35,2C35,0.896 34.104,0 33,0L2,0C0.896,0 0,0.896 0,2L0,16C0,17.104 0.896,18 2,18L33,18C34.104,18 35,17.104 35,16L35,2Z" style="fill:rgb(255,255,0);"/>
        </g>
        <g transform="matrix(1,0,0,1,0,21)">
            <g>
                <g transform="matrix(1,0,0,1,17.4958,-1)">
                    <path d="M10,16.5L10,17L2,17L2,16L2.001,16C1.999,15.352 2.028,14.36 2.3,13.368C2.599,12.275 3.184,11.19 4.295,10.5C3.184,9.81 2.599,8.724 2.3,7.632C2.028,6.64 1.999,5.648 2.001,5L2,5L2,4L10.004,4L10.004,5C10.006,5.648 9.976,6.64 9.705,7.632C9.406,8.724 8.821,9.81 7.71,10.5C8.821,11.19 9.406,12.275 9.705,13.368C10.062,14.673 10,15.978 10,16.5ZM9.006,16C9.009,15.406 8.983,14.519 8.74,13.632C8.439,12.533 7.793,11.424 6.364,10.981C6.33,10.972 6.297,10.958 6.266,10.942L6.203,10.902C6.119,10.84 6.055,10.753 6.022,10.647C6.012,10.615 6.006,10.582 6.002,10.55C5.999,10.582 5.993,10.615 5.983,10.647C5.95,10.753 5.885,10.84 5.802,10.902L5.739,10.942C5.708,10.958 5.675,10.972 5.64,10.981C4.212,11.424 3.566,12.533 3.265,13.632C3.022,14.519 2.996,15.406 2.999,16L9.006,16ZM9.006,5L2.999,5C2.996,5.594 3.022,6.481 3.265,7.368C3.566,8.466 4.212,9.576 5.64,10.019C5.675,10.028 5.708,10.042 5.739,10.058L5.802,10.098C5.885,10.159 5.95,10.247 5.983,10.353C5.993,10.385 5.999,10.417 6.002,10.45C6.006,10.417 6.012,10.385 6.022,10.353C6.055,10.247 6.119,10.159 6.203,10.098L6.266,10.058C6.297,10.042 6.33,10.028 6.364,10.019C7.793,9.576 8.439,8.466 8.74,7.368C8.983,6.481 9.009,5.594 9.006,5Z" style="fill:rgb(26,26,26);"/>
                </g>
                <g transform="matrix(1,0,0,1,17.465,-1)">
                    <path d="M4.035,15C4.067,14.65 4.126,14.273 4.229,13.896C4.448,13.095 4.892,12.263 5.931,11.938C5.955,11.931 5.979,11.923 6.002,11.915C6.032,11.925 6.062,11.935 6.092,11.943C7.112,12.26 7.556,13.094 7.776,13.896C7.879,14.273 7.938,14.65 7.97,15L4.035,15ZM5.937,11.936L5.913,11.944L5.937,11.936Z" style="fill:rgb(26,26,26);fill-opacity:0.5;"/>
                </g>
            </g>
            <g transform="matrix(0.941249,0,0,0.941249,-4.43281,-0.394486)">
                <path d="M12.274,12.432C13.231,10.921 13.357,9.451 11.951,8.045C10.544,6.638 8.684,6.737 7.611,7.789C5.652,9.155 3.667,10.222 1.251,10.592C0.98,10.863 1.308,11.648 1.308,11.648C2.838,11.549 5.138,11.025 6.399,10.205C4.638,11.977 3.599,12.796 2.271,13.41C2.271,13.41 2.302,13.454 2.318,13.475C2.534,13.773 2.969,14.35 2.969,14.35C3.647,14.152 4.831,13.652 5.403,13.136C5.048,13.795 4.243,14.607 3.676,15.054C3.676,15.054 5.817,17.226 6.956,18.01C7.001,18.041 7.078,18.112 7.108,18.068C8.066,16.654 9.131,15.59 9.123,15.614C9.092,15.707 8.307,17.078 8.333,18.769C8.333,18.769 9.15,18.998 9.403,18.744C9.975,16.746 11.023,14.154 12.274,12.432ZM17.215,13.436L16.286,15.093C16.25,15.159 16.23,15.232 16.23,15.307C16.23,15.382 16.25,15.455 16.286,15.52L17.214,17.177L15.557,16.25C15.492,16.213 15.419,16.194 15.344,16.194C15.269,16.194 15.196,16.213 15.13,16.249L13.473,17.178L14.401,15.52C14.438,15.455 14.456,15.381 14.457,15.307C14.457,15.232 14.437,15.159 14.401,15.094L13.473,13.436L15.131,14.364C15.195,14.401 15.269,14.42 15.344,14.42C15.418,14.42 15.492,14.401 15.557,14.364L17.215,13.436ZM13.085,5.493L16.283,2.295C16.673,1.905 17.307,1.905 17.697,2.295C18.087,2.686 18.087,3.319 17.697,3.71L14.499,6.907C14.886,7.718 14.557,8.998 14.175,9.81C14.176,8.884 13.792,7.976 12.904,7.088C12.069,6.253 11.102,5.856 10.179,5.818C10.992,5.435 12.273,5.106 13.085,5.493ZM6.935,2.419L6.006,4.077C5.97,4.143 5.951,4.215 5.951,4.29C5.951,4.365 5.97,4.438 6.006,4.503L6.934,6.161L5.277,5.233C5.212,5.196 5.139,5.177 5.064,5.177C4.989,5.177 4.916,5.196 4.85,5.232L3.193,6.161L4.121,4.503C4.158,4.438 4.176,4.365 4.177,4.29C4.177,4.215 4.157,4.142 4.121,4.078L3.193,2.419L4.851,3.348C4.915,3.384 4.989,3.404 5.064,3.404C5.138,3.403 5.212,3.385 5.277,3.348L6.935,2.419Z" style="fill:rgb(26,26,26);"/>
            </g>
        </g>
    </g>
</svg>
