<?xml version="1.0" encoding="UTF-8" standalone="no"?>
<!DOCTYPE svg PUBLIC "-//W3C//DTD SVG 1.1//EN" "http://www.w3.org/Graphics/SVG/1.1/DTD/svg11.dtd">
<svg width="100%" height="100%" viewBox="0 0 35 18" version="1.1" xmlns="http://www.w3.org/2000/svg" xmlns:xlink="http://www.w3.org/1999/xlink" xml:space="preserve" xmlns:serif="http://www.serif.com/" style="fill-rule:evenodd;clip-rule:evenodd;stroke-linejoin:round;stroke-miterlimit:2;">
    <rect x="0" y="-0" width="35" height="18" style="fill-opacity:0;"/>
    <path d="M35,2c0,-1.104 -0.896,-2 -2,-2l-31,0c-1.104,0 -2,0.896 -2,2l0,14c0,1.104 0.896,2 2,2l31,0c1.104,0 2,-0.896 2,-2l0,-14Z" style="fill:#16a800;"/>
    <path d="M24.133,9.853c-0.195,-0.197 -0.193,-0.514 0.004,-0.709c0.196,-0.195 0.514,-0.194 0.709,0.003c0,-0 2.619,2.643 2.619,2.643l4.671,-4.646c0.196,-0.195 0.514,-0.194 0.709,0.002c0.196,0.196 0.195,0.514 -0.001,0.71l-5.027,5c-0.095,0.094 -0.223,0.146 -0.356,0.146c-0.133,-0.001 -0.261,-0.054 -0.354,-0.149l-2.974,-3Z" style="fill:#1a1a1a;"/>
    <path id="clapboard" d="M2,8.007l-0.02,0l-0,-4l2.02,0l2,2l-1.983,1.983l0.99,0l1.983,-1.983l2.13,0l-1.982,1.983l1.697,0l1.982,-1.983l2.334,0l-1.982,1.983l1.697,0l1.982,-1.983l1.152,0l-0,9.993l-14,-0l-0,-7.993Zm13,0.983c-0,0 -12,0 -12,0l-0,6.01c-0,-0 12,-0 12,-0l-0,-6.01Zm-6.257,-4.399l-2.587,0.583l-1.673,-1.674l2.587,-0.582l1.673,1.673Zm-0.288,-1.985l2.695,-0.607l1.674,1.673l-2.696,0.607l-1.673,-1.673Zm4.08,-0.919l3.047,-0.686l0.439,1.951l-1.812,0.408l-1.674,-1.673Z" style="fill:#1a1a1a;"/>
</svg>
