<?xml version="1.0" encoding="UTF-8" standalone="no"?>
<!DOCTYPE svg PUBLIC "-//W3C//DTD SVG 1.1//EN" "http://www.w3.org/Graphics/SVG/1.1/DTD/svg11.dtd">
<svg width="35px" height="18px" version="1.1" xmlns="http://www.w3.org/2000/svg" xmlns:xlink="http://www.w3.org/1999/xlink" xml:space="preserve" xmlns:serif="http://www.serif.com/" style="fill-rule:evenodd;clip-rule:evenodd;stroke-linejoin:round;stroke-miterlimit:2;">
    <g transform="matrix(1.75,0,0,0.9,0,-8.88179e-16)">
        <rect x="0" y="0" width="20" height="20" style="fill-opacity:0;"/>
    </g>
    <g transform="matrix(1,0,0,1,27.5,-41)">
        <g transform="matrix(1,0,0,1,-27.5,41)">
            <path d="M35,2C35,0.896 34.104,0 33,0L2,0C0.896,0 0,0.896 0,2L0,16C0,17.104 0.896,18 2,18L33,18C34.104,18 35,17.104 35,16L35,2Z" style="fill:rgb(255,145,0);"/>
        </g>
        <g transform="matrix(0.64043,0,0,0.64043,-40.4875,13.0125)">
            <circle cx="62.439" cy="62.439" r="1.561" style="fill:rgb(26,26,26);"/>
        </g>
        <g transform="matrix(1,0,0,1,-61.5,-7)">
            <path d="M61.876,54.991C61.907,54.74 61.83,54.488 61.662,54.298C61.495,54.109 61.254,54 61.001,54L60.999,54C60.746,54 60.505,54.109 60.338,54.298C60.17,54.488 60.093,54.74 60.124,54.991C60.272,56.176 60.5,58 60.5,58L61.5,58C61.5,58 61.728,56.176 61.876,54.991Z" style="fill:rgb(26,26,26);"/>
        </g>
        <g transform="matrix(0.933333,0,0,0.964286,-683.233,-152.321)">
            <path d="M729.6,204.357C728.338,206.698 726.13,210.794 724.939,213.004C724.593,213.647 724.618,214.418 725.006,215.038C725.395,215.658 726.09,216.037 726.839,216.037L736.161,216.037C736.91,216.037 737.605,215.658 737.994,215.038C738.382,214.418 738.407,213.647 738.061,213.004C736.87,210.794 734.662,206.698 733.4,204.357C733.031,203.672 732.298,203.242 731.5,203.242C730.702,203.242 729.969,203.672 729.6,204.357ZM730.55,204.836C730.735,204.494 731.101,204.279 731.5,204.279C731.899,204.279 732.265,204.494 732.45,204.836C733.712,207.177 735.92,211.273 737.111,213.483C737.284,213.805 737.272,214.19 737.077,214.501C736.883,214.811 736.536,215 736.161,215L726.839,215C726.464,215 726.117,214.811 725.923,214.501C725.728,214.19 725.716,213.805 725.889,213.483C727.08,211.273 729.288,207.177 730.55,204.836Z" style="fill:rgb(26,26,26);"/>
        </g>
    </g>
    <g transform="matrix(1,0,0,1,-128.998,-429)">
        <path d="M135.5,439L136.386,440.614L138,441.5L136.386,442.386L135.5,444L134.614,442.386L133,441.5L134.614,440.614L135.5,439ZM140.5,439L141.032,439.968L142,440.5L141.032,441.032L140.5,442L139.968,441.032L139,440.5L139.968,439.968L140.5,439ZM144.998,445L130.998,445L130.998,438L144.998,438L144.998,445ZM137.748,434.263L136.248,434.811L136.248,432.682L137.748,432.133L137.748,434.263ZM140.748,433.166L139.248,433.714L139.248,431.585L140.748,431.036L140.748,433.166ZM142.248,430.488L143.581,430L144.268,431.878L142.248,432.617L142.248,430.488ZM130.998,437L130.998,436.037C130.983,435.208 131.489,434.422 132.311,434.122L134.748,433.23L134.748,435.36L132.998,436L144.998,436L144.998,437L130.998,437Z" style="fill:rgb(26,26,26);"/>
    </g>
</svg>
