<?xml version="1.0" encoding="UTF-8" standalone="no"?>
<!DOCTYPE svg PUBLIC "-//W3C//DTD SVG 1.1//EN" "http://www.w3.org/Graphics/SVG/1.1/DTD/svg11.dtd">
<svg width="35px" height="18px" version="1.1" xmlns="http://www.w3.org/2000/svg" xmlns:xlink="http://www.w3.org/1999/xlink" xml:space="preserve" xmlns:serif="http://www.serif.com/" style="fill-rule:evenodd;clip-rule:evenodd;stroke-linejoin:round;stroke-miterlimit:2;">
    <g transform="matrix(1.75,0,0,0.9,0,-8.88179e-16)">
        <rect x="0" y="0" width="20" height="20" style="fill-opacity:0;"/>
    </g>
    <g transform="matrix(1,0,0,1,27.5,-41)">
        <g transform="matrix(1,0,0,1,-27.5,41)">
            <path d="M35,2C35,0.896 34.104,0 33,0L2,0C0.896,0 0,0.896 0,2L0,16C0,17.104 0.896,18 2,18L33,18C34.104,18 35,17.104 35,16L35,2Z" style="fill:white;fill-opacity:0.8;"/>
        </g>
        <g transform="matrix(1,0,0,1,-28.5,40)">
            <path d="M28,6C25.792,6 24,7.792 24,10C24,12.208 25.792,14 28,14C30.208,14 32,12.208 32,10C32,7.792 30.208,6 28,6ZM28,7C29.656,7 31,8.344 31,10C31,11.656 29.656,13 28,13C26.344,13 25,11.656 25,10C25,8.344 26.344,7 28,7Z" style="fill:rgb(26,26,26);"/>
        </g>
        <g transform="matrix(1,0,0,1,-23,41)">
            <g transform="matrix(1,0,0,1,-6.5,-1)">
                <path d="M10,15L7,15L7,17L10,17L10,18L6,18L6,14L10,14L10,15ZM12,17L15,17L15,18L11,18L11,14L12,14L12,17ZM19,17L18,17L18,16L17,16L17,18L16,18L16,14L18,14L18,15L19,15L19,16L20,16L20,14L21,14L21,18L19,18L19,17Z" style="fill:rgb(26,26,26);"/>
            </g>
            <g transform="matrix(1,0,0,1,-4.5,1)">
                <path d="M2.345,11.877C2.331,11.898 2.318,11.918 2.304,11.939L2.281,11.907C2.303,11.897 2.324,11.887 2.345,11.877ZM3.824,11.008C4.572,10.471 5.364,9.755 6.41,8.703C5.149,9.522 2.849,10.046 1.319,10.146C1.319,10.146 0.99,9.36 1.261,9.089C3.677,8.72 5.662,7.653 7.621,6.287C8.694,5.234 10.555,5.136 11.961,6.542C13.367,7.948 13.241,9.418 12.284,10.929C12.267,10.953 12.25,10.976 12.233,11L4,11C3.941,11 3.882,11.003 3.824,11.008ZM13.096,3.99L16.293,0.793C16.683,0.402 17.317,0.402 17.707,0.793C18.098,1.183 18.098,1.817 17.707,2.207L14.51,5.404C14.897,6.216 14.567,7.495 14.185,8.307C14.186,7.382 13.802,6.473 12.914,5.586C12.079,4.75 11.112,4.353 10.189,4.316C11.002,3.932 12.284,3.603 13.096,3.99ZM6.945,0.917L6.016,2.574C5.98,2.64 5.961,2.713 5.961,2.788C5.961,2.863 5.98,2.935 6.017,3L6.944,4.658L5.287,3.73C5.222,3.693 5.149,3.674 5.074,3.674C4.999,3.674 4.926,3.693 4.861,3.73L3.203,4.659L4.132,3C4.168,2.935 4.187,2.862 4.187,2.788C4.187,2.713 4.168,2.639 4.132,2.575L3.203,0.917L4.861,1.845C4.926,1.881 4.999,1.901 5.074,1.901C5.148,1.9 5.222,1.882 5.287,1.845L6.945,0.917Z" style="fill:rgb(26,26,26);"/>
            </g>
        </g>
    </g>
</svg>
