<?xml version="1.0" encoding="UTF-8" standalone="no"?>
<!DOCTYPE svg PUBLIC "-//W3C//DTD SVG 1.1//EN" "http://www.w3.org/Graphics/SVG/1.1/DTD/svg11.dtd">
<svg width="35px" height="18px" version="1.1" xmlns="http://www.w3.org/2000/svg" xmlns:xlink="http://www.w3.org/1999/xlink" xml:space="preserve" xmlns:serif="http://www.serif.com/" style="fill-rule:evenodd;clip-rule:evenodd;stroke-linejoin:round;stroke-miterlimit:2;">
    <g transform="matrix(1.75,0,0,0.9,0,-8.88179e-16)">
        <rect x="0" y="0" width="20" height="20" style="fill-opacity:0;"/>
    </g>
    <g transform="matrix(1,0,0,1,4.5,-21)">
        <g transform="matrix(1,0,0,1,-4.5,21)">
            <path d="M35,2C35,0.896 34.104,0 33,0L2,0C0.896,0 0,0.896 0,2L0,16C0,17.104 0.896,18 2,18L33,18C34.104,18 35,17.104 35,16L35,2Z" style="fill:rgb(255,255,0);"/>
        </g>
        <g transform="matrix(1,0,0,1,0,21)">
            <g>
                <g transform="matrix(1,0,0,1,17.4958,-1)">
                    <path d="M10,16.5L10,17L2,17L2,16L2.001,16C1.999,15.352 2.028,14.36 2.3,13.368C2.599,12.275 3.184,11.19 4.295,10.5C3.184,9.81 2.599,8.724 2.3,7.632C2.028,6.64 1.999,5.648 2.001,5L2,5L2,4L10.004,4L10.004,5C10.006,5.648 9.976,6.64 9.705,7.632C9.406,8.724 8.821,9.81 7.71,10.5C8.821,11.19 9.406,12.275 9.705,13.368C10.062,14.673 10,15.978 10,16.5ZM9.006,16C9.009,15.406 8.983,14.519 8.74,13.632C8.439,12.533 7.793,11.424 6.364,10.981C6.33,10.972 6.297,10.958 6.266,10.942L6.203,10.902C6.119,10.84 6.055,10.753 6.022,10.647C6.012,10.615 6.006,10.582 6.002,10.55C5.999,10.582 5.993,10.615 5.983,10.647C5.95,10.753 5.885,10.84 5.802,10.902L5.739,10.942C5.708,10.958 5.675,10.972 5.64,10.981C4.212,11.424 3.566,12.533 3.265,13.632C3.022,14.519 2.996,15.406 2.999,16L9.006,16ZM9.006,5L2.999,5C2.996,5.594 3.022,6.481 3.265,7.368C3.566,8.466 4.212,9.576 5.64,10.019C5.675,10.028 5.708,10.042 5.739,10.058L5.802,10.098C5.885,10.159 5.95,10.247 5.983,10.353C5.993,10.385 5.999,10.417 6.002,10.45C6.006,10.417 6.012,10.385 6.022,10.353C6.055,10.247 6.119,10.159 6.203,10.098L6.266,10.058C6.297,10.042 6.33,10.028 6.364,10.019C7.793,9.576 8.439,8.466 8.74,7.368C8.983,6.481 9.009,5.594 9.006,5Z" style="fill:rgb(26,26,26);"/>
                </g>
                <g transform="matrix(1,0,0,1,17.465,-1)">
                    <path d="M4.035,15C4.067,14.65 4.126,14.273 4.229,13.896C4.448,13.095 4.892,12.263 5.931,11.938C5.955,11.931 5.979,11.923 6.002,11.915C6.032,11.925 6.062,11.935 6.092,11.943C7.112,12.26 7.556,13.094 7.776,13.896C7.879,14.273 7.938,14.65 7.97,15L4.035,15ZM5.937,11.936L5.913,11.944L5.937,11.936Z" style="fill:rgb(26,26,26);fill-opacity:0.5;"/>
                </g>
            </g>
            <g transform="matrix(1,0,0,1,-4.5,-1)">
                <path d="M18,7L18,16C18,16.552 17.552,17 17,17C13.645,17 3,17 3,17C2.448,17 2,16.552 2,16L2,7L18,7ZM9.438,13.438L8.5,15.5L7.563,13.438L5.5,12.5L7.563,11.563L8.5,9.5L9.438,11.563L11.5,12.5L9.438,13.438ZM13.705,10.955L13,12.5L12.295,10.955L10.75,10.25L12.295,9.545L13,8L13.705,9.545L15.25,10.25L13.705,10.955ZM3.814,3L4.886,6L2,6L2,4C2,3.735 2.105,3.48 2.293,3.293C2.48,3.105 2.735,3 3,3L3.814,3ZM14.885,3L18,3L18,6L15.956,6L14.885,3ZM9.386,6L6.956,6L5.885,3L8.314,3L9.386,6ZM13.886,6L11.456,6L10.385,3L12.814,3L13.886,6Z" style="fill:rgb(26,26,26);"/>
            </g>
        </g>
    </g>
</svg>
