<?xml version="1.0" encoding="UTF-8" standalone="no"?>
<!DOCTYPE svg PUBLIC "-//W3C//DTD SVG 1.1//EN" "http://www.w3.org/Graphics/SVG/1.1/DTD/svg11.dtd">
<svg width="35px" height="18px" version="1.1" xmlns="http://www.w3.org/2000/svg" xmlns:xlink="http://www.w3.org/1999/xlink" xml:space="preserve" xmlns:serif="http://www.serif.com/" style="fill-rule:evenodd;clip-rule:evenodd;stroke-linejoin:round;stroke-miterlimit:2;">
    <g transform="matrix(1.75,0,0,0.9,0,-8.88179e-16)">
        <rect x="0" y="0" width="20" height="20" style="fill-opacity:0;"/>
    </g>
    <g transform="matrix(1,0,0,1,27.5,-41)">
        <g transform="matrix(1,0,0,1,-27.5,41)">
            <path d="M35,2C35,0.896 34.104,0 33,0L2,0C0.896,0 0,0.896 0,2L0,16C0,17.104 0.896,18 2,18L33,18C34.104,18 35,17.104 35,16L35,2Z" style="fill:rgb(255,145,0);"/>
        </g>
        <g transform="matrix(0.64043,0,0,0.64043,-40.4875,13.0125)">
            <circle cx="62.439" cy="62.439" r="1.561" style="fill:rgb(26,26,26);"/>
        </g>
        <g transform="matrix(1,0,0,1,-61.5,-7)">
            <path d="M61.876,54.991C61.907,54.74 61.83,54.488 61.662,54.298C61.495,54.109 61.254,54 61.001,54L60.999,54C60.746,54 60.505,54.109 60.338,54.298C60.17,54.488 60.093,54.74 60.124,54.991C60.272,56.176 60.5,58 60.5,58L61.5,58C61.5,58 61.728,56.176 61.876,54.991Z" style="fill:rgb(26,26,26);"/>
        </g>
        <g transform="matrix(1,0,0,1,-27.5,41)">
            <path d="M13,14.999L13,15.5C13,15.776 12.821,16 12.6,16L7.4,16C7.179,16 7,15.776 7,15.5L7,15C6.411,14.557 5.923,13.987 5.576,13.332C5.156,13.112 4.439,12.614 3.5,11.5C2.844,10.722 2,8 2,8L1,7L3,7L5.298,9.298C5.632,8.375 6.23,7.579 7.001,7L12.999,7C13.211,7.159 13.409,7.334 13.593,7.524C13.996,7.251 14.606,6.995 15.475,6.992C16.659,6.988 17.268,7.374 17.608,7.861C18.079,8.534 17.992,9.463 17.997,9.823C18.017,11.234 16.624,12.518 15.829,12.838C15.485,12.976 14.954,13.015 14.573,13.023C14.225,13.809 13.68,14.489 13,14.999ZM14.948,11.724C15.093,11.708 15.234,11.68 15.344,11.632C15.873,11.4 16.608,10.64 16.686,9.805C16.7,9.651 16.727,9.358 16.689,9.043C16.666,8.85 16.614,8.635 16.431,8.485C16.236,8.326 15.93,8.249 15.473,8.251C14.949,8.253 14.589,8.408 14.363,8.557C14.769,9.28 15,10.113 15,11C15,11.246 14.982,11.488 14.948,11.724ZM9.027,4.231C9.009,4.157 9,4.079 9,4C9,3.448 9.448,3 10,3C10.552,3 11,3.448 11,4C11,4.079 10.991,4.157 10.973,4.231C11.759,4.526 12.571,5 12.571,5C12.802,5.145 13,5.224 13,5.5C13,5.776 12.808,6 12.571,6L7.429,6C7.192,6 7,5.776 7,5.5C7,5.224 7.194,5.14 7.429,5C7.429,5 8.241,4.526 9.027,4.231Z" style="fill:rgb(26,26,26);"/>
        </g>
        <g transform="matrix(0.933333,0,0,0.964286,-683.233,-152.321)">
            <path d="M729.6,204.357C728.338,206.698 726.13,210.794 724.939,213.004C724.593,213.647 724.618,214.418 725.006,215.038C725.395,215.658 726.09,216.037 726.839,216.037L736.161,216.037C736.91,216.037 737.605,215.658 737.994,215.038C738.382,214.418 738.407,213.647 738.061,213.004C736.87,210.794 734.662,206.698 733.4,204.357C733.031,203.672 732.298,203.242 731.5,203.242C730.702,203.242 729.969,203.672 729.6,204.357ZM730.55,204.836C730.735,204.494 731.101,204.279 731.5,204.279C731.899,204.279 732.265,204.494 732.45,204.836C733.712,207.177 735.92,211.273 737.111,213.483C737.284,213.805 737.272,214.19 737.077,214.501C736.883,214.811 736.536,215 736.161,215L726.839,215C726.464,215 726.117,214.811 725.923,214.501C725.728,214.19 725.716,213.805 725.889,213.483C727.08,211.273 729.288,207.177 730.55,204.836Z" style="fill:rgb(26,26,26);"/>
        </g>
    </g>
</svg>
