<?xml version="1.0" encoding="UTF-8" standalone="no"?>
<!DOCTYPE svg PUBLIC "-//W3C//DTD SVG 1.1//EN" "http://www.w3.org/Graphics/SVG/1.1/DTD/svg11.dtd">
<svg width="35px" height="18px" version="1.1" xmlns="http://www.w3.org/2000/svg" xmlns:xlink="http://www.w3.org/1999/xlink" xml:space="preserve" xmlns:serif="http://www.serif.com/" style="fill-rule:evenodd;clip-rule:evenodd;stroke-linejoin:round;stroke-miterlimit:2;">
    <g transform="matrix(1.75,0,0,0.9,0,-8.88179e-16)">
        <rect x="0" y="0" width="20" height="20" style="fill-opacity:0;"/>
    </g>
    <g transform="matrix(1,0,0,1,4.5,-21)">
        <g transform="matrix(1,0,0,1,-4.5,21)">
            <path d="M35,2C35,0.896 34.104,0 33,0L2,0C0.896,0 0,0.896 0,2L0,16C0,17.104 0.896,18 2,18L33,18C34.104,18 35,17.104 35,16L35,2Z" style="fill:rgb(255,255,0);"/>
        </g>
        <g transform="matrix(1,0,0,1,0,21)">
            <g transform="matrix(1,0,0,1,-6.5,-1)">
                <path d="M10,15L7,15L7,17L10,17L10,18L6,18L6,14L10,14L10,15ZM12,17L15,17L15,18L11,18L11,14L12,14L12,17ZM19,17L18,17L18,16L17,16L17,18L16,18L16,14L18,14L18,15L19,15L19,16L20,16L20,14L21,14L21,18L19,18L19,17Z" style="fill:rgb(26,26,26);"/>
            </g>
            <g transform="matrix(1,0,0,1,-4.5,1)">
                <path d="M2.345,11.877C2.331,11.898 2.318,11.918 2.304,11.939L2.281,11.907C2.303,11.897 2.324,11.887 2.345,11.877ZM3.824,11.008C4.572,10.471 5.364,9.755 6.41,8.703C5.149,9.522 2.849,10.046 1.319,10.146C1.319,10.146 0.99,9.36 1.261,9.089C3.677,8.72 5.662,7.653 7.621,6.287C8.694,5.234 10.555,5.136 11.961,6.542C13.367,7.948 13.241,9.418 12.284,10.929C12.267,10.953 12.25,10.976 12.233,11L4,11C3.941,11 3.882,11.003 3.824,11.008ZM13.096,3.99L16.293,0.793C16.683,0.402 17.317,0.402 17.707,0.793C18.098,1.183 18.098,1.817 17.707,2.207L14.51,5.404C14.897,6.216 14.567,7.495 14.185,8.307C14.186,7.382 13.802,6.473 12.914,5.586C12.079,4.75 11.112,4.353 10.189,4.316C11.002,3.932 12.284,3.603 13.096,3.99ZM6.945,0.917L6.016,2.574C5.98,2.64 5.961,2.713 5.961,2.788C5.961,2.863 5.98,2.935 6.017,3L6.944,4.658L5.287,3.73C5.222,3.693 5.149,3.674 5.074,3.674C4.999,3.674 4.926,3.693 4.861,3.73L3.203,4.659L4.132,3C4.168,2.935 4.187,2.862 4.187,2.788C4.187,2.713 4.168,2.639 4.132,2.575L3.203,0.917L4.861,1.845C4.926,1.881 4.999,1.901 5.074,1.901C5.148,1.9 5.222,1.882 5.287,1.845L6.945,0.917Z" style="fill:rgb(26,26,26);"/>
            </g>
            <g>
                <g transform="matrix(1,0,0,1,17.4958,-1)">
                    <path d="M10,16.5L10,17L2,17L2,16L2.001,16C1.999,15.352 2.028,14.36 2.3,13.368C2.599,12.275 3.184,11.19 4.295,10.5C3.184,9.81 2.599,8.724 2.3,7.632C2.028,6.64 1.999,5.648 2.001,5L2,5L2,4L10.004,4L10.004,5C10.006,5.648 9.976,6.64 9.705,7.632C9.406,8.724 8.821,9.81 7.71,10.5C8.821,11.19 9.406,12.275 9.705,13.368C10.062,14.673 10,15.978 10,16.5ZM9.006,16C9.009,15.406 8.983,14.519 8.74,13.632C8.439,12.533 7.793,11.424 6.364,10.981C6.33,10.972 6.297,10.958 6.266,10.942L6.203,10.902C6.119,10.84 6.055,10.753 6.022,10.647C6.012,10.615 6.006,10.582 6.002,10.55C5.999,10.582 5.993,10.615 5.983,10.647C5.95,10.753 5.885,10.84 5.802,10.902L5.739,10.942C5.708,10.958 5.675,10.972 5.64,10.981C4.212,11.424 3.566,12.533 3.265,13.632C3.022,14.519 2.996,15.406 2.999,16L9.006,16ZM9.006,5L2.999,5C2.996,5.594 3.022,6.481 3.265,7.368C3.566,8.466 4.212,9.576 5.64,10.019C5.675,10.028 5.708,10.042 5.739,10.058L5.802,10.098C5.885,10.159 5.95,10.247 5.983,10.353C5.993,10.385 5.999,10.417 6.002,10.45C6.006,10.417 6.012,10.385 6.022,10.353C6.055,10.247 6.119,10.159 6.203,10.098L6.266,10.058C6.297,10.042 6.33,10.028 6.364,10.019C7.793,9.576 8.439,8.466 8.74,7.368C8.983,6.481 9.009,5.594 9.006,5Z" style="fill:rgb(26,26,26);"/>
                </g>
                <g transform="matrix(1,0,0,1,17.465,-1)">
                    <path d="M4.035,15C4.067,14.65 4.126,14.273 4.229,13.896C4.448,13.095 4.892,12.263 5.931,11.938C5.955,11.931 5.979,11.923 6.002,11.915C6.032,11.925 6.062,11.935 6.092,11.943C7.112,12.26 7.556,13.094 7.776,13.896C7.879,14.273 7.938,14.65 7.97,15L4.035,15ZM5.937,11.936L5.913,11.944L5.937,11.936Z" style="fill:rgb(26,26,26);fill-opacity:0.5;"/>
                </g>
            </g>
        </g>
    </g>
</svg>
