<?xml version="1.0" encoding="UTF-8" standalone="no"?>
<!DOCTYPE svg PUBLIC "-//W3C//DTD SVG 1.1//EN" "http://www.w3.org/Graphics/SVG/1.1/DTD/svg11.dtd">
<svg width="35px" height="18px" version="1.1" xmlns="http://www.w3.org/2000/svg" xmlns:xlink="http://www.w3.org/1999/xlink" xml:space="preserve" xmlns:serif="http://www.serif.com/" style="fill-rule:evenodd;clip-rule:evenodd;stroke-linejoin:round;stroke-miterlimit:2;">
    <g transform="matrix(1.75,0,0,0.9,0,-8.88179e-16)">
        <rect x="0" y="0" width="20" height="20" style="fill-opacity:0;"/>
    </g>
    <g transform="matrix(1,0,0,1,27.5,-41)">
        <g transform="matrix(1,0,0,1,-27.5,41)">
            <path d="M35,2C35,0.896 34.104,0 33,0L2,0C0.896,0 0,0.896 0,2L0,16C0,17.104 0.896,18 2,18L33,18C34.104,18 35,17.104 35,16L35,2Z" style="fill:rgb(255,145,0);"/>
        </g>
        <g transform="matrix(0.64043,0,0,0.64043,-40.4875,13.0125)">
            <circle cx="62.439" cy="62.439" r="1.561" style="fill:rgb(26,26,26);"/>
        </g>
        <g transform="matrix(1,0,0,1,-61.5,-7)">
            <path d="M61.876,54.991C61.907,54.74 61.83,54.488 61.662,54.298C61.495,54.109 61.254,54 61.001,54L60.999,54C60.746,54 60.505,54.109 60.338,54.298C60.17,54.488 60.093,54.74 60.124,54.991C60.272,56.176 60.5,58 60.5,58L61.5,58C61.5,58 61.728,56.176 61.876,54.991Z" style="fill:rgb(26,26,26);"/>
        </g>
        <g transform="matrix(1,0,0,1,-23,41)">
            <g transform="matrix(1,0,0,1,-6.5,-1)">
                <path d="M10,15L7,15L7,17L10,17L10,18L6,18L6,14L10,14L10,15ZM12,17L15,17L15,18L11,18L11,14L12,14L12,17ZM19,17L18,17L18,16L17,16L17,18L16,18L16,14L18,14L18,15L19,15L19,16L20,16L20,14L21,14L21,18L19,18L19,17Z" style="fill:rgb(26,26,26);"/>
            </g>
            <g transform="matrix(1,0,0,1,-4.5,1)">
                <path d="M2.345,11.877C2.331,11.898 2.318,11.918 2.304,11.939L2.281,11.907C2.303,11.897 2.324,11.887 2.345,11.877ZM3.824,11.008C4.572,10.471 5.364,9.755 6.41,8.703C5.149,9.522 2.849,10.046 1.319,10.146C1.319,10.146 0.99,9.36 1.261,9.089C3.677,8.72 5.662,7.653 7.621,6.287C8.694,5.234 10.555,5.136 11.961,6.542C13.367,7.948 13.241,9.418 12.284,10.929C12.267,10.953 12.25,10.976 12.233,11L4,11C3.941,11 3.882,11.003 3.824,11.008ZM13.096,3.99L16.293,0.793C16.683,0.402 17.317,0.402 17.707,0.793C18.098,1.183 18.098,1.817 17.707,2.207L14.51,5.404C14.897,6.216 14.567,7.495 14.185,8.307C14.186,7.382 13.802,6.473 12.914,5.586C12.079,4.75 11.112,4.353 10.189,4.316C11.002,3.932 12.284,3.603 13.096,3.99ZM6.945,0.917L6.016,2.574C5.98,2.64 5.961,2.713 5.961,2.788C5.961,2.863 5.98,2.935 6.017,3L6.944,4.658L5.287,3.73C5.222,3.693 5.149,3.674 5.074,3.674C4.999,3.674 4.926,3.693 4.861,3.73L3.203,4.659L4.132,3C4.168,2.935 4.187,2.862 4.187,2.788C4.187,2.713 4.168,2.639 4.132,2.575L3.203,0.917L4.861,1.845C4.926,1.881 4.999,1.901 5.074,1.901C5.148,1.9 5.222,1.882 5.287,1.845L6.945,0.917Z" style="fill:rgb(26,26,26);"/>
            </g>
        </g>
        <g transform="matrix(0.933333,0,0,0.964286,-683.233,-152.321)">
            <path d="M729.6,204.357C728.338,206.698 726.13,210.794 724.939,213.004C724.593,213.647 724.618,214.418 725.006,215.038C725.395,215.658 726.09,216.037 726.839,216.037L736.161,216.037C736.91,216.037 737.605,215.658 737.994,215.038C738.382,214.418 738.407,213.647 738.061,213.004C736.87,210.794 734.662,206.698 733.4,204.357C733.031,203.672 732.298,203.242 731.5,203.242C730.702,203.242 729.969,203.672 729.6,204.357ZM730.55,204.836C730.735,204.494 731.101,204.279 731.5,204.279C731.899,204.279 732.265,204.494 732.45,204.836C733.712,207.177 735.92,211.273 737.111,213.483C737.284,213.805 737.272,214.19 737.077,214.501C736.883,214.811 736.536,215 736.161,215L726.839,215C726.464,215 726.117,214.811 725.923,214.501C725.728,214.19 725.716,213.805 725.889,213.483C727.08,211.273 729.288,207.177 730.55,204.836Z" style="fill:rgb(26,26,26);"/>
        </g>
    </g>
</svg>
