<?xml version="1.0" encoding="UTF-8" standalone="no"?>
<!DOCTYPE svg PUBLIC "-//W3C//DTD SVG 1.1//EN" "http://www.w3.org/Graphics/SVG/1.1/DTD/svg11.dtd">
<svg width="100%" height="100%" viewBox="0 0 35 18" version="1.1" xmlns="http://www.w3.org/2000/svg" xmlns:xlink="http://www.w3.org/1999/xlink" xml:space="preserve" xmlns:serif="http://www.serif.com/" style="fill-rule:evenodd;clip-rule:evenodd;stroke-linejoin:round;stroke-miterlimit:2;">
    <rect x="0" y="-0" width="35" height="18" style="fill-opacity:0;"/>
    <path d="M35,2c0,-1.104 -0.896,-2 -2,-2l-31,0c-1.104,0 -2,0.896 -2,2l0,14c0,1.104 0.896,2 2,2l31,0c1.104,0 2,-0.896 2,-2l0,-14Z" style="fill:#ff9100;"/>
    <path d="M25.227,3.738c0.344,-0.661 1.028,-1.076 1.773,-1.076c0.745,0 1.429,0.415 1.773,1.076c1.178,2.257 3.239,6.207 4.351,8.338c0.323,0.62 0.299,1.363 -0.063,1.961c-0.363,0.598 -1.012,0.963 -1.711,0.963l-8.7,0c-0.699,0 -1.348,-0.365 -1.711,-0.963c-0.362,-0.598 -0.385,-1.341 -0.063,-1.961c1.112,-2.131 3.173,-6.081 4.351,-8.338Zm0.886,0.461c-1.177,2.258 -3.238,6.208 -4.35,8.339c-0.161,0.31 -0.15,0.681 0.032,0.981c0.181,0.299 0.505,0.481 0.855,0.481l8.7,0c0.35,0 0.674,-0.182 0.855,-0.481c0.182,-0.3 0.193,-0.671 0.032,-0.981c-1.112,-2.131 -3.172,-6.081 -4.35,-8.339c-0.173,-0.329 -0.515,-0.537 -0.887,-0.537c-0.372,0 -0.714,0.208 -0.887,0.537Zm1.763,2.792c-0.148,1.185 -0.376,3.009 -0.376,3.009l-1,0c0,0 -0.228,-1.824 -0.376,-3.009c-0.031,-0.251 0.046,-0.503 0.214,-0.693c0.167,-0.189 0.408,-0.298 0.661,-0.298l0.002,0c0.253,0 0.494,0.109 0.661,0.298c0.168,0.19 0.245,0.442 0.214,0.693Zm-0.876,4.01c0.552,-0 1,0.448 1,0.999c0,0.552 -0.448,1 -1,1c-0.551,0 -0.999,-0.448 -0.999,-1c-0,-0.551 0.448,-0.999 0.999,-0.999Z" style="fill:#1a1a1a;"/>
    <path id="clapboard" d="M2,8.007l-0.02,0l-0,-4l2.02,0l2,2l-1.983,1.983l0.99,0l1.983,-1.983l2.13,0l-1.982,1.983l1.697,0l1.982,-1.983l2.334,0l-1.982,1.983l1.697,0l1.982,-1.983l1.152,0l-0,9.993l-14,-0l-0,-7.993Zm13,0.983c-0,0 -12,0 -12,0l-0,6.01c-0,-0 12,-0 12,-0l-0,-6.01Zm-6.257,-4.399l-2.587,0.583l-1.673,-1.674l2.587,-0.582l1.673,1.673Zm-0.288,-1.985l2.695,-0.607l1.674,1.673l-2.696,0.607l-1.673,-1.673Zm4.08,-0.919l3.047,-0.686l0.439,1.951l-1.812,0.408l-1.674,-1.673Z" style="fill:#1a1a1a;"/>
</svg>
