<?xml version="1.0" encoding="UTF-8" standalone="no"?>
<!DOCTYPE svg PUBLIC "-//W3C//DTD SVG 1.1//EN" "http://www.w3.org/Graphics/SVG/1.1/DTD/svg11.dtd">
<svg width="100%" height="100%" viewBox="0 0 35 18" version="1.1" xmlns="http://www.w3.org/2000/svg" xmlns:xlink="http://www.w3.org/1999/xlink" xml:space="preserve" xmlns:serif="http://www.serif.com/" style="fill-rule:evenodd;clip-rule:evenodd;stroke-linejoin:round;stroke-miterlimit:2;">
    <rect x="0" y="-0" width="35" height="18" style="fill-opacity:0;"/>
    <path d="M35,2c0,-1.104 -0.896,-2 -2,-2l-31,0c-1.104,0 -2,0.896 -2,2l0,14c0,1.104 0.896,2 2,2l31,0c1.104,0 2,-0.896 2,-2l0,-14Z" style="fill:#ff0;"/>
    <path d="M26,14c0.032,-0.35 0.091,-0.727 0.194,-1.104c0.219,-0.801 0.663,-1.633 1.702,-1.958c0.024,-0.007 0.048,-0.015 0.071,-0.023c0.03,0.01 0.06,0.02 0.09,0.028c1.02,0.317 1.464,1.151 1.684,1.953c0.103,0.377 0.162,0.754 0.194,1.104l-3.935,0Zm1.902,-3.064l-0.024,0.008l0.024,-0.008Z" style="fill:#1a1a1a;fill-opacity:0.5;"/>
    <path d="M31.996,15.5l-0,0.5l-8,0l0,-1c-0.002,-0.648 0.028,-1.64 0.3,-2.632c0.299,-1.093 0.884,-2.178 1.995,-2.868c-1.111,-0.69 -1.696,-1.776 -1.995,-2.868c-0.272,-0.992 -0.302,-1.984 -0.3,-2.632l-0,-1l8.004,0l-0,1c0.002,0.648 -0.028,1.64 -0.299,2.632c-0.299,1.092 -0.884,2.178 -1.995,2.868c1.111,0.69 1.696,1.775 1.995,2.868c0.357,1.305 0.295,2.61 0.295,3.132Zm-0.994,-11.5l-6.007,0c-0.003,0.594 0.023,1.481 0.266,2.368c0.301,1.098 0.947,2.208 2.375,2.651c0.035,0.009 0.068,0.023 0.099,0.039l0.063,0.04c0.083,0.061 0.148,0.149 0.181,0.255c0.01,0.032 0.016,0.064 0.019,0.097c0.004,-0.033 0.01,-0.065 0.02,-0.097c0.033,-0.106 0.097,-0.194 0.181,-0.255l0.063,-0.04c0.031,-0.016 0.064,-0.03 0.098,-0.039c1.429,-0.443 2.075,-1.553 2.376,-2.651c0.243,-0.887 0.269,-1.774 0.266,-2.368Zm-0,11c0.003,-0.594 -0.023,-1.481 -0.266,-2.368c-0.301,-1.099 -0.947,-2.208 -2.376,-2.651c-0.034,-0.009 -0.067,-0.023 -0.098,-0.039l-0.063,-0.04c-0.084,-0.062 -0.148,-0.149 -0.181,-0.255c-0.01,-0.032 -0.016,-0.065 -0.02,-0.097c-0.003,0.032 -0.009,0.065 -0.019,0.097c-0.033,0.106 -0.098,0.193 -0.181,0.255l-0.063,0.04c-0.031,0.016 -0.064,0.03 -0.099,0.039c-1.428,0.443 -2.074,1.552 -2.375,2.651c-0.243,0.887 -0.269,1.774 -0.266,2.368l6.007,0Zm-29.002,-6.993l-0.02,0l-0,-4l2.02,0l2,2l-1.983,1.983l0.99,0l1.983,-1.983l2.13,0l-1.982,1.983l1.697,0l1.982,-1.983l2.334,0l-1.982,1.983l1.697,0l1.982,-1.983l1.152,0l-0,9.993l-14,-0l-0,-7.993Zm13,0.983c-0,0 -12,0 -12,0l-0,6.01c-0,-0 12,-0 12,-0l-0,-6.01Zm-6.257,-4.399l-2.587,0.583l-1.673,-1.674l2.587,-0.582l1.673,1.673Zm-0.288,-1.985l2.695,-0.607l1.674,1.673l-2.696,0.607l-1.673,-1.673Zm4.08,-0.919l3.047,-0.686l0.439,1.951l-1.812,0.408l-1.674,-1.673Z" style="fill:#1a1a1a;"/>
</svg>
