<?xml version="1.0" encoding="UTF-8" standalone="no"?>
<!DOCTYPE svg PUBLIC "-//W3C//DTD SVG 1.1//EN" "http://www.w3.org/Graphics/SVG/1.1/DTD/svg11.dtd">
<svg width="35px" height="18px" version="1.1" xmlns="http://www.w3.org/2000/svg" xmlns:xlink="http://www.w3.org/1999/xlink" xml:space="preserve" xmlns:serif="http://www.serif.com/" style="fill-rule:evenodd;clip-rule:evenodd;stroke-linejoin:round;stroke-miterlimit:2;">
    <g transform="matrix(1.75,0,0,0.9,0,-8.88179e-16)">
        <rect x="0" y="0" width="20" height="20" style="fill-opacity:0;"/>
    </g>
    <g transform="matrix(1,0,0,1,27.5,0)">
        <g transform="matrix(1,0,0,1,-27.5,0)">
            <path d="M35,2C35,0.896 34.104,0 33,0L2,0C0.896,0 0,0.896 0,2L0,16C0,17.104 0.896,18 2,18L33,18C34.104,18 35,17.104 35,16L35,2Z" style="fill:rgb(243,31,25);"/>
        </g>
        <g transform="matrix(1,0,0,1,-730,-248.483)">
            <g>
                <path d="M729.78,257.495L726.629,254.336C726.434,254.141 726.435,253.824 726.63,253.629C726.826,253.434 727.143,253.435 727.337,253.63L730.488,256.789L733.647,253.639C733.843,253.444 734.16,253.445 734.354,253.64C734.549,253.836 734.548,254.153 734.353,254.347L731.194,257.498L734.344,260.657C734.539,260.853 734.538,261.169 734.343,261.364C734.147,261.559 733.831,261.558 733.636,261.363L730.485,258.204L727.319,261.362C727.123,261.557 726.806,261.556 726.611,261.36C726.417,261.165 726.417,260.848 726.613,260.653L729.78,257.495Z" style="fill:rgb(26,26,26);"/>
            </g>
        </g>
    </g>
    <g transform="matrix(1,0,0,1,-128.998,-429)">
        <path d="M135.5,439L136.386,440.614L138,441.5L136.386,442.386L135.5,444L134.614,442.386L133,441.5L134.614,440.614L135.5,439ZM140.5,439L141.032,439.968L142,440.5L141.032,441.032L140.5,442L139.968,441.032L139,440.5L139.968,439.968L140.5,439ZM144.998,445L130.998,445L130.998,438L144.998,438L144.998,445ZM137.748,434.263L136.248,434.811L136.248,432.682L137.748,432.133L137.748,434.263ZM140.748,433.166L139.248,433.714L139.248,431.585L140.748,431.036L140.748,433.166ZM142.248,430.488L143.581,430L144.268,431.878L142.248,432.617L142.248,430.488ZM130.998,437L130.998,436.037C130.983,435.208 131.489,434.422 132.311,434.122L134.748,433.23L134.748,435.36L132.998,436L144.998,436L144.998,437L130.998,437Z" style="fill:rgb(26,26,26);"/>
    </g>
</svg>
