<?xml version="1.0" encoding="UTF-8" standalone="no"?>
<!DOCTYPE svg PUBLIC "-//W3C//DTD SVG 1.1//EN" "http://www.w3.org/Graphics/SVG/1.1/DTD/svg11.dtd">
<svg width="35px" height="18px" version="1.1" xmlns="http://www.w3.org/2000/svg" xmlns:xlink="http://www.w3.org/1999/xlink" xml:space="preserve" xmlns:serif="http://www.serif.com/" style="fill-rule:evenodd;clip-rule:evenodd;stroke-linejoin:round;stroke-miterlimit:2;">
    <g transform="matrix(1.75,0,0,0.9,0,-8.88179e-16)">
        <rect x="0" y="0" width="20" height="20" style="fill-opacity:0;"/>
    </g>
    <g transform="matrix(1,0,0,1,27.5,0)">
        <g transform="matrix(1,0,0,1,-27.5,0)">
            <path d="M35,2C35,0.896 34.104,0 33,0L2,0C0.896,0 0,0.896 0,2L0,16C0,17.104 0.896,18 2,18L33,18C34.104,18 35,17.104 35,16L35,2Z" style="fill:rgb(243,31,25);"/>
        </g>
        <g transform="matrix(1,0,0,1,-23,0)">
            <g transform="matrix(1,0,0,1,-707,-248.483)">
                <path d="M729.78,257.495L726.629,254.336C726.434,254.141 726.435,253.824 726.63,253.629C726.826,253.434 727.143,253.435 727.337,253.63L730.488,256.789L733.647,253.639C733.843,253.444 734.16,253.445 734.354,253.64C734.549,253.836 734.548,254.153 734.353,254.347L731.194,257.498L734.344,260.657C734.539,260.853 734.538,261.169 734.343,261.364C734.147,261.559 733.831,261.558 733.636,261.363L730.485,258.204L727.319,261.362C727.123,261.557 726.806,261.556 726.611,261.36C726.417,261.165 726.417,260.848 726.613,260.653L729.78,257.495Z" style="fill:rgb(26,26,26);"/>
            </g>
            <g transform="matrix(1,0,0,1,-4.5,0)">
                <path d="M13,14.999L13,15.5C13,15.776 12.821,16 12.6,16L7.4,16C7.179,16 7,15.776 7,15.5L7,15C6.411,14.557 5.923,13.987 5.576,13.332C5.156,13.112 4.439,12.614 3.5,11.5C2.844,10.722 2,8 2,8L1,7L3,7L5.298,9.298C5.632,8.375 6.23,7.579 7.001,7L12.999,7C13.211,7.159 13.409,7.334 13.593,7.524C13.996,7.251 14.606,6.995 15.475,6.992C16.659,6.988 17.268,7.374 17.608,7.861C18.079,8.534 17.992,9.463 17.997,9.823C18.017,11.234 16.624,12.518 15.829,12.838C15.485,12.976 14.954,13.015 14.573,13.023C14.225,13.809 13.68,14.489 13,14.999ZM14.948,11.724C15.093,11.708 15.234,11.68 15.344,11.632C15.873,11.4 16.608,10.64 16.686,9.805C16.7,9.651 16.727,9.358 16.689,9.043C16.666,8.85 16.614,8.635 16.431,8.485C16.236,8.326 15.93,8.249 15.473,8.251C14.949,8.253 14.589,8.408 14.363,8.557C14.769,9.28 15,10.113 15,11C15,11.246 14.982,11.488 14.948,11.724ZM9.027,4.231C9.009,4.157 9,4.079 9,4C9,3.448 9.448,3 10,3C10.552,3 11,3.448 11,4C11,4.079 10.991,4.157 10.973,4.231C11.759,4.526 12.571,5 12.571,5C12.802,5.145 13,5.224 13,5.5C13,5.776 12.808,6 12.571,6L7.429,6C7.192,6 7,5.776 7,5.5C7,5.224 7.194,5.14 7.429,5C7.429,5 8.241,4.526 9.027,4.231Z" style="fill:rgb(26,26,26);"/>
            </g>
        </g>
    </g>
</svg>
