<?xml version="1.0" encoding="UTF-8" standalone="no"?>
<!DOCTYPE svg PUBLIC "-//W3C//DTD SVG 1.1//EN" "http://www.w3.org/Graphics/SVG/1.1/DTD/svg11.dtd">
<svg width="35px" height="18px" version="1.1" xmlns="http://www.w3.org/2000/svg" xmlns:xlink="http://www.w3.org/1999/xlink" xml:space="preserve" xmlns:serif="http://www.serif.com/" style="fill-rule:evenodd;clip-rule:evenodd;stroke-linejoin:round;stroke-miterlimit:2;">
    <g transform="matrix(1.75,0,0,0.9,0,-8.88179e-16)">
        <rect x="0" y="0" width="20" height="20" style="fill-opacity:0;"/>
    </g>
    <g transform="matrix(1,0,0,1,27.5,-41)">
        <g transform="matrix(1,0,0,1,-27.5,41)">
            <path d="M35,2C35,0.896 34.104,0 33,0L2,0C0.896,0 0,0.896 0,2L0,16C0,17.104 0.896,18 2,18L33,18C34.104,18 35,17.104 35,16L35,2Z" style="fill:rgb(255,145,0);"/>
        </g>
        <g transform="matrix(0.64043,0,0,0.64043,-40.4875,13.0125)">
            <circle cx="62.439" cy="62.439" r="1.561" style="fill:rgb(26,26,26);"/>
        </g>
        <g transform="matrix(1,0,0,1,-61.5,-7)">
            <path d="M61.876,54.991C61.907,54.74 61.83,54.488 61.662,54.298C61.495,54.109 61.254,54 61.001,54L60.999,54C60.746,54 60.505,54.109 60.338,54.298C60.17,54.488 60.093,54.74 60.124,54.991C60.272,56.176 60.5,58 60.5,58L61.5,58C61.5,58 61.728,56.176 61.876,54.991Z" style="fill:rgb(26,26,26);"/>
        </g>
        <g transform="matrix(0.941249,0,0,0.941249,-27.4328,40.6055)">
            <path d="M12.274,12.432C13.231,10.921 13.357,9.451 11.951,8.045C10.544,6.638 8.684,6.737 7.611,7.789C5.652,9.155 3.667,10.222 1.251,10.592C0.98,10.863 1.308,11.648 1.308,11.648C2.838,11.549 5.138,11.025 6.399,10.205C4.638,11.977 3.599,12.796 2.271,13.41C2.271,13.41 2.302,13.454 2.318,13.475C2.534,13.773 2.969,14.35 2.969,14.35C3.647,14.152 4.831,13.652 5.403,13.136C5.048,13.795 4.243,14.607 3.676,15.054C3.676,15.054 5.817,17.226 6.956,18.01C7.001,18.041 7.078,18.112 7.108,18.068C8.066,16.654 9.131,15.59 9.123,15.614C9.092,15.707 8.307,17.078 8.333,18.769C8.333,18.769 9.15,18.998 9.403,18.744C9.975,16.746 11.023,14.154 12.274,12.432ZM17.215,13.436L16.286,15.093C16.25,15.159 16.23,15.232 16.23,15.307C16.23,15.382 16.25,15.455 16.286,15.52L17.214,17.177L15.557,16.25C15.492,16.213 15.419,16.194 15.344,16.194C15.269,16.194 15.196,16.213 15.13,16.249L13.473,17.178L14.401,15.52C14.438,15.455 14.456,15.381 14.457,15.307C14.457,15.232 14.437,15.159 14.401,15.094L13.473,13.436L15.131,14.364C15.195,14.401 15.269,14.42 15.344,14.42C15.418,14.42 15.492,14.401 15.557,14.364L17.215,13.436ZM13.085,5.493L16.283,2.295C16.673,1.905 17.307,1.905 17.697,2.295C18.087,2.686 18.087,3.319 17.697,3.71L14.499,6.907C14.886,7.718 14.557,8.998 14.175,9.81C14.176,8.884 13.792,7.976 12.904,7.088C12.069,6.253 11.102,5.856 10.179,5.818C10.992,5.435 12.273,5.106 13.085,5.493ZM6.935,2.419L6.006,4.077C5.97,4.143 5.951,4.215 5.951,4.29C5.951,4.365 5.97,4.438 6.006,4.503L6.934,6.161L5.277,5.233C5.212,5.196 5.139,5.177 5.064,5.177C4.989,5.177 4.916,5.196 4.85,5.232L3.193,6.161L4.121,4.503C4.158,4.438 4.176,4.365 4.177,4.29C4.177,4.215 4.157,4.142 4.121,4.078L3.193,2.419L4.851,3.348C4.915,3.384 4.989,3.404 5.064,3.404C5.138,3.403 5.212,3.385 5.277,3.348L6.935,2.419Z" style="fill:rgb(26,26,26);"/>
        </g>
        <g transform="matrix(0.933333,0,0,0.964286,-683.233,-152.321)">
            <path d="M729.6,204.357C728.338,206.698 726.13,210.794 724.939,213.004C724.593,213.647 724.618,214.418 725.006,215.038C725.395,215.658 726.09,216.037 726.839,216.037L736.161,216.037C736.91,216.037 737.605,215.658 737.994,215.038C738.382,214.418 738.407,213.647 738.061,213.004C736.87,210.794 734.662,206.698 733.4,204.357C733.031,203.672 732.298,203.242 731.5,203.242C730.702,203.242 729.969,203.672 729.6,204.357ZM730.55,204.836C730.735,204.494 731.101,204.279 731.5,204.279C731.899,204.279 732.265,204.494 732.45,204.836C733.712,207.177 735.92,211.273 737.111,213.483C737.284,213.805 737.272,214.19 737.077,214.501C736.883,214.811 736.536,215 736.161,215L726.839,215C726.464,215 726.117,214.811 725.923,214.501C725.728,214.19 725.716,213.805 725.889,213.483C727.08,211.273 729.288,207.177 730.55,204.836Z" style="fill:rgb(26,26,26);"/>
        </g>
    </g>
</svg>
