<?xml version="1.0" encoding="UTF-8" standalone="no"?>
<!DOCTYPE svg PUBLIC "-//W3C//DTD SVG 1.1//EN" "http://www.w3.org/Graphics/SVG/1.1/DTD/svg11.dtd">
<svg width="142225px" height="71113px" version="1.1" xmlns="http://www.w3.org/2000/svg" xmlns:xlink="http://www.w3.org/1999/xlink" xml:space="preserve" xmlns:serif="http://www.serif.com/" style="fill-rule:evenodd;clip-rule:evenodd;stroke-linejoin:round;stroke-miterlimit:2;">
    <g transform="matrix(4.16667,0,0,4.16667,0,0)">
        <g transform="matrix(4.16667,0,0,4.16667,0,0)">
            <g>
                <path d="M7293.79,513.111L7293.79,3582.89L898.213,3582.89L875.367,1310.43L1725.51,493.988L7293.79,513.111ZM6263.38,1898L5997.06,2044.48C5946.99,1992.14 5897.52,1955.81 5848.63,1935.5C5799.74,1915.19 5742.45,1905.03 5676.75,1905.03C5557.07,1905.03 5460.28,1940.72 5386.36,2012.09C5312.45,2083.47 5275.49,2174.92 5275.49,2286.46C5275.49,2394.89 5311.08,2483.43 5382.26,2552.07C5453.44,2620.71 5546.91,2655.03 5662.67,2655.03C5805.82,2655.03 5917.28,2606.2 5997.06,2508.55L6249.32,2681.27C6112.6,2859.09 5919.63,2948 5670.41,2948C5446.19,2948 5270.61,2881.59 5143.66,2748.78C5016.7,2615.97 4953.23,2460.5 4953.23,2282.38C4953.23,2158.94 4984.09,2045.27 5045.81,1941.36C5107.52,1837.45 5193.66,1755.81 5304.2,1696.44C5414.75,1637.06 5538.38,1607.38 5675.1,1607.38C5801.66,1607.38 5915.34,1632.57 6016.12,1682.96C6116.9,1733.35 6199.32,1805.03 6263.38,1898ZM3107.52,2915.19L3107.52,1640.19L2787.6,1640.19L2787.6,1780.81C2730.63,1723 2668.59,1679.64 2601.48,1650.73C2534.38,1621.83 2462.59,1607.38 2386.13,1607.38C2219.91,1607.38 2078.67,1670.27 1962.4,1796.05C1846.13,1921.83 1787.99,2083.16 1787.99,2280.03C1787.99,2469.88 1848.08,2628.66 1968.25,2756.4C2088.42,2884.13 2230.83,2948 2395.48,2948C2468.83,2948 2536.92,2934.91 2599.74,2908.74C2662.55,2882.57 2725.18,2839.8 2787.6,2780.42L2787.6,2915.19L3107.52,2915.19ZM3748.54,2915.19L3748.54,2780.42C3811.04,2839.8 3873.93,2882.57 3937.21,2908.74C4000.49,2934.91 4068.85,2948 4142.29,2948C4307.13,2948 4449.71,2884.13 4570.02,2756.4C4690.34,2628.66 4750.49,2469.88 4750.49,2280.03C4750.49,2083.16 4692.29,1921.83 4575.88,1796.05C4459.48,1670.27 4318.07,1607.38 4151.66,1607.38C4075.1,1607.38 4003.23,1621.83 3936.04,1650.73C3868.85,1679.64 3806.35,1723 3748.54,1780.81L3748.54,1148L3430.96,1148L3430.96,2915.19L3748.54,2915.19ZM2451.29,1902.69C2352.4,1902.69 2270.26,1937.65 2204.85,2007.57C2139.45,2077.49 2106.74,2167.14 2106.74,2276.52C2106.74,2386.67 2140.03,2477.3 2206.6,2548.39C2273.17,2619.48 2355.12,2655.03 2452.45,2655.03C2552.9,2655.03 2636.21,2620.07 2702.39,2550.15C2768.57,2480.23 2801.66,2388.63 2801.66,2275.34C2801.66,2164.41 2768.57,2074.56 2702.39,2005.81C2636.21,1937.06 2552.51,1902.69 2451.29,1902.69ZM4084.87,1902.69C3984.09,1902.69 3900.49,1937.06 3834.09,2005.81C3767.68,2074.56 3734.48,2164.41 3734.48,2275.34C3734.48,2388.63 3767.68,2480.23 3834.09,2550.15C3900.49,2620.07 3984.09,2655.03 4084.87,2655.03C4182.52,2655.03 4264.75,2619.48 4331.55,2548.39C4398.34,2477.3 4431.74,2386.67 4431.74,2276.52C4431.74,2167.14 4398.93,2077.49 4333.31,2007.57C4267.68,1937.65 4184.87,1902.69 4084.87,1902.69Z"/>
            </g>
        </g>
    </g>
</svg>
