<?xml version="1.0" encoding="UTF-8" standalone="no"?>
<!DOCTYPE svg PUBLIC "-//W3C//DTD SVG 1.1//EN" "http://www.w3.org/Graphics/SVG/1.1/DTD/svg11.dtd">
<svg width="80px" height="60px" version="1.1" xmlns="http://www.w3.org/2000/svg" xmlns:xlink="http://www.w3.org/1999/xlink" xml:space="preserve" xmlns:serif="http://www.serif.com/" style="fill-rule:evenodd;clip-rule:evenodd;stroke-linejoin:round;stroke-miterlimit:2;">
    <rect x="0" y="0" width="80" height="60" style="fill:rgb(57,57,57);fill-opacity:0;"/>
    <g transform="matrix(1,-2.61542e-23,-5.05271e-23,1,-2.48653e-05,9.611e-06)">
        <path d="M64,50.001C64.53,50.001 65.039,49.79 65.414,49.415C65.789,49.04 66,48.531 66,48.001L66,17C66,15.895 65.105,15 64,15L38,15C38,15 34.363,11.363 33.293,10.293C33.105,10.105 32.851,10 32.586,10L16,10C15.47,10 14.961,10.211 14.586,10.586C14.211,10.961 14,11.47 14,12L14,48C14,49.105 14.895,50 16,50C24.268,50 55.732,50.001 64,50.001Z" style="fill:rgb(255,233,110);"/>
        <path d="M38.414,14L64,14C65.657,14 67,15.343 67,17L67,48.001C67,48.797 66.684,49.56 66.121,50.122C65.559,50.685 64.796,51.001 64,51.001L16,51C14.343,51 13,49.657 13,48L13,12C13,11.204 13.316,10.441 13.879,9.879C14.441,9.316 15.204,9 16,9L32.586,9C33.116,9 33.624,9.21 34,9.586L38.414,14ZM64,50.001C64.53,50.001 65.039,49.79 65.414,49.415C65.789,49.04 66,48.531 66,48.001L66,17C66,15.895 65.105,15 64,15L38,15C38,15 34.363,11.363 33.293,10.293C33.105,10.105 32.851,10 32.586,10L16,10C15.47,10 14.961,10.211 14.586,10.586C14.211,10.961 14,11.47 14,12L14,48C14,49.105 14.895,50 16,50C24.268,50 55.732,50.001 64,50.001Z" style="fill:rgb(51,38,0);fill-opacity:0.5;"/>
    </g>
    <g transform="matrix(6.12323e-17,-1,1,6.12323e-17,-88.0153,459)">
        <path d="M429.497,127L427.299,124.803C426.894,124.398 426.894,123.74 427.299,123.335C427.704,122.93 428.362,122.93 428.767,123.335L432.707,127.275C433.112,127.68 433.112,128.338 432.707,128.743C432.652,128.798 432.592,128.846 432.528,128.886L428.707,132.707C428.317,133.097 427.683,133.097 427.293,132.707C426.903,132.317 426.903,131.683 427.293,131.293L429.586,129L420,129C419.448,129 419,128.552 419,128C419,127.448 419.448,127 420,127L429.497,127Z" style="fill-opacity:0.5;"/>
    </g>
</svg>
