<?xml version="1.0" encoding="UTF-8" standalone="no"?>
<!DOCTYPE svg PUBLIC "-//W3C//DTD SVG 1.1//EN" "http://www.w3.org/Graphics/SVG/1.1/DTD/svg11.dtd">
<svg width="80px" height="60px" version="1.1" xmlns="http://www.w3.org/2000/svg" xmlns:xlink="http://www.w3.org/1999/xlink" xml:space="preserve" xmlns:serif="http://www.serif.com/" style="fill-rule:evenodd;clip-rule:evenodd;stroke-linejoin:round;stroke-miterlimit:2;">
    <rect x="0" y="0" width="80" height="60" style="fill:rgb(57,57,57);fill-opacity:0;"/>
    <g transform="matrix(0.981818,-2.56786e-23,-3.87766e-23,0.767442,9.0727,11.093)">
        <g>
            <g>
                <g transform="matrix(1.01852,0,0,1.30303,-9.24074,-14.4545)">
                    <path d="M13.001,49.14C13.027,50.171 13.897,51 14.964,51L65,51L65.041,50.999L65.073,50.998C65.049,51 65.024,51 65,51L14.964,51C13.897,51 13.027,50.171 13.001,49.14ZM65.102,50.997L65.101,50.997L65.102,50.997ZM66,49.001L66,16C66,15.474 65.542,15 65,15L39,15C39,15 35.363,11.363 34.293,10.293C34.105,10.105 33.851,10 33.586,10L14.964,10C14.439,10 14,10.399 14,10.909L14,49.091C14,49.601 14.439,50 14.964,50C14.964,50 65,50 64.986,50L65.022,50C65.563,49.989 66,49.545 66,49.001ZM66.993,15.842C66.998,15.894 67,15.947 67,16L67,49.002L67,16C67,15.947 66.998,15.894 66.993,15.842ZM13.04,10.524C13.037,10.54 13.034,10.555 13.031,10.571C13.034,10.555 13.037,10.54 13.04,10.524ZM33.781,10.089C33.8,10.125 33.817,10.161 33.833,10.199C33.823,10.176 33.813,10.155 33.803,10.133L33.781,10.089ZM33.708,9.959C33.719,9.978 33.731,9.996 33.741,10.015C33.73,9.996 33.719,9.978 33.708,9.959ZM33.631,9.842L33.658,9.882C33.647,9.865 33.635,9.848 33.623,9.831L33.631,9.842ZM33.134,9.352C33.172,9.379 33.21,9.407 33.247,9.436C33.21,9.407 33.172,9.379 33.134,9.352ZM13,10.909C13,10.843 13.003,10.778 13.01,10.714L13.006,10.762C13.002,10.81 13,10.859 13,10.909Z" style="fill:rgb(203,151,61);"/>
                </g>
                <g transform="matrix(1.01852,0,0,1.30303,-9.24074,-14.4545)">
                    <path d="M64.982,51L14.964,51C13.88,51 13,50.145 13,49.091L13,10.909C13,9.855 13.88,9 14.964,9L33.586,9C34.116,9 34.625,9.211 35,9.586L39.414,14L65,14C66.084,14 67,14.947 67,16L67,49.002C66.999,50.091 66.126,50.977 65.042,50.999L64.982,51ZM66,49.001L66,16C66,15.474 65.542,15 65,15L39,15C39,15 35.363,11.363 34.293,10.293C34.105,10.105 33.851,10 33.586,10L14.964,10C14.439,10 14,10.399 14,10.909L14,49.091C14,49.601 14.439,50 14.964,50C14.964,50 65,50 64.986,50L65.022,50C65.563,49.989 66,49.545 66,49.001ZM67,49.005L67,49.002C67,49.008 67,49.005 67,49.005Z" style="fill:rgb(51,38,0);fill-opacity:0.5;"/>
                </g>
                <g transform="matrix(1.01852,0,0,1.30303,-9.24074,-17.0606)">
                    <path d="M14,27.091L14,22C14,20.896 14.896,20 16,20L64,20C65.104,20 66,20.896 66,22L66,27.001C66,27.545 65.563,27.989 65.022,28L64.986,28C65,28 14.964,28 14.964,28C14.439,28 14,27.601 14,27.091Z" style="fill-opacity:0.25;"/>
                </g>
                <g transform="matrix(1.01852,0,0,1.30303,-9.24074,-14.4545)">
                    <path d="M14,49.091L14,20C14,19.448 14.448,19 15,19C21.565,19 58.435,19 65,19C65.552,19 66,19.448 66,20C66,25.209 66,49.001 66,49.001C66,49.545 65.563,49.989 65.022,50L64.986,50C65,50 14.964,50 14.964,50C14.439,50 14,49.601 14,49.091Z" style="fill:rgb(235,198,75);"/>
                </g>
            </g>
        </g>
    </g>
</svg>
