<?xml version="1.0" encoding="UTF-8" standalone="no"?>
<!DOCTYPE svg PUBLIC "-//W3C//DTD SVG 1.1//EN" "http://www.w3.org/Graphics/SVG/1.1/DTD/svg11.dtd">
<svg width="22px" height="22px" version="1.1" xmlns="http://www.w3.org/2000/svg" xmlns:xlink="http://www.w3.org/1999/xlink" xml:space="preserve" xmlns:serif="http://www.serif.com/" style="fill-rule:evenodd;clip-rule:evenodd;stroke-linejoin:round;stroke-miterlimit:2;">
    <rect x="0" y="0" width="22" height="22" style="fill-opacity:0;"/>
    <g transform="matrix(1,0,0,1,-2,-602)">
        <path d="M4.885,606.736C5.02,607.325 5.208,608.024 5.455,608.691C4.427,609.217 2,610.465 2,610.465L2,608.216C2,608.216 4.022,607.177 4.885,606.736ZM16.19,604.699C18.895,605.518 21.14,607.169 22.233,608.918L20.537,609.978C19.806,608.808 18.442,607.705 16.756,606.985C16.695,606.273 16.563,605.592 16.33,605.017C16.288,604.912 16.241,604.806 16.19,604.699ZM6.848,605.737C7.056,606.157 7.318,606.663 7.533,607.008C7.633,607.168 7.742,607.323 7.856,607.468C7.418,607.69 6.911,607.948 6.345,608.236C6.098,607.554 5.919,606.837 5.799,606.27C6.18,606.076 6.531,605.898 6.848,605.737ZM7.741,605.289C9.087,604.626 10.474,604.283 11.839,604.189C11.939,604.393 12.031,604.592 12.1,604.763C12.259,605.157 12.345,605.822 12.364,605.986C12.32,606.046 12.27,606.1 12.215,606.155C11.08,606.213 9.923,606.475 8.799,606.999C8.645,606.834 8.486,606.646 8.381,606.478C8.18,606.156 7.936,605.684 7.741,605.289ZM12.932,604.166C13.589,604.184 14.235,604.256 14.865,604.374C15.08,604.712 15.268,605.056 15.403,605.391C15.55,605.756 15.652,606.168 15.716,606.604C14.968,606.373 14.174,606.219 13.358,606.164C13.417,605.743 13.284,605.025 13.026,604.384C12.998,604.315 12.966,604.242 12.932,604.166Z" style="fill:rgb(166,166,166);fill-rule:nonzero;"/>
    </g>
    <g transform="matrix(1,0,0,1,-4,-602)">
        <path d="M13.705,608.335C13.953,607.927 14.208,607.57 14.388,607.376C14.808,606.925 15.09,606.73 15.282,606.411C15.474,606.092 15.346,605.179 15.026,604.384C14.718,603.631 13.998,602.349 13.998,602.349L14.396,602L14.932,602.002C14.932,602.002 16.867,604.065 17.403,605.391C18.026,606.933 17.823,609.307 17.519,610.796L17.398,611.325C16.989,612.935 15.221,618.648 15.221,618.648L15.085,619.494C14.93,620.552 14.722,622.27 14.677,624L12.621,624C12.703,622.578 13.323,618.901 13.323,618.901C13.323,618.901 13.686,614.374 13.441,613.267L13.059,611.67L12.928,610.918L12.9,610.291L12.945,609.97L13.134,609.427L13.425,608.825L13.705,608.335ZM20.63,615.411C20.216,615.272 18.933,614.84 17.558,614.367C17.903,613.224 18.219,612.151 18.367,611.572C19.515,612.457 21.488,613.702 22.038,614.045L26,616.11L26,618.529C26,618.529 22.751,616.482 21.717,615.94L20.63,615.411ZM12.165,612.242C10.954,611.563 9.615,610.596 8.948,609.524C7.981,607.976 7.602,605.181 7.602,605.181L8.485,604.981C8.485,604.981 9.102,606.317 9.533,607.008C9.987,607.735 10.647,608.376 11.02,608.407C11.391,608.44 11.715,608.326 12.329,608.25C12.41,608.24 12.509,608.234 12.62,608.231C12.33,608.758 12.077,609.309 11.974,609.732C11.868,610.16 11.878,610.714 11.975,611.318C12.023,611.615 12.091,611.928 12.165,612.242ZM15.996,609.011C15.863,609.011 15.727,609.039 15.598,609.098C15.112,609.319 14.896,609.894 15.118,610.381C15.28,610.739 15.634,610.949 16.002,610.948L16.008,610.948C16.14,610.947 16.273,610.919 16.4,610.861C16.887,610.64 17.103,610.066 16.881,609.578C16.72,609.222 16.369,609.012 16.002,609.011L15.996,609.011Z" style="fill:white;fill-rule:nonzero;"/>
    </g>
</svg>

