<?xml version="1.0" encoding="UTF-8" standalone="no"?>
<!DOCTYPE svg PUBLIC "-//W3C//DTD SVG 1.1//EN" "http://www.w3.org/Graphics/SVG/1.1/DTD/svg11.dtd">
<svg width="22px" height="22px" version="1.1" xmlns="http://www.w3.org/2000/svg" xmlns:xlink="http://www.w3.org/1999/xlink" xml:space="preserve" xmlns:serif="http://www.serif.com/" style="fill-rule:evenodd;clip-rule:evenodd;stroke-linejoin:round;stroke-miterlimit:2;">
    <rect x="0" y="0" width="22" height="22" style="fill-opacity:0;"/>
    <path d="M6.305,12.885C7.66,12.9 8.678,13.896 9.076,15.086C9.346,15.891 9.337,16.812 9.208,17.507C9.138,17.884 9.054,18.225 8.791,18.645C8.53,19.064 8.228,19.312 7.848,19.551C7.394,19.837 6.745,19.989 5.641,19.991C5.11,19.992 1.992,19.992 1.992,19.992C1.992,19.992 2.719,19.226 2.864,19.05C3.811,17.899 3.522,17.74 3.543,16.171C3.553,15.481 3.615,14.882 3.821,14.373C4.392,12.962 5.743,12.879 6.305,12.885ZM7.508,11.754L7.463,11.709C7.463,11.709 13.811,5.738 15.78,4.084C16.53,3.454 17.897,2.604 18.681,2.131C19.03,1.919 19.47,1.968 19.752,2.25L19.751,2.25C20.032,2.531 20.08,2.972 19.87,3.319C19.397,4.105 18.548,5.472 17.917,6.221C16.263,8.19 10.292,14.538 10.292,14.538L10.247,14.493C10.073,13.856 9.737,13.257 9.24,12.761C8.744,12.265 8.145,11.928 7.508,11.754Z" style="fill:white;"/>
</svg>

