<?xml version="1.0" encoding="UTF-8" standalone="no"?>
<!DOCTYPE svg PUBLIC "-//W3C//DTD SVG 1.1//EN" "http://www.w3.org/Graphics/SVG/1.1/DTD/svg11.dtd">
<svg width="22px" height="22px" version="1.1" xmlns="http://www.w3.org/2000/svg" xmlns:xlink="http://www.w3.org/1999/xlink" xml:space="preserve" xmlns:serif="http://www.serif.com/" style="fill-rule:evenodd;clip-rule:evenodd;stroke-linecap:round;stroke-linejoin:round;stroke-miterlimit:1.5;">
    <rect x="0" y="0" width="22" height="22" style="fill-opacity:0;"/>
    <g transform="matrix(1.03226,1.11022e-16,1.11022e-16,-1.20962,-218.314,53.9818)">
        <path d="M213.914,34.103L219.726,29.143L226.272,34.729L227.268,35.567L215.616,35.556L213.914,34.103Z" style="fill:white;"/>
    </g>
    <g transform="matrix(-0.508878,-0.508878,-0.553256,0.553256,135.18,105.359)">
        <path d="M222,21.823L209.5,21.823L209.5,35.096C209.5,35.435 209.646,35.76 209.907,36C210.168,36.239 210.521,36.374 210.89,36.374L220.61,36.374C220.979,36.374 221.332,36.239 221.593,36C221.854,35.76 222,35.435 222,35.096L222,21.823Z" style="fill:none;stroke:white;stroke-width:1.33px;"/>
    </g>
    <g transform="matrix(-1,0,0,0.9375,226,-17.6661)">
        <path d="M209.155,30C207.578,31.867 206,34.107 206,35.867C206,37.044 206.896,38 208,38C209.104,38 210,37.044 210,35.867C210,34.107 208.178,32.933 209.155,30Z" style="fill:white;"/>
    </g>
    <g transform="matrix(0.707107,-0.707107,0.542488,0.542488,-86.7715,-48.308)">
        <path d="M28,131.978C28,131.438 27.664,131 27.25,131C26.836,131 26.5,131.438 26.5,131.978L26.5,141.022C26.5,141.562 26.836,142 27.25,142C27.664,142 28,141.562 28,141.022L28,131.978Z" style="fill:white;"/>
    </g>
</svg>

