<?xml version="1.0" encoding="UTF-8" standalone="no"?>
<!DOCTYPE svg PUBLIC "-//W3C//DTD SVG 1.1//EN" "http://www.w3.org/Graphics/SVG/1.1/DTD/svg11.dtd">
<svg width="22px" height="22px" version="1.1" xmlns="http://www.w3.org/2000/svg" xmlns:xlink="http://www.w3.org/1999/xlink" xml:space="preserve" xmlns:serif="http://www.serif.com/" style="fill-rule:evenodd;clip-rule:evenodd;stroke-linejoin:round;stroke-miterlimit:2;">
    <rect x="0" y="0" width="22" height="22" style="fill-opacity:0;"/>
    <g transform="matrix(0.707107,0.707107,-0.707107,0.707107,-87.6838,-128.612)">
        <path d="M166,35.754C166.552,35.754 167,35.307 167,34.754L167,26.2C167,25.438 167.076,24.743 167.494,24.324C167.718,24.099 168.052,24 168.5,24C168.948,24 169.282,24.099 169.506,24.324C169.924,24.743 170,25.438 170,26.2L170,34.754C170,35.307 170.448,35.754 171,35.754L174,35.754C174.552,35.754 175,35.307 175,34.754L175,25.943C175,22.09 172.714,19 168.5,19C164.286,19 162,22.09 162,25.943L162,34.754C162,35.307 162.448,35.754 163,35.754L166,35.754ZM166,34.754L163,34.754L163,25.943C163,22.663 164.913,20 168.5,20C172.087,20 174,22.663 174,25.943L174,34.754L171,34.754L171,26.2C171,24.434 170.432,23 168.5,23C166.568,23 166,24.434 166,26.2L166,34.754Z" style="fill:white;"/>
    </g>
    <g transform="matrix(0.707107,0.707107,-0.560297,0.560297,-91.381,-123.5)">
        <rect x="162" y="30" width="3" height="6" style="fill:white;"/>
    </g>
    <g transform="matrix(0.707107,0.707107,-0.560297,0.560297,-91.381,-123.5)">
        <path d="M166,30C166,29.303 165.552,28.738 165,28.738L162,28.738C161.448,28.738 161,29.303 161,30L161,36C161,36.697 161.448,37.262 162,37.262L165,37.262C165.552,37.262 166,36.697 166,36L166,30ZM165,30L162,30L162,36L165,36L165,30Z" style="fill:white;"/>
    </g>
    <g transform="matrix(0.707107,0.707107,-0.560297,0.560297,-85.7241,-117.843)">
        <rect x="162" y="30" width="3" height="6" style="fill:white;"/>
    </g>
    <g transform="matrix(0.707107,0.707107,-0.560297,0.560297,-85.7241,-117.843)">
        <path d="M166,30C166,29.303 165.552,28.738 165,28.738L162,28.738C161.448,28.738 161,29.303 161,30L161,36C161,36.697 161.448,37.262 162,37.262L165,37.262C165.552,37.262 166,36.697 166,36L166,30ZM165,30L162,30L162,36L165,36L165,30Z" style="fill:white;"/>
    </g>
</svg>

