<?xml version="1.0" encoding="UTF-8" standalone="no"?>
<!DOCTYPE svg PUBLIC "-//W3C//DTD SVG 1.1//EN" "http://www.w3.org/Graphics/SVG/1.1/DTD/svg11.dtd">
<svg width="22px" height="22px" version="1.1" xmlns="http://www.w3.org/2000/svg" xmlns:xlink="http://www.w3.org/1999/xlink" xml:space="preserve" xmlns:serif="http://www.serif.com/" style="fill-rule:evenodd;clip-rule:evenodd;stroke-linejoin:round;stroke-miterlimit:2;">
    <rect x="0" y="0" width="22" height="22" style="fill-opacity:0;"/>
    <path d="M15.641,4.944L13.52,2.822C13.129,2.432 13.13,1.798 13.52,1.408C13.91,1.018 14.544,1.018 14.934,1.408C16.289,2.763 19.236,5.711 20.591,7.065C20.981,7.456 20.981,8.089 20.591,8.479C20.201,8.87 19.567,8.87 19.177,8.479L17.056,6.358L14.935,8.479L17.056,10.601L15.642,12.015L14.935,11.307L7.863,18.379L8.57,19.086L7.156,20.5L1.499,14.843L2.913,13.429L3.621,14.136L10.692,7.065L9.985,6.358L11.399,4.944L13.52,7.065L15.641,4.944Z" style="fill:white;"/>
</svg>

