<?xml version="1.0" encoding="UTF-8" standalone="no"?>
<!DOCTYPE svg PUBLIC "-//W3C//DTD SVG 1.1//EN" "http://www.w3.org/Graphics/SVG/1.1/DTD/svg11.dtd">
<svg width="22px" height="22px" version="1.1" xmlns="http://www.w3.org/2000/svg" xmlns:xlink="http://www.w3.org/1999/xlink" xml:space="preserve" xmlns:serif="http://www.serif.com/" style="fill-rule:evenodd;clip-rule:evenodd;stroke-linecap:round;stroke-linejoin:round;stroke-miterlimit:1.5;">
    <g transform="matrix(1,0,0,1,-27,-464)">
        <g id="Tools">
            <g id="Brush">
            </g>
            <g id="Eraser">
            </g>
            <g id="PaintBrush">
            </g>
            <g transform="matrix(-1,0,0,1,226.257,102.495)">
                <g id="Fill">
                </g>
            </g>
            <g id="Tape">
            </g>
            <g id="Geometry">
            </g>
            <g id="Zoom">
            </g>
            <g id="Eyedropper">
            </g>
            <g id="Eyedropper1" serif:id="Eyedropper">
            </g>
            <g id="Magnet">
            </g>
            <g id="Iron">
            </g>
            <g id="Cutter">
            </g>
            <g id="Tracker2">
            </g>
            <g id="Tracker1" transform="matrix(0.707107,0.707107,-0.707107,0.707107,-108.271,255.092)">
                <path d="M259,44C254.585,44 251,47.585 251,52C251,56.415 254.585,60 259,60C263.415,60 267,56.415 267,52C267,51.31 266.912,50.639 266.748,50C266.647,49.611 266.518,49.233 266.363,48.869C266.254,48.615 266.361,48.321 266.608,48.197C266.608,48.196 266.608,48.196 266.608,48.196C266.726,48.137 266.864,48.129 266.988,48.173C267.112,48.218 267.213,48.312 267.266,48.433C267.434,48.825 267.576,49.231 267.689,49.648C267.892,50.398 268,51.187 268,52C268,56.967 263.967,61 259,61C254.033,61 250,56.967 250,52C250,47.033 254.033,43 259,43L259,44Z" style="fill:white;"/>
                <path d="M259,46L259,47C256.24,47 254,49.24 254,52C254,54.76 256.24,57 259,57C261.76,57 264,54.76 264,52C264,51.366 263.882,50.759 263.666,50.201C263.566,49.951 263.674,49.667 263.915,49.546C263.915,49.542 263.917,49.542 263.919,49.541C264.039,49.48 264.179,49.473 264.305,49.52C264.431,49.567 264.531,49.664 264.582,49.788C264.851,50.474 265,51.22 265,52C265,55.311 262.311,58 259,58C255.689,58 253,55.311 253,52C253,48.689 255.689,46 259,46Z" style="fill:white;"/>
                <path d="M259,49L259,50C257.896,50 257,50.896 257,52C257,53.104 257.896,54 259,54C260.104,54 261,53.104 261,52C261,51.834 260.98,51.672 260.941,51.518C260.879,51.268 260.998,51.008 261.229,50.893C261.226,50.887 261.226,50.887 261.226,50.887C261.351,50.824 261.498,50.82 261.627,50.876C261.755,50.932 261.852,51.043 261.892,51.177C261.96,51.44 262,51.715 262,52C262,53.656 260.656,55 259,55C257.344,55 256,53.656 256,52C256,50.344 257.344,49 259,49Z" style="fill:white;"/>
                <g transform="matrix(0.0555556,0,0,0.0555556,244.611,49.1111)">
                    <circle cx="259" cy="52" r="9" style="fill:none;stroke:white;stroke-width:18px;"/>
                </g>
                <g transform="matrix(2,0,-5.55112e-17,0.947368,-260,2.26316)">
                    <path d="M260,43L259,43L259.25,52.5L259.75,52.5L260,43Z" style="fill:white;"/>
                </g>
            </g>
            <g id="Rotate">
            </g>
        </g>
    </g>
</svg>

