<?xml version="1.0" encoding="UTF-8" standalone="no"?>
<!DOCTYPE svg PUBLIC "-//W3C//DTD SVG 1.1//EN" "http://www.w3.org/Graphics/SVG/1.1/DTD/svg11.dtd">
<svg width="20px" height="20px" version="1.1" xmlns="http://www.w3.org/2000/svg" xmlns:xlink="http://www.w3.org/1999/xlink" xml:space="preserve" xmlns:serif="http://www.serif.com/" style="fill-rule:evenodd;clip-rule:evenodd;stroke-linejoin:round;stroke-miterlimit:2;">
    <rect x="0" y="0" width="20" height="20" style="fill-opacity:0;"/>
    <g>
        <path d="M11.51,4.218C13.8,4.911 15.7,6.308 16.625,7.789L15.19,8.686C14.571,7.695 13.416,6.762 11.989,6.153C11.938,5.55 11.826,4.973 11.629,4.487C11.593,4.398 11.553,4.308 11.51,4.218ZM0.962,6.444C1.332,6.254 1.693,6.069 1.942,5.942C2.056,6.44 2.215,7.032 2.424,7.596C2.064,7.781 1.499,8.071 0.962,8.347L0.962,6.444ZM3.603,5.096C3.779,5.452 4.001,5.88 4.183,6.172C4.268,6.307 4.36,6.439 4.456,6.561C4.086,6.749 3.657,6.968 3.178,7.211C2.969,6.634 2.817,6.027 2.715,5.547C3.038,5.383 3.335,5.232 3.603,5.096ZM4.359,4.717C5.498,4.156 6.672,3.866 7.828,3.786C7.912,3.959 7.99,4.127 8.049,4.272C8.183,4.605 8.256,5.168 8.272,5.307C8.235,5.358 8.192,5.403 8.146,5.45C7.185,5.499 6.206,5.721 5.255,6.164C5.124,6.025 4.99,5.866 4.901,5.723C4.731,5.451 4.524,5.051 4.359,4.717ZM8.753,3.767C9.309,3.782 9.856,3.843 10.389,3.943C10.571,4.229 10.73,4.52 10.844,4.803C10.969,5.112 11.055,5.461 11.109,5.83C10.476,5.635 9.804,5.504 9.113,5.458C9.163,5.101 9.051,4.494 8.832,3.951C8.809,3.893 8.782,3.831 8.753,3.767Z" style="fill:black;fill-opacity:0.5;fill-rule:nonzero;"/>
    </g>
    <g>
        <path d="M7.097,18C7.244,17.01 7.39,16.145 7.39,16.145C7.39,16.145 7.694,12.356 7.489,11.43L7.169,10.093L7.06,9.464L7.036,8.939L7.074,8.67L7.232,8.216L7.475,7.712L7.71,7.302C7.917,6.961 8.131,6.662 8.281,6.499C8.633,6.122 8.869,5.959 9.03,5.692C9.19,5.425 9.083,4.661 8.815,3.995C8.558,3.365 7.955,2.292 7.955,2.292L8.288,2L8.737,2.002C8.737,2.002 10.356,3.728 10.805,4.838C11.326,6.129 11.156,8.116 10.902,9.362L10.801,9.804C10.458,11.152 8.979,15.933 8.979,15.933L8.865,16.641C8.811,17.011 8.749,17.477 8.692,18L7.097,18ZM13.506,13.224C13.159,13.108 12.085,12.746 10.935,12.35C11.223,11.394 11.488,10.496 11.612,10.011C12.572,10.752 14.224,11.794 14.684,12.081L18,13.809L18,15.834C18,15.834 15.281,14.121 14.415,13.667L13.506,13.224ZM6.421,10.572C5.407,10.004 4.287,9.194 3.729,8.297C2.919,7.002 2.602,4.662 2.602,4.662L3.341,4.495C3.341,4.495 3.857,5.613 4.218,6.191C4.598,6.8 5.15,7.336 5.463,7.362C5.773,7.39 6.044,7.294 6.558,7.231C6.626,7.222 6.709,7.217 6.802,7.215C6.559,7.656 6.347,8.117 6.261,8.471C6.172,8.829 6.181,9.293 6.262,9.799C6.302,10.047 6.359,10.309 6.421,10.572ZM9.627,7.868C9.516,7.868 9.402,7.891 9.294,7.941C8.887,8.126 8.707,8.607 8.892,9.014C9.028,9.314 9.324,9.49 9.632,9.489L9.637,9.489C9.748,9.488 9.859,9.465 9.965,9.416C10.373,9.231 10.554,8.751 10.368,8.342C10.233,8.044 9.939,7.869 9.632,7.868L9.627,7.868Z" style="fill:black;fill-rule:nonzero;"/>
    </g>
</svg>
