<?xml version="1.0" encoding="UTF-8" standalone="no"?>
<!DOCTYPE svg PUBLIC "-//W3C//DTD SVG 1.1//EN" "http://www.w3.org/Graphics/SVG/1.1/DTD/svg11.dtd">
<svg width="20px" height="20px" version="1.1" xmlns="http://www.w3.org/2000/svg" xmlns:xlink="http://www.w3.org/1999/xlink" xml:space="preserve" xmlns:serif="http://www.serif.com/" style="fill-rule:evenodd;clip-rule:evenodd;stroke-linejoin:round;stroke-miterlimit:2;">
    <rect x="0" y="0" width="20" height="20" style="fill-opacity:0;"/>
    <g transform="matrix(0.772909,-0.171676,0.171676,0.772909,-1.5347,3.88177)">
        <path d="M6.788,3.48C8.22,2.677 8.34,2.36 11.5,1.813C16.188,1 22.375,1.95 22.375,3.149C22.375,3.546 19.284,2.118 19.125,2.875C19,3.471 22,3.679 21.875,4.54C21.827,4.868 19.687,3.897 19.625,4.625C19.597,4.955 21.5,5.334 21.375,6.063C21.27,6.677 19.228,4.157 12.312,5.125C9.188,5.563 8.993,5.613 7.85,5.93C7.509,6.025 6.788,3.48 6.788,3.48Z" style="fill:black;fill-opacity:0.5;fill-rule:nonzero;"/>
    </g>
    <g transform="matrix(0.942591,-0.252566,0.252566,0.942591,-98.4387,-198.563)">
        <path d="M58.663,242.973C58.318,242.564 57.705,241.821 57.294,241.218C57.099,240.933 56.949,240.675 56.88,240.491C56.832,240.363 56.819,240.255 56.827,240.176C56.848,239.957 56.951,239.693 57.066,239.383C57.208,238.999 57.368,238.527 57.314,237.958C57.109,235.794 55.593,233.961 55.325,233.693C54.949,233.317 54.755,232.998 54.128,233.04C54.059,233.045 54.015,233.085 53.972,233.127C53.912,233.187 53.856,233.256 53.794,233.323C53.579,233.554 53.308,233.771 52.75,233.733C52.513,233.717 52.288,233.599 52.059,233.474C51.855,233.363 51.643,233.23 51.366,233.358C51.02,233.518 50.872,233.765 50.718,233.911C50.526,234.095 50.329,234.188 50.031,234.122C49.874,234.087 49.558,233.879 49.2,233.564C48.47,232.922 47.485,231.856 47.265,231.513C47,231.101 46.754,230.244 46.354,229.679C46.162,229.408 45.937,229.202 45.611,229.273C45.395,229.32 45.261,229.509 45.214,229.799C45.148,230.202 45.242,230.764 45.534,231.478C45.977,232.561 49.524,238.665 49.524,238.665C49.609,238.81 49.56,238.997 49.415,239.084C49.271,239.171 49.083,239.125 48.995,238.981C48.995,238.981 47.529,236.596 47.2,235.939C47.178,235.895 47.13,235.867 47.073,235.855C46.916,235.822 46.723,235.91 46.527,236.146C46.474,236.209 46.469,236.297 46.477,236.404C46.49,236.584 46.55,236.8 46.639,237.057C46.941,237.922 47.571,239.194 48.165,240.947C48.428,241.722 49.195,242.023 49.992,242.195C50.91,242.393 51.885,242.414 52.42,242.583C52.747,242.687 53.095,242.985 53.408,243.369C53.858,243.921 54.249,244.644 54.448,245.037L58.663,242.973Z" style="fill:black;fill-rule:nonzero;"/>
    </g>
</svg>
