<?xml version="1.0" encoding="UTF-8" standalone="no"?>
<!DOCTYPE svg PUBLIC "-//W3C//DTD SVG 1.1//EN" "http://www.w3.org/Graphics/SVG/1.1/DTD/svg11.dtd">
<svg width="20px" height="20px" version="1.1" xmlns="http://www.w3.org/2000/svg" xmlns:xlink="http://www.w3.org/1999/xlink" xml:space="preserve" xmlns:serif="http://www.serif.com/" style="fill-rule:evenodd;clip-rule:evenodd;stroke-linejoin:round;stroke-miterlimit:2;">
    <rect x="0" y="0" width="20" height="20" style="fill-opacity:0;"/>
    <g transform="matrix(1,0,0,1,-1,-1)">
        <path d="M18,11L11.998,11C8.685,11 2,13.685 2,16.998L2,17L20,17L18,11ZM15,13C15.552,13 16,13.448 16,14C16,14.552 15.552,15 15,15C14.448,15 14,14.552 14,14C14,13.448 14.448,13 15,13ZM16.6,10L15.4,7L13,7C13,7.552 12.552,8 12,8L7,8C6.735,8 6.48,7.895 6.293,7.707C6.105,7.52 6,7.265 6,7C6,6.448 6.448,6 7,6L15.324,6C15.732,6 16.099,6.248 16.251,6.627L17.6,10L16.6,10Z" style="fill:black;"/>
    </g>
</svg>
