<?xml version="1.0" encoding="UTF-8" standalone="no"?>
<!DOCTYPE svg PUBLIC "-//W3C//DTD SVG 1.1//EN" "http://www.w3.org/Graphics/SVG/1.1/DTD/svg11.dtd">
<svg width="100%" height="100%" viewBox="0 0 20 20" version="1.1" xmlns="http://www.w3.org/2000/svg" xmlns:xlink="http://www.w3.org/1999/xlink" xml:space="preserve" xmlns:serif="http://www.serif.com/" style="fill-rule:evenodd;clip-rule:evenodd;stroke-linejoin:round;stroke-miterlimit:2;">
    <rect x="0" y="0" width="20" height="20" style="fill-opacity:0;"/>
    <path d="M13.5,4.5L1.5,1.5L1.5,18L13.5,10.5L13.5,4.5Z" style="fill-opacity:0.2;"/>
    <path d="M1,2.257L1,18C1,18.552 1.448,19 2,19C5.476,19 16.961,19 19.5,19C19.776,19 20,18.776 20,18.5C20,18.367 19.947,18.24 19.854,18.146C19.76,18.053 19.633,18 19.5,18C16.654,18 2.625,18 2.625,18L5.875,16L18.5,16C18.633,16 18.76,15.947 18.854,15.854C18.947,15.76 19,15.633 19,15.5C19,15.367 18.947,15.24 18.854,15.146C18.76,15.053 18.633,15 18.5,15C16.289,15 7.5,15 7.5,15L10.75,13L17.5,13C17.776,13 18,12.776 18,12.5C18,12.224 17.776,12 17.5,12C16.123,12 12.375,12 12.375,12L14,11L16.5,11C16.633,11 16.76,10.947 16.854,10.854C16.947,10.76 17,10.633 17,10.5C17,10.367 16.947,10.24 16.854,10.146C16.76,10.053 16.633,10 16.5,10C15.647,10 14,10 14,10L14,4.796C14,4.33 13.679,3.926 13.225,3.821C11.049,3.319 4.869,1.893 2.225,1.283C1.928,1.214 1.616,1.285 1.377,1.474C1.139,1.664 1,1.952 1,2.257ZM6,14.749L6,9.257L2,9.924L2,17.21L6,14.749ZM7,9.09L7,14.134L10,12.287L10,8.59L7,9.09ZM13,8.09L11,8.424L11,11.672L13,10.441L13,8.09ZM2,8.91L6,8.243L6,3.18L2,2.257L2,8.91ZM7,8.076L10,7.576L10,4.103L7,3.411L7,8.076ZM11,4.334L11,7.41L13,7.076L13,4.796L11,4.334Z"/>
</svg>
