<?xml version="1.0" encoding="UTF-8" standalone="no"?>
<!DOCTYPE svg PUBLIC "-//W3C//DTD SVG 1.1//EN" "http://www.w3.org/Graphics/SVG/1.1/DTD/svg11.dtd">
<svg width="20px" height="20px" version="1.1" xmlns="http://www.w3.org/2000/svg" xmlns:xlink="http://www.w3.org/1999/xlink" xml:space="preserve" xmlns:serif="http://www.serif.com/" style="fill-rule:evenodd;clip-rule:evenodd;stroke-linejoin:round;stroke-miterlimit:2;">
    <rect x="0" y="0" width="20" height="20" style="fill-opacity:0;"/>
    <g transform="matrix(0.779056,0,0,0.779056,1.0181,-1.2555)">
        <path d="M7.303,17.645C5.147,15.559 3.098,15.706 1.291,15.835C0.849,15.867 0.422,15.893 0,15.892L0,17.891C0.504,17.894 0.982,17.862 1.434,17.83C3.09,17.711 4.399,17.617 5.913,19.082C6.684,19.828 6.765,20.41 6.909,21.467C7.063,22.595 7.265,24.01 8.362,26L10.695,26C9.252,23.793 9.051,22.379 8.889,21.195C8.726,20 8.571,18.871 7.303,17.645Z" style="fill:black;fill-opacity:0.5;fill-rule:nonzero;"/>
    </g>
    <g transform="matrix(1,0,0,1,-18.9819,-226)">
        <path d="M38,235.794C37.025,236.433 34.204,237.054 33.004,237.447C32.377,237.652 31.344,237.95 30.704,238.12C28.805,238.627 27.106,239.15 25.43,239.059C24.988,239.036 24.597,238.722 24.399,238.352C24.283,238.137 24.228,237.898 24.307,237.689C24.395,237.454 24.646,237.289 25.069,237.203C25.979,237.018 27.486,237.064 28.626,236.708C29.534,236.424 30.223,235.9 30.399,234.956C30.526,234.274 30.38,233.766 30.092,233.399C29.808,233.037 29.369,232.806 28.853,232.707C27.936,232.532 26.765,232.78 25.968,233.291C25.485,233.601 24.498,234.11 24.092,235.015C23.944,235.344 23.723,235.74 23.623,236.088C23.507,236.493 23.503,236.635 23.076,237.14C22.888,237.361 22.614,237.383 22.452,237.335C22.268,237.281 22.217,237.165 22.13,236.947C22.008,236.642 22.039,236.278 22.039,235.912C22.039,234.813 22.283,234.628 22.857,233.669C23.332,232.876 23.941,232.374 24.681,231.793C25.474,231.171 26.96,230.684 28,230.57C28.231,230.544 28.507,230.116 28.482,229.885C28.457,229.654 28.249,229.488 28.018,229.513C26.834,229.643 25.194,230.163 24.291,230.873C23.963,231.13 23.634,231.407 23.29,231.703C23.515,231.129 24.102,230.517 24.651,230.105C25.699,229.319 27.045,228.798 27.741,228.798C27.973,228.798 28.162,228.61 28.162,228.378C28.162,228.146 27.973,227.958 27.741,227.958C26.934,227.958 25.346,228.305 24.132,229.216C23.829,229.444 23.492,229.868 23.25,230.14C23.361,229.863 23.41,229.459 23.502,229.285C23.698,228.914 24.09,228.499 24.617,228.169C25.484,227.627 26.463,227.316 27.021,227.13C27.98,226.811 30.023,227.063 32.229,228.071C33.25,228.538 34.696,229.125 35.708,229.607C35.708,229.607 36.054,229.744 36.115,229.744C36.177,229.743 37.105,229.918 38,230L38,235.794Z" style="fill:black;fill-rule:nonzero;"/>
    </g>
</svg>
