<?xml version="1.0" encoding="UTF-8" standalone="no"?>
<!DOCTYPE svg PUBLIC "-//W3C//DTD SVG 1.1//EN" "http://www.w3.org/Graphics/SVG/1.1/DTD/svg11.dtd">
<svg width="20px" height="20px" version="1.1" xmlns="http://www.w3.org/2000/svg" xmlns:xlink="http://www.w3.org/1999/xlink" xml:space="preserve" xmlns:serif="http://www.serif.com/" style="fill-rule:evenodd;clip-rule:evenodd;stroke-linecap:round;stroke-linejoin:round;">
    <rect x="0" y="0" width="20" height="20" style="fill-opacity:0;"/>
    <g transform="matrix(0.785616,0,0,0.785616,0.4958,-1.0338)">
        <path d="M7.435,15.585C5.859,15.812 3.913,16.178 2.24,17.395C1.64,17.832 1.358,18.346 1.292,18.854C1.148,19.968 2.148,21.1 3.542,21.643C5.697,22.484 6.928,22.728 8.604,22.934C9.838,23.085 11.35,23.124 12.117,23.071C12.392,23.051 12.6,22.812 12.581,22.537C12.561,22.262 12.323,22.084 12.047,22.073C9.812,21.989 7.524,21.886 4.108,20.695C3.523,20.491 2.936,20.239 2.68,19.8C2.539,19.556 2.387,19.22 2.404,18.983C2.425,18.703 2.501,18.442 2.828,18.203C4.355,17.092 6.139,16.782 7.577,16.575C7.85,16.536 8.04,16.282 8.001,16.009C7.962,15.736 7.708,15.546 7.435,15.585Z" style="fill:black;"/>
    </g>
    <g transform="matrix(1,0,0,1,-41.5,-64.935)">
        <path d="M48.812,69.547L48.289,69.662C47.994,69.617 47.712,68.687 47.671,68.034C47.599,66.901 49.983,66.256 50.877,66.073C51.493,65.948 52.776,65.967 53.018,66.256C53.316,66.613 53.673,67.556 53.471,68.078C53.423,68.202 53.029,68.308 53.029,68.308C53.258,68.846 53.477,69.301 53.88,69.747C54.115,70.006 54.378,70.253 54.637,70.487C55.147,70.951 55.579,71.592 55.821,72.242C56.088,72.962 56.378,73.691 56.599,74.426C56.795,75.078 57.074,75.416 57.614,75.82C58.049,76.145 58.488,76.327 58.99,76.526C59.128,76.581 59.269,76.621 59.405,76.666C59.552,76.715 59.694,76.766 59.81,76.885C59.956,77.034 60.062,77.226 59.959,77.421C59.904,77.523 59.809,77.553 59.713,77.58C59.608,77.611 59.483,77.605 59.372,77.597C59.244,77.587 59.1,77.557 58.944,77.524C58.749,77.483 58.546,77.459 58.372,77.4C57.35,77.057 56.439,76.43 55.967,75.438C55.764,75.013 55.559,74.601 55.462,74.136C55.416,73.917 55.311,73.604 55.34,73.382C55.363,73.201 55.236,73.035 55.054,73.011C54.873,72.987 54.707,73.115 54.683,73.297C54.646,73.582 54.755,73.99 54.814,74.271C54.922,74.788 55.143,75.249 55.369,75.723C55.919,76.88 56.969,77.628 58.161,78.028C58.358,78.094 58.586,78.125 58.807,78.172C58.962,78.204 59.116,78.242 59.234,78.338C59.411,78.482 59.469,78.782 59.413,78.997C59.352,79.232 59.161,79.42 58.907,79.538C58.671,79.648 57.884,79.45 57.686,79.308C57.673,79.299 56.984,78.906 56.435,78.568C55.893,78.235 55.39,77.851 55.016,77.285C54.518,76.53 54.229,75.627 54.078,74.743C54.047,74.567 53.884,74.446 53.707,74.47C53.536,74.493 53.413,74.643 53.42,74.813C53.409,74.885 53.422,74.956 53.454,75.017C53.628,75.938 53.946,76.865 54.464,77.65C55.293,78.906 56.671,79.383 57.872,80.166C58.153,80.349 58.221,80.686 58.145,80.974C58.071,81.254 57.854,81.5 57.525,81.5C56.511,81.499 55.433,80.814 54.611,80.287C54.221,80.037 53.802,79.701 53.538,79.317C53.21,78.839 52.92,78.517 52.739,77.972C52.532,77.351 52.087,76.817 51.661,76.335C51.576,76.239 51.459,76.116 51.327,76.035C51.195,75.954 51.05,75.913 50.903,75.928C50.677,75.952 50.528,76.077 50.43,76.262C50.354,76.407 50.315,76.575 50.271,76.713C50.197,76.947 50.097,77.183 49.982,77.406C49.774,77.813 49.531,78.162 49.277,78.537C49.096,78.807 48.918,79.142 48.712,79.45C48.536,79.712 48.342,79.957 48.089,80.095C47.826,80.239 47.447,80.211 47.18,80.091C47.074,80.044 47.017,79.954 46.98,79.855C46.923,79.705 46.907,79.533 46.898,79.375C46.884,79.128 46.979,78.915 47.09,78.706C47.237,78.43 47.413,78.162 47.522,77.871C47.752,77.26 47.918,76.62 48.092,75.992C48.307,75.219 48.554,74.457 48.761,73.682C48.956,72.954 48.996,72.245 49.056,71.5C49.115,70.788 48.988,70.174 48.812,69.547Z" style="fill:black;fill-rule:nonzero;"/>
    </g>
    <g transform="matrix(0.785616,0,0,0.785616,0.2748,-1.2)">
        <path d="M12.972,22.774L12.129,19.974L15.28,22.849L11.85,25.076L12.972,22.774Z" style="fill:black;fill-rule:nonzero;stroke:black;stroke-width:1px;"/>
    </g>
</svg>
