<?xml version="1.0" encoding="UTF-8" standalone="no"?>
<!DOCTYPE svg PUBLIC "-//W3C//DTD SVG 1.1//EN" "http://www.w3.org/Graphics/SVG/1.1/DTD/svg11.dtd">
<svg width="20px" height="20px" version="1.1" xmlns="http://www.w3.org/2000/svg" xmlns:xlink="http://www.w3.org/1999/xlink" xml:space="preserve" xmlns:serif="http://www.serif.com/" style="fill-rule:evenodd;clip-rule:evenodd;stroke-linecap:round;stroke-linejoin:round;stroke-miterlimit:1.5;">
    <rect x="0" y="0" width="20" height="20" style="fill-opacity:0;"/>
    <g transform="matrix(1.07692,0,0,1.07692,-269.462,-71.3077)">
        <circle cx="259.5" cy="75.5" r="6.5" style="fill:none;stroke:black;stroke-width:0.93px;"/>
    </g>
    <g transform="matrix(0.8,0,0,1,-197.7,-64.5)">
        <path d="M254,74.5C254,73.948 253.44,73.5 252.75,73.5L250.25,73.5C249.56,73.5 249,73.948 249,74.5C249,75.052 249.56,75.5 250.25,75.5L252.75,75.5C253.44,75.5 254,75.052 254,74.5Z" style="fill:black;"/>
    </g>
    <g transform="matrix(-1.46958e-16,0.8,-1,-1.83697e-16,84.5,-197.7)">
        <path d="M254,74.551C254,74.299 253.875,74.058 253.653,73.88C253.43,73.702 253.128,73.602 252.814,73.602L250.186,73.602C249.872,73.602 249.57,73.702 249.347,73.88C249.125,74.058 249,74.299 249,74.551C249,74.803 249.125,75.044 249.347,75.222C249.57,75.4 249.872,75.5 250.186,75.5L252.814,75.5C253.128,75.5 253.43,75.4 253.653,75.222C253.875,75.044 254,74.803 254,74.551Z" style="fill:black;"/>
    </g>
    <g transform="matrix(0.8,0,0,1,-184.7,-64.5)">
        <path d="M254,74.5C254,73.948 253.44,73.5 252.75,73.5L250.25,73.5C249.56,73.5 249,73.948 249,74.5C249,75.052 249.56,75.5 250.25,75.5L252.75,75.5C253.44,75.5 254,75.052 254,74.5Z" style="fill:black;"/>
    </g>
    <g transform="matrix(-1.51535e-16,0.8,-1,-1.7912e-16,84.5,-184.7)">
        <path d="M254,74.551C254,74.299 253.875,74.058 253.653,73.88C253.43,73.702 253.128,73.602 252.814,73.602L250.186,73.602C249.872,73.602 249.57,73.702 249.347,73.88C249.125,74.058 249,74.299 249,74.551C249,74.803 249.125,75.044 249.347,75.222C249.57,75.4 249.872,75.5 250.186,75.5L252.814,75.5C253.128,75.5 253.43,75.4 253.653,75.222C253.875,75.044 254,74.803 254,74.551Z" style="fill:black;"/>
    </g>
    <g transform="matrix(0.461538,0,0,0.461538,-109.769,-24.8462)">
        <circle cx="259.5" cy="75.5" r="6.5" style="fill:none;stroke:black;stroke-width:2.17px;"/>
    </g>
</svg>
