<?xml version="1.0" encoding="UTF-8" standalone="no"?><!DOCTYPE svg PUBLIC "-//W3C//DTD SVG 1.1//EN" "http://www.w3.org/Graphics/SVG/1.1/DTD/svg11.dtd"><svg width="100%" height="100%" viewBox="0 0 16 16" version="1.1" xmlns="http://www.w3.org/2000/svg" xmlns:xlink="http://www.w3.org/1999/xlink" xml:space="preserve" style="fill-rule:evenodd;clip-rule:evenodd;stroke-linejoin:round;stroke-miterlimit:1.41421;"><g id="Layer1"><g><path d="M10,7c0,0 0.004,-0.955 0.001,-1.455c0.005,-0.053 0.004,-0.295 -0.001,-0.362c-0.043,-0.461 -0.203,-0.932 -0.566,-1.256c-0.444,-0.397 -0.847,-0.498 -1.434,-0.498c-0.596,0 -1.011,0.131 -1.454,0.543c-0.315,0.293 -0.475,0.703 -0.531,1.112c-0.022,0.162 -0.014,0.28 -0.015,0.487c-0.003,0.5 0,1.429 0,1.429l-1.5,0c0,0 -0.007,-1.523 -0.008,-1.59c0.001,-0.086 0.004,-0.172 0.009,-0.257c0.027,-0.348 0.095,-0.692 0.217,-1.022c0.089,-0.24 0.206,-0.471 0.352,-0.684c0.212,-0.31 0.484,-0.58 0.801,-0.793c0.274,-0.183 0.577,-0.323 0.895,-0.422c0.394,-0.123 0.562,-0.206 0.975,-0.227c0.116,-0.004 0.231,-0.006 0.346,-0.005c0.399,0.008 0.555,0.049 0.941,0.147c0.645,0.164 1.239,0.491 1.673,0.979c0.15,0.17 0.28,0.356 0.388,0.553c0.143,0.262 0.247,0.542 0.316,0.83c0.085,0.352 0.095,0.696 0.097,1.062c0.008,1.382 -0.002,1.428 -0.002,1.429l0.5,0c0.604,0.056 1,0.505 1,1.05l0,4.9c0,0.545 -0.396,0.994 -1,1.05l-8,0c-0.552,0 -1,-0.47 -1,-1.05l0,-4.9c0,-0.545 0.396,-0.994 1,-1.05l6,0Zm-2,2.5c0.552,0 1,0.448 1,1c0,0.552 -0.448,1 -1,1c-0.552,0 -1,-0.448 -1,-1c0,-0.552 0.448,-1 1,-1Z" style="fill:none;stroke:#000;stroke-opacity:0.501961;stroke-width:2px;"/><path d="M10,7c0,0 0.004,-0.955 0.001,-1.455c0.005,-0.053 0.004,-0.295 -0.001,-0.362c-0.043,-0.461 -0.203,-0.932 -0.566,-1.256c-0.444,-0.397 -0.847,-0.498 -1.434,-0.498c-0.596,0 -1.011,0.131 -1.454,0.543c-0.315,0.293 -0.475,0.703 -0.531,1.112c-0.022,0.162 -0.014,0.28 -0.015,0.487c-0.003,0.5 0,1.429 0,1.429l-1.5,0c0,0 -0.007,-1.523 -0.008,-1.59c0.001,-0.086 0.004,-0.172 0.009,-0.257c0.027,-0.348 0.095,-0.692 0.217,-1.022c0.089,-0.24 0.206,-0.471 0.352,-0.684c0.212,-0.31 0.484,-0.58 0.801,-0.793c0.274,-0.183 0.577,-0.323 0.895,-0.422c0.394,-0.123 0.562,-0.206 0.975,-0.227c0.116,-0.004 0.231,-0.006 0.346,-0.005c0.399,0.008 0.555,0.049 0.941,0.147c0.645,0.164 1.239,0.491 1.673,0.979c0.15,0.17 0.28,0.356 0.388,0.553c0.143,0.262 0.247,0.542 0.316,0.83c0.085,0.352 0.095,0.696 0.097,1.062c0.008,1.382 -0.002,1.428 -0.002,1.429l0.5,0c0.604,0.056 1,0.505 1,1.05l0,4.9c0,0.545 -0.396,0.994 -1,1.05l-8,0c-0.552,0 -1,-0.47 -1,-1.05l0,-4.9c0,-0.545 0.396,-0.994 1,-1.05l6,0Zm-2,2.5c0.552,0 1,0.448 1,1c0,0.552 -0.448,1 -1,1c-0.552,0 -1,-0.448 -1,-1c0,-0.552 0.448,-1 1,-1Z" style="fill:url(#_Linear1);"/></g></g><defs><linearGradient id="_Linear1" x1="0" y1="0" x2="1" y2="0" gradientUnits="userSpaceOnUse" gradientTransform="matrix(-1.83697e-15,10,-12,-2.20436e-15,3,8)"><stop offset="0" style="stop-color:#e0e0e0;stop-opacity:1"/><stop offset="1" style="stop-color:#8f8f8f;stop-opacity:1"/></linearGradient></defs></svg>