<?xml version="1.0" encoding="UTF-8" standalone="no"?><!DOCTYPE svg PUBLIC "-//W3C//DTD SVG 1.1//EN" "http://www.w3.org/Graphics/SVG/1.1/DTD/svg11.dtd"><svg width="100%" height="100%" viewBox="0 0 16 16" version="1.1" xmlns="http://www.w3.org/2000/svg" xmlns:xlink="http://www.w3.org/1999/xlink" xml:space="preserve" style="fill-rule:evenodd;clip-rule:evenodd;stroke-linejoin:round;stroke-miterlimit:1.41421;"><g id="Layer1"><path d="M10,7c0,0 0.004,-0.955 0.001,-1.455c0.005,-0.053 0.004,-0.295 -0.001,-0.362c-0.043,-0.461 -0.203,-0.932 -0.566,-1.256c-0.444,-0.397 -0.847,-0.498 -1.434,-0.498c-0.596,0 -1.011,0.131 -1.454,0.543c-0.315,0.293 -0.475,0.703 -0.531,1.112c-0.022,0.162 -0.014,0.28 -0.015,0.487c-0.003,0.5 0,1.429 0,1.429l-1.5,0c0,0 -0.007,-1.523 -0.008,-1.59c0.001,-0.086 0.004,-0.172 0.009,-0.257c0.027,-0.348 0.095,-0.692 0.217,-1.022c0.089,-0.24 0.206,-0.471 0.352,-0.684c0.212,-0.31 0.484,-0.58 0.801,-0.793c0.274,-0.183 0.577,-0.323 0.895,-0.422c0.394,-0.123 0.562,-0.206 0.975,-0.227c0.116,-0.004 0.231,-0.006 0.346,-0.005c0.399,0.008 0.555,0.049 0.941,0.147c0.645,0.164 1.239,0.491 1.673,0.979c0.15,0.17 0.28,0.356 0.388,0.553c0.143,0.262 0.247,0.542 0.316,0.83c0.085,0.352 0.095,0.696 0.097,1.062c0.008,1.382 -0.002,1.428 -0.002,1.429l0.5,0c0.604,0.056 1,0.505 1,1.05l0,4.9c0,0.545 -0.396,0.994 -1,1.05l-8,0c-0.552,0 -1,-0.47 -1,-1.05l0,-4.9c0,-0.545 0.396,-0.994 1,-1.05l6,0Zm-2,2.5c0.552,0 1,0.448 1,1c0,0.552 -0.448,1 -1,1c-0.552,0 -1,-0.448 -1,-1c0,-0.552 0.448,-1 1,-1Z" style="fill:none;"/><g><path d="M6,5l-1.5,0c0,0 0.008,0.151 -0.002,-0.429c-0.006,-0.366 0.012,-0.71 0.097,-1.062c0.069,-0.288 0.173,-0.568 0.316,-0.83c0.108,-0.197 0.238,-0.383 0.388,-0.553c0.434,-0.488 1.028,-0.815 1.673,-0.979c0.386,-0.098 0.542,-0.139 0.941,-0.147c0.115,-0.001 0.23,0.001 0.346,0.005c0.413,0.021 0.581,0.104 0.975,0.227c0.318,0.099 0.621,0.239 0.895,0.422c0.317,0.213 0.589,0.483 0.801,0.793c0.146,0.213 0.263,0.444 0.352,0.684c0.122,0.33 0.19,0.674 0.217,1.022c0.005,0.085 0.008,0.171 0.009,0.257c-0.001,0.067 -0.008,3.548 -0.008,3.59l0.5,0c0.604,0.056 1,0.505 1,1.05l0,4.9c0,0.545 -0.396,0.994 -1,1.05l-8,0c-0.552,0 -1,-0.47 -1,-1.05l0,-4.9c0,-0.545 0.396,-0.994 1,-1.05l6,0c0,-0.039 0.003,-2.933 0,-3.429c-0.001,-0.207 0.007,-0.325 -0.015,-0.487c-0.056,-0.409 -0.216,-0.819 -0.531,-1.112c-0.443,-0.412 -0.858,-0.543 -1.454,-0.543c-0.587,0 -0.99,0.101 -1.434,0.498c-0.363,0.324 -0.523,0.795 -0.566,1.256c-0.005,0.067 -0.006,0.309 -0.001,0.362c-0.002,0.386 0,0.447 0.001,0.455l0,0c0,0 0,0.003 0,0Zm2,5.5c0.552,0 1,0.448 1,1c0,0.552 -0.448,1 -1,1c-0.552,0 -1,-0.448 -1,-1c0,-0.552 0.448,-1 1,-1Z" style="fill:url(#_Linear1);"/><path d="M8.101,0.001l0.096,0.002l0.108,0.003l0.103,0.007l0.096,0.008l0.092,0.011l0.09,0.012l0.088,0.016l0.084,0.017l0.08,0.018l0.077,0.02l0.072,0.021l0.071,0.021l0.124,0.04l0.122,0.04l0.202,0.064l0.075,0.026l0.075,0.026l0.074,0.028l0.074,0.03l0.073,0.03l0.073,0.032l0.073,0.033l0.072,0.035l0.072,0.036l0.071,0.037l0.07,0.039l0.07,0.04l0.07,0.042l0.068,0.043l0.07,0.046l0.079,0.054l0.077,0.056l0.076,0.058l0.074,0.059l0.072,0.061l0.071,0.062l0.07,0.064l0.068,0.066l0.066,0.067l0.065,0.069l0.063,0.07l0.061,0.072l0.059,0.073l0.058,0.075l0.056,0.075l0.053,0.076l0.037,0.055l0.035,0.054l0.035,0.054l0.033,0.055l0.032,0.056l0.033,0.059l0.058,0.109l0.056,0.114l0.053,0.114l0.049,0.116l0.044,0.115l0.03,0.083l0.027,0.081l0.025,0.08l0.024,0.081l0.023,0.081l0.02,0.081l0.019,0.081l0.018,0.081l0.016,0.081l0.015,0.081l0.013,0.081l0.012,0.081l0.011,0.08l0.009,0.081l0.008,0.08l0.008,0.088l0.004,0.086l0.003,0.076l0.003,0.076l0.001,0.081l-0.004,1.814l-0.002,0.863l0.071,0.021l0.092,0.032l0.09,0.036l0.088,0.04l0.086,0.044l0.084,0.047l0.081,0.051l0.079,0.055l0.076,0.059l0.073,0.061l0.07,0.066l0.067,0.068l0.063,0.071l0.06,0.074l0.056,0.077l0.052,0.079l0.049,0.082l0.045,0.084l0.04,0.086l0.037,0.088l0.032,0.089l0.029,0.092l0.024,0.092l0.019,0.094l0.016,0.094l0.01,0.096l0.007,0.095l0.002,0.086l0,4.922l-0.002,0.085l-0.007,0.096l-0.01,0.096l-0.016,0.094l-0.019,0.094l-0.024,0.092l-0.029,0.091l-0.032,0.09l-0.037,0.088l-0.04,0.086l-0.045,0.084l-0.049,0.081l-0.052,0.08l-0.056,0.077l-0.06,0.074l-0.063,0.071l-0.067,0.068l-0.07,0.065l-0.073,0.062l-0.076,0.058l-0.078,0.055l-0.082,0.052l-0.084,0.047l-0.086,0.044l-0.088,0.04l-0.09,0.035l-0.092,0.032l-0.094,0.028l-0.095,0.024l-0.096,0.019l-0.097,0.016l-0.078,0.008l-0.056,0.005l-0.057,0.002l-8.013,0l-0.092,-0.003l-0.103,-0.008l-0.103,-0.013l-0.101,-0.019l-0.099,-0.024l-0.097,-0.029l-0.095,-0.034l-0.092,-0.038l-0.09,-0.043l-0.087,-0.047l-0.084,-0.051l-0.082,-0.054l-0.078,-0.059l-0.075,-0.062l-0.072,-0.065l-0.068,-0.069l-0.065,-0.071l-0.062,-0.075l-0.058,-0.077l-0.054,-0.081l-0.051,-0.082l-0.047,-0.086l-0.042,-0.088l-0.039,-0.09l-0.035,-0.092l-0.03,-0.094l-0.026,-0.096l-0.021,-0.097l-0.017,-0.099l-0.012,-0.1l-0.008,-0.102l-0.002,-0.09l0,-4.923l0.002,-0.086l0.007,-0.095l0.01,-0.096l0.016,-0.094l0.019,-0.094l0.024,-0.092l0.029,-0.092l0.032,-0.089l0.037,-0.088l0.041,-0.086l0.044,-0.084l0.049,-0.082l0.052,-0.079l0.056,-0.077l0.06,-0.074l0.063,-0.071l0.067,-0.068l0.07,-0.066l0.073,-0.061l0.076,-0.059l0.079,-0.055l0.081,-0.051l0.084,-0.047l0.086,-0.044l0.088,-0.04l0.09,-0.036l0.092,-0.032l0.094,-0.027l0.095,-0.024l0.096,-0.019l0.097,-0.016l0.078,-0.009l0.056,-0.005l0.057,-0.001l5.001,0l0,-0.543l0,-1.146l0,-0.45l-0.001,-0.289l0,-0.143l0,-0.107l0,-0.032l-0.002,-0.026l-0.001,-0.022l-0.003,-0.024l-0.007,-0.043l-0.008,-0.045l-0.01,-0.043l-0.01,-0.041l-0.013,-0.044l-0.005,-0.015l-0.007,-0.019l-0.006,-0.018l-0.007,-0.018l-0.008,-0.017l-0.007,-0.017l-0.007,-0.016l-0.008,-0.015l-0.008,-0.015l-0.008,-0.015l-0.008,-0.013l-0.008,-0.014l-0.008,-0.012l-0.008,-0.013l-0.009,-0.011l-0.008,-0.011l-0.009,-0.011l-0.008,-0.01l-0.009,-0.01l-0.009,-0.01l-0.009,-0.009l-0.011,-0.01l-0.025,-0.023l-0.026,-0.022l-0.024,-0.021l-0.024,-0.019l-0.022,-0.017l-0.022,-0.016l-0.021,-0.014l-0.02,-0.013l-0.019,-0.012l-0.018,-0.011l-0.018,-0.009l-0.017,-0.009l-0.018,-0.009l-0.017,-0.007l-0.017,-0.007l-0.018,-0.007l-0.018,-0.006l-0.019,-0.006l-0.019,-0.006l-0.021,-0.005l-0.021,-0.005l-0.023,-0.005l-0.025,-0.004l-0.026,-0.004l-0.027,-0.004l-0.03,-0.003l-0.031,-0.003l-0.033,-0.002l-0.035,-0.002l-0.037,-0.002l-0.039,0l-0.039,-0.001l-0.086,0.001l-0.079,0.003l-0.032,0.002l-0.032,0.003l-0.031,0.003l-0.029,0.003l-0.027,0.003l-0.025,0.004l-0.024,0.004l-0.022,0.005l-0.02,0.005l-0.02,0.005l-0.018,0.005l-0.018,0.005l-0.016,0.006l-0.017,0.006l-0.016,0.007l-0.016,0.007l-0.016,0.007l-0.016,0.008l-0.017,0.01l-0.018,0.01l-0.018,0.011l-0.019,0.012l-0.02,0.014l-0.021,0.016l-0.023,0.017l-0.023,0.018l-0.025,0.021l-0.024,0.021l-0.012,0.012l-0.011,0.01l-0.01,0.01l-0.009,0.011l-0.01,0.011l-0.009,0.012l-0.01,0.013l-0.009,0.013l-0.009,0.013l-0.009,0.014l-0.009,0.015l-0.009,0.016l-0.008,0.017l-0.009,0.017l-0.008,0.018l-0.008,0.019l-0.008,0.019l-0.008,0.02l-0.007,0.021l-0.007,0.022l-0.007,0.022l-0.007,0.023l-0.006,0.023l-0.006,0.024l-0.005,0.025l-0.006,0.025l-0.004,0.026l-0.004,0.022l-0.008,0.058l-0.005,0.039l0,0.02l-0.001,0.092l0,0.087l0.001,0.016l0.002,0.043l-0.001,0.261l0,0.129l0,0.043l0.001,0.007l0,0l0.001,0.052l-0.003,0.072l-0.009,0.071l0,0.001l-0.014,0.072l-0.019,0.07l-0.024,0.069l-0.029,0.067l-0.034,0.065l-0.039,0.062l-0.043,0.059l-0.047,0.055l-0.051,0.052l-0.054,0.049l-0.058,0.044l-0.062,0.04l-0.064,0.035l-0.066,0.03l-0.068,0.026l-0.07,0.02l-0.071,0.016l-0.073,0.01l-0.072,0.005l-0.066,-0.001l-1.278,0l-0.053,0.009l-0.074,0.007l-0.074,0.002l-0.074,-0.004l-0.074,-0.01l-0.073,-0.015l-0.071,-0.02l-0.07,-0.026l-0.067,-0.03l-0.066,-0.036l-0.062,-0.04l-0.059,-0.045l-0.056,-0.049l-0.052,-0.053l-0.048,-0.057l-0.043,-0.06l-0.039,-0.063l0,-0.001l-0.033,-0.064l-0.029,-0.066l-0.023,-0.068l-0.019,-0.069l-0.014,-0.071l-0.006,-0.044l-0.004,-0.055l-0.003,-0.075l0.003,-0.066l-0.001,-0.038l-0.004,-0.311l-0.001,-0.147l0,-0.08l0.002,-0.079l0.002,-0.08l0.004,-0.08l0.005,-0.081l0.006,-0.082l0.007,-0.082l0.009,-0.083l0.011,-0.084l0.012,-0.085l0.014,-0.085l0.016,-0.086l0.018,-0.087l0.019,-0.084l0.018,-0.069l0.018,-0.069l0.019,-0.069l0.02,-0.068l0.022,-0.068l0.022,-0.068l0.024,-0.068l0.025,-0.067l0.026,-0.068l0.027,-0.067l0.029,-0.067l0.03,-0.066l0.031,-0.066l0.032,-0.066l0.033,-0.066l0.037,-0.068l0.054,-0.096l0.058,-0.095l0.06,-0.095l0.063,-0.092l0.066,-0.092l0.068,-0.089l0.071,-0.088l0.074,-0.086l0.058,-0.064l0.057,-0.059l0.058,-0.059l0.059,-0.057l0.06,-0.056l0.061,-0.054l0.062,-0.053l0.063,-0.051l0.063,-0.05l0.065,-0.049l0.065,-0.047l0.066,-0.046l0.067,-0.045l0.067,-0.043l0.068,-0.042l0.069,-0.04l0.07,-0.039l0.07,-0.038l0.07,-0.037l0.071,-0.035l0.072,-0.034l0.072,-0.032l0.073,-0.032l0.073,-0.03l0.073,-0.028l0.074,-0.028l0.074,-0.026l0.075,-0.025l0.075,-0.023l0.075,-0.023l0.076,-0.021l0.072,-0.019l0.144,-0.036l0.129,-0.032l0.067,-0.016l0.068,-0.014l0.068,-0.014l0.071,-0.013l0.072,-0.011l0.074,-0.011l0.076,-0.008l0.076,-0.008l0.079,-0.006l0.08,-0.004l0.082,-0.003l0.091,-0.003l0.104,0l0.098,0.001Zm-0.188,0.999l-0.072,0.002l-0.067,0.003l-0.063,0.003l-0.059,0.005l-0.056,0.005l-0.054,0.006l-0.053,0.008l-0.051,0.008l-0.052,0.009l-0.052,0.011l-0.053,0.011l-0.055,0.013l-0.119,0.029l-0.135,0.034l-0.06,0.016l-0.06,0.017l-0.06,0.018l-0.059,0.018l-0.059,0.02l-0.059,0.021l-0.058,0.021l-0.057,0.023l-0.058,0.023l-0.056,0.025l-0.057,0.025l-0.055,0.026l-0.056,0.028l-0.054,0.028l-0.054,0.029l-0.054,0.03l-0.052,0.031l-0.053,0.032l-0.051,0.033l-0.051,0.034l-0.05,0.035l-0.05,0.036l-0.048,0.037l-0.048,0.037l-0.047,0.039l-0.047,0.04l-0.045,0.04l-0.045,0.042l-0.044,0.042l-0.043,0.044l-0.042,0.044l-0.041,0.045l-0.055,0.065l-0.054,0.066l-0.051,0.067l-0.05,0.069l-0.047,0.07l-0.046,0.071l-0.043,0.072l-0.042,0.073l-0.026,0.05l-0.026,0.049l-0.024,0.05l-0.024,0.051l-0.023,0.051l-0.022,0.051l-0.021,0.052l-0.02,0.052l-0.019,0.052l-0.018,0.052l-0.018,0.053l-0.017,0.053l-0.015,0.053l-0.015,0.054l-0.015,0.053l-0.013,0.054l-0.015,0.066l-0.014,0.066l-0.012,0.066l-0.011,0.065l-0.009,0.066l-0.009,0.065l-0.007,0.066l-0.006,0.066l-0.005,0.066l-0.003,0.066l-0.003,0.067l-0.002,0.066l-0.002,0.068l0,0.067l0.001,0.136l0.004,0.312l0.001,0.079l0,0.038l1.497,0l0,0.001l0,-0.001l0,0l-0.001,-0.02l-0.001,-0.066l0,-0.136l0.001,-0.233l-0.002,-0.028l-0.001,-0.041l0,-0.106l0.001,-0.109l0.001,-0.045l0.002,-0.033l0.009,-0.086l0.013,-0.087l0.007,-0.043l0.008,-0.043l0.009,-0.043l0.01,-0.043l0.01,-0.043l0.011,-0.042l0.012,-0.042l0.013,-0.042l0.014,-0.042l0.015,-0.041l0.015,-0.041l0.017,-0.041l0.017,-0.04l0.019,-0.04l0.019,-0.04l0.021,-0.039l0.021,-0.038l0.023,-0.038l0.023,-0.037l0.024,-0.037l0.026,-0.036l0.027,-0.035l0.027,-0.035l0.029,-0.034l0.03,-0.033l0.031,-0.032l0.033,-0.032l0.033,-0.031l0.042,-0.036l0.041,-0.035l0.041,-0.033l0.041,-0.031l0.041,-0.03l0.041,-0.028l0.041,-0.027l0.041,-0.025l0.041,-0.024l0.041,-0.022l0.041,-0.021l0.042,-0.02l0.042,-0.018l0.042,-0.017l0.043,-0.016l0.042,-0.015l0.044,-0.013l0.043,-0.012l0.045,-0.012l0.044,-0.01l0.046,-0.009l0.046,-0.008l0.046,-0.007l0.048,-0.007l0.048,-0.005l0.049,-0.005l0.049,-0.004l0.051,-0.003l0.104,-0.004l0.108,-0.001l0.055,0.001l0.055,0.001l0.053,0.002l0.052,0.003l0.052,0.003l0.051,0.005l0.049,0.006l0.049,0.006l0.049,0.008l0.047,0.008l0.047,0.01l0.046,0.01l0.046,0.012l0.045,0.013l0.044,0.014l0.044,0.015l0.044,0.017l0.043,0.017l0.043,0.019l0.042,0.02l0.043,0.022l0.042,0.023l0.041,0.024l0.042,0.026l0.041,0.027l0.041,0.028l0.042,0.03l0.041,0.032l0.041,0.033l0.041,0.034l0.042,0.036l0.041,0.038l0.029,0.028l0.028,0.029l0.028,0.029l0.026,0.029l0.025,0.031l0.025,0.031l0.024,0.031l0.023,0.032l0.022,0.033l0.021,0.033l0.021,0.033l0.02,0.034l0.019,0.034l0.018,0.035l0.017,0.035l0.017,0.036l0.015,0.036l0.016,0.036l0.014,0.036l0.013,0.037l0.013,0.037l0.012,0.037l0.023,0.075l0.019,0.076l0.017,0.076l0.014,0.077l0.012,0.076l0.007,0.059l0.004,0.057l0.003,0.055l0.001,0.056l0,0.12l0,0.14l0.001,0.288l0,0.452l0,1.146l-0.001,1.543l-6,0l-0.056,0.006l-0.055,0.009l-0.053,0.011l-0.052,0.013l-0.051,0.015l-0.05,0.017l-0.048,0.019l-0.046,0.021l-0.045,0.023l-0.044,0.024l-0.042,0.027l-0.04,0.028l-0.039,0.03l-0.037,0.031l-0.035,0.033l-0.034,0.034l-0.031,0.036l-0.03,0.038l-0.029,0.038l-0.026,0.04l-0.024,0.041l-0.023,0.042l-0.02,0.043l-0.019,0.045l-0.016,0.045l-0.014,0.046l-0.013,0.048l-0.01,0.048l-0.008,0.048l-0.005,0.05l-0.004,0.05l-0.001,0.051l0,4.9l0.001,0.054l0.004,0.053l0.007,0.053l0.008,0.052l0.012,0.05l0.013,0.05l0.016,0.049l0.018,0.048l0.02,0.046l0.022,0.045l0.024,0.044l0.026,0.043l0.028,0.041l0.029,0.04l0.032,0.038l0.033,0.036l0.035,0.035l0.036,0.033l0.038,0.031l0.039,0.03l0.041,0.027l0.041,0.025l0.044,0.023l0.044,0.021l0.045,0.019l0.047,0.017l0.047,0.014l0.049,0.012l0.049,0.009l0.05,0.006l0.051,0.005l0.051,0.001l8,0l0.056,-0.007l0.055,-0.008l0.053,-0.011l0.052,-0.013l0.051,-0.015l0.05,-0.017l0.048,-0.019l0.046,-0.021l0.045,-0.023l0.044,-0.025l0.042,-0.026l0.04,-0.028l0.039,-0.03l0.037,-0.031l0.035,-0.033l0.034,-0.035l0.031,-0.036l0.03,-0.037l0.029,-0.038l0.026,-0.04l0.024,-0.041l0.023,-0.042l0.02,-0.044l0.019,-0.044l0.016,-0.045l0.014,-0.047l0.013,-0.047l0.01,-0.048l0.008,-0.049l0.005,-0.049l0.004,-0.05l0.001,-0.051l0,-4.9l-0.001,-0.051l-0.004,-0.05l-0.005,-0.05l-0.008,-0.048l-0.01,-0.048l-0.013,-0.048l-0.014,-0.046l-0.016,-0.045l-0.019,-0.045l-0.02,-0.043l-0.023,-0.042l-0.024,-0.041l-0.026,-0.04l-0.029,-0.038l-0.03,-0.038l-0.031,-0.035l-0.034,-0.035l-0.035,-0.033l-0.037,-0.031l-0.039,-0.03l-0.04,-0.028l-0.042,-0.027l-0.044,-0.024l-0.045,-0.023l-0.046,-0.021l-0.048,-0.019l-0.05,-0.017l-0.051,-0.015l-0.052,-0.013l-0.053,-0.011l-0.055,-0.009l-0.056,-0.006l-0.5,0l0.004,-1.785l0.004,-1.805l-0.001,-0.064l-0.002,-0.065l-0.003,-0.064l-0.003,-0.064l-0.006,-0.065l-0.006,-0.065l-0.008,-0.065l-0.008,-0.065l-0.01,-0.065l-0.01,-0.064l-0.012,-0.064l-0.013,-0.064l-0.014,-0.064l-0.015,-0.064l-0.016,-0.064l-0.017,-0.063l-0.019,-0.063l-0.02,-0.062l-0.021,-0.063l-0.022,-0.062l-0.035,-0.089l-0.037,-0.089l-0.04,-0.087l-0.043,-0.087l-0.045,-0.085l-0.024,-0.042l-0.024,-0.042l-0.025,-0.041l-0.026,-0.041l-0.026,-0.041l-0.027,-0.04l-0.04,-0.057l-0.042,-0.057l-0.043,-0.056l-0.045,-0.054l-0.046,-0.054l-0.047,-0.053l-0.048,-0.051l-0.05,-0.051l-0.051,-0.049l-0.052,-0.048l-0.053,-0.047l-0.055,-0.046l-0.056,-0.044l-0.056,-0.043l-0.058,-0.042l-0.059,-0.041l-0.052,-0.034l-0.052,-0.032l-0.053,-0.032l-0.054,-0.031l-0.054,-0.03l-0.055,-0.029l-0.055,-0.027l-0.056,-0.027l-0.056,-0.026l-0.057,-0.025l-0.058,-0.024l-0.058,-0.023l-0.058,-0.022l-0.058,-0.021l-0.06,-0.02l-0.059,-0.019l-0.138,-0.044l-0.122,-0.04l-0.113,-0.036l-0.054,-0.016l-0.053,-0.015l-0.054,-0.014l-0.055,-0.013l-0.056,-0.012l-0.059,-0.01l-0.061,-0.009l-0.066,-0.007l-0.069,-0.006l-0.075,-0.005l-0.087,-0.002l-0.086,-0.002l-0.087,-0.001l-0.086,0Zm0.138,9.501l0.051,0.004l0.05,0.006l0.049,0.009l0.049,0.011l0.047,0.014l0.047,0.016l0.045,0.017l0.044,0.021l0.044,0.022l0.041,0.024l0.041,0.026l0.039,0.028l0.038,0.029l0.036,0.032l0.035,0.033l0.033,0.035l0.032,0.036l0.029,0.038l0.028,0.039l0.026,0.04l0.024,0.042l0.022,0.043l0.02,0.045l0.018,0.045l0.016,0.047l0.013,0.047l0.012,0.048l0.008,0.05l0.007,0.05l0.004,0.05l0.001,0.052l-0.001,0.051l-0.004,0.051l-0.007,0.05l-0.008,0.049l-0.012,0.049l-0.013,0.047l-0.016,0.047l-0.018,0.045l-0.02,0.044l-0.022,0.043l-0.024,0.042l-0.026,0.041l-0.028,0.039l-0.029,0.038l-0.032,0.036l-0.033,0.035l-0.035,0.033l-0.036,0.031l-0.038,0.03l-0.039,0.028l-0.041,0.026l-0.041,0.024l-0.044,0.022l-0.044,0.02l-0.045,0.018l-0.047,0.016l-0.047,0.013l-0.049,0.012l-0.049,0.008l-0.05,0.007l-0.051,0.004l-0.051,0.001l-0.051,-0.001l-0.051,-0.004l-0.05,-0.007l-0.049,-0.008l-0.049,-0.012l-0.047,-0.013l-0.047,-0.016l-0.045,-0.018l-0.044,-0.02l-0.044,-0.022l-0.041,-0.024l-0.041,-0.026l-0.039,-0.028l-0.038,-0.03l-0.036,-0.031l-0.035,-0.033l-0.033,-0.035l-0.032,-0.036l-0.029,-0.038l-0.028,-0.039l-0.026,-0.041l-0.024,-0.042l-0.022,-0.043l-0.02,-0.044l-0.018,-0.045l-0.016,-0.047l-0.013,-0.047l-0.012,-0.049l-0.008,-0.049l-0.007,-0.05l-0.004,-0.051l-0.001,-0.051l0.001,-0.052l0.004,-0.05l0.007,-0.05l0.008,-0.05l0.012,-0.048l0.013,-0.047l0.016,-0.047l0.018,-0.045l0.02,-0.045l0.022,-0.043l0.024,-0.042l0.026,-0.04l0.028,-0.039l0.029,-0.038l0.032,-0.036l0.033,-0.035l0.035,-0.033l0.036,-0.032l0.038,-0.029l0.039,-0.028l0.041,-0.026l0.041,-0.024l0.044,-0.022l0.044,-0.021l0.045,-0.017l0.047,-0.016l0.047,-0.014l0.049,-0.011l0.049,-0.009l0.05,-0.006l0.051,-0.004l0.051,-0.001l0.051,0.001Zm-0.051,0.999l0,0l0,0l0,0l0,0l0,0l0,0l0,0Zm-3.499,-6.485l0.001,0.003l0,-0.001l0.001,-0.014l0,-0.003l-0.003,0l0.001,0.015Z" style="fill-opacity:0.501961;"/></g></g><defs><linearGradient id="_Linear1" x1="0" y1="0" x2="1" y2="0" gradientUnits="userSpaceOnUse" gradientTransform="matrix(-1.60812e-15,11.6663,-10,-1.87609e-15,3,8.00008)"><stop offset="0" style="stop-color:#e0e0e0;stop-opacity:1"/><stop offset="1" style="stop-color:#8f8f8f;stop-opacity:1"/></linearGradient></defs></svg>