<?xml version="1.0" encoding="UTF-8" standalone="no"?><!DOCTYPE svg PUBLIC "-//W3C//DTD SVG 1.1//EN" "http://www.w3.org/Graphics/SVG/1.1/DTD/svg11.dtd"><svg width="100%" height="100%" viewBox="0 0 22 17" version="1.1" xmlns="http://www.w3.org/2000/svg" xmlns:xlink="http://www.w3.org/1999/xlink" xml:space="preserve" style="fill-rule:evenodd;clip-rule:evenodd;stroke-linecap:round;stroke-linejoin:round;stroke-miterlimit:1.5;"><rect x="2" y="2" width="18" height="13" style="fill:#fff;fill-opacity:0.176471;"/><g><path d="M19.5,1c0.828,0 1.5,0.672 1.5,1.5l0,12c0,0.828 -0.672,1.5 -1.5,1.5l-17,0c-0.828,0 -1.5,-0.672 -1.5,-1.5l0,-12c0,-0.828 0.672,-1.5 1.5,-1.5l17,0Zm-0.85,1l-15.3,0c-0.745,0 -1.35,0.583 -1.35,1.3l0,10.4c0,0.717 0.605,1.3 1.35,1.3l15.3,0c0.745,0 1.35,-0.583 1.35,-1.3l0,-10.4c0,-0.717 -0.605,-1.3 -1.35,-1.3l0,0Z" style="fill:none;stroke:#434343;stroke-width:2px;"/><path d="M19.5,1c0.828,0 1.5,0.672 1.5,1.5l0,12c0,0.828 -0.672,1.5 -1.5,1.5l-17,0c-0.828,0 -1.5,-0.672 -1.5,-1.5l0,-12c0,-0.828 0.672,-1.5 1.5,-1.5l17,0Zm-0.85,1l-15.3,0c-0.745,0 -1.35,0.583 -1.35,1.3l0,10.4c0,0.717 0.605,1.3 1.35,1.3l15.3,0c0.745,0 1.35,-0.583 1.35,-1.3l0,-10.4c0,-0.717 -0.605,-1.3 -1.35,-1.3l0,0Z" style="fill:#9b9b9b;"/></g></svg>