<?xml version="1.0" encoding="UTF-8" standalone="no"?><!DOCTYPE svg PUBLIC "-//W3C//DTD SVG 1.1//EN" "http://www.w3.org/Graphics/SVG/1.1/DTD/svg11.dtd"><svg width="100%" height="100%" viewBox="0 0 16 16" version="1.1" xmlns="http://www.w3.org/2000/svg" xmlns:xlink="http://www.w3.org/1999/xlink" xml:space="preserve" style="fill-rule:evenodd;clip-rule:evenodd;stroke-linecap:round;stroke-linejoin:round;stroke-miterlimit:1.5;"><g><g><path d="M14,2c0.552,0 1,0.448 1,1l0,10c0,0.552 -0.448,1 -1,1l-12,0c-0.552,0 -1,-0.448 -1,-1l0,-10c0,-0.552 0.448,-1 1,-1l12,0Zm-0.8,1l-10.4,0c-0.442,0 -0.8,0.358 -0.8,0.8l0,8.4c0,0.442 0.358,0.8 0.8,0.8l10.4,0c0.442,0 0.8,-0.358 0.8,-0.8l0,-8.4c0,-0.442 -0.358,-0.8 -0.8,-0.8Z" style="fill:none;stroke:#222;stroke-width:2px;"/><path d="M14,2c0.552,0 1,0.448 1,1l0,10c0,0.552 -0.448,1 -1,1l-12,0c-0.552,0 -1,-0.448 -1,-1l0,-10c0,-0.552 0.448,-1 1,-1l12,0Zm-0.8,1l-10.4,0c-0.442,0 -0.8,0.358 -0.8,0.8l0,8.4c0,0.442 0.358,0.8 0.8,0.8l10.4,0c0.442,0 0.8,-0.358 0.8,-0.8l0,-8.4c0,-0.442 -0.358,-0.8 -0.8,-0.8Z" style="fill:url(#_Linear1);"/></g><g><path d="M4,4l-1,0l0,3l1,0l0,-2l2,0l0,-1l-2,0Z" style="fill:none;stroke:#222;stroke-width:2px;"/><path d="M4,4l-1,0l0,3l1,0l0,-2l2,0l0,-1l-2,0Z" style="fill:url(#_Linear2);"/></g><path d="M12,12l1,0l0,-3l-1,0l0,2l-2,0l0,1l2,0Z" style="fill:none;stroke:#222;stroke-width:2px;"/><path d="M12,12l1,0l0,-3l-1,0l0,2l-2,0l0,1l2,0Z" style="fill:url(#_Linear3);"/></g><defs><linearGradient id="_Linear1" x1="0" y1="0" x2="1" y2="0" gradientUnits="userSpaceOnUse" gradientTransform="matrix(-2.57176e-15,14,-12,-2.20436e-15,1,8)"><stop offset="0" style="stop-color:#d1d1d1;stop-opacity:1"/><stop offset="1" style="stop-color:#919191;stop-opacity:1"/></linearGradient><linearGradient id="_Linear2" x1="0" y1="0" x2="1" y2="0" gradientUnits="userSpaceOnUse" gradientTransform="matrix(-5.51091e-16,3,-3,-5.51091e-16,3,5.5)"><stop offset="0" style="stop-color:#d1d1d1;stop-opacity:1"/><stop offset="1" style="stop-color:#919191;stop-opacity:1"/></linearGradient><linearGradient id="_Linear3" x1="0" y1="0" x2="1" y2="0" gradientUnits="userSpaceOnUse" gradientTransform="matrix(5.51091e-16,-3,3,5.51091e-16,13,10.5)"><stop offset="0" style="stop-color:#d1d1d1;stop-opacity:1"/><stop offset="1" style="stop-color:#919191;stop-opacity:1"/></linearGradient></defs></svg>