<?xml version="1.0" encoding="UTF-8" standalone="no"?><!DOCTYPE svg PUBLIC "-//W3C//DTD SVG 1.1//EN" "http://www.w3.org/Graphics/SVG/1.1/DTD/svg11.dtd"><svg width="100%" height="100%" viewBox="0 0 16 16" version="1.1" xmlns="http://www.w3.org/2000/svg" xmlns:xlink="http://www.w3.org/1999/xlink" xml:space="preserve" style="fill-rule:evenodd;clip-rule:evenodd;stroke-linecap:round;stroke-linejoin:round;stroke-miterlimit:1.5;"><g><path d="M14,2c0.552,0 1,0.448 1,1l0,10c0,0.552 -0.448,1 -1,1l-12,0c-0.552,0 -1,-0.448 -1,-1l0,-10c0,-0.552 0.448,-1 1,-1l12,0Zm-0.8,1l-10.4,0c-0.442,0 -0.8,0.358 -0.8,0.8l0,8.4c0,0.442 0.358,0.8 0.8,0.8l10.4,0c0.442,0 0.8,-0.358 0.8,-0.8l0,-8.4c0,-0.442 -0.358,-0.8 -0.8,-0.8Z" style="fill:none;stroke:#222;stroke-width:2px;"/><path d="M14,2c0.552,0 1,0.448 1,1l0,10c0,0.552 -0.448,1 -1,1l-12,0c-0.552,0 -1,-0.448 -1,-1l0,-10c0,-0.552 0.448,-1 1,-1l12,0Zm-0.8,1l-10.4,0c-0.442,0 -0.8,0.358 -0.8,0.8l0,8.4c0,0.442 0.358,0.8 0.8,0.8l10.4,0c0.442,0 0.8,-0.358 0.8,-0.8l0,-8.4c0,-0.442 -0.358,-0.8 -0.8,-0.8Z" style="fill:#f388ff;"/></g><g><path d="M4,4l-1,0l0,3l1,0l0,-2l2,0l0,-1l-2,0Z" style="fill:none;stroke:#222;stroke-width:2px;"/><path d="M4,4l-1,0l0,3l1,0l0,-2l2,0l0,-1l-2,0Z" style="fill:#f388ff;"/></g><path d="M12,12l1,0l0,-3l-1,0l0,2l-2,0l0,1l2,0Z" style="fill:none;stroke:#222;stroke-width:2px;"/><path d="M12,12l1,0l0,-3l-1,0l0,2l-2,0l0,1l2,0Z" style="fill:#f388ff;"/></svg>