<?xml version="1.0" encoding="UTF-8" standalone="no"?><!DOCTYPE svg PUBLIC "-//W3C//DTD SVG 1.1//EN" "http://www.w3.org/Graphics/SVG/1.1/DTD/svg11.dtd"><svg width="100%" height="100%" viewBox="0 0 16 16" version="1.1" xmlns="http://www.w3.org/2000/svg" xmlns:xlink="http://www.w3.org/1999/xlink" xml:space="preserve" style="fill-rule:evenodd;clip-rule:evenodd;stroke-linejoin:round;stroke-miterlimit:1.41421;"><path d="M13.348,8.686c0.029,-0.224 0.051,-0.448 0.051,-0.686c0,-0.238 -0.022,-0.462 -0.051,-0.686l1.519,-1.155c0.137,-0.105 0.173,-0.294 0.086,-0.448l-1.439,-2.422c-0.086,-0.154 -0.281,-0.21 -0.439,-0.154l-1.792,0.7c-0.374,-0.28 -0.777,-0.511 -1.216,-0.686l-0.274,-1.855c-0.021,-0.168 -0.172,-0.294 -0.352,-0.294l-2.879,0c-0.18,0 -0.331,0.126 -0.352,0.294l-0.274,1.855c-0.439,0.175 -0.842,0.413 -1.216,0.686l-1.792,-0.7c-0.165,-0.063 -0.352,0 -0.439,0.154l-1.439,2.422c-0.094,0.154 -0.05,0.343 0.086,0.448l1.519,1.155c-0.029,0.224 -0.051,0.455 -0.051,0.686c0,0.231 0.022,0.462 0.051,0.686l-1.519,1.155c-0.136,0.105 -0.172,0.294 -0.086,0.448l1.439,2.422c0.087,0.154 0.281,0.21 0.439,0.154l1.792,-0.7c0.374,0.28 0.777,0.511 1.216,0.686l0.274,1.855c0.021,0.168 0.172,0.294 0.352,0.294l2.879,0c0.18,0 0.331,-0.126 0.352,-0.294l0.274,-1.855c0.439,-0.175 0.842,-0.413 1.216,-0.686l1.792,0.7c0.166,0.063 0.353,0 0.439,-0.154l1.439,-2.422c0.087,-0.154 0.051,-0.343 -0.086,-0.448l-1.519,-1.155l0,0Zm-5.346,1.764c-1.389,0 -2.519,-1.099 -2.519,-2.45c0,-1.351 1.13,-2.45 2.519,-2.45c1.388,0 2.518,1.099 2.518,2.45c0,1.351 -1.13,2.45 -2.518,2.45l0,0Z" style="fill:none;stroke:#000;stroke-opacity:0.501961;stroke-width:2px;"/><path d="M13.348,8.686c0.029,-0.224 0.051,-0.448 0.051,-0.686c0,-0.238 -0.022,-0.462 -0.051,-0.686l1.519,-1.155c0.137,-0.105 0.173,-0.294 0.086,-0.448l-1.439,-2.422c-0.086,-0.154 -0.281,-0.21 -0.439,-0.154l-1.792,0.7c-0.374,-0.28 -0.777,-0.511 -1.216,-0.686l-0.274,-1.855c-0.021,-0.168 -0.172,-0.294 -0.352,-0.294l-2.879,0c-0.18,0 -0.331,0.126 -0.352,0.294l-0.274,1.855c-0.439,0.175 -0.842,0.413 -1.216,0.686l-1.792,-0.7c-0.165,-0.063 -0.352,0 -0.439,0.154l-1.439,2.422c-0.094,0.154 -0.05,0.343 0.086,0.448l1.519,1.155c-0.029,0.224 -0.051,0.455 -0.051,0.686c0,0.231 0.022,0.462 0.051,0.686l-1.519,1.155c-0.136,0.105 -0.172,0.294 -0.086,0.448l1.439,2.422c0.087,0.154 0.281,0.21 0.439,0.154l1.792,-0.7c0.374,0.28 0.777,0.511 1.216,0.686l0.274,1.855c0.021,0.168 0.172,0.294 0.352,0.294l2.879,0c0.18,0 0.331,-0.126 0.352,-0.294l0.274,-1.855c0.439,-0.175 0.842,-0.413 1.216,-0.686l1.792,0.7c0.166,0.063 0.353,0 0.439,-0.154l1.439,-2.422c0.087,-0.154 0.051,-0.343 -0.086,-0.448l-1.519,-1.155l0,0Zm-5.346,1.764c-1.389,0 -2.519,-1.099 -2.519,-2.45c0,-1.351 1.13,-2.45 2.519,-2.45c1.388,0 2.518,1.099 2.518,2.45c0,1.351 -1.13,2.45 -2.518,2.45l0,0Z" style="fill:url(#_Linear1);fill-rule:nonzero;"/><defs><linearGradient id="_Linear1" x1="0" y1="0" x2="1" y2="0" gradientUnits="userSpaceOnUse" gradientTransform="matrix(-2.18994e-15,13.618,-13.618,-2.18994e-15,1,8)"><stop offset="0" style="stop-color:#cfcfcf;stop-opacity:1"/><stop offset="1" style="stop-color:#8c8c8c;stop-opacity:1"/></linearGradient></defs></svg>