<?xml version="1.0" encoding="UTF-8" standalone="no"?><!DOCTYPE svg PUBLIC "-//W3C//DTD SVG 1.1//EN" "http://www.w3.org/Graphics/SVG/1.1/DTD/svg11.dtd"><svg width="100%" height="100%" viewBox="0 0 11 11" version="1.1" xmlns="http://www.w3.org/2000/svg" xmlns:xlink="http://www.w3.org/1999/xlink" xml:space="preserve" style="fill-rule:evenodd;clip-rule:evenodd;stroke-linejoin:round;stroke-miterlimit:1.41421;"><circle cx="5.5" cy="5.5" r="5.5" style="fill:#3c3c3c;"/><circle cx="5.5" cy="5.5" r="4" style="fill:#e2e2e2;"/><path d="M5.603,1.501l0.103,0.004l0.102,0.007l0.101,0.009l0.1,0.011l0.1,0.014l0.099,0.017l0.098,0.018l0.097,0.022l0.096,0.023l0.096,0.026l0.094,0.028l0.093,0.03l0.093,0.033l0.091,0.035l0.09,0.037l0.09,0.039l0.088,0.041l0.086,0.043l0.086,0.045l0.084,0.047l0.083,0.049l0.082,0.052l0.081,0.053l0.079,0.054l0.078,0.057l0.076,0.059l0.075,0.06l0.073,0.062l0.072,0.064l0.07,0.065l0.069,0.067l0.067,0.069l0.065,0.07l0.064,0.072l0.062,0.073l0.06,0.075l0.059,0.076l0.057,0.078l0.054,0.079l0.053,0.081l0.052,0.082l0.049,0.083l0.047,0.084l0.045,0.086l0.043,0.086l0.041,0.088l0.039,0.09l0.037,0.09l0.035,0.091l0.033,0.093l0.03,0.093l0.028,0.094l0.026,0.096l0.023,0.096l0.022,0.097l0.018,0.098l0.017,0.099l0.014,0.1l0.011,0.1l0.009,0.101l0.007,0.102l0.004,0.103l0.001,0.103l-0.001,0.103l-0.004,0.103l-0.007,0.102l-0.009,0.101l-0.011,0.1l-0.014,0.1l-0.017,0.099l-0.018,0.098l-0.022,0.097l-0.023,0.096l-0.026,0.096l-0.028,0.094l-0.03,0.093l-0.033,0.093l-0.035,0.091l-0.037,0.09l-0.039,0.09l-0.041,0.088l-0.043,0.086l-0.045,0.086l-0.047,0.084l-0.049,0.083l-0.052,0.082l-0.053,0.081l-0.054,0.079l-0.057,0.078l-0.059,0.076l-0.06,0.075l-0.062,0.073l-0.064,0.072l-0.065,0.07l-0.067,0.069l-0.069,0.067l-0.07,0.065l-0.072,0.064l-0.073,0.062l-0.075,0.06l-0.076,0.059l-0.078,0.057l-0.079,0.054l-0.081,0.053l-0.082,0.052l-0.083,0.049l-0.084,0.047l-0.086,0.045l-0.086,0.043l-0.088,0.041l-0.09,0.039l-0.09,0.037l-0.091,0.035l-0.093,0.033l-0.093,0.03l-0.094,0.028l-0.096,0.026l-0.096,0.023l-0.097,0.022l-0.098,0.018l-0.099,0.017l-0.1,0.014l-0.1,0.011l-0.101,0.009l-0.102,0.007l-0.103,0.004l-0.103,0.001l-0.103,-0.001l-0.103,-0.004l-0.102,-0.007l-0.101,-0.009l-0.1,-0.011l-0.1,-0.014l-0.099,-0.017l-0.098,-0.018l-0.097,-0.022l-0.096,-0.023l-0.096,-0.026l-0.094,-0.028l-0.093,-0.03l-0.093,-0.033l-0.091,-0.035l-0.09,-0.037l-0.09,-0.039l-0.088,-0.041l-0.086,-0.043l-0.086,-0.045l-0.084,-0.047l-0.083,-0.049l-0.082,-0.052l-0.081,-0.053l-0.079,-0.054l-0.078,-0.057l-0.076,-0.059l-0.075,-0.06l-0.073,-0.062l-0.072,-0.064l-0.07,-0.065l-0.069,-0.067l-0.067,-0.069l-0.065,-0.07l-0.064,-0.072l-0.062,-0.073l-0.06,-0.075l-0.059,-0.076l-0.057,-0.078l-0.054,-0.079l-0.053,-0.081l-0.052,-0.082l-0.049,-0.083l-0.047,-0.084l-0.045,-0.086l-0.043,-0.086l-0.041,-0.088l-0.039,-0.09l-0.037,-0.09l-0.035,-0.091l-0.033,-0.093l-0.03,-0.093l-0.028,-0.094l-0.026,-0.096l-0.023,-0.096l-0.022,-0.097l-0.018,-0.098l-0.017,-0.099l-0.014,-0.1l-0.011,-0.1l-0.009,-0.101l-0.007,-0.102l-0.004,-0.103l-0.001,-0.103l0.001,-0.103l0.004,-0.103l0.007,-0.102l0.009,-0.101l0.011,-0.1l0.014,-0.1l0.017,-0.099l0.018,-0.098l0.022,-0.097l0.023,-0.096l0.026,-0.096l0.028,-0.094l0.03,-0.093l0.033,-0.093l0.035,-0.091l0.037,-0.09l0.039,-0.09l0.041,-0.088l0.043,-0.086l0.045,-0.086l0.047,-0.084l0.049,-0.083l0.052,-0.082l0.053,-0.081l0.054,-0.079l0.057,-0.078l0.059,-0.076l0.06,-0.075l0.062,-0.073l0.064,-0.072l0.065,-0.07l0.067,-0.069l0.069,-0.067l0.07,-0.065l0.072,-0.064l0.073,-0.062l0.075,-0.06l0.076,-0.059l0.078,-0.057l0.079,-0.054l0.081,-0.053l0.082,-0.052l0.083,-0.049l0.084,-0.047l0.086,-0.045l0.086,-0.043l0.088,-0.041l0.09,-0.039l0.09,-0.037l0.091,-0.035l0.093,-0.033l0.093,-0.03l0.094,-0.028l0.096,-0.026l0.096,-0.023l0.097,-0.022l0.098,-0.018l0.099,-0.017l0.1,-0.014l0.1,-0.011l0.101,-0.009l0.102,-0.007l0.103,-0.004l0.103,-0.001l0.103,0.001Zm-0.168,1.5l-0.065,0.002l-0.064,0.004l-0.063,0.006l-0.063,0.007l-0.062,0.009l-0.062,0.01l-0.061,0.012l-0.06,0.013l-0.06,0.015l-0.059,0.016l-0.059,0.017l-0.058,0.019l-0.058,0.02l-0.056,0.022l-0.057,0.023l-0.055,0.024l-0.055,0.026l-0.054,0.027l-0.054,0.028l-0.052,0.03l-0.052,0.03l-0.051,0.032l-0.051,0.033l-0.049,0.035l-0.049,0.035l-0.048,0.037l-0.047,0.038l-0.046,0.039l-0.045,0.04l-0.044,0.041l-0.043,0.042l-0.042,0.043l-0.041,0.044l-0.04,0.045l-0.039,0.046l-0.038,0.047l-0.037,0.048l-0.035,0.049l-0.035,0.049l-0.033,0.051l-0.032,0.051l-0.03,0.052l-0.03,0.052l-0.028,0.054l-0.027,0.054l-0.026,0.055l-0.024,0.055l-0.023,0.057l-0.022,0.056l-0.02,0.058l-0.019,0.058l-0.017,0.059l-0.016,0.059l-0.015,0.06l-0.013,0.06l-0.012,0.061l-0.01,0.062l-0.009,0.062l-0.007,0.063l-0.006,0.063l-0.004,0.064l-0.002,0.065l-0.001,0.065l0.001,0.065l0.002,0.065l0.004,0.064l0.006,0.063l0.007,0.063l0.009,0.062l0.01,0.062l0.012,0.061l0.013,0.06l0.015,0.06l0.016,0.059l0.017,0.059l0.019,0.058l0.02,0.058l0.022,0.056l0.023,0.057l0.024,0.055l0.026,0.055l0.027,0.054l0.028,0.054l0.03,0.052l0.03,0.052l0.032,0.051l0.033,0.051l0.035,0.049l0.035,0.049l0.037,0.048l0.038,0.047l0.039,0.046l0.04,0.045l0.041,0.044l0.042,0.043l0.043,0.042l0.044,0.041l0.045,0.04l0.046,0.039l0.047,0.038l0.048,0.037l0.049,0.035l0.049,0.035l0.051,0.033l0.051,0.032l0.052,0.03l0.052,0.03l0.054,0.028l0.054,0.027l0.055,0.026l0.055,0.024l0.057,0.023l0.056,0.022l0.058,0.02l0.058,0.019l0.059,0.017l0.059,0.016l0.06,0.015l0.06,0.013l0.061,0.012l0.062,0.01l0.062,0.009l0.063,0.007l0.063,0.006l0.064,0.004l0.065,0.002l0.065,0.001l0.065,-0.001l0.065,-0.002l0.064,-0.004l0.063,-0.006l0.063,-0.007l0.062,-0.009l0.062,-0.01l0.061,-0.012l0.06,-0.013l0.06,-0.015l0.059,-0.016l0.059,-0.017l0.058,-0.019l0.058,-0.02l0.056,-0.022l0.057,-0.023l0.055,-0.024l0.055,-0.026l0.054,-0.027l0.054,-0.028l0.052,-0.03l0.052,-0.03l0.051,-0.032l0.051,-0.033l0.049,-0.035l0.049,-0.035l0.048,-0.037l0.047,-0.038l0.046,-0.039l0.045,-0.04l0.044,-0.041l0.043,-0.042l0.042,-0.043l0.041,-0.044l0.04,-0.045l0.039,-0.046l0.038,-0.047l0.037,-0.048l0.035,-0.049l0.035,-0.049l0.033,-0.051l0.032,-0.051l0.03,-0.052l0.03,-0.052l0.028,-0.054l0.027,-0.054l0.026,-0.055l0.024,-0.055l0.023,-0.057l0.022,-0.056l0.02,-0.058l0.019,-0.058l0.017,-0.059l0.016,-0.059l0.015,-0.06l0.013,-0.06l0.012,-0.061l0.01,-0.062l0.009,-0.062l0.007,-0.063l0.006,-0.063l0.004,-0.064l0.002,-0.065l0.001,-0.065l-0.001,-0.065l-0.002,-0.065l-0.004,-0.064l-0.006,-0.063l-0.007,-0.063l-0.009,-0.062l-0.01,-0.062l-0.012,-0.061l-0.013,-0.06l-0.015,-0.06l-0.016,-0.059l-0.017,-0.059l-0.019,-0.058l-0.02,-0.058l-0.022,-0.056l-0.023,-0.057l-0.024,-0.055l-0.026,-0.055l-0.027,-0.054l-0.028,-0.054l-0.03,-0.052l-0.03,-0.052l-0.032,-0.051l-0.033,-0.051l-0.035,-0.049l-0.035,-0.049l-0.037,-0.048l-0.038,-0.047l-0.039,-0.046l-0.04,-0.045l-0.041,-0.044l-0.042,-0.043l-0.043,-0.042l-0.044,-0.041l-0.045,-0.04l-0.046,-0.039l-0.047,-0.038l-0.048,-0.037l-0.049,-0.035l-0.049,-0.035l-0.051,-0.033l-0.051,-0.032l-0.052,-0.03l-0.052,-0.03l-0.054,-0.028l-0.054,-0.027l-0.055,-0.026l-0.055,-0.024l-0.057,-0.023l-0.056,-0.022l-0.058,-0.02l-0.058,-0.019l-0.059,-0.017l-0.059,-0.016l-0.06,-0.015l-0.06,-0.013l-0.061,-0.012l-0.062,-0.01l-0.062,-0.009l-0.063,-0.007l-0.063,-0.006l-0.064,-0.004l-0.065,-0.002l-0.065,-0.001l-0.065,0.001Z" style="fill:#e2e2e2;"/></svg>