<?xml version="1.0" encoding="UTF-8" standalone="no"?><!DOCTYPE svg PUBLIC "-//W3C//DTD SVG 1.1//EN" "http://www.w3.org/Graphics/SVG/1.1/DTD/svg11.dtd"><svg width="100%" height="100%" viewBox="0 0 21 17" version="1.1" xmlns="http://www.w3.org/2000/svg" xmlns:xlink="http://www.w3.org/1999/xlink" xml:space="preserve" style="fill-rule:evenodd;clip-rule:evenodd;stroke-linejoin:round;stroke-miterlimit:1.41421;"><path d="M17,14l1,0l0,-1l1,0l0,2l-2,0l0,-1Zm-14,0l10,0l0,-6l-10,0l0,6Zm15,-4l1,0l0,2l-1,0l0,-2Zm0,-3l1,0l0,2l-1,0l0,-2Zm0,-3l1,0l0,2l-1,0l0,-2Zm-16,-3l2,0l0,1l-1,0l0,1l-1,0l0,-2Zm17,2l-1,0l0,-1l-1,0l0,-1l2,0l0,2Zm-14,-2l2,0l0,1l-2,0l0,-1Zm3,0l2,0l0,1l-2,0l0,-1Zm3,0l2,0l0,1l-2,0l0,-1Zm3,0l2,0l0,1l-2,0l0,-1Zm-11,3l0,3l11,0l0,7l1,0l0,1l-13,0l0,-11l1,0Z"/><rect x="3" y="8" width="10" height="6" style="fill:#ddd;"/></svg>