<?xml version="1.0" encoding="UTF-8" standalone="no"?><!DOCTYPE svg PUBLIC "-//W3C//DTD SVG 1.1//EN" "http://www.w3.org/Graphics/SVG/1.1/DTD/svg11.dtd"><svg width="100%" height="100%" viewBox="0 0 15 15" version="1.1" xmlns="http://www.w3.org/2000/svg" xmlns:xlink="http://www.w3.org/1999/xlink" xml:space="preserve" style="fill-rule:evenodd;clip-rule:evenodd;stroke-linejoin:round;stroke-miterlimit:1.41421;"><path d="M8,1l-3,0c-0.596,0 -1,0.427 -1,1l0,7c0,0.573 0.404,1 1,1l9,0c0.596,0 1,-0.427 1,-1l0,-5.958c0,-0.573 -0.404,-1.042 -1,-1.042l-4,0l-2,-1l0,0Z" style="fill:#888;fill-rule:nonzero;"/><path d="M8,1l2,1l4,0l0.055,0.001l0.054,0.004l0.053,0.007l0.052,0.009l0.05,0.012l0.05,0.014l0.047,0.016l0.047,0.019l0.045,0.021l0.043,0.023l0.042,0.025l0.04,0.028l0.039,0.029l0.037,0.031l0.036,0.032l0.033,0.035l0.032,0.036l0.031,0.038l0.028,0.039l0.027,0.041l0.024,0.043l0.023,0.043l0.021,0.045l0.019,0.046l0.016,0.047l0.015,0.049l0.012,0.049l0.01,0.05l0.009,0.052l0.005,0.052l0.004,0.052l0.001,0.054l0,5.958l-0.001,0.053l-0.004,0.053l-0.005,0.051l-0.009,0.05l-0.01,0.05l-0.012,0.048l-0.015,0.047l-0.016,0.046l-0.019,0.045l-0.021,0.043l-0.023,0.042l-0.024,0.04l-0.027,0.039l-0.028,0.038l-0.031,0.036l-0.032,0.034l-0.033,0.032l-0.036,0.031l-0.037,0.029l-0.039,0.028l-0.04,0.025l-0.042,0.023l-0.043,0.022l-0.045,0.019l-0.047,0.018l-0.047,0.015l-0.05,0.013l-0.05,0.011l-0.052,0.008l-0.053,0.006l-0.054,0.004l-0.055,0.001l-9,0l-0.055,-0.001l-0.054,-0.004l-0.053,-0.006l-0.052,-0.008l-0.05,-0.011l-0.05,-0.013l-0.047,-0.015l-0.047,-0.018l-0.045,-0.019l-0.043,-0.022l-0.042,-0.023l-0.04,-0.025l-0.039,-0.028l-0.037,-0.029l-0.036,-0.031l-0.033,-0.032l-0.032,-0.034l-0.031,-0.036l-0.028,-0.038l-0.027,-0.039l-0.024,-0.04l-0.023,-0.042l-0.021,-0.043l-0.019,-0.045l-0.016,-0.046l-0.015,-0.047l-0.012,-0.048l-0.01,-0.05l-0.009,-0.05l-0.005,-0.051l-0.004,-0.053l-0.001,-0.053l0,-7l0.001,-0.053l0.004,-0.053l0.005,-0.051l0.009,-0.05l0.01,-0.05l0.012,-0.048l0.015,-0.047l0.016,-0.046l0.019,-0.045l0.021,-0.043l0.023,-0.042l0.024,-0.04l0.027,-0.039l0.028,-0.038l0.031,-0.036l0.032,-0.034l0.033,-0.032l0.036,-0.031l0.037,-0.029l0.039,-0.028l0.04,-0.025l0.042,-0.023l0.043,-0.022l0.045,-0.019l0.047,-0.018l0.047,-0.015l0.05,-0.013l0.05,-0.011l0.052,-0.008l0.053,-0.006l0.054,-0.004l0.055,-0.001l3,0Zm-2.989,1l-0.011,0l0,7l9,0l0,-0.011l0,-5.936l0,-0.021l-0.001,-0.008l-0.001,-0.007l-0.001,-0.007l-0.001,-0.006l-0.001,-0.004l-0.007,0l-3.988,0l-0.066,-0.002l-0.066,-0.007l-0.065,-0.011l-0.065,-0.015l-0.063,-0.019l-0.062,-0.024l-0.06,-0.028l-1.789,-0.894l-2.753,0l0,0Z" style="fill-opacity:0.501961;"/><path d="M6,3l-3,0c-0.596,0 -1,0.427 -1,1l0,7c0,0.573 0.404,1 1,1l9,0c0.596,0 1,-0.427 1,-1l0,-5.958c0,-0.573 -0.404,-1.042 -1,-1.042l-4,0l-2,-1Z" style="fill:#9d9d9d;fill-rule:nonzero;"/><path d="M6,3l2,1l4,0l0.055,0.001l0.054,0.004l0.053,0.007l0.052,0.009l0.05,0.012l0.05,0.014l0.047,0.016l0.047,0.019l0.045,0.021l0.043,0.023l0.042,0.025l0.04,0.028l0.039,0.029l0.037,0.031l0.036,0.032l0.033,0.035l0.032,0.036l0.031,0.038l0.028,0.039l0.027,0.041l0.024,0.043l0.023,0.043l0.021,0.045l0.019,0.046l0.016,0.047l0.015,0.049l0.012,0.049l0.01,0.05l0.009,0.052l0.005,0.052l0.004,0.052l0.001,0.054l0,5.958l-0.001,0.053l-0.004,0.053l-0.005,0.051l-0.009,0.05l-0.01,0.05l-0.012,0.048l-0.015,0.047l-0.016,0.046l-0.019,0.045l-0.021,0.043l-0.023,0.042l-0.024,0.04l-0.027,0.039l-0.028,0.038l-0.031,0.036l-0.032,0.034l-0.033,0.032l-0.036,0.031l-0.037,0.029l-0.039,0.028l-0.04,0.025l-0.042,0.023l-0.043,0.022l-0.045,0.019l-0.047,0.018l-0.047,0.015l-0.05,0.013l-0.05,0.011l-0.052,0.008l-0.053,0.006l-0.054,0.004l-0.055,0.001l-9,0l-0.055,-0.001l-0.054,-0.004l-0.053,-0.006l-0.052,-0.008l-0.05,-0.011l-0.05,-0.013l-0.047,-0.015l-0.047,-0.018l-0.045,-0.019l-0.043,-0.022l-0.042,-0.023l-0.04,-0.025l-0.039,-0.028l-0.037,-0.029l-0.036,-0.031l-0.033,-0.032l-0.032,-0.034l-0.031,-0.036l-0.028,-0.038l-0.027,-0.039l-0.024,-0.04l-0.023,-0.042l-0.021,-0.043l-0.019,-0.045l-0.016,-0.046l-0.015,-0.047l-0.012,-0.048l-0.01,-0.05l-0.009,-0.05l-0.005,-0.051l-0.004,-0.053l-0.001,-0.053l0,-7l0.001,-0.053l0.004,-0.053l0.005,-0.051l0.009,-0.05l0.01,-0.05l0.012,-0.048l0.015,-0.047l0.016,-0.046l0.019,-0.045l0.021,-0.043l0.023,-0.042l0.024,-0.04l0.027,-0.039l0.028,-0.038l0.031,-0.036l0.032,-0.034l0.033,-0.032l0.036,-0.031l0.037,-0.029l0.039,-0.028l0.04,-0.025l0.042,-0.023l0.043,-0.022l0.045,-0.019l0.047,-0.018l0.047,-0.015l0.05,-0.013l0.05,-0.011l0.052,-0.008l0.053,-0.006l0.054,-0.004l0.055,-0.001l3,0Zm-2.989,1l-0.011,0l0,7l9,0l0,-0.011l0,-5.936l0,-0.02l-0.001,-0.009l-0.001,-0.007l-0.001,-0.007l-0.001,-0.006l-0.001,-0.004l-0.007,0l-3.988,0l-0.066,-0.002l-0.066,-0.007l-0.065,-0.011l-0.065,-0.015l-0.063,-0.019l-0.062,-0.024l-0.06,-0.028l-1.789,-0.894l-2.753,0l0,0Z" style="fill-opacity:0.501961;"/><path d="M4,5l-3,0c-0.596,0 -1,0.427 -1,1l0,7c0,0.573 0.404,1 1,1l9,0c0.596,0 1,-0.427 1,-1l0,-5.958c0,-0.573 -0.404,-1.042 -1,-1.042l-4,0l-2,-1Z" style="fill:url(#_Linear1);fill-rule:nonzero;"/><path d="M4,5l2,1l4,0l0.055,0.001l0.054,0.004l0.053,0.007l0.052,0.009l0.05,0.012l0.05,0.014l0.047,0.016l0.047,0.019l0.045,0.021l0.043,0.023l0.042,0.025l0.04,0.028l0.039,0.029l0.037,0.031l0.036,0.032l0.033,0.035l0.032,0.036l0.031,0.038l0.028,0.039l0.027,0.041l0.024,0.043l0.023,0.043l0.021,0.045l0.019,0.046l0.016,0.047l0.015,0.049l0.012,0.049l0.01,0.05l0.009,0.052l0.005,0.052l0.004,0.052l0.001,0.054l0,5.958l-0.001,0.053l-0.004,0.053l-0.005,0.051l-0.009,0.05l-0.01,0.05l-0.012,0.048l-0.015,0.047l-0.016,0.046l-0.019,0.045l-0.021,0.043l-0.023,0.042l-0.024,0.04l-0.027,0.039l-0.028,0.038l-0.031,0.036l-0.032,0.034l-0.033,0.032l-0.036,0.031l-0.037,0.029l-0.039,0.028l-0.04,0.025l-0.042,0.023l-0.043,0.022l-0.045,0.019l-0.047,0.018l-0.047,0.015l-0.05,0.013l-0.05,0.011l-0.052,0.008l-0.053,0.006l-0.054,0.004l-0.055,0.001l-9,0l-0.055,-0.001l-0.054,-0.004l-0.053,-0.006l-0.052,-0.008l-0.05,-0.011l-0.05,-0.013l-0.047,-0.015l-0.047,-0.018l-0.045,-0.019l-0.043,-0.022l-0.042,-0.023l-0.04,-0.025l-0.039,-0.028l-0.037,-0.029l-0.036,-0.031l-0.033,-0.032l-0.032,-0.034l-0.031,-0.036l-0.028,-0.038l-0.027,-0.039l-0.024,-0.04l-0.023,-0.042l-0.021,-0.043l-0.019,-0.045l-0.016,-0.046l-0.015,-0.047l-0.012,-0.048l-0.01,-0.05l-0.009,-0.05l-0.005,-0.051l-0.004,-0.053l-0.001,-0.053l0,-7l0.001,-0.053l0.004,-0.053l0.005,-0.051l0.009,-0.05l0.01,-0.05l0.012,-0.048l0.015,-0.047l0.016,-0.046l0.019,-0.045l0.021,-0.043l0.023,-0.042l0.024,-0.04l0.027,-0.039l0.028,-0.038l0.031,-0.036l0.032,-0.034l0.033,-0.032l0.036,-0.031l0.037,-0.029l0.039,-0.028l0.04,-0.025l0.042,-0.023l0.043,-0.022l0.045,-0.019l0.047,-0.018l0.047,-0.015l0.05,-0.013l0.05,-0.011l0.052,-0.008l0.053,-0.006l0.054,-0.004l0.055,-0.001l3,0Zm-2.989,1l-0.011,0l0,7l9,0l0,-0.011l0,-5.936l0,-0.02l-0.001,-0.009l-0.001,-0.007l-0.001,-0.007l-0.001,-0.006l-0.001,-0.004l-0.007,0l-3.988,0l-0.066,-0.002l-0.066,-0.007l-0.065,-0.011l-0.065,-0.015l-0.063,-0.019l-0.062,-0.024l-0.06,-0.028l-1.789,-0.894l-2.753,0l0,0Z" style="fill-opacity:0.501961;"/><defs><linearGradient id="_Linear1" x1="0" y1="0" x2="1" y2="0" gradientUnits="userSpaceOnUse" gradientTransform="matrix(-1.2731e-15,7.91667,-7.91667,-1.2731e-15,-0.166667,9.16667)"><stop offset="0" style="stop-color:#dbdbdb;stop-opacity:1"/><stop offset="1" style="stop-color:#565656;stop-opacity:1"/></linearGradient></defs></svg>