<?xml version="1.0" encoding="UTF-8" standalone="no"?><!DOCTYPE svg PUBLIC "-//W3C//DTD SVG 1.1//EN" "http://www.w3.org/Graphics/SVG/1.1/DTD/svg11.dtd"><svg width="100%" height="100%" viewBox="0 0 11 25" version="1.1" xmlns="http://www.w3.org/2000/svg" xmlns:xlink="http://www.w3.org/1999/xlink" xml:space="preserve" style="fill-rule:evenodd;clip-rule:evenodd;stroke-linejoin:round;stroke-miterlimit:1.41421;"><path d="M8,23l1,0l0,1l-1,0l0,-1Zm-4,0l1,0l0,1l-1,0l0,-1Zm2,-2l1,0l0,1l-1,0l0,-1Zm2,-2l1,0l0,1l-1,0l0,-1Zm-4,0l1,0l0,1l-1,0l0,-1Zm2,-2l1,0l0,1l-1,0l0,-1Zm-2,-2l1,0l0,1l-1,0l0,-1Zm5,0l0,1l-1,0l0,-1l1,0Zm-3,-2l1,0l0,1l-1,0l0,-1Zm2,-2l1,0l0,1l-1,0l0,-1Zm-4,0l1,0l0,1l-1,0l0,-1Zm2,-2l1,0l0,1l-1,0l0,-1Zm2,-2l1,0l0,1l-1,0l0,-1Zm-4,0l1,0l0,1l-1,0l0,-1Zm2,-2l1,0l0,1l-1,0l0,-1Zm-2,-2l1,0l0,1l-1,0l0,-1Zm4,0l1,0l0,1l-1,0l0,-1Z" style="fill-opacity:0.6;"/></svg>