<?xml version="1.0" encoding="UTF-8" standalone="no"?><!DOCTYPE svg PUBLIC "-//W3C//DTD SVG 1.1//EN" "http://www.w3.org/Graphics/SVG/1.1/DTD/svg11.dtd"><svg width="100%" height="100%" viewBox="0 0 14 22" version="1.1" xmlns="http://www.w3.org/2000/svg" xmlns:xlink="http://www.w3.org/1999/xlink" xml:space="preserve" style="fill-rule:evenodd;clip-rule:evenodd;stroke-linejoin:round;stroke-miterlimit:1.41421;"><path d="M7,16.012l0,5.988l-1,0l0,-6l-4,0l0,-9l4,0l0,-7l1,0l0,7l4,0l0,4l3,0l0,1l-3,0l0,4c-1.333,0 -2.667,0.036 -4,0.012Zm3,-5.511l0,-2.501l-7,0l0,7l7,0c0,-1.5 0,-4.499 0,-4.499Z"/><path d="M7,11l2,0l0,1l-2,0l0,2l-1,0l0,-2l-2,0l0,-1l2,0l0,-2l1,0l0,2Z"/></svg>