<?xml version="1.0" encoding="UTF-8" standalone="no"?>
<!DOCTYPE svg PUBLIC "-//W3C//DTD SVG 1.1//EN" "http://www.w3.org/Graphics/SVG/1.1/DTD/svg11.dtd">
<svg width="22px" height="22px" version="1.1" xmlns="http://www.w3.org/2000/svg" xmlns:xlink="http://www.w3.org/1999/xlink" xml:space="preserve" xmlns:serif="http://www.serif.com/" style="fill-rule:evenodd;clip-rule:evenodd;stroke-linejoin:round;stroke-miterlimit:2;">
    <rect x="0" y="0" width="22" height="22" style="fill-opacity:0;"/>
    <g transform="matrix(1,0,0,1,0,1)">
        <path d="M17,5.5C17,5.224 16.776,5 16.5,5L14.5,5C14.224,5 14,5.224 14,5.5C14,5.776 14.224,6 14.5,6L16.5,6C16.776,6 17,5.776 17,5.5Z" style="fill:white;"/>
    </g>
    <g transform="matrix(1,0,0,1,1,1)">
        <path d="M8,5.5C8,5.224 7.776,5 7.5,5L5.5,5C5.224,5 5,5.224 5,5.5C5,5.776 5.224,6 5.5,6L7.5,6C7.776,6 8,5.776 8,5.5Z" style="fill:white;"/>
    </g>
    <g transform="matrix(0.5,0,0,1,6,1)">
        <path d="M12,5.5C12,5.224 11.552,5 11,5C10.448,5 10,5.224 10,5.5C10,5.776 10.448,6 11,6C11.552,6 12,5.776 12,5.5Z" style="fill:white;"/>
    </g>
    <path d="M17.5,14C19.432,14 21,15.568 21,17.5C21,19.432 19.432,21 17.5,21C15.568,21 14,19.432 14,17.5C14,15.568 15.568,14 17.5,14ZM18,17L20,17L20,18L18,18L18,20L17,20L17,18L15,18L15,17L17,17L17,15L18,15L18,17Z" style="fill:white;"/>
    <path d="M13.028,17L6.5,17C6.224,17 6,16.776 6,16.5L6,9.5C6,9.224 6.224,9 6.5,9L16.5,9C16.776,9 17,9.224 17,9.5L17,13.028C16.653,13.066 16.318,13.144 16,13.256L16,10L7,10L7,16L13.256,16C13.144,16.319 13.066,16.653 13.028,17Z" style="fill:white;"/>
    <path d="M13.256,19L6,19C5.47,19 4.961,18.789 4.586,18.414C4.211,18.039 4,17.53 4,17C4,14.126 4,8.874 4,6C4,5.47 4.211,4.961 4.586,4.586C4.961,4.211 5.47,4 6,4C8.874,4 14.126,4 17,4C17.53,4 18.039,4.211 18.414,4.586C18.789,4.961 19,5.47 19,6L19,13.256C18.681,13.144 18.347,13.066 18,13.028L18,6C18,5.735 17.895,5.48 17.707,5.293C17.52,5.105 17.265,5 17,5C14.126,5 8.874,5 6,5C5.735,5 5.48,5.105 5.293,5.293C5.105,5.48 5,5.735 5,6C5,8.874 5,14.126 5,17C5,17.265 5.105,17.52 5.293,17.707C5.48,17.895 5.735,18 6,18L13.028,18C13.066,18.347 13.144,18.682 13.256,19Z" style="fill:white;"/>
    <g transform="matrix(1,0,0,1,1,1)">
        <path d="M2,16.732C1.85,16.645 1.71,16.539 1.586,16.414C1.211,16.039 1,15.53 1,15C1,12.126 1,5.874 1,3C1,2.47 1.211,1.961 1.586,1.586C1.961,1.211 2.47,1 3,1C5.874,1 12.126,1 15,1C15.53,1 16.039,1.211 16.414,1.586C16.539,1.71 16.645,1.85 16.732,2L3,2C2.735,2 2.48,2.105 2.293,2.293C2.105,2.48 2,2.735 2,3L2,16.732Z" style="fill:white;"/>
    </g>
</svg>

