<?xml version="1.0" encoding="UTF-8" standalone="no"?>
<!DOCTYPE svg PUBLIC "-//W3C//DTD SVG 1.1//EN" "http://www.w3.org/Graphics/SVG/1.1/DTD/svg11.dtd">
<svg width="22px" height="22px" version="1.1" xmlns="http://www.w3.org/2000/svg" xmlns:xlink="http://www.w3.org/1999/xlink" xml:space="preserve" xmlns:serif="http://www.serif.com/" style="fill-rule:evenodd;clip-rule:evenodd;stroke-linejoin:round;stroke-miterlimit:2;">
    <rect x="0" y="0" width="22" height="22" style="fill-opacity:0;"/>
    <g transform="matrix(0.571444,0,0,0.571444,-167.005,-11.5719)">
        <path d="M323.095,43.086C322.37,42.971 321.63,42.971 320.905,43.086C320.699,43.689 320.589,44.31 320.575,44.947C320.178,45.059 319.795,45.218 319.435,45.419C318.974,44.979 318.458,44.618 317.886,44.337C317.291,44.769 316.769,45.291 316.337,45.886C316.618,46.458 316.979,46.974 317.419,47.435C317.218,47.795 317.059,48.178 316.947,48.575C316.31,48.589 315.689,48.699 315.086,48.905C314.971,49.63 314.971,50.37 315.086,51.095C315.689,51.301 316.31,51.411 316.947,51.425C317.059,51.822 317.218,52.205 317.419,52.565C316.979,53.026 316.618,53.542 316.337,54.114C316.769,54.709 317.291,55.231 317.886,55.663C318.458,55.382 318.974,55.021 319.435,54.581C319.795,54.782 320.178,54.941 320.575,55.053C320.589,55.69 320.699,56.311 320.905,56.914C321.63,57.029 322.37,57.029 323.095,56.914C323.301,56.311 323.411,55.69 323.425,55.053C323.822,54.941 324.205,54.782 324.565,54.581C325.026,55.021 325.542,55.382 326.114,55.663C326.709,55.231 327.231,54.709 327.663,54.114C327.382,53.542 327.021,53.026 326.581,52.565C326.782,52.205 326.941,51.822 327.053,51.425C327.69,51.411 328.311,51.301 328.914,51.095C329.029,50.37 329.029,49.63 328.914,48.905C328.311,48.699 327.69,48.589 327.053,48.575C326.941,48.178 326.782,47.795 326.581,47.435C327.021,46.974 327.382,46.458 327.663,45.886C327.231,45.291 326.709,44.769 326.114,44.337C325.542,44.618 325.026,44.979 324.565,45.419C324.205,45.218 323.822,45.059 323.425,44.947C323.411,44.31 323.301,43.689 323.095,43.086ZM322,46.53C323.915,46.53 325.47,48.085 325.47,50C325.47,51.915 323.915,53.47 322,53.47C320.085,53.47 318.53,51.915 318.53,50C318.53,48.085 320.085,46.53 322,46.53Z" style="fill:white;"/>
    </g>
    <path d="M13.172,13.784L12,13L12,14.26C12,14.457 11.922,14.645 11.783,14.783C11.645,14.922 11.457,15 11.26,15C9.559,15 5.513,15 5.513,15C5.23,15 5,14.715 5,14.364L5,13L3,13L3,11L5,11L5,10.636C5,10.285 5.23,10 5.513,10L7,10L7,9L5.5,9C4.12,9 3,7.88 3,6.5C3,5.12 4.12,4 5.5,4C6.709,4 7.718,4.859 7.95,6L9,6C9,4.344 10.344,3 12,3C13.656,3 15,4.344 15,6C15,7.656 13.656,9 12,9L10,9L10,10L11.487,10C11.77,10 12,10.285 12,10.636L12,12L15,10L16,10L16,12.122C15.734,12.229 15.523,12.448 15.428,12.726C15.397,12.817 15.368,12.909 15.343,13.001C15.261,12.954 15.176,12.909 15.09,12.867C14.757,12.703 14.361,12.737 14.061,12.955C13.732,13.194 13.433,13.473 13.172,13.784ZM5.5,5.5C6.052,5.5 6.5,5.948 6.5,6.5C6.5,7.052 6.052,7.5 5.5,7.5C4.948,7.5 4.5,7.052 4.5,6.5C4.5,5.948 4.948,5.5 5.5,5.5ZM12,5C12.552,5 13,5.448 13,6C13,6.552 12.552,7 12,7C11.448,7 11,6.552 11,6C11,5.448 11.448,5 12,5Z" style="fill:white;"/>
</svg>

