<?xml version="1.0" encoding="UTF-8" standalone="no"?>
<!DOCTYPE svg PUBLIC "-//W3C//DTD SVG 1.1//EN" "http://www.w3.org/Graphics/SVG/1.1/DTD/svg11.dtd">
<svg width="22px" height="22px" version="1.1" xmlns="http://www.w3.org/2000/svg" xmlns:xlink="http://www.w3.org/1999/xlink" xml:space="preserve" xmlns:serif="http://www.serif.com/" style="fill-rule:evenodd;clip-rule:evenodd;stroke-linejoin:round;stroke-miterlimit:2;">
    <rect x="0" y="0" width="22" height="22" style="fill-opacity:0;"/>
    <g transform="matrix(0.571444,0,0,0.571444,-167.005,-11.5719)">
        <path d="M323.095,43.086C322.37,42.971 321.63,42.971 320.905,43.086C320.699,43.689 320.589,44.31 320.575,44.947C320.178,45.059 319.795,45.218 319.435,45.419C318.974,44.979 318.458,44.618 317.886,44.337C317.291,44.769 316.769,45.291 316.337,45.886C316.618,46.458 316.979,46.974 317.419,47.435C317.218,47.795 317.059,48.178 316.947,48.575C316.31,48.589 315.689,48.699 315.086,48.905C314.971,49.63 314.971,50.37 315.086,51.095C315.689,51.301 316.31,51.411 316.947,51.425C317.059,51.822 317.218,52.205 317.419,52.565C316.979,53.026 316.618,53.542 316.337,54.114C316.769,54.709 317.291,55.231 317.886,55.663C318.458,55.382 318.974,55.021 319.435,54.581C319.795,54.782 320.178,54.941 320.575,55.053C320.589,55.69 320.699,56.311 320.905,56.914C321.63,57.029 322.37,57.029 323.095,56.914C323.301,56.311 323.411,55.69 323.425,55.053C323.822,54.941 324.205,54.782 324.565,54.581C325.026,55.021 325.542,55.382 326.114,55.663C326.709,55.231 327.231,54.709 327.663,54.114C327.382,53.542 327.021,53.026 326.581,52.565C326.782,52.205 326.941,51.822 327.053,51.425C327.69,51.411 328.311,51.301 328.914,51.095C329.029,50.37 329.029,49.63 328.914,48.905C328.311,48.699 327.69,48.589 327.053,48.575C326.941,48.178 326.782,47.795 326.581,47.435C327.021,46.974 327.382,46.458 327.663,45.886C327.231,45.291 326.709,44.769 326.114,44.337C325.542,44.618 325.026,44.979 324.565,45.419C324.205,45.218 323.822,45.059 323.425,44.947C323.411,44.31 323.301,43.689 323.095,43.086ZM322,46.53C323.915,46.53 325.47,48.085 325.47,50C325.47,51.915 323.915,53.47 322,53.47C320.085,53.47 318.53,51.915 318.53,50C318.53,48.085 320.085,46.53 322,46.53Z" style="fill:white;"/>
    </g>
    <path d="M12.095,17.926C11.715,18.895 11.393,19.853 11.145,20.719C10.838,21.026 9.85,20.75 9.85,20.75C9.818,18.701 10.768,17.041 10.806,16.929C10.816,16.899 9.526,18.188 8.366,19.9C8.33,19.953 8.237,19.868 8.182,19.83C6.803,18.88 4.21,16.25 4.21,16.25C4.896,15.71 5.872,14.726 6.301,13.928C5.608,14.553 4.176,15.158 3.354,15.398C3.354,15.398 2.827,14.699 2.566,14.339C2.546,14.313 2.508,14.26 2.508,14.26C4.117,13.516 5.375,12.524 7.508,10.379C5.981,11.372 3.196,12.007 1.343,12.126C1.343,12.126 0.945,11.176 1.273,10.848C4.199,10.4 6.603,9.107 8.975,7.454C10.274,6.179 12.527,6.06 14.23,7.763C15.839,9.372 15.792,11.051 14.802,12.776C14.545,12.736 14.278,12.797 14.061,12.954C13.636,13.263 13.263,13.636 12.954,14.061C12.737,14.361 12.703,14.757 12.866,15.09C12.909,15.176 12.953,15.261 13.001,15.343C12.909,15.368 12.817,15.397 12.726,15.428C12.375,15.548 12.119,15.851 12.061,16.217C11.979,16.735 11.979,17.264 12.061,17.782C12.069,17.831 12.08,17.879 12.095,17.926ZM14.786,5.792L19.15,1.429C19.54,1.038 20.174,1.038 20.564,1.429C20.954,1.819 20.954,2.453 20.564,2.843L16.2,7.206C16.587,8.017 16.589,8.965 16.208,9.777C16.208,8.852 15.825,7.943 14.937,7.055C14.102,6.22 13.134,5.824 12.212,5.786C13.024,5.403 13.975,5.405 14.786,5.792ZM6.934,2.419L6.006,4.077C5.97,4.142 5.95,4.216 5.95,4.29C5.95,4.365 5.97,4.438 6.006,4.503L6.934,6.161L5.277,5.233C5.212,5.196 5.138,5.177 5.064,5.177C4.989,5.177 4.916,5.196 4.851,5.233L3.193,6.161L4.121,4.503C4.158,4.438 4.177,4.365 4.177,4.29C4.177,4.216 4.158,4.142 4.121,4.077L3.193,2.419L4.851,3.348C4.916,3.384 4.989,3.403 5.064,3.403C5.138,3.403 5.212,3.384 5.277,3.348L6.934,2.419Z" style="fill:white;"/>
</svg>

