<?xml version="1.0" encoding="UTF-8" standalone="no"?>
<!DOCTYPE svg PUBLIC "-//W3C//DTD SVG 1.1//EN" "http://www.w3.org/Graphics/SVG/1.1/DTD/svg11.dtd">
<svg width="22px" height="22px" version="1.1" xmlns="http://www.w3.org/2000/svg" xmlns:xlink="http://www.w3.org/1999/xlink" xml:space="preserve" xmlns:serif="http://www.serif.com/" style="fill-rule:evenodd;clip-rule:evenodd;stroke-linejoin:round;stroke-miterlimit:2;">
    <rect x="0" y="0" width="22" height="22" style="fill-opacity:0;"/>
    <path id="path832" d="M9.333,17.492C9.333,17.492 11.519,14 15.167,14C18.814,14 21,17.492 21,17.492C21,17.492 18.823,21 15.167,21C11.51,21 9.333,17.492 9.333,17.492ZM15.167,15C16.5,15 17.583,16.12 17.583,17.5C17.583,18.88 16.5,20 15.167,20C13.833,20 12.75,18.88 12.75,17.5C12.75,16.12 13.833,15 15.167,15ZM14.563,15.563C15.115,15.563 15.563,16.011 15.563,16.563C15.563,17.115 15.115,17.563 14.563,17.563C14.011,17.563 13.563,17.115 13.563,16.563C13.563,16.011 14.011,15.563 14.563,15.563Z" style="fill:white;"/>
    <path d="M9.853,20.429C10.063,20.578 10.285,20.723 10.516,20.861C10.179,20.842 9.85,20.75 9.85,20.75C9.848,20.642 9.849,20.535 9.853,20.429ZM8.673,19.46C8.57,19.603 8.468,19.749 8.366,19.9C8.33,19.953 8.237,19.868 8.182,19.83C6.803,18.88 4.21,16.25 4.21,16.25C4.896,15.71 5.872,14.726 6.301,13.928C5.608,14.553 4.176,15.158 3.354,15.398C3.354,15.398 2.827,14.699 2.566,14.339C2.546,14.313 2.508,14.26 2.508,14.26C4.117,13.516 5.375,12.524 7.508,10.379C5.981,11.372 3.196,12.007 1.343,12.126C1.343,12.126 0.945,11.176 1.273,10.848C4.199,10.4 6.603,9.107 8.975,7.454C10.274,6.179 12.527,6.06 14.23,7.763C15.91,9.443 15.784,11.198 14.667,13.002C14.611,13.001 14.556,13 14.5,13C9.81,13 7,17.49 7,17.49C7,17.49 7.586,18.435 8.673,19.46ZM19.455,14.793C19.222,14.615 18.974,14.442 18.713,14.277L20.214,13.436L19.455,14.793ZM14.786,5.792L19.15,1.429C19.54,1.038 20.174,1.038 20.564,1.429C20.954,1.819 20.954,2.453 20.564,2.843L16.2,7.206C16.587,8.017 16.589,8.965 16.208,9.777C16.208,8.852 15.825,7.943 14.937,7.055C14.102,6.22 13.134,5.824 12.212,5.786C13.024,5.403 13.975,5.405 14.786,5.792ZM6.934,2.419L6.006,4.077C5.97,4.142 5.95,4.216 5.95,4.29C5.95,4.365 5.97,4.438 6.006,4.503L6.934,6.161L5.277,5.233C5.212,5.196 5.138,5.177 5.064,5.177C4.989,5.177 4.916,5.196 4.851,5.233L3.193,6.161L4.121,4.503C4.158,4.438 4.177,4.365 4.177,4.29C4.177,4.216 4.158,4.142 4.121,4.077L3.193,2.419L4.851,3.348C4.916,3.384 4.989,3.403 5.064,3.403C5.138,3.403 5.212,3.384 5.277,3.348L6.934,2.419Z" style="fill:white;"/>
</svg>

