<?xml version="1.0" encoding="UTF-8" standalone="no"?>
<!DOCTYPE svg PUBLIC "-//W3C//DTD SVG 1.1//EN" "http://www.w3.org/Graphics/SVG/1.1/DTD/svg11.dtd">
<svg width="22px" height="22px" version="1.1" xmlns="http://www.w3.org/2000/svg" xmlns:xlink="http://www.w3.org/1999/xlink" xml:space="preserve" xmlns:serif="http://www.serif.com/" style="fill-rule:evenodd;clip-rule:evenodd;stroke-linejoin:round;stroke-miterlimit:2;">
    <rect x="0" y="0" width="22" height="22" style="fill-opacity:0;"/>
    <g transform="matrix(1,0,0,1,0,1)">
        <g transform="matrix(1,0,0,1,0,-1)">
            <path d="M15,12L14,12L15.5,10L17,12L16,12L16,15L19,15L19,14L21,15.5L19,17L19,16L16,16L16,19L17,19L15.5,21L14,19L15,19L15,16L12,16L12,17L10,15.5L12,14L12,15L15,15L15,12Z" style="fill:white;"/>
        </g>
        <g transform="matrix(1,0,0,1,0,-1)">
            <path d="M13.834,10.555L13.2,11.4C12.973,11.703 12.936,12.108 13.106,12.447C13.275,12.786 13.621,13 14,13L14,13.65C13.89,13.661 13.779,13.667 13.667,13.667L12.943,13.667C12.858,13.427 12.683,13.223 12.447,13.106C12.108,12.936 11.703,12.973 11.4,13.2L9.4,14.7C9.148,14.889 9,15.185 9,15.5C9,15.815 9.148,16.111 9.4,16.3L10.276,16.957C7.304,16.599 5,14.068 5,11C5,7.687 7.687,5 11,5C14.313,5 17,7.387 17,10.333L16.3,9.4C16.111,9.148 15.815,9 15.5,9C15.354,9 15.213,9.032 15.084,9.091C14.957,9.032 14.816,9 14.667,9C14.113,9 13.667,9.447 13.667,10C13.667,10.205 13.728,10.396 13.834,10.555ZM7.333,11C6.78,11 6.333,10.553 6.333,10C6.333,9.447 6.78,9 7.333,9C7.887,9 8.333,9.447 8.333,10C8.333,10.553 7.887,11 7.333,11ZM9.333,8.333C8.78,8.333 8.333,7.887 8.333,7.333C8.333,6.78 8.78,6.333 9.333,6.333C9.887,6.333 10.333,6.78 10.333,7.333C10.333,7.887 9.887,8.333 9.333,8.333ZM12.667,8.333C12.113,8.333 11.667,7.887 11.667,7.333C11.667,6.78 12.113,6.333 12.667,6.333C13.22,6.333 13.667,6.78 13.667,7.333C13.667,7.887 13.22,8.333 12.667,8.333Z" style="fill:white;"/>
        </g>
    </g>
</svg>

