<?xml version="1.0" encoding="UTF-8" standalone="no"?>
<!DOCTYPE svg PUBLIC "-//W3C//DTD SVG 1.1//EN" "http://www.w3.org/Graphics/SVG/1.1/DTD/svg11.dtd">
<svg width="22px" height="22px" version="1.1" xmlns="http://www.w3.org/2000/svg" xmlns:xlink="http://www.w3.org/1999/xlink" xml:space="preserve" xmlns:serif="http://www.serif.com/" style="fill-rule:evenodd;clip-rule:evenodd;stroke-linejoin:round;stroke-miterlimit:2;">
    <rect x="0" y="0" width="22" height="22" style="fill-opacity:0;"/>
    <g transform="matrix(1,0,0,1,0,-1)">
        <g>
            <g transform="matrix(1,0,0,1,-1,1)">
                <path d="M9,16L3.5,16C3.224,16 3,15.776 3,15.5L3,3.5C3,3.224 3.224,3 3.5,3L12,3C12.265,3 12.52,3.105 12.707,3.293C12.895,3.48 13,3.735 13,4L13,5L12,5L12,4L4,4L4,15L9,15L9,16Z" style="fill:white;"/>
            </g>
            <g transform="matrix(-0.707107,-0.707107,0.707107,-0.707107,14.5787,29.0472)">
                <g transform="matrix(-0.707107,0.707107,-0.707107,-0.707107,30.141,9.52362)">
                    <path d="M8,12.999C8,12.999 7.997,12.999 7.99,12.999C7.462,12.999 6.956,12.79 6.583,12.417C6.21,12.044 6,11.538 6,11.01C6,10.455 6,10 6,10L7,10L7,11.045C7,11.573 7.427,12 7.955,12C9.648,12 13,12 13,12L13,10L15.5,12.5L13,15L13,13L8,12.999ZM7,8L6,8L6,9L7,9L7,8ZM7,6L6,6L6,7L7,7L7,6Z" style="fill:white;"/>
                </g>
                <g transform="matrix(-0.707107,0.707107,-0.707107,-0.707107,30.141,9.52362)">
                    <path d="M8,12.999C8,12.999 7.997,12.999 7.99,12.999C7.462,12.999 6.956,12.79 6.583,12.417C6.21,12.044 6,11.538 6,11.01C6,10.455 6,10 6,10L7,10L7,11.045C7,11.573 7.427,12 7.955,12C9.648,12 13,12 13,12L13,10L15.5,12.5L13,15L13,13L8,12.999ZM7,8L6,8L6,9L7,9L7,8ZM7,6L6,6L6,7L7,7L7,6Z" style="fill:white;"/>
                </g>
                <g transform="matrix(-0.707107,0.707107,-0.707107,-0.707107,30.141,9.52362)">
                    <path d="M19,18.083C19,18.589 18.602,19 18.111,19L9.889,19C9.398,19 9,18.589 9,18.083L9,13.999L12,14L12,15C12,15.404 12.244,15.769 12.617,15.924C12.991,16.079 13.421,15.993 13.707,15.707L16.207,13.207C16.598,12.817 16.598,12.183 16.207,11.793L13.707,9.293C13.421,9.007 12.991,8.921 12.617,9.076C12.244,9.231 12,9.596 12,10L12,11L9,11L9,6.917C9,6.411 9.398,6 9.889,6L16,6L16,9L19,9L19,18.083ZM9,12L13,12L13,10L15.5,12.5L13,15L13,13L9,12.999L9,12ZM17,6L19,8L17,8L17,6Z" style="fill:white;"/>
                </g>
            </g>
        </g>
    </g>
</svg>

