<?xml version="1.0" encoding="UTF-8" standalone="no"?>
<!DOCTYPE svg PUBLIC "-//W3C//DTD SVG 1.1//EN" "http://www.w3.org/Graphics/SVG/1.1/DTD/svg11.dtd">
<svg width="22px" height="22px" version="1.1" xmlns="http://www.w3.org/2000/svg" xmlns:xlink="http://www.w3.org/1999/xlink" xml:space="preserve" xmlns:serif="http://www.serif.com/" style="fill-rule:evenodd;clip-rule:evenodd;stroke-linejoin:round;stroke-miterlimit:2;">
    <rect x="0" y="0" width="22" height="22" style="fill-opacity:0;"/>
    <path d="M6,15.041C5.895,14.837 5.804,14.625 5.731,14.406C5.347,14.236 4.567,13.765 3.5,12.5C2.844,11.722 2,9 2,9L1,8L3,8L5.986,10.986C6.387,10.196 7.016,9.513 7.801,9L14.699,9C14.978,9.182 15.238,9.386 15.474,9.609C15.872,9.307 16.516,8.995 17.475,8.992C18.659,8.988 19.268,9.374 19.608,9.861C20.079,10.534 19.992,11.463 19.997,11.823C20.003,12.233 19.889,12.632 19.706,13L18.138,13C18.42,12.667 18.645,12.247 18.686,11.805C18.7,11.651 18.727,11.358 18.689,11.043C18.666,10.85 18.614,10.635 18.431,10.485C18.236,10.326 17.93,10.249 17.473,10.251C16.894,10.253 16.516,10.442 16.297,10.604C16.745,11.315 17,12.132 17,13L6,13L6,15.041ZM10.218,6.279C10.08,6.052 10,5.785 10,5.5C10,4.672 10.672,4 11.5,4C12.328,4 13,4.672 13,5.5C13,5.785 12.92,6.052 12.782,6.279C13.65,6.575 14.5,7 14.5,7C14.769,7.145 15,7.224 15,7.5C15,7.776 14.776,8 14.5,8L8.5,8C8.224,8 8,7.776 8,7.5C8,7.224 8.226,7.14 8.5,7C8.5,7 9.35,6.575 10.218,6.279Z" style="fill:white;"/>
    <path d="M22,14L7,14L7,22L22,22L22,14ZM9,18.096L9,20.5C9,20.776 8.776,21 8.5,21C8.224,21 8,20.776 8,20.5L8,15.5C8,15.26 8.17,15.054 8.405,15.009C8.641,14.964 8.875,15.092 8.964,15.314L10.5,19.154L12.036,15.314C12.125,15.092 12.359,14.964 12.595,15.009C12.83,15.054 13,15.26 13,15.5L13,20.5C13,20.776 12.776,21 12.5,21C12.224,21 12,20.776 12,20.5L12,18.096L10.964,20.686C10.888,20.876 10.704,21 10.5,21C10.296,21 10.112,20.876 10.036,20.686L9,18.096ZM14.01,15.399C14.057,15.171 14.259,15 14.5,15L16.5,15C16.776,15 17,15.224 17,15.5L17,17.5C17,17.776 16.776,18 16.5,18L15,18L15,20.5C15,20.776 14.776,21 14.5,21C14.224,21 14,20.776 14,20.5L14.003,15.448L14.01,15.399ZM20,17L20,15.5C20,15.224 20.224,15 20.5,15C20.776,15 21,15.224 21,15.5L21,20.5L20.994,20.576L20.97,20.672L20.928,20.759L20.87,20.836L20.799,20.901L20.717,20.951L20.625,20.984L20.551,20.997L20.474,20.999L20.399,20.99L20.305,20.961L20.22,20.915L20.146,20.854L20.085,20.78L20.039,20.695L20.01,20.601L20.001,20.526L20,18L18.5,18C18.224,18 18,17.776 18,17.5L18,15.5C18,15.224 18.224,15 18.5,15C18.776,15 19,15.224 19,15.5L19,17L20,17ZM15,17L16,17L16,16L15,16L15,17Z" style="fill:white;"/>
</svg>

