<?xml version="1.0" encoding="UTF-8" standalone="no"?>
<!DOCTYPE svg PUBLIC "-//W3C//DTD SVG 1.1//EN" "http://www.w3.org/Graphics/SVG/1.1/DTD/svg11.dtd">
<svg width="22px" height="22px" version="1.1" xmlns="http://www.w3.org/2000/svg" xmlns:xlink="http://www.w3.org/1999/xlink" xml:space="preserve" xmlns:serif="http://www.serif.com/" style="fill-rule:evenodd;clip-rule:evenodd;stroke-linecap:round;stroke-linejoin:round;stroke-miterlimit:1.5;">
    <rect x="0" y="0" width="22" height="22" style="fill-opacity:0;"/>
    <g transform="matrix(0.557146,0,0,0.557146,10.1357,9.56457)">
        <g transform="matrix(1,0,0,1,0,-0.560768)">
            <path d="M4.201,20.207C4.201,20.207 7.081,20.346 7.5,18.5C7.979,16.389 5.879,15.594 3.5,13.5C3.179,13.217 2.944,12.876 2.778,12.498C1.918,10.529 2.949,7.557 3.527,6.599C4.058,5.719 5.46,3.238 8.713,2.384C11.632,1.618 17.452,2.862 18.46,8.062C19.019,10.946 17.608,13.164 16.808,13.641C14.712,14.89 12.158,14.86 8.878,14.789" style="fill:none;stroke:white;stroke-width:1.79px;"/>
        </g>
        <g transform="matrix(1.79486,0,0,1.79486,-18.1921,-17.1671)">
            <path d="M13.552,9.516C13.639,9.081 13.646,8.587 13.492,7.997C13.476,8.075 13.438,8.15 13.377,8.211L7.264,14.325C7.029,14.559 6.712,14.691 6.38,14.691C6.049,14.69 5.732,14.559 5.498,14.325L1.38,10.207C1.145,9.972 1.014,9.655 1.013,9.324C1.013,8.992 1.145,8.675 1.379,8.441L4.72,5.099L2.316,2.695C2.072,2.451 2.072,2.055 2.316,1.812C2.559,1.568 2.955,1.568 3.199,1.812L5.604,4.216L7.493,2.327C7.656,2.164 7.919,2.164 8.082,2.327L13.376,7.621L13.373,7.614C13.806,8.094 14.239,8.606 14.624,9.126L14.609,9.13C14.223,9.231 13.871,9.363 13.552,9.516ZM6.192,4.805L7.283,5.896C7.527,6.14 7.527,6.536 7.284,6.78C7.04,7.023 6.644,7.023 6.4,6.779L5.309,5.688L2.955,8.042L12.38,8.031L12.495,7.917L7.787,3.21L6.192,4.805Z" style="fill:white;"/>
        </g>
        <g transform="matrix(0.876496,0,0,1.01049,1.95168,-2.5686)">
            <ellipse cx="5.534" cy="16.339" rx="3.034" ry="1.839" style="fill:white;stroke:white;stroke-width:1.9px;"/>
        </g>
    </g>
</svg>

