<?xml version="1.0" encoding="UTF-8" standalone="no"?>
<!DOCTYPE svg PUBLIC "-//W3C//DTD SVG 1.1//EN" "http://www.w3.org/Graphics/SVG/1.1/DTD/svg11.dtd">
<svg width="22px" height="22px" version="1.1" xmlns="http://www.w3.org/2000/svg" xmlns:xlink="http://www.w3.org/1999/xlink" xml:space="preserve" xmlns:serif="http://www.serif.com/" style="fill-rule:evenodd;clip-rule:evenodd;stroke-linejoin:round;stroke-miterlimit:2;">
    <rect x="0" y="0" width="22" height="22" style="fill-opacity:0;"/>
    <path d="M22,11L13,11L13,22L22,22L22,11ZM15.972,18L14.968,20.676C14.871,20.934 14.583,21.065 14.324,20.968C14.066,20.871 13.935,20.583 14.032,20.324L17.032,12.324C17.129,12.066 17.417,11.935 17.676,12.032C17.816,12.085 17.919,12.194 17.968,12.324L20.968,20.324L20.032,20.676L19.028,18L15.972,18ZM16.347,17L18.653,17L17.5,13.924L16.347,17Z" style="fill:white;"/>
    <path d="M13.419,10C13.609,9.45 13.705,8.817 13.492,7.997C13.476,8.075 13.438,8.15 13.377,8.211C13.377,8.211 7.264,14.325 7.264,14.325C7.029,14.559 6.712,14.691 6.38,14.691C6.049,14.69 5.732,14.559 5.498,14.325C5.498,14.325 1.38,10.207 1.38,10.207C1.145,9.972 1.014,9.655 1.013,9.324C1.013,8.992 1.145,8.675 1.379,8.441L4.72,5.099L2.316,2.695C2.072,2.451 2.072,2.055 2.316,1.812C2.559,1.568 2.955,1.568 3.199,1.812L5.604,4.216L7.493,2.327C7.656,2.164 7.919,2.164 8.082,2.327L13.376,7.621L13.373,7.614C14.048,8.363 14.722,9.188 15.219,10L13.419,10ZM6.192,4.805L7.283,5.896C7.527,6.14 7.527,6.536 7.284,6.78C7.04,7.023 6.644,7.023 6.4,6.779L5.309,5.688L2.955,8.042L12.38,8.031L12.495,7.917L7.787,3.21L6.192,4.805Z" style="fill:white;"/>
</svg>

