<?xml version="1.0" encoding="UTF-8" standalone="no"?>
<!DOCTYPE svg PUBLIC "-//W3C//DTD SVG 1.1//EN" "http://www.w3.org/Graphics/SVG/1.1/DTD/svg11.dtd">
<svg width="22px" height="22px" version="1.1" xmlns="http://www.w3.org/2000/svg" xmlns:xlink="http://www.w3.org/1999/xlink" xml:space="preserve" xmlns:serif="http://www.serif.com/" style="fill-rule:evenodd;clip-rule:evenodd;stroke-linejoin:round;stroke-miterlimit:2;">
    <rect x="0" y="0" width="22" height="22" style="fill-opacity:0;"/>
    <g transform="matrix(1,0,0,1,-500,-17)">
        <path d="M511,21C514.863,21 518,24.137 518,28C518,31.863 514.863,35 511,35C507.137,35 504,31.863 504,28C504,24.137 507.137,21 511,21ZM511.991,32.832L511.991,30.911L510.07,30.911L510.07,32.832L511.991,32.832ZM511.813,30.248C511.804,29.719 511.849,29.353 511.947,29.147C512.045,28.942 512.297,28.671 512.702,28.334C513.486,27.682 513.998,27.167 514.237,26.789C514.476,26.411 514.596,26.01 514.596,25.586C514.596,24.82 514.27,24.149 513.618,23.573C512.966,22.996 512.089,22.708 510.986,22.708C509.938,22.708 509.092,22.993 508.447,23.562C507.802,24.132 507.454,24.825 507.404,25.641L509.168,25.859C509.291,25.29 509.517,24.866 509.845,24.588C510.173,24.31 510.581,24.171 511.068,24.171C511.574,24.171 511.976,24.304 512.275,24.571C512.573,24.837 512.723,25.158 512.723,25.531C512.723,25.8 512.638,26.046 512.47,26.27C512.36,26.411 512.025,26.709 511.465,27.165C510.904,27.621 510.531,28.031 510.344,28.395C510.157,28.76 510.063,29.225 510.063,29.79C510.063,29.845 510.066,29.997 510.07,30.248L511.813,30.248Z" style="fill:white;"/>
    </g>
</svg>

