<?xml version="1.0" encoding="UTF-8" standalone="no"?>
<!DOCTYPE svg PUBLIC "-//W3C//DTD SVG 1.1//EN" "http://www.w3.org/Graphics/SVG/1.1/DTD/svg11.dtd">
<svg width="22px" height="22px" version="1.1" xmlns="http://www.w3.org/2000/svg" xmlns:xlink="http://www.w3.org/1999/xlink" xml:space="preserve" xmlns:serif="http://www.serif.com/" style="fill-rule:evenodd;clip-rule:evenodd;stroke-linejoin:round;stroke-miterlimit:2;">
    <rect x="0" y="0" width="22" height="22" style="fill-opacity:0;"/>
    <g transform="matrix(1,0,0,1,5.5,7)">
        <path d="M15.5,11C15.5,9.344 14.156,8 12.5,8L9.5,8C7.844,8 6.5,9.344 6.5,11C6.5,12.656 7.844,14 9.5,14L12.5,14C14.156,14 15.5,12.656 15.5,11ZM12.5,9C13.604,9 14.5,9.902 14.5,11.012C14.5,12.123 13.604,13.025 12.5,13.025C11.396,13.025 10.5,12.123 10.5,11.012C10.5,9.902 11.396,9 12.5,9Z" style="fill:white;"/>
    </g>
    <path d="M11,18.012L4.001,18.012C2.897,18.012 2.001,17.116 2.001,16.013L2.001,4C2.001,2.896 2.897,2 4.001,2L15.999,2C17.103,2 17.999,2.896 17.999,4L17.999,14.012L15,14.012C12.792,14.012 11,15.805 11,18.012ZM16.443,11.744C16.306,11.593 16.13,11.513 15.935,11.513C15.776,11.513 15.384,11.569 15.194,12.08C15.146,12.209 15.132,12.277 15.067,12.27C14.957,12.259 14.531,11.803 14.391,11.134L14.045,9.516C14.319,9.073 14.6,8.731 14.88,8.499C15.031,8.376 15.203,8.311 15.411,8.299C15.944,8.263 16.137,8.196 16.268,8.104C16.484,7.949 16.602,7.724 16.602,7.471C16.602,7.248 16.518,7.05 16.358,6.897C16.204,6.749 15.998,6.671 15.764,6.671C15.42,6.671 15.033,6.83 14.582,7.158C14.315,7.351 14.033,7.633 13.728,8.01C13.629,7.64 13.544,7.468 13.481,7.365C13.286,7.043 12.97,7.043 12.866,7.043L12.753,7.045L9.538,7.121L9.719,6.353C9.835,5.852 9.986,5.455 10.169,5.175C10.258,5.038 10.394,4.875 10.537,4.875C10.591,4.875 10.698,4.884 10.897,4.925C11.452,5.045 11.659,5.059 11.767,5.059C12.006,5.059 12.215,4.979 12.374,4.829C12.538,4.673 12.624,4.468 12.624,4.238C12.624,4.058 12.565,3.798 12.283,3.58C12.089,3.429 11.822,3.352 11.49,3.352C10.992,3.352 10.464,3.511 9.922,3.825C9.383,4.137 8.94,4.567 8.605,5.104C8.312,5.576 8.057,6.238 7.83,7.121L6.414,7.121L6.102,8.353L7.522,8.353L6.443,12.693C6.219,13.592 6.055,13.813 6.011,13.859C5.889,13.985 5.637,14.012 5.447,14.012C5.212,14.012 4.962,13.995 4.701,13.962C4.522,13.94 4.385,13.929 4.284,13.929C4.022,13.929 3.806,13.997 3.644,14.131C3.462,14.28 3.362,14.496 3.362,14.738C3.362,14.927 3.424,15.199 3.716,15.421C3.916,15.571 4.189,15.648 4.527,15.648C5.374,15.648 6.163,15.311 6.872,14.648C7.562,14.003 8.068,13.056 8.375,11.831L9.229,8.353L12.14,8.403L12.453,9.747L11.815,10.689C11.7,10.857 11.529,11.065 11.304,11.308C11.187,11.436 11.109,11.507 11.064,11.544C10.881,11.319 10.673,11.206 10.446,11.206C10.233,11.206 10.04,11.293 9.888,11.457C9.743,11.613 9.667,11.808 9.667,12.02C9.667,12.276 9.776,12.503 9.983,12.677C10.172,12.837 10.406,12.918 10.678,12.918C11.014,12.918 11.359,12.79 11.702,12.536C11.988,12.325 12.357,11.905 12.828,11.255C13.131,12.125 13.56,12.685 13.765,12.918C14.087,13.287 14.609,13.507 15.159,13.507C15.626,13.507 15.89,13.311 16.123,13.139L16.144,13.123C16.552,12.822 16.638,12.489 16.638,12.263C16.637,12.063 16.57,11.884 16.443,11.744Z" style="fill:white;"/>
</svg>

