<?xml version="1.0" encoding="UTF-8" standalone="no"?>
<!DOCTYPE svg PUBLIC "-//W3C//DTD SVG 1.1//EN" "http://www.w3.org/Graphics/SVG/1.1/DTD/svg11.dtd">
<svg width="22px" height="22px" version="1.1" xmlns="http://www.w3.org/2000/svg" xmlns:xlink="http://www.w3.org/1999/xlink" xml:space="preserve" xmlns:serif="http://www.serif.com/" style="fill-rule:evenodd;clip-rule:evenodd;stroke-linejoin:round;stroke-miterlimit:2;">
    <rect x="0" y="0" width="22" height="22" style="fill-opacity:0;"/>
    <g id="InsertMultipleKeys" transform="matrix(1.23234,0,0,1.26638,-165.349,-420.431)">
        <path id="path5548" d="M146.186,345.182C146.183,344.521 145.921,343.892 145.456,343.431C144.669,342.649 143.441,342.486 142.448,343.031L138.29,338.896L137.251,339.936L137.634,340.317L136.204,341.748L136.969,342.509L138.399,341.078L139.164,341.839L137.734,343.269L138.499,344.03L139.929,342.6L141.407,344.069C140.863,345.062 141.031,346.287 141.818,347.07C142.797,348.044 144.424,348.024 145.422,347.026C145.914,346.534 146.19,345.869 146.186,345.182ZM145.093,345.254C145.084,345.632 144.927,345.994 144.657,346.265C144.087,346.835 143.157,346.847 142.597,346.29C142.038,345.734 142.047,344.807 142.617,344.236C143.187,343.666 144.117,343.654 144.677,344.211C144.952,344.485 145.103,344.861 145.093,345.254Z" style="fill:white;fill-rule:nonzero;"/>
        <path id="path2257" d="M149.999,339.859C149.995,339.198 149.733,338.57 149.269,338.108C148.481,337.327 147.253,337.163 146.26,337.708L142.103,333.574L141.063,334.614L141.446,334.995L140.016,336.425L140.781,337.186L142.211,335.755L142.976,336.516L141.546,337.947L142.311,338.708L143.742,337.277L145.219,338.747C144.676,339.739 144.843,340.965 145.63,341.748C146.61,342.721 148.236,342.701 149.235,341.703C149.726,341.211 150.002,340.546 149.999,339.859ZM148.906,339.931C148.897,340.309 148.74,340.672 148.47,340.942C147.899,341.513 146.97,341.524 146.41,340.968C145.85,340.411 145.859,339.484 146.43,338.913C147,338.343 147.93,338.332 148.489,338.888C148.765,339.162 148.915,339.539 148.906,339.931Z" style="fill:white;fill-rule:nonzero;"/>
    </g>
</svg>

