<?xml version="1.0" encoding="UTF-8" standalone="no"?>
<!DOCTYPE svg PUBLIC "-//W3C//DTD SVG 1.1//EN" "http://www.w3.org/Graphics/SVG/1.1/DTD/svg11.dtd">
<svg width="22px" height="22px" version="1.1" xmlns="http://www.w3.org/2000/svg" xmlns:xlink="http://www.w3.org/1999/xlink" xml:space="preserve" xmlns:serif="http://www.serif.com/" style="fill-rule:evenodd;clip-rule:evenodd;stroke-linejoin:round;stroke-miterlimit:2;">
    <rect x="0" y="0" width="22" height="22" style="fill-opacity:0;"/>
    <path d="M17.5,14C19.432,14 21,15.568 21,17.5C21,19.432 19.432,21 17.5,21C15.568,21 14,19.432 14,17.5C14,15.568 15.568,14 17.5,14ZM18,17L20,17L20,18L18,18L18,20L17,20L17,18L15,18L15,17L17,17L17,15L18,15L18,17Z" style="fill:white;"/>
    <path d="M19,13.256C18.681,13.144 18.347,13.066 18,13.028C18,13.018 18,13.009 18,13L18,9C18,7.896 17.104,7 16,7L6,7C4.896,7 4,7.896 4,9L4,13C4,14.104 4.896,15 6,15L13.759,15C13.552,15.309 13.382,15.644 13.256,16L13,16L13,18L13.028,18C13.066,18.347 13.144,18.682 13.256,19L3,19L3,3L19,3L19,13.256ZM6,16L4,16L4,18L6,18L6,16ZM9,16L7,16L7,18L9,18L9,16ZM12,16L10,16L10,18L12,18L12,16ZM9,4L7,4L7,6L9,6L9,4ZM12,4L10,4L10,6L12,6L12,4ZM6,4L4,4L4,6L6,6L6,4ZM15,4L13,4L13,6L15,6L15,4ZM18,4L16,4L16,6L18,6L18,4Z" style="fill:white;"/>
</svg>

