<?xml version="1.0" encoding="UTF-8" standalone="no"?>
<!DOCTYPE svg PUBLIC "-//W3C//DTD SVG 1.1//EN" "http://www.w3.org/Graphics/SVG/1.1/DTD/svg11.dtd">
<svg width="22px" height="22px" version="1.1" xmlns="http://www.w3.org/2000/svg" xmlns:xlink="http://www.w3.org/1999/xlink" xml:space="preserve" xmlns:serif="http://www.serif.com/" style="fill-rule:evenodd;clip-rule:evenodd;stroke-linejoin:round;stroke-miterlimit:2;">
    <rect x="0" y="0" width="22" height="22" style="fill-opacity:0;"/>
    <g transform="matrix(1,0,0,-1,0,32)">
        <path d="M16,11C18.76,11 21,13.24 21,16C21,18.76 18.76,21 16,21C13.24,21 11,18.76 11,16C11,13.24 13.24,11 16,11ZM17,19C17,18.448 16.552,18 16,18C15.448,18 15,18.448 15,19C15,19.552 15.448,20 16,20C16.552,20 17,19.552 17,19ZM17,13C17,12.735 16.895,12.48 16.707,12.293C16.52,12.105 16.265,12 16,12C15.735,12 15.48,12.105 15.293,12.293C15.105,12.48 15,12.735 15,13L15,16C15,16.265 15.105,16.52 15.293,16.707C15.48,16.895 15.735,17 16,17C16.265,17 16.52,16.895 16.707,16.707C16.895,16.52 17,16.265 17,16L17,13Z" style="fill:white;"/>
    </g>
    <path d="M10.804,19L4.5,19C3.672,19 3,18.328 3,17.5L3,4.5C3,4.102 3.158,3.721 3.439,3.439C3.721,3.158 4.102,3 4.5,3L12.379,3C12.777,3 13.158,3.158 13.439,3.439C14.387,4.387 15.613,5.613 16.561,6.561C16.842,6.842 17,7.223 17,7.621L17,10.083C16.675,10.028 16.341,10 16,10L16,8L12,8L12,4L4,4L4,18L10.342,18C10.466,18.349 10.621,18.684 10.804,19Z" style="fill:white;"/>
</svg>

