<?xml version="1.0" encoding="UTF-8" standalone="no"?>
<!DOCTYPE svg PUBLIC "-//W3C//DTD SVG 1.1//EN" "http://www.w3.org/Graphics/SVG/1.1/DTD/svg11.dtd">
<svg width="22px" height="22px" version="1.1" xmlns="http://www.w3.org/2000/svg" xmlns:xlink="http://www.w3.org/1999/xlink" xml:space="preserve" xmlns:serif="http://www.serif.com/" style="fill-rule:evenodd;clip-rule:evenodd;stroke-linejoin:round;stroke-miterlimit:2;">
    <rect x="0" y="0" width="22" height="22" style="fill-opacity:0;"/>
    <g id="rect4488" transform="matrix(1,0,0,1,1,2)">
        <path d="M14,8C14.265,8 14.52,8.105 14.707,8.293C14.895,8.48 15,8.735 15,9L15,14C15,14.265 14.895,14.52 14.707,14.707C14.52,14.895 14.265,15 14,15L6,15C5.735,15 5.48,14.895 5.293,14.707C5.105,14.52 5,14.265 5,14L5,9C5,8.735 5.105,8.48 5.293,8.293C5.48,8.105 5.735,8 6,8L14,8Z" style="fill:white;"/>
    </g>
    <g transform="matrix(1,0,0,1,-22,-231)">
        <path d="M30,242L30,239C30,237.344 31.344,236 33,236C34.656,236 36,237.344 36,239L36,242L35,242C35,242 35,239 35,239C35,237.896 34.104,237 33,237C31.896,237 31,237.896 31,239L31,242C31,242 30,242 30,242Z" style="fill:white;"/>
    </g>
</svg>

