<?xml version="1.0" encoding="UTF-8" standalone="no"?>
<!DOCTYPE svg PUBLIC "-//W3C//DTD SVG 1.1//EN" "http://www.w3.org/Graphics/SVG/1.1/DTD/svg11.dtd">
<svg width="22px" height="22px" version="1.1" xmlns="http://www.w3.org/2000/svg" xmlns:xlink="http://www.w3.org/1999/xlink" xml:space="preserve" xmlns:serif="http://www.serif.com/" style="fill-rule:evenodd;clip-rule:evenodd;stroke-linejoin:round;stroke-miterlimit:2;">
    <rect x="0" y="0" width="22" height="22" style="fill-opacity:0;"/>
    <g transform="matrix(0.9375,0,0,1,0.1875,-2)">
        <rect x="3" y="17" width="16" height="2" style="fill:white;"/>
    </g>
    <g transform="matrix(1,0,0,1,-1,-3)">
        <path d="M15,16L11.5,12L8,16L15,16Z" style="fill:white;"/>
    </g>
    <g transform="matrix(1,0,0,0.833333,-1,0.916667)">
        <path d="M6.466,18.102L6.466,18.102C6.743,18.102 6.967,17.832 6.967,17.5C6.967,17.168 6.743,16.898 6.466,16.898L6.466,16.898C6.189,16.898 5.964,17.168 5.964,17.5C5.964,17.832 6.189,18.102 6.466,18.102ZM8.463,18.102L8.463,18.102C8.74,18.102 8.965,17.832 8.965,17.5C8.965,17.168 8.74,16.898 8.463,16.898L8.463,16.898C8.186,16.898 7.962,17.168 7.962,17.5C7.962,17.832 8.186,18.102 8.463,18.102ZM10.461,18.102L10.461,18.102C10.737,18.102 10.962,17.832 10.962,17.5C10.962,17.168 10.737,16.898 10.461,16.898L10.461,16.898C10.184,16.898 9.959,17.168 9.959,17.5C9.959,17.832 10.184,18.102 10.461,18.102ZM16.453,18.102L16.453,18.102C16.73,18.102 16.954,17.832 16.954,17.5C16.954,17.168 16.73,16.898 16.453,16.898L16.453,16.898C16.176,16.898 15.951,17.168 15.951,17.5C15.951,17.832 16.176,18.102 16.453,18.102ZM18.45,18.102L18.45,18.102C18.727,18.102 18.952,17.832 18.952,17.5C18.952,17.168 18.727,16.898 18.45,16.898L18.45,16.898C18.173,16.898 17.948,17.168 17.948,17.5C17.948,17.832 18.173,18.102 18.45,18.102ZM12.458,18.102L12.458,18.102C12.735,18.102 12.96,17.832 12.96,17.5C12.96,17.168 12.735,16.898 12.458,16.898L12.458,16.898C12.181,16.898 11.956,17.168 11.956,17.5C11.956,17.832 12.181,18.102 12.458,18.102ZM14.455,18.102L14.455,18.102C14.732,18.102 14.957,17.832 14.957,17.5C14.957,17.168 14.732,16.898 14.455,16.898L14.455,16.898C14.178,16.898 13.954,17.168 13.954,17.5C13.954,17.832 14.178,18.102 14.455,18.102ZM3.998,17.462L3.998,17.462C3.998,17.794 4.223,18.064 4.5,18.064C4.777,18.064 5.002,17.794 5.002,17.462L5.002,17.462C5.002,17.13 4.777,16.86 4.5,16.86C4.223,16.86 3.998,17.13 3.998,17.462ZM19.002,15.163L19.002,15.163C19.002,14.831 18.777,14.561 18.5,14.561C18.223,14.561 17.998,14.831 17.998,15.163L17.998,15.163C17.998,15.495 18.223,15.765 18.5,15.765C18.777,15.765 19.002,15.495 19.002,15.163ZM3.998,15.065L3.998,15.065C3.998,15.397 4.223,15.667 4.5,15.667C4.777,15.667 5.002,15.397 5.002,15.065L5.002,15.065C5.002,14.733 4.777,14.463 4.5,14.463C4.223,14.463 3.998,14.733 3.998,15.065ZM19.002,12.766L19.002,12.766C19.002,12.434 18.777,12.164 18.5,12.164C18.223,12.164 17.998,12.434 17.998,12.766L17.998,12.766C17.998,13.099 18.223,13.368 18.5,13.368C18.777,13.368 19.002,13.099 19.002,12.766ZM3.998,12.668L3.998,12.668C3.998,13.001 4.223,13.27 4.5,13.27C4.777,13.27 5.002,13.001 5.002,12.668L5.002,12.668C5.002,12.336 4.777,12.066 4.5,12.066C4.223,12.066 3.998,12.336 3.998,12.668ZM19.002,10.369L19.002,10.369C19.002,10.037 18.777,9.767 18.5,9.767C18.223,9.767 17.998,10.037 17.998,10.369L17.998,10.369C17.998,10.702 18.223,10.971 18.5,10.971C18.777,10.971 19.002,10.702 19.002,10.369ZM3.998,10.272L3.998,10.272C3.998,10.604 4.223,10.874 4.5,10.874C4.777,10.874 5.002,10.604 5.002,10.272L5.002,10.272C5.002,9.939 4.777,9.67 4.5,9.67C4.223,9.67 3.998,9.939 3.998,10.272ZM19.002,7.973L19.002,7.973C19.002,7.64 18.777,7.371 18.5,7.371C18.223,7.371 17.998,7.64 17.998,7.973L17.998,7.973C17.998,8.305 18.223,8.575 18.5,8.575C18.777,8.575 19.002,8.305 19.002,7.973ZM3.998,7.875L3.998,7.875C3.998,8.207 4.223,8.477 4.5,8.477C4.777,8.477 5.002,8.207 5.002,7.875L5.002,7.875C5.002,7.542 4.777,7.273 4.5,7.273C4.223,7.273 3.998,7.542 3.998,7.875ZM18.5,4.974L18.5,4.974C18.777,4.974 19.002,5.244 19.002,5.576L19.002,5.576C19.002,5.908 18.777,6.178 18.5,6.178C18.223,6.178 17.998,5.908 17.998,5.576L17.998,5.576C17.998,5.563 17.999,5.55 17.999,5.538C17.999,5.525 17.998,5.513 17.998,5.5C17.998,5.168 18.223,4.898 18.5,4.898L18.5,4.974ZM14.505,4.898L14.505,4.898C14.228,4.898 14.004,5.168 14.004,5.5C14.004,5.832 14.228,6.102 14.505,6.102L14.505,6.102C14.782,6.102 15.007,5.832 15.007,5.5C15.007,5.168 14.782,4.898 14.505,4.898ZM10.511,4.898L10.511,4.898C10.234,4.898 10.009,5.168 10.009,5.5C10.009,5.832 10.234,6.102 10.511,6.102L10.511,6.102C10.787,6.102 11.012,5.832 11.012,5.5C11.012,5.168 10.787,4.898 10.511,4.898ZM6.516,4.898L6.516,4.898C6.239,4.898 6.014,5.168 6.014,5.5C6.014,5.832 6.239,6.102 6.516,6.102L6.516,6.102C6.793,6.102 7.017,5.832 7.017,5.5C7.017,5.168 6.793,4.898 6.516,4.898ZM4.518,4.898L4.518,4.898C4.242,4.898 4.017,5.168 4.017,5.5C4.017,5.832 4.242,6.102 4.518,6.102L4.518,6.102C4.795,6.102 5.02,5.832 5.02,5.5C5.02,5.168 4.795,4.898 4.518,4.898ZM16.503,4.898L16.503,4.898C16.226,4.898 16.001,5.168 16.001,5.5C16.001,5.832 16.226,6.102 16.503,6.102L16.503,6.102C16.78,6.102 17.004,5.832 17.004,5.5C17.004,5.168 16.78,4.898 16.503,4.898ZM12.508,4.898L12.508,4.898C12.231,4.898 12.006,5.168 12.006,5.5C12.006,5.832 12.231,6.102 12.508,6.102L12.508,6.102C12.785,6.102 13.01,5.832 13.01,5.5C13.01,5.168 12.785,4.898 12.508,4.898ZM8.513,4.898L8.513,4.898C8.236,4.898 8.012,5.168 8.012,5.5C8.012,5.832 8.236,6.102 8.513,6.102L8.513,6.102C8.79,6.102 9.015,5.832 9.015,5.5C9.015,5.168 8.79,4.898 8.513,4.898Z" style="fill:white;"/>
    </g>
</svg>

