<?xml version="1.0" encoding="UTF-8" standalone="no"?>
<!DOCTYPE svg PUBLIC "-//W3C//DTD SVG 1.1//EN" "http://www.w3.org/Graphics/SVG/1.1/DTD/svg11.dtd">
<svg width="22px" height="22px" version="1.1" xmlns="http://www.w3.org/2000/svg" xmlns:xlink="http://www.w3.org/1999/xlink" xml:space="preserve" xmlns:serif="http://www.serif.com/" style="fill-rule:evenodd;clip-rule:evenodd;stroke-linejoin:round;stroke-miterlimit:2;">
    <rect x="0" y="0" width="22" height="22" style="fill-opacity:0;"/>
    <g>
        <g transform="matrix(0.707107,0.707107,0.707107,-0.707107,-9.799,8.85325)">
            <path d="M13,13C13,13 10.154,12.999 9.059,12.999C8.824,12.999 8.631,12.812 8.622,12.577C8.622,12.577 8.622,12.577 8.622,12.576C8.617,12.425 8.673,12.279 8.778,12.17C8.883,12.061 9.028,12 9.179,12C10.372,12 13,12 13,12L13,10L15.5,12.5L13,15L13,13Z" style="fill:white;"/>
        </g>
        <path d="M16.379,7C16.777,7 17.158,7.158 17.439,7.439C18.387,8.387 19.613,9.613 20.561,10.561C20.842,10.842 21,11.223 21,11.621L21,20L21,20.026C20.986,20.566 20.543,21 20,21L10.5,21C9.672,21 9,20.328 9,19.5L9,14L10,14L10,20L20,20L20,12L16,12L16,8L13,8L13,7L16.379,7ZM8,15L2.5,15C1.672,15 1,14.328 1,13.5L1,2.5C1,2.102 1.158,1.721 1.439,1.439C1.721,1.158 2.102,1 2.5,1L8.379,1C8.777,1 9.158,1.158 9.439,1.439C10.387,2.387 11.613,3.613 12.561,4.561C12.842,4.842 13,5.223 13,5.621L13,6L8,6L8,2L2,2L2,14L8,14L8,15Z" style="fill:white;"/>
        <g transform="matrix(-0.707107,-0.707107,-0.707107,0.707107,31.8126,15.1352)">
            <path d="M13,13C13,13 10.154,12.999 9.059,12.999C8.824,12.999 8.631,12.812 8.622,12.577C8.622,12.577 8.622,12.577 8.622,12.576C8.617,12.425 8.673,12.279 8.778,12.17C8.883,12.061 9.028,12 9.179,12C10.372,12 13,12 13,12L13,10L15.5,12.5L13,15L13,13Z" style="fill:white;"/>
        </g>
    </g>
</svg>

