<?xml version="1.0" encoding="UTF-8" standalone="no"?>
<!DOCTYPE svg PUBLIC "-//W3C//DTD SVG 1.1//EN" "http://www.w3.org/Graphics/SVG/1.1/DTD/svg11.dtd">
<svg width="22px" height="22px" version="1.1" xmlns="http://www.w3.org/2000/svg" xmlns:xlink="http://www.w3.org/1999/xlink" xml:space="preserve" xmlns:serif="http://www.serif.com/" style="fill-rule:evenodd;clip-rule:evenodd;stroke-linejoin:round;stroke-miterlimit:2;">
    <rect x="0" y="0" width="22" height="22" style="fill-opacity:0;"/>
    <g transform="matrix(0.9375,0,0,1,0.1875,-2)">
        <rect x="3" y="17" width="16" height="2" style="fill:white;"/>
    </g>
    <path d="M18,5L3,5L3,14L3.5,14L3.5,15L3,15L3,16L18,16L18,15L17.5,15L17.5,14L18,14L18,5ZM7.5,15L7.5,15C7.776,15 8,14.776 8,14.5C8,14.224 7.776,14 7.5,14L7.5,14C7.224,14 7,14.224 7,14.5C7,14.776 7.224,15 7.5,15ZM9.5,15L9.5,15C9.776,15 10,14.776 10,14.5C10,14.224 9.776,14 9.5,14L9.5,14C9.224,14 9,14.224 9,14.5C9,14.776 9.224,15 9.5,15ZM3.5,14L3.5,15C3.776,15 4,14.776 4,14.5C4,14.224 3.776,14 3.5,14L3.5,14ZM5.5,15L5.5,15C5.776,15 6,14.776 6,14.5C6,14.224 5.776,14 5.5,14L5.5,14C5.224,14 5,14.224 5,14.5C5,14.776 5.224,15 5.5,15ZM11.5,15L11.5,15C11.776,15 12,14.776 12,14.5C12,14.224 11.776,14 11.5,14L11.5,14C11.224,14 11,14.224 11,14.5C11,14.776 11.224,15 11.5,15ZM13.5,15L13.5,15C13.776,15 14,14.776 14,14.5C14,14.224 13.776,14 13.5,14L13.5,14C13.224,14 13,14.224 13,14.5C13,14.776 13.224,15 13.5,15ZM15.5,15L15.5,15C15.776,15 16,14.776 16,14.5C16,14.224 15.776,14 15.5,14L15.5,14C15.224,14 15,14.224 15,14.5C15,14.776 15.224,15 15.5,15ZM17.5,15L17.5,14C17.224,14 17,14.224 17,14.5C17,14.776 17.224,15 17.5,15ZM14,8L10.5,12L7,8L14,8Z" style="fill:white;"/>
</svg>

