<?xml version="1.0" encoding="UTF-8" standalone="no"?>
<!DOCTYPE svg PUBLIC "-//W3C//DTD SVG 1.1//EN" "http://www.w3.org/Graphics/SVG/1.1/DTD/svg11.dtd">
<svg width="22px" height="22px" version="1.1" xmlns="http://www.w3.org/2000/svg" xmlns:xlink="http://www.w3.org/1999/xlink" xml:space="preserve" xmlns:serif="http://www.serif.com/" style="fill-rule:evenodd;clip-rule:evenodd;stroke-linejoin:round;stroke-miterlimit:2;">
    <rect x="0" y="0" width="22" height="22" style="fill-opacity:0;"/>
    <g transform="matrix(1,0,0,1,-17,-61)">
        <path d="M33,68C33,67.448 32.552,67 32,67L24,67C23.448,67 23,67.448 23,68L23,76C23,76.552 23.448,77 24,77L32,77C32.552,77 33,76.552 33,76L33,68Z" style="fill:white;"/>
    </g>
    <g transform="matrix(1,0,0,1,-38,-61)">
        <path d="M56,74C56.265,74 56.52,74.105 56.707,74.293C56.895,74.48 57,74.735 57,75C57,76.11 57,77.89 57,79C57,79.265 56.895,79.52 56.707,79.707C56.52,79.895 56.265,80 56,80L52,80C51.735,80 51.48,79.895 51.293,79.707C51.105,79.52 51,79.265 51,79C51,78.448 51.448,78 52,78C52.611,78 53.389,78 54,78C54.552,78 55,77.552 55,77L55,75C55,74.448 55.448,74 56,74Z" style="fill:rgb(166,166,166);"/>
    </g>
    <g transform="matrix(1,0,0,1,-38,-61)">
        <path d="M41,65C41,64.735 41.105,64.48 41.293,64.293C41.48,64.105 41.735,64 42,64L46,64C46.265,64 46.52,64.105 46.707,64.293C46.895,64.48 47,64.735 47,65C47,65.552 46.552,66 46,66C45.389,66 44.611,66 44,66C43.448,66 43,66.448 43,67L43,69C43,69.552 42.552,70 42,70C41.735,70 41.48,69.895 41.293,69.707C41.105,69.52 41,69.265 41,69C41,67.89 41,66.11 41,65Z" style="fill:rgb(166,166,166);"/>
    </g>
</svg>

