<?xml version="1.0" encoding="UTF-8" standalone="no"?>
<!DOCTYPE svg PUBLIC "-//W3C//DTD SVG 1.1//EN" "http://www.w3.org/Graphics/SVG/1.1/DTD/svg11.dtd">
<svg width="22px" height="22px" version="1.1" xmlns="http://www.w3.org/2000/svg" xmlns:xlink="http://www.w3.org/1999/xlink" xml:space="preserve" xmlns:serif="http://www.serif.com/" style="fill-rule:evenodd;clip-rule:evenodd;stroke-linejoin:round;stroke-miterlimit:2;">
    <rect x="0" y="0" width="22" height="22" style="fill-opacity:0;"/>
    <g transform="matrix(1.2,0,0,1.2,-22.2,-75)">
        <path d="M26,65.833C26,65.612 25.912,65.4 25.756,65.244C25.6,65.088 25.388,65 25.167,65L21.833,65C21.612,65 21.4,65.088 21.244,65.244C21.088,65.4 21,65.612 21,65.833L21,69.167C21,69.388 21.088,69.6 21.244,69.756C21.4,69.912 21.612,70 21.833,70L25.167,70C25.388,70 25.6,69.912 25.756,69.756C25.912,69.6 26,69.388 26,69.167L26,65.833Z" style="fill:rgb(166,166,166);"/>
    </g>
    <g transform="matrix(1.2,0,0,1.2,-23,-75.8)">
        <path d="M35,74.833C35,74.612 34.912,74.4 34.756,74.244C34.6,74.088 34.388,74 34.167,74L30.833,74C30.612,74 30.4,74.088 30.244,74.244C30.088,74.4 30,74.612 30,74.833L30,78.167C30,78.388 30.088,78.6 30.244,78.756C30.4,78.912 30.612,79 30.833,79L34.167,79C34.388,79 34.6,78.912 34.756,78.756C34.912,78.6 35,78.388 35,78.167L35,74.833Z" style="fill:rgb(166,166,166);"/>
    </g>
    <g transform="matrix(1,0,0,1,-17,-61)">
        <path d="M33,72C33,72.265 32.895,72.52 32.707,72.707C32.52,72.895 32.265,73 32,73C31.389,73 30.611,73 30,73C29.448,73 29,73.448 29,74L29,76C29,76.265 28.895,76.52 28.707,76.707C28.52,76.895 28.265,77 28,77C26.89,77 25.11,77 24,77C23.735,77 23.48,76.895 23.293,76.707C23.105,76.52 23,76.265 23,76L23,72C23,71.735 23.105,71.48 23.293,71.293C23.48,71.105 23.735,71 24,71C24.611,71 25.389,71 26,71C26.552,71 27,70.552 27,70L27,68C27,67.735 27.105,67.48 27.293,67.293C27.48,67.105 27.735,67 28,67C29.11,67 30.89,67 32,67C32.265,67 32.52,67.105 32.707,67.293C32.895,67.48 33,67.735 33,68L33,72Z" style="fill:white;"/>
    </g>
</svg>

