<?xml version="1.0" encoding="UTF-8" standalone="no"?>
<!DOCTYPE svg PUBLIC "-//W3C//DTD SVG 1.1//EN" "http://www.w3.org/Graphics/SVG/1.1/DTD/svg11.dtd">
<svg width="22px" height="22px" version="1.1" xmlns="http://www.w3.org/2000/svg" xmlns:xlink="http://www.w3.org/1999/xlink" xml:space="preserve" xmlns:serif="http://www.serif.com/" style="fill-rule:evenodd;clip-rule:evenodd;stroke-linejoin:round;stroke-miterlimit:2;">
    <rect x="0" y="0" width="22" height="22" style="fill-opacity:0;"/>
    <path d="M17.5,14C19.432,14 21,15.568 21,17.5C21,19.432 19.432,21 17.5,21C15.568,21 14,19.432 14,17.5C14,15.568 15.568,14 17.5,14ZM18,17L20,17L20,18L18,18L18,20L17,20L17,18L15,18L15,17L17,17L17,15L18,15L18,17Z" style="fill:white;"/>
    <path d="M13.256,19L5.5,19C4.672,19 4,18.328 4,17.5L4,4.5C4,4.102 4.158,3.721 4.439,3.439C4.721,3.158 5.102,3 5.5,3L13.379,3C13.777,3 14.158,3.158 14.439,3.439C15.387,4.387 16.613,5.613 17.561,6.561C17.842,6.842 18,7.223 18,7.621L18,13.028C17.836,13.009 17.669,13 17.5,13C17.331,13 17.164,13.009 17,13.028L17,8L13,8L13,4L5,4L5,18L13.028,18C13.066,18.347 13.144,18.682 13.256,19ZM13.256,16C13.144,16.319 13.066,16.653 13.028,17L7.5,17C7.224,17 7,16.776 7,16.5C7,16.224 7.224,16 7.5,16L13.256,16ZM12,13.5C12,13.367 11.948,13.24 11.854,13.146C11.76,13.053 11.633,13 11.5,13L7.5,13C7.368,13 7.24,13.053 7.146,13.146C7.053,13.24 7,13.367 7,13.5C7,13.633 7.053,13.76 7.146,13.854C7.24,13.947 7.368,14 7.5,14L11.5,14C11.633,14 11.76,13.947 11.854,13.854C11.948,13.76 12,13.633 12,13.5ZM15,10.5C15,10.224 14.776,10 14.5,10L7.5,10C7.224,10 7,10.224 7,10.5C7,10.776 7.224,11 7.5,11L14.5,11C14.776,11 15,10.776 15,10.5Z" style="fill:white;"/>
</svg>

