<?xml version="1.0" encoding="UTF-8" standalone="no"?>
<!DOCTYPE svg PUBLIC "-//W3C//DTD SVG 1.1//EN" "http://www.w3.org/Graphics/SVG/1.1/DTD/svg11.dtd">
<svg width="22px" height="22px" version="1.1" xmlns="http://www.w3.org/2000/svg" xmlns:xlink="http://www.w3.org/1999/xlink" xml:space="preserve" xmlns:serif="http://www.serif.com/" style="fill-rule:evenodd;clip-rule:evenodd;stroke-linejoin:round;stroke-miterlimit:2;">
    <rect x="0" y="0" width="22" height="22" style="fill-opacity:0;"/>
    <g transform="matrix(1,0,0,1,-80,-139)">
        <g transform="matrix(0.875,0,0,0.875,81.375,141.125)">
            <path d="M11,9C8.791,9 6.429,10.791 6.429,13C6.429,15.209 8.791,17 11,17C11.369,17 11.667,16.702 11.667,16.333C11.667,16.16 11.6,16.004 11.493,15.884C11.391,15.769 11.324,15.613 11.324,15.444C11.324,15.076 11.622,14.778 11.991,14.778L12.778,14.778C14.004,14.778 15.571,13.782 15.571,12.556C15.571,10.591 13.209,9 11,9ZM9.012,15.024C8.452,15.024 8,14.572 8,14.012C8,13.452 8.452,13 9.012,13C9.572,13 10.024,13.452 10.024,14.012C10.024,14.572 9.572,15.024 9.012,15.024ZM12.999,13C12.446,13 12,12.554 12,12.001C12,11.448 12.446,11.001 12.999,11.001C13.552,11.001 13.999,11.448 13.999,12.001C13.999,12.554 13.552,13 12.999,13ZM10.024,11.999C9.471,11.999 9.025,11.552 9.025,10.999C9.025,10.446 9.471,10 10.024,10C10.577,10 11.024,10.446 11.024,10.999C11.024,11.552 10.577,11.999 10.024,11.999Z" style="fill:white;"/>
        </g>
        <g transform="matrix(1,0,0,1,80,139)">
            <path d="M13.379,3C13.777,3 14.158,3.158 14.439,3.439C15.387,4.387 16.613,5.613 17.561,6.561C17.842,6.842 18,7.223 18,7.621L18,18L17,18L17,8L13,8L13,4L5,4L5,18L18,18C18,18.552 17.552,19 17,19L5.5,19C4.672,19 4,18.328 4,17.5L4,4.5C4,4.102 4.158,3.721 4.439,3.439C4.721,3.158 5.102,3 5.5,3L13.379,3Z" style="fill:white;"/>
        </g>
    </g>
</svg>

