<?xml version="1.0" encoding="UTF-8" standalone="no"?>
<!DOCTYPE svg PUBLIC "-//W3C//DTD SVG 1.1//EN" "http://www.w3.org/Graphics/SVG/1.1/DTD/svg11.dtd">
<svg width="22px" height="22px" version="1.1" xmlns="http://www.w3.org/2000/svg" xmlns:xlink="http://www.w3.org/1999/xlink" xml:space="preserve" xmlns:serif="http://www.serif.com/" style="fill-rule:evenodd;clip-rule:evenodd;stroke-linejoin:round;stroke-miterlimit:2;">
    <rect x="0" y="0" width="22" height="22" style="fill-opacity:0;"/>
    <g transform="matrix(0.571444,0,0,0.571444,-167.005,-11.5719)">
        <path d="M323.095,43.086C322.37,42.971 321.63,42.971 320.905,43.086C320.699,43.689 320.589,44.31 320.575,44.947C320.178,45.059 319.795,45.218 319.435,45.419C318.974,44.979 318.458,44.618 317.886,44.337C317.291,44.769 316.769,45.291 316.337,45.886C316.618,46.458 316.979,46.974 317.419,47.435C317.218,47.795 317.059,48.178 316.947,48.575C316.31,48.589 315.689,48.699 315.086,48.905C314.971,49.63 314.971,50.37 315.086,51.095C315.689,51.301 316.31,51.411 316.947,51.425C317.059,51.822 317.218,52.205 317.419,52.565C316.979,53.026 316.618,53.542 316.337,54.114C316.769,54.709 317.291,55.231 317.886,55.663C318.458,55.382 318.974,55.021 319.435,54.581C319.795,54.782 320.178,54.941 320.575,55.053C320.589,55.69 320.699,56.311 320.905,56.914C321.63,57.029 322.37,57.029 323.095,56.914C323.301,56.311 323.411,55.69 323.425,55.053C323.822,54.941 324.205,54.782 324.565,54.581C325.026,55.021 325.542,55.382 326.114,55.663C326.709,55.231 327.231,54.709 327.663,54.114C327.382,53.542 327.021,53.026 326.581,52.565C326.782,52.205 326.941,51.822 327.053,51.425C327.69,51.411 328.311,51.301 328.914,51.095C329.029,50.37 329.029,49.63 328.914,48.905C328.311,48.699 327.69,48.589 327.053,48.575C326.941,48.178 326.782,47.795 326.581,47.435C327.021,46.974 327.382,46.458 327.663,45.886C327.231,45.291 326.709,44.769 326.114,44.337C325.542,44.618 325.026,44.979 324.565,45.419C324.205,45.218 323.822,45.059 323.425,44.947C323.411,44.31 323.301,43.689 323.095,43.086ZM322,46.53C323.915,46.53 325.47,48.085 325.47,50C325.47,51.915 323.915,53.47 322,53.47C320.085,53.47 318.53,51.915 318.53,50C318.53,48.085 320.085,46.53 322,46.53Z" style="fill:white;"/>
    </g>
    <path d="M12.119,18L8,18C7.724,18 7.5,17.776 7.5,17.5L7.5,16.789C6.671,16.168 6.047,15.344 5.731,14.407C5.347,14.236 4.567,13.765 3.5,12.5C2.844,11.722 2,9 2,9L1,8L3,8L5.986,10.986C6.387,10.196 7.016,9.513 7.801,9L14.699,9C14.978,9.182 15.237,9.386 15.474,9.609C15.872,9.307 16.516,8.995 17.475,8.992C18.659,8.988 19.268,9.374 19.608,9.861C20.079,10.534 19.992,11.463 19.997,11.823C20.002,12.183 19.915,12.535 19.77,12.864C19.499,12.74 19.184,12.741 18.91,12.875C18.824,12.917 18.739,12.962 18.657,13.01C18.632,12.917 18.603,12.826 18.572,12.734C18.546,12.656 18.51,12.583 18.466,12.515C18.582,12.293 18.663,12.052 18.686,11.805C18.7,11.651 18.727,11.358 18.689,11.043C18.666,10.85 18.614,10.635 18.431,10.485C18.236,10.326 17.93,10.249 17.473,10.251C16.894,10.253 16.516,10.442 16.297,10.604C16.57,11.038 16.771,11.51 16.887,12.01C16.663,12.015 16.44,12.035 16.218,12.07C15.852,12.128 15.548,12.384 15.428,12.734C15.397,12.826 15.369,12.917 15.344,13.01C15.261,12.962 15.177,12.917 15.09,12.875C14.758,12.712 14.362,12.746 14.062,12.963C13.637,13.272 13.264,13.645 12.955,14.07C12.737,14.37 12.703,14.766 12.867,15.099C12.909,15.185 12.954,15.269 13.001,15.352C12.909,15.377 12.817,15.405 12.726,15.437C12.375,15.556 12.12,15.86 12.062,16.226C11.979,16.744 11.979,17.273 12.062,17.791C12.073,17.863 12.092,17.933 12.119,18ZM10.218,6.279C10.08,6.052 10,5.785 10,5.5C10,4.672 10.672,4 11.5,4C12.328,4 13,4.672 13,5.5C13,5.785 12.92,6.052 12.782,6.279C13.65,6.575 14.5,7 14.5,7C14.769,7.145 15,7.224 15,7.5C15,7.776 14.776,8 14.5,8L8.5,8C8.224,8 8,7.776 8,7.5C8,7.224 8.226,7.14 8.5,7C8.5,7 9.35,6.575 10.218,6.279Z" style="fill:white;"/>
</svg>

