<?xml version="1.0" encoding="UTF-8" standalone="no"?>
<!DOCTYPE svg PUBLIC "-//W3C//DTD SVG 1.1//EN" "http://www.w3.org/Graphics/SVG/1.1/DTD/svg11.dtd">
<svg width="22px" height="22px" version="1.1" xmlns="http://www.w3.org/2000/svg" xmlns:xlink="http://www.w3.org/1999/xlink" xml:space="preserve" xmlns:serif="http://www.serif.com/" style="fill-rule:evenodd;clip-rule:evenodd;stroke-linejoin:round;stroke-miterlimit:2;">
    <rect x="0" y="0" width="22" height="22" style="fill-opacity:0;"/>
    <path d="M17.5,14C19.432,14 21,15.568 21,17.5C21,19.432 19.432,21 17.5,21C15.568,21 14,19.432 14,17.5C14,15.568 15.568,14 17.5,14ZM18,17L20,17L20,18L18,18L18,20L17,20L17,18L15,18L15,17L17,17L17,15L18,15L18,17Z" style="fill:white;"/>
    <g>
        <path d="M13.256,19L6,19C5.47,19 4.961,18.789 4.586,18.414C4.211,18.039 4,17.53 4,17L4,9C4,8.47 4.211,7.961 4.586,7.586C4.961,7.211 5.47,7 6,7L6.5,7C6.633,7 6.76,7.053 6.854,7.146C6.947,7.24 7,7.367 7,7.5C7,7.633 6.947,7.76 6.854,7.854C6.76,7.947 6.633,8 6.5,8L6,8C5.448,8 5,8.448 5,9L5,17C5,17.552 5.448,18 6,18L13.028,18C13.066,18.347 13.144,18.682 13.256,19ZM16,13.256L16,9C16,8.735 15.895,8.48 15.707,8.293C15.52,8.105 15.265,8 15,8C14.826,8 14.653,8 14.5,8C14.367,8 14.24,7.947 14.146,7.854C14.053,7.76 14,7.633 14,7.5C14,7.367 14.053,7.24 14.146,7.146C14.24,7.053 14.367,7 14.5,7C14.647,7 14.818,7 15,7C15.53,7 16.039,7.211 16.414,7.586C16.789,7.961 17,8.47 17,9L17,13.028C16.653,13.066 16.318,13.144 16,13.256Z" style="fill:white;"/>
    </g>
    <g transform="matrix(4.89859e-17,-0.8,1,6.12323e-17,-1.55431e-15,17.8)">
        <path d="M16,10L6.625,10C6.28,10 6,10.224 6,10.5C6,10.776 6.28,11 6.625,11L16,11L16,10Z" style="fill:white;"/>
    </g>
    <g transform="matrix(9.18485e-17,-1.5,1,6.12323e-17,-0.5,28.5)">
        <path d="M17,11L15,8.5L15,13.5L17,11Z" style="fill:white;"/>
    </g>
</svg>

