<?xml version="1.0" encoding="UTF-8" standalone="no"?>
<!DOCTYPE svg PUBLIC "-//W3C//DTD SVG 1.1//EN" "http://www.w3.org/Graphics/SVG/1.1/DTD/svg11.dtd">
<svg width="22px" height="22px" version="1.1" xmlns="http://www.w3.org/2000/svg" xmlns:xlink="http://www.w3.org/1999/xlink" xml:space="preserve" xmlns:serif="http://www.serif.com/" style="fill-rule:evenodd;clip-rule:evenodd;stroke-linecap:round;stroke-linejoin:round;stroke-miterlimit:1.5;">
    <rect x="0" y="0" width="22" height="22" style="fill-opacity:0;"/>
    <g transform="matrix(1,0,0,1,-5,-5)">
        <path d="M7.72,18.28C7.252,17.283 7,16.171 7,15C7,10.585 10.585,7 15,7C16.171,7 17.283,7.252 18.28,7.72C18.748,8.717 19,9.829 19,11C19,15.415 15.415,19 11,19C9.829,19 8.717,18.748 7.72,18.28ZM17.52,8.48C16.741,8.166 15.89,8 15,8C11.137,8 8,11.137 8,15C8,15.89 8.166,16.741 8.48,17.52C9.259,17.834 10.11,18 11,18C14.863,18 18,14.863 18,11C18,10.11 17.834,9.259 17.52,8.48Z" style="fill:white;"/>
    </g>
    <g transform="matrix(0.836128,0,0,0.836128,11.7575,13.6019)">
        <path d="M0.888,4.662L4.444,8.25L10.456,2.27" style="fill:none;stroke:white;stroke-width:1.2px;"/>
    </g>
    <path d="M10.559,17.981C10.375,17.993 10.188,18 10,18C6.768,18 3.982,16.08 2.735,13.313L2.72,13.28C2.252,12.283 2,11.171 2,10C2,5.585 5.585,2 10,2L10.027,2C11.188,2.004 12.291,2.256 13.28,2.72C16.065,3.96 18,6.756 18,10C18,12.764 16.596,15.202 14.463,16.639L13.921,16.092C13.86,16.031 13.797,15.975 13.731,15.923C15.694,14.683 17,12.493 17,10C17,8.071 16.218,6.323 14.951,5.061C14.984,5.369 15,5.683 15,6C15,10.967 10.967,15 6,15C5.683,15 5.369,14.984 5.061,14.951C6.323,16.218 8.071,17 10,17C10.192,17 10.382,16.992 10.57,16.977C10.482,17.305 10.478,17.651 10.559,17.981ZM8.882,4.33C9.487,4.939 8.984,6.422 7.759,7.64C6.534,8.858 5.048,9.353 4.443,8.745C3.838,8.136 4.341,6.653 5.566,5.435C6.791,4.217 8.277,3.722 8.882,4.33Z" style="fill:white;"/>
</svg>

