<?xml version="1.0" encoding="UTF-8" standalone="no"?>
<!DOCTYPE svg PUBLIC "-//W3C//DTD SVG 1.1//EN" "http://www.w3.org/Graphics/SVG/1.1/DTD/svg11.dtd">
<svg width="22px" height="22px" version="1.1" xmlns="http://www.w3.org/2000/svg" xmlns:xlink="http://www.w3.org/1999/xlink" xml:space="preserve" xmlns:serif="http://www.serif.com/" style="fill-rule:evenodd;clip-rule:evenodd;stroke-linejoin:round;stroke-miterlimit:2;">
    <rect x="0" y="0" width="22" height="22" style="fill-opacity:0;"/>
    <g id="Random">
        <path d="M16,4.612C15.96,4.448 16.004,4.267 16.132,4.139C16.327,3.944 16.644,3.944 16.839,4.139L18.854,6.153C18.888,6.188 18.917,6.227 18.939,6.268L18.972,6.342L18.994,6.431L19,6.507L18.994,6.583L18.972,6.672L18.939,6.746C18.917,6.787 18.888,6.826 18.854,6.861L16.854,8.861C16.658,9.056 16.342,9.056 16.146,8.861C16.049,8.763 16,8.635 16,8.507L16,8.507L16,7L13.745,7.007L10.639,11L13.745,14.993L16,14.993L16,13.492L16,13.492C16,13.365 16.049,13.237 16.146,13.139C16.342,12.944 16.658,12.944 16.854,13.139L18.854,15.139C18.888,15.174 18.917,15.213 18.939,15.254L18.972,15.328L18.994,15.417L19,15.493L18.994,15.569L18.972,15.658L18.939,15.732C18.917,15.773 18.888,15.812 18.854,15.847L16.839,17.861C16.644,18.056 16.327,18.056 16.132,17.861C16.004,17.733 15.96,17.552 16,17.388L16,15.993L13.5,15.993C13.346,15.993 13.2,15.922 13.105,15.8L10.006,11.814L6.895,15.815C6.8,15.936 6.654,16.008 6.5,16.008L3.5,16.008C3.224,16.008 3,15.784 3,15.508C3,15.232 3.224,15.008 3.5,15.008L6.255,15.008L9.372,11L6.255,6.992L3.5,6.992C3.224,6.992 3,6.768 3,6.492C3,6.216 3.224,5.992 3.5,5.992L6.5,5.992C6.654,5.992 6.8,6.064 6.895,6.185L10.006,10.186L13.105,6.2C13.2,6.078 13.346,6.007 13.5,6.007L16,6.007L16,4.612Z" style="fill:white;"/>
    </g>
</svg>

