<?xml version="1.0" encoding="UTF-8" standalone="no"?>
<!DOCTYPE svg PUBLIC "-//W3C//DTD SVG 1.1//EN" "http://www.w3.org/Graphics/SVG/1.1/DTD/svg11.dtd">
<svg width="22px" height="22px" version="1.1" xmlns="http://www.w3.org/2000/svg" xmlns:xlink="http://www.w3.org/1999/xlink" xml:space="preserve" xmlns:serif="http://www.serif.com/" style="fill-rule:evenodd;clip-rule:evenodd;stroke-linejoin:round;stroke-miterlimit:2;">
    <rect x="0" y="0" width="22" height="22" style="fill-opacity:0;"/>
    <g transform="matrix(-1,0,0,1,22,0)">
        <path d="M7,10.471C7.008,10.609 6.959,10.749 6.854,10.854C6.659,11.05 6.341,11.05 6.146,10.854L3.146,7.854C3.111,7.819 3.082,7.781 3.06,7.739L3.027,7.666L3.005,7.576L2.999,7.5L3.005,7.424L3.027,7.334L3.06,7.26C3.082,7.219 3.111,7.18 3.146,7.146L6.146,4.145C6.341,3.95 6.659,3.95 6.854,4.145C6.959,4.25 7.008,4.391 7,4.528L7,6.999L13.564,6.999C13.846,6.983 16.279,6.897 17.793,8.617C18.476,9.394 18.986,10.539 19.001,12.244C19.001,15.321 16.606,16.932 14.222,16.996C14.007,17.002 11.705,17.002 11.497,17.001C11.22,16.999 10.997,16.773 10.999,16.497C11.001,16.22 11.226,15.997 11.503,15.999C11.707,16 13.982,16 14.194,15.994C16.084,15.943 17.999,14.683 17.999,12.249C17.986,10.859 17.599,9.913 17.04,9.279C15.75,7.812 13.62,7.999 13.62,7.999C13.606,8 13.592,8.001 13.578,8.001L7,8.001L7,10.471Z" style="fill:white;"/>
    </g>
</svg>

