<?xml version="1.0" encoding="UTF-8" standalone="no"?>
<!DOCTYPE svg PUBLIC "-//W3C//DTD SVG 1.1//EN" "http://www.w3.org/Graphics/SVG/1.1/DTD/svg11.dtd">
<svg width="22px" height="22px" version="1.1" xmlns="http://www.w3.org/2000/svg" xmlns:xlink="http://www.w3.org/1999/xlink" xml:space="preserve" xmlns:serif="http://www.serif.com/" style="fill-rule:evenodd;clip-rule:evenodd;stroke-linejoin:round;stroke-miterlimit:2;">
    <rect x="0" y="0" width="22" height="22" style="fill-opacity:0;"/>
    <g transform="matrix(1,0,0,1,0,1)">
        <path d="M17,5.5C17,5.224 16.776,5 16.5,5L14.5,5C14.224,5 14,5.224 14,5.5C14,5.776 14.224,6 14.5,6L16.5,6C16.776,6 17,5.776 17,5.5Z" style="fill:white;"/>
    </g>
    <g transform="matrix(1,0,0,1,1,1)">
        <path d="M8,5.5C8,5.224 7.776,5 7.5,5L5.5,5C5.224,5 5,5.224 5,5.5C5,5.776 5.224,6 5.5,6L7.5,6C7.776,6 8,5.776 8,5.5Z" style="fill:white;"/>
    </g>
    <g transform="matrix(0.5,0,0,1,6,1)">
        <path d="M12,5.5C12,5.224 11.552,5 11,5C10.448,5 10,5.224 10,5.5C10,5.776 10.448,6 11,6C11.552,6 12,5.776 12,5.5Z" style="fill:white;"/>
    </g>
    <path d="M19,13L22,13L22,14L21,14L21,21L14,21L14,14L13,14L13,13L16,13L16,12L19,12L19,13ZM15,14L15,20L20,20L20,14L15,14ZM19,15L18,15L18,19L19,19L19,15ZM17,15L16,15L16,19L17,19L17,15Z" style="fill:white;"/>
    <path d="M13,19L6,19C5.47,19 4.961,18.789 4.586,18.414C4.211,18.039 4,17.53 4,17C4,14.126 4,8.874 4,6C4,5.47 4.211,4.961 4.586,4.586C4.961,4.211 5.47,4 6,4C8.874,4 14.126,4 17,4C17.53,4 18.039,4.211 18.414,4.586C18.789,4.961 19,5.47 19,6L19,11L18,11L18,6C18,5.735 17.895,5.48 17.707,5.293C17.52,5.105 17.265,5 17,5C14.126,5 8.874,5 6,5C5.735,5 5.48,5.105 5.293,5.293C5.105,5.48 5,5.735 5,6C5,8.874 5,14.126 5,17C5,17.265 5.105,17.52 5.293,17.707C5.48,17.895 5.735,18 6,18L13,18L13,19ZM3,17.732C2.85,17.645 2.71,17.539 2.586,17.414C2.211,17.039 2,16.53 2,16C2,13.126 2,6.874 2,4C2,3.47 2.211,2.961 2.586,2.586C2.961,2.211 3.47,2 4,2C6.874,2 13.126,2 16,2C16.53,2 17.039,2.211 17.414,2.586C17.539,2.71 17.645,2.85 17.732,3L4,3C3.735,3 3.48,3.105 3.293,3.293C3.105,3.48 3,3.735 3,4L3,17.732ZM13,17L6.5,17C6.224,17 6,16.776 6,16.5L6,9.5C6,9.224 6.224,9 6.5,9L16.5,9C16.776,9 17,9.224 17,9.5L17,11L16,11L16,10L7,10L7,16L13,16L13,17Z" style="fill:white;"/>
</svg>

