<?xml version="1.0" encoding="UTF-8" standalone="no"?>
<!DOCTYPE svg PUBLIC "-//W3C//DTD SVG 1.1//EN" "http://www.w3.org/Graphics/SVG/1.1/DTD/svg11.dtd">
<svg width="22px" height="22px" version="1.1" xmlns="http://www.w3.org/2000/svg" xmlns:xlink="http://www.w3.org/1999/xlink" xml:space="preserve" xmlns:serif="http://www.serif.com/" style="fill-rule:evenodd;clip-rule:evenodd;stroke-linejoin:round;stroke-miterlimit:2;">
    <rect x="0" y="0" width="22" height="22" style="fill-opacity:0;"/>
    <path d="M17,5.5C17,5.224 16.776,5 16.5,5L14.5,5C14.224,5 14,5.224 14,5.5C14,5.776 14.224,6 14.5,6L16.5,6C16.776,6 17,5.776 17,5.5Z" style="fill:white;"/>
    <path d="M8,5.5C8,5.224 7.776,5 7.5,5L5.5,5C5.224,5 5,5.224 5,5.5C5,5.776 5.224,6 5.5,6L7.5,6C7.776,6 8,5.776 8,5.5Z" style="fill:white;"/>
    <path d="M12,5.5C12,5.224 11.776,5 11.5,5L10.5,5C10.224,5 10,5.224 10,5.5C10,5.776 10.224,6 10.5,6L11.5,6C11.776,6 12,5.776 12,5.5Z" style="fill:white;"/>
    <path d="M19,13L22,13L22,14L21,14L21,21L14,21L14,14L13,14L13,13L16,13L16,12L19,12L19,13ZM15,14L15,20L20,20L20,14L15,14ZM19,15L18,15L18,19L19,19L19,15ZM17,15L16,15L16,19L17,19L17,15Z" style="fill:white;"/>
    <path d="M13,19L5,19C4.47,19 3.961,18.789 3.586,18.414C3.211,18.039 3,17.53 3,17L3,5C3,4.47 3.211,3.961 3.586,3.586C3.961,3.211 4.47,3 5,3L17,3C17.53,3 18.039,3.211 18.414,3.586C18.789,3.961 19,4.47 19,5L19,11L18,11L18,5C18,4.735 17.895,4.48 17.707,4.293C17.52,4.105 17.265,4 17,4L5,4C4.735,4 4.48,4.105 4.293,4.293C4.105,4.48 4,4.735 4,5L4,17C4,17.265 4.105,17.52 4.293,17.707C4.48,17.895 4.735,18 5,18L13,18L13,19ZM13,17L5.5,17C5.224,17 5,16.776 5,16.5L5,8.5C5,8.224 5.224,8 5.5,8L16.5,8C16.776,8 17,8.224 17,8.5L17,11L16,11L16,9L6,9L6,16L13,16L13,17Z" style="fill:white;"/>
</svg>

