<?xml version="1.0" encoding="UTF-8" standalone="no"?>
<!DOCTYPE svg PUBLIC "-//W3C//DTD SVG 1.1//EN" "http://www.w3.org/Graphics/SVG/1.1/DTD/svg11.dtd">
<svg width="22px" height="22px" version="1.1" xmlns="http://www.w3.org/2000/svg" xmlns:xlink="http://www.w3.org/1999/xlink" xml:space="preserve" xmlns:serif="http://www.serif.com/" style="fill-rule:evenodd;clip-rule:evenodd;stroke-linejoin:round;stroke-miterlimit:2;">
    <rect x="0" y="0" width="22" height="22" style="fill-opacity:0;"/>
    <g id="RemoveMultipleKeys" transform="matrix(0.5,0,0,0.5,-53.1362,-94.4995)">
        <g transform="matrix(2.39439,0,0,2.39439,-742.784,-198.78)">
            <path d="M364.626,173.944C364.629,174.526 364.395,175.09 363.978,175.507C363.132,176.353 361.753,176.37 360.923,175.545C360.256,174.881 360.114,173.843 360.575,173.001L359.322,171.755L358.109,172.968L357.461,172.323L358.673,171.11L358.025,170.465L356.812,171.678L356.164,171.033L357.376,169.82L357.051,169.497L357.933,168.616L361.457,172.121C362.299,171.659 363.34,171.797 364.007,172.46C364.401,172.851 364.623,173.384 364.626,173.944ZM363.7,174.005C363.692,174.325 363.559,174.633 363.33,174.862C362.846,175.346 362.058,175.355 361.584,174.884C361.11,174.412 361.117,173.626 361.6,173.142C362.084,172.659 362.872,172.649 363.346,173.121C363.58,173.353 363.708,173.672 363.7,174.005ZM367.967,168.942C367.97,169.524 367.736,170.088 367.319,170.505C366.473,171.351 365.094,171.368 364.264,170.543C363.597,169.879 363.455,168.841 363.916,167.999L362.663,166.753L361.451,167.966L360.802,167.321L362.014,166.108L361.366,165.463L360.154,166.676L359.505,166.031L360.717,164.818L360.393,164.495L361.274,163.614L364.798,167.119C365.64,166.657 366.681,166.795 367.348,167.458C367.742,167.849 367.964,168.382 367.967,168.942ZM367.041,169.003C367.033,169.323 366.9,169.631 366.671,169.86C366.187,170.344 365.399,170.353 364.925,169.882C364.451,169.41 364.458,168.624 364.942,168.14C365.425,167.657 366.213,167.647 366.687,168.119C366.921,168.351 367.049,168.67 367.041,169.003Z" style="fill:white;"/>
        </g>
        <g transform="matrix(2,0,0,2,106.272,188.999)">
            <path d="M19,13L22,13L22,14L21,14L21,21L14,21L14,14L13,14L13,13L16,13L16,12L19,12L19,13ZM15,14L15,20L20,20L20,14L15,14ZM19,15L18,15L18,19L19,19L19,15ZM17,15L16,15L16,19L17,19L17,15Z" style="fill:white;"/>
        </g>
    </g>
</svg>

