<?xml version="1.0" encoding="UTF-8" standalone="no"?>
<!DOCTYPE svg PUBLIC "-//W3C//DTD SVG 1.1//EN" "http://www.w3.org/Graphics/SVG/1.1/DTD/svg11.dtd">
<svg width="22px" height="22px" version="1.1" xmlns="http://www.w3.org/2000/svg" xmlns:xlink="http://www.w3.org/1999/xlink" xml:space="preserve" xmlns:serif="http://www.serif.com/" style="fill-rule:evenodd;clip-rule:evenodd;stroke-linejoin:round;stroke-miterlimit:2;">
    <rect x="0" y="0" width="22" height="22" style="fill-opacity:0;"/>
    <g transform="matrix(1,0,0,1,1,2)">
        <path d="M8.5,11C8.633,11 8.76,11.053 8.854,11.146C8.947,11.24 9,11.367 9,11.5C9,11.633 8.947,11.76 8.854,11.854C8.76,11.947 8.633,12 8.5,12L4.5,12C4.367,12 4.24,11.947 4.146,11.854C4.053,11.76 4,11.633 4,11.5C4,11.367 4.053,11.24 4.146,11.146C4.24,11.053 4.367,11 4.5,11L8.5,11ZM11,11.5C11,11.367 11.053,11.24 11.146,11.146C11.24,11.053 11.367,11 11.5,11L15.5,11C15.633,11 15.76,11.053 15.854,11.146C15.947,11.24 16,11.367 16,11.5C16,11.633 15.947,11.76 15.854,11.854C15.76,11.947 15.633,12 15.5,12L11.5,12C11.367,12 11.24,11.947 11.146,11.854C11.053,11.76 11,11.633 11,11.5ZM8.5,9C8.633,9 8.76,9.053 8.854,9.146C8.947,9.24 9,9.367 9,9.5C9,9.633 8.947,9.76 8.854,9.854C8.76,9.947 8.633,10 8.5,10L4.5,10C4.367,10 4.24,9.947 4.146,9.854C4.053,9.76 4,9.633 4,9.5C4,9.367 4.053,9.24 4.146,9.146C4.24,9.053 4.367,9 4.5,9L8.5,9ZM11,9.5C11,9.367 11.053,9.24 11.146,9.146C11.24,9.053 11.367,9 11.5,9L15.5,9C15.633,9 15.76,9.053 15.854,9.146C15.947,9.24 16,9.367 16,9.5C16,9.633 15.947,9.76 15.854,9.854C15.76,9.947 15.633,10 15.5,10L11.5,10C11.367,10 11.24,9.947 11.146,9.854C11.053,9.76 11,9.633 11,9.5ZM8.5,7C8.633,7 8.76,7.053 8.854,7.146C8.947,7.24 9,7.367 9,7.5C9,7.633 8.947,7.76 8.854,7.854C8.76,7.947 8.633,8 8.5,8L4.5,8C4.367,8 4.24,7.947 4.146,7.854C4.053,7.76 4,7.633 4,7.5C4,7.367 4.053,7.24 4.146,7.146C4.24,7.053 4.367,7 4.5,7L8.5,7ZM11,7.5C11,7.367 11.053,7.24 11.146,7.146C11.24,7.053 11.367,7 11.5,7L15.5,7C15.633,7 15.76,7.053 15.854,7.146C15.947,7.24 16,7.367 16,7.5C16,7.633 15.947,7.76 15.854,7.854C15.76,7.947 15.633,8 15.5,8L11.5,8C11.367,8 11.24,7.947 11.146,7.854C11.053,7.76 11,7.633 11,7.5Z" style="fill:white;"/>
    </g>
    <g transform="matrix(0.8,0,0,1,2.6,1)">
        <path d="M10.5,3L13,6L8,6L10.5,3Z" style="fill:white;"/>
    </g>
    <g transform="matrix(0.8,-2.44929e-17,2.44929e-17,-1,2.6,22)">
        <path d="M10.5,3L13,6L8,6L10.5,3Z" style="fill:white;"/>
    </g>
</svg>

