<?xml version="1.0" encoding="UTF-8" standalone="no"?>
<!DOCTYPE svg PUBLIC "-//W3C//DTD SVG 1.1//EN" "http://www.w3.org/Graphics/SVG/1.1/DTD/svg11.dtd">
<svg width="22px" height="22px" version="1.1" xmlns="http://www.w3.org/2000/svg" xmlns:xlink="http://www.w3.org/1999/xlink" xml:space="preserve" xmlns:serif="http://www.serif.com/" style="fill-rule:evenodd;clip-rule:evenodd;stroke-linejoin:round;stroke-miterlimit:2;">
    <rect x="0" y="0" width="22" height="22" style="fill-opacity:0;"/>
    <g id="Random">
        <path d="M11,16.905L11,16.905C14.259,16.905 16.905,14.259 16.905,11C16.905,10.027 16.669,9.108 16.252,8.299L17.058,7.492C17.657,8.524 18,9.722 18,11C18,14.863 14.863,18 11,18L11,18L11,19.38C11.04,19.545 10.996,19.725 10.868,19.854C10.673,20.049 10.356,20.049 10.161,19.854L8.146,17.839C8.112,17.804 8.083,17.766 8.061,17.725L8.028,17.651L8.006,17.562L8,17.486L8.006,17.409L8.028,17.32L8.061,17.246C8.083,17.205 8.112,17.167 8.146,17.132L10.146,15.132C10.342,14.937 10.658,14.937 10.854,15.132C10.951,15.23 11,15.358 11,15.486L11,16.905ZM11,4L11,2.612C10.96,2.448 11.004,2.267 11.132,2.139C11.327,1.944 11.644,1.944 11.839,2.139L13.854,4.153C13.888,4.188 13.917,4.227 13.939,4.268L13.972,4.342L13.994,4.431L14,4.507L13.994,4.583L13.972,4.672L13.939,4.746C13.917,4.787 13.888,4.826 13.854,4.861L11.854,6.861C11.658,7.056 11.342,7.056 11.146,6.861C11.049,6.763 11,6.635 11,6.507L11,5.095L11,5.095C7.741,5.095 5.095,7.741 5.095,11C5.095,11.88 5.288,12.716 5.634,13.467L4.817,14.283C4.296,13.304 4,12.186 4,11C4,7.137 7.137,4 11,4L11,4Z" style="fill:white;"/>
    </g>
</svg>

