<?xml version="1.0" encoding="UTF-8" standalone="no"?>
<!DOCTYPE svg PUBLIC "-//W3C//DTD SVG 1.1//EN" "http://www.w3.org/Graphics/SVG/1.1/DTD/svg11.dtd">
<svg width="22px" height="22px" version="1.1" xmlns="http://www.w3.org/2000/svg" xmlns:xlink="http://www.w3.org/1999/xlink" xml:space="preserve" xmlns:serif="http://www.serif.com/" style="fill-rule:evenodd;clip-rule:evenodd;stroke-linejoin:round;stroke-miterlimit:2;">
    <rect x="0" y="0" width="22" height="22" style="fill-opacity:0;"/>
    <g>
        <g transform="matrix(1,0,0,1,0,-1)">
            <path d="M7,9.471C7.008,9.609 6.959,9.749 6.854,9.854C6.659,10.05 6.341,10.05 6.146,9.854L4.146,7.854C4.111,7.819 4.082,7.781 4.06,7.739L4.027,7.666L4.005,7.576L3.999,7.5L4.005,7.424L4.027,7.334L4.06,7.26C4.082,7.219 4.111,7.18 4.146,7.146L6.146,5.145C6.341,4.95 6.659,4.95 6.854,5.145C6.959,5.25 7.008,5.391 7,5.528L7,6.999C7,6.999 15.35,7 17.5,7C17.776,7 18,7.224 18,7.5L18,7.5C18,7.776 17.776,8 17.5,8C15.35,8 7,8.001 7,8.001L7,9.471Z" style="fill:white;"/>
        </g>
        <g transform="matrix(-1,0,0,1,20.999,8)">
            <path d="M7,9.471C7.008,9.609 6.959,9.749 6.854,9.854C6.659,10.05 6.341,10.05 6.146,9.854L4.146,7.854C4.111,7.819 4.082,7.781 4.06,7.739L4.027,7.666L4.005,7.576L3.999,7.5L4.005,7.424L4.027,7.334L4.06,7.26C4.082,7.219 4.111,7.18 4.146,7.146L6.146,5.145C6.341,4.95 6.659,4.95 6.854,5.145C6.959,5.25 7.008,5.391 7,5.528L7,6.999C7,6.999 15.35,7 17.5,7C17.776,7 18,7.224 18,7.5L18,7.5C18,7.776 17.776,8 17.5,8C15.35,8 7,8.001 7,8.001L7,9.471Z" style="fill:white;"/>
        </g>
    </g>
</svg>

