<?xml version="1.0" encoding="UTF-8" standalone="no"?>
<!DOCTYPE svg PUBLIC "-//W3C//DTD SVG 1.1//EN" "http://www.w3.org/Graphics/SVG/1.1/DTD/svg11.dtd">
<svg width="22px" height="22px" version="1.1" xmlns="http://www.w3.org/2000/svg" xmlns:xlink="http://www.w3.org/1999/xlink" xml:space="preserve" xmlns:serif="http://www.serif.com/" style="fill-rule:evenodd;clip-rule:evenodd;stroke-linejoin:round;stroke-miterlimit:2;">
    <rect x="0" y="0" width="22" height="22" style="fill-opacity:0;"/>
    <g transform="matrix(1.03704,0,0,1.03704,1.667,1.68736)">
        <path d="M12.75,2.25L3.75,2.25C2.917,2.25 2.25,2.925 2.25,3.75L2.25,14.25C2.25,15.075 2.918,15.75 3.75,15.75L14.25,15.75C15.075,15.75 15.75,15.075 15.75,14.25L15.75,5.25L12.75,2.25ZM9,14.25C7.755,14.25 6.75,13.245 6.75,12C6.75,10.755 7.755,9.75 9,9.75C10.245,9.75 11.25,10.755 11.25,12C11.25,13.245 10.245,14.25 9,14.25ZM10.929,7.065L4.179,7.071L4.179,4.179L10.929,4.179L10.929,7.065Z" style="fill:white;fill-rule:nonzero;"/>
    </g>
</svg>

