<?xml version="1.0" encoding="UTF-8" standalone="no"?>
<!DOCTYPE svg PUBLIC "-//W3C//DTD SVG 1.1//EN" "http://www.w3.org/Graphics/SVG/1.1/DTD/svg11.dtd">
<svg width="22px" height="22px" version="1.1" xmlns="http://www.w3.org/2000/svg" xmlns:xlink="http://www.w3.org/1999/xlink" xml:space="preserve" xmlns:serif="http://www.serif.com/" style="fill-rule:evenodd;clip-rule:evenodd;stroke-linejoin:round;stroke-miterlimit:2;">
    <rect x="0" y="0" width="22" height="22" style="fill-opacity:0;"/>
    <g transform="matrix(1,0,0,1,0,-1)">
        <g>
            <g transform="matrix(1,0,0,1,-1,1)">
                <path d="M9,16L3.5,16C3.224,16 3,15.776 3,15.5L3,3.5C3,3.224 3.224,3 3.5,3L12,3C12.265,3 12.52,3.105 12.707,3.293C12.895,3.48 13,3.735 13,4L13,5L12,5L12,4L4,4L4,15L9,15L9,16Z" style="fill:white;"/>
            </g>
            <g transform="matrix(-0.707107,-0.707107,0.707107,-0.707107,14.5787,29.0472)">
                <g transform="matrix(-0.707107,0.707107,-0.707107,-0.707107,30.141,9.52362)">
                    <path d="M8,12.999C8,12.999 7.997,12.999 7.99,12.999C7.462,12.999 6.956,12.79 6.583,12.417C6.21,12.044 6,11.538 6,11.01C6,10.455 6,10 6,10L7,10L7,11.045C7,11.573 7.427,12 7.955,12C9.648,12 13,12 13,12L13,10L15.5,12.5L13,15L13,13L8,12.999ZM7,8L6,8L6,9L7,9L7,8ZM7,6L6,6L6,7L7,7L7,6Z" style="fill:white;"/>
                </g>
                <g transform="matrix(-0.707107,0.707107,-0.707107,-0.707107,30.8481,8.81652)">
                    <path d="M11,18L19,18L19,7L11,7L11,11L10,11L10,6.5C10,6.224 10.224,6 10.5,6L19,6C19.265,6 19.52,6.105 19.707,6.293C19.895,6.48 20,6.735 20,7C20,10.28 20,18.5 20,18.5C20,18.776 19.776,19 19.5,19L10.5,19C10.224,19 10,18.776 10,18.5L10,14L11,14L11,18Z" style="fill:white;"/>
                </g>
            </g>
        </g>
    </g>
</svg>

