<?xml version="1.0" encoding="UTF-8" standalone="no"?>
<!DOCTYPE svg PUBLIC "-//W3C//DTD SVG 1.1//EN" "http://www.w3.org/Graphics/SVG/1.1/DTD/svg11.dtd">
<svg width="22px" height="22px" version="1.1" xmlns="http://www.w3.org/2000/svg" xmlns:xlink="http://www.w3.org/1999/xlink" xml:space="preserve" xmlns:serif="http://www.serif.com/" style="fill-rule:evenodd;clip-rule:evenodd;stroke-linejoin:round;stroke-miterlimit:2;">
    <rect x="0" y="0" width="22" height="22" style="fill-opacity:0;"/>
    <g transform="matrix(1,0,0,1,0,-2)">
        <g transform="matrix(0.718603,0,0,0.718603,-377.728,15.1451)">
            <path d="M542.378,-7.5L533.992,0.888L533.992,4.007L537.113,4.007L545.498,-4.377L542.378,-7.5Z" style="fill:white;"/>
        </g>
        <g transform="matrix(0.718603,0,0,0.718603,-372.966,10.3823)">
            <path d="M538.636,-3.423L539.225,-3.176L541.175,-1.226C541.505,-0.896 541.505,-0.376 541.175,-0.046L540.265,0.86L537.14,-2.265L538.046,-3.177C538.202,-3.335 538.415,-3.423 538.636,-3.423Z" style="fill:white;"/>
        </g>
        <g transform="matrix(1,0,0,1,0,2)">
            <path d="M8.878,19L5,19C3.895,19 3,18.105 3,17L3,5C3,3.895 3.895,3 5,3L17,3C17.53,3 18.039,3.211 18.414,3.586C18.789,3.961 19,4.47 19,5L19,13.5C19,13.678 18.907,13.834 18.767,13.923C18.523,13.794 18.269,13.674 18.004,13.567C18.002,13.545 18,13.522 18,13.5L18,5C18,4.448 17.552,4 17,4L5,4C4.448,4 4,4.448 4,5L4,17C4,17.552 4.448,18 5,18L8.026,18C8.229,18.267 8.514,18.617 8.878,19Z" style="fill:white;"/>
        </g>
        <g id="path832" transform="matrix(1,0,0,1,0,2)">
            <path d="M9.333,17.492C9.333,17.492 11.519,14 15.167,14C18.814,14 21,17.492 21,17.492C21,17.492 18.823,21 15.167,21C11.51,21 9.333,17.492 9.333,17.492ZM15.167,15C16.5,15 17.583,16.12 17.583,17.5C17.583,18.88 16.5,20 15.167,20C13.833,20 12.75,18.88 12.75,17.5C12.75,16.12 13.833,15 15.167,15ZM14.563,15.563C15.115,15.563 15.563,16.011 15.563,16.563C15.563,17.115 15.115,17.563 14.563,17.563C14.011,17.563 13.563,17.115 13.563,16.563C13.563,16.011 14.011,15.563 14.563,15.563Z" style="fill:white;"/>
        </g>
    </g>
</svg>

