<?xml version="1.0" encoding="UTF-8" standalone="no"?>
<!DOCTYPE svg PUBLIC "-//W3C//DTD SVG 1.1//EN" "http://www.w3.org/Graphics/SVG/1.1/DTD/svg11.dtd">
<svg width="22px" height="22px" version="1.1" xmlns="http://www.w3.org/2000/svg" xmlns:xlink="http://www.w3.org/1999/xlink" xml:space="preserve" xmlns:serif="http://www.serif.com/" style="fill-rule:evenodd;clip-rule:evenodd;stroke-linejoin:round;stroke-miterlimit:2;">
    <rect x="0" y="0" width="22" height="22" style="fill-opacity:0;"/>
    <path d="M9,5.272L9,7.436L6.066,13.064C6.97,13.797 7.266,15.089 6.707,16.161C6.069,17.384 4.558,17.86 3.335,17.222C2.111,16.584 1.636,15.073 2.273,13.849C2.832,12.778 4.061,12.28 5.179,12.602L9,5.272Z" style="fill:rgb(166,166,166);"/>
    <path d="M12,5.291L15.811,12.602C16.929,12.28 18.158,12.778 18.717,13.849C19.355,15.073 18.879,16.584 17.655,17.222C16.432,17.86 14.921,17.384 14.283,16.161C13.724,15.089 14.02,13.797 14.924,13.064L12,7.455L12,5.291Z" style="fill:rgb(166,166,166);"/>
    <g transform="matrix(1,0,0,1,-416,-15)">
        <path d="M426,29.05L426,18.499C426,18.223 426.223,18 426.499,18L426.501,18C426.777,18 427,18.223 427,18.499C427,20.654 427,29.05 427,29.05C428.141,29.282 429,30.291 429,31.5C429,32.88 427.88,34 426.5,34C425.12,34 424,32.88 424,31.5C424,30.291 424.859,29.282 426,29.05Z" style="fill:white;"/>
        <path d="M426,29.05L426,18.499C426,18.223 426.223,18 426.499,18L426.501,18C426.777,18 427,18.223 427,18.499C427,20.654 427,29.05 427,29.05C428.141,29.282 429,30.291 429,31.5C429,32.88 427.88,34 426.5,34C425.12,34 424,32.88 424,31.5C424,30.291 424.859,29.282 426,29.05Z" style="fill:white;"/>
    </g>
</svg>

