<?xml version="1.0" encoding="UTF-8" standalone="no"?>
<!DOCTYPE svg PUBLIC "-//W3C//DTD SVG 1.1//EN" "http://www.w3.org/Graphics/SVG/1.1/DTD/svg11.dtd">
<svg width="22px" height="22px" version="1.1" xmlns="http://www.w3.org/2000/svg" xmlns:xlink="http://www.w3.org/1999/xlink" xml:space="preserve" xmlns:serif="http://www.serif.com/" style="fill-rule:evenodd;clip-rule:evenodd;stroke-linejoin:round;stroke-miterlimit:2;">
    <rect x="0" y="0" width="22" height="22" style="fill-opacity:0;"/>
    <g transform="matrix(1,0,0,1,1,1)">
        <path d="M11,13L2,13L2,2L11,2L11,13ZM4,11.158L4,4L6.686,4C7.232,4 7.671,4.072 8.001,4.217C8.332,4.362 8.591,4.585 8.778,4.886C8.965,5.187 9.059,5.502 9.059,5.831C9.059,6.137 8.976,6.425 8.81,6.695C8.644,6.965 8.393,7.184 8.058,7.35C8.491,7.477 8.823,7.693 9.056,7.999C9.289,8.305 9.405,8.666 9.405,9.083C9.405,9.418 9.334,9.73 9.193,10.018C9.051,10.306 8.876,10.528 8.668,10.685C8.46,10.841 8.198,10.959 7.884,11.039C7.57,11.118 7.185,11.158 6.729,11.158L4,11.158ZM4.947,10.313L6.729,10.313C7.035,10.313 7.25,10.302 7.374,10.279C7.592,10.24 7.774,10.175 7.921,10.084C8.067,9.993 8.188,9.86 8.282,9.686C8.377,9.512 8.424,9.311 8.424,9.083C8.424,8.816 8.355,8.584 8.219,8.387C8.082,8.19 7.892,8.052 7.65,7.972C7.407,7.892 7.058,7.853 6.603,7.853L4.947,7.853L4.947,10.313ZM4.947,7.008L6.495,7.008C6.915,7.008 7.216,6.98 7.398,6.925C7.639,6.853 7.821,6.734 7.943,6.568C8.065,6.402 8.126,6.194 8.126,5.943C8.126,5.706 8.069,5.497 7.955,5.316C7.841,5.135 7.678,5.012 7.467,4.945C7.255,4.878 6.892,4.845 6.378,4.845L4.947,4.845L4.947,7.008Z" style="fill:white;"/>
    </g>
    <g transform="matrix(1,0,0,1,5.5,7)">
        <path d="M15.5,11C15.5,9.344 14.156,8 12.5,8L9.5,8C7.844,8 6.5,9.344 6.5,11C6.5,12.656 7.844,14 9.5,14L12.5,14C14.156,14 15.5,12.656 15.5,11ZM12.5,9C13.604,9 14.5,9.902 14.5,11.012C14.5,12.123 13.604,13.025 12.5,13.025C11.396,13.025 10.5,12.123 10.5,11.012C10.5,9.902 11.396,9 12.5,9Z" style="fill:white;"/>
    </g>
    <path d="M12.355,15L2,15L2,2L21,2L21,15L20.645,15C19.94,14.378 19.014,14 18,14L15,14C13.986,14 13.06,14.378 12.355,15ZM3,3L3,14L12,14L12,3L3,3ZM17,13L15,10L19,10L17,13ZM17,4L19,7L15,7L17,4Z" style="fill:white;fill-opacity:0.5;"/>
</svg>

