<?xml version="1.0" encoding="UTF-8" standalone="no"?>
<!DOCTYPE svg PUBLIC "-//W3C//DTD SVG 1.1//EN" "http://www.w3.org/Graphics/SVG/1.1/DTD/svg11.dtd">
<svg width="22px" height="22px" version="1.1" xmlns="http://www.w3.org/2000/svg" xmlns:xlink="http://www.w3.org/1999/xlink" xml:space="preserve" xmlns:serif="http://www.serif.com/" style="fill-rule:evenodd;clip-rule:evenodd;stroke-linejoin:round;stroke-miterlimit:2;">
    <rect x="0" y="0" width="22" height="22" style="fill-opacity:0;"/>
    <g id="TimeStretch" transform="matrix(0.5,0,0,0.5,-244.5,-75)">
        <g transform="matrix(1.86667,0,0,1.86667,484.6,155.2)">
            <path d="M5.571,0.429C4.98,0.429 4.5,0.908 4.5,1.5C4.5,2.807 4.5,4.955 4.5,5.878C4.5,6.162 4.613,6.434 4.814,6.635C5.521,7.343 7.179,9 7.179,9C7.179,9 5.521,10.657 4.814,11.365C4.613,11.566 4.5,11.838 4.5,12.122C4.5,13.045 4.5,15.193 4.5,16.5C4.5,17.092 4.98,17.571 5.571,17.571C7.427,17.571 11.216,17.571 13.071,17.571C13.663,17.571 14.143,17.092 14.143,16.5C14.143,15.187 14.143,13.025 14.143,12.11C14.143,11.833 14.036,11.567 13.844,11.368C13.167,10.662 11.571,9 11.571,9C11.571,9 13.167,7.338 13.844,6.632C14.036,6.433 14.143,6.167 14.143,5.89C14.143,4.975 14.143,2.813 14.143,1.5C14.143,0.908 13.663,0.429 13.071,0.429C11.216,0.429 7.427,0.429 5.571,0.429ZM13.071,12.214L13.071,16.5L5.571,16.5L5.571,12.214L9.321,9L13.071,12.214ZM9.321,9L5.571,5.786L5.571,1.5L13.071,1.5L13.071,5.786L9.321,9Z" style="fill:white;fill-rule:nonzero;"/>
        </g>
        <g transform="matrix(2,0,0,2,489,150)">
            <path d="M16.5,16L15,14L18,14L16.5,16ZM20,11C20,10.735 19.895,10.48 19.707,10.293C19.52,10.105 19.265,10 19,10C17.669,10 15.331,10 14,10C13.735,10 13.48,10.105 13.293,10.293C13.105,10.48 13,10.735 13,11C13,11.265 13.105,11.52 13.293,11.707C13.48,11.895 13.735,12 14,12C15.331,12 17.669,12 19,12C19.265,12 19.52,11.895 19.707,11.707C19.895,11.52 20,11.265 20,11ZM16.5,6L18,8L15,8L16.5,6Z" style="fill:white;"/>
        </g>
    </g>
</svg>

