<?xml version="1.0" encoding="UTF-8" standalone="no"?>
<!DOCTYPE svg PUBLIC "-//W3C//DTD SVG 1.1//EN" "http://www.w3.org/Graphics/SVG/1.1/DTD/svg11.dtd">
<svg width="22px" height="22px" version="1.1" xmlns="http://www.w3.org/2000/svg" xmlns:xlink="http://www.w3.org/1999/xlink" xml:space="preserve" xmlns:serif="http://www.serif.com/" style="fill-rule:evenodd;clip-rule:evenodd;stroke-linecap:round;stroke-linejoin:round;stroke-miterlimit:1.5;">
    <rect x="0" y="0" width="22" height="22" style="fill-opacity:0;"/>
    <path d="M5.5,20.525C5.5,20.525 7.081,20.346 7.5,18.5C7.979,16.389 5.879,15.594 3.5,13.5C3.179,13.217 2.944,12.876 2.778,12.498C1.918,10.529 2.949,7.557 3.527,6.599C4.058,5.719 5.431,3.438 8.684,2.584C11.603,1.818 17.821,1.947 19.19,7.063C20.291,11.174 18.16,13.044 17.444,13.641C15.12,15.575 12.869,15.606 9.589,15.535" style="fill:none;stroke:white;stroke-width:1px;"/>
    <g transform="matrix(1,0,0,1.35957,1,-7.21375)">
        <ellipse cx="5.534" cy="16.339" rx="3.034" ry="1.839" style="fill:none;stroke:white;stroke-width:0.84px;"/>
    </g>
</svg>

