<?xml version="1.0" encoding="UTF-8" standalone="no"?>
<!DOCTYPE svg PUBLIC "-//W3C//DTD SVG 1.1//EN" "http://www.w3.org/Graphics/SVG/1.1/DTD/svg11.dtd">
<svg width="22px" height="22px" version="1.1" xmlns="http://www.w3.org/2000/svg" xmlns:xlink="http://www.w3.org/1999/xlink" xml:space="preserve" xmlns:serif="http://www.serif.com/" style="fill-rule:evenodd;clip-rule:evenodd;stroke-linejoin:round;stroke-miterlimit:2;">
    <rect x="0" y="0" width="22" height="22" style="fill-opacity:0;"/>
    <path d="M7.297,19.043L8.621,18.441C8.872,18.327 9.169,18.438 9.283,18.69C9.397,18.941 9.286,19.237 9.035,19.352C8.224,19.72 7.707,19.955 7.707,19.955C7.456,20.069 7.159,19.958 7.045,19.707C7.041,19.698 7.037,19.689 7.033,19.679L7.033,19.679L7.026,19.659L7.019,19.635L7.012,19.611L7.007,19.587L7.004,19.562L7.001,19.538L7,19.514L7,19.508L7,19.484L7.002,19.46L7.004,19.435L7.008,19.412L7.013,19.388L7.019,19.365L7.026,19.342L7.034,19.319L7.041,19.302L7.051,19.28L7.062,19.259L7.074,19.238L7.087,19.218L7.101,19.198L7.116,19.179L7.132,19.161L7.149,19.144L7.167,19.127L7.186,19.111L7.206,19.096L7.21,19.093L7.23,19.079L7.252,19.066L7.274,19.054L7.297,19.043ZM10.442,17.614L12.262,16.786C12.514,16.672 12.81,16.783 12.925,17.034C13.039,17.286 12.927,17.582 12.676,17.696L10.855,18.524C10.604,18.638 10.308,18.527 10.193,18.276C10.079,18.025 10.19,17.728 10.442,17.614ZM6.315,17.813L5.597,15.946C5.498,15.689 5.627,15.399 5.885,15.3C6.142,15.201 6.432,15.33 6.531,15.587L7.249,17.454C7.348,17.711 7.219,18.001 6.962,18.1C6.704,18.199 6.414,18.07 6.315,17.813ZM15.904,15.131C16.155,15.017 16.452,15.128 16.566,15.379C16.68,15.63 16.569,15.927 16.318,16.041L14.497,16.869C14.246,16.983 13.949,16.872 13.835,16.621C13.721,16.369 13.832,16.073 14.083,15.958L15.904,15.131ZM18,14.178L18,13.124C18,12.848 18.224,12.624 18.5,12.624C18.776,12.624 19,12.848 19,13.124L19,14.822L18.138,15.214C17.887,15.328 17.591,15.217 17.476,14.965C17.362,14.714 17.473,14.417 17.725,14.303L18,14.178ZM4.879,14.079L4.161,12.213C4.062,11.955 4.191,11.666 4.449,11.567C4.706,11.467 4.996,11.596 5.095,11.854L5.813,13.72C5.912,13.978 5.783,14.268 5.526,14.367C5.268,14.466 4.979,14.337 4.879,14.079ZM19,11.124C19,11.4 18.776,11.624 18.5,11.624C18.224,11.624 18,11.4 18,11.124L18,9.124C18,8.848 18.224,8.624 18.5,8.624C18.776,8.624 19,8.848 19,9.124L19,11.124ZM3.444,10.346L2.726,8.479C2.627,8.222 2.755,7.932 3.013,7.833C3.27,7.734 3.56,7.863 3.659,8.12L4.377,9.987C4.476,10.245 4.347,10.534 4.09,10.633C3.832,10.732 3.543,10.604 3.444,10.346ZM12.15,9.428L10.209,8.943C9.942,8.876 9.779,8.604 9.846,8.336C9.912,8.069 10.184,7.906 10.452,7.973L12.392,8.458C12.66,8.525 12.823,8.796 12.756,9.064C12.689,9.332 12.417,9.495 12.15,9.428ZM8.269,8.458L6.329,7.973C6.061,7.906 5.898,7.634 5.965,7.366C6.032,7.099 6.304,6.936 6.571,7.002L8.512,7.488C8.779,7.554 8.942,7.826 8.875,8.094C8.808,8.362 8.537,8.525 8.269,8.458ZM14.937,6.088C15.14,5.902 15.457,5.915 15.643,6.119C15.83,6.322 15.816,6.639 15.612,6.825L14.138,8.177C13.935,8.363 13.618,8.349 13.432,8.146C13.245,7.943 13.259,7.626 13.462,7.44L14.937,6.088ZM18,7.124L18,5.124C18,4.848 18.224,4.624 18.5,4.624C18.776,4.624 19,4.848 19,5.124L19,7.124C19,7.4 18.776,7.624 18.5,7.624C18.224,7.624 18,7.4 18,7.124ZM4.388,7.488L2.448,7.002C2.18,6.936 2.017,6.664 2.084,6.396C2.151,6.128 2.423,5.965 2.691,6.032L4.631,6.517C4.899,6.584 5.062,6.856 4.995,7.124C4.928,7.391 4.656,7.554 4.388,7.488ZM17.885,3.385C18.089,3.199 18.405,3.212 18.592,3.416C18.778,3.619 18.764,3.936 18.561,4.122L17.087,5.474C16.883,5.66 16.567,5.647 16.38,5.443C16.194,5.24 16.208,4.923 16.411,4.737L17.885,3.385Z" style="fill:white;"/>
</svg>

