<?xml version="1.0" encoding="UTF-8" standalone="no"?>
<!DOCTYPE svg PUBLIC "-//W3C//DTD SVG 1.1//EN" "http://www.w3.org/Graphics/SVG/1.1/DTD/svg11.dtd">
<svg width="22px" height="22px" version="1.1" xmlns="http://www.w3.org/2000/svg" xmlns:xlink="http://www.w3.org/1999/xlink" xml:space="preserve" xmlns:serif="http://www.serif.com/" style="fill-rule:evenodd;clip-rule:evenodd;stroke-linejoin:round;stroke-miterlimit:2;">
    <rect x="0" y="0" width="22" height="22" style="fill-opacity:0;"/>
    <path d="M3,19L3,16L4,16L4,18L6,18L6,19L3,19ZM19,19L19,16L18,16L18,18L16,18L16,19L19,19ZM14,18L12,18L12,18.999L14,18.999L14,18ZM10,18L8,18L8,18.999L10,18.999L10,18ZM18,12L18,14L18.999,14L18.999,12L18,12ZM3,12L3,14L3.999,14L3.999,12L3,12ZM3.999,10L3.999,8L3,8L3,10L3.999,10ZM18.999,10L18.999,8L18,8L18,10L18.999,10ZM3,3L6,3L6,4L4,4L4,6L3,6L3,3ZM19,3L16,3L16,4L18,4L18,6L19,6L19,3ZM14,3L12,3L12,4L14,4L14,3ZM10,3L8,3L8,4L10,4L10,3Z" style="fill:white;"/>
</svg>

