<?xml version="1.0" encoding="UTF-8" standalone="no"?>
<!DOCTYPE svg PUBLIC "-//W3C//DTD SVG 1.1//EN" "http://www.w3.org/Graphics/SVG/1.1/DTD/svg11.dtd">
<svg width="22px" height="22px" version="1.1" xmlns="http://www.w3.org/2000/svg" xmlns:xlink="http://www.w3.org/1999/xlink" xml:space="preserve" xmlns:serif="http://www.serif.com/" style="fill-rule:evenodd;clip-rule:evenodd;stroke-linecap:round;stroke-linejoin:round;stroke-miterlimit:1.5;">
    <rect x="0" y="0" width="22" height="22" style="fill-opacity:0;"/>
    <g transform="matrix(1,0,0,0.47619,-2,6)">
        <rect x="17" y="10.5" width="2" height="10.5" style="fill:rgb(166,166,166);"/>
    </g>
    <g transform="matrix(1,0,0,0.47619,-2,11)">
        <rect x="17" y="10.5" width="2" height="10.5" style="fill:white;"/>
    </g>
    <g transform="matrix(6.12323e-17,-1,0.952381,5.83165e-17,1,34)">
        <rect x="17" y="10.5" width="2" height="10.5" style="fill:white;"/>
    </g>
    <g transform="matrix(1,0,0,1,-65,-43)">
        <g transform="matrix(0.784705,0,0,1,13.0847,-5)">
            <path d="M84,60.5C84,60.367 83.947,60.24 83.854,60.146C83.76,60.053 83.633,60 83.5,60L70.482,60C70.349,60 70.222,60.053 70.128,60.146C70.035,60.24 69.982,60.367 69.982,60.5C69.982,60.633 70.035,60.76 70.128,60.854C70.222,60.947 70.349,61 70.482,61L83.5,61C83.633,61 83.76,60.947 83.854,60.854C83.947,60.76 84,60.633 84,60.5Z" style="fill:white;"/>
        </g>
        <g transform="matrix(0.784705,0,0,1,21.0847,-5)">
            <path d="M82.726,60.5C82.726,60.367 82.673,60.24 82.58,60.146C82.486,60.053 82.359,60 82.226,60L79.403,60C79.27,60 79.143,60.053 79.049,60.146C78.956,60.24 78.903,60.367 78.903,60.5C78.903,60.633 78.956,60.76 79.049,60.854C79.143,60.947 79.27,61 79.403,61L82.226,61C82.359,61 82.486,60.947 82.58,60.854C82.673,60.76 82.726,60.633 82.726,60.5Z" style="fill:white;"/>
        </g>
    </g>
    <g transform="matrix(0.538164,0.538164,-0.63979,0.63979,0.58281,-65.3409)">
        <path d="M78.024,45.847C78.01,45.378 77.555,45.004 76.998,45.004L71.771,45.004C71.499,45.004 71.238,45.095 71.045,45.257C70.853,45.419 70.745,45.638 70.745,45.867L70.745,57.693C70.745,57.924 70.855,58.146 71.052,58.308C71.248,58.471 71.513,58.56 71.789,58.556C73.073,58.537 75.084,58.508 75.084,58.508L78.302,55.802C78.302,55.802 78.095,48.388 78.024,45.847Z" style="fill:none;stroke:white;stroke-width:1.2px;"/>
    </g>
    <g transform="matrix(0.498774,0.484773,-0.634146,0.652461,3.09474,-61.9616)">
        <path d="M77.984,45.349L70.729,45.349L70.745,51.533L77.982,51.571L77.984,45.349Z" style="fill:white;stroke:white;stroke-width:0.92px;"/>
    </g>
</svg>

