<?xml version="1.0" encoding="UTF-8" standalone="no"?>
<!DOCTYPE svg PUBLIC "-//W3C//DTD SVG 1.1//EN" "http://www.w3.org/Graphics/SVG/1.1/DTD/svg11.dtd">
<svg width="22px" height="22px" version="1.1" xmlns="http://www.w3.org/2000/svg" xmlns:xlink="http://www.w3.org/1999/xlink" xml:space="preserve" xmlns:serif="http://www.serif.com/" style="fill-rule:evenodd;clip-rule:evenodd;stroke-linejoin:round;stroke-miterlimit:2;">
    <rect x="0" y="0" width="22" height="22" style="fill-opacity:0;"/>
    <g transform="matrix(0.571429,0,0,0.8,6.35714,5.5)">
        <path d="M6.375,2.5C6.375,2.155 5.983,1.875 5.5,1.875L2,1.875C1.517,1.875 1.125,2.155 1.125,2.5L1.125,5C1.125,5.345 1.517,5.625 2,5.625L5.5,5.625C5.983,5.625 6.375,5.345 6.375,5L6.375,2.5ZM2.875,3.125L2.875,4.375L4.625,4.375L4.625,3.125L2.875,3.125Z" style="fill:white;"/>
    </g>
    <g transform="matrix(0.571429,0,0,0.8,16.3571,5.5)">
        <path d="M6.375,2.5C6.375,2.155 5.983,1.875 5.5,1.875L2,1.875C1.517,1.875 1.125,2.155 1.125,2.5L1.125,5C1.125,5.345 1.517,5.625 2,5.625L5.5,5.625C5.983,5.625 6.375,5.345 6.375,5L6.375,2.5ZM2.875,3.125L2.875,4.375L4.625,4.375L4.625,3.125L2.875,3.125Z" style="fill:white;"/>
    </g>
    <g transform="matrix(0.571429,0,0,0.8,16.3571,15.5)">
        <path d="M6.375,2.5C6.375,2.155 5.983,1.875 5.5,1.875L2,1.875C1.517,1.875 1.125,2.155 1.125,2.5L1.125,5C1.125,5.345 1.517,5.625 2,5.625L5.5,5.625C5.983,5.625 6.375,5.345 6.375,5L6.375,2.5ZM2.875,3.125L2.875,4.375L4.625,4.375L4.625,3.125L2.875,3.125Z" style="fill:white;"/>
    </g>
    <g transform="matrix(0.571429,0,0,0.8,6.35714,15.5)">
        <path d="M6.375,2.5C6.375,2.155 5.983,1.875 5.5,1.875L2,1.875C1.517,1.875 1.125,2.155 1.125,2.5L1.125,5C1.125,5.345 1.517,5.625 2,5.625L5.5,5.625C5.983,5.625 6.375,5.345 6.375,5L6.375,2.5ZM2.875,3.125L2.875,4.375L4.625,4.375L4.625,3.125L2.875,3.125Z" style="fill:white;"/>
    </g>
    <g transform="matrix(0.571429,0,0,0.8,11.3571,10.5)">
        <path d="M6.375,2.5C6.375,2.155 5.983,1.875 5.5,1.875L2,1.875C1.517,1.875 1.125,2.155 1.125,2.5L1.125,5C1.125,5.345 1.517,5.625 2,5.625L5.5,5.625C5.983,5.625 6.375,5.345 6.375,5L6.375,2.5ZM2.875,3.125L2.875,4.375L4.625,4.375L4.625,3.125L2.875,3.125Z" style="fill:white;"/>
    </g>
    <g transform="matrix(0.571429,0,0,0.8,11.3571,0.5)">
        <path d="M6.375,2.5C6.375,2.155 5.983,1.875 5.5,1.875L2,1.875C1.517,1.875 1.125,2.155 1.125,2.5L1.125,5C1.125,5.345 1.517,5.625 2,5.625L5.5,5.625C5.983,5.625 6.375,5.345 6.375,5L6.375,2.5ZM2.875,3.125L2.875,4.375L4.625,4.375L4.625,3.125L2.875,3.125Z" style="fill:white;"/>
    </g>
    <g transform="matrix(0.571429,0,0,0.8,1.35714,0.5)">
        <path d="M6.375,2.5C6.375,2.155 5.983,1.875 5.5,1.875L2,1.875C1.517,1.875 1.125,2.155 1.125,2.5L1.125,5C1.125,5.345 1.517,5.625 2,5.625L5.5,5.625C5.983,5.625 6.375,5.345 6.375,5L6.375,2.5ZM2.875,3.125L2.875,4.375L4.625,4.375L4.625,3.125L2.875,3.125Z" style="fill:white;"/>
    </g>
    <g transform="matrix(0.571429,0,0,0.8,1.35714,10.5)">
        <path d="M6.375,2.5C6.375,2.155 5.983,1.875 5.5,1.875L2,1.875C1.517,1.875 1.125,2.155 1.125,2.5L1.125,5C1.125,5.345 1.517,5.625 2,5.625L5.5,5.625C5.983,5.625 6.375,5.345 6.375,5L6.375,2.5ZM2.875,3.125L2.875,4.375L4.625,4.375L4.625,3.125L2.875,3.125Z" style="fill:white;"/>
    </g>
    <g transform="matrix(1,0,0,1,1,1)">
        <path d="M18,8L18,17L17,17L17,18L8,18L8,17L17,17L17,8L18,8Z" style="fill:white;"/>
    </g>
    <path d="M7,13L7,14L4,14L4,13L7,13ZM9,14L8,14L8,13L9,13L9,14ZM14,10L14,13L13,13L13,14L10,14L10,13L13,13L13,10L14,10ZM14,9L13,9L13,8L14,8L14,9ZM14,7L13,7L13,4L14,4L14,7Z" style="fill:white;"/>
    <g transform="matrix(1,0,0,1,4,1)">
        <rect x="4" y="8" width="1" height="9" style="fill:white;"/>
    </g>
    <g transform="matrix(1,0,0,1,-1,-4)">
        <rect x="4" y="8" width="1" height="9" style="fill:white;"/>
    </g>
    <g transform="matrix(1,0,0,1,1,4)">
        <rect x="8" y="4" width="9" height="1" style="fill:white;"/>
    </g>
    <g transform="matrix(1,0,0,1,-4,-1)">
        <rect x="8" y="4" width="9" height="1" style="fill:white;"/>
    </g>
</svg>

