<?xml version="1.0" encoding="UTF-8" standalone="no"?>
<!DOCTYPE svg PUBLIC "-//W3C//DTD SVG 1.1//EN" "http://www.w3.org/Graphics/SVG/1.1/DTD/svg11.dtd">
<svg width="22px" height="22px" version="1.1" xmlns="http://www.w3.org/2000/svg" xmlns:xlink="http://www.w3.org/1999/xlink" xml:space="preserve" xmlns:serif="http://www.serif.com/" style="fill-rule:evenodd;clip-rule:evenodd;stroke-linejoin:round;stroke-miterlimit:2;">
    <rect x="0" y="0" width="22" height="22" style="fill-opacity:0;"/>
    <g transform="matrix(0.933333,0,0,0.933333,2.6,2.6)">
        <path d="M8.993,1.5C4.853,1.5 1.5,4.86 1.5,9C1.5,13.14 4.853,16.5 8.993,16.5C13.14,16.5 16.5,13.14 16.5,9C16.5,4.86 13.14,1.5 8.993,1.5ZM14.19,6L11.978,6C11.738,5.063 11.393,4.163 10.943,3.33C12.323,3.802 13.47,4.762 14.19,6ZM9,3.03C9.623,3.93 10.11,4.928 10.433,6L7.568,6C7.89,4.928 8.378,3.93 9,3.03ZM3.195,10.5C3.075,10.02 3,9.518 3,9C3,8.483 3.075,7.98 3.195,7.5L5.73,7.5C5.67,7.995 5.625,8.49 5.625,9C5.625,9.51 5.67,10.005 5.73,10.5L3.195,10.5ZM3.81,12L6.023,12C6.263,12.938 6.608,13.837 7.058,14.67C5.678,14.198 4.53,13.245 3.81,12ZM6.023,6L3.81,6C4.53,4.755 5.678,3.803 7.058,3.33C6.608,4.163 6.262,5.063 6.022,6ZM9,14.97C8.378,14.07 7.89,13.073 7.568,12L10.433,12C10.11,13.073 9.623,14.07 9,14.97ZM10.755,10.5L7.245,10.5C7.178,10.005 7.125,9.51 7.125,9C7.125,8.49 7.178,7.988 7.245,7.5L10.755,7.5C10.823,7.988 10.875,8.49 10.875,9C10.875,9.51 10.823,10.005 10.755,10.5ZM10.942,14.67C11.393,13.837 11.738,12.938 11.977,12L14.19,12C13.47,13.237 12.323,14.198 10.942,14.67ZM12.27,10.5C12.33,10.005 12.375,9.51 12.375,9C12.375,8.49 12.33,7.995 12.27,7.5L14.805,7.5C14.925,7.98 15,8.483 15,9C15,9.518 14.925,10.02 14.805,10.5L12.27,10.5Z" style="fill:white;fill-rule:nonzero;"/>
    </g>
</svg>

