<?xml version="1.0" encoding="utf-8"?>
<!-- Generator: Adobe Illustrator 21.0.2, SVG Export Plug-In . SVG Version: 6.00 Build 0)  -->
<svg version="1.1"
	 id="svg2" inkscape:version="0.91 r13725" sodipodi:docname="addrender_off.svg" xmlns:cc="http://creativecommons.org/ns#" xmlns:dc="http://purl.org/dc/elements/1.1/" xmlns:inkscape="http://www.inkscape.org/namespaces/inkscape" xmlns:rdf="http://www.w3.org/1999/02/22-rdf-syntax-ns#" xmlns:sodipodi="http://sodipodi.sourceforge.net/DTD/sodipodi-0.dtd" xmlns:svg="http://www.w3.org/2000/svg"
	 xmlns="http://www.w3.org/2000/svg" xmlns:xlink="http://www.w3.org/1999/xlink" x="0px" y="0px" viewBox="0 0 17 17"
	 style="enable-background:new 0 0 17 17;" xml:space="preserve">
<style type="text/css">
	.st0{fill:#E6E6E6;}
	.st1{fill:#242424;}
	.st2{fill:#FFFFFF;}
	.st3{fill:#4A4A4A;}
	.st4{fill:#404040;}
</style>
<sodipodi:namedview  bordercolor="#666666" borderopacity="1" gridtolerance="10" guidetolerance="10" id="namedview34" inkscape:current-layer="svg2" inkscape:cx="10.5" inkscape:cy="8.5" inkscape:pageopacity="0" inkscape:pageshadow="2" inkscape:window-height="480" inkscape:window-maximized="0" inkscape:window-width="796" inkscape:window-x="0" inkscape:window-y="0" inkscape:zoom="13.882353" objecttolerance="10" pagecolor="#ffffff" showgrid="false">
	</sodipodi:namedview>
<g>
	<g id="g6">
		<rect id="rect8" x="2" y="9" class="st0" width="11" height="5"/>
		<path id="path10" inkscape:connector-curvature="0" class="st1" d="M14,15H1V8h13V15z M2,9v5h11V9H2z"/>
	</g>
	<g id="g12">
		<rect id="rect14" x="2" y="7" class="st2" width="11" height="1"/>
		<path id="path16" inkscape:connector-curvature="0" class="st1" d="M14,9H1V6h13V9z M2,7v1h11V7H2z"/>
		<path id="path18" inkscape:connector-curvature="0" class="st3" d="M3,7h1v1H3V7z M5,7h1v1H5V7z M7,7h1v1H7V7z M9,7h1v1H9V7z
			 M12,7v1h-1V7H12z"/>
	</g>
	<g id="g20">
		<path id="path22" inkscape:connector-curvature="0" class="st2" d="M13.3,4.2L2.4,2.4L2.2,3.9L13,5.7L13.3,4.2z"/>
		<path id="path24" inkscape:connector-curvature="0" class="st1" d="M14.4,3.4l-0.6,3.5L1,4.7l0.6-3.4L14.4,3.4z M2.2,3.9L13,5.7
			l0.3-1.5L2.4,2.4L2.2,3.9L2.2,3.9z"/>
		<path id="path26" inkscape:connector-curvature="0" class="st3" d="M4.4,2.7l1,0.2L5.1,4.4l-1-0.2L4.4,2.7L4.4,2.7z M7.4,3.2
			l1,0.2L8.1,4.9l-1-0.2L7.4,3.2z M11.3,3.9l-0.3,1.5l-1-0.2l0.3-1.5C10.3,3.7,11.3,3.9,11.3,3.9z"/>
	</g>
	<g id="g28">
		<path id="path30" inkscape:connector-curvature="0" class="st2" d="M14,4h3v4h-3v3h-4V8H7V4h3V1h4V4z M11,2v3H8v2h3v3h2V7h3V5h-3
			V2H11z"/>
		<path id="path32" inkscape:connector-curvature="0" class="st4" d="M8,5h3V2h2v3h3v2h-3v3h-2V7H8V5z"/>
	</g>
</g>
</svg>
