<?xml version="1.0" encoding="utf-8"?>
<!-- Generator: Adobe Illustrator 10.0, SVG Export Plug-In . SVG Version: 3.0.0 Build 76)  -->
<!DOCTYPE svg PUBLIC "-//W3C//DTD SVG 1.0//EN"    "http://www.w3.org/TR/2001/REC-SVG-20010904/DTD/svg10.dtd" [
	<!ENTITY ns_flows "http://ns.adobe.com/Flows/1.0/">
	<!ENTITY ns_extend "http://ns.adobe.com/Extensibility/1.0/">
	<!ENTITY ns_ai "http://ns.adobe.com/AdobeIllustrator/10.0/">
	<!ENTITY ns_graphs "http://ns.adobe.com/Graphs/1.0/">
	<!ENTITY ns_vars "http://ns.adobe.com/Variables/1.0/">
	<!ENTITY ns_imrep "http://ns.adobe.com/ImageReplacement/1.0/">
	<!ENTITY ns_sfw "http://ns.adobe.com/SaveForWeb/1.0/">
	<!ENTITY ns_custom "http://ns.adobe.com/GenericCustomNamespace/1.0/">
	<!ENTITY ns_adobe_xpath "http://ns.adobe.com/XPath/1.0/">
	<!ENTITY ns_svg "http://www.w3.org/2000/svg">
	<!ENTITY ns_xlink "http://www.w3.org/1999/xlink">
]>
<svg 
	 xmlns:x="&ns_extend;" xmlns:i="&ns_ai;" xmlns:graph="&ns_graphs;" i:viewOrigin="387 312" i:rulerOrigin="0 0" i:pageBounds="0 600 800 0"
	 xmlns="&ns_svg;" xmlns:xlink="&ns_xlink;" xmlns:a="http://ns.adobe.com/AdobeSVGViewerExtensions/3.0/" width="26" height="26"
	 viewBox="0 0 26 26" overflow="visible" enable-background="new 0 0 26 26" xml:space="preserve">
	<metadata>
		<variableSets  xmlns="&ns_vars;">
			<variableSet  varSetName="binding1" locked="none">
				<variables></variables>
				<v:sampleDataSets  xmlns="&ns_custom;" xmlns:v="&ns_vars;"></v:sampleDataSets>
			</variableSet>
		</variableSets>
		<sfw  xmlns="&ns_sfw;">
			<slices></slices>
			<sliceSourceBounds  y="286" x="387" width="26" height="26" bottomLeftOrigin="true"></sliceSourceBounds>
		</sfw>
	</metadata>
	<g id="Layer_1" i:layer="yes" i:dimmedPercent="50" i:rgbTrio="#4F008000FFFF">
		<path i:knockout="Off" fill="none" d="M26,26H0V0h26V26z"/>
		<path i:knockout="Off" d="M7.679,7.32C6.195,8.062,3.332,9.529,0,11.246v2.25c3.714-1.915,6.961-3.581,8.573-4.387L7.679,7.32z"/>
		<path i:knockout="Off" fill="#DCE6FF" stroke="#000000" stroke-width="2" stroke-linejoin="round" d="M5.602,7.182
			c0,0,0.379,2.795,1.346,4.343c0.965,1.55,3.335,2.882,4.692,3.44c1.356,0.559,7.129,2.494,7.129,2.494l1.415-1.322
			c0,0-3.785-2.339-4.533-3.189c-0.75-0.85-1.611-2.025-2.38-2.336c-0.763-0.314-2.332-0.433-2.942-0.361
			c-0.614,0.076-0.938,0.19-1.309,0.157c-0.373-0.031-1.033-0.672-1.487-1.399C7.102,8.318,6.485,6.982,6.485,6.982L5.602,7.182z"/>
		<path i:knockout="Off" fill="#DCE6FF" stroke="#000000" stroke-width="2" stroke-linejoin="round" d="M12.68,3.752
			c0,0,2.039,1.948,2.723,3.64c0.684,1.694,0.372,4.393,0.024,5.818c-0.346,1.428-2.174,7.232-2.174,7.232l-1.901,0.371
			c0,0,0.334-4.438,0.089-5.545c-0.249-1.105-0.694-2.493-0.496-3.297c0.197-0.804,1.024-2.143,1.443-2.594
			c0.42-0.451,0.702-0.646,0.894-0.965s0.064-1.232-0.256-2.027c-0.308-0.753-1.028-2.035-1.028-2.035L12.68,3.752z"/>
		<path i:knockout="Off" fill="#E1E6DC" d="M5.602,7.182c0,0,0.379,2.795,1.346,4.343c0.965,1.55,3.335,2.882,4.692,3.44
			c1.356,0.559,7.129,2.494,7.129,2.494l1.415-1.322c0,0-3.785-2.339-4.533-3.189c-0.75-0.85-1.611-2.025-2.38-2.336
			c-0.763-0.314-2.332-0.433-2.942-0.361c-0.614,0.076-0.938,0.19-1.309,0.157c-0.373-0.031-1.033-0.672-1.487-1.399
			C7.102,8.318,6.485,6.982,6.485,6.982L5.602,7.182z"/>
		<path i:knockout="Off" fill="#DCE6FF" stroke="#000000" stroke-linejoin="bevel" d="M12.68,3.752c0,0,2.039,1.948,2.723,3.64
			c0.684,1.694,0.372,4.393,0.024,5.818c-0.346,1.428-2.174,7.232-2.174,7.232l-1.901,0.371c0,0,0.334-4.438,0.089-5.545
			c-0.249-1.105-0.694-2.493-0.496-3.297c0.197-0.804,1.024-2.143,1.443-2.594c0.42-0.451,0.702-0.646,0.894-0.965
			s0.064-1.232-0.256-2.027c-0.308-0.753-1.028-2.035-1.028-2.035L12.68,3.752z"/>
		<path i:knockout="Off" fill="#E1E6DC" d="M12.68,3.752c0,0,2.039,1.948,2.723,3.64c0.684,1.694,0.372,4.393,0.024,5.818
			c-0.346,1.428-2.174,7.232-2.174,7.232l-1.901,0.371c0,0,0.334-4.438,0.089-5.545c-0.249-1.105-0.694-2.493-0.496-3.297
			c0.197-0.804,1.024-2.143,1.443-2.594c0.42-0.451,0.702-0.646,0.894-0.965s0.064-1.232-0.256-2.027
			c-0.308-0.753-1.028-2.035-1.028-2.035L12.68,3.752z"/>
		<path i:knockout="Off" fill="#6B6B6B" stroke="#6B6B6B" stroke-width="0.2" d="M14.881,11.579
			c0.222,0.488,0.006,1.062-0.481,1.283c-0.486,0.221-1.061,0.007-1.282-0.48c-0.222-0.487-0.006-1.062,0.48-1.283
			C14.085,10.877,14.66,11.092,14.881,11.579z"/>
		<path i:knockout="Off" fill="none" stroke="#000000" stroke-width="2" d="M8.126,8.215c5.281-2.641,11.303,0.104,13.259,3.234"/>
		<path i:knockout="Off" fill="none" stroke="#000000" stroke-width="0.5" d="M13.085,21.495l0.359-0.069
			c-0.117,0.022-0.234,0.017-0.349-0.002C13.21,21.442,13.085,21.495,13.085,21.495z"/>
		<path i:knockout="Off" fill="none" stroke="#000000" stroke-width="0.5" d="M12.278,20.634c-0.023-0.121-0.031-0.245-0.009-0.37
			c-0.006,0.029-0.03,0.171-0.066,0.385C12.239,20.435,12.255,20.513,12.278,20.634z"/>
		<path i:knockout="Off" fill="none" stroke="#000000" stroke-width="0.5" d="M19.201,16.557c0.113,0.055,0.209,0.135,0.293,0.225
			l0.056-0.053C19.356,16.633,19.229,16.57,19.201,16.557z"/>
		<path i:knockout="Off" fill="none" stroke="#000000" stroke-width="0.5" d="M19.654,17.907c-0.053,0.103-0.116,0.2-0.203,0.282
			l0.267-0.249C19.718,17.94,19.602,18.01,19.654,17.907z"/>
		<path i:knockout="Off" d="M25.514,21.727c-1.759-1.574-4.398-3.054-5.796-3.786l-0.267,0.249c0.087-0.082,0.15-0.18,0.203-0.282
			c-0.541-0.282-0.886-0.448-0.886-0.448l0.726-0.678c-0.084-0.09-0.18-0.17-0.293-0.225c0.027,0.014,0.155,0.076,0.349,0.172
			l0.634-0.592c0,0,4.037,1.963,4.973,2.696c0.257,0.199,0.547,0.432,0.844,0.679v-1.287c-0.09-0.071-0.171-0.135-0.231-0.182
			c-0.986-0.773-4.725-2.6-5.147-2.807c-0.372-0.181-0.817-0.113-1.12,0.17l-1.415,1.322c-0.241,0.225-0.355,0.555-0.306,0.881
			c0.05,0.327,0.258,0.607,0.556,0.751c0.041,0.02,4.162,2.009,6.51,4.111c0.407,0.364,0.787,0.771,1.154,1.188v-1.465
			C25.84,22.037,25.681,21.877,25.514,21.727z"/>
		<path i:knockout="Off" d="M13.956,19.732c-0.235-0.232-0.569-0.334-0.895-0.27l-1.901,0.369c-0.405,0.08-0.722,0.4-0.793,0.808
			c-0.074,0.417-0.662,3.779-0.746,5.36h1c0.091-1.564,0.73-5.186,0.73-5.186l0.852-0.166c0.036-0.214,0.061-0.355,0.066-0.385
			c-0.022,0.125-0.015,0.249,0.009,0.37l0.975-0.19c0,0-0.068,0.377-0.157,0.98c0.114,0.019,0.231,0.024,0.349,0.002l-0.359,0.069
			c-0.155,1.058-0.363,2.776-0.408,4.505h0.999c0.073-2.664,0.555-5.342,0.561-5.376C14.296,20.299,14.191,19.965,13.956,19.732z"/>
		<path i:knockout="Off" fill="#AC0019" d="M20.184,16.137l-0.634,0.592l-0.056,0.053l-0.726,0.678c0,0,0.345,0.166,0.886,0.448
			c-0.053,0.103,0.063,0.033,0.063,0.033c1.397,0.732,4.037,2.212,5.796,3.786c0.167,0.15,0.326,0.311,0.486,0.469v-2.684
			c-0.297-0.247-0.587-0.479-0.844-0.679C24.221,18.1,20.184,16.137,20.184,16.137z"/>
		<path i:knockout="Off" fill="#808080" d="M20.184,16.137l-0.634,0.592L20.184,16.137z"/>
		<path i:knockout="Off" fill="#808080" d="M19.494,16.781l-0.726,0.678L19.494,16.781z"/>
		<path i:knockout="Off" fill="#AC0019" d="M13.085,21.495c0,0,0.125-0.053,0.011-0.071c0.089-0.604,0.157-0.98,0.157-0.98
			l-0.975,0.19c-0.023-0.121-0.039-0.199-0.075,0.015l-0.852,0.166c0,0-0.64,3.621-0.73,5.186h2.056
			C12.722,24.271,12.93,22.553,13.085,21.495z"/>
	</g>
</svg>
