<?xml version="1.0" encoding="utf-8"?>
<!-- Generator: Adobe Illustrator 21.0.2, SVG Export Plug-In . SVG Version: 6.00 Build 0)  -->
<svg version="1.1"
	 id="svg2" inkscape:version="0.91 r13725" sodipodi:docname="browser_folder_close.svg" xmlns:cc="http://creativecommons.org/ns#" xmlns:dc="http://purl.org/dc/elements/1.1/" xmlns:inkscape="http://www.inkscape.org/namespaces/inkscape" xmlns:rdf="http://www.w3.org/1999/02/22-rdf-syntax-ns#" xmlns:sodipodi="http://sodipodi.sourceforge.net/DTD/sodipodi-0.dtd" xmlns:svg="http://www.w3.org/2000/svg"
	 xmlns="http://www.w3.org/2000/svg" xmlns:xlink="http://www.w3.org/1999/xlink" x="0px" y="0px" viewBox="0 0 21 17"
	 style="enable-background:new 0 0 21 17;" xml:space="preserve">
<style type="text/css">
	.st0{fill:none;}
	.st1{fill:#FFFFFF;}
	.st2{fill:#242424;}
	.st3{fill:#E0DD79;}
</style>
<sodipodi:namedview  bordercolor="#666666" borderopacity="1" gridtolerance="10" guidetolerance="10" id="namedview14" inkscape:current-layer="svg2" inkscape:cx="10.5" inkscape:cy="8.5" inkscape:pageopacity="0" inkscape:pageshadow="2" inkscape:window-height="500" inkscape:window-maximized="0" inkscape:window-width="1109" inkscape:window-x="0" inkscape:window-y="0" inkscape:zoom="13.882353" objecttolerance="10" pagecolor="#ffffff" showgrid="false">
	</sodipodi:namedview>
<rect id="rect4" y="0" class="st0" width="21" height="17"/>
<path id="path6" inkscape:connector-curvature="0" class="st1" d="M5.2,3.4h4.1L9.2,5.2h5l0.8,8.3H5.3L5.2,3.4L5.2,3.4z"/>
<path id="path8" inkscape:connector-curvature="0" class="st2" d="M9.4,5h5.7l0.9,9H5L5,3h4.3L9.4,5z M5.9,4v9h9l-0.7-7H8.5l0-2H5.9
	L5.9,4z"/>
<path id="path10" inkscape:connector-curvature="0" class="st3" d="M16.4,5.3h-10v8.4h9.7L16.4,5.3z"/>
<path id="path12" inkscape:connector-curvature="0" class="st2" d="M16.5,14H6V5h10.5V14L16.5,14z M7,6v7h8.6V6H7z"/>
</svg>
