<?xml version="1.0" encoding="UTF-8" standalone="no"?>
<svg
   xmlns:dc="http://purl.org/dc/elements/1.1/"
   xmlns:cc="http://creativecommons.org/ns#"
   xmlns:rdf="http://www.w3.org/1999/02/22-rdf-syntax-ns#"
   xmlns:svg="http://www.w3.org/2000/svg"
   xmlns="http://www.w3.org/2000/svg"
   xmlns:sodipodi="http://sodipodi.sourceforge.net/DTD/sodipodi-0.dtd"
   xmlns:inkscape="http://www.inkscape.org/namespaces/inkscape"
   width="18"
   height="18"
   viewBox="0 0 18 18"
   version="1.1"
   xml:space="preserve"
   style="clip-rule:evenodd;fill-rule:evenodd;stroke-linejoin:round;stroke-miterlimit:2"
   id="svg7"
   sodipodi:docname="camera_small.svg"
   inkscape:version="0.92.4 (5da689c313, 2019-01-14)"><metadata
   id="metadata13"><rdf:RDF><cc:Work
       rdf:about=""><dc:format>image/svg+xml</dc:format><dc:type
         rdf:resource="http://purl.org/dc/dcmitype/StillImage" /><dc:title></dc:title></cc:Work></rdf:RDF></metadata><defs
   id="defs11" /><sodipodi:namedview
   pagecolor="#ffffff"
   bordercolor="#666666"
   borderopacity="1"
   objecttolerance="10"
   gridtolerance="10"
   guidetolerance="10"
   inkscape:pageopacity="0"
   inkscape:pageshadow="2"
   inkscape:window-width="1078"
   inkscape:window-height="834"
   id="namedview9"
   showgrid="false"
   inkscape:zoom="11.8"
   inkscape:cx="10"
   inkscape:cy="10"
   inkscape:window-x="223"
   inkscape:window-y="39"
   inkscape:window-maximized="0"
   inkscape:current-layer="svg7" />
    <rect
   id="rect826"
   x="0"
   y="-2"
   width="20"
   height="20"
   style="fill:#e6e6e6;fill-opacity:0" />
    
    <path
   d="M 11.487,16 H 4.513 C 4.23,16 4,15.715 4,15.364 V 14 H 2 V 12 H 4 V 11.636 C 4,11.285 4.23,11 4.513,11 H 7 V 10 H 5 4.99 C 3.339,9.995 2,8.653 2,7 2,5.344 3.344,4 5,4 6.656,4 8,5.344 8,7 H 9.036 C 9.012,6.837 9,6.67 9,6.5 9,4.568 10.568,3 12.5,3 14.432,3 16,4.568 16,6.5 16,8.432 14.432,10 12.5,10 H 10 v 1 h 1.487 C 11.77,11 12,11.285 12,11.636 V 13 l 3,-2 h 1 v 5 h -1 l -3,-2 v 1.364 C 12,15.715 11.77,16 11.487,16 Z M 12.5,5 C 13.328,5 14,5.672 14,6.5 14,7.328 13.328,8 12.5,8 11.672,8 11,7.328 11,6.5 11,5.672 11.672,5 12.5,5 Z M 5,6 C 5.552,6 6,6.448 6,7 6,7.552 5.552,8 5,8 4.448,8 4,7.552 4,7 4,6.448 4.448,6 5,6 Z"
   style="fill:#9ebad6;fill-opacity:1"
   id="path5"
   inkscape:connector-curvature="0" />
</svg>