<?xml version="1.0" encoding="UTF-8" standalone="no"?>
<!DOCTYPE svg PUBLIC "-//W3C//DTD SVG 1.1//EN" "http://www.w3.org/Graphics/SVG/1.1/DTD/svg11.dtd">
<svg width="100%" height="100%" viewBox="0 0 74 44" version="1.1" xmlns="http://www.w3.org/2000/svg" xmlns:xlink="http://www.w3.org/1999/xlink" xml:space="preserve" xmlns:serif="http://www.serif.com/" style="fill-rule:evenodd;clip-rule:evenodd;stroke-linejoin:round;stroke-miterlimit:2;">
    <g transform="matrix(1.25424,0,0,1.41935,0,-18.4516)">
        <rect x="0" y="13" width="59" height="31" style="fill:rgb(36,100,162);fill-opacity:0;"/>
    </g>
    <path d="M27,26L27,25L21,25L21,24.985C16.541,24.726 13,21.023 13,16.5C13,11.809 16.809,8 21.5,8C25.68,8 29.159,11.023 29.868,15L31.012,15C31.004,14.834 31,14.668 31,14.5C31,8.705 35.705,4 41.5,4C47.295,4 52,8.705 52,14.5C52,19.434 48.59,23.577 44,24.7L44,25L36,25L36,26L40.385,26C41.276,26 42,26.631 42,27.409L42,37.591C42,38.369 41.277,39 40.385,39L22.615,39C21.724,39 21,38.369 21,37.591L21,27.409C21,26.631 21.724,26 22.615,26L27,26ZM59,38L56,38L49,35L43,35L43,30L49,30L56,27L59,27L59,38ZM15,29L20,29L20,32L15,32L15,33L14,33L14,28L15,28L15,29ZM21.5,14C22.88,14 24,15.12 24,16.5C24,17.88 22.88,19 21.5,19C20.12,19 19,17.88 19,16.5C19,15.12 20.12,14 21.5,14ZM41.5,11.5C43.432,11.5 45,13.068 45,15C45,16.932 43.432,18.5 41.5,18.5C39.568,18.5 38,16.932 38,15C38,13.068 39.568,11.5 41.5,11.5Z" style="fill:rgb(158,186,214);"/>
</svg>
