<?xml version="1.0" encoding="UTF-8" standalone="no"?><!DOCTYPE svg PUBLIC "-//W3C//DTD SVG 1.1//EN" "http://www.w3.org/Graphics/SVG/1.1/DTD/svg11.dtd"><svg width="100%" height="100%" viewBox="0 0 18 18" version="1.1" xmlns="http://www.w3.org/2000/svg" xmlns:xlink="http://www.w3.org/1999/xlink" xml:space="preserve" xmlns:serif="http://www.serif.com/" style="fill-rule:evenodd;clip-rule:evenodd;stroke-linecap:round;stroke-miterlimit:1.5;"><g><path d="M4.291,11.037l1.74,0l0,-4.074l-1.74,0l0,-2.037l-3.406,4.074l3.406,4.074l0,-2.037Z" style="fill:#e0e0e0;stroke:#181818;stroke-width:0.79px;"/><path d="M13.448,11.037l-1.875,0l0,-4.074l1.875,0l0,-2.037l3.667,4.074l-3.667,4.074l0,-2.037Z" style="fill:#e0e0e0;stroke:#181818;stroke-width:0.79px;"/><path d="M10.839,4.355l0,1.874l-4.074,0l0,-1.875l-2.037,0l4.074,-3.667l4.074,3.667l-2.037,0l0,0.001Z" style="fill:#e0e0e0;stroke:#181818;stroke-width:0.79px;"/><path d="M10.839,13.645l0,-1.874l-4.074,0l0,1.874l-2.037,0l4.074,3.668l4.074,-3.667l-2.037,0l0,-0.001Z" style="fill:#e0e0e0;stroke:#181818;stroke-width:0.79px;"/><rect x="7.219" y="7.417" width="3.167" height="3.167" style="fill:#ddd;stroke:#181818;stroke-width:0.79px;stroke-linejoin:round;"/></g></svg>