<?xml version="1.0" encoding="UTF-8" standalone="no"?><!DOCTYPE svg PUBLIC "-//W3C//DTD SVG 1.1//EN" "http://www.w3.org/Graphics/SVG/1.1/DTD/svg11.dtd"><svg width="100%" height="100%" viewBox="0 0 18 18" version="1.1" xmlns="http://www.w3.org/2000/svg" xmlns:xlink="http://www.w3.org/1999/xlink" xml:space="preserve" xmlns:serif="http://www.serif.com/" style="fill-rule:evenodd;clip-rule:evenodd;stroke-linejoin:round;stroke-miterlimit:1.41421;"><g><g><g><path d="M12.25,0l-6.121,0l-6.122,6l0,8l12.243,0l0,-14Z" style="fill:#fff;"/><path d="M12.25,14l-12.243,0l0,-8.75l4.368,-5.25l7.875,0l0,14Zm-7.43,-13.176l-3.945,4.426l-0.026,8.005l10.561,0l-0.035,-12.38l-6.555,-0.051Z" style="fill:#181818;"/></g><g><path d="M5.25,0l-0.875,0l-4.375,5.25l0.007,0.875l5.243,0l0,-6.125Z" style="fill:#d8d8d8;"/><path d="M5.25,6.125l-5.243,0l-0.007,-0.875l4.375,-5.25l0.875,0l0,6.125Zm-4.378,-0.75l3.628,0l0,-4.353l-3.628,4.353Z"/></g></g><g><g><path d="M17.243,3l-6.122,0l-6.121,6l0,8l12.243,0l0,-14Z" style="fill:#fff;"/><path d="M17.243,17l-12.243,0l0,-8.75l4.368,-5.25l7.875,0l0,14Zm-7.43,-13.176l-3.945,4.426l-0.027,8.005l10.562,0l-0.035,-12.38l-6.555,-0.051Z" style="fill:#181818;"/></g><path d="M10.25,3l-0.875,0l-4.375,5.25l0.007,0.875l5.243,0l0,-6.125Z" style="fill:#d8d8d8;"/><path d="M10.25,9.125l-5.243,0l-0.007,-0.875l4.375,-5.25l0.875,0l0,6.125Zm-4.378,-0.75l3.628,0l0,-4.353l-3.628,4.353Z"/></g></g></svg>