<svg width="18px" height="18px" xmlns="http://www.w3.org/2000/svg" xmlns:xlink="http://www.w3.org/1999/xlink">
<g style="">  <path d="M4.990000,6.460000 C4.090000,6.460000,3.190000,6.450000,2.480000,6.460000 C2.442780,8.730400,2.481390,14.288960,2.500000,15.480000 C4.330000,15.500000,13.380000,15.530000,15.503160,15.497390 C15.485700,13.936270,15.500000,13.130001,15.490000,12.540000 " stroke-linejoin="round" stroke-linecap="round" style="fill: none; stroke-width: 3.000000px; stroke: rgba(0, 0, 0, 1.000000); " fill="none" stroke="#000000" stroke-width="3.000000" />
  <path d="M4.510000,2.800000 C4.522806,2.710356,6.580000,1.830000,8.583686,2.161234 C12.139250,2.701481,13.217436,7.410815,13.217436,7.410815 L15.808670,7.451350 L11.498500,12.701660 L7.208148,7.409080 L9.803306,7.411663 C9.803306,7.411663,10.000000,5.420000,8.215250,4.182570 C6.863943,3.449307,4.490000,2.940000,4.510000,2.800000 Z " stroke-linejoin="round" stroke-linecap="round" style="fill: rgba(218, 218, 218, 1.000000); stroke-width: 1.000000px; stroke: rgba(0, 0, 0, 1.000000); " fill="#e1e1e1" stroke="#000000" stroke-width="1.000000" />
  <path d="M4.990000,6.460000 C4.090000,6.460000,3.190000,6.450000,2.480000,6.460000 C2.442780,8.730400,2.481390,14.288960,2.500000,15.480000 C4.330000,15.500000,13.380000,15.530000,15.503160,15.497390 C15.485700,13.936270,15.500000,13.130001,15.490000,12.540000 " stroke-linejoin="round" stroke-linecap="round" style="fill: none; stroke-width: 1.000000px; stroke: rgba(218, 218, 218, 1.000000); " fill="none" stroke="#e1e1e1" stroke-width="1.000000" />
</g></svg>