<svg width="18px" height="18px" xmlns="http://www.w3.org/2000/svg" xmlns:xlink="http://www.w3.org/1999/xlink">
<g style="">  <path d="M4.990000,6.460000 C4.090000,6.460000,3.190000,6.450000,2.480000,6.460000 C2.442780,8.730401,2.481387,14.288958,2.500000,15.480000 C4.330000,15.500000,13.380000,15.530000,15.503160,15.497393 C15.485701,13.936277,15.500000,13.130000,15.490000,12.540000 " stroke-linejoin="round" stroke-linecap="round" style="fill: none; stroke-width: 3.000000px; stroke: rgba(0, 0, 0, 1.000000); " fill="none" stroke="#000000" stroke-width="3.000000" />
  <path d="M5.004325,2.982078 C5.004325,2.982078,7.171635,1.544069,8.973995,1.573888 C12.785775,1.636958,13.186755,7.442418,13.186755,7.442418 L15.808675,7.451348 L11.498505,12.701658 L7.173875,7.769558 L10.355875,7.784018 C10.355875,7.784018,11.092905,5.768968,8.215255,4.182568 C7.087095,3.560628,5.004325,2.982088,5.004325,2.982088 Z " stroke-linejoin="round" stroke-linecap="round" style="fill: rgba(218, 218, 218, 1.000000); stroke-width: 1.000000px; stroke: rgba(0, 0, 0, 1.000000); " fill="#e1e1e1" stroke="#000000" stroke-width="1.000000" />
  <path d="M4.990000,6.460000 C4.090000,6.460000,3.190000,6.450000,2.480000,6.460000 C2.442780,8.730401,2.481387,14.288958,2.500000,15.480000 C4.330000,15.500000,13.380000,15.530000,15.503160,15.497393 C15.485701,13.936277,15.500000,13.130000,15.490000,12.540000 " stroke-linejoin="round" stroke-linecap="round" style="fill: none; stroke-width: 1.000000px; stroke: rgba(218, 218, 218, 1.000000); " fill="none" stroke="#e1e1e1" stroke-width="1.000000" />
</g></svg>