<?xml version="1.0" encoding="utf-8"?>
<!-- Generator: Adobe Illustrator 21.0.2, SVG Export Plug-In . SVG Version: 6.00 Build 0)  -->
<svg version="1.1"
	 id="svg2" inkscape:version="0.91 r13725" sodipodi:docname="curve.svg" xmlns:cc="http://creativecommons.org/ns#" xmlns:dc="http://purl.org/dc/elements/1.1/" xmlns:inkscape="http://www.inkscape.org/namespaces/inkscape" xmlns:rdf="http://www.w3.org/1999/02/22-rdf-syntax-ns#" xmlns:sodipodi="http://sodipodi.sourceforge.net/DTD/sodipodi-0.dtd" xmlns:svg="http://www.w3.org/2000/svg"
	 xmlns="http://www.w3.org/2000/svg" xmlns:xlink="http://www.w3.org/1999/xlink" x="0px" y="0px" viewBox="0 0 60 60"
	 style="enable-background:new 0 0 60 60;" xml:space="preserve">
<style type="text/css">
	.st0{fill:#EBEBEB;}
	.st1{fill:#404040;}
	.st2{fill:#FFFFFF;}
	.st3{fill:none;stroke:#0000FF;stroke-width:3;stroke-linecap:round;stroke-linejoin:round;stroke-miterlimit:1.5;}
</style>
<g id="g4">
	<rect id="rect6" y="0" class="st0" width="60" height="60"/>
	<path id="path8" inkscape:connector-curvature="0" class="st1" d="M60,60H0V0h60V60z M1,1v58h58V1H1z"/>
</g>
<path id="path10" inkscape:connector-curvature="0" class="st2" d="M1,7h6V1h1v6h10V1h1v6h10V1h1v6h10V1h1v6h10V1h1v6h7v1h-7v10h7v1
	h-7v10h7v1h-7v10h7v1h-7v10h7v1h-7v7h-1v-7H41v7h-1v-7H30v7h-1v-7H19v7h-1v-7H8v7H7v-7H1v-1h6V41H1v-1h6V30H1v-1h6V19H1v-1h6V8H1V7z
	 M8,41v10h10V41H8z M19,41v10h10V41H19z M30,41v10h10V41H30z M41,41v10h10V41H41z M8,30v10h10V30H8z M19,30v10h10V30H19z M30,30v10
	h10V30H30z M41,30v10h10V30H41z M8,19v10h10V19H8z M19,19v10h10V19H19z M30,19v10h10V19H30z M41,19v10h10V19H41z M8,8v10h10V8H8z
	 M19,8v10h10V8H19z M30,8v10h10V8H30z M41,8v10h10V8H41z"/>
<path id="path12" inkscape:connector-curvature="0" class="st3" d="M5.5,45c0,0,11.6,1.1,18-6.5s17.6-20.2,20.5-22
	c2.9-1.8,6.6-2.6,12-2.5"/>
</svg>
