<?xml version="1.0" encoding="utf-8"?>
<!-- Generator: Adobe Illustrator 10.0, SVG Export Plug-In . SVG Version: 3.0.0 Build 76)  -->
<!DOCTYPE svg PUBLIC "-//W3C//DTD SVG 1.0//EN"    "http://www.w3.org/TR/2001/REC-SVG-20010904/DTD/svg10.dtd" [
	<!ENTITY ns_flows "http://ns.adobe.com/Flows/1.0/">
	<!ENTITY ns_extend "http://ns.adobe.com/Extensibility/1.0/">
	<!ENTITY ns_ai "http://ns.adobe.com/AdobeIllustrator/10.0/">
	<!ENTITY ns_graphs "http://ns.adobe.com/Graphs/1.0/">
	<!ENTITY ns_vars "http://ns.adobe.com/Variables/1.0/">
	<!ENTITY ns_imrep "http://ns.adobe.com/ImageReplacement/1.0/">
	<!ENTITY ns_sfw "http://ns.adobe.com/SaveForWeb/1.0/">
	<!ENTITY ns_custom "http://ns.adobe.com/GenericCustomNamespace/1.0/">
	<!ENTITY ns_adobe_xpath "http://ns.adobe.com/XPath/1.0/">
	<!ENTITY ns_svg "http://www.w3.org/2000/svg">
	<!ENTITY ns_xlink "http://www.w3.org/1999/xlink">
]>
<svg 
	 xmlns:x="&ns_extend;" xmlns:i="&ns_ai;" xmlns:graph="&ns_graphs;" i:viewOrigin="387 312" i:rulerOrigin="0 0" i:pageBounds="0 600 800 0"
	 xmlns="&ns_svg;" xmlns:xlink="&ns_xlink;" xmlns:a="http://ns.adobe.com/AdobeSVGViewerExtensions/3.0/" width="26" height="26"
	 viewBox="0 0 26 26" overflow="visible" enable-background="new 0 0 26 26" xml:space="preserve">
	<metadata>
		<variableSets  xmlns="&ns_vars;">
			<variableSet  varSetName="binding1" locked="none">
				<variables></variables>
				<v:sampleDataSets  xmlns="&ns_custom;" xmlns:v="&ns_vars;"></v:sampleDataSets>
			</variableSet>
		</variableSets>
		<sfw  xmlns="&ns_sfw;">
			<slices></slices>
			<sliceSourceBounds  y="286" x="387" width="26" height="26" bottomLeftOrigin="true"></sliceSourceBounds>
		</sfw>
	</metadata>
	<g id="Layer_1" i:layer="yes" i:dimmedPercent="50" i:rgbTrio="#4F008000FFFF">
		<path i:knockout="Off" fill="none" d="M26,26H0V0h26V26z"/>
		<path i:knockout="Off" fill="none" stroke="#000000" d="M18.111,13.469c0,2.824-2.287,5.111-5.11,5.111S7.89,16.293,7.89,13.469
			c0-2.822,2.288-5.111,5.111-5.111S18.111,10.646,18.111,13.469z"/>
		<path i:knockout="Off" fill="none" stroke="#000000" d="M16.191,13.469c0,1.763-1.43,3.191-3.191,3.191s-3.191-1.429-3.191-3.191
			c0-1.762,1.43-3.191,3.191-3.191S16.191,11.707,16.191,13.469z"/>
		<path i:knockout="Off" fill="none" stroke="#000000" d="M5.8,20.383l7.2-7.201"/>
		<path i:knockout="Off" fill="none" stroke="#000000" d="M20.2,20.383l-7.338-7.338"/>
		<path i:knockout="Off" fill="none" stroke="#000000" d="M13,13V3"/>
		<path i:knockout="Off" fill="#6288FF" stroke="#000000" d="M7.745,22.385H3.762v-3.982h3.983V22.385z"/>
		<path i:knockout="Off" fill="#6288FF" stroke="#000000" stroke-linecap="round" stroke-linejoin="round" d="M21.026,22.385h-3.983
			l3.438-3.982h3.983L21.026,22.385z"/>
		<path i:knockout="Off" fill="#6288FF" stroke="#000000" d="M13.001,1.109c1.105-0.002,2,0.895,1.999,2c0,1.104-0.895,2-2,2
			c-1.103,0-1.999-0.896-2-2C11,2.006,11.896,1.109,13.001,1.109z"/>
	</g>
</svg>
