<?xml version="1.0" encoding="utf-8"?>
<!-- Generator: Adobe Illustrator 10.0, SVG Export Plug-In . SVG Version: 3.0.0 Build 76)  -->
<!DOCTYPE svg PUBLIC "-//W3C//DTD SVG 1.0//EN"    "http://www.w3.org/TR/2001/REC-SVG-20010904/DTD/svg10.dtd" [
	<!ENTITY ns_flows "http://ns.adobe.com/Flows/1.0/">
	<!ENTITY ns_extend "http://ns.adobe.com/Extensibility/1.0/">
	<!ENTITY ns_ai "http://ns.adobe.com/AdobeIllustrator/10.0/">
	<!ENTITY ns_graphs "http://ns.adobe.com/Graphs/1.0/">
	<!ENTITY ns_vars "http://ns.adobe.com/Variables/1.0/">
	<!ENTITY ns_imrep "http://ns.adobe.com/ImageReplacement/1.0/">
	<!ENTITY ns_sfw "http://ns.adobe.com/SaveForWeb/1.0/">
	<!ENTITY ns_custom "http://ns.adobe.com/GenericCustomNamespace/1.0/">
	<!ENTITY ns_adobe_xpath "http://ns.adobe.com/XPath/1.0/">
	<!ENTITY ns_svg "http://www.w3.org/2000/svg">
	<!ENTITY ns_xlink "http://www.w3.org/1999/xlink">
]>
<svg 
	 xmlns:x="&ns_extend;" xmlns:i="&ns_ai;" xmlns:graph="&ns_graphs;" i:viewOrigin="387 312" i:rulerOrigin="0 0" i:pageBounds="0 600 800 0"
	 xmlns="&ns_svg;" xmlns:xlink="&ns_xlink;" xmlns:a="http://ns.adobe.com/AdobeSVGViewerExtensions/3.0/" width="26" height="26"
	 viewBox="0 0 26 26" overflow="visible" enable-background="new 0 0 26 26" xml:space="preserve">
	<metadata>
		<variableSets  xmlns="&ns_vars;">
			<variableSet  varSetName="binding1" locked="none">
				<variables></variables>
				<v:sampleDataSets  xmlns="&ns_custom;" xmlns:v="&ns_vars;"></v:sampleDataSets>
			</variableSet>
		</variableSets>
		<sfw  xmlns="&ns_sfw;">
			<slices></slices>
			<sliceSourceBounds  y="286" x="387" width="26" height="26" bottomLeftOrigin="true"></sliceSourceBounds>
		</sfw>
	</metadata>
	<g id="Layer_1" i:layer="yes" i:dimmedPercent="50" i:rgbTrio="#4F008000FFFF">
		<path i:knockout="Off" fill="none" d="M26,26H0V0h26V26z"/>
		<path i:knockout="Off" fill="#E4E4E4" d="M16.29,4.333c-0.557-0.235-1.363-0.077-1.79,0.351l-8.422,8.423
			c-0.428,0.428-0.866,1.265-0.975,1.859l-0.427,2.354c-0.108,0.595,0.267,1.259,0.833,1.473l4.802,1.819
			c0.565,0.215,1.379,0.039,1.807-0.389l8.216-8.216c0.427-0.427,0.865-1.265,0.973-1.86l0.428-2.354
			c0.107-0.595-0.261-1.275-0.818-1.51L16.29,4.333z"/>
		<path i:knockout="Off" fill="none" stroke="#000000" stroke-width="0.9" stroke-linecap="round" stroke-linejoin="round" d="
			M16.29,4.333c-0.557-0.235-1.363-0.077-1.79,0.351l-8.422,8.423c-0.428,0.428-0.866,1.265-0.975,1.859l-0.427,2.354
			c-0.108,0.595,0.267,1.259,0.833,1.473l4.802,1.819c0.565,0.215,1.379,0.039,1.807-0.389l8.216-8.216
			c0.427-0.427,0.865-1.265,0.973-1.86l0.428-2.354c0.107-0.595-0.261-1.275-0.818-1.51L16.29,4.333z"/>
		<path i:knockout="Off" fill="#BABABA" stroke="#000000" stroke-width="0.4" stroke-linecap="round" stroke-linejoin="round" d="
			M11.803,17.479c0.062-0.547,0.43-1.313,0.818-1.701l8.356-8.358c0.389-0.389,0.657-0.26,0.596,0.287l-0.282,2.532
			c-0.062,0.546-0.43,1.312-0.818,1.701l-8.356,8.357c-0.389,0.389-0.657,0.26-0.596-0.286L11.803,17.479z"/>
		<path i:knockout="Off" fill="#FFFFFF" stroke="#000000" stroke-width="0.4" stroke-linecap="round" stroke-linejoin="round" d="
			M11.788,17.477c0.069-0.546-0.293-1.156-0.805-1.357L6.23,14.251c-0.512-0.201-1.011,0.077-1.109,0.618L4.659,17.42
			c-0.099,0.541,0.242,1.144,0.757,1.338l4.988,1.891c0.515,0.195,0.992-0.092,1.062-0.638L11.788,17.477z"/>
	</g>
</svg>
