<?xml version="1.0" encoding="utf-8"?>
<!-- Generator: Adobe Illustrator 21.0.2, SVG Export Plug-In . SVG Version: 6.00 Build 0)  -->
<svg version="1.1"
	 id="svg2" inkscape:version="0.91 r13725" sodipodi:docname="farm_tasks.svg" xmlns:cc="http://creativecommons.org/ns#" xmlns:dc="http://purl.org/dc/elements/1.1/" xmlns:inkscape="http://www.inkscape.org/namespaces/inkscape" xmlns:rdf="http://www.w3.org/1999/02/22-rdf-syntax-ns#" xmlns:sodipodi="http://sodipodi.sourceforge.net/DTD/sodipodi-0.dtd" xmlns:svg="http://www.w3.org/2000/svg"
	 xmlns="http://www.w3.org/2000/svg" xmlns:xlink="http://www.w3.org/1999/xlink" x="0px" y="0px" viewBox="0 0 21 17"
	 style="enable-background:new 0 0 21 17;" xml:space="preserve">
<style type="text/css">
	.st0{fill:#E0F2F5;}
	.st1{fill:#404040;}
	.st2{fill:#808080;}
	.st3{opacity:0.5;}
	.st4{fill:#484848;}
	.st5{fill:#FFCC03;}
	.st6{fill:#F3DDBE;}
	.st7{fill:#303030;}
</style>
<sodipodi:namedview  bordercolor="#666666" borderopacity="1" gridtolerance="10" guidetolerance="10" id="namedview46" inkscape:current-layer="svg2" inkscape:cx="10.5" inkscape:cy="8.5" inkscape:pageopacity="0" inkscape:pageshadow="2" inkscape:window-height="480" inkscape:window-maximized="0" inkscape:window-width="796" inkscape:window-x="0" inkscape:window-y="0" inkscape:zoom="13.882353" objecttolerance="10" pagecolor="#ffffff" showgrid="false">
	</sodipodi:namedview>
<g id="g6">
	<g id="g8">
		<rect id="rect8" x="3.1" y="1" class="st0" width="11" height="14"/>
		<path id="path10" inkscape:connector-curvature="0" class="st1" d="M15.1,16h-13V0h13V16z M3.1,1v14h11V1H3.1z"/>
	</g>
	<g id="g12">
		<path id="path14" inkscape:connector-curvature="0" class="st1" d="M5.1,11v1h-1v-1H5.1z M4.1,7h1v1h-1V7z M4.1,3h1v1h-1V3z"/>
		<path id="path16" inkscape:connector-curvature="0" class="st1" d="M5.6,12.5h-2v-2h2V12.5z M4.1,11v1h1v-1H4.1z M5.6,8.5h-2v-2h2
			V8.5z M4.1,7v1h1V7H4.1z M5.6,4.5h-2v-2h2V4.5z M4.1,3v1h1V3H4.1z"/>
	</g>
	<path id="path18" inkscape:connector-curvature="0" class="st2" d="M13.1,11v1h-6v-1H13.1z M7.1,7h6v1h-6V7z M7.1,3h6v1h-6V3z"/>
	<g id="g20">
		<g id="g22" class="st3">
			<path id="path24" inkscape:connector-curvature="0" class="st4" d="M17.5,4l-8.2,6.3l1.2,1.6l8.2-6.3L17.5,4z"/>
			<path id="path26" inkscape:connector-curvature="0" class="st4" d="M9.3,10.3l-1.6,2.5l2.8-0.9L9.3,10.3z"/>
			<path id="path28" inkscape:connector-curvature="0" class="st4" d="M8.4,11.5l-0.8,1.3L9,12.3L8.4,11.5z"/>
		</g>
	</g>
	<g id="g30">
		<path id="path32" inkscape:connector-curvature="0" class="st4" d="M16.8,1.5L8.5,9.7l2.1,2.1l8.2-8.2L16.8,1.5z"/>
		<path id="path34" inkscape:connector-curvature="0" class="st4" d="M8.5,9.7L7.3,13l3.3-1.2L8.5,9.7z"/>
		<path id="path36" inkscape:connector-curvature="0" class="st4" d="M7.9,11.3l-0.6,1.6l1.6-0.6L7.9,11.3z"/>
	</g>
	<g id="g38">
		<path id="path40" inkscape:connector-curvature="0" class="st5" d="M16.8,2.2L8.9,10l1.4,1.4l7.8-7.8L16.8,2.2z"/>
		<path id="path42" inkscape:connector-curvature="0" class="st6" d="M8.9,10l-1.4,2.8l2.8-1.4L8.9,10z"/>
		<path id="path44" inkscape:connector-curvature="0" class="st7" d="M8.3,11.4l-0.7,1.4l1.4-0.7L8.3,11.4z"/>
	</g>
</g>
</svg>
