<?xml version="1.0" encoding="utf-8"?>
<!-- Generator: Adobe Illustrator 14.0.0, SVG Export Plug-In . SVG Version: 6.00 Build 43363)  -->
<!DOCTYPE svg PUBLIC "-//W3C//DTD SVG 1.1//EN" "http://www.w3.org/Graphics/SVG/1.1/DTD/svg11.dtd">
<svg version="1.1" id="Layer_1" xmlns="http://www.w3.org/2000/svg" xmlns:xlink="http://www.w3.org/1999/xlink" x="0px" y="0px"
	 width="26px" height="26px" viewBox="0 0 26 26" enable-background="new 0 0 26 26" xml:space="preserve">
<path fill="none" d="M26,26H0V0h26V26z"/>
<path fill="#4C4C4C" d="M4.313,4.55C5.375,3.69,8.34,2.36,11.5,1.813C16.188,1,22.375,1.95,22.375,3.149
	c0,0.397-3.091-1.031-3.25-0.274C19,3.471,22,3.679,21.875,4.54c-0.048,0.328-2.188-0.643-2.25,0.085
	c-0.028,0.33,1.875,0.709,1.75,1.438c-0.105,0.614-2.147-1.906-9.063-0.938C9.188,5.563,6.5,6.625,5.375,7
	C4.664,7.237,4.313,4.55,4.313,4.55z"/>
<path fill="#CCCCCC" stroke="#000000" stroke-width="0.7789" stroke-linejoin="round" d="M9.438,16.438c0,0-4.5-7.75-5.063-9.125
	C3.565,5.334,3.919,4.181,4.75,4c1.438-0.313,1.938,2.125,2.5,3c0.385,0.6,2.688,3,3.25,3.125s0.625-0.563,1.438-0.938
	s1.324,0.396,1.938,0.438c1.077,0.074,1.045-0.832,1.688-0.875c0.938-0.063,1.25,0.375,1.813,0.938
	c0.354,0.354,2.354,2.771,2.625,5.625c0.125,1.313-0.554,2.252-0.616,2.877s2.554,3.623,2.554,3.623l-6.125,3
	c0,0-1.313-2.875-2.5-3.25c-1.336-0.422-4.871-0.088-5.625-2.313c-1.25-3.688-2.625-5.688-2-6.438S7,12.25,7.188,12.625
	C7.6,13.45,9.438,16.438,9.438,16.438z"/>
</svg>
