<?xml version="1.0" encoding="utf-8"?>
<!-- Generator: Adobe Illustrator 21.0.2, SVG Export Plug-In . SVG Version: 6.00 Build 0)  -->
<svg version="1.1"
	 id="svg2" inkscape:version="0.91 r13725" sodipodi:docname="folderpreset_open.svg" xmlns:cc="http://creativecommons.org/ns#" xmlns:dc="http://purl.org/dc/elements/1.1/" xmlns:inkscape="http://www.inkscape.org/namespaces/inkscape" xmlns:rdf="http://www.w3.org/1999/02/22-rdf-syntax-ns#" xmlns:sodipodi="http://sodipodi.sourceforge.net/DTD/sodipodi-0.dtd" xmlns:svg="http://www.w3.org/2000/svg"
	 xmlns="http://www.w3.org/2000/svg" xmlns:xlink="http://www.w3.org/1999/xlink" x="0px" y="0px" viewBox="0 0 21 17"
	 style="enable-background:new 0 0 21 17;" xml:space="preserve">
<style type="text/css">
	.st0{fill:none;}
	.st1{fill:#FFFFFF;}
	.st2{fill:#242424;}
	.st3{fill:#DEE100;}
	.st4{fill:#242424;fill-opacity:0.6941;}
	.st5{fill:#404040;}
</style>
<sodipodi:namedview  bordercolor="#666666" borderopacity="1" gridtolerance="10" guidetolerance="10" id="namedview17" inkscape:current-layer="svg2" inkscape:cx="10.5" inkscape:cy="8.5" inkscape:pageopacity="0" inkscape:pageshadow="2" inkscape:window-height="500" inkscape:window-maximized="0" inkscape:window-width="1109" inkscape:window-x="0" inkscape:window-y="0" inkscape:zoom="13.882353" objecttolerance="10" pagecolor="#ffffff" showgrid="false">
	</sodipodi:namedview>
<rect id="rect4_1_" y="0" class="st0" width="21" height="17"/>
<path id="path6" inkscape:connector-curvature="0" class="st1" d="M3.3,3.4h9.8l0.5,1.8h-0.9l1.9,8.2H5.4L3.3,3.4
	C3.3,3.4,3.3,3.4,3.3,3.4z"/>
<path id="path8_1_" inkscape:connector-curvature="0" class="st2" d="M13.9,5L13.9,5l2.1,9H5L2.7,3h10.7L13.9,5z M3.8,4l2.1,9h9
	L13,6l0,0l-0.5-2H3.8C3.8,4,3.8,4,3.8,4z"/>
<path id="path10_1_" inkscape:connector-curvature="0" class="st3" d="M18.6,5.6H8.4l-2.2,7.9h9.6C15.7,13.4,18.6,5.6,18.6,5.6z"/>
<polygon id="rect16_1_" class="st4" points="16.9,10 6.9,10 7.2,9 17.2,9 "/>
<path id="path10" inkscape:connector-curvature="0" class="st1" d="M9.2,10.5c-0.3,0-0.4-0.2-0.3-0.5l0.3-1c0.1-0.3,0.4-0.5,0.7-0.5
	h1c0.3,0,0.4,0.2,0.3,0.5l-0.3,1c-0.1,0.3-0.4,0.5-0.7,0.5H9.2z"/>
<path id="path12" inkscape:connector-curvature="0" class="st5" d="M10.7,9l-0.3,1h-1l0.3-1H10.7 M11.1,8h-1C9.5,8,8.9,8.4,8.7,9
	l-0.3,1c-0.2,0.6,0.1,1,0.7,1h1c0.6,0,1.1-0.4,1.3-1l0.3-1C11.9,8.4,11.6,8,11.1,8C11.1,8,11.1,8,11.1,8z"/>
<rect id="rect12_1_" x="3.7" y="5" class="st2" width="10.4" height="1"/>
<path id="path15" inkscape:connector-curvature="0" class="st2" d="M15.9,14H5.4l2.5-9H19L15.9,14z M8.7,6l-1.9,7h8.4l2.6-7H8.7z"/>
</svg>
