<?xml version="1.0" encoding="utf-8"?>
<!-- Generator: Adobe Illustrator 21.0.2, SVG Export Plug-In . SVG Version: 6.00 Build 0)  -->
<svg version="1.1"
	 id="svg2" inkscape:version="0.91 r13725" sodipodi:docname="folderpreset_close.svg" xmlns:cc="http://creativecommons.org/ns#" xmlns:dc="http://purl.org/dc/elements/1.1/" xmlns:inkscape="http://www.inkscape.org/namespaces/inkscape" xmlns:rdf="http://www.w3.org/1999/02/22-rdf-syntax-ns#" xmlns:sodipodi="http://sodipodi.sourceforge.net/DTD/sodipodi-0.dtd" xmlns:svg="http://www.w3.org/2000/svg"
	 xmlns="http://www.w3.org/2000/svg" xmlns:xlink="http://www.w3.org/1999/xlink" x="0px" y="0px" viewBox="0 0 21 17"
	 style="enable-background:new 0 0 21 17;" xml:space="preserve">
<style type="text/css">
	.st0{fill:none;}
	.st1{fill:#FFFFFF;}
	.st2{fill:#242424;}
	.st3{fill:#DEE100;}
	.st4{fill:#242424;fill-opacity:0.6941;}
	.st5{fill:#404040;}
</style>
<sodipodi:namedview  bordercolor="#666666" borderopacity="1" gridtolerance="10" guidetolerance="10" id="namedview24" inkscape:current-layer="svg2" inkscape:cx="10.5" inkscape:cy="8.5" inkscape:pageopacity="0" inkscape:pageshadow="2" inkscape:window-height="500" inkscape:window-maximized="0" inkscape:window-width="1109" inkscape:window-x="0" inkscape:window-y="0" inkscape:zoom="13.882353" objecttolerance="10" pagecolor="#ffffff" showgrid="false">
	</sodipodi:namedview>
<rect id="rect4_1_" y="0" class="st0" width="21" height="17"/>
<path id="path6_1_" inkscape:connector-curvature="0" class="st1" d="M5.2,3.4h9.5l-0.1,1.8l0,0v8.3H5.3L5.2,3.4L5.2,3.4z"/>
<path id="path8_1_" inkscape:connector-curvature="0" class="st2" d="M15,5L15,5l1,9H5V3h10V5z M5.9,4v9h9l-0.7-7h-0.1V4H5.9L5.9,4z
	"/>
<rect id="rect14_2_" x="5" y="5" class="st2" width="2" height="1"/>
<path id="path10" inkscape:connector-curvature="0" class="st3" d="M16.4,5.3h-10v8.4h9.7C16.1,13.7,16.4,5.3,16.4,5.3z"/>
<g>
	<rect id="rect16" x="6.5" y="9" class="st4" width="10" height="1"/>
	<path class="st1" d="M9,10.5c-0.3,0-0.5-0.2-0.5-0.5V9c0-0.3,0.2-0.5,0.5-0.5h1c0.3,0,0.5,0.2,0.5,0.5v1c0,0.3-0.2,0.5-0.5,0.5H9z"
		/>
	<path class="st5" d="M10,9v1H9V9H10 M10,8H9C8.4,8,8,8.4,8,9v1c0,0.6,0.4,1,1,1h1c0.6,0,1-0.4,1-1V9C11,8.4,10.6,8,10,8L10,8z"/>
</g>
<path id="path12_1_" inkscape:connector-curvature="0" class="st2" d="M16.5,14H6V5h10.5V14L16.5,14z M7,6v7h8.6V6H7z"/>
</svg>
