<?xml version="1.0" encoding="UTF-8" standalone="no"?><!DOCTYPE svg PUBLIC "-//W3C//DTD SVG 1.1//EN" "http://www.w3.org/Graphics/SVG/1.1/DTD/svg11.dtd"><svg width="100%" height="100%" viewBox="0 0 17 17" version="1.1" xmlns="http://www.w3.org/2000/svg" xmlns:xlink="http://www.w3.org/1999/xlink" xml:space="preserve" style="fill-rule:evenodd;clip-rule:evenodd;stroke-miterlimit:3;"><g><path id="path7" d="M6,8.5l10,-5l0,10l-10,-5Z" style="fill:#e6e6e6;fill-rule:nonzero;stroke:#000;stroke-opacity:0.301961;stroke-width:2px;"/><path id="path9" d="M6,8.5l10,-5l0,10l-10,-5Z" style="fill:#e6e6e6;fill-rule:nonzero;"/><g id="rect15"><rect x="2" y="3" width="2" height="11" style="fill:#e6e6e6;"/><path d="M4.065,2.009l0.065,0.006l0.064,0.011l0.063,0.014l0.062,0.019l0.061,0.023l0.059,0.027l0.058,0.031l0.055,0.034l0.053,0.038l0.05,0.041l0.048,0.044l0.044,0.048l0.041,0.05l0.038,0.053l0.034,0.055l0.031,0.058l0.027,0.059l0.023,0.061l0.019,0.062l0.014,0.063l0.011,0.064l0.006,0.065l0.003,0.065l0,11l-0.003,0.065l-0.006,0.065l-0.011,0.064l-0.014,0.063l-0.019,0.062l-0.023,0.061l-0.027,0.059l-0.031,0.058l-0.034,0.055l-0.038,0.053l-0.041,0.05l-0.044,0.048l-0.048,0.044l-0.05,0.041l-0.053,0.038l-0.055,0.034l-0.058,0.031l-0.059,0.027l-0.061,0.023l-0.062,0.019l-0.063,0.014l-0.064,0.011l-0.065,0.006l-0.065,0.003l-2,0l-0.065,-0.003l-0.065,-0.006l-0.064,-0.011l-0.063,-0.014l-0.062,-0.019l-0.061,-0.023l-0.059,-0.027l-0.058,-0.031l-0.055,-0.034l-0.053,-0.038l-0.05,-0.041l-0.048,-0.044l-0.044,-0.048l-0.041,-0.05l-0.038,-0.053l-0.034,-0.055l-0.031,-0.058l-0.027,-0.059l-0.023,-0.061l-0.019,-0.062l-0.014,-0.063l-0.011,-0.064l-0.006,-0.065l-0.003,-0.065l0,-11l0.003,-0.065l0.006,-0.065l0.011,-0.064l0.014,-0.063l0.019,-0.062l0.023,-0.061l0.027,-0.059l0.031,-0.058l0.034,-0.055l0.038,-0.053l0.041,-0.05l0.044,-0.048l0.048,-0.044l0.05,-0.041l0.053,-0.038l0.055,-0.034l0.058,-0.031l0.059,-0.027l0.061,-0.023l0.062,-0.019l0.063,-0.014l0.064,-0.011l0.065,-0.006l0.065,-0.003l2,0l0.065,0.003Zm-2.065,0.991l0,11l2,0l0,-11l-2,0Z" style="fill-opacity:0.301961;"/></g></g></svg>