<?xml version="1.0" encoding="UTF-8" standalone="no"?><!DOCTYPE svg PUBLIC "-//W3C//DTD SVG 1.1//EN" "http://www.w3.org/Graphics/SVG/1.1/DTD/svg11.dtd"><svg width="100%" height="100%" viewBox="0 0 17 17" version="1.1" xmlns="http://www.w3.org/2000/svg" xmlns:xlink="http://www.w3.org/1999/xlink" xml:space="preserve" style="fill-rule:evenodd;clip-rule:evenodd;stroke-linecap:square;stroke-miterlimit:3;"><g><path id="path13" d="M2,8.5l9,-5l0,10l-9,-5Z" style="fill:none;stroke:#000;stroke-opacity:0.301961;stroke-width:2px;"/><g><g id="g7"><g id="rect9"><rect x="14" y="3" width="2" height="11" style="fill:#fff;"/><path d="M16.065,2.002l0.066,0.007l0.064,0.01l0.064,0.015l0.062,0.019l0.062,0.023l0.059,0.027l0.058,0.031l0.056,0.035l0.053,0.038l0.05,0.041l0.048,0.045l0.045,0.048l0.041,0.05l0.038,0.053l0.035,0.056l0.031,0.058l0.027,0.059l0.023,0.062l0.019,0.062l0.015,0.064l0.01,0.064l0.007,0.066l0.002,0.065l0,11l-0.002,0.065l-0.007,0.066l-0.01,0.064l-0.015,0.064l-0.019,0.062l-0.023,0.062l-0.027,0.059l-0.031,0.058l-0.035,0.056l-0.038,0.053l-0.041,0.05l-0.045,0.048l-0.048,0.045l-0.05,0.041l-0.053,0.038l-0.056,0.035l-0.058,0.031l-0.059,0.027l-0.062,0.023l-0.062,0.019l-0.064,0.015l-0.064,0.01l-0.066,0.007l-0.065,0.002l-2,0l-0.065,-0.002l-0.066,-0.007l-0.064,-0.01l-0.064,-0.015l-0.062,-0.019l-0.062,-0.023l-0.059,-0.027l-0.058,-0.031l-0.056,-0.035l-0.053,-0.038l-0.05,-0.041l-0.048,-0.045l-0.045,-0.048l-0.041,-0.05l-0.038,-0.053l-0.035,-0.056l-0.031,-0.058l-0.027,-0.059l-0.023,-0.062l-0.019,-0.062l-0.015,-0.064l-0.01,-0.064l-0.007,-0.066l-0.002,-0.065l0,-11l0.002,-0.065l0.007,-0.066l0.01,-0.064l0.015,-0.064l0.019,-0.062l0.023,-0.062l0.027,-0.059l0.031,-0.058l0.035,-0.056l0.038,-0.053l0.041,-0.05l0.045,-0.048l0.048,-0.045l0.05,-0.041l0.053,-0.038l0.056,-0.035l0.058,-0.031l0.059,-0.027l0.062,-0.023l0.062,-0.019l0.064,-0.015l0.064,-0.01l0.066,-0.007l0.065,-0.002l2,0l0.065,0.002Zm-2.065,0.998l0,11l2,0l0,-11l-2,0Z" style="fill-opacity:0.301961;"/></g></g><path id="path15" d="M2,8.5l9,-5l0,10l-9,-5Z" style="fill:#fff;fill-rule:nonzero;"/></g></g></svg>