<?xml version="1.0" encoding="utf-8"?>
<!-- Generator: Adobe Illustrator 21.0.2, SVG Export Plug-In . SVG Version: 6.00 Build 0)  -->
<svg version="1.1"
	 id="svg2" inkscape:version="0.91 r13725" sodipodi:docname="half_B.svg" xmlns:cc="http://creativecommons.org/ns#" xmlns:dc="http://purl.org/dc/elements/1.1/" xmlns:inkscape="http://www.inkscape.org/namespaces/inkscape" xmlns:rdf="http://www.w3.org/1999/02/22-rdf-syntax-ns#" xmlns:sodipodi="http://sodipodi.sourceforge.net/DTD/sodipodi-0.dtd" xmlns:svg="http://www.w3.org/2000/svg"
	 xmlns="http://www.w3.org/2000/svg" xmlns:xlink="http://www.w3.org/1999/xlink" x="0px" y="0px" viewBox="0 0 21 8"
	 style="enable-background:new 0 0 21 8;" xml:space="preserve">
<style type="text/css">
	.st0{fill:none;}
	.st1{fill:#FFFFFF;}
	.st2{fill:#0000FF;}
</style>
<sodipodi:namedview  bordercolor="#666666" borderopacity="1" gridtolerance="10" guidetolerance="10" id="namedview12" inkscape:current-layer="svg2" inkscape:cx="10.5" inkscape:cy="4" inkscape:pageopacity="0" inkscape:pageshadow="2" inkscape:window-height="480" inkscape:window-maximized="0" inkscape:window-width="796" inkscape:window-x="0" inkscape:window-y="0" inkscape:zoom="29.5" objecttolerance="10" pagecolor="#ffffff" showgrid="false">
	</sodipodi:namedview>
<rect id="rect4" y="0" class="st0" width="21" height="8"/>
<rect id="rect6" x="4" y="2" class="st1" width="13" height="6"/>
<path id="path8" inkscape:connector-curvature="0" class="st1" d="M4.5,6.5h12V3.3c0-0.2-0.1-0.4-0.2-0.6c-0.2-0.1-0.4-0.2-0.6-0.2
	H5.3c-0.2,0-0.4,0.1-0.6,0.2C4.6,2.9,4.5,3.1,4.5,3.3V8H3c0,0,0-4.1,0-6c0-0.3,0.1-0.5,0.3-0.7C3.5,1.1,3.7,1,4,1h13
	c0.3,0,0.5,0.1,0.7,0.3C17.9,1.5,18,1.7,18,2v6H4.5V6.5z"/>
<path id="path10" inkscape:connector-curvature="0" class="st2" d="M16,8H5c0-3,2.5-5.5,5.5-5.5S16,5,16,8z"/>
</svg>
