<?xml version="1.0" encoding="UTF-8" standalone="no"?>
<svg
   xmlns:dc="http://purl.org/dc/elements/1.1/"
   xmlns:cc="http://creativecommons.org/ns#"
   xmlns:rdf="http://www.w3.org/1999/02/22-rdf-syntax-ns#"
   xmlns:svg="http://www.w3.org/2000/svg"
   xmlns="http://www.w3.org/2000/svg"
   xml:space="preserve"
   style="enable-background:new 0 0 17 17;"
   viewBox="0 0 17 17"
   y="0px"
   x="0px"
   id="svg2"
   version="1.1"><metadata
     id="metadata13"><rdf:RDF><cc:Work
         rdf:about=""><dc:format>image/svg+xml</dc:format><dc:type
           rdf:resource="http://purl.org/dc/dcmitype/StillImage" /><dc:title></dc:title></cc:Work></rdf:RDF></metadata><defs
     id="defs11" /><style
     id="style2"
     type="text/css">
	.st0{fill:#404040;}
	.st1{fill:#E6E6E6;}
</style><path
     class="st0"
     d="M 6,3 V 6 H 7 V 4 H 8 V 9 H 9 V 7 h 1 v 3 h 1 V 6 h 1 V 4 h 1 v 5 h 1 v 1 h 1 v 3 H 2 V 11 H 3 V 7 H 4 V 8 H 5 V 3 H 6 M 7,2 H 6 5 4 V 3 6 H 3 2 v 1 3 H 1 v 1 2 1 h 1 13 1 V 13 10 9 H 15 V 8 H 14 V 4 3 H 13 12 11 V 4 5 H 10 V 6 H 9 V 4 3 H 8 7 Z"
     id="path5"
     style="fill:#303030;fill-opacity:1" /><polygon
     class="st1"
     points="12,6 12,4 13,4 13,9 14,9 14,10 15,10 15,13 2,13 2,11 3,11 3,7 4,7 4,8 5,8 5,3 6,3 6,6 7,6 7,4 8,4 8,9 9,9 9,7 10,7 10,10 11,10 11,6 "
     id="polygon7"
     style="fill:#fdfdfd;fill-opacity:1" /></svg>