<?xml version="1.0" encoding="utf-8"?>
<!-- Generator: Adobe Illustrator 21.0.2, SVG Export Plug-In . SVG Version: 6.00 Build 0)  -->
<svg version="1.1"
	 id="svg2" inkscape:version="0.91 r13725" sodipodi:docname="histograms.svg" xmlns:cc="http://creativecommons.org/ns#" xmlns:dc="http://purl.org/dc/elements/1.1/" xmlns:inkscape="http://www.inkscape.org/namespaces/inkscape" xmlns:rdf="http://www.w3.org/1999/02/22-rdf-syntax-ns#" xmlns:sodipodi="http://sodipodi.sourceforge.net/DTD/sodipodi-0.dtd" xmlns:svg="http://www.w3.org/2000/svg"
	 xmlns="http://www.w3.org/2000/svg" xmlns:xlink="http://www.w3.org/1999/xlink" x="0px" y="0px" viewBox="0 0 17 17"
	 style="enable-background:new 0 0 17 17;" xml:space="preserve">
<style type="text/css">
	.st0{fill:#404040;}
	.st1{fill:#E6E6E6;}
</style>
<sodipodi:namedview  bordercolor="#666666" borderopacity="1" gridtolerance="10" guidetolerance="10" id="namedview8" inkscape:current-layer="svg2" inkscape:cx="10.5" inkscape:cy="8.5" inkscape:pageopacity="0" inkscape:pageshadow="2" inkscape:window-height="480" inkscape:window-maximized="0" inkscape:window-width="796" inkscape:window-x="0" inkscape:window-y="0" inkscape:zoom="13.882353" objecttolerance="10" pagecolor="#ffffff" showgrid="false">
	</sodipodi:namedview>
<g id="path6_1_" inkscape:connector-curvature="0">
	<path class="st0" d="M6,3v3h1V4h1v5h1V7h1v3h1V6h1V4h1v5h1v1h1v3H2v-2h1V7h1v1h1V3H6 M7,2H6H5H4v1v3H3H2v1v3H1v1v2v1h1h13h1v-1v-3
		V9h-1V8h-1V4V3h-1h-1h-1v1v1h-1v1H9V4V3H8H7V2L7,2z"/>
	<polygon class="st1" points="11,10 11,6 12,6 12,4 13,4 13,9 14,9 14,10 15,10 15,13 2,13 2,11 3,11 3,7 4,7 4,8 5,8 5,3 6,3 6,6 
		7,6 7,4 8,4 8,9 9,9 9,7 10,7 10,10 	"/>
</g>
</svg>
