<?xml version="1.0" encoding="utf-8"?>
<!-- Generator: Adobe Illustrator 10.0, SVG Export Plug-In . SVG Version: 3.0.0 Build 76)  -->
<!DOCTYPE svg PUBLIC "-//W3C//DTD SVG 1.0//EN"    "http://www.w3.org/TR/2001/REC-SVG-20010904/DTD/svg10.dtd" [
	<!ENTITY ns_flows "http://ns.adobe.com/Flows/1.0/">
	<!ENTITY ns_extend "http://ns.adobe.com/Extensibility/1.0/">
	<!ENTITY ns_ai "http://ns.adobe.com/AdobeIllustrator/10.0/">
	<!ENTITY ns_graphs "http://ns.adobe.com/Graphs/1.0/">
	<!ENTITY ns_vars "http://ns.adobe.com/Variables/1.0/">
	<!ENTITY ns_imrep "http://ns.adobe.com/ImageReplacement/1.0/">
	<!ENTITY ns_sfw "http://ns.adobe.com/SaveForWeb/1.0/">
	<!ENTITY ns_custom "http://ns.adobe.com/GenericCustomNamespace/1.0/">
	<!ENTITY ns_adobe_xpath "http://ns.adobe.com/XPath/1.0/">
	<!ENTITY ns_svg "http://www.w3.org/2000/svg">
	<!ENTITY ns_xlink "http://www.w3.org/1999/xlink">
]>
<svg 
	 xmlns:x="&ns_extend;" xmlns:i="&ns_ai;" xmlns:graph="&ns_graphs;" i:viewOrigin="387 312" i:rulerOrigin="0 0" i:pageBounds="0 600 800 0"
	 xmlns="&ns_svg;" xmlns:xlink="&ns_xlink;" xmlns:a="http://ns.adobe.com/AdobeSVGViewerExtensions/3.0/" width="26" height="26"
	 viewBox="0 0 26 26" overflow="visible" enable-background="new 0 0 26 26" xml:space="preserve">
	<metadata>
		<variableSets  xmlns="&ns_vars;">
			<variableSet  varSetName="binding1" locked="none">
				<variables></variables>
				<v:sampleDataSets  xmlns="&ns_custom;" xmlns:v="&ns_vars;"></v:sampleDataSets>
			</variableSet>
		</variableSets>
		<sfw  xmlns="&ns_sfw;">
			<slices></slices>
			<sliceSourceBounds  y="286" x="387" width="26" height="26" bottomLeftOrigin="true"></sliceSourceBounds>
		</sfw>
	</metadata>
	<g id="Layer_1" i:layer="yes" i:dimmedPercent="50" i:rgbTrio="#4F008000FFFF">
		<path i:knockout="Off" fill="none" d="M26,26H0V0h26V26z"/>
		<radialGradient id="XMLID_1_" cx="9.8066" cy="12.7456" r="14.6492" fx="9.8066" fy="12.7456" gradientUnits="userSpaceOnUse">
			<stop  offset="0" style="stop-color:#D9D9D9"/>
			<stop  offset="0.2122" style="stop-color:#D4D4D4"/>
			<stop  offset="0.4636" style="stop-color:#C5C5C5"/>
			<stop  offset="0.6854" style="stop-color:#B2B2B2"/>
			<stop  offset="0.8352" style="stop-color:#A3A3A3"/>
			<stop  offset="1" style="stop-color:#979797"/>
			<a:midPointStop  offset="0" style="stop-color:#D9D9D9"/>
			<a:midPointStop  offset="0.6712" style="stop-color:#D9D9D9"/>
			<a:midPointStop  offset="0.6854" style="stop-color:#B2B2B2"/>
			<a:midPointStop  offset="0.427" style="stop-color:#B2B2B2"/>
			<a:midPointStop  offset="1" style="stop-color:#979797"/>
		</radialGradient>
		<path i:knockout="Off" fill="url(#XMLID_1_)" d="M2.017,15.659c0,0-0.783,3.568-0.396,4.348s6.311,1.094,12.156,0.902
			c5.439-0.178,10.425-1.98,11.559-2.793c0.643-0.463-1.789-3.999-2.826-4.705c-2.836-1.93-11.313-2.858-15.342-2.875
			C6.321,10.534,2.017,15.659,2.017,15.659z"/>
		<path i:knockout="Off" fill="none" stroke="#000000" d="M2.017,15.659c0,0-0.783,3.568-0.396,4.348s6.311,1.094,12.156,0.902
			c5.439-0.178,10.425-1.98,11.559-2.793c0.643-0.463-1.789-3.999-2.826-4.705c-2.836-1.93-11.313-2.858-15.342-2.875
			C6.321,10.534,2.017,15.659,2.017,15.659z"/>
		<path i:knockout="Off" fill="none" d="M2.017,15.659c1.794,0.348,8.718,0.684,11.503,0.514c2.788-0.171,9.126-1.359,9.659-2.069"
			/>
		<path i:knockout="Off" fill="none" stroke="#000000" stroke-width="0.5" d="M2.017,15.659c1.794,0.348,8.718,0.684,11.503,0.514
			c2.788-0.171,9.126-1.359,9.659-2.069"/>
		<path i:knockout="Off" fill="#8C8C8C" d="M5.497,4.833C4.23,6.089,4.437,7.712,4.673,9.458c0.222,1.615,0.979,3.141,1.375,3.722
			c0.338,0.492,2.519,0.479,2.824-0.076c0.374-0.681-0.909-3.071-1.179-4.11C7.494,8.226,7.631,7.14,8.345,6.681
			c0.711-0.459-0.164-1.48-0.623-1.9C6.77,3.903,5.497,4.833,5.497,4.833z"/>
		<path i:knockout="Off" fill="none" stroke="#000000" d="M5.497,4.833C4.23,6.089,4.437,7.712,4.673,9.458
			c0.222,1.615,0.979,3.141,1.375,3.722c0.338,0.492,2.519,0.479,2.824-0.076c0.374-0.681-0.909-3.071-1.179-4.11
			C7.494,8.226,7.631,7.14,8.345,6.681c0.711-0.459-0.164-1.48-0.623-1.9C6.77,3.903,5.497,4.833,5.497,4.833z"/>
		<path i:knockout="Off" fill="#CCCCCC" d="M19.771,3.601c1.077,0.936,1.265,3.244,0.06,3.837C19.263,7.717,7.271,7.189,7.175,7.175
			C5.999,6.993,5.823,6.043,5.819,5.45C5.813,4.794,5.593,3.913,7.155,3.208C7.863,2.889,19.771,3.601,19.771,3.601z"/>
		<path i:knockout="Off" fill="none" stroke="#000000" d="M19.771,3.601c1.077,0.936,1.265,3.244,0.06,3.837
			C19.263,7.717,7.271,7.189,7.175,7.175C5.999,6.993,5.823,6.043,5.819,5.45C5.813,4.794,5.593,3.913,7.155,3.208
			C7.863,2.889,19.771,3.601,19.771,3.601z"/>
	</g>
</svg>
