<?xml version="1.0" encoding="UTF-8" standalone="no"?><!DOCTYPE svg PUBLIC "-//W3C//DTD SVG 1.1//EN" "http://www.w3.org/Graphics/SVG/1.1/DTD/svg11.dtd"><svg width="100%" height="100%" viewBox="0 0 18 18" version="1.1" xmlns="http://www.w3.org/2000/svg" xmlns:xlink="http://www.w3.org/1999/xlink" xml:space="preserve" xmlns:serif="http://www.serif.com/" style="fill-rule:evenodd;clip-rule:evenodd;stroke-linejoin:round;stroke-miterlimit:1.41421;"><g><g><g><path d="M16,1l-6.995,0l-6.997,6.857l0,9.143l13.992,0l0,-16Z" style="fill:#fff;"/><path d="M16,17l-13.992,0l0,-10l4.992,-6l9,0l0,16Zm-8.491,-15.058l-4.509,5.058l-0.03,9.149l12.07,0l-0.04,-14.149l-7.491,-0.058Z" style="fill:#181818;"/></g><g><path d="M8,1l-1,0l-5,6l0.008,1l5.992,0l0,-7Z" style="fill:#d8d8d8;"/><path d="M8,8l-5.992,0l-0.008,-1l5,-6l1,0l0,7Zm-5.003,-0.857l4.146,0l0,-4.975l-4.146,4.975Z"/></g></g><circle cx="6" cy="13" r="1" style="fill:#181818;"/><circle cx="9.004" cy="13" r="1" style="fill:#181818;"/><circle cx="12.008" cy="13" r="1" style="fill:#181818;"/></g></svg>