<?xml version="1.0" encoding="UTF-8" standalone="no"?>
<svg
   xmlns:dc="http://purl.org/dc/elements/1.1/"
   xmlns:cc="http://creativecommons.org/ns#"
   xmlns:rdf="http://www.w3.org/1999/02/22-rdf-syntax-ns#"
   xmlns:svg="http://www.w3.org/2000/svg"
   xmlns="http://www.w3.org/2000/svg"
   xml:space="preserve"
   style="enable-background:new 0 0 17 17;"
   viewBox="0 0 17 17"
   y="0px"
   x="0px"
   id="svg2"
   version="1.1"><metadata
     id="metadata24"><rdf:RDF><cc:Work
         rdf:about=""><dc:format>image/svg+xml</dc:format><dc:type
           rdf:resource="http://purl.org/dc/dcmitype/StillImage" /><dc:title></dc:title></cc:Work></rdf:RDF></metadata><defs
     id="defs22" /><style
     id="style2"
     type="text/css">
	.st0{fill:none;stroke:#404040;stroke-width:1.8;stroke-miterlimit:10;}
	.st1{fill:#E6E6E6;}
	.st2{fill:none;stroke:#404040;stroke-width:3.65;stroke-miterlimit:10;}
	.st3{fill:none;stroke:#E6E6E6;stroke-width:1.65;stroke-miterlimit:10;}
</style><polygon
     class="st0"
     points="10.3,11.5 14.5,15.7 15.8,14.5 11.5,10.3 11.5,10.3 10.9,10.3 10.6,10 10,10.6 10.3,10.9 "
     id="polygon5"
     style="fill:none;stroke:#303030;stroke-width:1.79999995;stroke-miterlimit:10;stroke-opacity:1" /><polygon
     class="st1"
     points="10.3,11.5 14.5,15.7 15.8,14.5 11.5,10.3 11.5,10.3 10.9,10.3 10.6,10 10,10.6 10.3,10.9 "
     id="polygon7"
     style="fill:#e6e6e6" /><circle
     class="st2"
     cx="6.5"
     cy="6.5"
     r="4.5999999"
     id="circle11"
     style="fill:none;stroke:#303030;stroke-width:3.6500001;stroke-miterlimit:10;stroke-opacity:1" /><circle
     class="st3"
     cx="6.5"
     cy="6.5"
     r="4.5999999"
     id="circle13"
     style="fill:none;stroke:#ffffff;stroke-width:1.64999998;stroke-miterlimit:10;stroke-opacity:1" /><polygon
     class="st1"
     points="10.3,11.5 14.5,15.7 15.8,14.5 11.5,10.3 11.5,10.3 10.9,10.3 10.4,9.8 9.8,10.4 10.3,10.9 "
     id="polygon17"
     style="fill:#ffffff;fill-opacity:1" /></svg>