<?xml version="1.0" encoding="utf-8"?>
<!-- Generator: Adobe Illustrator 21.0.2, SVG Export Plug-In . SVG Version: 6.00 Build 0)  -->
<svg version="1.1"
	 id="svg2" inkscape:version="0.91 r13725" sodipodi:docname="locator_over.svg" xmlns:cc="http://creativecommons.org/ns#" xmlns:dc="http://purl.org/dc/elements/1.1/" xmlns:inkscape="http://www.inkscape.org/namespaces/inkscape" xmlns:rdf="http://www.w3.org/1999/02/22-rdf-syntax-ns#" xmlns:sodipodi="http://sodipodi.sourceforge.net/DTD/sodipodi-0.dtd" xmlns:svg="http://www.w3.org/2000/svg"
	 xmlns="http://www.w3.org/2000/svg" xmlns:xlink="http://www.w3.org/1999/xlink" x="0px" y="0px" viewBox="0 0 17 17"
	 style="enable-background:new 0 0 17 17;" xml:space="preserve">
<style type="text/css">
	.st0{fill:none;stroke:#404040;stroke-width:1.8;stroke-miterlimit:10;}
	.st1{fill:#E6E6E6;}
	.st2{fill:none;stroke:#404040;stroke-width:3.65;stroke-miterlimit:10;}
	.st3{fill:none;stroke:#FFFFFF;stroke-width:1.65;stroke-miterlimit:10;}
	.st4{fill:#FFFFFF;}
</style>
<sodipodi:namedview  bordercolor="#666666" borderopacity="1" gridtolerance="10" guidetolerance="10" id="namedview10" inkscape:current-layer="svg2" inkscape:cx="10.5" inkscape:cy="8.5" inkscape:pageopacity="0" inkscape:pageshadow="2" inkscape:window-height="480" inkscape:window-maximized="0" inkscape:window-width="796" inkscape:window-x="0" inkscape:window-y="0" inkscape:zoom="13.882353" objecttolerance="10" pagecolor="#ffffff" showgrid="false">
	</sodipodi:namedview>
<g>
	<polygon class="st0" points="10,10.6 10.3,10.9 10.3,11.5 14.5,15.7 15.8,14.5 11.5,10.3 11.5,10.3 10.9,10.3 10.6,10 	"/>
	<polygon class="st1" points="10,10.6 10.3,10.9 10.3,11.5 14.5,15.7 15.8,14.5 11.5,10.3 11.5,10.3 10.9,10.3 10.6,10 	"/>
</g>
<g>
	<circle class="st2" cx="6.5" cy="6.5" r="4.6"/>
	<circle class="st3" cx="6.5" cy="6.5" r="4.6"/>
</g>
<g>
	<polygon class="st4" points="9.8,10.4 10.3,10.9 10.3,11.5 14.5,15.7 15.8,14.5 11.5,10.3 11.5,10.3 10.9,10.3 10.4,9.8 	"/>
</g>
</svg>
