<?xml version="1.0" encoding="utf-8"?>
<!-- Generator: Adobe Illustrator 21.0.2, SVG Export Plug-In . SVG Version: 6.00 Build 0)  -->
<svg version="1.1" id="レイヤー_2" xmlns="http://www.w3.org/2000/svg" xmlns:xlink="http://www.w3.org/1999/xlink" x="0px"
	 y="0px" viewBox="0 0 17 17" style="enable-background:new 0 0 17 17;" xml:space="preserve">
<style type="text/css">
	.st0{fill:#404040;}
	.st1{fill:none;stroke:#404040;stroke-width:3;stroke-miterlimit:10;}
	.st2{fill:#E6E6E6;}
	.st3{fill:none;stroke:#E6E6E6;stroke-miterlimit:10;}
</style>
<polygon class="st0" points="6,6.7 6,16.3 14,11.5 "/>
<path class="st1" d="M12,11.5H5c-1.9,0-3.5-1.6-3.5-3.5v0c0-1.9,1.6-3.5,3.5-3.5h7c1.9,0,3.5,1.6,3.5,3.5v0
	C15.5,9.9,13.9,11.5,12,11.5z"/>
<polygon class="st2" points="7,8.5 7,14.5 12,11.5 "/>
<path class="st3" d="M12,11.5H5c-1.9,0-3.5-1.6-3.5-3.5v0c0-1.9,1.6-3.5,3.5-3.5h7c1.9,0,3.5,1.6,3.5,3.5v0
	C15.5,9.9,13.9,11.5,12,11.5z"/>
</svg>
