<?xml version="1.0" encoding="UTF-8" standalone="no"?><!DOCTYPE svg PUBLIC "-//W3C//DTD SVG 1.1//EN" "http://www.w3.org/Graphics/SVG/1.1/DTD/svg11.dtd"><svg width="100%" height="100%" viewBox="0 0 17 17" version="1.1" xmlns="http://www.w3.org/2000/svg" xmlns:xlink="http://www.w3.org/1999/xlink" xml:space="preserve" style="fill-rule:evenodd;clip-rule:evenodd;stroke-linejoin:round;stroke-miterlimit:1.5;"><g><g><path d="M6,5c0,0 -0.257,0 -0.586,0c-0.905,0 -1.774,0.36 -2.414,1c0,0 0,0 0,0c-0.64,0.64 -1,1.509 -1,2.414c0,0.057 0,0.115 0,0.172c0,0.905 0.36,1.774 1,2.414c0,0 0,0 0,0c0.64,0.64 1.509,1 2.414,1c1.686,0 4.486,0 6.172,0c0.905,0 1.774,-0.36 2.414,-1c0,0 0,0 0,0c0.64,-0.64 1,-1.509 1,-2.414c0,-0.057 0,-0.115 0,-0.172c0,-0.905 -0.36,-1.774 -1,-2.414c0,0 0,0 0,0c-0.64,-0.64 -1.509,-1 -2.414,-1c-0.778,0 -1.586,0 -1.586,0" style="fill:none;stroke:#000;stroke-opacity:0.501961;stroke-width:4px;"/><path d="M7,5l4,-3l0,6l-4,-3Z" style="fill:none;stroke:#000;stroke-opacity:0.501961;stroke-width:2px;"/></g><g><path d="M6,5c0,0 -0.257,0 -0.586,0c-0.905,0 -1.774,0.36 -2.414,1c0,0 0,0 0,0c-0.64,0.64 -1,1.509 -1,2.414c0,0.057 0,0.115 0,0.172c0,0.905 0.36,1.774 1,2.414c0,0 0,0 0,0c0.64,0.64 1.509,1 2.414,1c1.686,0 4.486,0 6.172,0c0.905,0 1.774,-0.36 2.414,-1c0,0 0,0 0,0c0.64,-0.64 1,-1.509 1,-2.414c0,-0.057 0,-0.115 0,-0.172c0,-0.905 -0.36,-1.774 -1,-2.414c0,0 0,0 0,0c-0.64,-0.64 -1.509,-1 -2.414,-1c-0.778,0 -1.586,0 -1.586,0" style="fill:none;stroke:#fff;stroke-width:2px;"/><path d="M7,5l4,-3l0,6l-4,-3Z" style="fill:#fff;"/></g></g></svg>