<?xml version="1.0" encoding="utf-8"?>
<!-- Generator: Adobe Illustrator 10.0, SVG Export Plug-In . SVG Version: 3.0.0 Build 76)  -->
<!DOCTYPE svg PUBLIC "-//W3C//DTD SVG 1.0//EN"    "http://www.w3.org/TR/2001/REC-SVG-20010904/DTD/svg10.dtd" [
	<!ENTITY ns_flows "http://ns.adobe.com/Flows/1.0/">
	<!ENTITY ns_extend "http://ns.adobe.com/Extensibility/1.0/">
	<!ENTITY ns_ai "http://ns.adobe.com/AdobeIllustrator/10.0/">
	<!ENTITY ns_graphs "http://ns.adobe.com/Graphs/1.0/">
	<!ENTITY ns_vars "http://ns.adobe.com/Variables/1.0/">
	<!ENTITY ns_imrep "http://ns.adobe.com/ImageReplacement/1.0/">
	<!ENTITY ns_sfw "http://ns.adobe.com/SaveForWeb/1.0/">
	<!ENTITY ns_custom "http://ns.adobe.com/GenericCustomNamespace/1.0/">
	<!ENTITY ns_adobe_xpath "http://ns.adobe.com/XPath/1.0/">
	<!ENTITY ns_svg "http://www.w3.org/2000/svg">
	<!ENTITY ns_xlink "http://www.w3.org/1999/xlink">
]>
<svg 
	 xmlns:x="&ns_extend;" xmlns:i="&ns_ai;" xmlns:graph="&ns_graphs;" i:viewOrigin="389.335 308.9209" i:rulerOrigin="0 0" i:pageBounds="0 600 800 0"
	 xmlns="&ns_svg;" xmlns:xlink="&ns_xlink;" xmlns:a="http://ns.adobe.com/AdobeSVGViewerExtensions/3.0/" width="24" height="19"
	 viewBox="0 0 24 19" overflow="visible" enable-background="new 0 0 24 19" xml:space="preserve">
	<metadata>
		<variableSets  xmlns="&ns_vars;">
			<variableSet  varSetName="binding1" locked="none">
				<variables></variables>
				<v:sampleDataSets  xmlns="&ns_custom;" xmlns:v="&ns_vars;"></v:sampleDataSets>
			</variableSet>
		</variableSets>
		<sfw  xmlns="&ns_sfw;">
			<slices></slices>
			<sliceSourceBounds  y="289.921" x="389.335" width="24" height="19" bottomLeftOrigin="true"></sliceSourceBounds>
		</sfw>
	</metadata>
	<g id="Layer_1" i:layer="yes" i:dimmedPercent="50" i:rgbTrio="#4F008000FFFF">
		<path i:knockout="Off" fill="none" d="M24,19H0V0h24V19z"/>
		<g i:knockout="Off">
			<g>
				<path i:knockout="Off" fill="#C8D200" d="M17.073,3.404h-9.72c-4.135,0-4.692,2.401-4.692,4.75c0,3.152,1.71,4.75,5.082,4.75
					h1.774l-0.002,2.718l5.505-2.718h2.054c3.373,0,5.083-1.598,5.083-4.75S20.446,3.404,17.073,3.404z M17.073,10.904h-1.858
					L9.521,8.079l-0.002,2.825H7.743c-2.578,0-3.082-1.009-3.082-2.75c0-1.912,0.255-2.75,2.692-2.75h9.72
					c2.578,0,3.083,1.009,3.083,2.75S19.651,10.904,17.073,10.904z"/>
			</g>
			<g>
				<path i:knockout="Off" fill="none" stroke="#404040" stroke-width="0.8" stroke-linecap="round" stroke-linejoin="round" d="
					M17.073,3.404h-9.72c-4.135,0-4.692,2.401-4.692,4.75c0,3.152,1.71,4.75,5.082,4.75h1.774l-0.002,2.718l5.505-2.718h2.054
					c3.373,0,5.083-1.598,5.083-4.75S20.446,3.404,17.073,3.404z M17.073,10.904h-1.858L9.521,8.079l-0.002,2.825H7.743
					c-2.578,0-3.082-1.009-3.082-2.75c0-1.912,0.255-2.75,2.692-2.75h9.72c2.578,0,3.083,1.009,3.083,2.75
					S19.651,10.904,17.073,10.904z"/>
			</g>
		</g>
	</g>
</svg>
