<?xml version="1.0" encoding="utf-8"?>
<!-- Generator: Adobe Illustrator 10.0, SVG Export Plug-In . SVG Version: 3.0.0 Build 76)  -->
<!DOCTYPE svg PUBLIC "-//W3C//DTD SVG 1.0//EN"    "http://www.w3.org/TR/2001/REC-SVG-20010904/DTD/svg10.dtd" [
	<!ENTITY ns_flows "http://ns.adobe.com/Flows/1.0/">
	<!ENTITY ns_extend "http://ns.adobe.com/Extensibility/1.0/">
	<!ENTITY ns_ai "http://ns.adobe.com/AdobeIllustrator/10.0/">
	<!ENTITY ns_graphs "http://ns.adobe.com/Graphs/1.0/">
	<!ENTITY ns_vars "http://ns.adobe.com/Variables/1.0/">
	<!ENTITY ns_imrep "http://ns.adobe.com/ImageReplacement/1.0/">
	<!ENTITY ns_sfw "http://ns.adobe.com/SaveForWeb/1.0/">
	<!ENTITY ns_custom "http://ns.adobe.com/GenericCustomNamespace/1.0/">
	<!ENTITY ns_adobe_xpath "http://ns.adobe.com/XPath/1.0/">
	<!ENTITY ns_svg "http://www.w3.org/2000/svg">
	<!ENTITY ns_xlink "http://www.w3.org/1999/xlink">
]>
<svg 
	 xmlns:x="&ns_extend;" xmlns:i="&ns_ai;" xmlns:graph="&ns_graphs;" i:viewOrigin="387 313" i:rulerOrigin="0 0" i:pageBounds="0 600 800 0"
	 xmlns="&ns_svg;" xmlns:xlink="&ns_xlink;" xmlns:a="http://ns.adobe.com/AdobeSVGViewerExtensions/3.0/" width="26" height="26"
	 viewBox="0 0 26 26" overflow="visible" enable-background="new 0 0 26 26" xml:space="preserve">
	<metadata>
		<variableSets  xmlns="&ns_vars;">
			<variableSet  varSetName="binding1" locked="none">
				<variables></variables>
				<v:sampleDataSets  xmlns="&ns_custom;" xmlns:v="&ns_vars;"></v:sampleDataSets>
			</variableSet>
		</variableSets>
		<sfw  xmlns="&ns_sfw;">
			<slices></slices>
			<sliceSourceBounds  y="287" x="387" width="26" height="26" bottomLeftOrigin="true"></sliceSourceBounds>
		</sfw>
	</metadata>
	<g id="Layer_1" i:layer="yes" i:dimmedPercent="50" i:rgbTrio="#4F008000FFFF">
		<path i:knockout="Off" fill="none" d="M26,26H0V0h26V26z"/>
		<path i:knockout="Off" fill="#CCCCCC" stroke="#000000" d="M5.615,14.463l7.098,7.002l2.515-2.549l-7.099-7.002
			c-0.89-0.876-0.834-2.379,0.121-3.35c0.958-0.97,2.458-1.044,3.349-0.168l7.098,7.003l2.513-2.55l-7.097-7.001
			c-2.18-2.148-5.856-1.965-8.199,0.412C3.571,8.633,3.439,12.314,5.615,14.463z"/>
		<path i:knockout="Off" fill="#666666" stroke="#000000" stroke-width="0.5" d="M15.228,18.916l-2.515,2.549l-3.797-3.747
			l2.514-2.55L15.228,18.916z"/>
		<path i:knockout="Off" fill="#999999" stroke="#000000" stroke-width="0.5" d="M21.209,12.849l-2.513,2.55l-3.798-3.748
			l2.513-2.549L21.209,12.849z"/>
		<path i:knockout="Off" fill="#62A2FF" stroke="#000000" stroke-width="0.5" d="M14.13,22.822l0.121,2.869"/>
		<path i:knockout="Off" fill="#62A2FF" stroke="#000000" stroke-width="0.5" d="M17.301,22.037l1.132,2.641"/>
		<path i:knockout="Off" fill="#62A2FF" stroke="#000000" stroke-width="0.5" d="M19.985,20.178l1.996,2.068"/>
		<path i:knockout="Off" fill="#62A2FF" stroke="#000000" stroke-width="0.5" d="M21.836,17.487l2.601,1.226"/>
		<path i:knockout="Off" fill="#62A2FF" stroke="#000000" stroke-width="0.5" d="M22.613,14.314l2.865,0.225"/>
	</g>
</svg>
