<?xml version="1.0" encoding="UTF-8" standalone="no"?><!DOCTYPE svg PUBLIC "-//W3C//DTD SVG 1.1//EN" "http://www.w3.org/Graphics/SVG/1.1/DTD/svg11.dtd"><svg width="100%" height="100%" viewBox="0 0 18 18" version="1.1" xmlns="http://www.w3.org/2000/svg" xmlns:xlink="http://www.w3.org/1999/xlink" xml:space="preserve" xmlns:serif="http://www.serif.com/" style="fill-rule:evenodd;clip-rule:evenodd;stroke-linecap:round;stroke-linejoin:round;stroke-miterlimit:1.5;"><path d="M6.545,1.026l5.455,-0.026l0,3l4,-0.086l0,13.086l-11,0l0,-2l-4,0l0,-8.524l5.545,-5.45Z" style="fill:#fff;"/><path d="M12,4l4,-0.086l0,13.086l-11,0l0,-2l-4,0l0,-8.524l5.545,-5.45l5.455,-0.026l0,3Zm-5.192,-2.336l-5.168,5.08l0,7.616l3.36,0l0.063,0.004l0.062,0.009l0.061,0.015l0.059,0.021l0.056,0.027l0.054,0.032l0.051,0.038l0.046,0.042l0.042,0.046l0.038,0.051l0.032,0.054l0.027,0.056l0.021,0.059l0.015,0.061l0.009,0.062l0.004,0.063l0,1.36l9.72,0l0,-11.793l-3.346,0.072l-0.064,-0.001l-0.063,-0.009l-0.062,-0.014l-0.06,-0.02l-0.058,-0.027l-0.055,-0.032l-0.052,-0.037l-0.047,-0.042l-0.044,-0.047l-0.038,-0.05l-0.033,-0.055l-0.028,-0.057l-0.021,-0.06l-0.016,-0.062l-0.009,-0.062l-0.004,-0.064l0,-2.357l-4.552,0.021Z" style="fill:#181818;"/><path d="M11.516,6.476l-4.971,0l0,7.023l4.971,0.052l0,-7.075Z" style="fill:none;stroke:#181818;stroke-width:0.47px;stroke-dasharray:1.41,1.41,0,0;"/><path d="M5.48,6.476l-4.48,0.327l5.872,-5.779l-1.392,5.452Z" style="fill:#d8d8d8;"/><path d="M5.48,6.476l-4.48,0.327l5.872,-5.779l-1.392,5.452Zm-2.66,-0.497l2.115,-0.154l0.657,-2.574l-2.772,2.728Z" style="fill:#181818;"/></svg>