<?xml version="1.0" encoding="utf-8"?>
<!-- Generator: Adobe Illustrator 21.0.2, SVG Export Plug-In . SVG Version: 6.00 Build 0)  -->
<svg version="1.1"
	 id="svg2" inkscape:version="0.91 r13725" sodipodi:docname="motionpath_fileicon.svg" xmlns:cc="http://creativecommons.org/ns#" xmlns:dc="http://purl.org/dc/elements/1.1/" xmlns:inkscape="http://www.inkscape.org/namespaces/inkscape" xmlns:rdf="http://www.w3.org/1999/02/22-rdf-syntax-ns#" xmlns:sodipodi="http://sodipodi.sourceforge.net/DTD/sodipodi-0.dtd" xmlns:svg="http://www.w3.org/2000/svg"
	 xmlns="http://www.w3.org/2000/svg" xmlns:xlink="http://www.w3.org/1999/xlink" x="0px" y="0px" viewBox="0 0 60 60"
	 style="enable-background:new 0 0 60 60;" xml:space="preserve">
<style type="text/css">
	.st0{fill:#EBEBEB;}
	.st1{fill:#404040;}
	.st2{fill:#FF0000;}
</style>
<sodipodi:namedview  bordercolor="#666666" borderopacity="1" gridtolerance="10" guidetolerance="10" id="namedview14" inkscape:current-layer="svg2" inkscape:cx="30" inkscape:cy="30" inkscape:pageopacity="0" inkscape:pageshadow="2" inkscape:window-height="500" inkscape:window-maximized="0" inkscape:window-width="1109" inkscape:window-x="0" inkscape:window-y="0" inkscape:zoom="3.9333333" objecttolerance="10" pagecolor="#ffffff" showgrid="false">
	</sodipodi:namedview>
<g id="g4">
	<rect id="rect6" y="0" class="st0" width="60" height="60"/>
	<path id="path8" inkscape:connector-curvature="0" class="st1" d="M60,60H0V0h60V60z M1,1v58h58V1H1z"/>
</g>
<path class="st2" d="M48.5,29.5c-0.1,0-0.3,0-0.4-0.1l-11.5-3.5l0.9-2.9l10.1,3.1l3.1-9.6l2.9,0.9l-3.5,11
	C49.7,29.1,49.1,29.5,48.5,29.5z"/>
<path class="st2" d="M22.1,52c-1.3,0-2.8-0.4-4.3-1.2c-1.4-0.7-2.7-1.6-4-2.7c0,0,0,0,0,0c0,0,0,0,0,0l1.9-2.2c0,0,0,0,0,0
	c0,0,0,0,0,0c1.1,0.9,2.3,1.7,3.5,2.3c1.1,0.6,2.1,0.8,2.9,0.8c0.2,0,0.3,0,0.5,0c0,0,0.1,0,0.1,0l0.4,2.9c0,0,0,0,0,0
	C22.7,52,22.4,52,22.1,52z M26.4,50.3C26.4,50.3,26.4,50.3,26.4,50.3l-2-2.1c0,0,0,0,0,0c0,0,0,0,0,0c0.6-0.6,1.2-1.5,1.6-2.5
	c0.3-0.8,0.5-1.6,0.5-1.7c0,0,0,0,0,0l0-0.1c0-0.4,0.1-1.1,0.1-2.3c0-0.2,0-0.4,0-0.6c0,0,0,0,0,0c0,0,0,0,0,0l2.9,0l0,0
	c0,0,0,0,0,0.1c0,0.2,0,0.4,0,0.6c0,1.3,0,2.2-0.1,2.5v0.1c0,0.5-0.2,1.3-0.7,2.6C28.2,48.2,27.4,49.4,26.4,50.3
	C26.4,50.3,26.4,50.3,26.4,50.3z M11.5,46C11.5,45.9,11.5,45.9,11.5,46c-3.4-3.6-5.1-7.2-5.4-7.8l0,0c0,0,0,0,0,0l0,0c0,0,0,0,0,0
	l2.7-1.2c0,0,0,0,0,0c0,0,0,0,0,0c0,0,0.1,0.2,0.3,0.6c0.3,0.5,0.6,1.1,0.9,1.6c0.7,1.2,1.9,3,3.6,4.8c0,0,0,0,0,0c0,0,0,0,0,0
	L11.5,46C11.5,45.9,11.5,46,11.5,46z M26.5,38C26.5,38,26.5,38,26.5,38L26.5,38c-0.3-2.8-0.6-5.7-1.3-8.8c0,0,0,0,0,0c0,0,0,0,0,0
	l2.9-0.6c0,0,0,0,0.1,0c0.6,3.2,1,6.3,1.2,9.1l0,0l0,0c0,0,0,0,0,0c0,0,0,0,0,0L26.5,38L26.5,38z M46.6,27.3
	C46.6,27.3,46.6,27.3,46.6,27.3c-1.3-3-2.6-5.6-4-7.8c0,0,0,0,0-0.1l2.5-1.5c0,0,0,0,0,0c0,0,0,0,0,0c1.4,2.3,2.9,5.1,4.2,8.2
	c0,0,0,0,0,0c0,0,0,0,0,0L46.6,27.3C46.6,27.3,46.6,27.3,46.6,27.3z M24.7,26.4C24.7,26.4,24.7,26.4,24.7,26.4L24.7,26.4
	c-0.2-0.8-0.4-1.6-0.6-2.5c-0.5-2.1-0.8-4.1-0.8-5.8c0-0.4,0-0.7,0-1c0,0,0-0.1,0.1,0l2.9,0.2c0,0,0,0,0,0c0,0,0,0,0,0
	c0,0.2,0,0.5,0,0.8c0,1.5,0.3,3.2,0.7,5.1c0.2,0.9,0.4,1.8,0.6,2.6c0,0,0,0.1,0,0.1l0,0l0,0l0,0l0,0l0,0l0,0h0L24.7,26.4L24.7,26.4z
	 M41.1,17.2C41.1,17.2,41.1,17.2,41.1,17.2C41,17.2,41,17.1,41.1,17.2c-2-2.7-4.1-4.5-6.2-5.3c0,0,0,0,0-0.1L36,9.1c0,0,0,0,0.1,0
	c2.6,1.1,5,3.2,7.4,6.3c0,0,0,0.1,0,0.1L41.1,17.2C41.1,17.2,41.1,17.2,41.1,17.2z M26.7,14.8C26.7,14.8,26.7,14.8,26.7,14.8
	L24,13.8c0,0,0,0,0-0.1c0.7-1.9,2.4-4.3,6.5-5.1c0.1,0,0.1,0,0.2,0c0.3-0.1,1-0.2,1.8-0.2h0.1c0,0,0,0,0,0c0,0,0,0,0,0l0,2.9
	c0,0,0,0,0,0h-0.1c-0.6,0-1,0.1-1.1,0.1c-0.1,0-0.2,0.1-0.4,0.1C29.9,11.8,27.8,12.3,26.7,14.8C26.8,14.8,26.7,14.8,26.7,14.8z"/>
</svg>
