<?xml version="1.0" encoding="utf-8"?>
<!-- Generator: Adobe Illustrator 21.0.2, SVG Export Plug-In . SVG Version: 6.00 Build 0)  -->
<svg version="1.1"
	 id="svg2" inkscape:version="0.91 r13725" sodipodi:docname="my_computer.svg" xmlns:cc="http://creativecommons.org/ns#" xmlns:dc="http://purl.org/dc/elements/1.1/" xmlns:inkscape="http://www.inkscape.org/namespaces/inkscape" xmlns:rdf="http://www.w3.org/1999/02/22-rdf-syntax-ns#" xmlns:sodipodi="http://sodipodi.sourceforge.net/DTD/sodipodi-0.dtd" xmlns:svg="http://www.w3.org/2000/svg"
	 xmlns="http://www.w3.org/2000/svg" xmlns:xlink="http://www.w3.org/1999/xlink" x="0px" y="0px" viewBox="0 0 21 17"
	 style="enable-background:new 0 0 21 17;" xml:space="preserve">
<style type="text/css">
	.st0{fill:none;}
	.st1{fill:#303030;}
	.st2{fill:#E6E6E6;}
</style>
<rect id="rect4" y="0" class="st0" width="21" height="17"/>
<path class="st1" d="M15,17H6v-4H3.5C2.1,13,1,11.9,1,10.5l0-7.9C1,1.1,2.1,0,3.5,0h13.9C18.9,0,20,1.1,20,2.5l0,7.9
	c0,1.4-1.1,2.5-2.5,2.5H13h2V17z M8,15h3v-4h6.4H3.5H10v4H8z M3,2.5l0,7.9c0,0.1,0,0.1,0,0.2V2.5z M5,9h11V4H5V9z M18,2.5L18,2.5
	L18,2.5C18,2.5,18,2.5,18,2.5z"/>
<path class="st2" d="M17.5,1H3.5C2.7,1,2,1.7,2,2.5l0,7.9C2,11.3,2.7,12,3.5,12H9v2H7v2h7v-2h-2v-2h5.4c0.9,0,1.5-0.7,1.5-1.5l0-7.9
	C19,1.7,18.3,1,17.5,1z M17,10H4V3h13V10z"/>
</svg>
