<?xml version="1.0" encoding="utf-8"?>
<!-- Generator: Adobe Illustrator 21.0.2, SVG Export Plug-In . SVG Version: 6.00 Build 0)  -->
<svg version="1.1"
	 id="svg2" inkscape:version="0.91 r13725" sodipodi:docname="my_documents.svg" xmlns:cc="http://creativecommons.org/ns#" xmlns:dc="http://purl.org/dc/elements/1.1/" xmlns:inkscape="http://www.inkscape.org/namespaces/inkscape" xmlns:rdf="http://www.w3.org/1999/02/22-rdf-syntax-ns#" xmlns:sodipodi="http://sodipodi.sourceforge.net/DTD/sodipodi-0.dtd" xmlns:svg="http://www.w3.org/2000/svg"
	 xmlns="http://www.w3.org/2000/svg" xmlns:xlink="http://www.w3.org/1999/xlink" x="0px" y="0px" viewBox="0 0 21 17"
	 style="enable-background:new 0 0 21 17;" xml:space="preserve">
<style type="text/css">
	.st0{fill:none;}
	.st1{fill:#FFFFFF;}
	.st2{fill:#242424;}
	.st3{fill:#BDD4E8;}
	.st4{fill:#FFC500;}
</style>
<rect id="rect4" y="0" class="st0" width="21" height="17"/>
<path id="path6" inkscape:connector-curvature="0" class="st1" d="M1,3.5h6l1,2h5.5l1,10H4L1,3.5z"/>
<path id="path8" inkscape:connector-curvature="0" class="st2" d="M8.4,5h9.1l-0.9,11H3.5L0.3,3h7.4L8.4,5z M1.5,4l2.9,11h11.1
	l1.1-9H7.5L6.9,4H1.5L1.5,4z"/>
<path id="path10" inkscape:connector-curvature="0" class="st3" d="M19.5,5.5H8l-3,10h11.5L19.5,5.5z"/>
<path id="path12" inkscape:connector-curvature="0" class="st2" d="M17,16H4.5l3-11H20L17,16z M8.3,6l-2.5,9h10.4l2.6-9H8.3z"/>
<rect id="rect14" x="1.5" y="5" class="st2" width="6.5" height="1"/>
<path class="st2" d="M20,4h-6.2c-0.5,0-0.9-0.2-1.3-0.5C12.2,3.1,12,2.7,12,2.2V1.6c0-0.4,0.2-0.8,0.5-1.1C12.8,0.2,13.2,0,13.6,0
	H20V4z M14,2h4H14z"/>
<path class="st4" d="M19,1c0,0-3.9,0-5.4,0c-0.2,0-0.3,0.1-0.4,0.2C13.1,1.3,13,1.4,13,1.6c0,0.2,0,0.4,0,0.6c0,0.2,0.1,0.4,0.2,0.6
	S13.6,3,13.8,3C15.4,3,19,3,19,3V1z"/>
<g>
	<rect id="rect24_1_" x="12" y="9" class="st2" width="1" height="1"/>
	<path class="st2" d="M13,11h-1c-0.6,0-1-0.4-1-1V9c0-0.6,0.4-1,1-1h1c0.6,0,1,0.4,1,1v1C14,10.6,13.6,11,13,11z"/>
</g>
<path id="path28" inkscape:connector-curvature="0" class="st2" d="M12.8,2.5c0,0-1.5-0.2-1.7,0.8c-0.2,0.9-0.1,2.1,0,3
	c0,0.4,0.2,0.9,0.4,1.3c0.4,0.8,1.2,1.4,1.8,2c-0.1,0.1-0.6,0.7-0.7,0.7c-0.2,0-0.8-0.8-1-1c-0.3-0.3-0.5-0.5-0.7-0.8
	c-0.4-0.5-0.6-1.1-0.7-1.7c-0.2-1.1-0.2-2.4,0-3.4c0.1-0.6,0.4-1.1,0.8-1.4c0.3-0.2,0.6-0.3,0.9-0.3c0.3,0,1.1,0,1.1,0L12.8,2.5z"/>
</svg>
