<?xml version="1.0" encoding="UTF-8" standalone="no"?><!DOCTYPE svg PUBLIC "-//W3C//DTD SVG 1.1//EN" "http://www.w3.org/Graphics/SVG/1.1/DTD/svg11.dtd"><svg width="100%" height="100%" viewBox="0 0 18 18" version="1.1" xmlns="http://www.w3.org/2000/svg" xmlns:xlink="http://www.w3.org/1999/xlink" xml:space="preserve" xmlns:serif="http://www.serif.com/" style="fill-rule:evenodd;clip-rule:evenodd;stroke-linejoin:round;stroke-miterlimit:1.41421;"><g id="vector"><g><g><path d="M16,1l-6.995,0l-6.997,6.857l0,9.143l13.992,0l0,-16Z" style="fill:#fff;"/><path d="M16,17l-13.992,0l0,-10l4.992,-6l9,0l0,16Zm-8.491,-15.058l-4.509,5.058l-0.03,9.149l12.07,0l-0.04,-14.149l-7.491,-0.058Z" style="fill:#181818;"/></g><g><path d="M8,1l-1,0l-5,6l0.008,1l5.992,0l0,-7Z" style="fill:#d8d8d8;"/><path d="M8,8l-5.992,0l-0.008,-1l5,-6l1,0l0,7Zm-5.003,-0.857l4.146,0l0,-4.975l-4.146,4.975Z"/></g></g><g><path d="M14.193,5.522l-1.316,-1.189l-6.363,6.559l-1.68,-2.075l-0.024,6.139l5.831,-0.76l-2.033,-1.489l5.585,-7.185Z" style="fill:#666464;"/><path d="M6.519,11.85l1.095,0.989l5.294,-5.457l1.398,1.726l0.02,-5.108l-4.852,0.632l1.691,1.239l-4.646,5.979Z" style="fill:#666464;"/></g></g></svg>