<?xml version="1.0" encoding="utf-8"?>
<!-- Generator: Adobe Illustrator 21.0.2, SVG Export Plug-In . SVG Version: 6.00 Build 0)  -->
<svg version="1.1"
	 id="svg2" inkscape:version="0.91 r13725" sodipodi:docname="newmemo.svg" xmlns:cc="http://creativecommons.org/ns#" xmlns:dc="http://purl.org/dc/elements/1.1/" xmlns:inkscape="http://www.inkscape.org/namespaces/inkscape" xmlns:rdf="http://www.w3.org/1999/02/22-rdf-syntax-ns#" xmlns:sodipodi="http://sodipodi.sourceforge.net/DTD/sodipodi-0.dtd" xmlns:svg="http://www.w3.org/2000/svg"
	 xmlns="http://www.w3.org/2000/svg" xmlns:xlink="http://www.w3.org/1999/xlink" x="0px" y="0px" viewBox="0 0 38 20"
	 style="enable-background:new 0 0 38 20;" xml:space="preserve">
<style type="text/css">
	.st0{fill:#FFFFFF;}
	.st1{fill:#404040;}
	.st2{fill:#C8C8C8;}
</style>
<sodipodi:namedview  bordercolor="#666666" borderopacity="1" gridtolerance="10" guidetolerance="10" id="namedview16" inkscape:current-layer="svg2" inkscape:cx="19" inkscape:cy="10" inkscape:pageopacity="0" inkscape:pageshadow="2" inkscape:window-height="480" inkscape:window-maximized="0" inkscape:window-width="796" inkscape:window-x="0" inkscape:window-y="0" inkscape:zoom="11.8" objecttolerance="10" pagecolor="#ffffff" showgrid="false">
	</sodipodi:namedview>
<g>
	<g id="g4">
		<path id="path6" inkscape:connector-curvature="0" class="st0" d="M36,3H9.5L2,10.5V17h34V3z"/>
		<path id="path8" inkscape:connector-curvature="0" class="st1" d="M37,18H1v-7.9L9.1,2H37V18z M9.5,3L2,10.5V17h34V3H9.5z"/>
	</g>
	<path id="path10" inkscape:connector-curvature="0" class="st2" d="M9,2l-8,8l0.1,1H10V2H9z"/>
	<path id="path12" inkscape:connector-curvature="0" class="st1" d="M10,2v9H1.1L1,10l8-8H10z M2.4,10H9V3.4L2.4,10z"/>
	<path id="path14" inkscape:connector-curvature="0" class="st1" d="M16,9h3V6h2v3h3v2h-3v3h-2v-3h-3V9z"/>
</g>
</svg>
