<?xml version="1.0" encoding="UTF-8" standalone="no"?>
<svg
   xmlns:dc="http://purl.org/dc/elements/1.1/"
   xmlns:cc="http://creativecommons.org/ns#"
   xmlns:rdf="http://www.w3.org/1999/02/22-rdf-syntax-ns#"
   xmlns:svg="http://www.w3.org/2000/svg"
   xmlns="http://www.w3.org/2000/svg"
   width="100%"
   height="100%"
   viewBox="0 0 20 20"
   version="1.1"
   xml:space="preserve"
   style="clip-rule:evenodd;fill-rule:evenodd;stroke-linejoin:round;stroke-miterlimit:1.41420996"
   id="svg4"><metadata
     id="metadata10"><rdf:RDF><cc:Work
         rdf:about=""><dc:format>image/svg+xml</dc:format><dc:type
           rdf:resource="http://purl.org/dc/dcmitype/StillImage" /><dc:title></dc:title></cc:Work></rdf:RDF></metadata><defs
     id="defs8" /><path
     d="M 5,5 H 15 V 15 H 5 Z m 3,9 V 12 H 6 v 2 z m 3,0 V 12 H 9 v 2 z m 3,-2 h -2 v 2 h 2 z M 9,9 v 2 h 2 V 9 Z m 3,0 v 2 h 2 V 9 Z M 6,11 H 8 V 9 H 6 Z M 9,6 v 2 h 2 V 6 Z m 3,0 v 2 h 2 V 6 Z M 8,8 V 6 H 6 v 2 z"
     id="path2"
     style="fill:#e6e6e6;fill-opacity:1;stroke:#2c2c2c;stroke-width:2;stroke-miterlimit:1.41420996;stroke-dasharray:none;stroke-opacity:0.76470588;paint-order:stroke fill markers" /><path
     style="fill:#e6e6e6;fill-opacity:1;stroke:none;stroke-width:2;stroke-miterlimit:1.41420996;stroke-dasharray:none;stroke-opacity:0.76470588;paint-order:stroke fill markers"
     id="path8"
     d="M 5,5 H 15 V 15 H 5 Z m 3,9 V 12 H 6 v 2 z m 3,0 V 12 H 9 v 2 z m 3,-2 h -2 v 2 h 2 z M 9,9 v 2 h 2 V 9 Z m 3,0 v 2 h 2 V 9 Z M 6,11 H 8 V 9 H 6 Z M 9,6 v 2 h 2 V 6 Z m 3,0 v 2 h 2 V 6 Z M 8,8 V 6 H 6 v 2 z" /></svg>