<?xml version="1.0" encoding="utf-8"?>
<!-- Generator: Adobe Illustrator 21.0.2, SVG Export Plug-In . SVG Version: 6.00 Build 0)  -->
<svg version="1.1"
	 id="svg4" inkscape:version="0.91 r13725" sodipodi:docname="pane_grid_over.svg" xmlns:cc="http://creativecommons.org/ns#" xmlns:dc="http://purl.org/dc/elements/1.1/" xmlns:inkscape="http://www.inkscape.org/namespaces/inkscape" xmlns:rdf="http://www.w3.org/1999/02/22-rdf-syntax-ns#" xmlns:sodipodi="http://sodipodi.sourceforge.net/DTD/sodipodi-0.dtd" xmlns:svg="http://www.w3.org/2000/svg"
	 xmlns="http://www.w3.org/2000/svg" xmlns:xlink="http://www.w3.org/1999/xlink" x="0px" y="0px" viewBox="0 0 20 20"
	 style="enable-background:new 0 0 20 20;" xml:space="preserve">
<style type="text/css">
	.st0{fill:#E6E6E6;fill-opacity:0.2915;}
	.st1{fill:#E6E6E6;stroke:#2C2C2C;stroke-width:2;stroke-linejoin:round;stroke-miterlimit:1.4142;stroke-opacity:0.7647;}
	.st2{fill:#E6E6E6;}
</style>
<rect id="rect819" y="0" class="st0" width="20" height="20"/>
<path id="path2" inkscape:connector-curvature="0" class="st1" d="M5,5h10v10H5V5z M8,14v-2H6v2H8z M11,14v-2H9v2H11z M14,12h-2v2h2
	V12z M9,9v2h2V9H9z M12,9v2h2V9H12z M6,11h2V9H6V11z M9,6v2h2V6H9z M12,6v2h2V6H12z M8,8V6H6v2H8z"/>
<path id="path814" inkscape:connector-curvature="0" class="st2" d="M5,5h10v10H5V5z M8,14v-2H6v2H8z M11,14v-2H9v2H11z M14,12h-2v2
	h2V12z M9,9v2h2V9H9z M12,9v2h2V9H12z M6,11h2V9H6V11z M9,6v2h2V6H9z M12,6v2h2V6H12z M8,8V6H6v2H8z"/>
</svg>
