<?xml version="1.0" encoding="UTF-8" standalone="no"?>
<svg
   xmlns:dc="http://purl.org/dc/elements/1.1/"
   xmlns:cc="http://creativecommons.org/ns#"
   xmlns:rdf="http://www.w3.org/1999/02/22-rdf-syntax-ns#"
   xmlns:svg="http://www.w3.org/2000/svg"
   xmlns="http://www.w3.org/2000/svg"
   id="svg4"
   style="clip-rule:evenodd;fill-rule:evenodd;stroke-linejoin:round;stroke-miterlimit:1.41420996"
   xml:space="preserve"
   version="1.1"
   viewBox="0 0 20 20"
   height="20"
   width="20"><metadata
     id="metadata10"><rdf:RDF><cc:Work
         rdf:about=""><dc:format>image/svg+xml</dc:format><dc:type
           rdf:resource="http://purl.org/dc/dcmitype/StillImage" /><dc:title></dc:title></cc:Work></rdf:RDF></metadata><defs
     id="defs8" /><path
     d="m 17,8 -5,3 v 6 l 5,-3 z M 13,6 8,9 v 6 L 11,13 10.996,10.202 13,9 Z M 9,4 4,7 v 6 L 7,11 6.996,8.202 9,7 Z"
     id="path822"
     style="fill:#e6e6e6;fill-opacity:1;stroke:#2c2c2c;stroke-opacity:0.7647059;stroke-width:2;stroke-miterlimit:1.41420996;stroke-dasharray:none" /><path
     style="fill:#e6e6e6;fill-opacity:1"
     id="path2"
     d="m 17,8 -5,3 v 6 l 5,-3 z M 13,6 8,9 v 6 L 11,13 10.996,10.202 13,9 Z M 9,4 4,7 v 6 L 7,11 6.996,8.202 9,7 Z" /></svg>