<?xml version="1.0" encoding="UTF-8" standalone="no"?>
<svg
   xmlns:dc="http://purl.org/dc/elements/1.1/"
   xmlns:cc="http://creativecommons.org/ns#"
   xmlns:rdf="http://www.w3.org/1999/02/22-rdf-syntax-ns#"
   xmlns:svg="http://www.w3.org/2000/svg"
   xmlns="http://www.w3.org/2000/svg"
   id="svg4"
   style="clip-rule:evenodd;fill-rule:evenodd;stroke-linejoin:round;stroke-miterlimit:1.41420996"
   xml:space="preserve"
   version="1.1"
   viewBox="0 0 25 20"
   height="20"
   width="25"><metadata
     id="metadata10"><rdf:RDF><cc:Work
         rdf:about=""><dc:format>image/svg+xml</dc:format><dc:type
           rdf:resource="http://purl.org/dc/dcmitype/StillImage" /><dc:title></dc:title></cc:Work></rdf:RDF></metadata><defs
     id="defs8" /><rect
     y="0.0099999998"
     x="-8.8817842e-016"
     height="20"
     width="25"
     id="rect830"
     style="fill:#68dda5;fill-opacity:1;stroke-width:1.11803389" /><path
     id="path1617"
     d="M 5,10 C 5,10 7.81,5.51 12.5,5.51 17.19,5.51 20,10 20,10 20,10 17.201,14.51 12.5,14.51 7.799,14.51 5,10 5,10 Z"
     style="clip-rule:evenodd;fill:#e6e6e6;fill-opacity:1;fill-rule:evenodd;stroke:#2c2c2c;stroke-width:2;stroke-linejoin:round;stroke-miterlimit:1.41420996;stroke-dasharray:none;stroke-opacity:0.76470588;paint-order:stroke fill markers" /><path
     style="clip-rule:evenodd;fill:#e6e6e6;fill-opacity:1;fill-rule:evenodd;stroke:none;stroke-width:2;stroke-linejoin:round;stroke-miterlimit:1.41420996;stroke-dasharray:none;stroke-opacity:0.76470588;paint-order:stroke fill markers"
     d="M 5,10 C 5,10 7.81,5.51 12.5,5.51 17.19,5.51 20,10 20,10 20,10 17.201,14.51 12.5,14.51 7.799,14.51 5,10 5,10 Z"
     id="path832" /><ellipse
     style="fill:#3a3a3a;fill-opacity:1"
     ry="3.6207628"
     rx="3.5"
     cy="10.01"
     cx="12.5"
     id="path21" /><circle
     r="1.5"
     cy="9.0100002"
     cx="11.5"
     id="path1450"
     style="fill:#e6e6e6;fill-opacity:1" /></svg>