<?xml version="1.0" encoding="UTF-8" standalone="no"?>
<svg
   xmlns:dc="http://purl.org/dc/elements/1.1/"
   xmlns:cc="http://creativecommons.org/ns#"
   xmlns:rdf="http://www.w3.org/1999/02/22-rdf-syntax-ns#"
   xmlns:svg="http://www.w3.org/2000/svg"
   xmlns="http://www.w3.org/2000/svg"
   id="svg4"
   style="clip-rule:evenodd;fill-rule:evenodd;stroke-linejoin:round;stroke-miterlimit:1.41420996"
   xml:space="preserve"
   version="1.1"
   viewBox="0 0 25 20"
   height="20"
   width="25"><metadata
     id="metadata10"><rdf:RDF><cc:Work
         rdf:about=""><dc:format>image/svg+xml</dc:format><dc:type
           rdf:resource="http://purl.org/dc/dcmitype/StillImage" /><dc:title></dc:title></cc:Work></rdf:RDF></metadata><defs
     id="defs8"><marker
       orient="auto"
       refY="0"
       refX="0"
       id="marker1098"
       style="overflow:visible"><path
         id="path1096"
         d="M 0,0 5,-5 -12.5,0 5,5 Z"
         style="fill:#000000;fill-opacity:1;fill-rule:evenodd;stroke:#000000;stroke-width:1.00000003pt;stroke-opacity:1"
         transform="matrix(0.8,0,0,0.8,10,0)" /></marker><marker
       orient="auto"
       refY="0"
       refX="0"
       id="Arrow1Lstart"
       style="overflow:visible"><path
         id="path820"
         d="M 0,0 5,-5 -12.5,0 5,5 Z"
         style="fill:#000000;fill-opacity:1;fill-rule:evenodd;stroke:#000000;stroke-width:1.00000003pt;stroke-opacity:1"
         transform="matrix(0.8,0,0,0.8,10,0)" /></marker></defs><rect
     id="rect855"
     width="25"
     height="20"
     x="-2.6645353e-015"
     y="0"
     style="fill:#c76cbb;fill-opacity:1;stroke-width:1.09108937" /><g
     id="g1244"
     transform="translate(2.5000178)"><path
       id="path1236"
       d="m 2.5,9.99 c 0,0 2.81,-4.49 7.5,-4.49 4.69,0 7.5,4.49 7.5,4.49 0,0 -2.799,4.51 -7.5,4.51 -4.701,0 -7.5,-4.51 -7.5,-4.51 z"
       style="clip-rule:evenodd;fill:#e6e6e6;fill-opacity:1;fill-rule:evenodd;stroke:#2c2c2c;stroke-width:2;stroke-linejoin:round;stroke-miterlimit:1.41420996;stroke-dasharray:none;stroke-opacity:0.76470588;paint-order:stroke fill markers" /><path
       style="clip-rule:evenodd;fill:#e6e6e6;fill-opacity:1;fill-rule:evenodd;stroke:none;stroke-width:2;stroke-linejoin:round;stroke-miterlimit:1.41420996;stroke-dasharray:none;stroke-opacity:0.76470588;paint-order:stroke fill markers"
       d="m 2.5,9.99 c 0,0 2.81,-4.49 7.5,-4.49 4.69,0 7.5,4.49 7.5,4.49 0,0 -2.799,4.51 -7.5,4.51 -4.701,0 -7.5,-4.51 -7.5,-4.51 z"
       id="path1238" /><ellipse
       style="fill:#3a3a3a;fill-opacity:1"
       ry="3.6207628"
       rx="3.5"
       cy="10"
       cx="10"
       id="ellipse1240" /><circle
       r="1.5"
       cy="9"
       cx="9"
       id="circle1242"
       style="fill:#e6e6e6;fill-opacity:1" /></g><path
     style="fill:#000000;fill-opacity:1"
     d="M 3,2 V 3 H 5 V 2 Z M 6,3 H 8 V 2 H 6 Z m 3,0 h 2 V 2 H 9 Z m 3,0 h 2 V 2 h -2 z m 3,0 h 2 V 2 h -2 z m 3,0 h 2 V 2 h -2 z m 3,1 h 1 V 2 H 21 Z M 3,6 H 4 V 4 H 3 Z m 18,1 h 1 V 5 H 21 Z M 3,9 H 4 V 7 H 3 Z m 18,1 h 1 V 8 H 21 Z M 3,12 H 4 V 9.9999996 H 3 Z m 18,1 h 1 V 11 H 21 Z M 3,15 H 4 V 13 H 3 Z m 18,1 h 1 V 14 H 21 Z M 3,18 H 4 V 16 H 3 Z m 2,0 H 7 V 17 H 5 Z m 3,0 h 2 V 17 H 8 Z m 3,0 h 2 v -1 h -2 z m 3,0 h 2 v -1 h -2 z m 3,0 h 2 v -1 h -2 z m 3,0 h 2 v -1 h -2 z"
     id="path1434" /></svg>