<?xml version="1.0" encoding="UTF-8" standalone="no"?><!DOCTYPE svg PUBLIC "-//W3C//DTD SVG 1.1//EN" "http://www.w3.org/Graphics/SVG/1.1/DTD/svg11.dtd"><svg width="100%" height="100%" viewBox="0 0 17 17" version="1.1" xmlns="http://www.w3.org/2000/svg" xmlns:xlink="http://www.w3.org/1999/xlink" xml:space="preserve" style="fill-rule:evenodd;clip-rule:evenodd;stroke-linejoin:round;stroke-miterlimit:1.41421;"><g id="Layer1"><rect id="rect5" x="-2" y="0" width="21" height="17" style="fill:none;"/><g id="g7"><path id="path9" d="M7,3l0,11l-2,0l0,-11l2,0Zm5,0l0,11l-2,0l0,-11l2,0Z" style="fill:#fff;fill-rule:nonzero;"/><path id="path11" d="M8,2l0,13l-4,0l0,-13l4,0Zm5,13l-4,0l0,-13l4,0l0,13Zm-8,-12l0,11l2,0l0,-11l-2,0Zm5,0l0,11l2,0l0,-11l-2,0Z" style="fill-opacity:0.301961;fill-rule:nonzero;"/></g></g></svg>