<svg width="25px" height="25px" xmlns="http://www.w3.org/2000/svg" xmlns:xlink="http://www.w3.org/1999/xlink">
<g style="">  <path d="M1.612833,3.568567 L8.409851,0.804944 C8.409851,0.804944,13.554179,5.451679,14.931044,7.043680 C16.436991,8.764762,16.173638,10.736480,15.533423,12.809306 C15.167710,14.176103,13.850140,16.838594,16.259655,18.989947 C17.851656,20.022596,20.958193,19.926227,22.526735,20.150304 C21.236325,21.285636,17.372952,24.258392,17.372952,24.258392 C17.372952,24.258392,9.364961,24.150042,8.543344,19.220337 C8.700441,15.874579,9.786586,15.913369,10.350480,12.637197 C10.332637,9.807799,8.643423,8.419820,7.553721,7.129734 C6.133829,5.795895,1.612833,3.568567,1.612833,3.568567 Z " style="fill: rgba(255, 255, 255, 1.000000); " fill="#fefffe" stroke="none" />
  <path d="M1.078264,8.822261 L2.621161,8.822643 L2.614029,6.734283 L5.822837,9.242280 L2.616874,11.602748 L2.616874,9.558595 L1.061488,9.558213 L1.078264,8.822261 Z " style="fill: rgba(173, 39, 4, 1.000000); " fill="#bd3900" stroke="none" />
  <path d="M22.016611,15.482325 L20.473716,15.480698 L20.479163,17.569063 L17.272378,15.058479 L20.480245,12.700597 L20.478596,14.744749 L22.033981,14.746386 L22.016611,15.482325 Z " style="fill: rgba(173, 39, 4, 1.000000); " fill="#bd3900" stroke="none" />
  <path d="M8.243032,1.849944 L7.039863,5.504678 L13.689375,7.039540 L11.242168,13.500000 L14.262168,14.020000 L9.678040,18.473464 L15.078480,19.129296 L13.564167,22.662692 L20.896628,20.685726 " stroke-linejoin="round" stroke-linecap="round" style="fill: none; stroke-width: 1.000000px; stroke: rgba(139, 180, 137, 1.000000); " fill="none" stroke="#9bbf9a" stroke-width="1.000000" />
  <path d="M1.795287,3.568567 L8.592305,0.804944 C8.592305,0.804944,13.736632,5.451679,15.113498,7.043680 C16.619445,8.764762,16.356092,10.736480,15.715877,12.809306 C15.350164,14.176103,14.032594,16.838594,16.442109,18.989947 C18.034110,20.022596,21.140647,19.926227,22.709189,20.150304 C21.418779,21.285636,17.555406,24.258392,17.555406,24.258392 C17.555406,24.258392,9.547415,24.150042,8.725797,19.220337 C8.882895,15.874579,9.969040,15.913369,10.532934,12.637197 C10.515091,9.807799,8.825877,8.419820,7.736175,7.129734 C6.316282,5.795895,1.795287,3.568567,1.795287,3.568567 Z " stroke-linejoin="round" stroke-linecap="round" style="fill: none; stroke-width: 1.000000px; stroke: rgba(0, 0, 0, 1.000000); " fill="none" stroke="#000000" stroke-width="1.000000" />
</g></svg>