<svg width="26px" height="26px" xmlns="http://www.w3.org/2000/svg" xmlns:xlink="http://www.w3.org/1999/xlink">
<g style="">  <path d="M1.677346,3.711311 L8.746245,0.837143 C8.746245,0.837143,14.096345,5.669747,15.528286,7.325428 C17.094470,9.115353,16.820583,11.165940,16.154760,13.321678 C15.774418,14.743147,14.404145,17.512138,16.910041,19.749545 C18.565722,20.823500,21.796520,20.723276,23.427804,20.956317 C22.085777,22.137061,18.067870,25.228728,18.067870,25.228728 C18.067870,25.228728,9.739559,25.116044,8.885077,19.989151 C9.048458,16.509562,10.178049,16.549905,10.764499,13.142686 C10.745943,10.200111,8.989159,8.756614,7.855870,7.414924 C6.379181,6.027732,1.677346,3.711311,1.677346,3.711311 Z " style="fill: rgba(212, 212, 212, 1.000000); " fill="#dbdcdb" stroke="none" />
  <path d="M1.121395,9.175152 L2.726007,9.175549 L2.718590,7.003655 L6.055751,9.611972 L2.721549,12.066859 L2.721549,9.940940 L1.103947,9.940542 L1.121395,9.175152 Z " style="fill: rgba(88, 88, 88, 1.000000); " fill="#6a6b6a" stroke="none" />
  <path d="M22.897275,16.101618 L21.292663,16.099926 L21.298328,18.271826 L17.963273,15.660818 L21.299454,13.208621 L21.297739,15.334540 L22.915340,15.336242 L22.897275,16.101618 Z " style="fill: rgba(88, 88, 88, 1.000000); " fill="#6a6b6a" stroke="none" />
  <path d="M8.640000,1.790000 L7.321458,5.724866 L14.430000,7.220000 L11.691855,14.040000 L14.990000,14.620000 L10.065161,19.212403 L15.810000,19.750000 L14.106734,23.569199 L21.960000,21.420000 " stroke-linejoin="round" stroke-linecap="round" style="fill: none; stroke-width: 1.000000px; stroke: rgba(88, 88, 88, 1.000000); " fill="none" stroke="#6a6b6a" stroke-width="1.000000" />
  <path d="M1.867098,3.669228 L8.935997,0.795061 C8.935997,0.795061,14.286097,5.627664,15.718038,7.283345 C17.284222,9.073271,17.010335,11.123857,16.344512,13.279596 C15.964170,14.701065,14.593897,17.470056,17.099793,19.707463 C18.755474,20.781418,21.986272,20.681193,23.617556,20.914234 C22.275529,22.094979,18.257622,25.186645,18.257622,25.186645 C18.257622,25.186645,9.929311,25.073962,9.074829,19.947068 C9.238210,16.467480,10.367801,16.507822,10.954251,13.100603 C10.935695,10.158029,9.178911,8.714531,8.045622,7.372842 C6.568933,5.985649,1.867098,3.669228,1.867098,3.669228 Z " stroke-linejoin="round" stroke-linecap="round" style="fill: none; stroke-width: 1.000000px; stroke: rgba(0, 0, 0, 1.000000); " fill="none" stroke="#000000" stroke-width="1.000000" />
</g></svg>