<?xml version="1.0" encoding="UTF-8" standalone="no"?><!DOCTYPE svg PUBLIC "-//W3C//DTD SVG 1.1//EN" "http://www.w3.org/Graphics/SVG/1.1/DTD/svg11.dtd"><svg width="100%" height="100%" viewBox="0 0 18 18" version="1.1" xmlns="http://www.w3.org/2000/svg" xmlns:xlink="http://www.w3.org/1999/xlink" xml:space="preserve" xmlns:serif="http://www.serif.com/" style="fill-rule:evenodd;clip-rule:evenodd;stroke-linejoin:round;stroke-miterlimit:1.41421;"><path d="M10.174,1.087c-0.778,-0.116 -1.57,-0.116 -2.348,0l-0.187,1.987c-0.661,0.152 -1.292,0.413 -1.867,0.773l-1.538,-1.273c-0.632,0.469 -1.191,1.028 -1.66,1.66l1.273,1.538c-0.36,0.575 -0.621,1.206 -0.773,1.867l-1.987,0.187c-0.116,0.778 -0.116,1.57 0,2.348l1.987,0.187c0.152,0.661 0.413,1.292 0.773,1.867l-1.273,1.538c0.469,0.632 1.028,1.191 1.66,1.66l1.538,-1.273c0.575,0.36 1.206,0.621 1.867,0.773l0.187,1.987c0.778,0.116 1.57,0.116 2.348,0l0.187,-1.987c0.661,-0.152 1.292,-0.413 1.867,-0.773l1.538,1.273c0.632,-0.469 1.191,-1.028 1.66,-1.66l-1.273,-1.538c0.36,-0.575 0.621,-1.206 0.773,-1.867l1.987,-0.187c0.116,-0.778 0.116,-1.57 0,-2.348l-1.987,-0.187c-0.152,-0.661 -0.413,-1.292 -0.773,-1.867l1.273,-1.538c-0.469,-0.632 -1.028,-1.191 -1.66,-1.66l-1.538,1.273c-0.575,-0.36 -1.206,-0.621 -1.867,-0.773l-0.187,-1.987Zm-1.174,4.553c1.854,0 3.36,1.506 3.36,3.36c0,1.854 -1.506,3.36 -3.36,3.36c-1.854,0 -3.36,-1.506 -3.36,-3.36c0,-1.854 1.506,-3.36 3.36,-3.36Z" style="fill:#ebebeb;stroke:#181818;stroke-width:1px;"/></svg>