<?xml version="1.0" encoding="utf-8"?>
<!-- Generator: Adobe Illustrator 21.0.2, SVG Export Plug-In . SVG Version: 6.00 Build 0)  -->
<svg version="1.1"
	 id="svg2" inkscape:version="0.91 r13725" sodipodi:docname="psd.svg" xmlns:cc="http://creativecommons.org/ns#" xmlns:dc="http://purl.org/dc/elements/1.1/" xmlns:inkscape="http://www.inkscape.org/namespaces/inkscape" xmlns:rdf="http://www.w3.org/1999/02/22-rdf-syntax-ns#" xmlns:sodipodi="http://sodipodi.sourceforge.net/DTD/sodipodi-0.dtd" xmlns:svg="http://www.w3.org/2000/svg"
	 xmlns="http://www.w3.org/2000/svg" xmlns:xlink="http://www.w3.org/1999/xlink" x="0px" y="0px" viewBox="0 0 61 61"
	 style="enable-background:new 0 0 61 61;" xml:space="preserve">
<style type="text/css">
	.st0{fill:#EBEBEB;}
	.st1{fill:#404040;}
	.st2{fill:#484848;}
</style>
<sodipodi:namedview  bordercolor="#666666" borderopacity="1" gridtolerance="10" guidetolerance="10" id="namedview16" inkscape:current-layer="svg2" inkscape:cx="30.5" inkscape:cy="30.5" inkscape:pageopacity="0" inkscape:pageshadow="2" inkscape:window-height="500" inkscape:window-maximized="0" inkscape:window-width="1109" inkscape:window-x="0" inkscape:window-y="0" inkscape:zoom="3.8688525" objecttolerance="10" pagecolor="#ffffff" showgrid="false">
	</sodipodi:namedview>
<g id="g4">
	<rect id="rect6" x="0.5" y="0.5" class="st0" width="60" height="60"/>
	<path id="path8" inkscape:connector-curvature="0" class="st1" d="M61,61H0V0h61V61z M1,1v59h59V1C60,1,1,1,1,1z"/>
</g>
<path class="st2" d="M13.8,33.9v5.8H10V22.9H16c4.2,0,6.4,1.8,6.4,5.4c0,1.7-0.6,3.1-1.8,4.1c-1.2,1-2.8,1.6-4.9,1.6H13.8z
	 M13.8,25.8V31h1.5c2,0,3-0.9,3-2.6c0-1.7-1-2.6-3-2.6H13.8z"/>
<path class="st2" d="M24,39.1v-3.8c0.7,0.6,1.4,1,2.2,1.3s1.6,0.4,2.4,0.4c0.5,0,0.9,0,1.2-0.1s0.7-0.2,0.9-0.4
	c0.2-0.2,0.4-0.3,0.5-0.5s0.2-0.4,0.2-0.7c0-0.3-0.1-0.6-0.3-0.9s-0.4-0.5-0.8-0.7s-0.7-0.4-1.2-0.6s-0.9-0.4-1.4-0.6
	c-1.3-0.5-2.3-1.2-2.9-2s-1-1.7-1-2.9c0-0.9,0.2-1.6,0.5-2.3s0.8-1.1,1.4-1.6s1.3-0.7,2.1-0.9s1.6-0.3,2.5-0.3
	c0.9,0,1.7,0.1,2.3,0.2s1.3,0.3,1.9,0.5v3.5c-0.3-0.2-0.6-0.4-0.9-0.5s-0.7-0.3-1-0.4s-0.7-0.2-1-0.2s-0.7-0.1-1-0.1
	c-0.4,0-0.8,0-1.2,0.1s-0.6,0.2-0.9,0.3s-0.4,0.3-0.6,0.5s-0.2,0.4-0.2,0.7c0,0.3,0.1,0.5,0.2,0.8s0.4,0.4,0.6,0.6s0.6,0.4,1,0.6
	s0.8,0.4,1.3,0.6c0.7,0.3,1.3,0.6,1.8,0.9s1,0.7,1.4,1.1c0.4,0.4,0.7,0.9,0.9,1.4s0.3,1.1,0.3,1.8c0,0.9-0.2,1.7-0.5,2.4
	s-0.8,1.2-1.4,1.5s-1.3,0.7-2.1,0.8c-0.8,0.2-1.7,0.3-2.6,0.3c-0.9,0-1.8-0.1-2.6-0.2S24.6,39.4,24,39.1z"/>
<path class="st2" d="M39,39.7V22.9h6c6,0,9,2.7,9,8.2c0,2.6-0.8,4.7-2.4,6.3s-3.8,2.3-6.5,2.3H39z M42.8,26v10.7h1.9
	c1.6,0,2.9-0.5,3.9-1.5s1.4-2.3,1.4-4c0-1.6-0.5-2.9-1.4-3.8S46.3,26,44.7,26H42.8z"/>
</svg>
