<?xml version="1.0" encoding="utf-8"?>
<!-- Generator: Adobe Illustrator 21.0.2, SVG Export Plug-In . SVG Version: 6.00 Build 0)  -->
<svg version="1.1"
	 id="svg2" inkscape:version="0.91 r13725" sodipodi:docname="refresh_over.svg" xmlns:cc="http://creativecommons.org/ns#" xmlns:dc="http://purl.org/dc/elements/1.1/" xmlns:inkscape="http://www.inkscape.org/namespaces/inkscape" xmlns:rdf="http://www.w3.org/1999/02/22-rdf-syntax-ns#" xmlns:sodipodi="http://sodipodi.sourceforge.net/DTD/sodipodi-0.dtd" xmlns:svg="http://www.w3.org/2000/svg"
	 xmlns="http://www.w3.org/2000/svg" xmlns:xlink="http://www.w3.org/1999/xlink" x="0px" y="0px" viewBox="0 0 17 17"
	 style="enable-background:new 0 0 17 17;" xml:space="preserve">
<style type="text/css">
	.st0{fill:#5EB35F;stroke:#303030;stroke-width:2;stroke-miterlimit:10;}
	.st1{fill:none;stroke:#303030;stroke-width:2;stroke-miterlimit:10;}
	.st2{fill:#303030;}
	.st3{fill:#2AEB2C;}
</style>
<path class="st0" d="M8.2,15.1C4.8,15.1,2,12.4,2,9s2.8-6.2,6.2-6.2C10,2.8,11.8,3.6,13,5l-0.8,0.6c-1-1.2-2.4-1.9-4-1.9
	C5.3,3.8,3,6.1,3,9c0,2.9,2.3,5.2,5.2,5.2c2,0,3.9-1.2,4.7-3.1l0.9,0.4C12.9,13.7,10.6,15.1,8.2,15.1z"/>
<g>
	<polygon class="st1" points="9.5,7.6 14.7,2.4 15,7.8 	"/>
	<polygon class="st2" points="9.5,7.6 14.7,2.4 15,7.8 	"/>
</g>
<path class="st3" d="M8.2,15.1C4.8,15.1,2,12.4,2,9s2.8-6.2,6.2-6.2C10,2.8,11.8,3.6,13,5l-0.8,0.6c-1-1.2-2.4-1.9-4-1.9
	C5.3,3.8,3,6.1,3,9c0,2.9,2.3,5.2,5.2,5.2c2,0,3.9-1.2,4.7-3.1l0.9,0.4C12.9,13.7,10.6,15.1,8.2,15.1z"/>
<g>
	<polygon class="st3" points="9.5,7.6 14.7,2.4 15,7.8 	"/>
</g>
</svg>
