<svg width="18px" height="18px" xmlns="http://www.w3.org/2000/svg" xmlns:xlink="http://www.w3.org/1999/xlink">
<g style="">  <path d="M2.748720,11.941246 C2.659072,11.928467,1.778092,9.871540,2.108719,7.867754 C2.647888,4.312026,7.356895,3.232413,7.356895,3.232413 L7.396644,0.641166 L12.648260,4.949745 L7.356982,9.241701 L7.358778,6.646542 C7.358778,6.646542,5.367055,6.450452,4.130166,8.235577 C3.397314,9.587107,2.888726,11.961204,2.748720,11.941246 Z " stroke-linejoin="round" stroke-linecap="round" style="fill: rgba(255, 255, 255, 1.000000); stroke-width: 1.000000px; stroke: rgba(0, 0, 0, 1.000000); " fill="#ffffff" stroke="#000000" stroke-width="1.000000" />
  <path d="M15.267721,6.124416 C15.357369,6.137196,16.238339,8.194126,15.907704,10.197911 C15.368520,13.753637,10.659508,14.833229,10.659508,14.833229 L10.619748,17.424476 L5.368150,13.115875 L10.659447,8.823942 L10.657640,11.419100 C10.657640,11.419100,12.649362,11.615199,13.886258,9.830080 C14.619117,8.478553,15.127715,6.104458,15.267721,6.124416 Z " stroke-linejoin="round" stroke-linecap="round" style="fill: rgba(255, 255, 255, 1.000000); stroke-width: 1.000000px; stroke: rgba(0, 0, 0, 1.000000); " fill="#ffffff" stroke="#000000" stroke-width="1.000000" />
</g></svg>