<svg width="18px" height="18px" xmlns="http://www.w3.org/2000/svg" xmlns:xlink="http://www.w3.org/1999/xlink">
<g style="">  <path d="M2.930520,11.361473 C2.930520,11.361473,1.492510,9.194163,1.522330,7.391803 C1.585400,3.580023,7.390860,3.179043,7.390860,3.179043 L7.399790,0.557123 L12.650100,4.867293 L7.718000,9.191923 L7.732460,6.009923 C7.732460,6.009923,5.717410,5.272893,4.131010,8.150543 C3.509070,9.278703,2.930530,11.361473,2.930530,11.361473 Z " stroke-linejoin="round" stroke-linecap="round" style="fill: rgba(218, 218, 218, 1.000000); stroke-width: 1.000000px; stroke: rgba(0, 0, 0, 1.000000); " fill="#e1e1e1" stroke="#000000" stroke-width="1.000000" />
  <path d="M15.094820,6.608900 C15.094820,6.608900,16.532830,8.776210,16.503010,10.578570 C16.439940,14.390350,10.634480,14.791340,10.634480,14.791340 L10.625550,17.413260 L5.375240,13.103090 L10.307350,8.778460 L10.292890,11.960460 C10.292890,11.960460,12.307940,12.697490,13.894340,9.819840 C14.516280,8.691670,15.094820,6.608910,15.094820,6.608910 Z " stroke-linejoin="round" stroke-linecap="round" style="fill: rgba(218, 218, 218, 1.000000); stroke-width: 1.000000px; stroke: rgba(0, 0, 0, 1.000000); " fill="#e1e1e1" stroke="#000000" stroke-width="1.000000" />
</g></svg>