<svg width="18px" height="18px" xmlns="http://www.w3.org/2000/svg" xmlns:xlink="http://www.w3.org/1999/xlink">
<g style="">  <path d="M2.748720,11.941250 C2.659070,11.928470,1.442850,9.309156,1.773480,7.305376 C2.312650,3.749646,7.369865,2.683498,7.369865,2.683498 L7.396650,0.641170 L12.648270,4.949749 L7.356990,9.241709 L7.401908,7.041332 C7.401908,7.041332,5.147997,6.005207,3.973318,7.938532 C3.676665,8.318767,2.888740,11.961209,2.748730,11.941249 Z " stroke-linejoin="round" stroke-linecap="round" style="fill: rgba(218, 218, 218, 1.000000); stroke-width: 1.000000px; stroke: rgba(0, 0, 0, 1.000000); " fill="#e1e1e1" stroke="#000000" stroke-width="1.000000" />
  <path d="M15.281711,6.128975 C15.371353,6.141811,16.585913,8.761895,16.254014,10.765465 C15.712592,14.320853,10.654704,15.383797,10.654704,15.383797 L10.626625,17.426109 L5.377735,13.114204 L10.671732,8.825596 L10.625421,11.025945 C10.625421,11.025945,12.878675,12.063497,14.054577,10.130916 C14.351471,9.750869,15.141703,6.108926,15.281701,6.128975 Z " stroke-linejoin="round" stroke-linecap="round" style="fill: rgba(209, 209, 209, 1.000000); stroke-width: 1.000000px; stroke: rgba(0, 0, 0, 1.000000); " fill="#dadada" stroke="#000000" stroke-width="1.000000" />
</g></svg>