<svg width="18px" height="18px" xmlns="http://www.w3.org/2000/svg" xmlns:xlink="http://www.w3.org/1999/xlink">
<g style="">  <path d="M2.930520,11.434420 C2.930520,11.434420,1.492510,9.267110,1.522330,7.464750 C1.585400,3.652970,7.390860,3.251990,7.390860,3.251990 L7.399790,0.630069 L12.650100,4.940240 L7.718000,9.264869 L7.732460,6.082870 C7.732460,6.082870,5.717410,5.345840,4.131010,8.223490 C3.509070,9.351650,2.930530,11.434420,2.930530,11.434420 Z " stroke-linejoin="round" style="fill: rgba(255, 255, 255, 1.000000); stroke-width: 1.000000px; stroke: rgba(0, 0, 0, 1.000000); " fill="#ffffff" stroke="#000000" stroke-width="1.000000" />
  <path d="M15.094820,6.608900 C15.094820,6.608900,16.532830,8.776210,16.503010,10.578570 C16.439940,14.390350,10.634480,14.791340,10.634480,14.791340 L10.625550,17.413260 L5.375240,13.103090 L10.307350,8.778460 L10.292890,11.960460 C10.292890,11.960460,12.307940,12.697490,13.894340,9.819840 C14.516280,8.691670,15.094820,6.608910,15.094820,6.608910 Z " stroke-linejoin="round" style="fill: rgba(255, 255, 255, 1.000000); stroke-width: 1.000000px; stroke: rgba(0, 0, 0, 1.000000); " fill="#ffffff" stroke="#000000" stroke-width="1.000000" />
</g></svg>