<?xml version="1.0" encoding="utf-8"?>
<!-- Generator: Adobe Illustrator 21.0.2, SVG Export Plug-In . SVG Version: 6.00 Build 0)  -->
<svg version="1.1"
	 id="svg2" inkscape:version="0.91 r13725" sodipodi:docname="round_join.svg" xmlns:cc="http://creativecommons.org/ns#" xmlns:dc="http://purl.org/dc/elements/1.1/" xmlns:inkscape="http://www.inkscape.org/namespaces/inkscape" xmlns:rdf="http://www.w3.org/1999/02/22-rdf-syntax-ns#" xmlns:sodipodi="http://sodipodi.sourceforge.net/DTD/sodipodi-0.dtd" xmlns:svg="http://www.w3.org/2000/svg"
	 xmlns="http://www.w3.org/2000/svg" xmlns:xlink="http://www.w3.org/1999/xlink" x="0px" y="0px" viewBox="0 0 16 16"
	 style="enable-background:new 0 0 16 16;" xml:space="preserve">
<style type="text/css">
	.st0{fill:none;}
	.st1{fill:#CCCCCC;}
	.st2{fill:#404040;}
</style>
<sodipodi:namedview  bordercolor="#666666" borderopacity="1" gridtolerance="10" guidetolerance="10" id="namedview11" inkscape:current-layer="svg2" inkscape:cx="7.4999998" inkscape:cy="7.4999998" inkscape:pageopacity="0" inkscape:pageshadow="2" inkscape:window-height="480" inkscape:window-maximized="0" inkscape:window-width="796" inkscape:window-x="0" inkscape:window-y="0" inkscape:zoom="15.733333" objecttolerance="10" pagecolor="#ffffff" showgrid="false">
	</sodipodi:namedview>
<g id="Layer1" transform="translate(0,1)">
	<rect id="rect5" y="0" class="st0" width="15" height="15"/>
	<path id="path7" inkscape:connector-curvature="0" class="st1" d="M13,3v7h-3v3H3V4l1-1H13z"/>
	<path id="path9" inkscape:connector-curvature="0" class="st2" d="M13,11h-2v2h-1v-3h3V11z M8,6h5v1H8v1H7v5H6V8H5V5h3V6z M3,13H2
		V6.5C2,6.3,2,6.2,2,6c0-0.3,0.1-0.7,0.2-1c0.2-0.6,0.6-1.2,1-1.7c0.5-0.4,1.1-0.8,1.8-1C5.3,2.1,5.7,2.1,6,2c0.2,0,0.3,0,0.5,0H13
		c0,0.3,0,0.7,0,1c-2.2,0-4.4,0-6.6,0C6.3,3,6.3,3,6.2,3c-0.3,0-0.7,0.1-1,0.2c-0.9,0.4-1.7,1.1-2,2.1C3.1,5.7,3,6.1,3,6.5V13z"/>
</g>
</svg>
