<?xml version="1.0" encoding="UTF-8" standalone="no"?>
<svg
   xmlns:dc="http://purl.org/dc/elements/1.1/"
   xmlns:cc="http://creativecommons.org/ns#"
   xmlns:rdf="http://www.w3.org/1999/02/22-rdf-syntax-ns#"
   xmlns:svg="http://www.w3.org/2000/svg"
   xmlns="http://www.w3.org/2000/svg"
   version="1.1"
   id="svg2"
   x="0px"
   y="0px"
   viewBox="0 0 17 17"
   style="enable-background:new 0 0 17 17;"
   xml:space="preserve"><metadata
     id="metadata25"><rdf:RDF><cc:Work
         rdf:about=""><dc:format>image/svg+xml</dc:format><dc:type
           rdf:resource="http://purl.org/dc/dcmitype/StillImage" /><dc:title></dc:title></cc:Work></rdf:RDF></metadata><defs
     id="defs23" /><style
     type="text/css"
     id="style2">
	.st0{fill:none;}
	.st1{fill:url(#path6_2_);stroke:#242424;stroke-linecap:square;stroke-miterlimit:1.4142;}
	.st2{fill:#A2A2A2;stroke:#242424;stroke-linecap:round;stroke-linejoin:round;stroke-miterlimit:2;}
	.st3{fill:none;stroke:#242424;stroke-width:2;stroke-linejoin:round;stroke-miterlimit:10;}
	.st4{fill:#E6E6E6;}
</style><path
     id="path855"
     d="m 2,3 v 12 h 3 9 v -6.9999997 -3 L 12,3 H 5 Z"
     style="clip-rule:evenodd;opacity:1;fill:#e6e6e6;fill-opacity:1;fill-rule:evenodd;stroke:#303030;stroke-width:2;stroke-linecap:round;stroke-linejoin:miter;stroke-miterlimit:4;stroke-dasharray:none;stroke-opacity:1;paint-order:normal" /><rect
     style="clip-rule:evenodd;opacity:1;fill:#303030;fill-opacity:1;fill-rule:evenodd;stroke:none;stroke-width:2;stroke-linecap:round;stroke-linejoin:miter;stroke-miterlimit:4;stroke-dasharray:none;stroke-opacity:1;paint-order:normal"
     id="rect852"
     width="6"
     height="5"
     x="5"
     y="2.9999995" /><path
     style="clip-rule:evenodd;opacity:1;fill:#ffffff;fill-opacity:1;fill-rule:evenodd;stroke:none;stroke-width:2;stroke-linecap:round;stroke-linejoin:round;stroke-miterlimit:4;stroke-dasharray:none;stroke-opacity:1;paint-order:normal"
     d="m 2,3 v 12 h 3 9 v -6.9999997 -3 L 12,3 H 11 V 8.0000003 H 5 V 3 Z M 6,3 V 6.0000003 H 8 V 3 Z"
     id="rect839" /><path
     d="M 15,6.3229996 4.9999999,12.737 6.2629999,14 15,9.9999995 Z"
     style="clip-rule:evenodd;fill:#303030;fill-opacity:0.34902003;fill-rule:evenodd;stroke-linejoin:round;stroke-miterlimit:1.41420996"
     id="path14" /><path
     d="m 7.3139999,9.3229995 -1.814,4.1769995 4.2270001,-2 z"
     style="clip-rule:evenodd;fill:#404040;fill-rule:evenodd;stroke-linejoin:round;stroke-miterlimit:1.41420996"
     id="path16" /><path
     d="m 7.3519999,9.3239995 0.065,0.004 0.032,0.004 0.032,0.005 0.032,0.006 0.032,0.007 0.032,0.008 0.031,0.009 0.031,0.01 0.03,0.011 0.03,0.012 0.03,0.013 0.029,0.014 0.029,0.015 0.028,0.016 0.056,0.034 0.052,0.038 0.026,0.021 0.048,0.042 0.024,0.023 1.414,1.4139995 0.023,0.024 0.042,0.048 0.021,0.026 0.038,0.052 0.034,0.056 0.016,0.028 0.015,0.029 0.014,0.029 0.013,0.03 0.012,0.03 0.011,0.03 0.01,0.031 0.009,0.031 0.008,0.032 0.007,0.032 0.006,0.032 0.005,0.032 0.004,0.032 0.004,0.065 0.001,0.032 v 0.033 l -0.002,0.032 -0.002,0.032 -0.004,0.033 -0.004,0.032 -0.006,0.032 -0.006,0.032 -0.008,0.031 -0.009,0.031 -0.009,0.031 -0.011,0.031 -0.012,0.03 -0.012,0.03 -0.014,0.03 -0.014,0.029 -0.016,0.028 -0.016,0.028 -0.018,0.028 -0.018,0.027 -0.019,0.026 -0.02,0.026 -0.02,0.025 -0.022,0.024 -0.022,0.024 -0.023,0.022 -0.024,0.023 -0.025,0.021 -0.025,0.02 -0.025,0.02 -0.027,0.019 -0.027,0.018 -0.028,0.017 -0.028,0.016 -0.028,0.015 -0.029,0.015 -2.677,1.262 -0.03,0.014 -0.03,0.012 -0.031,0.012 -0.031,0.01 -0.031,0.01 -0.032,0.008 -0.032,0.008 -0.032,0.006 -0.032,0.005 -0.032,0.005 -0.033,0.003 -0.033,0.002 -0.032,0.001 h -0.033 l -0.033,-0.001 -0.032,-0.002 -0.033,-0.004 -0.032,-0.004 -0.033,-0.005 -0.032,-0.007 -0.031,-0.007 -0.032,-0.009 -0.031,-0.009 -0.031,-0.011 -0.031,-0.011 -0.03,-0.013 -0.03,-0.013 -0.029,-0.015 -0.029,-0.015 -0.028,-0.016 -0.028,-0.018 -0.027,-0.018 -0.027,-0.019 -0.026,-0.02 -0.025,-0.021 -0.025,-0.021 -0.023,-0.022 -0.024,-0.024 -0.022,-0.023 -0.021,-0.025 -0.021,-0.025 -0.02,-0.026 -0.019,-0.027 -0.018,-0.027 -0.018,-0.028 -0.016,-0.028 -0.015,-0.029 -0.015,-0.029 -0.013,-0.03 -0.013,-0.03 -0.011,-0.031 -0.011,-0.031 -0.009,-0.031 -0.009,-0.032 -0.007,-0.031 -0.007,-0.032 -0.005,-0.033 -0.004,-0.032 -0.004,-0.033 -0.002,-0.032 -0.001,-0.033 v -0.033 l 0.001,-0.032 0.002,-0.033 0.003,-0.033 0.005,-0.032 0.005,-0.032 0.006,-0.032 0.008,-0.032 0.008,-0.032 0.01,-0.031 0.01,-0.031 0.012,-0.031 0.012,-0.03 0.014,-0.03 1.262,-2.6770005 0.015,-0.029 0.015,-0.028 0.016,-0.028 0.017,-0.028 0.018,-0.027 0.019,-0.027 0.02,-0.025 0.02,-0.025 0.021,-0.025 0.023,-0.024 0.022,-0.023 0.024,-0.022 0.024,-0.022 0.025,-0.02 0.026,-0.02 0.026,-0.019 0.027,-0.018 0.028,-0.018 0.028,-0.016 0.028,-0.016 0.029,-0.014 0.03,-0.014 0.03,-0.012 0.03,-0.012 0.031,-0.011 0.031,-0.009 0.031,-0.009 0.031,-0.008 0.032,-0.006 0.032,-0.006 0.032,-0.004 0.033,-0.004 0.032,-0.002 0.032,-0.002 h 0.033 z M 6.0509999,13 l 2.677,-1.263 -0.663,-0.663001 0.079,-0.166999 -0.167,0.079 -0.663,-0.663 z"
     style="clip-rule:evenodd;fill:#303030;fill-opacity:1;fill-rule:evenodd;stroke-linejoin:round;stroke-miterlimit:1.41420996"
     id="path18" /><rect
     transform="rotate(90)"
     style="fill:#303030;fill-opacity:1;stroke:none;stroke-width:2;stroke-linecap:round;stroke-linejoin:round;stroke-miterlimit:4;stroke-dasharray:none;stroke-opacity:1;paint-order:normal"
     id="rect821"
     width="1"
     height="6"
     x="10"
     y="-11" /><path
     d="m 14.536,3.1009996 -7.2220001,7.2219994 1.414,1.414 L 15.95,4.5149996 Z"
     style="clip-rule:evenodd;fill:#fdfdfd;fill-opacity:1;fill-rule:evenodd;stroke-linejoin:round;stroke-miterlimit:1.41420996"
     id="path20" /><rect
     y="10"
     x="3.9999998"
     height="5"
     width="1"
     id="rect819"
     style="fill:#303030;fill-opacity:1;stroke:none;stroke-width:2;stroke-linecap:round;stroke-linejoin:round;stroke-miterlimit:4;stroke-dasharray:none;stroke-opacity:1;paint-order:normal" /><rect
     y="-15"
     x="-12"
     height="5"
     width="1"
     id="rect823"
     style="fill:#303030;fill-opacity:1;stroke:none;stroke-width:2;stroke-linecap:round;stroke-linejoin:round;stroke-miterlimit:4;stroke-dasharray:none;stroke-opacity:1;paint-order:normal"
     transform="scale(-1)" /><path
     d="m 14.623,2.1039996 0.058,0.007 0.057,0.01 0.057,0.014 0.056,0.016 0.054,0.02 0.054,0.023 0.051,0.026 0.05,0.029 0.049,0.032 0.047,0.035 0.044,0.037 0.043,0.04 1.415,1.415 0.04,0.042 0.037,0.044 0.035,0.047 0.032,0.049 0.029,0.05 0.026,0.052 0.023,0.054 0.02,0.054 0.015,0.056 0.014,0.057 0.011,0.057 0.007,0.058 0.003,0.058 v 0.058 l -0.003,0.058 -0.008,0.058 -0.01,0.057 -0.014,0.057 -0.015,0.055 -0.02,0.055 -0.023,0.053 -0.026,0.052 -0.029,0.051 -0.032,0.048 -0.035,0.047 -0.037,0.045 -0.04,0.042 -7.2230001,7.2219994 -0.042,0.04 -0.045,0.038 -0.047,0.034 -0.048,0.032 -0.05,0.03 -0.052,0.026 -0.054,0.023 -0.055,0.02 -0.055,0.016 -0.057,0.014 -0.057,0.01 -0.058,0.007 -0.058,0.003 h -0.058 l -0.058,-0.003 -0.058,-0.007 -0.057,-0.01 -0.057,-0.014 -0.056,-0.016 -0.054,-0.02 -0.054,-0.023 -0.052,-0.026 -0.05,-0.03 -0.049,-0.032 -0.046,-0.034 -0.045,-0.038 -0.042,-0.04 -1.414,-1.414 -0.04,-0.042 -0.038,-0.045 -0.034,-0.046 -0.032,-0.049 -0.03,-0.05 -0.026,-0.052 -0.023,-0.054 -0.02,-0.054 -0.016,-0.056 -0.014,-0.057 -0.01,-0.057 -0.007,-0.058 -0.003,-0.058 v -0.058 l 0.003,-0.058 0.007,-0.058 0.01,-0.057 0.014,-0.057 0.016,-0.055 0.02,-0.054999 0.023,-0.054 0.026,-0.052 0.03,-0.05 0.032,-0.048 0.034,-0.047 0.038,-0.045 0.04,-0.042 7.2220001,-7.2229999 0.042,-0.04 0.045,-0.037 0.047,-0.035 0.048,-0.032 0.051,-0.029 0.052,-0.026 0.053,-0.023 0.055,-0.02 0.055,-0.016 0.057,-0.014 0.057,-0.01 0.058,-0.007 0.058,-0.003 h 0.058 l 0.057,0.003 z m -7.3090001,8.2189994 1.414,1.414 L 15.95,4.5149996 l -1.414,-1.414 z"
     style="clip-rule:evenodd;fill:#303030;fill-opacity:1;fill-rule:evenodd;stroke-linejoin:round;stroke-miterlimit:1.41420996"
     id="path22" /></svg>