<?xml version="1.0" encoding="utf-8"?>
<!-- Generator: Adobe Illustrator 21.0.2, SVG Export Plug-In . SVG Version: 6.00 Build 0)  -->
<svg version="1.1"
	 id="レイヤー_1" inkscape:version="0.91 r13725" sodipodi:docname="save_off.svg" xmlns:cc="http://creativecommons.org/ns#" xmlns:dc="http://purl.org/dc/elements/1.1/" xmlns:inkscape="http://www.inkscape.org/namespaces/inkscape" xmlns:rdf="http://www.w3.org/1999/02/22-rdf-syntax-ns#" xmlns:sodipodi="http://sodipodi.sourceforge.net/DTD/sodipodi-0.dtd" xmlns:svg="http://www.w3.org/2000/svg"
	 xmlns="http://www.w3.org/2000/svg" xmlns:xlink="http://www.w3.org/1999/xlink" x="0px" y="0px" viewBox="0 0 17 17"
	 style="enable-background:new 0 0 17 17;" xml:space="preserve">
<style type="text/css">
	.st0{fill:#FFFFFF;}
	.st1{fill:#242424;}
	.st2{fill:#C8C8C8;}
	.st3{fill:#E6E6E6;}
	.st4{display:none;}
</style>
<sodipodi:namedview  bordercolor="#666666" borderopacity="1" gridtolerance="10" guidetolerance="10" id="namedview18" inkscape:current-layer="レイヤー_1" inkscape:cx="10.5" inkscape:cy="8.5" inkscape:pageopacity="0" inkscape:pageshadow="2" inkscape:window-height="480" inkscape:window-maximized="0" inkscape:window-width="796" inkscape:window-x="187" inkscape:window-y="204" inkscape:zoom="13.882353" objecttolerance="10" pagecolor="#ffffff" showgrid="false">
	</sodipodi:namedview>
<path id="path6" inkscape:connector-curvature="0" class="st0" d="M1.5,5.4h4.2l0.2,1.8h5l0.8,7.2H2.4L1.5,5.4
	C1.5,5.4,1.5,5.4,1.5,5.4z"/>
<path id="path8" inkscape:connector-curvature="0" class="st1" d="M6.1,7h6l0.9,8H2L0.9,5h5L6.1,7z M2,6l0.9,8h9l-0.7-6h-6L5,6H2
	L2,6z"/>
<path id="path10" inkscape:connector-curvature="0" class="st2" d="M15,7.6H6l-2.2,6.9h9.6L15,7.6C15,7.6,15,7.6,15,7.6z"/>
<path id="path12" inkscape:connector-curvature="0" class="st1" d="M13.5,15H3l2.5-8h9.9L13.5,15z M6.2,8l-1.9,6h8.4l1.5-6
	C14.2,8,6.2,8,6.2,8z"/>
<path id="path11" inkscape:connector-curvature="0" class="st1" d="M11,8h-1C9.7,8,9.5,7.9,9.3,7.7l-2-2C7.1,5.5,7,5.3,7,5V4
	c0-0.6,0.4-1,1-1h1V1c0-0.6,0.4-1,1-1h1c0.6,0,1,0.4,1,1v2h1c0.6,0,1,0.4,1,1v1c0,0.3-0.1,0.5-0.3,0.7l-2,2C11.5,7.9,11.3,8,11,8z"
	/>
<path id="path14" inkscape:connector-curvature="0" class="st3" d="M13,4h-2V1h-1v3H8v1l2,2h1l0.5-0.5L12,6l1-1l0,0V4z"/>
<g id="レイヤー_2" class="st4">
</g>
</svg>
