<?xml version="1.0" encoding="utf-8"?>
<!-- Generator: Adobe Illustrator 21.0.2, SVG Export Plug-In . SVG Version: 6.00 Build 0)  -->
<svg version="1.1" id="レイヤー_1" xmlns="http://www.w3.org/2000/svg" xmlns:xlink="http://www.w3.org/1999/xlink" x="0px"
	 y="0px" width="24px" height="24px" viewBox="0 0 24 24" style="enable-background:new 0 0 24 24;" xml:space="preserve">
<style type="text/css">
	.st0{fill:#FFFFFF;stroke:#000000;stroke-miterlimit:10;}
	.st1{fill:none;stroke:#000000;stroke-width:3;stroke-linecap:round;stroke-miterlimit:10;}
	.st2{fill:none;stroke:#FFFFFF;stroke-linecap:round;stroke-miterlimit:10;}
	.st3{fill:none;stroke:#000000;stroke-linecap:round;stroke-miterlimit:10;}
	.st4{display:none;fill:none;stroke:#000000;stroke-width:3;stroke-linecap:round;stroke-miterlimit:10;}
	.st5{display:none;fill:none;stroke:#000000;stroke-width:2;stroke-linejoin:round;stroke-miterlimit:10;}
	.st6{display:none;fill:#FFFFFF;}
	.st7{display:none;fill:none;stroke:#FFFFFF;stroke-linecap:round;stroke-miterlimit:10;}
	.st8{fill:none;stroke:#000000;stroke-width:2;stroke-linejoin:round;stroke-miterlimit:10;}
	.st9{fill:#FFFFFF;}
</style>
<path class="st0" d="M12.5,7c0-3-2.5-5.5-5.5-5.5S1.5,4,1.5,7c0,3.5,3.6,4.5,3.6,7.5c0,1.5,0.9,2,1.9,2c1.1,0,1.9-0.5,1.9-2
	C8.9,11.5,12.5,10.5,12.5,7z"/>
<g>
	<line class="st1" x1="4.5" y1="13.5" x2="9.5" y2="13.5"/>
	<line class="st2" x1="4.5" y1="13.5" x2="9.5" y2="13.5"/>
</g>
<rect x="5.5" y="7.5" class="st3" width="3" height="5"/>
<line class="st4" x1="13.5" y1="10.5" x2="13.5" y2="18.5"/>
<line class="st4" x1="10.5" y1="15.5" x2="16.5" y2="15.5"/>
<polygon class="st5" points="16.8,13.5 16.8,17.5 19.3,15.5 "/>
<polygon class="st5" points="11.5,11 15.5,11 13.5,8.5 "/>
<polygon class="st6" points="16.8,13.5 16.8,17.5 19.3,15.5 "/>
<polygon class="st6" points="11.5,11 15.5,11 13.5,8.5 "/>
<line class="st7" x1="13.5" y1="10.5" x2="13.5" y2="18.5"/>
<line class="st7" x1="10.5" y1="15.5" x2="17.5" y2="15.5"/>
<g>
	<polygon class="st8" points="13.7,9 16.1,9 15.5,12.6 	"/>
	<polygon class="st9" points="13.7,9 16.1,9 15.5,12.6 	"/>
</g>
<g>
	<polygon class="st8" points="17.3,22 14.9,22 15.5,18.5 	"/>
	<polygon class="st9" points="17.3,22 14.9,22 15.5,18.5 	"/>
</g>
<g>
	<polygon class="st8" points="20.2,10.7 21.4,12.8 18.1,14 	"/>
	<polygon class="st9" points="20.2,10.7 21.4,12.8 18.1,14 	"/>
</g>
<g>
	<polygon class="st8" points="10.8,20.3 9.6,18.2 13,17 	"/>
	<polygon class="st9" points="10.8,20.3 9.6,18.2 13,17 	"/>
</g>
<g>
	<polygon class="st8" points="9,13.8 10.2,11.8 13,14 	"/>
	<polygon class="st9" points="9,13.8 10.2,11.8 13,14 	"/>
</g>
<g>
	<polygon class="st8" points="22,17.2 20.8,19.3 18.1,17 	"/>
	<polygon class="st9" points="22,17.2 20.8,19.3 18.1,17 	"/>
</g>
</svg>
