<?xml version="1.0" encoding="utf-8"?>
<!-- Generator: Adobe Illustrator 21.0.2, SVG Export Plug-In . SVG Version: 6.00 Build 0)  -->
<svg version="1.1"
	 id="svg2" inkscape:version="0.91 r13725" sodipodi:docname="snapshot_over.svg" xmlns:cc="http://creativecommons.org/ns#" xmlns:dc="http://purl.org/dc/elements/1.1/" xmlns:inkscape="http://www.inkscape.org/namespaces/inkscape" xmlns:rdf="http://www.w3.org/1999/02/22-rdf-syntax-ns#" xmlns:sodipodi="http://sodipodi.sourceforge.net/DTD/sodipodi-0.dtd" xmlns:svg="http://www.w3.org/2000/svg"
	 xmlns="http://www.w3.org/2000/svg" xmlns:xlink="http://www.w3.org/1999/xlink" x="0px" y="0px" viewBox="0 0 17 17"
	 style="enable-background:new 0 0 17 17;" xml:space="preserve">
<style type="text/css">
	.st0{fill:none;stroke:#404040;stroke-width:2;stroke-linejoin:round;stroke-miterlimit:1.4142;}
	.st1{fill:#FFDC00;}
	.st2{fill:#404040;}
</style>
<sodipodi:namedview  bordercolor="#666666" borderopacity="1" gridtolerance="10" guidetolerance="10" id="namedview12" inkscape:current-layer="svg2" inkscape:cx="10.5" inkscape:cy="8.5" inkscape:pageopacity="0" inkscape:pageshadow="2" inkscape:window-height="480" inkscape:window-maximized="0" inkscape:window-width="796" inkscape:window-x="0" inkscape:window-y="0" inkscape:zoom="13.882353" objecttolerance="10" pagecolor="#ffffff" showgrid="false">
	</sodipodi:namedview>
<path id="path6" inkscape:connector-curvature="0" class="st0" d="M10.6,4l0.8,1.6h1.4c0.6,0,1.1,0.5,1.1,1.1v5.2
	c0,0.6-0.5,1.1-1.1,1.1H4.1C3.5,13,3,12.5,3,11.9V6.7c0-0.6,0.5-1.1,1.1-1.1h1.4L6.4,4H10.6z"/>
<path id="path8" inkscape:connector-curvature="0" class="st1" d="M10.6,4l0.8,1.6h1.4c0.6,0,1.1,0.5,1.1,1.1v5.2
	c0,0.6-0.5,1.1-1.1,1.1H4.1C3.5,13,3,12.5,3,11.9V6.7c0-0.6,0.5-1.1,1.1-1.1h1.4L6.4,4H10.6z"/>
<circle id="circle10" class="st2" cx="8.5" cy="9" r="2"/>
</svg>
