<?xml version="1.0" encoding="UTF-8" standalone="no"?>
<svg
   xmlns:dc="http://purl.org/dc/elements/1.1/"
   xmlns:cc="http://creativecommons.org/ns#"
   xmlns:rdf="http://www.w3.org/1999/02/22-rdf-syntax-ns#"
   xmlns:svg="http://www.w3.org/2000/svg"
   xmlns="http://www.w3.org/2000/svg"
   xml:space="preserve"
   style="enable-background:new 0 0 17 17;"
   viewBox="0 0 17 17"
   y="0px"
   x="0px"
   id="svg2"
   version="1.1"><metadata
     id="metadata11"><rdf:RDF><cc:Work
         rdf:about=""><dc:format>image/svg+xml</dc:format><dc:type
           rdf:resource="http://purl.org/dc/dcmitype/StillImage" /><dc:title></dc:title></cc:Work></rdf:RDF></metadata><defs
     id="defs9" /><style
     id="style2"
     type="text/css">
	.st0{fill:none;stroke:#404040;stroke-width:2;stroke-linejoin:round;stroke-miterlimit:1.4142;}
	.st1{fill:#E6E6E6;}
	.st2{fill:#404040;}
</style><path
     id="path820"
     class="st1"
     d="m 11,4 1,2 h 2 c 0.6,0 1,0.4 1,1 v 6 c 0,0.6 -0.4,1 -1,1 H 3 C 2.4,14 2,13.6 2,13 V 7 C 2,6.4 2.4001825,6.0147992 3,6 H 5 L 6,4 Z"
     style="fill:#e6e6e6;stroke:#303030;stroke-opacity:1;stroke-width:2;stroke-miterlimit:4;stroke-dasharray:none" /><path
     style="fill:#fbfbfb;fill-opacity:1"
     d="m 11,4 1,2 h 2 c 0.6,0 1,0.4 1,1 v 6 c 0,0.6 -0.4,1 -1,1 H 3 C 2.4,14 2,13.6 2,13 V 7 C 2,6.4 2.4001825,6.0147992 3,6 H 5 L 6,4 Z"
     class="st1"
     id="path8" /><circle
     style="fill:#303030;stroke-width:1;fill-opacity:1"
     r="2.5"
     cy="9.5"
     cx="8.5"
     class="st2"
     id="circle10" /></svg>