<?xml version="1.0" encoding="utf-8"?>
<!-- Generator: Adobe Illustrator 21.0.2, SVG Export Plug-In . SVG Version: 6.00 Build 0)  -->
<svg version="1.1"
	 id="svg2" inkscape:version="0.91 r13725" sodipodi:docname="sound.svg" xmlns:cc="http://creativecommons.org/ns#" xmlns:dc="http://purl.org/dc/elements/1.1/" xmlns:inkscape="http://www.inkscape.org/namespaces/inkscape" xmlns:rdf="http://www.w3.org/1999/02/22-rdf-syntax-ns#" xmlns:sodipodi="http://sodipodi.sourceforge.net/DTD/sodipodi-0.dtd" xmlns:svg="http://www.w3.org/2000/svg"
	 xmlns="http://www.w3.org/2000/svg" xmlns:xlink="http://www.w3.org/1999/xlink" x="0px" y="0px" viewBox="0 0 17 17"
	 style="enable-background:new 0 0 17 17;" xml:space="preserve">
<style type="text/css">
	.st0{fill:#FFFFFF;}
	.st1{fill:#404040;}
</style>
<sodipodi:namedview  bordercolor="#666666" borderopacity="1" gridtolerance="10" guidetolerance="10" id="namedview16" inkscape:current-layer="svg2" inkscape:cx="10.5" inkscape:cy="8.5" inkscape:pageopacity="0" inkscape:pageshadow="2" inkscape:window-height="480" inkscape:window-maximized="0" inkscape:window-width="796" inkscape:window-x="0" inkscape:window-y="0" inkscape:zoom="13.882353" objecttolerance="10" pagecolor="#ffffff" showgrid="false">
	</sodipodi:namedview>
<g>
	<rect id="rect6_1_" x="2" y="2" class="st0" width="13" height="13"/>
	<path class="st0" d="M15,16H2c-0.6,0-1-0.5-1-1V2c0-0.6,0.5-1,1-1h13c0.6,0,1,0.5,1,1v13C16,15.6,15.6,16,15,16z M2.5,14.5h12v-12
		h-12l0,0V14.5z"/>
	<circle id="circle10" class="st1" cx="6" cy="11" r="2"/>
	<circle id="circle12" class="st1" cx="11" cy="11" r="2"/>
	<path id="path14" inkscape:connector-curvature="0" class="st1" d="M13,4H6.5c0,0-0.1,0.1-0.3,0.3C6,4.5,5.9,4.7,5.9,5
		c0,0.3,0.1,0.5,0.3,0.7C6.4,5.9,6.5,6,6.5,6L7,6v4l1,1l0-4h4v3l1,1V7V4z"/>
</g>
</svg>
