<?xml version="1.0" encoding="utf-8"?>
<!-- Generator: Adobe Illustrator 21.0.2, SVG Export Plug-In . SVG Version: 6.00 Build 0)  -->
<svg version="1.1"
	 id="svg2" inkscape:version="0.91 r13725" sodipodi:docname="sound_header_on.svg" xmlns:cc="http://creativecommons.org/ns#" xmlns:dc="http://purl.org/dc/elements/1.1/" xmlns:inkscape="http://www.inkscape.org/namespaces/inkscape" xmlns:rdf="http://www.w3.org/1999/02/22-rdf-syntax-ns#" xmlns:sodipodi="http://sodipodi.sourceforge.net/DTD/sodipodi-0.dtd" xmlns:svg="http://www.w3.org/2000/svg"
	 xmlns="http://www.w3.org/2000/svg" xmlns:xlink="http://www.w3.org/1999/xlink" x="0px" y="0px" viewBox="0 0 40 30"
	 style="enable-background:new 0 0 40 30;" xml:space="preserve">
<style type="text/css">
	.st0{fill:none;stroke:#303030;stroke-width:2;stroke-linecap:round;stroke-linejoin:round;stroke-miterlimit:1.4142;}
	.st1{fill:#E6E6E6;}
	.st2{fill:none;}
</style>
<sodipodi:namedview  bordercolor="#666666" borderopacity="1" gridtolerance="10" guidetolerance="10" id="namedview8" inkscape:current-layer="svg2" inkscape:cx="20" inkscape:cy="15" inkscape:pageopacity="0" inkscape:pageshadow="2" inkscape:window-height="500" inkscape:window-maximized="0" inkscape:window-width="1109" inkscape:window-x="0" inkscape:window-y="0" inkscape:zoom="7.8666667" objecttolerance="10" pagecolor="#ffffff" showgrid="false">
	</sodipodi:namedview>
<path id="path4" inkscape:connector-curvature="0" class="st0" d="M8,10v9h5l8,7V3l-8,7H8 M29.7,14.5C29.7,12,28.1,9,26,8v13
	C28.1,20,29.7,17,29.7,14.5 M36,14.5c0-6-4.4-11.2-10-12.5v3c4,1.2,7.2,5.1,7.2,9.5S30,22.8,26,24v3C31.6,25.7,36,20.5,36,14.5"/>
<path id="path4_1_" inkscape:connector-curvature="0" class="st1" d="M8,10v9h5l8,7V3l-8,7H8 M29.7,14.5C29.7,12,28.1,9,26,8v13
	C28.1,20,29.7,17,29.7,14.5 M36,14.5c0-6-4.4-11.2-10-12.5v3c4,1.2,7.2,5.1,7.2,9.5S30,22.8,26,24v3C31.6,25.7,36,20.5,36,14.5"/>
<rect id="rect6" y="0" class="st2" width="40" height="30"/>
</svg>
