<?xml version="1.0" encoding="utf-8"?>
<!-- Generator: Adobe Illustrator 10.0, SVG Export Plug-In . SVG Version: 3.0.0 Build 76)  -->
<!DOCTYPE svg PUBLIC "-//W3C//DTD SVG 1.0//EN"    "http://www.w3.org/TR/2001/REC-SVG-20010904/DTD/svg10.dtd" [
	<!ENTITY ns_flows "http://ns.adobe.com/Flows/1.0/">
	<!ENTITY ns_extend "http://ns.adobe.com/Extensibility/1.0/">
	<!ENTITY ns_ai "http://ns.adobe.com/AdobeIllustrator/10.0/">
	<!ENTITY ns_graphs "http://ns.adobe.com/Graphs/1.0/">
	<!ENTITY ns_vars "http://ns.adobe.com/Variables/1.0/">
	<!ENTITY ns_imrep "http://ns.adobe.com/ImageReplacement/1.0/">
	<!ENTITY ns_sfw "http://ns.adobe.com/SaveForWeb/1.0/">
	<!ENTITY ns_custom "http://ns.adobe.com/GenericCustomNamespace/1.0/">
	<!ENTITY ns_adobe_xpath "http://ns.adobe.com/XPath/1.0/">
	<!ENTITY ns_svg "http://www.w3.org/2000/svg">
	<!ENTITY ns_xlink "http://www.w3.org/1999/xlink">
]>
<svg 
	 xmlns:x="&ns_extend;" xmlns:i="&ns_ai;" xmlns:graph="&ns_graphs;" i:viewOrigin="382.5684 308.4688" i:rulerOrigin="0 0" i:pageBounds="0 600 800 0"
	 xmlns="&ns_svg;" xmlns:xlink="&ns_xlink;" xmlns:a="http://ns.adobe.com/AdobeSVGViewerExtensions/3.0/" width="37" height="19"
	 viewBox="0 0 37 19" overflow="visible" enable-background="new 0 0 37 19" xml:space="preserve">
	<metadata>
		<variableSets  xmlns="&ns_vars;">
			<variableSet  varSetName="binding1" locked="none">
				<variables></variables>
				<v:sampleDataSets  xmlns="&ns_custom;" xmlns:v="&ns_vars;"></v:sampleDataSets>
			</variableSet>
		</variableSets>
		<sfw  xmlns="&ns_sfw;">
			<slices></slices>
			<sliceSourceBounds  y="289.469" x="382.568" width="37" height="19" bottomLeftOrigin="true"></sliceSourceBounds>
		</sfw>
	</metadata>
	<g id="Layer_1" i:layer="yes" i:dimmedPercent="50" i:rgbTrio="#4F008000FFFF">
		<path i:knockout="Off" fill="none" d="M37,19H0V0h37V19z"/>
		<path i:knockout="Off" fill="#E3FFBB" stroke="#000000" stroke-linecap="round" stroke-linejoin="round" d="M15.388,11.771
			l-2.873,1.411"/>
		<path i:knockout="Off" fill="#E3FFBB" stroke="#000000" stroke-linecap="round" stroke-linejoin="round" d="M11.647,10.666
			l3.557-1.497"/>
		<g i:knockout="Off">
			<g>
				<path i:knockout="Off" d="M34.839,15.986c-3.586,2.221-8.415-0.852-10.475-2.501c-0.778-0.585-1.305-1.094-1.712-1.469
					c-0.325-0.33,0.453,0.396,1.712,1.469c0.567,0.472,1.304,0.954,2.183,1.518c-1.026-0.843-1.894-1.715-2.48-2.375l-1.496-1.219
					c-2.156-1.895-4.292-3.671-6.418-5.602c-0.794-0.774-2.987-1.747-4.069-1.909c4.631,0.885,7.092,4.825,10.454,7.149
					l-0.233-0.246l-4.933-4.388l-0.86-0.762l0.86,0.762c0.755,0.632,1.53,1.195,2.365,1.869l1.508,1.394
					c0.397,0.354,0.713,0.746,1.06,1.125l0.733,0.65l0.254,0.166l-0.006-0.014c-0.442-0.834-6.033-6.631-7.749-7.467
					c-1.178-0.563-2.392-0.548-3.74-0.696c-0.463-0.005-0.858-0.119-1.214-0.041c-0.032,0.052-0.21,0.125-0.383,0.191
					C9.305,3.696,8.28,3.807,7.727,4.35c-0.429,0.167-2.096,0.684-2.046,1c0.265,0.759,0.017,0.171-0.726,1.32
					C4.899,6.816,5.02,7.378,4.923,7.653C4.539,8.599,4.596,8.948,4.75,10.021c0.188,1.582-0.003,2.006,0.736,3.274
					c-0.052,0.217,1.4,2.034,1.473,1.953c1.261,1.361,2.509,1.281,3.811,1.74c1.503-0.427,3.647-0.509,4.859-2.231
					c0.79-1.757,0.841-2.608,0.506-4.27c-0.21-0.448-0.423-0.75-0.52-1.044c-0.188-0.278-0.799-0.688-1.309-0.975l0.226-0.079
					c-0.176-0.112-0.549-0.319-0.744-0.412c-0.192-0.093-0.128-0.128-0.06-0.164c0.135-0.067,0.29-0.141-0.071-0.364
					c-0.869-0.293-1.751-0.354-2.555-0.24c-0.618,0.253-1.601,0.572-2.347,1.543C8.77,8.854,8.779,8.961,8.733,9.111
					c-0.148,0.25-0.182,0.429-0.27,0.644c0.083,0.197,0.27,0.254,0.341,0.36c0.437,0.229,0.521,1.033,0.976,1.146
					c0.147,0.033,0.672-0.885,0.979-0.763c0.079,0.017,0.113,0.226,0.228,0.349c0.104-0.144,0.259,0.064,0.281,0.189l0.072,0.014
					c0.021,0.055,0.104,0.199,0.105,0.198c0.682-0.007,1.291,0.34,1.257,0.355c0.1-0.014,0.301,0.143,0.473,0.241
					c0.104,0.039,0.072,0.263,0.066,0.336c0.186,0.063,0.362-0.008,0.548-0.001c0.058,0.89-0.487,1.167-0.045,1.543
					c-0.274,0.276-0.222,0.595-0.804,0.907c-0.788,0.423-2.004,0.748-3.062,0.548c-0.594-0.052-1.098-0.325-1.516-0.681
					c-0.184-0.103-0.3-0.28-0.425-0.431c-2.396-3.843-0.996-9.24,3.824-8.741c4.813,0.432,8.543,5.814,12.18,8.288
					c3.681,3.126,7.578,3.931,9.563,3.553C33.792,17.101,34.521,16.58,34.839,15.986z"/>
			</g>
		</g>
		<g i:knockout="Off">
			<g>
				<path i:knockout="Off" fill="#FFC000" d="M33.839,15.986c-3.586,2.221-8.415-0.852-10.475-2.501
					c-0.778-0.585-1.305-1.094-1.712-1.469c-0.325-0.33,0.453,0.396,1.712,1.469c0.567,0.472,1.304,0.954,2.183,1.518
					c-1.026-0.843-1.894-1.715-2.48-2.375l-1.496-1.219c-2.156-1.895-4.292-3.672-6.418-5.602c-0.794-0.774-2.987-1.748-4.069-1.909
					c4.631,0.885,7.092,4.825,10.454,7.149l-0.233-0.246l-4.933-4.388l-0.86-0.763l0.86,0.763c0.755,0.632,1.53,1.195,2.365,1.868
					l1.508,1.395c0.397,0.354,0.713,0.746,1.06,1.125l0.733,0.65l0.254,0.166l-0.006-0.014c-0.442-0.834-6.033-6.631-7.749-7.467
					c-1.178-0.563-2.392-0.549-3.74-0.696C10.333,3.437,9.938,3.322,9.582,3.4c-0.032,0.052-0.21,0.126-0.383,0.19
					C8.305,3.696,7.28,3.808,6.727,4.351c-0.429,0.167-2.096,0.684-2.046,1c0.265,0.758,0.017,0.171-0.726,1.32
					C3.899,6.816,4.02,7.378,3.923,7.653C3.539,8.599,3.596,8.948,3.75,10.021c0.188,1.582-0.003,2.006,0.736,3.274
					c-0.052,0.217,1.4,2.034,1.473,1.953c1.261,1.361,2.509,1.281,3.811,1.74c1.503-0.427,3.647-0.509,4.859-2.231
					c0.79-1.757,0.841-2.608,0.506-4.27c-0.21-0.448-0.423-0.75-0.52-1.044c-0.188-0.278-0.799-0.688-1.309-0.975l0.226-0.079
					c-0.176-0.111-0.549-0.319-0.744-0.412c-0.192-0.093-0.128-0.128-0.06-0.164c0.135-0.066,0.29-0.141-0.071-0.363
					c-0.869-0.293-1.751-0.354-2.555-0.24C9.484,7.463,8.502,7.782,7.756,8.753C7.77,8.854,7.779,8.961,7.733,9.111
					c-0.148,0.25-0.182,0.429-0.27,0.644c0.083,0.197,0.27,0.254,0.341,0.36c0.437,0.229,0.521,1.033,0.976,1.146
					c0.147,0.033,0.672-0.885,0.979-0.763c0.079,0.017,0.113,0.226,0.228,0.349c0.104-0.144,0.259,0.064,0.281,0.189l0.072,0.014
					c0.021,0.055,0.104,0.199,0.105,0.198c0.682-0.007,1.291,0.34,1.257,0.355c0.1-0.014,0.301,0.143,0.473,0.241
					c0.104,0.039,0.072,0.263,0.066,0.336c0.186,0.063,0.362-0.008,0.548-0.001c0.058,0.89-0.487,1.167-0.045,1.543
					c-0.274,0.276-0.222,0.595-0.804,0.907c-0.788,0.423-2.004,0.748-3.062,0.548c-0.594-0.052-1.098-0.325-1.516-0.681
					c-0.184-0.103-0.3-0.28-0.425-0.431c-2.396-3.843-0.996-9.239,3.824-8.741c4.813,0.432,8.543,5.814,12.18,8.288
					c3.681,3.126,7.578,3.931,9.563,3.553C32.792,17.101,33.521,16.58,33.839,15.986z"/>
			</g>
		</g>
		<path i:knockout="Off" fill="#E3FFBB" stroke="#000000" stroke-linecap="round" stroke-linejoin="round" d="M12.515,13.182
			l-7.563,3.713l-1.308-2.859l8.003-3.369"/>
		<path i:knockout="Off" fill="#E3FFBB" stroke="#000000" stroke-linecap="round" stroke-linejoin="round" d="M15.204,9.169
			l9.981-4.202l0.742,1.628l-10.54,5.176"/>
		<path i:knockout="Off" fill="#E69A00" stroke="#000000" stroke-width="1.15" d="M4.986,16.295l-0.941-2.041l5.879-2.44
			l0.749,1.625L4.986,16.295z"/>
		<path i:knockout="Off" fill="#869AC7" d="M4.986,16.295l-0.941-2.041l5.879-2.44l0.749,1.625L4.986,16.295z"/>
		<path i:knockout="Off" fill="none" stroke="#000000" stroke-width="0.5" stroke-linecap="round" stroke-linejoin="round" d="
			M25.636,9.286c0.012,0.216-0.1,1.186-0.076,1.445"/>
		<path i:knockout="Off" fill="none" stroke="#000000" stroke-width="0.5" stroke-linecap="round" stroke-linejoin="round" d="
			M28.507,7.19c0.352,0.127,1.087,0.702,1.338,0.901"/>
		<path i:knockout="Off" fill="none" stroke="#000000" stroke-width="0.5" stroke-linecap="round" stroke-linejoin="round" d="
			M28.627,3.763c0.229-0.119,1.061-0.341,1.291-0.506"/>
		<path i:knockout="Off" fill="none" stroke="#000000" stroke-width="0.5" stroke-linecap="round" stroke-linejoin="round" d="
			M25.17,2.443c0.068-0.354-0.019-1.101,0.098-1.451"/>
		<path i:knockout="Off" fill="none" stroke="#000000" stroke-width="0.5" stroke-linecap="round" stroke-linejoin="round" d="
			M22.896,3.722c-0.325-0.161-0.916-0.736-1.239-0.898"/>
	</g>
</svg>
