<?xml version="1.0" encoding="utf-8"?>
<!-- Generator: Adobe Illustrator 21.0.2, SVG Export Plug-In . SVG Version: 6.00 Build 0)  -->
<svg version="1.1" id="レイヤー_2" xmlns="http://www.w3.org/2000/svg" xmlns:xlink="http://www.w3.org/1999/xlink" x="0px"
	 y="0px" viewBox="0 0 610 344" style="enable-background:new 0 0 610 344;" xml:space="preserve">
<style type="text/css">
	.st0{fill:#579C3B;}
	.st1{fill:none;}
	.st2{fill:#FFFFFF;}
	.st3{fill:#080305;}
</style>
<rect class="st0" width="610" height="318"/>
<g>
	<path class="st1" d="M185.7,157.4c2.5,0,4.8-0.6,6.9-1.8c2.1-1.2,3.8-2.9,4.9-4.9h0c1.2-2.1,1.8-4.4,1.8-7c0-2.5-0.6-4.9-1.8-6.9
		c-1.2-2-2.9-3.7-5-4.9c-2.1-1.2-4.4-1.9-6.8-1.9c-2.3,0-4.6,0.6-6.7,1.9c-2.1,1.2-3.8,2.9-5,5c-1.2,2.1-1.8,4.4-1.8,7
		c0,3.8,1.3,7,3.9,9.6C178.8,156.1,181.9,157.4,185.7,157.4z"/>
	<polygon class="st1" points="211.1,176.2 212.2,179.9 213.5,179.9 214.5,176.2 	"/>
	<path class="st1" d="M451,181.4c-13.1,4.1-38.3,6.9-60.1,8.6h68.6L451,181.4z"/>
	<path class="st1" d="M264.1,142.1c-0.7-0.9-1.7-1.7-2.9-2.2c-1.2-0.6-2.5-0.9-3.9-0.9c-2.3,0-4.1,0.7-5.7,2.1
		c-0.9,0.8-1.6,1.9-2.2,3.4h16C265,143.5,264.6,142.7,264.1,142.1z"/>
	<path class="st1" d="M219.8,156.3c1.4,0.8,3,1.2,4.6,1.2c1.6,0,3-0.4,4.4-1.2c1.4-0.8,2.5-2,3.3-3.4c0.8-1.5,1.2-3,1.2-4.6
		c0-1.6-0.4-3.2-1.2-4.6c-0.8-1.4-1.9-2.6-3.3-3.4c-1.4-0.8-2.9-1.2-4.5-1.2c-2.6,0-4.7,0.9-6.4,2.6c-1.8,1.8-2.6,4-2.6,6.6
		c0,1.7,0.4,3.3,1.2,4.7C217.2,154.4,218.3,155.5,219.8,156.3z"/>
	<path class="st1" d="M366.4,156.2c1.3,0.8,2.9,1.2,4.5,1.2c1.6,0,3.1-0.4,4.5-1.2c1.4-0.8,2.4-1.8,3.2-3.3c0.8-1.4,1.2-3,1.2-4.6
		c0-2.6-0.9-4.7-2.6-6.6c-1.8-1.8-3.8-2.7-6.3-2.7c-2.4,0-4.5,0.9-6.3,2.7c-1.8,1.8-2.6,4-2.6,6.6c0,1.6,0.4,3.2,1.2,4.6
		C364,154.4,365.1,155.5,366.4,156.2z"/>
	<path d="M201,168.8c0.1,0,0.1,0,0.2,0C201.1,168.7,201,168.7,201,168.8l-10.3,0c-0.1,0-0.1,0-0.2,0c0.1,0,0.1,0,0.2,0H201z"/>
	<path d="M420.2,168.8c0.1,0,0.1,0,0.2,0C420.3,168.7,420.2,168.7,420.2,168.8l-10.3,0c-0.1,0-0.1,0-0.2,0c0.1,0,0.1,0,0.2,0H420.2z
		"/>
	<g>
		<path class="st1" d="M419.5,168.8c-0.1,0-0.1,0-0.2,0H409c-0.1,0-0.1,0-0.2,0c-0.8,0.1-1.5,0.5-1.5,1v0.8v0.4v1H421v-1v-0.4v-0.8
			C421,169.2,420.3,168.8,419.5,168.8z"/>
		<path class="st1" d="M305.3,168.8c-0.1,0-0.2-0.1-0.4-0.1c-0.3-0.1-0.7-0.1-1-0.2c-0.4,0-0.7,0.1-1,0.2c-0.1,0-0.2,0.1-0.4,0.1
			c-0.7,0.3-1.2,0.8-1.2,1.4v0.4v0.4v1.3v0.3h5.2v-0.3v-1.3v-0.4v-0.4C306.5,169.6,306,169.1,305.3,168.8z"/>
		<path class="st1" d="M334,156.2c1.3,0.8,2.9,1.2,4.5,1.2c1.6,0,3.1-0.4,4.5-1.2c1.4-0.8,2.4-1.8,3.2-3.3c0.8-1.4,1.2-3,1.2-4.6
			c0-2.6-0.9-4.7-2.6-6.6c-1.8-1.8-3.8-2.7-6.3-2.7c-2.4,0-4.5,0.9-6.3,2.7c-1.8,1.8-2.6,4-2.6,6.6c0,1.6,0.4,3.2,1.2,4.6
			C331.6,154.4,332.7,155.5,334,156.2z"/>
		<path class="st1" d="M185.7,157.4c2.5,0,4.8-0.6,6.9-1.8c2.1-1.2,3.8-2.9,4.9-4.9h0c1.2-2.1,1.8-4.4,1.8-7c0-2.5-0.6-4.9-1.8-6.9
			c-1.2-2-2.9-3.7-5-4.9c-2.1-1.2-4.4-1.9-6.8-1.9c-2.3,0-4.6,0.6-6.7,1.9c-2.1,1.2-3.8,2.9-5,5c-1.2,2.1-1.8,4.4-1.8,7
			c0,3.8,1.3,7,3.9,9.6C178.8,156.1,181.9,157.4,185.7,157.4z"/>
		<path class="st1" d="M264.1,142.1c-0.7-0.9-1.7-1.7-2.9-2.2c-1.2-0.6-2.5-0.9-3.9-0.9c-2.3,0-4.1,0.7-5.7,2.1
			c-0.9,0.8-1.6,1.9-2.2,3.4h16C265,143.5,264.6,142.7,264.1,142.1z"/>
		<path class="st1" d="M219.8,156.3c1.4,0.8,3,1.2,4.6,1.2c1.6,0,3-0.4,4.4-1.2c1.4-0.8,2.5-2,3.3-3.4c0.8-1.5,1.2-3,1.2-4.6
			c0-1.6-0.4-3.2-1.2-4.6c-0.8-1.4-1.9-2.6-3.3-3.4c-1.4-0.8-2.9-1.2-4.5-1.2c-2.6,0-4.7,0.9-6.4,2.6c-1.8,1.8-2.6,4-2.6,6.6
			c0,1.7,0.4,3.3,1.2,4.7C217.2,154.4,218.3,155.5,219.8,156.3z"/>
		<path class="st1" d="M366.4,156.2c1.3,0.8,2.9,1.2,4.5,1.2c1.6,0,3.1-0.4,4.5-1.2c1.4-0.8,2.4-1.8,3.2-3.3c0.8-1.4,1.2-3,1.2-4.6
			c0-2.6-0.9-4.7-2.6-6.6c-1.8-1.8-3.8-2.7-6.3-2.7c-2.4,0-4.5,0.9-6.3,2.7c-1.8,1.8-2.6,4-2.6,6.6c0,1.6,0.4,3.2,1.2,4.6
			C364,154.4,365.1,155.5,366.4,156.2z"/>
		<path class="st1" d="M201.7,170.7v-0.2v-0.8c0-0.5-0.7-0.9-1.5-1c-0.1,0-0.1,0-0.2,0h-10.3c-0.1,0-0.1,0-0.2,0
			c-0.8,0.1-1.5,0.5-1.5,1v0.8v0.2v1.2h13.6V170.7z"/>
		<polygon class="st1" points="149.5,192.2 149.5,194.6 459.3,194.6 459.3,192.2 353,192.2 		"/>
		<rect x="149.5" y="196.8" class="st1" width="309.8" height="2.4"/>
		<path class="st1" d="M450.4,178.9c0-0.1,0.1-0.2,0.1-0.3c0.6-1.4,2-5.2,1.1-9.6c-1.7,1.4-3.9,2.9-6.5,4.2c-0.7,0.4-1.4,0.7-2.1,1
			c-10.2,4.8-26,9.1-47.1,12.6c-1.6,0.3-3.2,0.5-4.8,0.8c20.7-1.6,44.2-4.2,57.2-8C449.1,179.4,449.8,179.2,450.4,178.9z"/>
		<path class="st1" d="M450.1,181.4c-13.1,4.1-38.3,6.9-60.1,8.6h68.6L450.1,181.4z"/>
		<path class="st2" d="M185.8,163c5.4,0,10-1.9,13.7-5.6c3.7-3.7,5.6-8.3,5.6-13.7c0-5.4-1.9-10-5.6-13.7c-3.7-3.7-8.4-5.6-13.9-5.6
			c-3.4,0-6.6,0.9-9.6,2.6c-2.9,1.7-5.3,4.1-7,7.1c-1.7,3-2.6,6.3-2.6,9.8c0,5.3,1.9,9.8,5.6,13.5C175.8,161.1,180.4,163,185.8,163z
			 M174,136.8c1.2-2.1,2.9-3.8,5-5c2.1-1.2,4.4-1.9,6.7-1.9c2.4,0,4.7,0.6,6.8,1.9c2.1,1.2,3.8,2.9,5,4.9c1.2,2,1.8,4.4,1.8,6.9
			c0,2.6-0.6,4.9-1.8,7h0c-1.2,2.1-2.8,3.7-4.9,4.9c-2.1,1.2-4.4,1.8-6.9,1.8c-3.8,0-6.9-1.3-9.5-3.9c-2.7-2.6-3.9-5.8-3.9-9.6
			C172.2,141.3,172.8,138.9,174,136.8z"/>
		<path class="st2" d="M257.4,162.8c2,0,3.8-0.3,5.5-0.9c1.6-0.6,3.1-1.5,4.4-2.7c1.3-1.2,2.4-2.7,3.4-4.6l0.5-1l-0.2-0.1h-6
			c-0.6,0.8-1.1,1.5-1.6,1.9c-0.8,0.7-1.7,1.2-2.8,1.6c-1.1,0.4-2.3,0.6-3.4,0.6c-2.4,0-4.4-0.8-6-2.5c-1.4-1.5-2.2-3.2-2.5-5.4h23
			l0-1.1c0-3.7-1.1-6.9-3.1-9.4c-2.8-3.6-6.6-5.4-11.3-5.4c-4.6,0-8.3,1.8-11,5.3c-2.1,2.7-3.2,5.9-3.2,9.4c0,3.7,1.3,7.1,3.8,10
			C249.3,161.2,252.9,162.8,257.4,162.8z M251.5,141.1c1.6-1.4,3.5-2.1,5.7-2.1c1.4,0,2.7,0.3,3.9,0.9c1.2,0.6,2.2,1.3,2.9,2.2
			c0.5,0.6,0.9,1.4,1.3,2.4h-16C249.9,143.1,250.7,141.9,251.5,141.1z"/>
		<path class="st2" d="M281.8,151.6c0-3.3,0.1-5.5,0.4-6.7c0.4-1.7,1.3-3.1,2.8-4.3c1.4-1.2,2.9-1.7,4.6-1.7c1.5,0,2.7,0.4,3.5,1
			c0.9,0.7,1.5,1.7,1.8,3.2c0.2,0.6,0.3,2.1,0.3,5.6v13.3h5.5v-14.3c0-3.7-0.4-6.3-1.1-8.1c-0.8-1.8-2-3.3-3.7-4.4l0,0
			c-1.7-1.1-3.6-1.6-5.7-1.6c-2.1,0-4,0.5-5.8,1.4c-1,0.5-1.9,1.2-2.7,2v-2.8h-5.5v27.8h5.5L281.8,151.6z"/>
		<polygon class="st2" points="310.4,162.1 316.2,162.1 316.2,130.9 328.1,130.9 328.1,125.3 298.5,125.3 298.5,130.9 310.4,130.9 
					"/>
		<path class="st2" d="M328.1,158.4c2.7,2.9,6.2,4.4,10.4,4.4c4.2,0,7.7-1.5,10.4-4.4c2.7-2.9,4-6.3,4-10.1c0-3.8-1.3-7.2-3.8-10
			c-2.8-3.1-6.4-4.6-10.6-4.6c-4.3,0-7.9,1.6-10.7,4.7c-2.5,2.8-3.8,6.2-3.8,10C324,152.1,325.4,155.5,328.1,158.4z M332.2,141.8
			c1.8-1.8,3.8-2.7,6.3-2.7c2.4,0,4.5,0.9,6.3,2.7c1.8,1.8,2.6,4,2.6,6.6c0,1.6-0.4,3.2-1.2,4.6c-0.8,1.4-1.9,2.5-3.2,3.3
			c-1.4,0.8-2.9,1.2-4.5,1.2c-1.6,0-3.1-0.4-4.5-1.2c-1.3-0.8-2.4-1.9-3.2-3.3c-0.8-1.4-1.2-3-1.2-4.6
			C329.6,145.7,330.5,143.6,332.2,141.8z"/>
		<path class="st2" d="M370.9,162.8c4.2,0,7.7-1.5,10.4-4.4c2.7-2.9,4-6.3,4-10.1c0-3.8-1.3-7.2-3.8-10c-2.8-3.1-6.4-4.6-10.6-4.6
			c-4.3,0-7.9,1.6-10.6,4.7c-2.5,2.8-3.8,6.2-3.8,10c0,3.8,1.4,7.3,4,10.1C363.2,161.3,366.7,162.8,370.9,162.8z M364.6,141.8
			c1.8-1.8,3.8-2.7,6.3-2.7c2.4,0,4.5,0.9,6.3,2.7c1.8,1.8,2.6,4,2.6,6.6c0,1.6-0.4,3.2-1.2,4.6c-0.8,1.4-1.9,2.5-3.2,3.3
			c-1.4,0.8-2.9,1.2-4.5,1.2c-1.6,0-3.1-0.4-4.5-1.2c-1.3-0.8-2.4-1.9-3.2-3.3c-0.8-1.4-1.2-3-1.2-4.6
			C362,145.7,362.9,143.6,364.6,141.8z"/>
		<path class="st2" d="M394.7,151.6c0-3.3,0.1-5.5,0.4-6.7c0.4-1.7,1.3-3.1,2.8-4.3c1.4-1.2,2.9-1.7,4.6-1.7c1.5,0,2.7,0.4,3.5,1
			c0.9,0.7,1.5,1.7,1.8,3.2c0.2,0.6,0.3,2.1,0.3,5.6v13.3h5.5v-14.3c0-3.7-0.4-6.3-1.1-8.1c-0.8-1.8-2-3.3-3.7-4.4h0
			c-1.7-1.1-3.6-1.6-5.7-1.6c-2.1,0-4,0.5-5.8,1.4c-1,0.5-1.9,1.2-2.7,2v-2.8h-5.5v27.8h5.5L394.7,151.6z"/>
		<polygon class="st2" points="439.9,162.1 439.9,157 426.8,157 441.3,134.3 419.3,134.3 419.3,139.4 431.5,139.4 417,162.1 		"/>
		<path class="st2" d="M212.9,185.7l2.6-10l0-16.3c0.9,0.8,2,1.5,3,2c1.9,0.9,3.9,1.4,6.1,1.4c3.9,0,7.3-1.4,10.1-4.3
			c2.8-2.8,4.2-6.3,4.2-10.4c0-4-1.4-7.4-4.2-10.2c-2.8-2.8-6.2-4.3-10.1-4.3c-2.3,0-4.3,0.5-6.2,1.5c-1,0.5-2,1.2-2.9,2.1v-2.9H210
			v41.4L212.9,185.7z M217.9,141.7c1.7-1.8,3.8-2.6,6.4-2.6c1.6,0,3.1,0.4,4.5,1.2c1.4,0.8,2.5,1.9,3.3,3.4c0.8,1.5,1.2,3,1.2,4.6
			c0,1.6-0.4,3.2-1.2,4.6c-0.8,1.5-1.9,2.6-3.3,3.4c-1.4,0.8-2.8,1.2-4.4,1.2c-1.6,0-3.1-0.4-4.6-1.2c-1.4-0.8-2.5-1.9-3.3-3.3
			c-0.8-1.4-1.2-3-1.2-4.7C215.3,145.6,216.1,143.5,217.9,141.7z M214.6,175.7l-1.1,4.3h-1.3l-1.2-4.3H214.6z"/>
		<path class="st2" d="M461.6,189.7l-9.4-9.4c0.4-0.7,4-7.6,0.4-15.4c-2,2.4-5.1,4.6-9.1,6.6l-2.9-2.9h-17.7c-0.3-1.1-1.8-2-3.5-2
			H409c-1.8,0-3.2,0.9-3.5,2h-97c-0.3-1.5-2.2-2.6-4.4-2.7l-0.2,0v0c-2.3,0.1-4.1,1.2-4.4,2.7h-77.7v2.2h78.8v2.5h6.9v-2.5l99.3,0
			v1.8h15.1v-1.8h18l1.7,1.7c-27.4,12.6-86.9,17.2-88.4,17.4H150.7l19.8-19.2l16.8,0v1.9h15.1l0-2h1.2l0-1.6c0-1.3-1.6-2.4-3.6-2.4
			h-10.3c-1.7,0-3.1,0.8-3.5,1.9h-16.8l-22.2,21.4l0,11.5h314.3L461.6,189.7z M306.5,170.5v0.4v1.3v0.3h-5.2v-0.3v-1.3v-0.4v-0.4
			c0-0.6,0.5-1.1,1.2-1.4c0.1,0,0.2-0.1,0.4-0.1c0.3-0.1,0.7-0.1,1-0.2c0.4,0,0.7,0.1,1,0.2c0.1,0,0.2,0.1,0.4,0.1
			c0.7,0.3,1.2,0.8,1.2,1.4V170.5z M421,170.5v0.4v1h-13.6v-1v-0.4v-0.8c0-0.5,0.7-0.9,1.5-1c0.1,0,0.1,0,0.2,0h10.3
			c0.1,0,0.1,0,0.2,0c0.8,0.1,1.5,0.5,1.5,1V170.5z M188.1,170.7v-0.2v-0.8c0-0.5,0.7-0.9,1.5-1c0.1,0,0.1,0,0.2,0h10.3
			c0.1,0,0.1,0,0.2,0c0.8,0.1,1.5,0.5,1.5,1v0.8v0.2v1.2h-13.6V170.7z M396,186.9c21.1-3.5,36.9-7.8,47.1-12.6
			c0.7-0.3,1.4-0.7,2.1-1c2.6-1.4,4.8-2.8,6.5-4.2c0.9,4.4-0.4,8.2-1.1,9.6c0,0.1-0.1,0.2-0.1,0.3c-0.7,0.2-1.4,0.4-2.1,0.7
			c-12.9,3.8-36.5,6.4-57.2,8C392.8,187.4,394.4,187.1,396,186.9z M450.1,181.4l8.5,8.6h-68.6C411.8,188.3,437,185.5,450.1,181.4z
			 M459.3,199.2l-309.8,0v-2.4l309.8,0V199.2z M459.3,194.6H149.5v-2.4H353h106.3V194.6z"/>
	</g>
</g>
<rect y="318" class="st3" width="610" height="26"/>
<g>
	<path class="st0" d="M26.4,326.5c0,0.1,0,0.1,0,0.2s0,0.1,0,0.1c0,0,0,0.1-0.1,0.1s-0.1,0-0.1,0h-2.2v6.7c0,0,0,0.1,0,0.1
		c0,0,0,0-0.1,0.1c0,0-0.1,0-0.2,0s-0.1,0-0.2,0c-0.1,0-0.2,0-0.2,0c-0.1,0-0.1,0-0.2,0s-0.1,0-0.1-0.1c0,0,0-0.1,0-0.1V327h-2.2
		c0,0-0.1,0-0.1,0s0,0-0.1-0.1c0,0,0-0.1,0-0.1c0-0.1,0-0.1,0-0.2s0-0.1,0-0.2c0-0.1,0-0.1,0-0.1c0,0,0-0.1,0.1-0.1s0.1,0,0.1,0h5.4
		c0,0,0.1,0,0.1,0s0,0,0.1,0.1c0,0,0,0.1,0,0.1S26.4,326.5,26.4,326.5z"/>
	<path class="st0" d="M32.1,333.6C32.1,333.7,32.1,333.7,32.1,333.6c0,0.1-0.1,0.1-0.1,0.1s-0.1,0-0.1,0c-0.1,0-0.1,0-0.2,0
		c-0.1,0-0.2,0-0.2,0c-0.1,0-0.1,0-0.1,0s-0.1,0-0.1-0.1c0,0,0,0,0-0.1v-3.1c0-0.3,0-0.6-0.1-0.7c0-0.2-0.1-0.3-0.2-0.5
		c-0.1-0.1-0.2-0.2-0.4-0.3s-0.3-0.1-0.5-0.1c-0.2,0-0.5,0.1-0.7,0.3c-0.2,0.2-0.5,0.4-0.8,0.8v3.7c0,0,0,0.1,0,0.1c0,0,0,0-0.1,0.1
		s-0.1,0-0.1,0c-0.1,0-0.1,0-0.2,0c-0.1,0-0.2,0-0.2,0c-0.1,0-0.1,0-0.2,0s-0.1,0-0.1-0.1c0,0,0,0,0-0.1v-8c0,0,0-0.1,0-0.1
		c0,0,0,0,0.1-0.1c0,0,0.1,0,0.2,0s0.1,0,0.2,0c0.1,0,0.2,0,0.2,0s0.1,0,0.1,0c0,0,0.1,0,0.1,0.1c0,0,0,0.1,0,0.1v3.2
		c0.3-0.3,0.6-0.5,0.9-0.7c0.3-0.1,0.6-0.2,0.9-0.2c0.4,0,0.7,0.1,0.9,0.2c0.2,0.1,0.4,0.3,0.6,0.5c0.2,0.2,0.3,0.4,0.3,0.7
		c0.1,0.3,0.1,0.6,0.1,1V333.6z"/>
	<path class="st0" d="M35,326.5c0,0.2,0,0.4-0.1,0.5s-0.2,0.1-0.5,0.1c-0.2,0-0.4,0-0.5-0.1s-0.1-0.2-0.1-0.5c0-0.2,0-0.4,0.1-0.5
		c0.1-0.1,0.2-0.1,0.5-0.1c0.2,0,0.4,0,0.5,0.1C34.9,326.1,35,326.2,35,326.5z M34.8,333.6C34.8,333.7,34.8,333.7,34.8,333.6
		c0,0.1-0.1,0.1-0.1,0.1s-0.1,0-0.1,0c-0.1,0-0.1,0-0.2,0c-0.1,0-0.2,0-0.2,0c-0.1,0-0.1,0-0.2,0s-0.1,0-0.1-0.1c0,0,0,0,0-0.1v-5.4
		c0,0,0-0.1,0-0.1c0,0,0,0,0.1-0.1s0.1,0,0.2,0c0.1,0,0.1,0,0.2,0c0.1,0,0.2,0,0.2,0c0.1,0,0.1,0,0.1,0s0.1,0,0.1,0.1c0,0,0,0,0,0.1
		V333.6z"/>
	<path class="st0" d="M40,332.2c0,0.3-0.1,0.5-0.2,0.7c-0.1,0.2-0.2,0.4-0.4,0.5c-0.2,0.1-0.4,0.3-0.7,0.3c-0.3,0.1-0.5,0.1-0.9,0.1
		c-0.2,0-0.4,0-0.5,0c-0.2,0-0.3-0.1-0.5-0.1c-0.1,0-0.3-0.1-0.3-0.1c-0.1,0-0.2-0.1-0.2-0.1c0,0-0.1-0.1-0.1-0.2s0-0.2,0-0.3
		c0-0.1,0-0.1,0-0.2c0-0.1,0-0.1,0-0.1c0,0,0-0.1,0.1-0.1c0,0,0,0,0.1,0c0,0,0.1,0,0.2,0.1c0.1,0.1,0.2,0.1,0.3,0.2s0.3,0.1,0.4,0.2
		c0.2,0.1,0.4,0.1,0.6,0.1c0.2,0,0.3,0,0.5-0.1c0.1,0,0.3-0.1,0.4-0.2c0.1-0.1,0.2-0.2,0.2-0.3c0.1-0.1,0.1-0.2,0.1-0.4
		c0-0.2,0-0.3-0.1-0.4s-0.2-0.2-0.3-0.3c-0.1-0.1-0.3-0.1-0.4-0.2c-0.2-0.1-0.3-0.1-0.5-0.2c-0.2-0.1-0.3-0.1-0.5-0.2
		c-0.2-0.1-0.3-0.2-0.4-0.3c-0.1-0.1-0.2-0.3-0.3-0.4c-0.1-0.2-0.1-0.4-0.1-0.6c0-0.2,0-0.4,0.1-0.6c0.1-0.2,0.2-0.4,0.4-0.5
		c0.2-0.1,0.4-0.3,0.6-0.3c0.2-0.1,0.5-0.1,0.9-0.1c0.1,0,0.3,0,0.4,0c0.1,0,0.3,0.1,0.4,0.1c0.1,0,0.2,0.1,0.3,0.1
		c0.1,0,0.1,0.1,0.2,0.1c0,0,0.1,0.1,0.1,0.1c0,0,0,0.1,0,0.1c0,0,0,0.1,0,0.1c0,0,0,0.1,0,0.2c0,0.1,0,0.1,0,0.2s0,0.1,0,0.1
		c0,0,0,0.1-0.1,0.1c0,0,0,0-0.1,0c0,0-0.1,0-0.2-0.1c-0.1,0-0.2-0.1-0.3-0.1c-0.1,0-0.2-0.1-0.4-0.1c-0.1,0-0.3-0.1-0.5-0.1
		c-0.2,0-0.3,0-0.4,0.1c-0.1,0-0.2,0.1-0.3,0.2c-0.1,0.1-0.1,0.2-0.2,0.2c0,0.1-0.1,0.2-0.1,0.3c0,0.2,0,0.3,0.1,0.4
		c0.1,0.1,0.2,0.2,0.3,0.3c0.1,0.1,0.3,0.2,0.4,0.2c0.2,0.1,0.3,0.1,0.5,0.2s0.3,0.1,0.5,0.2c0.2,0.1,0.3,0.2,0.4,0.3
		c0.1,0.1,0.2,0.3,0.3,0.4C40,331.8,40,332,40,332.2z"/>
	<path class="st0" d="M50.8,329.9c0,0.6-0.1,1.2-0.2,1.7s-0.4,0.9-0.7,1.3c-0.3,0.4-0.7,0.6-1.1,0.8s-1,0.3-1.5,0.3
		c-0.6,0-1.1-0.1-1.5-0.3c-0.4-0.2-0.8-0.4-1-0.8c-0.3-0.3-0.5-0.7-0.6-1.2c-0.1-0.5-0.2-1-0.2-1.7c0-0.6,0.1-1.2,0.2-1.7
		c0.1-0.5,0.4-0.9,0.7-1.3s0.7-0.6,1.1-0.8c0.4-0.2,1-0.3,1.5-0.3c0.6,0,1.1,0.1,1.5,0.3s0.8,0.4,1.1,0.7c0.3,0.3,0.5,0.7,0.6,1.2
		C50.7,328.7,50.8,329.2,50.8,329.9z M49.7,329.9c0-0.4,0-0.8-0.1-1.2c-0.1-0.4-0.2-0.7-0.4-1c-0.2-0.3-0.4-0.5-0.7-0.6
		c-0.3-0.2-0.7-0.2-1.1-0.2s-0.8,0.1-1.1,0.3c-0.3,0.2-0.5,0.4-0.7,0.7c-0.2,0.3-0.3,0.6-0.4,1s-0.1,0.8-0.1,1.2
		c0,0.5,0,0.9,0.1,1.3c0.1,0.4,0.2,0.7,0.4,1c0.2,0.3,0.4,0.5,0.7,0.6c0.3,0.2,0.7,0.2,1.1,0.2c0.4,0,0.8-0.1,1.1-0.3
		c0.3-0.2,0.6-0.4,0.7-0.7c0.2-0.3,0.3-0.6,0.4-1S49.7,330.3,49.7,329.9z"/>
	<path class="st0" d="M57.2,330.9c0,0.5-0.1,0.9-0.2,1.3c-0.1,0.4-0.3,0.7-0.4,1c-0.2,0.3-0.4,0.5-0.7,0.6c-0.3,0.1-0.6,0.2-1,0.2
		c-0.2,0-0.3,0-0.4,0c-0.1,0-0.3-0.1-0.4-0.1c-0.1-0.1-0.3-0.2-0.4-0.3c-0.1-0.1-0.3-0.2-0.4-0.4v2.7c0,0,0,0.1,0,0.1
		c0,0,0,0-0.1,0.1c0,0-0.1,0-0.1,0s-0.1,0-0.2,0c-0.1,0-0.2,0-0.2,0s-0.1,0-0.2,0c0,0-0.1,0-0.1-0.1c0,0,0-0.1,0-0.1v-7.5
		c0,0,0-0.1,0-0.1c0,0,0,0,0.1-0.1c0,0,0.1,0,0.1,0c0.1,0,0.1,0,0.2,0c0.1,0,0.2,0,0.2,0c0.1,0,0.1,0,0.1,0c0,0,0.1,0,0.1,0.1
		c0,0,0,0.1,0,0.1v0.7c0.2-0.2,0.3-0.3,0.5-0.4s0.3-0.2,0.5-0.3c0.2-0.1,0.3-0.1,0.5-0.2c0.2,0,0.3-0.1,0.5-0.1c0.4,0,0.7,0.1,1,0.2
		c0.3,0.2,0.5,0.4,0.7,0.6c0.2,0.3,0.3,0.6,0.4,0.9C57.2,330.1,57.2,330.5,57.2,330.9z M56.2,331c0-0.3,0-0.5-0.1-0.8
		c0-0.3-0.1-0.5-0.2-0.7c-0.1-0.2-0.2-0.4-0.4-0.5c-0.2-0.1-0.4-0.2-0.6-0.2c-0.1,0-0.3,0-0.4,0.1c-0.1,0-0.3,0.1-0.4,0.2
		c-0.1,0.1-0.3,0.2-0.4,0.3c-0.1,0.1-0.3,0.3-0.4,0.5v2.1c0.3,0.3,0.5,0.6,0.8,0.8s0.5,0.3,0.8,0.3c0.2,0,0.5-0.1,0.6-0.2
		s0.3-0.3,0.4-0.5c0.1-0.2,0.2-0.4,0.2-0.7C56.2,331.5,56.2,331.2,56.2,331z"/>
	<path class="st0" d="M63.2,330.7c0,0.2,0,0.3-0.1,0.3c-0.1,0.1-0.2,0.1-0.3,0.1h-3.5c0,0.3,0,0.6,0.1,0.8c0.1,0.2,0.2,0.4,0.3,0.6
		c0.1,0.2,0.3,0.3,0.5,0.4c0.2,0.1,0.5,0.1,0.8,0.1c0.3,0,0.5,0,0.7-0.1c0.2,0,0.4-0.1,0.5-0.1c0.1-0.1,0.3-0.1,0.4-0.1
		c0.1,0,0.2-0.1,0.2-0.1c0,0,0.1,0,0.1,0s0,0,0.1,0.1c0,0,0,0.1,0,0.1s0,0.1,0,0.2c0,0.1,0,0.1,0,0.1c0,0,0,0.1,0,0.1
		c0,0,0,0.1,0,0.1c0,0,0,0-0.1,0.1c0,0-0.1,0.1-0.2,0.1c-0.1,0-0.2,0.1-0.4,0.1c-0.2,0-0.4,0.1-0.6,0.1c-0.2,0-0.5,0.1-0.7,0.1
		c-0.4,0-0.8-0.1-1.2-0.2s-0.6-0.3-0.8-0.5c-0.2-0.2-0.4-0.5-0.5-0.9s-0.2-0.8-0.2-1.3c0-0.5,0.1-0.9,0.2-1.2s0.3-0.7,0.5-0.9
		c0.2-0.3,0.5-0.5,0.8-0.6c0.3-0.1,0.7-0.2,1.1-0.2c0.4,0,0.8,0.1,1.1,0.2c0.3,0.1,0.5,0.3,0.7,0.5c0.2,0.2,0.3,0.5,0.4,0.8
		s0.1,0.6,0.1,1V330.7z M62.3,330.4c0-0.5-0.1-0.9-0.3-1.2s-0.6-0.4-1.1-0.4c-0.2,0-0.5,0-0.6,0.1c-0.2,0.1-0.3,0.2-0.5,0.4
		c-0.1,0.2-0.2,0.3-0.3,0.5c-0.1,0.2-0.1,0.4-0.1,0.6H62.3z"/>
	<path class="st0" d="M69.4,333.6C69.4,333.7,69.4,333.7,69.4,333.6c0,0.1-0.1,0.1-0.1,0.1s-0.1,0-0.1,0c-0.1,0-0.1,0-0.2,0
		c-0.1,0-0.2,0-0.2,0c-0.1,0-0.1,0-0.1,0s-0.1,0-0.1-0.1c0,0,0,0,0-0.1v-3.1c0-0.3,0-0.6-0.1-0.7c0-0.2-0.1-0.3-0.2-0.5
		c-0.1-0.1-0.2-0.2-0.4-0.3s-0.3-0.1-0.5-0.1c-0.2,0-0.5,0.1-0.7,0.3c-0.2,0.2-0.5,0.4-0.8,0.8v3.7c0,0,0,0.1,0,0.1c0,0,0,0-0.1,0.1
		s-0.1,0-0.1,0c-0.1,0-0.1,0-0.2,0c-0.1,0-0.2,0-0.2,0c-0.1,0-0.1,0-0.2,0s-0.1,0-0.1-0.1c0,0,0,0,0-0.1v-5.4c0,0,0-0.1,0-0.1
		c0,0,0,0,0.1-0.1c0,0,0.1,0,0.1,0c0.1,0,0.1,0,0.2,0c0.1,0,0.2,0,0.2,0c0.1,0,0.1,0,0.1,0s0.1,0,0.1,0.1c0,0,0,0,0,0.1v0.7
		c0.3-0.3,0.6-0.6,0.9-0.7s0.6-0.2,0.9-0.2c0.4,0,0.7,0.1,0.9,0.2c0.2,0.1,0.4,0.3,0.6,0.5c0.2,0.2,0.3,0.4,0.3,0.7
		c0.1,0.3,0.1,0.6,0.1,1V333.6z"/>
	<path class="st0" d="M78.2,331.6c0,0.4-0.1,0.7-0.2,1c-0.1,0.3-0.3,0.5-0.6,0.7s-0.5,0.3-0.8,0.4c-0.3,0.1-0.7,0.1-1,0.1
		c-0.3,0-0.5,0-0.7-0.1c-0.2,0-0.4-0.1-0.6-0.2c-0.2-0.1-0.3-0.1-0.4-0.2s-0.2-0.1-0.2-0.2c0,0-0.1-0.1-0.1-0.2c0-0.1,0-0.2,0-0.3
		c0-0.1,0-0.2,0-0.2c0-0.1,0-0.1,0-0.1c0,0,0-0.1,0.1-0.1c0,0,0.1,0,0.1,0c0.1,0,0.1,0,0.2,0.1c0.1,0.1,0.2,0.1,0.4,0.2
		c0.2,0.1,0.4,0.2,0.6,0.2c0.2,0.1,0.5,0.1,0.8,0.1c0.2,0,0.4,0,0.6-0.1c0.2-0.1,0.3-0.1,0.5-0.3c0.1-0.1,0.2-0.2,0.3-0.4
		c0.1-0.2,0.1-0.3,0.1-0.5c0-0.2,0-0.4-0.1-0.6c-0.1-0.2-0.2-0.3-0.4-0.4c-0.2-0.1-0.3-0.2-0.6-0.3c-0.2-0.1-0.4-0.2-0.6-0.3
		s-0.4-0.2-0.6-0.3c-0.2-0.1-0.4-0.3-0.6-0.4c-0.2-0.2-0.3-0.4-0.4-0.6c-0.1-0.2-0.2-0.5-0.2-0.8c0-0.3,0.1-0.6,0.2-0.9
		c0.1-0.3,0.3-0.5,0.5-0.6c0.2-0.2,0.5-0.3,0.7-0.4c0.3-0.1,0.6-0.1,0.9-0.1c0.2,0,0.3,0,0.5,0c0.2,0,0.3,0.1,0.5,0.1
		c0.2,0,0.3,0.1,0.4,0.2s0.2,0.1,0.2,0.1c0,0,0.1,0.1,0.1,0.1c0,0,0,0,0,0.1c0,0,0,0.1,0,0.1c0,0,0,0.1,0,0.2c0,0.1,0,0.1,0,0.2
		c0,0.1,0,0.1,0,0.1c0,0,0,0.1-0.1,0.1c0,0,0,0-0.1,0c0,0-0.1,0-0.2-0.1c-0.1-0.1-0.2-0.1-0.3-0.2c-0.1-0.1-0.3-0.1-0.5-0.2
		c-0.2-0.1-0.4-0.1-0.6-0.1c-0.2,0-0.4,0-0.6,0.1c-0.2,0.1-0.3,0.1-0.4,0.2c-0.1,0.1-0.2,0.2-0.2,0.3s-0.1,0.3-0.1,0.4
		c0,0.2,0,0.4,0.1,0.6c0.1,0.2,0.2,0.3,0.4,0.4c0.2,0.1,0.4,0.2,0.6,0.3c0.2,0.1,0.4,0.2,0.6,0.3c0.2,0.1,0.4,0.2,0.6,0.3
		s0.4,0.3,0.6,0.4c0.2,0.2,0.3,0.4,0.4,0.6C78.1,331.1,78.2,331.3,78.2,331.6z"/>
	<path class="st0" d="M84.5,330.9c0,0.4-0.1,0.8-0.2,1.2s-0.3,0.7-0.5,1c-0.2,0.3-0.5,0.5-0.9,0.6c-0.3,0.1-0.7,0.2-1.2,0.2
		c-0.4,0-0.8-0.1-1.2-0.2c-0.3-0.1-0.6-0.3-0.8-0.6c-0.2-0.3-0.4-0.6-0.5-0.9c-0.1-0.4-0.2-0.8-0.2-1.2c0-0.4,0.1-0.8,0.2-1.2
		s0.3-0.7,0.5-1c0.2-0.3,0.5-0.5,0.9-0.6c0.3-0.1,0.7-0.2,1.2-0.2c0.4,0,0.8,0.1,1.2,0.2c0.3,0.1,0.6,0.3,0.8,0.6s0.4,0.6,0.5,0.9
		C84.4,330.1,84.5,330.5,84.5,330.9z M83.5,331c0-0.3,0-0.6-0.1-0.8c-0.1-0.3-0.1-0.5-0.3-0.7c-0.1-0.2-0.3-0.3-0.5-0.5
		s-0.5-0.2-0.8-0.2c-0.3,0-0.5,0.1-0.8,0.2c-0.2,0.1-0.4,0.3-0.5,0.4s-0.2,0.4-0.3,0.7c-0.1,0.3-0.1,0.5-0.1,0.8
		c0,0.3,0,0.6,0.1,0.8s0.1,0.5,0.3,0.7c0.1,0.2,0.3,0.3,0.5,0.5s0.5,0.2,0.8,0.2c0.3,0,0.5-0.1,0.8-0.2c0.2-0.1,0.4-0.2,0.5-0.4
		s0.2-0.4,0.3-0.7C83.5,331.6,83.5,331.3,83.5,331z"/>
	<path class="st0" d="M90.5,333.6C90.5,333.7,90.5,333.7,90.5,333.6c0,0.1-0.1,0.1-0.1,0.1c0,0-0.1,0-0.1,0c-0.1,0-0.1,0-0.2,0
		c-0.1,0-0.2,0-0.2,0c-0.1,0-0.1,0-0.1,0s-0.1,0-0.1-0.1c0,0,0,0,0-0.1v-0.7c-0.3,0.3-0.6,0.6-0.9,0.7s-0.6,0.2-0.9,0.2
		c-0.4,0-0.7-0.1-0.9-0.2s-0.4-0.3-0.6-0.5c-0.2-0.2-0.3-0.4-0.3-0.7c-0.1-0.3-0.1-0.6-0.1-1v-3.3c0,0,0-0.1,0-0.1c0,0,0,0,0.1-0.1
		s0.1,0,0.2,0c0.1,0,0.1,0,0.2,0s0.2,0,0.2,0c0.1,0,0.1,0,0.2,0c0,0,0.1,0,0.1,0.1c0,0,0,0,0,0.1v3.1c0,0.3,0,0.6,0.1,0.8
		c0,0.2,0.1,0.3,0.2,0.5c0.1,0.1,0.2,0.2,0.4,0.3s0.3,0.1,0.5,0.1c0.2,0,0.5-0.1,0.7-0.3c0.2-0.2,0.5-0.4,0.8-0.8v-3.7
		c0,0,0-0.1,0-0.1c0,0,0,0,0.1-0.1s0.1,0,0.2,0c0.1,0,0.1,0,0.2,0c0.1,0,0.2,0,0.2,0c0.1,0,0.1,0,0.1,0s0.1,0,0.1,0.1c0,0,0,0,0,0.1
		V333.6z"/>
	<path class="st0" d="M95.5,328.6c0,0.1,0,0.2,0,0.2c0,0.1,0,0.1,0,0.1c0,0,0,0.1,0,0.1c0,0,0,0-0.1,0s-0.1,0-0.1,0
		c0,0-0.1,0-0.2-0.1s-0.1,0-0.2-0.1c-0.1,0-0.1,0-0.2,0c-0.1,0-0.2,0-0.3,0.1c-0.1,0-0.2,0.1-0.3,0.2c-0.1,0.1-0.2,0.2-0.3,0.4
		s-0.2,0.3-0.4,0.6v3.5c0,0,0,0.1,0,0.1c0,0,0,0-0.1,0.1s-0.1,0-0.1,0c-0.1,0-0.1,0-0.2,0c-0.1,0-0.2,0-0.2,0c-0.1,0-0.1,0-0.2,0
		s-0.1,0-0.1-0.1c0,0,0,0,0-0.1v-5.4c0,0,0-0.1,0-0.1c0,0,0,0,0.1-0.1c0,0,0.1,0,0.1,0c0.1,0,0.1,0,0.2,0c0.1,0,0.2,0,0.2,0
		c0.1,0,0.1,0,0.1,0s0.1,0,0.1,0.1c0,0,0,0,0,0.1v0.8c0.1-0.2,0.3-0.4,0.4-0.5c0.1-0.1,0.3-0.2,0.4-0.3c0.1-0.1,0.2-0.1,0.3-0.2
		c0.1,0,0.2,0,0.3,0c0.1,0,0.1,0,0.2,0c0.1,0,0.1,0,0.2,0c0.1,0,0.1,0,0.2,0.1c0.1,0,0.1,0,0.1,0.1c0,0,0,0,0,0.1c0,0,0,0,0,0.1
		c0,0,0,0.1,0,0.1S95.5,328.5,95.5,328.6z"/>
	<path class="st0" d="M100.3,332.8c0,0.1,0,0.1,0,0.2s0,0.1,0,0.1c0,0,0,0.1,0,0.1c0,0,0,0.1-0.1,0.1c0,0-0.1,0.1-0.3,0.2
		c-0.1,0.1-0.3,0.1-0.4,0.2s-0.3,0.1-0.5,0.1s-0.4,0.1-0.5,0.1c-0.4,0-0.7-0.1-1-0.2s-0.5-0.3-0.7-0.6c-0.2-0.2-0.4-0.5-0.5-0.9
		c-0.1-0.4-0.2-0.8-0.2-1.2c0-0.5,0.1-1,0.2-1.4c0.1-0.4,0.3-0.7,0.5-0.9c0.2-0.2,0.5-0.4,0.8-0.5s0.6-0.2,1-0.2c0.2,0,0.3,0,0.5,0
		c0.2,0,0.3,0.1,0.4,0.1c0.1,0.1,0.3,0.1,0.4,0.2c0.1,0.1,0.2,0.1,0.2,0.2c0,0,0.1,0.1,0.1,0.1c0,0,0,0.1,0,0.1c0,0,0,0.1,0,0.1
		c0,0,0,0.1,0,0.2c0,0.2,0,0.3-0.1,0.3c0,0.1-0.1,0.1-0.1,0.1c-0.1,0-0.1,0-0.2-0.1c-0.1-0.1-0.2-0.1-0.3-0.2
		c-0.1-0.1-0.3-0.2-0.4-0.2c-0.2-0.1-0.4-0.1-0.6-0.1c-0.5,0-0.8,0.2-1.1,0.5c-0.3,0.4-0.4,0.9-0.4,1.6c0,0.3,0,0.6,0.1,0.9
		s0.2,0.5,0.3,0.7c0.1,0.2,0.3,0.3,0.5,0.4c0.2,0.1,0.4,0.1,0.6,0.1c0.2,0,0.4,0,0.6-0.1c0.2-0.1,0.3-0.2,0.4-0.2
		c0.1-0.1,0.2-0.2,0.3-0.2s0.2-0.1,0.2-0.1c0,0,0.1,0,0.1,0c0,0,0,0,0.1,0.1c0,0,0,0.1,0,0.1S100.3,332.8,100.3,332.8z"/>
	<path class="st0" d="M106.2,330.7c0,0.2,0,0.3-0.1,0.3c-0.1,0.1-0.2,0.1-0.3,0.1h-3.5c0,0.3,0,0.6,0.1,0.8c0.1,0.2,0.2,0.4,0.3,0.6
		c0.1,0.2,0.3,0.3,0.5,0.4c0.2,0.1,0.5,0.1,0.8,0.1c0.3,0,0.5,0,0.7-0.1c0.2,0,0.4-0.1,0.5-0.1c0.1-0.1,0.3-0.1,0.4-0.1
		c0.1,0,0.2-0.1,0.2-0.1c0,0,0.1,0,0.1,0s0,0,0.1,0.1c0,0,0,0.1,0,0.1s0,0.1,0,0.2c0,0.1,0,0.1,0,0.1c0,0,0,0.1,0,0.1
		c0,0,0,0.1,0,0.1c0,0,0,0-0.1,0.1c0,0-0.1,0.1-0.2,0.1c-0.1,0-0.2,0.1-0.4,0.1c-0.2,0-0.4,0.1-0.6,0.1c-0.2,0-0.5,0.1-0.7,0.1
		c-0.4,0-0.8-0.1-1.2-0.2s-0.6-0.3-0.8-0.5c-0.2-0.2-0.4-0.5-0.5-0.9s-0.2-0.8-0.2-1.3c0-0.5,0.1-0.9,0.2-1.2s0.3-0.7,0.5-0.9
		c0.2-0.3,0.5-0.5,0.8-0.6c0.3-0.1,0.7-0.2,1.1-0.2c0.4,0,0.8,0.1,1.1,0.2c0.3,0.1,0.5,0.3,0.7,0.5c0.2,0.2,0.3,0.5,0.4,0.8
		s0.1,0.6,0.1,1V330.7z M105.2,330.4c0-0.5-0.1-0.9-0.3-1.2s-0.6-0.4-1.1-0.4c-0.2,0-0.5,0-0.6,0.1c-0.2,0.1-0.3,0.2-0.5,0.4
		c-0.1,0.2-0.2,0.3-0.3,0.5c-0.1,0.2-0.1,0.4-0.1,0.6H105.2z"/>
	<path class="st0" d="M115.3,328.3c0,0.4-0.1,0.7-0.2,1s-0.3,0.6-0.5,0.8c-0.2,0.2-0.5,0.4-0.9,0.5c-0.3,0.1-0.8,0.2-1.2,0.2h-0.9
		v2.8c0,0,0,0.1,0,0.1c0,0,0,0-0.1,0.1s-0.1,0-0.2,0s-0.1,0-0.2,0c-0.1,0-0.2,0-0.2,0c-0.1,0-0.1,0-0.2,0s-0.1,0-0.1-0.1
		c0,0,0-0.1,0-0.1v-7.1c0-0.2,0-0.3,0.1-0.3c0.1-0.1,0.2-0.1,0.3-0.1h1.6c0.2,0,0.3,0,0.5,0c0.2,0,0.3,0,0.5,0.1
		c0.2,0,0.4,0.1,0.6,0.3s0.4,0.3,0.6,0.5c0.2,0.2,0.3,0.4,0.3,0.6C115.2,327.8,115.3,328.1,115.3,328.3z M114.2,328.4
		c0-0.3-0.1-0.6-0.2-0.8c-0.1-0.2-0.3-0.4-0.4-0.5c-0.2-0.1-0.4-0.2-0.5-0.2c-0.2,0-0.4,0-0.5,0h-0.9v3.1h0.9c0.3,0,0.6,0,0.8-0.1
		c0.2-0.1,0.4-0.2,0.5-0.3c0.1-0.1,0.2-0.3,0.3-0.5C114.2,328.9,114.2,328.7,114.2,328.4z"/>
	<path class="st0" d="M119.9,328.6c0,0.1,0,0.2,0,0.2c0,0.1,0,0.1,0,0.1c0,0,0,0.1,0,0.1c0,0,0,0-0.1,0s-0.1,0-0.1,0
		c0,0-0.1,0-0.2-0.1s-0.1,0-0.2-0.1c-0.1,0-0.1,0-0.2,0c-0.1,0-0.2,0-0.3,0.1c-0.1,0-0.2,0.1-0.3,0.2c-0.1,0.1-0.2,0.2-0.3,0.4
		s-0.2,0.3-0.4,0.6v3.5c0,0,0,0.1,0,0.1c0,0,0,0-0.1,0.1s-0.1,0-0.1,0c-0.1,0-0.1,0-0.2,0c-0.1,0-0.2,0-0.2,0c-0.1,0-0.1,0-0.2,0
		s-0.1,0-0.1-0.1c0,0,0,0,0-0.1v-5.4c0,0,0-0.1,0-0.1c0,0,0,0,0.1-0.1c0,0,0.1,0,0.1,0c0.1,0,0.1,0,0.2,0c0.1,0,0.2,0,0.2,0
		c0.1,0,0.1,0,0.1,0s0.1,0,0.1,0.1c0,0,0,0,0,0.1v0.8c0.1-0.2,0.3-0.4,0.4-0.5c0.1-0.1,0.3-0.2,0.4-0.3c0.1-0.1,0.2-0.1,0.3-0.2
		c0.1,0,0.2,0,0.3,0c0.1,0,0.1,0,0.2,0c0.1,0,0.1,0,0.2,0c0.1,0,0.1,0,0.2,0.1c0.1,0,0.1,0,0.1,0.1c0,0,0,0,0,0.1c0,0,0,0,0,0.1
		c0,0,0,0.1,0,0.1S119.9,328.5,119.9,328.6z"/>
	<path class="st0" d="M125.8,330.9c0,0.4-0.1,0.8-0.2,1.2s-0.3,0.7-0.5,1c-0.2,0.3-0.5,0.5-0.9,0.6c-0.3,0.1-0.7,0.2-1.2,0.2
		c-0.4,0-0.8-0.1-1.2-0.2c-0.3-0.1-0.6-0.3-0.8-0.6c-0.2-0.3-0.4-0.6-0.5-0.9c-0.1-0.4-0.2-0.8-0.2-1.2c0-0.4,0.1-0.8,0.2-1.2
		s0.3-0.7,0.5-1c0.2-0.3,0.5-0.5,0.9-0.6c0.3-0.1,0.7-0.2,1.2-0.2c0.4,0,0.8,0.1,1.2,0.2c0.3,0.1,0.6,0.3,0.8,0.6s0.4,0.6,0.5,0.9
		C125.7,330.1,125.8,330.5,125.8,330.9z M124.7,331c0-0.3,0-0.6-0.1-0.8c-0.1-0.3-0.1-0.5-0.3-0.7c-0.1-0.2-0.3-0.3-0.5-0.5
		s-0.5-0.2-0.8-0.2c-0.3,0-0.5,0.1-0.8,0.2c-0.2,0.1-0.4,0.3-0.5,0.4s-0.2,0.4-0.3,0.7c-0.1,0.3-0.1,0.5-0.1,0.8
		c0,0.3,0,0.6,0.1,0.8s0.1,0.5,0.3,0.7c0.1,0.2,0.3,0.3,0.5,0.5s0.5,0.2,0.8,0.2c0.3,0,0.5-0.1,0.8-0.2c0.2-0.1,0.4-0.2,0.5-0.4
		s0.2-0.4,0.3-0.7C124.7,331.6,124.7,331.3,124.7,331z"/>
	<path class="st0" d="M131.7,328.5c0,0.1,0,0.2-0.1,0.3s-0.1,0.1-0.1,0.1h-0.8c0.1,0.1,0.2,0.3,0.3,0.5s0.1,0.4,0.1,0.5
		c0,0.3,0,0.6-0.1,0.8s-0.2,0.4-0.4,0.6s-0.4,0.3-0.7,0.4c-0.3,0.1-0.5,0.1-0.8,0.1c-0.2,0-0.4,0-0.6-0.1c-0.2-0.1-0.3-0.1-0.5-0.2
		c-0.1,0.1-0.1,0.2-0.2,0.2c0,0.1-0.1,0.2-0.1,0.3c0,0.1,0.1,0.3,0.2,0.3c0.1,0.1,0.3,0.1,0.5,0.1l1.4,0.1c0.3,0,0.5,0,0.7,0.1
		c0.2,0.1,0.4,0.2,0.6,0.3c0.2,0.1,0.3,0.3,0.4,0.4s0.1,0.4,0.1,0.6c0,0.2-0.1,0.5-0.2,0.7c-0.1,0.2-0.3,0.4-0.5,0.6
		s-0.5,0.3-0.8,0.4c-0.3,0.1-0.7,0.1-1.2,0.1c-0.4,0-0.8,0-1.1-0.1c-0.3-0.1-0.6-0.2-0.7-0.3c-0.2-0.1-0.3-0.3-0.4-0.5
		s-0.1-0.4-0.1-0.6c0-0.1,0-0.3,0-0.4s0.1-0.2,0.1-0.4s0.1-0.2,0.2-0.3c0.1-0.1,0.2-0.2,0.3-0.3c-0.2-0.1-0.3-0.2-0.4-0.4
		c-0.1-0.2-0.1-0.3-0.1-0.5c0-0.2,0-0.5,0.1-0.6c0.1-0.2,0.2-0.4,0.4-0.5c-0.1-0.1-0.2-0.3-0.3-0.5s-0.1-0.4-0.1-0.7
		c0-0.3,0.1-0.6,0.2-0.8c0.1-0.2,0.2-0.4,0.4-0.6s0.4-0.3,0.7-0.4c0.3-0.1,0.5-0.1,0.8-0.1c0.2,0,0.3,0,0.5,0c0.1,0,0.3,0,0.4,0.1
		h1.6c0.1,0,0.1,0,0.2,0.1C131.7,328.3,131.7,328.4,131.7,328.5z M130.7,334.2c0-0.2-0.1-0.4-0.3-0.5c-0.2-0.1-0.4-0.2-0.8-0.2
		l-1.4,0c-0.1,0.1-0.2,0.2-0.3,0.3c-0.1,0.1-0.1,0.2-0.2,0.3c0,0.1-0.1,0.2-0.1,0.2c0,0.1,0,0.2,0,0.2c0,0.3,0.1,0.5,0.4,0.6
		c0.3,0.1,0.6,0.2,1.1,0.2c0.3,0,0.5,0,0.7-0.1s0.4-0.1,0.5-0.2c0.1-0.1,0.2-0.2,0.3-0.3C130.6,334.5,130.7,334.3,130.7,334.2z
		 M130.2,329.9c0-0.4-0.1-0.7-0.3-0.9c-0.2-0.2-0.5-0.3-0.9-0.3c-0.2,0-0.4,0-0.5,0.1s-0.3,0.2-0.4,0.3s-0.2,0.2-0.2,0.4
		c0,0.1-0.1,0.3-0.1,0.5c0,0.4,0.1,0.6,0.3,0.8c0.2,0.2,0.5,0.3,0.8,0.3c0.2,0,0.4,0,0.5-0.1c0.1-0.1,0.3-0.1,0.4-0.3
		s0.2-0.2,0.2-0.4C130.1,330.2,130.2,330.1,130.2,329.9z"/>
	<path class="st0" d="M136.1,328.6c0,0.1,0,0.2,0,0.2c0,0.1,0,0.1,0,0.1c0,0,0,0.1,0,0.1c0,0,0,0-0.1,0s-0.1,0-0.1,0
		c0,0-0.1,0-0.2-0.1s-0.1,0-0.2-0.1c-0.1,0-0.1,0-0.2,0c-0.1,0-0.2,0-0.3,0.1c-0.1,0-0.2,0.1-0.3,0.2c-0.1,0.1-0.2,0.2-0.3,0.4
		s-0.2,0.3-0.4,0.6v3.5c0,0,0,0.1,0,0.1c0,0,0,0-0.1,0.1s-0.1,0-0.1,0c-0.1,0-0.1,0-0.2,0c-0.1,0-0.2,0-0.2,0c-0.1,0-0.1,0-0.2,0
		s-0.1,0-0.1-0.1c0,0,0,0,0-0.1v-5.4c0,0,0-0.1,0-0.1c0,0,0,0,0.1-0.1c0,0,0.1,0,0.1,0c0.1,0,0.1,0,0.2,0c0.1,0,0.2,0,0.2,0
		c0.1,0,0.1,0,0.1,0s0.1,0,0.1,0.1c0,0,0,0,0,0.1v0.8c0.1-0.2,0.3-0.4,0.4-0.5c0.1-0.1,0.3-0.2,0.4-0.3c0.1-0.1,0.2-0.1,0.3-0.2
		c0.1,0,0.2,0,0.3,0c0.1,0,0.1,0,0.2,0c0.1,0,0.1,0,0.2,0c0.1,0,0.1,0,0.2,0.1c0.1,0,0.1,0,0.1,0.1c0,0,0,0,0,0.1c0,0,0,0,0,0.1
		c0,0,0,0.1,0,0.1S136.1,328.5,136.1,328.6z"/>
	<path class="st0" d="M141,333.7c0,0,0,0.1,0,0.1c0,0-0.1,0-0.1,0.1s-0.1,0-0.2,0c-0.1,0-0.2,0-0.2,0s-0.1,0-0.1-0.1
		c0,0,0-0.1,0-0.1v-0.5c-0.2,0.3-0.5,0.4-0.8,0.6c-0.3,0.1-0.6,0.2-0.9,0.2c-0.3,0-0.5,0-0.8-0.1s-0.4-0.2-0.6-0.3
		c-0.2-0.1-0.3-0.3-0.4-0.5c-0.1-0.2-0.1-0.4-0.1-0.7c0-0.3,0.1-0.6,0.2-0.8c0.1-0.2,0.3-0.4,0.5-0.6c0.2-0.1,0.5-0.3,0.8-0.3
		c0.3-0.1,0.7-0.1,1.1-0.1h0.7v-0.4c0-0.2,0-0.4-0.1-0.5c0-0.2-0.1-0.3-0.2-0.4s-0.2-0.2-0.4-0.2c-0.2-0.1-0.3-0.1-0.6-0.1
		c-0.2,0-0.5,0-0.7,0.1c-0.2,0.1-0.4,0.1-0.5,0.2s-0.3,0.1-0.4,0.2s-0.2,0.1-0.2,0.1c0,0-0.1,0-0.1,0c0,0,0,0-0.1-0.1
		c0,0,0-0.1,0-0.1c0,0,0-0.1,0-0.2c0-0.1,0-0.2,0-0.2c0-0.1,0-0.1,0.1-0.2c0.1-0.1,0.1-0.1,0.3-0.2c0.1-0.1,0.3-0.1,0.5-0.2
		c0.2-0.1,0.4-0.1,0.6-0.1c0.2,0,0.4-0.1,0.6-0.1c0.4,0,0.7,0,1,0.1c0.3,0.1,0.5,0.2,0.7,0.4c0.2,0.2,0.3,0.4,0.4,0.6
		c0.1,0.3,0.1,0.5,0.1,0.9V333.7z M140,331.2h-0.8c-0.3,0-0.5,0-0.7,0.1c-0.2,0-0.4,0.1-0.5,0.2c-0.1,0.1-0.2,0.2-0.3,0.3
		c-0.1,0.1-0.1,0.3-0.1,0.4c0,0.3,0.1,0.5,0.3,0.7s0.4,0.2,0.7,0.2c0.3,0,0.5-0.1,0.7-0.2c0.2-0.1,0.5-0.3,0.7-0.6V331.2z"/>
	<path class="st0" d="M150.8,333.6C150.8,333.7,150.7,333.7,150.8,333.6c0,0.1-0.1,0.1-0.1,0.1s-0.1,0-0.1,0c-0.1,0-0.1,0-0.2,0
		c-0.1,0-0.2,0-0.2,0c-0.1,0-0.1,0-0.2,0s-0.1,0-0.1-0.1c0,0,0,0,0-0.1v-3.3c0-0.2,0-0.4-0.1-0.6c0-0.2-0.1-0.3-0.2-0.5
		c-0.1-0.1-0.2-0.2-0.3-0.3c-0.1-0.1-0.3-0.1-0.5-0.1c-0.2,0-0.5,0.1-0.7,0.3s-0.5,0.4-0.8,0.8v3.7c0,0,0,0.1,0,0.1c0,0,0,0-0.1,0.1
		s-0.1,0-0.2,0c-0.1,0-0.1,0-0.2,0c-0.1,0-0.2,0-0.2,0c-0.1,0-0.1,0-0.2,0s-0.1,0-0.1-0.1c0,0,0,0,0-0.1v-3.3c0-0.2,0-0.4-0.1-0.6
		c0-0.2-0.1-0.3-0.2-0.5c-0.1-0.1-0.2-0.2-0.3-0.3c-0.1-0.1-0.3-0.1-0.5-0.1c-0.2,0-0.5,0.1-0.7,0.3c-0.2,0.2-0.5,0.4-0.8,0.8v3.7
		c0,0,0,0.1,0,0.1c0,0,0,0-0.1,0.1s-0.1,0-0.1,0c-0.1,0-0.1,0-0.2,0c-0.1,0-0.2,0-0.2,0c-0.1,0-0.1,0-0.2,0s-0.1,0-0.1-0.1
		c0,0,0,0,0-0.1v-5.4c0,0,0-0.1,0-0.1c0,0,0,0,0.1-0.1c0,0,0.1,0,0.1,0c0.1,0,0.1,0,0.2,0c0.1,0,0.2,0,0.2,0c0.1,0,0.1,0,0.1,0
		s0.1,0,0.1,0.1c0,0,0,0,0,0.1v0.7c0.3-0.3,0.6-0.6,0.9-0.7c0.3-0.2,0.6-0.2,0.9-0.2c0.2,0,0.4,0,0.6,0.1s0.3,0.1,0.5,0.2
		c0.1,0.1,0.3,0.2,0.3,0.3c0.1,0.1,0.2,0.3,0.2,0.4c0.2-0.2,0.3-0.4,0.5-0.5c0.2-0.1,0.3-0.2,0.5-0.3s0.3-0.1,0.4-0.2
		c0.1,0,0.3-0.1,0.4-0.1c0.3,0,0.6,0.1,0.9,0.2s0.4,0.3,0.6,0.5c0.1,0.2,0.2,0.4,0.3,0.7c0.1,0.3,0.1,0.6,0.1,0.9V333.6z"/>
	<path class="st0" d="M156.4,326.5c0,0.2,0,0.4-0.1,0.5s-0.2,0.1-0.5,0.1c-0.2,0-0.4,0-0.5-0.1s-0.1-0.2-0.1-0.5
		c0-0.2,0-0.4,0.1-0.5c0.1-0.1,0.2-0.1,0.5-0.1c0.2,0,0.4,0,0.5,0.1C156.4,326.1,156.4,326.2,156.4,326.5z M156.3,333.6
		C156.3,333.7,156.3,333.7,156.3,333.6c0,0.1-0.1,0.1-0.1,0.1s-0.1,0-0.1,0c-0.1,0-0.1,0-0.2,0c-0.1,0-0.2,0-0.2,0
		c-0.1,0-0.1,0-0.2,0s-0.1,0-0.1-0.1c0,0,0,0,0-0.1v-5.4c0,0,0-0.1,0-0.1c0,0,0,0,0.1-0.1s0.1,0,0.2,0c0.1,0,0.1,0,0.2,0
		c0.1,0,0.2,0,0.2,0c0.1,0,0.1,0,0.1,0s0.1,0,0.1,0.1c0,0,0,0,0,0.1V333.6z"/>
	<path class="st0" d="M161.5,332.2c0,0.3-0.1,0.5-0.2,0.7c-0.1,0.2-0.2,0.4-0.4,0.5c-0.2,0.1-0.4,0.3-0.7,0.3
		c-0.3,0.1-0.5,0.1-0.9,0.1c-0.2,0-0.4,0-0.5,0c-0.2,0-0.3-0.1-0.5-0.1c-0.1,0-0.3-0.1-0.3-0.1c-0.1,0-0.2-0.1-0.2-0.1
		c0,0-0.1-0.1-0.1-0.2s0-0.2,0-0.3c0-0.1,0-0.1,0-0.2c0-0.1,0-0.1,0-0.1c0,0,0-0.1,0.1-0.1c0,0,0,0,0.1,0c0,0,0.1,0,0.2,0.1
		c0.1,0.1,0.2,0.1,0.3,0.2s0.3,0.1,0.4,0.2c0.2,0.1,0.4,0.1,0.6,0.1c0.2,0,0.3,0,0.5-0.1c0.1,0,0.3-0.1,0.4-0.2
		c0.1-0.1,0.2-0.2,0.2-0.3c0.1-0.1,0.1-0.2,0.1-0.4c0-0.2,0-0.3-0.1-0.4s-0.2-0.2-0.3-0.3c-0.1-0.1-0.3-0.1-0.4-0.2
		c-0.2-0.1-0.3-0.1-0.5-0.2c-0.2-0.1-0.3-0.1-0.5-0.2c-0.2-0.1-0.3-0.2-0.4-0.3c-0.1-0.1-0.2-0.3-0.3-0.4c-0.1-0.2-0.1-0.4-0.1-0.6
		c0-0.2,0-0.4,0.1-0.6c0.1-0.2,0.2-0.4,0.4-0.5c0.2-0.1,0.4-0.3,0.6-0.3c0.2-0.1,0.5-0.1,0.9-0.1c0.1,0,0.3,0,0.4,0
		c0.1,0,0.3,0.1,0.4,0.1c0.1,0,0.2,0.1,0.3,0.1c0.1,0,0.1,0.1,0.2,0.1c0,0,0.1,0.1,0.1,0.1c0,0,0,0.1,0,0.1c0,0,0,0.1,0,0.1
		c0,0,0,0.1,0,0.2c0,0.1,0,0.1,0,0.2s0,0.1,0,0.1c0,0,0,0.1-0.1,0.1c0,0,0,0-0.1,0c0,0-0.1,0-0.2-0.1c-0.1,0-0.2-0.1-0.3-0.1
		c-0.1,0-0.2-0.1-0.4-0.1c-0.1,0-0.3-0.1-0.5-0.1c-0.2,0-0.3,0-0.4,0.1c-0.1,0-0.2,0.1-0.3,0.2c-0.1,0.1-0.1,0.2-0.2,0.2
		c0,0.1-0.1,0.2-0.1,0.3c0,0.2,0,0.3,0.1,0.4c0.1,0.1,0.2,0.2,0.3,0.3c0.1,0.1,0.3,0.2,0.4,0.2c0.2,0.1,0.3,0.1,0.5,0.2
		s0.3,0.1,0.5,0.2c0.2,0.1,0.3,0.2,0.4,0.3c0.1,0.1,0.2,0.3,0.3,0.4C161.4,331.8,161.5,332,161.5,332.2z"/>
	<path class="st0" d="M170.2,333.6C170.2,333.7,170.2,333.7,170.2,333.6c0,0.1-0.1,0.1-0.1,0.1s-0.1,0-0.1,0c-0.1,0-0.1,0-0.2,0
		c-0.1,0-0.2,0-0.2,0c-0.1,0-0.1,0-0.1,0s-0.1,0-0.1-0.1c0,0,0-0.1,0-0.1v-0.7c-0.3,0.3-0.6,0.5-0.9,0.7c-0.3,0.2-0.6,0.3-1,0.3
		c-0.4,0-0.7-0.1-1-0.2c-0.3-0.2-0.5-0.4-0.7-0.6c-0.2-0.3-0.3-0.6-0.4-0.9s-0.1-0.7-0.1-1.1c0-0.5,0-0.9,0.1-1.2
		c0.1-0.4,0.2-0.7,0.4-1c0.2-0.3,0.4-0.5,0.7-0.6c0.3-0.1,0.6-0.2,1-0.2c0.3,0,0.6,0.1,0.9,0.2c0.3,0.1,0.5,0.3,0.8,0.6v-3.1
		c0,0,0-0.1,0-0.1c0,0,0,0,0.1-0.1s0.1,0,0.2,0c0.1,0,0.1,0,0.2,0c0.1,0,0.2,0,0.2,0c0.1,0,0.1,0,0.1,0s0.1,0,0.1,0.1
		c0,0,0,0.1,0,0.1V333.6z M169.2,329.9c-0.3-0.3-0.5-0.6-0.8-0.8c-0.2-0.2-0.5-0.3-0.8-0.3c-0.3,0-0.5,0.1-0.6,0.2s-0.3,0.3-0.4,0.5
		s-0.2,0.4-0.2,0.7s-0.1,0.5-0.1,0.8c0,0.3,0,0.5,0.1,0.8c0,0.3,0.1,0.5,0.2,0.7c0.1,0.2,0.2,0.4,0.4,0.5c0.2,0.1,0.4,0.2,0.6,0.2
		c0.1,0,0.3,0,0.4-0.1s0.2-0.1,0.4-0.2c0.1-0.1,0.3-0.2,0.4-0.3c0.1-0.1,0.3-0.3,0.4-0.5V329.9z"/>
	<path class="st0" d="M176.6,330.7c0,0.2,0,0.3-0.1,0.3c-0.1,0.1-0.2,0.1-0.3,0.1h-3.5c0,0.3,0,0.6,0.1,0.8c0.1,0.2,0.2,0.4,0.3,0.6
		c0.1,0.2,0.3,0.3,0.5,0.4c0.2,0.1,0.5,0.1,0.8,0.1c0.3,0,0.5,0,0.7-0.1c0.2,0,0.4-0.1,0.5-0.1c0.1-0.1,0.3-0.1,0.4-0.1
		c0.1,0,0.2-0.1,0.2-0.1c0,0,0.1,0,0.1,0s0,0,0.1,0.1c0,0,0,0.1,0,0.1s0,0.1,0,0.2c0,0.1,0,0.1,0,0.1c0,0,0,0.1,0,0.1
		c0,0,0,0.1,0,0.1c0,0,0,0-0.1,0.1c0,0-0.1,0.1-0.2,0.1c-0.1,0-0.2,0.1-0.4,0.1c-0.2,0-0.4,0.1-0.6,0.1c-0.2,0-0.5,0.1-0.7,0.1
		c-0.4,0-0.8-0.1-1.2-0.2s-0.6-0.3-0.8-0.5c-0.2-0.2-0.4-0.5-0.5-0.9s-0.2-0.8-0.2-1.3c0-0.5,0.1-0.9,0.2-1.2s0.3-0.7,0.5-0.9
		c0.2-0.3,0.5-0.5,0.8-0.6c0.3-0.1,0.7-0.2,1.1-0.2c0.4,0,0.8,0.1,1.1,0.2c0.3,0.1,0.5,0.3,0.7,0.5c0.2,0.2,0.3,0.5,0.4,0.8
		s0.1,0.6,0.1,1V330.7z M175.6,330.4c0-0.5-0.1-0.9-0.3-1.2s-0.6-0.4-1.1-0.4c-0.2,0-0.5,0-0.6,0.1c-0.2,0.1-0.3,0.2-0.5,0.4
		c-0.1,0.2-0.2,0.3-0.3,0.5c-0.1,0.2-0.1,0.4-0.1,0.6H175.6z"/>
	<path class="st0" d="M182.5,328.3C182.5,328.3,182.5,328.3,182.5,328.3c0,0.1,0,0.1,0,0.1s0,0,0,0.1c0,0,0,0,0,0.1l-1.8,5.1
		c0,0,0,0.1-0.1,0.1c0,0-0.1,0-0.1,0.1s-0.1,0-0.2,0c-0.1,0-0.2,0-0.3,0s-0.2,0-0.3,0c-0.1,0-0.1,0-0.2,0s-0.1,0-0.1-0.1
		c0,0,0-0.1-0.1-0.1l-1.8-5.1c0,0,0-0.1,0-0.1c0,0,0-0.1,0-0.1s0,0,0,0c0,0,0-0.1,0-0.1c0,0,0,0,0.1-0.1c0,0,0.1,0,0.1,0
		c0.1,0,0.1,0,0.2,0c0.1,0,0.2,0,0.3,0c0.1,0,0.1,0,0.2,0c0,0,0.1,0,0.1,0.1c0,0,0,0.1,0.1,0.1l1.5,4.4l0,0.1l0-0.1l1.5-4.4
		c0,0,0-0.1,0-0.1s0,0,0.1-0.1s0.1,0,0.2,0c0.1,0,0.2,0,0.3,0c0.1,0,0.2,0,0.2,0c0.1,0,0.1,0,0.1,0S182.4,328.2,182.5,328.3
		C182.4,328.2,182.5,328.2,182.5,328.3z"/>
	<path class="st0" d="M188,330.7c0,0.2,0,0.3-0.1,0.3c-0.1,0.1-0.2,0.1-0.3,0.1h-3.5c0,0.3,0,0.6,0.1,0.8c0.1,0.2,0.2,0.4,0.3,0.6
		c0.1,0.2,0.3,0.3,0.5,0.4c0.2,0.1,0.5,0.1,0.8,0.1c0.3,0,0.5,0,0.7-0.1c0.2,0,0.4-0.1,0.5-0.1c0.1-0.1,0.3-0.1,0.4-0.1
		c0.1,0,0.2-0.1,0.2-0.1c0,0,0.1,0,0.1,0s0,0,0.1,0.1c0,0,0,0.1,0,0.1s0,0.1,0,0.2c0,0.1,0,0.1,0,0.1c0,0,0,0.1,0,0.1
		c0,0,0,0.1,0,0.1c0,0,0,0-0.1,0.1c0,0-0.1,0.1-0.2,0.1c-0.1,0-0.2,0.1-0.4,0.1c-0.2,0-0.4,0.1-0.6,0.1c-0.2,0-0.5,0.1-0.7,0.1
		c-0.4,0-0.8-0.1-1.2-0.2s-0.6-0.3-0.8-0.5c-0.2-0.2-0.4-0.5-0.5-0.9s-0.2-0.8-0.2-1.3c0-0.5,0.1-0.9,0.2-1.2s0.3-0.7,0.5-0.9
		c0.2-0.3,0.5-0.5,0.8-0.6c0.3-0.1,0.7-0.2,1.1-0.2c0.4,0,0.8,0.1,1.1,0.2c0.3,0.1,0.5,0.3,0.7,0.5c0.2,0.2,0.3,0.5,0.4,0.8
		s0.1,0.6,0.1,1V330.7z M187,330.4c0-0.5-0.1-0.9-0.3-1.2s-0.6-0.4-1.1-0.4c-0.2,0-0.5,0-0.6,0.1c-0.2,0.1-0.3,0.2-0.5,0.4
		c-0.1,0.2-0.2,0.3-0.3,0.5c-0.1,0.2-0.1,0.4-0.1,0.6H187z"/>
	<path class="st0" d="M190.5,333.6C190.5,333.7,190.5,333.7,190.5,333.6c0,0.1-0.1,0.1-0.1,0.1s-0.1,0-0.1,0c-0.1,0-0.1,0-0.2,0
		c-0.1,0-0.2,0-0.2,0c-0.1,0-0.1,0-0.2,0s-0.1,0-0.1-0.1c0,0,0,0,0-0.1v-8c0,0,0-0.1,0-0.1c0,0,0,0,0.1-0.1c0,0,0.1,0,0.2,0
		s0.1,0,0.2,0c0.1,0,0.2,0,0.2,0s0.1,0,0.1,0c0,0,0.1,0,0.1,0.1c0,0,0,0.1,0,0.1V333.6z"/>
	<path class="st0" d="M197.3,330.9c0,0.4-0.1,0.8-0.2,1.2s-0.3,0.7-0.5,1c-0.2,0.3-0.5,0.5-0.9,0.6c-0.3,0.1-0.7,0.2-1.2,0.2
		c-0.4,0-0.8-0.1-1.2-0.2c-0.3-0.1-0.6-0.3-0.8-0.6c-0.2-0.3-0.4-0.6-0.5-0.9c-0.1-0.4-0.2-0.8-0.2-1.2c0-0.4,0.1-0.8,0.2-1.2
		s0.3-0.7,0.5-1c0.2-0.3,0.5-0.5,0.9-0.6c0.3-0.1,0.7-0.2,1.2-0.2c0.4,0,0.8,0.1,1.2,0.2c0.3,0.1,0.6,0.3,0.8,0.6s0.4,0.6,0.5,0.9
		C197.3,330.1,197.3,330.5,197.3,330.9z M196.3,331c0-0.3,0-0.6-0.1-0.8c-0.1-0.3-0.1-0.5-0.3-0.7c-0.1-0.2-0.3-0.3-0.5-0.5
		s-0.5-0.2-0.8-0.2c-0.3,0-0.5,0.1-0.8,0.2c-0.2,0.1-0.4,0.3-0.5,0.4s-0.2,0.4-0.3,0.7c-0.1,0.3-0.1,0.5-0.1,0.8
		c0,0.3,0,0.6,0.1,0.8s0.1,0.5,0.3,0.7c0.1,0.2,0.3,0.3,0.5,0.5s0.5,0.2,0.8,0.2c0.3,0,0.5-0.1,0.8-0.2c0.2-0.1,0.4-0.2,0.5-0.4
		s0.2-0.4,0.3-0.7C196.3,331.6,196.3,331.3,196.3,331z"/>
	<path class="st0" d="M203.7,330.9c0,0.5-0.1,0.9-0.2,1.3c-0.1,0.4-0.3,0.7-0.4,1c-0.2,0.3-0.4,0.5-0.7,0.6c-0.3,0.1-0.6,0.2-1,0.2
		c-0.2,0-0.3,0-0.4,0c-0.1,0-0.3-0.1-0.4-0.1c-0.1-0.1-0.3-0.2-0.4-0.3c-0.1-0.1-0.3-0.2-0.4-0.4v2.7c0,0,0,0.1,0,0.1
		c0,0,0,0-0.1,0.1c0,0-0.1,0-0.1,0s-0.1,0-0.2,0c-0.1,0-0.2,0-0.2,0s-0.1,0-0.2,0c0,0-0.1,0-0.1-0.1c0,0,0-0.1,0-0.1v-7.5
		c0,0,0-0.1,0-0.1c0,0,0,0,0.1-0.1c0,0,0.1,0,0.1,0c0.1,0,0.1,0,0.2,0c0.1,0,0.2,0,0.2,0c0.1,0,0.1,0,0.1,0c0,0,0.1,0,0.1,0.1
		c0,0,0,0.1,0,0.1v0.7c0.2-0.2,0.3-0.3,0.5-0.4s0.3-0.2,0.5-0.3c0.2-0.1,0.3-0.1,0.5-0.2c0.2,0,0.3-0.1,0.5-0.1c0.4,0,0.7,0.1,1,0.2
		c0.3,0.2,0.5,0.4,0.7,0.6c0.2,0.3,0.3,0.6,0.4,0.9C203.6,330.1,203.7,330.5,203.7,330.9z M202.7,331c0-0.3,0-0.5-0.1-0.8
		c0-0.3-0.1-0.5-0.2-0.7c-0.1-0.2-0.2-0.4-0.4-0.5c-0.2-0.1-0.4-0.2-0.6-0.2c-0.1,0-0.3,0-0.4,0.1c-0.1,0-0.3,0.1-0.4,0.2
		c-0.1,0.1-0.3,0.2-0.4,0.3c-0.1,0.1-0.3,0.3-0.4,0.5v2.1c0.3,0.3,0.5,0.6,0.8,0.8s0.5,0.3,0.8,0.3c0.2,0,0.5-0.1,0.6-0.2
		s0.3-0.3,0.4-0.5c0.1-0.2,0.2-0.4,0.2-0.7C202.6,331.5,202.7,331.2,202.7,331z"/>
	<path class="st0" d="M209.7,330.7c0,0.2,0,0.3-0.1,0.3c-0.1,0.1-0.2,0.1-0.3,0.1h-3.5c0,0.3,0,0.6,0.1,0.8c0.1,0.2,0.2,0.4,0.3,0.6
		c0.1,0.2,0.3,0.3,0.5,0.4c0.2,0.1,0.5,0.1,0.8,0.1c0.3,0,0.5,0,0.7-0.1c0.2,0,0.4-0.1,0.5-0.1c0.1-0.1,0.3-0.1,0.4-0.1
		c0.1,0,0.2-0.1,0.2-0.1c0,0,0.1,0,0.1,0s0,0,0.1,0.1c0,0,0,0.1,0,0.1s0,0.1,0,0.2c0,0.1,0,0.1,0,0.1c0,0,0,0.1,0,0.1
		c0,0,0,0.1,0,0.1c0,0,0,0-0.1,0.1c0,0-0.1,0.1-0.2,0.1c-0.1,0-0.2,0.1-0.4,0.1c-0.2,0-0.4,0.1-0.6,0.1c-0.2,0-0.5,0.1-0.7,0.1
		c-0.4,0-0.8-0.1-1.2-0.2s-0.6-0.3-0.8-0.5c-0.2-0.2-0.4-0.5-0.5-0.9s-0.2-0.8-0.2-1.3c0-0.5,0.1-0.9,0.2-1.2s0.3-0.7,0.5-0.9
		c0.2-0.3,0.5-0.5,0.8-0.6c0.3-0.1,0.7-0.2,1.1-0.2c0.4,0,0.8,0.1,1.1,0.2c0.3,0.1,0.5,0.3,0.7,0.5c0.2,0.2,0.3,0.5,0.4,0.8
		s0.1,0.6,0.1,1V330.7z M208.7,330.4c0-0.5-0.1-0.9-0.3-1.2s-0.6-0.4-1.1-0.4c-0.2,0-0.5,0-0.6,0.1c-0.2,0.1-0.3,0.2-0.5,0.4
		c-0.1,0.2-0.2,0.3-0.3,0.5c-0.1,0.2-0.1,0.4-0.1,0.6H208.7z"/>
	<path class="st0" d="M215.8,333.6C215.8,333.7,215.8,333.7,215.8,333.6c0,0.1-0.1,0.1-0.1,0.1s-0.1,0-0.1,0c-0.1,0-0.1,0-0.2,0
		c-0.1,0-0.2,0-0.2,0c-0.1,0-0.1,0-0.1,0s-0.1,0-0.1-0.1c0,0,0-0.1,0-0.1v-0.7c-0.3,0.3-0.6,0.5-0.9,0.7c-0.3,0.2-0.6,0.3-1,0.3
		c-0.4,0-0.7-0.1-1-0.2c-0.3-0.2-0.5-0.4-0.7-0.6c-0.2-0.3-0.3-0.6-0.4-0.9s-0.1-0.7-0.1-1.1c0-0.5,0-0.9,0.1-1.2
		c0.1-0.4,0.2-0.7,0.4-1c0.2-0.3,0.4-0.5,0.7-0.6c0.3-0.1,0.6-0.2,1-0.2c0.3,0,0.6,0.1,0.9,0.2c0.3,0.1,0.5,0.3,0.8,0.6v-3.1
		c0,0,0-0.1,0-0.1c0,0,0,0,0.1-0.1s0.1,0,0.2,0c0.1,0,0.1,0,0.2,0c0.1,0,0.2,0,0.2,0c0.1,0,0.1,0,0.1,0s0.1,0,0.1,0.1
		c0,0,0,0.1,0,0.1V333.6z M214.8,329.9c-0.3-0.3-0.5-0.6-0.8-0.8c-0.2-0.2-0.5-0.3-0.8-0.3c-0.3,0-0.5,0.1-0.6,0.2s-0.3,0.3-0.4,0.5
		s-0.2,0.4-0.2,0.7s-0.1,0.5-0.1,0.8c0,0.3,0,0.5,0.1,0.8c0,0.3,0.1,0.5,0.2,0.7c0.1,0.2,0.2,0.4,0.4,0.5c0.2,0.1,0.4,0.2,0.6,0.2
		c0.1,0,0.3,0,0.4-0.1s0.2-0.1,0.4-0.2c0.1-0.1,0.3-0.2,0.4-0.3c0.1-0.1,0.3-0.3,0.4-0.5V329.9z"/>
	<path class="st0" d="M223.3,326.1c0,0.1,0,0.1,0,0.2c0,0,0,0.1,0,0.1c0,0,0,0,0,0.1c0,0,0,0-0.1,0c0,0-0.1,0-0.1,0s-0.1,0-0.2-0.1
		c-0.1,0-0.1,0-0.2-0.1s-0.2,0-0.3,0c-0.1,0-0.3,0-0.4,0.1c-0.1,0-0.2,0.1-0.3,0.2c-0.1,0.1-0.1,0.2-0.1,0.4c0,0.2,0,0.4,0,0.6v0.6
		h1.2c0,0,0.1,0,0.1,0c0,0,0,0,0.1,0.1c0,0,0,0.1,0,0.1c0,0.1,0,0.1,0,0.2c0,0.1,0,0.2-0.1,0.3c0,0.1-0.1,0.1-0.1,0.1h-1.2v4.7
		c0,0,0,0.1,0,0.1c0,0,0,0-0.1,0.1s-0.1,0-0.2,0c-0.1,0-0.1,0-0.2,0s-0.2,0-0.2,0c-0.1,0-0.1,0-0.2,0c0,0-0.1,0-0.1-0.1
		c0,0,0,0,0-0.1v-4.7h-0.8c-0.1,0-0.1,0-0.1-0.1s0-0.2,0-0.3c0-0.1,0-0.1,0-0.2c0-0.1,0-0.1,0-0.1c0,0,0-0.1,0.1-0.1
		c0,0,0.1,0,0.1,0h0.8v-0.6c0-0.4,0-0.7,0.1-1c0.1-0.3,0.2-0.5,0.3-0.7c0.1-0.2,0.3-0.3,0.5-0.4c0.2-0.1,0.5-0.1,0.8-0.1
		c0.1,0,0.3,0,0.4,0c0.1,0,0.2,0.1,0.3,0.1c0.1,0,0.1,0.1,0.1,0.1c0,0,0,0.1,0.1,0.1c0,0,0,0.1,0,0.1S223.3,326,223.3,326.1z"/>
	<path class="st0" d="M227.3,328.6c0,0.1,0,0.2,0,0.2c0,0.1,0,0.1,0,0.1c0,0,0,0.1,0,0.1c0,0,0,0-0.1,0s-0.1,0-0.1,0
		c0,0-0.1,0-0.2-0.1s-0.1,0-0.2-0.1c-0.1,0-0.1,0-0.2,0c-0.1,0-0.2,0-0.3,0.1c-0.1,0-0.2,0.1-0.3,0.2c-0.1,0.1-0.2,0.2-0.3,0.4
		s-0.2,0.3-0.4,0.6v3.5c0,0,0,0.1,0,0.1c0,0,0,0-0.1,0.1s-0.1,0-0.1,0c-0.1,0-0.1,0-0.2,0c-0.1,0-0.2,0-0.2,0c-0.1,0-0.1,0-0.2,0
		s-0.1,0-0.1-0.1c0,0,0,0,0-0.1v-5.4c0,0,0-0.1,0-0.1c0,0,0,0,0.1-0.1c0,0,0.1,0,0.1,0c0.1,0,0.1,0,0.2,0c0.1,0,0.2,0,0.2,0
		c0.1,0,0.1,0,0.1,0s0.1,0,0.1,0.1c0,0,0,0,0,0.1v0.8c0.1-0.2,0.3-0.4,0.4-0.5c0.1-0.1,0.3-0.2,0.4-0.3c0.1-0.1,0.2-0.1,0.3-0.2
		c0.1,0,0.2,0,0.3,0c0.1,0,0.1,0,0.2,0c0.1,0,0.1,0,0.2,0c0.1,0,0.1,0,0.2,0.1c0.1,0,0.1,0,0.1,0.1c0,0,0,0,0,0.1c0,0,0,0,0,0.1
		c0,0,0,0.1,0,0.1S227.3,328.5,227.3,328.6z"/>
	<path class="st0" d="M233.2,330.9c0,0.4-0.1,0.8-0.2,1.2s-0.3,0.7-0.5,1c-0.2,0.3-0.5,0.5-0.9,0.6c-0.3,0.1-0.7,0.2-1.2,0.2
		c-0.4,0-0.8-0.1-1.2-0.2c-0.3-0.1-0.6-0.3-0.8-0.6c-0.2-0.3-0.4-0.6-0.5-0.9c-0.1-0.4-0.2-0.8-0.2-1.2c0-0.4,0.1-0.8,0.2-1.2
		s0.3-0.7,0.5-1c0.2-0.3,0.5-0.5,0.9-0.6c0.3-0.1,0.7-0.2,1.2-0.2c0.4,0,0.8,0.1,1.2,0.2c0.3,0.1,0.6,0.3,0.8,0.6s0.4,0.6,0.5,0.9
		C233.1,330.1,233.2,330.5,233.2,330.9z M232.1,331c0-0.3,0-0.6-0.1-0.8c-0.1-0.3-0.1-0.5-0.3-0.7c-0.1-0.2-0.3-0.3-0.5-0.5
		s-0.5-0.2-0.8-0.2c-0.3,0-0.5,0.1-0.8,0.2c-0.2,0.1-0.4,0.3-0.5,0.4s-0.2,0.4-0.3,0.7c-0.1,0.3-0.1,0.5-0.1,0.8
		c0,0.3,0,0.6,0.1,0.8s0.1,0.5,0.3,0.7c0.1,0.2,0.3,0.3,0.5,0.5s0.5,0.2,0.8,0.2c0.3,0,0.5-0.1,0.8-0.2c0.2-0.1,0.4-0.2,0.5-0.4
		s0.2-0.4,0.3-0.7C232.1,331.6,232.1,331.3,232.1,331z"/>
	<path class="st0" d="M242.6,333.6C242.6,333.7,242.6,333.7,242.6,333.6c0,0.1-0.1,0.1-0.1,0.1s-0.1,0-0.1,0c-0.1,0-0.1,0-0.2,0
		c-0.1,0-0.2,0-0.2,0c-0.1,0-0.1,0-0.2,0s-0.1,0-0.1-0.1c0,0,0,0,0-0.1v-3.3c0-0.2,0-0.4-0.1-0.6c0-0.2-0.1-0.3-0.2-0.5
		c-0.1-0.1-0.2-0.2-0.3-0.3c-0.1-0.1-0.3-0.1-0.5-0.1c-0.2,0-0.5,0.1-0.7,0.3s-0.5,0.4-0.8,0.8v3.7c0,0,0,0.1,0,0.1c0,0,0,0-0.1,0.1
		s-0.1,0-0.2,0c-0.1,0-0.1,0-0.2,0c-0.1,0-0.2,0-0.2,0c-0.1,0-0.1,0-0.2,0s-0.1,0-0.1-0.1c0,0,0,0,0-0.1v-3.3c0-0.2,0-0.4-0.1-0.6
		c0-0.2-0.1-0.3-0.2-0.5c-0.1-0.1-0.2-0.2-0.3-0.3c-0.1-0.1-0.3-0.1-0.5-0.1c-0.2,0-0.5,0.1-0.7,0.3c-0.2,0.2-0.5,0.4-0.8,0.8v3.7
		c0,0,0,0.1,0,0.1c0,0,0,0-0.1,0.1s-0.1,0-0.1,0c-0.1,0-0.1,0-0.2,0c-0.1,0-0.2,0-0.2,0c-0.1,0-0.1,0-0.2,0s-0.1,0-0.1-0.1
		c0,0,0,0,0-0.1v-5.4c0,0,0-0.1,0-0.1c0,0,0,0,0.1-0.1c0,0,0.1,0,0.1,0c0.1,0,0.1,0,0.2,0c0.1,0,0.2,0,0.2,0c0.1,0,0.1,0,0.1,0
		s0.1,0,0.1,0.1c0,0,0,0,0,0.1v0.7c0.3-0.3,0.6-0.6,0.9-0.7c0.3-0.2,0.6-0.2,0.9-0.2c0.2,0,0.4,0,0.6,0.1s0.3,0.1,0.5,0.2
		c0.1,0.1,0.3,0.2,0.3,0.3c0.1,0.1,0.2,0.3,0.2,0.4c0.2-0.2,0.3-0.4,0.5-0.5c0.2-0.1,0.3-0.2,0.5-0.3s0.3-0.1,0.4-0.2
		c0.1,0,0.3-0.1,0.4-0.1c0.3,0,0.6,0.1,0.9,0.2s0.4,0.3,0.6,0.5c0.1,0.2,0.2,0.4,0.3,0.7c0.1,0.3,0.1,0.6,0.1,0.9V333.6z"/>
	<path class="st0" d="M252.1,326.5c0,0.1,0,0.1,0,0.2s0,0.1,0,0.1c0,0,0,0.1-0.1,0.1s-0.1,0-0.1,0h-2.2v6.7c0,0,0,0.1,0,0.1
		c0,0,0,0-0.1,0.1c0,0-0.1,0-0.2,0s-0.1,0-0.2,0c-0.1,0-0.2,0-0.2,0c-0.1,0-0.1,0-0.2,0s-0.1,0-0.1-0.1c0,0,0-0.1,0-0.1V327h-2.2
		c0,0-0.1,0-0.1,0s0,0-0.1-0.1c0,0,0-0.1,0-0.1c0-0.1,0-0.1,0-0.2s0-0.1,0-0.2c0-0.1,0-0.1,0-0.1c0,0,0-0.1,0.1-0.1s0.1,0,0.1,0h5.4
		c0,0,0.1,0,0.1,0s0,0,0.1,0.1c0,0,0,0.1,0,0.1S252.1,326.5,252.1,326.5z"/>
	<path class="st0" d="M257,330.9c0,0.4-0.1,0.8-0.2,1.2s-0.3,0.7-0.5,1c-0.2,0.3-0.5,0.5-0.9,0.6c-0.3,0.1-0.7,0.2-1.2,0.2
		c-0.4,0-0.8-0.1-1.2-0.2c-0.3-0.1-0.6-0.3-0.8-0.6c-0.2-0.3-0.4-0.6-0.5-0.9c-0.1-0.4-0.2-0.8-0.2-1.2c0-0.4,0.1-0.8,0.2-1.2
		s0.3-0.7,0.5-1c0.2-0.3,0.5-0.5,0.9-0.6c0.3-0.1,0.7-0.2,1.2-0.2c0.4,0,0.8,0.1,1.2,0.2c0.3,0.1,0.6,0.3,0.8,0.6s0.4,0.6,0.5,0.9
		C256.9,330.1,257,330.5,257,330.9z M255.9,331c0-0.3,0-0.6-0.1-0.8c-0.1-0.3-0.1-0.5-0.3-0.7c-0.1-0.2-0.3-0.3-0.5-0.5
		s-0.5-0.2-0.8-0.2c-0.3,0-0.5,0.1-0.8,0.2c-0.2,0.1-0.4,0.3-0.5,0.4s-0.2,0.4-0.3,0.7c-0.1,0.3-0.1,0.5-0.1,0.8
		c0,0.3,0,0.6,0.1,0.8s0.1,0.5,0.3,0.7c0.1,0.2,0.3,0.3,0.5,0.5s0.5,0.2,0.8,0.2c0.3,0,0.5-0.1,0.8-0.2c0.2-0.1,0.4-0.2,0.5-0.4
		s0.2-0.4,0.3-0.7C255.9,331.6,255.9,331.3,255.9,331z"/>
	<path class="st0" d="M263.4,330.9c0,0.4-0.1,0.8-0.2,1.2s-0.3,0.7-0.5,1c-0.2,0.3-0.5,0.5-0.9,0.6c-0.3,0.1-0.7,0.2-1.2,0.2
		c-0.4,0-0.8-0.1-1.2-0.2c-0.3-0.1-0.6-0.3-0.8-0.6c-0.2-0.3-0.4-0.6-0.5-0.9c-0.1-0.4-0.2-0.8-0.2-1.2c0-0.4,0.1-0.8,0.2-1.2
		s0.3-0.7,0.5-1c0.2-0.3,0.5-0.5,0.9-0.6c0.3-0.1,0.7-0.2,1.2-0.2c0.4,0,0.8,0.1,1.2,0.2c0.3,0.1,0.6,0.3,0.8,0.6s0.4,0.6,0.5,0.9
		C263.3,330.1,263.4,330.5,263.4,330.9z M262.4,331c0-0.3,0-0.6-0.1-0.8c-0.1-0.3-0.1-0.5-0.3-0.7c-0.1-0.2-0.3-0.3-0.5-0.5
		s-0.5-0.2-0.8-0.2c-0.3,0-0.5,0.1-0.8,0.2c-0.2,0.1-0.4,0.3-0.5,0.4s-0.2,0.4-0.3,0.7c-0.1,0.3-0.1,0.5-0.1,0.8
		c0,0.3,0,0.6,0.1,0.8s0.1,0.5,0.3,0.7c0.1,0.2,0.3,0.3,0.5,0.5s0.5,0.2,0.8,0.2c0.3,0,0.5-0.1,0.8-0.2c0.2-0.1,0.4-0.2,0.5-0.4
		s0.2-0.4,0.3-0.7C262.3,331.6,262.4,331.3,262.4,331z"/>
	<path class="st0" d="M269.5,333.6C269.5,333.7,269.5,333.7,269.5,333.6c0,0.1-0.1,0.1-0.1,0.1s-0.1,0-0.1,0c-0.1,0-0.1,0-0.2,0
		c-0.1,0-0.2,0-0.2,0c-0.1,0-0.1,0-0.1,0s-0.1,0-0.1-0.1c0,0,0,0,0-0.1v-3.1c0-0.3,0-0.6-0.1-0.7c0-0.2-0.1-0.3-0.2-0.5
		c-0.1-0.1-0.2-0.2-0.4-0.3s-0.3-0.1-0.5-0.1c-0.2,0-0.5,0.1-0.7,0.3c-0.2,0.2-0.5,0.4-0.8,0.8v3.7c0,0,0,0.1,0,0.1c0,0,0,0-0.1,0.1
		s-0.1,0-0.1,0c-0.1,0-0.1,0-0.2,0c-0.1,0-0.2,0-0.2,0c-0.1,0-0.1,0-0.2,0s-0.1,0-0.1-0.1c0,0,0,0,0-0.1v-5.4c0,0,0-0.1,0-0.1
		c0,0,0,0,0.1-0.1c0,0,0.1,0,0.1,0c0.1,0,0.1,0,0.2,0c0.1,0,0.2,0,0.2,0c0.1,0,0.1,0,0.1,0s0.1,0,0.1,0.1c0,0,0,0,0,0.1v0.7
		c0.3-0.3,0.6-0.6,0.9-0.7s0.6-0.2,0.9-0.2c0.4,0,0.7,0.1,0.9,0.2c0.2,0.1,0.4,0.3,0.6,0.5c0.2,0.2,0.3,0.4,0.3,0.7
		c0.1,0.3,0.1,0.6,0.1,1V333.6z"/>
	<path class="st0" d="M274.7,333.4c0,0.1,0,0.1,0,0.2c0,0.1,0,0.1,0,0.1c0,0,0,0.1-0.1,0.1c0,0-0.1,0-0.1,0h-3.3
		c-0.1,0-0.2,0-0.2-0.1c-0.1-0.1-0.1-0.1-0.1-0.3v-0.2c0-0.1,0-0.1,0-0.1s0-0.1,0-0.1c0,0,0-0.1,0.1-0.1c0,0,0.1-0.1,0.1-0.2
		l2.4-3.7h-2.3c-0.1,0-0.1,0-0.2-0.1c0-0.1-0.1-0.2-0.1-0.3c0-0.1,0-0.1,0-0.2c0-0.1,0-0.1,0-0.1c0,0,0-0.1,0.1-0.1c0,0,0.1,0,0.1,0
		h3.1c0,0,0.1,0,0.1,0c0,0,0.1,0,0.1,0.1c0,0,0,0.1,0.1,0.1c0,0,0,0.1,0,0.2v0.2c0,0.1,0,0.1,0,0.2c0,0,0,0.1,0,0.1
		c0,0,0,0.1-0.1,0.1c0,0.1-0.1,0.1-0.1,0.2l-2.4,3.7h2.5c0,0,0.1,0,0.1,0c0,0,0,0,0.1,0.1c0,0,0,0.1,0,0.1
		C274.7,333.2,274.7,333.3,274.7,333.4z"/>
	<path class="st0" d="M277.4,332.9c0,0.1,0,0.2,0,0.3c0,0.1,0,0.2-0.1,0.3c0,0.1-0.1,0.2-0.1,0.3c0,0.1-0.1,0.2-0.2,0.3l-0.8,1.2
		c0,0,0,0.1-0.1,0.1c0,0-0.1,0-0.1,0.1c0,0-0.1,0-0.1,0s-0.1,0-0.2,0c-0.1,0-0.1,0-0.2,0c0,0-0.1,0-0.1,0c0,0,0,0,0-0.1
		c0,0,0-0.1,0-0.1l0.8-1.6v-0.8c0-0.1,0-0.2,0-0.3s0.1-0.1,0.1-0.1c0,0,0.1-0.1,0.2-0.1c0.1,0,0.2,0,0.3,0c0.1,0,0.2,0,0.3,0
		c0.1,0,0.1,0,0.2,0.1c0,0,0.1,0.1,0.1,0.1S277.4,332.8,277.4,332.9z"/>
	<path class="st0" d="M285.9,333.7c0,0,0,0.1,0,0.1c0,0-0.1,0-0.1,0.1s-0.1,0-0.2,0c-0.1,0-0.2,0-0.2,0s-0.1,0-0.1-0.1
		c0,0,0-0.1,0-0.1v-0.5c-0.2,0.3-0.5,0.4-0.8,0.6c-0.3,0.1-0.6,0.2-0.9,0.2c-0.3,0-0.5,0-0.8-0.1s-0.4-0.2-0.6-0.3
		c-0.2-0.1-0.3-0.3-0.4-0.5c-0.1-0.2-0.1-0.4-0.1-0.7c0-0.3,0.1-0.6,0.2-0.8c0.1-0.2,0.3-0.4,0.5-0.6c0.2-0.1,0.5-0.3,0.8-0.3
		c0.3-0.1,0.7-0.1,1.1-0.1h0.7v-0.4c0-0.2,0-0.4-0.1-0.5c0-0.2-0.1-0.3-0.2-0.4s-0.2-0.2-0.4-0.2c-0.2-0.1-0.3-0.1-0.6-0.1
		c-0.2,0-0.5,0-0.7,0.1c-0.2,0.1-0.4,0.1-0.5,0.2s-0.3,0.1-0.4,0.2s-0.2,0.1-0.2,0.1c0,0-0.1,0-0.1,0c0,0,0,0-0.1-0.1
		c0,0,0-0.1,0-0.1c0,0,0-0.1,0-0.2c0-0.1,0-0.2,0-0.2c0-0.1,0-0.1,0.1-0.2c0.1-0.1,0.1-0.1,0.3-0.2c0.1-0.1,0.3-0.1,0.5-0.2
		c0.2-0.1,0.4-0.1,0.6-0.1c0.2,0,0.4-0.1,0.6-0.1c0.4,0,0.7,0,1,0.1c0.3,0.1,0.5,0.2,0.7,0.4c0.2,0.2,0.3,0.4,0.4,0.6
		c0.1,0.3,0.1,0.5,0.1,0.9V333.7z M284.9,331.2h-0.8c-0.3,0-0.5,0-0.7,0.1c-0.2,0-0.4,0.1-0.5,0.2c-0.1,0.1-0.2,0.2-0.3,0.3
		c-0.1,0.1-0.1,0.3-0.1,0.4c0,0.3,0.1,0.5,0.3,0.7s0.4,0.2,0.7,0.2c0.3,0,0.5-0.1,0.7-0.2c0.2-0.1,0.5-0.3,0.7-0.6V331.2z"/>
	<path class="st0" d="M293.8,332.2c0,0.3-0.1,0.5-0.2,0.7c-0.1,0.2-0.2,0.4-0.4,0.5c-0.2,0.1-0.4,0.3-0.7,0.3
		c-0.3,0.1-0.5,0.1-0.9,0.1c-0.2,0-0.4,0-0.5,0c-0.2,0-0.3-0.1-0.5-0.1c-0.1,0-0.3-0.1-0.3-0.1c-0.1,0-0.2-0.1-0.2-0.1
		c0,0-0.1-0.1-0.1-0.2s0-0.2,0-0.3c0-0.1,0-0.1,0-0.2c0-0.1,0-0.1,0-0.1c0,0,0-0.1,0.1-0.1c0,0,0,0,0.1,0c0,0,0.1,0,0.2,0.1
		c0.1,0.1,0.2,0.1,0.3,0.2s0.3,0.1,0.4,0.2c0.2,0.1,0.4,0.1,0.6,0.1c0.2,0,0.3,0,0.5-0.1c0.1,0,0.3-0.1,0.4-0.2
		c0.1-0.1,0.2-0.2,0.2-0.3c0.1-0.1,0.1-0.2,0.1-0.4c0-0.2,0-0.3-0.1-0.4s-0.2-0.2-0.3-0.3c-0.1-0.1-0.3-0.1-0.4-0.2
		c-0.2-0.1-0.3-0.1-0.5-0.2c-0.2-0.1-0.3-0.1-0.5-0.2c-0.2-0.1-0.3-0.2-0.4-0.3c-0.1-0.1-0.2-0.3-0.3-0.4c-0.1-0.2-0.1-0.4-0.1-0.6
		c0-0.2,0-0.4,0.1-0.6c0.1-0.2,0.2-0.4,0.4-0.5c0.2-0.1,0.4-0.3,0.6-0.3c0.2-0.1,0.5-0.1,0.9-0.1c0.1,0,0.3,0,0.4,0
		c0.1,0,0.3,0.1,0.4,0.1c0.1,0,0.2,0.1,0.3,0.1c0.1,0,0.1,0.1,0.2,0.1c0,0,0.1,0.1,0.1,0.1c0,0,0,0.1,0,0.1c0,0,0,0.1,0,0.1
		c0,0,0,0.1,0,0.2c0,0.1,0,0.1,0,0.2s0,0.1,0,0.1c0,0,0,0.1-0.1,0.1c0,0,0,0-0.1,0c0,0-0.1,0-0.2-0.1c-0.1,0-0.2-0.1-0.3-0.1
		c-0.1,0-0.2-0.1-0.4-0.1c-0.1,0-0.3-0.1-0.5-0.1c-0.2,0-0.3,0-0.4,0.1c-0.1,0-0.2,0.1-0.3,0.2c-0.1,0.1-0.1,0.2-0.2,0.2
		c0,0.1-0.1,0.2-0.1,0.3c0,0.2,0,0.3,0.1,0.4c0.1,0.1,0.2,0.2,0.3,0.3c0.1,0.1,0.3,0.2,0.4,0.2c0.2,0.1,0.3,0.1,0.5,0.2
		s0.3,0.1,0.5,0.2c0.2,0.1,0.3,0.2,0.4,0.3c0.1,0.1,0.2,0.3,0.3,0.4C293.8,331.8,293.8,332,293.8,332.2z"/>
	<path class="st0" d="M300.2,330.9c0,0.4-0.1,0.8-0.2,1.2s-0.3,0.7-0.5,1c-0.2,0.3-0.5,0.5-0.9,0.6c-0.3,0.1-0.7,0.2-1.2,0.2
		c-0.4,0-0.8-0.1-1.2-0.2c-0.3-0.1-0.6-0.3-0.8-0.6c-0.2-0.3-0.4-0.6-0.5-0.9c-0.1-0.4-0.2-0.8-0.2-1.2c0-0.4,0.1-0.8,0.2-1.2
		s0.3-0.7,0.5-1c0.2-0.3,0.5-0.5,0.9-0.6c0.3-0.1,0.7-0.2,1.2-0.2c0.4,0,0.8,0.1,1.2,0.2c0.3,0.1,0.6,0.3,0.8,0.6s0.4,0.6,0.5,0.9
		C300.2,330.1,300.2,330.5,300.2,330.9z M299.2,331c0-0.3,0-0.6-0.1-0.8c-0.1-0.3-0.1-0.5-0.3-0.7c-0.1-0.2-0.3-0.3-0.5-0.5
		s-0.5-0.2-0.8-0.2c-0.3,0-0.5,0.1-0.8,0.2c-0.2,0.1-0.4,0.3-0.5,0.4s-0.2,0.4-0.3,0.7c-0.1,0.3-0.1,0.5-0.1,0.8
		c0,0.3,0,0.6,0.1,0.8s0.1,0.5,0.3,0.7c0.1,0.2,0.3,0.3,0.5,0.5s0.5,0.2,0.8,0.2c0.3,0,0.5-0.1,0.8-0.2c0.2-0.1,0.4-0.2,0.5-0.4
		s0.2-0.4,0.3-0.7C299.2,331.6,299.2,331.3,299.2,331z"/>
	<path class="st0" d="M302.9,328.9v4.7c0,0,0,0.1,0,0.1c0,0,0,0-0.1,0.1s-0.1,0-0.2,0c-0.1,0-0.1,0-0.2,0s-0.2,0-0.2,0
		c-0.1,0-0.1,0-0.2,0c0,0-0.1,0-0.1-0.1c0,0,0,0,0-0.1v-4.7h-0.8c-0.1,0-0.1,0-0.1-0.1s0-0.2,0-0.3c0-0.1,0-0.1,0-0.2
		c0-0.1,0-0.1,0-0.1c0,0,0-0.1,0.1-0.1c0,0,0.1,0,0.1,0h0.8v-0.6c0-0.4,0-0.7,0.1-1c0.1-0.3,0.2-0.5,0.3-0.7
		c0.1-0.2,0.3-0.3,0.5-0.4c0.2-0.1,0.5-0.1,0.8-0.1c0.1,0,0.3,0,0.4,0c0.1,0,0.2,0.1,0.3,0.1c0.1,0,0.1,0.1,0.1,0.1
		c0,0,0,0.1,0.1,0.1c0,0,0,0.1,0,0.1c0,0.1,0,0.1,0,0.2c0,0.1,0,0.1,0,0.2c0,0,0,0.1,0,0.1c0,0,0,0,0,0.1c0,0,0,0-0.1,0
		c0,0-0.1,0-0.1,0c0,0-0.1,0-0.1-0.1c-0.1,0-0.1,0-0.2-0.1c-0.1,0-0.2,0-0.3,0c-0.1,0-0.3,0-0.4,0.1c-0.1,0-0.2,0.1-0.2,0.2
		c-0.1,0.1-0.1,0.2-0.1,0.4c0,0.2,0,0.4,0,0.6v0.6h2.4v-1.3c0,0,0-0.1,0-0.1c0,0,0,0,0.1-0.1s0.1,0,0.1,0c0.1,0,0.1,0,0.2,0
		c0.1,0,0.2,0,0.2,0c0.1,0,0.1,0,0.1,0c0,0,0.1,0,0.1,0.1c0,0,0,0,0,0.1v1.3h1.4c0,0,0.1,0,0.1,0c0,0,0,0,0.1,0.1c0,0,0,0.1,0,0.1
		c0,0.1,0,0.1,0,0.2c0,0.1,0,0.2-0.1,0.3c0,0.1-0.1,0.1-0.1,0.1h-1.4v3c0,0.4,0.1,0.6,0.2,0.8c0.1,0.2,0.3,0.3,0.6,0.3
		c0.1,0,0.2,0,0.2,0c0.1,0,0.1,0,0.2-0.1c0.1,0,0.1,0,0.1-0.1c0,0,0.1,0,0.1,0c0,0,0,0,0.1,0c0,0,0,0,0,0.1s0,0.1,0,0.1
		c0,0,0,0.1,0,0.2c0,0.1,0,0.2,0,0.3c0,0.1,0,0.1-0.1,0.1c0,0-0.1,0.1-0.1,0.1c-0.1,0-0.1,0-0.2,0.1c-0.1,0-0.2,0-0.3,0
		c-0.1,0-0.2,0-0.3,0c-0.3,0-0.5,0-0.7-0.1c-0.2-0.1-0.4-0.2-0.5-0.3c-0.1-0.1-0.2-0.3-0.3-0.6s-0.1-0.5-0.1-0.8v-3.1H302.9z"/>
	<path class="st0" d="M316.7,328.3c0,0,0,0.1,0,0.1s0,0.1,0,0.1l-1.6,5.1c0,0,0,0.1-0.1,0.1c0,0-0.1,0-0.1,0.1s-0.1,0-0.2,0
		c-0.1,0-0.2,0-0.3,0c-0.1,0-0.2,0-0.3,0c-0.1,0-0.2,0-0.2,0s-0.1,0-0.1-0.1c0,0,0-0.1-0.1-0.1l-1.1-3.9l0-0.1l0,0.1l-1,3.9
		c0,0,0,0.1-0.1,0.1c0,0-0.1,0-0.1,0.1s-0.1,0-0.2,0c-0.1,0-0.2,0-0.3,0c-0.1,0-0.2,0-0.3,0c-0.1,0-0.1,0-0.2,0s-0.1,0-0.1-0.1
		c0,0,0-0.1-0.1-0.1l-1.6-5.1c0-0.1,0-0.1,0-0.1c0,0,0-0.1,0-0.1c0,0,0-0.1,0-0.1c0,0,0,0,0.1-0.1s0.1,0,0.2,0c0.1,0,0.1,0,0.2,0
		c0.1,0,0.2,0,0.3,0c0.1,0,0.1,0,0.2,0c0,0,0.1,0,0.1,0.1c0,0,0,0.1,0,0.1l1.3,4.4l0,0.1l0-0.1l1.2-4.4c0,0,0-0.1,0-0.1
		c0,0,0,0,0.1-0.1c0,0,0.1,0,0.1,0c0.1,0,0.1,0,0.2,0c0.1,0,0.2,0,0.2,0c0.1,0,0.1,0,0.1,0c0,0,0.1,0,0.1,0.1s0,0.1,0,0.1l1.3,4.4
		l0,0.1l0-0.1l1.3-4.4c0,0,0-0.1,0-0.1c0,0,0,0,0.1-0.1c0,0,0.1,0,0.2,0c0.1,0,0.2,0,0.3,0c0.1,0,0.2,0,0.2,0c0.1,0,0.1,0,0.1,0
		C316.6,328.2,316.7,328.2,316.7,328.3C316.7,328.2,316.7,328.2,316.7,328.3z"/>
	<path class="st0" d="M321.8,333.7c0,0,0,0.1,0,0.1c0,0-0.1,0-0.1,0.1s-0.1,0-0.2,0c-0.1,0-0.2,0-0.2,0s-0.1,0-0.1-0.1
		c0,0,0-0.1,0-0.1v-0.5c-0.2,0.3-0.5,0.4-0.8,0.6c-0.3,0.1-0.6,0.2-0.9,0.2c-0.3,0-0.5,0-0.8-0.1c-0.2-0.1-0.4-0.2-0.6-0.3
		c-0.2-0.1-0.3-0.3-0.4-0.5c-0.1-0.2-0.1-0.4-0.1-0.7c0-0.3,0.1-0.6,0.2-0.8c0.1-0.2,0.3-0.4,0.5-0.6s0.5-0.3,0.8-0.3
		c0.3-0.1,0.7-0.1,1.1-0.1h0.7v-0.4c0-0.2,0-0.4-0.1-0.5c0-0.2-0.1-0.3-0.2-0.4s-0.2-0.2-0.4-0.2c-0.2-0.1-0.3-0.1-0.6-0.1
		c-0.2,0-0.5,0-0.7,0.1s-0.4,0.1-0.5,0.2c-0.1,0.1-0.3,0.1-0.4,0.2c-0.1,0.1-0.2,0.1-0.2,0.1c0,0-0.1,0-0.1,0c0,0,0,0-0.1-0.1
		c0,0,0-0.1,0-0.1s0-0.1,0-0.2c0-0.1,0-0.2,0-0.2s0-0.1,0.1-0.2c0.1-0.1,0.1-0.1,0.3-0.2c0.1-0.1,0.3-0.1,0.5-0.2s0.4-0.1,0.6-0.1
		c0.2,0,0.4-0.1,0.6-0.1c0.4,0,0.7,0,1,0.1c0.3,0.1,0.5,0.2,0.7,0.4s0.3,0.4,0.4,0.6s0.1,0.5,0.1,0.9V333.7z M320.8,331.2H320
		c-0.3,0-0.5,0-0.7,0.1c-0.2,0-0.4,0.1-0.5,0.2c-0.1,0.1-0.2,0.2-0.3,0.3c-0.1,0.1-0.1,0.3-0.1,0.4c0,0.3,0.1,0.5,0.3,0.7
		c0.2,0.2,0.4,0.2,0.7,0.2c0.3,0,0.5-0.1,0.7-0.2s0.5-0.3,0.7-0.6V331.2z"/>
	<path class="st0" d="M326.8,328.6c0,0.1,0,0.2,0,0.2s0,0.1,0,0.1c0,0,0,0.1,0,0.1c0,0,0,0-0.1,0c0,0-0.1,0-0.1,0c0,0-0.1,0-0.2-0.1
		s-0.1,0-0.2-0.1c-0.1,0-0.1,0-0.2,0c-0.1,0-0.2,0-0.3,0.1c-0.1,0-0.2,0.1-0.3,0.2c-0.1,0.1-0.2,0.2-0.3,0.4s-0.2,0.3-0.4,0.6v3.5
		c0,0,0,0.1,0,0.1c0,0,0,0-0.1,0.1c0,0-0.1,0-0.1,0c-0.1,0-0.1,0-0.2,0c-0.1,0-0.2,0-0.2,0c-0.1,0-0.1,0-0.2,0s-0.1,0-0.1-0.1
		c0,0,0,0,0-0.1v-5.4c0,0,0-0.1,0-0.1c0,0,0,0,0.1-0.1c0,0,0.1,0,0.1,0c0.1,0,0.1,0,0.2,0c0.1,0,0.2,0,0.2,0c0.1,0,0.1,0,0.1,0
		c0,0,0.1,0,0.1,0.1c0,0,0,0,0,0.1v0.8c0.1-0.2,0.3-0.4,0.4-0.5s0.3-0.2,0.4-0.3c0.1-0.1,0.2-0.1,0.3-0.2c0.1,0,0.2,0,0.3,0
		c0.1,0,0.1,0,0.2,0s0.1,0,0.2,0c0.1,0,0.1,0,0.2,0.1c0.1,0,0.1,0,0.1,0.1c0,0,0,0,0,0.1c0,0,0,0,0,0.1c0,0,0,0.1,0,0.1
		S326.8,328.5,326.8,328.6z"/>
	<path class="st0" d="M332.3,330.7c0,0.2,0,0.3-0.1,0.3c-0.1,0.1-0.2,0.1-0.3,0.1h-3.5c0,0.3,0,0.6,0.1,0.8c0.1,0.2,0.2,0.4,0.3,0.6
		c0.1,0.2,0.3,0.3,0.5,0.4c0.2,0.1,0.5,0.1,0.8,0.1c0.3,0,0.5,0,0.7-0.1c0.2,0,0.4-0.1,0.5-0.1s0.3-0.1,0.4-0.1
		c0.1,0,0.2-0.1,0.2-0.1c0,0,0.1,0,0.1,0c0,0,0,0,0.1,0.1c0,0,0,0.1,0,0.1s0,0.1,0,0.2c0,0.1,0,0.1,0,0.1c0,0,0,0.1,0,0.1
		c0,0,0,0.1,0,0.1c0,0,0,0-0.1,0.1c0,0-0.1,0.1-0.2,0.1c-0.1,0-0.2,0.1-0.4,0.1s-0.4,0.1-0.6,0.1c-0.2,0-0.5,0.1-0.7,0.1
		c-0.4,0-0.8-0.1-1.2-0.2c-0.3-0.1-0.6-0.3-0.8-0.5s-0.4-0.5-0.5-0.9s-0.2-0.8-0.2-1.3c0-0.5,0.1-0.9,0.2-1.2s0.3-0.7,0.5-0.9
		c0.2-0.3,0.5-0.5,0.8-0.6c0.3-0.1,0.7-0.2,1.1-0.2c0.4,0,0.8,0.1,1.1,0.2c0.3,0.1,0.5,0.3,0.7,0.5c0.2,0.2,0.3,0.5,0.4,0.8
		c0.1,0.3,0.1,0.6,0.1,1V330.7z M331.3,330.4c0-0.5-0.1-0.9-0.3-1.2c-0.2-0.3-0.6-0.4-1.1-0.4c-0.2,0-0.5,0-0.6,0.1
		c-0.2,0.1-0.3,0.2-0.5,0.4c-0.1,0.2-0.2,0.3-0.3,0.5c-0.1,0.2-0.1,0.4-0.1,0.6H331.3z"/>
	<path class="st0" d="M341.5,330.9c0,0.4-0.1,0.8-0.2,1.2s-0.3,0.7-0.5,1c-0.2,0.3-0.5,0.5-0.9,0.6c-0.3,0.1-0.7,0.2-1.2,0.2
		c-0.4,0-0.8-0.1-1.2-0.2c-0.3-0.1-0.6-0.3-0.8-0.6s-0.4-0.6-0.5-0.9s-0.2-0.8-0.2-1.2c0-0.4,0.1-0.8,0.2-1.2s0.3-0.7,0.5-1
		c0.2-0.3,0.5-0.5,0.9-0.6c0.3-0.1,0.7-0.2,1.2-0.2c0.4,0,0.8,0.1,1.2,0.2c0.3,0.1,0.6,0.3,0.8,0.6s0.4,0.6,0.5,0.9
		S341.5,330.5,341.5,330.9z M340.5,331c0-0.3,0-0.6-0.1-0.8c-0.1-0.3-0.1-0.5-0.3-0.7c-0.1-0.2-0.3-0.3-0.5-0.5
		c-0.2-0.1-0.5-0.2-0.8-0.2c-0.3,0-0.5,0.1-0.8,0.2c-0.2,0.1-0.4,0.3-0.5,0.4c-0.1,0.2-0.2,0.4-0.3,0.7c-0.1,0.3-0.1,0.5-0.1,0.8
		c0,0.3,0,0.6,0.1,0.8c0.1,0.3,0.1,0.5,0.3,0.7c0.1,0.2,0.3,0.3,0.5,0.5c0.2,0.1,0.5,0.2,0.8,0.2c0.3,0,0.5-0.1,0.8-0.2
		c0.2-0.1,0.4-0.2,0.5-0.4c0.1-0.2,0.2-0.4,0.3-0.7C340.5,331.6,340.5,331.3,340.5,331z"/>
	<path class="st0" d="M346.1,328.6c0,0.1,0,0.2,0,0.2s0,0.1,0,0.1c0,0,0,0.1,0,0.1c0,0,0,0-0.1,0c0,0-0.1,0-0.1,0c0,0-0.1,0-0.2-0.1
		s-0.1,0-0.2-0.1c-0.1,0-0.1,0-0.2,0c-0.1,0-0.2,0-0.3,0.1c-0.1,0-0.2,0.1-0.3,0.2c-0.1,0.1-0.2,0.2-0.3,0.4s-0.2,0.3-0.4,0.6v3.5
		c0,0,0,0.1,0,0.1c0,0,0,0-0.1,0.1c0,0-0.1,0-0.1,0c-0.1,0-0.1,0-0.2,0c-0.1,0-0.2,0-0.2,0c-0.1,0-0.1,0-0.2,0s-0.1,0-0.1-0.1
		c0,0,0,0,0-0.1v-5.4c0,0,0-0.1,0-0.1c0,0,0,0,0.1-0.1c0,0,0.1,0,0.1,0c0.1,0,0.1,0,0.2,0c0.1,0,0.2,0,0.2,0c0.1,0,0.1,0,0.1,0
		c0,0,0.1,0,0.1,0.1c0,0,0,0,0,0.1v0.8c0.1-0.2,0.3-0.4,0.4-0.5s0.3-0.2,0.4-0.3c0.1-0.1,0.2-0.1,0.3-0.2c0.1,0,0.2,0,0.3,0
		c0.1,0,0.1,0,0.2,0s0.1,0,0.2,0c0.1,0,0.1,0,0.2,0.1c0.1,0,0.1,0,0.1,0.1c0,0,0,0,0,0.1c0,0,0,0,0,0.1c0,0,0,0.1,0,0.1
		S346.1,328.5,346.1,328.6z"/>
	<path class="st0" d="M348.3,326.5c0,0.2,0,0.4-0.1,0.5c-0.1,0.1-0.2,0.1-0.5,0.1c-0.2,0-0.4,0-0.5-0.1c-0.1-0.1-0.1-0.2-0.1-0.5
		c0-0.2,0-0.4,0.1-0.5c0.1-0.1,0.2-0.1,0.5-0.1c0.2,0,0.4,0,0.5,0.1C348.3,326.1,348.3,326.2,348.3,326.5z M348.2,333.6
		C348.2,333.7,348.2,333.7,348.2,333.6c0,0.1-0.1,0.1-0.1,0.1c0,0-0.1,0-0.1,0c-0.1,0-0.1,0-0.2,0c-0.1,0-0.2,0-0.2,0
		c-0.1,0-0.1,0-0.2,0s-0.1,0-0.1-0.1c0,0,0,0,0-0.1v-5.4c0,0,0-0.1,0-0.1c0,0,0,0,0.1-0.1s0.1,0,0.2,0c0.1,0,0.1,0,0.2,0
		c0.1,0,0.2,0,0.2,0c0.1,0,0.1,0,0.1,0c0,0,0.1,0,0.1,0.1c0,0,0,0,0,0.1V333.6z"/>
	<path class="st0" d="M354.5,328.5c0,0.1,0,0.2-0.1,0.3c0,0.1-0.1,0.1-0.1,0.1h-0.8c0.1,0.1,0.2,0.3,0.3,0.5s0.1,0.4,0.1,0.5
		c0,0.3,0,0.6-0.1,0.8s-0.2,0.4-0.4,0.6s-0.4,0.3-0.7,0.4c-0.3,0.1-0.5,0.1-0.8,0.1c-0.2,0-0.4,0-0.6-0.1s-0.3-0.1-0.5-0.2
		c-0.1,0.1-0.1,0.2-0.2,0.2c0,0.1-0.1,0.2-0.1,0.3c0,0.1,0.1,0.3,0.2,0.3c0.1,0.1,0.3,0.1,0.5,0.1l1.4,0.1c0.3,0,0.5,0,0.7,0.1
		s0.4,0.2,0.6,0.3s0.3,0.3,0.4,0.4c0.1,0.2,0.1,0.4,0.1,0.6c0,0.2-0.1,0.5-0.2,0.7c-0.1,0.2-0.3,0.4-0.5,0.6
		c-0.2,0.2-0.5,0.3-0.8,0.4c-0.3,0.1-0.7,0.1-1.2,0.1c-0.4,0-0.8,0-1.1-0.1c-0.3-0.1-0.6-0.2-0.7-0.3c-0.2-0.1-0.3-0.3-0.4-0.5
		c-0.1-0.2-0.1-0.4-0.1-0.6c0-0.1,0-0.3,0-0.4c0-0.1,0.1-0.2,0.1-0.4c0.1-0.1,0.1-0.2,0.2-0.3c0.1-0.1,0.2-0.2,0.3-0.3
		c-0.2-0.1-0.3-0.2-0.4-0.4c-0.1-0.2-0.1-0.3-0.1-0.5c0-0.2,0-0.5,0.1-0.6c0.1-0.2,0.2-0.4,0.4-0.5c-0.1-0.1-0.2-0.3-0.3-0.5
		c-0.1-0.2-0.1-0.4-0.1-0.7c0-0.3,0.1-0.6,0.2-0.8c0.1-0.2,0.2-0.4,0.4-0.6c0.2-0.2,0.4-0.3,0.7-0.4c0.3-0.1,0.5-0.1,0.8-0.1
		c0.2,0,0.3,0,0.5,0c0.1,0,0.3,0,0.4,0.1h1.6c0.1,0,0.1,0,0.2,0.1C354.5,328.3,354.5,328.4,354.5,328.5z M353.5,334.2
		c0-0.2-0.1-0.4-0.3-0.5s-0.4-0.2-0.8-0.2l-1.4,0c-0.1,0.1-0.2,0.2-0.3,0.3c-0.1,0.1-0.1,0.2-0.2,0.3c0,0.1-0.1,0.2-0.1,0.2
		c0,0.1,0,0.2,0,0.2c0,0.3,0.1,0.5,0.4,0.6c0.3,0.1,0.6,0.2,1.1,0.2c0.3,0,0.5,0,0.7-0.1s0.4-0.1,0.5-0.2c0.1-0.1,0.2-0.2,0.3-0.3
		S353.5,334.3,353.5,334.2z M353,329.9c0-0.4-0.1-0.7-0.3-0.9c-0.2-0.2-0.5-0.3-0.9-0.3c-0.2,0-0.4,0-0.5,0.1s-0.3,0.2-0.4,0.3
		s-0.2,0.2-0.2,0.4c0,0.1-0.1,0.3-0.1,0.5c0,0.4,0.1,0.6,0.3,0.8c0.2,0.2,0.5,0.3,0.8,0.3c0.2,0,0.4,0,0.5-0.1
		c0.1-0.1,0.3-0.1,0.4-0.3s0.2-0.2,0.2-0.4C353,330.2,353,330.1,353,329.9z"/>
	<path class="st0" d="M356.9,326.5c0,0.2,0,0.4-0.1,0.5c-0.1,0.1-0.2,0.1-0.5,0.1c-0.2,0-0.4,0-0.5-0.1c-0.1-0.1-0.1-0.2-0.1-0.5
		c0-0.2,0-0.4,0.1-0.5c0.1-0.1,0.2-0.1,0.5-0.1c0.2,0,0.4,0,0.5,0.1C356.8,326.1,356.9,326.2,356.9,326.5z M356.8,333.6
		C356.8,333.7,356.8,333.7,356.8,333.6c0,0.1-0.1,0.1-0.1,0.1c0,0-0.1,0-0.1,0c-0.1,0-0.1,0-0.2,0c-0.1,0-0.2,0-0.2,0
		c-0.1,0-0.1,0-0.2,0s-0.1,0-0.1-0.1c0,0,0,0,0-0.1v-5.4c0,0,0-0.1,0-0.1c0,0,0,0,0.1-0.1s0.1,0,0.2,0c0.1,0,0.1,0,0.2,0
		c0.1,0,0.2,0,0.2,0c0.1,0,0.1,0,0.1,0c0,0,0.1,0,0.1,0.1c0,0,0,0,0,0.1V333.6z"/>
	<path class="st0" d="M363.2,333.6C363.2,333.7,363.2,333.7,363.2,333.6c0,0.1-0.1,0.1-0.1,0.1s-0.1,0-0.1,0c-0.1,0-0.1,0-0.2,0
		c-0.1,0-0.2,0-0.2,0c-0.1,0-0.1,0-0.1,0s-0.1,0-0.1-0.1c0,0,0,0,0-0.1v-3.1c0-0.3,0-0.6-0.1-0.7c0-0.2-0.1-0.3-0.2-0.5
		c-0.1-0.1-0.2-0.2-0.4-0.3c-0.1-0.1-0.3-0.1-0.5-0.1c-0.2,0-0.5,0.1-0.7,0.3s-0.5,0.4-0.8,0.8v3.7c0,0,0,0.1,0,0.1c0,0,0,0-0.1,0.1
		c0,0-0.1,0-0.1,0c-0.1,0-0.1,0-0.2,0c-0.1,0-0.2,0-0.2,0c-0.1,0-0.1,0-0.2,0s-0.1,0-0.1-0.1c0,0,0,0,0-0.1v-5.4c0,0,0-0.1,0-0.1
		c0,0,0,0,0.1-0.1c0,0,0.1,0,0.1,0c0.1,0,0.1,0,0.2,0c0.1,0,0.2,0,0.2,0c0.1,0,0.1,0,0.1,0c0,0,0.1,0,0.1,0.1c0,0,0,0,0,0.1v0.7
		c0.3-0.3,0.6-0.6,0.9-0.7s0.6-0.2,0.9-0.2c0.4,0,0.7,0.1,0.9,0.2s0.4,0.3,0.6,0.5c0.2,0.2,0.3,0.4,0.3,0.7c0.1,0.3,0.1,0.6,0.1,1
		V333.6z"/>
	<path class="st0" d="M369,333.7c0,0,0,0.1,0,0.1c0,0-0.1,0-0.1,0.1s-0.1,0-0.2,0c-0.1,0-0.2,0-0.2,0s-0.1,0-0.1-0.1
		c0,0,0-0.1,0-0.1v-0.5c-0.2,0.3-0.5,0.4-0.8,0.6c-0.3,0.1-0.6,0.2-0.9,0.2c-0.3,0-0.5,0-0.8-0.1c-0.2-0.1-0.4-0.2-0.6-0.3
		c-0.2-0.1-0.3-0.3-0.4-0.5c-0.1-0.2-0.1-0.4-0.1-0.7c0-0.3,0.1-0.6,0.2-0.8c0.1-0.2,0.3-0.4,0.5-0.6s0.5-0.3,0.8-0.3
		c0.3-0.1,0.7-0.1,1.1-0.1h0.7v-0.4c0-0.2,0-0.4-0.1-0.5c0-0.2-0.1-0.3-0.2-0.4s-0.2-0.2-0.4-0.2c-0.2-0.1-0.3-0.1-0.6-0.1
		c-0.2,0-0.5,0-0.7,0.1s-0.4,0.1-0.5,0.2c-0.1,0.1-0.3,0.1-0.4,0.2c-0.1,0.1-0.2,0.1-0.2,0.1c0,0-0.1,0-0.1,0c0,0,0,0-0.1-0.1
		c0,0,0-0.1,0-0.1s0-0.1,0-0.2c0-0.1,0-0.2,0-0.2s0-0.1,0.1-0.2c0.1-0.1,0.1-0.1,0.3-0.2c0.1-0.1,0.3-0.1,0.5-0.2s0.4-0.1,0.6-0.1
		c0.2,0,0.4-0.1,0.6-0.1c0.4,0,0.7,0,1,0.1c0.3,0.1,0.5,0.2,0.7,0.4s0.3,0.4,0.4,0.6s0.1,0.5,0.1,0.9V333.7z M368,331.2h-0.8
		c-0.3,0-0.5,0-0.7,0.1c-0.2,0-0.4,0.1-0.5,0.2c-0.1,0.1-0.2,0.2-0.3,0.3c-0.1,0.1-0.1,0.3-0.1,0.4c0,0.3,0.1,0.5,0.3,0.7
		c0.2,0.2,0.4,0.2,0.7,0.2c0.3,0,0.5-0.1,0.7-0.2s0.5-0.3,0.7-0.6V331.2z"/>
	<path class="st0" d="M371.8,333.6C371.8,333.7,371.8,333.7,371.8,333.6c0,0.1-0.1,0.1-0.1,0.1c0,0-0.1,0-0.1,0c-0.1,0-0.1,0-0.2,0
		c-0.1,0-0.2,0-0.2,0c-0.1,0-0.1,0-0.2,0s-0.1,0-0.1-0.1c0,0,0,0,0-0.1v-8c0,0,0-0.1,0-0.1c0,0,0,0,0.1-0.1c0,0,0.1,0,0.2,0
		c0.1,0,0.1,0,0.2,0c0.1,0,0.2,0,0.2,0s0.1,0,0.1,0c0,0,0.1,0,0.1,0.1c0,0,0,0.1,0,0.1V333.6z"/>
	<path class="st0" d="M374.6,333.6C374.6,333.7,374.6,333.7,374.6,333.6c0,0.1-0.1,0.1-0.1,0.1c0,0-0.1,0-0.1,0c-0.1,0-0.1,0-0.2,0
		c-0.1,0-0.2,0-0.2,0c-0.1,0-0.1,0-0.2,0s-0.1,0-0.1-0.1c0,0,0,0,0-0.1v-8c0,0,0-0.1,0-0.1c0,0,0,0,0.1-0.1c0,0,0.1,0,0.2,0
		c0.1,0,0.1,0,0.2,0c0.1,0,0.2,0,0.2,0s0.1,0,0.1,0c0,0,0.1,0,0.1,0.1c0,0,0,0.1,0,0.1V333.6z"/>
	<path class="st0" d="M378.9,333.8l-0.7,2c0,0.1-0.1,0.1-0.2,0.1c-0.1,0-0.2,0-0.4,0c-0.1,0-0.2,0-0.3,0s-0.1,0-0.1-0.1
		c0,0-0.1-0.1-0.1-0.1c0,0,0-0.1,0-0.1l0.7-1.9c0,0-0.1,0-0.1-0.1c0,0-0.1-0.1-0.1-0.1l-1.9-5.1c0-0.1,0-0.1,0-0.2c0,0,0-0.1,0-0.1
		c0,0,0.1,0,0.2-0.1s0.2,0,0.3,0s0.2,0,0.3,0c0.1,0,0.1,0,0.2,0s0.1,0,0.1,0.1c0,0,0,0.1,0.1,0.1l1.5,4.3h0l1.5-4.3
		c0-0.1,0.1-0.1,0.1-0.1c0,0,0.1,0,0.2,0s0.2,0,0.3,0c0.1,0,0.2,0,0.3,0c0.1,0,0.1,0,0.2,0.1c0,0,0.1,0.1,0.1,0.1c0,0,0,0.1,0,0.2
		L378.9,333.8z"/>
	<path class="st0" d="M388.6,332.8c0,0.1,0,0.1,0,0.2s0,0.1,0,0.1c0,0,0,0.1,0,0.1c0,0,0,0.1-0.1,0.1s-0.1,0.1-0.3,0.2
		c-0.1,0.1-0.3,0.1-0.4,0.2c-0.1,0.1-0.3,0.1-0.5,0.1s-0.4,0.1-0.5,0.1c-0.4,0-0.7-0.1-1-0.2s-0.5-0.3-0.7-0.6
		c-0.2-0.2-0.4-0.5-0.5-0.9c-0.1-0.4-0.2-0.8-0.2-1.2c0-0.5,0.1-1,0.2-1.4c0.1-0.4,0.3-0.7,0.5-0.9s0.5-0.4,0.8-0.5
		c0.3-0.1,0.6-0.2,1-0.2c0.2,0,0.3,0,0.5,0c0.2,0,0.3,0.1,0.4,0.1s0.3,0.1,0.4,0.2s0.2,0.1,0.2,0.2s0.1,0.1,0.1,0.1c0,0,0,0.1,0,0.1
		c0,0,0,0.1,0,0.1c0,0,0,0.1,0,0.2c0,0.2,0,0.3-0.1,0.3c0,0.1-0.1,0.1-0.1,0.1c-0.1,0-0.1,0-0.2-0.1s-0.2-0.1-0.3-0.2
		c-0.1-0.1-0.3-0.2-0.4-0.2s-0.4-0.1-0.6-0.1c-0.5,0-0.8,0.2-1.1,0.5c-0.3,0.4-0.4,0.9-0.4,1.6c0,0.3,0,0.6,0.1,0.9s0.2,0.5,0.3,0.7
		s0.3,0.3,0.5,0.4c0.2,0.1,0.4,0.1,0.6,0.1c0.2,0,0.4,0,0.6-0.1s0.3-0.2,0.4-0.2c0.1-0.1,0.2-0.2,0.3-0.2c0.1-0.1,0.2-0.1,0.2-0.1
		c0,0,0.1,0,0.1,0c0,0,0,0,0.1,0.1c0,0,0,0.1,0,0.1S388.6,332.8,388.6,332.8z"/>
	<path class="st0" d="M393,328.6c0,0.1,0,0.2,0,0.2s0,0.1,0,0.1c0,0,0,0.1,0,0.1c0,0,0,0-0.1,0c0,0-0.1,0-0.1,0c0,0-0.1,0-0.2-0.1
		s-0.1,0-0.2-0.1c-0.1,0-0.1,0-0.2,0c-0.1,0-0.2,0-0.3,0.1c-0.1,0-0.2,0.1-0.3,0.2c-0.1,0.1-0.2,0.2-0.3,0.4s-0.2,0.3-0.4,0.6v3.5
		c0,0,0,0.1,0,0.1c0,0,0,0-0.1,0.1c0,0-0.1,0-0.1,0c-0.1,0-0.1,0-0.2,0c-0.1,0-0.2,0-0.2,0c-0.1,0-0.1,0-0.2,0s-0.1,0-0.1-0.1
		c0,0,0,0,0-0.1v-5.4c0,0,0-0.1,0-0.1c0,0,0,0,0.1-0.1c0,0,0.1,0,0.1,0c0.1,0,0.1,0,0.2,0c0.1,0,0.2,0,0.2,0c0.1,0,0.1,0,0.1,0
		c0,0,0.1,0,0.1,0.1c0,0,0,0,0,0.1v0.8c0.1-0.2,0.3-0.4,0.4-0.5s0.3-0.2,0.4-0.3c0.1-0.1,0.2-0.1,0.3-0.2c0.1,0,0.2,0,0.3,0
		c0.1,0,0.1,0,0.2,0s0.1,0,0.2,0c0.1,0,0.1,0,0.2,0.1c0.1,0,0.1,0,0.1,0.1c0,0,0,0,0,0.1c0,0,0,0,0,0.1c0,0,0,0.1,0,0.1
		S393,328.5,393,328.6z"/>
	<path class="st0" d="M398.5,330.7c0,0.2,0,0.3-0.1,0.3c-0.1,0.1-0.2,0.1-0.3,0.1h-3.5c0,0.3,0,0.6,0.1,0.8c0.1,0.2,0.2,0.4,0.3,0.6
		c0.1,0.2,0.3,0.3,0.5,0.4c0.2,0.1,0.5,0.1,0.8,0.1c0.3,0,0.5,0,0.7-0.1c0.2,0,0.4-0.1,0.5-0.1s0.3-0.1,0.4-0.1
		c0.1,0,0.2-0.1,0.2-0.1c0,0,0.1,0,0.1,0c0,0,0,0,0.1,0.1c0,0,0,0.1,0,0.1s0,0.1,0,0.2c0,0.1,0,0.1,0,0.1c0,0,0,0.1,0,0.1
		c0,0,0,0.1,0,0.1c0,0,0,0-0.1,0.1c0,0-0.1,0.1-0.2,0.1c-0.1,0-0.2,0.1-0.4,0.1s-0.4,0.1-0.6,0.1c-0.2,0-0.5,0.1-0.7,0.1
		c-0.4,0-0.8-0.1-1.2-0.2c-0.3-0.1-0.6-0.3-0.8-0.5s-0.4-0.5-0.5-0.9s-0.2-0.8-0.2-1.3c0-0.5,0.1-0.9,0.2-1.2s0.3-0.7,0.5-0.9
		c0.2-0.3,0.5-0.5,0.8-0.6c0.3-0.1,0.7-0.2,1.1-0.2c0.4,0,0.8,0.1,1.1,0.2c0.3,0.1,0.5,0.3,0.7,0.5c0.2,0.2,0.3,0.5,0.4,0.8
		c0.1,0.3,0.1,0.6,0.1,1V330.7z M397.5,330.4c0-0.5-0.1-0.9-0.3-1.2c-0.2-0.3-0.6-0.4-1.1-0.4c-0.2,0-0.5,0-0.6,0.1
		c-0.2,0.1-0.3,0.2-0.5,0.4c-0.1,0.2-0.2,0.3-0.3,0.5c-0.1,0.2-0.1,0.4-0.1,0.6H397.5z"/>
	<path class="st0" d="M404.1,333.7c0,0,0,0.1,0,0.1c0,0-0.1,0-0.1,0.1s-0.1,0-0.2,0c-0.1,0-0.2,0-0.2,0s-0.1,0-0.1-0.1
		c0,0,0-0.1,0-0.1v-0.5c-0.2,0.3-0.5,0.4-0.8,0.6c-0.3,0.1-0.6,0.2-0.9,0.2c-0.3,0-0.5,0-0.8-0.1c-0.2-0.1-0.4-0.2-0.6-0.3
		c-0.2-0.1-0.3-0.3-0.4-0.5c-0.1-0.2-0.1-0.4-0.1-0.7c0-0.3,0.1-0.6,0.2-0.8c0.1-0.2,0.3-0.4,0.5-0.6s0.5-0.3,0.8-0.3
		c0.3-0.1,0.7-0.1,1.1-0.1h0.7v-0.4c0-0.2,0-0.4-0.1-0.5c0-0.2-0.1-0.3-0.2-0.4s-0.2-0.2-0.4-0.2c-0.2-0.1-0.3-0.1-0.6-0.1
		c-0.2,0-0.5,0-0.7,0.1s-0.4,0.1-0.5,0.2c-0.1,0.1-0.3,0.1-0.4,0.2c-0.1,0.1-0.2,0.1-0.2,0.1c0,0-0.1,0-0.1,0c0,0,0,0-0.1-0.1
		c0,0,0-0.1,0-0.1s0-0.1,0-0.2c0-0.1,0-0.2,0-0.2s0-0.1,0.1-0.2c0.1-0.1,0.1-0.1,0.3-0.2c0.1-0.1,0.3-0.1,0.5-0.2s0.4-0.1,0.6-0.1
		c0.2,0,0.4-0.1,0.6-0.1c0.4,0,0.7,0,1,0.1c0.3,0.1,0.5,0.2,0.7,0.4s0.3,0.4,0.4,0.6s0.1,0.5,0.1,0.9V333.7z M403.1,331.2h-0.8
		c-0.3,0-0.5,0-0.7,0.1c-0.2,0-0.4,0.1-0.5,0.2c-0.1,0.1-0.2,0.2-0.3,0.3c-0.1,0.1-0.1,0.3-0.1,0.4c0,0.3,0.1,0.5,0.3,0.7
		c0.2,0.2,0.4,0.2,0.7,0.2c0.3,0,0.5-0.1,0.7-0.2s0.5-0.3,0.7-0.6V331.2z"/>
	<path class="st0" d="M408.5,333.3c0,0.1,0,0.2,0,0.3c0,0.1,0,0.1-0.1,0.1c0,0-0.1,0.1-0.1,0.1c-0.1,0-0.1,0-0.2,0.1
		c-0.1,0-0.2,0-0.3,0c-0.1,0-0.2,0-0.3,0c-0.3,0-0.5,0-0.7-0.1c-0.2-0.1-0.4-0.2-0.5-0.3c-0.1-0.1-0.2-0.3-0.3-0.6s-0.1-0.5-0.1-0.8
		v-3.1h-0.8c-0.1,0-0.1,0-0.1-0.1c0-0.1-0.1-0.2-0.1-0.3c0-0.1,0-0.1,0-0.2c0-0.1,0-0.1,0-0.1c0,0,0-0.1,0.1-0.1c0,0,0.1,0,0.1,0
		h0.7v-1.3c0,0,0-0.1,0-0.1c0,0,0,0,0.1-0.1c0,0,0.1,0,0.2,0c0.1,0,0.1,0,0.2,0c0.1,0,0.2,0,0.2,0c0.1,0,0.1,0,0.1,0s0.1,0,0.1,0.1
		c0,0,0,0,0,0.1v1.3h1.4c0,0,0.1,0,0.1,0c0,0,0,0,0.1,0.1c0,0,0,0.1,0,0.1c0,0.1,0,0.1,0,0.2c0,0.1,0,0.2-0.1,0.3
		c0,0.1-0.1,0.1-0.1,0.1H407v3c0,0.4,0.1,0.6,0.2,0.8c0.1,0.2,0.3,0.3,0.6,0.3c0.1,0,0.2,0,0.2,0c0.1,0,0.1,0,0.2-0.1
		c0.1,0,0.1,0,0.1-0.1c0,0,0.1,0,0.1,0c0,0,0,0,0.1,0c0,0,0,0,0,0.1c0,0,0,0.1,0,0.1S408.5,333.2,408.5,333.3z"/>
	<path class="st0" d="M414.3,330.7c0,0.2,0,0.3-0.1,0.3c-0.1,0.1-0.2,0.1-0.3,0.1h-3.5c0,0.3,0,0.6,0.1,0.8c0.1,0.2,0.2,0.4,0.3,0.6
		c0.1,0.2,0.3,0.3,0.5,0.4c0.2,0.1,0.5,0.1,0.8,0.1c0.3,0,0.5,0,0.7-0.1c0.2,0,0.4-0.1,0.5-0.1s0.3-0.1,0.4-0.1
		c0.1,0,0.2-0.1,0.2-0.1c0,0,0.1,0,0.1,0c0,0,0,0,0.1,0.1c0,0,0,0.1,0,0.1s0,0.1,0,0.2c0,0.1,0,0.1,0,0.1c0,0,0,0.1,0,0.1
		c0,0,0,0.1,0,0.1c0,0,0,0-0.1,0.1c0,0-0.1,0.1-0.2,0.1c-0.1,0-0.2,0.1-0.4,0.1s-0.4,0.1-0.6,0.1c-0.2,0-0.5,0.1-0.7,0.1
		c-0.4,0-0.8-0.1-1.2-0.2c-0.3-0.1-0.6-0.3-0.8-0.5s-0.4-0.5-0.5-0.9s-0.2-0.8-0.2-1.3c0-0.5,0.1-0.9,0.2-1.2s0.3-0.7,0.5-0.9
		c0.2-0.3,0.5-0.5,0.8-0.6c0.3-0.1,0.7-0.2,1.1-0.2c0.4,0,0.8,0.1,1.1,0.2c0.3,0.1,0.5,0.3,0.7,0.5c0.2,0.2,0.3,0.5,0.4,0.8
		c0.1,0.3,0.1,0.6,0.1,1V330.7z M413.3,330.4c0-0.5-0.1-0.9-0.3-1.2c-0.2-0.3-0.6-0.4-1.1-0.4c-0.2,0-0.5,0-0.6,0.1
		c-0.2,0.1-0.3,0.2-0.5,0.4c-0.1,0.2-0.2,0.3-0.3,0.5c-0.1,0.2-0.1,0.4-0.1,0.6H413.3z"/>
	<path class="st0" d="M420.4,333.6C420.4,333.7,420.4,333.7,420.4,333.6c0,0.1-0.1,0.1-0.1,0.1c0,0-0.1,0-0.1,0c-0.1,0-0.1,0-0.2,0
		c-0.1,0-0.2,0-0.2,0c-0.1,0-0.1,0-0.1,0c0,0-0.1,0-0.1-0.1c0,0,0-0.1,0-0.1v-0.7c-0.3,0.3-0.6,0.5-0.9,0.7c-0.3,0.2-0.6,0.3-1,0.3
		c-0.4,0-0.7-0.1-1-0.2c-0.3-0.2-0.5-0.4-0.7-0.6c-0.2-0.3-0.3-0.6-0.4-0.9c-0.1-0.4-0.1-0.7-0.1-1.1c0-0.5,0-0.9,0.1-1.2
		c0.1-0.4,0.2-0.7,0.4-1c0.2-0.3,0.4-0.5,0.7-0.6c0.3-0.1,0.6-0.2,1-0.2c0.3,0,0.6,0.1,0.9,0.2c0.3,0.1,0.5,0.3,0.8,0.6v-3.1
		c0,0,0-0.1,0-0.1s0,0,0.1-0.1c0,0,0.1,0,0.2,0c0.1,0,0.1,0,0.2,0c0.1,0,0.2,0,0.2,0c0.1,0,0.1,0,0.1,0c0,0,0.1,0,0.1,0.1
		s0,0.1,0,0.1V333.6z M419.4,329.9c-0.3-0.3-0.5-0.6-0.8-0.8c-0.2-0.2-0.5-0.3-0.8-0.3c-0.3,0-0.5,0.1-0.6,0.2s-0.3,0.3-0.4,0.5
		s-0.2,0.4-0.2,0.7s-0.1,0.5-0.1,0.8c0,0.3,0,0.5,0.1,0.8c0,0.3,0.1,0.5,0.2,0.7c0.1,0.2,0.2,0.4,0.4,0.5s0.4,0.2,0.6,0.2
		c0.1,0,0.3,0,0.4-0.1s0.2-0.1,0.4-0.2c0.1-0.1,0.3-0.2,0.4-0.3c0.1-0.1,0.3-0.3,0.4-0.5V329.9z"/>
	<path class="st0" d="M429.9,330.9c0,0.5-0.1,0.9-0.2,1.3c-0.1,0.4-0.3,0.7-0.4,1c-0.2,0.3-0.4,0.5-0.7,0.6c-0.3,0.1-0.6,0.2-1,0.2
		c-0.2,0-0.3,0-0.5-0.1c-0.1,0-0.3-0.1-0.4-0.2c-0.1-0.1-0.3-0.2-0.4-0.3c-0.1-0.1-0.3-0.3-0.4-0.4v0.7c0,0,0,0.1,0,0.1
		c0,0,0,0-0.1,0.1c0,0-0.1,0-0.1,0c-0.1,0-0.1,0-0.2,0c-0.1,0-0.1,0-0.2,0c-0.1,0-0.1,0-0.1,0c0,0-0.1,0-0.1-0.1c0,0,0-0.1,0-0.1v-8
		c0,0,0-0.1,0-0.1c0,0,0,0,0.1-0.1c0,0,0.1,0,0.2,0c0.1,0,0.1,0,0.2,0c0.1,0,0.2,0,0.2,0s0.1,0,0.1,0c0,0,0.1,0,0.1,0.1
		c0,0,0,0.1,0,0.1v3.2c0.2-0.2,0.3-0.3,0.5-0.4c0.1-0.1,0.3-0.2,0.4-0.3c0.1-0.1,0.3-0.1,0.4-0.2c0.1,0,0.3,0,0.5,0
		c0.4,0,0.7,0.1,1,0.2c0.3,0.2,0.5,0.4,0.7,0.6c0.2,0.3,0.3,0.6,0.4,0.9S429.9,330.5,429.9,330.9z M428.9,331c0-0.3,0-0.5-0.1-0.8
		c0-0.3-0.1-0.5-0.2-0.7c-0.1-0.2-0.2-0.4-0.4-0.5s-0.4-0.2-0.6-0.2c-0.1,0-0.3,0-0.4,0.1c-0.1,0-0.3,0.1-0.4,0.2s-0.3,0.2-0.4,0.3
		c-0.1,0.1-0.3,0.3-0.4,0.5v2.1c0.3,0.3,0.5,0.6,0.8,0.8c0.2,0.2,0.5,0.3,0.8,0.3c0.2,0,0.5-0.1,0.6-0.2s0.3-0.3,0.4-0.5
		c0.1-0.2,0.2-0.4,0.2-0.7S428.9,331.3,428.9,331z"/>
	<path class="st0" d="M433.7,333.8l-0.7,2c0,0.1-0.1,0.1-0.2,0.1c-0.1,0-0.2,0-0.4,0c-0.1,0-0.2,0-0.3,0s-0.1,0-0.1-0.1
		c0,0-0.1-0.1-0.1-0.1c0,0,0-0.1,0-0.1l0.7-1.9c0,0-0.1,0-0.1-0.1c0,0-0.1-0.1-0.1-0.1l-1.9-5.1c0-0.1,0-0.1,0-0.2c0,0,0-0.1,0-0.1
		c0,0,0.1,0,0.2-0.1s0.2,0,0.3,0s0.2,0,0.3,0c0.1,0,0.1,0,0.2,0s0.1,0,0.1,0.1c0,0,0,0.1,0.1,0.1l1.5,4.3h0l1.5-4.3
		c0-0.1,0.1-0.1,0.1-0.1c0,0,0.1,0,0.2,0s0.2,0,0.3,0c0.1,0,0.2,0,0.3,0c0.1,0,0.1,0,0.2,0.1c0,0,0.1,0.1,0.1,0.1c0,0,0,0.1,0,0.2
		L433.7,333.8z"/>
	<path class="st0" d="M445.6,329.8c0,0.7-0.1,1.3-0.3,1.7c-0.2,0.5-0.4,0.9-0.7,1.2c-0.3,0.3-0.7,0.6-1.2,0.7s-1,0.2-1.7,0.2h-1.6
		c-0.1,0-0.2,0-0.3-0.1c-0.1-0.1-0.1-0.2-0.1-0.3v-6.9c0-0.2,0-0.3,0.1-0.3c0.1-0.1,0.2-0.1,0.3-0.1h1.7c0.7,0,1.2,0.1,1.7,0.3
		c0.5,0.2,0.8,0.4,1.2,0.7c0.3,0.3,0.5,0.7,0.7,1.2C445.5,328.7,445.6,329.2,445.6,329.8z M444.5,329.9c0-0.4-0.1-0.8-0.2-1.2
		s-0.3-0.7-0.5-0.9c-0.2-0.3-0.5-0.5-0.8-0.6c-0.3-0.1-0.8-0.2-1.3-0.2h-1v6h1.1c0.5,0,0.9-0.1,1.2-0.2c0.3-0.1,0.6-0.3,0.8-0.6
		s0.4-0.6,0.5-1S444.5,330.4,444.5,329.9z"/>
	<path class="st0" d="M448.2,326.5c0,0.2,0,0.4-0.1,0.5c-0.1,0.1-0.2,0.1-0.5,0.1c-0.2,0-0.4,0-0.5-0.1c-0.1-0.1-0.1-0.2-0.1-0.5
		c0-0.2,0-0.4,0.1-0.5c0.1-0.1,0.2-0.1,0.5-0.1c0.2,0,0.4,0,0.5,0.1C448.1,326.1,448.2,326.2,448.2,326.5z M448.1,333.6
		C448.1,333.7,448.1,333.7,448.1,333.6c0,0.1-0.1,0.1-0.1,0.1c0,0-0.1,0-0.1,0c-0.1,0-0.1,0-0.2,0c-0.1,0-0.2,0-0.2,0
		c-0.1,0-0.1,0-0.2,0s-0.1,0-0.1-0.1c0,0,0,0,0-0.1v-5.4c0,0,0-0.1,0-0.1c0,0,0,0,0.1-0.1s0.1,0,0.2,0c0.1,0,0.1,0,0.2,0
		c0.1,0,0.2,0,0.2,0c0.1,0,0.1,0,0.1,0c0,0,0.1,0,0.1,0.1c0,0,0,0,0,0.1V333.6z"/>
	<path class="st0" d="M454.4,328.5c0,0.1,0,0.2-0.1,0.3c0,0.1-0.1,0.1-0.1,0.1h-0.8c0.1,0.1,0.2,0.3,0.3,0.5s0.1,0.4,0.1,0.5
		c0,0.3,0,0.6-0.1,0.8s-0.2,0.4-0.4,0.6s-0.4,0.3-0.7,0.4c-0.3,0.1-0.5,0.1-0.8,0.1c-0.2,0-0.4,0-0.6-0.1s-0.3-0.1-0.5-0.2
		c-0.1,0.1-0.1,0.2-0.2,0.2c0,0.1-0.1,0.2-0.1,0.3c0,0.1,0.1,0.3,0.2,0.3c0.1,0.1,0.3,0.1,0.5,0.1l1.4,0.1c0.3,0,0.5,0,0.7,0.1
		s0.4,0.2,0.6,0.3s0.3,0.3,0.4,0.4c0.1,0.2,0.1,0.4,0.1,0.6c0,0.2-0.1,0.5-0.2,0.7c-0.1,0.2-0.3,0.4-0.5,0.6
		c-0.2,0.2-0.5,0.3-0.8,0.4c-0.3,0.1-0.7,0.1-1.2,0.1c-0.4,0-0.8,0-1.1-0.1c-0.3-0.1-0.6-0.2-0.7-0.3c-0.2-0.1-0.3-0.3-0.4-0.5
		c-0.1-0.2-0.1-0.4-0.1-0.6c0-0.1,0-0.3,0-0.4c0-0.1,0.1-0.2,0.1-0.4c0.1-0.1,0.1-0.2,0.2-0.3c0.1-0.1,0.2-0.2,0.3-0.3
		c-0.2-0.1-0.3-0.2-0.4-0.4c-0.1-0.2-0.1-0.3-0.1-0.5c0-0.2,0-0.5,0.1-0.6c0.1-0.2,0.2-0.4,0.4-0.5c-0.1-0.1-0.2-0.3-0.3-0.5
		c-0.1-0.2-0.1-0.4-0.1-0.7c0-0.3,0.1-0.6,0.2-0.8c0.1-0.2,0.2-0.4,0.4-0.6c0.2-0.2,0.4-0.3,0.7-0.4c0.3-0.1,0.5-0.1,0.8-0.1
		c0.2,0,0.3,0,0.5,0c0.1,0,0.3,0,0.4,0.1h1.6c0.1,0,0.1,0,0.2,0.1C454.4,328.3,454.4,328.4,454.4,328.5z M453.3,334.2
		c0-0.2-0.1-0.4-0.3-0.5s-0.4-0.2-0.8-0.2l-1.4,0c-0.1,0.1-0.2,0.2-0.3,0.3c-0.1,0.1-0.1,0.2-0.2,0.3c0,0.1-0.1,0.2-0.1,0.2
		c0,0.1,0,0.2,0,0.2c0,0.3,0.1,0.5,0.4,0.6c0.3,0.1,0.6,0.2,1.1,0.2c0.3,0,0.5,0,0.7-0.1s0.4-0.1,0.5-0.2c0.1-0.1,0.2-0.2,0.3-0.3
		S453.3,334.3,453.3,334.2z M452.8,329.9c0-0.4-0.1-0.7-0.3-0.9c-0.2-0.2-0.5-0.3-0.9-0.3c-0.2,0-0.4,0-0.5,0.1s-0.3,0.2-0.4,0.3
		s-0.2,0.2-0.2,0.4c0,0.1-0.1,0.3-0.1,0.5c0,0.4,0.1,0.6,0.3,0.8c0.2,0.2,0.5,0.3,0.8,0.3c0.2,0,0.4,0,0.5-0.1
		c0.1-0.1,0.3-0.1,0.4-0.3s0.2-0.2,0.2-0.4C452.8,330.2,452.8,330.1,452.8,329.9z"/>
	<path class="st0" d="M456.7,326.5c0,0.2,0,0.4-0.1,0.5c-0.1,0.1-0.2,0.1-0.5,0.1c-0.2,0-0.4,0-0.5-0.1c-0.1-0.1-0.1-0.2-0.1-0.5
		c0-0.2,0-0.4,0.1-0.5c0.1-0.1,0.2-0.1,0.5-0.1c0.2,0,0.4,0,0.5,0.1C456.7,326.1,456.7,326.2,456.7,326.5z M456.6,333.6
		C456.6,333.7,456.6,333.7,456.6,333.6c0,0.1-0.1,0.1-0.1,0.1c0,0-0.1,0-0.1,0c-0.1,0-0.1,0-0.2,0c-0.1,0-0.2,0-0.2,0
		c-0.1,0-0.1,0-0.2,0s-0.1,0-0.1-0.1c0,0,0,0,0-0.1v-5.4c0,0,0-0.1,0-0.1c0,0,0,0,0.1-0.1s0.1,0,0.2,0c0.1,0,0.1,0,0.2,0
		c0.1,0,0.2,0,0.2,0c0.1,0,0.1,0,0.1,0c0,0,0.1,0,0.1,0.1c0,0,0,0,0,0.1V333.6z"/>
	<path class="st0" d="M461.2,333.3c0,0.1,0,0.2,0,0.3c0,0.1,0,0.1-0.1,0.1c0,0-0.1,0.1-0.1,0.1c-0.1,0-0.1,0-0.2,0.1
		c-0.1,0-0.2,0-0.3,0c-0.1,0-0.2,0-0.3,0c-0.3,0-0.5,0-0.7-0.1c-0.2-0.1-0.4-0.2-0.5-0.3c-0.1-0.1-0.2-0.3-0.3-0.6s-0.1-0.5-0.1-0.8
		v-3.1h-0.8c-0.1,0-0.1,0-0.1-0.1c0-0.1-0.1-0.2-0.1-0.3c0-0.1,0-0.1,0-0.2c0-0.1,0-0.1,0-0.1c0,0,0-0.1,0.1-0.1c0,0,0.1,0,0.1,0
		h0.7v-1.3c0,0,0-0.1,0-0.1c0,0,0,0,0.1-0.1c0,0,0.1,0,0.2,0c0.1,0,0.1,0,0.2,0c0.1,0,0.2,0,0.2,0c0.1,0,0.1,0,0.1,0s0.1,0,0.1,0.1
		c0,0,0,0,0,0.1v1.3h1.4c0,0,0.1,0,0.1,0c0,0,0,0,0.1,0.1c0,0,0,0.1,0,0.1c0,0.1,0,0.1,0,0.2c0,0.1,0,0.2-0.1,0.3
		c0,0.1-0.1,0.1-0.1,0.1h-1.4v3c0,0.4,0.1,0.6,0.2,0.8c0.1,0.2,0.3,0.3,0.6,0.3c0.1,0,0.2,0,0.2,0c0.1,0,0.1,0,0.2-0.1
		c0.1,0,0.1,0,0.1-0.1c0,0,0.1,0,0.1,0c0,0,0,0,0.1,0c0,0,0,0,0,0.1c0,0,0,0.1,0,0.1S461.2,333.2,461.2,333.3z"/>
	<path class="st0" d="M466.4,333.7c0,0,0,0.1,0,0.1c0,0-0.1,0-0.1,0.1s-0.1,0-0.2,0c-0.1,0-0.2,0-0.2,0s-0.1,0-0.1-0.1
		c0,0,0-0.1,0-0.1v-0.5c-0.2,0.3-0.5,0.4-0.8,0.6c-0.3,0.1-0.6,0.2-0.9,0.2c-0.3,0-0.5,0-0.8-0.1c-0.2-0.1-0.4-0.2-0.6-0.3
		c-0.2-0.1-0.3-0.3-0.4-0.5c-0.1-0.2-0.1-0.4-0.1-0.7c0-0.3,0.1-0.6,0.2-0.8c0.1-0.2,0.3-0.4,0.5-0.6s0.5-0.3,0.8-0.3
		c0.3-0.1,0.7-0.1,1.1-0.1h0.7v-0.4c0-0.2,0-0.4-0.1-0.5c0-0.2-0.1-0.3-0.2-0.4s-0.2-0.2-0.4-0.2c-0.2-0.1-0.3-0.1-0.6-0.1
		c-0.2,0-0.5,0-0.7,0.1s-0.4,0.1-0.5,0.2c-0.1,0.1-0.3,0.1-0.4,0.2c-0.1,0.1-0.2,0.1-0.2,0.1c0,0-0.1,0-0.1,0c0,0,0,0-0.1-0.1
		c0,0,0-0.1,0-0.1s0-0.1,0-0.2c0-0.1,0-0.2,0-0.2s0-0.1,0.1-0.2c0.1-0.1,0.1-0.1,0.3-0.2c0.1-0.1,0.3-0.1,0.5-0.2s0.4-0.1,0.6-0.1
		c0.2,0,0.4-0.1,0.6-0.1c0.4,0,0.7,0,1,0.1c0.3,0.1,0.5,0.2,0.7,0.4s0.3,0.4,0.4,0.6s0.1,0.5,0.1,0.9V333.7z M465.4,331.2h-0.8
		c-0.3,0-0.5,0-0.7,0.1c-0.2,0-0.4,0.1-0.5,0.2c-0.1,0.1-0.2,0.2-0.3,0.3c-0.1,0.1-0.1,0.3-0.1,0.4c0,0.3,0.1,0.5,0.3,0.7
		c0.2,0.2,0.4,0.2,0.7,0.2c0.3,0,0.5-0.1,0.7-0.2s0.5-0.3,0.7-0.6V331.2z"/>
	<path class="st0" d="M469.2,333.6C469.2,333.7,469.2,333.7,469.2,333.6c0,0.1-0.1,0.1-0.1,0.1c0,0-0.1,0-0.1,0c-0.1,0-0.1,0-0.2,0
		c-0.1,0-0.2,0-0.2,0c-0.1,0-0.1,0-0.2,0s-0.1,0-0.1-0.1c0,0,0,0,0-0.1v-8c0,0,0-0.1,0-0.1c0,0,0,0,0.1-0.1c0,0,0.1,0,0.2,0
		c0.1,0,0.1,0,0.2,0c0.1,0,0.2,0,0.2,0s0.1,0,0.1,0c0,0,0.1,0,0.1,0.1c0,0,0,0.1,0,0.1V333.6z"/>
	<path class="st0" d="M477,333.6c0,0,0,0.1-0.1,0.1c0,0-0.1,0-0.1,0.1c0,0-0.1,0-0.2,0c-0.1,0-0.2,0-0.3,0c-0.1,0-0.2,0-0.2,0
		c-0.1,0-0.1,0-0.2,0c0,0-0.1,0-0.1,0c0,0-0.1,0-0.1,0c0,0,0,0-0.1-0.1c0,0,0,0,0-0.1l-2.5-7.2c0-0.1,0-0.2-0.1-0.2s0-0.1,0.1-0.1
		c0,0,0.1,0,0.2-0.1c0.1,0,0.2,0,0.3,0c0.1,0,0.2,0,0.3,0s0.1,0,0.2,0c0,0,0.1,0,0.1,0.1c0,0,0,0.1,0.1,0.1l2.2,6.5h0l2.2-6.5
		c0,0,0-0.1,0-0.1c0,0,0,0,0.1-0.1c0,0,0.1,0,0.2,0s0.2,0,0.3,0c0.1,0,0.2,0,0.3,0c0.1,0,0.1,0,0.1,0.1c0,0,0,0.1,0,0.1
		s0,0.1-0.1,0.2L477,333.6z"/>
	<path class="st0" d="M481.8,326.5c0,0.2,0,0.4-0.1,0.5c-0.1,0.1-0.2,0.1-0.5,0.1c-0.2,0-0.4,0-0.5-0.1c-0.1-0.1-0.1-0.2-0.1-0.5
		c0-0.2,0-0.4,0.1-0.5c0.1-0.1,0.2-0.1,0.5-0.1c0.2,0,0.4,0,0.5,0.1C481.7,326.1,481.8,326.2,481.8,326.5z M481.7,333.6
		C481.7,333.7,481.7,333.7,481.7,333.6c0,0.1-0.1,0.1-0.1,0.1c0,0-0.1,0-0.1,0c-0.1,0-0.1,0-0.2,0c-0.1,0-0.2,0-0.2,0
		c-0.1,0-0.1,0-0.2,0s-0.1,0-0.1-0.1c0,0,0,0,0-0.1v-5.4c0,0,0-0.1,0-0.1c0,0,0,0,0.1-0.1s0.1,0,0.2,0c0.1,0,0.1,0,0.2,0
		c0.1,0,0.2,0,0.2,0c0.1,0,0.1,0,0.1,0c0,0,0.1,0,0.1,0.1c0,0,0,0,0,0.1V333.6z"/>
	<path class="st0" d="M488.1,333.6C488.1,333.7,488.1,333.7,488.1,333.6c0,0.1-0.1,0.1-0.1,0.1c0,0-0.1,0-0.1,0c-0.1,0-0.1,0-0.2,0
		c-0.1,0-0.2,0-0.2,0c-0.1,0-0.1,0-0.1,0c0,0-0.1,0-0.1-0.1c0,0,0-0.1,0-0.1v-0.7c-0.3,0.3-0.6,0.5-0.9,0.7c-0.3,0.2-0.6,0.3-1,0.3
		c-0.4,0-0.7-0.1-1-0.2c-0.3-0.2-0.5-0.4-0.7-0.6c-0.2-0.3-0.3-0.6-0.4-0.9c-0.1-0.4-0.1-0.7-0.1-1.1c0-0.5,0-0.9,0.1-1.2
		c0.1-0.4,0.2-0.7,0.4-1c0.2-0.3,0.4-0.5,0.7-0.6c0.3-0.1,0.6-0.2,1-0.2c0.3,0,0.6,0.1,0.9,0.2c0.3,0.1,0.5,0.3,0.8,0.6v-3.1
		c0,0,0-0.1,0-0.1s0,0,0.1-0.1c0,0,0.1,0,0.2,0c0.1,0,0.1,0,0.2,0c0.1,0,0.2,0,0.2,0c0.1,0,0.1,0,0.1,0c0,0,0.1,0,0.1,0.1
		s0,0.1,0,0.1V333.6z M487.1,329.9c-0.3-0.3-0.5-0.6-0.8-0.8c-0.2-0.2-0.5-0.3-0.8-0.3c-0.3,0-0.5,0.1-0.6,0.2s-0.3,0.3-0.4,0.5
		s-0.2,0.4-0.2,0.7s-0.1,0.5-0.1,0.8c0,0.3,0,0.5,0.1,0.8c0,0.3,0.1,0.5,0.2,0.7c0.1,0.2,0.2,0.4,0.4,0.5s0.4,0.2,0.6,0.2
		c0.1,0,0.3,0,0.4-0.1s0.2-0.1,0.4-0.2c0.1-0.1,0.3-0.2,0.4-0.3c0.1-0.1,0.3-0.3,0.4-0.5V329.9z"/>
	<path class="st0" d="M494.5,330.7c0,0.2,0,0.3-0.1,0.3c-0.1,0.1-0.2,0.1-0.3,0.1h-3.5c0,0.3,0,0.6,0.1,0.8c0.1,0.2,0.2,0.4,0.3,0.6
		c0.1,0.2,0.3,0.3,0.5,0.4c0.2,0.1,0.5,0.1,0.8,0.1c0.3,0,0.5,0,0.7-0.1c0.2,0,0.4-0.1,0.5-0.1s0.3-0.1,0.4-0.1
		c0.1,0,0.2-0.1,0.2-0.1c0,0,0.1,0,0.1,0c0,0,0,0,0.1,0.1c0,0,0,0.1,0,0.1s0,0.1,0,0.2c0,0.1,0,0.1,0,0.1c0,0,0,0.1,0,0.1
		c0,0,0,0.1,0,0.1c0,0,0,0-0.1,0.1c0,0-0.1,0.1-0.2,0.1c-0.1,0-0.2,0.1-0.4,0.1s-0.4,0.1-0.6,0.1c-0.2,0-0.5,0.1-0.7,0.1
		c-0.4,0-0.8-0.1-1.2-0.2c-0.3-0.1-0.6-0.3-0.8-0.5s-0.4-0.5-0.5-0.9s-0.2-0.8-0.2-1.3c0-0.5,0.1-0.9,0.2-1.2s0.3-0.7,0.5-0.9
		c0.2-0.3,0.5-0.5,0.8-0.6c0.3-0.1,0.7-0.2,1.1-0.2c0.4,0,0.8,0.1,1.1,0.2c0.3,0.1,0.5,0.3,0.7,0.5c0.2,0.2,0.3,0.5,0.4,0.8
		c0.1,0.3,0.1,0.6,0.1,1V330.7z M493.5,330.4c0-0.5-0.1-0.9-0.3-1.2c-0.2-0.3-0.6-0.4-1.1-0.4c-0.2,0-0.5,0-0.6,0.1
		c-0.2,0.1-0.3,0.2-0.5,0.4c-0.1,0.2-0.2,0.3-0.3,0.5c-0.1,0.2-0.1,0.4-0.1,0.6H493.5z"/>
	<path class="st0" d="M501,330.9c0,0.4-0.1,0.8-0.2,1.2s-0.3,0.7-0.5,1c-0.2,0.3-0.5,0.5-0.9,0.6c-0.3,0.1-0.7,0.2-1.2,0.2
		c-0.4,0-0.8-0.1-1.2-0.2c-0.3-0.1-0.6-0.3-0.8-0.6s-0.4-0.6-0.5-0.9s-0.2-0.8-0.2-1.2c0-0.4,0.1-0.8,0.2-1.2s0.3-0.7,0.5-1
		c0.2-0.3,0.5-0.5,0.9-0.6c0.3-0.1,0.7-0.2,1.2-0.2c0.4,0,0.8,0.1,1.2,0.2c0.3,0.1,0.6,0.3,0.8,0.6s0.4,0.6,0.5,0.9
		S501,330.5,501,330.9z M499.9,331c0-0.3,0-0.6-0.1-0.8c-0.1-0.3-0.1-0.5-0.3-0.7c-0.1-0.2-0.3-0.3-0.5-0.5
		c-0.2-0.1-0.5-0.2-0.8-0.2c-0.3,0-0.5,0.1-0.8,0.2c-0.2,0.1-0.4,0.3-0.5,0.4c-0.1,0.2-0.2,0.4-0.3,0.7c-0.1,0.3-0.1,0.5-0.1,0.8
		c0,0.3,0,0.6,0.1,0.8c0.1,0.3,0.1,0.5,0.3,0.7c0.1,0.2,0.3,0.3,0.5,0.5c0.2,0.1,0.5,0.2,0.8,0.2c0.3,0,0.5-0.1,0.8-0.2
		c0.2-0.1,0.4-0.2,0.5-0.4c0.1-0.2,0.2-0.4,0.3-0.7C499.9,331.6,499.9,331.3,499.9,331z"/>
	<path class="st0" d="M509.4,331.6c0,0.4-0.1,0.7-0.2,1c-0.1,0.3-0.3,0.5-0.6,0.7s-0.5,0.3-0.8,0.4c-0.3,0.1-0.7,0.1-1,0.1
		c-0.3,0-0.5,0-0.7-0.1c-0.2,0-0.4-0.1-0.6-0.2s-0.3-0.1-0.4-0.2s-0.2-0.1-0.2-0.2c0,0-0.1-0.1-0.1-0.2c0-0.1,0-0.2,0-0.3
		c0-0.1,0-0.2,0-0.2s0-0.1,0-0.1c0,0,0-0.1,0.1-0.1c0,0,0.1,0,0.1,0c0.1,0,0.1,0,0.2,0.1c0.1,0.1,0.2,0.1,0.4,0.2
		c0.2,0.1,0.4,0.2,0.6,0.2c0.2,0.1,0.5,0.1,0.8,0.1c0.2,0,0.4,0,0.6-0.1s0.3-0.1,0.5-0.3c0.1-0.1,0.2-0.2,0.3-0.4
		c0.1-0.2,0.1-0.3,0.1-0.5c0-0.2,0-0.4-0.1-0.6c-0.1-0.2-0.2-0.3-0.4-0.4c-0.2-0.1-0.3-0.2-0.6-0.3c-0.2-0.1-0.4-0.2-0.6-0.3
		c-0.2-0.1-0.4-0.2-0.6-0.3c-0.2-0.1-0.4-0.3-0.6-0.4c-0.2-0.2-0.3-0.4-0.4-0.6s-0.2-0.5-0.2-0.8c0-0.3,0.1-0.6,0.2-0.9
		s0.3-0.5,0.5-0.6c0.2-0.2,0.5-0.3,0.7-0.4c0.3-0.1,0.6-0.1,0.9-0.1c0.2,0,0.3,0,0.5,0c0.2,0,0.3,0.1,0.5,0.1c0.2,0,0.3,0.1,0.4,0.2
		s0.2,0.1,0.2,0.1c0,0,0.1,0.1,0.1,0.1c0,0,0,0,0,0.1c0,0,0,0.1,0,0.1c0,0,0,0.1,0,0.2c0,0.1,0,0.1,0,0.2s0,0.1,0,0.1
		c0,0,0,0.1-0.1,0.1c0,0,0,0-0.1,0c0,0-0.1,0-0.2-0.1c-0.1-0.1-0.2-0.1-0.3-0.2c-0.1-0.1-0.3-0.1-0.5-0.2c-0.2-0.1-0.4-0.1-0.6-0.1
		c-0.2,0-0.4,0-0.6,0.1c-0.2,0.1-0.3,0.1-0.4,0.2c-0.1,0.1-0.2,0.2-0.2,0.3s-0.1,0.3-0.1,0.4c0,0.2,0,0.4,0.1,0.6
		c0.1,0.2,0.2,0.3,0.4,0.4s0.4,0.2,0.6,0.3c0.2,0.1,0.4,0.2,0.6,0.3c0.2,0.1,0.4,0.2,0.6,0.3s0.4,0.3,0.6,0.4
		c0.2,0.2,0.3,0.4,0.4,0.6C509.4,331.1,509.4,331.3,509.4,331.6z"/>
	<path class="st0" d="M512,333.1c0,0.3,0,0.5-0.1,0.6c-0.1,0.1-0.3,0.1-0.5,0.1c-0.2,0-0.4,0-0.5-0.1c-0.1-0.1-0.1-0.3-0.1-0.5
		c0-0.3,0-0.5,0.1-0.6c0.1-0.1,0.3-0.1,0.5-0.1c0.2,0,0.4,0,0.5,0.1C512,332.7,512,332.9,512,333.1z"/>
	<path class="st0" d="M518.7,328.3c0,0.4-0.1,0.7-0.2,1c-0.1,0.3-0.3,0.6-0.5,0.8c-0.2,0.2-0.5,0.4-0.9,0.5
		c-0.3,0.1-0.8,0.2-1.2,0.2H515v2.8c0,0,0,0.1,0,0.1c0,0,0,0-0.1,0.1c0,0-0.1,0-0.2,0s-0.1,0-0.2,0c-0.1,0-0.2,0-0.2,0s-0.1,0-0.2,0
		s-0.1,0-0.1-0.1c0,0,0-0.1,0-0.1v-7.1c0-0.2,0-0.3,0.1-0.3c0.1-0.1,0.2-0.1,0.3-0.1h1.7c0.2,0,0.3,0,0.5,0c0.2,0,0.3,0,0.5,0.1
		c0.2,0,0.4,0.1,0.6,0.3c0.2,0.1,0.4,0.3,0.6,0.5c0.2,0.2,0.3,0.4,0.3,0.6C518.7,327.8,518.7,328.1,518.7,328.3z M517.6,328.4
		c0-0.3-0.1-0.6-0.2-0.8c-0.1-0.2-0.3-0.4-0.4-0.5s-0.4-0.2-0.5-0.2c-0.2,0-0.4,0-0.5,0H515v3.1h0.9c0.3,0,0.6,0,0.8-0.1
		c0.2-0.1,0.4-0.2,0.5-0.3c0.1-0.1,0.2-0.3,0.3-0.5C517.6,328.9,517.6,328.7,517.6,328.4z"/>
	<path class="st0" d="M519.9,333.1c0,0.3,0,0.5-0.1,0.6c-0.1,0.1-0.3,0.1-0.5,0.1c-0.2,0-0.4,0-0.5-0.1c-0.1-0.1-0.1-0.3-0.1-0.5
		c0-0.3,0-0.5,0.1-0.6c0.1-0.1,0.3-0.1,0.5-0.1c0.2,0,0.4,0,0.5,0.1C519.8,332.7,519.9,332.9,519.9,333.1z"/>
	<path class="st0" d="M527.6,333.4c0,0.1,0,0.2,0.1,0.2c0,0.1,0,0.1,0,0.1c0,0-0.1,0-0.2,0.1c-0.1,0-0.2,0-0.3,0s-0.2,0-0.3,0
		c-0.1,0-0.1,0-0.2,0c0,0-0.1,0-0.1-0.1c0,0,0-0.1,0-0.1l-0.7-1.9h-3.2l-0.6,1.9c0,0,0,0.1,0,0.1c0,0,0,0-0.1,0.1c0,0-0.1,0-0.2,0
		c-0.1,0-0.2,0-0.3,0c-0.1,0-0.2,0-0.3,0s-0.1,0-0.2-0.1c0,0,0-0.1,0-0.1c0-0.1,0-0.1,0-0.2l2.6-7.2c0,0,0-0.1,0.1-0.1
		c0,0,0.1,0,0.1-0.1c0,0,0.1,0,0.2,0s0.2,0,0.3,0c0.1,0,0.2,0,0.3,0c0.1,0,0.2,0,0.2,0c0.1,0,0.1,0,0.1,0.1c0,0,0,0.1,0.1,0.1
		L527.6,333.4z M524.3,327.1L524.3,327.1L523,331h2.7L524.3,327.1z"/>
	<path class="st0" d="M530.1,333.1c0,0.3,0,0.5-0.1,0.6c-0.1,0.1-0.3,0.1-0.5,0.1c-0.2,0-0.4,0-0.5-0.1c-0.1-0.1-0.1-0.3-0.1-0.5
		c0-0.3,0-0.5,0.1-0.6c0.1-0.1,0.3-0.1,0.5-0.1c0.2,0,0.4,0,0.5,0.1C530.1,332.7,530.1,332.9,530.1,333.1z"/>
	<path class="st0" d="M533.3,332.9c0,0.1,0,0.2,0,0.3c0,0.1,0,0.2-0.1,0.3c0,0.1-0.1,0.2-0.1,0.3c0,0.1-0.1,0.2-0.2,0.3l-0.8,1.2
		c0,0,0,0.1-0.1,0.1c0,0-0.1,0-0.1,0.1c0,0-0.1,0-0.1,0c0,0-0.1,0-0.2,0c-0.1,0-0.1,0-0.2,0c0,0-0.1,0-0.1,0c0,0,0,0,0-0.1
		c0,0,0-0.1,0-0.1l0.8-1.6v-0.8c0-0.1,0-0.2,0-0.3c0-0.1,0.1-0.1,0.1-0.1s0.1-0.1,0.2-0.1s0.2,0,0.3,0c0.1,0,0.2,0,0.3,0
		s0.1,0,0.2,0.1s0.1,0.1,0.1,0.1C533.2,332.8,533.3,332.8,533.3,332.9z"/>
	<path class="st0" d="M543,333.6C543,333.7,543,333.7,543,333.6c0,0.1-0.1,0.1-0.1,0.1s-0.1,0-0.2,0c-0.1,0-0.2,0-0.3,0
		c-0.1,0-0.2,0-0.3,0c-0.1,0-0.1,0-0.2,0c0,0-0.1,0-0.1-0.1c0,0,0-0.1-0.1-0.1l-0.7-1.8c-0.1-0.2-0.2-0.4-0.3-0.6
		c-0.1-0.2-0.2-0.3-0.3-0.4s-0.3-0.2-0.4-0.3s-0.4-0.1-0.6-0.1h-0.7v3.3c0,0,0,0.1,0,0.1c0,0,0,0-0.1,0.1c0,0-0.1,0-0.2,0
		s-0.1,0-0.2,0c-0.1,0-0.2,0-0.2,0s-0.1,0-0.2,0s-0.1,0-0.1-0.1c0,0,0-0.1,0-0.1v-7.1c0-0.2,0-0.3,0.1-0.3c0.1-0.1,0.2-0.1,0.3-0.1
		h1.6c0.2,0,0.4,0,0.5,0s0.2,0,0.3,0c0.3,0.1,0.6,0.1,0.8,0.2c0.2,0.1,0.4,0.3,0.6,0.4c0.2,0.2,0.3,0.4,0.3,0.6
		c0.1,0.2,0.1,0.5,0.1,0.7c0,0.3,0,0.5-0.1,0.7c-0.1,0.2-0.2,0.4-0.3,0.5c-0.1,0.2-0.3,0.3-0.5,0.4s-0.4,0.2-0.6,0.3
		c0.1,0.1,0.2,0.1,0.3,0.2c0.1,0.1,0.2,0.2,0.3,0.3c0.1,0.1,0.2,0.3,0.3,0.4c0.1,0.2,0.2,0.3,0.2,0.5l0.7,1.7
		c0.1,0.1,0.1,0.2,0.1,0.3S543,333.6,543,333.6z M541.5,328.2c0-0.3-0.1-0.6-0.2-0.8c-0.1-0.2-0.4-0.4-0.7-0.5c-0.1,0-0.2,0-0.3-0.1
		s-0.3,0-0.5,0h-0.9v2.6h1c0.3,0,0.5,0,0.7-0.1s0.4-0.2,0.5-0.3s0.2-0.3,0.3-0.4C541.4,328.6,541.5,328.4,541.5,328.2z"/>
	<path class="st0" d="M549.1,330.9c0,0.4-0.1,0.8-0.2,1.2s-0.3,0.7-0.5,1c-0.2,0.3-0.5,0.5-0.9,0.6c-0.3,0.1-0.7,0.2-1.2,0.2
		c-0.4,0-0.8-0.1-1.2-0.2c-0.3-0.1-0.6-0.3-0.8-0.6s-0.4-0.6-0.5-0.9s-0.2-0.8-0.2-1.2c0-0.4,0.1-0.8,0.2-1.2s0.3-0.7,0.5-1
		c0.2-0.3,0.5-0.5,0.9-0.6c0.3-0.1,0.7-0.2,1.2-0.2c0.4,0,0.8,0.1,1.2,0.2c0.3,0.1,0.6,0.3,0.8,0.6s0.4,0.6,0.5,0.9
		S549.1,330.5,549.1,330.9z M548.1,331c0-0.3,0-0.6-0.1-0.8c-0.1-0.3-0.1-0.5-0.3-0.7c-0.1-0.2-0.3-0.3-0.5-0.5
		c-0.2-0.1-0.5-0.2-0.8-0.2c-0.3,0-0.5,0.1-0.8,0.2c-0.2,0.1-0.4,0.3-0.5,0.4c-0.1,0.2-0.2,0.4-0.3,0.7c-0.1,0.3-0.1,0.5-0.1,0.8
		c0,0.3,0,0.6,0.1,0.8c0.1,0.3,0.1,0.5,0.3,0.7c0.1,0.2,0.3,0.3,0.5,0.5c0.2,0.1,0.5,0.2,0.8,0.2c0.3,0,0.5-0.1,0.8-0.2
		c0.2-0.1,0.4-0.2,0.5-0.4c0.1-0.2,0.2-0.4,0.3-0.7C548.1,331.6,548.1,331.3,548.1,331z"/>
	<path class="st0" d="M558.5,333.6C558.5,333.7,558.5,333.7,558.5,333.6c0,0.1-0.1,0.1-0.1,0.1s-0.1,0-0.1,0c-0.1,0-0.1,0-0.2,0
		c-0.1,0-0.2,0-0.2,0c-0.1,0-0.1,0-0.2,0s-0.1,0-0.1-0.1c0,0,0,0,0-0.1v-3.3c0-0.2,0-0.4-0.1-0.6c0-0.2-0.1-0.3-0.2-0.5
		c-0.1-0.1-0.2-0.2-0.3-0.3c-0.1-0.1-0.3-0.1-0.5-0.1c-0.2,0-0.5,0.1-0.7,0.3s-0.5,0.4-0.8,0.8v3.7c0,0,0,0.1,0,0.1s0,0-0.1,0.1
		c0,0-0.1,0-0.2,0c-0.1,0-0.1,0-0.2,0c-0.1,0-0.2,0-0.2,0c-0.1,0-0.1,0-0.2,0c0,0-0.1,0-0.1-0.1s0,0,0-0.1v-3.3c0-0.2,0-0.4-0.1-0.6
		c0-0.2-0.1-0.3-0.2-0.5c-0.1-0.1-0.2-0.2-0.3-0.3s-0.3-0.1-0.5-0.1c-0.2,0-0.5,0.1-0.7,0.3c-0.2,0.2-0.5,0.4-0.8,0.8v3.7
		c0,0,0,0.1,0,0.1c0,0,0,0-0.1,0.1c0,0-0.1,0-0.1,0c-0.1,0-0.1,0-0.2,0c-0.1,0-0.2,0-0.2,0c-0.1,0-0.1,0-0.2,0s-0.1,0-0.1-0.1
		c0,0,0,0,0-0.1v-5.4c0,0,0-0.1,0-0.1c0,0,0,0,0.1-0.1c0,0,0.1,0,0.1,0c0.1,0,0.1,0,0.2,0c0.1,0,0.2,0,0.2,0c0.1,0,0.1,0,0.1,0
		c0,0,0.1,0,0.1,0.1c0,0,0,0,0,0.1v0.7c0.3-0.3,0.6-0.6,0.9-0.7s0.6-0.2,0.9-0.2c0.2,0,0.4,0,0.6,0.1s0.3,0.1,0.5,0.2
		c0.1,0.1,0.3,0.2,0.3,0.3c0.1,0.1,0.2,0.3,0.2,0.4c0.2-0.2,0.3-0.4,0.5-0.5c0.2-0.1,0.3-0.2,0.5-0.3c0.1-0.1,0.3-0.1,0.4-0.2
		c0.1,0,0.3-0.1,0.4-0.1c0.3,0,0.6,0.1,0.9,0.2c0.2,0.1,0.4,0.3,0.6,0.5c0.1,0.2,0.2,0.4,0.3,0.7c0.1,0.3,0.1,0.6,0.1,0.9V333.6z"/>
	<path class="st0" d="M564.9,330.7c0,0.2,0,0.3-0.1,0.3c-0.1,0.1-0.2,0.1-0.3,0.1H561c0,0.3,0,0.6,0.1,0.8c0.1,0.2,0.2,0.4,0.3,0.6
		c0.1,0.2,0.3,0.3,0.5,0.4c0.2,0.1,0.5,0.1,0.8,0.1c0.3,0,0.5,0,0.7-0.1c0.2,0,0.4-0.1,0.5-0.1s0.3-0.1,0.4-0.1
		c0.1,0,0.2-0.1,0.2-0.1c0,0,0.1,0,0.1,0c0,0,0,0,0.1,0.1c0,0,0,0.1,0,0.1s0,0.1,0,0.2c0,0.1,0,0.1,0,0.1c0,0,0,0.1,0,0.1
		c0,0,0,0.1,0,0.1c0,0,0,0-0.1,0.1c0,0-0.1,0.1-0.2,0.1c-0.1,0-0.2,0.1-0.4,0.1s-0.4,0.1-0.6,0.1c-0.2,0-0.5,0.1-0.7,0.1
		c-0.4,0-0.8-0.1-1.2-0.2c-0.3-0.1-0.6-0.3-0.8-0.5s-0.4-0.5-0.5-0.9s-0.2-0.8-0.2-1.3c0-0.5,0.1-0.9,0.2-1.2s0.3-0.7,0.5-0.9
		c0.2-0.3,0.5-0.5,0.8-0.6c0.3-0.1,0.7-0.2,1.1-0.2c0.4,0,0.8,0.1,1.1,0.2c0.3,0.1,0.5,0.3,0.7,0.5c0.2,0.2,0.3,0.5,0.4,0.8
		c0.1,0.3,0.1,0.6,0.1,1V330.7z M563.9,330.4c0-0.5-0.1-0.9-0.3-1.2c-0.2-0.3-0.6-0.4-1.1-0.4c-0.2,0-0.5,0-0.6,0.1
		c-0.2,0.1-0.3,0.2-0.5,0.4c-0.1,0.2-0.2,0.3-0.3,0.5c-0.1,0.2-0.1,0.4-0.1,0.6H563.9z"/>
	<path class="st0" d="M570.3,333.6C570.3,333.7,570.3,333.7,570.3,333.6c0,0.1-0.1,0.1-0.1,0.1c0,0-0.1,0-0.2,0s-0.1,0-0.2,0
		c-0.1,0-0.2,0-0.2,0s-0.1,0-0.2,0s-0.1,0-0.1-0.1c0,0,0-0.1,0-0.1v-7.4c0,0,0-0.1,0-0.1c0,0,0,0,0.1-0.1s0.1,0,0.2,0s0.1,0,0.2,0
		c0.1,0,0.2,0,0.2,0s0.1,0,0.2,0c0,0,0.1,0,0.1,0.1c0,0,0,0.1,0,0.1V333.6z"/>
	<path class="st0" d="M575,333.3c0,0.1,0,0.2,0,0.3c0,0.1,0,0.1-0.1,0.1c0,0-0.1,0.1-0.1,0.1c-0.1,0-0.1,0-0.2,0.1
		c-0.1,0-0.2,0-0.3,0c-0.1,0-0.2,0-0.3,0c-0.3,0-0.5,0-0.7-0.1c-0.2-0.1-0.4-0.2-0.5-0.3c-0.1-0.1-0.2-0.3-0.3-0.6s-0.1-0.5-0.1-0.8
		v-3.1h-0.8c-0.1,0-0.1,0-0.1-0.1c0-0.1-0.1-0.2-0.1-0.3c0-0.1,0-0.1,0-0.2c0-0.1,0-0.1,0-0.1c0,0,0-0.1,0.1-0.1c0,0,0.1,0,0.1,0
		h0.7v-1.3c0,0,0-0.1,0-0.1c0,0,0,0,0.1-0.1c0,0,0.1,0,0.2,0c0.1,0,0.1,0,0.2,0c0.1,0,0.2,0,0.2,0c0.1,0,0.1,0,0.1,0s0.1,0,0.1,0.1
		c0,0,0,0,0,0.1v1.3h1.4c0,0,0.1,0,0.1,0c0,0,0,0,0.1,0.1c0,0,0,0.1,0,0.1c0,0.1,0,0.1,0,0.2c0,0.1,0,0.2-0.1,0.3
		c0,0.1-0.1,0.1-0.1,0.1h-1.4v3c0,0.4,0.1,0.6,0.2,0.8c0.1,0.2,0.3,0.3,0.6,0.3c0.1,0,0.2,0,0.2,0c0.1,0,0.1,0,0.2-0.1
		c0.1,0,0.1,0,0.1-0.1c0,0,0.1,0,0.1,0c0,0,0,0,0.1,0c0,0,0,0,0,0.1c0,0,0,0.1,0,0.1S575,333.2,575,333.3z"/>
	<path class="st0" d="M580.2,333.7c0,0,0,0.1,0,0.1c0,0-0.1,0-0.1,0.1s-0.1,0-0.2,0c-0.1,0-0.2,0-0.2,0s-0.1,0-0.1-0.1
		c0,0,0-0.1,0-0.1v-0.5c-0.2,0.3-0.5,0.4-0.8,0.6c-0.3,0.1-0.6,0.2-0.9,0.2c-0.3,0-0.5,0-0.8-0.1c-0.2-0.1-0.4-0.2-0.6-0.3
		c-0.2-0.1-0.3-0.3-0.4-0.5c-0.1-0.2-0.1-0.4-0.1-0.7c0-0.3,0.1-0.6,0.2-0.8c0.1-0.2,0.3-0.4,0.5-0.6s0.5-0.3,0.8-0.3
		c0.3-0.1,0.7-0.1,1.1-0.1h0.7v-0.4c0-0.2,0-0.4-0.1-0.5c0-0.2-0.1-0.3-0.2-0.4s-0.2-0.2-0.4-0.2c-0.2-0.1-0.3-0.1-0.6-0.1
		c-0.2,0-0.5,0-0.7,0.1s-0.4,0.1-0.5,0.2c-0.1,0.1-0.3,0.1-0.4,0.2c-0.1,0.1-0.2,0.1-0.2,0.1c0,0-0.1,0-0.1,0c0,0,0,0-0.1-0.1
		c0,0,0-0.1,0-0.1s0-0.1,0-0.2c0-0.1,0-0.2,0-0.2s0-0.1,0.1-0.2c0.1-0.1,0.1-0.1,0.3-0.2c0.1-0.1,0.3-0.1,0.5-0.2s0.4-0.1,0.6-0.1
		c0.2,0,0.4-0.1,0.6-0.1c0.4,0,0.7,0,1,0.1c0.3,0.1,0.5,0.2,0.7,0.4s0.3,0.4,0.4,0.6s0.1,0.5,0.1,0.9V333.7z M579.2,331.2h-0.8
		c-0.3,0-0.5,0-0.7,0.1c-0.2,0-0.4,0.1-0.5,0.2c-0.1,0.1-0.2,0.2-0.3,0.3c-0.1,0.1-0.1,0.3-0.1,0.4c0,0.3,0.1,0.5,0.3,0.7
		c0.2,0.2,0.4,0.2,0.7,0.2c0.3,0,0.5-0.1,0.7-0.2s0.5-0.3,0.7-0.6V331.2z"/>
	<path class="st0" d="M583,333.6C583,333.7,583,333.7,583,333.6c0,0.1-0.1,0.1-0.1,0.1c0,0-0.1,0-0.1,0c-0.1,0-0.1,0-0.2,0
		c-0.1,0-0.2,0-0.2,0c-0.1,0-0.1,0-0.2,0s-0.1,0-0.1-0.1c0,0,0,0,0-0.1v-8c0,0,0-0.1,0-0.1c0,0,0,0,0.1-0.1c0,0,0.1,0,0.2,0
		c0.1,0,0.1,0,0.2,0c0.1,0,0.2,0,0.2,0s0.1,0,0.1,0c0,0,0.1,0,0.1,0.1c0,0,0,0.1,0,0.1V333.6z"/>
	<path class="st0" d="M587.2,333.8l-0.7,2c0,0.1-0.1,0.1-0.2,0.1c-0.1,0-0.2,0-0.4,0c-0.1,0-0.2,0-0.3,0s-0.1,0-0.1-0.1
		c0,0-0.1-0.1-0.1-0.1c0,0,0-0.1,0-0.1l0.7-1.9c0,0-0.1,0-0.1-0.1c0,0-0.1-0.1-0.1-0.1l-1.9-5.1c0-0.1,0-0.1,0-0.2c0,0,0-0.1,0-0.1
		c0,0,0.1,0,0.2-0.1s0.2,0,0.3,0s0.2,0,0.3,0c0.1,0,0.1,0,0.2,0s0.1,0,0.1,0.1c0,0,0,0.1,0.1,0.1l1.5,4.3h0l1.5-4.3
		c0-0.1,0.1-0.1,0.1-0.1c0,0,0.1,0,0.2,0s0.2,0,0.3,0c0.1,0,0.2,0,0.3,0c0.1,0,0.1,0,0.2,0.1c0,0,0.1,0.1,0.1,0.1c0,0,0,0.1,0,0.2
		L587.2,333.8z"/>
</g>
</svg>
