<?xml version="1.0" encoding="utf-8"?>
<!-- Generator: Adobe Illustrator 21.0.2, SVG Export Plug-In . SVG Version: 6.00 Build 0)  -->
<svg version="1.1"
	 id="svg2" inkscape:version="0.91 r13725" sodipodi:docname="stop_off.svg" xmlns:cc="http://creativecommons.org/ns#" xmlns:dc="http://purl.org/dc/elements/1.1/" xmlns:inkscape="http://www.inkscape.org/namespaces/inkscape" xmlns:rdf="http://www.w3.org/1999/02/22-rdf-syntax-ns#" xmlns:sodipodi="http://sodipodi.sourceforge.net/DTD/sodipodi-0.dtd" xmlns:svg="http://www.w3.org/2000/svg"
	 xmlns="http://www.w3.org/2000/svg" xmlns:xlink="http://www.w3.org/1999/xlink" x="0px" y="0px" viewBox="0 0 17 17"
	 style="enable-background:new 0 0 17 17;" xml:space="preserve">
<style type="text/css">
	.st0{fill:#8C8C8C;stroke:#8C8C8C;stroke-linecap:round;stroke-linejoin:round;stroke-miterlimit:1.5;}
	.st1{fill:#E6E6E6;}
</style>
<path id="path7" inkscape:connector-curvature="0" class="st0" d="M6,2.5h5L14.5,6v5L11,14.5H6L2.5,11V6L6,2.5z"/>
<path id="path9" inkscape:connector-curvature="0" class="st1" d="M13,6h3v3h-2v2h-1V6z M9,6h3v5H9V6z M5,6h3v1H7v4H6V7H5V6z M1,10
	h2V9H1V6h3v1H2v1h2v3H1V10z M10,7v3h1V7H10z M14,7v1h1V7H14z"/>
</svg>
