<?xml version="1.0" encoding="UTF-8" standalone="no"?><!DOCTYPE svg PUBLIC "-//W3C//DTD SVG 1.1//EN" "http://www.w3.org/Graphics/SVG/1.1/DTD/svg11.dtd"><svg width="100%" height="100%" viewBox="0 0 17 17" version="1.1" xmlns="http://www.w3.org/2000/svg" xmlns:xlink="http://www.w3.org/1999/xlink" xml:space="preserve" style="fill-rule:evenodd;clip-rule:evenodd;stroke-linejoin:round;stroke-miterlimit:1.41421;"><rect id="rect4" x="-2" y="0" width="21" height="17" style="fill:none;"/><g id="rect6"><rect x="2" y="2" width="13" height="13" style="fill:#ebebeb;"/><path d="M15.071,1.003l0.071,0.007l0.071,0.013l0.069,0.018l0.067,0.022l0.066,0.027l0.064,0.032l0.062,0.037l0.058,0.04l0.056,0.045l0.052,0.049l0.049,0.052l0.045,0.056l0.04,0.058l0.037,0.062l0.032,0.064l0.027,0.066l0.022,0.067l0.018,0.069l0.013,0.071l0.007,0.071l0.003,0.071l0,13l-0.003,0.071l-0.007,0.071l-0.013,0.071l-0.018,0.069l-0.022,0.067l-0.027,0.066l-0.032,0.064l-0.037,0.062l-0.04,0.058l-0.045,0.056l-0.049,0.052l-0.052,0.049l-0.056,0.045l-0.058,0.04l-0.062,0.037l-0.064,0.032l-0.066,0.027l-0.067,0.022l-0.069,0.018l-0.071,0.013l-0.071,0.007l-0.071,0.003l-13,0l-0.071,-0.003l-0.071,-0.007l-0.071,-0.013l-0.069,-0.018l-0.067,-0.022l-0.066,-0.027l-0.064,-0.032l-0.062,-0.037l-0.058,-0.04l-0.056,-0.045l-0.052,-0.049l-0.049,-0.052l-0.045,-0.056l-0.04,-0.058l-0.037,-0.062l-0.032,-0.064l-0.027,-0.066l-0.022,-0.067l-0.018,-0.069l-0.013,-0.071l-0.007,-0.071l-0.003,-0.071l0,-13l0.003,-0.071l0.007,-0.071l0.013,-0.071l0.018,-0.069l0.022,-0.067l0.027,-0.066l0.032,-0.064l0.037,-0.062l0.04,-0.058l0.045,-0.056l0.049,-0.052l0.052,-0.049l0.056,-0.045l0.058,-0.04l0.062,-0.037l0.064,-0.032l0.066,-0.027l0.067,-0.022l0.069,-0.018l0.071,-0.013l0.071,-0.007l0.071,-0.003l13,0l0.071,0.003Zm-13.071,0.997l0,13l13,0l0,-13l-13,0Z" style="fill-opacity:0.501961;"/></g></svg>