<?xml version="1.0" encoding="utf-8"?>
<!-- Generator: Adobe Illustrator 21.0.2, SVG Export Plug-In . SVG Version: 6.00 Build 0)  -->
<svg version="1.1"
	 id="svg2" inkscape:version="0.91 r13725" sodipodi:docname="svg.svg" xmlns:cc="http://creativecommons.org/ns#" xmlns:dc="http://purl.org/dc/elements/1.1/" xmlns:inkscape="http://www.inkscape.org/namespaces/inkscape" xmlns:rdf="http://www.w3.org/1999/02/22-rdf-syntax-ns#" xmlns:sodipodi="http://sodipodi.sourceforge.net/DTD/sodipodi-0.dtd" xmlns:svg="http://www.w3.org/2000/svg"
	 xmlns="http://www.w3.org/2000/svg" xmlns:xlink="http://www.w3.org/1999/xlink" x="0px" y="0px" viewBox="0 0 61 61"
	 style="enable-background:new 0 0 61 61;" xml:space="preserve">
<style type="text/css">
	.st0{fill:#EBEBEB;}
	.st1{fill:#404040;}
	.st2{fill:#484848;}
</style>
<g id="g4">
	<rect id="rect6" x="0.5" y="0.5" class="st0" width="60" height="60"/>
	<path id="path8" inkscape:connector-curvature="0" class="st1" d="M61,61H0V0h61V61z M1,1v59h59V1C60,1,1,1,1,1z"/>
</g>
<path class="st2" d="M9.3,39.1v-3.8c0.7,0.6,1.4,1,2.2,1.3s1.6,0.4,2.4,0.4c0.5,0,0.9,0,1.2-0.1s0.7-0.2,0.9-0.4s0.4-0.3,0.5-0.5
	s0.2-0.4,0.2-0.7c0-0.3-0.1-0.6-0.3-0.9s-0.4-0.5-0.8-0.7s-0.7-0.4-1.2-0.6s-0.9-0.4-1.4-0.6c-1.3-0.5-2.3-1.2-2.9-2s-1-1.7-1-2.9
	c0-0.9,0.2-1.6,0.5-2.3s0.8-1.1,1.4-1.6s1.3-0.7,2.1-0.9s1.6-0.3,2.5-0.3c0.9,0,1.7,0.1,2.3,0.2s1.3,0.3,1.9,0.5v3.5
	c-0.3-0.2-0.6-0.4-0.9-0.5s-0.7-0.3-1-0.4s-0.7-0.2-1-0.2s-0.7-0.1-1-0.1c-0.4,0-0.8,0-1.2,0.1s-0.6,0.2-0.9,0.3s-0.4,0.3-0.6,0.5
	s-0.2,0.4-0.2,0.7c0,0.3,0.1,0.5,0.2,0.8s0.4,0.4,0.6,0.6s0.6,0.4,1,0.6s0.8,0.4,1.3,0.6c0.7,0.3,1.3,0.6,1.8,0.9s1,0.7,1.4,1.1
	c0.4,0.4,0.7,0.9,0.9,1.4s0.3,1.1,0.3,1.8c0,0.9-0.2,1.7-0.5,2.4s-0.8,1.2-1.4,1.5s-1.3,0.7-2.1,0.8S15,40,14.1,40
	c-0.9,0-1.8-0.1-2.6-0.2S9.9,39.4,9.3,39.1z"/>
<path class="st2" d="M37.5,22.9l-5.8,16.8h-4.3l-5.7-16.8h4.1l3.5,11.7c0.2,0.6,0.3,1.2,0.3,1.7h0.1c0.1-0.5,0.2-1.1,0.4-1.7
	l3.5-11.6H37.5z"/>
<path class="st2" d="M52.8,38.6c-1.6,0.9-3.7,1.4-6.1,1.4c-2.7,0-4.8-0.7-6.4-2.2S38,34.2,38,31.6c0-2.6,0.9-4.8,2.6-6.5
	s4-2.5,6.8-2.5c1.8,0,3.4,0.2,4.7,0.7v3.6c-1.3-0.8-2.9-1.1-4.8-1.1c-1.6,0-2.8,0.5-3.8,1.5s-1.5,2.4-1.5,4.1c0,1.7,0.4,3.1,1.3,4
	s2.1,1.4,3.6,1.4c0.9,0,1.6-0.1,2.2-0.4v-3.3h-3.4v-3h7.1V38.6z"/>
</svg>
