<?xml version="1.0" encoding="UTF-8" standalone="no"?><!DOCTYPE svg PUBLIC "-//W3C//DTD SVG 1.1//EN" "http://www.w3.org/Graphics/SVG/1.1/DTD/svg11.dtd"><svg width="100%" height="100%" viewBox="0 0 21 17" version="1.1" xmlns="http://www.w3.org/2000/svg" xmlns:xlink="http://www.w3.org/1999/xlink" xml:space="preserve" style="fill-rule:evenodd;clip-rule:evenodd;stroke-linejoin:round;stroke-miterlimit:1.41421;"><g id="Layer1"><rect x="0" y="0" width="21" height="17" style="fill:none;"/><path d="M17,4l-9,0l0,1.953l-4,0.047l0,7l9,0l0,-2l4,0l0,-7Z" style="fill:#e6e6e6;"/><path d="M18,12l-4,0l0,2l-11,0l0,-9l4,0l0,-2l11,0l0,9Zm-11,-4l-3,0l0,5l9,0l0,-1l-6,0l0,-4Zm10,-2l-9,0l0,5l9,0l0,-5Zm-13,0l0,1l3,0l0,-1l-3,0Zm13,-1l0,-1c-3,0 -6,0 -9,0l0,1l9,0Z" style="fill:#404040;"/></g></svg>