<?xml version="1.0" encoding="utf-8"?>
<!-- Generator: Adobe Illustrator 10.0, SVG Export Plug-In . SVG Version: 3.0.0 Build 76)  -->
<!DOCTYPE svg PUBLIC "-//W3C//DTD SVG 1.0//EN"    "http://www.w3.org/TR/2001/REC-SVG-20010904/DTD/svg10.dtd" [
	<!ENTITY ns_flows "http://ns.adobe.com/Flows/1.0/">
	<!ENTITY ns_extend "http://ns.adobe.com/Extensibility/1.0/">
	<!ENTITY ns_ai "http://ns.adobe.com/AdobeIllustrator/10.0/">
	<!ENTITY ns_graphs "http://ns.adobe.com/Graphs/1.0/">
	<!ENTITY ns_vars "http://ns.adobe.com/Variables/1.0/">
	<!ENTITY ns_imrep "http://ns.adobe.com/ImageReplacement/1.0/">
	<!ENTITY ns_sfw "http://ns.adobe.com/SaveForWeb/1.0/">
	<!ENTITY ns_custom "http://ns.adobe.com/GenericCustomNamespace/1.0/">
	<!ENTITY ns_adobe_xpath "http://ns.adobe.com/XPath/1.0/">
	<!ENTITY ns_svg "http://www.w3.org/2000/svg">
	<!ENTITY ns_xlink "http://www.w3.org/1999/xlink">
]>
<svg 
	 xmlns:x="&ns_extend;" xmlns:i="&ns_ai;" xmlns:graph="&ns_graphs;" i:viewOrigin="382.5684 306.6523" i:rulerOrigin="0 0" i:pageBounds="0 600 800 0"
	 xmlns="&ns_svg;" xmlns:xlink="&ns_xlink;" xmlns:a="http://ns.adobe.com/AdobeSVGViewerExtensions/3.0/" width="37" height="19"
	 viewBox="0 0 37 19" overflow="visible" enable-background="new 0 0 37 19" xml:space="preserve">
	<metadata>
		<variableSets  xmlns="http://ns.adobe.com/Variables/1.0/">
			<variableSet  varSetName="binding1" locked="none">
				<variables></variables>
				<v:sampleDataSets  xmlns="http://ns.adobe.com/GenericCustomNamespace/1.0/" xmlns:v="http://ns.adobe.com/Variables/1.0/">
					</v:sampleDataSets>
			</variableSet>
		</variableSets>
		<sfw  xmlns="&ns_sfw;">
			<slices></slices>
			<sliceSourceBounds  y="287.652" x="382.568" width="37" height="19" bottomLeftOrigin="true"></sliceSourceBounds>
		</sfw>
	</metadata>
	<g id="Layer_1" i:knockout="Off" i:layer="yes" i:dimmedPercent="50" i:rgbTrio="#4F008000FFFF">
		<path i:knockout="Off" fill="none" d="M37,19H0V0h37V19z"/>
		<g i:knockout="Off">
			<path i:knockout="Off" fill="none" d="M27.266,13.657c0.915-0.54,1.448-0.856,2.299-1.379l-0.471-1.68
				c-0.18-0.04-0.365-0.07-0.562-0.091c0.138,0.5,0.244,0.89,0.415,1.51c-0.729,0.449-1.102,0.677-1.867,1.134
				c-0.979-0.363-1.47-0.536-2.455-0.865c-0.125-0.507-0.213-0.857-0.31-1.243c-0.188,0.048-0.374,0.096-0.566,0.149l0.327,1.354
				C25.289,12.938,25.985,13.176,27.266,13.657z"/>
			<path i:knockout="Off" fill="#BB1E00" d="M27.889,2.126l0.033,0.036c0.035,0.014,0.077,0.021,0.109,0.037l-0.007-0.024
				C27.979,2.158,27.938,2.144,27.889,2.126z"/>
			<path i:knockout="Off" fill="#BB1E00" d="M29.976,10.92c-0.003-0.002-0.007-0.003-0.009-0.004l0.266,0.938
				c-0.041-0.306-0.081-0.585-0.12-0.842C30.064,10.984,30.025,10.947,29.976,10.92z"/>
			<path i:knockout="Off" fill="#BB1E00" d="M24.113,12.697l-0.037-0.151c-0.05-0.016-0.096-0.031-0.148-0.048L24.113,12.697z"/>
			<path i:knockout="Off" fill="#BB1E00" d="M16.867,13.433c-0.001,0-0.002,0.001-0.003,0.001c0.001,0,0.002,0,0.003,0.001V13.433z"
				/>
			<path i:knockout="Off" fill="#B6B600" d="M14.806,5.684c-0.078,0.052-0.139,0.092-0.211,0.14
				c0.117-0.035,0.235-0.064,0.352-0.101C14.897,5.709,14.858,5.698,14.806,5.684z"/>
			<path i:knockout="Off" fill="none" d="M29.048,8.046c-0.922-0.361-1.387-0.533-2.316-0.862c-0.228-0.818-0.341-1.229-0.566-2.046
				c0.689-0.503,1.025-0.756,1.68-1.268c0.438,0.156,0.766,0.275,1.09,0.397c-0.018-0.146-0.035-0.31-0.054-0.467
				c-0.365-0.136-0.75-0.275-1.218-0.441c-0.755,0.604-1.237,0.97-2.084,1.586l0.346,1.276l0.334,1.227
				c1.167,0.405,1.829,0.646,2.991,1.107c0.128-0.087,0.246-0.168,0.358-0.245c-0.04-0.188-0.081-0.378-0.121-0.57
				C29.354,7.832,29.212,7.932,29.048,8.046z"/>
			<path i:knockout="Off" fill="none" d="M18.167,4.901c0.327-0.22,0.605-0.41,0.863-0.585c-0.425,0.156-0.853,0.31-1.286,0.465
				L18.167,4.901z"/>
			<path i:knockout="Off" fill="none" d="M26.196,2.192c-0.661,0.527-0.997,0.788-1.688,1.303c-0.697-0.227-1.131-0.366-1.704-0.545
				c-0.219,0.074-0.438,0.15-0.663,0.229c0.904,0.278,1.524,0.475,2.529,0.806c0.806-0.592,1.29-0.961,2.084-1.598l-0.106-0.383
				c-0.153,0.01-0.319,0.034-0.486,0.057C26.173,2.108,26.183,2.144,26.196,2.192z"/>
			<path i:knockout="Off" fill="none" d="M17.152,6.336c0.154,0.785,0.231,1.179,0.383,1.965c-0.809,0.521-1.221,0.787-2.058,1.326
				c-0.972-0.252-1.454-0.376-2.415-0.618c-0.115-0.794-0.175-1.19-0.291-1.983c0.747-0.49,1.165-0.765,1.824-1.202
				c-0.469,0.141-0.939,0.277-1.41,0.399l-0.694,0.46L12.144,6.91l0.212,1.56l0.119,0.858l0.589,0.146l2.496,0.627l0.917-0.585
				l1.698-1.087l-0.346-1.698L17.688,6.04l-1.96-0.554l-0.029-0.008c-0.25,0.081-0.5,0.167-0.751,0.244
				C15.782,5.953,16.262,6.087,17.152,6.336z"/>
			<path i:knockout="Off" fill="none" d="M7.698,6.986c-0.211-0.001-0.421-0.009-0.63-0.02C7.059,7.119,7.05,7.28,7.041,7.425
				C7.241,7.291,7.459,7.146,7.698,6.986z"/>
			<path i:knockout="Off" fill="none" d="M7.072,6.884L6.956,6.962C6.993,6.964,7.03,6.964,7.067,6.966
				C7.069,6.938,7.07,6.911,7.072,6.884z"/>
			<path i:knockout="Off" fill="none" d="M10.25,7.455c0.095,0.803,0.142,1.203,0.236,2.008c-0.862,0.567-1.297,0.855-2.178,1.448
				c-0.614-0.142-1.036-0.239-1.502-0.349C6.79,10.73,6.775,10.896,6.76,11.058l1.571,0.36l2.805-1.861l-0.158-1.242l-0.153-1.188
				l-0.029-0.008L9.882,6.872c-0.481,0.059-0.957,0.09-1.43,0.11C9.06,7.144,9.513,7.261,10.25,7.455z"/>
			<path i:knockout="Off" fill="none" d="M17.478,13.123c-0.147-0.796-0.221-1.186-0.367-1.977c0.843-0.531,1.256-0.792,2.068-1.308
				c0.978,0.271,1.466,0.411,2.445,0.705c0.111,0.488,0.19,0.829,0.274,1.202c0.194-0.063,0.388-0.122,0.578-0.181l-0.179-0.763
				l-0.125-0.533c-1.21-0.37-1.896-0.567-3.108-0.907l-1.558,0.987l-1.065,0.677l0.097,0.544l0.328,1.86
				c0.264-0.089,0.522-0.177,0.783-0.265C17.59,13.152,17.542,13.14,17.478,13.123z"/>
			<path i:knockout="Off" fill="none" d="M7.119,12.993c0.072,0.827,0.109,1.239,0.186,2.07c-0.374,0.261-0.667,0.468-0.952,0.67
				c-0.006,0.091-0.012,0.189-0.019,0.284c0.142-0.012,0.285-0.023,0.429-0.039c0.37-0.263,0.758-0.532,1.226-0.855l-0.245-2.508
				l-0.41-0.09l-0.703-0.156c-0.016,0.165-0.032,0.336-0.049,0.51C6.75,12.915,6.919,12.951,7.119,12.993z"/>
			<path i:knockout="Off" fill="none" d="M10.004,14.467c-0.096-0.814-0.139-1.218-0.229-2.029c0.889-0.596,1.329-0.887,2.2-1.454
				c0.975,0.231,1.466,0.351,2.453,0.592c0.124,0.794,0.188,1.188,0.315,1.988c-0.674,0.431-1.096,0.7-1.661,1.067
				c0.531-0.155,1.06-0.315,1.588-0.481c0.235-0.15,0.485-0.31,0.762-0.484l-0.404-2.407l-2.741-0.675l-0.366-0.089L9.106,12.36
				l0.263,2.481l1.67,0.346c0.358-0.091,0.715-0.178,1.075-0.275C11.362,14.75,10.853,14.645,10.004,14.467z"/>
			<path i:knockout="Off" fill="none" d="M29.516,9.325l0.166-0.111c0.038-0.024,0.066-0.045,0.104-0.069
				c-0.018-0.085-0.034-0.164-0.051-0.245c-0.1,0.065-0.185,0.126-0.293,0.199l-0.122,0.083l-0.139-0.055
				c-1.294-0.516-1.942-0.752-3.242-1.201c0,0-0.141-0.048-0.141-0.049L25.76,7.734l-0.372-1.368l-0.396-1.461L24.941,4.72
				l0.154-0.112c1-0.725,1.459-1.075,2.342-1.78l0.118-0.098l0.146,0.052c0.411,0.146,0.751,0.268,1.07,0.385
				c-0.015-0.048-0.022-0.103-0.037-0.147c-0.307-0.111-0.635-0.229-1.032-0.37c0,0-0.136-0.048-0.136-0.047l-0.039-0.139
				l-0.125-0.441c-0.057-0.007-0.12-0.005-0.18-0.009l0.111,0.401c0,0,0.049,0.176,0.049,0.177l-0.142,0.114
				c-0.941,0.76-1.415,1.119-2.36,1.812L24.77,4.603l-0.138-0.045c-1.275-0.421-1.914-0.62-3.181-1.008c0,0-0.151-0.047-0.151-0.046
				l-0.005-0.022c-0.071,0.026-0.145,0.053-0.217,0.08l-0.093,0.066c-1.013,0.722-1.54,1.084-2.613,1.808
				c0,0-0.107,0.071-0.108,0.071L18.14,5.471l-1.299-0.37c-0.066,0.023-0.131,0.046-0.198,0.069l1.36,0.384L18.165,5.6l0.034,0.165
				l0.174,0.856l0.383,1.886l0.039,0.188l-0.16,0.104l-1.859,1.189l-1.016,0.647c0,0-0.102,0.063-0.103,0.063l-0.116-0.028
				l-2.611-0.655l-0.772-0.19l-0.183-0.046L11.95,9.591l-0.143-1.045L11.57,6.813L11.546,6.64l0.086-0.057
				c-0.139,0.028-0.277,0.047-0.416,0.073l0.113,0.03l0.023,0.186l0.176,1.373l0.18,1.414c0,0,0.022,0.171,0.021,0.172l-0.144,0.097
				l-3.044,2.021c0,0-0.099,0.064-0.101,0.066l-0.115-0.026l-1.62-0.371c-0.006,0.06-0.012,0.12-0.018,0.18
				c0,0.007-0.001,0.015-0.002,0.021l0.768,0.171L8.06,12.12c0,0,0.197,0.044,0.197,0.046l0.02,0.199l0.281,2.867
				c0,0,0.016,0.162,0.016,0.164l-0.135,0.093c-0.171,0.118-0.329,0.228-0.48,0.333c0.59-0.092,1.188-0.204,1.792-0.335L9.06,15.344
				c0,0-0.198-0.041-0.2-0.041l-0.021-0.201L8.536,12.25c0,0-0.018-0.167-0.019-0.165l0.14-0.095l3.06-2.029
				c0,0,0.101-0.066,0.1-0.068l0.117,0.029l0.485,0.116l2.921,0.721c0,0,0.178,0.044,0.176,0.044l0.031,0.181l0.458,2.734
				c0.11-0.036,0.219-0.071,0.329-0.107l-0.342-1.94l-0.129-0.729l-0.032-0.184l0.157-0.101l1.223-0.774l1.659-1.056l0.104-0.064
				l0.12,0.033c1.353,0.379,2.037,0.574,3.396,0.992l0.15,0.048l0.036,0.154l0.163,0.688l0.171,0.728
				c0.069-0.021,0.138-0.039,0.206-0.06l-0.205-0.844l-0.111-0.469l-0.049-0.192l0.169-0.105c1.061-0.67,1.596-1.011,2.617-1.691
				l0.114-0.076l0.131,0.045c1.342,0.464,2.006,0.704,3.289,1.216c0,0,0.129,0.051,0.128,0.05l0.038,0.13l0.395,1.404
				c0.078,0.034,0.159,0.064,0.234,0.104L29.571,9.52C29.571,9.52,29.516,9.326,29.516,9.325z M25.46,7.964
				c-1.04,0.697-1.573,1.041-2.627,1.714l-0.109,0.068l-0.123-0.038c-1.366-0.426-2.037-0.621-3.357-0.997
				c0,0-0.16-0.045-0.16-0.047l-0.035-0.162l-0.329-1.551l-0.252-1.187l-0.04-0.184l0.155-0.104c1.072-0.721,1.599-1.08,2.606-1.792
				l0.107-0.078l0.131,0.039c1.248,0.38,1.906,0.582,3.212,1.009l0.146,0.047l0.038,0.146l0.626,2.35l0.125,0.465l0.051,0.191
				L25.46,7.964z"/>
			<path i:knockout="Off" fill="none" d="M24.125,10.278c0.77-0.484,1.146-0.729,1.881-1.208c0.951,0.332,1.426,0.509,2.369,0.873
				c0.059,0.211,0.109,0.395,0.157,0.564c0.194,0.021,0.382,0.051,0.562,0.091L28.839,9.69c-1.146-0.453-1.809-0.695-3.008-1.109
				c-0.891,0.592-1.442,0.944-2.347,1.516l0.064,0.274l0.199,0.821c0.192-0.055,0.379-0.103,0.566-0.149
				C24.259,10.814,24.199,10.576,24.125,10.278z"/>
			<path i:knockout="Off" fill="none" d="M24.326,5.135c-1.158-0.378-1.816-0.581-2.93-0.919c-0.883,0.623-1.427,0.996-2.351,1.617
				l0.213,1.003l0.294,1.388c1.178,0.334,1.856,0.534,3.089,0.917c0.914-0.584,1.46-0.938,2.345-1.529L24.914,7.34L24.326,5.135z
				 M22.496,8.66c-0.961-0.297-1.441-0.438-2.399-0.717c-0.175-0.79-0.261-1.182-0.435-1.97c0.766-0.513,1.141-0.771,1.876-1.283
				c0.925,0.284,1.389,0.429,2.316,0.728c0.209,0.803,0.313,1.205,0.521,2.009C23.642,7.919,23.266,8.164,22.496,8.66z"/>
			<path i:knockout="Off" fill="none" d="M30.44,12.59l-0.036-0.126l-0.173-0.608c0.047,0.343,0.095,0.707,0.146,1.123l0.663-0.122
				c-0.15-0.067-0.31-0.138-0.48-0.212C30.56,12.645,30.44,12.592,30.44,12.59z"/>
			<path i:knockout="Off" fill="#BB1E00" d="M28.063,2.313L28.031,2.2c-0.032-0.016-0.074-0.023-0.109-0.037L28.063,2.313z"/>
			<path i:knockout="Off" fill="#BB1E00" d="M27.568,2.604c0-0.001,0.136,0.047,0.136,0.047c0.397,0.141,0.727,0.258,1.032,0.37
				c-0.126-0.366-0.326-0.625-0.61-0.789C28.1,2.216,28.06,2.213,28.031,2.199l0.032,0.113l-0.143-0.15
				c-0.156-0.063-0.323-0.115-0.518-0.139l0.125,0.441L27.568,2.604z"/>
			<path i:knockout="Off" fill="#BB1E00" d="M21.451,3.55c1.267,0.388,1.904,0.587,3.181,1.008l0.138,0.045l0.114-0.085
				c0.945-0.693,1.419-1.052,2.36-1.812l0.142-0.114c0-0.001-0.049-0.177-0.049-0.177l-0.111-0.401
				c-0.183-0.013-0.368-0.021-0.578-0.008l0.106,0.383c0.05-0.041,0.09-0.071,0.144-0.114l-0.095,0.291l-0.049-0.177
				c-0.794,0.637-1.278,1.006-2.084,1.598c0.046,0.015,0.088,0.028,0.136,0.044l-0.25,0.04c0.042-0.031,0.073-0.054,0.114-0.084
				c-1.005-0.331-1.625-0.528-2.529-0.806c-0.279,0.099-0.56,0.197-0.846,0.301L21.3,3.503C21.3,3.502,21.451,3.55,21.451,3.55z"/>
			<path i:knockout="Off" fill="#BB1E00" d="M26.896,2.274c-0.054,0.043-0.094,0.074-0.144,0.114l0.049,0.177L26.896,2.274z"/>
			<path i:knockout="Off" fill="#BB1E00" d="M24.806,4.031c-0.048-0.016-0.09-0.029-0.136-0.044
				c-0.041,0.03-0.072,0.053-0.114,0.084L24.806,4.031z"/>
			<path i:knockout="Off" fill="#B6B600" d="M26.196,2.192c-0.015-0.048-0.023-0.084-0.036-0.129
				c-0.952,0.133-2.101,0.46-3.356,0.888c0.573,0.179,1.007,0.318,1.704,0.545C25.199,2.98,25.535,2.72,26.196,2.192z"/>
			<path i:knockout="Off" fill="#BB1E00" d="M30.111,11.014c-0.117-0.774-0.226-1.365-0.327-1.869
				c-0.036,0.024-0.064,0.045-0.104,0.069l-0.166,0.111c0,0.001,0.057,0.194,0.057,0.194l0.396,1.396
				c0.002,0.001,0.006,0.002,0.009,0.004C30.025,10.947,30.064,10.984,30.111,11.014z"/>
			<path i:knockout="Off" fill="#BB1E00" d="M30.938,12.316l-0.036-0.127c-0.041-0.019-0.077-0.034-0.12-0.054L30.938,12.316z"/>
			<path i:knockout="Off" fill="#BB1E00" d="M25.701,8.536c0.046,0.016,0.086,0.029,0.13,0.045c0.041-0.026,0.072-0.047,0.114-0.075
				L25.701,8.536z"/>
			<path i:knockout="Off" fill="#BB1E00" d="M29.3,9.276c0.001,0.001-0.128-0.051-0.128-0.051c-1.283-0.511-1.947-0.751-3.289-1.215
				l-0.131-0.045l-0.114,0.076c-1.021,0.682-1.558,1.021-2.618,1.691l-0.168,0.105l0.049,0.192l0.111,0.469l0.205,0.844
				c0.178-0.053,0.357-0.104,0.532-0.152L23.55,10.37l-0.064-0.274c-0.061,0.038-0.105,0.067-0.168,0.106l0.121-0.3l0.047,0.192
				c0.903-0.57,1.456-0.924,2.347-1.516c-0.044-0.016-0.084-0.029-0.13-0.045l0.244-0.03c-0.042,0.028-0.073,0.049-0.114,0.075
				c1.199,0.414,1.862,0.656,3.008,1.109l-0.036-0.131l0.164,0.182c-0.045-0.019-0.084-0.033-0.128-0.051l0.255,0.908
				c0.229,0.052,0.438,0.125,0.639,0.211l-0.395-1.403L29.3,9.276z"/>
			<path i:knockout="Off" fill="#BB1E00" d="M28.803,9.561l0.036,0.131c0.044,0.018,0.083,0.032,0.128,0.051L28.803,9.561z"/>
			<path i:knockout="Off" fill="#BB1E00" d="M23.316,10.203c0.063-0.039,0.107-0.068,0.168-0.106l-0.047-0.192L23.316,10.203z"/>
			<path i:knockout="Off" fill="#B6B600" d="M26.006,9.07c-0.733,0.479-1.111,0.724-1.881,1.208c0.074,0.298,0.134,0.536,0.19,0.765
				c1.628-0.42,3.063-0.648,4.217-0.534c-0.048-0.171-0.1-0.354-0.157-0.564C27.432,9.579,26.957,9.402,26.006,9.07z"/>
			<path i:knockout="Off" fill="#BB1E00" d="M27.518,3.307c0.052,0.018,0.097,0.034,0.146,0.052
				c0.043-0.034,0.077-0.061,0.122-0.097L27.518,3.307z"/>
			<path i:knockout="Off" fill="#BB1E00" d="M26.297,7.589l-0.039-0.142c-0.047-0.017-0.09-0.031-0.139-0.048L26.297,7.589z"/>
			<path i:knockout="Off" fill="#BB1E00" d="M27.557,2.73l-0.118,0.098c-0.883,0.705-1.342,1.055-2.342,1.78L24.942,4.72
				l0.051,0.185l0.396,1.461l0.372,1.368l0.038,0.143c0,0.001,0.141,0.049,0.141,0.049c1.3,0.449,1.948,0.687,3.242,1.201
				l0.139,0.055l0.122-0.083c0.108-0.073,0.193-0.134,0.293-0.199c-0.041-0.194-0.081-0.384-0.121-0.567
				c-0.002-0.007-0.003-0.014-0.005-0.021c-0.112,0.077-0.23,0.158-0.358,0.245c0.047,0.02,0.089,0.035,0.138,0.056L29.13,8.639
				c0.045-0.03,0.078-0.054,0.121-0.083c-1.162-0.462-1.824-0.702-2.991-1.107l0.039,0.142L26.121,7.4
				c0.049,0.017,0.092,0.032,0.139,0.048l-0.334-1.227L25.58,4.945c-0.055,0.04-0.096,0.071-0.154,0.113l0.104-0.297l0.05,0.184
				c0.847-0.616,1.329-0.983,2.084-1.586c-0.049-0.018-0.094-0.034-0.145-0.052l0.267-0.045c-0.045,0.036-0.079,0.063-0.122,0.097
				c0.468,0.166,0.853,0.305,1.218,0.441c-0.016-0.132-0.03-0.251-0.046-0.393c-0.016-0.087-0.039-0.161-0.061-0.239
				c-0.319-0.117-0.659-0.239-1.07-0.385L27.557,2.73z"/>
			<path i:knockout="Off" fill="#BB1E00" d="M25.424,5.058c0.06-0.042,0.101-0.073,0.154-0.113l-0.05-0.184L25.424,5.058z"/>
			<path i:knockout="Off" fill="#BB1E00" d="M29.387,8.61c-0.049-0.021-0.091-0.036-0.138-0.056
				c-0.043,0.029-0.076,0.053-0.121,0.083L29.387,8.61z"/>
			<path i:knockout="Off" fill="#B6B600" d="M26.164,5.138c0.227,0.817,0.34,1.228,0.566,2.046c0.931,0.329,1.396,0.5,2.316,0.862
				c0.164-0.114,0.307-0.214,0.438-0.307c-0.175-0.83-0.349-1.781-0.554-3.473c-0.324-0.122-0.652-0.241-1.09-0.397
				C27.189,4.381,26.854,4.635,26.164,5.138z"/>
			<path i:knockout="Off" fill="#BB1E00" d="M18.944,9.329c0.043,0.012,0.079,0.021,0.12,0.034l0.104-0.066L18.944,9.329z"/>
			<path i:knockout="Off" fill="#BB1E00" d="M22.137,10.116l0.037,0.155c0.051,0.017,0.099,0.029,0.151,0.047L22.137,10.116z"/>
			<path i:knockout="Off" fill="#BB1E00" d="M22.677,9.99l-0.036-0.154l-0.15-0.048c-1.357-0.418-2.043-0.613-3.396-0.992
				l-0.12-0.033L18.87,8.827l-1.659,1.056l-1.223,0.774l-0.157,0.101l0.032,0.184l0.129,0.729l0.342,1.94
				c0.143-0.048,0.288-0.096,0.43-0.144l-0.071-0.076c0.061,0.016,0.113,0.028,0.171,0.043c0.001,0,0.002-0.001,0.003-0.001
				l-0.328-1.86l-0.097-0.544l-0.156,0.1l0.124-0.282l0.032,0.184l1.065-0.676l1.558-0.988c-0.041-0.012-0.077-0.022-0.12-0.034
				l0.225-0.032l-0.104,0.066c1.213,0.34,1.898,0.537,3.108,0.908l-0.037-0.155l0.188,0.202c-0.054-0.018-0.102-0.03-0.151-0.047
				l0.125,0.532l0.18,0.763c0.179-0.056,0.357-0.11,0.532-0.162l-0.171-0.728L22.677,9.99z"/>
			<path i:knockout="Off" fill="#BB1E00" d="M16.286,11.127l0.156-0.1l-0.032-0.184L16.286,11.127z"/>
			<path i:knockout="Off" fill="#B6B600" d="M19.179,9.84c-0.812,0.516-1.225,0.775-2.068,1.308c0.146,0.791,0.22,1.181,0.367,1.977
				c0.064,0.017,0.112,0.029,0.172,0.045c0.302-0.103,0.606-0.206,0.902-0.307c1.159-0.396,2.279-0.775,3.347-1.114
				c-0.084-0.373-0.163-0.714-0.274-1.202C20.645,10.251,20.155,10.11,19.179,9.84z"/>
			<path i:knockout="Off" fill="#BB1E00" d="M9.391,15.043l-0.021-0.2l-0.201-0.042L9.391,15.043z"/>
			<path i:knockout="Off" fill="#BB1E00" d="M8.968,12.452l0.139-0.092l-0.018-0.167L8.968,12.452z"/>
			<path i:knockout="Off" fill="#BB1E00" d="M15.516,10.803c0.002,0-0.176-0.044-0.176-0.044l-2.921-0.721l-0.485-0.116
				l-0.117-0.029c0.001,0.002-0.1,0.068-0.1,0.068l-3.06,2.029l-0.14,0.095c0.001-0.002,0.019,0.165,0.019,0.165l0.302,2.854
				l0.021,0.2c0.002,0,0.2,0.041,0.2,0.041l0.691,0.144c0.428-0.094,0.857-0.19,1.29-0.3l-1.67-0.346l0.021,0.2l-0.222-0.242
				l0.201,0.042L9.106,12.36l-0.139,0.092l0.121-0.259l0.018,0.167l2.815-1.867l-0.118-0.029l0.218-0.037l-0.1,0.066l0.366,0.089
				l2.741,0.675l-0.03-0.181l0.207,0.225l-0.177-0.044l0.404,2.407c0.053-0.033,0.101-0.063,0.156-0.099l-0.126,0.279l-0.03-0.182
				c-0.277,0.176-0.527,0.334-0.762,0.484c0.448-0.144,0.893-0.284,1.335-0.432l-0.458-2.734L15.516,10.803z"/>
			<path i:knockout="Off" fill="#BB1E00" d="M15.589,13.565c-0.055,0.034-0.104,0.064-0.156,0.099l0.03,0.182L15.589,13.565z"/>
			<path i:knockout="Off" fill="#BB1E00" d="M11.803,10.464l0.118,0.029l0.1-0.066L11.803,10.464z"/>
			<path i:knockout="Off" fill="#BB1E00" d="M14.998,11.076l0.03,0.181l0.177,0.044L14.998,11.076z"/>
			<path i:knockout="Off" fill="#B6B600" d="M14.428,11.574c-0.987-0.241-1.478-0.359-2.453-0.592
				c-0.871,0.567-1.311,0.858-2.2,1.453c0.09,0.813,0.133,1.216,0.229,2.03c0.849,0.179,1.358,0.283,2.11,0.445
				c0.323-0.089,0.646-0.188,0.968-0.281c0.564-0.367,0.986-0.638,1.661-1.067C14.616,12.763,14.552,12.368,14.428,11.574z"/>
			<path i:knockout="Off" fill="#BB1E00" d="M19.589,8.387l-0.035-0.163c-0.054-0.016-0.103-0.029-0.159-0.046L19.589,8.387z"/>
			<path i:knockout="Off" fill="#BB1E00" d="M22.766,9.179c-0.044-0.014-0.081-0.024-0.123-0.038
				c-0.038,0.024-0.066,0.043-0.106,0.068L22.766,9.179z"/>
			<path i:knockout="Off" fill="#BB1E00" d="M25.448,7.197l-0.626-2.35l-0.038-0.146L24.64,4.654
				c-1.306-0.427-1.964-0.629-3.212-1.009l-0.131-0.039l-0.107,0.078c-1.009,0.712-1.534,1.071-2.606,1.792L18.427,5.58l0.039,0.185
				l0.252,1.187l0.329,1.551l0.035,0.162c0,0.002,0.16,0.047,0.16,0.047c1.32,0.376,1.991,0.571,3.357,0.997l0.123,0.038
				l0.109-0.068c1.054-0.673,1.587-1.017,2.627-1.714l0.164-0.109l-0.051-0.191L25.448,7.197z M25.037,7.805l-0.051-0.193
				c-0.885,0.591-1.431,0.945-2.345,1.529c0.042,0.014,0.079,0.024,0.123,0.038l-0.229,0.03c0.04-0.025,0.068-0.044,0.106-0.068
				c-1.231-0.383-1.911-0.583-3.089-0.917l0.035,0.163l-0.193-0.209c0.057,0.017,0.104,0.03,0.158,0.046L19.26,6.836l-0.213-1.003
				c-0.055,0.037-0.098,0.065-0.155,0.104l0.116-0.288l0.039,0.184c0.924-0.621,1.468-0.994,2.351-1.617
				c-0.044-0.014-0.084-0.026-0.131-0.04l0.241-0.039c-0.041,0.029-0.072,0.05-0.11,0.079c1.112,0.338,1.771,0.541,2.93,0.919
				l-0.04-0.145l0.181,0.191c-0.05-0.017-0.094-0.03-0.142-0.046l0.588,2.205l0.072,0.272c0.058-0.039,0.104-0.069,0.164-0.11
				L25.037,7.805z"/>
			<path i:knockout="Off" fill="#BB1E00" d="M18.892,5.938c0.059-0.039,0.102-0.067,0.155-0.104L19.008,5.65L18.892,5.938z"/>
			<path i:knockout="Off" fill="#BB1E00" d="M24.287,4.99l0.039,0.145c0.048,0.016,0.092,0.03,0.142,0.046L24.287,4.99z"/>
			<path i:knockout="Off" fill="#BB1E00" d="M21.267,4.177c0.047,0.014,0.087,0.026,0.131,0.04c0.038-0.028,0.069-0.049,0.11-0.079
				L21.267,4.177z"/>
			<path i:knockout="Off" fill="#BB1E00" d="M25.037,7.805l0.113-0.303c-0.062,0.041-0.106,0.071-0.164,0.11L25.037,7.805z"/>
			<path i:knockout="Off" fill="#B6B600" d="M21.538,4.69c-0.735,0.513-1.11,0.771-1.876,1.283c0.174,0.788,0.26,1.181,0.435,1.97
				c0.958,0.278,1.438,0.42,2.399,0.717c0.77-0.496,1.146-0.741,1.881-1.233c-0.209-0.804-0.313-1.206-0.521-2.009
				C22.927,5.119,22.463,4.975,21.538,4.69z"/>
			<path i:knockout="Off" fill="#BB1E00" d="M15.678,10.131l-0.119-0.029l-0.099,0.063L15.678,10.131z"/>
			<path i:knockout="Off" fill="#BB1E00" d="M11.57,6.813l0.237,1.733l0.143,1.045l0.025,0.187l0.183,0.046l0.772,0.19l2.611,0.655
				l0.116,0.028c0.001,0,0.103-0.063,0.103-0.063l1.016-0.647l1.859-1.189l0.16-0.104l-0.039-0.188L18.373,6.62l-0.174-0.856
				L18.165,5.6l-0.162-0.046l-1.36-0.384c-0.313,0.107-0.629,0.207-0.945,0.309l0.029,0.008l1.96,0.554l-0.034-0.165l0.197,0.211
				L17.688,6.04l0.142,0.691l0.346,1.698l0.159-0.102l-0.121,0.289L18.175,8.43l-1.698,1.087l-0.917,0.585l0.119,0.029l-0.217,0.033
				l0.099-0.063l-2.496-0.627l-0.589-0.146L12.5,9.514l-0.208-0.23l0.183,0.046L12.356,8.47l-0.212-1.56l-0.146,0.096l0.122-0.269
				l0.023,0.173l0.348-0.228l0.694-0.46c-0.519,0.134-1.037,0.255-1.554,0.36L11.546,6.64L11.57,6.813z"/>
			<path i:knockout="Off" fill="#BB1E00" d="M12.5,9.514l-0.025-0.186l-0.183-0.046L12.5,9.514z"/>
			<path i:knockout="Off" fill="#BB1E00" d="M11.998,7.006l0.146-0.096L12.12,6.737L11.998,7.006z"/>
			<path i:knockout="Off" fill="#BB1E00" d="M18.334,8.328L18.175,8.43l0.038,0.188L18.334,8.328z"/>
			<path i:knockout="Off" fill="#BB1E00" d="M17.654,5.875l0.034,0.165l0.164,0.046L17.654,5.875z"/>
			<path i:knockout="Off" fill="#B6B600" d="M13.062,9.009c0.961,0.242,1.443,0.366,2.415,0.618
				c0.837-0.539,1.249-0.806,2.058-1.326c-0.152-0.786-0.229-1.18-0.383-1.965c-0.89-0.249-1.37-0.383-2.205-0.613
				c-0.117,0.036-0.235,0.065-0.352,0.101c-0.66,0.438-1.077,0.712-1.824,1.202C12.887,7.817,12.947,8.215,13.062,9.009z"/>
			<path i:knockout="Off" fill="#BB1E00" d="M18.292,4.937l-0.125-0.036c-0.038,0.026-0.066,0.045-0.106,0.072L18.292,4.937z"/>
			<path i:knockout="Off" fill="#BB1E00" d="M18.264,5.506c0.001,0,0.108-0.071,0.108-0.071c1.073-0.724,1.602-1.086,2.613-1.808
				l0.093-0.066c-0.363,0.133-0.729,0.268-1.1,0.405c-0.313,0.115-0.632,0.232-0.948,0.349C18.772,4.491,18.494,4.68,18.167,4.9
				l0.125,0.036l-0.231,0.036c0.04-0.027,0.068-0.046,0.106-0.072l-0.422-0.12c-0.3,0.107-0.6,0.215-0.904,0.32l1.299,0.37
				L18.264,5.506z"/>
			<path i:knockout="Off" fill="#BB1E00" d="M8.125,15.029c-0.048,0.033-0.089,0.062-0.135,0.094l0.016,0.163L8.125,15.029z"/>
			<path i:knockout="Off" fill="#BB1E00" d="M7.725,12.416l0.02,0.199l0.197,0.044L7.725,12.416z"/>
			<path i:knockout="Off" fill="#BB1E00" d="M8.574,15.396c0-0.002-0.016-0.164-0.016-0.164l-0.281-2.867l-0.02-0.199
				c0-0.002-0.197-0.046-0.197-0.046l-0.607-0.134l-0.768-0.171c-0.018,0.182-0.036,0.365-0.054,0.554l0.703,0.156l0.41,0.09
				l-0.02-0.199l0.217,0.243l-0.197-0.044l0.245,2.508c0.046-0.032,0.087-0.061,0.135-0.094l-0.119,0.257L7.99,15.123
				c-0.468,0.323-0.856,0.594-1.226,0.855c0.394-0.041,0.792-0.095,1.195-0.156c0.151-0.105,0.31-0.215,0.48-0.333L8.574,15.396z"/>
			<path i:knockout="Off" fill="#B6B600" d="M7.305,15.063c-0.077-0.831-0.114-1.243-0.186-2.07c-0.2-0.042-0.37-0.078-0.536-0.114
				c-0.073,0.778-0.148,1.664-0.229,2.854C6.638,15.531,6.931,15.324,7.305,15.063z"/>
			<path i:knockout="Off" fill="#BB1E00" d="M8.446,11.445L8.33,11.419l-0.1,0.066L8.446,11.445z"/>
			<path i:knockout="Off" fill="#BB1E00" d="M8.44,12.015c0.002-0.002,0.101-0.066,0.101-0.066l3.044-2.021l0.144-0.097
				c0.001-0.001-0.021-0.172-0.021-0.172l-0.18-1.414l-0.176-1.373l-0.023-0.186l-0.113-0.03c-0.446,0.083-0.892,0.162-1.333,0.216
				l0.913,0.247l0.029,0.008l-0.023-0.184l0.205,0.233l-0.182-0.049l0.153,1.188l0.158,1.242l0.145-0.096l-0.123,0.269l-0.022-0.173
				l-2.805,1.861l0.116,0.026l-0.216,0.04l0.101-0.066l-1.571-0.36c-0.018,0.188-0.036,0.373-0.054,0.559l1.62,0.371L8.44,12.015z"
				/>
			<path i:knockout="Off" fill="#BB1E00" d="M10.801,6.942l0.023,0.184l0.182,0.049L10.801,6.942z"/>
			<path i:knockout="Off" fill="#BB1E00" d="M11.28,9.462l-0.145,0.096l0.022,0.173L11.28,9.462z"/>
			<path i:knockout="Off" fill="#B6B600" d="M6.806,10.563c0.467,0.108,0.889,0.206,1.502,0.349
				c0.881-0.593,1.316-0.881,2.178-1.448c-0.094-0.806-0.141-1.205-0.236-2.008C9.513,7.261,9.06,7.144,8.452,6.981
				C8.199,6.992,7.949,6.988,7.698,6.986c-0.239,0.16-0.457,0.305-0.657,0.439C6.961,8.761,6.883,9.716,6.806,10.563z"/>
		</g>
		<path id="XMLID_2_" i:knockout="Off" fill="none" stroke="#000000" d="M30.873,12.917c-1.431-5.77-14.968,3.093-25.075,3.654
			c0.306-4.888,0.53-5.182,0.798-10.12c9.193,0.861,21.719-8.898,22.73-3.131C29.918,8.631,30.234,7.655,30.873,12.917z"/>
		<g i:knockout="Off">
			<path i:knockout="Off" d="M25.097,15.104l-0.238-3.49l-1.107,0.076l0.24,3.489L25.097,15.104z"/>
		</g>
		<path i:knockout="Off" d="M23.932,14.254c0,2.2,1.726,3.99,3.844,3.99c2.115,0,3.841-1.79,3.841-3.99
			c0-2.201-1.726-3.991-3.841-3.991C25.655,10.263,23.932,12.053,23.932,14.254z"/>
		<radialGradient id="XMLID_1_" cx="27.7715" cy="14.2539" r="2.9174" fx="27.7715" fy="14.2539" gradientUnits="userSpaceOnUse">
			<stop  offset="0" style="stop-color:#000000"/>
			<stop  offset="0.1237" style="stop-color:#030303"/>
			<stop  offset="0.2246" style="stop-color:#0D0D0D"/>
			<stop  offset="0.3174" style="stop-color:#1E1E1E"/>
			<stop  offset="0.4054" style="stop-color:#363636"/>
			<stop  offset="0.4892" style="stop-color:#555555"/>
			<stop  offset="0.5449" style="stop-color:#6E6E6E"/>
			<stop  offset="0.9719" style="stop-color:#FFFFFF"/>
			<a:midPointStop  offset="0" style="stop-color:#000000"/>
			<a:midPointStop  offset="0.7473" style="stop-color:#000000"/>
			<a:midPointStop  offset="0.5449" style="stop-color:#6E6E6E"/>
			<a:midPointStop  offset="0.5" style="stop-color:#6E6E6E"/>
			<a:midPointStop  offset="0.9719" style="stop-color:#FFFFFF"/>
		</radialGradient>
		<path i:knockout="Off" fill="url(#XMLID_1_)" d="M27.773,11.263c1.564,0,2.841,1.343,2.841,2.991s-1.274,2.99-2.841,2.99
			c-1.567,0-2.844-1.342-2.844-2.99C24.931,12.604,26.207,11.263,27.773,11.263z"/>
	</g>
</svg>
