<svg width="18px" height="18px" xmlns="http://www.w3.org/2000/svg" xmlns:xlink="http://www.w3.org/1999/xlink">
<g style="">  <rect x="10.792161" y="8.103442" width="5.377439" height="0.896559" style="fill: rgba(218, 218, 218, 1.000000); stroke-width: 0.000000px; stroke: rgba(0, 0, 0, 1.000000); " fill="#e1e1e1" stroke="#000000" stroke-width="0.000000"  />
  <path d="M16.201143,7.627444 L16.231729,7.630311 L16.263271,7.636046 L16.293857,7.642737 L16.323488,7.652295 L16.352162,7.662809 L16.380837,7.676190 L16.408556,7.690528 L16.435319,7.706777 L16.460170,7.725893 L16.484065,7.745009 L16.507005,7.766993 L16.528033,7.788977 L16.548105,7.813828 L16.567222,7.838680 L16.582515,7.865443 L16.596852,7.893161 L16.610234,7.920880 L16.621703,7.950511 L16.630306,7.980141 L16.637952,8.010727 L16.642731,8.042269 L16.645599,8.072855 L16.646555,8.103442 L16.646555,9.000000 L16.645599,9.031542 L16.642731,9.062128 L16.637952,9.093670 L16.630306,9.123301 L16.621703,9.152931 L16.610234,9.182562 L16.596852,9.210280 L16.582515,9.237999 L16.567222,9.265718 L16.548105,9.290569 L16.528033,9.314465 L16.507005,9.337404 L16.484065,9.358432 L16.460170,9.378505 L16.435319,9.396665 L16.408556,9.412914 L16.380837,9.427251 L16.352162,9.440633 L16.323488,9.452103 L16.293857,9.460705 L16.263271,9.467396 L16.231729,9.473131 L16.201143,9.475998 L16.169601,9.476954 L10.792162,9.476954 L10.760620,9.475998 L10.730989,9.473131 L10.699447,9.467396 L10.668861,9.460705 L10.639231,9.452103 L10.609600,9.440633 L10.581881,9.427251 L10.554163,9.412914 L10.527400,9.396665 L10.501593,9.378505 L10.477697,9.358432 L10.455713,9.337404 L10.433729,9.314465 L10.414613,9.290569 L10.395497,9.265718 L10.379248,9.237999 L10.364910,9.210280 L10.351529,9.182562 L10.341015,9.152931 L10.331457,9.123301 L10.324766,9.093670 L10.319031,9.062128 L10.316164,9.031542 L10.315208,9.000000 L10.315208,8.103442 L10.316164,8.072855 L10.319031,8.042269 L10.324766,8.010727 L10.331457,7.980141 L10.341015,7.950511 L10.351529,7.920880 L10.364910,7.893161 L10.379248,7.865443 L10.395497,7.838680 L10.414613,7.813828 L10.433729,7.788977 L10.455713,7.766993 L10.477697,7.745009 L10.501593,7.725893 L10.527400,7.706777 L10.554163,7.690528 L10.581881,7.676190 L10.609600,7.662809 L10.639231,7.652295 L10.668861,7.642737 L10.699447,7.636046 L10.730989,7.630311 L10.760620,7.627444 L10.792162,7.627444 L16.169601,7.627444 Z M10.792161,8.103442 L10.792161,9.000000 L16.169600,9.000000 L16.169600,8.103442 Z " style="fill: rgba(0, 0, 0, 1.000000); stroke-width: 0.000000px; stroke: rgba(0, 0, 0, 1.000000); " fill="#000000" stroke="#000000" stroke-width="0.000000" />
  <rect x="13.480881" y="12.585279" width="2.688720" height="1.792161" style="fill: rgba(218, 218, 218, 1.000000); stroke-width: 0.000000px; stroke: rgba(0, 0, 0, 1.000000); " fill="#e1e1e1" stroke="#000000" stroke-width="0.000000"  />
  <path d="M16.192540,12.108324 L16.213568,12.110236 L16.236507,12.112147 L16.257535,12.115971 L16.279519,12.120750 L16.300547,12.126485 L16.321575,12.132220 L16.362676,12.148469 L16.401864,12.168541 L16.420981,12.179055 L16.439141,12.191480 L16.457302,12.203906 L16.491711,12.232581 L16.522297,12.263167 L16.550972,12.297576 L16.563398,12.314781 L16.575823,12.333898 L16.586337,12.353014 L16.606410,12.392203 L16.622658,12.433303 L16.628393,12.454331 L16.634128,12.475359 L16.638907,12.497343 L16.641775,12.518371 L16.644642,12.541310 L16.646554,12.562338 L16.646554,14.399423 L16.644642,14.421407 L16.641775,14.443391 L16.638907,14.465375 L16.634128,14.486403 L16.628393,14.508386 L16.622658,14.528459 L16.614056,14.549487 L16.606410,14.569559 L16.595896,14.589631 L16.586337,14.609703 L16.575823,14.627864 L16.563398,14.646980 L16.550972,14.665141 L16.536635,14.682346 L16.522297,14.698594 L16.507004,14.713888 L16.491711,14.729181 L16.474506,14.743518 L16.457302,14.757855 L16.439141,14.771237 L16.420981,14.783662 L16.401864,14.794176 L16.381792,14.803735 L16.362676,14.814249 L16.341648,14.821895 L16.321575,14.829542 L16.300547,14.836232 L16.279519,14.841967 L16.257535,14.845791 L16.236507,14.849614 L16.213568,14.852481 L16.192540,14.854393 L16.169600,14.854393 L13.480880,14.854393 L13.458897,14.854393 L13.436913,14.852481 L13.414929,14.849614 L13.392945,14.845791 L13.371917,14.841967 L13.349933,14.836232 L13.329861,14.829542 L13.308833,14.821895 L13.288761,14.814249 L13.268689,14.803735 L13.248616,14.794176 L13.230456,14.783662 L13.211339,14.771237 L13.193179,14.757855 L13.175974,14.743518 L13.159725,14.729181 L13.144432,14.713888 L13.129139,14.698594 L13.114802,14.682346 L13.100464,14.665141 L13.088039,14.646980 L13.074657,14.627864 L13.064143,14.609703 L13.054585,14.589631 L13.045027,14.569559 L13.036425,14.549487 L13.028778,14.528459 L13.022087,14.508386 L13.017308,14.486403 L13.012529,14.465375 L13.008706,14.443391 L13.005838,14.421407 L13.003927,14.399423 L13.003927,14.377439 L13.003927,12.585278 L13.003927,12.562338 L13.005838,12.541310 L13.008706,12.518371 L13.012529,12.497343 L13.017308,12.475359 L13.022087,12.454331 L13.028778,12.433303 L13.036425,12.413231 L13.045027,12.392203 L13.054585,12.372130 L13.064143,12.353014 L13.074657,12.333898 L13.088039,12.314781 L13.100464,12.297576 L13.114802,12.280372 L13.129139,12.263167 L13.144432,12.247874 L13.159725,12.232581 L13.175974,12.218243 L13.193179,12.203906 L13.211339,12.191481 L13.230456,12.179055 L13.248616,12.168541 L13.268689,12.158027 L13.288761,12.148469 L13.308833,12.140822 L13.329861,12.132220 L13.349933,12.126485 L13.371917,12.120750 L13.392945,12.115971 L13.414929,12.112148 L13.436913,12.110236 L13.458897,12.108324 Z M13.480881,12.585279 L13.480881,14.377440 L16.169600,14.377440 L16.169600,12.585279 Z " style="fill: rgba(0, 0, 0, 1.000000); stroke-width: 0.000000px; stroke: rgba(0, 0, 0, 1.000000); " fill="#000000" stroke="#000000" stroke-width="0.000000" />
  <rect x="13.480881" y="2.726002" width="2.688720" height="1.792161" style="fill: rgba(218, 218, 218, 1.000000); stroke-width: 0.000000px; stroke: rgba(0, 0, 0, 1.000000); " fill="#e1e1e1" stroke="#000000" stroke-width="0.000000"  />
  <path d="M16.192540,2.250004 L16.213568,2.251916 L16.236507,2.253827 L16.257535,2.257651 L16.279519,2.262430 L16.300547,2.267209 L16.321575,2.273900 L16.362676,2.290149 L16.401864,2.309265 L16.420981,2.320735 L16.439141,2.333160 L16.457302,2.345586 L16.491711,2.374261 L16.522297,2.404847 L16.550972,2.438301 L16.563398,2.456461 L16.575823,2.475578 L16.586337,2.494694 L16.606410,2.533883 L16.622658,2.574983 L16.628393,2.596011 L16.634128,2.617039 L16.638907,2.639023 L16.641775,2.660051 L16.644642,2.682990 L16.646554,2.704018 L16.646554,4.541103 L16.644642,4.563087 L16.641775,4.585071 L16.638907,4.607055 L16.634128,4.628083 L16.628393,4.650066 L16.622658,4.670139 L16.614056,4.691167 L16.606410,4.711239 L16.595896,4.731311 L16.586337,4.751383 L16.575823,4.769544 L16.563398,4.788660 L16.550972,4.806821 L16.536635,4.824026 L16.522297,4.840274 L16.507004,4.855568 L16.491711,4.870861 L16.474506,4.885198 L16.457302,4.899535 L16.439141,4.911961 L16.420981,4.925342 L16.401864,4.935856 L16.381792,4.945415 L16.362676,4.954973 L16.341648,4.963575 L16.321575,4.971222 L16.300547,4.977912 L16.279519,4.982692 L16.257535,4.987471 L16.236507,4.991294 L16.213568,4.994161 L16.192540,4.996073 L16.169600,4.996073 L13.480880,4.996073 L13.458897,4.996073 L13.436913,4.994161 L13.414929,4.991294 L13.392945,4.987471 L13.371917,4.982692 L13.349933,4.977912 L13.329861,4.971222 L13.308833,4.963575 L13.288761,4.954973 L13.268689,4.945415 L13.248616,4.935856 L13.230456,4.925342 L13.211339,4.911961 L13.193179,4.899535 L13.175974,4.885198 L13.159725,4.870861 L13.144432,4.855568 L13.129139,4.840274 L13.114802,4.824026 L13.100464,4.806821 L13.088039,4.788660 L13.074657,4.769544 L13.064143,4.751383 L13.054585,4.731311 L13.045027,4.711239 L13.036425,4.691167 L13.028778,4.670139 L13.022087,4.650066 L13.017308,4.628083 L13.012529,4.607055 L13.008706,4.585071 L13.005838,4.563087 L13.003927,4.541103 L13.003927,4.519119 L13.003927,2.726002 L13.003927,2.704018 L13.005838,2.682990 L13.008706,2.660051 L13.012529,2.639023 L13.017308,2.617039 L13.022087,2.596011 L13.028778,2.574983 L13.036425,2.553955 L13.045027,2.533883 L13.054585,2.513810 L13.064143,2.494694 L13.074657,2.475578 L13.088039,2.456461 L13.100464,2.438301 L13.114802,2.422052 L13.129139,2.404847 L13.144432,2.389554 L13.159725,2.374261 L13.175974,2.359923 L13.193179,2.345586 L13.211339,2.333160 L13.230456,2.320735 L13.248616,2.309265 L13.268689,2.299707 L13.288761,2.290149 L13.308833,2.281546 L13.329861,2.273900 L13.349933,2.267209 L13.371917,2.262430 L13.392945,2.257651 L13.414929,2.253827 L13.436913,2.251916 L13.458897,2.250004 Z M13.480881,2.726002 L13.480881,4.519119 L16.169600,4.519119 L16.169600,2.726002 Z " style="fill: rgba(0, 0, 0, 1.000000); stroke-width: 0.000000px; stroke: rgba(0, 0, 0, 1.000000); " fill="#000000" stroke="#000000" stroke-width="0.000000" />
  <path d="M11.689676,3.622561 L11.017735,3.622561 C11.008176,6.390613,9.341228,8.666419,7.207839,8.949342 L7.207839,9.029630 C9.341228,9.311597,11.008176,11.588359,11.017735,14.355456 L11.689676,14.355456 L11.689676,16.148573 L11.688720,16.148573 L11.688720,16.169601 L1.830400,16.169601 L1.830400,14.377439 L1.831355,14.377439 L1.831355,14.355456 L2.503296,14.355456 C2.510943,11.589314,4.177892,9.312553,6.311280,9.029630 L6.311280,8.949342 C4.177892,8.665463,2.510943,6.389658,2.503296,3.622561 L1.830400,3.622561 L1.830400,1.830400 L11.689675,1.830400 Z M9.897514,14.377440 C9.897514,14.369793,9.897514,14.363102,9.897514,14.355456 C9.897514,11.881795,8.490548,9.874575,6.760515,9.874575 C5.028571,9.874575,3.623517,11.881795,3.623517,14.355456 C3.623517,14.363102,3.623517,14.369793,3.623517,14.377440 Z M9.897514,3.622561 L3.623517,3.622561 C3.623517,6.096221,5.028571,8.103442,6.760515,8.103442 C8.490548,8.103442,9.897514,6.096221,9.897514,3.622561 Z " style="fill: rgba(218, 218, 218, 1.000000); " fill="#e1e1e1" stroke="none" />
  <path d="M11.738422,1.356313 L11.788125,1.363004 L11.836871,1.376385 L11.882751,1.394546 L11.927674,1.417486 L11.969730,1.444249 L12.008919,1.475791 L12.043328,1.511156 L12.074870,1.549389 L12.102589,1.591445 L12.125529,1.636368 L12.142734,1.683203 L12.155159,1.730994 L12.163762,1.779741 L12.166629,1.830400 L12.166629,3.622561 L12.163762,3.673219 L12.155159,3.721966 L12.142734,3.769757 L12.125529,3.816592 L12.102589,3.861516 L12.074870,3.903572 L12.043328,3.941804 L12.008919,3.977170 L11.969730,4.008712 L11.927674,4.035475 L11.882751,4.058414 L11.836871,4.076575 L11.788125,4.089956 L11.738422,4.096647 L11.689675,4.099515 L11.477483,4.099515 L11.471748,4.173113 L11.460279,4.306927 L11.445941,4.441698 L11.428737,4.575513 L11.409620,4.707416 L11.388592,4.839319 L11.364697,4.968354 L11.337934,5.097390 L11.309259,5.226425 L11.278673,5.352594 L11.246175,5.477806 L11.210810,5.602062 L11.173533,5.726319 L11.134344,5.847708 L11.091332,5.968141 L11.048321,6.087619 L11.002441,6.205184 L10.954650,6.320839 L10.903992,6.436493 L10.852378,6.549279 L10.797896,6.662066 L10.742458,6.771985 L10.684153,6.879993 L10.623937,6.988000 L10.561808,7.093141 L10.498724,7.196369 L10.432773,7.297686 L10.365866,7.398047 L10.297047,7.497452 L10.225360,7.593034 L10.152718,7.686704 L10.078164,7.780375 L10.001698,7.871177 L9.924277,7.958157 L9.843988,8.045137 L9.763699,8.130204 L9.680543,8.212405 L9.596431,8.291738 L9.510407,8.370115 L9.422472,8.445625 L9.333581,8.518267 L9.242778,8.589954 L9.151019,8.657817 L9.056393,8.723768 L8.961767,8.786852 L8.865229,8.848025 L8.766780,8.906330 L8.668330,8.962723 L8.616716,8.989486 L8.668330,9.016249 L8.766780,9.072642 L8.865229,9.130947 L8.961767,9.192120 L9.056393,9.254248 L9.151019,9.321155 L9.242778,9.389018 L9.333581,9.459749 L9.422472,9.533347 L9.510407,9.608857 L9.596431,9.686278 L9.680543,9.766567 L9.763699,9.848768 L9.843988,9.932880 L9.924277,10.018903 L10.001698,10.107795 L10.078164,10.198597 L10.152718,10.290356 L10.225360,10.385938 L10.297047,10.481520 L10.365866,10.579969 L10.432773,10.680330 L10.498724,10.781647 L10.561808,10.885831 L10.623937,10.990972 L10.684153,11.098023 L10.742458,11.206031 L10.797896,11.316906 L10.852378,11.428737 L10.903992,11.541524 L10.954650,11.657178 L11.002441,11.772832 L11.048321,11.891353 L11.091332,12.010831 L11.134344,12.130308 L11.173533,12.252653 L11.210810,12.375954 L11.246175,12.500210 L11.278673,12.626378 L11.309259,12.752547 L11.337934,12.880626 L11.364697,13.009662 L11.388592,13.139653 L11.409620,13.271556 L11.428737,13.403459 L11.445941,13.536318 L11.460279,13.671089 L11.471748,13.805859 L11.477483,13.879457 L11.689675,13.879457 L11.738422,13.881369 L11.788125,13.889016 L11.836871,13.902397 L11.882751,13.920558 L11.927674,13.942542 L11.969730,13.969305 L12.008919,14.000847 L12.043328,14.037168 L12.074870,14.075400 L12.102589,14.117456 L12.125529,14.161424 L12.142734,14.208259 L12.155159,14.256050 L12.163762,14.305753 L12.166629,14.355455 L12.166629,16.148573 L12.165673,16.160998 L12.165673,16.169601 L12.162806,16.220259 L12.155159,16.269006 L12.141778,16.316797 L12.124573,16.363632 L12.101633,16.408555 L12.074870,16.450611 L12.043328,16.488844 L12.007963,16.524209 L11.968774,16.555752 L11.926718,16.582514 L11.881795,16.605454 L11.835916,16.623615 L11.788125,16.636996 L11.738422,16.643687 L11.688719,16.646554 L1.830399,16.646554 L1.779741,16.643687 L1.730994,16.636996 L1.683203,16.623615 L1.636368,16.605454 L1.591444,16.582514 L1.549388,16.555752 L1.511156,16.524209 L1.475790,16.488844 L1.444248,16.450611 L1.417485,16.408555 L1.394546,16.363632 L1.376385,16.316797 L1.363004,16.269006 L1.356313,16.220259 L1.353445,16.169601 L1.353445,14.377439 L1.353445,14.365014 L1.353445,14.355456 L1.356313,14.305753 L1.363959,14.256050 L1.377341,14.208259 L1.395501,14.161424 L1.418441,14.117457 L1.445204,14.075400 L1.475790,14.037168 L1.512111,14.000847 L1.550344,13.969305 L1.592400,13.942542 L1.636368,13.920558 L1.683203,13.902397 L1.731950,13.889016 L1.780697,13.881369 L1.831355,13.879458 L2.043547,13.879458 L2.048326,13.805859 L2.059796,13.671089 L2.074133,13.536318 L2.091338,13.404415 L2.109498,13.271556 L2.131482,13.140609 L2.155378,13.009662 L2.181185,12.880626 L2.209859,12.753502 L2.240446,12.626378 L2.273899,12.500210 L2.309265,12.375954 L2.346542,12.253609 L2.385730,12.131264 L2.427786,12.010831 L2.471754,11.891353 L2.517633,11.773788 L2.566380,11.657178 L2.616083,11.542479 L2.668653,11.429693 L2.722179,11.317862 L2.777616,11.206987 L2.835921,11.098979 L2.896138,10.990972 L2.957310,10.886787 L3.021350,10.782603 L3.086346,10.680330 L3.154209,10.580925 L3.223028,10.482476 L3.294714,10.386894 L3.367357,10.291312 L3.441911,10.199553 L3.517420,10.108750 L3.595797,10.019859 L3.675130,9.933836 L3.756375,9.849723 L3.838576,9.767523 L3.923643,9.687234 L4.009667,9.609813 L4.096647,9.534303 L4.186494,9.460705 L4.277297,9.389974 L4.369055,9.322111 L4.462726,9.255204 L4.557352,9.192120 L4.653889,9.130947 L4.752339,9.072642 L4.851744,9.017205 L4.904314,8.989486 L4.851744,8.961767 L4.752339,8.906330 L4.653889,8.848025 L4.557352,8.786852 L4.462726,8.722812 L4.369055,8.656861 L4.277297,8.588998 L4.186494,8.518267 L4.096647,8.444669 L4.009667,8.369159 L3.923643,8.290782 L3.838576,8.211449 L3.756375,8.129249 L3.675130,8.044181 L3.595797,7.958157 L3.517420,7.870222 L3.441911,7.779419 L3.367357,7.686704 L3.294714,7.592078 L3.223028,7.496496 L3.154209,7.397091 L3.086346,7.297686 L3.021350,7.196369 L2.957310,7.092185 L2.896138,6.987045 L2.835921,6.879993 L2.777616,6.771029 L2.722179,6.661110 L2.668653,6.549279 L2.616083,6.435537 L2.566380,6.320839 L2.517633,6.204229 L2.471754,6.087619 L2.427786,5.968141 L2.385730,5.846752 L2.346542,5.725363 L2.309265,5.602062 L2.273899,5.477806 L2.240446,5.352594 L2.209859,5.225470 L2.181185,5.097390 L2.155378,4.968354 L2.131482,4.838363 L2.109498,4.707416 L2.091338,4.574557 L2.074133,4.441698 L2.059796,4.306927 L2.048326,4.173113 L2.043547,4.099515 L1.830399,4.099515 L1.779741,4.096647 L1.730994,4.089956 L1.683203,4.076575 L1.636368,4.058414 L1.591444,4.035475 L1.549388,4.008712 L1.511156,3.977170 L1.475790,3.941804 L1.444248,3.903572 L1.417485,3.861516 L1.394546,3.816592 L1.376385,3.769757 L1.363004,3.721966 L1.356313,3.673219 L1.353445,3.622561 L1.353445,1.830400 L1.356313,1.779741 L1.363004,1.730994 L1.376385,1.683203 L1.394546,1.636368 L1.417485,1.591445 L1.444248,1.549389 L1.475790,1.511156 L1.511156,1.475791 L1.549388,1.444249 L1.591444,1.417486 L1.636368,1.394546 L1.683203,1.376385 L1.730994,1.363004 L1.779741,1.356313 L1.830399,1.353446 L11.689675,1.353446 Z M1.830399,1.830399 L1.830399,3.622561 L2.503296,3.622561 L2.505208,3.751596 L2.509031,3.880632 L2.514766,4.007756 L2.524324,4.134880 L2.534838,4.262004 L2.548220,4.386260 L2.564469,4.510517 L2.582629,4.634773 L2.601746,4.756162 L2.624685,4.878507 L2.648581,4.997985 L2.675344,5.117462 L2.703062,5.235028 L2.734605,5.352594 L2.767102,5.468248 L2.801512,5.582946 L2.838789,5.695733 L2.877022,5.807564 L2.918122,5.917483 L2.960178,6.027402 L3.005101,6.134454 L3.050981,6.241506 L3.099728,6.345690 L3.149430,6.448918 L3.201044,6.550235 L3.254570,6.650596 L3.310008,6.750001 L3.366401,6.846539 L3.425662,6.942121 L3.485878,7.035791 L3.547051,7.126594 L3.610135,7.217397 L3.675131,7.305332 L3.742038,7.391356 L3.809901,7.476424 L3.878720,7.558625 L3.949451,7.639869 L4.022093,7.717291 L4.095691,7.794712 L4.171201,7.869266 L4.247666,7.941908 L4.325088,8.011683 L4.404421,8.079546 L4.484710,8.144542 L4.565954,8.209537 L4.649111,8.270710 L4.732267,8.329971 L4.817335,8.386364 L4.903358,8.440846 L4.991294,8.492460 L5.079229,8.542163 L5.169076,8.589954 L5.213044,8.611937 L5.258923,8.633921 L5.303847,8.654949 L5.349726,8.675977 L5.396561,8.696049 L5.442441,8.715166 L5.535155,8.752443 L5.582946,8.769648 L5.629781,8.786852 L5.676616,8.803101 L5.724407,8.818394 L5.773154,8.832732 L5.819989,8.847069 L5.868736,8.860450 L5.916527,8.872876 L5.965274,8.884346 L6.014976,8.895816 L6.063723,8.906330 L6.112470,8.916844 L6.162172,8.925446 L6.211875,8.935004 L6.261578,8.941695 L6.311280,8.949342 L6.311280,9.029630 L6.261578,9.036321 L6.211875,9.043968 L6.162172,9.052570 L6.112470,9.062128 L6.063723,9.071686 L6.014976,9.082200 L5.965274,9.093670 L5.916527,9.106096 L5.868736,9.118522 L5.819989,9.131903 L5.773154,9.146240 L5.724407,9.160578 L5.676616,9.175871 L5.629781,9.192120 L5.582946,9.208369 L5.535155,9.225573 L5.488320,9.244690 L5.442441,9.262850 L5.396561,9.281967 L5.349726,9.302039 L5.303847,9.323067 L5.258923,9.344095 L5.213044,9.366079 L5.169076,9.389018 L5.079229,9.436809 L4.991294,9.485556 L4.903359,9.538126 L4.817335,9.592608 L4.732267,9.649001 L4.649111,9.708262 L4.565954,9.769435 L4.484710,9.832519 L4.404421,9.898470 L4.325088,9.967289 L4.247666,10.037064 L4.171201,10.109706 L4.095691,10.184260 L4.022093,10.260726 L3.949451,10.339103 L3.878720,10.419392 L3.809901,10.501592 L3.742038,10.586660 L3.675131,10.673640 L3.610135,10.760619 L3.547051,10.851422 L3.485878,10.943181 L3.425662,11.035895 L3.366401,11.132433 L3.310008,11.228971 L3.254570,11.327420 L3.201044,11.427781 L3.149430,11.529098 L3.099728,11.632326 L3.050981,11.737466 L3.005101,11.843562 L2.960178,11.951570 L2.918122,12.060533 L2.877022,12.170453 L2.838789,12.283239 L2.801512,12.396026 L2.767102,12.510724 L2.734605,12.626378 L2.703063,12.743944 L2.675344,12.860554 L2.648581,12.980032 L2.624685,13.100465 L2.601746,13.221854 L2.582629,13.344199 L2.564469,13.467499 L2.548220,13.592712 L2.534838,13.716968 L2.524324,13.843136 L2.514766,13.970260 L2.509031,14.097384 L2.505208,14.226420 L2.503296,14.355455 L1.831355,14.355455 L1.831355,14.377439 L1.830399,14.377439 L1.830399,16.169600 L11.688720,16.169600 L11.688720,16.148572 L11.689676,16.148572 L11.689676,14.355455 L11.017735,14.355455 L11.015823,14.226420 L11.011044,14.097384 L11.005309,13.970260 L10.996707,13.843136 L10.985237,13.716968 L10.971855,13.591756 L10.956562,13.467499 L10.938402,13.344199 L10.919285,13.220898 L10.896346,13.100465 L10.871494,12.980031 L10.845687,12.860554 L10.817013,12.742988 L10.786426,12.626378 L10.752973,12.510724 L10.717607,12.396026 L10.681286,12.283239 L10.643053,12.170453 L10.602909,12.060533 L10.559897,11.951570 L10.515929,11.842607 L10.469094,11.737466 L10.420348,11.632326 L10.370645,11.529098 L10.319031,11.426825 L10.265505,11.326464 L10.210067,11.228015 L10.153674,11.131477 L10.095369,11.035895 L10.034197,10.942225 L9.972068,10.850466 L9.909940,10.760619 L9.843988,10.672684 L9.778037,10.586660 L9.710174,10.501592 L9.640399,10.418436 L9.569668,10.339103 L9.497026,10.259770 L9.424384,10.184260 L9.348874,10.108750 L9.272409,10.037064 L9.194031,9.966333 L9.115654,9.898470 L9.035365,9.832519 L8.953165,9.769434 L8.870964,9.707306 L8.786852,9.648045 L8.701784,9.591652 L8.615761,9.537170 L8.528781,9.484600 L8.439890,9.435854 L8.350999,9.389018 L8.305119,9.366079 L8.260196,9.344095 L8.215272,9.323067 L8.169393,9.302039 L8.123514,9.281967 L8.076679,9.262850 L8.029843,9.243734 L7.983964,9.225573 L7.936173,9.208369 L7.889338,9.192120 L7.842503,9.175871 L7.794712,9.160578 L7.745965,9.145285 L7.699130,9.131903 L7.650383,9.118522 L7.601636,9.106096 L7.553845,9.093670 L7.504143,9.082200 L7.455396,9.071686 L7.406649,9.062128 L7.356947,9.052570 L7.307244,9.043968 L7.257541,9.036321 L7.207839,9.029630 L7.207839,8.949342 L7.257541,8.941695 L7.307244,8.935004 L7.356947,8.925446 L7.406649,8.916844 L7.455396,8.906330 L7.504143,8.895816 L7.553845,8.885302 L7.601636,8.872876 L7.650383,8.860450 L7.699130,8.847069 L7.745965,8.833687 L7.794712,8.818394 L7.842503,8.803101 L7.889338,8.786852 L7.936173,8.769648 L7.983964,8.752443 L8.029843,8.734282 L8.076679,8.716122 L8.123514,8.696049 L8.169393,8.676933 L8.215272,8.655905 L8.260196,8.633921 L8.305119,8.612893 L8.350999,8.589953 L8.439890,8.543118 L8.528781,8.493416 L8.615761,8.441802 L8.701784,8.387320 L8.786852,8.330926 L8.870964,8.271666 L8.953165,8.209537 L9.035365,8.145498 L9.115654,8.080502 L9.194031,8.012639 L9.272409,7.941908 L9.348874,7.870222 L9.424384,7.794712 L9.497026,7.718246 L9.569668,7.639869 L9.640399,7.558624 L9.710174,7.476424 L9.778037,7.392312 L9.843988,7.306288 L9.909940,7.217397 L9.972068,7.127550 L10.034197,7.036747 L10.095369,6.942121 L10.153674,6.847495 L10.210067,6.750957 L10.265505,6.651552 L10.319031,6.551191 L10.370645,6.448918 L10.420348,6.346646 L10.469094,6.241505 L10.515929,6.134454 L10.559897,6.027402 L10.602909,5.917483 L10.643053,5.807564 L10.681286,5.695733 L10.717607,5.582946 L10.752973,5.468248 L10.786426,5.352594 L10.817013,5.235984 L10.845687,5.117462 L10.871494,4.997985 L10.896346,4.878507 L10.919285,4.757118 L10.938402,4.634773 L10.956562,4.510517 L10.971855,4.387216 L10.985237,4.262004 L10.996707,4.134880 L11.005309,4.007756 L11.011044,3.880632 L11.015823,3.751596 L11.017735,3.622561 L11.689676,3.622561 L11.689676,1.830399 Z M6.800660,9.874575 L6.922049,9.880310 L6.961237,9.884133 L7.001382,9.887956 L7.040570,9.892735 L7.080715,9.898470 L7.159092,9.910896 L7.198281,9.917586 L7.237469,9.927145 L7.276658,9.934791 L7.354079,9.954863 L7.392312,9.966333 L7.429589,9.976847 L7.468777,9.989273 L7.506054,10.001699 L7.543331,10.015080 L7.617885,10.044710 L7.692439,10.076252 L7.766037,10.110662 L7.838679,10.146983 L7.910366,10.186172 L7.981097,10.227272 L8.050871,10.271240 L8.119690,10.316163 L8.187554,10.364910 L8.254461,10.415568 L8.320412,10.469094 L8.386364,10.523576 L8.450404,10.580925 L8.513488,10.640186 L8.575616,10.702314 L8.635833,10.765398 L8.696049,10.831350 L8.755310,10.898257 L8.812659,10.968032 L8.869053,11.039718 L8.923534,11.112361 L8.978016,11.187870 L9.030586,11.264336 L9.081245,11.343669 L9.131903,11.423958 L9.179694,11.506158 L9.227485,11.590270 L9.273364,11.675338 L9.318288,11.762318 L9.361300,11.851209 L9.402400,11.941056 L9.442544,12.032815 L9.481733,12.126485 L9.518054,12.220155 L9.553419,12.316693 L9.586873,12.413231 L9.619371,12.512636 L9.650913,12.612041 L9.679587,12.713358 L9.706350,12.815631 L9.732157,12.918859 L9.755097,13.023999 L9.778037,13.130095 L9.798109,13.236191 L9.816270,13.344199 L9.833474,13.453162 L9.847812,13.563081 L9.860237,13.673956 L9.871707,13.784831 L9.881265,13.897618 L9.887956,14.010405 L9.892735,14.125103 L9.896558,14.239801 L9.897514,14.355455 L9.897514,14.377439 L3.623516,14.377439 L3.623516,14.355455 L3.624472,14.239801 L3.627340,14.125103 L3.632119,14.010405 L3.639765,13.897618 L3.648368,13.784831 L3.659837,13.673956 L3.672263,13.563081 L3.687556,13.453162 L3.703805,13.344199 L3.721966,13.236191 L3.742994,13.130095 L3.764022,13.023999 L3.788873,12.918859 L3.813724,12.815631 L3.841443,12.713358 L3.870118,12.612041 L3.900704,12.512636 L3.933202,12.413231 L3.966655,12.316693 L4.002021,12.220155 L4.039298,12.126485 L4.077530,12.032815 L4.117675,11.941056 L4.159731,11.851209 L4.202743,11.762318 L4.246710,11.675338 L4.292590,11.590270 L4.339425,11.506158 L4.389128,11.423958 L4.437874,11.343669 L4.490444,11.264336 L4.542059,11.187870 L4.595585,11.112361 L4.651978,11.039718 L4.708371,10.968032 L4.765720,10.898257 L4.824025,10.831350 L4.883286,10.765398 L4.944459,10.702314 L5.006587,10.640186 L5.069671,10.580925 L5.133711,10.523576 L5.198706,10.469094 L5.265614,10.415568 L5.332521,10.364910 L5.400384,10.316163 L5.470159,10.271240 L5.539934,10.227272 L5.610665,10.186172 L5.682351,10.146983 L5.754993,10.110662 L5.827636,10.076252 L5.902189,10.044710 L5.975788,10.015080 L6.014976,10.001699 L6.052253,9.989273 L6.089530,9.976847 L6.128719,9.966333 L6.166951,9.954863 L6.205184,9.944349 L6.244373,9.934791 L6.282606,9.927145 L6.321794,9.917586 L6.360983,9.910896 L6.400171,9.904205 L6.439360,9.898470 L6.478549,9.892735 L6.519649,9.887956 L6.558837,9.884133 L6.598982,9.880310 L6.639126,9.878398 L6.678315,9.876486 L6.720371,9.874575 Z M6.728018,10.352484 L6.696476,10.353440 L6.663978,10.354396 L6.633392,10.356308 L6.601850,10.358219 L6.570308,10.362042 L6.538765,10.365866 L6.508179,10.370645 L6.477593,10.374468 L6.446051,10.380203 L6.415465,10.385938 L6.384879,10.392629 L6.353337,10.399319 L6.322750,10.406966 L6.292164,10.415568 L6.261578,10.423215 L6.231947,10.432773 L6.202317,10.443287 L6.171731,10.452845 L6.143056,10.462403 L6.080928,10.487255 L6.021667,10.512106 L5.962406,10.539825 L5.903146,10.569455 L5.844841,10.601953 L5.786536,10.635407 L5.729187,10.671728 L5.671837,10.709961 L5.614488,10.750105 L5.557139,10.792161 L5.501702,10.837085 L5.446264,10.883920 L5.391782,10.933622 L5.338256,10.983325 L5.284731,11.035895 L5.232161,11.091333 L5.180546,11.148682 L5.128932,11.206987 L5.079229,11.267203 L5.029527,11.330287 L4.981736,11.394327 L4.932989,11.461235 L4.886154,11.529098 L4.841230,11.599828 L4.796307,11.671515 L4.752339,11.745113 L4.710283,11.819667 L4.669183,11.896132 L4.629039,11.975465 L4.590806,12.054798 L4.552573,12.136999 L4.517208,12.220155 L4.480887,12.304267 L4.448389,12.390291 L4.415891,12.477271 L4.384349,12.566162 L4.355674,12.656965 L4.327000,12.747767 L4.301193,12.840482 L4.276341,12.934152 L4.252446,13.029734 L4.230462,13.125316 L4.210390,13.222810 L4.192229,13.320303 L4.175024,13.419708 L4.159731,13.520069 L4.146350,13.621386 L4.133924,13.724615 L4.123410,13.827843 L4.118631,13.900485 L9.402400,13.900485 L9.395709,13.827843 L9.386151,13.724615 L9.374681,13.621386 L9.361300,13.520069 L9.346007,13.419708 L9.328802,13.320303 L9.309685,13.222810 L9.289613,13.125316 L9.267629,13.029734 L9.244690,12.934152 L9.219838,12.840482 L9.193076,12.747767 L9.165357,12.656965 L9.135726,12.566162 L9.105140,12.477271 L9.072642,12.390291 L9.038233,12.304267 L9.003823,12.220155 L8.966546,12.136999 L8.930225,12.054798 L8.891037,11.975465 L8.850892,11.896132 L8.809792,11.819667 L8.766780,11.745113 L8.723768,11.671515 L8.678845,11.599828 L8.633921,11.529098 L8.587086,11.461235 L8.539295,11.394327 L8.490548,11.330287 L8.441802,11.267203 L8.391143,11.206987 L8.340485,11.148682 L8.288870,11.091333 L8.235345,11.035895 L8.181819,10.983325 L8.128293,10.933622 L8.072855,10.883920 L8.017418,10.837085 L7.961980,10.792161 L7.905587,10.750105 L7.849194,10.709961 L7.791844,10.671728 L7.733539,10.635407 L7.675234,10.601953 L7.616930,10.569455 L7.557669,10.539825 L7.498408,10.512106 L7.439147,10.487255 L7.377019,10.462403 L7.349300,10.452845 L7.318714,10.443287 L7.288128,10.432773 L7.257541,10.423215 L7.226955,10.415568 L7.196369,10.406966 L7.166739,10.399319 L7.136152,10.392629 L7.104610,10.385938 L7.074024,10.380203 L7.043438,10.374468 L7.011896,10.370645 L6.980354,10.365866 L6.949768,10.362042 L6.918226,10.358219 L6.886684,10.356308 L6.855142,10.354396 L6.823599,10.353440 L6.792057,10.352484 L6.760515,10.351528 Z M9.896558,3.738215 L9.892735,3.852913 L9.887956,3.966656 L9.881265,4.080398 L9.871707,4.192229 L9.860237,4.305016 L9.847811,4.415891 L9.833474,4.524854 L9.816269,4.634773 L9.798109,4.741825 L9.778037,4.848877 L9.755097,4.954017 L9.732157,5.059157 L9.706350,5.162385 L9.679587,5.265614 L9.650913,5.365975 L9.619371,5.466336 L9.586873,5.564785 L9.553419,5.661323 L9.518054,5.757861 L9.481733,5.852487 L9.442544,5.946157 L9.402400,6.036960 L9.361299,6.127763 L9.318288,6.216654 L9.273364,6.303634 L9.227485,6.388702 L9.179694,6.472814 L9.131903,6.554058 L9.081244,6.635303 L9.030586,6.713680 L8.978016,6.791102 L8.923534,6.865655 L8.869052,6.938298 L8.812659,7.009984 L8.755310,7.080715 L8.696049,7.147622 L8.635833,7.212618 L8.575616,7.276658 L8.513488,7.338786 L8.450404,7.397091 L8.386364,7.454440 L8.320412,7.509878 L8.254461,7.562448 L8.187553,7.613106 L8.119690,7.661853 L8.050871,7.707732 L7.981096,7.751700 L7.910366,7.792800 L7.838679,7.831033 L7.766037,7.868310 L7.692439,7.901764 L7.617885,7.933306 L7.543331,7.961980 L7.506054,7.976317 L7.468777,7.988743 L7.429589,8.001169 L7.392312,8.012639 L7.354079,8.023153 L7.314890,8.033667 L7.276658,8.043225 L7.237469,8.051827 L7.198280,8.059474 L7.159092,8.068076 L7.119903,8.073811 L7.080715,8.080502 L7.040570,8.086237 L7.001382,8.090060 L6.961237,8.094839 L6.922049,8.097707 L6.880948,8.100574 L6.840804,8.101530 L6.800660,8.103441 L6.760515,8.103441 L6.720371,8.103441 L6.678315,8.101530 L6.639126,8.100574 L6.598982,8.097707 L6.558837,8.094839 L6.519649,8.090060 L6.478548,8.086237 L6.439360,8.080502 L6.400171,8.073811 L6.360983,8.068076 L6.321794,8.059474 L6.282605,8.051827 L6.244373,8.043225 L6.205184,8.033667 L6.166951,8.023153 L6.128719,8.012639 L6.089530,8.001169 L6.052253,7.988743 L6.014976,7.976317 L5.975787,7.961980 L5.902189,7.933306 L5.827636,7.901764 L5.754993,7.868310 L5.682351,7.831033 L5.610665,7.792800 L5.539934,7.751700 L5.470159,7.707732 L5.400384,7.661853 L5.332521,7.613106 L5.265614,7.562448 L5.198706,7.509878 L5.133711,7.454440 L5.069671,7.397091 L5.006587,7.338786 L4.944458,7.276658 L4.883286,7.212618 L4.824025,7.147622 L4.765720,7.080715 L4.708371,7.009984 L4.651978,6.938298 L4.595584,6.865655 L4.542059,6.791102 L4.490444,6.713680 L4.437874,6.635303 L4.389127,6.554058 L4.339425,6.472814 L4.292590,6.388702 L4.246710,6.303634 L4.202743,6.216654 L4.159731,6.127763 L4.117675,6.036960 L4.077530,5.946157 L4.039298,5.852487 L4.002021,5.757861 L3.966655,5.661323 L3.933202,5.564785 L3.900704,5.466336 L3.870118,5.365975 L3.841443,5.265614 L3.813724,5.162385 L3.788873,5.059157 L3.764022,4.954017 L3.742994,4.848877 L3.721966,4.741825 L3.703805,4.634773 L3.687556,4.524854 L3.672263,4.415891 L3.659837,4.305016 L3.648368,4.192229 L3.639765,4.080398 L3.632119,3.966656 L3.627340,3.852913 L3.624472,3.738215 L3.623516,3.622561 L9.897514,3.622561 Z M4.120543,4.099514 L4.123410,4.150173 L4.133924,4.253401 L4.146350,4.355674 L4.159731,4.457947 L4.175024,4.558308 L4.192229,4.657713 L4.210390,4.755206 L4.230462,4.853656 L4.252446,4.949238 L4.276341,5.043864 L4.301192,5.138490 L4.326999,5.230249 L4.355674,5.322007 L4.384349,5.412810 L4.415891,5.500746 L4.448389,5.587725 L4.481842,5.673749 L4.517208,5.758817 L4.552573,5.841973 L4.590806,5.923218 L4.629038,6.003506 L4.669183,6.081884 L4.710283,6.159305 L4.752339,6.232903 L4.796307,6.306501 L4.841230,6.378188 L4.886154,6.448918 L4.932989,6.517737 L4.981736,6.583689 L5.029527,6.648684 L5.079229,6.710813 L5.128932,6.771029 L5.180546,6.830290 L5.232160,6.886683 L5.284730,6.942121 L5.338256,6.994691 L5.391782,7.045349 L5.446264,7.095052 L5.501701,7.140931 L5.557139,7.185855 L5.614488,7.227911 L5.671837,7.268055 L5.729186,7.307244 L5.786536,7.342609 L5.844841,7.377019 L5.903145,7.409517 L5.962406,7.439147 L6.021667,7.466866 L6.080928,7.491717 L6.143056,7.515613 L6.171731,7.526127 L6.202317,7.535685 L6.231947,7.545243 L6.292164,7.563404 L6.353336,7.579652 L6.384878,7.585387 L6.415465,7.593034 L6.446051,7.598769 L6.477593,7.603548 L6.508179,7.608327 L6.538765,7.613106 L6.601849,7.619797 L6.633391,7.622664 L6.663978,7.624576 L6.760515,7.627443 L6.792057,7.626488 L6.823599,7.625532 L6.855142,7.624576 L6.886684,7.622664 L6.918226,7.619797 L6.949768,7.615974 L6.980354,7.613106 L7.011896,7.608327 L7.043438,7.603548 L7.074024,7.598769 L7.104610,7.593034 L7.136152,7.585387 L7.166739,7.579652 L7.196369,7.571050 L7.226955,7.563404 L7.257541,7.554801 L7.288128,7.545243 L7.318714,7.535685 L7.349300,7.526127 L7.377019,7.515613 L7.439147,7.491717 L7.498408,7.466866 L7.557669,7.439147 L7.616929,7.409517 L7.675234,7.377019 L7.733539,7.342609 L7.791844,7.307244 L7.849194,7.268055 L7.905587,7.227911 L7.961980,7.185855 L8.017418,7.140931 L8.072855,7.095052 L8.128293,7.045349 L8.181819,6.994691 L8.235345,6.942121 L8.288870,6.886683 L8.340485,6.830290 L8.391143,6.771029 L8.441802,6.710813 L8.490548,6.648684 L8.539295,6.583689 L8.587086,6.517737 L8.633921,6.448918 L8.678845,6.378188 L8.723768,6.306501 L8.766780,6.232903 L8.808836,6.159305 L8.849936,6.081884 L8.891037,6.003506 L8.929269,5.923218 L8.966546,5.841973 L9.003823,5.758817 L9.038233,5.673749 L9.072642,5.587725 L9.105140,5.500746 L9.135726,5.412810 L9.165357,5.322007 L9.193075,5.230249 L9.219838,5.138490 L9.244690,5.043864 L9.267629,4.949238 L9.289613,4.853656 L9.309685,4.755206 L9.328802,4.657713 L9.346007,4.558308 L9.361300,4.457947 L9.374681,4.355674 L9.386151,4.253401 L9.395709,4.150173 L9.400488,4.099514 Z " style="fill: rgba(0, 0, 0, 1.000000); " fill="#000000" stroke="none" />
</g></svg>