<?xml version="1.0" encoding="UTF-8" standalone="no"?><!DOCTYPE svg PUBLIC "-//W3C//DTD SVG 1.1//EN" "http://www.w3.org/Graphics/SVG/1.1/DTD/svg11.dtd"><svg width="100%" height="100%" viewBox="0 0 18 18" version="1.1" xmlns="http://www.w3.org/2000/svg" xmlns:xlink="http://www.w3.org/1999/xlink" xml:space="preserve" xmlns:serif="http://www.serif.com/" style="fill-rule:evenodd;clip-rule:evenodd;stroke-linejoin:round;stroke-miterlimit:1.41421;"><g><rect x="11" y="8" width="6" height="1" style="fill:#f5f5f5;"/><path d="M17.035,7.469l0.034,0.003l0.035,0.006l0.034,0.008l0.033,0.01l0.033,0.012l0.031,0.015l0.031,0.016l0.03,0.018l0.028,0.021l0.027,0.022l0.025,0.024l0.024,0.025l0.022,0.027l0.021,0.028l0.018,0.03l0.016,0.031l0.015,0.031l0.012,0.033l0.01,0.033l0.008,0.034l0.006,0.035l0.003,0.034l0.001,0.035l0,1l-0.001,0.035l-0.003,0.034l-0.006,0.035l-0.008,0.034l-0.01,0.033l-0.012,0.033l-0.015,0.031l-0.016,0.031l-0.018,0.03l-0.021,0.028l-0.022,0.027l-0.024,0.025l-0.025,0.024l-0.027,0.022l-0.028,0.021l-0.03,0.018l-0.031,0.016l-0.031,0.015l-0.033,0.012l-0.033,0.01l-0.034,0.008l-0.035,0.006l-0.034,0.003l-0.035,0.001l-6,0l-0.035,-0.001l-0.034,-0.003l-0.035,-0.006l-0.034,-0.008l-0.033,-0.01l-0.033,-0.012l-0.031,-0.015l-0.031,-0.016l-0.03,-0.018l-0.028,-0.021l-0.027,-0.022l-0.025,-0.024l-0.024,-0.025l-0.022,-0.027l-0.021,-0.028l-0.018,-0.03l-0.016,-0.031l-0.015,-0.031l-0.012,-0.033l-0.01,-0.033l-0.008,-0.034l-0.006,-0.035l-0.003,-0.034l-0.001,-0.035l0,-1l0.001,-0.035l0.003,-0.034l0.006,-0.035l0.008,-0.034l0.01,-0.033l0.012,-0.033l0.015,-0.031l0.016,-0.031l0.018,-0.03l0.021,-0.028l0.022,-0.027l0.024,-0.025l0.025,-0.024l0.027,-0.022l0.028,-0.021l0.03,-0.018l0.031,-0.016l0.031,-0.015l0.033,-0.012l0.033,-0.01l0.034,-0.008l0.035,-0.006l0.034,-0.003l0.035,-0.001l6,0l0.035,0.001Zm-6.035,0.531l0,1l6,0l0,-1l-6,0Z" style="fill:#232326;"/><rect x="14" y="13" width="3" height="2" style="fill:#f5f5f5;"/><path d="M17.025,12.468l0.024,0.002l0.025,0.003l0.024,0.004l0.024,0.005l0.024,0.006l0.023,0.007l0.023,0.009l0.023,0.009l0.022,0.011l0.022,0.011l0.021,0.012l0.021,0.014l0.02,0.014l0.019,0.016l0.019,0.016l0.017,0.017l0.017,0.017l0.016,0.019l0.016,0.019l0.014,0.02l0.014,0.021l0.012,0.021l0.011,0.022l0.011,0.022l0.009,0.023l0.009,0.023l0.007,0.023l0.006,0.024l0.005,0.024l0.004,0.024l0.003,0.025l0.002,0.024l0,0.025l0,2l0,0.025l-0.002,0.024l-0.003,0.025l-0.004,0.024l-0.005,0.024l-0.006,0.024l-0.007,0.023l-0.009,0.023l-0.009,0.023l-0.011,0.022l-0.011,0.022l-0.012,0.021l-0.014,0.021l-0.014,0.02l-0.016,0.019l-0.016,0.019l-0.017,0.017l-0.017,0.017l-0.019,0.016l-0.019,0.016l-0.02,0.014l-0.021,0.014l-0.021,0.012l-0.022,0.011l-0.022,0.011l-0.023,0.009l-0.023,0.009l-0.023,0.007l-0.024,0.006l-0.024,0.005l-0.024,0.004l-0.025,0.003l-0.024,0.002l-0.025,0l-3,0l-0.025,0l-0.024,-0.002l-0.025,-0.003l-0.024,-0.004l-0.024,-0.005l-0.024,-0.006l-0.023,-0.007l-0.023,-0.009l-0.023,-0.009l-0.022,-0.011l-0.022,-0.011l-0.021,-0.012l-0.021,-0.014l-0.02,-0.014l-0.019,-0.016l-0.019,-0.016l-0.017,-0.017l-0.017,-0.017l-0.016,-0.019l-0.016,-0.019l-0.014,-0.02l-0.014,-0.021l-0.012,-0.021l-0.011,-0.022l-0.011,-0.022l-0.009,-0.023l-0.009,-0.023l-0.007,-0.023l-0.006,-0.024l-0.005,-0.024l-0.004,-0.024l-0.003,-0.025l-0.002,-0.024l0,-0.025l0,-2l0,-0.025l0.002,-0.024l0.003,-0.025l0.004,-0.024l0.005,-0.024l0.006,-0.024l0.007,-0.023l0.009,-0.023l0.009,-0.023l0.011,-0.022l0.011,-0.022l0.012,-0.021l0.014,-0.021l0.014,-0.02l0.016,-0.019l0.016,-0.019l0.017,-0.017l0.017,-0.017l0.019,-0.016l0.019,-0.016l0.02,-0.014l0.021,-0.014l0.021,-0.012l0.022,-0.011l0.022,-0.011l0.023,-0.009l0.023,-0.009l0.023,-0.007l0.024,-0.006l0.024,-0.005l0.024,-0.004l0.025,-0.003l0.024,-0.002l0.025,0l3,0l0.025,0Zm-3.025,0.532l0,2l3,0l0,-2l-3,0Z" style="fill:#232326;"/><rect x="14" y="2" width="3" height="2" style="fill:#f5f5f5;"/><path d="M17.025,1.468l0.024,0.002l0.025,0.003l0.024,0.004l0.024,0.005l0.024,0.006l0.023,0.007l0.023,0.009l0.023,0.009l0.022,0.011l0.022,0.011l0.021,0.012l0.021,0.014l0.02,0.014l0.019,0.016l0.019,0.016l0.017,0.017l0.017,0.017l0.016,0.019l0.016,0.019l0.014,0.02l0.014,0.021l0.012,0.021l0.011,0.022l0.011,0.022l0.009,0.023l0.009,0.023l0.007,0.023l0.006,0.024l0.005,0.024l0.004,0.024l0.003,0.025l0.002,0.024l0,0.025l0,2l0,0.025l-0.002,0.024l-0.003,0.025l-0.004,0.024l-0.005,0.024l-0.006,0.024l-0.007,0.023l-0.009,0.023l-0.009,0.023l-0.011,0.022l-0.011,0.022l-0.012,0.021l-0.014,0.021l-0.014,0.02l-0.016,0.019l-0.016,0.019l-0.017,0.017l-0.017,0.017l-0.019,0.016l-0.019,0.016l-0.02,0.014l-0.021,0.014l-0.021,0.012l-0.022,0.011l-0.022,0.011l-0.023,0.009l-0.023,0.009l-0.023,0.007l-0.024,0.006l-0.024,0.005l-0.024,0.004l-0.025,0.003l-0.024,0.002l-0.025,0l-3,0l-0.025,0l-0.024,-0.002l-0.025,-0.003l-0.024,-0.004l-0.024,-0.005l-0.024,-0.006l-0.023,-0.007l-0.023,-0.009l-0.023,-0.009l-0.022,-0.011l-0.022,-0.011l-0.021,-0.012l-0.021,-0.014l-0.02,-0.014l-0.019,-0.016l-0.019,-0.016l-0.017,-0.017l-0.017,-0.017l-0.016,-0.019l-0.016,-0.019l-0.014,-0.02l-0.014,-0.021l-0.012,-0.021l-0.011,-0.022l-0.011,-0.022l-0.009,-0.023l-0.009,-0.023l-0.007,-0.023l-0.006,-0.024l-0.005,-0.024l-0.004,-0.024l-0.003,-0.025l-0.002,-0.024l0,-0.025l0,-2l0,-0.025l0.002,-0.024l0.003,-0.025l0.004,-0.024l0.005,-0.024l0.006,-0.024l0.007,-0.023l0.009,-0.023l0.009,-0.023l0.011,-0.022l0.011,-0.022l0.012,-0.021l0.014,-0.021l0.014,-0.02l0.016,-0.019l0.016,-0.019l0.017,-0.017l0.017,-0.017l0.019,-0.016l0.019,-0.016l0.02,-0.014l0.021,-0.014l0.021,-0.012l0.022,-0.011l0.022,-0.011l0.023,-0.009l0.023,-0.009l0.023,-0.007l0.024,-0.006l0.024,-0.005l0.024,-0.004l0.025,-0.003l0.024,-0.002l0.025,0l3,0l0.025,0Zm-3.025,0.532l0,2l3,0l0,-2l-3,0Z" style="fill:#232326;"/><g><path d="M12.001,3l-0.75,0c-0.01,3.088 -1.87,5.628 -4.251,5.943l0,0.09c2.381,0.315 4.241,2.855 4.251,5.943l0.75,0l0,2l-0.001,0l0,0.024l-11,0l0,-2l0.001,0l0,-0.024l0.75,0c0.009,-3.087 1.869,-5.627 4.249,-5.943l0,-0.09c-2.38,-0.316 -4.24,-2.856 -4.249,-5.943l-0.751,0l0,-2l11.001,0l0,2Zm-2,12c0,-0.008 0,-0.016 0,-0.024c0,-2.76 -1.569,-5 -3.5,-5c-1.932,0 -3.5,2.24 -3.5,5c0,0.008 0,0.016 0,0.024l7,0Zm0,-12l-7,0c0,2.76 1.568,5 3.5,5c1.931,0 3.5,-2.24 3.5,-5Z" style="fill:#f5f5f5;"/><path d="M12.056,0.471l0.055,0.008l0.054,0.015l0.052,0.02l0.05,0.025l0.047,0.03l0.043,0.035l0.039,0.04l0.035,0.043l0.031,0.047l0.025,0.05l0.02,0.052l0.014,0.053l0.009,0.055l0.003,0.056l0,2l-0.003,0.056l-0.009,0.055l-0.014,0.053l-0.02,0.052l-0.025,0.05l-0.031,0.047l-0.035,0.043l-0.039,0.04l-0.043,0.035l-0.047,0.03l-0.05,0.025l-0.052,0.02l-0.054,0.015l-0.055,0.008l-0.055,0.003l-0.237,0l-0.006,0.082l-0.013,0.15l-0.016,0.15l-0.019,0.149l-0.021,0.147l-0.024,0.147l-0.027,0.145l-0.029,0.144l-0.032,0.143l-0.034,0.141l-0.037,0.14l-0.039,0.139l-0.042,0.138l-0.044,0.136l-0.047,0.134l-0.049,0.133l-0.051,0.132l-0.053,0.129l-0.056,0.129l-0.058,0.126l-0.061,0.125l-0.062,0.123l-0.065,0.121l-0.067,0.12l-0.069,0.117l-0.071,0.116l-0.073,0.113l-0.075,0.112l-0.077,0.11l-0.08,0.107l-0.081,0.105l-0.083,0.104l-0.085,0.101l-0.087,0.098l-0.089,0.097l-0.09,0.094l-0.093,0.092l-0.094,0.089l-0.096,0.087l-0.098,0.084l-0.099,0.082l-0.101,0.079l-0.103,0.076l-0.105,0.074l-0.106,0.07l-0.107,0.068l-0.11,0.065l-0.11,0.063l-0.058,0.03l0.058,0.03l0.11,0.063l0.11,0.065l0.107,0.068l0.106,0.07l0.105,0.074l0.103,0.076l0.101,0.079l0.099,0.082l0.098,0.084l0.096,0.087l0.094,0.089l0.093,0.092l0.09,0.094l0.089,0.096l0.087,0.099l0.085,0.101l0.083,0.103l0.081,0.106l0.08,0.107l0.077,0.11l0.075,0.112l0.073,0.113l0.071,0.116l0.069,0.117l0.067,0.12l0.065,0.121l0.062,0.123l0.061,0.125l0.058,0.126l0.056,0.129l0.053,0.129l0.051,0.132l0.049,0.133l0.047,0.134l0.044,0.136l0.042,0.138l0.039,0.139l0.037,0.14l0.034,0.141l0.032,0.143l0.029,0.144l0.027,0.145l0.024,0.147l0.021,0.147l0.019,0.149l0.016,0.15l0.013,0.15l0.006,0.082l0.237,0l0.055,0.003l0.055,0.008l0.054,0.015l0.052,0.02l0.05,0.025l0.047,0.03l0.043,0.035l0.039,0.04l0.035,0.043l0.031,0.047l0.025,0.049l0.02,0.052l0.014,0.054l0.009,0.055l0.003,0.056l0,2l-0.001,0.014l0,0.01l-0.003,0.056l-0.008,0.055l-0.015,0.053l-0.02,0.052l-0.025,0.05l-0.03,0.047l-0.035,0.043l-0.04,0.04l-0.043,0.035l-0.047,0.03l-0.05,0.025l-0.052,0.02l-0.053,0.015l-0.055,0.008l-0.056,0.003l-11,0l-0.056,-0.003l-0.055,-0.008l-0.053,-0.015l-0.052,-0.02l-0.05,-0.025l-0.047,-0.03l-0.043,-0.035l-0.04,-0.04l-0.035,-0.043l-0.03,-0.047l-0.025,-0.05l-0.02,-0.052l-0.015,-0.053l-0.008,-0.055l-0.003,-0.056l0,-2l0,-0.014l0,-0.01l0.003,-0.056l0.009,-0.055l0.015,-0.054l0.02,-0.052l0.025,-0.049l0.03,-0.047l0.035,-0.043l0.04,-0.04l0.043,-0.035l0.047,-0.03l0.049,-0.025l0.052,-0.02l0.054,-0.015l0.055,-0.008l0.056,-0.003l0.237,0l0.005,-0.082l0.013,-0.15l0.016,-0.15l0.019,-0.148l0.021,-0.148l0.024,-0.146l0.027,-0.146l0.029,-0.144l0.032,-0.142l0.034,-0.142l0.037,-0.14l0.04,-0.139l0.041,-0.137l0.044,-0.136l0.047,-0.135l0.049,-0.133l0.051,-0.131l0.054,-0.13l0.056,-0.128l0.058,-0.126l0.06,-0.125l0.062,-0.123l0.065,-0.121l0.067,-0.12l0.069,-0.117l0.071,-0.116l0.073,-0.114l0.075,-0.111l0.077,-0.11l0.08,-0.107l0.081,-0.106l0.083,-0.103l0.085,-0.101l0.087,-0.099l0.088,-0.096l0.091,-0.094l0.092,-0.092l0.095,-0.089l0.096,-0.087l0.097,-0.084l0.1,-0.082l0.101,-0.079l0.103,-0.076l0.104,-0.074l0.106,-0.071l0.108,-0.068l0.109,-0.065l0.111,-0.062l0.059,-0.031l-0.059,-0.031l-0.111,-0.062l-0.109,-0.065l-0.108,-0.068l-0.106,-0.071l-0.104,-0.074l-0.103,-0.076l-0.101,-0.079l-0.1,-0.082l-0.097,-0.084l-0.096,-0.087l-0.095,-0.089l-0.092,-0.092l-0.091,-0.094l-0.088,-0.096l-0.087,-0.099l-0.085,-0.101l-0.083,-0.103l-0.081,-0.106l-0.08,-0.107l-0.077,-0.11l-0.075,-0.111l-0.073,-0.114l-0.071,-0.116l-0.069,-0.117l-0.067,-0.12l-0.065,-0.121l-0.062,-0.123l-0.06,-0.125l-0.058,-0.126l-0.056,-0.128l-0.054,-0.13l-0.051,-0.131l-0.049,-0.133l-0.047,-0.135l-0.044,-0.136l-0.041,-0.137l-0.04,-0.139l-0.037,-0.14l-0.034,-0.142l-0.032,-0.142l-0.029,-0.144l-0.027,-0.146l-0.024,-0.146l-0.021,-0.148l-0.019,-0.148l-0.016,-0.15l-0.013,-0.15l-0.005,-0.082l-0.238,0l-0.056,-0.003l-0.055,-0.008l-0.053,-0.015l-0.052,-0.02l-0.05,-0.025l-0.047,-0.03l-0.043,-0.035l-0.04,-0.04l-0.035,-0.043l-0.03,-0.047l-0.025,-0.05l-0.02,-0.052l-0.015,-0.053l-0.008,-0.055l-0.003,-0.056l0,-2l0.003,-0.056l0.008,-0.055l0.015,-0.053l0.02,-0.052l0.025,-0.05l0.03,-0.047l0.035,-0.043l0.04,-0.04l0.043,-0.035l0.047,-0.03l0.05,-0.025l0.052,-0.02l0.053,-0.015l0.055,-0.008l0.056,-0.003l11.001,0l0.055,0.003Zm-11.056,0.529l0,2l0.751,0l0.002,0.144l0.004,0.144l0.007,0.142l0.01,0.142l0.012,0.141l0.015,0.139l0.018,0.139l0.02,0.138l0.022,0.136l0.025,0.136l0.027,0.134l0.03,0.133l0.031,0.131l0.035,0.131l0.036,0.129l0.039,0.128l0.041,0.126l0.043,0.125l0.046,0.123l0.047,0.122l0.05,0.12l0.051,0.119l0.054,0.116l0.056,0.116l0.058,0.113l0.059,0.112l0.062,0.11l0.063,0.108l0.066,0.107l0.067,0.104l0.069,0.102l0.07,0.101l0.073,0.098l0.074,0.096l0.076,0.095l0.077,0.092l0.079,0.09l0.081,0.087l0.082,0.086l0.084,0.083l0.085,0.081l0.087,0.078l0.088,0.076l0.09,0.073l0.091,0.072l0.092,0.068l0.093,0.066l0.095,0.063l0.096,0.061l0.098,0.058l0.098,0.055l0.1,0.053l0.05,0.025l0.051,0.025l0.05,0.023l0.051,0.023l0.052,0.023l0.051,0.021l0.052,0.021l0.052,0.021l0.053,0.019l0.052,0.019l0.053,0.018l0.053,0.017l0.054,0.016l0.053,0.016l0.054,0.015l0.054,0.014l0.054,0.013l0.055,0.013l0.055,0.012l0.054,0.011l0.056,0.01l0.055,0.01l0.055,0.008l0.056,0.008l0,0.09l-0.056,0.008l-0.055,0.008l-0.055,0.01l-0.056,0.01l-0.054,0.011l-0.055,0.012l-0.055,0.012l-0.054,0.014l-0.054,0.014l-0.054,0.015l-0.053,0.016l-0.054,0.016l-0.053,0.017l-0.053,0.018l-0.052,0.019l-0.053,0.019l-0.052,0.021l-0.052,0.02l-0.051,0.022l-0.052,0.022l-0.051,0.024l-0.05,0.023l-0.051,0.025l-0.05,0.025l-0.1,0.053l-0.098,0.055l-0.098,0.058l-0.096,0.061l-0.095,0.063l-0.093,0.066l-0.092,0.068l-0.091,0.071l-0.09,0.074l-0.088,0.076l-0.087,0.078l-0.085,0.081l-0.084,0.083l-0.082,0.086l-0.081,0.087l-0.079,0.09l-0.077,0.092l-0.076,0.094l-0.074,0.097l-0.073,0.098l-0.07,0.101l-0.069,0.102l-0.067,0.104l-0.066,0.107l-0.063,0.108l-0.062,0.11l-0.059,0.112l-0.058,0.113l-0.056,0.115l-0.054,0.117l-0.051,0.119l-0.05,0.12l-0.047,0.122l-0.046,0.123l-0.043,0.125l-0.041,0.126l-0.039,0.128l-0.036,0.129l-0.035,0.131l-0.031,0.131l-0.03,0.133l-0.027,0.134l-0.025,0.136l-0.022,0.136l-0.02,0.138l-0.018,0.139l-0.015,0.139l-0.012,0.141l-0.01,0.142l-0.007,0.142l-0.004,0.144l-0.002,0.144l-0.75,0l0,0.024l-0.001,0l0,2l11,0l0,-0.024l0.001,0l0,-2l-0.75,0l-0.002,-0.144l-0.005,-0.144l-0.007,-0.142l-0.009,-0.142l-0.013,-0.141l-0.015,-0.14l-0.017,-0.138l-0.02,-0.138l-0.022,-0.137l-0.025,-0.135l-0.028,-0.134l-0.029,-0.133l-0.032,-0.132l-0.034,-0.13l-0.037,-0.129l-0.039,-0.128l-0.041,-0.126l-0.043,-0.125l-0.045,-0.123l-0.048,-0.122l-0.049,-0.121l-0.052,-0.118l-0.054,-0.117l-0.056,-0.115l-0.057,-0.114l-0.06,-0.112l-0.062,-0.11l-0.063,-0.108l-0.065,-0.106l-0.068,-0.105l-0.069,-0.102l-0.07,-0.1l-0.073,-0.099l-0.074,-0.096l-0.076,-0.094l-0.077,-0.093l-0.079,-0.089l-0.081,-0.088l-0.082,-0.085l-0.084,-0.084l-0.085,-0.08l-0.087,-0.079l-0.088,-0.076l-0.09,-0.073l-0.091,-0.071l-0.092,-0.069l-0.094,-0.066l-0.095,-0.063l-0.096,-0.061l-0.097,-0.058l-0.099,-0.055l-0.099,-0.052l-0.051,-0.026l-0.05,-0.024l-0.051,-0.024l-0.051,-0.023l-0.051,-0.022l-0.052,-0.022l-0.052,-0.021l-0.052,-0.02l-0.053,-0.02l-0.052,-0.018l-0.053,-0.018l-0.053,-0.017l-0.054,-0.017l-0.053,-0.015l-0.054,-0.015l-0.054,-0.014l-0.054,-0.014l-0.055,-0.012l-0.054,-0.012l-0.055,-0.011l-0.055,-0.01l-0.056,-0.01l-0.055,-0.008l-0.056,-0.008l0,-0.09l0.056,-0.008l0.055,-0.008l0.056,-0.01l0.055,-0.01l0.055,-0.011l0.054,-0.012l0.055,-0.012l0.054,-0.014l0.054,-0.014l0.054,-0.015l0.053,-0.015l0.054,-0.017l0.053,-0.017l0.053,-0.018l0.052,-0.019l0.053,-0.019l0.052,-0.02l0.052,-0.021l0.052,-0.022l0.051,-0.022l0.051,-0.023l0.051,-0.024l0.05,-0.024l0.051,-0.026l0.099,-0.052l0.099,-0.055l0.097,-0.058l0.096,-0.061l0.095,-0.063l0.094,-0.066l0.092,-0.069l0.091,-0.071l0.09,-0.073l0.088,-0.076l0.087,-0.079l0.085,-0.08l0.084,-0.084l0.082,-0.085l0.081,-0.088l0.079,-0.09l0.077,-0.092l0.076,-0.094l0.074,-0.096l0.073,-0.099l0.07,-0.1l0.069,-0.102l0.068,-0.105l0.065,-0.106l0.063,-0.108l0.062,-0.11l0.06,-0.112l0.057,-0.114l0.056,-0.115l0.054,-0.117l0.052,-0.119l0.049,-0.12l0.048,-0.122l0.045,-0.123l0.043,-0.125l0.041,-0.126l0.039,-0.128l0.037,-0.129l0.034,-0.13l0.032,-0.132l0.029,-0.133l0.028,-0.134l0.025,-0.135l0.022,-0.137l0.02,-0.138l0.017,-0.138l0.015,-0.14l0.013,-0.141l0.009,-0.142l0.007,-0.142l0.005,-0.144l0.002,-0.144l0.75,0l0,-2l-11.001,0Zm5.546,8.976l0.045,0.002l0.045,0.002l0.045,0.002l0.044,0.004l0.045,0.005l0.044,0.005l0.044,0.006l0.044,0.007l0.044,0.007l0.044,0.008l0.043,0.01l0.044,0.009l0.043,0.011l0.043,0.011l0.043,0.013l0.042,0.012l0.043,0.014l0.042,0.014l0.042,0.015l0.083,0.033l0.083,0.035l0.082,0.038l0.081,0.041l0.08,0.043l0.079,0.046l0.078,0.049l0.077,0.051l0.076,0.054l0.074,0.057l0.074,0.059l0.073,0.061l0.072,0.064l0.07,0.066l0.069,0.069l0.068,0.071l0.067,0.073l0.066,0.075l0.064,0.078l0.063,0.08l0.061,0.081l0.06,0.084l0.059,0.086l0.057,0.088l0.056,0.09l0.054,0.091l0.053,0.094l0.051,0.095l0.05,0.097l0.048,0.099l0.046,0.101l0.045,0.102l0.043,0.104l0.041,0.105l0.04,0.108l0.037,0.108l0.036,0.11l0.035,0.111l0.032,0.113l0.03,0.115l0.029,0.115l0.026,0.117l0.025,0.118l0.022,0.119l0.021,0.12l0.019,0.122l0.016,0.122l0.014,0.124l0.013,0.124l0.01,0.126l0.008,0.126l0.005,0.128l0.004,0.128l0.001,0.129l0,0.024l-7,0l0,-0.024l0.001,-0.129l0.003,-0.128l0.006,-0.128l0.008,-0.126l0.01,-0.126l0.012,-0.124l0.014,-0.124l0.017,-0.122l0.018,-0.122l0.021,-0.12l0.023,-0.119l0.024,-0.118l0.027,-0.117l0.028,-0.115l0.031,-0.115l0.032,-0.113l0.034,-0.111l0.036,-0.11l0.038,-0.108l0.039,-0.108l0.042,-0.105l0.043,-0.104l0.044,-0.102l0.047,-0.101l0.048,-0.099l0.049,-0.097l0.052,-0.095l0.052,-0.094l0.055,-0.091l0.055,-0.09l0.058,-0.088l0.058,-0.086l0.06,-0.084l0.062,-0.081l0.063,-0.08l0.064,-0.078l0.065,-0.075l0.067,-0.073l0.068,-0.071l0.069,-0.069l0.071,-0.066l0.071,-0.064l0.073,-0.061l0.074,-0.059l0.075,-0.057l0.076,-0.054l0.077,-0.051l0.078,-0.049l0.079,-0.046l0.08,-0.043l0.081,-0.041l0.081,-0.038l0.083,-0.035l0.083,-0.033l0.043,-0.015l0.042,-0.014l0.042,-0.014l0.043,-0.012l0.043,-0.013l0.043,-0.011l0.043,-0.011l0.043,-0.009l0.044,-0.01l0.043,-0.008l0.044,-0.007l0.044,-0.007l0.044,-0.006l0.045,-0.005l0.044,-0.005l0.045,-0.004l0.045,-0.002l0.044,-0.002l0.046,-0.002l0.045,0l0.045,0Zm-0.081,0.533l-0.035,0.001l-0.036,0.001l-0.035,0.002l-0.035,0.003l-0.035,0.004l-0.035,0.004l-0.034,0.005l-0.035,0.005l-0.035,0.006l-0.034,0.006l-0.034,0.008l-0.035,0.007l-0.034,0.009l-0.034,0.009l-0.034,0.009l-0.034,0.011l-0.033,0.011l-0.034,0.011l-0.032,0.011l-0.069,0.027l-0.066,0.028l-0.066,0.031l-0.066,0.033l-0.066,0.036l-0.065,0.038l-0.064,0.04l-0.064,0.043l-0.064,0.045l-0.063,0.047l-0.062,0.05l-0.062,0.052l-0.061,0.055l-0.06,0.056l-0.059,0.059l-0.059,0.062l-0.058,0.063l-0.057,0.066l-0.056,0.067l-0.055,0.07l-0.054,0.072l-0.054,0.074l-0.052,0.076l-0.05,0.079l-0.05,0.08l-0.049,0.082l-0.047,0.083l-0.046,0.086l-0.045,0.088l-0.043,0.089l-0.042,0.091l-0.04,0.093l-0.04,0.094l-0.037,0.096l-0.036,0.097l-0.035,0.099l-0.032,0.101l-0.032,0.102l-0.029,0.103l-0.028,0.105l-0.026,0.106l-0.025,0.107l-0.022,0.109l-0.021,0.109l-0.019,0.111l-0.017,0.112l-0.015,0.113l-0.014,0.115l-0.011,0.115l-0.006,0.081l5.896,0l-0.007,-0.081l-0.011,-0.115l-0.013,-0.115l-0.015,-0.113l-0.017,-0.112l-0.019,-0.111l-0.021,-0.109l-0.023,-0.109l-0.024,-0.107l-0.026,-0.106l-0.028,-0.105l-0.03,-0.103l-0.031,-0.102l-0.033,-0.101l-0.034,-0.099l-0.036,-0.097l-0.038,-0.096l-0.039,-0.094l-0.041,-0.093l-0.041,-0.091l-0.044,-0.089l-0.044,-0.088l-0.046,-0.086l-0.048,-0.083l-0.048,-0.082l-0.05,-0.08l-0.051,-0.079l-0.052,-0.076l-0.053,-0.074l-0.054,-0.072l-0.055,-0.07l-0.056,-0.067l-0.057,-0.066l-0.058,-0.063l-0.059,-0.062l-0.06,-0.059l-0.06,-0.056l-0.061,-0.055l-0.062,-0.052l-0.062,-0.05l-0.063,-0.047l-0.063,-0.045l-0.064,-0.043l-0.065,-0.04l-0.065,-0.038l-0.065,-0.036l-0.066,-0.033l-0.066,-0.031l-0.067,-0.028l-0.069,-0.027l-0.031,-0.011l-0.034,-0.011l-0.034,-0.011l-0.034,-0.011l-0.034,-0.009l-0.034,-0.009l-0.034,-0.009l-0.034,-0.007l-0.035,-0.008l-0.034,-0.006l-0.034,-0.006l-0.035,-0.005l-0.035,-0.005l-0.035,-0.004l-0.035,-0.004l-0.035,-0.003l-0.035,-0.002l-0.035,-0.001l-0.036,-0.001l-0.035,-0.001l-0.036,0.001Zm3.535,-7.38l-0.004,0.128l-0.005,0.127l-0.008,0.127l-0.01,0.125l-0.013,0.125l-0.014,0.124l-0.016,0.122l-0.019,0.122l-0.021,0.12l-0.022,0.119l-0.025,0.118l-0.026,0.117l-0.029,0.115l-0.03,0.115l-0.032,0.112l-0.035,0.112l-0.036,0.11l-0.037,0.108l-0.04,0.107l-0.041,0.106l-0.043,0.104l-0.045,0.102l-0.046,0.101l-0.048,0.099l-0.05,0.097l-0.051,0.095l-0.053,0.094l-0.054,0.091l-0.056,0.09l-0.057,0.088l-0.059,0.086l-0.06,0.084l-0.061,0.081l-0.063,0.08l-0.064,0.078l-0.066,0.075l-0.067,0.073l-0.068,0.071l-0.069,0.069l-0.07,0.066l-0.072,0.064l-0.073,0.061l-0.074,0.059l-0.074,0.057l-0.076,0.054l-0.077,0.051l-0.078,0.049l-0.079,0.046l-0.08,0.043l-0.081,0.041l-0.082,0.038l-0.083,0.035l-0.083,0.032l-0.042,0.016l-0.042,0.014l-0.043,0.013l-0.042,0.013l-0.043,0.012l-0.043,0.012l-0.043,0.01l-0.044,0.01l-0.043,0.009l-0.044,0.009l-0.044,0.007l-0.044,0.007l-0.044,0.006l-0.044,0.005l-0.045,0.005l-0.044,0.003l-0.045,0.003l-0.045,0.002l-0.045,0.002l-0.045,0l-0.045,0l-0.046,-0.002l-0.044,-0.002l-0.045,-0.003l-0.045,-0.003l-0.044,-0.005l-0.045,-0.005l-0.044,-0.006l-0.044,-0.007l-0.044,-0.007l-0.043,-0.009l-0.044,-0.009l-0.043,-0.01l-0.043,-0.01l-0.043,-0.012l-0.043,-0.012l-0.043,-0.013l-0.042,-0.013l-0.042,-0.014l-0.043,-0.016l-0.083,-0.032l-0.083,-0.035l-0.081,-0.038l-0.081,-0.041l-0.08,-0.043l-0.079,-0.046l-0.078,-0.049l-0.077,-0.051l-0.076,-0.054l-0.075,-0.057l-0.074,-0.059l-0.073,-0.061l-0.071,-0.064l-0.071,-0.066l-0.069,-0.069l-0.068,-0.071l-0.067,-0.073l-0.065,-0.075l-0.064,-0.078l-0.063,-0.08l-0.062,-0.081l-0.06,-0.084l-0.058,-0.086l-0.058,-0.088l-0.055,-0.09l-0.055,-0.091l-0.052,-0.094l-0.052,-0.095l-0.049,-0.097l-0.048,-0.099l-0.047,-0.101l-0.044,-0.102l-0.043,-0.104l-0.042,-0.106l-0.039,-0.107l-0.038,-0.108l-0.036,-0.11l-0.034,-0.112l-0.032,-0.112l-0.031,-0.115l-0.028,-0.115l-0.027,-0.117l-0.024,-0.118l-0.023,-0.119l-0.021,-0.12l-0.018,-0.122l-0.017,-0.122l-0.014,-0.124l-0.012,-0.125l-0.01,-0.125l-0.008,-0.127l-0.006,-0.127l-0.003,-0.128l-0.001,-0.129l7,0l-0.001,0.129Zm-6.445,0.403l0.004,0.057l0.011,0.115l0.014,0.114l0.015,0.114l0.017,0.112l0.019,0.111l0.021,0.109l0.022,0.109l0.025,0.107l0.026,0.106l0.028,0.105l0.029,0.103l0.032,0.102l0.032,0.101l0.035,0.099l0.036,0.097l0.038,0.096l0.039,0.094l0.04,0.093l0.042,0.091l0.043,0.089l0.045,0.088l0.046,0.086l0.047,0.083l0.049,0.082l0.05,0.08l0.05,0.078l0.052,0.077l0.054,0.074l0.054,0.072l0.055,0.07l0.056,0.067l0.057,0.066l0.058,0.063l0.059,0.062l0.059,0.059l0.06,0.056l0.061,0.055l0.062,0.052l0.062,0.05l0.063,0.047l0.064,0.045l0.064,0.043l0.064,0.04l0.065,0.038l0.066,0.036l0.066,0.033l0.066,0.031l0.066,0.028l0.069,0.027l0.032,0.011l0.034,0.011l0.033,0.011l0.034,0.01l0.034,0.01l0.034,0.009l0.034,0.009l0.035,0.007l0.034,0.008l0.034,0.006l0.035,0.006l0.035,0.005l0.034,0.005l0.035,0.004l0.035,0.004l0.035,0.003l0.035,0.002l0.036,0.001l0.035,0.001l0.036,0.001l0.035,-0.001l0.036,-0.001l0.035,-0.001l0.035,-0.002l0.035,-0.003l0.035,-0.004l0.035,-0.004l0.035,-0.005l0.035,-0.005l0.034,-0.006l0.034,-0.006l0.035,-0.008l0.034,-0.007l0.034,-0.009l0.034,-0.009l0.034,-0.01l0.034,-0.01l0.034,-0.011l0.034,-0.011l0.031,-0.011l0.069,-0.027l0.067,-0.028l0.066,-0.031l0.066,-0.033l0.065,-0.036l0.065,-0.038l0.065,-0.04l0.064,-0.043l0.063,-0.045l0.063,-0.047l0.062,-0.05l0.062,-0.052l0.061,-0.055l0.06,-0.056l0.06,-0.059l0.059,-0.062l0.058,-0.063l0.057,-0.066l0.056,-0.067l0.055,-0.07l0.054,-0.072l0.053,-0.074l0.052,-0.077l0.051,-0.078l0.05,-0.08l0.048,-0.082l0.047,-0.083l0.046,-0.086l0.045,-0.088l0.043,-0.089l0.042,-0.091l0.041,-0.093l0.039,-0.094l0.038,-0.096l0.036,-0.097l0.034,-0.099l0.033,-0.101l0.031,-0.102l0.03,-0.103l0.028,-0.105l0.026,-0.106l0.024,-0.107l0.023,-0.109l0.021,-0.109l0.019,-0.111l0.017,-0.112l0.015,-0.114l0.013,-0.114l0.011,-0.115l0.005,-0.057l-5.892,0Z" style="fill:#232326;"/></g></g></svg>