<?xml version="1.0" encoding="UTF-8" standalone="no"?><!DOCTYPE svg PUBLIC "-//W3C//DTD SVG 1.1//EN" "http://www.w3.org/Graphics/SVG/1.1/DTD/svg11.dtd"><svg width="100%" height="100%" viewBox="0 0 18 18" version="1.1" xmlns="http://www.w3.org/2000/svg" xmlns:xlink="http://www.w3.org/1999/xlink" xml:space="preserve" xmlns:serif="http://www.serif.com/" style="fill-rule:evenodd;clip-rule:evenodd;stroke-linejoin:round;stroke-miterlimit:1.41421;"><g id="timestretch"><rect x="10.875" y="8.062" width="5.626" height="0.938" style="fill:#f5f5f5;"/><path d="M16.534,7.564l0.032,0.003l0.033,0.006l0.032,0.007l0.031,0.01l0.03,0.011l0.03,0.014l0.029,0.015l0.028,0.017l0.026,0.02l0.025,0.02l0.024,0.023l0.022,0.023l0.021,0.026l0.02,0.026l0.016,0.028l0.015,0.029l0.014,0.029l0.012,0.031l0.009,0.031l0.008,0.032l0.005,0.033l0.003,0.032l0.001,0.032l0,0.938l-0.001,0.033l-0.003,0.032l-0.005,0.033l-0.008,0.031l-0.009,0.031l-0.012,0.031l-0.014,0.029l-0.015,0.029l-0.016,0.029l-0.02,0.026l-0.021,0.025l-0.022,0.024l-0.024,0.022l-0.025,0.021l-0.026,0.019l-0.028,0.017l-0.029,0.015l-0.03,0.014l-0.03,0.012l-0.031,0.009l-0.032,0.007l-0.033,0.006l-0.032,0.003l-0.033,0.001l-5.626,0l-0.033,-0.001l-0.031,-0.003l-0.033,-0.006l-0.032,-0.007l-0.031,-0.009l-0.031,-0.012l-0.029,-0.014l-0.029,-0.015l-0.028,-0.017l-0.027,-0.019l-0.025,-0.021l-0.023,-0.022l-0.023,-0.024l-0.02,-0.025l-0.02,-0.026l-0.017,-0.029l-0.015,-0.029l-0.014,-0.029l-0.011,-0.031l-0.01,-0.031l-0.007,-0.031l-0.006,-0.033l-0.003,-0.032l-0.001,-0.033l0,-0.938l0.001,-0.032l0.003,-0.032l0.006,-0.033l0.007,-0.032l0.01,-0.031l0.011,-0.031l0.014,-0.029l0.015,-0.029l0.017,-0.028l0.02,-0.026l0.02,-0.026l0.023,-0.023l0.023,-0.023l0.025,-0.02l0.027,-0.02l0.028,-0.017l0.029,-0.015l0.029,-0.014l0.031,-0.011l0.031,-0.01l0.032,-0.007l0.033,-0.006l0.031,-0.003l0.033,0l5.626,0l0.033,0Zm-5.659,0.498l0,0.938l5.626,0l0,-0.938l-5.626,0Z" style="fill:#232326;"/><rect x="13.688" y="12.751" width="2.813" height="1.875" style="fill:#f5f5f5;"/><path d="M16.525,12.252l0.022,0.002l0.024,0.002l0.022,0.004l0.023,0.005l0.022,0.006l0.022,0.006l0.043,0.017l0.041,0.021l0.02,0.011l0.019,0.013l0.019,0.013l0.036,0.03l0.032,0.032l0.03,0.036l0.013,0.018l0.013,0.02l0.011,0.02l0.021,0.041l0.017,0.043l0.006,0.022l0.006,0.022l0.005,0.023l0.003,0.022l0.003,0.024l0.002,0.022l0,1.922l-0.002,0.023l-0.003,0.023l-0.003,0.023l-0.005,0.022l-0.006,0.023l-0.006,0.021l-0.009,0.022l-0.008,0.021l-0.011,0.021l-0.01,0.021l-0.011,0.019l-0.013,0.02l-0.013,0.019l-0.015,0.018l-0.015,0.017l-0.016,0.016l-0.016,0.016l-0.018,0.015l-0.018,0.015l-0.019,0.014l-0.019,0.013l-0.02,0.011l-0.021,0.01l-0.02,0.011l-0.022,0.008l-0.021,0.008l-0.022,0.007l-0.022,0.006l-0.023,0.004l-0.022,0.004l-0.024,0.003l-0.022,0.002l-0.024,0l-2.813,0l-0.023,0l-0.023,-0.002l-0.023,-0.003l-0.023,-0.004l-0.022,-0.004l-0.023,-0.006l-0.021,-0.007l-0.022,-0.008l-0.021,-0.008l-0.021,-0.011l-0.021,-0.01l-0.019,-0.011l-0.02,-0.013l-0.019,-0.014l-0.018,-0.015l-0.017,-0.015l-0.016,-0.016l-0.016,-0.016l-0.015,-0.017l-0.015,-0.018l-0.013,-0.019l-0.014,-0.02l-0.011,-0.019l-0.01,-0.021l-0.01,-0.021l-0.009,-0.021l-0.008,-0.022l-0.007,-0.021l-0.005,-0.023l-0.005,-0.022l-0.004,-0.023l-0.003,-0.023l-0.002,-0.023l0,-0.023l0,-1.875l0,-0.024l0.002,-0.022l0.003,-0.024l0.004,-0.022l0.005,-0.023l0.005,-0.022l0.007,-0.022l0.008,-0.021l0.009,-0.022l0.01,-0.021l0.01,-0.02l0.011,-0.02l0.014,-0.02l0.013,-0.018l0.015,-0.018l0.015,-0.018l0.016,-0.016l0.016,-0.016l0.017,-0.015l0.018,-0.015l0.019,-0.013l0.02,-0.013l0.019,-0.011l0.021,-0.011l0.021,-0.01l0.021,-0.008l0.022,-0.009l0.021,-0.006l0.023,-0.006l0.022,-0.005l0.023,-0.004l0.023,-0.002l0.023,-0.002l2.86,0Zm-2.837,0.499l0,1.875l2.813,0l0,-1.875l-2.813,0Z" style="fill:#232326;"/><rect x="13.688" y="2.436" width="2.813" height="1.875" style="fill:#f5f5f5;"/><path d="M16.525,1.938l0.022,0.002l0.024,0.002l0.022,0.004l0.023,0.005l0.022,0.005l0.022,0.007l0.043,0.017l0.041,0.02l0.02,0.012l0.019,0.013l0.019,0.013l0.036,0.03l0.032,0.032l0.03,0.035l0.013,0.019l0.013,0.02l0.011,0.02l0.021,0.041l0.017,0.043l0.006,0.022l0.006,0.022l0.005,0.023l0.003,0.022l0.003,0.024l0.002,0.022l0,1.922l-0.002,0.023l-0.003,0.023l-0.003,0.023l-0.005,0.022l-0.006,0.023l-0.006,0.021l-0.009,0.022l-0.008,0.021l-0.011,0.021l-0.01,0.021l-0.011,0.019l-0.013,0.02l-0.013,0.019l-0.015,0.018l-0.015,0.017l-0.016,0.016l-0.016,0.016l-0.018,0.015l-0.018,0.015l-0.019,0.013l-0.019,0.014l-0.02,0.011l-0.021,0.01l-0.02,0.01l-0.022,0.009l-0.021,0.008l-0.022,0.007l-0.022,0.005l-0.023,0.005l-0.022,0.004l-0.024,0.003l-0.022,0.002l-0.024,0l-2.813,0l-0.023,0l-0.023,-0.002l-0.023,-0.003l-0.023,-0.004l-0.022,-0.005l-0.023,-0.005l-0.021,-0.007l-0.022,-0.008l-0.021,-0.009l-0.021,-0.01l-0.021,-0.01l-0.019,-0.011l-0.02,-0.014l-0.019,-0.013l-0.018,-0.015l-0.017,-0.015l-0.016,-0.016l-0.016,-0.016l-0.015,-0.017l-0.015,-0.018l-0.013,-0.019l-0.014,-0.02l-0.011,-0.019l-0.01,-0.021l-0.01,-0.021l-0.009,-0.021l-0.008,-0.022l-0.007,-0.021l-0.005,-0.023l-0.005,-0.022l-0.004,-0.023l-0.003,-0.023l-0.002,-0.023l0,-0.023l0,-1.876l0,-0.023l0.002,-0.022l0.003,-0.024l0.004,-0.022l0.005,-0.023l0.005,-0.022l0.007,-0.022l0.008,-0.022l0.009,-0.021l0.01,-0.021l0.01,-0.02l0.011,-0.02l0.014,-0.02l0.013,-0.019l0.015,-0.017l0.015,-0.018l0.016,-0.016l0.016,-0.016l0.017,-0.015l0.018,-0.015l0.019,-0.013l0.02,-0.013l0.019,-0.012l0.021,-0.01l0.021,-0.01l0.021,-0.009l0.022,-0.008l0.021,-0.007l0.023,-0.005l0.022,-0.005l0.023,-0.004l0.023,-0.002l0.023,-0.002l2.86,0Zm-2.837,0.498l0,1.876l2.813,0l0,-1.876l-2.813,0Z" style="fill:#232326;"/><g><path d="M11.814,3.374l-0.703,0c-0.01,2.896 -1.754,5.277 -3.986,5.573l0,0.084c2.232,0.295 3.976,2.677 3.986,5.572l0.703,0l0,1.876l-0.001,0l0,0.022l-10.314,0l0,-1.875l0.001,0l0,-0.023l0.703,0c0.008,-2.894 1.752,-5.276 3.984,-5.572l0,-0.084c-2.232,-0.297 -3.976,-2.678 -3.984,-5.573l-0.704,0l0,-1.875l10.315,0l0,1.875Zm-1.875,11.252c0,-0.008 0,-0.015 0,-0.023c0,-2.588 -1.472,-4.688 -3.282,-4.688c-1.812,0 -3.282,2.1 -3.282,4.688c0,0.008 0,0.015 0,0.023l6.564,0Zm0,-11.252l-6.564,0c0,2.588 1.47,4.688 3.282,4.688c1.81,0 3.282,-2.1 3.282,-4.688Z" style="fill:#f5f5f5;"/><path d="M11.865,1.003l0.052,0.007l0.051,0.014l0.048,0.019l0.047,0.024l0.044,0.028l0.041,0.033l0.036,0.037l0.033,0.04l0.029,0.044l0.024,0.047l0.018,0.049l0.013,0.05l0.009,0.051l0.003,0.053l0,1.875l-0.003,0.053l-0.009,0.051l-0.013,0.05l-0.018,0.049l-0.024,0.047l-0.029,0.044l-0.033,0.04l-0.036,0.037l-0.041,0.033l-0.044,0.028l-0.047,0.024l-0.048,0.019l-0.051,0.014l-0.052,0.007l-0.051,0.003l-0.222,0l-0.006,0.077l-0.012,0.14l-0.015,0.141l-0.018,0.14l-0.02,0.138l-0.022,0.138l-0.025,0.135l-0.028,0.135l-0.03,0.135l-0.032,0.132l-0.034,0.131l-0.037,0.13l-0.039,0.13l-0.041,0.127l-0.045,0.126l-0.045,0.125l-0.048,0.123l-0.05,0.121l-0.053,0.121l-0.054,0.118l-0.057,0.118l-0.058,0.115l-0.061,0.113l-0.063,0.113l-0.065,0.11l-0.066,0.108l-0.069,0.106l-0.07,0.105l-0.072,0.104l-0.075,0.1l-0.076,0.098l-0.078,0.098l-0.08,0.095l-0.081,0.091l-0.084,0.091l-0.084,0.089l-0.087,0.086l-0.088,0.083l-0.09,0.082l-0.092,0.079l-0.093,0.076l-0.095,0.075l-0.096,0.071l-0.099,0.069l-0.099,0.066l-0.101,0.064l-0.103,0.061l-0.103,0.059l-0.054,0.028l0.054,0.028l0.103,0.059l0.103,0.061l0.101,0.064l0.099,0.065l0.099,0.07l0.096,0.071l0.095,0.074l0.093,0.077l0.092,0.079l0.09,0.081l0.088,0.084l0.087,0.086l0.084,0.088l0.084,0.09l0.081,0.093l0.08,0.095l0.078,0.096l0.076,0.1l0.075,0.1l0.072,0.103l0.07,0.105l0.069,0.106l0.066,0.109l0.065,0.11l0.063,0.112l0.061,0.113l0.058,0.116l0.057,0.117l0.054,0.118l0.053,0.121l0.05,0.121l0.048,0.124l0.045,0.125l0.045,0.125l0.041,0.128l0.039,0.129l0.037,0.13l0.034,0.132l0.032,0.132l0.03,0.134l0.028,0.135l0.025,0.136l0.022,0.138l0.02,0.138l0.018,0.139l0.015,0.141l0.012,0.141l0.006,0.077l0.222,0l0.051,0.002l0.052,0.008l0.051,0.014l0.048,0.019l0.047,0.023l0.044,0.028l0.041,0.033l0.036,0.038l0.033,0.04l0.029,0.044l0.024,0.046l0.018,0.049l0.013,0.05l0.009,0.052l0.003,0.052l0,1.876l-0.001,0.013l0,0.009l-0.003,0.053l-0.008,0.051l-0.014,0.05l-0.018,0.049l-0.024,0.047l-0.028,0.044l-0.033,0.04l-0.037,0.037l-0.041,0.033l-0.044,0.028l-0.047,0.024l-0.048,0.019l-0.05,0.014l-0.052,0.007l-0.052,0.003l-10.314,0l-0.053,-0.003l-0.051,-0.007l-0.05,-0.014l-0.049,-0.019l-0.047,-0.024l-0.044,-0.028l-0.04,-0.033l-0.037,-0.037l-0.033,-0.04l-0.028,-0.044l-0.024,-0.047l-0.019,-0.049l-0.014,-0.05l-0.007,-0.051l-0.003,-0.053l0,-1.875l0,-0.013l0,-0.01l0.003,-0.052l0.008,-0.052l0.014,-0.05l0.019,-0.049l0.024,-0.046l0.028,-0.044l0.032,-0.04l0.038,-0.038l0.04,-0.033l0.044,-0.028l0.046,-0.023l0.049,-0.019l0.051,-0.014l0.051,-0.008l0.053,-0.002l0.222,0l0.005,-0.077l0.012,-0.141l0.015,-0.141l0.018,-0.138l0.019,-0.139l0.023,-0.137l0.025,-0.137l0.027,-0.135l0.03,-0.133l0.032,-0.133l0.035,-0.132l0.037,-0.13l0.039,-0.128l0.041,-0.128l0.044,-0.126l0.046,-0.125l0.048,-0.123l0.051,-0.122l0.052,-0.12l0.055,-0.118l0.056,-0.117l0.058,-0.116l0.061,-0.113l0.063,-0.113l0.064,-0.109l0.067,-0.109l0.068,-0.107l0.071,-0.104l0.072,-0.103l0.075,-0.1l0.076,-0.1l0.078,-0.096l0.079,-0.095l0.082,-0.093l0.083,-0.09l0.085,-0.088l0.086,-0.086l0.089,-0.084l0.09,-0.081l0.091,-0.079l0.094,-0.077l0.095,-0.074l0.096,-0.071l0.098,-0.07l0.099,-0.066l0.101,-0.064l0.103,-0.061l0.104,-0.058l0.055,-0.029l-0.055,-0.029l-0.104,-0.058l-0.103,-0.061l-0.101,-0.064l-0.099,-0.067l-0.098,-0.069l-0.096,-0.071l-0.095,-0.074l-0.094,-0.077l-0.091,-0.079l-0.09,-0.082l-0.089,-0.083l-0.086,-0.086l-0.085,-0.089l-0.083,-0.09l-0.082,-0.092l-0.079,-0.095l-0.078,-0.097l-0.076,-0.099l-0.075,-0.1l-0.072,-0.104l-0.071,-0.104l-0.068,-0.106l-0.067,-0.109l-0.064,-0.11l-0.063,-0.112l-0.061,-0.114l-0.058,-0.115l-0.056,-0.117l-0.055,-0.119l-0.052,-0.12l-0.051,-0.122l-0.048,-0.122l-0.046,-0.125l-0.044,-0.127l-0.041,-0.127l-0.039,-0.129l-0.037,-0.13l-0.035,-0.131l-0.032,-0.133l-0.03,-0.134l-0.027,-0.135l-0.025,-0.136l-0.023,-0.137l-0.019,-0.139l-0.018,-0.139l-0.015,-0.141l-0.012,-0.14l-0.005,-0.077l-0.223,0l-0.053,-0.003l-0.051,-0.007l-0.05,-0.014l-0.049,-0.019l-0.047,-0.024l-0.044,-0.028l-0.04,-0.033l-0.037,-0.037l-0.033,-0.04l-0.028,-0.044l-0.024,-0.047l-0.019,-0.049l-0.014,-0.05l-0.007,-0.051l-0.003,-0.053l0,-1.875l0.003,-0.053l0.007,-0.051l0.014,-0.05l0.019,-0.049l0.024,-0.047l0.028,-0.044l0.033,-0.04l0.037,-0.037l0.04,-0.033l0.044,-0.028l0.047,-0.024l0.049,-0.019l0.05,-0.014l0.051,-0.007l0.053,-0.003l10.315,0l0.051,0.003Zm-10.366,0.496l0,1.875l0.704,0l0.002,0.135l0.004,0.135l0.006,0.133l0.01,0.133l0.011,0.133l0.014,0.13l0.017,0.13l0.019,0.13l0.02,0.127l0.024,0.128l0.025,0.125l0.028,0.125l0.029,0.123l0.033,0.123l0.034,0.121l0.036,0.12l0.039,0.118l0.04,0.117l0.043,0.115l0.044,0.115l0.047,0.112l0.048,0.112l0.051,0.109l0.052,0.108l0.054,0.106l0.056,0.105l0.058,0.104l0.059,0.101l0.062,0.1l0.063,0.098l0.064,0.095l0.066,0.095l0.068,0.092l0.07,0.09l0.071,0.089l0.072,0.086l0.074,0.085l0.076,0.081l0.077,0.081l0.079,0.078l0.08,0.076l0.081,0.073l0.083,0.071l0.084,0.068l0.085,0.068l0.087,0.064l0.087,0.062l0.089,0.059l0.09,0.057l0.092,0.054l0.092,0.052l0.094,0.05l0.046,0.023l0.048,0.023l0.047,0.022l0.048,0.022l0.049,0.021l0.048,0.02l0.097,0.039l0.05,0.018l0.049,0.018l0.049,0.017l0.05,0.016l0.051,0.015l0.049,0.015l0.051,0.014l0.05,0.013l0.051,0.012l0.052,0.012l0.051,0.011l0.051,0.011l0.052,0.009l0.052,0.01l0.052,0.007l0.052,0.008l0,0.084l-0.052,0.007l-0.052,0.008l-0.052,0.009l-0.052,0.01l-0.051,0.01l-0.051,0.011l-0.052,0.012l-0.051,0.013l-0.05,0.013l-0.051,0.014l-0.049,0.015l-0.051,0.015l-0.05,0.016l-0.049,0.017l-0.049,0.017l-0.05,0.018l-0.049,0.02l-0.048,0.019l-0.048,0.02l-0.049,0.021l-0.048,0.022l-0.047,0.022l-0.048,0.023l-0.046,0.024l-0.094,0.05l-0.092,0.051l-0.092,0.055l-0.09,0.057l-0.089,0.059l-0.087,0.062l-0.087,0.064l-0.085,0.066l-0.084,0.069l-0.083,0.072l-0.081,0.073l-0.08,0.076l-0.079,0.078l-0.077,0.08l-0.076,0.082l-0.074,0.084l-0.072,0.086l-0.071,0.089l-0.07,0.091l-0.068,0.091l-0.066,0.095l-0.064,0.096l-0.063,0.097l-0.062,0.101l-0.059,0.101l-0.058,0.103l-0.056,0.105l-0.054,0.106l-0.052,0.108l-0.051,0.11l-0.048,0.111l-0.047,0.113l-0.044,0.114l-0.043,0.115l-0.04,0.118l-0.039,0.118l-0.036,0.12l-0.034,0.121l-0.033,0.123l-0.029,0.122l-0.028,0.125l-0.025,0.126l-0.024,0.127l-0.02,0.128l-0.019,0.129l-0.017,0.131l-0.014,0.13l-0.011,0.132l-0.01,0.133l-0.006,0.133l-0.004,0.135l-0.002,0.135l-0.703,0l0,0.023l-0.001,0l0,1.875l10.314,0l0,-0.022l0.001,0l0,-1.876l-0.703,0l-0.002,-0.135l-0.005,-0.135l-0.006,-0.133l-0.009,-0.133l-0.012,-0.132l-0.014,-0.131l-0.016,-0.13l-0.019,-0.129l-0.02,-0.129l-0.024,-0.126l-0.026,-0.126l-0.027,-0.125l-0.03,-0.123l-0.032,-0.122l-0.035,-0.121l-0.037,-0.12l-0.038,-0.118l-0.04,-0.118l-0.042,-0.115l-0.045,-0.114l-0.046,-0.114l-0.049,-0.11l-0.051,-0.11l-0.052,-0.108l-0.054,-0.107l-0.056,-0.105l-0.058,-0.103l-0.059,-0.101l-0.061,-0.1l-0.064,-0.098l-0.065,-0.096l-0.065,-0.094l-0.069,-0.092l-0.069,-0.09l-0.071,-0.089l-0.073,-0.087l-0.074,-0.083l-0.076,-0.083l-0.076,-0.079l-0.079,-0.079l-0.08,-0.075l-0.082,-0.074l-0.082,-0.071l-0.084,-0.069l-0.086,-0.066l-0.086,-0.065l-0.088,-0.062l-0.089,-0.059l-0.09,-0.057l-0.091,-0.055l-0.093,-0.051l-0.093,-0.049l-0.048,-0.024l-0.047,-0.023l-0.047,-0.022l-0.048,-0.022l-0.048,-0.021l-0.049,-0.02l-0.049,-0.02l-0.048,-0.019l-0.05,-0.018l-0.049,-0.017l-0.049,-0.017l-0.05,-0.016l-0.051,-0.016l-0.049,-0.014l-0.051,-0.014l-0.051,-0.013l-0.05,-0.013l-0.052,-0.012l-0.051,-0.011l-0.051,-0.01l-0.052,-0.01l-0.052,-0.009l-0.052,-0.008l-0.052,-0.007l0,-0.084l0.052,-0.008l0.052,-0.007l0.052,-0.01l0.052,-0.009l0.051,-0.011l0.051,-0.011l0.052,-0.011l0.05,-0.013l0.051,-0.013l0.051,-0.014l0.049,-0.014l0.051,-0.016l0.05,-0.016l0.049,-0.017l0.049,-0.018l0.05,-0.018l0.048,-0.019l0.049,-0.019l0.049,-0.021l0.048,-0.02l0.048,-0.022l0.047,-0.023l0.047,-0.022l0.048,-0.024l0.093,-0.049l0.093,-0.052l0.091,-0.054l0.09,-0.057l0.089,-0.059l0.088,-0.062l0.086,-0.065l0.086,-0.067l0.084,-0.068l0.082,-0.071l0.082,-0.074l0.08,-0.075l0.079,-0.079l0.076,-0.08l0.076,-0.082l0.074,-0.085l0.073,-0.086l0.071,-0.088l0.069,-0.09l0.069,-0.093l0.065,-0.094l0.065,-0.095l0.064,-0.099l0.061,-0.099l0.059,-0.101l0.058,-0.104l0.056,-0.105l0.054,-0.107l0.052,-0.107l0.051,-0.11l0.049,-0.112l0.046,-0.112l0.045,-0.115l0.042,-0.115l0.04,-0.117l0.038,-0.118l0.037,-0.12l0.035,-0.121l0.032,-0.122l0.03,-0.124l0.027,-0.125l0.026,-0.125l0.024,-0.127l0.02,-0.128l0.019,-0.13l0.016,-0.129l0.014,-0.131l0.012,-0.133l0.009,-0.133l0.006,-0.133l0.005,-0.135l0.002,-0.135l0.703,0l0,-1.875l-10.315,0Zm5.2,8.416l0.127,0.006l0.041,0.004l0.042,0.004l0.041,0.005l0.042,0.006l0.082,0.013l0.041,0.007l0.041,0.01l0.041,0.008l0.081,0.021l0.04,0.012l0.039,0.011l0.041,0.013l0.039,0.013l0.039,0.014l0.078,0.031l0.078,0.033l0.077,0.036l0.076,0.038l0.075,0.041l0.074,0.043l0.073,0.046l0.072,0.047l0.071,0.051l0.07,0.053l0.069,0.056l0.069,0.057l0.067,0.06l0.066,0.062l0.065,0.065l0.063,0.066l0.063,0.069l0.062,0.07l0.06,0.073l0.059,0.075l0.057,0.076l0.057,0.079l0.055,0.08l0.053,0.083l0.053,0.084l0.05,0.086l0.05,0.088l0.048,0.089l0.047,0.091l0.045,0.093l0.043,0.094l0.042,0.096l0.041,0.098l0.038,0.098l0.037,0.101l0.035,0.101l0.034,0.104l0.033,0.104l0.03,0.106l0.028,0.107l0.027,0.108l0.024,0.11l0.024,0.111l0.021,0.111l0.019,0.113l0.018,0.114l0.015,0.115l0.013,0.116l0.012,0.116l0.01,0.118l0.007,0.118l0.005,0.12l0.004,0.12l0.001,0.121l0,0.023l-6.564,0l0,-0.023l0.001,-0.121l0.003,-0.12l0.005,-0.12l0.008,-0.118l0.009,-0.118l0.012,-0.116l0.013,-0.116l0.016,-0.115l0.017,-0.114l0.019,-0.113l0.022,-0.111l0.022,-0.111l0.026,-0.11l0.026,-0.108l0.029,-0.107l0.03,-0.106l0.032,-0.104l0.034,-0.104l0.035,-0.101l0.037,-0.101l0.039,-0.098l0.04,-0.098l0.042,-0.096l0.044,-0.094l0.045,-0.093l0.046,-0.091l0.048,-0.089l0.049,-0.088l0.052,-0.086l0.051,-0.084l0.055,-0.083l0.054,-0.08l0.056,-0.079l0.059,-0.076l0.059,-0.075l0.06,-0.073l0.061,-0.07l0.062,-0.069l0.064,-0.066l0.065,-0.065l0.066,-0.062l0.067,-0.06l0.068,-0.057l0.07,-0.056l0.07,-0.053l0.071,-0.051l0.073,-0.047l0.073,-0.046l0.074,-0.043l0.075,-0.041l0.076,-0.038l0.076,-0.036l0.078,-0.033l0.077,-0.031l0.041,-0.014l0.039,-0.013l0.039,-0.013l0.041,-0.011l0.04,-0.012l0.04,-0.011l0.041,-0.01l0.04,-0.008l0.041,-0.01l0.041,-0.007l0.041,-0.007l0.041,-0.006l0.041,-0.006l0.043,-0.005l0.041,-0.004l0.042,-0.004l0.042,-0.002l0.041,-0.002l0.044,-0.002l0.084,0Zm-0.076,0.5l-0.033,0.001l-0.034,0.001l-0.032,0.002l-0.033,0.002l-0.033,0.004l-0.033,0.004l-0.032,0.005l-0.032,0.004l-0.033,0.006l-0.032,0.006l-0.032,0.007l-0.033,0.007l-0.032,0.008l-0.032,0.009l-0.032,0.008l-0.031,0.01l-0.031,0.011l-0.032,0.01l-0.03,0.01l-0.065,0.026l-0.062,0.026l-0.062,0.029l-0.062,0.031l-0.061,0.034l-0.061,0.035l-0.06,0.038l-0.06,0.04l-0.06,0.042l-0.06,0.044l-0.058,0.047l-0.058,0.049l-0.057,0.052l-0.056,0.052l-0.056,0.055l-0.055,0.058l-0.054,0.06l-0.054,0.061l-0.052,0.063l-0.052,0.066l-0.05,0.067l-0.051,0.07l-0.049,0.071l-0.047,0.074l-0.047,0.075l-0.046,0.077l-0.044,0.078l-0.043,0.08l-0.042,0.083l-0.04,0.083l-0.04,0.086l-0.037,0.087l-0.038,0.088l-0.034,0.09l-0.034,0.091l-0.033,0.093l-0.03,0.095l-0.03,0.095l-0.027,0.097l-0.026,0.098l-0.025,0.1l-0.023,0.1l-0.021,0.102l-0.019,0.102l-0.018,0.104l-0.016,0.105l-0.014,0.106l-0.013,0.108l-0.011,0.108l-0.005,0.076l5.528,0l-0.007,-0.076l-0.01,-0.108l-0.012,-0.108l-0.014,-0.106l-0.016,-0.105l-0.018,-0.104l-0.02,-0.102l-0.021,-0.102l-0.023,-0.1l-0.024,-0.1l-0.026,-0.098l-0.028,-0.097l-0.029,-0.095l-0.031,-0.095l-0.032,-0.093l-0.034,-0.091l-0.036,-0.09l-0.036,-0.088l-0.039,-0.087l-0.038,-0.086l-0.041,-0.083l-0.042,-0.083l-0.043,-0.08l-0.045,-0.078l-0.045,-0.077l-0.047,-0.075l-0.047,-0.074l-0.049,-0.071l-0.05,-0.07l-0.051,-0.067l-0.051,-0.066l-0.053,-0.063l-0.053,-0.061l-0.054,-0.06l-0.056,-0.058l-0.056,-0.055l-0.056,-0.052l-0.058,-0.052l-0.058,-0.049l-0.058,-0.047l-0.059,-0.044l-0.059,-0.042l-0.06,-0.04l-0.061,-0.038l-0.061,-0.035l-0.061,-0.034l-0.062,-0.031l-0.062,-0.029l-0.062,-0.026l-0.065,-0.026l-0.029,-0.01l-0.032,-0.01l-0.032,-0.011l-0.032,-0.01l-0.032,-0.008l-0.032,-0.009l-0.031,-0.008l-0.032,-0.007l-0.033,-0.007l-0.032,-0.006l-0.032,-0.006l-0.033,-0.004l-0.033,-0.005l-0.032,-0.004l-0.033,-0.004l-0.033,-0.002l-0.033,-0.002l-0.033,-0.001l-0.033,-0.001l-0.033,-0.001l-0.034,0.001Zm3.315,-6.92l-0.004,0.12l-0.005,0.119l-0.007,0.119l-0.01,0.117l-0.012,0.118l-0.013,0.116l-0.015,0.114l-0.018,0.115l-0.019,0.112l-0.021,0.112l-0.024,0.11l-0.024,0.11l-0.027,0.108l-0.028,0.108l-0.03,0.105l-0.033,0.105l-0.034,0.103l-0.035,0.101l-0.037,0.101l-0.038,0.099l-0.041,0.098l-0.042,0.095l-0.043,0.095l-0.045,0.093l-0.047,0.091l-0.048,0.089l-0.05,0.088l-0.05,0.085l-0.053,0.085l-0.053,0.082l-0.055,0.081l-0.057,0.078l-0.057,0.076l-0.059,0.075l-0.06,0.074l-0.062,0.07l-0.063,0.068l-0.063,0.067l-0.065,0.065l-0.066,0.061l-0.067,0.06l-0.069,0.058l-0.069,0.055l-0.07,0.053l-0.071,0.051l-0.072,0.048l-0.073,0.046l-0.074,0.043l-0.075,0.04l-0.076,0.039l-0.077,0.035l-0.078,0.033l-0.078,0.03l-0.039,0.015l-0.039,0.013l-0.041,0.013l-0.039,0.012l-0.04,0.011l-0.041,0.011l-0.04,0.01l-0.041,0.009l-0.041,0.008l-0.041,0.009l-0.041,0.006l-0.041,0.007l-0.042,0.006l-0.041,0.004l-0.042,0.005l-0.041,0.003l-0.043,0.003l-0.042,0.001l-0.042,0.002l-0.042,0l-0.042,0l-0.044,-0.002l-0.041,-0.001l-0.042,-0.003l-0.042,-0.003l-0.041,-0.005l-0.043,-0.004l-0.041,-0.006l-0.041,-0.007l-0.041,-0.006l-0.041,-0.009l-0.041,-0.008l-0.04,-0.009l-0.041,-0.01l-0.04,-0.011l-0.04,-0.011l-0.041,-0.012l-0.039,-0.013l-0.039,-0.013l-0.041,-0.015l-0.077,-0.03l-0.078,-0.033l-0.076,-0.035l-0.076,-0.039l-0.075,-0.04l-0.074,-0.043l-0.073,-0.046l-0.073,-0.048l-0.071,-0.051l-0.07,-0.053l-0.07,-0.055l-0.068,-0.058l-0.067,-0.06l-0.066,-0.061l-0.065,-0.065l-0.064,-0.067l-0.062,-0.068l-0.061,-0.07l-0.06,-0.074l-0.059,-0.075l-0.059,-0.076l-0.056,-0.078l-0.054,-0.081l-0.055,-0.082l-0.051,-0.085l-0.052,-0.085l-0.049,-0.088l-0.048,-0.089l-0.046,-0.091l-0.045,-0.093l-0.044,-0.095l-0.042,-0.095l-0.04,-0.098l-0.039,-0.099l-0.037,-0.101l-0.035,-0.101l-0.034,-0.103l-0.032,-0.105l-0.03,-0.105l-0.029,-0.108l-0.026,-0.108l-0.026,-0.11l-0.022,-0.11l-0.022,-0.112l-0.019,-0.112l-0.017,-0.115l-0.016,-0.114l-0.013,-0.116l-0.012,-0.118l-0.009,-0.117l-0.008,-0.119l-0.005,-0.119l-0.003,-0.12l-0.001,-0.121l6.564,0l-0.001,0.121Zm-6.043,0.378l0.003,0.053l0.011,0.108l0.013,0.107l0.014,0.107l0.016,0.105l0.018,0.104l0.019,0.102l0.021,0.103l0.023,0.1l0.025,0.099l0.026,0.099l0.027,0.096l0.03,0.096l0.03,0.095l0.033,0.092l0.034,0.091l0.035,0.09l0.037,0.089l0.037,0.087l0.04,0.085l0.04,0.084l0.042,0.082l0.043,0.081l0.044,0.077l0.046,0.077l0.047,0.075l0.047,0.074l0.049,0.072l0.051,0.069l0.05,0.068l0.052,0.065l0.052,0.063l0.054,0.062l0.054,0.059l0.055,0.058l0.056,0.055l0.056,0.053l0.057,0.052l0.058,0.048l0.058,0.047l0.06,0.044l0.06,0.042l0.06,0.041l0.06,0.037l0.061,0.036l0.061,0.034l0.062,0.031l0.062,0.029l0.062,0.026l0.065,0.025l0.03,0.011l0.032,0.01l0.031,0.01l0.063,0.019l0.064,0.017l0.033,0.006l0.032,0.008l0.032,0.006l0.033,0.005l0.032,0.005l0.032,0.005l0.066,0.007l0.033,0.003l0.032,0.002l0.101,0.003l0.033,-0.001l0.033,-0.001l0.033,-0.001l0.033,-0.002l0.033,-0.003l0.033,-0.004l0.032,-0.003l0.033,-0.005l0.033,-0.005l0.032,-0.005l0.032,-0.006l0.033,-0.008l0.032,-0.006l0.031,-0.009l0.032,-0.008l0.032,-0.009l0.032,-0.01l0.032,-0.01l0.032,-0.01l0.029,-0.011l0.065,-0.025l0.062,-0.026l0.062,-0.029l0.062,-0.031l0.061,-0.034l0.061,-0.036l0.061,-0.037l0.06,-0.041l0.059,-0.042l0.059,-0.044l0.058,-0.047l0.058,-0.048l0.058,-0.052l0.056,-0.053l0.056,-0.055l0.056,-0.058l0.054,-0.059l0.053,-0.062l0.053,-0.063l0.051,-0.065l0.051,-0.068l0.05,-0.069l0.049,-0.072l0.047,-0.074l0.047,-0.075l0.045,-0.077l0.044,-0.077l0.043,-0.081l0.043,-0.082l0.04,-0.084l0.039,-0.085l0.039,-0.087l0.036,-0.089l0.036,-0.09l0.034,-0.091l0.032,-0.092l0.031,-0.095l0.029,-0.096l0.028,-0.096l0.026,-0.099l0.024,-0.099l0.023,-0.1l0.021,-0.103l0.02,-0.102l0.018,-0.104l0.016,-0.105l0.014,-0.107l0.012,-0.107l0.01,-0.108l0.005,-0.053l-5.524,0Z" style="fill:#232326;"/></g></g></svg>