<?xml version="1.0" encoding="UTF-8" standalone="no"?><!DOCTYPE svg PUBLIC "-//W3C//DTD SVG 1.1//EN" "http://www.w3.org/Graphics/SVG/1.1/DTD/svg11.dtd"><svg width="100%" height="100%" viewBox="0 0 18 18" version="1.1" xmlns="http://www.w3.org/2000/svg" xmlns:xlink="http://www.w3.org/1999/xlink" xml:space="preserve" xmlns:serif="http://www.serif.com/" style="fill-rule:evenodd;clip-rule:evenodd;stroke-linecap:round;stroke-miterlimit:1.5;"><g><path d="M5.092,1.252c2.245,0 4.068,1.952 4.068,4.358c0,2.405 -1.823,4.357 -4.068,4.357c-2.245,0 -4.067,-1.952 -4.067,-4.357c0,-2.406 1.822,-4.358 4.067,-4.358Zm0,1.91c1.262,0 2.285,1.097 2.285,2.448c0,1.351 -1.023,2.448 -2.285,2.448c-1.261,0 -2.285,-1.097 -2.285,-2.448c0,-1.351 1.024,-2.448 2.285,-2.448Z" style="fill:#fffcfc;stroke:#181818;stroke-width:0.82px;"/><path d="M16.52,14.471c-1.417,0.352 0.163,-7.058 -1.728,-6.347c-0.648,0.243 -0.455,0.756 -1.483,-0.556c-0.165,-0.211 -0.782,0.327 -1.238,0.35c-0.217,0.011 -0.553,-0.374 -0.706,-0.497c-0.183,-0.148 -1.104,0.518 -1.332,1.193c-0.14,0.419 -0.953,-0.504 -2.141,-1.168c-1.177,-0.657 -2.637,-3.213 -3.627,-2.687c-1.471,0.783 1.159,3.067 2.617,4.879c1.082,1.342 1.529,3.353 1.357,3.733c-0.589,0.074 -1.16,0.351 -1.575,0.211c-1.983,-0.671 -2.743,0.712 -2.403,1.295c0.34,0.583 1.768,0.142 2.893,0.686c1.021,0.492 4.43,1.218 6.057,1.184l3.309,-2.276Z" style="fill:#e0e0e0;stroke:#181818;stroke-width:0.82px;"/></g></svg>