<?xml version="1.0" encoding="UTF-8" standalone="no"?>
<svg
   xmlns:ns4="http://ns.adobe.com/SaveForWeb/1.0/"
   xmlns:ns3="http://ns.adobe.com/Variables/1.0/"
   xmlns:ns2="http://ns.adobe.com/AdobeIllustrator/10.0/"
   xmlns:dc="http://purl.org/dc/elements/1.1/"
   xmlns:cc="http://creativecommons.org/ns#"
   xmlns:rdf="http://www.w3.org/1999/02/22-rdf-syntax-ns#"
   xmlns:svg="http://www.w3.org/2000/svg"
   xmlns="http://www.w3.org/2000/svg"
   style="overflow:visible"
   id="svg35"
   version="1.1"
   xml:space="preserve"
   enable-background="new 0 0 26 26.08"
   overflow="visible"
   viewBox="0 0 23 23.08"
   height="23.08"
   width="23"
   ns2:pageBounds="0 600 800 0"
   ns2:rulerOrigin="0 0"
   ns2:viewOrigin="387 313"><defs
     id="defs39" /><metadata
     id="metadata2"><ns3:variableSets><ns3:variableSet
         locked="none"
         varSetName="binding1"><ns3:variables /><ns3:sampleDataSets /></ns3:variableSet></ns3:variableSets><ns4:sfw><ns4:slices /><ns4:sliceSourceBounds
         bottomLeftOrigin="true"
         height="26.08"
         width="26"
         x="387"
         y="286.92" /></ns4:sfw><rdf:RDF><cc:Work
         rdf:about=""><dc:format>image/svg+xml</dc:format><dc:type
           rdf:resource="http://purl.org/dc/dcmitype/StillImage" /><dc:title></dc:title></cc:Work></rdf:RDF></metadata><g
     aria-label="T"
     transform="scale(0.99999021,1.0000098)"
     style="font-style:normal;font-weight:normal;font-size:39.99960709px;line-height:1.25;font-family:sans-serif;letter-spacing:0px;word-spacing:0px;fill:#e6e6e6;fill-opacity:1;stroke:#000000;stroke-width:1.29999999;stroke-opacity:1;stroke-miterlimit:4;stroke-dasharray:none"
     id="g903"><path
       d="M 4.0000392,2.0799795 H 19.000186 v 4.999951 H 17.596554 C 17.386487,6.258758 17.176419,5.5938343 16.966351,5.1164083 16.765832,4.6389824 16.000157,4.0799599 16.000157,4.0799599 h -1.00001 -2.00002 v 13.9998631 0.99999 l 0.492012,0.492183 0.648645,0.278643 c 0,0 0.391485,0.12413 0.859363,0.229164 l 0,0.99999 H 8.0000783 l 0,-0.99999 c 0.2864556,-0.06684 0.5394913,-0.138454 0.7591072,-0.214842 0.219616,-0.07639 0.7486078,-0.26432 0.7486078,-0.26432 L 10.000098,19.079813 V 18.079823 4.0799599 H 8.0000783 7.0000685 c 0,0 -0.7990958,0.5876681 -1.0091632,1.0937395 -0.200519,0.496523 -0.3914893,1.1423497 -0.5729111,1.9062311 h -1.417955 z"
       style="font-style:normal;font-variant:normal;font-weight:normal;font-stretch:normal;font-size:29.33304787px;font-family:'Cambria Math';-inkscape-font-specification:'Cambria Math';fill:#e6e6e6;fill-opacity:1;stroke-width:1.29999999;stroke:#000000;stroke-opacity:1;stroke-miterlimit:4;stroke-dasharray:none"
       id="path901" /></g><g
     id="text888"
     style="font-style:normal;font-weight:normal;font-size:39.99960709px;line-height:1.25;font-family:sans-serif;letter-spacing:0px;word-spacing:0px;fill:#cccccc;fill-opacity:1;stroke:none;stroke-width:1"
     transform="scale(0.99999021,1.0000098)"
     aria-label="T"><path
       id="path894"
       style="font-style:normal;font-variant:normal;font-weight:normal;font-stretch:normal;font-size:29.33304787px;font-family:'Cambria Math';-inkscape-font-specification:'Cambria Math';fill:#cccccc;fill-opacity:1;stroke-width:1"
       d="M 4.0000392,2.0799795 H 19.000186 v 4.999951 H 17.596554 C 17.386487,6.258758 17.176419,5.5938343 16.966351,5.1164083 16.765832,4.6389824 16.000157,4.0799599 16.000157,4.0799599 h -1.00001 -2.00002 v 13.9998631 0.99999 l 0.492012,0.492183 0.648645,0.278643 c 0,0 0.391485,0.12413 0.859363,0.229164 l 0,0.99999 H 8.0000783 l 0,-0.99999 c 0.2864556,-0.06684 0.5394913,-0.138454 0.7591072,-0.214842 0.219616,-0.07639 0.7486078,-0.26432 0.7486078,-0.26432 L 10.000098,19.079813 V 18.079823 4.0799599 H 8.0000783 7.0000685 c 0,0 -0.7990958,0.5876681 -1.0091632,1.0937395 -0.200519,0.496523 -0.3914893,1.1423497 -0.5729111,1.9062311 h -1.417955 z" /></g></svg>