<?xml version="1.0" encoding="utf-8"?>
<!-- Generator: Adobe Illustrator 21.0.2, SVG Export Plug-In . SVG Version: 6.00 Build 0)  -->
<svg version="1.1"
	 id="svg2" inkscape:version="0.91 r13725" sodipodi:docname="use_subcamera_preview.svg" xmlns:cc="http://creativecommons.org/ns#" xmlns:dc="http://purl.org/dc/elements/1.1/" xmlns:inkscape="http://www.inkscape.org/namespaces/inkscape" xmlns:rdf="http://www.w3.org/1999/02/22-rdf-syntax-ns#" xmlns:sodipodi="http://sodipodi.sourceforge.net/DTD/sodipodi-0.dtd" xmlns:svg="http://www.w3.org/2000/svg"
	 xmlns="http://www.w3.org/2000/svg" xmlns:xlink="http://www.w3.org/1999/xlink" x="0px" y="0px" viewBox="0 0 17 17"
	 style="enable-background:new 0 0 17 17;" xml:space="preserve">
<style type="text/css">
	.st0{fill:none;}
	.st1{fill:#FFFFFF;}
	.st2{fill:#FFFFFF;fill-opacity:0.75;}
	.st3{fill:url(#SVGID_1_);}
	.st4{fill:#242424;}
</style>
<sodipodi:namedview  bordercolor="#666666" borderopacity="1" gridtolerance="10" guidetolerance="10" id="namedview29" inkscape:current-layer="svg2" inkscape:cx="7.5" inkscape:cy="7.5" inkscape:pageopacity="0" inkscape:pageshadow="2" inkscape:window-height="480" inkscape:window-maximized="0" inkscape:window-width="796" inkscape:window-x="0" inkscape:window-y="0" inkscape:zoom="15.733333" objecttolerance="10" pagecolor="#ffffff" showgrid="false">
	</sodipodi:namedview>
<rect id="rect4_1_" x="1" y="1" class="st0" width="15" height="15"/>
<rect id="rect6_1_" x="2" y="2" class="st1" width="13" height="13"/>
<path class="st1" d="M15,16H2c-0.6,0-1-0.5-1-1V2c0-0.6,0.5-1,1-1h13c0.6,0,1,0.5,1,1v13C16,15.6,15.6,16,15,16z M2.5,14.5h12v-12
	h-12l0,0V14.5z"/>
<path class="st2" d="M15,8.5c-1.5,2.1-3.9,3.5-6.5,3.5C5.9,12,3.6,10.6,2,8.5v0C3.6,6.4,5.9,5,8.5,5C11.1,5,13.4,6.4,15,8.5L15,8.5z
	"/>
<linearGradient id="SVGID_1_" gradientUnits="userSpaceOnUse" x1="8.5051" y1="5" x2="8.5051" y2="12">
	<stop  offset="0" style="stop-color:#000000"/>
	<stop  offset="1" style="stop-color:#696969"/>
</linearGradient>
<path class="st3" d="M8.5,10.9c-2.1,0-3.9-0.9-5.1-2.4v0C4.6,7,6.5,6.1,8.5,6.1c2.1,0,3.9,0.9,5.1,2.4v0C12.4,10,10.6,10.9,8.5,10.9
	z M15,8.5C13.4,6.4,11.1,5,8.5,5C5.9,5,3.6,6.4,2,8.5v0C3.6,10.6,5.9,12,8.5,12C11.1,12,13.4,10.6,15,8.5L15,8.5z"/>
<circle id="circle16_1_" cx="8.5" cy="8.5" r="2.5"/>
<circle id="circle18_1_" class="st1" cx="7.5" cy="7.5" r="1"/>
<path id="path10_1_" inkscape:connector-curvature="0" class="st4" d="M14,9h1v1h-1V9z M14,7h1v1h-1V7z M14,5h1v1h-1V5z M5,5v1H4V5
	H5z M4,3h1v1H4V3z M6,3h1v1H6V3z M10,3h1v1h-1V3z M8,3h1v1H8V3z M12,3h1v1h-1V3z M14,3h1v1h-1V3z"/>
</svg>
