<?xml version="1.0" encoding="utf-8"?>
<!-- Generator: Adobe Illustrator 21.0.2, SVG Export Plug-In . SVG Version: 6.00 Build 0)  -->
<svg version="1.1"
	 id="svg2" inkscape:version="0.91 r13725" sodipodi:docname="viewicon_over.svg" xmlns:cc="http://creativecommons.org/ns#" xmlns:dc="http://purl.org/dc/elements/1.1/" xmlns:inkscape="http://www.inkscape.org/namespaces/inkscape" xmlns:rdf="http://www.w3.org/1999/02/22-rdf-syntax-ns#" xmlns:sodipodi="http://sodipodi.sourceforge.net/DTD/sodipodi-0.dtd" xmlns:svg="http://www.w3.org/2000/svg"
	 xmlns="http://www.w3.org/2000/svg" xmlns:xlink="http://www.w3.org/1999/xlink" x="0px" y="0px" viewBox="0 0 17 17"
	 style="enable-background:new 0 0 17 17;" xml:space="preserve">
<style type="text/css">
	.st0{fill:#FFFFFF;}
	.st1{fill:#FFDC00;}
	.st2{fill:#E6E6E6;}
	.st3{fill:#696969;}
</style>
<sodipodi:namedview  bordercolor="#666666" borderopacity="1" gridtolerance="10" guidetolerance="10" id="namedview28" inkscape:current-layer="svg2" inkscape:cx="10.5" inkscape:cy="8.5" inkscape:pageopacity="0" inkscape:pageshadow="2" inkscape:window-height="480" inkscape:window-maximized="0" inkscape:window-width="796" inkscape:window-x="0" inkscape:window-y="0" inkscape:zoom="13.882353" objecttolerance="10" pagecolor="#ffffff" showgrid="false">
	</sodipodi:namedview>
<rect id="rect6" x="2" y="2" class="st0" width="13" height="13"/>
<path class="st1" d="M15,16H2c-0.6,0-1-0.5-1-1V2c0-0.6,0.5-1,1-1h13c0.6,0,1,0.5,1,1v13C16,15.6,15.6,16,15,16z M2.5,14.5h12v-12
	h-12V14.5z"/>
<rect id="rect12" x="5" y="5" class="st2" width="2" height="2"/>
<rect id="rect16" x="5" y="10" class="st2" width="2" height="2"/>
<rect id="rect20" x="10" y="5" class="st2" width="2" height="2"/>
<rect id="rect24" x="10" y="10" class="st2" width="2" height="2"/>
<path class="st3" d="M12,13h-2c-0.6,0-1-0.5-1-1v-2c0-0.6,0.5-1,1-1h2c0.6,0,1,0.5,1,1v2C13,12.6,12.6,13,12,13z M10,12h2v-2h-2V12z
	"/>
<path class="st3" d="M12,8h-2C9.4,8,9,7.6,9,7V5c0-0.6,0.5-1,1-1h2c0.6,0,1,0.5,1,1v2C13,7.6,12.6,8,12,8z M10,7h2V5h-2V7z"/>
<path class="st3" d="M7,13H5c-0.6,0-1-0.5-1-1v-2c0-0.6,0.5-1,1-1h2c0.6,0,1,0.5,1,1v2C8,12.6,7.6,13,7,13z M5,12h2v-2H5V12z"/>
<path class="st3" d="M7,8H5C4.4,8,4,7.6,4,7V5c0-0.6,0.5-1,1-1h2c0.6,0,1,0.5,1,1v2C8,7.6,7.6,8,7,8z M5,7h2V5H5V7z"/>
</svg>
