<?xml version="1.0" encoding="utf-8"?>
<!-- Generator: Adobe Illustrator 10.0, SVG Export Plug-In . SVG Version: 3.0.0 Build 76)  -->
<!DOCTYPE svg PUBLIC "-//W3C//DTD SVG 1.0//EN"    "http://www.w3.org/TR/2001/REC-SVG-20010904/DTD/svg10.dtd" [
	<!ENTITY ns_flows "http://ns.adobe.com/Flows/1.0/">
	<!ENTITY ns_extend "http://ns.adobe.com/Extensibility/1.0/">
	<!ENTITY ns_ai "http://ns.adobe.com/AdobeIllustrator/10.0/">
	<!ENTITY ns_graphs "http://ns.adobe.com/Graphs/1.0/">
	<!ENTITY ns_vars "http://ns.adobe.com/Variables/1.0/">
	<!ENTITY ns_imrep "http://ns.adobe.com/ImageReplacement/1.0/">
	<!ENTITY ns_sfw "http://ns.adobe.com/SaveForWeb/1.0/">
	<!ENTITY ns_custom "http://ns.adobe.com/GenericCustomNamespace/1.0/">
	<!ENTITY ns_adobe_xpath "http://ns.adobe.com/XPath/1.0/">
	<!ENTITY ns_svg "http://www.w3.org/2000/svg">
	<!ENTITY ns_xlink "http://www.w3.org/1999/xlink">
]>
<svg 
	 xmlns:x="&ns_extend;" xmlns:i="&ns_ai;" xmlns:graph="&ns_graphs;" i:viewOrigin="388.9541 308.9209" i:rulerOrigin="0 0" i:pageBounds="0 600 800 0"
	 xmlns="&ns_svg;" xmlns:xlink="&ns_xlink;" xmlns:a="http://ns.adobe.com/AdobeSVGViewerExtensions/3.0/" width="24" height="19"
	 viewBox="0 0 24 19" overflow="visible" enable-background="new 0 0 24 19" xml:space="preserve">
	<metadata>
		<variableSets  xmlns="&ns_vars;">
			<variableSet  varSetName="binding1" locked="none">
				<variables></variables>
				<v:sampleDataSets  xmlns="&ns_custom;" xmlns:v="&ns_vars;"></v:sampleDataSets>
			</variableSet>
		</variableSets>
		<sfw  xmlns="&ns_sfw;">
			<slices></slices>
			<sliceSourceBounds  y="289.921" x="388.954" width="24" height="19" bottomLeftOrigin="true"></sliceSourceBounds>
		</sfw>
	</metadata>
	<g id="Layer_1" i:layer="yes" i:dimmedPercent="50" i:rgbTrio="#4F008000FFFF">
		<path i:knockout="Off" fill="none" d="M24,19H0V0h24V19z"/>
		<path i:knockout="Off" fill="#FFFFFF" stroke="#FFFFFF" stroke-width="2" stroke-linecap="round" stroke-linejoin="round" d="
			M20,15.456c0,1.1-0.899,2-2,2H6c-1.1,0-2-0.9-2-2v-12c0-1.1,0.9-2,2-2h12c1.101,0,2,0.9,2,2V15.456z"/>
		<path i:knockout="Off" fill="#E6E6E6" stroke="#404040" stroke-width="0.8" stroke-linecap="round" stroke-linejoin="round" d="
			M8.546,6.502h-2v-2h2V6.502z"/>
		<path i:knockout="Off" fill="#E6E6E6" stroke="#404040" stroke-width="0.8" stroke-linecap="round" stroke-linejoin="round" d="
			M8.546,10.502h-2v-2h2V10.502z"/>
		<path i:knockout="Off" fill="#E6E6E6" stroke="#404040" stroke-width="0.8" stroke-linecap="round" stroke-linejoin="round" d="
			M8.546,14.502h-2v-2h2V14.502z"/>
		<path i:knockout="Off" fill="#E6E6E6" stroke="#404040" stroke-width="0.8" stroke-linecap="round" stroke-linejoin="round" d="
			M17.546,6.502h-2v-2h2V6.502z"/>
		<path i:knockout="Off" fill="#E6E6E6" stroke="#404040" stroke-width="0.8" stroke-linecap="round" stroke-linejoin="round" d="
			M17.546,10.502h-2v-2h2V10.502z"/>
		<path i:knockout="Off" fill="#E6E6E6" stroke="#404040" stroke-width="0.8" stroke-linecap="round" stroke-linejoin="round" d="
			M17.546,14.502h-2v-2h2V14.502z"/>
		<path i:knockout="Off" fill="#E6E6E6" stroke="#404040" stroke-width="0.8" stroke-linecap="round" stroke-linejoin="round" d="
			M13.065,6.502h-2v-2h2V6.502z"/>
		<path i:knockout="Off" fill="#E6E6E6" stroke="#404040" stroke-width="0.8" stroke-linecap="round" stroke-linejoin="round" d="
			M13.065,10.502h-2v-2h2V10.502z"/>
		<path i:knockout="Off" fill="#E6E6E6" stroke="#404040" stroke-width="0.8" stroke-linecap="round" stroke-linejoin="round" d="
			M13.065,14.502h-2v-2h2V14.502z"/>
	</g>
</svg>
