<?xml version="1.0" encoding="UTF-8" standalone="no"?>
<!-- Generator: Adobe Illustrator 21.0.2, SVG Export Plug-In . SVG Version: 6.00 Build 0)  -->

<svg
   xmlns:dc="http://purl.org/dc/elements/1.1/"
   xmlns:cc="http://creativecommons.org/ns#"
   xmlns:rdf="http://www.w3.org/1999/02/22-rdf-syntax-ns#"
   xmlns:svg="http://www.w3.org/2000/svg"
   xmlns="http://www.w3.org/2000/svg"
   xmlns:sodipodi="http://sodipodi.sourceforge.net/DTD/sodipodi-0.dtd"
   xmlns:inkscape="http://www.inkscape.org/namespaces/inkscape"
   version="1.1"
   id="svg2"
   inkscape:version="0.92.4 (5da689c313, 2019-01-14)"
   sodipodi:docname="xdts.svg"
   x="0px"
   y="0px"
   viewBox="0 0 61 61"
   style="enable-background:new 0 0 61 61;"
   xml:space="preserve"><metadata
   id="metadata18"><rdf:RDF><cc:Work
       rdf:about=""><dc:format>image/svg+xml</dc:format><dc:type
         rdf:resource="http://purl.org/dc/dcmitype/StillImage" /></cc:Work></rdf:RDF></metadata><defs
   id="defs16" /><sodipodi:namedview
   pagecolor="#ffffff"
   bordercolor="#666666"
   borderopacity="1"
   objecttolerance="10"
   gridtolerance="10"
   guidetolerance="10"
   inkscape:pageopacity="0"
   inkscape:pageshadow="2"
   inkscape:window-width="1287"
   inkscape:window-height="753"
   id="namedview14"
   showgrid="false"
   inkscape:zoom="4.5409836"
   inkscape:cx="30.5"
   inkscape:cy="30.5"
   inkscape:window-x="283"
   inkscape:window-y="413"
   inkscape:window-maximized="0"
   inkscape:current-layer="svg2" />
<style
   type="text/css"
   id="style2">
	.st0{fill:#EBEBEB;}
	.st1{fill:#404040;}
	.st2{fill:#484848;}
</style>
<g
   id="g4">
	<rect
   id="rect6"
   x="0.5"
   y="0.5"
   class="st0"
   width="60"
   height="60"
   style="fill:#ebebeb" />
	<path
   id="path8"
   inkscape:connector-curvature="0"
   class="st1"
   d="M 61,61 H 0 V 0 H 61 Z M 1,1 V 60 H 60 V 1 C 60,1 1,1 1,1 Z"
   style="fill:#404040" />
</g>



<g
   aria-label="XDTS"
   style="font-style:normal;font-variant:normal;font-weight:bold;font-stretch:normal;font-size:16.45611954px;line-height:1.25;font-family:Tahoma;-inkscape-font-specification:'Tahoma, Bold';font-variant-ligatures:normal;font-variant-caps:normal;font-variant-numeric:normal;font-feature-settings:normal;text-align:start;letter-spacing:0px;word-spacing:0px;writing-mode:lr-tb;text-anchor:start;fill:#484848;fill-opacity:1;stroke:none;stroke-width:0.41140226"
   id="text4531"><path
     d="M 19.925656,52.10165 H 16.438373 L 14.140302,48.284923 11.794019,52.10165 H 8.4674402 L 12.348449,46.075239 8.6201093,40.137216 h 3.4792477 l 2.153438,3.607811 2.209684,-3.607811 h 3.334614 l -3.752445,5.817495 z"
     style="font-style:normal;font-variant:normal;font-weight:bold;font-stretch:normal;font-size:16.45611954px;font-family:Tahoma;-inkscape-font-specification:'Tahoma, Bold';font-variant-ligatures:normal;font-variant-caps:normal;font-variant-numeric:normal;font-feature-settings:normal;text-align:start;writing-mode:lr-tb;text-anchor:start;fill:#484848;fill-opacity:1;stroke-width:0.41140226"
     id="path4778" /><path
     d="m 31.769563,46.131486 q 0,1.671324 -0.731205,2.997135 -0.731204,1.317775 -1.848099,2.024874 -0.932085,0.602641 -2.032909,0.779416 -1.092789,0.168739 -2.330212,0.168739 h -3.74441 V 40.137216 h 3.712269 q 1.261528,0 2.362353,0.160704 1.100824,0.160704 2.06505,0.779416 1.181176,0.75531 1.86417,2.040944 0.682993,1.277599 0.682993,3.013206 z m -3.085522,-0.02411 q 0,-1.181176 -0.409796,-2.016839 -0.401761,-0.843697 -1.245459,-1.317775 -0.610676,-0.337479 -1.285634,-0.36962 -0.666923,-0.03214 -1.599008,-0.03214 h -0.05625 v 7.48882 h 0.05625 q 1.012437,0 1.703466,-0.03214 0.699063,-0.04018 1.32581,-0.433902 0.73924,-0.466043 1.12493,-1.285634 0.385691,-0.819592 0.385691,-2.000769 z"
     style="font-style:normal;font-variant:normal;font-weight:bold;font-stretch:normal;font-size:16.45611954px;font-family:Tahoma;-inkscape-font-specification:'Tahoma, Bold';font-variant-ligatures:normal;font-variant-caps:normal;font-variant-numeric:normal;font-feature-settings:normal;text-align:start;writing-mode:lr-tb;text-anchor:start;fill:#484848;fill-opacity:1;stroke-width:0.41140226"
     id="path4780" /><path
     d="m 35.851452,52.10165 v -9.682433 h -3.535495 v -2.282001 h 10.076159 v 2.282001 h -3.535494 v 9.682433 z"
     style="font-style:normal;font-variant:normal;font-weight:bold;font-stretch:normal;font-size:16.45611954px;font-family:Tahoma;-inkscape-font-specification:'Tahoma, Bold';font-variant-ligatures:normal;font-variant-caps:normal;font-variant-numeric:normal;font-feature-settings:normal;text-align:start;writing-mode:lr-tb;text-anchor:start;fill:#484848;fill-opacity:1;stroke-width:0.41140226"
     id="path4782" /><path
     d="m 47.341811,52.318601 q -1.374022,0 -2.4186,-0.265162 -1.036543,-0.265162 -1.928452,-0.658888 v -2.844466 h 0.273198 q 0.899944,0.763346 1.984698,1.173142 1.084754,0.409796 2.105226,0.409796 0.257127,0 0.674958,-0.05625 0.425866,-0.05625 0.682993,-0.176775 0.313374,-0.136598 0.530324,-0.377655 0.216951,-0.249091 0.216951,-0.650852 0,-0.449972 -0.353549,-0.731205 -0.35355,-0.281232 -0.843698,-0.409796 -0.610676,-0.160704 -1.30974,-0.305338 -0.691028,-0.144634 -1.293669,-0.353549 -1.390092,-0.490148 -1.992733,-1.317775 -0.602642,-0.827627 -0.602642,-2.073086 0,-1.67936 1.422233,-2.715902 1.422233,-1.044578 3.551565,-1.044578 1.068684,0 2.121297,0.216951 1.060648,0.21695 1.896311,0.58657 v 2.731973 h -0.265163 q -0.666922,-0.5705 -1.631148,-0.964225 -0.956191,-0.393726 -1.968628,-0.393726 -0.393725,0 -0.707099,0.05625 -0.313373,0.05625 -0.658887,0.21695 -0.281233,0.128564 -0.490148,0.385691 -0.200881,0.249091 -0.200881,0.562465 0,0.458007 0.321409,0.731204 0.329444,0.265162 1.261529,0.482113 0.602641,0.136599 1.157071,0.265162 0.562465,0.128564 1.197247,0.35355 1.245458,0.449972 1.848099,1.213317 0.610676,0.75531 0.610676,2.000768 0,1.783818 -1.406162,2.868572 -1.398128,1.084754 -3.784586,1.084754 z"
     style="font-style:normal;font-variant:normal;font-weight:bold;font-stretch:normal;font-size:16.45611954px;font-family:Tahoma;-inkscape-font-specification:'Tahoma, Bold';font-variant-ligatures:normal;font-variant-caps:normal;font-variant-numeric:normal;font-feature-settings:normal;text-align:start;writing-mode:lr-tb;text-anchor:start;fill:#484848;fill-opacity:1;stroke-width:0.41140226"
     id="path4784" /></g><rect
   style="fill:none;fill-opacity:1;stroke:#484848;stroke-width:1;stroke-miterlimit:1.5;stroke-dasharray:none;stroke-opacity:1"
   id="rect4533"
   width="40"
   height="25"
   x="10.5"
   y="8.5" /><path
   style="fill:none;stroke:#484848;stroke-width:0.5;stroke-linecap:butt;stroke-linejoin:miter;stroke-miterlimit:4;stroke-dasharray:none;stroke-opacity:1"
   d="m 10.5,12.5 c 40,0 40,0 40,0"
   id="path4535"
   inkscape:connector-curvature="0" /><path
   style="fill:none;stroke:#484848;stroke-width:0.5;stroke-linecap:butt;stroke-linejoin:miter;stroke-miterlimit:4;stroke-dasharray:none;stroke-opacity:1"
   d="m 10.5,15.484101 c 40,0 40,0 40,0"
   id="path4535-4"
   inkscape:connector-curvature="0" /><path
   style="fill:none;stroke:#484848;stroke-width:0.5;stroke-linecap:butt;stroke-linejoin:miter;stroke-miterlimit:4;stroke-dasharray:none;stroke-opacity:1"
   d="m 10.5,18.49046 c 35,0 35,0 35,0"
   id="path4535-3"
   inkscape:connector-curvature="0" /><path
   style="fill:none;stroke:#484848;stroke-width:0.5;stroke-linecap:butt;stroke-linejoin:miter;stroke-miterlimit:4;stroke-dasharray:none;stroke-opacity:1"
   d="m 10.5,21.49682 c 35,0 35,0 35,0"
   id="path4535-4-3"
   inkscape:connector-curvature="0" /><path
   style="fill:none;stroke:#484848;stroke-width:0.5;stroke-linecap:butt;stroke-linejoin:miter;stroke-miterlimit:4;stroke-dasharray:none;stroke-opacity:1"
   d="m 10.5,24.50318 c 35,0 35,0 35,0"
   id="path4535-4-9"
   inkscape:connector-curvature="0" /><path
   style="fill:none;stroke:#484848;stroke-width:0.5;stroke-linecap:butt;stroke-linejoin:miter;stroke-miterlimit:4;stroke-dasharray:none;stroke-opacity:1"
   d="m 10.5,27.50954 c 35,0 35,0 35,0"
   id="path4535-3-1"
   inkscape:connector-curvature="0" /><path
   style="fill:none;stroke:#484848;stroke-width:0.5;stroke-linecap:butt;stroke-linejoin:miter;stroke-miterlimit:4;stroke-dasharray:none;stroke-opacity:1"
   d="m 10.5,30.515899 c 35,0 35,0 35,0"
   id="path4535-4-3-1"
   inkscape:connector-curvature="0" /><path
   style="fill:none;stroke:#484848;stroke-width:0.5;stroke-linecap:butt;stroke-linejoin:miter;stroke-miterlimit:4;stroke-dasharray:none;stroke-opacity:1"
   d="m 31.25,33.5 c 0,-21 0,-21 0,-21"
   id="path4535-9"
   inkscape:connector-curvature="0" /><path
   style="fill:none;stroke:#484848;stroke-width:0.5;stroke-linecap:butt;stroke-linejoin:miter;stroke-miterlimit:4;stroke-dasharray:none;stroke-opacity:1"
   d="m 17.25,33.5 c 0,-21 0,-21 0,-21"
   id="path4535-9-1"
   inkscape:connector-curvature="0" /><path
   style="opacity:1;vector-effect:none;fill:none;fill-opacity:1;stroke:#484848;stroke-width:0.5;stroke-linecap:butt;stroke-linejoin:miter;stroke-miterlimit:4;stroke-dasharray:none;stroke-dashoffset:0;stroke-opacity:1"
   d="m 38.25,33.5 c 0,-21 0,-21 0,-21"
   id="path4535-9-9"
   inkscape:connector-curvature="0" /><path
   style="fill:none;stroke:#484848;stroke-width:0.5;stroke-linecap:butt;stroke-linejoin:miter;stroke-miterlimit:4;stroke-dasharray:none;stroke-opacity:1"
   d="m 24.25,33.5 c 0,-21 0,-21 0,-21"
   id="path4535-9-1-4"
   inkscape:connector-curvature="0" /><path
   style="opacity:1;vector-effect:none;fill:none;fill-opacity:1;stroke:#484848;stroke-width:0.5;stroke-linecap:butt;stroke-linejoin:miter;stroke-miterlimit:4;stroke-dasharray:none;stroke-dashoffset:0;stroke-opacity:1"
   d="m 45.25,33.5 c 0,-21 0,-21 0,-21"
   id="path4535-9-9-5"
   inkscape:connector-curvature="0" /><g
   aria-label="A"
   style="font-style:normal;font-variant:normal;font-weight:normal;font-stretch:normal;font-size:2.66666675px;line-height:1.25;font-family:sans-serif;-inkscape-font-specification:'sans-serif, Normal';font-variant-ligatures:normal;font-variant-caps:normal;font-variant-numeric:normal;font-feature-settings:normal;text-align:start;letter-spacing:0px;word-spacing:0px;writing-mode:lr-tb;text-anchor:start;fill:#484848;fill-opacity:1;stroke:none"
   id="text4670"><path
     d="m 14.755209,15 h -0.27474 L 14.290365,14.459635 H 13.451824 L 13.261719,15 h -0.261718 l 0.705729,-1.938802 h 0.34375 z m -0.544271,-0.761719 -0.339844,-0.951823 -0.341145,0.951823 z"
     style=""
     id="path4775" /></g><g
   aria-label="B"
   style="font-style:normal;font-variant:normal;font-weight:normal;font-stretch:normal;font-size:2.66666675px;line-height:1.25;font-family:sans-serif;-inkscape-font-specification:'sans-serif, Normal';font-variant-ligatures:normal;font-variant-caps:normal;font-variant-numeric:normal;font-feature-settings:normal;text-align:start;letter-spacing:0px;word-spacing:0px;writing-mode:lr-tb;text-anchor:start;fill:#484848;fill-opacity:1;stroke:none"
   id="text4670-1"><path
     d="m 21.488802,14.403646 q 0,0.144531 -0.05469,0.255208 -0.05469,0.110677 -0.147136,0.182292 -0.109375,0.08594 -0.240885,0.122396 Q 20.915885,15 20.714062,15 h -0.6875 v -1.938802 h 0.574219 q 0.21224,0 0.317708,0.01563 0.105469,0.01563 0.201823,0.0651 0.106771,0.05599 0.154948,0.144531 0.04818,0.08724 0.04818,0.209636 0,0.138021 -0.07031,0.235677 -0.07031,0.09635 -0.1875,0.154948 v 0.01042 q 0.196615,0.04036 0.309896,0.173177 0.113281,0.131511 0.113281,0.333334 z m -0.433594,-0.873698 q 0,-0.07031 -0.02344,-0.11849 -0.02344,-0.04818 -0.07552,-0.07813 -0.0612,-0.03516 -0.148438,-0.04297 -0.08724,-0.0091 -0.216145,-0.0091 h -0.307292 v 0.559896 h 0.333333 q 0.121094,0 0.192709,-0.01172 0.07161,-0.01302 0.132812,-0.05208 0.0612,-0.03906 0.08594,-0.100261 0.02604,-0.0625 0.02604,-0.147135 z m 0.165365,0.884114 q 0,-0.117187 -0.03516,-0.186197 -0.03516,-0.06901 -0.127605,-0.117188 -0.0625,-0.03255 -0.152343,-0.04167 -0.08854,-0.01042 -0.216146,-0.01042 h -0.404948 v 0.721354 h 0.341146 q 0.169271,0 0.277343,-0.01693 0.108073,-0.01823 0.177084,-0.0651 0.07292,-0.05078 0.106771,-0.115886 0.03385,-0.0651 0.03385,-0.167969 z"
     style=""
     id="path4772" /></g><g
   aria-label="C"
   style="font-style:normal;font-variant:normal;font-weight:normal;font-stretch:normal;font-size:2.66666675px;line-height:1.25;font-family:sans-serif;-inkscape-font-specification:'sans-serif, Normal';font-variant-ligatures:normal;font-variant-caps:normal;font-variant-numeric:normal;font-feature-settings:normal;text-align:start;letter-spacing:0px;word-spacing:0px;writing-mode:lr-tb;text-anchor:start;fill:#484848;fill-opacity:1;stroke:none"
   id="text4670-0"><path
     d="m 28.523958,14.859375 q -0.07161,0.03125 -0.130208,0.05859 -0.05729,0.02734 -0.151042,0.05729 -0.07943,0.02474 -0.173177,0.04167 -0.09245,0.01823 -0.204427,0.01823 -0.210937,0 -0.384115,-0.05859 -0.171875,-0.05989 -0.299479,-0.186197 -0.125,-0.123698 -0.195312,-0.313803 -0.07031,-0.191406 -0.07031,-0.44401 0,-0.239583 0.06771,-0.428385 0.06771,-0.188802 0.195312,-0.319011 0.123698,-0.126302 0.298177,-0.192708 0.175781,-0.06641 0.389323,-0.06641 0.15625,0 0.311198,0.03776 0.15625,0.03776 0.346354,0.132813 v 0.305989 h -0.01953 q -0.160156,-0.134114 -0.317708,-0.195312 -0.157552,-0.0612 -0.33724,-0.0612 -0.147135,0 -0.265625,0.04818 -0.117187,0.04687 -0.209635,0.147135 -0.08984,0.09766 -0.140625,0.247396 -0.04948,0.148438 -0.04948,0.34375 0,0.204427 0.05469,0.351563 0.05599,0.147135 0.143229,0.239583 0.09115,0.09635 0.21224,0.143229 0.122396,0.04557 0.257812,0.04557 0.186198,0 0.348959,-0.0638 0.16276,-0.0638 0.304687,-0.191406 h 0.01823 z"
     style=""
     id="path4769" /></g><g
   aria-label="D"
   style="font-style:normal;font-variant:normal;font-weight:normal;font-stretch:normal;font-size:2.66666675px;line-height:1.25;font-family:sans-serif;-inkscape-font-specification:'sans-serif, Normal';font-variant-ligatures:normal;font-variant-caps:normal;font-variant-numeric:normal;font-feature-settings:normal;text-align:start;letter-spacing:0px;word-spacing:0px;writing-mode:lr-tb;text-anchor:start;fill:#484848;fill-opacity:1;stroke:none"
   id="text4670-1-0"><path
     d="m 35.664585,14.032552 q 0,0.264323 -0.115885,0.479167 -0.114584,0.214843 -0.30599,0.333333 -0.132812,0.08203 -0.296875,0.11849 Q 34.783075,15 34.516148,15 h -0.489584 v -1.938802 h 0.484375 q 0.283854,0 0.450521,0.04167 0.167969,0.04036 0.283854,0.111979 0.197917,0.123698 0.308594,0.329427 0.110677,0.205729 0.110677,0.488281 z m -0.269531,-0.0039 q 0,-0.227865 -0.07943,-0.384115 -0.07943,-0.15625 -0.236979,-0.246094 -0.114584,-0.0651 -0.24349,-0.08984 -0.128906,-0.02604 -0.308594,-0.02604 h -0.242187 v 1.496094 h 0.242187 q 0.186198,0 0.324219,-0.02734 0.139323,-0.02734 0.255208,-0.101562 0.144532,-0.09245 0.216146,-0.24349 0.07292,-0.151042 0.07292,-0.377604 z"
     style=""
     id="path4766" /></g><g
   aria-label="E"
   style="font-style:normal;font-variant:normal;font-weight:normal;font-stretch:normal;font-size:2.66666675px;line-height:1.25;font-family:sans-serif;-inkscape-font-specification:'sans-serif, Normal';font-variant-ligatures:normal;font-variant-caps:normal;font-variant-numeric:normal;font-feature-settings:normal;text-align:start;letter-spacing:0px;word-spacing:0px;writing-mode:lr-tb;text-anchor:start;fill:#484848;fill-opacity:1;stroke:none"
   id="text4670-1-0-2"><path
     d="m 42.303908,15 h -1.277344 v -1.938802 h 1.277344 v 0.229167 h -1.019531 v 0.53125 h 1.019531 v 0.229166 h -1.019531 v 0.720052 h 1.019531 z"
     style=""
     id="path4763" /></g><g
   aria-label="Action"
   style="font-style:normal;font-variant:normal;font-weight:normal;font-stretch:normal;font-size:2.66666675px;line-height:1.25;font-family:sans-serif;-inkscape-font-specification:'sans-serif, Normal';font-variant-ligatures:normal;font-variant-caps:normal;font-variant-numeric:normal;font-feature-settings:normal;text-align:start;letter-spacing:0px;word-spacing:0px;writing-mode:lr-tb;text-anchor:start;fill:#484848;fill-opacity:1;stroke:none"
   id="text4670-10"><path
     d="m 28.233725,11.649905 h -0.27474 l -0.190104,-0.540364 h -0.838542 l -0.190104,0.540364 h -0.261719 l 0.705729,-1.9388019 h 0.34375 z M 27.689454,10.888186 27.34961,9.9363635 27.008464,10.888186 Z"
     style=""
     id="path4750" /><path
     d="m 29.583985,11.558759 q -0.122396,0.05859 -0.233073,0.09115 -0.109375,0.03255 -0.233073,0.03255 -0.157552,0 -0.289062,-0.04557 -0.131511,-0.04687 -0.225261,-0.140625 -0.09505,-0.09375 -0.147135,-0.236979 -0.05208,-0.143229 -0.05208,-0.334635 0,-0.356771 0.195312,-0.559896 0.196615,-0.203125 0.518229,-0.203125 0.125,0 0.244792,0.03516 0.121094,0.03516 0.221354,0.08594 v 0.272135 h -0.01302 q -0.111979,-0.08724 -0.231771,-0.134114 -0.118489,-0.04687 -0.23177,-0.04687 -0.208334,0 -0.329427,0.140625 -0.119792,0.139322 -0.119792,0.410156 0,0.263021 0.117187,0.404948 0.11849,0.140625 0.332032,0.140625 0.07422,0 0.151041,-0.01953 0.07682,-0.01953 0.138021,-0.05078 0.05339,-0.02734 0.100261,-0.05729 0.04687,-0.03125 0.07422,-0.05339 h 0.01302 z"
     style=""
     id="path4752" /><path
     d="m 30.654298,11.636884 q -0.06901,0.01823 -0.151042,0.02995 -0.08073,0.01172 -0.144531,0.01172 -0.222657,0 -0.338542,-0.119792 -0.115885,-0.119791 -0.115885,-0.384114 v -0.773438 h -0.165365 v -0.205729 h 0.165365 V 9.7775093 h 0.244791 v 0.4179687 h 0.505209 v 0.205729 h -0.505209 v 0.662761 q 0,0.114583 0.0052,0.179687 0.0052,0.0638 0.03646,0.119792 0.02865,0.05208 0.07813,0.07682 0.05078,0.02344 0.153646,0.02344 0.0599,0 0.125,-0.01693 0.0651,-0.01823 0.09375,-0.02995 h 0.01302 z"
     style=""
     id="path4754" /><path
     d="M 31.214193,9.9519885 H 30.938152 V 9.6980822 h 0.276041 z m -0.01563,1.6979165 h -0.244791 v -1.454427 h 0.244791 z"
     style=""
     id="path4756" /><path
     d="m 32.925131,10.923343 q 0,0.355468 -0.182292,0.561198 -0.182291,0.205729 -0.488281,0.205729 -0.308594,0 -0.490885,-0.205729 -0.18099,-0.20573 -0.18099,-0.561198 0,-0.355469 0.18099,-0.561198 0.182291,-0.207032 0.490885,-0.207032 0.30599,0 0.488281,0.207032 0.182292,0.205729 0.182292,0.561198 z m -0.252604,0 q 0,-0.282552 -0.110677,-0.419271 -0.110677,-0.138021 -0.307292,-0.138021 -0.199219,0 -0.309896,0.138021 -0.109375,0.136719 -0.109375,0.419271 0,0.273437 0.110677,0.415364 0.110677,0.140625 0.308594,0.140625 0.195312,0 0.30599,-0.139323 0.111979,-0.140625 0.111979,-0.416666 z"
     style=""
     id="path4758" /><path
     d="M 34.521485,11.649905 H 34.276694 V 10.82178 q 0,-0.10026 -0.01172,-0.1875 -0.01172,-0.08854 -0.04297,-0.138021 -0.03255,-0.05469 -0.09375,-0.08073 -0.0612,-0.02734 -0.158854,-0.02734 -0.10026,0 -0.209635,0.04948 -0.109375,0.04948 -0.209636,0.126302 v 1.085937 H 33.30534 v -1.454427 h 0.244791 v 0.161458 q 0.114584,-0.09505 0.236979,-0.148437 0.122396,-0.05339 0.251302,-0.05339 0.235678,0 0.359375,0.141928 0.123698,0.141927 0.123698,0.408854 z"
     style=""
     id="path4760" /></g></svg>