<?xml version="1.0" encoding="UTF-8" standalone="no"?>
<svg
   xmlns:dc="http://purl.org/dc/elements/1.1/"
   xmlns:cc="http://creativecommons.org/ns#"
   xmlns:rdf="http://www.w3.org/1999/02/22-rdf-syntax-ns#"
   xmlns:svg="http://www.w3.org/2000/svg"
   xmlns="http://www.w3.org/2000/svg"
   xmlns:sodipodi="http://sodipodi.sourceforge.net/DTD/sodipodi-0.dtd"
   xmlns:inkscape="http://www.inkscape.org/namespaces/inkscape"
   enable-background="new 0 0 20 20"
   version="1.1"
   viewBox="0 0 17 17"
   xml:space="preserve"
   id="svg18"
   sodipodi:docname="zoomout.svg"
   width="17"
   height="17"
   inkscape:version="0.92.4 (5da689c313, 2019-01-14)"><metadata
   id="metadata24"><rdf:RDF><cc:Work
       rdf:about=""><dc:format>image/svg+xml</dc:format><dc:type
         rdf:resource="http://purl.org/dc/dcmitype/StillImage" /><dc:title></dc:title></cc:Work></rdf:RDF></metadata><defs
   id="defs22" /><sodipodi:namedview
   pagecolor="#ffffff"
   bordercolor="#666666"
   borderopacity="1"
   objecttolerance="10"
   gridtolerance="10"
   guidetolerance="10"
   inkscape:pageopacity="0"
   inkscape:pageshadow="2"
   inkscape:window-width="640"
   inkscape:window-height="480"
   id="namedview20"
   showgrid="false"
   inkscape:zoom="16.882353"
   inkscape:cx="8.5"
   inkscape:cy="8.5"
   inkscape:window-x="0"
   inkscape:window-y="0"
   inkscape:window-maximized="0"
   inkscape:current-layer="svg18" />
<style
   type="text/css"
   id="style2">
	.st0{fill:none;stroke:#2C2C2C;stroke-width:2;stroke-linejoin:round;stroke-miterlimit:1.4142;stroke-opacity:0.7647;}
	.st1{fill:#E6E6E6;}
</style><g
   style="enable-background:new"
   id="g14"
   transform="translate(-2.01,-622.11155)"><g
     style="shape-rendering:auto;enable-background:new"
     id="g12"
     transform="translate(-252.03,801)"><path
       inkscape:connector-curvature="0"
       id="path8"
       style="color:#000000;font-variant-ligatures:normal;font-variant-position:normal;font-variant-caps:normal;font-variant-numeric:normal;font-variant-alternates:normal;font-feature-settings:normal;text-indent:0;text-decoration:none;text-decoration-line:none;text-decoration-style:solid;text-decoration-color:#000000;text-transform:none;text-orientation:mixed;dominant-baseline:auto;white-space:normal;shape-padding:0;isolation:auto;mix-blend-mode:normal;solid-color:#000000;fill:none;stroke:#2b2b2b;stroke-width:2.20000005;stroke-linecap:round;stroke-opacity:0.76471001;color-rendering:auto;image-rendering:auto;enable-background:accumulate"
       dominant-baseline="auto"
       d="m 277.51,-174.75 c -2.8847,0 -5.25,2.3653 -5.25,5.25 0,2.8847 2.3653,5.25 5.25,5.25 1.1725,0 2.2481,-0.40491 3.125,-1.0625 l 3.0938,3.0938 a 0.75130096,0.75130096 0 1 0 1.0625,-1.0625 l -3.0938,-3.0938 c 0.65758,-0.87694 1.0625,-1.9525 1.0625,-3.125 0,-2.8847 -2.3653,-5.25 -5.25,-5.25 z m -0.006,1.25 a 3.9975,3.9975 0 0 1 3.998,3.998 3.9975,3.9975 0 0 1 -0.69922,2.2578 3.9975,3.9975 0 0 1 -0.24219,0.31641 4,4 0 0 1 -0.25976,0.28125 3.9975,3.9975 0 0 1 -0.0117,0.0117 4,4 0 0 1 -0.10547,0.0937 3.9975,3.9975 0 0 1 -0.19531,0.16993 3.9975,3.9975 0 0 1 -2.4844,0.86523 3.9975,3.9975 0 0 1 -3.998,-3.9961 3.9975,3.9975 0 0 1 3.9982,-3.998 z m -1.75,3.5 c -0.554,0 -0.74414,0.223 -0.74414,0.5 0,0.277 0.19014,0.5 0.74414,0.5 h 3.5 c 0.554,0 0.75586,-0.223 0.75586,-0.5 0,-0.277 -0.20186,-0.5 -0.75586,-0.5 z"
       transform="translate(-16.005,-2)" /><path
       inkscape:connector-curvature="0"
       id="path10"
       style="color:#000000;font-variant-ligatures:normal;font-variant-position:normal;font-variant-caps:normal;font-variant-numeric:normal;font-variant-alternates:normal;font-feature-settings:normal;text-indent:0;text-decoration:none;text-decoration-line:none;text-decoration-style:solid;text-decoration-color:#000000;text-transform:none;text-orientation:mixed;dominant-baseline:auto;white-space:normal;shape-padding:0;isolation:auto;mix-blend-mode:normal;solid-color:#000000;fill:#e6e6e6;color-rendering:auto;image-rendering:auto;enable-background:accumulate"
       dominant-baseline="auto"
       d="m 277.51,-174.75 c -2.8847,0 -5.25,2.3653 -5.25,5.25 0,2.8847 2.3653,5.25 5.25,5.25 1.1725,0 2.2481,-0.40491 3.125,-1.0625 l 3.0938,3.0938 a 0.75130096,0.75130096 0 1 0 1.0625,-1.0625 l -3.0938,-3.0938 c 0.65758,-0.87694 1.0625,-1.9525 1.0625,-3.125 0,-2.8847 -2.3653,-5.25 -5.25,-5.25 z m -0.006,1.25 a 3.9975,3.9975 0 0 1 3.998,3.998 3.9975,3.9975 0 0 1 -0.69922,2.2578 3.9975,3.9975 0 0 1 -0.24219,0.31641 4,4 0 0 1 -0.25976,0.28125 3.9975,3.9975 0 0 1 -0.0117,0.0117 4,4 0 0 1 -0.10547,0.0937 3.9975,3.9975 0 0 1 -0.19531,0.16993 3.9975,3.9975 0 0 1 -2.4844,0.86523 3.9975,3.9975 0 0 1 -3.998,-3.9961 3.9975,3.9975 0 0 1 3.9982,-3.998 z m -1.75,3.5 c -0.554,0 -0.74414,0.223 -0.74414,0.5 0,0.277 0.19014,0.5 0.74414,0.5 h 3.5 c 0.554,0 0.75586,-0.223 0.75586,-0.5 0,-0.277 -0.20186,-0.5 -0.75586,-0.5 z"
       transform="translate(-16.005,-2)" /></g></g></svg>