<?xml version="1.0" encoding="UTF-8" standalone="no"?>
<svg
   xmlns:dc="http://purl.org/dc/elements/1.1/"
   xmlns:cc="http://creativecommons.org/ns#"
   xmlns:rdf="http://www.w3.org/1999/02/22-rdf-syntax-ns#"
   xmlns:svg="http://www.w3.org/2000/svg"
   xmlns="http://www.w3.org/2000/svg"
   xmlns:sodipodi="http://sodipodi.sourceforge.net/DTD/sodipodi-0.dtd"
   xmlns:inkscape="http://www.inkscape.org/namespaces/inkscape"
   enable-background="new 0 0 20 20"
   version="1.1"
   viewBox="0 0 17 17"
   xml:space="preserve"
   id="svg18"
   sodipodi:docname="zoomin.svg"
   width="17"
   height="17"
   inkscape:version="0.92.4 (5da689c313, 2019-01-14)"><metadata
   id="metadata24"><rdf:RDF><cc:Work
       rdf:about=""><dc:format>image/svg+xml</dc:format><dc:type
         rdf:resource="http://purl.org/dc/dcmitype/StillImage" /><dc:title></dc:title></cc:Work></rdf:RDF></metadata><defs
   id="defs22" /><sodipodi:namedview
   pagecolor="#ffffff"
   bordercolor="#666666"
   borderopacity="1"
   objecttolerance="10"
   gridtolerance="10"
   guidetolerance="10"
   inkscape:pageopacity="0"
   inkscape:pageshadow="2"
   inkscape:window-width="749"
   inkscape:window-height="480"
   id="namedview20"
   showgrid="true"
   inkscape:zoom="11.8"
   inkscape:cx="7.3020195"
   inkscape:cy="9.884322"
   inkscape:window-x="0"
   inkscape:window-y="0"
   inkscape:window-maximized="0"
   inkscape:current-layer="svg18"
   units="px"
   viewbox-height="17" />
<style
   type="text/css"
   id="style2">
	.st0{fill:none;stroke:#2C2C2C;stroke-width:2;stroke-linejoin:round;stroke-miterlimit:1.4142;stroke-opacity:0.7647;}
	.st1{fill:#E6E6E6;}
</style><g
   style="enable-background:new"
   id="g14"
   transform="translate(-2.0169492,-622.12203)"><g
     style="shape-rendering:auto"
     id="g12"
     transform="translate(-252.02,801.01)"><path
       inkscape:connector-curvature="0"
       id="path8"
       style="color:#000000;font-variant-ligatures:normal;font-variant-position:normal;font-variant-caps:normal;font-variant-numeric:normal;font-variant-alternates:normal;font-feature-settings:normal;text-indent:0;text-decoration:none;text-decoration-line:none;text-decoration-style:solid;text-decoration-color:#000000;text-transform:none;text-orientation:mixed;dominant-baseline:auto;white-space:normal;shape-padding:0;isolation:auto;mix-blend-mode:normal;solid-color:#000000;fill:none;stroke:#2b2b2b;stroke-width:2.20000005;stroke-linecap:round;stroke-opacity:0.76471001;color-rendering:auto;image-rendering:auto;enable-background:accumulate"
       dominant-baseline="auto"
       d="m 262.5,-174.75 c -2.8847,0 -5.25,2.3653 -5.25,5.25 0,2.8847 2.3653,5.25 5.25,5.25 1.1725,0 2.2481,-0.40491 3.125,-1.0625 l 3.0938,3.0938 c 0.70833,0.7085 1.7708,-0.354 1.0625,-1.0625 l -3.0938,-3.0938 c 0.65758,-0.87694 1.0625,-1.9525 1.0625,-3.125 0,-2.8847 -2.3653,-5.25 -5.25,-5.25 z m -0.006,1.25 c 2.2082,-3.1e-4 3.9984,1.7899 3.998,3.998 -1.6e-4,0.80588 -0.24388,1.5929 -0.69921,2.2578 -0.0754,0.10943 -0.15625,0.21503 -0.24219,0.31641 -0.0821,0.0978 -0.16874,0.1917 -0.25977,0.28125 l -0.0117,0.0117 c -0.0346,0.0319 -0.0698,0.0632 -0.10546,0.0937 -0.0633,0.0587 -0.1284,0.11541 -0.19532,0.16993 -0.70679,0.56045 -1.5823,0.86538 -2.4844,0.86523 -2.2074,3.1e-4 -3.9973,-1.7887 -3.998,-3.9961 -2.8e-4,-2.2082 1.7898,-3.9984 3.998,-3.998 z m 0,1.4922 a 0.50005,0.50005 0 0 0 -0.49205,0.50781 v 1.5 h -1.543 a 0.50005,0.50005 0 1 0 0,1 h 1.543 v 1.5 a 0.50005,0.50005 0 1 0 1,0 v -1.5 h 1.5859 a 0.50005,0.50005 0 1 0 0,-1 h -1.5859 v -1.5 a 0.50005,0.50005 0 0 0 -0.50781,-0.50781 z"
       transform="translate(-0.99781,-2)" /><path
       inkscape:connector-curvature="0"
       id="path10"
       style="color:#000000;font-variant-ligatures:normal;font-variant-position:normal;font-variant-caps:normal;font-variant-numeric:normal;font-variant-alternates:normal;font-feature-settings:normal;text-indent:0;text-decoration:none;text-decoration-line:none;text-decoration-style:solid;text-decoration-color:#000000;text-transform:none;text-orientation:mixed;dominant-baseline:auto;white-space:normal;shape-padding:0;isolation:auto;mix-blend-mode:normal;solid-color:#000000;fill:#e6e6e6;color-rendering:auto;image-rendering:auto;enable-background:accumulate"
       dominant-baseline="auto"
       d="m 262.5,-174.75 c -2.8847,0 -5.25,2.3653 -5.25,5.25 0,2.8847 2.3653,5.25 5.25,5.25 1.1725,0 2.2481,-0.40491 3.125,-1.0625 l 3.0938,3.0938 c 0.70833,0.7085 1.7708,-0.354 1.0625,-1.0625 l -3.0938,-3.0938 c 0.65758,-0.87694 1.0625,-1.9525 1.0625,-3.125 0,-2.8847 -2.3653,-5.25 -5.25,-5.25 z m -0.006,1.25 c 2.2082,-3.1e-4 3.9984,1.7899 3.998,3.998 -1.6e-4,0.80588 -0.24388,1.5929 -0.69921,2.2578 -0.0754,0.10943 -0.15625,0.21503 -0.24219,0.31641 -0.0821,0.0978 -0.16874,0.1917 -0.25977,0.28125 l -0.0117,0.0117 c -0.0346,0.0319 -0.0698,0.0632 -0.10546,0.0937 -0.0633,0.0587 -0.1284,0.11541 -0.19532,0.16993 -0.70679,0.56045 -1.5823,0.86538 -2.4844,0.86523 -2.2074,3.1e-4 -3.9973,-1.7887 -3.998,-3.9961 -2.8e-4,-2.2082 1.7898,-3.9984 3.998,-3.998 z m 0,1.4922 a 0.50005,0.50005 0 0 0 -0.49205,0.50781 v 1.5 h -1.543 a 0.50005,0.50005 0 1 0 0,1 h 1.543 v 1.5 a 0.50005,0.50005 0 1 0 1,0 v -1.5 h 1.5859 a 0.50005,0.50005 0 1 0 0,-1 h -1.5859 v -1.5 a 0.50005,0.50005 0 0 0 -0.50781,-0.50781 z"
       transform="translate(-0.99781,-2)" /></g></g></svg>