<?xml version="1.0" encoding="UTF-8" standalone="no"?>
<!DOCTYPE svg PUBLIC "-//W3C//DTD SVG 1.1//EN" "http://www.w3.org/Graphics/SVG/1.1/DTD/svg11.dtd">
<svg width="100%" height="100%" viewBox="0 0 24 24" version="1.1" xmlns="http://www.w3.org/2000/svg" xmlns:xlink="http://www.w3.org/1999/xlink" xml:space="preserve" xmlns:serif="http://www.serif.com/" style="fill-rule:evenodd;clip-rule:evenodd;stroke-linecap:round;stroke-linejoin:round;">
    <path d="M17,8L17,16C17,16.552 16.552,17 16,17L3,17C2.448,17 2,16.552 2,16L2,8C2,7.448 2.448,7 3,7L16,7C16.552,7 17,7.448 17,8Z" style="fill:none;stroke:white;stroke-width:2px;"/>
    <path d="M17,10L22,7L22,17L17,14" style="fill:none;fill-rule:nonzero;stroke:white;stroke-width:2px;"/>
    <g transform="matrix(1,0,0,1,-3,0)">
        <path d="M5,21L19,21" style="fill:none;fill-rule:nonzero;stroke:white;stroke-width:2px;"/>
    </g>
    <g transform="matrix(1,0,0,1,-3,0)">
        <path d="M12,17L12,21" style="fill:none;fill-rule:nonzero;stroke:white;stroke-width:2px;"/>
    </g>
</svg>
