<?xml version="1.0" encoding="UTF-8" standalone="no"?>
<!DOCTYPE svg PUBLIC "-//W3C//DTD SVG 1.1//EN" "http://www.w3.org/Graphics/SVG/1.1/DTD/svg11.dtd">
<svg width="100%" height="100%" viewBox="0 0 24 24" version="1.1" xmlns="http://www.w3.org/2000/svg" xmlns:xlink="http://www.w3.org/1999/xlink" xml:space="preserve" xmlns:serif="http://www.serif.com/" style="fill-rule:evenodd;clip-rule:evenodd;stroke-linecap:round;stroke-linejoin:round;">
    <g transform="matrix(1,0,0,1.75,-3,-9)">
        <path d="M8,8.571L8,15.429C8,15.744 7.552,16 7,16L2,16C1.448,16 1,15.744 1,15.429L1,8.571C1,8.256 1.448,8 2,8L7,8C7.552,8 8,8.256 8,8.571Z" style="fill:none;stroke:white;stroke-width:1.4px;"/>
    </g>
    <g transform="matrix(1,0,0,1.75,3,-9)">
        <path d="M23,8.571L23,15.429C23,15.744 22.552,16 22,16L17,16C16.448,16 16,15.744 16,15.429L16,8.571C16,8.256 16.448,8 17,8L22,8C22.552,8 23,8.256 23,8.571Z" style="fill:none;stroke:white;stroke-width:1.4px;"/>
    </g>
    <g transform="matrix(1.666667,0,0,1,-7.333333,0)">
        <path d="M8,12L11,12" style="fill:none;fill-rule:nonzero;stroke:white;stroke-width:1.46px;"/>
    </g>
    <g transform="matrix(1,0,0,1,-1,0)">
        <path d="M10,10L12,12L10,14" style="fill:none;fill-rule:nonzero;stroke:white;stroke-width:2px;"/>
    </g>
    <g transform="matrix(2,0,0,1,-13,0)">
        <path d="M16,12L13,12" style="fill:none;fill-rule:nonzero;stroke:white;stroke-width:1.26px;"/>
    </g>
    <g transform="matrix(1,0,0,1,1,0)">
        <path d="M14,10L12,12L14,14" style="fill:none;fill-rule:nonzero;stroke:white;stroke-width:2px;"/>
    </g>
</svg>
