<?xml version="1.0" encoding="UTF-8" standalone="no"?>
<!DOCTYPE svg PUBLIC "-//W3C//DTD SVG 1.1//EN" "http://www.w3.org/Graphics/SVG/1.1/DTD/svg11.dtd">
<svg width="18px" height="18px" version="1.1" xmlns="http://www.w3.org/2000/svg" xmlns:xlink="http://www.w3.org/1999/xlink" xml:space="preserve" xmlns:serif="http://www.serif.com/" style="fill-rule:evenodd;clip-rule:evenodd;stroke-linecap:round;stroke-linejoin:round;stroke-miterlimit:1.5;">
    <g transform="matrix(0.818182,0,0,0.818182,-6.66134e-16,-6.66134e-16)">
        <rect x="0" y="0" width="22" height="22" style="fill-opacity:0;"/>
    </g>
    <g transform="matrix(1,0,0,1,-3,-1)">
        <path d="M9.5,6.5L17,6.5C17.133,6.5 17.26,6.553 17.354,6.646C17.447,6.74 17.5,6.867 17.5,7L17.5,9.5L4.5,9.5L4.5,5C4.5,4.867 4.553,4.74 4.646,4.646C4.74,4.553 4.867,4.5 5,4.5L9,4.5C9.133,4.5 9.26,4.553 9.354,4.646C9.447,4.74 9.5,4.867 9.5,5L9.5,6.5Z" style="fill:none;stroke:rgb(25,204,196);stroke-width:1px;"/>
    </g>
    <g transform="matrix(0.933333,0,0,1.25,-1.8,-7)">
        <path d="M16.929,17.6C17.52,17.6 18,17.242 18,16.8L18,10.4L3,10.4L3,16.8C3,17.242 3.48,17.6 4.071,17.6L16.929,17.6Z" style="fill:rgb(25,204,196);"/>
    </g>
    <g transform="matrix(1,0,0,1,-1,0)">
        <rect x="2.5" y="5" width="5" height="2.5" style="fill:rgb(25,204,196);"/>
    </g>
</svg>

