<?xml version="1.0" encoding="UTF-8" standalone="no"?>
<!DOCTYPE svg PUBLIC "-//W3C//DTD SVG 1.1//EN" "http://www.w3.org/Graphics/SVG/1.1/DTD/svg11.dtd">
<svg width="18px" height="18px" version="1.1" xmlns="http://www.w3.org/2000/svg" xmlns:xlink="http://www.w3.org/1999/xlink" xml:space="preserve" xmlns:serif="http://www.serif.com/" style="fill-rule:evenodd;clip-rule:evenodd;stroke-linejoin:round;stroke-miterlimit:2;">
    <g transform="matrix(1.125,0,0,1.125,0,0)">
        <rect x="0" y="0" width="16" height="16" style="fill-opacity:0;"/>
    </g>
    <path d="M3.516,4.98C4.886,3.17 7.057,2 9.5,2C13.639,2 17,5.361 17,9.5C17,13.639 13.639,17 9.5,17C5.874,17 2.846,14.422 2.15,11L3.689,11C4.356,13.587 6.706,15.5 9.5,15.5C12.811,15.5 15.5,12.811 15.5,9.5C15.5,6.189 12.811,3.5 9.5,3.5C7.471,3.5 5.675,4.51 4.589,6.054L6.536,8L2,8L2,3.464L3.516,4.98ZM9.5,10C9.224,10 9,9.776 9,9.5L9,6.5C9,6.224 9.224,6 9.5,6C9.776,6 10,6.224 10,6.5L10,9L12.5,9C12.776,9 13,9.224 13,9.5C13,9.776 12.776,10 12.5,10L9.5,10Z" style="fill:white;fill-opacity:0.7;"/>
</svg>

