<?xml version="1.0" encoding="UTF-8" standalone="no"?>
<!DOCTYPE svg PUBLIC "-//W3C//DTD SVG 1.1//EN" "http://www.w3.org/Graphics/SVG/1.1/DTD/svg11.dtd">
<svg width="18px" height="18px" version="1.1" xmlns="http://www.w3.org/2000/svg" xmlns:xlink="http://www.w3.org/1999/xlink" xml:space="preserve" xmlns:serif="http://www.serif.com/" style="fill-rule:evenodd;clip-rule:evenodd;stroke-linejoin:round;stroke-miterlimit:2;">
    <g transform="matrix(1.125,0,0,1.125,0,0)">
        <rect x="0" y="0" width="16" height="16" style="fill-opacity:0;"/>
    </g>
    <g transform="matrix(1,0,0,1,1,0)">
        <path d="M3,3C3,2.448 2.552,2 2,2C1.448,2 1,2.448 1,3L1,15C1,15.552 1.448,16 2,16C2.552,16 3,15.552 3,15L3,3Z" style="fill:white;fill-opacity:0.7;"/>
    </g>
    <g transform="matrix(1,0,0,0.785714,4,3.42857)">
        <path d="M3,3.273C3,2.57 2.552,2 2,2C1.448,2 1,2.57 1,3.273L1,14.727C1,15.43 1.448,16 2,16C2.552,16 3,15.43 3,14.727L3,3.273Z" style="fill:white;fill-opacity:0.7;"/>
    </g>
    <g transform="matrix(1,0,0,0.857143,7,2.28571)">
        <path d="M3,3.167C3,2.523 2.552,2 2,2C1.448,2 1,2.523 1,3.167L1,14.833C1,15.477 1.448,16 2,16C2.552,16 3,15.477 3,14.833L3,3.167Z" style="fill:white;fill-opacity:0.7;"/>
    </g>
    <g transform="matrix(0.965926,-0.258819,0.258819,0.965926,9.18567,1.02856)">
        <path d="M3,3C3,2.448 2.552,2 2,2C1.448,2 1,2.448 1,3L1,15C1,15.552 1.448,16 2,16C2.552,16 3,15.552 3,15L3,3Z" style="fill:white;fill-opacity:0.7;"/>
    </g>
</svg>

