<?xml version="1.0" encoding="UTF-8" standalone="no"?>
<!DOCTYPE svg PUBLIC "-//W3C//DTD SVG 1.1//EN" "http://www.w3.org/Graphics/SVG/1.1/DTD/svg11.dtd">
<svg width="18px" height="18px" version="1.1" xmlns="http://www.w3.org/2000/svg" xmlns:xlink="http://www.w3.org/1999/xlink" xml:space="preserve" xmlns:serif="http://www.serif.com/" style="fill-rule:evenodd;clip-rule:evenodd;stroke-linejoin:round;stroke-miterlimit:2;">
    <g transform="matrix(0.818182,0,0,0.818182,-6.66134e-16,-6.66134e-16)">
        <rect x="0" y="0" width="22" height="22" style="fill:rgb(0,75,128);fill-opacity:0;"/>
    </g>
    <g transform="matrix(1,0,0,1,1,-2.22045e-16)">
        <path d="M14,4C14,3.448 13.552,3 13,3L5,3C4.448,3 4,3.448 4,4L4,15C4,15.552 4.448,16 5,16L13,16C13.552,16 14,15.552 14,15L14,4ZM10,14L5.053,14L5.053,15L10,15L10,14ZM13,12L5.053,12L5.053,13L13,13L13,12ZM10,10L5.053,10L5.053,11L10,11L10,10ZM13,8L5.053,8L5.053,9L13,9L13,8ZM6.5,6.118L5.947,7.224L5.053,6.776L6.5,3.882L7.947,6.776L7.053,7.224L6.5,6.118ZM13,6L10,6L10,7L13,7L13,6ZM13,4L10,4L10,5L13,5L13,4Z" style="fill:white;fill-opacity:0.8;"/>
    </g>
    <g transform="matrix(1,0,0,1,1,0)">
        <path d="M3,14C2.448,14 2,13.552 2,13L2,2C2,1.448 2.448,1 3,1L11,1C11.552,1 12,1.448 12,2L4,2C3.448,2 3,2.448 3,3L3,14Z" style="fill:white;fill-opacity:0.8;"/>
    </g>
</svg>
