<?xml version="1.0" encoding="UTF-8" standalone="no"?>
<!DOCTYPE svg PUBLIC "-//W3C//DTD SVG 1.1//EN" "http://www.w3.org/Graphics/SVG/1.1/DTD/svg11.dtd">
<svg width="22px" height="18px" version="1.1" xmlns="http://www.w3.org/2000/svg" xmlns:xlink="http://www.w3.org/1999/xlink" xml:space="preserve" xmlns:serif="http://www.serif.com/" style="fill-rule:evenodd;clip-rule:evenodd;stroke-linejoin:round;stroke-miterlimit:2;">
    <rect x="0" y="0" width="22" height="18" style="fill-opacity:0;"/>
    <g id="path832" transform="matrix(1,0,0,1,-1.5,-1.01)">
        <path d="M5,10C5,10 7.81,5.51 12.5,5.51C17.19,5.51 20,10 20,10C20,10 17.201,14.51 12.5,14.51C7.799,14.51 5,10 5,10ZM12.5,6.389C14.432,6.389 16,8.012 16,10.01C16,12.008 14.432,13.631 12.5,13.631C10.568,13.631 9,12.008 9,10.01C9,8.012 10.568,6.389 12.5,6.389ZM11.5,7.51C12.328,7.51 13,8.182 13,9.01C13,9.838 12.328,10.51 11.5,10.51C10.672,10.51 10,9.838 10,9.01C10,8.182 10.672,7.51 11.5,7.51Z" style="fill:white;"/>
    </g>
    <path d="M16.5,16C16.224,16 16,15.776 16,15.5C16,15.224 16.224,15 16.5,15L17.5,15C17.776,15 18,15.224 18,15.5C18,15.776 17.776,16 17.5,16L16.5,16ZM13.5,16C13.224,16 13,15.776 13,15.5C13,15.224 13.224,15 13.5,15L14.5,15C14.776,15 15,15.224 15,15.5C15,15.776 14.776,16 14.5,16L13.5,16ZM10.5,16C10.224,16 10,15.776 10,15.5C10,15.224 10.224,15 10.5,15L11.5,15C11.776,15 12,15.224 12,15.5C12,15.776 11.776,16 11.5,16L10.5,16ZM7.5,16C7.224,16 7,15.776 7,15.5C7,15.224 7.224,15 7.5,15L8.5,15C8.776,15 9,15.224 9,15.5C9,15.776 8.776,16 8.5,16L7.5,16ZM4.5,16C4.224,16 4,15.776 4,15.5C4,15.224 4.224,15 4.5,15L5.5,15C5.776,15 6,15.224 6,15.5C6,15.776 5.776,16 5.5,16L4.5,16ZM2.999,15.529C2.984,15.792 2.766,16 2.5,16C2.224,16 2,15.776 2,15.5L2,14.5C2,14.224 2.224,14 2.5,14C2.776,14 3,14.224 3,14.5L3,15.5C3,15.51 3,15.52 2.999,15.529ZM20,15.5C20,15.776 19.776,16 19.5,16C19.224,16 19,15.776 19,15.5L19,14.5C19,14.224 19.224,14 19.5,14C19.776,14 20,14.224 20,14.5L20,15.5ZM20,12.5C20,12.776 19.776,13 19.5,13C19.224,13 19,12.776 19,12.5L19,11.5C19,11.224 19.224,11 19.5,11C19.776,11 20,11.224 20,11.5L20,12.5ZM2,11.5C2,11.224 2.224,11 2.5,11C2.776,11 3,11.224 3,11.5L3,12.5C3,12.776 2.776,13 2.5,13C2.224,13 2,12.776 2,12.5L2,11.5ZM20,9.5C20,9.776 19.776,10 19.5,10C19.224,10 19,9.776 19,9.5L19,8.5C19,8.224 19.224,8 19.5,8C19.776,8 20,8.224 20,8.5L20,9.5ZM3,9.5C3,9.776 2.776,10 2.5,10C2.224,10 2,9.776 2,9.5L2,8.5C2,8.224 2.224,8 2.5,8C2.776,8 3,8.224 3,8.5L3,9.5ZM3,6.5C3,6.776 2.776,7 2.5,7C2.224,7 2,6.776 2,6.5L2,5.5C2,5.224 2.224,5 2.5,5C2.776,5 3,5.224 3,5.5L3,6.5ZM20,6.5C20,6.776 19.776,7 19.5,7C19.224,7 19,6.776 19,6.5L19,5.5C19,5.224 19.224,5 19.5,5C19.776,5 20,5.224 20,5.5L20,6.5ZM3,2.5L3,3.5C3,3.776 2.776,4 2.5,4C2.224,4 2,3.776 2,3.5L2,2.5C2,2.224 2.224,2 2.5,2C2.776,2 3,2.224 3,2.5ZM19.5,2L19.5,2C19.776,2 20,2.224 20,2.5L20,3.5C20,3.776 19.776,4 19.5,4C19.224,4 19,3.776 19,3.5L19,2.5L19,2.5C19,2.224 19.224,2 19.5,2L19.5,2ZM4.5,3C4.224,3 4,2.776 4,2.5C4,2.224 4.224,2 4.5,2L5.5,2C5.776,2 6,2.224 6,2.5C6,2.776 5.776,3 5.5,3L4.5,3ZM7.5,3C7.224,3 7,2.776 7,2.5C7,2.224 7.224,2 7.5,2L8.5,2C8.776,2 9,2.224 9,2.5C9,2.776 8.776,3 8.5,3L7.5,3ZM10.5,3C10.224,3 10,2.776 10,2.5C10,2.224 10.224,2 10.5,2L11.5,2C11.776,2 12,2.224 12,2.5C12,2.776 11.776,3 11.5,3L10.5,3ZM16.5,3C16.224,3 16,2.776 16,2.5C16,2.224 16.224,2 16.5,2L17.5,2C17.776,2 18,2.224 18,2.5C18,2.776 17.776,3 17.5,3L16.5,3ZM13.5,3C13.224,3 13,2.776 13,2.5C13,2.224 13.224,2 13.5,2L14.5,2C14.776,2 15,2.224 15,2.5C15,2.776 14.776,3 14.5,3L13.5,3Z" style="fill:white;"/>
</svg>

