<?xml version="1.0" encoding="UTF-8" standalone="no"?>
<!DOCTYPE svg PUBLIC "-//W3C//DTD SVG 1.1//EN" "http://www.w3.org/Graphics/SVG/1.1/DTD/svg11.dtd">
<svg width="22px" height="18px" version="1.1" xmlns="http://www.w3.org/2000/svg" xmlns:xlink="http://www.w3.org/1999/xlink" xml:space="preserve" xmlns:serif="http://www.serif.com/" style="fill-rule:evenodd;clip-rule:evenodd;stroke-linejoin:round;stroke-miterlimit:2;">
    <g id="path832" transform="matrix(1,0,0,1,-1.5,-1.01)">
        <path d="M5,10C5,10 7.81,5.51 12.5,5.51C17.19,5.51 20,10 20,10C20,10 17.201,14.51 12.5,14.51C7.799,14.51 5,10 5,10ZM12.5,6.389C14.432,6.389 16,8.012 16,10.01C16,12.008 14.432,13.631 12.5,13.631C10.568,13.631 9,12.008 9,10.01C9,8.012 10.568,6.389 12.5,6.389ZM11.5,7.51C12.328,7.51 13,8.182 13,9.01C13,9.838 12.328,10.51 11.5,10.51C10.672,10.51 10,9.838 10,9.01C10,8.182 10.672,7.51 11.5,7.51Z" style="fill:white;"/>
    </g>
</svg>

