<?xml version="1.0" encoding="UTF-8" standalone="no"?>
<!DOCTYPE svg PUBLIC "-//W3C//DTD SVG 1.1//EN" "http://www.w3.org/Graphics/SVG/1.1/DTD/svg11.dtd">
<svg width="22px" height="17px" version="1.1" xmlns="http://www.w3.org/2000/svg" xmlns:xlink="http://www.w3.org/1999/xlink" xml:space="preserve" xmlns:serif="http://www.serif.com/" style="fill-rule:evenodd;clip-rule:evenodd;stroke-linecap:round;stroke-linejoin:round;stroke-miterlimit:1.5;">
    <rect id="rect2" x="2" y="2" width="18" height="13" style="fill:white;fill-opacity:0.39;"/>
    <g id="g8">
        <path id="path4" d="M19.5,1C20.3,1 21,1.7 21,2.5L21,14.5C21,15.3 20.3,16 19.5,16L2.5,16C1.7,16 1,15.3 1,14.5L1,2.5C1,1.7 1.7,1 2.5,1L19.5,1ZM18.6,2L3.3,2C2.6,2 2,2.6 2,3.3L2,13.7C2,14.4 2.6,15 3.3,15L18.6,15C19.3,15 20,14.4 20,13.7L20,3.3C20,2.6 19.4,2 18.6,2Z" style="fill:rgb(191,191,191);fill-rule:nonzero;stroke:rgb(102,102,102);stroke-width:2px;"/>
        <path id="path6" d="M19.5,1C20.3,1 21,1.7 21,2.5L21,14.5C21,15.3 20.3,16 19.5,16L2.5,16C1.7,16 1,15.3 1,14.5L1,2.5C1,1.7 1.7,1 2.5,1L19.5,1ZM18.6,2L3.3,2C2.6,2 2,2.6 2,3.3L2,13.7C2,14.4 2.6,15 3.3,15L18.6,15C19.3,15 20,14.4 20,13.7L20,3.3C20,2.6 19.4,2 18.6,2Z" style="fill:rgb(191,191,191);fill-rule:nonzero;"/>
    </g>
</svg>
