<?xml version="1.0" encoding="UTF-8" standalone="no"?>
<!DOCTYPE svg PUBLIC "-//W3C//DTD SVG 1.1//EN" "http://www.w3.org/Graphics/SVG/1.1/DTD/svg11.dtd">
<svg width="18px" height="18px" version="1.1" xmlns="http://www.w3.org/2000/svg" xmlns:xlink="http://www.w3.org/1999/xlink" xml:space="preserve" xmlns:serif="http://www.serif.com/" style="fill-rule:evenodd;clip-rule:evenodd;stroke-linejoin:round;stroke-miterlimit:2;">
    <g transform="matrix(0.818182,0,0,0.818182,1.77636e-15,1.77636e-15)">
        <rect x="0" y="0" width="22" height="22" style="fill-opacity:0;"/>
    </g>
    <g>
        <path id="rect4488" d="M5,8C4.735,8 4.48,8.105 4.293,8.293C4.105,8.48 4,8.735 4,9L4,14C4,14.265 4.105,14.52 4.293,14.707C4.48,14.895 4.735,15 5,15L12,15C12.265,15 12.52,14.895 12.707,14.707C12.895,14.52 13,14.265 13,14L13,9C13,8.735 12.895,8.48 12.707,8.293C12.52,8.105 12.265,8 12,8L5,8ZM7.75,11.799C7.302,11.54 7,11.055 7,10.5C7,9.672 7.672,9 8.5,9C9.328,9 10,9.672 10,10.5C10,11.055 9.698,11.54 9.25,11.799L9.25,13.25C9.25,13.664 8.914,14 8.5,14C8.086,14 7.75,13.664 7.75,13.25L7.75,11.799Z" style="fill-opacity:0.8;fill-rule:nonzero;"/>
        <path id="path4491" d="M13.5,2C11.6,2 10,3.6 10,5.5L10,8L11,8L11,5.5C11,4.1 12.1,3 13.5,3C14.9,3 16,4.1 16,5.5L16,6.5C16,6.776 16.224,7 16.5,7C16.776,7 17,6.776 17,6.5L17,5.5C17,3.6 15.4,2 13.5,2Z" style="fill-opacity:0.8;fill-rule:nonzero;"/>
    </g>
</svg>
