<?xml version="1.0" encoding="UTF-8" standalone="no"?>
<svg
   xmlns:dc="http://purl.org/dc/elements/1.1/"
   xmlns:cc="http://creativecommons.org/ns#"
   xmlns:rdf="http://www.w3.org/1999/02/22-rdf-syntax-ns#"
   xmlns:svg="http://www.w3.org/2000/svg"
   xmlns="http://www.w3.org/2000/svg"
   xmlns:sodipodi="http://sodipodi.sourceforge.net/DTD/sodipodi-0.dtd"
   xmlns:inkscape="http://www.inkscape.org/namespaces/inkscape"
   width="16"
   height="10"
   version="1.1"
   xml:space="preserve"
   style="clip-rule:evenodd;fill-rule:evenodd;stroke-linecap:square"
   id="svg4"
   sodipodi:docname="slider-v-handle_disabled.svg"
   inkscape:version="0.92.4 (5da689c313, 2019-01-14)"><metadata
   id="metadata10"><rdf:RDF><cc:Work
       rdf:about=""><dc:format>image/svg+xml</dc:format><dc:type
         rdf:resource="http://purl.org/dc/dcmitype/StillImage" /><dc:title></dc:title></cc:Work></rdf:RDF></metadata><defs
   id="defs8" /><sodipodi:namedview
   pagecolor="#ffffff"
   bordercolor="#666666"
   borderopacity="1"
   objecttolerance="10"
   gridtolerance="10"
   guidetolerance="10"
   inkscape:pageopacity="0"
   inkscape:pageshadow="2"
   inkscape:window-width="1130"
   inkscape:window-height="818"
   id="namedview6"
   showgrid="false"
   fit-margin-top="0"
   fit-margin-left="0"
   fit-margin-right="0"
   fit-margin-bottom="0"
   inkscape:zoom="14.75"
   inkscape:cx="8.002"
   inkscape:cy="5.002"
   inkscape:window-x="0"
   inkscape:window-y="0"
   inkscape:window-maximized="0"
   inkscape:current-layer="svg4" />
    <path
   id="rect4492"
   d="m 0.94,7.0290003 v -4.062 c 0,-1.117 0.779,-2.03100001 1.732,-2.03100001 h 10.66 c 0.953,0 1.732,0.91400001 1.732,2.03100001 v 4.062 c 0,1.117 -0.779,2.031 -1.732,2.031 H 2.672 c -0.953,0 -1.732,-0.914 -1.732,-2.031 z"
   style="fill:none;fill-rule:nonzero;stroke:#626262;stroke-width:1.88px"
   inkscape:connector-curvature="0" />
    <path
   id="rect4490"
   d="m 1.002,6.9980003 v -4 c 0,-1.1 0.771,-2.00000001 1.714,-2.00000001 h 10.572 c 0.943,0 1.714,0.90000001 1.714,2.00000001 v 4 c 0,1.1 -0.771,2 -1.714,2 H 2.716 c -0.943,0 -1.714,-0.9 -1.714,-2 z"
   style="fill:#9d9d9d;fill-rule:nonzero"
   inkscape:connector-curvature="0" />
</svg>
