<?xml version="1.0" encoding="UTF-8" standalone="no"?>
<!DOCTYPE svg PUBLIC "-//W3C//DTD SVG 1.1//EN" "http://www.w3.org/Graphics/SVG/1.1/DTD/svg11.dtd">
<svg width="100%" height="100%" viewBox="0 0 64 64" version="1.1" xmlns="http://www.w3.org/2000/svg" xmlns:xlink="http://www.w3.org/1999/xlink" xml:space="preserve" xmlns:serif="http://www.serif.com/" style="fill-rule:evenodd;clip-rule:evenodd;stroke-linejoin:round;stroke-miterlimit:2;">
    <path d="M9,25.757L9,7C9,6.204 9.316,5.441 9.879,4.879C10.441,4.316 11.204,4 12,4L42.757,4C43.553,4 44.316,4.316 44.879,4.879L54.121,14.121C54.684,14.684 55,15.447 55,16.243L55,24.302C54.865,24.398 54.737,24.506 54.617,24.627L37.918,41.325C37.918,41.325 25.531,28.938 25.531,28.938L18.856,35.613C18.856,35.613 11.564,28.321 9,25.757ZM55,32.729L55,57C55,58.657 53.657,60 52,60L12,60C10.343,60 9,58.657 9,57L9,34.243L18.856,44.098L25.531,37.423C25.531,37.423 37.918,49.81 37.918,49.81L55,32.729Z" style="fill:rgb(228,228,228);"/>
    <path d="M9,25.757L9,7C9,6.204 9.316,5.441 9.879,4.879C10.441,4.316 11.204,4 12,4L42.757,4C43.553,4 44.316,4.316 44.879,4.879L54.121,14.121C54.684,14.684 55,15.447 55,16.243L55,24.302C54.865,24.398 54.737,24.506 54.617,24.627L37.918,41.325C37.918,41.325 25.531,28.938 25.531,28.938L18.856,35.613C18.856,35.613 11.564,28.321 9,25.757ZM37.918,38.497L53,23.415L53,16.243C53,15.977 52.895,15.723 52.707,15.535L43.465,6.293C43.277,6.105 43.023,6 42.757,6L12,6C11.735,6 11.481,6.105 11.294,6.292L11.292,6.294C11.105,6.481 11,6.735 11,7L11,24.929L18.856,32.785L24.117,27.524C24.898,26.743 26.164,26.743 26.945,27.524L37.918,38.497ZM55,32.729L55,57C55,58.657 53.657,60 52,60L12,60C10.343,60 9,58.657 9,57L9,34.243L18.856,44.098L25.531,37.423C25.531,37.423 37.918,49.81 37.918,49.81L55,32.729ZM25.531,40.252L20.27,45.513C19.489,46.294 18.223,46.294 17.442,45.513L11,39.071L11,57C11,57.552 11.448,58 12,58L52,58C52.552,58 53,57.552 53,57L53,37.557L39.333,51.224C38.552,52.006 37.285,52.006 36.504,51.224L25.531,40.252Z" style="fill:rgb(57,57,57);"/>
    <path d="M43,5L54,16L43,16L43,5Z" style="fill:rgb(57,57,57);"/>
</svg>
