<?xml version="1.0" encoding="UTF-8" standalone="no"?>
<!DOCTYPE svg PUBLIC "-//W3C//DTD SVG 1.1//EN" "http://www.w3.org/Graphics/SVG/1.1/DTD/svg11.dtd">
<svg width="100%" height="100%" viewBox="0 0 64 64" version="1.1" xmlns="http://www.w3.org/2000/svg" xmlns:xlink="http://www.w3.org/1999/xlink" xml:space="preserve" xmlns:serif="http://www.serif.com/" style="fill-rule:evenodd;clip-rule:evenodd;stroke-linejoin:round;stroke-miterlimit:2;">
    <path d="M42.757,4C43.553,4 44.316,4.316 44.879,4.879C46.939,6.939 52.061,12.061 54.121,14.121C54.684,14.684 55,15.447 55,16.243C55,22.224 55,48.122 55,57C55,58.657 53.657,60 52,60C43.671,60 20.329,60 12,60C10.343,60 9,58.657 9,57C9,47.28 9,16.72 9,7C9,6.204 9.316,5.441 9.879,4.879C10.441,4.316 11.204,4 12,4C19.308,4 37.794,4 42.757,4Z" style="fill:rgb(72,121,52);"/>
    <path d="M42.757,4C43.553,4 44.316,4.316 44.879,4.879L54.121,14.121C54.684,14.684 55,15.447 55,16.243L55,57C55,58.657 53.657,60 52,60L12,60C10.343,60 9,58.657 9,57L9,7C9,6.204 9.316,5.441 9.879,4.879C10.441,4.316 11.204,4 12,4L42.757,4ZM42.757,6L12,6C11.735,6 11.48,6.105 11.293,6.293C11.105,6.48 11,6.735 11,7L11,57C11,57.552 11.448,58 12,58L52,58C52.552,58 53,57.552 53,57L53,16.243C53,15.977 52.895,15.723 52.707,15.536L43.464,6.293C43.277,6.105 43.023,6 42.757,6Z" style="fill-opacity:0.75;"/>
    <path d="M43,5L54,16L43,16L43,5Z" style="fill:rgb(18,30,13);"/>
    <g transform="matrix(11,0,0,11,42.3232,51.0713)">
    </g>
    <text x="21.677px" y="51.071px" style="font-family:'SegoeUI-Semibold', 'Segoe UI', sans-serif;font-weight:600;font-size:11px;fill:white;">CLN</text>
    <path d="M35.325,30.399C33.789,32.481 32.502,35.615 31.799,38.031C31.488,38.338 30.486,38.062 30.486,38.062C30.453,36.016 31.416,34.359 31.455,34.247C31.466,34.218 30.157,35.505 28.98,37.213C28.944,37.267 28.849,37.181 28.794,37.143C27.395,36.195 24.764,33.57 24.764,33.57C25.461,33.029 26.449,32.047 26.885,31.251C26.183,31.875 24.73,32.478 23.897,32.718C23.897,32.718 23.362,32.02 23.097,31.661L23.038,31.581C24.67,30.839 25.946,29.849 28.11,27.707C26.561,28.698 23.736,29.331 21.856,29.451C21.856,29.451 21.453,28.502 21.786,28.174C24.753,27.727 27.191,26.437 29.598,24.785C30.916,23.513 33.201,23.394 34.928,25.094C36.656,26.794 36.501,28.572 35.325,30.399ZM36.322,22.009L40.25,18.143C40.729,17.671 41.507,17.671 41.986,18.143C42.466,18.615 42.466,19.381 41.986,19.853L38.059,23.719C38.534,24.699 38.13,26.247 37.66,27.229C37.661,26.109 37.19,25.011 36.099,23.938C35.074,22.928 33.886,22.447 32.752,22.402C33.751,21.939 35.325,21.541 36.322,22.009ZM41.394,31.613L40.253,33.617C40.209,33.697 40.185,33.785 40.185,33.875C40.185,33.966 40.209,34.054 40.254,34.133L41.393,36.137L39.357,35.015C39.278,34.971 39.188,34.947 39.096,34.947C39.004,34.947 38.914,34.971 38.834,35.014L36.798,36.138L37.938,34.133C37.983,34.054 38.006,33.965 38.007,33.875C38.007,33.785 37.983,33.696 37.938,33.618L36.798,31.613L38.834,32.736C38.914,32.779 39.004,32.803 39.096,32.803C39.187,32.802 39.278,32.78 39.357,32.736L41.394,31.613ZM28.767,18.292L27.626,20.296C27.582,20.376 27.558,20.464 27.558,20.555C27.558,20.645 27.582,20.733 27.627,20.812L28.767,22.816L26.731,21.694C26.651,21.65 26.562,21.627 26.469,21.627C26.377,21.627 26.288,21.65 26.207,21.694L24.171,22.817L25.312,20.812C25.357,20.733 25.38,20.645 25.38,20.555C25.38,20.464 25.356,20.376 25.312,20.298L24.171,18.292L26.208,19.415C26.287,19.459 26.377,19.482 26.469,19.482C26.561,19.482 26.651,19.46 26.731,19.415L28.767,18.292Z" style="fill:white;"/>
</svg>
