<?xml version="1.0" encoding="UTF-8" standalone="no"?>
<!DOCTYPE svg PUBLIC "-//W3C//DTD SVG 1.1//EN" "http://www.w3.org/Graphics/SVG/1.1/DTD/svg11.dtd">
<svg width="100%" height="100%" viewBox="0 0 64 64" version="1.1" xmlns="http://www.w3.org/2000/svg" xmlns:xlink="http://www.w3.org/1999/xlink" xml:space="preserve" xmlns:serif="http://www.serif.com/" style="fill-rule:evenodd;clip-rule:evenodd;stroke-linejoin:round;stroke-miterlimit:2;">
    <path d="M42.757,4C43.553,4 44.316,4.316 44.879,4.879C46.939,6.939 52.061,12.061 54.121,14.121C54.684,14.684 55,15.447 55,16.243C55,22.224 55,48.122 55,57C55,58.657 53.657,60 52,60C43.671,60 20.329,60 12,60C10.343,60 9,58.657 9,57C9,47.28 9,16.72 9,7C9,6.204 9.316,5.441 9.879,4.879C10.441,4.316 11.204,4 12,4C19.308,4 37.794,4 42.757,4Z" style="fill:rgb(72,121,52);"/>
    <path d="M42.757,4C43.553,4 44.316,4.316 44.879,4.879L54.121,14.121C54.684,14.684 55,15.447 55,16.243L55,57C55,58.657 53.657,60 52,60L12,60C10.343,60 9,58.657 9,57L9,7C9,6.204 9.316,5.441 9.879,4.879C10.441,4.316 11.204,4 12,4L42.757,4ZM42.757,6L12,6C11.735,6 11.48,6.105 11.293,6.293C11.105,6.48 11,6.735 11,7L11,57C11,57.552 11.448,58 12,58L52,58C52.552,58 53,57.552 53,57L53,16.243C53,15.977 52.895,15.723 52.707,15.536L43.464,6.293C43.277,6.105 43.023,6 42.757,6Z" style="fill-opacity:0.75;"/>
    <path d="M43,5L54,16L43,16L43,5Z" style="fill:rgb(18,30,13);"/>
    <g transform="matrix(11,0,0,11,49.0828,51.0713)">
    </g>
    <text x="14.917px" y="51.071px" style="font-family:'SegoeUI-Semibold', 'Segoe UI', sans-serif;font-weight:600;font-size:11px;fill:white;">CURVE</text>
    <g transform="matrix(1,0,0,1,2.5,-11.8241)">
        <path d="M46,52L13,52L13,31L46,31L46,52ZM15,45L15,50L20,50L20,45L15,45ZM21,45L21,50L26,50L26,45L21,45ZM27,45L27,50L32,50L32,45L27,45ZM33,45L33,50L38,50L38,45L33,45ZM39,45L39,50L44,50L44,45L39,45ZM15,39L15,44L20,44L20,39L15,39ZM21,39L21,44L26,44L26,39L21,39ZM27,39L27,44L32,44L32,39L27,39ZM33,39L33,44L38,44L38,39L33,39ZM39,39L39,44L44,44L44,39L39,39ZM15,33L15,38L20,38L20,33L15,33ZM21,33L21,38L26,38L26,33L21,33ZM27,33L27,38L32,38L32,33L27,33ZM33,33L33,38L38,38L38,33L33,33ZM39,33L39,38L44,38L44,33L39,33Z" style="fill-opacity:0.5;"/>
    </g>
    <g transform="matrix(1,0,0,1,2.5,0.175916)">
        <path d="M44,38.056C39.45,37.996 36.227,37.2 34.419,36.056C32.783,35.021 28.941,30.642 26.204,27.851C21.956,23.52 15.328,24.083 15.328,24.083C15.216,24.092 15.106,24.088 15,24.074L15,21.102C15.028,21.098 15.056,21.095 15.085,21.093C15.085,21.093 23.283,20.343 28.346,25.751C32.257,29.928 34.225,32.272 36.098,33.57C37.533,34.564 40.735,35.035 44,35.204L44,38.056Z" style="fill:rgb(255,127,33);"/>
    </g>
</svg>
