<?xml version="1.0" encoding="UTF-8" standalone="no"?>
<!DOCTYPE svg PUBLIC "-//W3C//DTD SVG 1.1//EN" "http://www.w3.org/Graphics/SVG/1.1/DTD/svg11.dtd">
<svg width="100%" height="100%" viewBox="0 0 64 64" version="1.1" xmlns="http://www.w3.org/2000/svg" xmlns:xlink="http://www.w3.org/1999/xlink" xml:space="preserve" xmlns:serif="http://www.serif.com/" style="fill-rule:evenodd;clip-rule:evenodd;stroke-linejoin:round;stroke-miterlimit:2;">
    <path d="M42.757,4C43.553,4 44.316,4.316 44.879,4.879C46.939,6.939 52.061,12.061 54.121,14.121C54.684,14.684 55,15.447 55,16.243C55,22.224 55,48.122 55,57C55,58.657 53.657,60 52,60C43.671,60 20.329,60 12,60C10.343,60 9,58.657 9,57C9,47.28 9,16.72 9,7C9,6.204 9.316,5.441 9.879,4.879C10.441,4.316 11.204,4 12,4C19.308,4 37.794,4 42.757,4Z" style="fill:rgb(162,229,219);"/>
    <path d="M42.757,4C43.553,4 44.316,4.316 44.879,4.879L54.121,14.121C54.684,14.684 55,15.447 55,16.243L55,57C55,58.657 53.657,60 52,60L12,60C10.343,60 9,58.657 9,57L9,7C9,6.204 9.316,5.441 9.879,4.879C10.441,4.316 11.204,4 12,4L42.757,4ZM42.757,6L12,6C11.735,6 11.48,6.105 11.293,6.293C11.105,6.48 11,6.735 11,7L11,57C11,57.552 11.448,58 12,58L52,58C52.552,58 53,57.552 53,57L53,16.243C53,15.977 52.895,15.723 52.707,15.536L43.464,6.293C43.277,6.105 43.023,6 42.757,6Z" style="fill-opacity:0.75;"/>
    <path d="M43,5L54,16L43,16L43,5Z" style="fill:rgb(41,57,55);"/>
    <g transform="matrix(11,0,0,11,45.5513,51.0713)">
    </g>
    <text x="18.449px" y="51.071px" style="font-family:'SegoeUI-Semibold', 'Segoe UI', sans-serif;font-weight:600;font-size:11px;fill:rgb(41,57,55);">JSON</text>
    <g id="path899" transform="matrix(1,0,0,1,53.7189,3)">
        <path d="M-25.852,36.292L-27.414,36.292C-28.657,36.292 -29.667,35.944 -30.445,35.25C-31.216,34.563 -31.602,33.566 -31.602,32.26L-31.602,30.708C-31.602,29.535 -31.89,28.618 -32.466,27.958C-33.042,27.292 -33.924,26.958 -35.112,26.958L-35.643,26.958L-35.643,25.333L-35.112,25.333C-33.924,25.333 -33.042,25.003 -32.466,24.344C-31.89,23.677 -31.602,22.757 -31.602,21.583L-31.602,20.031C-31.602,18.726 -31.216,17.729 -30.445,17.042C-29.667,16.347 -28.657,16 -27.414,16L-25.852,16L-25.852,17.438L-27.039,17.438C-27.983,17.438 -28.671,17.656 -29.102,18.094C-29.525,18.531 -29.737,19.236 -29.737,20.208L-29.737,22.031C-29.737,22.997 -30.004,23.809 -30.539,24.469C-31.074,25.122 -31.817,25.639 -32.768,26.021L-32.768,26.271C-31.817,26.653 -31.074,27.174 -30.539,27.833C-30.004,28.486 -29.737,29.295 -29.737,30.26L-29.737,32.083C-29.737,33.056 -29.525,33.76 -29.102,34.198C-28.671,34.635 -27.983,34.854 -27.039,34.854L-25.852,34.854L-25.852,36.292ZM-20.098,23.542L-22.588,23.542L-22.588,20.573L-20.098,20.573L-20.098,23.542ZM-19.338,29.24L-22.275,36.063L-23.796,36.063L-21.983,29.24L-19.338,29.24ZM-7.795,26.958L-8.326,26.958C-9.513,26.958 -10.395,27.292 -10.972,27.958C-11.548,28.618 -11.836,29.535 -11.836,30.708L-11.836,32.26C-11.836,33.566 -12.225,34.563 -13.003,35.25C-13.774,35.944 -14.781,36.292 -16.024,36.292L-17.586,36.292L-17.586,34.854L-16.399,34.854C-15.454,34.854 -14.77,34.635 -14.347,34.198C-13.916,33.76 -13.701,33.056 -13.701,32.083L-13.701,30.26C-13.701,29.295 -13.434,28.486 -12.899,27.833C-12.364,27.174 -11.621,26.653 -10.67,26.271L-10.67,26.021C-11.621,25.639 -12.364,25.122 -12.899,24.469C-13.434,23.809 -13.701,22.997 -13.701,22.031L-13.701,20.208C-13.701,19.236 -13.916,18.531 -14.347,18.094C-14.77,17.656 -15.454,17.438 -16.399,17.438L-17.586,17.438L-17.586,16L-16.024,16C-14.781,16 -13.774,16.347 -13.003,17.042C-12.225,17.729 -11.836,18.726 -11.836,20.031L-11.836,21.583C-11.836,22.757 -11.548,23.677 -10.972,24.344C-10.395,25.003 -9.513,25.333 -8.326,25.333L-7.795,25.333L-7.795,26.958Z" style="fill:rgb(41,57,55);"/>
    </g>
</svg>
