<?xml version="1.0" encoding="UTF-8" standalone="no"?>
<!DOCTYPE svg PUBLIC "-//W3C//DTD SVG 1.1//EN" "http://www.w3.org/Graphics/SVG/1.1/DTD/svg11.dtd">
<svg width="100%" height="100%" viewBox="0 0 64 64" version="1.1" xmlns="http://www.w3.org/2000/svg" xmlns:xlink="http://www.w3.org/1999/xlink" xml:space="preserve" xmlns:serif="http://www.serif.com/" style="fill-rule:evenodd;clip-rule:evenodd;stroke-linejoin:round;stroke-miterlimit:2;">
    <path d="M42.757,4C43.553,4 44.316,4.316 44.879,4.879C46.939,6.939 52.061,12.061 54.121,14.121C54.684,14.684 55,15.447 55,16.243C55,22.224 55,48.122 55,57C55,58.657 53.657,60 52,60C43.671,60 20.329,60 12,60C10.343,60 9,58.657 9,57C9,47.28 9,16.72 9,7C9,6.204 9.316,5.441 9.879,4.879C10.441,4.316 11.204,4 12,4C19.308,4 37.794,4 42.757,4Z" style="fill:rgb(228,228,228);"/>
    <path d="M42.757,4C43.553,4 44.316,4.316 44.879,4.879L54.121,14.121C54.684,14.684 55,15.447 55,16.243L55,57C55,58.657 53.657,60 52,60L12,60C10.343,60 9,58.657 9,57L9,7C9,6.204 9.316,5.441 9.879,4.879C10.441,4.316 11.204,4 12,4L42.757,4ZM42.757,6L12,6C11.735,6 11.48,6.105 11.293,6.293C11.105,6.48 11,6.735 11,7L11,57C11,57.552 11.448,58 12,58L52,58C52.552,58 53,57.552 53,57L53,16.243C53,15.977 52.895,15.723 52.707,15.536L43.464,6.293C43.277,6.105 43.023,6 42.757,6Z" style="fill-opacity:0.75;"/>
    <g transform="matrix(0.943825,0,0,0.871141,5.10099,0.0718112)">
        <path d="M26.38,23.595C26.82,22.794 27.627,22.302 28.5,22.302C29.373,22.302 30.18,22.794 30.62,23.595C33.912,29.584 40.217,41.056 43.529,47.082C43.971,47.888 43.975,48.883 43.537,49.692C43.099,50.501 42.287,51 41.408,51L15.592,51C14.713,51 13.901,50.501 13.463,49.692C13.025,48.883 13.029,47.888 13.471,47.082C16.783,41.056 23.088,29.584 26.38,23.595Z" style="fill-opacity:0.7;"/>
    </g>
    <g transform="matrix(16,0,0,16,27.46,40.568)">
        <path d="M0.367,-0.185L0.242,-0.185L0.242,-0.217C0.242,-0.258 0.248,-0.291 0.262,-0.317C0.275,-0.343 0.302,-0.372 0.342,-0.405C0.382,-0.437 0.406,-0.459 0.414,-0.469C0.426,-0.485 0.432,-0.502 0.432,-0.521C0.432,-0.548 0.421,-0.571 0.4,-0.59C0.378,-0.609 0.35,-0.619 0.313,-0.619C0.279,-0.619 0.25,-0.609 0.226,-0.589C0.203,-0.569 0.187,-0.539 0.178,-0.498L0.052,-0.514C0.055,-0.572 0.08,-0.621 0.126,-0.662C0.172,-0.703 0.233,-0.723 0.308,-0.723C0.386,-0.723 0.449,-0.703 0.496,-0.661C0.542,-0.62 0.565,-0.572 0.565,-0.518C0.565,-0.487 0.557,-0.459 0.54,-0.432C0.523,-0.405 0.486,-0.368 0.43,-0.321C0.401,-0.297 0.383,-0.278 0.376,-0.263C0.369,-0.249 0.366,-0.222 0.367,-0.185ZM0.242,0L0.242,-0.137L0.379,-0.137L0.379,0L0.242,0Z" style="fill:white;fill-rule:nonzero;"/>
    </g>
    <path d="M43,5L54,16L43,16L43,5Z" style="fill:rgb(57,57,57);"/>
</svg>
