<?xml version="1.0" encoding="UTF-8" standalone="no"?>
<!DOCTYPE svg PUBLIC "-//W3C//DTD SVG 1.1//EN" "http://www.w3.org/Graphics/SVG/1.1/DTD/svg11.dtd">
<svg width="100%" height="100%" viewBox="0 0 64 64" version="1.1" xmlns="http://www.w3.org/2000/svg" xmlns:xlink="http://www.w3.org/1999/xlink" xml:space="preserve" xmlns:serif="http://www.serif.com/" style="fill-rule:evenodd;clip-rule:evenodd;stroke-linejoin:round;stroke-miterlimit:2;">
    <path d="M42.757,4C43.553,4 44.316,4.316 44.879,4.879C46.939,6.939 52.061,12.061 54.121,14.121C54.684,14.684 55,15.447 55,16.243C55,22.224 55,48.122 55,57C55,58.657 53.657,60 52,60C43.671,60 20.329,60 12,60C10.343,60 9,58.657 9,57C9,47.28 9,16.72 9,7C9,6.204 9.316,5.441 9.879,4.879C10.441,4.316 11.204,4 12,4C19.308,4 37.794,4 42.757,4Z" style="fill:rgb(72,121,52);"/>
    <path d="M42.757,4C43.553,4 44.316,4.316 44.879,4.879L54.121,14.121C54.684,14.684 55,15.447 55,16.243L55,57C55,58.657 53.657,60 52,60L12,60C10.343,60 9,58.657 9,57L9,7C9,6.204 9.316,5.441 9.879,4.879C10.441,4.316 11.204,4 12,4L42.757,4ZM42.757,6L12,6C11.735,6 11.48,6.105 11.293,6.293C11.105,6.48 11,6.735 11,7L11,57C11,57.552 11.448,58 12,58L52,58C52.552,58 53,57.552 53,57L53,16.243C53,15.977 52.895,15.723 52.707,15.536L43.464,6.293C43.277,6.105 43.023,6 42.757,6Z" style="fill-opacity:0.75;"/>
    <path d="M43,5L54,16L43,16L43,5Z" style="fill:rgb(18,30,13);"/>
    <g transform="matrix(11,0,0,11,50.302,51.0713)">
    </g>
    <text x="13.698px" y="51.071px" style="font-family:'SegoeUI-Semibold', 'Segoe UI', sans-serif;font-weight:600;font-size:11px;fill:white;">MP<tspan x="29.537px 36.144px 42.213px " y="51.071px 51.071px 51.071px ">ATH</tspan></text>
    <g transform="matrix(0.884821,-0.237087,0.237087,0.884821,-1.15421,3.8312)">
        <path d="M33.708,47.264L39.212,49.042L38.541,51.204L30.342,48.595C29.82,48.296 29.522,47.849 29.522,47.402C29.522,47.327 29.522,47.178 29.596,47.104L32.205,38.532L34.367,39.202L32.463,45.406C34.159,44.627 35.663,43.84 36.976,43.004L37.05,43.004L38.169,44.868C36.873,45.656 35.365,46.487 33.708,47.264ZM38.69,41.886C38.69,41.811 38.765,41.811 38.69,41.886C40.703,40.395 42.045,38.83 42.641,37.264L42.716,37.264L44.728,38.084L44.728,38.159C43.908,40.097 42.343,41.886 40.032,43.675L39.958,43.675L38.69,41.886ZM41.333,29.152C42.743,29.681 44.509,30.952 45.101,33.985L45.101,34.134C45.175,34.357 45.25,34.879 45.25,35.475L45.25,35.55L43.088,35.55L43.088,35.475C43.088,35.028 43.014,34.73 43.014,34.655C43.014,34.581 42.939,34.506 42.939,34.357C42.717,33.544 42.349,31.996 40.523,31.171L40.479,31.152L41.225,29.139L41.299,29.139L41.333,29.152ZM14.017,30.928L15.583,29.438C16.03,29.885 16.701,30.332 17.446,30.63C18.042,30.854 18.639,31.003 18.713,31.003L18.788,31.003C19.086,31.003 19.608,31.077 20.502,31.077L20.95,31.077L20.95,33.239L20.428,33.239C19.459,33.239 18.788,33.239 18.564,33.165L18.49,33.165C18.117,33.165 17.521,33.015 16.552,32.643C15.583,32.27 14.688,31.674 14.017,30.928ZM23.186,31.003C25.273,30.779 27.435,30.556 29.745,30.034L30.193,32.196L30.193,32.27C27.807,32.717 25.497,33.015 23.409,33.165L23.186,31.003ZM31.833,29.661C32.429,29.512 33.025,29.363 33.696,29.214C35.261,28.841 36.752,28.618 38.019,28.618L38.765,28.618C38.765,28.618 38.839,28.618 38.765,28.692L38.616,30.854L38.019,30.854C36.901,30.854 35.634,31.077 34.218,31.376C33.547,31.525 32.876,31.674 32.28,31.823L32.205,31.823L31.833,29.661ZM12.75,27.723C12.75,26.754 13.048,25.636 13.644,24.518C14.166,23.474 14.837,22.505 15.657,21.536L17.297,22.952C16.626,23.772 16.03,24.667 15.583,25.561C15.135,26.381 14.986,27.127 14.986,27.723L14.986,28.17L12.825,28.468C12.75,28.17 12.75,27.947 12.75,27.723ZM23.931,17.809C23.931,17.809 23.782,17.884 23.484,18.033C23.111,18.256 22.664,18.48 22.291,18.704C21.397,19.225 20.055,20.12 18.713,21.387L17.222,19.822C19.906,17.287 22.589,16.02 23.037,15.796L23.931,17.809Z" style="fill:rgb(255,127,33);fill-rule:nonzero;"/>
    </g>
</svg>
