<?xml version="1.0" encoding="UTF-8" standalone="no"?>
<!DOCTYPE svg PUBLIC "-//W3C//DTD SVG 1.1//EN" "http://www.w3.org/Graphics/SVG/1.1/DTD/svg11.dtd">
<svg width="100%" height="100%" viewBox="0 0 64 64" version="1.1" xmlns="http://www.w3.org/2000/svg" xmlns:xlink="http://www.w3.org/1999/xlink" xml:space="preserve" xmlns:serif="http://www.serif.com/" style="fill-rule:evenodd;clip-rule:evenodd;stroke-linejoin:round;stroke-miterlimit:2;">
    <path d="M42.757,4C43.553,4 44.316,4.316 44.879,4.879C46.939,6.939 52.061,12.061 54.121,14.121C54.684,14.684 55,15.447 55,16.243C55,22.224 55,48.122 55,57C55,58.657 53.657,60 52,60C43.671,60 20.329,60 12,60C10.343,60 9,58.657 9,57C9,47.28 9,16.72 9,7C9,6.204 9.316,5.441 9.879,4.879C10.441,4.316 11.204,4 12,4C19.308,4 37.794,4 42.757,4Z" style="fill:rgb(33,44,102);"/>
    <path d="M42.757,4C43.553,4 44.316,4.316 44.879,4.879L54.121,14.121C54.684,14.684 55,15.447 55,16.243L55,57C55,58.657 53.657,60 52,60L12,60C10.343,60 9,58.657 9,57L9,7C9,6.204 9.316,5.441 9.879,4.879C10.441,4.316 11.204,4 12,4L42.757,4ZM42.757,6L12,6C11.735,6 11.48,6.105 11.293,6.293C11.105,6.48 11,6.735 11,7L11,57C11,57.552 11.448,58 12,58L52,58C52.552,58 53,57.552 53,57L53,16.243C53,15.977 52.895,15.723 52.707,15.536L43.464,6.293C43.277,6.105 43.023,6 42.757,6Z" style="fill:rgb(42,122,176);"/>
    <path d="M43,5L54,16L43,16L43,5Z" style="fill:rgb(42,122,176);"/>
    <g transform="matrix(11,0,0,11,42.1541,51.0713)">
    </g>
    <text x="21.846px" y="51.071px" style="font-family:'SegoeUI-Semibold', 'Segoe UI', sans-serif;font-weight:600;font-size:11px;fill:white;">PSD</text>
    <g transform="matrix(1.15385,0,0,0.807692,-8.38473,7.69231)">
        <rect x="22" y="14" width="26" height="26" style="fill:rgb(42,122,176);"/>
    </g>
    <g transform="matrix(0.857143,0,0,0.857143,7.28553,5.57143)">
        <circle cx="40.5" cy="21.5" r="3.5" style="fill:white;"/>
    </g>
    <g transform="matrix(1.54545,0,0,1.2,-6.27291,-5)">
        <path d="M22.5,25L28,35L17,35L22.5,25Z" style="fill:rgb(149,189,216);"/>
    </g>
    <g transform="matrix(1.3,0,0,1.33333,-10.6002,-11)">
        <path d="M37,30L42,36L32,36L37,30Z" style="fill:white;"/>
    </g>
</svg>
