<?xml version="1.0" encoding="UTF-8" standalone="no"?>
<!DOCTYPE svg PUBLIC "-//W3C//DTD SVG 1.1//EN" "http://www.w3.org/Graphics/SVG/1.1/DTD/svg11.dtd">
<svg width="100%" height="100%" viewBox="0 0 64 64" version="1.1" xmlns="http://www.w3.org/2000/svg" xmlns:xlink="http://www.w3.org/1999/xlink" xml:space="preserve" xmlns:serif="http://www.serif.com/" style="fill-rule:evenodd;clip-rule:evenodd;stroke-linejoin:round;stroke-miterlimit:2;">
    <path d="M42.757,4C43.553,4 44.316,4.316 44.879,4.879C46.939,6.939 52.061,12.061 54.121,14.121C54.684,14.684 55,15.447 55,16.243C55,22.224 55,48.122 55,57C55,58.657 53.657,60 52,60C43.671,60 20.329,60 12,60C10.343,60 9,58.657 9,57C9,47.28 9,16.72 9,7C9,6.204 9.316,5.441 9.879,4.879C10.441,4.316 11.204,4 12,4C19.308,4 37.794,4 42.757,4Z" style="fill:rgb(239,216,29);"/>
    <path d="M42.757,4C43.553,4 44.316,4.316 44.879,4.879L54.121,14.121C54.684,14.684 55,15.447 55,16.243L55,57C55,58.657 53.657,60 52,60L12,60C10.343,60 9,58.657 9,57L9,7C9,6.204 9.316,5.441 9.879,4.879C10.441,4.316 11.204,4 12,4L42.757,4ZM42.757,6L12,6C11.735,6 11.48,6.105 11.293,6.293C11.105,6.48 11,6.735 11,7L11,57C11,57.552 11.448,58 12,58L52,58C52.552,58 53,57.552 53,57L53,16.243C53,15.977 52.895,15.723 52.707,15.536L43.464,6.293C43.277,6.105 43.023,6 42.757,6Z" style="fill-opacity:0.75;"/>
    <path d="M43,5L54,16L43,16L43,5Z" style="fill:rgb(60,54,7);"/>
    <g transform="matrix(11,0,0,11,37.175,51.0713)">
    </g>
    <text x="26.825px" y="51.071px" style="font-family:'SegoeUI-Semibold', 'Segoe UI', sans-serif;font-weight:600;font-size:11px;fill:rgb(60,54,7);">JS</text>
    <path d="M25.451,31.448C25.62,31.575 25.721,31.778 25.738,32.006C25.771,32.26 25.687,32.641 25.535,33.123C25.451,33.377 25.367,33.58 25.299,33.732C25.215,33.859 25.148,33.96 25.08,34.011C25.013,34.087 24.929,34.112 24.861,34.087C24.777,34.087 24.71,34.036 24.625,33.986L18.205,28.987C18.07,28.885 17.986,28.759 17.918,28.606C17.851,28.454 17.834,28.175 17.834,27.82C17.834,27.465 17.851,27.211 17.918,27.059C17.986,26.881 18.07,26.754 18.205,26.653L24.625,21.679C24.71,21.629 24.777,21.578 24.861,21.578C24.929,21.552 25.013,21.578 25.08,21.629C25.148,21.679 25.215,21.781 25.299,21.933C25.367,22.085 25.451,22.288 25.535,22.517C25.687,23.024 25.771,23.405 25.738,23.633C25.721,23.887 25.62,24.09 25.451,24.217L20.631,27.82L25.451,31.448ZM30.197,38.35C30.146,38.502 30.079,38.604 29.961,38.68C29.843,38.731 29.708,38.756 29.573,38.756C29.405,38.756 29.253,38.731 29.068,38.654C28.899,38.604 28.764,38.502 28.63,38.375C28.495,38.248 28.411,38.096 28.343,37.919C28.276,37.741 28.293,37.538 28.343,37.31L33.803,18.888C33.837,18.736 33.921,18.634 34.039,18.558C34.157,18.508 34.292,18.457 34.444,18.457C34.595,18.457 34.764,18.508 34.932,18.558C35.101,18.634 35.252,18.736 35.37,18.863C35.505,18.99 35.589,19.142 35.657,19.32C35.707,19.497 35.707,19.7 35.64,19.929L30.197,38.35ZM38.549,24.217C38.363,24.09 38.279,23.887 38.246,23.633C38.229,23.405 38.296,23.024 38.465,22.517C38.549,22.288 38.633,22.085 38.701,21.933C38.768,21.781 38.852,21.679 38.92,21.629C38.987,21.578 39.054,21.552 39.139,21.578C39.206,21.578 39.29,21.629 39.375,21.679L45.795,26.653C45.913,26.754 46.014,26.881 46.082,27.059C46.132,27.211 46.166,27.465 46.166,27.82C46.166,28.175 46.132,28.454 46.082,28.606C46.014,28.759 45.913,28.885 45.795,28.987L39.375,33.986C39.29,34.036 39.206,34.087 39.139,34.087C39.054,34.112 38.987,34.087 38.92,34.011C38.852,33.96 38.768,33.859 38.701,33.732C38.633,33.58 38.549,33.377 38.465,33.123C38.296,32.641 38.229,32.26 38.246,32.006C38.279,31.778 38.363,31.575 38.549,31.448L43.369,27.82L38.549,24.217Z" style="fill-opacity:0.7;"/>
</svg>
