<?xml version="1.0" encoding="UTF-8" standalone="no"?>
<!DOCTYPE svg PUBLIC "-//W3C//DTD SVG 1.1//EN" "http://www.w3.org/Graphics/SVG/1.1/DTD/svg11.dtd">
<svg width="100%" height="100%" viewBox="0 0 64 64" version="1.1" xmlns="http://www.w3.org/2000/svg" xmlns:xlink="http://www.w3.org/1999/xlink" xml:space="preserve" xmlns:serif="http://www.serif.com/" style="fill-rule:evenodd;clip-rule:evenodd;stroke-linejoin:round;stroke-miterlimit:2;">
    <path d="M42.757,4C43.553,4 44.316,4.316 44.879,4.879C46.939,6.939 52.061,12.061 54.121,14.121C54.684,14.684 55,15.447 55,16.243C55,22.224 55,48.122 55,57C55,58.657 53.657,60 52,60C43.671,60 20.329,60 12,60C10.343,60 9,58.657 9,57C9,47.28 9,16.72 9,7C9,6.204 9.316,5.441 9.879,4.879C10.441,4.316 11.204,4 12,4C19.308,4 37.794,4 42.757,4Z" style="fill:rgb(229,78,62);"/>
    <path d="M42.757,4C43.553,4 44.316,4.316 44.879,4.879L54.121,14.121C54.684,14.684 55,15.447 55,16.243L55,57C55,58.657 53.657,60 52,60L12,60C10.343,60 9,58.657 9,57L9,7C9,6.204 9.316,5.441 9.879,4.879C10.441,4.316 11.204,4 12,4L42.757,4ZM42.757,6L12,6C11.735,6 11.48,6.105 11.293,6.293C11.105,6.48 11,6.735 11,7L11,57C11,57.552 11.448,58 12,58L52,58C52.552,58 53,57.552 53,57L53,16.243C53,15.977 52.895,15.723 52.707,15.536L43.464,6.293C43.277,6.105 43.023,6 42.757,6Z" style="fill-opacity:0.75;"/>
    <path d="M43,5L54,16L43,16L43,5Z" style="fill:rgb(57,20,16);"/>
    <g transform="matrix(11,0,0,11,42.2454,51.0713)">
    </g>
    <text x="21.755px" y="51.071px" style="font-family:'SegoeUI-Semibold', 'Segoe UI', sans-serif;font-weight:600;font-size:11px;fill:white;">SV<tspan x="34.575px " y="51.071px ">G</tspan></text>
    <g transform="matrix(1,0,0,1,0,1)">
        <path d="M19.622,30.018C20.565,27.089 22.519,24.612 25.073,23L17,23C16.448,23 16,22.552 16,22C16,21.448 16.448,21 17,21L28.126,21C28.571,19.276 30.138,18 32,18C33.862,18 35.429,19.276 35.874,21L47,21C47.552,21 48,21.448 48,22C48,22.552 47.552,23 47,23L38.927,23C41.481,24.612 43.435,27.089 44.378,30.018C46.408,30.208 48,31.92 48,34C48,36.208 46.208,38 44,38C41.792,38 40,36.208 40,34C40,32.37 40.977,30.967 42.377,30.344C41.272,27.212 38.788,24.728 35.656,23.623C35.033,25.023 33.63,26 32,26C30.37,26 28.967,25.023 28.344,23.623C25.212,24.728 22.728,27.212 21.623,30.344C23.023,30.967 24,32.37 24,34C24,36.208 22.208,38 20,38C17.792,38 16,36.208 16,34C16,31.92 17.592,30.208 19.622,30.018ZM20,32C18.896,32 18,32.896 18,34C18,35.104 18.896,36 20,36C21.104,36 22,35.104 22,34C22,32.896 21.104,32 20,32ZM44,32C42.896,32 42,32.896 42,34C42,35.104 42.896,36 44,36C45.104,36 46,35.104 46,34C46,32.896 45.104,32 44,32ZM32,20C30.896,20 30,20.896 30,22C30,23.104 30.896,24 32,24C33.104,24 34,23.104 34,22C34,20.896 33.104,20 32,20Z" style="fill:white;fill-opacity:0.9;"/>
    </g>
</svg>
