<?xml version="1.0" encoding="UTF-8" standalone="no"?>
<!DOCTYPE svg PUBLIC "-//W3C//DTD SVG 1.1//EN" "http://www.w3.org/Graphics/SVG/1.1/DTD/svg11.dtd">
<svg width="100%" height="100%" viewBox="0 0 64 64" version="1.1" xmlns="http://www.w3.org/2000/svg" xmlns:xlink="http://www.w3.org/1999/xlink" xml:space="preserve" xmlns:serif="http://www.serif.com/" style="fill-rule:evenodd;clip-rule:evenodd;stroke-linejoin:round;stroke-miterlimit:2;">
    <path d="M42.757,4C43.553,4 44.316,4.316 44.879,4.879C46.939,6.939 52.061,12.061 54.121,14.121C54.684,14.684 55,15.447 55,16.243C55,22.224 55,48.122 55,57C55,58.657 53.657,60 52,60C43.671,60 20.329,60 12,60C10.343,60 9,58.657 9,57C9,47.28 9,16.72 9,7C9,6.204 9.316,5.441 9.879,4.879C10.441,4.316 11.204,4 12,4C19.308,4 37.794,4 42.757,4Z" style="fill:rgb(72,121,52);"/>
    <path d="M42.757,4C43.553,4 44.316,4.316 44.879,4.879L54.121,14.121C54.684,14.684 55,15.447 55,16.243L55,57C55,58.657 53.657,60 52,60L12,60C10.343,60 9,58.657 9,57L9,7C9,6.204 9.316,5.441 9.879,4.879C10.441,4.316 11.204,4 12,4L42.757,4ZM42.757,6L12,6C11.735,6 11.48,6.105 11.293,6.293C11.105,6.48 11,6.735 11,7L11,57C11,57.552 11.448,58 12,58L52,58C52.552,58 53,57.552 53,57L53,16.243C53,15.977 52.895,15.723 52.707,15.536L43.464,6.293C43.277,6.105 43.023,6 42.757,6Z" style="fill-opacity:0.75;"/>
    <path d="M43,5L54,16L43,16L43,5Z" style="fill:rgb(18,30,13);"/>
    <g transform="matrix(10,0,0,10,50.3105,50.7012)">
    </g>
    <text x="13.689px" y="50.701px" style="font-family:'SegoeUI-Semibold', 'Segoe UI', sans-serif;font-weight:600;font-size:10px;fill:white;">TNZBA<tspan x="44.793px " y="50.701px ">T</tspan></text>
    <g transform="matrix(1,0,0,1,3.5,-6.5)">
        <g id="page">
            <g>
                <g transform="matrix(1,0,0,1,-1,-4)">
                    <path d="M41,43.5C41,43.224 40.776,43 40.5,43L31.5,43C31.224,43 31,43.224 31,43.5L31,44.5C31,44.776 31.224,45 31.5,45L40.5,45C40.776,45 41,44.776 41,44.5L41,43.5Z" style="fill:white;"/>
                </g>
                <path d="M25,26.6C25,25.716 24.284,25 23.4,25L18.6,25C17.716,25 17,25.716 17,26.6L17,31.4C17,32.284 17.716,33 18.6,33L23.4,33C24.284,33 25,32.284 25,31.4L25,26.6ZM23.4,26.6L18.6,26.6L18.6,31.4L23.4,31.4L23.4,26.6Z" style="fill:white;"/>
                <g transform="matrix(1,0,0,1,0,11)">
                    <path d="M25,26.6C25,25.716 24.284,25 23.4,25L18.6,25C17.716,25 17,25.716 17,26.6L17,31.4C17,32.284 17.716,33 18.6,33L23.4,33C24.284,33 25,32.284 25,31.4L25,26.6ZM23.4,26.6L18.6,26.6L18.6,31.4L23.4,31.4L23.4,26.6Z" style="fill:white;"/>
                </g>
                <g transform="matrix(1,0,0,1,-1,0)">
                    <path d="M34.978,30.585L39.295,26.291C39.686,25.902 40.32,25.903 40.709,26.295C41.098,26.686 41.097,27.32 40.705,27.709L35.678,32.709C35.49,32.896 35.235,33.001 34.97,33C34.704,32.999 34.45,32.893 34.263,32.704L31.29,29.704C30.901,29.312 30.904,28.678 31.296,28.29C31.688,27.901 32.322,27.904 32.71,28.296L34.978,30.585Z" style="fill:white;"/>
                </g>
            </g>
        </g>
    </g>
</svg>
