<?xml version="1.0" encoding="UTF-8" standalone="no"?>
<!DOCTYPE svg PUBLIC "-//W3C//DTD SVG 1.1//EN" "http://www.w3.org/Graphics/SVG/1.1/DTD/svg11.dtd">
<svg width="100%" height="100%" viewBox="0 0 64 64" version="1.1" xmlns="http://www.w3.org/2000/svg" xmlns:xlink="http://www.w3.org/1999/xlink" xml:space="preserve" xmlns:serif="http://www.serif.com/" style="fill-rule:evenodd;clip-rule:evenodd;stroke-miterlimit:1.5;">
    <path d="M42.757,4C43.553,4 44.316,4.316 44.879,4.879C46.939,6.939 52.061,12.061 54.121,14.121C54.684,14.684 55,15.447 55,16.243L55,57C55,58.657 53.657,60 52,60L12,60C10.343,60 9,58.657 9,57L9,7C9,6.204 9.316,5.441 9.879,4.879C10.441,4.316 11.204,4 12,4L42.757,4Z" style="fill:#e5d898;"/>
    <path d="M42.757,4C43.553,4 44.316,4.316 44.879,4.879L54.121,14.121C54.684,14.684 55,15.447 55,16.243L55,57C55,58.657 53.657,60 52,60L12,60C10.343,60 9,58.657 9,57L9,7C9,6.204 9.316,5.441 9.879,4.879C10.441,4.316 11.204,4 12,4L42.757,4ZM42.757,6L12,6C11.735,6 11.48,6.105 11.293,6.293C11.105,6.48 11,6.735 11,7L11,57C11,57.552 11.448,58 12,58L52,58C52.552,58 53,57.552 53,57L53,16.243C53,15.977 52.895,15.723 52.707,15.536L43.464,6.293C43.277,6.105 43.023,6 42.757,6Z" style="fill-opacity:0.75;"/>
    <g>
        <rect x="15" y="18.875" width="34" height="21.25" style="fill:none;stroke:#000;stroke-width:0.85px;"/>
    </g>
    <path d="M20.525,22.488L15,22.488L15,22.063L49,22.063L49,22.488L44.75,22.488L44.75,24.599L49,24.599L49,25.024L44.75,25.024L44.75,40.125L44.325,40.125L44.325,37.801L38.8,37.801L38.8,40.125L38.375,40.125L38.375,37.801L32.85,37.801L32.85,40.125L32.425,40.125L32.425,37.801L26.9,37.801L26.9,40.125L26.475,40.125L26.475,37.801L20.95,37.801L20.95,40.125L20.525,40.125L20.525,37.801L15,37.801L15,37.376L20.525,37.376L20.525,35.246L15,35.246L15,34.821L20.525,34.821L20.525,32.69L15,32.69L15,32.265L20.525,32.265L20.525,30.135L15,30.135L15,29.71L20.525,29.71L20.525,27.579L15,27.579L15,27.154L20.525,27.154L20.525,25.024L15,25.024L15,24.599L20.525,24.599L20.525,22.488ZM38.375,34.821L38.375,32.69L32.85,32.69L32.85,34.821L38.375,34.821ZM32.85,37.376L38.375,37.376L38.375,35.246L32.85,35.246L32.85,37.376ZM26.9,37.376L32.425,37.376L32.425,35.246L26.9,35.246L26.9,37.376ZM44.325,32.265L44.325,30.135L38.8,30.135L38.8,32.265L44.325,32.265ZM44.325,37.376L44.325,35.246L38.8,35.246L38.8,37.376L44.325,37.376ZM44.325,22.488L38.8,22.488L38.8,24.599L44.325,24.599L44.325,22.488ZM42.033,24.4L40.948,24.4L40.948,22.752L42.033,22.752L42.033,22.947L41.166,22.947L41.166,23.399L42.033,23.399L42.033,23.593L41.166,23.593L41.166,24.205L42.033,24.205L42.033,24.4ZM44.325,34.821L44.325,32.69L38.8,32.69L38.8,34.821L44.325,34.821ZM20.95,30.135L20.95,32.265L26.475,32.265L26.475,30.135L20.95,30.135ZM38.375,25.024L32.85,25.024L32.85,27.154L38.375,27.154L38.375,25.024ZM20.95,25.024L20.95,27.154L26.475,27.154L26.475,25.024L20.95,25.024ZM32.425,25.024L26.9,25.024L26.9,27.154L32.425,27.154L32.425,25.024ZM20.95,32.69L20.95,34.821L26.475,34.821L26.475,32.69L20.95,32.69ZM20.95,27.579L20.95,29.71L26.475,29.71L26.475,27.579L20.95,27.579ZM38.375,32.265L38.375,30.135L32.85,30.135L32.85,32.265L38.375,32.265ZM38.375,29.71L38.375,27.579L32.85,27.579L32.85,29.71L38.375,29.71ZM26.9,34.821L32.425,34.821L32.425,32.69L26.9,32.69L26.9,34.821ZM44.325,29.71L44.325,27.579L38.8,27.579L38.8,29.71L44.325,29.71ZM26.475,22.488L20.95,22.488L20.95,24.599L26.475,24.599L26.475,22.488ZM24.341,23.893C24.341,23.975 24.325,24.047 24.294,24.11C24.263,24.173 24.222,24.224 24.169,24.265C24.107,24.313 24.039,24.348 23.964,24.369C23.89,24.39 23.797,24.4 23.682,24.4L23.098,24.4L23.098,22.752L23.586,22.752C23.706,22.752 23.796,22.756 23.855,22.765C23.916,22.774 23.973,22.793 24.027,22.821C24.087,22.852 24.132,22.893 24.159,22.943C24.186,22.993 24.2,23.052 24.2,23.122C24.2,23.2 24.18,23.267 24.14,23.322C24.1,23.377 24.047,23.421 23.981,23.454L23.981,23.462C24.092,23.485 24.18,23.535 24.245,23.61C24.308,23.684 24.341,23.779 24.341,23.893ZM24.113,23.902C24.113,23.836 24.103,23.783 24.082,23.744C24.063,23.705 24.026,23.672 23.974,23.644C23.939,23.626 23.895,23.614 23.844,23.609C23.794,23.603 23.733,23.6 23.661,23.6L23.316,23.6L23.316,24.213L23.607,24.213C23.702,24.213 23.781,24.208 23.843,24.199C23.904,24.188 23.954,24.17 23.993,24.143C24.035,24.114 24.064,24.081 24.084,24.045C24.103,24.008 24.113,23.961 24.113,23.902ZM23.972,23.151C23.972,23.111 23.965,23.077 23.952,23.049C23.939,23.022 23.917,23 23.888,22.983C23.853,22.964 23.811,22.952 23.762,22.947C23.712,22.941 23.651,22.939 23.578,22.939L23.316,22.939L23.316,23.415L23.6,23.415C23.668,23.415 23.724,23.411 23.763,23.405C23.804,23.398 23.842,23.383 23.877,23.36C23.911,23.338 23.936,23.31 23.95,23.275C23.965,23.24 23.972,23.198 23.972,23.151ZM26.9,27.579L26.9,29.71L32.425,29.71L32.425,27.579L26.9,27.579ZM32.425,22.488L26.9,22.488L26.9,24.599L32.425,24.599L32.425,22.488ZM30.32,24.28C30.28,24.298 30.243,24.315 30.21,24.33C30.178,24.346 30.134,24.362 30.082,24.379C30.036,24.393 29.987,24.405 29.934,24.414C29.882,24.425 29.824,24.43 29.76,24.43C29.64,24.43 29.532,24.414 29.434,24.38C29.336,24.346 29.252,24.294 29.18,24.222C29.108,24.152 29.053,24.063 29.013,23.955C28.973,23.847 28.954,23.721 28.954,23.578C28.954,23.442 28.972,23.321 29.011,23.213C29.05,23.106 29.105,23.016 29.177,22.942C29.247,22.871 29.332,22.816 29.43,22.778C29.53,22.741 29.64,22.722 29.761,22.722C29.85,22.722 29.938,22.733 30.026,22.754C30.115,22.776 30.212,22.813 30.32,22.867L30.32,23.128L30.303,23.128C30.213,23.051 30.123,22.996 30.034,22.961C29.945,22.926 29.849,22.909 29.747,22.909C29.663,22.909 29.589,22.923 29.521,22.95C29.455,22.977 29.396,23.019 29.343,23.075C29.292,23.131 29.252,23.201 29.224,23.286C29.196,23.37 29.181,23.467 29.181,23.578C29.181,23.694 29.197,23.793 29.228,23.876C29.26,23.96 29.3,24.028 29.35,24.08C29.402,24.135 29.462,24.176 29.53,24.202C29.6,24.227 29.673,24.24 29.749,24.24C29.855,24.24 29.954,24.222 30.046,24.187C30.138,24.15 30.224,24.096 30.305,24.023L30.32,24.023L30.32,24.28ZM38.375,22.488L32.85,22.488L32.85,24.599L38.375,24.599L38.375,22.488ZM36.39,23.578C36.39,23.728 36.357,23.863 36.292,23.985C36.226,24.107 36.139,24.201 36.032,24.268C35.956,24.315 35.872,24.348 35.779,24.369C35.686,24.39 35.565,24.4 35.414,24.4L34.998,24.4L34.998,22.752L35.409,22.752C35.57,22.752 35.697,22.764 35.792,22.788C35.887,22.811 35.968,22.842 36.033,22.883C36.145,22.952 36.233,23.046 36.296,23.162C36.359,23.279 36.39,23.417 36.39,23.578ZM36.161,23.575C36.161,23.445 36.139,23.337 36.094,23.248C36.049,23.159 35.981,23.089 35.892,23.038C35.827,23.002 35.758,22.976 35.685,22.963C35.612,22.947 35.524,22.941 35.423,22.941L35.216,22.941L35.216,24.212L35.423,24.212C35.528,24.212 35.62,24.205 35.698,24.188C35.777,24.173 35.85,24.144 35.915,24.103C35.997,24.05 36.058,23.981 36.099,23.895C36.14,23.81 36.161,23.703 36.161,23.575ZM20.95,37.376L26.475,37.376L26.475,35.246L20.95,35.246L20.95,37.376ZM44.325,27.154L44.325,25.024L38.8,25.024L38.8,27.154L44.325,27.154ZM26.9,30.135L26.9,32.265L32.425,32.265L32.425,30.135L26.9,30.135ZM18.617,24.4L18.383,24.4L18.221,23.941L17.509,23.941L17.348,24.4L17.125,24.4L17.725,22.752L18.017,22.752L18.617,24.4ZM18.154,23.752L17.865,22.943L17.575,23.752L18.154,23.752ZM30.074,21.553L29.84,21.553L29.679,21.094L28.965,21.094L28.804,21.553L28.582,21.553L29.181,19.904L29.474,19.904L30.074,21.553ZM29.611,20.905L29.322,20.096L29.032,20.905L29.611,20.905ZM31.221,21.475C31.152,21.508 31.086,21.534 31.023,21.553C30.961,21.571 30.895,21.58 30.825,21.58C30.736,21.58 30.654,21.567 30.58,21.541C30.505,21.515 30.441,21.475 30.388,21.422C30.334,21.369 30.292,21.302 30.263,21.22C30.234,21.139 30.218,21.044 30.218,20.936C30.218,20.734 30.274,20.575 30.385,20.46C30.496,20.345 30.643,20.288 30.825,20.288C30.896,20.288 30.966,20.297 31.034,20.317C31.102,20.337 31.164,20.362 31.221,20.391L31.221,20.622L31.21,20.622C31.147,20.572 31.081,20.534 31.013,20.508C30.946,20.482 30.881,20.468 30.816,20.468C30.699,20.468 30.605,20.508 30.536,20.588C30.468,20.666 30.434,20.782 30.434,20.936C30.434,21.085 30.467,21.2 30.534,21.281C30.601,21.36 30.695,21.4 30.816,21.4C30.858,21.4 30.901,21.394 30.944,21.383C30.988,21.372 31.028,21.358 31.062,21.34C31.092,21.325 31.121,21.309 31.147,21.292C31.174,21.274 31.195,21.258 31.21,21.246L31.221,21.246L31.221,21.475ZM32.131,21.541C32.092,21.552 32.049,21.56 32.003,21.567C31.957,21.574 31.916,21.577 31.88,21.577C31.753,21.577 31.657,21.543 31.592,21.475C31.527,21.407 31.493,21.298 31.493,21.149L31.493,20.491L31.353,20.491L31.353,20.316L31.493,20.316L31.493,19.961L31.702,19.961L31.702,20.316L32.131,20.316L32.131,20.491L31.702,20.491L31.702,21.054C31.702,21.119 31.703,21.17 31.706,21.207C31.709,21.243 31.719,21.277 31.737,21.309C31.753,21.338 31.776,21.36 31.804,21.374C31.833,21.388 31.876,21.394 31.935,21.394C31.968,21.394 32.003,21.389 32.041,21.38C32.077,21.37 32.104,21.361 32.12,21.354L32.131,21.354L32.131,21.541ZM32.607,20.109L32.372,20.109L32.372,19.893L32.607,19.893L32.607,20.109ZM32.594,21.553L32.386,21.553L32.386,20.316L32.594,20.316L32.594,21.553ZM34.061,20.935C34.061,21.136 34.009,21.295 33.907,21.412C33.803,21.529 33.665,21.587 33.492,21.587C33.317,21.587 33.177,21.529 33.074,21.412C32.972,21.295 32.921,21.136 32.921,20.935C32.921,20.733 32.972,20.574 33.074,20.458C33.177,20.34 33.317,20.282 33.492,20.282C33.665,20.282 33.803,20.34 33.907,20.458C34.009,20.574 34.061,20.733 34.061,20.935ZM33.847,20.935C33.847,20.775 33.816,20.656 33.753,20.578C33.69,20.5 33.603,20.461 33.492,20.461C33.379,20.461 33.29,20.5 33.228,20.578C33.166,20.656 33.135,20.775 33.135,20.935C33.135,21.09 33.166,21.207 33.229,21.288C33.292,21.367 33.38,21.407 33.492,21.407C33.602,21.407 33.689,21.368 33.752,21.289C33.815,21.209 33.847,21.091 33.847,20.935ZM35.418,21.553L35.21,21.553L35.21,20.849C35.21,20.792 35.207,20.738 35.2,20.689C35.193,20.639 35.182,20.6 35.164,20.572C35.145,20.541 35.119,20.518 35.084,20.504C35.049,20.487 35.005,20.48 34.949,20.48C34.893,20.48 34.833,20.494 34.771,20.522C34.709,20.55 34.649,20.586 34.592,20.629L34.592,21.553L34.384,21.553L34.384,20.316L34.592,20.316L34.592,20.453C34.658,20.4 34.725,20.357 34.794,20.328C34.864,20.297 34.934,20.282 35.007,20.282C35.142,20.282 35.243,20.322 35.313,20.402C35.383,20.483 35.418,20.599 35.418,20.75L35.418,21.553Z"/>
    <path d="M43,5L54,16L43,16L43,5Z" style="fill:#393626;"/>
    <path d="M25.552,51.071L24.022,51.071L22.443,48.246C22.396,48.16 22.344,48.038 22.287,47.881L22.265,47.881C22.233,47.959 22.179,48.081 22.104,48.246L20.477,51.071L18.935,51.071L21.46,47.198L19.139,43.369L20.702,43.369L22.094,45.968C22.183,46.14 22.264,46.312 22.335,46.484L22.351,46.484C22.455,46.259 22.545,46.079 22.62,45.947L24.065,43.369L25.504,43.369L23.13,47.188L25.552,51.071ZM26.605,51.071L26.605,43.369L28.829,43.369C31.668,43.369 33.088,44.62 33.088,47.123C33.088,48.312 32.694,49.267 31.907,49.989C31.119,50.71 30.062,51.071 28.738,51.071L26.605,51.071ZM27.878,44.454L27.878,49.991L28.899,49.991C29.797,49.991 30.497,49.744 30.996,49.25C31.496,48.756 31.745,48.058 31.745,47.155C31.745,45.354 30.813,44.454 28.947,44.454L27.878,44.454ZM38.99,44.454L36.777,44.454L36.777,51.071L35.499,51.071L35.499,44.454L33.291,44.454L33.291,43.369L38.99,43.369L38.99,44.454ZM39.764,50.765L39.764,49.449C39.882,49.556 40.023,49.653 40.186,49.739C40.349,49.825 40.522,49.897 40.704,49.956C40.887,50.016 41.069,50.061 41.252,50.093C41.435,50.126 41.603,50.142 41.757,50.142C42.294,50.142 42.694,50.052 42.957,49.873C43.22,49.694 43.352,49.435 43.352,49.094C43.352,48.912 43.308,48.753 43.22,48.619C43.133,48.485 43.01,48.362 42.853,48.251C42.695,48.14 42.51,48.034 42.297,47.932C42.084,47.83 41.855,47.723 41.612,47.612C41.35,47.472 41.107,47.331 40.881,47.188C40.656,47.044 40.46,46.886 40.293,46.712C40.127,46.539 39.996,46.343 39.901,46.124C39.806,45.906 39.759,45.65 39.759,45.356C39.759,44.995 39.84,44.68 40.003,44.414C40.166,44.147 40.381,43.927 40.648,43.753C40.915,43.579 41.218,43.45 41.558,43.366C41.898,43.282 42.246,43.24 42.6,43.24C43.406,43.24 43.993,43.331 44.362,43.514L44.362,44.776C43.925,44.461 43.363,44.303 42.675,44.303C42.486,44.303 42.297,44.321 42.109,44.357C41.921,44.393 41.752,44.452 41.604,44.534C41.455,44.617 41.334,44.722 41.241,44.851C41.148,44.98 41.102,45.136 41.102,45.319C41.102,45.49 41.137,45.639 41.209,45.764C41.281,45.89 41.385,46.004 41.523,46.108C41.661,46.212 41.829,46.313 42.028,46.412C42.227,46.51 42.457,46.617 42.718,46.731C42.987,46.871 43.24,47.018 43.478,47.172C43.716,47.326 43.926,47.496 44.107,47.682C44.288,47.868 44.431,48.075 44.536,48.302C44.642,48.53 44.695,48.788 44.695,49.078C44.695,49.469 44.616,49.798 44.459,50.067C44.301,50.335 44.089,50.554 43.822,50.722C43.555,50.89 43.248,51.012 42.901,51.087C42.554,51.162 42.187,51.2 41.8,51.2C41.671,51.2 41.512,51.19 41.324,51.17C41.137,51.151 40.944,51.122 40.747,51.084C40.55,51.047 40.364,51.001 40.189,50.947C40.013,50.894 39.872,50.833 39.764,50.765Z" style="fill:#393939;"/>
</svg>
