<?xml version="1.0" encoding="UTF-8" standalone="no"?>
<!DOCTYPE svg PUBLIC "-//W3C//DTD SVG 1.1//EN" "http://www.w3.org/Graphics/SVG/1.1/DTD/svg11.dtd">
<svg width="14px" height="15px" version="1.1" xmlns="http://www.w3.org/2000/svg" xmlns:xlink="http://www.w3.org/1999/xlink" xml:space="preserve" xmlns:serif="http://www.serif.com/" style="fill-rule:evenodd;clip-rule:evenodd;stroke-linejoin:round;stroke-miterlimit:2;">
    <path id="path4" d="M14,12C14,12.552 13.552,13 13,13C10.423,13 3.577,13 1,13C0.448,13 0,12.552 0,12C0,9.908 0,5.092 0,3C0,2.448 0.448,2 1,2C3.577,2 10.423,2 13,2C13.552,2 14,2.448 14,3C14,5.092 14,9.908 14,12ZM1,3L1,12L13,12L13,3L1,3Z" style="fill:rgb(37,37,37);fill-rule:nonzero;"/>
</svg>
