<?xml version="1.0" encoding="UTF-8" standalone="no"?>
<!DOCTYPE svg PUBLIC "-//W3C//DTD SVG 1.1//EN" "http://www.w3.org/Graphics/SVG/1.1/DTD/svg11.dtd">
<svg width="18px" height="18px" version="1.1" xmlns="http://www.w3.org/2000/svg" xmlns:xlink="http://www.w3.org/1999/xlink" xml:space="preserve" xmlns:serif="http://www.serif.com/" style="fill-rule:evenodd;clip-rule:evenodd;stroke-linejoin:round;stroke-miterlimit:2;">
    <rect x="0" y="0" width="18" height="18" style="fill-opacity:0;"/>
    <g transform="matrix(0.75,0,0,0.571429,2.25,3.57143)">
        <path d="M13,6L5,6L5,13L13,13L13,6ZM6.016,7.334L6.016,11.666L11.984,11.666L11.984,7.334L6.016,7.334Z" style="fill:white;fill-opacity:0.8;"/>
    </g>
    <g transform="matrix(0.916667,0,0,0.916667,0.75,-0.166667)">
        <path d="M9,3.4C5.357,3.4 2.4,6.357 2.4,10C2.4,13.643 5.357,16.6 9,16.6C12.643,16.6 15.6,13.643 15.6,10C15.6,6.357 12.643,3.4 9,3.4ZM9,4.6C11.98,4.6 14.4,7.02 14.4,10C14.4,12.98 11.98,15.4 9,15.4C6.02,15.4 3.6,12.98 3.6,10C3.6,7.02 6.02,4.6 9,4.6Z" style="fill:white;fill-opacity:0.8;"/>
    </g>
</svg>
