<?xml version="1.0" encoding="UTF-8" standalone="no"?>
<svg
   width="18px"
   height="17px"
   version="1.1"
   xml:space="preserve"
   style="fill-rule:evenodd;clip-rule:evenodd;stroke-linejoin:round;stroke-miterlimit:2;"
   id="svg1414"
   sodipodi:docname="x_prev_eye_transp.svg"
   inkscape:version="1.2.1 (9c6d41e410, 2022-07-14)"
   xmlns:inkscape="http://www.inkscape.org/namespaces/inkscape"
   xmlns:sodipodi="http://sodipodi.sourceforge.net/DTD/sodipodi-0.dtd"
   xmlns:xlink="http://www.w3.org/1999/xlink"
   xmlns="http://www.w3.org/2000/svg"
   xmlns:svg="http://www.w3.org/2000/svg"><defs
   id="defs1418"><linearGradient
     inkscape:collect="always"
     id="linearGradient3559"><stop
       style="stop-color:#000000;stop-opacity:1;"
       offset="0"
       id="stop3555" /><stop
       style="stop-color:#000000;stop-opacity:0;"
       offset="1"
       id="stop3557" /></linearGradient><linearGradient
     inkscape:collect="always"
     xlink:href="#linearGradient3559"
     id="linearGradient3561"
     x1="9.0022936"
     y1="13.096883"
     x2="9.0022936"
     y2="4.9616437"
     gradientUnits="userSpaceOnUse"
     spreadMethod="pad" /></defs><sodipodi:namedview
   id="namedview1416"
   pagecolor="#ffffff"
   bordercolor="#000000"
   borderopacity="0.25"
   inkscape:showpageshadow="2"
   inkscape:pageopacity="0.0"
   inkscape:pagecheckerboard="0"
   inkscape:deskcolor="#d1d1d1"
   showgrid="true"
   inkscape:zoom="60.411765"
   inkscape:cx="9.013145"
   inkscape:cy="8.5082765"
   inkscape:window-width="2560"
   inkscape:window-height="1377"
   inkscape:window-x="-8"
   inkscape:window-y="-8"
   inkscape:window-maximized="1"
   inkscape:current-layer="g1412"><inkscape:grid
     type="xygrid"
     id="grid1900" /></sodipodi:namedview>
    <rect
   x="0"
   y="0"
   width="18"
   height="17"
   style="fill:white;fill-opacity:0;"
   id="rect1408" />
    <g
   transform="matrix(0.848485,0,0,0.848485,1.36364,1.36364)"
   id="g1412">
        <path
   d="M 9,3.375 C 5.25,3.375 2.047,5.708 0.75,9 2.047,12.293 5.25,14.625 9,14.625 12.75,14.625 15.953,12.293 17.25,9 15.953,5.708 12.75,3.375 9,3.375 Z m 0,9.75 C 6.723,13.125 4.875,11.277 4.875,9 c 1.7618094,0 6.517777,0 8.25,0 0,2.277 -1.848,4.125 -4.125,4.125 z M 6.643,9 c 0,1.304 1.053,2.357 2.357,2.357 1.304,0 2.357,-1.053 2.357,-2.357 -1.155448,0 -3.5107138,0 -4.714,0 z"
   style="fill-opacity:1;fill-rule:nonzero;fill:url(#linearGradient3561)"
   id="path1410"
   sodipodi:nodetypes="scscssccscscc" />
    </g>
</svg>
