<?xml version="1.0" encoding="UTF-8" standalone="no"?>
<!DOCTYPE svg PUBLIC "-//W3C//DTD SVG 1.1//EN" "http://www.w3.org/Graphics/SVG/1.1/DTD/svg11.dtd">
<svg width="100%" height="100%" viewBox="0 0 16 16" version="1.1" xmlns="http://www.w3.org/2000/svg" xmlns:xlink="http://www.w3.org/1999/xlink" xml:space="preserve" xmlns:serif="http://www.serif.com/" style="fill-rule:evenodd;clip-rule:evenodd;stroke-linejoin:round;stroke-miterlimit:2;">
    <g id="add_cells">
        <rect id="bg" x="-0.034" y="0" width="15.999" height="16" style="fill:#878787;fill-opacity:0;"/>
        <path id="ad" d="M12.507,9c1.932,-0 3.5,1.568 3.5,3.5c-0,1.932 -1.568,3.5 -3.5,3.5c-1.932,-0 -3.5,-1.568 -3.5,-3.5c0,-1.932 1.568,-3.5 3.5,-3.5Zm-0.5,3l-2,-0l0,1l2,-0l0,2l1,-0l-0,-2l2,-0l-0,-1l-2,-0l-0,-2l-1,-0l0,2Zm-6,-9.7l0,0.4c0,0.166 -0.134,0.3 -0.3,0.3l-1.399,-0c-0.166,-0 -0.3,-0.134 -0.3,-0.3l-0,-0.4c-0,-0.166 0.134,-0.3 0.3,-0.3l1.399,-0c0.166,-0 0.3,0.134 0.3,0.3Zm7,0l-0,0.4c-0,0.166 -0.134,0.3 -0.3,0.3l-1.4,-0c-0.165,-0 -0.3,-0.134 -0.3,-0.3l0,-0.4c0,-0.166 0.135,-0.3 0.3,-0.3l1.4,-0c0.166,-0 0.3,0.134 0.3,0.3Zm-4,0.2c0,0.276 -0.224,0.5 -0.5,0.5c-0.276,-0 -0.5,-0.224 -0.5,-0.5c0,-0.276 0.224,-0.5 0.5,-0.5c0.276,-0 0.5,0.224 0.5,0.5Zm-0.972,10.5l-5.027,-0c-0.553,-0 -1,-0.448 -1,-1l-0,-11c-0,-0.552 0.447,-1 1,-1l10.994,0c0.266,0 0.521,0.106 0.709,0.295c0.187,0.188 0.292,0.444 0.291,0.71l-0.03,7.73c-0.31,-0.203 -0.645,-0.369 -1.001,-0.491l0.036,-7.244l-10.999,-0l-0,11l5.022,0c0.001,0.008 0.001,0.017 0.002,0.025c-0.016,0.156 -0.025,0.315 -0.025,0.475c0,0.169 0.01,0.336 0.028,0.5Zm0.731,2l-7.758,-0c-0.552,-0 -1,-0.448 -1,-1l-0,-11c-0,-0.552 0.448,-1 1,-1l-0,1l-0,11l7.256,0c0.126,0.356 0.295,0.691 0.502,1Z"/>
        <path d="M8.264,11l-4.299,0l0,-7l9,0l-0,4.023c-0.151,-0.015 -0.303,-0.023 -0.458,-0.023c-0.183,-0 -0.364,0.011 -0.542,0.032l-0,-3.032l-7,0l0,5l3.801,-0c-0.207,0.309 -0.376,0.644 -0.502,1Z" style="fill-opacity:0.5;"/>
    </g>
</svg>
