<?xml version="1.0" encoding="UTF-8" standalone="no"?>
<!DOCTYPE svg PUBLIC "-//W3C//DTD SVG 1.1//EN" "http://www.w3.org/Graphics/SVG/1.1/DTD/svg11.dtd">
<svg width="16px" height="16px" version="1.1" xmlns="http://www.w3.org/2000/svg" xmlns:xlink="http://www.w3.org/1999/xlink" xml:space="preserve" xmlns:serif="http://www.serif.com/" style="fill-rule:evenodd;clip-rule:evenodd;stroke-linejoin:round;stroke-miterlimit:2;">
    <g transform="matrix(1,0,0,1,-150,-10)">
        <g id="add_cells" transform="matrix(1,0,0,1,40,0)">
            <g id="bg" transform="matrix(0.110345,0,0,0.121212,93.7793,-8.90909)">
                <rect x="147" y="156" width="145" height="132" style="fill:rgb(135,135,135);fill-opacity:0;"/>
            </g>
            <g transform="matrix(6.12323e-17,-1,1,6.12323e-17,108,27)">
                <path d="M4,14C3.735,14 3.48,13.895 3.293,13.707C3.105,13.52 3,13.265 3,13L3,5.965C3,4.88 3.88,4 4.965,4L13,4C13.552,4 14,4.448 14,5C14,5 14,5 14,5L5.049,5C4.47,5 4,5.47 4,6.049C4,8.423 4,14 4,14Z"/>
            </g>
            <g transform="matrix(6.12323e-17,-1,1,6.12323e-17,106,29)">
                <path d="M4,13C3.735,13 3.48,12.895 3.293,12.707C3.105,12.52 3,12.265 3,12L3,6.008C3,4.899 3.899,4 5.008,4C7.125,4 10.374,4 12,4C12.552,4 13,4.448 13,5C13,5 13,5 13,5L5.037,5C4.762,5 4.498,5.109 4.304,5.304C4.109,5.498 4,5.762 4,6.037C4,8.201 4,13 4,13Z"/>
            </g>
            <g transform="matrix(1,0,0,1,-19,-1)">
                <path d="M145,19C145,19 145,15.353 145,12.984C145,11.888 144.112,11 143.016,11C140.793,11 137.207,11 134.984,11C133.888,11 133,11.888 133,12.984L133,21.016C133,22.112 133.888,23 134.984,23C137.353,23 141,23 141,23C141.265,23 141.52,22.895 141.707,22.707L144.707,19.707C144.895,19.52 145,19.265 145,19ZM144,18L144,13.017C144,12.748 143.893,12.489 143.702,12.298C143.511,12.107 143.252,12 142.983,12C141.065,12 136.935,12 135.017,12C134.748,12 134.489,12.107 134.298,12.298C134.107,12.489 134,12.748 134,13.017L134,20.983C134,21.252 134.107,21.511 134.298,21.702C134.489,21.893 134.748,22 135.017,22C136.729,22 140,22 140,22L140,18L144,18ZM141,19L141,22L144,19L141,19ZM143,17L143,15L135,15L135,21L139,21L139,20L136,20L136,16L142,16L142,17L143,17ZM137,13.5C137,13.367 136.947,13.24 136.854,13.146C136.76,13.053 136.633,13 136.5,13C135.945,13 136.055,13 135.5,13C135.367,13 135.24,13.053 135.146,13.146C135.053,13.24 135,13.367 135,13.5C135,13.633 135.053,13.76 135.146,13.854C135.24,13.947 135.367,14 135.5,14C136.055,14 135.945,14 136.5,14C136.633,14 136.76,13.947 136.854,13.854C136.947,13.76 137,13.633 137,13.5ZM140,13.5C140,13.367 139.947,13.24 139.854,13.146C139.76,13.053 139.633,13 139.5,13C139.195,13 138.805,13 138.5,13C138.367,13 138.24,13.053 138.146,13.146C138.053,13.24 138,13.367 138,13.5C138,13.633 138.053,13.76 138.146,13.854C138.24,13.947 138.367,14 138.5,14C138.805,14 139.195,14 139.5,14C139.633,14 139.76,13.947 139.854,13.854C139.947,13.76 140,13.633 140,13.5ZM143,13.5C143,13.367 142.947,13.24 142.854,13.146C142.76,13.053 142.633,13 142.5,13C141.945,13 142.055,13 141.5,13C141.367,13 141.24,13.053 141.146,13.146C141.053,13.24 141,13.367 141,13.5C141,13.633 141.053,13.76 141.146,13.854C141.24,13.947 141.367,14 141.5,14C142.055,14 141.945,14 142.5,14C142.633,14 142.76,13.947 142.854,13.854C142.947,13.76 143,13.633 143,13.5Z"/>
            </g>
        </g>
    </g>
</svg>
