<?xml version="1.0" encoding="UTF-8" standalone="no"?>
<!DOCTYPE svg PUBLIC "-//W3C//DTD SVG 1.1//EN" "http://www.w3.org/Graphics/SVG/1.1/DTD/svg11.dtd">
<svg width="100%" height="100%" viewBox="0 0 16 16" version="1.1" xmlns="http://www.w3.org/2000/svg" xmlns:xlink="http://www.w3.org/1999/xlink" xml:space="preserve" xmlns:serif="http://www.serif.com/" style="fill-rule:evenodd;clip-rule:evenodd;stroke-linejoin:round;stroke-miterlimit:2;">
    <g id="add_cell">
        <rect id="bg" x="0.011" y="-0" width="15.999" height="16" style="fill:#878787;fill-opacity:0;"/>
        <path d="M12.01,8.028l-0,-3.028l-9,-0l0,7l5.028,-0c-0.019,0.164 -0.028,0.331 -0.028,0.5c0,0.169 0.009,0.336 0.028,0.5l-6.028,-0l0,-9l11,-0l-0,4.028c-0.164,-0.019 -0.331,-0.028 -0.5,-0.028c-0.169,-0 -0.336,0.009 -0.5,0.028Z" style="fill-opacity:0.5;"/>
        <path id="ad" d="M12.51,9c1.931,-0 3.499,1.568 3.499,3.5c0,1.932 -1.568,3.5 -3.499,3.5c-1.932,-0 -3.5,-1.568 -3.5,-3.5c-0,-1.932 1.568,-3.5 3.5,-3.5Zm-0.5,3l-2,-0l-0,1l2,-0l-0,2l1,-0l-0,-2l2,-0l-0,-1l-2,-0l-0,-2l-1,-0l-0,2Z"/>
        <path d="M14.01,8.256l-0,-7.256l-12.999,-0l-0,13l7.255,-0c0.126,0.356 0.296,0.691 0.503,1l-7.758,-0c-0.553,-0 -1,-0.448 -1,-1l-0,-13c-0,-0.552 0.447,-1 1,-1l12.999,-0c0.552,-0 1,0.448 1,1l-0,7.759c-0.309,-0.207 -0.644,-0.377 -1,-0.503Zm-5.5,-5.756c-0,0.133 -0.053,0.26 -0.146,0.354c-0.094,0.093 -0.221,0.146 -0.354,0.146l-1,-0c-0.132,0 -0.26,-0.053 -0.353,-0.146c-0.094,-0.094 -0.147,-0.221 -0.147,-0.354c0,-0.133 0.053,-0.26 0.147,-0.354c0.093,-0.093 0.221,-0.146 0.353,-0.146l1,-0c0.133,-0 0.26,0.053 0.354,0.146c0.093,0.094 0.146,0.221 0.146,0.354Z"/>
        <path d="M5.01,2.3c0,-0.166 -0.134,-0.3 -0.3,-0.3l-2.4,-0c-0.165,-0 -0.3,0.134 -0.3,0.3l0,0.4c0,0.166 0.135,0.3 0.3,0.3l2.4,-0c0.166,-0 0.3,-0.134 0.3,-0.3l0,-0.4Z"/>
        <path d="M13.01,2.3c-0,-0.166 -0.135,-0.3 -0.3,-0.3l-2.4,-0c-0.166,-0 -0.3,0.134 -0.3,0.3l-0,0.4c-0,0.166 0.134,0.3 0.3,0.3l2.4,-0c0.165,-0 0.3,-0.134 0.3,-0.3l-0,-0.4Z"/>
    </g>
</svg>
