<?xml version="1.0" encoding="UTF-8" standalone="no"?>
<!DOCTYPE svg PUBLIC "-//W3C//DTD SVG 1.1//EN" "http://www.w3.org/Graphics/SVG/1.1/DTD/svg11.dtd">
<svg width="16px" height="16px" version="1.1" xmlns="http://www.w3.org/2000/svg" xmlns:xlink="http://www.w3.org/1999/xlink" xml:space="preserve" xmlns:serif="http://www.serif.com/" style="fill-rule:evenodd;clip-rule:evenodd;stroke-linejoin:round;stroke-miterlimit:2;">
    <g transform="matrix(1,0,0,1,-130,-10)">
        <g id="add_cell" transform="matrix(-1,0,0,1,256,0)">
            <g id="bg" transform="matrix(0.110345,0,0,0.121212,93.7793,-8.90909)">
                <rect x="147" y="156" width="145" height="132" style="fill:rgb(135,135,135);fill-opacity:0;"/>
            </g>
            <g transform="matrix(-1,0,0,1,256,0)">
                <path d="M145,21C145,21 145,15.899 145,12.984C145,12.457 144.791,11.953 144.419,11.581C144.047,11.209 143.543,11 143.016,11C140.353,11 135.647,11 132.984,11C132.457,11 131.953,11.209 131.581,11.581C131.209,11.953 131,12.457 131,12.984L131,23.016C131,23.543 131.209,24.047 131.581,24.419C131.953,24.791 132.457,25 132.984,25C135.899,25 141,25 141,25C141.265,25 141.52,24.895 141.707,24.707L144.707,21.707C144.895,21.52 145,21.265 145,21ZM144,20L144,13.017C144,12.747 143.893,12.489 143.702,12.298C143.511,12.107 143.252,12 142.983,12C140.718,12 135.282,12 133.017,12C132.748,12 132.489,12.107 132.298,12.298C132.107,12.489 132,12.748 132,13.017L132,22.983C132,23.252 132.107,23.511 132.298,23.702C132.489,23.893 132.747,24 133.017,24C135.172,24 140,24 140,24L140,20L144,20ZM141,21L141,24L144,21L141,21ZM143,19L143,15L133,15L133,23L139,23L139,22L134,22L134,16L142,16L142,19L143,19ZM136,13.5C136,13.367 135.947,13.24 135.854,13.146C135.76,13.053 135.633,13 135.5,13C134.945,13 134.055,13 133.5,13C133.367,13 133.24,13.053 133.146,13.146C133.053,13.24 133,13.367 133,13.5C133,13.633 133.053,13.76 133.146,13.854C133.24,13.947 133.367,14 133.5,14C134.055,14 134.945,14 135.5,14C135.633,14 135.76,13.947 135.854,13.854C135.947,13.76 136,13.633 136,13.5ZM139,13.5C139,13.367 138.947,13.24 138.854,13.146C138.76,13.053 138.633,13 138.5,13C138.195,13 137.805,13 137.5,13C137.367,13 137.24,13.053 137.146,13.146C137.053,13.24 137,13.367 137,13.5C137,13.633 137.053,13.76 137.146,13.854C137.24,13.947 137.367,14 137.5,14C137.805,14 138.195,14 138.5,14C138.633,14 138.76,13.947 138.854,13.854C138.947,13.76 139,13.633 139,13.5ZM143,13.5C143,13.367 142.947,13.24 142.854,13.146C142.76,13.053 142.633,13 142.5,13C141.945,13 141.055,13 140.5,13C140.367,13 140.24,13.053 140.146,13.146C140.053,13.24 140,13.367 140,13.5C140,13.633 140.053,13.76 140.146,13.854C140.24,13.947 140.367,14 140.5,14C141.055,14 141.945,14 142.5,14C142.633,14 142.76,13.947 142.854,13.854C142.947,13.76 143,13.633 143,13.5Z"/>
            </g>
        </g>
    </g>
</svg>
