<?xml version="1.0" encoding="UTF-8" standalone="no"?>
<!DOCTYPE svg PUBLIC "-//W3C//DTD SVG 1.1//EN" "http://www.w3.org/Graphics/SVG/1.1/DTD/svg11.dtd">
<svg width="16px" height="16px" version="1.1" xmlns="http://www.w3.org/2000/svg" xmlns:xlink="http://www.w3.org/1999/xlink" xml:space="preserve" xmlns:serif="http://www.serif.com/" style="fill-rule:evenodd;clip-rule:evenodd;stroke-linejoin:round;stroke-miterlimit:2;">
    <rect x="0" y="0" width="16" height="16" style="fill-opacity:0;"/>
    <g transform="matrix(-1,0,0,1,16,0)">
        <path d="M15,13L1,13L1,14L15,14L15,13ZM11,10L1,10L1,11L11,11L11,10ZM15,7L1,7L1,8L15,8L15,7ZM11,4L1,4L1,5L11,5L11,4ZM15,1L1,1L1,2L15,2L15,1Z" style="fill:black;"/>
    </g>
</svg>
