<?xml version="1.0" encoding="UTF-8" standalone="no"?>
<!DOCTYPE svg PUBLIC "-//W3C//DTD SVG 1.1//EN" "http://www.w3.org/Graphics/SVG/1.1/DTD/svg11.dtd">
<svg width="100%" height="100%" viewBox="0 0 16 16" version="1.1" xmlns="http://www.w3.org/2000/svg" xmlns:xlink="http://www.w3.org/1999/xlink" xml:space="preserve" xmlns:serif="http://www.serif.com/" style="fill-rule:evenodd;clip-rule:evenodd;stroke-linejoin:round;stroke-miterlimit:2;">
    <g id="apply_match_lines">
        <rect id="bg" x="-0" y="0.044" width="16" height="16" style="fill:#878787;fill-opacity:0;"/>
        <path d="M7,0.044l7,0c0.552,0 1,0.448 1,1l-0,7l-3,0l-0,-1c-0,-0.552 -0.448,-1 -1,-1c-0.552,0 -1,0.448 -1,1l-0,1l-3,0l-0,-2c-1.104,0 -2,-0.896 -2,-2c-0,-1.104 0.896,-2 2,-2l-0,-2Zm2,7l-1,0l-0,-1c-0,-0.552 -0.448,-1 -1,-1c-0.552,0 -1,-0.448 -1,-1c-0,-0.552 0.448,-1 1,-1c0.552,0 1,-0.448 1,-1l-0,-1l6,0l-0,6l-1,0c-0,-1.104 -0.896,-2 -2,-2c-1.104,0 -2,0.896 -2,2Z"/>
        <path d="M-0,8.044l-0,-7c-0,-0.552 0.448,-1 1,-1l7,0l-0,3l-1,0c-0.552,0 -1,0.448 -1,1c-0,0.552 0.448,1 1,1l1,0l-0,3l-2,0c-0,1.104 -0.896,2 -2,2c-1.104,0 -2,-0.896 -2,-2l-2,0Zm7,-2l-0,1l-1,0c-0.552,0 -1,0.448 -1,1c-0,0.552 -0.448,1 -1,1c-0.552,0 -1,-0.448 -1,-1c-0,-0.552 -0.448,-1 -1,-1l-1,0l-0,-6l6,0l-0,1c-1.104,0 -2,0.896 -2,2c-0,1.104 0.896,2 2,2Z"/>
        <path d="M7,6.044l-0,1l-1,0c-0.552,0 -1,0.448 -1,1c-0,0.552 -0.448,1 -1,1c-0.552,0 -1,-0.448 -1,-1c-0,-0.552 -0.448,-1 -1,-1l-1,0l-0,-6l6,0l-0,1c-1.104,0 -2,0.896 -2,2c-0,1.104 0.896,2 2,2Z" style="fill-opacity:0.25;"/>
        <path d="M8,15.044l-7,0c-0.552,0 -1,-0.448 -1,-1l-0,-7l3,0l-0,1c-0,0.552 0.448,1 1,1c0.552,0 1,-0.448 1,-1l-0,-1l3,0l-0,2c1.104,0 2,0.896 2,2c-0,1.104 -0.896,2 -2,2l-0,2Zm-2,-7l1,0l-0,2l1,0c0.552,0 1,0.448 1,1c-0,0.552 -0.448,1 -1,1l-1,0l-0,2l-6,0l-0,-6l1,0c-0,1.104 0.896,2 2,2c1.104,0 2,-0.896 2,-2Z"/>
    </g>
</svg>
