<?xml version="1.0" encoding="UTF-8" standalone="no"?>
<!DOCTYPE svg PUBLIC "-//W3C//DTD SVG 1.1//EN" "http://www.w3.org/Graphics/SVG/1.1/DTD/svg11.dtd">
<svg width="16px" height="16px" version="1.1" xmlns="http://www.w3.org/2000/svg" xmlns:xlink="http://www.w3.org/1999/xlink" xml:space="preserve" xmlns:serif="http://www.serif.com/" style="fill-rule:evenodd;clip-rule:evenodd;stroke-linejoin:round;stroke-miterlimit:2;">
    <g transform="matrix(1,0,0,1,-210,-430)">
        <g id="apply_match_lines" transform="matrix(1,0,0,1,100,200)">
            <g id="bg" transform="matrix(0.110345,0,0,0.121212,93.7793,211.091)">
                <rect x="147" y="156" width="145" height="132" style="fill:rgb(135,135,135);fill-opacity:0;"/>
            </g>
            <g transform="matrix(1,0,0,1,-100,-200)">
                <path d="M220.994,436C220.445,436.003 220,436.45 220,437L220,438L217,438C217,438 217,436 217,436C215.896,436 215,435.104 215,434C215,432.896 215.896,432 217,432L217,430L224,430C224.552,430 225,430.448 225,431L225,438L222,438L222,437C222,436.45 221.555,436.003 221.006,436L220.994,436Z" style="fill-opacity:0.2;"/>
                <path d="M220,438L217,438C217,438 217,436 217,436C215.896,436 215,435.104 215,434C215,432.896 215.896,432 217,432L217,430L224,430C224.552,430 225,430.448 225,431L225,438L222,438L222,437C222,436.45 221.555,436.003 221.006,436L220.994,436C220.836,436.001 220.688,436.038 220.556,436.104C220.374,435.602 220.321,435.065 220.89,435.005C220.385,435.058 219.992,435.485 219.994,436.003C219.994,436.187 220.044,436.358 220.131,436.506C220.048,436.651 220,436.82 220,437L220,438L219.5,437.5L220,438ZM220.943,435.001L220.931,435.002C219.859,435.038 219,435.919 219,437L218,437C218,437 218,436.015 218,436.015C218.004,435.747 217.9,435.489 217.712,435.298C217.524,435.107 217.268,435 217,435C216.448,435 216,434.552 216,434C216,433.448 216.448,433 217,433C217.552,433 218,432.552 218,432L218,431L224,431C224,431 224,437 224,437L223,437L223,437C223,435.9 222.111,435.007 221.013,435L220.955,435.001L220.987,435L220.943,435.001ZM220.943,435.001L220.931,435.002L220.895,435.005L220.943,435.001Z"/>
            </g>
            <g transform="matrix(1,0,0,1,-100,-200)">
                <path d="M210,438L210,431C210,430.448 210.448,430 211,430L218,430L218,433L217,433C216.448,433 216,433.448 216,434C216,434.552 216.448,435 217,435L218,435L218,438L216,438C216,439.104 215.104,440 214,440C212.896,440 212,439.104 212,438L210,438Z" style="fill-opacity:0.2;"/>
                <path d="M210,438L210,431C210,430.448 210.448,430 211,430L218,430L218,433L217,433C216.448,433 216,433.448 216,434C216,434.552 216.448,435 217,435L218,435L218,438L216,438C216,439.104 215.104,440 214,440C212.896,440 212,439.104 212,438L210,438ZM211,431L217,431L217,432C215.896,432 215,432.896 215,434C215,435.104 215.896,436 217,436L217,437C217,437 216,437 216,437C215.448,437 215,437.448 215,438C215,438.552 214.552,439 214,439C213.448,439 213,438.552 213,438C213,437.448 212.552,437 212,437L211,437L211,431Z"/>
            </g>
            <g transform="matrix(6.12323e-17,-1,1,6.12323e-17,-320,455)">
                <path d="M210,438L210,431C210,430.448 210.448,430 211,430L218,430L218,433L217,433C216.448,433 216,433.448 216,434C216,434.552 216.448,435 217,435L218,435L218,438L216,438C216,439.104 215.104,440 214,440C212.896,440 212,439.104 212,438L210,438Z" style="fill-opacity:0.2;"/>
                <path d="M210,438L210,431C210,430.448 210.448,430 211,430L218,430L218,433L217,433C216.448,433 216,433.448 216,434C216,434.552 216.448,435 217,435L218,435L218,438L216,438C216,439.104 215.104,440 214,440C212.896,440 212,439.104 212,438L210,438ZM217,436L217,437C217,437 216,437 216,437C215.448,437 215,437.448 215,438C215,438.552 214.552,439 214,439C213.448,439 213,438.552 213,438C213,437.448 212.552,437 212,437L211,437L211,431L217,431L217,432C215.896,432 215,432.896 215,434C215,435.104 215.896,436 217,436Z"/>
            </g>
        </g>
    </g>
</svg>
