<?xml version="1.0" encoding="UTF-8" standalone="no"?>
<!DOCTYPE svg PUBLIC "-//W3C//DTD SVG 1.1//EN" "http://www.w3.org/Graphics/SVG/1.1/DTD/svg11.dtd">
<svg width="16px" height="16px" version="1.1" xmlns="http://www.w3.org/2000/svg" xmlns:xlink="http://www.w3.org/1999/xlink" xml:space="preserve" xmlns:serif="http://www.serif.com/" style="fill-rule:evenodd;clip-rule:evenodd;stroke-linejoin:round;stroke-miterlimit:2;">
    <g transform="matrix(1,0,0,1,-110,-210)">
        <g id="autocenter">
            <g id="bg" transform="matrix(0.110345,0,0,0.121212,93.7793,191.091)">
                <rect x="147" y="156" width="145" height="132" style="fill:rgb(135,135,135);fill-opacity:0;"/>
            </g>
            <g transform="matrix(1,0,0,1,36,-144)">
                <path d="M86,357L77,357L77,366L86,366L86,357ZM85,365L82.5,360L80,365L78,365C78,365 78,358 78,358L85,358L85,365ZM80,359C80.552,359 81,359.448 81,360C81,360.552 80.552,361 80,361C79.448,361 79,360.552 79,360C79,359.448 79.448,359 80,359Z"/>
            </g>
            <g transform="matrix(1,0,0,1,0,-1)">
                <rect x="110" y="218" width="2" height="1"/>
            </g>
            <g transform="matrix(1,0,0,1,0,-1)">
                <rect x="123" y="218" width="2" height="1"/>
            </g>
            <g transform="matrix(1,0,0,1,0,-1)">
                <rect x="117" y="224" width="1" height="2"/>
            </g>
            <g transform="matrix(1,0,0,1,0,-1)">
                <rect x="117" y="211" width="1" height="2"/>
            </g>
            <g transform="matrix(1,0,0,1,-1,-2)">
                <path d="M116,212L114.028,212C113.225,212 112.455,212.319 111.887,212.887C111.319,213.455 111,214.225 111,215.028L111,217L112,217L112,214.972C112,214.449 112.208,213.947 112.578,213.578C112.947,213.208 113.449,213 113.972,213L116,213L116,212Z"/>
            </g>
            <g transform="matrix(6.12323e-17,1,-1,6.12323e-17,337,99)">
                <path d="M116,212L114.028,212C113.225,212 112.455,212.319 111.887,212.887C111.319,213.455 111,214.225 111,215.028L111,217L112,217L112,214.972C112,214.449 112.208,213.947 112.578,213.578C112.947,213.208 113.449,213 113.972,213L116,213L116,212Z"/>
            </g>
            <g transform="matrix(-1,1.22465e-16,-1.22465e-16,-1,236,437)">
                <path d="M116,212L114.028,212C113.225,212 112.455,212.319 111.887,212.887C111.319,213.455 111,214.225 111,215.028L111,217L112,217L112,214.972C112,214.449 112.208,213.947 112.578,213.578C112.947,213.208 113.449,213 113.972,213L116,213L116,212Z"/>
            </g>
            <g transform="matrix(-1.83697e-16,-1,1,-1.83697e-16,-102,336)">
                <path d="M116,212L114.028,212C113.225,212 112.455,212.319 111.887,212.887C111.319,213.455 111,214.225 111,215.028L111,217L112,217L112,214.972C112,214.449 112.208,213.947 112.578,213.578C112.947,213.208 113.449,213 113.972,213L116,213L116,212Z"/>
            </g>
        </g>
    </g>
</svg>
