<?xml version="1.0" encoding="UTF-8" standalone="no"?>
<!DOCTYPE svg PUBLIC "-//W3C//DTD SVG 1.1//EN" "http://www.w3.org/Graphics/SVG/1.1/DTD/svg11.dtd">
<svg width="16px" height="16px" version="1.1" xmlns="http://www.w3.org/2000/svg" xmlns:xlink="http://www.w3.org/1999/xlink" xml:space="preserve" xmlns:serif="http://www.serif.com/" style="fill-rule:evenodd;clip-rule:evenodd;stroke-linejoin:round;stroke-miterlimit:2;">
    <g transform="matrix(1,0,0,1,-190,-50)">
        <g id="autoexpose" transform="matrix(1,0,0,1,80,40)">
            <g id="bg" transform="matrix(0.110345,0,0,0.121212,93.7793,-8.90909)">
                <rect x="147" y="156" width="145" height="132" style="fill:rgb(135,135,135);fill-opacity:0;"/>
            </g>
            <g transform="matrix(1,0,0,1,-80,-40)">
                <path d="M197,51L196.5,51C196.224,51 196,50.776 196,50.5C196,50.224 196.224,50 196.5,50L199.5,50C199.776,50 200,50.224 200,50.5C200,50.776 199.776,51 199.5,51L199,51L199,52.071C200.173,52.239 201.252,52.698 202.162,53.373L203.318,52.217C203.553,51.983 203.933,51.983 204.167,52.217L204.733,52.783C204.967,53.017 204.967,53.397 204.733,53.631L203.584,54.78C204.472,55.953 205,57.416 205,59C205,62.863 201.863,66 198,66C194.137,66 191,62.863 191,59C191,55.476 193.609,52.557 197,52.071L197,51ZM198,53C201.311,53 204,55.689 204,59C204,62.311 201.311,65 198,65C194.689,65 192,62.311 192,59C192,55.689 194.689,53 198,53Z"/>
            </g>
            <g transform="matrix(0.666667,0,0,0.666667,-14,-20.3333)">
                <circle cx="198" cy="59" r="3"/>
            </g>
            <g transform="matrix(1,0,0,1,-80,-40)">
                <path d="M198,54.518C198,54.379 198.058,54.245 198.161,54.151C198.263,54.056 198.4,54.008 198.54,54.019C201.045,54.298 203,56.422 203,59C203,61.578 201.045,63.702 198.539,63.971C198.402,63.982 198.267,63.935 198.167,63.842C198.066,63.749 198.009,63.619 198.009,63.482C198,63.475 198,63.469 198,63.463C198,63.203 198.199,62.987 198.458,62.965C200.451,62.746 202,61.053 202,59C202,56.947 200.451,55.254 198.459,55.026C198.205,55.005 198.01,54.792 198.01,54.537C198,54.531 198,54.525 198,54.518Z"/>
            </g>
        </g>
    </g>
</svg>
