<?xml version="1.0" encoding="UTF-8" standalone="no"?>
<!DOCTYPE svg PUBLIC "-//W3C//DTD SVG 1.1//EN" "http://www.w3.org/Graphics/SVG/1.1/DTD/svg11.dtd">
<svg width="16px" height="16px" version="1.1" xmlns="http://www.w3.org/2000/svg" xmlns:xlink="http://www.w3.org/1999/xlink" xml:space="preserve" xmlns:serif="http://www.serif.com/" style="fill-rule:evenodd;clip-rule:evenodd;stroke-linejoin:round;stroke-miterlimit:2;">
    <g transform="matrix(1,0,0,1,-10,-470)">
        <g id="batchservers">
            <g id="bg" transform="matrix(0.110345,0,0,0.121212,-6.22069,451.091)">
                <rect x="147" y="156" width="145" height="132" style="fill:rgb(135,135,135);fill-opacity:0;"/>
            </g>
            <g transform="matrix(1,0,0,1,8,468)">
                <path d="M9,6L3,6C2.448,6 2,5.552 2,5L2,3C2,2.448 2.448,2 3,2L17,2C17.552,2 18,2.448 18,3L18,5C18,5.552 17.552,6 17,6L11,6L11,8L17,8C17.552,8 18,8.448 18,9L18,11C18,11.552 17.552,12 17,12L11,12L11,14L17,14C17.552,14 18,14.448 18,15L18,17C18,17.552 17.552,18 17,18L3,18C2.448,18 2,17.552 2,17L2,15C2,14.448 2.448,14 3,14L9,14L9,12L3,12C2.448,12 2,11.552 2,11L2,9C2,8.448 2.448,8 3,8L9,8L9,6ZM16,15C16.552,15 17,15.448 17,16C17,16.552 16.552,17 16,17C15.448,17 15,16.552 15,16C15,15.448 15.448,15 16,15ZM7,15L3,15L3,16L7,16L7,15ZM16,9C16.552,9 17,9.448 17,10C17,10.552 16.552,11 16,11C15.448,11 15,10.552 15,10C15,9.448 15.448,9 16,9ZM7,9L3,9L3,10L7,10L7,9ZM16,3C16.552,3 17,3.448 17,4C17,4.552 16.552,5 16,5C15.448,5 15,4.552 15,4C15,3.448 15.448,3 16,3ZM7,3L3,3L3,4L7,4L7,3Z"/>
            </g>
        </g>
    </g>
</svg>
