<?xml version="1.0" encoding="UTF-8" standalone="no"?>
<!DOCTYPE svg PUBLIC "-//W3C//DTD SVG 1.1//EN" "http://www.w3.org/Graphics/SVG/1.1/DTD/svg11.dtd">
<svg width="100%" height="100%" viewBox="0 0 16 16" version="1.1" xmlns="http://www.w3.org/2000/svg" xmlns:xlink="http://www.w3.org/1999/xlink" xml:space="preserve" xmlns:serif="http://www.serif.com/" style="fill-rule:evenodd;clip-rule:evenodd;stroke-linejoin:round;stroke-miterlimit:2;">
    <g id="batchservers">
        <rect id="bg" x="-0" y="0" width="16" height="16" style="fill:#878787;fill-opacity:0;"/>
        <path d="M7,5l-6,0l-0,-4l14,0l-0,4l-6,0l-0,1l6,0l-0,4l-6,0l-0,1l6,0l-0,4l-14,0l-0,-4l6,0l-0,-1l-6,0l-0,-4l6,0l-0,-1Zm6,7c0.552,0 1,0.448 1,1c-0,0.552 -0.448,1 -1,1c-0.552,0 -1,-0.448 -1,-1c-0,-0.552 0.448,-1 1,-1Zm-8,0l-3,0l-0,1l3,0l-0,-1Zm8,-5c0.552,0 1,0.448 1,1c-0,0.552 -0.448,1 -1,1c-0.552,0 -1,-0.448 -1,-1c-0,-0.552 0.448,-1 1,-1Zm-8,0l-3,0l-0,1l3,0l-0,-1Zm8,-5c0.552,0 1,0.448 1,1c-0,0.552 -0.448,1 -1,1c-0.552,0 -1,-0.448 -1,-1c-0,-0.552 0.448,-1 1,-1Zm-8,0l-3,0l-0,1l3,0l-0,-1Z"/>
    </g>
</svg>
