<?xml version="1.0" encoding="UTF-8" standalone="no"?>
<!DOCTYPE svg PUBLIC "-//W3C//DTD SVG 1.1//EN" "http://www.w3.org/Graphics/SVG/1.1/DTD/svg11.dtd">
<svg width="16px" height="16px" version="1.1" xmlns="http://www.w3.org/2000/svg" xmlns:xlink="http://www.w3.org/1999/xlink" xml:space="preserve" xmlns:serif="http://www.serif.com/" style="fill-rule:evenodd;clip-rule:evenodd;stroke-linejoin:round;stroke-miterlimit:2;">
    <g transform="matrix(1,0,0,1,-50,-130)">
        <g id="binarize">
            <g id="bg" transform="matrix(0.110345,0,0,0.121212,33.7793,111.091)">
                <rect x="147" y="156" width="145" height="132" style="fill:rgb(135,135,135);fill-opacity:0;"/>
            </g>
            <path d="M50,135L52,135L52,132L55,132L55,130L61,130L61,132L64,132L64,135L66,135L66,141L64,141L64,144L61,144L61,146L55,146L55,144L52,144L52,141L50,141L50,135Z"/>
        </g>
    </g>
</svg>
