<?xml version="1.0" encoding="UTF-8" standalone="no"?>
<!DOCTYPE svg PUBLIC "-//W3C//DTD SVG 1.1//EN" "http://www.w3.org/Graphics/SVG/1.1/DTD/svg11.dtd">
<svg width="16px" height="16px" version="1.1" xmlns="http://www.w3.org/2000/svg" xmlns:xlink="http://www.w3.org/1999/xlink" xml:space="preserve" xmlns:serif="http://www.serif.com/" style="fill-rule:evenodd;clip-rule:evenodd;stroke-linejoin:round;stroke-miterlimit:2;">
    <g transform="matrix(1,0,0,1,-50,-50)">
        <g id="brightness_contrast">
            <g id="bg" transform="matrix(0.110345,0,0,0.121212,33.7793,31.0909)">
                <rect x="147" y="156" width="145" height="132" style="fill:rgb(135,135,135);fill-opacity:0;"/>
            </g>
            <g transform="matrix(1,0,0,0.666667,48,49.3333)">
                <path d="M11,1.5C11,1.224 10.776,1 10.5,1C10.224,1 10,1.224 10,1.5L10,3.5C10,3.776 10.224,4 10.5,4C10.776,4 11,3.776 11,3.5L11,1.5Z"/>
            </g>
            <g transform="matrix(1,0,0,0.666667,48,63.3333)">
                <path d="M11,1.5C11,1.224 10.776,1 10.5,1C10.224,1 10,1.224 10,1.5L10,3.5C10,3.776 10.224,4 10.5,4C10.776,4 11,3.776 11,3.5L11,1.5Z"/>
            </g>
            <g transform="matrix(6.12323e-17,1,-0.666667,4.08215e-17,52.6667,49)">
                <path d="M11,1.5C11,1.224 10.776,1 10.5,1C10.224,1 10,1.224 10,1.5L10,3.5C10,3.776 10.224,4 10.5,4C10.776,4 11,3.776 11,3.5L11,1.5Z"/>
            </g>
            <g transform="matrix(-1.76069e-16,-1,0.666667,-1.30093e-16,63.3333,70)">
                <path d="M11,1.5C11,1.224 10.776,1 10.5,1C10.224,1 10,1.224 10,1.5L10,3.5C10,3.776 10.224,4 10.5,4C10.776,4 11,3.776 11,3.5L11,1.5Z"/>
            </g>
            <g transform="matrix(-0.707107,0.707107,-0.500034,-0.500034,60.5711,47.7219)">
                <path d="M11,1.5C11,1.224 10.776,1 10.5,1C10.224,1 10,1.224 10,1.5L10,3.5C10,3.776 10.224,4 10.5,4C10.776,4 11,3.776 11,3.5L11,1.5Z"/>
            </g>
            <g transform="matrix(0.707107,0.707107,0.500034,-0.500034,55.3923,47.7219)">
                <path d="M11,1.5C11,1.224 10.776,1 10.5,1C10.224,1 10,1.224 10,1.5L10,3.5C10,3.776 10.224,4 10.5,4C10.776,4 11,3.776 11,3.5L11,1.5Z"/>
            </g>
            <g transform="matrix(-0.707107,0.707107,-0.500043,-0.500043,71.7783,57.929)">
                <path d="M11,1.5C11,1.224 10.776,1 10.5,1C10.224,1 10,1.224 10,1.5L10,3.5C10,3.776 10.224,4 10.5,4C10.776,4 11,3.776 11,3.5L11,1.5Z"/>
            </g>
            <g transform="matrix(0.707107,0.707107,0.500043,-0.500043,44.2583,57.929)">
                <path d="M11,1.5C11,1.224 10.776,1 10.5,1C10.224,1 10,1.224 10,1.5L10,3.5C10,3.776 10.224,4 10.5,4C10.776,4 11,3.776 11,3.5L11,1.5Z"/>
            </g>
            <g transform="matrix(0.833334,0,0,0.833334,49.6667,48.8333)">
                <path d="M10,5C13.311,5 16,7.689 16,11C16,14.311 13.311,17 10,17C6.689,17 4,14.311 4,11C4,7.689 6.689,5 10,5ZM10,6.091C12.709,6.091 14.909,8.291 14.909,11C14.909,13.709 12.709,15.909 10,15.909C7.291,15.909 5.091,13.709 5.091,11C5.091,8.291 7.291,6.091 10,6.091Z"/>
            </g>
            <g transform="matrix(0.909091,0,0,0.909091,49.3636,49.3636)">
                <path d="M9.5,4C12.536,4 15,6.464 15,9.5C15,12.536 12.536,15 9.5,15L9.5,4Z"/>
            </g>
        </g>
    </g>
</svg>
