<?xml version="1.0" encoding="UTF-8" standalone="no"?>
<!DOCTYPE svg PUBLIC "-//W3C//DTD SVG 1.1//EN" "http://www.w3.org/Graphics/SVG/1.1/DTD/svg11.dtd">
<svg width="100%" height="100%" viewBox="0 0 16 16" version="1.1" xmlns="http://www.w3.org/2000/svg" xmlns:xlink="http://www.w3.org/1999/xlink" xml:space="preserve" xmlns:serif="http://www.serif.com/" style="fill-rule:evenodd;clip-rule:evenodd;stroke-linejoin:round;stroke-miterlimit:2;">
    <g id="camera_settings">
        <rect id="bg" x="0" y="-0" width="16" height="16" style="fill:#878787;fill-opacity:0;"/>
        <path d="M4.976,7.025c-0.316,-0.033 -0.636,-0.033 -0.952,0c-0.151,0.504 -0.273,1.015 -0.366,1.533c-0.224,0.064 -0.439,0.153 -0.643,0.266c-0.432,-0.3 -0.879,-0.575 -1.342,-0.825c-0.248,0.2 -0.474,0.426 -0.674,0.674c0.25,0.463 0.525,0.91 0.825,1.342c-0.113,0.204 -0.202,0.419 -0.266,0.643c-0.518,0.093 -1.029,0.215 -1.533,0.366c-0.033,0.316 -0.033,0.636 0,0.952c0.504,0.151 1.015,0.273 1.533,0.366c0.064,0.224 0.153,0.439 0.266,0.643c-0.3,0.432 -0.575,0.879 -0.825,1.342c0.2,0.248 0.426,0.474 0.674,0.674c0.463,-0.25 0.91,-0.525 1.342,-0.825c0.204,0.113 0.419,0.202 0.643,0.266c0.093,0.518 0.215,1.029 0.366,1.533c0.316,0.033 0.636,0.033 0.952,-0c0.151,-0.504 0.273,-1.015 0.366,-1.533c0.224,-0.064 0.439,-0.153 0.643,-0.266c0.432,0.3 0.879,0.575 1.342,0.825c0.248,-0.2 0.474,-0.426 0.674,-0.674c-0.25,-0.463 -0.525,-0.91 -0.825,-1.342c0.113,-0.204 0.202,-0.419 0.266,-0.643c0.518,-0.093 1.029,-0.215 1.533,-0.366c0.033,-0.316 0.033,-0.636 -0,-0.952c-0.504,-0.151 -1.015,-0.273 -1.533,-0.366c-0.064,-0.224 -0.153,-0.439 -0.266,-0.643c0.3,-0.432 0.575,-0.879 0.825,-1.342c-0.2,-0.248 -0.426,-0.474 -0.674,-0.674c-0.463,0.25 -0.91,0.525 -1.342,0.825c-0.204,-0.113 -0.419,-0.202 -0.643,-0.266c-0.093,-0.518 -0.215,-1.029 -0.366,-1.533Zm-0.476,2.585c1.043,0 1.89,0.847 1.89,1.89c-0,1.043 -0.847,1.89 -1.89,1.89c-1.043,-0 -1.89,-0.847 -1.89,-1.89c0,-1.043 0.847,-1.89 1.89,-1.89Z"/>
        <path id="camera" d="M4.519,5.8c-0.893,-0.382 -1.519,-1.268 -1.519,-2.3c0,-1.38 1.12,-2.5 2.5,-2.5c1.209,-0 2.218,0.859 2.45,2l1.05,-0c0,-1.656 1.344,-3 3,-3c1.656,-0 3,1.344 3,3c0,1.656 -1.344,3 -3,3l-2,-0l0,1l1.5,-0c0.133,-0 0.26,0.053 0.354,0.146c0.093,0.094 0.146,0.221 0.146,0.354l0,1.5l3,-2l1,-0l0,5l-1,-0l-3,-2c0,-0 0.013,0.9 0.021,1.493c0.002,0.134 -0.05,0.263 -0.144,0.358c-0.094,0.095 -0.222,0.149 -0.356,0.149l-1.343,-0c0.032,-0.367 0.029,-0.737 -0.01,-1.103c-0.051,-0.481 -0.386,-0.884 -0.849,-1.023c-0.177,-0.053 -0.355,-0.103 -0.534,-0.149c0.094,-0.159 0.184,-0.32 0.272,-0.483c0.23,-0.425 0.181,-0.947 -0.123,-1.323c-0.253,-0.314 -0.539,-0.6 -0.853,-0.853c-0.307,-0.249 -0.711,-0.326 -1.081,-0.221l-0,-0.845l-1.4,-0c-0.148,-0.09 -0.317,-0.149 -0.497,-0.168c-0.194,-0.021 -0.389,-0.031 -0.584,-0.032Zm0.981,-3.3c-0.552,-0 -1,0.448 -1,1c-0,0.552 0.448,1 1,1c0.552,-0 1,-0.448 1,-1c-0,-0.552 -0.448,-1 -1,-1Zm6.5,-0.5c-0.552,-0 -1,0.448 -1,1c-0,0.552 0.448,1 1,1c0.552,-0 1,-0.448 1,-1c-0,-0.552 -0.448,-1 -1,-1Z"/>
    </g>
</svg>
