<?xml version="1.0" encoding="UTF-8" standalone="no"?>
<!DOCTYPE svg PUBLIC "-//W3C//DTD SVG 1.1//EN" "http://www.w3.org/Graphics/SVG/1.1/DTD/svg11.dtd">
<svg width="16px" height="16px" version="1.1" xmlns="http://www.w3.org/2000/svg" xmlns:xlink="http://www.w3.org/1999/xlink" xml:space="preserve" xmlns:serif="http://www.serif.com/" style="fill-rule:evenodd;clip-rule:evenodd;stroke-linejoin:round;stroke-miterlimit:2;">
    <g transform="matrix(1,0,0,1,-50,-530)">
        <g id="clapboard" transform="matrix(1,0,0,1,-20,160)">
            <g id="bg" transform="matrix(0.110345,0,0,0.121212,53.7793,351.101)">
                <rect x="147" y="156" width="145" height="132" style="fill:rgb(135,135,135);fill-opacity:0;"/>
            </g>
            <path d="M85,378L85,385L71,385L71,378L85,378ZM71,377L71,376.037C70.985,375.208 71.491,374.422 72.313,374.122L74.75,373.23L74.75,375.36L73,376L85,376L85,377L71,377ZM77.75,374.263L76.25,374.811L76.25,372.682L77.75,372.133L77.75,374.263ZM80.75,373.166L79.25,373.714L79.25,371.585L80.75,371.036L80.75,373.166ZM82.25,370.488L83.583,370L84.27,371.878L82.25,372.617L82.25,370.488Z"/>
         </g>
     </g>
</svg>
