<?xml version="1.0" encoding="UTF-8" standalone="no"?>
<!DOCTYPE svg PUBLIC "-//W3C//DTD SVG 1.1//EN" "http://www.w3.org/Graphics/SVG/1.1/DTD/svg11.dtd">
<svg width="100%" height="100%" viewBox="0 0 16 16" version="1.1" xmlns="http://www.w3.org/2000/svg" xmlns:xlink="http://www.w3.org/1999/xlink" xml:space="preserve" xmlns:serif="http://www.serif.com/" style="fill-rule:evenodd;clip-rule:evenodd;stroke-linejoin:round;stroke-miterlimit:2;">
    <g id="clapboard">
        <rect id="bg" x="-0" y="0" width="16" height="16" style="fill:#878787;fill-opacity:0;"/>
        <g id="clapboard1" serif:id="clapboard">
            <path id="clapboard2" serif:id="clapboard" d="M1,7.007l-0.02,0l-0,-4l2.02,0l2,2l-1.983,1.983l0.99,0l1.983,-1.983l2.13,0l-1.982,1.983l1.697,0l1.982,-1.983l2.334,0l-1.982,1.983l1.697,0l1.983,-1.983l1.151,0l-0,9.993l-14,0l-0,-7.993Zm13,0.983c0,0 -12,0 -12,0l-0,6.01c-0,0 12,0 12,-0l0,-6.01Zm-6.257,-4.399l-2.587,0.583l-1.673,-1.674l2.587,-0.582l1.673,1.673Zm-0.288,-1.985l2.695,-0.607l1.674,1.673l-2.696,0.607l-1.673,-1.673Zm4.081,-0.919l3.046,-0.686l0.44,1.951l-1.813,0.408l-1.673,-1.673Z"/>
        </g>
    </g>
</svg>
