<?xml version="1.0" encoding="UTF-8" standalone="no"?>
<!DOCTYPE svg PUBLIC "-//W3C//DTD SVG 1.1//EN" "http://www.w3.org/Graphics/SVG/1.1/DTD/svg11.dtd">
<svg width="16px" height="16px" version="1.1" xmlns="http://www.w3.org/2000/svg" xmlns:xlink="http://www.w3.org/1999/xlink" xml:space="preserve" xmlns:serif="http://www.serif.com/" style="fill-rule:evenodd;clip-rule:evenodd;stroke-linejoin:round;stroke-miterlimit:2;">
    <g transform="matrix(1,0,0,1,-50,-290)">
        <g id="clear">
            <g id="bg" transform="matrix(0.110345,0,0,0.121212,33.7793,271.091)">
                <rect x="147" y="156" width="145" height="132" style="fill:rgb(135,135,135);fill-opacity:0;"/>
            </g>
            <g transform="matrix(1.07852,0,0,1.07852,-21.2608,282.021)">
                <path d="M75.3,21.325L72.9,21.325L73.5,17.825L75.3,21.325ZM68.8,19.625L67.6,17.525L71,16.325L68.8,19.625ZM80,16.525L78.8,18.625L76.1,16.325L80,16.525ZM67,13.125L68.2,11.125L71,13.325L67,13.125ZM78.2,10.025L79.4,12.125L76.1,13.325L78.2,10.025ZM71.7,8.325L74.1,8.325L73.5,11.925L71.7,8.325Z" style="fill-rule:nonzero;"/>
            </g>
        </g>
    </g>
</svg>
