<?xml version="1.0" encoding="UTF-8" standalone="no"?>
<!DOCTYPE svg PUBLIC "-//W3C//DTD SVG 1.1//EN" "http://www.w3.org/Graphics/SVG/1.1/DTD/svg11.dtd">
<svg width="100%" height="100%" viewBox="0 0 16 16" version="1.1" xmlns="http://www.w3.org/2000/svg" xmlns:xlink="http://www.w3.org/1999/xlink" xml:space="preserve" xmlns:serif="http://www.serif.com/" style="fill-rule:evenodd;clip-rule:evenodd;stroke-linejoin:round;stroke-miterlimit:2;">
    <g id="clear_cache">
        <rect id="bg" x="0" y="0" width="16" height="16" style="fill-opacity:0;"/>
        <path id="clean_brush" d="M11.534,11.425c-0.978,1.225 -1.346,2.908 -1.534,4.575c-0.416,-0.009 -1,-0 -1,-0c-0.021,-1.203 0.003,-3.043 0.028,-3.109c0.006,-0.018 -0.865,1.113 -2,2.137c-0.044,0.145 -2.86,-2.639 -2.852,-2.783c1.066,-0.451 1.427,-0.929 2.804,-2.189c-0.986,0.583 -2.785,0.873 -3.98,0.944c-0,-0 -0.017,-0.488 -0,-1c1.888,-0.263 3.36,-0.905 4.891,-1.877c0.838,-0.748 2.292,-0.819 3.39,0.182c1.099,1 1.001,2.045 0.253,3.12Zm0.634,-4.935l2.498,-2.275c0.305,-0.277 0.8,-0.277 1.105,0c0.305,0.278 0.305,0.729 0,1.006l-2.498,2.275c0.302,0.577 0.045,1.487 -0.254,2.064c0.001,-0.658 -0.299,-1.304 -0.992,-1.936c-0.653,-0.594 -1.409,-0.876 -2.13,-0.903c0.636,-0.272 1.637,-0.507 2.271,-0.231Z"/>
        <path d="M4.53,13.97c-0.243,0.009 -0.447,0.014 -0.433,0.03c-2.32,-0.173 -4.097,-1.022 -4.097,-2l0,-9.013c0.017,-1.098 2.251,-1.987 5,-1.987c2.76,-0 5,0.896 5,2l-0,2.622c-0.178,0.054 -0.345,0.115 -0.497,0.18c-0.333,0.143 -0.555,0.451 -0.598,0.796c-0.606,0.094 -1.167,0.346 -1.613,0.72c-0.366,0.231 -0.728,0.441 -1.096,0.63c-0.12,0.007 -0.196,0.012 -0.196,0.012c-0.323,0.026 -0.658,0.04 -1,0.04c-1.635,-0 -3.087,-0.314 -4,-0.8l0,2c0.208,0.11 0.678,0.28 1.078,0.411c-0.046,0.11 -0.073,0.23 -0.077,0.356c-0.008,0.219 -0.009,0.433 -0.008,0.612c-0.357,-0.121 -0.813,-0.284 -0.993,-0.379l0,2c0.47,0.25 1.47,0.523 2.393,0.668c0.224,0.214 0.664,0.641 1.137,1.102Zm4.427,-9.748c-0.915,0.473 -2.348,0.778 -3.957,0.778c-1.635,-0 -3.087,-0.314 -4,-0.8l0,2c0.912,0.485 2.365,0.8 4,0.8c1.635,-0 3.088,-0.315 4,-0.8l0,-2l-0.043,0.022Z"/>
    </g>
</svg>
