<?xml version="1.0" encoding="UTF-8" standalone="no"?>
<!DOCTYPE svg PUBLIC "-//W3C//DTD SVG 1.1//EN" "http://www.w3.org/Graphics/SVG/1.1/DTD/svg11.dtd">
<svg width="16px" height="16px" version="1.1" xmlns="http://www.w3.org/2000/svg" xmlns:xlink="http://www.w3.org/1999/xlink" xml:space="preserve" xmlns:serif="http://www.serif.com/" style="fill-rule:evenodd;clip-rule:evenodd;stroke-linejoin:round;stroke-miterlimit:2;">
    <g transform="matrix(1,0,0,1,-30,-410)">
        <g id="cleanup_settings" transform="matrix(1,0,0,1,0,20)">
            <g id="bg" transform="matrix(0.110345,0,0,0.121212,13.7793,371.091)">
                <rect x="147" y="156" width="145" height="132" style="fill:rgb(135,135,135);fill-opacity:0;"/>
            </g>
            <g transform="matrix(0.587123,0.587123,-0.587123,0.587123,36.5435,384.542)">
                <path d="M10,4.233L10,-0.289C10,-0.841 10.448,-1.289 11,-1.289C11.552,-1.289 12,-0.841 12,-0.289L12,4.233C12.847,4.533 13.519,5.671 13.823,6.515C13.169,5.86 12.255,5.489 11,5.489C9.819,5.489 8.854,5.892 8.175,6.518C8.479,5.672 9.152,4.533 10,4.233Z"/>
            </g>
            <g transform="matrix(0.587123,0.587123,-0.587123,0.587123,33.0449,387.049)">
                <path d="M4.322,1.294L4.837,3.123C4.858,3.195 4.896,3.26 4.949,3.313C5.002,3.366 5.067,3.404 5.139,3.424L6.967,3.94L5.139,4.456C5.067,4.476 5.002,4.514 4.949,4.567C4.896,4.62 4.858,4.685 4.837,4.757L4.322,6.586L3.806,4.757C3.786,4.685 3.747,4.62 3.695,4.567C3.642,4.514 3.576,4.476 3.505,4.456L1.676,3.94L3.505,3.424C3.576,3.404 3.642,3.366 3.695,3.313C3.747,3.26 3.786,3.195 3.806,3.123L4.322,1.294Z"/>
            </g>
            <g transform="matrix(1,0,0,1,-40.0001,-120)">
                <g id="cog_bg" transform="matrix(0.826922,0,0,0.758004,13.2308,125.016)">
                    <rect x="77" y="517" width="11" height="12" style="fill:rgb(163,97,97);fill-opacity:0;"/>
                </g>
                <path id="cog" d="M82.547,518.143C82.649,518.458 82.703,518.783 82.711,519.115C82.712,519.161 82.742,519.2 82.786,519.213C83.005,519.275 83.217,519.362 83.415,519.473C83.455,519.495 83.505,519.489 83.538,519.458C83.778,519.228 84.046,519.037 84.34,518.886C84.634,519.106 84.894,519.366 85.115,519.659C84.963,519.955 84.772,520.222 84.543,520.463C84.511,520.496 84.505,520.545 84.527,520.585C84.638,520.784 84.726,520.995 84.788,521.214C84.8,521.258 84.84,521.289 84.885,521.29C85.218,521.297 85.542,521.352 85.858,521.453C85.909,521.816 85.909,522.185 85.858,522.547C85.542,522.649 85.218,522.703 84.885,522.711C84.84,522.712 84.8,522.742 84.788,522.786C84.726,523.005 84.638,523.217 84.527,523.415C84.505,523.455 84.511,523.505 84.543,523.538C84.772,523.778 84.963,524.046 85.115,524.341C84.894,524.634 84.634,524.894 84.341,525.115C84.046,524.963 83.778,524.772 83.538,524.543C83.505,524.511 83.455,524.505 83.415,524.527C83.217,524.638 83.005,524.726 82.786,524.788C82.742,524.8 82.712,524.84 82.711,524.885C82.703,525.218 82.649,525.542 82.547,525.858C82.185,525.909 81.816,525.909 81.453,525.858C81.351,525.542 81.297,525.218 81.29,524.885C81.289,524.84 81.258,524.8 81.214,524.788C80.995,524.726 80.784,524.638 80.585,524.527C80.545,524.505 80.496,524.511 80.463,524.543C80.222,524.772 79.955,524.963 79.66,525.115C79.366,524.894 79.106,524.634 78.886,524.341C79.037,524.046 79.228,523.778 79.458,523.538C79.489,523.505 79.495,523.455 79.473,523.415C79.362,523.217 79.274,523.005 79.213,522.786C79.2,522.742 79.161,522.712 79.115,522.711C78.783,522.703 78.458,522.649 78.143,522.547C78.091,522.185 78.091,521.816 78.142,521.453C78.458,521.352 78.783,521.297 79.115,521.29C79.161,521.289 79.2,521.258 79.213,521.214C79.274,520.995 79.362,520.784 79.473,520.585C79.495,520.545 79.489,520.496 79.458,520.463C79.228,520.222 79.037,519.955 78.886,519.66C79.106,519.366 79.366,519.106 79.659,518.886C79.955,519.037 80.222,519.228 80.463,519.458C80.496,519.489 80.545,519.495 80.585,519.473C80.784,519.362 80.995,519.275 81.214,519.213C81.258,519.2 81.289,519.161 81.29,519.115C81.297,518.783 81.351,518.458 81.453,518.143C81.816,518.091 82.184,518.091 82.547,518.143L82.547,518.143ZM82,520.444C81.142,520.444 80.444,521.142 80.444,522C80.444,522.859 81.142,523.556 82,523.556C82.859,523.556 83.556,522.859 83.556,522C83.556,521.142 82.859,520.444 82,520.444Z"/>
                <g transform="matrix(1,0,0,1,40.0001,100)">
                    <path d="M37.104,423.148C37.019,423.407 36.941,423.659 36.872,423.901C36.662,424.111 35.984,423.922 35.984,423.922C35.962,422.517 36.614,421.379 36.64,421.302C36.647,421.282 35.762,422.165 34.967,423.339C34.942,423.376 34.878,423.317 34.84,423.291C33.895,422.64 32.116,420.837 32.116,420.837C32.587,420.466 33.256,419.791 33.551,419.244C33.075,419.673 32.093,420.087 31.53,420.252C31.53,420.252 31.168,419.773 30.989,419.526C30.976,419.508 30.95,419.471 30.95,419.471C32.053,418.962 32.916,418.282 34.378,416.811C33.331,417.492 31.421,417.926 30.151,418.009C30.151,418.009 29.878,417.357 30.103,417.132C32.109,416.825 33.757,415.939 35.384,414.805C36.275,413.931 37.82,413.849 38.987,415.017C39.851,415.88 40.019,416.773 39.726,417.687C39.448,417.672 39.169,417.753 38.939,417.926C38.555,418.215 38.214,418.555 37.926,418.94C37.65,419.307 37.608,419.8 37.818,420.208L37.86,420.285L37.774,420.311C37.337,420.452 37.019,420.83 36.954,421.284C36.887,421.759 36.887,422.242 36.955,422.717C36.977,422.872 37.028,423.018 37.104,423.148Z"/>
                </g>
            </g>
        </g>
    </g>
</svg>
