<?xml version="1.0" encoding="UTF-8" standalone="no"?>
<!DOCTYPE svg PUBLIC "-//W3C//DTD SVG 1.1//EN" "http://www.w3.org/Graphics/SVG/1.1/DTD/svg11.dtd">
<svg width="16px" height="16px" version="1.1" xmlns="http://www.w3.org/2000/svg" xmlns:xlink="http://www.w3.org/1999/xlink" xml:space="preserve" xmlns:serif="http://www.serif.com/" style="fill-rule:evenodd;clip-rule:evenodd;stroke-linejoin:round;stroke-miterlimit:2;">
    <g transform="matrix(1,0,0,1,-30,-370)">
        <g id="cleanup_add" transform="matrix(1,0,0,1,-0.000385861,-20.022)">
            <g id="bg" transform="matrix(0.110345,0,0,0.121212,13.7793,371.113)">
                <rect x="147" y="156" width="145" height="132" style="fill:rgb(135,135,135);fill-opacity:0;"/>
            </g>
            <g transform="matrix(0.670998,0.670998,-0.670998,0.670998,37.4763,383.784)">
                <path d="M10,4.233L10,-0.289C10,-0.841 10.448,-1.289 11,-1.289C11.552,-1.289 12,-0.841 12,-0.289L12,4.233C12.847,4.533 13.519,5.671 13.823,6.515C13.169,5.86 12.255,5.489 11,5.489C9.819,5.489 8.854,5.892 8.175,6.518C8.479,5.672 9.152,4.533 10,4.233Z"/>
            </g>
            <g transform="matrix(0.670998,0.670998,-0.670998,0.670998,33.4778,386.649)">
                <path d="M4.322,1.294L4.837,3.123C4.858,3.195 4.896,3.26 4.949,3.313C5.002,3.366 5.067,3.404 5.139,3.424L6.967,3.94L5.139,4.456C5.067,4.476 5.002,4.514 4.949,4.567C4.896,4.62 4.858,4.685 4.837,4.757L4.322,6.586L3.806,4.757C3.786,4.685 3.747,4.62 3.695,4.567C3.642,4.514 3.576,4.476 3.505,4.456L1.676,3.94L3.505,3.424C3.576,3.404 3.642,3.366 3.695,3.313C3.747,3.26 3.786,3.195 3.806,3.123L4.322,1.294Z"/>
            </g>
            <g transform="matrix(1,0,0,1,-39.9996,-99.956)">
                <path d="M78.367,504.281C78.167,504.831 77.994,505.367 77.851,505.865C77.611,506.105 76.836,505.888 76.836,505.888C76.811,504.283 77.556,502.983 77.586,502.895C77.594,502.871 76.583,503.881 75.674,505.223C75.645,505.265 75.572,505.197 75.53,505.167C74.449,504.423 72.416,502.363 72.416,502.363C72.954,501.939 73.718,501.168 74.055,500.543C73.512,501.033 72.39,501.506 71.746,501.695C71.746,501.695 71.333,501.147 71.128,500.865C71.113,500.844 71.083,500.803 71.083,500.803C72.344,500.22 73.33,499.443 75.001,497.762C73.804,498.54 71.622,499.037 70.17,499.131C70.17,499.131 69.858,498.386 70.115,498.129C72.408,497.778 74.292,496.765 76.151,495.469C77.169,494.471 78.934,494.377 80.269,495.711C81.071,496.513 81.348,497.337 81.244,498.178C79.371,498.722 78,500.452 78,502.5C78,503.133 78.131,503.735 78.367,504.281Z"/>
            </g>
            <g id="add" transform="matrix(1,0,0,1,25.0004,385.022)">
                <path d="M17.5,14C19.432,14 21,15.568 21,17.5C21,19.432 19.432,21 17.5,21C15.568,21 14,19.432 14,17.5C14,15.568 15.568,14 17.5,14ZM18,17L20,17L20,18L18,18L18,20L17,20L17,18L15,18L15,17L17,17L17,15L18,15L18,17Z"/>
            </g>
        </g>
    </g>
</svg>
