<?xml version="1.0" encoding="UTF-8" standalone="no"?>
<!DOCTYPE svg PUBLIC "-//W3C//DTD SVG 1.1//EN" "http://www.w3.org/Graphics/SVG/1.1/DTD/svg11.dtd">
<svg width="16px" height="16px" version="1.1" xmlns="http://www.w3.org/2000/svg" xmlns:xlink="http://www.w3.org/1999/xlink" xml:space="preserve" xmlns:serif="http://www.serif.com/" style="fill-rule:evenodd;clip-rule:evenodd;stroke-linejoin:round;stroke-miterlimit:2;">
    <g transform="matrix(1,0,0,1,-30,-430)">
        <g id="cleanup_preview" transform="matrix(1,0,0,1,0,40)">
            <g id="bg" transform="matrix(0.110345,0,0,0.121212,13.7793,371.091)">
                <rect x="147" y="156" width="145" height="132" style="fill:rgb(135,135,135);fill-opacity:0;"/>
            </g>
            <g transform="matrix(0.587049,0.587049,-0.587049,0.587049,36.5427,384.542)">
                <path d="M10,4.233L10,-0.289C10,-0.841 10.448,-1.289 11,-1.289C11.552,-1.289 12,-0.841 12,-0.289L12,4.233C12.847,4.533 13.519,5.671 13.823,6.515C13.169,5.86 12.255,5.489 11,5.489C9.819,5.489 8.854,5.892 8.175,6.518C8.479,5.672 9.152,4.533 10,4.233Z"/>
            </g>
            <g transform="matrix(0.478402,0.478402,-0.478402,0.478402,32.5514,388.218)">
                <path d="M4.322,1.294L4.837,3.123C4.858,3.195 4.896,3.26 4.949,3.313C5.002,3.366 5.067,3.404 5.139,3.424L6.967,3.94L5.139,4.456C5.067,4.476 5.002,4.514 4.949,4.567C4.896,4.62 4.858,4.685 4.837,4.757L4.322,6.586L3.806,4.757C3.786,4.685 3.747,4.62 3.695,4.567C3.642,4.514 3.576,4.476 3.505,4.456L1.676,3.94L3.505,3.424C3.576,3.404 3.642,3.366 3.695,3.313C3.747,3.26 3.786,3.195 3.806,3.123L4.322,1.294Z"/>
            </g>
            <g id="preview" transform="matrix(1,0,0,1,0,-40)">
                <path d="M35,442.492C35,442.492 37.061,439 40.501,439C43.939,439 46,442.492 46,442.492C46,442.492 43.948,446 40.501,446C37.052,446 35,442.492 35,442.492ZM40.5,440C41.88,440 43,441.12 43,442.5C43,443.88 41.88,445 40.5,445C39.12,445 38,443.88 38,442.5C38,441.12 39.12,440 40.5,440ZM40.5,441.252C41.189,441.252 41.748,441.811 41.748,442.5C41.748,443.189 41.189,443.748 40.5,443.748C39.811,443.748 39.252,443.189 39.252,442.5C39.252,441.811 39.811,441.252 40.5,441.252Z"/>
            </g>
            <g transform="matrix(1,0,0,1,0,-40)">
                <path d="M33.801,442.442C32.965,441.695 32.116,440.835 32.116,440.835C32.587,440.464 33.255,439.79 33.55,439.243C33.075,439.672 32.093,440.086 31.53,440.251C31.53,440.251 31.168,439.771 30.989,439.525C30.976,439.507 30.95,439.47 30.95,439.47C32.053,438.961 32.915,438.281 34.378,436.81C33.331,437.491 31.421,437.925 30.151,438.008C30.151,438.008 29.878,437.356 30.103,437.131C32.109,436.824 33.757,435.938 35.383,434.804C36.274,433.931 37.819,433.849 38.986,435.016C39.904,435.934 40.036,436.884 39.664,437.858C36.097,438.355 33.967,441.882 33.967,441.882C33.864,442.056 33.809,442.248 33.801,442.442Z"/>
            </g>
        </g>
    </g>
</svg>
