<?xml version="1.0" encoding="UTF-8" standalone="no"?>
<!DOCTYPE svg PUBLIC "-//W3C//DTD SVG 1.1//EN" "http://www.w3.org/Graphics/SVG/1.1/DTD/svg11.dtd">
<svg width="100%" height="100%" viewBox="0 0 16 16" version="1.1" xmlns="http://www.w3.org/2000/svg" xmlns:xlink="http://www.w3.org/1999/xlink" xml:space="preserve" xmlns:serif="http://www.serif.com/" style="fill-rule:evenodd;clip-rule:evenodd;stroke-linejoin:round;stroke-miterlimit:2;">
    <g id="cleanup_settings">
        <rect id="bg" x="0" y="0" width="16" height="16" style="fill:#878787;fill-opacity:0;"/>
        <path d="M11.976,7.025c-0.316,-0.033 -0.636,-0.033 -0.952,0c-0.151,0.504 -0.273,1.015 -0.366,1.533c-0.224,0.064 -0.439,0.153 -0.643,0.266c-0.432,-0.3 -0.879,-0.575 -1.342,-0.825c-0.248,0.2 -0.474,0.426 -0.674,0.674c0.25,0.463 0.525,0.91 0.825,1.342c-0.113,0.204 -0.202,0.419 -0.266,0.643c-0.518,0.093 -1.029,0.215 -1.533,0.366c-0.033,0.316 -0.033,0.636 0,0.952c0.504,0.151 1.015,0.273 1.533,0.366c0.064,0.224 0.153,0.439 0.266,0.643c-0.3,0.432 -0.575,0.879 -0.825,1.342c0.2,0.248 0.426,0.474 0.674,0.674c0.463,-0.25 0.91,-0.525 1.342,-0.825c0.204,0.113 0.419,0.202 0.643,0.266c0.093,0.518 0.215,1.029 0.366,1.533c0.316,0.033 0.636,0.033 0.952,-0c0.151,-0.504 0.273,-1.015 0.366,-1.533c0.224,-0.064 0.439,-0.153 0.643,-0.266c0.432,0.3 0.879,0.575 1.342,0.825c0.248,-0.2 0.474,-0.426 0.674,-0.674c-0.25,-0.463 -0.525,-0.91 -0.825,-1.342c0.113,-0.204 0.202,-0.419 0.266,-0.643c0.518,-0.093 1.029,-0.215 1.533,-0.366c0.033,-0.316 0.033,-0.636 -0,-0.952c-0.504,-0.151 -1.015,-0.273 -1.533,-0.366c-0.064,-0.224 -0.153,-0.439 -0.266,-0.643c0.3,-0.432 0.575,-0.879 0.825,-1.342c-0.2,-0.248 -0.426,-0.474 -0.674,-0.674c-0.463,0.25 -0.91,0.525 -1.342,0.825c-0.204,-0.113 -0.419,-0.202 -0.643,-0.266c-0.093,-0.518 -0.215,-1.029 -0.366,-1.533Zm-0.476,2.585c1.043,0 1.89,0.847 1.89,1.89c-0,1.043 -0.847,1.89 -1.89,1.89c-1.043,-0 -1.89,-0.847 -1.89,-1.89c0,-1.043 0.847,-1.89 1.89,-1.89Z"/>
        <path id="clean_brush" d="M5.838,12.15c-0.276,0.33 -0.595,0.738 -0.9,1.189c-0.025,0.037 -0.089,-0.022 -0.126,-0.048c-0.946,-0.651 -2.724,-2.454 -2.724,-2.454c0.471,-0.371 1.139,-1.046 1.434,-1.593c-0.475,0.429 -1.457,0.843 -2.02,1.008c-0,-0 -0.362,-0.479 -0.541,-0.726l-0.039,-0.055c1.102,-0.509 1.965,-1.189 3.427,-2.66c-1.047,0.681 -2.956,1.115 -4.226,1.198c-0,-0 -0.273,-0.652 -0.048,-0.877c2.006,-0.307 3.654,-1.193 5.28,-2.327c0.891,-0.874 2.435,-0.956 3.603,0.212c0.593,0.593 0.858,1.2 0.871,1.819c-0.036,0.126 -0.071,0.252 -0.104,0.379c-0.159,-0.094 -0.32,-0.184 -0.483,-0.272c-0.425,-0.23 -0.947,-0.181 -1.323,0.123c-0.314,0.253 -0.6,0.539 -0.853,0.853c-0.304,0.376 -0.353,0.898 -0.123,1.323c0.088,0.163 0.178,0.324 0.272,0.483c-0.179,0.046 -0.357,0.096 -0.534,0.149c-0.463,0.139 -0.798,0.542 -0.849,1.023c-0.043,0.401 -0.043,0.805 0,1.206c0.002,0.016 0.004,0.031 0.006,0.047Zm4.895,-6.289c-0.131,-0.555 -0.446,-1.101 -0.983,-1.638c-0.694,-0.694 -1.497,-1.024 -2.263,-1.055c0.675,-0.318 1.739,-0.592 2.413,-0.27l2.655,-2.655c0.324,-0.324 0.85,-0.324 1.174,0c0.324,0.324 0.324,0.85 -0,1.174l-2.655,2.655c0.228,0.479 0.156,1.153 -0.018,1.745c-0.053,0.004 -0.106,0.009 -0.159,0.015c-0.056,0.006 -0.111,0.016 -0.164,0.029Zm-4.1,7.249c0.071,0.176 0.175,0.336 0.304,0.472c-0.033,0.108 -0.064,0.215 -0.094,0.319c-0.21,0.21 -0.888,0.021 -0.888,0.021c-0.007,-0.432 0.05,-0.838 0.133,-1.197c0.139,0.175 0.326,0.31 0.545,0.385Zm-1.839,-12.764l-0.772,1.376c-0.029,0.055 -0.045,0.115 -0.045,0.177c-0,0.063 0.016,0.123 0.046,0.177l0.77,1.376l-1.376,-0.77c-0.054,-0.03 -0.114,-0.046 -0.176,-0.046c-0.063,-0 -0.123,0.016 -0.178,0.046l-1.376,0.771l0.771,-1.377c0.031,-0.054 0.046,-0.115 0.046,-0.177c0,-0.062 -0.016,-0.123 -0.046,-0.176l-0.771,-1.377l1.377,0.771c0.053,0.03 0.114,0.046 0.177,0.046c0.061,-0 0.122,-0.016 0.176,-0.046l1.377,-0.771Z"/>
    </g>
</svg>
