<?xml version="1.0" encoding="UTF-8" standalone="no"?>
<!DOCTYPE svg PUBLIC "-//W3C//DTD SVG 1.1//EN" "http://www.w3.org/Graphics/SVG/1.1/DTD/svg11.dtd">
<svg width="16px" height="16px" version="1.1" xmlns="http://www.w3.org/2000/svg" xmlns:xlink="http://www.w3.org/1999/xlink" xml:space="preserve" xmlns:serif="http://www.serif.com/" style="fill-rule:evenodd;clip-rule:evenodd;stroke-linejoin:round;stroke-miterlimit:2;">
    <g transform="matrix(1,0,0,1,-110,-450)">
        <g id="clear_cache" transform="matrix(1,0,0,1,117,446)">
            <g id="bg" transform="matrix(1,0,0,1,-117,-386)">
                <rect x="110" y="390" width="16" height="16" style="fill-opacity:0;"/>
            </g>
            <g id="bin" transform="matrix(1,0,0,1,-13,-0.999516)">
                <path d="M19,13L21.5,13C21.633,13 21.76,13.053 21.854,13.146C21.947,13.24 22,13.367 22,13.5C22,13.776 21.776,14 21.5,14L21,14L21,20.5C21,20.776 20.776,21 20.5,21L14.5,21C14.224,21 14,20.776 14,20.5L14,14L13.5,14C13.224,14 13,13.776 13,13.5C13,13.367 13.053,13.24 13.146,13.146C13.24,13.053 13.367,13 13.5,13C14.353,13 16,13 16,13L16,12.5C16,12.367 16.053,12.24 16.146,12.146C16.24,12.053 16.367,12 16.5,12C17.055,12 17.945,12 18.5,12C18.633,12 18.76,12.053 18.854,12.146C18.947,12.24 19,12.367 19,12.5C19,12.75 19,13 19,13ZM15,14L15,20L20,20L20,14L15,14ZM19,15.5C19,15.367 18.947,15.24 18.854,15.146C18.76,15.053 18.633,15 18.5,15C18.367,15 18.24,15.053 18.146,15.146C18.053,15.24 18,15.367 18,15.5C18,16.269 18,17.731 18,18.5C18,18.633 18.053,18.76 18.146,18.854C18.24,18.947 18.367,19 18.5,19C18.633,19 18.76,18.947 18.854,18.854C18.947,18.76 19,18.633 19,18.5C19,17.731 19,16.269 19,15.5ZM17,15.5C17,15.367 16.947,15.24 16.854,15.146C16.76,15.053 16.633,15 16.5,15C16.367,15 16.24,15.053 16.146,15.146C16.053,15.24 16,15.367 16,15.5C16,16.269 16,17.731 16,18.5C16,18.633 16.053,18.76 16.146,18.854C16.24,18.947 16.367,19 16.5,19C16.633,19 16.76,18.947 16.854,18.854C16.947,18.76 17,18.633 17,18.5C17,17.731 17,16.269 17,15.5Z"/>
            </g>
            <g transform="matrix(1,0,0,1,-117,-446)">
                <path d="M119.086,457L117.5,457C117.102,457 116.721,457.158 116.439,457.439C116.293,457.586 116.18,457.759 116.105,457.948C116.039,457.956 116,457.96 116,457.96C115.677,457.986 115.342,458 115,458C113.365,458 111.913,457.686 111,457.2L111,459.2C111.912,459.685 113.365,460 115,460L117,460L117,460.833C116.387,460.941 115.711,461 115,461C113.365,461 111.913,460.686 111,460.2L111,462.2C111.912,462.685 113.365,463 115,463C115.711,463 116.387,462.941 117,462.833L117,463.833C116.387,463.941 115.711,464 115,464C112.24,464 110,463.104 110,462L110,452.987C110.017,451.889 112.251,451 115,451C117.76,451 120,451.896 120,453L120,456.086C119.791,456.16 119.599,456.28 119.439,456.439C119.28,456.599 119.16,456.791 119.086,457ZM120,458L120,457.5C120,457.5 120,458 120,458ZM118.957,454.222L119,454.2L119,456.2C118.088,456.685 116.635,457 115,457C113.365,457 111.912,456.685 111,456.2L111,454.2C111.913,454.686 113.365,455 115,455C116.609,455 118.042,454.695 118.957,454.222Z"/>
            </g>
        </g>
    </g>
</svg>
