<?xml version="1.0" encoding="UTF-8" standalone="no"?>
<!DOCTYPE svg PUBLIC "-//W3C//DTD SVG 1.1//EN" "http://www.w3.org/Graphics/SVG/1.1/DTD/svg11.dtd">
<svg width="100%" height="100%" viewBox="0 0 16 16" version="1.1" xmlns="http://www.w3.org/2000/svg" xmlns:xlink="http://www.w3.org/1999/xlink" xml:space="preserve" xmlns:serif="http://www.serif.com/" style="fill-rule:evenodd;clip-rule:evenodd;stroke-linejoin:round;stroke-miterlimit:2;">
    <g id="cleanup_preview">
        <rect id="bg" x="0" y="0" width="16" height="16" style="fill:#878787;fill-opacity:0;"/>
        <path d="M4.822,0.346l-0.771,1.376c-0.03,0.055 -0.046,0.115 -0.046,0.177c-0,0.063 0.016,0.123 0.046,0.177l0.77,1.376l-1.376,-0.77c-0.054,-0.03 -0.114,-0.046 -0.176,-0.046c-0.062,-0 -0.123,0.016 -0.178,0.046l-1.376,0.771l0.771,-1.377c0.031,-0.054 0.046,-0.115 0.047,-0.177c-0,-0.062 -0.017,-0.123 -0.047,-0.176l-0.771,-1.377l1.377,0.771c0.053,0.03 0.115,0.046 0.177,0.046c0.061,-0 0.122,-0.016 0.176,-0.046l1.377,-0.771Z"/>
        <path id="clean_brush" d="M3.529,12.198c-0.739,-0.678 -1.413,-1.361 -1.413,-1.361c0.471,-0.371 1.139,-1.046 1.434,-1.593c-0.475,0.429 -1.457,0.843 -2.02,1.008c-0,-0 -0.362,-0.479 -0.541,-0.726l-0.039,-0.055c1.103,-0.509 1.965,-1.189 3.428,-2.66c-1.047,0.681 -2.957,1.115 -4.227,1.198c-0,-0 -0.273,-0.652 -0.048,-0.877c2.006,-0.307 3.654,-1.193 5.28,-2.327c0.891,-0.874 2.436,-0.956 3.603,0.212c0.818,0.818 1.012,1.662 0.781,2.526c-3.787,0.444 -6.059,4.187 -6.059,4.187c-0.087,0.147 -0.146,0.305 -0.179,0.468Zm6.399,-9.3l2.655,-2.655c0.324,-0.324 0.85,-0.324 1.174,0c0.324,0.324 0.324,0.85 -0,1.174l-2.655,2.655c0.321,0.674 0.048,1.736 -0.269,2.41c0,-0.768 -0.318,-1.523 -1.055,-2.259c-0.693,-0.694 -1.496,-1.024 -2.263,-1.055c0.676,-0.318 1.739,-0.592 2.413,-0.27Z"/>
        <path id="preview" d="M5,12.492c0,0 2.061,-3.492 5.501,-3.492c3.438,0 5.499,3.492 5.499,3.492c0,0 -2.052,3.508 -5.499,3.508c-3.449,0 -5.501,-3.508 -5.501,-3.508Zm5.5,-2.492c1.38,0 2.5,1.12 2.5,2.5c0,1.38 -1.12,2.5 -2.5,2.5c-1.38,0 -2.5,-1.12 -2.5,-2.5c0,-1.38 1.12,-2.5 2.5,-2.5Zm0,1.252c0.689,0 1.248,0.559 1.248,1.248c-0,0.689 -0.559,1.248 -1.248,1.248c-0.689,-0 -1.248,-0.559 -1.248,-1.248c0,-0.689 0.559,-1.248 1.248,-1.248Z"/>
    </g>
</svg>
