<?xml version="1.0" encoding="UTF-8" standalone="no"?>
<!DOCTYPE svg PUBLIC "-//W3C//DTD SVG 1.1//EN" "http://www.w3.org/Graphics/SVG/1.1/DTD/svg11.dtd">
<svg width="100%" height="100%" viewBox="0 0 16 16" version="1.1" xmlns="http://www.w3.org/2000/svg" xmlns:xlink="http://www.w3.org/1999/xlink" xml:space="preserve" xmlns:serif="http://www.serif.com/" style="fill-rule:evenodd;clip-rule:evenodd;stroke-linejoin:round;stroke-miterlimit:2;">
    <g id="cleanup_add">
        <rect id="bg" x="-0" y="0" width="16" height="16" style="fill:#878787;fill-opacity:0;"/>
        <path d="M5.496,0.395l-0.882,1.573c-0.034,0.063 -0.053,0.132 -0.053,0.203c0,0.071 0.019,0.14 0.053,0.202l0.881,1.573l-1.573,-0.881c-0.062,-0.035 -0.131,-0.053 -0.202,-0.053c-0.071,0 -0.14,0.018 -0.203,0.053l-1.572,0.881l0.881,-1.573c0.034,-0.062 0.052,-0.132 0.053,-0.202c-0,-0.071 -0.019,-0.141 -0.053,-0.202l-0.881,-1.574l1.573,0.881c0.061,0.035 0.131,0.053 0.202,0.053c0.071,-0 0.14,-0.018 0.202,-0.053l1.574,-0.881Z"/>
        <path id="ad" d="M12.5,9c1.932,0 3.5,1.568 3.5,3.5c-0,1.932 -1.568,3.5 -3.5,3.5c-1.932,0 -3.5,-1.568 -3.5,-3.5c0,-1.932 1.568,-3.5 3.5,-3.5Zm-0.5,3l-2,0l-0,1l2,0l0,2l1,0l0,-2l2,0l-0,-1l-2,0l0,-2l-1,0l0,2Z"/>
        <path id="clean_brush" d="M8.364,14.274c-0.205,0.56 -0.382,1.106 -0.527,1.613c-0.24,0.24 -1.015,0.023 -1.015,0.023c-0.025,-1.605 0.72,-2.905 0.75,-2.993c0.008,-0.024 -1.003,0.986 -1.912,2.328c-0.029,0.042 -0.102,-0.026 -0.145,-0.056c-1.08,-0.744 -3.113,-2.804 -3.113,-2.804c0.538,-0.424 1.302,-1.195 1.639,-1.82c-0.543,0.49 -1.665,0.963 -2.309,1.152c0,-0 -0.413,-0.548 -0.618,-0.83l-0.045,-0.062c1.261,-0.583 2.247,-1.36 3.918,-3.041c-1.197,0.778 -3.379,1.275 -4.831,1.369c-0,0 -0.312,-0.745 -0.055,-1.002c2.293,-0.351 4.177,-1.364 6.036,-2.66c1.018,-0.998 2.783,-1.092 4.118,0.242c0.796,0.796 1.074,1.614 0.977,2.448c-1.867,0.549 -3.232,2.276 -3.232,4.319c-0,0.63 0.13,1.229 0.364,1.774Zm2.967,-10.962l3.035,-3.034c0.37,-0.371 0.971,-0.371 1.342,-0c0.37,0.37 0.37,0.971 -0,1.342l-3.035,3.034c0.368,0.77 0.055,1.984 -0.308,2.754c0.001,-0.878 -0.363,-1.74 -1.205,-2.582c-0.793,-0.793 -1.711,-1.17 -2.586,-1.205c0.771,-0.364 1.987,-0.677 2.757,-0.309Z"/>
    </g>
</svg>
