<?xml version="1.0" encoding="UTF-8" standalone="no"?>
<!DOCTYPE svg PUBLIC "-//W3C//DTD SVG 1.1//EN" "http://www.w3.org/Graphics/SVG/1.1/DTD/svg11.dtd">
<svg width="16px" height="16px" version="1.1" xmlns="http://www.w3.org/2000/svg" xmlns:xlink="http://www.w3.org/1999/xlink" xml:space="preserve" xmlns:serif="http://www.serif.com/" style="fill-rule:evenodd;clip-rule:evenodd;stroke-linejoin:round;stroke-miterlimit:2;">
    <g transform="matrix(1,0,0,1,-210,-410)">
        <g id="clone_cells" transform="matrix(1,0,0,1,100,180)">
            <g id="bg" transform="matrix(0.110345,0,0,0.121212,93.7793,211.091)">
                <rect x="147" y="156" width="145" height="132" style="fill:rgb(135,135,135);fill-opacity:0;"/>
            </g>
            <g transform="matrix(1,0,0,1,-100,-171)">
                <path d="M225,414L221,414L221,417L225,417L225,414ZM220,414L216,414L216,417L220,417L220,414ZM224,415L224,416C224,416 222,416 222,416C222,416 222,415 222,415L224,415ZM219,415L219,416C219,416 217,416 217,416C217,416 217,415 217,415L219,415ZM225,410L221,410L221,413L225,413L225,410ZM220,410L216,410L216,413L220,413L220,410ZM224,411L224,412C224,412 222,412 222,412C222,412 222,411 222,411L224,411ZM219,411L219,412C219,412 217,412 217,412C217,412 217,411 217,411L219,411Z"/>
            </g>
            <g transform="matrix(-1.83702e-16,1,1,1.83702e-16,111,222)">
                <path d="M12,12.999L11.99,12.999C11.462,12.999 10.956,12.79 10.583,12.417C10.21,12.044 10,11.538 10,11.01L10,10L11,10L11,11.045C11,11.573 11.427,12 11.955,12L13,12L13,10L15.5,12.5L13,15L13,13L12,12.999Z"/>
            </g>
            <g transform="matrix(1,0,0,1,-105,-180)">
                <path d="M225,414L221,414L221,417L225,417L225,414ZM220,414L216,414L216,417L220,417L220,414ZM224,415L224,416C224,416 222,416 222,416C222,416 222,415 222,415L224,415ZM219,415L219,416C219,416 217,416 217,416C217,416 217,415 217,415L219,415ZM225,410L221,410L221,413L225,413L225,410ZM220,410L216,410L216,413L220,413L220,410ZM224,411L224,412C224,412 222,412 222,412C222,412 222,411 222,411L224,411ZM219,411L219,412C219,412 217,412 217,412C217,412 217,411 217,411L219,411Z"/>
            </g>
        </g>
    </g>
</svg>
