<?xml version="1.0" encoding="UTF-8" standalone="no"?>
<!DOCTYPE svg PUBLIC "-//W3C//DTD SVG 1.1//EN" "http://www.w3.org/Graphics/SVG/1.1/DTD/svg11.dtd">
<svg width="100%" height="100%" viewBox="0 0 16 16" version="1.1" xmlns="http://www.w3.org/2000/svg" xmlns:xlink="http://www.w3.org/1999/xlink" xml:space="preserve" xmlns:serif="http://www.serif.com/" style="fill-rule:evenodd;clip-rule:evenodd;stroke-linejoin:round;stroke-miterlimit:2;">
    <g id="collect_assets">
        <rect id="rollup" x="-0" y="-0" width="16" height="16" style="fill:#878787;fill-opacity:0;"/>
        <path d="M7,14l-2,-0l3,-3l3,3l-2,-0l-0,2l-2,-0l-0,-2Z"/>
        <path d="M2,7l0,-2l3,3l-3,3l0,-2l-2,-0l0,-2l2,-0Z"/>
        <path d="M9,2l2,0l-3,3l-3,-3l2,0l0,-2l2,0l0,2Z"/>
        <path d="M14,9l-0,2l-3,-3l3,-3l-0,2l2,0l-0,2l-2,0Z"/>
        <circle cx="8" cy="8" r="2"/>
    </g>
</svg>
