<?xml version="1.0" encoding="UTF-8" standalone="no"?>
<!DOCTYPE svg PUBLIC "-//W3C//DTD SVG 1.1//EN" "http://www.w3.org/Graphics/SVG/1.1/DTD/svg11.dtd">
<svg width="100%" height="100%" viewBox="0 0 16 16" version="1.1" xmlns="http://www.w3.org/2000/svg" xmlns:xlink="http://www.w3.org/1999/xlink" xml:space="preserve" xmlns:serif="http://www.serif.com/" style="fill-rule:evenodd;clip-rule:evenodd;stroke-linejoin:round;stroke-miterlimit:2;">
    <g id="color_fade">
        <rect id="bg" x="-0" y="0.001" width="16" height="16" style="fill:#878787;fill-opacity:0;"/>
        <path d="M16,1.001l0,13.999c0,0.552 -0.448,1 -1,1l-14,0c-0.552,0 -1,-0.448 -1,-1l-0,-13.999c-0,-0.552 0.448,-1 1,-1l14,-0c0.552,-0 1,0.448 1,1Zm-1,-0l-14,-0l-0,13.999c-0,-0.552 0.552,0 -0,0l14,0l-0,-13.999c-0,0.552 -0.552,-0 -0,-0Z"/>
        <path d="M9,3l0,-2l2,-0l0,2l-2,-0Zm-2,-2l0,2l-2,0l0,2l2,-0l0,2l-2,0l0,2l2,-0l0,2l-2,0l0,2l2,-0l0,2l-6,-0l0,-14l6,-0Zm0,12l0,-2l2,-0l0,2l-2,-0Zm2,-2l0,-2l2,-0l0,2l-2,-0Zm0,-2l-2,-0l0,-2l2,-0l0,2Zm0,-2l0,-2l2,-0l0,2l-2,-0Zm0,-2l-2,-0l0,-2l2,-0l0,2Zm0,8l2,-0l0,2l-2,0l0,-2Z"/>
    </g>
</svg>
