<?xml version="1.0" encoding="UTF-8" standalone="no"?>
<!DOCTYPE svg PUBLIC "-//W3C//DTD SVG 1.1//EN" "http://www.w3.org/Graphics/SVG/1.1/DTD/svg11.dtd">
<svg width="100%" height="100%" viewBox="0 0 16 16" version="1.1" xmlns="http://www.w3.org/2000/svg" xmlns:xlink="http://www.w3.org/1999/xlink" xml:space="preserve" xmlns:serif="http://www.serif.com/" style="fill-rule:evenodd;clip-rule:evenodd;stroke-linejoin:round;stroke-miterlimit:2;">
    <g id="colormodel">
        <g id="bg">
            <rect x="0" y="-0" width="16" height="16" style="fill:#878787;fill-opacity:0;"/>
        </g>
        <rect x="5" y="1" width="4" height="2" style="fill-opacity:0.2;"/>
        <path d="M15,4l-15,0l0,11.016l15,-0.016l0,-11Zm-5,8l0,2l-1,0l0,-2l-4,0l0,2l9,0l0,-2l-4,0Zm-6,-2l-3,0l0,2l3,0l0,-2Zm6,-3l0,2l-1,0l0,-2l-4,0l0,2l9,0l0,-2l-4,0Zm-6,-2l-3,0l0,2l3,0l0,-2Zm1,-5l-1,0l0,2l1,0l0,-2Zm5,0l-1,0l0,2l1,0l0,-2Z"/>
        <rect x="10" y="1" width="4" height="2" style="fill-opacity:0.4;"/>
        <rect x="10" y="7" width="4" height="2" style="fill-opacity:0.4;"/>
        <rect x="10" y="12" width="4" height="2" style="fill-opacity:0.4;"/>
        <rect x="5" y="12" width="4" height="2" style="fill-opacity:0.2;"/>
        <rect x="5" y="7" width="4" height="2" style="fill-opacity:0.6;"/>
        <path d="M15,0l-15,0l0,3l15,0l0,-3Zm-1,1l-13,0l0,1l13,0l0,-1Z"/>
    </g>
</svg>
