<?xml version="1.0" encoding="UTF-8" standalone="no"?>
<!DOCTYPE svg PUBLIC "-//W3C//DTD SVG 1.1//EN" "http://www.w3.org/Graphics/SVG/1.1/DTD/svg11.dtd">
<svg width="16px" height="16px" version="1.1" xmlns="http://www.w3.org/2000/svg" xmlns:xlink="http://www.w3.org/1999/xlink" xml:space="preserve" xmlns:serif="http://www.serif.com/" style="fill-rule:evenodd;clip-rule:evenodd;stroke-linejoin:round;stroke-miterlimit:2;">
    <g transform="matrix(1,0,0,1,-30,-190)">
        <g id="combo_viewer">
            <g id="bg" transform="matrix(0.110345,0,0,0.121212,13.7793,171.091)">
                <rect x="147" y="156" width="145" height="132" style="fill:rgb(135,135,135);fill-opacity:0;"/>
            </g>
            <g transform="matrix(1,0,0,1,28,188.001)">
                <path d="M11,6C12.104,6 13,6.896 13,8C13,9.104 12.104,10 11,10C9.896,10 9,9.104 9,8C9,6.896 9.896,6 11,6ZM11,7C11.552,7 12,7.448 12,8C12,8.552 11.552,9 11,9C10.448,9 10,8.552 10,8C10,7.448 10.448,7 11,7Z"/>
            </g>
            <g transform="matrix(1,0,0,1,28,188.001)">
                <path d="M6.275,14.928C6.311,14.931 6.382,14.935 6.436,14.929C6.721,14.9 7.101,14.757 7.459,14.472C8.334,13.774 8.587,13.381 8.928,12.6C9.143,12.11 9.373,11.635 9.548,11.128C9.621,10.918 9.733,10.691 9.828,10.462C9.893,10.303 9.955,10.145 9.955,9.989C9.955,9.713 10.179,9.489 10.455,9.489C10.731,9.489 10.955,9.713 10.955,9.989C10.955,10.476 10.65,11.004 10.493,11.455C10.309,11.987 10.069,12.486 9.844,13.001C9.434,13.939 9.134,14.415 8.082,15.254C7.447,15.76 6.754,15.942 6.311,15.934C5.997,15.928 5.769,15.823 5.643,15.706C5.386,15.467 5.102,15.199 5.014,14.57C4.976,14.297 5.166,14.044 5.44,14.006C5.713,13.967 5.966,14.158 6.004,14.431C6.042,14.697 6.162,14.824 6.275,14.928Z"/>
            </g>
            <g transform="matrix(1,0,0,1,28,188.001)">
                <path d="M9.068,14.474C9.281,14.375 10.226,14.086 10.605,13.927C10.783,13.851 11.133,13.643 11.489,13.568C11.658,13.532 11.84,13.529 11.931,13.735C11.993,13.872 12.016,14.166 12.003,14.543C11.995,14.819 12.211,15.05 12.487,15.059C12.763,15.068 12.994,14.851 13.003,14.575C13.022,13.99 12.94,13.539 12.844,13.326C12.568,12.708 12.1,12.528 11.6,12.548C11.072,12.569 10.484,12.892 10.216,13.005C9.83,13.168 8.865,13.466 8.647,13.567C8.396,13.683 8.288,13.981 8.404,14.231C8.52,14.482 8.818,14.59 9.068,14.474Z"/>
            </g>
            <g transform="matrix(1,0,0,1,28,188.001)">
                <path d="M10.01,11.172C10.194,11.275 10.3,11.487 10.258,11.705C10.22,11.897 10.109,12 9.991,12.06C9.895,12.11 9.687,12.187 9.445,12.01C9.37,11.955 9.151,11.695 8.866,11.434C8.678,11.263 8.457,11.071 8.224,11.046C7.681,10.987 7.238,10.985 6.918,11.479C6.768,11.711 6.458,11.777 6.227,11.627C5.995,11.477 5.928,11.167 6.078,10.936C6.64,10.067 7.376,9.949 8.331,10.051C8.648,10.085 8.972,10.245 9.259,10.461C9.584,10.705 9.86,11.016 10.01,11.172ZM9.576,11.147C9.431,11.196 9.317,11.303 9.276,11.513C9.31,11.343 9.426,11.209 9.576,11.147Z"/>
            </g>
            <g transform="matrix(1,0,0,1,28,188.001)">
                <path d="M10.152,11.117C10.186,11.101 10.485,10.959 10.708,10.829C11.278,10.499 11.983,10.105 12.458,10.069C12.73,10.049 13.027,10.028 13.296,10.076C13.666,10.141 13.991,10.316 14.213,10.691C14.352,10.929 14.273,11.236 14.035,11.376C13.797,11.516 13.491,11.436 13.351,11.199C13.279,11.077 13.154,11.059 13.031,11.05C12.867,11.037 12.694,11.054 12.534,11.066C12.168,11.094 11.647,11.441 11.209,11.695C10.945,11.847 10.707,11.978 10.532,12.044C10.395,12.096 10.277,12.116 10.187,12.116C9.911,12.116 9.687,11.892 9.687,11.616C9.687,11.351 9.892,11.135 10.152,11.117Z"/>
            </g>
            <path d="M45,206C45.552,206 46,205.552 46,205L46,191C46,190.448 45.552,190 45,190L31,190C30.448,190 30,190.448 30,191L30,205C30,205.552 30.448,206 31,206L45,206ZM45,193.001L31,193.001L31,205L45,205L45,193.001ZM32,191.3C32,191.134 31.866,191 31.7,191C31.573,191 31.427,191 31.3,191C31.134,191 31,191.134 31,191.3C31,191.427 31,191.573 31,191.7C31,191.866 31.134,192 31.3,192C31.427,192 31.573,192 31.7,192C31.866,192 32,191.866 32,191.7L32,191.3ZM34,191.3C34,191.134 33.866,191 33.7,191C33.573,191 33.427,191 33.3,191C33.134,191 33,191.134 33,191.3C33,191.427 33,191.573 33,191.7C33,191.866 33.134,192 33.3,192C33.427,192 33.573,192 33.7,192C33.866,192 34,191.866 34,191.7L34,191.3ZM36,191.3C36,191.134 35.866,191 35.7,191C35.573,191 35.427,191 35.3,191C35.134,191 35,191.134 35,191.3C35,191.427 35,191.573 35,191.7C35,191.866 35.134,192 35.3,192C35.427,192 35.573,192 35.7,192C35.866,192 36,191.866 36,191.7L36,191.3ZM38.006,191.3C38.006,191.134 37.871,191 37.706,191C37.578,191 37.428,191 37.3,191C37.134,191 37,191.134 37,191.3C37,191.427 37,191.573 37,191.7C37,191.866 37.134,192 37.3,192C37.428,192 37.578,192 37.706,192C37.871,192 38.006,191.866 38.006,191.7C38.006,191.573 38.006,191.427 38.006,191.3ZM40.006,191.3C40.006,191.134 39.871,191 39.706,191C39.578,191 39.428,191 39.3,191C39.134,191 39,191.134 39,191.3C39,191.427 39,191.573 39,191.7C39,191.866 39.134,192 39.3,192C39.428,192 39.578,192 39.706,192C39.871,192 40.006,191.866 40.006,191.7C40.006,191.573 40.006,191.427 40.006,191.3Z"/>
        </g>
    </g>
</svg>
