<?xml version="1.0" encoding="UTF-8" standalone="no"?>
<!DOCTYPE svg PUBLIC "-//W3C//DTD SVG 1.1//EN" "http://www.w3.org/Graphics/SVG/1.1/DTD/svg11.dtd">
<svg width="100%" height="100%" viewBox="0 0 16 16" version="1.1" xmlns="http://www.w3.org/2000/svg" xmlns:xlink="http://www.w3.org/1999/xlink" xml:space="preserve" xmlns:serif="http://www.serif.com/" style="fill-rule:evenodd;clip-rule:evenodd;stroke-linejoin:round;stroke-miterlimit:2;">
    <g id="compare">
        <rect id="bg" x="-0.015" y="0" width="16" height="16" style="fill:#878787;fill-opacity:0;"/>
        <path d="M7.985,14l0,-12l4,0c1.104,0 2,0.896 2,2l0,8c0,1.104 -0.896,2 -2,2l-4,0Z" style="fill-opacity:0.25;"/>
        <path d="M7.985,3l0,-1l6,0l0,12l-6,-0l0,-1l5,0l0,-10l-5,-0Z"/>
        <path d="M6.985,2l0,12l-6,0l0,-12l6,0Zm-1,1c0,0 -4,0 -4,-0l0,10c0,0 4,0 4,0l0,-10Z"/>
        <rect x="5.985" y="14" width="1" height="2"/>
        <rect x="5.985" y="0" width="1" height="2"/>
    </g>
</svg>
