<?xml version="1.0" encoding="UTF-8" standalone="no"?>
<svg
   width="16"
   height="16"
   version="1.1"
   xml:space="preserve"
   style="clip-rule:evenodd;fill-rule:evenodd;stroke-linejoin:round;stroke-miterlimit:2"
   id="svg3"
   sodipodi:docname="config.svg"
   inkscape:version="1.1.2 (b8e25be833, 2022-02-05)"
   xmlns:inkscape="http://www.inkscape.org/namespaces/inkscape"
   xmlns:sodipodi="http://sodipodi.sourceforge.net/DTD/sodipodi-0.dtd"
   xmlns="http://www.w3.org/2000/svg"
   xmlns:svg="http://www.w3.org/2000/svg"><defs
   id="defs7" /><sodipodi:namedview
   id="namedview5"
   pagecolor="#ffffff"
   bordercolor="#666666"
   borderopacity="1.0"
   inkscape:pageshadow="2"
   inkscape:pageopacity="0.0"
   inkscape:pagecheckerboard="0"
   showgrid="true"
   inkscape:zoom="42.294118"
   inkscape:cx="8.5"
   inkscape:cy="8.488178"
   inkscape:window-width="1920"
   inkscape:window-height="1141"
   inkscape:window-x="-7"
   inkscape:window-y="-7"
   inkscape:window-maximized="1"
   inkscape:current-layer="svg3"><inkscape:grid
     type="xygrid"
     id="grid824" /></sodipodi:namedview>
    
<g
   id="g10"
   transform="matrix(0.02448979,0,0,0.02448979,1.7306123,1.7306123)"><line
     fill="none"
     y1="501"
     x1="303.10001"
     y2="501"
     x2="302.10001"
     id="line2" /><g
     id="g8"><path
       id="path4-9"
       style="stroke-width:0.0285714"
       d="M 6.6855469,1 V 2.3808594 C 6.0569756,2.5351451 5.4680244,2.7919086 4.9394531,3.1347656 L 3.9628906,2.1621094 2.109375,4.0078125 3.1171875,5.0136719 C 3.0371875,5.1451004 2.9650558,5.2769197 2.8964844,5.4140625 2.6821987,5.8226338 2.5196317,6.2721318 2.4082031,6.7207031 H 1 v 2.6191407 h 1.4375 c 0.042857,0.1714285 0.093248,0.3392411 0.1503906,0.5078124 0.00286,0.011429 0.00886,0.023728 0.011719,0.035156 0,0.00286 0.00391,0.006 0.00391,0.011719 0.14,0.4057138 0.3220648,0.7912948 0.5449219,1.1484378 l -1.0136719,1.007812 1.8535156,1.845703 1.0039063,-0.996093 c 0.522857,0.328571 1.1016073,0.576038 1.71875,0.724609 V 15 H 9.3144531 V 13.654297 C 9.9630244,13.51144 10.571473,13.263828 11.117188,12.923828 l 0.919921,0.914063 1.853516,-1.845703 -0.916016,-0.91211 c 0.342857,-0.545714 0.596474,-1.1511607 0.742188,-1.7968749 H 15 V 9.2792969 6.6601562 H 13.705078 C 13.55365,6.0201564 13.296886,5.4219084 12.951172,4.8847656 L 13.890625,3.9511719 12.037109,2.1054688 11.082031,3.0566406 C 10.544889,2.7280693 9.9506918,2.4876562 9.3164062,2.3476562 V 1 Z m 1.34375,4.7832031 c 1.2193343,0 2.2304691,1.0059132 2.2304691,2.2167969 0,1.2108837 -1.013108,2.216797 -2.2304691,2.216797 C 6.8119357,10.216797 5.796875,9.2325417 5.796875,8 c 0,-1.2325417 1.0130876,-2.2167969 2.2324219,-2.2167969 z"
       transform="matrix(35.000008,0,0,35.000008,-24.000005,-24.000008)" /></g></g></svg>
