<?xml version="1.0" encoding="UTF-8" standalone="no"?>
<!DOCTYPE svg PUBLIC "-//W3C//DTD SVG 1.1//EN" "http://www.w3.org/Graphics/SVG/1.1/DTD/svg11.dtd">
<svg width="100%" height="100%" viewBox="0 0 16 16" version="1.1" xmlns="http://www.w3.org/2000/svg" xmlns:xlink="http://www.w3.org/1999/xlink" xml:space="preserve" xmlns:serif="http://www.serif.com/" style="fill-rule:evenodd;clip-rule:evenodd;stroke-linejoin:round;stroke-miterlimit:2;">
    <g id="connect">
        <rect id="bg" x="0" y="0" width="16" height="16" style="fill-opacity:0;"/>
        <g>
            <path d="M11.67,9.987l-5.657,-5.657l1.131,-1.131c1.561,-1.561 4.096,-1.561 5.657,0c1.561,1.561 1.561,4.096 -0,5.657l-1.131,1.131Z"/>
            <path d="M13.243,11.243c0.195,-0.195 0.195,-0.512 -0,-0.707l-7.779,-7.779c-0.195,-0.195 -0.512,-0.195 -0.707,0c-0.195,0.195 -0.195,0.512 0,0.707l7.779,7.779c0.195,0.195 0.512,0.195 0.707,-0Z"/>
            <path d="M13.384,11.384c-0.273,0.273 -0.717,0.273 -0.99,0l-7.778,-7.778c-0.273,-0.273 -0.273,-0.717 -0,-0.99c0.273,-0.273 0.717,-0.273 0.99,-0l7.778,7.778c0.273,0.273 0.273,0.717 0,0.99Zm-0.141,-0.141c0.195,-0.195 0.195,-0.512 -0,-0.707l-7.779,-7.779c-0.195,-0.195 -0.512,-0.195 -0.707,0c-0.195,0.195 -0.195,0.512 0,0.707l7.779,7.779c0.195,0.195 0.512,0.195 0.707,-0Z"/>
            <path d="M8.293,5.479c0.195,-0.195 0.195,-0.512 -0,-0.707c-0.195,-0.195 -0.512,-0.195 -0.707,0l-2.829,2.829c-0.195,0.195 -0.195,0.512 0,0.707c0.195,0.195 0.512,0.195 0.707,-0l2.829,-2.829Z"/>
            <path d="M8.434,5.621l-2.828,2.828c-0.273,0.273 -0.717,0.273 -0.99,0c-0.273,-0.273 -0.273,-0.717 -0,-0.99l2.828,-2.828c0.274,-0.273 0.717,-0.273 0.99,-0c0.273,0.273 0.273,0.717 0,0.99Zm-0.141,-0.142c0.195,-0.195 0.195,-0.512 -0,-0.707c-0.195,-0.195 -0.512,-0.195 -0.707,0l-2.829,2.829c-0.195,0.195 -0.195,0.512 0,0.707c0.195,0.195 0.512,0.195 0.707,-0l2.829,-2.829Z"/>
            <path d="M15.707,1.707c0.39,-0.39 0.39,-1.024 0,-1.414c-0.39,-0.39 -1.024,-0.39 -1.414,-0l-3.118,3.118c-0.391,0.39 -0.391,1.024 -0,1.414c0.39,0.391 1.024,0.391 1.414,0l3.118,-3.118Z"/>
            <path d="M11.243,8.429c0.195,-0.195 0.195,-0.512 -0,-0.707c-0.195,-0.195 -0.512,-0.195 -0.707,-0l-2.829,2.828c-0.195,0.195 -0.195,0.512 0,0.707c0.195,0.196 0.512,0.196 0.707,0l2.829,-2.828Z"/>
            <path d="M11.384,8.57l-2.828,2.829c-0.274,0.273 -0.717,0.273 -0.99,-0c-0.273,-0.273 -0.273,-0.717 -0,-0.99l2.828,-2.828c0.273,-0.274 0.717,-0.274 0.99,-0c0.273,0.273 0.273,0.716 0,0.989Zm-0.141,-0.141c0.195,-0.195 0.195,-0.512 -0,-0.707c-0.195,-0.195 -0.512,-0.195 -0.707,-0l-2.829,2.828c-0.195,0.195 -0.195,0.512 0,0.707c0.195,0.196 0.512,0.196 0.707,0l2.829,-2.828Z"/>
        </g>
        <g>
            <path d="M4.194,6.149l5.657,5.657l-1.131,1.131c-1.561,1.561 -4.096,1.561 -5.657,0c-1.561,-1.561 -1.561,-4.096 -0,-5.657l1.131,-1.131Z"/>
            <path d="M2.757,4.757c-0.195,0.195 -0.195,0.512 0,0.707l7.779,7.779c0.195,0.195 0.512,0.195 0.707,-0c0.195,-0.195 0.195,-0.512 -0,-0.707l-7.779,-7.779c-0.195,-0.195 -0.512,-0.195 -0.707,0Z"/>
            <path d="M2.616,4.616c0.273,-0.273 0.717,-0.273 0.99,-0l7.778,7.778c0.273,0.273 0.273,0.717 0,0.99c-0.273,0.273 -0.717,0.273 -0.99,0l-7.778,-7.778c-0.273,-0.273 -0.273,-0.717 -0,-0.99Zm0.141,0.141c-0.195,0.195 -0.195,0.512 0,0.707l7.779,7.779c0.195,0.195 0.512,0.195 0.707,-0c0.195,-0.195 0.195,-0.512 -0,-0.707l-7.779,-7.779c-0.195,-0.195 -0.512,-0.195 -0.707,0Z"/>
            <path d="M0.293,14.293c-0.39,0.39 -0.39,1.024 -0,1.414c0.39,0.39 1.024,0.39 1.414,0l2.982,-2.982c0.391,-0.39 0.391,-1.024 0,-1.414c-0.39,-0.391 -1.024,-0.391 -1.414,-0l-2.982,2.982Z"/>
        </g>
    </g>
</svg>
