<?xml version="1.0" encoding="UTF-8" standalone="no"?>
<!DOCTYPE svg PUBLIC "-//W3C//DTD SVG 1.1//EN" "http://www.w3.org/Graphics/SVG/1.1/DTD/svg11.dtd">
<svg width="16px" height="16px" version="1.1" xmlns="http://www.w3.org/2000/svg" xmlns:xlink="http://www.w3.org/1999/xlink" xml:space="preserve" xmlns:serif="http://www.serif.com/" style="fill-rule:evenodd;clip-rule:evenodd;stroke-linejoin:round;stroke-miterlimit:2;">
    <g transform="matrix(1,0,0,1,-90,-390)">
        <g id="content_copy">
            <g id="bg" transform="matrix(0.110345,0,0,0.121212,73.7797,371.091)">
                <rect x="147" y="156" width="145" height="132" style="fill:rgb(135,135,135);fill-opacity:0;"/>
             </g>
            <path d="M104,391L94,391L94,402L104,402L104,391ZM102,399.5C102,399.367 101.947,399.24 101.854,399.146C101.76,399.053 101.633,399 101.5,399L96.5,399C96.367,399 96.24,399.053 96.146,399.146C96.053,399.24 96,399.367 96,399.5C96,399.633 96.053,399.76 96.146,399.854C96.24,399.947 96.367,400 96.5,400L101.5,400C101.633,400 101.76,399.947 101.854,399.854C101.947,399.76 102,399.633 102,399.5ZM102,396.5C102,396.367 101.947,396.24 101.854,396.146C101.76,396.053 101.633,396 101.5,396L96.5,396C96.367,396 96.24,396.053 96.146,396.146C96.053,396.24 96,396.367 96,396.5C96,396.633 96.053,396.76 96.146,396.854C96.24,396.947 96.367,397 96.5,397L101.5,397C101.633,397 101.76,396.947 101.854,396.854C101.947,396.76 102,396.633 102,396.5ZM102,393.5C102,393.367 101.947,393.24 101.854,393.146C101.76,393.053 101.633,393 101.5,393L96.5,393C96.367,393 96.24,393.053 96.146,393.146C96.053,393.24 96,393.367 96,393.5C96,393.633 96.053,393.76 96.146,393.854C96.24,393.947 96.367,394 96.5,394L101.5,394C101.633,394 101.76,393.947 101.854,393.854C101.947,393.76 102,393.633 102,393.5Z"/>
            <path d="M101,405L101,403L102,403L102,405C102,405.265 101.895,405.52 101.707,405.707C101.52,405.895 101.265,406 101,406C98.74,406 93.26,406 91,406C90.448,406 90,405.552 90,405C90,402.579 90,396.422 90,394C90,393.735 90.105,393.48 90.293,393.293C90.48,393.105 90.734,393 91,393L93,393L93,391C93,390.735 93.105,390.48 93.293,390.293C93.48,390.105 93.734,390 94,390C96.26,390 101.74,390 104,390C104.552,390 105,390.448 105,391C105,393.422 105,399.578 105,402C105,402.265 104.895,402.52 104.707,402.707C104.52,402.895 104.265,403 104,403C101.74,403 96.26,403 94,403C93.448,403 93,402.552 93,402L93,394L91,394L91,405L101,405ZM102,399.5C102,399.367 101.947,399.24 101.854,399.146C101.76,399.053 101.633,399 101.5,399L96.5,399C96.367,399 96.24,399.053 96.146,399.146C96.053,399.24 96,399.367 96,399.5C96,399.633 96.053,399.76 96.146,399.854C96.24,399.947 96.367,400 96.5,400L101.5,400C101.633,400 101.76,399.947 101.854,399.854C101.947,399.76 102,399.633 102,399.5ZM102,396.5C102,396.367 101.947,396.24 101.854,396.146C101.76,396.053 101.633,396 101.5,396L96.5,396C96.367,396 96.24,396.053 96.146,396.146C96.053,396.24 96,396.367 96,396.5C96,396.633 96.053,396.76 96.146,396.854C96.24,396.947 96.367,397 96.5,397L101.5,397C101.633,397 101.76,396.947 101.854,396.854C101.947,396.76 102,396.633 102,396.5ZM102,393.5C102,393.367 101.947,393.24 101.854,393.146C101.76,393.053 101.633,393 101.5,393L96.5,393C96.367,393 96.24,393.053 96.146,393.146C96.053,393.24 96,393.367 96,393.5C96,393.633 96.053,393.76 96.146,393.854C96.24,393.947 96.367,394 96.5,394L101.5,394C101.633,394 101.76,393.947 101.854,393.854C101.947,393.76 102,393.633 102,393.5Z"/>
         </g>
     </g>
</svg>
