<?xml version="1.0" encoding="UTF-8" standalone="no"?>
<!DOCTYPE svg PUBLIC "-//W3C//DTD SVG 1.1//EN" "http://www.w3.org/Graphics/SVG/1.1/DTD/svg11.dtd">
<svg width="16px" height="16px" version="1.1" xmlns="http://www.w3.org/2000/svg" xmlns:xlink="http://www.w3.org/1999/xlink" xml:space="preserve" xmlns:serif="http://www.serif.com/" style="fill-rule:evenodd;clip-rule:evenodd;stroke-linejoin:round;stroke-miterlimit:2;">
    <g transform="matrix(0.8,0,0,0.8,-4.44089e-16,-4.44089e-16)">
        <rect x="0" y="0" width="20" height="20" style="fill-opacity:0;"/>
    </g>
    <g transform="matrix(1,0,0,1,-3,-3)">
        <g>
            <g transform="matrix(1,0,0,1,1,1)">
                <path d="M5,15L4.5,15C3.672,15 3,14.328 3,13.5L3,3.5C3,2.672 3.672,2 4.5,2L13.5,2C13.898,2 14.279,2.158 14.561,2.439C14.842,2.721 15,3.102 15,3.5L15,4L14,4L14,3L4.5,3C4.224,3 4,3.224 4,3.5L4,13.5C4,13.776 4.224,14 4.5,14L5,14L5,15Z"/>
            </g>
            <g transform="matrix(1,0,0,1,1,1)">
                <path d="M7.5,5L16.5,5C16.898,5 17.279,5.158 17.561,5.439C17.842,5.721 18,6.102 18,6.5L18,16.5C18,17.328 17.328,18 16.5,18L7.5,18C6.672,18 6,17.328 6,16.5L6,6.5C6,5.672 6.672,5 7.5,5ZM15,14.5C15,14.367 14.947,14.24 14.854,14.146C14.76,14.053 14.633,14 14.5,14L9.5,14C9.367,14 9.24,14.053 9.146,14.146C9.053,14.24 9,14.367 9,14.5C9,14.633 9.053,14.76 9.146,14.854C9.24,14.947 9.367,15 9.5,15L14.5,15C14.633,15 14.76,14.947 14.854,14.854C14.947,14.76 15,14.633 15,14.5ZM15,11.5C15,11.367 14.947,11.24 14.854,11.146C14.76,11.053 14.633,11 14.5,11L9.5,11C9.367,11 9.24,11.053 9.146,11.146C9.053,11.24 9,11.367 9,11.5C9,11.633 9.053,11.76 9.146,11.854C9.24,11.947 9.367,12 9.5,12L14.5,12C14.633,12 14.76,11.947 14.854,11.854C14.947,11.76 15,11.633 15,11.5ZM15,8.5C15,8.367 14.947,8.24 14.854,8.146C14.76,8.053 14.633,8 14.5,8L9.5,8C9.367,8 9.24,8.053 9.146,8.146C9.053,8.24 9,8.367 9,8.5C9,8.633 9.053,8.76 9.146,8.854C9.24,8.947 9.367,9 9.5,9L14.5,9C14.633,9 14.76,8.947 14.854,8.854C14.947,8.76 15,8.633 15,8.5Z"/>
            </g>
        </g>
    </g>
</svg>
