<?xml version="1.0" encoding="UTF-8" standalone="no"?>
<!DOCTYPE svg PUBLIC "-//W3C//DTD SVG 1.1//EN" "http://www.w3.org/Graphics/SVG/1.1/DTD/svg11.dtd">
<svg width="16px" height="16px" version="1.1" xmlns="http://www.w3.org/2000/svg" xmlns:xlink="http://www.w3.org/1999/xlink" xml:space="preserve" xmlns:serif="http://www.serif.com/" style="fill-rule:evenodd;clip-rule:evenodd;stroke-linejoin:round;stroke-miterlimit:2;">
    <g transform="matrix(1,0,0,1,-90,-410)">
        <g id="cut">
            <g id="bg" transform="matrix(0.110345,0,0,0.121212,73.7797,391.091)">
                <rect x="147" y="156" width="145" height="132" style="fill:rgb(135,135,135);fill-opacity:0;"/>
            </g>
            <g transform="matrix(1.15729,-2.52907e-23,6.54352e-24,1.14278,-805.824,412.286)">
                <path d="M780.983,4.861L780.104,6.445L779.938,6.742C779.915,6.783 779.887,6.821 779.854,6.854L778.854,7.854C778.76,7.948 778.633,8 778.5,8L777,8C776.19,8 775.46,8.486 775.15,9.234L775.153,9.234C774.843,9.984 775.013,10.841 775.586,11.414C775.961,11.79 776.47,12.001 777,12.001C777.963,12.001 778.796,11.305 778.966,10.357C778.972,10.318 778.984,10.037 779,10L779,9.5C779,9.343 779.074,9.194 779.2,9.1L780.983,7.762L782.766,9.1C782.892,9.194 782.966,9.343 782.966,9.5L782.966,10C782.981,10.036 782.993,10.318 783,10.357C783.17,11.304 784.003,12 784.965,12C785.496,12 786.005,11.789 786.379,11.414C786.953,10.841 787.123,9.984 786.813,9.234L786.815,9.234C786.506,8.487 785.773,7.999 784.965,8L783.465,8C783.333,8 783.206,7.947 783.112,7.854L782.112,6.854C782.079,6.821 782.051,6.783 782.028,6.742L781.868,6.453L784.5,3C785.525,1.342 785.445,-0.22 785,-2L780.983,4.861M780.967,6.226L780.985,6.226C781.119,6.231 781.226,6.342 781.226,6.476C781.226,6.613 781.113,6.726 780.976,6.726C780.839,6.726 780.726,6.613 780.726,6.476C780.726,6.342 780.833,6.231 780.967,6.226ZM777,8.628C777.751,8.628 778.372,9.251 778.372,10C778.372,10.749 777.751,11.372 777,11.372C776.251,11.372 775.628,10.749 775.628,10C775.628,9.251 776.251,8.628 777,8.628ZM784.965,8.596C785.732,8.596 786.369,9.233 786.369,10C786.369,10.767 785.732,11.404 784.965,11.404C784.198,11.404 783.561,10.767 783.561,10C783.561,9.233 784.198,8.596 784.965,8.596Z" style="fill-rule:nonzero;"/>
            </g>
            <g transform="matrix(1.15729,-2.52907e-23,6.54352e-24,1.14278,-806.087,412.286)">
                <path d="M780.551,4.117L777,-2C776.55,-0.2 776.473,1.317 777.5,3L779.574,5.744L780.551,4.117Z" style="fill-rule:nonzero;"/>
            </g>
        </g>
     </g>
</svg>
