<?xml version="1.0" encoding="UTF-8" standalone="no"?>
<!DOCTYPE svg PUBLIC "-//W3C//DTD SVG 1.1//EN" "http://www.w3.org/Graphics/SVG/1.1/DTD/svg11.dtd">
<svg width="16px" height="16px" version="1.1" xmlns="http://www.w3.org/2000/svg" xmlns:xlink="http://www.w3.org/1999/xlink" xml:space="preserve" xmlns:serif="http://www.serif.com/" style="fill-rule:evenodd;clip-rule:evenodd;stroke-linejoin:round;stroke-miterlimit:2;">
    <g transform="matrix(1,0,0,1,-2,-2)">
        <rect x="0" y="0" width="20" height="20" style="fill-opacity:0;"/>
    </g>
    <g transform="matrix(7.08636e-17,1.15729,-1.14278,6.99751e-17,13.7113,-895.824)">
        <path d="M780.983,4.861L780.104,6.445L779.938,6.742C779.915,6.783 779.887,6.821 779.854,6.854L778.854,7.854C778.76,7.948 778.633,8 778.5,8L777,8C776.19,8 775.46,8.486 775.15,9.234L775.153,9.234C774.843,9.984 775.013,10.841 775.586,11.414C775.961,11.79 776.47,12.001 777,12.001C777.963,12.001 778.796,11.305 778.966,10.357C778.972,10.318 778.984,10.037 779,10L779,9.5C779,9.343 779.074,9.194 779.2,9.1L780.983,7.762L782.766,9.1C782.892,9.194 782.966,9.343 782.966,9.5L782.966,10C782.981,10.036 782.993,10.318 783,10.357C783.17,11.304 784.003,12 784.965,12C785.496,12 786.005,11.789 786.379,11.414C786.953,10.841 787.123,9.984 786.813,9.234L786.815,9.234C786.506,8.487 785.773,7.999 784.965,8L783.465,8C783.333,8 783.206,7.947 783.112,7.854L782.112,6.854C782.079,6.821 782.051,6.783 782.028,6.742L781.868,6.453L784.5,3C785.525,1.342 785.445,-0.22 785,-2L780.983,4.861M780.967,6.226L780.985,6.226C781.119,6.231 781.226,6.342 781.226,6.476C781.226,6.613 781.113,6.726 780.976,6.726C780.839,6.726 780.726,6.613 780.726,6.476C780.726,6.342 780.833,6.231 780.967,6.226ZM777,9C777.547,9 778,9.454 778,10C778,10.546 777.547,11 777,11C776.454,11 776,10.546 776,10C776,9.454 776.454,9 777,9ZM784.965,9C785.511,9 785.965,9.454 785.965,10C785.965,10.546 785.511,11 784.965,11C784.419,11 783.965,10.546 783.965,10C783.965,9.454 784.419,9 784.965,9Z" style="fill-rule:nonzero;"/>
    </g>
    <g transform="matrix(7.08636e-17,1.15729,-1.14278,6.99751e-17,13.7113,-895.824)">
        <path d="M780.551,4.117L777,-2C776.55,-0.2 776.473,1.317 777.5,3L779.574,5.744L780.551,4.117Z" style="fill-rule:nonzero;"/>
    </g>
</svg>
