<?xml version="1.0" encoding="UTF-8" standalone="no"?>
<!DOCTYPE svg PUBLIC "-//W3C//DTD SVG 1.1//EN" "http://www.w3.org/Graphics/SVG/1.1/DTD/svg11.dtd">
<svg width="16px" height="16px" version="1.1" xmlns="http://www.w3.org/2000/svg" xmlns:xlink="http://www.w3.org/1999/xlink" xml:space="preserve" xmlns:serif="http://www.serif.com/" style="fill-rule:evenodd;clip-rule:evenodd;stroke-linejoin:round;stroke-miterlimit:2;">
    <g transform="matrix(1,0,0,1,-90,-230)">
        <g id="define_scanner" transform="matrix(1,0,0,1,60.0004,-300)">
            <g id="bg" transform="matrix(0.110345,0,0,0.121212,13.7793,511.091)">
                <rect x="147" y="156" width="145" height="132" style="fill:rgb(135,135,135);fill-opacity:0;"/>
            </g>
            <g id="locator">
                <g id="locator1" serif:id="locator" transform="matrix(1,0,0,1,-60.0004,300)">
                    <path d="M103.524,244.231L105.123,245.83C105.331,246.038 105.658,246.049 105.854,245.854C106.049,245.658 106.038,245.331 105.83,245.123L104.231,243.524C104.651,242.959 104.9,242.258 104.9,241.5C104.9,239.623 103.377,238.1 101.5,238.1C99.623,238.1 98.1,239.623 98.1,241.5C98.1,243.377 99.623,244.9 101.5,244.9C102.258,244.9 102.959,244.651 103.524,244.231ZM101.5,238.9C102.935,238.9 104.1,240.065 104.1,241.5C104.1,242.935 102.935,244.1 101.5,244.1C100.065,244.1 98.9,242.935 98.9,241.5C98.9,240.065 100.065,238.9 101.5,238.9Z"/>
                </g>
                <g id="locator_bg" transform="matrix(1,0,0,1,-60.0004,300)">
                    <rect x="97" y="237" width="9" height="9" style="fill-opacity:0;"/>
                </g>
            </g>
            <g transform="matrix(1,0,0,1,-60.0004,300)">
                <path d="M96.924,241.97L91.778,241.97C90.8,241.97 90,241.17 90,240.192L90,237.636C90,236.658 90.8,235.97 91.778,235.97L99.9,235.97L99.9,236L103.061,236C101.751,235.526 93.866,232.674 91.294,231.744C91.069,231.662 90.887,231.495 90.785,231.278C90.684,231.061 90.674,230.813 90.756,230.589C90.757,230.588 90.757,230.588 90.757,230.587C90.928,230.123 91.442,229.885 91.907,230.055C94.91,231.152 104.933,234.814 104.933,234.814C105.556,234.992 106,235.703 106,236.414L106,239.9L105.814,239.9C105.163,238.149 103.476,236.9 101.5,236.9C98.961,236.9 96.9,238.961 96.9,241.5C96.9,241.659 96.908,241.815 96.924,241.97ZM93.042,239.969L93,239.97C92.447,239.969 91.999,239.522 91.999,238.97C92.001,238.418 92.447,237.97 93,237.97C93.552,237.97 94,238.418 94,238.97C94,239.508 93.575,239.947 93.042,239.969Z"/>
            </g>
        </g>
    </g>
</svg>
