<?xml version="1.0" encoding="UTF-8" standalone="no"?>
<!DOCTYPE svg PUBLIC "-//W3C//DTD SVG 1.1//EN" "http://www.w3.org/Graphics/SVG/1.1/DTD/svg11.dtd">
<svg width="100%" height="100%" viewBox="0 0 16 16" version="1.1" xmlns="http://www.w3.org/2000/svg" xmlns:xlink="http://www.w3.org/1999/xlink" xml:space="preserve" xmlns:serif="http://www.serif.com/" style="fill-rule:evenodd;clip-rule:evenodd;stroke-linecap:round;stroke-linejoin:round;stroke-miterlimit:1.5;">
    <g id="delete">
        <rect id="bg" x="-0" y="-0" width="16" height="16" style="fill:#878787;fill-opacity:0;"/>
        <path d="M13.002,3.498c0,-0.277 -0.225,-0.502 -0.502,-0.502l-10,0c-0.277,0 -0.502,0.225 -0.502,0.502l0,9.982c0,0.403 0.159,0.79 0.444,1.075c0.286,0.285 0.672,0.445 1.076,0.445l8.009,0c0.391,0 0.765,-0.155 1.042,-0.431c0.277,-0.277 0.433,-0.653 0.433,-1.044l0,-10.027Zm-1.005,0.502l-8.995,0l-0,9.48c-0,0.137 0.054,0.268 0.151,0.365c0.096,0.097 0.227,0.151 0.365,0.151l8.009,0c0.126,0 0.246,-0.051 0.333,-0.138c0.088,-0.088 0.137,-0.208 0.137,-0.333l0,-9.525Z"/>
        <rect x="5" y="5.498" width="1" height="7"/>
        <rect x="9" y="5.498" width="1" height="7"/>
        <rect x="7" y="5.498" width="1" height="7"/>
        <path d="M14,3.498c0,-0.276 -0.194,-0.5 -0.433,-0.5l-12.134,0c-0.239,0 -0.433,0.224 -0.433,0.5c0,0.276 0.194,0.5 0.433,0.5l12.134,0c0.239,0 0.433,-0.224 0.433,-0.5Z"/>
        <path d="M9.993,2.147c-0.146,-0.39 -0.519,-0.649 -0.936,-0.649l-3.114,0c-0.417,0 -0.79,0.259 -0.936,0.649c-0.219,0.584 -0.507,1.351 -0.507,1.351l6,0c0,0 -0.288,-0.767 -0.507,-1.351Z" style="fill:none;stroke:#000;stroke-width:1px;"/>
    </g>
</svg>
