<?xml version="1.0" encoding="UTF-8" standalone="no"?>
<!DOCTYPE svg PUBLIC "-//W3C//DTD SVG 1.1//EN" "http://www.w3.org/Graphics/SVG/1.1/DTD/svg11.dtd">
<svg width="100%" height="100%" viewBox="0 0 16 16" version="1.1" xmlns="http://www.w3.org/2000/svg" xmlns:xlink="http://www.w3.org/1999/xlink" xml:space="preserve" xmlns:serif="http://www.serif.com/" style="fill-rule:evenodd;clip-rule:evenodd;stroke-linejoin:round;stroke-miterlimit:2;">
    <g id="delete_lines">
        <rect id="bg" x="-0" y="0.044" width="16" height="15.96" style="fill-opacity:0;"/>
        <rect x="8.98" y="10.004" width="5" height="5" style="fill-opacity:0.25;"/>
        <path id="bin" d="M12.98,9.004l2.5,0c0.133,0 0.26,0.053 0.354,0.147c0.094,0.094 0.146,0.221 0.146,0.353c0,0.276 -0.223,0.5 -0.5,0.5l-0.5,0l0,5.5c0,0.276 -0.223,0.5 -0.5,0.5l-6,0c-0.276,0 -0.5,-0.224 -0.5,-0.5l0,-5.5l-0.5,0c-0.276,0 -0.5,-0.224 -0.5,-0.5c0,-0.132 0.053,-0.259 0.147,-0.353c0.094,-0.094 0.221,-0.147 0.353,-0.147l2.5,0l0,-0.5c0,-0.132 0.053,-0.259 0.147,-0.353c0.094,-0.094 0.221,-0.147 0.353,-0.147l2,0c0.133,0 0.26,0.053 0.354,0.147c0.094,0.094 0.146,0.221 0.146,0.353l0,0.5Zm-4,1l0,5l5,0l0,-5l-5,0Zm2,1l0,3l-1,0l0,-3l1,0Zm2,0l0,3l-1,0l0,-3l1,0Z"/>
        <path d="M6.98,11.344c-1.586,-1.208 -3.565,-2.867 -5.233,-3.832c0.303,0.346 0.68,0.753 1.089,1.203c1.488,1.638 3.387,3.778 4.082,5.562c0.074,0.183 0.011,0.393 -0.15,0.505c-0.162,0.113 -0.38,0.1 -0.526,-0.032c-0.861,-0.795 -1.84,-1.4 -2.764,-1.855c-0.912,-0.449 -1.771,-0.755 -2.415,-0.954c0.539,1.011 0.913,1.643 1.188,2.201c0.225,0.455 0.386,0.863 0.515,1.378c0.041,0.155 -0.053,0.313 -0.207,0.354c-0.155,0.04 -0.314,-0.053 -0.354,-0.208c-0.126,-0.469 -0.279,-0.84 -0.493,-1.251c-0.346,-0.669 -0.846,-1.439 -1.621,-2.858c-0.063,-0.119 -0.051,-0.264 0.032,-0.37c0.083,-0.106 0.221,-0.154 0.351,-0.121c0.627,0.147 1.916,0.482 3.334,1.139c0.445,0.207 0.902,0.445 1.357,0.72c-0.878,-1.229 -2.067,-2.487 -3.059,-3.532c-0.978,-1.03 -1.769,-1.876 -1.988,-2.312c-0.26,-0.52 -0.051,-0.843 0.245,-0.996c0.159,-0.083 0.531,-0.123 1.147,0.08c0.019,0.007 0.037,0.014 0.055,0.023c1.333,0.61 2.962,1.787 4.472,2.91c-0.037,0.131 -0.057,0.268 -0.057,0.406c0,0.653 0.418,1.209 1,1.415l0,0.425Zm0.189,-3.307c-0.337,-0.321 -0.691,-0.629 -1.052,-0.925c-1.896,-1.554 -4.003,-2.771 -5.071,-3.642c-0.433,-0.353 -0.717,-0.68 -0.84,-0.945c-0.198,-0.423 -0.15,-0.79 0.113,-1.106c0.008,-0.009 0.015,-0.018 0.023,-0.027c0.202,-0.218 0.514,-0.375 0.951,-0.396c0.539,-0.025 1.366,0.166 2.344,0.524c2.755,1.007 6.887,3.281 8.814,4.11c0.203,0.087 0.422,0.163 0.568,0.211c-0.184,-0.206 -0.496,-0.476 -0.73,-0.714c-1.171,-1.191 -3.059,-2.737 -3.827,-3.635c-0.295,-0.346 -0.438,-0.646 -0.447,-0.829c-0.013,-0.251 0.084,-0.439 0.311,-0.555c0.036,-0.019 0.075,-0.033 0.115,-0.042c0.515,-0.101 1.443,0.162 2.482,0.632c1.169,0.529 2.51,1.29 3.531,1.858c-0.375,-0.424 -0.787,-0.892 -1.054,-1.302c-0.229,-0.353 -0.35,-0.678 -0.328,-0.921c0.007,-0.095 0.059,-0.182 0.14,-0.234c0.081,-0.051 0.181,-0.062 0.271,-0.028l1.226,0.246c0.159,0.023 0.269,0.17 0.246,0.328c-0.023,0.159 -0.17,0.269 -0.329,0.246c0,-0 -0.423,-0.057 -0.801,-0.122c0.069,0.107 0.157,0.222 0.251,0.345c0.511,0.663 1.306,1.418 1.643,1.883c0.198,0.274 0.24,0.514 0.206,0.647c-0.027,0.098 -0.095,0.18 -0.188,0.225c-0.092,0.044 -0.198,0.046 -0.292,0.005c-0.844,-0.359 -3.056,-1.654 -4.854,-2.418c-0.515,-0.219 -0.988,-0.402 -1.371,-0.49c0.11,0.125 0.237,0.262 0.363,0.382c1.356,1.291 3.906,3.277 4.437,4.254c0.191,0.353 0.182,0.655 0.086,0.867c-0.096,0.213 -0.307,0.417 -0.717,0.471c-0.083,0.023 -0.187,0.035 -0.311,0.023c-0.24,-0.022 -0.699,-0.174 -1.305,-0.43c-2.08,-0.881 -6.182,-3.02 -8.814,-3.878c-0.388,-0.126 -0.74,-0.224 -1.045,-0.28c0.245,0.203 0.552,0.447 0.85,0.652c1.304,0.894 3.166,2.062 4.773,3.49c0.526,0.468 1.024,0.964 1.469,1.487l-1.526,0c-0.105,0 -0.209,0.011 -0.311,0.033Z"/>
    </g>
</svg>
