<?xml version="1.0" encoding="UTF-8" standalone="no"?>
<!DOCTYPE svg PUBLIC "-//W3C//DTD SVG 1.1//EN" "http://www.w3.org/Graphics/SVG/1.1/DTD/svg11.dtd">
<svg width="16px" height="16px" version="1.1" xmlns="http://www.w3.org/2000/svg" xmlns:xlink="http://www.w3.org/1999/xlink" xml:space="preserve" xmlns:serif="http://www.serif.com/" style="fill-rule:evenodd;clip-rule:evenodd;stroke-linejoin:round;stroke-miterlimit:2;">
    <g transform="matrix(1,0,0,1,-210,-450)">
        <g id="delete_match_lines" transform="matrix(1,0,0,1,100,220)">
            <g id="bg" transform="matrix(0.110345,0,0,0.121212,93.7793,211.091)">
                <rect x="147" y="156" width="145" height="132" style="fill:rgb(135,135,135);fill-opacity:0;"/>
            </g>
            <g transform="matrix(1,0,0,1,-100,-200)">
                <path d="M216,438C216,439.104 215.104,440 214,440C212.896,440 212,439.104 212,438L210,438L210,431C210,430.448 210.448,430 211,430L218,430L218,433L217,433C216.448,433 216,433.448 216,434C216,434.552 216.448,435 217,435L218,435L218,437L216,437L217,437L217,436C215.896,436 215,435.104 215,434C215,432.896 215.896,432 217,432L217,431C217,431 211,431 211,431L211,437L212,437C212.552,437 213,437.448 213,438C213,438.552 213.448,439 214,439C214.552,439 215,438.552 215,438C215,437.448 215.448,437 216,437L216,438Z"/>
            </g>
            <g transform="matrix(1,0,0,1,-100,-200)">
                <path d="M216,438C216,439.104 215.104,440 214,440C212.896,440 212,439.104 212,438L210,438L210,431C210,430.448 210.448,430 211,430L218,430L218,433L217,433C216.448,433 216,433.448 216,434C216,434.552 216.448,435 217,435L218,435L218,437L216,437L216,438Z" style="fill-opacity:0.2;"/>
            </g>
            <g id="bin" transform="matrix(1,0,0,1,104,225)">
                <path d="M19,13L21.5,13C21.633,13 21.76,13.053 21.854,13.146C21.947,13.24 22,13.367 22,13.5C22,13.776 21.776,14 21.5,14L21,14L21,20.5C21,20.776 20.776,21 20.5,21L14.5,21C14.224,21 14,20.776 14,20.5L14,14L13.5,14C13.367,14 13.24,13.947 13.146,13.854C13.053,13.76 13,13.633 13,13.5C13,13.367 13.053,13.24 13.146,13.146C13.24,13.053 13.367,13 13.5,13C14.353,13 16,13 16,13L16,12.5C16,12.367 16.053,12.24 16.146,12.146C16.24,12.053 16.367,12 16.5,12C17.055,12 17.945,12 18.5,12C18.633,12 18.76,12.053 18.854,12.146C18.947,12.24 19,12.367 19,12.5C19,12.75 19,13 19,13ZM15,14L15,20L20,20L20,14L15,14ZM19,15.5C19,15.367 18.947,15.24 18.854,15.146C18.76,15.053 18.633,15 18.5,15C18.367,15 18.24,15.053 18.146,15.146C18.053,15.24 18,15.367 18,15.5C18,16.269 18,17.731 18,18.5C18,18.633 18.053,18.76 18.146,18.854C18.24,18.947 18.367,19 18.5,19C18.633,19 18.76,18.947 18.854,18.854C18.947,18.76 19,18.633 19,18.5C19,17.731 19,16.269 19,15.5ZM17,15.5C17,15.367 16.947,15.24 16.854,15.146C16.76,15.053 16.633,15 16.5,15C16.367,15 16.24,15.053 16.146,15.146C16.053,15.24 16,15.367 16,15.5C16,16.269 16,17.731 16,18.5C16,18.633 16.053,18.76 16.146,18.854C16.24,18.947 16.367,19 16.5,19C16.633,19 16.76,18.947 16.854,18.854C16.947,18.76 17,18.633 17,18.5C17,17.731 17,16.269 17,15.5Z"/>
            </g>
            <g transform="matrix(1,0,0,1,-100,-220)">
                <path d="M217,459.914L217,465L211,465C210.735,465 210.48,464.895 210.293,464.707C210.105,464.52 210,464.265 210,464C210,461.854 210,457 210,457L213,457L213,458C213,458.552 213.448,459 214,459C214.552,459 215,458.552 215,458L215,457L218,457C218,457 217.5,457 217.5,457C217.102,457 216.721,457.158 216.439,457.439C216.158,457.721 216,458.102 216,458.5L216,458.5C216,459.153 216.417,459.709 217,459.914Z" style="fill-opacity:0.2;"/>
            </g>
            <g transform="matrix(1,0,0,1,-100,-220)">
                <path d="M217,465L211,465C210.735,465 210.48,464.895 210.293,464.707C210.105,464.52 210,464.265 210,464C210,461.854 210,457 210,457L213,457L213,458C213,458.552 213.448,459 214,459C214.552,459 215,458.552 215,458L215,457L216,457L216,458C216,459.104 215.104,460 214,460C212.896,460 212,459.104 212,458L211,458C211,458 211,464 211,464L217,464L217,465ZM217,463C217,463 217,463 217,463Z"/>
            </g>
            <g transform="matrix(1,0,0,1,-100,-220)">
                <path d="M219.086,457L217,457L217,456C215.896,456 215,455.104 215,454C215,452.896 215.896,452 217,452L217,450L224,450C224.265,450 224.52,450.105 224.707,450.293C224.895,450.48 225,450.735 225,451C225,452.934 225,457 225,457L223.914,457C223.84,456.791 223.72,456.599 223.561,456.439C223.279,456.158 222.898,456 222.5,456C221.945,456 221.055,456 220.5,456C220.102,456 219.721,456.158 219.439,456.439C219.28,456.599 219.16,456.791 219.086,457Z" style="fill-opacity:0.2;"/>
            </g>
            <g transform="matrix(1,0,0,1,-100,-220)">
                <path d="M219,457L219.086,457C219.16,456.791 219.28,456.599 219.439,456.439C219.721,456.158 220.102,456 220.5,456C221.055,456 221.945,456 222.5,456C222.582,456 222.663,456.007 222.743,456.02C222.423,455.452 221.834,455.056 221.15,455.006L221.013,455L220.987,455C219.889,455.007 219,455.9 219,457ZM225,457L224,457L224,451C224,451 218,451 218,451L218,452C218,452.552 217.552,453 217,453C216.448,453 216,453.448 216,454C216,454.552 216.448,455 217,455C217.268,455 217.524,455.107 217.712,455.298C217.9,455.489 218.004,455.747 218,456.015L218,457L217,457L217,456C215.896,456 215,455.104 215,454C215,452.896 215.896,452 217,452L217,450L224,450C224.265,450 224.52,450.105 224.707,450.293C224.895,450.48 225,450.735 225,451C225,452.934 225,457 225,457Z"/>
            </g>
        </g>
    </g>
</svg>
