<?xml version="1.0" encoding="UTF-8" standalone="no"?>
<!DOCTYPE svg PUBLIC "-//W3C//DTD SVG 1.1//EN" "http://www.w3.org/Graphics/SVG/1.1/DTD/svg11.dtd">
<svg width="100%" height="100%" viewBox="0 0 16 16" version="1.1" xmlns="http://www.w3.org/2000/svg" xmlns:xlink="http://www.w3.org/1999/xlink" xml:space="preserve" xmlns:serif="http://www.serif.com/" style="fill-rule:evenodd;clip-rule:evenodd;stroke-linejoin:round;stroke-miterlimit:2;">
    <g id="delete_match_lines">
        <rect id="bg" x="-0" y="0.044" width="16" height="16" style="fill:#878787;fill-opacity:0;"/>
        <rect x="9" y="10.045" width="5" height="5" style="fill-opacity:0.25;"/>
        <path id="bin" d="M13,9.045l2.5,-0c0.133,-0 0.26,0.052 0.354,0.146c0.093,0.094 0.146,0.221 0.146,0.354c-0,0.276 -0.224,0.5 -0.5,0.5l-0.5,-0l-0,5.5c0,0.276 -0.224,0.5 -0.5,0.5l-6,-0c-0.276,-0 -0.5,-0.224 -0.5,-0.5l-0,-5.5l-0.5,-0c-0.276,-0 -0.5,-0.224 -0.5,-0.5c0,-0.133 0.053,-0.26 0.146,-0.354c0.094,-0.094 0.221,-0.146 0.354,-0.146l2.5,-0l-0,-0.5c-0,-0.133 0.053,-0.26 0.146,-0.354c0.094,-0.094 0.221,-0.146 0.354,-0.146l2,-0c0.133,-0 0.26,0.052 0.354,0.146c0.093,0.094 0.146,0.221 0.146,0.354l-0,0.5Zm-4,1l-0,5l5,-0l-0,-5l-5,-0Zm2,1l-0,3l-1,-0l-0,-3l1,-0Zm2,-0l-0,3l-1,-0l-0,-3l1,-0Z"/>
        <path d="M7,6.045l-0,1l-1,-0c-0.552,-0 -1,0.448 -1,1c-0,0.552 -0.448,1 -1,1c-0.552,-0 -1,-0.448 -1,-1c-0,-0.552 -0.448,-1 -1,-1l-1,-0l-0,-6l6,-0l-0,1c-1.104,-0 -2,0.896 -2,2c-0,1.104 0.896,2 2,2Z" style="fill-opacity:0.25;"/>
        <path d="M7,15.045l-6,-0c-0.552,-0 -1,-0.448 -1,-1l-0,-7l3,-0l-0,1c-0,0.552 0.448,1 1,1c0.552,-0 1,-0.448 1,-1l-0,-1l3,-0l-0,1l-0.5,-0c-0.172,-0 -0.341,0.029 -0.5,0.085l-0,-0.085l-1,-0c-0,1.104 -0.896,2 -2,2c-1.104,-0 -2,-0.896 -2,-2l-1,-0l-0,6l6,-0l-0,1Zm1,-6c0.74,-0 1.386,0.402 1.732,1l-0.732,-0l-0,1c-0,-0.552 -0.448,-1 -1,-1l-0.5,-0c-0.276,-0 -0.5,-0.224 -0.5,-0.5c0,-0.133 0.053,-0.26 0.146,-0.354c0.094,-0.094 0.221,-0.146 0.354,-0.146l0.5,-0Zm-0,3c0.552,-0 1,-0.448 1,-1l-0,1.732c-0.294,0.17 -0.636,0.268 -1,0.268l-0,-1Z"/>
        <path d="M8,8.045l-2,-0c-0,1.104 -0.896,2 -2,2c-1.104,-0 -2,-0.896 -2,-2l-2,-0l-0,-7c-0,-0.552 0.448,-1 1,-1l7,-0l-0,3l-1,-0c-0.552,-0 -1,0.448 -1,1c-0,0.552 0.448,1 1,1l1,-0l-0,3Zm-1,-2c-1.104,-0 -2,-0.896 -2,-2c-0,-1.104 0.896,-2 2,-2l-0,-1l-6,-0l-0,6l1,-0c0.552,-0 1,0.448 1,1c-0,0.552 0.448,1 1,1c0.552,-0 1,-0.448 1,-1c-0,-0.552 0.448,-1 1,-1l1,-0l-0,-1Z"/>
        <path d="M9.086,8.045l-2.086,-0l-0,-2c-1.104,-0 -2,-0.896 -2,-2c-0,-1.104 0.896,-2 2,-2l-0,-2l7,-0c0.552,-0 1,0.448 1,1l-0,7l-1.086,-0c-0.074,-0.209 -0.194,-0.401 -0.353,-0.561c-0.282,-0.281 -0.663,-0.439 -1.061,-0.439l-0.5,-0c-0,-0.552 -0.448,-1 -1,-1c-0.552,-0 -1,0.448 -1,1l-0,0.085c-0.209,0.074 -0.401,0.194 -0.561,0.354c-0.159,0.16 -0.279,0.352 -0.353,0.561Zm-0.086,-1c-0,-1.104 0.896,-2 2,-2c1.104,-0 2,0.896 2,2l1,-0l-0,-6l-6,-0l-0,1c-0,0.552 -0.448,1 -1,1c-0.552,-0 -1,0.448 -1,1c-0,0.552 0.448,1 1,1c0.552,-0 1,0.448 1,1l-0,1l1,-0Z"/>
    </g>
</svg>
