<?xml version="1.0" encoding="UTF-8" standalone="no"?>
<!DOCTYPE svg PUBLIC "-//W3C//DTD SVG 1.1//EN" "http://www.w3.org/Graphics/SVG/1.1/DTD/svg11.dtd">
<svg width="100%" height="100%" viewBox="0 0 16 16" version="1.1" xmlns="http://www.w3.org/2000/svg" xmlns:xlink="http://www.w3.org/1999/xlink" xml:space="preserve" xmlns:serif="http://www.serif.com/" style="fill-rule:evenodd;clip-rule:evenodd;stroke-linejoin:round;stroke-miterlimit:2;">
    <g id="dialogue_import">
        <rect x="-0" y="-0" width="16" height="16" style="fill:#878787;fill-opacity:0;"/>
        <path id="load" d="M11.514,7c2.476,0 4.486,2.01 4.486,4.486c0,2.476 -2.01,4.486 -4.486,4.486c-2.476,0 -4.486,-2.01 -4.486,-4.486c-0,-2.476 2.01,-4.486 4.486,-4.486Zm0.105,7.984c0.1,-0.019 0.195,-0.068 0.27,-0.148l2.827,-2.938c0.19,-0.2 0.181,-0.517 -0.019,-0.706c-0.201,-0.19 -0.517,-0.181 -0.707,0.019l-2.001,2.065l-0,-4.768c-0,-0.276 -0.224,-0.5 -0.5,-0.5c-0.276,-0 -0.5,0.224 -0.5,0.5l-0,4.758l-2.008,-2.033c-0.193,-0.198 -0.51,-0.201 -0.707,-0.008c-0.197,0.193 -0.201,0.51 -0.008,0.707l2.873,2.917c0.129,0.132 0.313,0.177 0.48,0.135Z"/>
        <path d="M6.324,13.267l-2.528,2.451c-0.318,0.309 -0.802,0.371 -1.188,0.153c-0.386,-0.218 -0.582,-0.665 -0.482,-1.097l0.722,-3.118c-1.816,-1.257 -2.848,-3.112 -2.848,-5.056c-0,-0.202 0.011,-0.402 0.033,-0.6l-0.033,-0c0.368,-3.308 3.749,-6 7.967,-6c0.011,-0 0.022,-0 0.033,-0c4.218,-0 7.598,2.692 7.967,6l-0.034,-0c0.022,0.198 0.034,0.398 0.034,0.6c-0,0.486 -0.065,0.967 -0.19,1.434c-0.252,-0.31 -0.537,-0.593 -0.85,-0.842c0.026,-0.195 0.04,-0.393 0.04,-0.592c-0,-3.082 -3.119,-5.586 -6.967,-5.6c-0.011,-0 -0.022,-0 -0.033,-0c-3.848,0.014 -6.967,2.518 -6.967,5.6c-0,1.826 1.113,3.538 2.983,4.586l-0.883,3.814l2.965,-2.874c0.045,0.395 0.133,0.777 0.259,1.141Zm1.108,-5.444c-0.261,-0.181 -0.432,-0.482 -0.432,-0.823c-0,-0.541 0.43,-0.982 0.967,-1c0.011,-0 0.022,-0 0.033,0c0.418,0.014 0.771,0.284 0.907,0.659c-0.557,0.301 -1.056,0.696 -1.475,1.164Zm-3.432,-1.823c0.552,-0 1,0.448 1,1c-0,0.552 -0.448,1 -1,1c-0.552,-0 -1,-0.448 -1,-1c-0,-0.552 0.448,-1 1,-1Z"/>
    </g>
</svg>
