<?xml version="1.0" encoding="UTF-8" standalone="no"?>
<!DOCTYPE svg PUBLIC "-//W3C//DTD SVG 1.1//EN" "http://www.w3.org/Graphics/SVG/1.1/DTD/svg11.dtd">
<svg width="16px" height="16px" version="1.1" xmlns="http://www.w3.org/2000/svg" xmlns:xlink="http://www.w3.org/1999/xlink" xml:space="preserve" xmlns:serif="http://www.serif.com/" style="fill-rule:evenodd;clip-rule:evenodd;stroke-linejoin:round;stroke-miterlimit:2;">
    <g transform="matrix(1,0,0,1,-210,-150)">
        <g id="dialogue_import" transform="matrix(1,0,0,1,200,120)">
            <g id="bg" transform="matrix(0.110345,0,0,0.121212,-6.22069,11.0909)">
                <rect x="147" y="156" width="145" height="132" style="fill:rgb(135,135,135);fill-opacity:0;"/>
            </g>
            <g transform="matrix(1,0,0,1,-28,34)">
                <g transform="matrix(1,0,0,1,-172,-154)">
                    <path d="M225,165L225,163.5C225,163.224 225.224,163 225.5,163C225.776,163 226,163.224 226,163.5L226,165.5C226,165.776 225.776,166 225.5,166L219.5,166C219.224,166 219,165.776 219,165.5L219,163.5C219,163.224 219.224,163 219.5,163C219.776,163 220,163.224 220,163.5L220,165L225,165ZM222,161C222.001,160.305 222.001,159.276 222.001,158L223.001,158C223.001,159.276 223.001,160.305 223.002,161L225.682,161L222.5,164.182L219.318,161L222,161Z"/>
                </g>
                <g transform="matrix(1,0,0,1,-172,-154)">
                    <path d="M217.827,163.198C217.899,162.795 218.114,162.441 218.417,162.19C218.279,162.197 218.14,162.2 218,162.2C217.388,162.2 216.778,162.136 216.186,162.009L213.1,165L213.983,161.186C212.113,160.138 211,158.426 211,156.6C211,153.509 214.137,151 218,151C221.863,151 225,153.509 225,156.6C225,157.538 224.711,158.422 224.201,159.199L224.201,159.8L224.988,159.8C225.634,158.846 226,157.751 226,156.6C226,153.024 222.47,150 218,150C213.53,150 210,153.024 210,156.6C210,158.544 211.032,160.399 212.848,161.656C212.848,161.656 212.126,164.774 212.126,164.774C212.026,165.206 212.222,165.653 212.608,165.871C212.994,166.089 213.478,166.027 213.796,165.718L216.512,163.085C216.945,163.153 217.385,163.191 217.827,163.198Z"/>
                </g>
                <g transform="matrix(1,0,0,1,-172,-154)">
                    <path d="M214,156C214.552,156 215,156.448 215,157C215,157.552 214.552,158 214,158C213.448,158 213,157.552 213,157C213,156.448 213.448,156 214,156ZM218,156C218.552,156 219,156.448 219,157C219,157.552 218.552,158 218,158C217.448,158 217,157.552 217,157C217,156.448 217.448,156 218,156ZM221.04,157.281C221.014,157.192 221,157.098 221,157C221,156.448 221.448,156 222,156C222.483,156 222.887,156.344 222.98,156.8L222.001,156.8C221.608,156.8 221.259,156.989 221.04,157.281Z"/>
                </g>
            </g>
        </g>
    </g>
</svg>
