<?xml version="1.0" encoding="UTF-8" standalone="no"?>
<!DOCTYPE svg PUBLIC "-//W3C//DTD SVG 1.1//EN" "http://www.w3.org/Graphics/SVG/1.1/DTD/svg11.dtd">
<svg width="16px" height="16px" version="1.1" xmlns="http://www.w3.org/2000/svg" xmlns:xlink="http://www.w3.org/1999/xlink" xml:space="preserve" xmlns:serif="http://www.serif.com/" style="fill-rule:evenodd;clip-rule:evenodd;stroke-linejoin:round;stroke-miterlimit:2;">
    <g transform="matrix(1,0,0,1,-210,-130)">
        <g id="dialogue" transform="matrix(1,0,0,1,200,100)">
            <g id="bg" transform="matrix(0.110345,0,0,0.121212,-6.22069,11.0909)">
                <rect x="147" y="156" width="145" height="132" style="fill:rgb(135,135,135);fill-opacity:0;"/>
            </g>
            <g transform="matrix(1,0,0,1,-200,-100)">
                <path d="M226,136.6C226,133.024 222.47,130 218,130C213.53,130 210,133.024 210,136.6C210,138.544 211.032,140.399 212.848,141.656C212.848,141.656 212.126,144.774 212.126,144.774C212.026,145.206 212.222,145.653 212.608,145.871C212.994,146.089 213.478,146.027 213.796,145.718L216.512,143.085C217.002,143.162 217.5,143.2 218,143.2C222.47,143.2 226,140.176 226,136.6ZM225,136.6C225,133.509 221.863,131 218,131C214.137,131 211,133.509 211,136.6C211,138.426 212.113,140.138 213.983,141.186L213.1,145L216.186,142.009C216.778,142.136 217.388,142.2 218,142.2C221.863,142.2 225,139.691 225,136.6Z"/>
            </g>
            <g transform="matrix(1,0,0,1,-200,-100)">
                <path d="M214,136C214.552,136 215,136.448 215,137C215,137.552 214.552,138 214,138C213.448,138 213,137.552 213,137C213,136.448 213.448,136 214,136ZM218,136C218.552,136 219,136.448 219,137C219,137.552 218.552,138 218,138C217.448,138 217,137.552 217,137C217,136.448 217.448,136 218,136ZM222,136C222.552,136 223,136.448 223,137C223,137.552 222.552,138 222,138C221.448,138 221,137.552 221,137C221,136.448 221.448,136 222,136Z"/>
            </g>
        </g>
    </g>
</svg>
