<?xml version="1.0" encoding="UTF-8" standalone="no"?>
<!DOCTYPE svg PUBLIC "-//W3C//DTD SVG 1.1//EN" "http://www.w3.org/Graphics/SVG/1.1/DTD/svg11.dtd">
<svg width="100%" height="100%" viewBox="0 0 16 16" version="1.1" xmlns="http://www.w3.org/2000/svg" xmlns:xlink="http://www.w3.org/1999/xlink" xml:space="preserve" xmlns:serif="http://www.serif.com/" style="fill-rule:evenodd;clip-rule:evenodd;stroke-linejoin:round;stroke-miterlimit:2;">
    <g id="duplicate">
        <rect id="bg" x="0.015" y="-0" width="16" height="16" style="fill:#878787;fill-opacity:0;"/>
        <path d="M16.015,1c-0,-0.265 -0.105,-0.52 -0.293,-0.707c-0.188,-0.188 -0.442,-0.293 -0.707,-0.293c-2.26,-0 -7.74,-0 -10,-0c-0.265,-0 -0.52,0.105 -0.707,0.293c-0.188,0.187 -0.293,0.442 -0.293,0.707c-0,2.26 -0,7.74 -0,10c-0,0.265 0.105,0.52 0.293,0.707c0.187,0.188 0.442,0.293 0.707,0.293c2.26,-0 7.74,-0 10,-0c0.265,-0 0.519,-0.105 0.707,-0.293c0.188,-0.187 0.293,-0.442 0.293,-0.707l-0,-10Zm-5,4l3,-0l-0,2l-3,-0l-0,3l-2,-0l-0,-3l-3,-0l-0,-2l3,-0l-0,-3l2,-0l-0,3Z"/>
        <path d="M12.015,13l-0,2c-0,0.552 -0.448,1 -1,1l-10,-0c-0.552,-0 -1,-0.448 -1,-1l-0,-10c-0,-0.552 0.448,-1 1,-1l2,-0l-0,1l-2,-0l-0,10l10,-0l-0,-2l1,-0Z"/>
    </g>
</svg>
