<?xml version="1.0" encoding="UTF-8" standalone="no"?>
<!DOCTYPE svg PUBLIC "-//W3C//DTD SVG 1.1//EN" "http://www.w3.org/Graphics/SVG/1.1/DTD/svg11.dtd">
<svg width="16px" height="16px" version="1.1" xmlns="http://www.w3.org/2000/svg" xmlns:xlink="http://www.w3.org/1999/xlink" xml:space="preserve" xmlns:serif="http://www.serif.com/" style="fill-rule:evenodd;clip-rule:evenodd;stroke-linejoin:round;stroke-miterlimit:2;">
    <g transform="matrix(1,0,0,1,-170,-10)">
        <g id="duplicate_drawing" transform="matrix(1,0,0,1,60,0)">
            <g id="bg" transform="matrix(0.110345,0,0,0.121212,93.7793,-8.90909)">
                <rect x="147" y="156" width="145" height="132" style="fill:rgb(135,135,135);fill-opacity:0;"/>
            </g>
            <g transform="matrix(1,0,0,1,-60,0)">
                <path d="M186,12.023C186,10.906 185.094,10 183.977,10C181.764,10 177.236,10 175.023,10C174.486,10 173.972,10.213 173.592,10.592C173.213,10.972 173,11.486 173,12.023L173,19.977C173,21.094 173.906,22 175.023,22C177.33,22 181.901,22 182.793,22C182.925,22 183.053,21.947 183.146,21.854C183.655,21.345 185.345,19.655 185.854,19.146C185.947,19.053 186,18.925 186,18.793C186,17.901 186,14.33 186,12.023ZM182,18L185,18L182,21L182,18ZM176,19L176,14L183,14L183,17L184,17L184,13L175,13L175,20L181,20L181,19L176,19ZM180,16L180,15L179,15L179,16L178,16L178,17L179,17L179,18L180,18L180,17L181,17L181,16L180,16ZM177,11.5C177,11.367 176.947,11.24 176.854,11.146C176.76,11.053 176.633,11 176.5,11C176.195,11 175.805,11 175.5,11C175.367,11 175.24,11.053 175.146,11.146C175.053,11.24 175,11.367 175,11.5C175,11.633 175.053,11.76 175.146,11.854C175.24,11.947 175.367,12 175.5,12C175.805,12 176.195,12 176.5,12C176.633,12 176.76,11.947 176.854,11.854C176.947,11.76 177,11.633 177,11.5ZM184,11.5C184,11.367 183.947,11.24 183.854,11.146C183.76,11.053 183.633,11 183.5,11C183.195,11 182.805,11 182.5,11C182.367,11 182.24,11.053 182.146,11.146C182.053,11.24 182,11.367 182,11.5C182,11.633 182.053,11.76 182.146,11.854C182.24,11.947 182.367,12 182.5,12C182.805,12 183.195,12 183.5,12C183.633,12 183.76,11.947 183.854,11.854C183.947,11.76 184,11.633 184,11.5ZM180.5,11.5C180.5,11.367 180.447,11.24 180.354,11.146C180.26,11.053 180.133,11 180,11C179.695,11 179.305,11 179,11C178.867,11 178.74,11.053 178.646,11.146C178.553,11.24 178.5,11.367 178.5,11.5C178.5,11.633 178.553,11.76 178.646,11.854C178.74,11.947 178.867,12 179,12C179.305,12 179.695,12 180,12C180.133,12 180.26,11.947 180.354,11.854C180.447,11.76 180.5,11.633 180.5,11.5Z"/>
            </g>
            <g transform="matrix(1,0,0,1,-60,0)">
                <path d="M180.012,26C180.539,26 181.045,25.791 181.418,25.418C181.791,25.045 182,24.539 182,24.012C182,23.456 182,23 182,23L181,23L181,24.029C181,24.287 180.898,24.534 180.716,24.716C180.534,24.898 180.287,25 180.029,25C177.706,25 172.017,25 172.017,25C171.748,25 171.489,24.893 171.298,24.702C171.107,24.511 171,24.252 171,23.983L171,16.017C171,15.748 171.107,15.489 171.298,15.298C171.489,15.107 171.748,15 172.017,15L173,15L173,14L171.984,14C170.888,14 170,14.888 170,15.984L170,24.016C170,25.112 170.888,26 171.984,26C173.581,26 177.577,26 180.012,26Z"/>
            </g>
        </g>
    </g>
</svg>
