<?xml version="1.0" encoding="UTF-8" standalone="no"?>
<svg
   width="100%"
   height="100%"
   viewBox="0 0 16 16"
   version="1.1"
   xml:space="preserve"
   style="fill-rule:evenodd;clip-rule:evenodd;stroke-linejoin:round;stroke-miterlimit:2;"
   id="svg1244"
   sodipodi:docname="export_tvpaint.svg"
   inkscape:version="1.1.2 (b8e25be833, 2022-02-05)"
   xmlns:inkscape="http://www.inkscape.org/namespaces/inkscape"
   xmlns:sodipodi="http://sodipodi.sourceforge.net/DTD/sodipodi-0.dtd"
   xmlns="http://www.w3.org/2000/svg"
   xmlns:svg="http://www.w3.org/2000/svg"><defs
   id="defs1248" /><sodipodi:namedview
   id="namedview1246"
   pagecolor="#ffffff"
   bordercolor="#666666"
   borderopacity="1.0"
   inkscape:pageshadow="2"
   inkscape:pageopacity="0.0"
   inkscape:pagecheckerboard="0"
   showgrid="true"
   inkscape:zoom="55.625"
   inkscape:cx="7.9910112"
   inkscape:cy="8"
   inkscape:window-width="1920"
   inkscape:window-height="1141"
   inkscape:window-x="-7"
   inkscape:window-y="-7"
   inkscape:window-maximized="1"
   inkscape:current-layer="export_level"><inkscape:grid
     type="xygrid"
     id="grid823" /></sodipodi:namedview>
    <g
   id="export_level">
        <rect
   id="bg"
   x="0.001"
   y="-0.04"
   width="16"
   height="16"
   style="fill:#878787;fill-opacity:0;" />
        <path
   id="load"
   d="M11.486,16c2.476,-0 4.486,-2.01 4.486,-4.486c0,-2.476 -2.01,-4.486 -4.486,-4.486c-2.476,-0 -4.486,2.01 -4.486,4.486c-0,2.476 2.01,4.486 4.486,4.486Zm0.106,-7.984c0.099,0.019 0.194,0.068 0.269,0.148l2.828,2.938c0.189,0.2 0.181,0.517 -0.02,0.706c-0.2,0.19 -0.517,0.181 -0.707,-0.019l-2.001,-2.065l0,4.768c0,0.276 -0.224,0.5 -0.5,0.5c-0.276,0 -0.5,-0.224 -0.5,-0.5l0,-4.758l-2.008,2.033c-0.193,0.198 -0.51,0.201 -0.707,0.008c-0.197,-0.193 -0.2,-0.51 -0.007,-0.707l2.872,-2.917c0.129,-0.132 0.314,-0.177 0.481,-0.135Z" />
        
    <path
   id="text8152"
   style="font-weight:bold;font-size:8.03453px;line-height:1.25;font-family:'Segoe UI';-inkscape-font-specification:'Segoe UI Bold';stroke-width:0.200863"
   d="M 1 1 L 1 2.0996094 L 2.4980469 2.0996094 L 2.4980469 7 L 3.6894531 7 L 3.6894531 2.0996094 L 5.1933594 2.0996094 L 5.1933594 1 L 1 1 z M 5.5546875 1 L 7.3496094 7 L 8.3574219 7 A 5.499999 5.499999 0 0 1 8.7753906 6.7382812 L 10.511719 1 L 9.2695312 1 L 8.1757812 5.1582031 C 8.1169269 5.381355 8.0796659 5.5865478 8.0625 5.7734375 L 8.0410156 5.7734375 C 8.0287543 5.6004948 7.9924482 5.4017226 7.9335938 5.1757812 L 6.8339844 1 L 5.5546875 1 z M 11.144531 1 L 11.144531 6.0253906 A 5.499999 5.499999 0 0 1 11.5 6 A 5.499999 5.499999 0 0 1 12.333984 6.0625 L 12.333984 4.9335938 L 12.900391 4.9335938 C 13.53798 4.9335937 14.04568 4.7479432 14.425781 4.3769531 C 14.808335 4.0031737 15 3.5146195 15 2.9121094 C 15 1.6373541 14.334988 1 13.005859 1 L 11.144531 1 z M 12.333984 2.0371094 L 12.800781 2.0371094 C 13.433466 2.0371094 13.75 2.3464335 13.75 2.9628906 C 13.75 3.5932948 13.433466 3.9082031 12.800781 3.9082031 L 12.333984 3.9082031 L 12.333984 2.0371094 z " /></g>
</svg>
