<?xml version="1.0" encoding="UTF-8" standalone="no"?>
<svg
   width="100%"
   height="100%"
   viewBox="0 0 16 16"
   version="1.1"
   xml:space="preserve"
   style="fill-rule:evenodd;clip-rule:evenodd;stroke-linejoin:round;stroke-miterlimit:2;"
   id="svg1244"
   sodipodi:docname="export_xdts.svg"
   inkscape:version="1.1.2 (b8e25be833, 2022-02-05)"
   xmlns:inkscape="http://www.inkscape.org/namespaces/inkscape"
   xmlns:sodipodi="http://sodipodi.sourceforge.net/DTD/sodipodi-0.dtd"
   xmlns="http://www.w3.org/2000/svg"
   xmlns:svg="http://www.w3.org/2000/svg"><defs
   id="defs1248" /><sodipodi:namedview
   id="namedview1246"
   pagecolor="#ffffff"
   bordercolor="#666666"
   borderopacity="1.0"
   inkscape:pageshadow="2"
   inkscape:pageopacity="0.0"
   inkscape:pagecheckerboard="0"
   showgrid="true"
   inkscape:zoom="44.9375"
   inkscape:cx="3.2378303"
   inkscape:cy="5.8748261"
   inkscape:window-width="1920"
   inkscape:window-height="1141"
   inkscape:window-x="-7"
   inkscape:window-y="-7"
   inkscape:window-maximized="1"
   inkscape:current-layer="export_level"><inkscape:grid
     type="xygrid"
     id="grid823" /></sodipodi:namedview>
    <g
   id="export_level">
        <rect
   id="bg"
   x="0.001"
   y="-0.04"
   width="16"
   height="16"
   style="fill:#878787;fill-opacity:0;" />
        <path
   id="load"
   d="M11.486,16c2.476,-0 4.486,-2.01 4.486,-4.486c0,-2.476 -2.01,-4.486 -4.486,-4.486c-2.476,-0 -4.486,2.01 -4.486,4.486c-0,2.476 2.01,4.486 4.486,4.486Zm0.106,-7.984c0.099,0.019 0.194,0.068 0.269,0.148l2.828,2.938c0.189,0.2 0.181,0.517 -0.02,0.706c-0.2,0.19 -0.517,0.181 -0.707,-0.019l-2.001,-2.065l0,4.768c0,0.276 -0.224,0.5 -0.5,0.5c-0.276,0 -0.5,-0.224 -0.5,-0.5l0,-4.758l-2.008,2.033c-0.193,0.198 -0.51,0.201 -0.707,0.008c-0.197,-0.193 -0.2,-0.51 -0.007,-0.707l2.872,-2.917c0.129,-0.132 0.314,-0.177 0.481,-0.135Z" />
        
    <text
   xml:space="preserve"
   style="font-style:normal;font-variant:normal;font-weight:bold;font-stretch:normal;font-size:18.6667px;line-height:1.25;font-family:sans-serif;-inkscape-font-specification:'sans-serif Bold'"
   x="-1"
   y="8"
   id="text12259"><tspan
     sodipodi:role="line"
     id="tspan12257"
     x="-1"
     y="8" /></text><path
   id="text27536"
   style="font-weight:bold;font-size:6.85888px;line-height:1.25;font-family:'Segoe UI';-inkscape-font-specification:'Segoe UI Bold';stroke-width:0.367439"
   d="M 13.832031 1 C 13.621338 1 13.42289 1.0341316 13.234375 1.1015625 C 13.04586 1.1662961 12.878533 1.2679469 12.734375 1.4082031 C 12.592065 1.5484593 12.479653 1.7287897 12.396484 1.9472656 C 12.313316 2.1630444 12.271484 2.420566 12.271484 2.7226562 C 12.271484 3.1083607 12.348449 3.4385168 12.5 3.7109375 C 12.653399 3.9833582 12.884818 4.2135374 13.195312 4.4023438 C 13.317293 4.4751691 13.431763 4.5470594 13.537109 4.6171875 C 13.642456 4.6873156 13.732818 4.7604149 13.808594 4.8359375 C 13.886217 4.9114601 13.945878 4.9930225 13.990234 5.0820312 C 14.034591 5.17104 14.056641 5.2714818 14.056641 5.3847656 C 14.056641 5.4683799 14.043348 5.5482684 14.015625 5.6210938 C 13.987902 5.6912218 13.945966 5.7526959 13.888672 5.8066406 C 13.833226 5.8578881 13.762751 5.8980648 13.677734 5.9277344 C 13.594566 5.957404 13.495552 5.9726563 13.382812 5.9726562 C 13.190601 5.9726563 13.001015 5.9232723 12.8125 5.8261719 C 12.623985 5.7263742 12.449855 5.5777575 12.289062 5.3808594 L 12.289062 6.0644531 A 5.4999943 5.4999943 0 0 1 14.310547 6.7832031 C 14.389122 6.7364318 14.463339 6.6826721 14.53125 6.6191406 C 14.675408 6.4815817 14.789879 6.3044135 14.873047 6.0859375 C 14.958063 5.8647643 15 5.5912462 15 5.2675781 C 15 5.0329187 14.975787 4.8296171 14.927734 4.6542969 C 14.879682 4.4762794 14.811264 4.3172464 14.720703 4.1796875 C 14.630142 4.0421286 14.520103 3.9203894 14.392578 3.8125 C 14.266902 3.7019134 14.125741 3.5971004 13.966797 3.5 C 13.850361 3.4298719 13.744753 3.3635617 13.652344 3.2988281 C 13.559935 3.2313973 13.482655 3.163134 13.417969 3.0957031 C 13.353282 3.025575 13.302694 2.9524757 13.267578 2.8769531 C 13.232463 2.7987333 13.214844 2.7123348 13.214844 2.6152344 C 13.214844 2.5262256 13.2303 2.4451281 13.261719 2.375 C 13.293138 2.3021747 13.337238 2.2407006 13.394531 2.1894531 C 13.451825 2.1382057 13.5223 2.099238 13.605469 2.0722656 C 13.688637 2.042596 13.781162 2.0273438 13.882812 2.0273438 C 13.95674 2.0273438 14.033914 2.036551 14.115234 2.0527344 C 14.198403 2.0689178 14.282066 2.0938422 14.365234 2.1289062 C 14.448403 2.1612731 14.527845 2.2026588 14.605469 2.2539062 C 14.684941 2.3051537 14.759637 2.3642098 14.826172 2.4316406 L 14.826172 1.2226562 C 14.691254 1.1471337 14.541651 1.0917047 14.380859 1.0566406 C 14.221916 1.0188793 14.039028 1 13.832031 1 z M 1.1074219 1.0976562 L 2.2675781 3.9980469 L 1 6.8984375 L 2.0664062 6.8984375 L 2.7539062 5.0253906 C 2.801959 4.8446759 2.8327658 4.7101025 2.8457031 4.6210938 L 2.8574219 4.6210938 C 2.8851446 4.8099001 2.9116254 4.9396375 2.9375 5.0097656 L 3.6230469 6.8984375 L 4.6835938 6.8984375 L 3.4589844 3.9746094 L 4.6503906 1.0976562 L 3.6523438 1.0976562 L 3.0214844 2.8203125 C 2.9604943 3.0441829 2.9186626 3.212888 2.8964844 3.3261719 L 2.8847656 3.3261719 C 2.8496501 3.1373655 2.8099814 2.9734964 2.765625 2.8359375 L 2.1972656 1.0976562 L 1.1074219 1.0976562 z M 5.1582031 1.0976562 L 5.1582031 6.8984375 L 6.5664062 6.8984375 C 7.2077263 6.8984375 7.7210464 6.6292906 8.1054688 6.0898438 C 8.4917393 5.5503969 8.6855469 4.8293547 8.6855469 3.9257812 C 8.6855469 2.0404145 7.9784192 1.0976562 6.5664062 1.0976562 L 5.1582031 1.0976562 z M 8.7753906 1.0976562 L 8.7753906 2.1621094 L 9.9042969 2.1621094 L 9.9042969 6.2539062 A 5.4999943 5.4999943 0 0 1 10.802734 6.1113281 L 10.802734 2.1621094 L 11.9375 2.1621094 L 11.9375 1.0976562 L 8.7753906 1.0976562 z M 6.0546875 2.1621094 L 6.4921875 2.1621094 C 6.887699 2.1621094 7.1940236 2.3203982 7.4121094 2.6386719 C 7.6320433 2.9542483 7.7421875 3.3884732 7.7421875 3.9414062 C 7.7421875 4.5267061 7.6319384 4.9882735 7.4101562 5.328125 C 7.1902223 5.6679765 6.8861656 5.8378906 6.4980469 5.8378906 L 6.0546875 5.8378906 L 6.0546875 2.1621094 z " /></g>
</svg>
