<?xml version="1.0" encoding="UTF-8" standalone="no"?>
<svg
   width="100%"
   height="100%"
   viewBox="0 0 16 16"
   version="1.1"
   xml:space="preserve"
   style="fill-rule:evenodd;clip-rule:evenodd;stroke-linejoin:round;stroke-miterlimit:2;"
   id="svg1244"
   sodipodi:docname="export_cameratrack.svg"
   inkscape:version="1.1.2 (b8e25be833, 2022-02-05)"
   xmlns:inkscape="http://www.inkscape.org/namespaces/inkscape"
   xmlns:sodipodi="http://sodipodi.sourceforge.net/DTD/sodipodi-0.dtd"
   xmlns="http://www.w3.org/2000/svg"
   xmlns:svg="http://www.w3.org/2000/svg"><defs
   id="defs1248" /><sodipodi:namedview
   id="namedview1246"
   pagecolor="#ffffff"
   bordercolor="#666666"
   borderopacity="1.0"
   inkscape:pageshadow="2"
   inkscape:pageopacity="0.0"
   inkscape:pagecheckerboard="0"
   showgrid="true"
   inkscape:zoom="44.9375"
   inkscape:cx="12.917942"
   inkscape:cy="8.4784423"
   inkscape:window-width="1920"
   inkscape:window-height="1141"
   inkscape:window-x="-7"
   inkscape:window-y="-7"
   inkscape:window-maximized="1"
   inkscape:current-layer="g7"><inkscape:grid
     type="xygrid"
     id="grid823" /></sodipodi:namedview>
    <g
   id="export_level">
        <rect
   id="bg"
   x="0.001"
   y="-0.04"
   width="16"
   height="16"
   style="fill:#878787;fill-opacity:0;" />
        <path
   id="load"
   d="M11.486,16c2.476,-0 4.486,-2.01 4.486,-4.486c0,-2.476 -2.01,-4.486 -4.486,-4.486c-2.476,-0 -4.486,2.01 -4.486,4.486c-0,2.476 2.01,4.486 4.486,4.486Zm0.106,-7.984c0.099,0.019 0.194,0.068 0.269,0.148l2.828,2.938c0.189,0.2 0.181,0.517 -0.02,0.706c-0.2,0.19 -0.517,0.181 -0.707,-0.019l-2.001,-2.065l0,4.768c0,0.276 -0.224,0.5 -0.5,0.5c-0.276,0 -0.5,-0.224 -0.5,-0.5l0,-4.758l-2.008,2.033c-0.193,0.198 -0.51,0.201 -0.707,0.008c-0.197,-0.193 -0.2,-0.51 -0.007,-0.707l2.872,-2.917c0.129,-0.132 0.314,-0.177 0.481,-0.135Z" />
        
    <text
   xml:space="preserve"
   style="font-style:normal;font-variant:normal;font-weight:bold;font-stretch:normal;font-size:18.6667px;line-height:1.25;font-family:sans-serif;-inkscape-font-specification:'sans-serif Bold'"
   x="-1"
   y="8"
   id="text12259"><tspan
     sodipodi:role="line"
     id="tspan12257"
     x="-1"
     y="8" /></text><g
   id="bg-3"
   transform="translate(-110,-391)"
   style="clip-rule:evenodd;fill-rule:evenodd;stroke-linejoin:round;stroke-miterlimit:2"><path
     id="rect2"
     style="fill-opacity:0"
     d="m 110,390 h 16 v 16 h -16 z" /></g><g
   transform="translate(-3,-3)"
   id="g7"
   style="clip-rule:evenodd;fill-rule:evenodd;stroke-linejoin:round;stroke-miterlimit:2"><path
     id="path5"
     d="M 13,4 C 11.344,4 10,5.344 10,7 H 8.9492188 C 8.7172187,5.859 7.709,5 6.5,5 5.12,5 4,6.12 4,7.5 4,8.88 5.12,10 6.5,10 H 8 v 1 H 5.5 C 5.367,11 5.2404844,11.053484 5.1464844,11.146484 5.0534844,11.240484 5,11.367 5,11.5 v 4 c 0,0.133 0.053484,0.259516 0.1464844,0.353516 C 5.2404844,15.946516 5.367,16 5.5,16 H 9.2226562 A 5.499999,5.4999943 0 0 1 9,14.5 5.499999,5.4999943 0 0 1 11,10.279297 V 10 h 0.349609 A 5.499999,5.4999943 0 0 1 14.5,9 5.499999,5.4999943 0 0 1 15.189453,9.0449219 C 15.690457,8.5087253 16,7.7911673 16,7 16,5.344 14.656,4 13,4 Z m 0,2 A 0.99999952,0.99999952 0 0 1 14,7 0.99999952,0.99999952 0 0 1 13,8 0.99999952,0.99999952 0 0 1 12,7 0.99999952,0.99999952 0 0 1 13,6 Z M 6.5,6.5 a 0.99999952,0.99999952 0 0 1 1,1 0.99999952,0.99999952 0 0 1 -1,1 0.99999952,0.99999952 0 0 1 -1,-1 0.99999952,0.99999952 0 0 1 1,-1 z" /></g></g>
</svg>
