<?xml version="1.0" encoding="UTF-8" standalone="no"?>
<svg
   width="100%"
   height="100%"
   viewBox="0 0 16 16"
   version="1.1"
   xml:space="preserve"
   style="fill-rule:evenodd;clip-rule:evenodd;stroke-linejoin:round;stroke-miterlimit:2;"
   id="svg1244"
   sodipodi:docname="export_soundtrack.svg"
   inkscape:version="1.1.2 (b8e25be833, 2022-02-05)"
   xmlns:inkscape="http://www.inkscape.org/namespaces/inkscape"
   xmlns:sodipodi="http://sodipodi.sourceforge.net/DTD/sodipodi-0.dtd"
   xmlns="http://www.w3.org/2000/svg"
   xmlns:svg="http://www.w3.org/2000/svg"><defs
   id="defs1248" /><sodipodi:namedview
   id="namedview1246"
   pagecolor="#ffffff"
   bordercolor="#666666"
   borderopacity="1.0"
   inkscape:pageshadow="2"
   inkscape:pageopacity="0.0"
   inkscape:pagecheckerboard="0"
   showgrid="true"
   inkscape:zoom="44.9375"
   inkscape:cx="7.1098748"
   inkscape:cy="8.4784423"
   inkscape:window-width="1920"
   inkscape:window-height="1141"
   inkscape:window-x="-7"
   inkscape:window-y="-7"
   inkscape:window-maximized="1"
   inkscape:current-layer="g7"><inkscape:grid
     type="xygrid"
     id="grid823" /></sodipodi:namedview>
    <g
   id="export_level">
        <rect
   id="bg"
   x="0.001"
   y="-0.04"
   width="16"
   height="16"
   style="fill:#878787;fill-opacity:0;" />
        <path
   id="load"
   d="M11.486,16c2.476,-0 4.486,-2.01 4.486,-4.486c0,-2.476 -2.01,-4.486 -4.486,-4.486c-2.476,-0 -4.486,2.01 -4.486,4.486c-0,2.476 2.01,4.486 4.486,4.486Zm0.106,-7.984c0.099,0.019 0.194,0.068 0.269,0.148l2.828,2.938c0.189,0.2 0.181,0.517 -0.02,0.706c-0.2,0.19 -0.517,0.181 -0.707,-0.019l-2.001,-2.065l0,4.768c0,0.276 -0.224,0.5 -0.5,0.5c-0.276,0 -0.5,-0.224 -0.5,-0.5l0,-4.758l-2.008,2.033c-0.193,0.198 -0.51,0.201 -0.707,0.008c-0.197,-0.193 -0.2,-0.51 -0.007,-0.707l2.872,-2.917c0.129,-0.132 0.314,-0.177 0.481,-0.135Z" />
        
    <text
   xml:space="preserve"
   style="font-style:normal;font-variant:normal;font-weight:bold;font-stretch:normal;font-size:18.6667px;line-height:1.25;font-family:sans-serif;-inkscape-font-specification:'sans-serif Bold'"
   x="-1"
   y="8"
   id="text12259"><tspan
     sodipodi:role="line"
     id="tspan12257"
     x="-1"
     y="8" /></text><g
   id="bg-3"
   transform="translate(-110,-391)"
   style="clip-rule:evenodd;fill-rule:evenodd;stroke-linejoin:round;stroke-miterlimit:2"><path
     id="rect2"
     style="fill-opacity:0"
     d="m 110,390 h 16 v 16 h -16 z" /></g><g
   transform="translate(-3,-3)"
   id="g7"
   style="clip-rule:evenodd;fill-rule:evenodd;stroke-linejoin:round;stroke-miterlimit:2"><g
     id="bg-4"
     transform="matrix(0.11034483,0,0,0.121212,-13.220666,-16.9016)"
     style="clip-rule:evenodd;fill-rule:evenodd;stroke-linejoin:round;stroke-miterlimit:2"><rect
       x="147"
       y="156"
       width="145"
       height="132"
       style="fill:#878787;fill-opacity:0"
       id="rect2-7" /></g><path
     id="path5"
     style="clip-rule:evenodd;fill-rule:evenodd;stroke-linejoin:round;stroke-miterlimit:2"
     d="M 10.521484 0.54296875 C 10.413485 0.54584375 10.306531 0.57164063 10.207031 0.61914062 C 10.007032 0.71414063 9.8569688 0.8895625 9.7929688 1.1015625 L 9.7792969 1.0976562 C 9.6722969 1.4536562 9.8542197 1.8317031 10.199219 1.9707031 C 11.993331 2.7423168 13.233331 4.4224105 13.458984 6.3632812 A 5.4999981 5.4999981 0 0 1 14.996094 7.2558594 C 14.99916 7.1711186 15 7.0853276 15 7 C 15 4.207 13.345794 1.7115625 10.841797 0.6015625 C 10.739297 0.5595625 10.629484 0.54009375 10.521484 0.54296875 z M 8 1 L 4 5 L 2 5 C 1.4480008 5 1 5.448 1 6 L 1 8 C 1 8.552 1.4480008 9 2 9 L 4 9 L 6.0371094 11.037109 A 5.4999981 5.4999981 0 0 1 8 7.2792969 L 8 1 z M 9.7480469 3.53125 C 9.6593009 3.5331719 9.5694996 3.5482031 9.484375 3.5800781 C 9.256375 3.6660781 9.0818594 3.8500781 9.0058594 4.0800781 L 8.9707031 4.0703125 C 8.8677041 4.3833125 9.0010625 4.7257188 9.2890625 4.8867188 C 9.7809482 5.167325 10.148936 5.6134017 10.34375 6.1386719 A 5.4999981 5.4999981 0 0 1 11.5 6 A 5.4999981 5.4999981 0 0 1 11.876953 6.015625 C 11.628986 5.0392253 11.019398 4.1899346 10.173828 3.6425781 C 10.043203 3.5657031 9.8959568 3.5280469 9.7480469 3.53125 z "
     transform="translate(3,3)" /></g></g>
</svg>
