<?xml version="1.0" encoding="UTF-8" standalone="no"?>
<svg
   width="100%"
   height="100%"
   viewBox="0 0 16 16"
   version="1.1"
   xml:space="preserve"
   style="fill-rule:evenodd;clip-rule:evenodd;stroke-linejoin:round;stroke-miterlimit:2;"
   id="svg1244"
   sodipodi:docname="export_xsheetpdf.svg"
   inkscape:version="1.1.2 (b8e25be833, 2022-02-05)"
   xmlns:inkscape="http://www.inkscape.org/namespaces/inkscape"
   xmlns:sodipodi="http://sodipodi.sourceforge.net/DTD/sodipodi-0.dtd"
   xmlns="http://www.w3.org/2000/svg"
   xmlns:svg="http://www.w3.org/2000/svg"><defs
   id="defs1248" /><sodipodi:namedview
   id="namedview1246"
   pagecolor="#ffffff"
   bordercolor="#666666"
   borderopacity="1.0"
   inkscape:pageshadow="2"
   inkscape:pageopacity="0.0"
   inkscape:pagecheckerboard="0"
   showgrid="true"
   inkscape:zoom="44.9375"
   inkscape:cx="23.109875"
   inkscape:cy="9.3018081"
   inkscape:window-width="1920"
   inkscape:window-height="1141"
   inkscape:window-x="-7"
   inkscape:window-y="-7"
   inkscape:window-maximized="1"
   inkscape:current-layer="export_level"><inkscape:grid
     type="xygrid"
     id="grid823" /></sodipodi:namedview>
    <g
   id="export_level">
        <rect
   id="bg"
   x="0.001"
   y="-0.04"
   width="16"
   height="16"
   style="fill:#878787;fill-opacity:0;" />
        <path
   id="load"
   d="M11.486,16c2.476,-0 4.486,-2.01 4.486,-4.486c0,-2.476 -2.01,-4.486 -4.486,-4.486c-2.476,-0 -4.486,2.01 -4.486,4.486c-0,2.476 2.01,4.486 4.486,4.486Zm0.106,-7.984c0.099,0.019 0.194,0.068 0.269,0.148l2.828,2.938c0.189,0.2 0.181,0.517 -0.02,0.706c-0.2,0.19 -0.517,0.181 -0.707,-0.019l-2.001,-2.065l0,4.768c0,0.276 -0.224,0.5 -0.5,0.5c-0.276,0 -0.5,-0.224 -0.5,-0.5l0,-4.758l-2.008,2.033c-0.193,0.198 -0.51,0.201 -0.707,0.008c-0.197,-0.193 -0.2,-0.51 -0.007,-0.707l2.872,-2.917c0.129,-0.132 0.314,-0.177 0.481,-0.135Z" />
        
    <rect
   id="bg-2"
   x="0"
   y="0"
   width="16"
   height="16"
   style="clip-rule:evenodd;fill:#878787;fill-opacity:0;fill-rule:evenodd;stroke-linejoin:round;stroke-miterlimit:2" /><g
   id="bg-6"
   transform="matrix(0.110345,0,0,0.121212,-16.2207,-18.909)"
   style="clip-rule:evenodd;fill-rule:evenodd;stroke-linejoin:round;stroke-miterlimit:2"><rect
     x="147"
     y="156"
     width="145"
     height="132"
     style="fill:#878787;fill-opacity:0"
     id="rect2" /></g><path
   id="path5-7"
   style="clip-rule:evenodd;fill-rule:evenodd;stroke-linejoin:round;stroke-miterlimit:2"
   d="M 0.85742188 0 C 0.38442187 0 -1.4802974e-16 0.3881875 0 0.8671875 L 0 15.132812 C 0 15.611813 0.38442188 16 0.85742188 16 L 8.375 16 A 5.499999 5.4999981 0 0 1 7.2617188 15 L 1 15 L 1 1 L 15 1 L 15 7.2597656 A 5.499999 5.4999981 0 0 1 16 8.3378906 L 16 0.8671875 C 16 0.3881875 15.615578 0 15.142578 0 L 0.85742188 0 z M 16 14.625 A 5.499999 5.4999981 0 0 1 14.625 16 L 15.142578 16 C 15.615578 16 16 15.611812 16 15.132812 L 16 14.625 z " /><g
   transform="matrix(1,0,0,0.181818,-210,-70.636)"
   id="g11"
   style="clip-rule:evenodd;fill-rule:evenodd;stroke-linejoin:round;stroke-miterlimit:2"><rect
     x="211"
     y="394"
     width="14"
     height="11"
     style="fill-opacity:0.2"
     id="rect9" /></g><path
   id="path13"
   style="clip-rule:evenodd;fill-rule:evenodd;stroke-linejoin:round;stroke-miterlimit:2"
   d="M 1 6 L 1 7 L 8.3574219 7 A 5.4999962 5.4999967 0 0 1 11.5 6 L 1 6 z M 11.5 6 A 5.4999962 5.4999967 0 0 1 14.658203 7 L 15 7 L 15 6 L 11.5 6 z M 1 9 L 1 10 L 6.2128906 10 A 5.4999962 5.4999967 0 0 1 6.6132812 9 L 1 9 z M 1 12 L 1 13 L 6.2128906 13 A 5.4999962 5.4999967 0 0 1 6.0371094 12 L 1 12 z " /><g
   transform="translate(-211,-390)"
   id="g19"
   style="clip-rule:evenodd;fill-rule:evenodd;stroke-linejoin:round;stroke-miterlimit:2"><rect
     x="212"
     y="393"
     width="14"
     height="1"
     id="rect17" /></g><rect
   x="5"
   y="3"
   width="1"
   height="12"
   id="rect21"
   style="clip-rule:evenodd;fill-rule:evenodd;stroke-linejoin:round;stroke-miterlimit:2" /><path
   id="rect25"
   style="clip-rule:evenodd;fill-rule:evenodd;stroke-linejoin:round;stroke-miterlimit:2"
   d="M 10 3 L 10 6.2128906 A 5.4999943 5.4999971 0 0 1 11 6.0332031 L 11 3 L 10 3 z " /></g>
</svg>
