<?xml version="1.0" encoding="UTF-8" standalone="no"?>
<svg
   width="100%"
   height="100%"
   viewBox="0 0 16 16"
   version="1.1"
   xml:space="preserve"
   style="fill-rule:evenodd;clip-rule:evenodd;stroke-linejoin:round;stroke-miterlimit:2;"
   id="svg1244"
   sodipodi:docname="export_smimages.svg"
   inkscape:version="1.1.2 (b8e25be833, 2022-02-05)"
   xmlns:inkscape="http://www.inkscape.org/namespaces/inkscape"
   xmlns:sodipodi="http://sodipodi.sourceforge.net/DTD/sodipodi-0.dtd"
   xmlns="http://www.w3.org/2000/svg"
   xmlns:svg="http://www.w3.org/2000/svg"><defs
   id="defs1248" /><sodipodi:namedview
   id="namedview1246"
   pagecolor="#ffffff"
   bordercolor="#666666"
   borderopacity="1.0"
   inkscape:pageshadow="2"
   inkscape:pageopacity="0.0"
   inkscape:pagecheckerboard="0"
   showgrid="true"
   inkscape:zoom="44.9375"
   inkscape:cx="8.4673157"
   inkscape:cy="7.054242"
   inkscape:window-width="1920"
   inkscape:window-height="1141"
   inkscape:window-x="-7"
   inkscape:window-y="-7"
   inkscape:window-maximized="1"
   inkscape:current-layer="export_level"><inkscape:grid
     type="xygrid"
     id="grid823" /></sodipodi:namedview>
    <g
   id="export_level">
        <rect
   id="bg"
   x="0.001"
   y="-0.04"
   width="16"
   height="16"
   style="fill:#878787;fill-opacity:0;" />
        <path
   id="load"
   d="M11.486,16c2.476,-0 4.486,-2.01 4.486,-4.486c0,-2.476 -2.01,-4.486 -4.486,-4.486c-2.476,-0 -4.486,2.01 -4.486,4.486c-0,2.476 2.01,4.486 4.486,4.486Zm0.106,-7.984c0.099,0.019 0.194,0.068 0.269,0.148l2.828,2.938c0.189,0.2 0.181,0.517 -0.02,0.706c-0.2,0.19 -0.517,0.181 -0.707,-0.019l-2.001,-2.065l0,4.768c0,0.276 -0.224,0.5 -0.5,0.5c-0.276,0 -0.5,-0.224 -0.5,-0.5l0,-4.758l-2.008,2.033c-0.193,0.198 -0.51,0.201 -0.707,0.008c-0.197,-0.193 -0.2,-0.51 -0.007,-0.707l2.872,-2.917c0.129,-0.132 0.314,-0.177 0.481,-0.135Z" />
        
    <rect
   id="bg-2"
   x="0"
   y="0"
   width="16"
   height="16"
   style="clip-rule:evenodd;fill:#878787;fill-opacity:0;fill-rule:evenodd;stroke-linejoin:round;stroke-miterlimit:2" /><g
   id="bg-6"
   transform="matrix(0.110345,0,0,0.121212,-16.2207,-18.909)"
   style="clip-rule:evenodd;fill-rule:evenodd;stroke-linejoin:round;stroke-miterlimit:2"><rect
     x="147"
     y="156"
     width="145"
     height="132"
     style="fill:#878787;fill-opacity:0"
     id="rect2" /></g><rect
   style="fill:#e20000;fill-opacity:1;stroke:#000000;stroke-width:0;stroke-linejoin:round;stroke-miterlimit:2;stroke-dasharray:none"
   id="rect3816"
   width="1"
   height="1"
   x="-7"
   y="2" /><g
   id="bg-8"
   transform="translate(-93,-395)"
   style="clip-rule:evenodd;fill-rule:evenodd;stroke-linejoin:round;stroke-miterlimit:2"><rect
     x="110"
     y="390"
     width="16"
     height="16"
     style="fill-opacity:0"
     id="rect2-5" /></g><path
   d="M 6.0513847,7.20425 C 6.052619,7.2824178 6.0206155,7.3576671 5.9627687,7.4130832 5.9049231,7.4685 5.8261538,7.5 5.7436922,7.5 H 1.4230769 c -0.081847,0 -0.16,-0.030918 -0.2178462,-0.085168 C 1.148,7.36 1.1153846,7.2859168 1.1153846,7.2083332 V 4.875 c 0,-0.077582 0.032616,-0.1516671 0.089846,-0.2065 0.057847,-0.05425 0.136,-0.085168 0.2178463,-0.085168 H 2.9615384 V 4 H 2.0384616 C 1.1892309,4 0.5,3.3466668 0.5,2.5416668 c 0,-0.805 0.6892309,-1.4583335 1.5384616,-1.4583335 0.744,0 1.3649231,0.5010835 1.5076922,1.1666667 h 0.646154 c 0,-0.966 0.8270769,-1.75 1.8461538,-1.75 1.0190768,0 1.8461537,0.784 1.8461537,1.75 0,0.966 -0.8270769,1.75 -1.8461537,1.75 H 4.8076922 v 0.5833332 h 0.9230772 c 0.081847,0 0.16,0.030918 0.2178459,0.085168 0.057231,0.054832 0.089847,0.1289176 0.089847,0.2065 V 5.75 L 7.8846153,4.5833332 H 8.5 V 7.5 H 7.8846153 L 6.0384616,6.3333332 c 0,0 0.008,0.525 0.012934,0.8709168 z M 2.0384616,1.9583332 c 0.3396922,0 0.6153846,0.2613336 0.6153846,0.5833336 0,0.322 -0.2756924,0.5833332 -0.6153846,0.5833332 -0.3396922,0 -0.6153847,-0.2613332 -0.6153847,-0.5833332 0,-0.322 0.2756925,-0.5833336 0.6153847,-0.5833336 z m 4,-0.2916664 c 0.3396922,0 0.6153846,0.2613332 0.6153846,0.5833332 0,0.322 -0.2756924,0.5833332 -0.6153846,0.5833332 C 5.6987694,2.8333332 5.4230769,2.572 5.4230769,2.25 c 0,-0.322 0.2756925,-0.5833332 0.6153847,-0.5833332 z"
   id="path5"
   style="clip-rule:evenodd;fill-rule:evenodd;stroke-width:0.599147;stroke-linejoin:round;stroke-miterlimit:2" /><rect
   id="bg-82"
   x="16"
   y="10"
   width="16"
   height="16"
   style="clip-rule:evenodd;fill:#878787;fill-opacity:0;fill-rule:evenodd;stroke-linejoin:round;stroke-miterlimit:2" /><path
   id="path4"
   style="clip-rule:evenodd;fill-rule:evenodd;stroke-linejoin:round;stroke-miterlimit:2"
   d="M 9 0.9609375 L 9 1.9609375 L 10.001953 1.9609375 L 10.001953 4.9609375 L 13.001953 4.9609375 L 13.001953 6.2402344 C 13.350953 6.3402344 13.684953 6.4737188 14.001953 6.6367188 L 14.001953 4.9609375 L 10.001953 0.9609375 L 9 0.9609375 z M 2.0019531 8.5 L 2.0019531 14.960938 L 7.21875 14.960938 C 6.96975 14.652938 6.7532188 14.317937 6.5742188 13.960938 L 3.0019531 13.960938 L 3.0019531 8.5 L 2.0019531 8.5 z " /></g>
</svg>
