<?xml version="1.0" encoding="UTF-8" standalone="no"?>
<!DOCTYPE svg PUBLIC "-//W3C//DTD SVG 1.1//EN" "http://www.w3.org/Graphics/SVG/1.1/DTD/svg11.dtd">
<svg width="16px" height="16px" version="1.1" xmlns="http://www.w3.org/2000/svg" xmlns:xlink="http://www.w3.org/1999/xlink" xml:space="preserve" xmlns:serif="http://www.serif.com/" style="fill-rule:evenodd;clip-rule:evenodd;stroke-linejoin:round;stroke-miterlimit:2;">
    <g transform="matrix(1,0,0,1,-150,-310)">
        <g id="export_level" transform="matrix(1,0,0,1,40,80)">
            <g id="bg" transform="matrix(0.110345,0,0,0.121212,93.7793,211.091)">
                <rect x="147" y="156" width="145" height="132" style="fill:rgb(135,135,135);fill-opacity:0;"/>
            </g>
            <path d="M120,231.5L123.5,235L120,235L120,231.5Z"/>
            <g transform="matrix(1,0,0,1,-40,-80)">
                <path d="M166,322L166,325.5C166,325.776 165.776,326 165.5,326L159.5,326C159.224,326 159,325.776 159,325.5L159,322L161,322L161,323L160,323L160,325L165,325L165,323L164,323L164,322L166,322ZM162,321C162.001,321.695 162.001,322.724 162.001,324L163.001,324C163.001,322.724 163.001,321.695 163.002,321L165.682,321L162.5,317.818L159.318,321L162,321Z"/>
            </g>
            <g transform="matrix(1,0,0,1,-40,-80)">
                <path d="M157.8,325L153,325C152.448,325 152,324.552 152,324L152,312C152,311.448 152.448,311 153,311L160,311C160.265,311 160.52,311.105 160.707,311.293L163.707,314.293C163.895,314.48 164,314.735 164,315L164,317.621L163.349,316.969C163.245,316.866 163.126,316.785 163,316.727L163,315L160,312L153,312L153,324L157.8,324L157.8,325ZM159,325L159,324L160,324L160,325L161,325L159,325ZM163,318.318L164,319.318L164,320L163,320L163,318.318Z"/>
            </g>
        </g>
    </g>
</svg>
