<?xml version="1.0" encoding="UTF-8" standalone="no"?>
<!DOCTYPE svg PUBLIC "-//W3C//DTD SVG 1.1//EN" "http://www.w3.org/Graphics/SVG/1.1/DTD/svg11.dtd">
<svg width="16px" height="16px" version="1.1" xmlns="http://www.w3.org/2000/svg" xmlns:xlink="http://www.w3.org/1999/xlink" xml:space="preserve" xmlns:serif="http://www.serif.com/" style="fill-rule:evenodd;clip-rule:evenodd;stroke-linejoin:round;stroke-miterlimit:2;">
    <g transform="matrix(1,0,0,1,-70,-490)">
        <g id="fast_render_mp4" transform="matrix(1,0,0,1,0,19.96)">
            <g id="bg" transform="matrix(0.110345,0,0,0.121212,53.7793,451.131)">
                <rect x="147" y="156" width="145" height="132" style="fill:rgb(135,135,135);fill-opacity:0;"/>
            </g>
            <g transform="matrix(1,0,0,1,64,466.04)">
                <path d="M8,17.5L8,19.5C8,19.776 7.776,20 7.5,20C7.224,20 7,19.776 7,19.5L7,15.5C7,15.26 7.17,15.054 7.405,15.009C7.641,14.964 7.875,15.092 7.964,15.314L9.5,18L11.036,15.314C11.125,15.092 11.359,14.964 11.595,15.009C11.83,15.054 12,15.26 12,15.5L12,19.5C12,19.776 11.776,20 11.5,20C11.224,20 11,19.776 11,19.5L11,17.499L9.964,19.686C9.888,19.876 9.704,20 9.5,20C9.296,20 9.112,19.876 9.036,19.686L8,17.5ZM13.01,15.399C13.057,15.171 13.259,15 13.5,15L15.5,15C15.776,15 16,15.224 16,15.5L16,17.5C16,17.776 15.776,18 15.5,18L14,18L14,19.5C14,19.776 13.776,20 13.5,20C13.224,20 13,19.776 13,19.5L13.003,15.448L13.01,15.399ZM19,17L19,15.5C19,15.224 19.224,15 19.5,15C19.776,15 20,15.224 20,15.5L20,19.5L19.994,19.576L19.97,19.672L19.928,19.759L19.87,19.836L19.799,19.901L19.717,19.951L19.625,19.984L19.551,19.997L19.474,19.999L19.399,19.99L19.305,19.961L19.22,19.915L19.146,19.854L19.085,19.78L19.039,19.695L19.01,19.601L19.001,19.526L19,18L17.5,18C17.224,18 17,17.776 17,17.5L17,15.5C17,15.224 17.224,15 17.5,15C17.776,15 18,15.224 18,15.5L18,17L19,17ZM14,17L15,17L15,16L14,16L14,17Z"/>
            </g>
            <g transform="matrix(1,0,0,1,0,0.04)">
                <path d="M82,479.5C82,479.776 81.776,480 81.5,480L73.5,480C73.224,480 73,479.776 73,479.5L73,476.5C73,476.224 73.224,476 73.5,476C74.353,476 76,476 76,476L76,477L74,477L74,479L81,479L81,477L79,477L79,476L81.5,476C81.776,476 82,476.224 82,476.5C82,477.467 82,479.5 82,479.5Z"/>
            </g>
            <g transform="matrix(1,0,0,-1,-25,795.04)">
                <path d="M102,321C102.001,320.305 102.001,318.276 102.001,317L103.001,317C103.001,318.276 103.001,320.305 103.002,321L105.682,321L102.5,324.182L99.318,321L102,321Z"/>
            </g>
        </g>
    </g>
</svg>
