<?xml version="1.0" encoding="UTF-8" standalone="no"?>
<!DOCTYPE svg PUBLIC "-//W3C//DTD SVG 1.1//EN" "http://www.w3.org/Graphics/SVG/1.1/DTD/svg11.dtd">
<svg width="100%" height="100%" viewBox="0 0 16 16" version="1.1" xmlns="http://www.w3.org/2000/svg" xmlns:xlink="http://www.w3.org/1999/xlink" xml:space="preserve" xmlns:serif="http://www.serif.com/" style="fill-rule:evenodd;clip-rule:evenodd;stroke-linejoin:round;stroke-miterlimit:2;">
    <g id="filebrowser">
        <rect id="bg" x="0.013" y="0" width="16" height="16" style="fill:#878787;fill-opacity:0;"/>
        <rect x="5.013" y="11" width="6" height="4"/>
        <path d="M0.013,3l-0,-1.5c-0,-0.276 0.223,-0.5 0.5,-0.5l4.88,0c0.397,0 0.777,0.158 1.058,0.438l1.562,1.562l-8,0Z" style="fill-opacity:0.5;"/>
        <path d="M8.013,3l7.5,0c0.276,0 0.5,0.224 0.5,0.5l-0,11c-0,0.133 -0.053,0.26 -0.147,0.354c-0.094,0.093 -0.221,0.146 -0.353,0.146l-2.5,0l-0,-5c-0,-0.552 -0.448,-1 -1,-1l-8,-0c-0.553,0 -1,0.448 -1,1l-0,5l-2.5,0c-0.277,0 -0.5,-0.224 -0.5,-0.5l-0,-10.5l5.38,-0c0.397,-0 0.777,-0.079 1.058,-0.219l1.562,-0.781Z"/>
    </g>
</svg>
