<?xml version="1.0" encoding="UTF-8" standalone="no"?>
<!DOCTYPE svg PUBLIC "-//W3C//DTD SVG 1.1//EN" "http://www.w3.org/Graphics/SVG/1.1/DTD/svg11.dtd">
<svg width="16px" height="16px" version="1.1" xmlns="http://www.w3.org/2000/svg" xmlns:xlink="http://www.w3.org/1999/xlink" xml:space="preserve" xmlns:serif="http://www.serif.com/" style="fill-rule:evenodd;clip-rule:evenodd;stroke-linejoin:round;stroke-miterlimit:2;">
    <g transform="matrix(0.8,0,0,0.8,-4.44089e-16,-4.44089e-16)">
        <rect x="0" y="0" width="20" height="20" style="fill-opacity:0;"/>
    </g>
    <g transform="matrix(1,0,0,1,-3,-3)">
        <g transform="matrix(1,0,0,1,0,-1)">
            <path d="M12,5L5,5L5,16.915C4.418,16.708 4,16.153 4,15.5L4,5.5C4,4.672 4.672,4 5.5,4L11,4L12,5Z"/>
        </g>
        <g transform="matrix(1,0,0,1,0,1)">
            <path d="M7.5,4L14,4L18,8L18,16.5C18,17.328 17.328,18 16.5,18L7.5,18C6.672,18 6,17.328 6,16.5L6,5.5C6,4.672 6.672,4 7.5,4ZM13,5L17,9L13,9L13,5Z"/>
        </g>
    </g>
</svg>
