<?xml version="1.0" encoding="UTF-8" standalone="no"?>
<!DOCTYPE svg PUBLIC "-//W3C//DTD SVG 1.1//EN" "http://www.w3.org/Graphics/SVG/1.1/DTD/svg11.dtd">
<svg width="16px" height="16px" version="1.1" xmlns="http://www.w3.org/2000/svg" xmlns:xlink="http://www.w3.org/1999/xlink" xml:space="preserve" xmlns:serif="http://www.serif.com/" style="fill-rule:evenodd;clip-rule:evenodd;stroke-linecap:round;stroke-linejoin:round;stroke-miterlimit:1.5;">
    <g transform="matrix(1,0,0,1,-10,-410)">
        <g id="fill_freehand">
            <g id="bg" transform="matrix(0.110345,0,0,0.121212,-6.22069,391.091)">
                <rect x="147" y="156" width="145" height="132" style="fill:rgb(135,135,135);fill-opacity:0;"/>
            </g>
            <g transform="matrix(0.629063,0,0,0.733583,9.47568,410.666)">
                <ellipse cx="5.534" cy="16.339" rx="3.034" ry="1.839" style="stroke:black;stroke-width:0.05px;"/>
            </g>
            <g transform="matrix(-0.842137,0,0,0.842137,26.8531,408.628)">
                <path d="M4.72,5.099L2.316,2.695C2.072,2.451 2.072,2.055 2.316,1.812C2.559,1.568 2.955,1.568 3.199,1.812L5.604,4.216L7.493,2.327C7.656,2.164 7.919,2.164 8.082,2.327L13.376,7.621L13.373,7.614C14.686,9.071 16,10.82 16,12.193C16,13.112 15.254,13.858 14.335,13.858C13.416,13.858 12.67,13.112 12.67,12.193C12.67,10.899 14.017,10.011 13.492,7.997C13.476,8.075 13.438,8.15 13.377,8.211L7.264,14.325C7.029,14.559 6.712,14.691 6.38,14.691C6.049,14.69 5.732,14.559 5.498,14.325L1.38,10.207C1.145,9.972 1.014,9.655 1.013,9.324C1.013,8.992 1.145,8.675 1.379,8.441L4.72,5.099ZM6.192,4.805L7.283,5.896C7.527,6.14 7.527,6.536 7.284,6.78C7.04,7.023 6.644,7.023 6.4,6.779L5.309,5.688L3.388,7.609L12.294,7.566L7.787,3.21L6.192,4.805Z"/>
            </g>
            <g transform="matrix(1,0,0,1,0.0672542,0)">
                <path d="M12.874,417.085C12.698,417.454 12.59,417.849 12.548,418.243C11.758,418.735 11.14,419.485 11.016,420.464C10.915,421.26 11.895,421.84 12.714,422.35C13.519,422.866 13.737,422.92 13.846,423.679C13.993,424.714 13.012,425.5 12.237,425.936C12.237,425.936 11.959,426.054 11.749,425.937C10.741,425.378 14.017,424.389 12.269,423.253C11.544,422.782 10.671,422.439 10.272,421.772C9.253,420.065 10.647,418.057 12.874,417.085ZM19.353,420.498C19.748,421.005 20.038,421.408 20.038,421.408C20.054,421.423 20.07,421.438 20.086,421.452C19.501,422.325 18.395,422.947 17.235,423.173C16.329,423.349 15.396,423.326 14.478,423.312C14.478,423.312 14.149,423.263 14.036,423.031C13.838,422.623 14.156,422.319 15.303,422.321C16.919,422.313 18.839,421.659 19.353,420.498Z"/>
            </g>
        </g>
    </g>
</svg>
