<?xml version="1.0" encoding="UTF-8" standalone="no"?>
<!DOCTYPE svg PUBLIC "-//W3C//DTD SVG 1.1//EN" "http://www.w3.org/Graphics/SVG/1.1/DTD/svg11.dtd">
<svg width="16px" height="16px" version="1.1" xmlns="http://www.w3.org/2000/svg" xmlns:xlink="http://www.w3.org/1999/xlink" xml:space="preserve" xmlns:serif="http://www.serif.com/" style="fill-rule:evenodd;clip-rule:evenodd;stroke-linejoin:round;stroke-miterlimit:2;">
    <g transform="matrix(1,0,0,1,-70,-430)">
        <g id="fill_empty_cells" transform="matrix(1,0,0,1,60,100)">
            <g id="bg" transform="matrix(0.110345,0,0,0.121212,-6.22069,311.091)">
                <rect x="147" y="156" width="145" height="132" style="fill:rgb(135,135,135);fill-opacity:0;"/>
            </g>
            <g transform="matrix(0.636364,0,0,0.8,9.09091,327.4)">
                <rect x="3" y="4.5" width="11" height="5"/>
            </g>
            <g transform="matrix(0.545455,0,0,0.8,9.36364,332.4)">
                <path d="M15.833,4.5L3,4.5L3,9.5L15.833,9.5L15.833,4.5ZM4.833,5.75L4.833,8.25L14,8.25L14,5.75L4.833,5.75Z"/>
            </g>
            <g transform="matrix(0.545455,0,0,0.8,9.36364,337.4)">
                <path d="M15.833,4.5L3,4.5L3,9.5L15.833,9.5L15.833,4.5ZM4.833,5.75L4.833,8.25L14,8.25L14,5.75L4.833,5.75Z"/>
            </g>
            <g transform="matrix(-3.06166e-16,1,1,3.06166e-16,11,330)">
                <path d="M12,13C12,13 2.85,12.999 1.233,12.999C1.097,12.999 0.986,12.892 0.981,12.756C0.977,12.622 0.971,12.455 0.966,12.311C0.963,12.23 0.993,12.15 1.05,12.092C1.107,12.033 1.185,12 1.266,12C3.06,12 12,12 12,12L12,10L14.5,12.5L12,15L12,13Z"/>
            </g>
        </g>
    </g>
</svg>
