<?xml version="1.0" encoding="UTF-8" standalone="no"?>
<!DOCTYPE svg PUBLIC "-//W3C//DTD SVG 1.1//EN" "http://www.w3.org/Graphics/SVG/1.1/DTD/svg11.dtd">
<svg width="16px" height="16px" version="1.1" xmlns="http://www.w3.org/2000/svg" xmlns:xlink="http://www.w3.org/1999/xlink" xml:space="preserve" xmlns:serif="http://www.serif.com/" style="fill-rule:evenodd;clip-rule:evenodd;stroke-linejoin:round;stroke-miterlimit:2;">
    <g transform="matrix(1,0,0,1,-110,-370)">
        <g id="fill_normal" transform="matrix(1,0,0,1,100,0)">
            <g id="bg" transform="matrix(0.110345,0,0,0.121212,-6.22069,351.091)">
                <rect x="147" y="156" width="145" height="132" style="fill:rgb(135,135,135);fill-opacity:0;"/>
            </g>
            <g transform="matrix(-0.842137,0,0,0.842137,26.8531,368.628)">
                <path d="M4.72,5.099L2.316,2.695C2.072,2.451 2.072,2.055 2.316,1.812C2.559,1.568 2.955,1.568 3.199,1.812L5.604,4.216L7.493,2.327C7.656,2.164 7.919,2.164 8.082,2.327L13.376,7.621L13.373,7.614C14.686,9.071 16,10.82 16,12.193C16,13.112 15.254,13.858 14.335,13.858C13.416,13.858 12.67,13.112 12.67,12.193C12.67,10.899 14.017,10.011 13.492,7.997C13.476,8.075 13.438,8.15 13.377,8.211L7.264,14.325C7.029,14.559 6.712,14.691 6.38,14.691C6.049,14.69 5.732,14.559 5.498,14.325L1.38,10.207C1.145,9.972 1.014,9.655 1.013,9.324C1.013,8.992 1.145,8.675 1.379,8.441L4.72,5.099ZM6.192,4.805L7.283,5.896C7.527,6.14 7.527,6.536 7.284,6.78C7.04,7.023 6.644,7.023 6.4,6.779L5.309,5.688L3.388,7.576L12.144,7.566L7.787,3.21L6.192,4.805Z"/>
            </g>
            <g transform="matrix(0.358488,-0.154412,0.181919,0.422351,-3.32183,373.242)">
                <path d="M26,22L32.6,35L27.5,32.936L27.5,39L24.5,39L24.5,32.936L19.4,35L26,22Z"/>
            </g>
        </g>
    </g>
</svg>
