<?xml version="1.0" encoding="UTF-8" standalone="no"?>
<!DOCTYPE svg PUBLIC "-//W3C//DTD SVG 1.1//EN" "http://www.w3.org/Graphics/SVG/1.1/DTD/svg11.dtd">
<svg width="16px" height="16px" version="1.1" xmlns="http://www.w3.org/2000/svg" xmlns:xlink="http://www.w3.org/1999/xlink" xml:space="preserve" xmlns:serif="http://www.serif.com/" style="fill-rule:evenodd;clip-rule:evenodd;stroke-linejoin:round;stroke-miterlimit:2;">
    <g transform="matrix(1,0,0,1,-10,-390)">
        <g id="fill_polyline">
            <g id="bg" transform="matrix(0.110345,0,0,0.121212,-6.22069,371.091)">
                <rect x="147" y="156" width="145" height="132" style="fill:rgb(135,135,135);fill-opacity:0;"/>
            </g>
            <g transform="matrix(-0.842137,0,0,0.842137,26.8531,388.628)">
                <path d="M4.72,5.099L2.316,2.695C2.072,2.451 2.072,2.055 2.316,1.812C2.559,1.568 2.955,1.568 3.199,1.812L5.604,4.216L7.493,2.327C7.656,2.164 7.919,2.164 8.082,2.327L13.376,7.621L13.373,7.614C14.686,9.071 16,10.82 16,12.193C16,13.112 15.254,13.858 14.335,13.858C13.416,13.858 12.67,13.112 12.67,12.193C12.67,10.899 14.017,10.011 13.492,7.997C13.476,8.075 13.438,8.15 13.377,8.211L7.264,14.325C7.029,14.559 6.712,14.691 6.38,14.691C6.049,14.69 5.732,14.559 5.498,14.325L1.38,10.207C1.145,9.972 1.014,9.655 1.013,9.324C1.013,8.992 1.145,8.675 1.379,8.441L4.72,5.099ZM6.192,4.805L7.283,5.896C7.527,6.14 7.527,6.536 7.284,6.78C7.04,7.023 6.644,7.023 6.4,6.779L5.309,5.688L3.388,7.576L12.144,7.566L7.787,3.21L6.192,4.805Z"/>
            </g>
            <path d="M17.016,399.695C17.127,399.419 17.187,399.121 17.182,398.813C17.165,398.451 17.326,398.421 17.58,398.582C18.697,400.547 19.764,402.54 20.872,404.51C21.195,405.128 20.766,405.935 20.059,405.998C20.004,406 20,406.003 20,406.003L11.224,406L11,406C10.302,405.979 9.809,405.209 10.101,404.562C10.938,402.965 11.83,401.397 12.728,399.833C12.871,400.208 13.085,400.538 13.369,400.789L11,405L20,405L17.016,399.695Z"/>
        </g>
    </g>
</svg>
