<?xml version="1.0" encoding="UTF-8" standalone="no"?>
<!DOCTYPE svg PUBLIC "-//W3C//DTD SVG 1.1//EN" "http://www.w3.org/Graphics/SVG/1.1/DTD/svg11.dtd">
<svg width="16px" height="16px" version="1.1" xmlns="http://www.w3.org/2000/svg" xmlns:xlink="http://www.w3.org/1999/xlink" xml:space="preserve" xmlns:serif="http://www.serif.com/" style="fill-rule:evenodd;clip-rule:evenodd;stroke-linejoin:round;stroke-miterlimit:2;">
    <g transform="matrix(1,0,0,1,-10,-330)">
        <g id="fill_empty_cells">
            <g id="bg" transform="matrix(0.110345,0,0,0.121212,-6.22069,311.091)">
                <rect x="147" y="156" width="145" height="132" style="fill:rgb(135,135,135);fill-opacity:0;"/>
            </g>
            <g transform="matrix(0.636364,0,0,0.8,9.09091,327.4)">
                <rect x="3" y="4.5" width="11" height="5"/>
            </g>
            <g transform="matrix(0.545455,0,0,0.8,9.36364,332.4)">
                <path d="M15.833,4.5L3,4.5L3,9.5L15.833,9.5L15.833,4.5ZM4.833,5.75L4.833,8.25L14,8.25L14,5.75L4.833,5.75Z"/>
            </g>
            <g transform="matrix(0.545455,0,0,0.8,9.36364,337.4)">
                <path d="M15.833,4.5L3,4.5L3,9.5L15.833,9.5L15.833,4.5ZM4.833,5.75L4.833,8.25L14,8.25L14,5.75L4.833,5.75Z"/>
            </g>
            <g transform="matrix(6.12323e-17,-1,1,6.12323e-17,15.0012,349.999)">
                <path d="M9,9.471C9.008,9.609 8.959,9.749 8.854,9.854C8.659,10.05 8.341,10.05 8.146,9.854L6.146,7.854C6.111,7.819 6.082,7.781 6.06,7.739L6.027,7.666L6.005,7.576L5.999,7.5L6.005,7.424L6.027,7.334L6.06,7.26C6.082,7.219 6.111,7.18 6.146,7.146L8.146,5.145C8.341,4.95 8.659,4.95 8.854,5.145C8.959,5.25 9.008,5.391 9,5.528L9,6.999C9,6.999 15.35,7 17.5,7C17.776,7 18,7.224 18,7.5C18,7.776 17.776,8 17.5,8C15.35,8 9,8.001 9,8.001L9,9.471Z"/>
            </g>
        </g>
    </g>
</svg>
