<?xml version="1.0" encoding="UTF-8" standalone="no"?>
<!DOCTYPE svg PUBLIC "-//W3C//DTD SVG 1.1//EN" "http://www.w3.org/Graphics/SVG/1.1/DTD/svg11.dtd">
<svg width="100%" height="100%" viewBox="0 0 16 16" version="1.1" xmlns="http://www.w3.org/2000/svg" xmlns:xlink="http://www.w3.org/1999/xlink" xml:space="preserve" xmlns:serif="http://www.serif.com/" style="fill-rule:evenodd;clip-rule:evenodd;stroke-linejoin:round;stroke-miterlimit:2;">
    <g id="fill_empty_cells">
        <rect id="fill_empty_cells1" serif:id="fill_empty_cells" x="-0" y="0" width="16" height="16" style="fill:#878787;fill-opacity:0;"/>
        <rect x="1" y="1" width="7" height="4"/>
        <path d="M8,6l-7,0l-0,4l7,0l0,-4Zm-6,1l-0,2l5,0l0,-2l-5,0Z"/>
        <rect x="2" y="7" width="5" height="2" style="fill-opacity:0.2;"/>
        <rect x="2" y="12" width="5" height="2" style="fill-opacity:0.2;"/>
        <path d="M8,11l-7,0l-0,4l7,0l0,-4Zm-6,1l-0,2l5,0l0,-2l-5,0Z"/>
        <path id="cell_down_arrow" d="M13,11.028c-0,0 -0.001,-6.732 -0.001,-8.558c0,-0.252 -0.2,-0.459 -0.452,-0.468c-0.021,-0 -0.041,-0.001 -0.062,-0.002c-0.127,-0.004 -0.251,0.043 -0.342,0.131c-0.091,0.089 -0.143,0.21 -0.143,0.337c-0,1.877 -0,8.56 -0,8.56l-3,0l3.5,3.5l3.5,-3.5l-3,0Z"/>
    </g>
</svg>
