<?xml version="1.0" encoding="UTF-8" standalone="no"?>
<!DOCTYPE svg PUBLIC "-//W3C//DTD SVG 1.1//EN" "http://www.w3.org/Graphics/SVG/1.1/DTD/svg11.dtd">
<svg width="16px" height="16px" version="1.1" xmlns="http://www.w3.org/2000/svg" xmlns:xlink="http://www.w3.org/1999/xlink" xml:space="preserve" xmlns:serif="http://www.serif.com/" style="fill-rule:evenodd;clip-rule:evenodd;stroke-linejoin:round;stroke-miterlimit:2;">
    <g transform="matrix(1,0,0,1,-10,-430)">
        <g id="fill_auto">
            <g id="bg" transform="matrix(0.110345,0,0,0.121212,-6.22069,411.091)">
                <rect x="147" y="156" width="145" height="132" style="fill:rgb(135,135,135);fill-opacity:0;"/>
            </g>
            <path d="M24,431L11,431L11,445L24,445L24,431ZM17.5,433C17.582,433 17.664,433.02 17.74,433.062L17.742,433.062C17.788,433.088 17.83,433.121 17.867,433.161L17.868,433.162C17.892,433.187 17.912,433.215 17.93,433.244L23.116,442.227C23.254,442.466 23.172,442.772 22.933,442.91C22.694,443.048 22.388,442.966 22.25,442.727L20.66,439.974C20.61,439.991 20.556,440 20.5,440L14.5,440C14.444,440 14.39,439.991 14.34,439.974L12.75,442.727C12.612,442.966 12.306,443.048 12.067,442.91C11.828,442.772 11.746,442.466 11.884,442.227L17.07,433.244C17.088,433.215 17.108,433.187 17.132,433.162L17.133,433.161C17.17,433.121 17.212,433.088 17.258,433.062L17.26,433.062C17.336,433.02 17.418,433 17.5,433ZM17.5,434.5L14.902,439L20.098,439L17.5,434.5Z"/>
        </g>
    </g>
</svg>
