<?xml version="1.0" encoding="UTF-8" standalone="no"?>
<!DOCTYPE svg PUBLIC "-//W3C//DTD SVG 1.1//EN" "http://www.w3.org/Graphics/SVG/1.1/DTD/svg11.dtd">
<svg width="16px" height="16px" version="1.1" xmlns="http://www.w3.org/2000/svg" xmlns:xlink="http://www.w3.org/1999/xlink" xml:space="preserve" xmlns:serif="http://www.serif.com/" style="fill-rule:evenodd;clip-rule:evenodd;stroke-linejoin:round;stroke-miterlimit:2;">
    <g transform="matrix(1,0,0,1,-210,-510)">
        <g id="flipbook_link" transform="matrix(1,0,0,1,100,280)">
            <g id="bg" transform="matrix(0.110345,0,0,0.121212,93.7793,211.091)">
                <rect x="147" y="156" width="145" height="132" style="fill:rgb(135,135,135);fill-opacity:0;"/>
            </g>
            <g transform="matrix(0.496298,-0.496298,0.496298,0.496298,112.552,241.444)">
                <path d="M2.925,9C2.925,7.717 3.968,6.675 5.25,6.675L8.25,6.675L8.25,5.25L5.25,5.25C3.18,5.25 1.5,6.93 1.5,9C1.5,11.07 3.18,12.75 5.25,12.75L8.25,12.75L8.25,11.325L5.25,11.325C3.968,11.325 2.925,10.282 2.925,9ZM6,9.75L12,9.75L12,8.25L6,8.25L6,9.75ZM12.75,5.25L9.75,5.25L9.75,6.675L12.75,6.675C14.033,6.675 15.075,7.718 15.075,9C15.075,10.282 14.033,11.325 12.75,11.325L9.75,11.325L9.75,12.75L12.75,12.75C14.82,12.75 16.5,11.07 16.5,9C16.5,6.93 14.82,5.25 12.75,5.25Z" style="fill-rule:nonzero;"/>
            </g>
            <g transform="matrix(1,0,0,1,-100,-280)">
                <path d="M215.805,523C215.779,523.334 215.796,523.67 215.856,524L210,524L210.75,523L215.805,523ZM216.563,521C216.329,521.31 216.149,521.647 216.021,522L210,522L210.75,521L216.563,521ZM218.526,519C218.484,519.032 218.443,519.068 218.404,519.107L217.511,520L210,520L210.75,519L218.526,519ZM225.834,516.668C224.329,515.381 222.061,515.45 220.637,516.874L219.462,518.049L210,518.049L210,517C210,517 211.981,513.037 212.724,511.553C212.893,511.214 213.239,511 213.618,511C215.409,511 220.591,511 222.382,511C222.761,511 223.107,511.214 223.276,511.553C223.989,512.978 225.834,516.668 225.834,516.668Z"/>
            </g>
        </g>
    </g>
</svg>
