<?xml version="1.0" encoding="UTF-8" standalone="no"?>
<!DOCTYPE svg PUBLIC "-//W3C//DTD SVG 1.1//EN" "http://www.w3.org/Graphics/SVG/1.1/DTD/svg11.dtd">
<svg width="16px" height="16px" version="1.1" xmlns="http://www.w3.org/2000/svg" xmlns:xlink="http://www.w3.org/1999/xlink" xml:space="preserve" xmlns:serif="http://www.serif.com/" style="fill-rule:evenodd;clip-rule:evenodd;stroke-linejoin:round;stroke-miterlimit:2;">
    <g transform="matrix(1,0,0,1,-210,-490)">
        <g id="flipbook" transform="matrix(1,0,0,1,100,260)">
            <g id="bg" transform="matrix(0.110345,0,0,0.121212,93.7793,211.091)">
                <rect x="147" y="156" width="145" height="132" style="fill:rgb(135,135,135);fill-opacity:0;"/>
            </g>
            <g transform="matrix(1,0,0,1,-100,-280)">
                <path d="M225.25,523L226,524L210,524L210.75,523L225.25,523ZM210.75,521L225.25,521L226,522L210,522L210.75,521ZM210.75,519L225.25,519L226,520L210,520L210.75,519ZM226,517L226,518.049L210,518.049L210,517C210,517 211.981,513.037 212.724,511.553C212.893,511.214 213.239,511 213.618,511C215.409,511 220.591,511 222.382,511C222.761,511 223.107,511.214 223.276,511.553C224.019,513.037 226,517 226,517Z"/>
            </g>
        </g>
    </g>
</svg>
