<?xml version="1.0" encoding="UTF-8" standalone="no"?>
<!DOCTYPE svg PUBLIC "-//W3C//DTD SVG 1.1//EN" "http://www.w3.org/Graphics/SVG/1.1/DTD/svg11.dtd">
<svg width="16px" height="16px" version="1.1" xmlns="http://www.w3.org/2000/svg" xmlns:xlink="http://www.w3.org/1999/xlink" xml:space="preserve" xmlns:serif="http://www.serif.com/" style="fill-rule:evenodd;clip-rule:evenodd;stroke-linejoin:round;stroke-miterlimit:2;">
    <g transform="matrix(1,0,0,1,-170,-130)">
        <g id="fliphoriz" transform="matrix(1,0,0,1,60,40)">
            <g id="bg" transform="matrix(0.110345,0,0,0.121212,93.7793,71.0909)">
                <rect x="147" y="156" width="145" height="132" style="fill:rgb(135,135,135);fill-opacity:0;"/>
            </g>
            <g transform="matrix(0.833335,0,0,0.923069,42,71.6925)">
                <path d="M84,35L90,35L90,22L84,35Z"/>
            </g>
            <g transform="matrix(1,0,0,1,107,87)">
                <path d="M16,17L11,17L11,5L16,17ZM14.5,16L12,16L12,10L14.5,16Z"/>
            </g>
        </g>
    </g>
</svg>
