<?xml version="1.0" encoding="UTF-8" standalone="no"?>
<!DOCTYPE svg PUBLIC "-//W3C//DTD SVG 1.1//EN" "http://www.w3.org/Graphics/SVG/1.1/DTD/svg11.dtd">
<svg width="16px" height="16px" version="1.1" xmlns="http://www.w3.org/2000/svg" xmlns:xlink="http://www.w3.org/1999/xlink" xml:space="preserve" xmlns:serif="http://www.serif.com/" style="fill-rule:evenodd;clip-rule:evenodd;stroke-linejoin:round;stroke-miterlimit:2;">
    <g transform="matrix(1,0,0,1,-30,-90)">
        <g id="function_editor">
            <g id="bg" transform="matrix(0.110345,0,0,0.121212,13.7793,71.0909)">
                <rect x="147" y="156" width="145" height="132" style="fill:rgb(135,135,135);fill-opacity:0;"/>
            </g>
            <path d="M32.5,101C32.776,101 33,101.224 33,101.5C33,101.776 32.776,102 32.5,102L30.5,102C30.224,102 30,101.776 30,101.5C30,101.224 30.224,101 30.5,101L32.5,101ZM36.5,101C36.776,101 37,101.224 37,101.5C37,101.776 36.776,102 36.5,102L34.5,102C34.224,102 34,101.776 34,101.5C34,101.224 34.224,101 34.5,101L36.5,101ZM40.5,101C40.776,101 41,101.224 41,101.5C41,101.776 40.776,102 40.5,102L38.5,102C38.224,102 38,101.776 38,101.5C38,101.224 38.224,101 38.5,101L40.5,101ZM44.5,101C44.776,101 45,101.224 45,101.5C45,101.776 44.776,102 44.5,102L42.5,102C42.224,102 42,101.776 42,101.5C42,101.224 42.224,101 42.5,101L44.5,101ZM32.5,94C32.776,94 33,94.224 33,94.5C33,94.776 32.776,95 32.5,95L30.5,95C30.224,95 30,94.776 30,94.5C30,94.224 30.224,94 30.5,94L32.5,94ZM36.5,94C36.776,94 37,94.224 37,94.5C37,94.776 36.776,95 36.5,95L34.5,95C34.224,95 34,94.776 34,94.5C34,94.224 34.224,94 34.5,94L36.5,94ZM40.5,94C40.776,94 41,94.224 41,94.5C41,94.776 40.776,95 40.5,95L38.5,95C38.224,95 38,94.776 38,94.5C38,94.224 38.224,94 38.5,94L40.5,94ZM44.5,94C44.776,94 45,94.224 45,94.5C45,94.776 44.776,95 44.5,95L42.5,95C42.224,95 42,94.776 42,94.5C42,94.224 42.224,94 42.5,94L44.5,94Z" style="fill-opacity:0.5;"/>
            <path d="M30,104.941L31,106L31.898,106C33.659,105.42 36.721,103.513 39.191,97.291C41.879,91.51 44.804,91.235 45.379,91.247C45.524,91.25 45.607,91.243 45.621,91.241C45.803,91.211 45.922,91.136 46,91.064L45,90.5L43.879,90C42.34,90.516 39.962,92.066 37.82,96.684C37.814,96.697 37.808,96.71 37.803,96.723C34.603,104.796 30.533,104.75 30.533,104.75C30.329,104.741 30.141,104.815 30,104.941Z"/>
            <path d="M46,91C46,90.448 45.552,90 45,90L31,90C30.448,90 30,90.448 30,91L30,105C30,105.552 30.448,106 31,106L45,106C45.552,106 46,105.552 46,105L46,91ZM45,91L31,91L31,105L45,105L45,91Z"/>
        </g>
    </g>
</svg>
