<?xml version="1.0" encoding="UTF-8" standalone="no"?>
<!DOCTYPE svg PUBLIC "-//W3C//DTD SVG 1.1//EN" "http://www.w3.org/Graphics/SVG/1.1/DTD/svg11.dtd">
<svg width="16px" height="16px" version="1.1" xmlns="http://www.w3.org/2000/svg" xmlns:xlink="http://www.w3.org/1999/xlink" xml:space="preserve" xmlns:serif="http://www.serif.com/" style="fill-rule:evenodd;clip-rule:evenodd;stroke-linejoin:round;stroke-miterlimit:2;">
    <g transform="matrix(1,0,0,1,-10,-190)">
        <g id="fx_logo">
            <g id="bg" transform="matrix(0.110345,0,0,0.121212,-6.22069,171.091)">
                <rect x="147" y="156" width="145" height="132" style="fill:rgb(135,135,135);fill-opacity:0;"/>
            </g>
            <g transform="matrix(1,0,0,1,0,0.1367)">
                <path d="M24.753,202.053C24.743,202.038 24.735,202.022 24.729,202.005C24.705,201.934 24.73,201.856 24.79,201.812C24.546,201.992 24.272,202.201 23.783,202.201C23.202,202.201 22.651,201.973 22.31,201.583C22.31,201.583 22.31,201.583 22.31,201.583C22.082,201.322 21.603,200.697 21.266,199.726C21.244,199.665 21.191,199.621 21.127,199.612C21.063,199.602 21,199.629 20.962,199.681C20.434,200.41 20.024,200.881 19.703,201.119C19.342,201.385 18.982,201.524 18.627,201.524C18.359,201.524 18.127,201.445 17.94,201.287C17.94,201.287 17.94,201.287 17.94,201.287C17.743,201.122 17.638,200.907 17.638,200.664C17.638,200.464 17.71,200.28 17.846,200.134C17.846,200.134 17.846,200.134 17.846,200.134C17.987,199.982 18.164,199.9 18.361,199.9C18.574,199.9 18.766,200.014 18.938,200.225C18.999,200.299 19.108,200.31 19.182,200.25C19.237,200.205 19.333,200.119 19.476,199.961C19.741,199.675 19.943,199.428 20.079,199.229L20.813,198.146C20.84,198.106 20.849,198.056 20.838,198.009L20.478,196.462C20.46,196.385 20.392,196.329 20.312,196.328L16.963,196.271C16.882,196.27 16.811,196.325 16.792,196.403L15.81,200.405C15.466,201.776 14.903,202.839 14.131,203.561C13.349,204.291 12.482,204.664 11.55,204.664C11.205,204.664 10.926,204.592 10.722,204.438C10.444,204.228 10.383,203.971 10.383,203.791C10.383,203.566 10.475,203.365 10.644,203.226C10.644,203.226 10.644,203.226 10.644,203.226C10.803,203.095 11.014,203.033 11.27,203.033C11.382,203.033 11.532,203.045 11.729,203.07C12.036,203.109 12.332,203.129 12.609,203.129C12.871,203.129 13.213,203.075 13.382,202.9C13.382,202.9 13.382,202.9 13.382,202.9C13.437,202.843 13.649,202.578 13.923,201.48L15.165,196.486C15.178,196.434 15.166,196.379 15.133,196.337C15.1,196.295 15.05,196.271 14.997,196.271L13.584,196.271C13.584,196.271 13.856,195.2 13.856,195.2C13.856,195.2 15.351,195.2 15.351,195.2C15.43,195.2 15.499,195.146 15.519,195.07C15.774,194.075 16.059,193.328 16.39,192.798C16.39,192.798 16.39,192.798 16.39,192.798C16.76,192.204 17.249,191.728 17.844,191.384C18.439,191.04 19.016,190.863 19.562,190.863C19.899,190.863 20.171,190.935 20.369,191.088C20.635,191.295 20.694,191.539 20.694,191.709C20.694,191.925 20.613,192.117 20.46,192.263C20.309,192.407 20.108,192.481 19.881,192.481C19.762,192.481 19.532,192.464 18.917,192.331C18.916,192.33 18.916,192.33 18.915,192.33C18.666,192.279 18.533,192.269 18.466,192.269C18.364,192.269 18.263,192.309 18.17,192.38C18.064,192.461 17.969,192.582 17.897,192.692C17.897,192.692 17.897,192.692 17.897,192.692C17.678,193.029 17.494,193.503 17.356,194.104C17.356,194.103 17.148,194.987 17.148,194.987C17.135,195.039 17.148,195.094 17.182,195.136C17.215,195.177 17.267,195.201 17.32,195.2L21.019,195.113C21.018,195.113 21.016,195.113 21.015,195.113L21.145,195.111C21.24,195.111 21.529,195.106 21.705,195.397C21.705,195.397 21.705,195.397 21.705,195.397C21.773,195.509 21.863,195.695 21.97,196.095C21.987,196.158 22.038,196.206 22.101,196.219C22.165,196.233 22.231,196.209 22.272,196.159C22.611,195.739 22.925,195.425 23.222,195.209C23.703,194.86 24.112,194.682 24.48,194.682C24.702,194.682 24.898,194.754 25.044,194.894C25.044,194.894 25.044,194.894 25.044,194.894C25.193,195.036 25.271,195.221 25.271,195.429C25.271,195.664 25.16,195.872 24.959,196.017C24.823,196.112 24.618,196.172 24.062,196.21C23.786,196.225 23.555,196.313 23.353,196.478C23.353,196.478 23.353,196.478 23.353,196.478C23.018,196.755 22.681,197.162 22.355,197.691C22.331,197.729 22.323,197.775 22.333,197.819L22.731,199.68C22.851,200.258 23.147,200.706 23.359,200.929C23.486,201.061 23.604,201.118 23.66,201.124C23.759,201.134 23.828,201.101 23.885,201.023C23.917,200.98 23.945,200.903 23.986,200.793C23.986,200.793 23.986,200.793 23.986,200.793C24.165,200.313 24.527,200.254 24.677,200.254C24.852,200.254 25.01,200.327 25.133,200.462C25.133,200.462 25.133,200.462 25.133,200.462C25.251,200.592 25.312,200.758 25.312,200.944C25.312,201.168 25.22,201.494 24.814,201.794L24.791,201.811L24.792,201.813C24.748,201.859 24.732,201.926 24.753,201.987C24.758,202.005 24.767,202.021 24.777,202.035L24.753,202.053ZM21.014,194.939L20.842,194.943C20.844,195.037 20.921,195.113 21.015,195.113L21.014,194.939Z" style="fill-rule:nonzero;"/>
            </g>
        </g>
    </g>
</svg>
