<?xml version="1.0" encoding="UTF-8" standalone="no"?>
<!DOCTYPE svg PUBLIC "-//W3C//DTD SVG 1.1//EN" "http://www.w3.org/Graphics/SVG/1.1/DTD/svg11.dtd">
<svg width="100%" height="100%" viewBox="0 0 16 16" version="1.1" xmlns="http://www.w3.org/2000/svg" xmlns:xlink="http://www.w3.org/1999/xlink" xml:space="preserve" xmlns:serif="http://www.serif.com/" style="fill-rule:evenodd;clip-rule:evenodd;stroke-linejoin:round;stroke-miterlimit:2;">
    <g id="fx_settings">
        <rect id="bg" x="-0" y="0" width="16" height="16" style="fill:#878787;fill-opacity:0;"/>
        <path d="M6.5,1l1.63,3.845c0.003,0.006 0.006,0.011 0.01,0.015c0.004,0.004 0.009,0.007 0.015,0.01l3.845,1.63l-3.845,1.63c-0.006,0.003 -0.011,0.006 -0.015,0.01c-0.004,0.004 -0.007,0.009 -0.01,0.015l-1.63,3.845l-1.63,-3.845c-0.003,-0.006 -0.006,-0.011 -0.01,-0.015c-0.004,-0.004 -0.009,-0.007 -0.015,-0.01l-3.845,-1.63l3.845,-1.63c0.006,-0.003 0.011,-0.006 0.015,-0.01c0.004,-0.004 0.007,-0.009 0.01,-0.015l1.63,-3.845Z"/>
        <path d="M11.5,8l0.5,2.801c0.009,0.049 0.033,0.095 0.068,0.131c0.036,0.035 0.082,0.059 0.131,0.068l2.801,0.5l-2.801,0.5c-0.049,0.009 -0.095,0.033 -0.131,0.068c-0.035,0.036 -0.059,0.082 -0.068,0.131l-0.5,2.801l-0.5,-2.801c-0.009,-0.049 -0.033,-0.095 -0.068,-0.131c-0.036,-0.035 -0.082,-0.059 -0.131,-0.068l-2.801,-0.5l2.801,-0.5c0.049,-0.009 0.095,-0.033 0.131,-0.068c0.035,-0.036 0.059,-0.082 0.068,-0.131l0.5,-2.801Z"/>
        <path d="M3.5,10l0.478,1.969c0.003,0.013 0.009,0.025 0.019,0.034c0.009,0.01 0.021,0.016 0.034,0.019l1.969,0.478l-1.969,0.478c-0.013,0.003 -0.025,0.009 -0.034,0.019c-0.01,0.009 -0.016,0.021 -0.019,0.034l-0.478,1.969l-0.478,-1.969c-0.003,-0.013 -0.009,-0.025 -0.019,-0.034c-0.009,-0.01 -0.021,-0.016 -0.034,-0.019l-1.969,-0.478l1.969,-0.478c0.013,-0.003 0.025,-0.009 0.034,-0.019c0.01,-0.009 0.016,-0.021 0.019,-0.034l0.478,-1.969Z"/>
    </g>
</svg>
