<?xml version="1.0" encoding="UTF-8" standalone="no"?>
<!DOCTYPE svg PUBLIC "-//W3C//DTD SVG 1.1//EN" "http://www.w3.org/Graphics/SVG/1.1/DTD/svg11.dtd">
<svg width="16px" height="16px" version="1.1" xmlns="http://www.w3.org/2000/svg" xmlns:xlink="http://www.w3.org/1999/xlink" xml:space="preserve" xmlns:serif="http://www.serif.com/" style="fill-rule:evenodd;clip-rule:evenodd;stroke-linejoin:round;stroke-miterlimit:2;">
    <g transform="matrix(1,0,0,1,-10,-210)">
        <g id="fx_settings" transform="matrix(1,0,0,1,6,2.97636)">
            <g id="bg" transform="matrix(0.110345,0,0,0.121212,-12.2207,188.115)">
                <rect x="147" y="156" width="145" height="132" style="fill:rgb(135,135,135);fill-opacity:0;"/>
            </g>
            <g transform="matrix(1,0,0,1,-66.0001,-302.977)">
                <g id="cog_bg" transform="matrix(0.826922,0,0,0.758004,13.2308,125.016)">
                    <rect x="77" y="517" width="11" height="12" style="fill:rgb(163,97,97);fill-opacity:0;"/>
                </g>
                <path id="cog" d="M82.547,518.143C82.649,518.458 82.703,518.783 82.711,519.115C82.712,519.161 82.742,519.2 82.786,519.213C83.005,519.275 83.217,519.362 83.415,519.473C83.455,519.495 83.505,519.489 83.538,519.458C83.778,519.228 84.046,519.037 84.34,518.886C84.634,519.106 84.894,519.366 85.115,519.659C84.963,519.955 84.772,520.222 84.543,520.463C84.511,520.496 84.505,520.545 84.527,520.585C84.638,520.784 84.726,520.995 84.788,521.214C84.8,521.258 84.84,521.289 84.885,521.29C85.218,521.297 85.542,521.352 85.858,521.453C85.909,521.816 85.909,522.185 85.858,522.547C85.542,522.649 85.218,522.703 84.885,522.711C84.84,522.712 84.8,522.742 84.788,522.786C84.726,523.005 84.638,523.217 84.527,523.415C84.505,523.455 84.511,523.505 84.543,523.538C84.772,523.778 84.963,524.046 85.115,524.341C84.894,524.634 84.634,524.894 84.341,525.115C84.046,524.963 83.778,524.772 83.538,524.543C83.505,524.511 83.455,524.505 83.415,524.527C83.217,524.638 83.005,524.726 82.786,524.788C82.742,524.8 82.712,524.84 82.711,524.885C82.703,525.218 82.649,525.542 82.547,525.858C82.185,525.909 81.816,525.909 81.453,525.858C81.351,525.542 81.297,525.218 81.29,524.885C81.289,524.84 81.258,524.8 81.214,524.788C80.995,524.726 80.784,524.638 80.585,524.527C80.545,524.505 80.496,524.511 80.463,524.543C80.222,524.772 79.955,524.963 79.66,525.115C79.366,524.894 79.106,524.634 78.886,524.341C79.037,524.046 79.228,523.778 79.458,523.538C79.489,523.505 79.495,523.455 79.473,523.415C79.362,523.217 79.274,523.005 79.213,522.786C79.2,522.742 79.161,522.712 79.115,522.711C78.783,522.703 78.458,522.649 78.143,522.547C78.091,522.185 78.091,521.816 78.142,521.453C78.458,521.352 78.783,521.297 79.115,521.29C79.161,521.289 79.2,521.258 79.213,521.214C79.274,520.995 79.362,520.784 79.473,520.585C79.495,520.545 79.489,520.496 79.458,520.463C79.228,520.222 79.037,519.955 78.886,519.66C79.106,519.366 79.366,519.106 79.659,518.886C79.955,519.037 80.222,519.228 80.463,519.458C80.496,519.489 80.545,519.495 80.585,519.473C80.784,519.362 80.995,519.275 81.214,519.213C81.258,519.2 81.289,519.161 81.29,519.115C81.297,518.783 81.351,518.458 81.453,518.143C81.816,518.091 82.184,518.091 82.547,518.143L82.547,518.143ZM82,520.444C81.142,520.444 80.444,521.142 80.444,522C80.444,522.859 81.142,523.556 82,523.556C82.859,523.556 83.556,522.859 83.556,522C83.556,521.142 82.859,520.444 82,520.444Z"/>
                <g transform="matrix(0.113444,0,0,0.113444,70.0001,509.602)">
                    <path d="M93.779,63.676C92.798,62.594 91.539,62.023 90.14,62.023C88.995,62.023 86.187,62.419 84.822,66.085C84.478,67.007 84.379,67.498 83.915,67.448C83.129,67.37 80.07,64.102 79.07,59.303L76.588,47.703C78.549,44.526 80.565,42.074 82.576,40.411C83.656,39.529 84.89,39.062 86.384,38.981C90.199,38.721 91.587,38.241 92.524,37.582C94.071,36.467 94.921,34.854 94.921,33.04C94.921,31.444 94.317,30.021 93.171,28.925C92.065,27.866 90.59,27.307 88.911,27.307C86.443,27.307 83.672,28.449 80.437,30.797C78.527,32.185 76.502,34.203 74.316,36.908C73.605,34.255 72.997,33.019 72.545,32.28C71.149,29.977 68.881,29.977 68.135,29.977L67.322,29.99L44.277,30.534L45.574,25.028C46.402,21.435 47.489,18.592 48.8,16.578C49.438,15.598 50.414,14.43 51.438,14.43C51.825,14.43 52.59,14.493 54.02,14.79C57.998,15.65 59.485,15.749 60.259,15.749C61.967,15.749 63.469,15.178 64.606,14.098C65.782,12.979 66.403,11.515 66.403,9.865C66.403,8.575 65.979,6.709 63.958,5.143C62.562,4.062 60.647,3.514 58.267,3.514C54.699,3.514 50.918,4.655 47.026,6.904C43.164,9.136 39.988,12.221 37.588,16.075C35.483,19.454 33.659,24.199 32.033,30.534L21.877,30.534L19.639,39.365L29.825,39.365L22.085,70.481C20.482,76.924 19.308,78.509 18.987,78.842C18.112,79.746 16.307,79.936 14.947,79.936C13.264,79.936 11.47,79.815 9.598,79.575C8.312,79.418 7.333,79.341 6.607,79.341C4.729,79.341 3.184,79.829 2.017,80.789C0.716,81.858 0,83.403 0,85.14C0,86.497 0.44,88.449 2.539,90.035C3.973,91.115 5.928,91.663 8.352,91.663C14.421,91.663 20.077,89.252 25.165,84.498C30.112,79.874 33.736,73.085 35.938,64.303L42.057,39.368L62.927,39.722L65.171,49.362L60.598,56.11C59.774,57.319 58.547,58.811 56.94,60.551C56.1,61.471 55.542,61.977 55.219,62.24C53.903,60.632 52.41,59.816 50.787,59.816C49.262,59.816 47.877,60.441 46.785,61.62C45.749,62.736 45.202,64.134 45.202,65.658C45.202,67.488 45.985,69.117 47.466,70.367C48.823,71.513 50.5,72.095 52.447,72.095C54.861,72.095 57.331,71.174 59.791,69.358C61.844,67.839 64.488,64.832 67.865,60.169C70.035,66.409 73.113,70.421 74.579,72.096C76.892,74.74 80.628,76.316 84.572,76.316C87.92,76.316 89.816,74.914 91.488,73.675L91.636,73.566C94.562,71.402 95.176,69.021 95.176,67.4C95.174,65.965 94.691,64.679 93.779,63.676Z" style="fill-rule:nonzero;"/>
                </g>
            </g>
        </g>
    </g>
</svg>
