<?xml version="1.0" encoding="UTF-8" standalone="no"?>
<!DOCTYPE svg PUBLIC "-//W3C//DTD SVG 1.1//EN" "http://www.w3.org/Graphics/SVG/1.1/DTD/svg11.dtd">
<svg width="16px" height="16px" version="1.1" xmlns="http://www.w3.org/2000/svg" xmlns:xlink="http://www.w3.org/1999/xlink" xml:space="preserve" xmlns:serif="http://www.serif.com/" style="fill-rule:evenodd;clip-rule:evenodd;stroke-linejoin:round;stroke-miterlimit:2;">
    <g transform="matrix(1,0,0,1,-190,-430)">
        <g id="gap_check" transform="matrix(1,0,0,1,140,-20)">
            <g id="bg" transform="matrix(0.110345,0,0,0.121212,33.7793,431.091)">
                <rect x="147" y="156" width="145" height="132" style="fill:rgb(135,135,135);fill-opacity:0;"/>
            </g>
            <g transform="matrix(1,0,0,1,47,447)">
                <path d="M4.464,9C4.189,9 3.964,9.224 3.964,9.5L3.964,9.512C3.964,9.788 4.189,10.012 4.464,10.012L6.5,10.012C6.776,10.012 7,9.788 7,9.512L7,9.5C7,9.224 6.776,9 6.5,9L4.464,9Z"/>
            </g>
            <g transform="matrix(1,0,0,1,47,447)">
                <path d="M6.463,5.718C6.271,5.52 5.954,5.516 5.756,5.709C5.559,5.901 5.554,6.218 5.747,6.416L7.142,7.849C7.334,8.047 7.651,8.051 7.849,7.858C8.047,7.666 8.051,7.349 7.858,7.151L6.463,5.718Z"/>
            </g>
            <g transform="matrix(1,0,0,1,47,447)">
                <path d="M10,4.5C10,4.224 9.776,4 9.5,4C9.224,4 9,4.224 9,4.5L9,6.5C9,6.776 9.224,7 9.5,7C9.776,7 10,6.776 10,6.5L10,4.5Z"/>
            </g>
            <g transform="matrix(1,0,0,1,-140,20)">
                <path d="M190,446L190,441.879L193.258,438.62C193.844,438.035 194.794,438.035 195.38,438.62C195.965,439.206 195.965,440.156 195.38,440.742L190.12,446L190,446ZM206,430.121L200.328,435.793C200.047,436.074 199.666,436.232 199.269,436.232C198.871,436.232 198.49,436.074 198.209,435.793L198.208,435.792C197.622,435.206 197.622,434.256 198.208,433.671L201.879,430L206,430L206,430.121Z"/>
            </g>
            <g transform="matrix(1,0,0,1,-1,-1)">
                <path d="M61.185,461.97L60.106,460.86C59.914,460.663 59.918,460.346 60.116,460.153C60.313,459.961 60.63,459.965 60.823,460.163L61.895,461.264L61.185,461.97ZM63.5,458C63.776,458 64,458.224 64,458.5L64,458.512C64,458.788 63.776,459.012 63.5,459.012L61.464,459.012C61.189,459.012 60.964,458.788 60.964,458.512L60.964,458.5C60.964,458.224 61.189,458 61.464,458L63.5,458Z"/>
            </g>
            <g transform="matrix(0.836128,0,0,0.836128,56.7573,458.602)">
                <path d="M4.447,7.401L10.033,1.845C10.268,1.611 10.648,1.612 10.881,1.847C11.115,2.082 11.114,2.462 10.879,2.695L4.867,8.675C4.754,8.788 4.601,8.851 4.442,8.85C4.283,8.849 4.13,8.786 4.018,8.672L0.462,5.084C0.229,4.849 0.23,4.469 0.466,4.236C0.701,4.003 1.081,4.004 1.314,4.24L4.447,7.401Z"/>
            </g>
        </g>
    </g>
</svg>
