<?xml version="1.0" encoding="UTF-8" standalone="no"?>
<!DOCTYPE svg PUBLIC "-//W3C//DTD SVG 1.1//EN" "http://www.w3.org/Graphics/SVG/1.1/DTD/svg11.dtd">
<svg width="100%" height="100%" viewBox="0 0 16 16" version="1.1" xmlns="http://www.w3.org/2000/svg" xmlns:xlink="http://www.w3.org/1999/xlink" xml:space="preserve" xmlns:serif="http://www.serif.com/" style="fill-rule:evenodd;clip-rule:evenodd;stroke-linejoin:round;stroke-miterlimit:2;">
    <g id="gap_check">
        <rect id="bg" x="0" y="0" width="16" height="16" style="fill:#878787;fill-opacity:0;"/>
        <path d="M2.464,7c-0.275,-0 -0.5,0.224 -0.5,0.5l0,0.012c0,0.276 0.225,0.5 0.5,0.5l2.036,-0c0.276,-0 0.5,-0.224 0.5,-0.5l0,-0.012c0,-0.276 -0.224,-0.5 -0.5,-0.5l-2.036,-0Z"/>
        <path d="M4.463,3.718c-0.192,-0.198 -0.509,-0.202 -0.707,-0.009c-0.197,0.192 -0.202,0.509 -0.009,0.707l1.395,1.433c0.192,0.198 0.509,0.202 0.707,0.009c0.198,-0.192 0.202,-0.509 0.009,-0.707l-1.395,-1.433Z"/>
        <path d="M10.858,10.156c-0.192,-0.198 -0.509,-0.202 -0.707,-0.009c-0.197,0.192 -0.202,0.509 -0.009,0.707l1.395,1.433c0.192,0.198 0.509,0.202 0.707,0.009c0.198,-0.192 0.202,-0.509 0.009,-0.707l-1.395,-1.433Z"/>
        <path d="M8,2.5c0,-0.276 -0.224,-0.5 -0.5,-0.5c-0.276,-0 -0.5,0.224 -0.5,0.5l0,2c0,0.276 0.224,0.5 0.5,0.5c0.276,-0 0.5,-0.224 0.5,-0.5l0,-2Z"/>
        <path d="M9,11.505c0,-0.276 -0.224,-0.5 -0.5,-0.5c-0.276,-0 -0.5,0.224 -0.5,0.5l0,2c0,0.276 0.224,0.5 0.5,0.5c0.276,-0 0.5,-0.224 0.5,-0.5l0,-2Z"/>
        <path d="M16,1.29c-0.163,0.155 -0.326,0.311 -0.49,0.466c-0.848,0.806 -1.689,1.624 -2.511,2.329c-0.688,0.592 -1.34,1.104 -1.926,1.531c-1.236,0.901 -2.073,1.384 -2.073,1.384c0,-0 0.483,-0.837 1.384,-2.073c0.427,-0.586 0.939,-1.238 1.531,-1.926c0.705,-0.822 1.523,-1.663 2.329,-2.511c0.155,-0.164 0.311,-0.327 0.466,-0.49l1.29,0l0,1.29Zm-14.71,14.71l-0.005,0.005l-1.285,-0l0,-1.295c0.163,-0.155 0.326,-0.311 0.49,-0.466c0.848,-0.806 1.689,-1.624 2.511,-2.329c0.688,-0.592 1.34,-1.104 1.926,-1.531c1.236,-0.901 2.073,-1.384 2.073,-1.384c0,-0 -0.483,0.837 -1.384,2.073c-0.427,0.586 -0.939,1.238 -1.531,1.926c-0.705,0.822 -1.523,1.663 -2.329,2.511c-0.155,0.164 -0.311,0.327 -0.466,0.49Z"/>
        <path d="M11.391,9c-0.223,-0.05 -0.391,-0.25 -0.391,-0.488l0,-0.012c0,-0.276 0.225,-0.5 0.5,-0.5l2.036,-0c0.276,0 0.5,0.224 0.5,0.5l0,0.012c0,0.276 -0.224,0.5 -0.5,0.5l-0.188,-0c-0.103,-0.008 -0.207,-0.012 -0.312,-0.012l-1.645,-0Z"/>
    </g>
</svg>
