<?xml version="1.0" encoding="UTF-8" standalone="no"?>
<!DOCTYPE svg PUBLIC "-//W3C//DTD SVG 1.1//EN" "http://www.w3.org/Graphics/SVG/1.1/DTD/svg11.dtd">
<svg width="100%" height="100%" viewBox="0 0 16 16" version="1.1" xmlns="http://www.w3.org/2000/svg" xmlns:xlink="http://www.w3.org/1999/xlink" xml:space="preserve" xmlns:serif="http://www.serif.com/" style="fill-rule:evenodd;clip-rule:evenodd;stroke-linecap:round;stroke-linejoin:round;stroke-miterlimit:1.5;">
    <g id="group">
        <rect id="bg" x="0" y="-0.001" width="16" height="16" style="fill:#878787;fill-opacity:0;"/>
        <path d="M16,0.999l0,1c0,0.553 -0.448,1 -1,1l-1,0c-0.552,0 -1,-0.447 -1,-1l0,-1c0,-0.552 0.448,-1 1,-1l1,0c0.552,0 1,0.448 1,1Zm-1,0l-1,0l0,1l1,0l0,-1Z"/>
        <path d="M3,0.999l0,1c0,0.553 -0.448,1 -1,1l-1,0c-0.552,0 -1,-0.447 -1,-1l0,-1c0,-0.552 0.448,-1 1,-1l1,0c0.552,0 1,0.448 1,1Zm-1,0l-1,0l0,1l1,0l0,-1Z"/>
        <path d="M3,13.999l0,1c0,0.553 -0.448,1 -1,1l-1,0c-0.552,0 -1,-0.447 -1,-1l0,-1c0,-0.552 0.448,-1 1,-1l1,0c0.552,0 1,0.448 1,1Zm-1,0l-1,0l0,1l1,0l0,-1Z"/>
        <path d="M16,13.999l0,1c0,0.553 -0.448,1 -1,1l-1,0c-0.552,0 -1,-0.447 -1,-1l0,-1c0,-0.552 0.448,-1 1,-1l1,0c0.552,0 1,0.448 1,1Zm-1,0l-1,0l0,1l1,0l0,-1Z"/>
        <path d="M1,13.999l0,-12l1,0l0,12l-1,0Zm1,-13l12,0l0,1l-12,0l0,-1Zm13,1l0,12l-1,0l0,-12l1,0Zm-1,13l-12,0l0,-1l12,0l0,1Z"/>
        <rect x="3.5" y="3.499" width="5" height="5" style="stroke:#000;stroke-width:1px;"/>
        <rect x="7.5" y="7.499" width="5" height="5" style="fill-opacity:0.2;stroke:#000;stroke-width:1px;"/>
    </g>
</svg>
