<?xml version="1.0" encoding="UTF-8" standalone="no"?>
<!DOCTYPE svg PUBLIC "-//W3C//DTD SVG 1.1//EN" "http://www.w3.org/Graphics/SVG/1.1/DTD/svg11.dtd">
<svg width="16px" height="16px" version="1.1" xmlns="http://www.w3.org/2000/svg" xmlns:xlink="http://www.w3.org/1999/xlink" xml:space="preserve" xmlns:serif="http://www.serif.com/" style="fill-rule:evenodd;clip-rule:evenodd;stroke-linecap:round;stroke-linejoin:round;stroke-miterlimit:1.5;">
    <g transform="matrix(1,0,0,1,-10,-130)">
        <g id="group" transform="matrix(1,0,0,1,6.00004,125)">
            <g id="bg" transform="matrix(0.110345,0,0,0.121212,-12.2207,-13.9091)">
                <rect x="147" y="156" width="145" height="132" style="fill:rgb(135,135,135);fill-opacity:0;"/>
            </g>
            <g transform="matrix(0.714286,0,0,1,3.21428,2)">
                <rect x="6" y="6.5" width="7" height="5" style="stroke:black;stroke-width:1.15px;"/>
            </g>
            <g transform="matrix(1,0,0,1,3,4)">
                <path d="M10,8L13.5,8C13.776,8 14,8.224 14,8.5L14,13.5C14,13.776 13.776,14 13.5,14L8.5,14C8.224,14 8,13.776 8,13.5L8,10L9,9L9,13L13,13L13,9L10,9L10,8Z"/>
            </g>
            <g transform="matrix(0.571429,0,0,0.8,3.35714,3.5)">
                <rect x="2" y="2.5" width="3.5" height="2.5" style="fill:none;stroke:black;stroke-width:1.44px;"/>
            </g>
            <g transform="matrix(0.571429,0,0,0.8,16.3571,3.5)">
                <rect x="2" y="2.5" width="3.5" height="2.5" style="fill:none;stroke:black;stroke-width:1.44px;"/>
            </g>
            <g transform="matrix(0.571429,0,0,0.8,16.3571,16.5)">
                <rect x="2" y="2.5" width="3.5" height="2.5" style="fill:none;stroke:black;stroke-width:1.44px;"/>
            </g>
            <g transform="matrix(0.571429,0,0,0.8,3.35714,16.5)">
                <rect x="2" y="2.5" width="3.5" height="2.5" style="fill:none;stroke:black;stroke-width:1.44px;"/>
            </g>
            <g transform="matrix(1.1,0,0,1,0.5,4)">
                <rect x="5" y="15" width="10" height="1"/>
            </g>
            <g transform="matrix(1,0,0,1.1,3,1.5)">
                <rect x="15" y="5" width="1" height="10"/>
            </g>
            <g transform="matrix(1,0,0,1,1,2)">
                <path d="M16,5L5,5L5,16L4,16L4,5L5,5L5,4L16,4L16,5Z"/>
            </g>
        </g>
    </g>
</svg>
