<?xml version="1.0" encoding="UTF-8" standalone="no"?>
<!DOCTYPE svg PUBLIC "-//W3C//DTD SVG 1.1//EN" "http://www.w3.org/Graphics/SVG/1.1/DTD/svg11.dtd">
<svg width="16px" height="16px" version="1.1" xmlns="http://www.w3.org/2000/svg" xmlns:xlink="http://www.w3.org/1999/xlink" xml:space="preserve" xmlns:serif="http://www.serif.com/" style="fill-rule:evenodd;clip-rule:evenodd;stroke-linejoin:round;stroke-miterlimit:2;">
    <g transform="matrix(1,0,0,1,-210,-530)">
        <g id="guided_drawing" transform="matrix(1,0,0,1,180,180)">
            <g id="bg" transform="matrix(0.110345,0,0,0.121212,13.7793,331.091)">
                <rect x="147" y="156" width="145" height="132" style="fill:rgb(135,135,135);fill-opacity:0;"/>
            </g>
            <g transform="matrix(1.6,0,0,1.6,-251.6,78)">
                <path d="M183.5,170C184.88,170 186,171.12 186,172.5C186,173.88 184.88,175 183.5,175C182.12,175 181,173.88 181,172.5C181,171.12 182.12,170 183.5,170ZM183.5,170.625C184.535,170.625 185.375,171.465 185.375,172.5C185.375,173.535 184.535,174.375 183.5,174.375C182.465,174.375 181.625,173.535 181.625,172.5C181.625,171.465 182.465,170.625 183.5,170.625Z"/>
            </g>
            <g transform="matrix(1,0,0,1,-140,180)">
                <circle cx="182" cy="174" r="3" style="fill-opacity:0.2;"/>
            </g>
            <g transform="matrix(1,0,0,1,-140,180)">
                <path d="M182,172.605C182,172.835 181.853,173.039 181.635,173.114C181.36,173.181 181.154,173.396 181.058,173.663C181.005,173.844 180.839,173.968 180.65,173.968C180.362,174 180,174 180,174C180,173.095 180.603,172.329 181.428,172.083C181.56,172.052 181.699,172.082 181.805,172.166C181.911,172.25 181.973,172.378 181.973,172.514C182,172.544 182,172.575 182,172.605Z"/>
            </g>
            <g transform="matrix(1,0,0,1,-140,180)">
                <path d="M171.716,178.716C171.265,179.364 171,180.151 171,181C171,183.208 172.792,185 175,185C175.849,185 176.636,184.735 177.284,184.284C176.561,185.321 175.359,186 174,186C171.792,186 170,184.208 170,182C170,180.641 170.679,179.439 171.716,178.716Z" style="fill-opacity:0.2;"/>
            </g>
            <g transform="matrix(1,0,0,1,-140,180)">
                <path d="M173.716,176.716C173.265,177.364 173,178.151 173,179C173,181.208 174.792,183 177,183C177.849,183 178.636,182.735 179.284,182.284C178.561,183.321 177.359,184 176,184C173.792,184 172,182.208 172,180C172,178.641 172.679,177.439 173.716,176.716Z" style="fill-opacity:0.4;"/>
            </g>
            <g transform="matrix(1,0,0,1,-140,180)">
                <path d="M175.716,174.716C175.265,175.364 175,176.151 175,177C175,179.208 176.792,181 179,181C179.849,181 180.636,180.735 181.284,180.284C180.561,181.321 179.359,182 178,182C175.792,182 174,180.208 174,178C174,176.641 174.679,175.439 175.716,174.716Z" style="fill-opacity:0.65;"/>
            </g>
            <g transform="matrix(1,0,0,1,-140,180)">
                <path d="M177.716,172.716C177.265,173.364 177,174.151 177,175C177,177.208 178.792,179 181,179C181.849,179 182.636,178.735 183.284,178.284C182.561,179.321 181.359,180 180,180C177.792,180 176,178.208 176,176C176,174.641 176.679,173.439 177.716,172.716Z"/>
            </g>
        </g>
    </g>
</svg>
