<?xml version="1.0" encoding="UTF-8" standalone="no"?>
<!DOCTYPE svg PUBLIC "-//W3C//DTD SVG 1.1//EN" "http://www.w3.org/Graphics/SVG/1.1/DTD/svg11.dtd">
<svg width="16px" height="16px" version="1.1" xmlns="http://www.w3.org/2000/svg" xmlns:xlink="http://www.w3.org/1999/xlink" xml:space="preserve" xmlns:serif="http://www.serif.com/" style="fill-rule:evenodd;clip-rule:evenodd;stroke-linejoin:round;stroke-miterlimit:2;">
    <g transform="matrix(1,0,0,1,-2,-2)">
        <rect x="0" y="0" width="20" height="20" style="fill-opacity:0;"/>
    </g>
    <g transform="matrix(1,0,0,1,-2,-2)">
        <path d="M10,2C14.415,2 18,5.585 18,10C18,14.415 14.415,18 10,18C5.585,18 2,14.415 2,10C2,5.585 5.585,2 10,2ZM9.883,13.398C10.128,13.398 10.365,13.466 10.594,13.602C11.042,13.872 11.266,14.268 11.266,14.789C11.266,15.143 11.148,15.453 10.914,15.719C10.638,16.026 10.289,16.18 9.867,16.18C9.638,16.18 9.424,16.125 9.227,16.016C8.732,15.755 8.484,15.344 8.484,14.781C8.484,14.375 8.63,14.039 8.922,13.773C9.193,13.523 9.513,13.398 9.883,13.398ZM10.156,4C11.318,4 12.286,4.221 13.063,4.664C14.021,5.216 14.5,6.005 14.5,7.031C14.5,7.693 14.289,8.253 13.867,8.711C13.607,9.003 13.201,9.315 12.648,9.648C12.018,10.034 11.557,10.404 11.266,10.758C11.021,11.049 10.896,11.401 10.891,11.813C10.885,12.042 10.786,12.227 10.594,12.367C10.417,12.487 10.201,12.547 9.945,12.547C9.654,12.547 9.417,12.461 9.234,12.289C9.057,12.128 8.969,11.898 8.969,11.602C8.969,11.06 9.102,10.586 9.367,10.18C9.695,9.69 10.234,9.177 10.984,8.641C11.667,8.151 12.008,7.643 12.008,7.117C12.008,6.711 11.823,6.385 11.453,6.141C11.099,5.906 10.651,5.789 10.109,5.789C9.255,5.789 8.523,6.211 7.914,7.055C7.674,7.388 7.362,7.555 6.977,7.555C6.732,7.555 6.51,7.484 6.313,7.344C6.057,7.167 5.93,6.917 5.93,6.594C5.93,6.109 6.211,5.62 6.773,5.125C7.628,4.375 8.755,4 10.156,4Z"/>
    </g>
</svg>
