<?xml version="1.0" encoding="UTF-8" standalone="no"?>
<!DOCTYPE svg PUBLIC "-//W3C//DTD SVG 1.1//EN" "http://www.w3.org/Graphics/SVG/1.1/DTD/svg11.dtd">
<svg width="16px" height="16px" version="1.1" xmlns="http://www.w3.org/2000/svg" xmlns:xlink="http://www.w3.org/1999/xlink" xml:space="preserve" xmlns:serif="http://www.serif.com/" style="fill-rule:evenodd;clip-rule:evenodd;stroke-linecap:round;stroke-linejoin:round;stroke-miterlimit:1.5;">
    <g>
        <rect x="0" y="0" width="16" height="16" style="fill-opacity:0;"/>
    </g>
    <g transform="matrix(1,0,0,1,-2,-2)">
        <path d="M9.5,6.5L9.5,10.5" style="fill:none;stroke:black;stroke-width:1px;"/>
    </g>
    <g transform="matrix(1,0,0,1,-2,-2)">
        <path d="M9.5,10.5L12.5,13.5" style="fill:none;stroke:black;stroke-width:1.2px;"/>
    </g>
    <g transform="matrix(1,0,0,1,-2,-2)">
        <circle cx="10" cy="10" r="8" style="fill-opacity:0;"/>
    </g>
    <g transform="matrix(0.987654,0,0,0.987654,0.0996358,0.0987654)">
        <path d="M1.687,5.212C2.759,2.791 5.184,1.1 8,1.1C11.808,1.1 14.9,4.192 14.9,8C14.9,11.808 11.808,14.9 8,14.9C4.7,14.9 1.937,12.578 1.259,9.479C1.249,9.433 1.208,9.4 1.161,9.4L0.141,9.4C0.111,9.4 0.083,9.413 0.064,9.436C0.045,9.459 0.037,9.489 0.043,9.519C0.755,13.264 4.048,16.1 8,16.1C12.47,16.1 16.1,12.47 16.1,8C16.1,3.53 12.47,-0.1 8,-0.1C4.603,-0.1 1.692,1.995 0.489,4.962C0.446,5.069 0.475,5.163 0.557,5.241C0.617,5.296 0.711,5.343 0.821,5.374C1.036,5.433 1.314,5.437 1.489,5.375C1.588,5.339 1.656,5.282 1.687,5.213L1.687,5.212Z" style="fill:black;"/>
    </g>
    <g transform="matrix(1,0,0,1,-2,-2)">
        <path d="M2.5,4L2.526,4.001C2.599,4.004 2.669,4.024 2.731,4.056C2.768,4.076 2.804,4.101 2.837,4.131L2.854,4.146L5.854,7.146C5.901,7.194 5.938,7.25 5.962,7.309C5.986,7.368 6,7.432 6,7.5C6,7.568 5.986,7.632 5.962,7.691C5.938,7.75 5.901,7.806 5.854,7.854C5.806,7.901 5.75,7.938 5.691,7.962C5.632,7.986 5.568,8 5.5,8L2.5,8C2.224,8 2,7.776 2,7.5L2,4.5C2,4.415 2.021,4.334 2.059,4.264C2.077,4.23 2.099,4.198 2.126,4.168L2.142,4.151L2.16,4.133L2.168,4.126C2.198,4.099 2.23,4.077 2.264,4.059C2.334,4.021 2.415,4 2.5,4Z" style="fill:black;"/>
    </g>
</svg>
