<?xml version="1.0" encoding="UTF-8" standalone="no"?>
<svg
   xmlns:dc="http://purl.org/dc/elements/1.1/"
   xmlns:cc="http://creativecommons.org/ns#"
   xmlns:rdf="http://www.w3.org/1999/02/22-rdf-syntax-ns#"
   xmlns:svg="http://www.w3.org/2000/svg"
   xmlns="http://www.w3.org/2000/svg"
   xmlns:sodipodi="http://sodipodi.sourceforge.net/DTD/sodipodi-0.dtd"
   xmlns:inkscape="http://www.inkscape.org/namespaces/inkscape"
   width="16px"
   height="16px"
   version="1.1"
   xml:space="preserve"
   style="fill-rule:evenodd;clip-rule:evenodd;stroke-linejoin:round;stroke-miterlimit:2;"
   id="svg20"
   sodipodi:docname="implicit_hold.svg"
   inkscape:version="0.92.4 (5da689c313, 2019-01-14)"><metadata
   id="metadata26"><rdf:RDF><cc:Work
       rdf:about=""><dc:format>image/svg+xml</dc:format><dc:type
         rdf:resource="http://purl.org/dc/dcmitype/StillImage" /></cc:Work></rdf:RDF></metadata><defs
   id="defs24" /><sodipodi:namedview
   pagecolor="#ffffff"
   bordercolor="#666666"
   borderopacity="1"
   objecttolerance="10"
   gridtolerance="10"
   guidetolerance="10"
   inkscape:pageopacity="0"
   inkscape:pageshadow="2"
   inkscape:window-width="1920"
   inkscape:window-height="1013"
   id="namedview22"
   showgrid="true"
   inkscape:zoom="51.250051"
   inkscape:cx="8.0000125"
   inkscape:cy="7.999996"
   inkscape:window-x="-9"
   inkscape:window-y="-9"
   inkscape:window-maximized="1"
   inkscape:current-layer="new_vector_level"
   showguides="false"><inkscape:grid
     type="xygrid"
     id="grid833" /></sodipodi:namedview>
    <g
   transform="matrix(1,0,0,1,-170,-210)"
   id="g18">
        <g
   id="new_vector_level"
   transform="matrix(1,0,0,1,60,-20)">
            
            
            
        <g
   style="clip-rule:evenodd;fill-rule:evenodd;stroke-linejoin:round;stroke-miterlimit:2"
   transform="matrix(-0.110345,0,0,0.121212,142.22074,211.09094)"
   id="bg-1"><rect
     id="rect2-3"
     style="fill:#878787;fill-opacity:0"
     height="132"
     width="145"
     y="156"
     x="147" /></g><g
   transform="translate(109.99996,229.99997)"
   style="clip-rule:evenodd;fill-rule:evenodd;stroke-linejoin:round;stroke-miterlimit:2"
   id="g4549"><path
     inkscape:connector-curvature="0"
     d="M 143.025,25 C 144.116,25 145,24.116 145,23.025 V 12.984 c 0,-0.527 -0.209,-1.031 -0.581,-1.403 C 144.047,11.209 143.543,11 143.016,11 c -2.663,0 -7.369,0 -10.032,0 -0.527,0 -1.031,0.209 -1.403,0.581 -0.372,0.372 -0.581,0.876 -0.581,1.403 v 10.032 c 0,0.527 0.209,1.031 0.581,1.403 0.372,0.372 0.876,0.581 1.403,0.581 2.666,0 7.378,0 10.041,0 z m 0.014,-1 C 143.57,24 144,23.57 144,23.039 V 13.017 c 0,-0.269 -0.107,-0.528 -0.298,-0.719 C 143.511,12.107 143.252,12 142.983,12 h -9.966 c -0.269,0 -0.528,0.107 -0.719,0.298 -0.191,0.191 -0.298,0.45 -0.298,0.719 v 9.966 c 0,0.269 0.107,0.528 0.298,0.719 0.191,0.191 0.45,0.298 0.719,0.298 z M 136,13.5 c 0,-0.133 -0.053,-0.26 -0.146,-0.354 C 135.76,13.053 135.633,13 135.5,13 c -0.555,0 -1.445,0 -2,0 -0.133,0 -0.26,0.053 -0.354,0.146 C 133.053,13.24 133,13.367 133,13.5 c 0,0.133 0.053,0.26 0.146,0.354 0.094,0.093 0.221,0.146 0.354,0.146 0.555,0 1.445,0 2,0 0.133,0 0.26,-0.053 0.354,-0.146 C 135.947,13.76 136,13.633 136,13.5 Z m 3,0 c 0,-0.133 -0.053,-0.26 -0.146,-0.354 C 138.76,13.053 138.633,13 138.5,13 c -0.305,0 -0.695,0 -1,0 -0.133,0 -0.26,0.053 -0.354,0.146 C 137.053,13.24 137,13.367 137,13.5 c 0,0.133 0.053,0.26 0.146,0.354 0.094,0.093 0.221,0.146 0.354,0.146 0.305,0 0.695,0 1,0 0.133,0 0.26,-0.053 0.354,-0.146 C 138.947,13.76 139,13.633 139,13.5 Z m 4,0 c 0,-0.133 -0.053,-0.26 -0.146,-0.354 C 142.76,13.053 142.633,13 142.5,13 c -0.555,0 -1.445,0 -2,0 -0.133,0 -0.26,0.053 -0.354,0.146 C 140.053,13.24 140,13.367 140,13.5 c 0,0.133 0.053,0.26 0.146,0.354 0.094,0.093 0.221,0.146 0.354,0.146 0.555,0 1.445,0 2,0 0.133,0 0.26,-0.053 0.354,-0.146 C 142.947,13.76 143,13.633 143,13.5 Z"
     id="path5-1"
     style="clip-rule:evenodd;fill-rule:evenodd;stroke-linejoin:round;stroke-miterlimit:2"
     transform="translate(-129.99996,-9.999966)" /><g
     transform="matrix(0.71689545,0,0,0.56820456,-90.925068,-1.2051139)"
     id="g7-2-9"
     style="clip-rule:evenodd;fill-rule:evenodd;stroke-linejoin:round;stroke-miterlimit:2"><path
       sodipodi:nodetypes="ssssssssssssssssssssssssccccccccccccccc"
       inkscape:connector-curvature="0"
       d="M 143.025,25 C 144.116,25 145,24.116 145,23.025 V 12.984 c 0,-0.527 -0.209,-1.031 -0.581,-1.403 C 144.047,11.209 143.543,11 143.016,11 h -10.032 c -0.527,0 -1.031,0.209 -1.403,0.581 -0.372,0.372 -0.581,0.876 -0.581,1.403 v 10.032 c 0,0.527 0.209,1.031 0.581,1.403 0.372,0.372 0.876,0.581 1.403,0.581 z m 0.014,-1 C 143.57,24 144,23.57 144,23.039 V 13.017 c 0,-0.269 -0.107,-0.528 -0.298,-0.719 C 143.511,12.107 143.252,12 142.983,12 h -9.966 c -0.269,0 -0.528,0.107 -0.719,0.298 -0.191,0.191 -0.298,0.45 -0.298,0.719 v 9.966 c 0,0.269 0.107,0.528 0.298,0.719 0.191,0.191 0.45,0.298 0.719,0.298 z m -6.83211,-11.319507 -3.41581,10e-7 v 1.75993 l 3.41965,-2e-6 z m 2.78822,0 h -2.01706 l -0.0135,1.759929 h 2.02473 z m 4.19839,10e-7 -3.4197,-10e-7 -0.006,1.759929 3.41008,2e-6 z"
       id="path5-1-8" /></g></g></g>
    </g>
</svg>