<?xml version="1.0" encoding="UTF-8" standalone="no"?>
<svg
   width="100%"
   height="100%"
   viewBox="0 0 16 16"
   version="1.1"
   xml:space="preserve"
   style="fill-rule:evenodd;clip-rule:evenodd;stroke-linejoin:round;stroke-miterlimit:2;"
   id="svg1244"
   sodipodi:docname="import_oca.svg"
   inkscape:version="1.1.2 (b8e25be833, 2022-02-05)"
   xmlns:inkscape="http://www.inkscape.org/namespaces/inkscape"
   xmlns:sodipodi="http://sodipodi.sourceforge.net/DTD/sodipodi-0.dtd"
   xmlns="http://www.w3.org/2000/svg"
   xmlns:svg="http://www.w3.org/2000/svg"><defs
   id="defs1248" /><sodipodi:namedview
   id="namedview1246"
   pagecolor="#ffffff"
   bordercolor="#666666"
   borderopacity="1.0"
   inkscape:pageshadow="2"
   inkscape:pageopacity="0.0"
   inkscape:pagecheckerboard="0"
   showgrid="true"
   inkscape:zoom="44.9375"
   inkscape:cx="7.8664812"
   inkscape:cy="8.5006954"
   inkscape:window-width="1920"
   inkscape:window-height="1141"
   inkscape:window-x="-7"
   inkscape:window-y="-7"
   inkscape:window-maximized="1"
   inkscape:current-layer="export_level"><inkscape:grid
     type="xygrid"
     id="grid823" /></sodipodi:namedview>
    <g
   id="export_level">
        <rect
   id="bg"
   x="0.001"
   y="-0.039999999"
   width="16"
   height="16"
   style="fill:#878787;fill-opacity:0" />
        <path
   id="load"
   d="m 11.486,7.028 c 2.476,0 4.486,2.01 4.486,4.486 C 15.972,13.99 13.962,16 11.486,16 9.01,16 7,13.99 7,11.514 7,9.038 9.01,7.028 11.486,7.028 Z m 0.106,7.984 c 0.099,-0.019 0.194,-0.068 0.269,-0.148 l 2.828,-2.938 c 0.189,-0.2 0.181,-0.517 -0.02,-0.706 -0.2,-0.19 -0.517,-0.181 -0.707,0.019 l -2.001,2.065 V 8.536 c 0,-0.276 -0.224,-0.5 -0.5,-0.5 -0.276,0 -0.5,0.224 -0.5,0.5 v 4.758 L 8.953,11.261 C 8.76,11.063 8.443,11.06 8.246,11.253 c -0.197,0.193 -0.2,0.51 -0.007,0.707 l 2.872,2.917 c 0.129,0.132 0.314,0.177 0.481,0.135 z" />
        
    <path
   id="text2824"
   style="font-weight:bold;font-size:7.53714px;line-height:1.25;font-family:'Segoe UI';-inkscape-font-specification:'Segoe UI Bold';stroke-width:0.403776"
   d="M 3.40625,1 C 2.6809205,1 2.0998175,1.2831901 1.6601562,1.8496094 1.220495,2.4160287 1,3.157159 1,4.0742188 1,4.9427283 1.2174247,5.6492621 1.6503906,6.1914062 2.0833566,6.7308532 2.6426889,7 3.3300781,7 4.0353216,7 4.6074924,6.720437 5.0449219,6.1621094 5.4845832,5.6037818 5.703125,4.8686966 5.703125,3.9570312 5.703125,3.069641 5.4923982,2.3546442 5.0683594,1.8125 4.6465524,1.2703558 4.0914074,1 3.40625,1 Z M 8.7558594,1 C 7.9992849,1 7.3835729,1.2880261 6.9082031,1.8652344 6.4350651,2.4424426 6.1992188,3.1951981 6.1992188,4.1230469 c -10e-8,0.8712068 0.2110054,1.5685333 0.6328124,2.0917969 0.385248,0.477911 0.9030364,0.735922 1.5507813,0.7773437 A 5.4999971,5.4999943 0 0 1 9.9414062,6.2480469 v -0.75 C 9.5910163,5.7461925 9.2050101,5.8710938 8.7832031,5.8710938 8.3413101,5.8710937 7.9896343,5.7048067 7.7285156,5.3730469 7.467397,5.0385898 7.3378906,4.5922748 7.3378906,4.03125 7.3378906,3.4459501 7.475212,2.9812207 7.7519531,2.6386719 8.0286942,2.2961231 8.3929298,2.125 8.84375,2.125 c 0.4106481,0 0.7762795,0.1156941 1.0976562,0.3476562 V 1.2148438 C 9.6200295,1.0718903 9.2245338,1 8.7558594,1 Z m 3.2539066,0.097656 -1.523438,5.0625 A 5.4999971,5.4999943 0 0 1 11.5,6 a 5.4999971,5.4999943 0 0 1 0.167969,0.00977 l 0.105469,-0.4023437 h 1.707031 l 0.230469,0.8671875 a 5.4999971,5.4999943 0 0 1 0.791015,0.4238281 H 15 L 13.292969,1.0976562 Z M 3.3769531,2.125 c 0.3682442,0 0.6590744,0.167496 0.8710938,0.5019531 0.2120194,0.3344571 0.3164062,0.8028136 0.3164062,1.4042969 0,0.5772082 -0.1094102,1.0271502 -0.328125,1.3535156 C 4.0176134,5.7084338 3.7223172,5.8710938 3.3496094,5.8710938 2.9880605,5.8710937 2.6958346,5.7035977 2.4726562,5.3691406 2.2494779,5.0346835 2.1386719,4.5803704 2.1386719,4.0058594 c 0,-0.5664193 0.110806,-1.0207325 0.3339843,-1.3632813 C 2.6958346,2.2973321 2.99755,2.125 3.3769531,2.125 Z m 9.2324219,0.00781 h 0.02734 c 0.01562,0.2022926 0.04214,0.3758337 0.08008,0.5214844 l 0.515625,1.9511719 h -1.228516 l 0.521485,-1.9667969 c 0.04463,-0.1672286 0.07282,-0.3359336 0.08398,-0.5058594 z" /></g>
</svg>
