<?xml version="1.0" encoding="UTF-8" standalone="no"?>
<!DOCTYPE svg PUBLIC "-//W3C//DTD SVG 1.1//EN" "http://www.w3.org/Graphics/SVG/1.1/DTD/svg11.dtd">
<svg width="16px" height="16px" version="1.1" xmlns="http://www.w3.org/2000/svg" xmlns:xlink="http://www.w3.org/1999/xlink" xml:space="preserve" xmlns:serif="http://www.serif.com/" style="fill-rule:evenodd;clip-rule:evenodd;stroke-linecap:round;stroke-linejoin:round;stroke-miterlimit:1.5;">
    <g transform="matrix(1,0,0,1,-190,-370)">
        <g id="ink_check" transform="matrix(1,0,0,1,140,-100)">
            <g id="bg" transform="matrix(0.110345,0,0,0.121212,33.7793,451.091)">
                <rect x="147" y="156" width="145" height="132" style="fill:rgb(135,135,135);fill-opacity:0;"/>
            </g>
            <g transform="matrix(0.769231,0,0,2,48.2308,462.5)">
                <rect x="7.5" y="5.5" width="6.5" height="1" style="stroke:black;stroke-width:0.66px;"/>
            </g>
            <g transform="matrix(1,0,0,1,46,467)">
                <path d="M15,3L6,3L6,7L15,7L15,3ZM8,4L7,4L7,6L8,6L8,4ZM10,4L9,4L9,6L10,6L10,4ZM12,4L11,4L11,6L12,6L12,4ZM14,4L13,4L13,6L14,6L14,4Z"/>
            </g>
            <g transform="matrix(0.836128,0,0,0.836128,56.7581,478.602)">
                <path d="M4.447,7.401L10.033,1.845C10.268,1.611 10.648,1.612 10.881,1.847C11.115,2.082 11.114,2.462 10.879,2.695L4.867,8.675C4.754,8.788 4.601,8.851 4.442,8.85C4.283,8.849 4.13,8.786 4.018,8.672L0.462,5.084C0.229,4.849 0.23,4.469 0.466,4.236C0.701,4.003 1.081,4.004 1.314,4.24L4.447,7.401Z"/>
            </g>
            <g transform="matrix(1,0,0,1,-140,100)">
                <path d="M196.457,385L192.5,385C191.12,385 190,383.88 190,382.5L190,377.5C190,376.12 191.12,375 192.5,375L200.5,375C201.88,375 203,376.12 203,377.5L203,379.459L202,380.454L202,377.5C202,376.672 201.328,376 200.5,376L192.5,376C191.672,376 191,376.672 191,377.5L191,382.5C191,383.328 191.672,384 192.5,384L195.499,384C195.567,384.091 195.642,384.178 195.724,384.261L196.457,385Z"/>
            </g>
        </g>
    </g>
</svg>
