<?xml version="1.0" encoding="UTF-8" standalone="no"?>
<!DOCTYPE svg PUBLIC "-//W3C//DTD SVG 1.1//EN" "http://www.w3.org/Graphics/SVG/1.1/DTD/svg11.dtd">
<svg width="16px" height="16px" version="1.1" xmlns="http://www.w3.org/2000/svg" xmlns:xlink="http://www.w3.org/1999/xlink" xml:space="preserve" xmlns:serif="http://www.serif.com/" style="fill-rule:evenodd;clip-rule:evenodd;stroke-linecap:round;stroke-linejoin:round;stroke-miterlimit:1.5;">
    <g transform="matrix(1,0,0,1,-190,-390)">
        <g id="ink_no1_check" transform="matrix(1,0,0,1,140,-80)">
            <g id="bg" transform="matrix(0.110345,0,0,0.121212,33.7793,451.091)">
                <rect x="147" y="156" width="145" height="132" style="fill:rgb(135,135,135);fill-opacity:0;"/>
            </g>
            <g transform="matrix(0.769231,0,0,2,48.2308,462.5)">
                <rect x="7.5" y="5.5" width="6.5" height="1" style="stroke:black;stroke-width:0.66px;"/>
            </g>
            <g transform="matrix(1,0,0,1,46,467)">
                <path d="M15,3L6,3L6,7L15,7L15,3ZM8,4L7,4L7,6L8,6L8,4ZM10,4L9,4L9,6L10,6L10,4ZM12,4L11,4L11,6L12,6L12,4ZM14,4L13,4L13,6L14,6L14,4Z"/>
            </g>
            <g transform="matrix(1,0,0,1,45,465.002)">
                <path d="M12,15L13,15L13,13L14,13L14,15L16,15L16,16L14,16L14,18L16,18L16,19L14,19L14,21L13,21L13,19L12,19L12,21L11,21L11,19L9,19L9,18L11,18L11,16L9,16L9,15L11,15L11,13L12,13L12,15ZM21,13L21,21L19,21L19,15L17,15L17,13L21,13ZM13,16L12,16L12,18L13,18L13,16Z"/>
            </g>
            <g transform="matrix(1,0,0,1,0,-19.9983)">
                <path d="M53.779,504.998L52.5,504.998C51.12,504.998 50,503.878 50,502.498L50,497.498C50,496.118 51.12,494.998 52.5,494.998L60.5,494.998C61.689,494.998 62.685,495.83 62.938,496.943C62.6,496.969 62.261,496.991 61.932,497.002C61.927,497.003 61.922,497.003 61.917,497.004C61.712,496.419 61.155,495.998 60.5,495.998L52.5,495.998C51.672,495.998 51,496.67 51,497.498L51,502.498C51,503.326 51.672,503.998 52.5,503.998L53.105,503.998C53.242,504.554 53.498,504.85 53.779,504.998ZM56.171,503.998L57,504.835L57,504.998L56,504.998L56,504L54,504L54,503.998L56.171,503.998ZM62,500L62,498L63,498L63,500L62,500Z"/>
            </g>
        </g>
    </g>
</svg>
