<?xml version="1.0" encoding="UTF-8" standalone="no"?>
<!DOCTYPE svg PUBLIC "-//W3C//DTD SVG 1.1//EN" "http://www.w3.org/Graphics/SVG/1.1/DTD/svg11.dtd">
<svg width="100%" height="100%" viewBox="0 0 16 16" version="1.1" xmlns="http://www.w3.org/2000/svg" xmlns:xlink="http://www.w3.org/1999/xlink" xml:space="preserve" xmlns:serif="http://www.serif.com/" style="fill-rule:evenodd;clip-rule:evenodd;stroke-linejoin:round;stroke-miterlimit:2;">
    <g id="insert_frame">
        <rect id="bg" x="0.011" y="0" width="16" height="16" style="fill-opacity:0;"/>
        <path id="ad" d="M12.511,9c1.931,-0 3.5,1.568 3.5,3.5c-0,1.932 -1.569,3.5 -3.5,3.5c-1.932,-0 -3.5,-1.568 -3.5,-3.5c-0,-1.932 1.568,-3.5 3.5,-3.5Zm-0.5,3l-2,-0l-0,1l2,-0l-0,2l1,-0l-0,-2l2,-0l-0,-1l-2,-0l-0,-2l-1,-0l-0,2Z"/>
        <path d="M8.267,14l-7.256,0l-0,-13l14,-0l-0,7.759c-0.303,-0.203 -0.63,-0.369 -0.978,-0.495l-0,-0.264l-1,-0l-0,0.03c-0.172,-0.02 -0.346,-0.03 -0.522,-0.03c-0.169,-0 -0.336,0.009 -0.5,0.028l-0,-4.028c-0,-0.552 -0.448,-1 -1,-1l-6,-0c-0.553,0 -1,0.448 -1,1l-0,7c-0,0.552 0.447,1 1,1l3.027,0c-0.018,0.164 -0.027,0.331 -0.027,0.5c-0,0.526 0.09,1.031 0.256,1.5Zm5.766,-9l-1,-0l-0,2l1,-0l-0,-2Zm-11,6l-1,-0l-0,2l1,-0l-0,-2Zm-0,-9l-1,-0l-0,2l1,-0l-0,-2Zm-0,3l-1,-0l-0,2l1,-0l-0,-2Zm11,-3l-1,-0l-0,2l1,-0l-0,-2Zm-11,6l-1,-0l-0,2l1,-0l-0,-2Z"/>
    </g>
</svg>
