<?xml version="1.0" encoding="UTF-8" standalone="no"?>
<!DOCTYPE svg PUBLIC "-//W3C//DTD SVG 1.1//EN" "http://www.w3.org/Graphics/SVG/1.1/DTD/svg11.dtd">
<svg width="16px" height="16px" version="1.1" xmlns="http://www.w3.org/2000/svg" xmlns:xlink="http://www.w3.org/1999/xlink" xml:space="preserve" xmlns:serif="http://www.serif.com/" style="fill-rule:evenodd;clip-rule:evenodd;stroke-linejoin:round;stroke-miterlimit:2;">
    <g transform="matrix(1,0,0,1,-90,-290)">
        <g id="insert" transform="matrix(1,0,0,1,-0.000385861,-140)">
            <g id="bg" transform="matrix(0.110345,0,0,0.121212,73.7797,411.091)">
                <rect x="147" y="156" width="145" height="132" style="fill:rgb(135,135,135);fill-opacity:0;"/>
            </g>
            <g transform="matrix(1,0,0,1,88,428)">
                <path d="M10,3C13.863,3 17,6.137 17,10C17,13.863 13.863,17 10,17C6.137,17 3,13.863 3,10C3,6.137 6.137,3 10,3ZM11,9L15,9L15,11L11,11L11,15L9,15L9,11L5,11L5,9L9,9L9,5L11,5L11,9Z"/>
            </g>
        </g>
    </g>
</svg>
