<?xml version="1.0" encoding="UTF-8" standalone="no"?>
<!DOCTYPE svg PUBLIC "-//W3C//DTD SVG 1.1//EN" "http://www.w3.org/Graphics/SVG/1.1/DTD/svg11.dtd">
<svg width="100%" height="100%" viewBox="0 0 16 16" version="1.1" xmlns="http://www.w3.org/2000/svg" xmlns:xlink="http://www.w3.org/1999/xlink" xml:space="preserve" xmlns:serif="http://www.serif.com/" style="fill-rule:evenodd;clip-rule:evenodd;stroke-linejoin:round;stroke-miterlimit:2;">
    <g id="invert_selection">
        <rect id="bg" x="0" y="0.046" width="16" height="16" style="fill:#878787;fill-opacity:0;"/>
        <path d="M1,3.02l0,-0.974c0,-0.552 0.448,-1 1,-1l12,0c0.552,0 1,0.448 1,1l0,1l0,10.001l0,0.999c0,0.552 -0.448,1 -1,1l-12,0c-0.552,0 -1,-0.448 -1,-1l0,-0.974l0,-10.052Zm2,11.026l10,0c0.552,0 1,-0.447 1,-0.999l0,-10.001c0,-0.28 -0.116,-0.534 -0.302,-0.715l-2.879,2.879l-0.025,-0.026l-0.07,-0.066l-0.035,-0.032l-0.072,-0.064l-0.036,-0.031l-0.037,-0.031l-0.037,-0.03l-0.076,-0.06l-0.038,-0.029l-0.039,-0.028l-0.039,-0.029l-0.039,-0.027l-0.08,-0.054l-0.041,-0.026l-0.04,-0.026l-0.042,-0.026l-0.041,-0.024l-0.042,-0.025l-0.042,-0.024l-0.049,-0.027l-0.042,-0.022l-0.086,-0.044l-0.044,-0.021l-0.043,-0.021l-0.044,-0.02l-0.045,-0.02l-0.044,-0.019l-0.09,-0.036l-0.046,-0.018l-0.045,-0.017l-0.092,-0.032l-0.047,-0.016l-0.047,-0.014l-0.046,-0.015l-0.048,-0.013l-0.047,-0.013l-0.048,-0.013l-0.047,-0.012l-0.049,-0.011l-0.048,-0.011l-0.048,-0.01l-0.049,-0.01l-0.049,-0.009l-0.049,-0.008l-0.05,-0.008l-0.049,-0.007l-0.05,-0.007l-0.05,-0.006l-0.1,-0.01l-0.101,-0.008l-0.026,-0.001l-0.025,-0.002l-0.102,-0.004l-0.026,0l-0.026,-0.001l-0.051,0c-2.208,0 -4,1.792 -4,4l0,0.034l0.001,0.043l0.001,0.037l0.001,0.041l0.002,0.037l0.002,0.039l0.003,0.051l0.008,0.102l0.005,0.05l0.012,0.1l0.007,0.05l0.008,0.05l0.008,0.049l0.018,0.098l0.01,0.049l0.011,0.049l0.011,0.048l0.024,0.096l0.013,0.048l0.042,0.141l0.016,0.047l0.015,0.047l0.017,0.046l0.016,0.046l0.018,0.045l0.018,0.046l0.018,0.045l0.019,0.045l0.02,0.044l0.02,0.045l0.02,0.044l0.021,0.043l0.022,0.044l0.022,0.043l0.023,0.043l0.046,0.084l0.024,0.042l0.025,0.042l0.025,0.041l0.052,0.082l0.026,0.04l0.027,0.04l0.028,0.039l0.027,0.039l0.058,0.078l0.029,0.038l0.03,0.038l0.06,0.074l0.031,0.037l0.096,0.108l0.066,0.07l0.033,0.034l0.009,0.008l-2.879,2.879c0.181,0.186 0.435,0.302 0.715,0.302Zm7.85,-8.806c0.711,0.722 1.15,1.713 1.15,2.806c0,2.208 -1.792,4 -4,4c-1.093,0 -2.084,-0.439 -2.806,-1.15l5.656,-5.656Z"/>
    </g>
</svg>
