<?xml version="1.0" encoding="UTF-8" standalone="no"?>
<!DOCTYPE svg PUBLIC "-//W3C//DTD SVG 1.1//EN" "http://www.w3.org/Graphics/SVG/1.1/DTD/svg11.dtd">
<svg width="100%" height="100%" viewBox="0 0 16 16" version="1.1" xmlns="http://www.w3.org/2000/svg" xmlns:xlink="http://www.w3.org/1999/xlink" xml:space="preserve" xmlns:serif="http://www.serif.com/" style="fill-rule:evenodd;clip-rule:evenodd;stroke-linejoin:round;stroke-miterlimit:2;">
    <g id="leave_group">
        <rect id="bg" x="0" y="-0.001" width="16" height="16" style="fill:#878787;fill-opacity:0;"/>
        <path id="contrast_arrow" d="M6,8.999c-0.265,0 -0.52,-0.105 -0.707,-0.292c-0.188,-0.188 -0.293,-0.442 -0.293,-0.708c0,-0.265 0.105,-0.519 0.293,-0.707c0.187,-0.187 0.442,-0.293 0.707,-0.293c1.707,0 5,0 5,0l0,-3l5,4l-5,4l0,-3l-5,0Z"/>
        <path d="M3,14.999c0,0.553 -0.448,1 -1,1l-1,0c-0.552,0 -1,-0.447 -1,-1l-0,-1c0,-0.552 0.448,-1 1,-1l0,-10c-0.552,0 -1,-0.447 -1,-1l0,-1c0,-0.552 0.448,-1 1,-1l1,0c0.552,0 1,0.448 1,1l10,0c0,-0.552 0.448,-1 1,-1l1,0c0.552,0 1,0.448 1,1l0,1c0,0.553 -0.448,1 -1,1l-1,0c-0.552,0 -1,-0.447 -1,-1l-10,0c0,0.553 -0.448,1 -1,1l0,10c0.552,0 1,0.448 1,1l10,0c0,-0.552 0.448,-1 1,-1l1,0c0.552,0 1,0.448 1,1l0,1c0,0.553 -0.448,1 -1,1l-1,0c-0.552,0 -1,-0.447 -1,-1l-10,0Zm-2,-1l0,1l1,0l0,-1l-1,0Zm1,-13l-1,0l0,1l1,0l0,-1Zm13,1l0,-1l-1,0l-0,1l1,0Zm0,12l-1,0l0,1l1,0l0,-1Z"/>
    </g>
</svg>
