<?xml version="1.0" encoding="UTF-8" standalone="no"?>
<!DOCTYPE svg PUBLIC "-//W3C//DTD SVG 1.1//EN" "http://www.w3.org/Graphics/SVG/1.1/DTD/svg11.dtd">
<svg width="16px" height="16px" version="1.1" xmlns="http://www.w3.org/2000/svg" xmlns:xlink="http://www.w3.org/1999/xlink" xml:space="preserve" xmlns:serif="http://www.serif.com/" style="fill-rule:evenodd;clip-rule:evenodd;stroke-linejoin:round;stroke-miterlimit:2;">
    <g transform="matrix(1,0,0,1,-150,-170)">
        <g id="level_strip" transform="matrix(1,0,0,1,120,-180)">
            <g id="bg" transform="matrix(0.110345,0,0,0.121212,13.7793,331.091)">
                <rect x="147" y="156" width="145" height="132" style="fill:rgb(135,135,135);fill-opacity:0;"/>
            </g>
            <g transform="matrix(1,0,0,1,-41,-6)">
                <path d="M86,357.5C86,357.224 85.776,357 85.5,357L77.5,357C77.224,357 77,357.224 77,357.5L77,365.5C77,365.776 77.224,366 77.5,366L85.5,366C85.776,366 86,365.776 86,365.5L86,357.5ZM85,365L82.5,360L80,365L78,365C78,365 78,358 78,358L85,358L85,365ZM80,359C80.552,359 81,359.448 81,360C81,360.552 80.552,361 80,361C79.448,361 79,360.552 79,360C79,359.448 79.448,359 80,359Z"/>
            </g>
            <g transform="matrix(1,0,0,1,-121,182)">
                <path d="M155.5,170C155.367,170 155.24,170.053 155.146,170.146C155.053,170.24 155,170.367 155,170.5C155,172.207 155,177.793 155,179.5C155,179.633 155.053,179.76 155.146,179.854C155.24,179.947 155.367,180 155.5,180L164.5,180C164.633,180 164.76,179.947 164.854,179.854C164.947,179.76 165,179.633 165,179.5C165,179.25 165,179 165,179L156,179L156,170L155.5,170Z"/>
            </g>
            <g transform="matrix(1,0,0,1,-123,184)">
                <path d="M155.5,170C155.367,170 155.24,170.053 155.146,170.146C155.053,170.24 155,170.367 155,170.5C155,172.207 155,177.793 155,179.5C155,179.633 155.053,179.76 155.146,179.854C155.24,179.947 155.367,180 155.5,180L164.5,180C164.633,180 164.76,179.947 164.854,179.854C164.947,179.76 165,179.633 165,179.5C165,179.25 165,179 165,179L156,179L156,170L155.5,170Z"/>
            </g>
            <g transform="matrix(1,0,0,1,-125,186)">
                <path d="M155.5,170C155.367,170 155.24,170.053 155.146,170.146C155.053,170.24 155,170.367 155,170.5C155,172.207 155,177.793 155,179.5C155,179.633 155.053,179.76 155.146,179.854C155.24,179.947 155.367,180 155.5,180L164.5,180C164.633,180 164.76,179.947 164.854,179.854C164.947,179.76 165,179.633 165,179.5C165,179.25 165,179 165,179L156,179L156,170L155.5,170Z"/>
            </g>
        </g>
    </g>
</svg>
