<?xml version="1.0" encoding="UTF-8" standalone="no"?>
<!DOCTYPE svg PUBLIC "-//W3C//DTD SVG 1.1//EN" "http://www.w3.org/Graphics/SVG/1.1/DTD/svg11.dtd">
<svg width="100%" height="100%" viewBox="0 0 16 16" version="1.1" xmlns="http://www.w3.org/2000/svg" xmlns:xlink="http://www.w3.org/1999/xlink" xml:space="preserve" xmlns:serif="http://www.serif.com/" style="fill-rule:evenodd;clip-rule:evenodd;stroke-linejoin:round;stroke-miterlimit:2;">
    <g id="level_settings">
        <rect id="bg" x="0.001" y="-0.04" width="16" height="16" style="fill:#878787;fill-opacity:0;"/>
        <path d="M11.977,6.985c-0.316,-0.034 -0.636,-0.034 -0.952,0c-0.151,0.504 -0.273,1.015 -0.366,1.533c-0.224,0.064 -0.439,0.153 -0.643,0.266c-0.432,-0.3 -0.879,-0.575 -1.342,-0.825c-0.248,0.2 -0.474,0.426 -0.674,0.673c0.25,0.464 0.525,0.911 0.825,1.343c-0.113,0.203 -0.202,0.419 -0.266,0.643c-0.518,0.093 -1.029,0.215 -1.533,0.366c-0.033,0.316 -0.033,0.635 0,0.952c0.504,0.151 1.015,0.273 1.533,0.366c0.064,0.224 0.153,0.439 0.266,0.642c-0.3,0.433 -0.575,0.88 -0.825,1.343c0.2,0.248 0.426,0.474 0.674,0.674c0.463,-0.25 0.91,-0.525 1.342,-0.826c0.204,0.113 0.419,0.203 0.643,0.267c0.093,0.517 0.215,1.028 0.366,1.533c0.316,0.033 0.636,0.033 0.952,-0c0.151,-0.505 0.273,-1.016 0.366,-1.533c0.224,-0.064 0.439,-0.154 0.643,-0.267c0.432,0.301 0.879,0.576 1.342,0.826c0.248,-0.2 0.474,-0.426 0.674,-0.674c-0.25,-0.463 -0.525,-0.91 -0.825,-1.343c0.113,-0.203 0.202,-0.418 0.266,-0.642c0.518,-0.093 1.029,-0.215 1.533,-0.366c0.033,-0.317 0.033,-0.636 -0,-0.952c-0.504,-0.151 -1.015,-0.273 -1.533,-0.366c-0.064,-0.224 -0.153,-0.44 -0.266,-0.643c0.3,-0.432 0.575,-0.879 0.825,-1.343c-0.2,-0.247 -0.426,-0.473 -0.674,-0.673c-0.463,0.25 -0.91,0.525 -1.342,0.825c-0.204,-0.113 -0.419,-0.202 -0.643,-0.266c-0.093,-0.518 -0.215,-1.029 -0.366,-1.533Zm-0.476,2.585c1.043,-0 1.89,0.847 1.89,1.89c0,1.043 -0.847,1.89 -1.89,1.89c-1.043,-0 -1.89,-0.847 -1.89,-1.89c0,-1.043 0.847,-1.89 1.89,-1.89Z"/>
        <path d="M7.259,14.96l-5.258,-0l0,-14l8,-0l4,4l0,2.054c-0.05,0.017 -0.1,0.039 -0.147,0.065c-0.24,0.129 -0.475,0.264 -0.707,0.406c-0.045,-0.188 -0.094,-0.374 -0.146,-0.56l0,-1.965l-3,-0l0,-3l-7,-0l0,12l4.054,-0c-0.112,0.322 -0.052,0.684 0.167,0.955c0.012,0.015 0.024,0.03 0.037,0.045Z"/>
    </g>
</svg>
