<?xml version="1.0" encoding="UTF-8" standalone="no"?>
<!DOCTYPE svg PUBLIC "-//W3C//DTD SVG 1.1//EN" "http://www.w3.org/Graphics/SVG/1.1/DTD/svg11.dtd">
<svg width="100%" height="100%" viewBox="0 0 16 16" version="1.1" xmlns="http://www.w3.org/2000/svg" xmlns:xlink="http://www.w3.org/1999/xlink" xml:space="preserve" xmlns:serif="http://www.serif.com/" style="fill-rule:evenodd;clip-rule:evenodd;stroke-linejoin:round;stroke-miterlimit:2;">
    <g id="level_strip">
        <rect id="bg" x="0" y="0" width="16" height="16" style="fill:#878787;fill-opacity:0;"/>
        <path d="M15,0l0,16l-14,0l0,-16l14,0Zm-3,3c0,-0.552 -0.448,-1 -1,-1l-6,0c-0.552,0 -1,0.448 -1,1l0,3c0,0.552 0.448,1 1,1l6,0c0.552,0 1,-0.448 1,-1l0,-3Zm-10,10l0,2l1,0l0,-2l-1,0Zm0,-12l0,2l1,0l0,-2l-1,0Zm12,2l0,-2l-1,0l0,2l1,0Zm0,6l0,-2l-1,0l0,2l1,0Zm-2,1c0,-0.552 -0.448,-1 -1,-1l-6,0c-0.552,0 -1,0.448 -1,1l0,3c0,0.552 0.448,1 1,1l6,0c0.552,0 1,-0.448 1,-1l0,-3Zm2,2l0,-2l-1,0l0,2l1,0Zm-12,-5l0,2l1,0l0,-2l-1,0Zm12,8l0,-2l-1,0l0,2l1,0Zm-12,-11l0,2l1,0l0,-2l-1,0Zm12,2l0,-2l-1,0l0,2l1,0Zm-12,4l0,2l1,0l0,-2l-1,0Z"/>
    </g>
</svg>
