<?xml version="1.0" encoding="UTF-8" standalone="no"?>
<!DOCTYPE svg PUBLIC "-//W3C//DTD SVG 1.1//EN" "http://www.w3.org/Graphics/SVG/1.1/DTD/svg11.dtd">
<svg width="16px" height="16px" version="1.1" xmlns="http://www.w3.org/2000/svg" xmlns:xlink="http://www.w3.org/1999/xlink" xml:space="preserve" xmlns:serif="http://www.serif.com/" style="fill-rule:evenodd;clip-rule:evenodd;stroke-linejoin:round;stroke-miterlimit:2;">
    <g transform="matrix(1.125,0,0,1.125,-1,-1)">
        <rect x="0" y="0" width="16" height="16" style="fill-opacity:0;"/>
    </g>
    <g>
        <path d="M11.86,2.15C11.717,1.617 11.168,1.3 10.635,1.443C10.102,1.586 9.785,2.134 9.928,2.668L13.034,14.259C13.177,14.792 13.725,15.109 14.259,14.966C14.792,14.823 15.109,14.274 14.966,13.741L11.86,2.15ZM3,2C3,1.448 2.552,1 2,1C1.448,1 1,1.448 1,2L1,14C1,14.552 1.448,15 2,15C2.552,15 3,14.552 3,14L3,2ZM9,4C9,3.448 8.552,3 8,3C7.448,3 7,3.448 7,4L7,14C7,14.552 7.448,15 8,15C8.552,15 9,14.552 9,14L9,4ZM6,5C6,4.448 5.552,4 5,4C4.448,4 4,4.448 4,5L4,14C4,14.552 4.448,15 5,15C5.552,15 6,14.552 6,14L6,5Z" style="fill:black;fill-opacity:0.8;"/>
    </g>
</svg>
