<?xml version="1.0" encoding="UTF-8" standalone="no"?>
<!DOCTYPE svg PUBLIC "-//W3C//DTD SVG 1.1//EN" "http://www.w3.org/Graphics/SVG/1.1/DTD/svg11.dtd">
<svg width="16px" height="16px" version="1.1" xmlns="http://www.w3.org/2000/svg" xmlns:xlink="http://www.w3.org/1999/xlink" xml:space="preserve" xmlns:serif="http://www.serif.com/" style="fill-rule:evenodd;clip-rule:evenodd;stroke-linejoin:round;stroke-miterlimit:2;">
    <g transform="matrix(1,0,0,1,-90,-370)">
        <g id="load_colormodel" transform="matrix(1,0,0,1,52.0004,374)">
            <g id="bg" transform="matrix(0.110345,0,0,0.121212,21.7785,-22.9091)">
                <rect x="147" y="156" width="145" height="132" style="fill:rgb(135,135,135);fill-opacity:0;"/>
            </g>
            <g transform="matrix(0.285714,0,0,1,37.8564,-6.99)">
                <rect x="4" y="4" width="14" height="2" style="fill-opacity:0.6;"/>
            </g>
            <g transform="matrix(0.285714,0,0,1,42.8564,-6.99)">
                <rect x="4" y="4" width="14" height="2" style="fill-opacity:0.2;"/>
            </g>
            <g transform="matrix(0.285714,0,0,1,47.8563,-6.99)">
                <rect x="4" y="4" width="14" height="2" style="fill-opacity:0.4;"/>
            </g>
            <g transform="matrix(0.285714,0,0,1,37.8564,3.01)">
                <rect x="4" y="4" width="14" height="2" style="fill-opacity:0.6;"/>
            </g>
            <g transform="matrix(0.285714,0,0,1,37.8564,-1.99)">
                <rect x="4" y="4" width="14" height="2" style="fill-opacity:0.4;"/>
            </g>
            <g transform="matrix(1,0,0,1,34.9992,-6.99)">
                <path d="M19,3L3,3L3,7L19,7L19,3ZM18,4L4,4L4,6L18,6L18,4Z"/>
            </g>
            <g transform="matrix(1,0,0,1,-52.0004,-374)">
                <path d="M105,385L105,383.5C105,383.224 105.224,383 105.5,383C105.776,383 106,383.224 106,383.5L106,385.5C106,385.776 105.776,386 105.5,386L99.5,386C99.224,386 99,385.776 99,385.5L99,383.5C99,383.224 99.224,383 99.5,383C99.776,383 100,383.224 100,383.5L100,385L105,385ZM102.001,381C102.001,380.305 102.001,379.276 102.001,378L103.001,378C103.001,379.276 103.002,380.305 103.002,381L105.682,381L102.501,384.182L99.319,381L102.001,381Z"/>
            </g>
            <g transform="matrix(1,0,0,1,-52.0004,-374)">
                <path d="M97.872,383.01L96,383.01L96,385.01L97.8,385.01L97.8,383.5C97.8,383.33 97.825,383.165 97.872,383.01ZM99.6,383.01C99.82,383.055 99.987,383.243 100,383.472L100,385.01L99,385.01L99,383.5C99,383.258 99.172,383.056 99.4,383.01L99.6,383.01Z" style="fill-opacity:0.2;"/>
            </g>
            <g transform="matrix(1,0,0,1,-52.0004,-374)">
                <path d="M103.001,378.909C103.001,379.179 103.002,379.448 103.002,379.718L103.002,380.01L102.001,380.01L102.001,379.718C102.001,379.448 102.001,379.179 102.001,378.909L102.001,378.01L103.001,378.01L103.001,378.909ZM105,379.8L105,378.01L104.201,378.01L104.201,378.956C104.201,379.238 104.202,379.519 104.202,379.8L105,379.8Z" style="fill-opacity:0.4;"/>
            </g>
            <g transform="matrix(1,0,0,1,-52.0004,-374)">
                <path d="M105,385L101,385L101,385.01L105,385.01L105,385ZM102.501,384.182L101.329,383.01L103.673,383.01L102.501,384.182Z" style="fill-opacity:0.4;"/>
            </g>
            <g transform="matrix(1,0,0,1,-52.0004,-374)">
                <path d="M100,379.8L100,378.01L96,378.01L96,380.01L98.64,380.01C98.836,379.876 99.071,379.8 99.319,379.8L100,379.8Z" style="fill-opacity:0.6;"/>
            </g>
            <g transform="matrix(1,0,0,1,-52.0004,-374)">
                <path d="M106,379.843L106,375.01L90,375.01L90,386.01L97.878,386.01C97.828,385.849 97.8,385.678 97.8,385.5L97.8,385.01L96,385.01L96,383.01L97.872,383.01C97.998,382.593 98.28,382.243 98.65,382.028L98.47,381.849C98.127,381.505 98.024,380.989 98.21,380.541C98.301,380.321 98.452,380.139 98.64,380.01L96,380.01L96,378.01L100,378.01L100,379.8L100.801,379.8L100.801,378C100.801,377.337 101.339,376.8 102.001,376.8L103.001,376.8C103.664,376.8 104.201,377.337 104.201,378L104.201,378.01L105,378.01L105,379.8L105.682,379.8C105.791,379.8 105.898,379.815 106,379.843ZM105,385L105,385L105,383.5C105,383.224 105.224,383 105.5,383C105.767,383 105.985,383.209 106,383.472L106,385.528C105.985,385.791 105.767,386 105.5,386L99.5,386C99.224,386 99,385.776 99,385.5L99,385.01L100,385.01L100,383.472C100,383.482 100,383.491 100,383.5L100,385L101,385L101,385.01L105,385.01L105,385ZM103.002,380.01L103.002,381L105.682,381L103.673,383.01L101.329,383.01L99.319,381L102.001,381L102.001,380.01L103.002,380.01ZM99.401,383.01C99.433,383.003 99.466,383 99.5,383C99.535,383 99.568,383.003 99.6,383.01L99.401,383.01ZM95,381.01L91,381.01L91,383.01L95,383.01L95,381.01ZM103.001,378.01L102.001,378.01L102.001,378L103.001,378L103.001,378.01ZM95,376.01L91,376.01L91,378.01L95,378.01L95,376.01ZM96,371.01L95,371.01L95,373.01L96,373.01L96,371.01ZM101,371.01L100,371.01L100,373.01L101,373.01L101,371.01Z"/>
            </g>
        </g>
    </g>
</svg>
