<?xml version="1.0" encoding="UTF-8" standalone="no"?>
<!DOCTYPE svg PUBLIC "-//W3C//DTD SVG 1.1//EN" "http://www.w3.org/Graphics/SVG/1.1/DTD/svg11.dtd">
<svg width="100%" height="100%" viewBox="0 0 16 16" version="1.1" xmlns="http://www.w3.org/2000/svg" xmlns:xlink="http://www.w3.org/1999/xlink" xml:space="preserve" xmlns:serif="http://www.serif.com/" style="fill-rule:evenodd;clip-rule:evenodd;stroke-linejoin:round;stroke-miterlimit:2;">
    <g id="load_scene">
        <rect id="bg" x="-0" y="-0.01" width="16" height="16" style="fill:#878787;fill-opacity:0;"/>
        <path id="load" d="M11.514,6.98c2.476,0 4.486,2.01 4.486,4.486c-0,2.476 -2.01,4.486 -4.486,4.486c-2.476,0 -4.486,-2.01 -4.486,-4.486c-0,-2.476 2.01,-4.486 4.486,-4.486Zm0.105,7.984c0.1,-0.019 0.195,-0.068 0.27,-0.148l2.827,-2.938c0.19,-0.2 0.181,-0.517 -0.019,-0.706c-0.201,-0.19 -0.517,-0.181 -0.707,0.019l-2.001,2.065l-0,-4.768c-0,-0.276 -0.224,-0.5 -0.5,-0.5c-0.276,-0 -0.5,0.224 -0.5,0.5l-0,4.758l-2.008,-2.033c-0.193,-0.198 -0.51,-0.201 -0.707,-0.008c-0.197,0.193 -0.201,0.51 -0.008,0.707l2.873,2.917c0.129,0.132 0.313,0.177 0.48,0.135Z"/>
        <path id="clapboard" d="M7.301,14.979l-6.302,-0l0,-7.993l-0.02,0l0,-4l2.02,0l2,2l-1.982,1.983l0.99,-0l1.982,-1.983l2.131,0l-1.983,1.983l1.697,-0l0.537,0.001c-0.408,0.286 -0.776,0.626 -1.092,1.01c-2.795,-0.005 -5.28,-0.011 -5.28,-0.011l0,6.01l4.637,-0c0.185,0.358 0.409,0.693 0.665,1Zm0.533,-8.01l1.983,-1.983l2.334,0l-1.006,1.006c-1.027,0.069 -1.977,0.42 -2.773,0.977l-0.538,-0Zm4.887,-0.856l1.127,-1.127l1.151,0l0.001,1.994l-0,0.251c-0.651,-0.537 -1.428,-0.926 -2.279,-1.118Zm1.279,1.619c0.12,0.081 0.237,0.167 0.349,0.258l-0.349,0c-1.164,0 -3.224,-0.003 -5.312,-0.007c0.771,-0.627 1.755,-1.003 2.826,-1.003c0.919,0 1.774,0.277 2.486,0.752Zm-6.202,6.247l0.223,-0l1,1l-0.296,0c-0.358,-0.284 -0.671,-0.621 -0.927,-1Zm-0.055,-10.409l-2.587,0.583l-1.674,-1.674l2.587,-0.582l1.674,1.673Zm-0.289,-1.985l2.696,-0.607l1.673,1.673l-2.695,0.607l-1.674,-1.673Zm4.081,-0.919l3.047,-0.686l0.439,1.951l-1.813,0.408l-1.673,-1.673Z"/>
    </g>
</svg>
