<?xml version="1.0" encoding="UTF-8" standalone="no"?>
<!DOCTYPE svg PUBLIC "-//W3C//DTD SVG 1.1//EN" "http://www.w3.org/Graphics/SVG/1.1/DTD/svg11.dtd">
<svg width="16px" height="16px" version="1.1" xmlns="http://www.w3.org/2000/svg" xmlns:xlink="http://www.w3.org/1999/xlink" xml:space="preserve" xmlns:serif="http://www.serif.com/" style="fill-rule:evenodd;clip-rule:evenodd;stroke-linejoin:round;stroke-miterlimit:2;">
    <g transform="matrix(1,0,0,1,-90,-350)">
        <g id="load_folder">
            <g id="bg" transform="matrix(0.110345,0,0,0.121212,73.7797,331.091)">
                <rect x="147" y="156" width="145" height="132" style="fill:rgb(135,135,135);fill-opacity:0;"/>
            </g>
            <path d="M105,365L105,363.5C105,363.224 105.224,363 105.5,363C105.776,363 106,363.224 106,363.5L106,365.5C106,365.776 105.776,366 105.5,366L99.5,366C99.224,366 99,365.776 99,365.5L99,363.5C99,363.224 99.224,363 99.5,363C99.776,363 100,363.224 100,363.5L100,365L105,365ZM102.001,361C102.001,360.305 102.001,359.276 102.001,358L103.001,358C103.001,359.276 103.002,360.305 103.002,361L105.682,361L102.501,364.182L99.319,361L102.001,361Z"/>
            <path d="M97.8,364L90,364L90,352L95,352L97,354L104,354L104,357.334C103.785,357.012 103.418,356.8 103.001,356.8L102.001,356.8C101.339,356.8 100.801,357.337 100.801,358L100.801,359.8L99.319,359.8C98.833,359.8 98.396,360.092 98.21,360.541C98.024,360.989 98.127,361.505 98.47,361.849L98.65,362.028C98.142,362.322 97.8,362.871 97.8,363.5L97.8,364Z"/>
        </g>
    </g>
</svg>
