<?xml version="1.0" encoding="UTF-8" standalone="no"?>
<!DOCTYPE svg PUBLIC "-//W3C//DTD SVG 1.1//EN" "http://www.w3.org/Graphics/SVG/1.1/DTD/svg11.dtd">
<svg width="100%" height="100%" viewBox="0 0 16 16" version="1.1" xmlns="http://www.w3.org/2000/svg" xmlns:xlink="http://www.w3.org/1999/xlink" xml:space="preserve" xmlns:serif="http://www.serif.com/" style="fill-rule:evenodd;clip-rule:evenodd;stroke-linejoin:round;stroke-miterlimit:2;">
    <g id="load_as_sub_xsheet">
        <rect id="bg" x="0" y="0" width="16" height="16" style="fill:#878787;fill-opacity:0;"/>
        <path id="load" d="M11.486,7c2.476,0 4.486,2.01 4.486,4.486c0,2.476 -2.01,4.486 -4.486,4.486c-2.476,0 -4.486,-2.01 -4.486,-4.486c0,-2.476 2.01,-4.486 4.486,-4.486Zm0.106,7.984c0.099,-0.019 0.194,-0.068 0.269,-0.148l2.828,-2.938c0.189,-0.2 0.181,-0.517 -0.02,-0.706c-0.2,-0.19 -0.517,-0.181 -0.707,0.019l-2.001,2.065l0,-4.768c0,-0.276 -0.224,-0.5 -0.5,-0.5c-0.276,-0 -0.5,0.224 -0.5,0.5l0,4.758l-2.008,-2.033c-0.193,-0.198 -0.51,-0.201 -0.707,-0.008c-0.197,0.193 -0.2,0.51 -0.007,0.707l2.872,2.917c0.129,0.132 0.314,0.177 0.481,0.135Z"/>
        <path d="M6.021,11l-6.021,0l0,-1l6.204,0c-0.091,0.323 -0.153,0.657 -0.183,1Zm0.979,-4l0,1l-4,0l0,-1l4,0Zm7,-3l0,1l-7,0l0,-1l7,0Z" style="fill-opacity:0.5;"/>
        <path d="M6.609,14l-6.609,0l0,-7l3,0l0,-3l4,0l0,-3l8,0l0,6.274c-0.307,-0.256 -0.642,-0.48 -1,-0.665l0,-4.609l-6,0l0,5.251c-0.379,0.313 -0.716,0.676 -1,1.078l0,-3.329l-3,0l0,8l2.212,0c0.1,0.349 0.234,0.683 0.397,1Zm8.391,-5.302l0,0.302l-1,0l-0,-1.229c0.379,0.257 0.716,0.57 1,0.927Zm-7,-0.034l0,5.336l-0.229,0c-0.487,-0.717 -0.771,-1.583 -0.771,-2.514c0,-1.069 0.375,-2.051 1,-2.822Zm-5,4.336l0,-5l-2,0l0,5l2,0Z"/>
    </g>
</svg>
