<?xml version="1.0" encoding="UTF-8" standalone="no"?>
<!DOCTYPE svg PUBLIC "-//W3C//DTD SVG 1.1//EN" "http://www.w3.org/Graphics/SVG/1.1/DTD/svg11.dtd">
<svg width="100%" height="100%" viewBox="0 0 16 16" version="1.1" xmlns="http://www.w3.org/2000/svg" xmlns:xlink="http://www.w3.org/1999/xlink" xml:space="preserve" xmlns:serif="http://www.serif.com/" style="fill-rule:evenodd;clip-rule:evenodd;stroke-linejoin:round;stroke-miterlimit:2;">
    <g id="load_colormodel">
        <rect x="-0" y="0" width="16" height="16" style="fill:#878787;fill-opacity:0;"/>
        <rect x="5" y="1" width="4" height="1" style="fill-opacity:0.2;"/>
        <rect x="10" y="1" width="4" height="1" style="fill-opacity:0.4;"/>
        <path d="M15,0l-15,0l-0,3l15,0l0,-3Zm-1,1l-13,0l-0,1l13,0l-0,-1Z"/>
        <path d="M5.549,12c0.061,0.709 0.245,1.383 0.531,2l-1.08,0l-0,-2l0.549,0Z" style="fill-opacity:0.2;"/>
        <path d="M7.552,7c-0.625,0.552 -1.133,1.233 -1.485,2l-1.067,0l-0,-2l2.552,0Z" style="fill-opacity:0.6;"/>
        <path id="load" d="M11.514,7c2.476,-0 4.486,2.01 4.486,4.486c0,2.476 -2.01,4.486 -4.486,4.486c-2.476,0 -4.486,-2.01 -4.486,-4.486c-0,-2.476 2.01,-4.486 4.486,-4.486Zm0.105,7.984c0.1,-0.019 0.195,-0.068 0.27,-0.148l2.827,-2.938c0.19,-0.2 0.181,-0.517 -0.019,-0.706c-0.201,-0.19 -0.517,-0.181 -0.707,0.019l-2.001,2.065l-0,-4.768c-0,-0.276 -0.224,-0.5 -0.5,-0.5c-0.276,-0 -0.5,0.224 -0.5,0.5l-0,4.758l-2.008,-2.033c-0.193,-0.198 -0.51,-0.201 -0.707,-0.008c-0.197,0.193 -0.201,0.51 -0.008,0.707l2.873,2.917c0.129,0.132 0.313,0.177 0.48,0.135Zm3.381,-8.363c-0.982,-0.706 -2.186,-1.121 -3.486,-1.121c-1.519,-0 -2.906,0.567 -3.962,1.5l-2.552,0l-0,2l1.067,0c-0.346,0.757 -0.539,1.599 -0.539,2.486c-0,0.173 0.007,0.345 0.021,0.514l-0.549,0l-0,2l1.08,0c0.166,0.357 0.365,0.694 0.595,1.009l-6.675,0.007l-0,-11.016l15,0l-0,2.621Zm-11,-1.621l-3,0l-0,2l3,0l-0,-2Zm-0,5l-3,0l-0,2l3,0l-0,-2Zm1,-10l-0,2l-1,0l-0,-2l1,0Zm5,0l-0,2l-1,0l-0,-2l1,0Z"/>
    </g>
</svg>
