<?xml version="1.0" encoding="UTF-8" standalone="no"?>
<!DOCTYPE svg PUBLIC "-//W3C//DTD SVG 1.1//EN" "http://www.w3.org/Graphics/SVG/1.1/DTD/svg11.dtd">
<svg width="100%" height="100%" viewBox="0 0 16 16" version="1.1" xmlns="http://www.w3.org/2000/svg" xmlns:xlink="http://www.w3.org/1999/xlink" xml:space="preserve" xmlns:serif="http://www.serif.com/" style="fill-rule:evenodd;clip-rule:evenodd;stroke-linejoin:round;stroke-miterlimit:2;">
    <g id="load_level">
        <rect id="bg" x="0.001" y="-0.04" width="16" height="16" style="fill:#878787;fill-opacity:0;"/>
        <path id="load" d="M11.514,6.96c2.476,-0 4.487,2.01 4.487,4.486c-0,2.476 -2.011,4.486 -4.487,4.486c-2.476,0 -4.486,-2.01 -4.486,-4.486c0,-2.476 2.01,-4.486 4.486,-4.486Zm0.106,7.984c0.1,-0.019 0.194,-0.068 0.27,-0.148l2.827,-2.938c0.19,-0.2 0.181,-0.517 -0.02,-0.707c-0.2,-0.189 -0.517,-0.18 -0.706,0.02l-2.002,2.065l0,-4.769c0,-0.275 -0.224,-0.5 -0.5,-0.5c-0.275,0 -0.5,0.225 -0.5,0.5l0,4.759l-2.007,-2.034c-0.193,-0.197 -0.51,-0.2 -0.708,-0.007c-0.197,0.193 -0.2,0.51 -0.007,0.707l2.872,2.917c0.129,0.132 0.314,0.177 0.481,0.135Z"/>
        <path d="M7.303,14.96l-5.302,0l0,-14l8,0l4,4l0,1.595c-0.317,-0.161 -0.651,-0.293 -1,-0.391l0,-1.204l-3,0l0,-3l-7,0l0,12l3.637,0c0.185,0.358 0.408,0.693 0.665,1Z"/>
    </g>
</svg>
