<?xml version="1.0" encoding="UTF-8" standalone="no"?>
<!DOCTYPE svg PUBLIC "-//W3C//DTD SVG 1.1//EN" "http://www.w3.org/Graphics/SVG/1.1/DTD/svg11.dtd">
<svg width="100%" height="100%" viewBox="0 0 16 16" version="1.1" xmlns="http://www.w3.org/2000/svg" xmlns:xlink="http://www.w3.org/1999/xlink" xml:space="preserve" xmlns:serif="http://www.serif.com/" style="fill-rule:evenodd;clip-rule:evenodd;stroke-linejoin:round;stroke-miterlimit:2;">
    <g id="load_folder">
        <rect id="bg" x="0.001" y="0" width="16" height="16" style="fill:#878787;fill-opacity:0;"/>
        <path id="load" d="M11.514,7.028c2.476,-0 4.487,2.01 4.487,4.486c-0,2.476 -2.011,4.486 -4.487,4.486c-2.476,0 -4.486,-2.01 -4.486,-4.486c0,-2.476 2.01,-4.486 4.486,-4.486Zm0.106,7.983c0.099,-0.018 0.194,-0.068 0.269,-0.147l2.828,-2.938c0.189,-0.2 0.181,-0.517 -0.02,-0.707c-0.2,-0.189 -0.517,-0.181 -0.707,0.02l-2.001,2.065l0,-4.769c0,-0.276 -0.224,-0.5 -0.5,-0.5c-0.276,0 -0.5,0.224 -0.5,0.5l0,4.758l-2.008,-2.033c-0.193,-0.197 -0.509,-0.201 -0.707,-0.008c-0.197,0.193 -0.2,0.51 -0.007,0.708l2.872,2.917c0.129,0.131 0.314,0.177 0.481,0.134Z"/>
        <path id="folder" d="M6.232,13l-4.731,0c-0.277,0 -0.5,-0.224 -0.5,-0.5l-0,-11c-0,-0.133 0.052,-0.26 0.146,-0.354c0.094,-0.093 0.221,-0.146 0.354,-0.146l4.5,0l2,2l6.5,0c0.276,0 0.5,0.224 0.5,0.5l-0,3.779c-0.949,-0.782 -2.163,-1.251 -3.487,-1.251c-3.028,-0 -5.486,2.458 -5.486,5.486c0,0.515 0.071,1.013 0.204,1.486Z"/>
    </g>
</svg>
