<?xml version="1.0" encoding="UTF-8" standalone="no"?>
<!DOCTYPE svg PUBLIC "-//W3C//DTD SVG 1.1//EN" "http://www.w3.org/Graphics/SVG/1.1/DTD/svg11.dtd">
<svg width="16px" height="16px" version="1.1" xmlns="http://www.w3.org/2000/svg" xmlns:xlink="http://www.w3.org/1999/xlink" xml:space="preserve" xmlns:serif="http://www.serif.com/" style="fill-rule:evenodd;clip-rule:evenodd;stroke-linejoin:round;stroke-miterlimit:2;">
    <g transform="matrix(1,0,0,1,-210,-210)">
        <g id="load_as_sub_xsheet" transform="matrix(1,0,0,1,180,-140)">
            <g id="bg" transform="matrix(0.110345,0,0,0.121212,13.7793,331.091)">
                <rect x="147" y="156" width="145" height="132" style="fill:rgb(135,135,135);fill-opacity:0;"/>
            </g>
            <g transform="matrix(1,0,0,1,-180,140)">
                <path d="M225,225L225,223.5C225,223.224 225.224,223 225.5,223C225.776,223 226,223.224 226,223.5L226,225.5C226,225.776 225.776,226 225.5,226L219.5,226C219.224,226 219,225.776 219,225.5L219,223.5C219,223.224 219.224,223 219.5,223C219.776,223 220,223.224 220,223.5L220,225L225,225ZM222,221C222.001,220.305 222.001,219.276 222.001,218L223.001,218C223.001,219.276 223.001,220.305 223.002,221L225.682,221L222.5,224.182L219.318,221L222,221Z"/>
            </g>
            <g transform="matrix(1,0,0,1,-180,140)">
                <path d="M218,220L211,220L211,221L218,221L218,220ZM221,217L214,217L214,218L221,218L221,217ZM224,214L218,214L218,215L224,215L224,214Z" style="fill-opacity:0.5;"/>
            </g>
            <g transform="matrix(1,0,0,1,-180,140)">
                <path d="M213.002,214.5C213.023,214.221 213.256,214 213.541,214C214.634,214 217,214 217,214L217,211.531C217,211.238 217.238,211 217.531,211C218.989,211 223.041,211 224.483,211C224.62,211 224.752,211.055 224.849,211.152C224.946,211.249 225,211.38 225,211.518C225,213.403 225,220 225,220L224,220C224,219.477 224,212 224,212L218,212L218,224L210.5,224C210.224,224 210,223.776 210,223.5L210,217.496C210,217.222 210.222,217 210.496,217L213,217L213,214.5L213.002,214.5ZM213,223L211,223L211,218L213,218L213,223ZM214,223L214,215L217,215L217,223L214,223Z"/>
            </g>
        </g>
    </g>
</svg>
