<?xml version="1.0" encoding="UTF-8" standalone="no"?>
<!DOCTYPE svg PUBLIC "-//W3C//DTD SVG 1.1//EN" "http://www.w3.org/Graphics/SVG/1.1/DTD/svg11.dtd">
<svg width="16px" height="16px" version="1.1" xmlns="http://www.w3.org/2000/svg" xmlns:xlink="http://www.w3.org/1999/xlink" xml:space="preserve" xmlns:serif="http://www.serif.com/" style="fill-rule:evenodd;clip-rule:evenodd;stroke-linejoin:round;stroke-miterlimit:2;">
    <g transform="matrix(1,0,0,1,-50,-430)">
        <g id="load_scene" transform="matrix(1,0,0,1,-40.0004,120)">
            <g id="bg" transform="matrix(0.110345,0,0,0.121212,73.7797,291.091)">
                <rect x="147" y="156" width="145" height="132" style="fill:rgb(135,135,135);fill-opacity:0;"/>
            </g>
            <g transform="matrix(1,0,0,1,-20,-20)">
                <path d="M125,345L125,343.5C125,343.224 125.224,343 125.5,343C125.776,343 126,343.224 126,343.5L126,345.5C126,345.776 125.776,346 125.5,346L119.5,346C119.224,346 119,345.776 119,345.5L119,343.5C119,343.224 119.224,343 119.5,343C119.776,343 120,343.224 120,343.5L120,345L125,345ZM122,341C122.001,340.305 122.001,339.276 122.001,338L123.001,338C123.001,339.276 123.001,340.305 123.002,341L125.682,341L122.5,344.182L119.318,341L122,341Z"/>
            </g>
            <g transform="matrix(1,0,0,1,-20,-20)">
                <path d="M120.801,338C120.801,338 120.801,339.8 120.801,339.8L119.318,339.8C118.833,339.8 118.395,340.092 118.21,340.541C118.024,340.989 118.126,341.505 118.47,341.849L118.65,342.028C118.142,342.322 117.8,342.871 117.8,343.5L117.8,345L110,345L110,338L120.801,338ZM124,337L121,337L110,337L110,336.037C109.985,335.208 110.491,334.422 111.313,334.122L113.75,333.23L113.75,335.36L112,336L124,336L124,337ZM116.75,334.263L115.25,334.811L115.25,332.682L116.75,332.133L116.75,334.263ZM119.75,333.166L118.25,333.714L118.25,331.585L119.75,331.036L119.75,333.166ZM121.25,330.488L122.583,330L123.27,331.878L121.25,332.617L121.25,330.488Z"/>
            </g>
        </g>
    </g>
</svg>
