<?xml version="1.0" encoding="UTF-8" standalone="no"?>
<!DOCTYPE svg PUBLIC "-//W3C//DTD SVG 1.1//EN" "http://www.w3.org/Graphics/SVG/1.1/DTD/svg11.dtd">
<svg width="16px" height="16px" version="1.1" xmlns="http://www.w3.org/2000/svg" xmlns:xlink="http://www.w3.org/1999/xlink" xml:space="preserve" xmlns:serif="http://www.serif.com/" style="fill-rule:evenodd;clip-rule:evenodd;stroke-linejoin:round;stroke-miterlimit:2;">
    <g transform="matrix(1,0,0,1,-2,-2)">
        <rect x="0" y="0" width="20" height="20" style="fill-opacity:0;"/>
    </g>
    <g transform="matrix(1,0,0,1,-2,-2)">
        <path d="M6.5,14C5.672,14 5,14.672 5,15.5C5,16.328 5.672,17 6.5,17L13.5,17C14.328,17 15,16.328 15,15.5L15,14.829C15.373,14.697 15.711,14.494 16,14.235L16,15.5C16,16.88 14.88,18 13.5,18L6.5,18C5.12,18 4,16.88 4,15.5L4,4C4,2.896 4.896,2 6,2L14,2C15.104,2 16,2.896 16,4L16,12C16,13.104 15.104,14 14,14L6.5,14ZM14,15.5C14,15.224 13.776,15 13.5,15L6.5,15C6.224,15 6,15.224 6,15.5C6,15.776 6.224,16 6.5,16L13.5,16C13.776,16 14,15.776 14,15.5ZM11.092,12.436C11.092,12.524 11.06,12.6 10.996,12.664C10.932,12.728 10.856,12.76 10.768,12.76L9.256,12.76C9.168,12.76 9.092,12.728 9.028,12.664C8.964,12.6 8.932,12.524 8.932,12.436L8.932,11.224C8.932,11.136 8.964,11.06 9.028,10.996C9.092,10.932 9.168,10.9 9.256,10.9L10.768,10.9C10.856,10.9 10.932,10.932 10.996,10.996C11.06,11.06 11.092,11.136 11.092,11.224L11.092,12.436ZM13.288,6.712C13.288,7.024 13.228,7.302 13.108,7.546C12.988,7.79 12.846,7.994 12.682,8.158C12.518,8.322 12.296,8.52 12.016,8.752C11.728,8.984 11.512,9.176 11.368,9.328C11.224,9.48 11.124,9.656 11.068,9.856C11.012,10.072 10.904,10.18 10.744,10.18L9.28,10.18C9.192,10.18 9.116,10.148 9.052,10.084C8.988,10.02 8.956,9.944 8.956,9.856C8.956,9.576 9.018,9.324 9.142,9.1C9.266,8.876 9.412,8.682 9.58,8.518C9.748,8.354 9.972,8.16 10.252,7.936C10.548,7.704 10.768,7.51 10.912,7.354C11.056,7.198 11.128,7.028 11.128,6.844C11.128,6.612 11.038,6.43 10.858,6.298C10.678,6.166 10.408,6.1 10.048,6.1C9.776,6.1 9.562,6.134 9.406,6.202C9.25,6.27 9.136,6.348 9.064,6.436C8.992,6.524 8.92,6.636 8.848,6.772C8.8,6.892 8.748,6.982 8.692,7.042C8.636,7.102 8.552,7.132 8.44,7.132L6.976,7.132C6.904,7.132 6.842,7.108 6.79,7.06C6.738,7.012 6.712,6.948 6.712,6.868C6.72,6.476 6.862,6.076 7.138,5.668C7.414,5.26 7.802,4.92 8.302,4.648C8.802,4.376 9.384,4.24 10.048,4.24C10.64,4.24 11.184,4.346 11.68,4.558C12.176,4.77 12.568,5.066 12.856,5.446C13.144,5.826 13.288,6.248 13.288,6.712Z"/>
    </g>
</svg>
