<?xml version="1.0" encoding="UTF-8" standalone="no"?>
<!DOCTYPE svg PUBLIC "-//W3C//DTD SVG 1.1//EN" "http://www.w3.org/Graphics/SVG/1.1/DTD/svg11.dtd">
<svg width="16px" height="16px" version="1.1" xmlns="http://www.w3.org/2000/svg" xmlns:xlink="http://www.w3.org/1999/xlink" xml:space="preserve" xmlns:serif="http://www.serif.com/" style="fill-rule:evenodd;clip-rule:evenodd;stroke-linejoin:round;stroke-miterlimit:2;">
    <g transform="matrix(1,0,0,1,-130,-130)">
        <g id="merge" transform="matrix(1,0,0,1,20.0003,0)">
            <g id="bg" transform="matrix(0.110345,0,0,0.121212,93.7793,111.091)">
                <rect x="147" y="156" width="145" height="132" style="fill:rgb(135,135,135);fill-opacity:0;"/>
            </g>
            <g transform="matrix(-0.707107,0.707107,-0.707107,-0.707107,131.799,142.004)">
                <path d="M4.968,12.999L4.958,12.999L4.923,12L13,12L13,10L15.5,12.5L13,15L13,13L4.968,12.999Z"/>
            </g>
            <g transform="matrix(1,0,0,1,-20.0003,0)">
                <path d="M142,140L142,138L141,138L141,140L142,140ZM136,135L138,135L138,134L136,134L136,135ZM140,135L141,135L141,136L142,136L142,135C142,134.735 141.895,134.48 141.707,134.293C141.52,134.105 141.265,134 141,134L140,134L140,135Z"/>
            </g>
            <g transform="matrix(1,0,0,-1,-37.0003,189)">
                <path d="M148,55C147.735,55 147.48,54.895 147.293,54.707C147.105,54.52 147,54.265 147,54C147,51.74 147,46.26 147,44C147,43.735 147.105,43.48 147.293,43.293C147.48,43.105 147.735,43 148,43C150.26,43 155.74,43 158,43C158.552,43 159,43.448 159,44C159,44.873 159,46 159,46L158,46L158,44C158,44 148,43.735 148,44L148,54L150,54L150,55C150,55 148.873,55 148,55Z"/>
            </g>
            <g transform="matrix(1,0,0,1,-20.0003,0)">
                <path d="M134,139.721L135,138.721L135,131L145,131L145,141L137.529,141L136.529,142L145,142C145.265,142 145.52,141.895 145.707,141.707C145.895,141.52 146,141.265 146,141L146,131C146,130.735 145.895,130.48 145.707,130.293C145.52,130.105 145.265,130 145,130C142.74,130 137.26,130 135,130C134.735,130 134.481,130.105 134.293,130.293C134.106,130.48 134,130.735 134,131L134,139.721ZM135,141L135,140.418L134.065,141.353C134.115,141.485 134.192,141.606 134.293,141.707C134.444,141.858 134.637,141.955 134.845,141.988L135.832,141L135,141Z"/>
            </g>
        </g>
    </g>
</svg>
