<?xml version="1.0" encoding="UTF-8" standalone="no"?>
<!DOCTYPE svg PUBLIC "-//W3C//DTD SVG 1.1//EN" "http://www.w3.org/Graphics/SVG/1.1/DTD/svg11.dtd">
<svg width="100%" height="100%" viewBox="0 0 16 16" version="1.1" xmlns="http://www.w3.org/2000/svg" xmlns:xlink="http://www.w3.org/1999/xlink" xml:space="preserve" xmlns:serif="http://www.serif.com/" style="fill-rule:evenodd;clip-rule:evenodd;stroke-linejoin:round;stroke-miterlimit:2;">
    <g id="merge_levels_tlv">
        <rect id="bg" x="0.045" y="0.004" width="16" height="16" style="fill:#878787;fill-opacity:0;"/>
        <path d="M1.045,1.004l-0,9l13,0l-0,-3l1,0l-0.045,4l-15,-0.004l0.045,-3.996l1,0l-0,-3l-1,0l-0.045,-4.004l8.045,0.004l3.876,0l3.124,3.122l-0,0.878l-1,0l-0,-1l-2,0l-0,-2l-11,0Z"/>
        <path d="M0.045,6.003l-0.01,0l-0.035,-0.999l4.045,0l-0,-2l2.5,2.5l-2.5,2.5l-0,-2l-4,-0.001Z"/>
        <path d="M15,6.003l0.01,0l0.035,-0.999l-4.045,0l-0,-2l-2.5,2.5l2.5,2.5l-0,-2l4,-0.001Z"/>
        <path d="M8.045,8.004l-1,0l-0,2l1,0l-0,-2Zm-0,-4l-1,0l-0,3l1,0l-0,-3Zm-0,-3l-1,0l-0,2l1,0l-0,-2Z" style="fill-opacity:0.5;"/>
        <path d="M11.899,15.858c0.053,-0.054 0.095,-0.12 0.12,-0.196l1,-3c0.088,-0.262 -0.054,-0.545 -0.316,-0.632c-0.262,-0.088 -0.545,0.054 -0.632,0.316l-0.526,1.577l-0.526,-1.577c-0.087,-0.262 -0.37,-0.404 -0.632,-0.316c-0.262,0.087 -0.404,0.37 -0.316,0.632l1,3c0.025,0.076 0.067,0.142 0.12,0.196c0.054,0.053 0.12,0.095 0.196,0.12c0.051,0.018 0.104,0.026 0.155,0.026l0.006,0c0.051,0 0.104,-0.008 0.155,-0.026c0.076,-0.025 0.142,-0.067 0.196,-0.12Zm-7.354,-3.854l-2,0c-0.276,0 -0.5,0.224 -0.5,0.5c-0,0.276 0.224,0.5 0.5,0.5l0.5,0l-0,2.5c-0,0.276 0.224,0.5 0.5,0.5c0.276,0 0.5,-0.224 0.5,-0.5l-0,-2.5l0.5,0c0.276,0 0.5,-0.224 0.5,-0.5c-0,-0.276 -0.224,-0.5 -0.5,-0.5Zm2.5,3l-0,-2.5c-0,-0.276 -0.224,-0.5 -0.5,-0.5c-0.276,0 -0.5,0.224 -0.5,0.5l-0,3c-0,0.276 0.224,0.5 0.5,0.5l2,0c0.276,0 0.5,-0.224 0.5,-0.5c-0,-0.276 -0.224,-0.5 -0.5,-0.5l-1.5,0Z"/>
    </g>
</svg>
