<?xml version="1.0" encoding="UTF-8" standalone="no"?>
<!DOCTYPE svg PUBLIC "-//W3C//DTD SVG 1.1//EN" "http://www.w3.org/Graphics/SVG/1.1/DTD/svg11.dtd">
<svg width="100%" height="100%" viewBox="0 0 16 16" version="1.1" xmlns="http://www.w3.org/2000/svg" xmlns:xlink="http://www.w3.org/1999/xlink" xml:space="preserve" xmlns:serif="http://www.serif.com/" style="fill-rule:evenodd;clip-rule:evenodd;stroke-linejoin:round;stroke-miterlimit:2;">
    <g id="merge">
        <rect id="bg" x="0.015" y="-0" width="16" height="16" style="fill:#878787;fill-opacity:0;"/>
        <path d="M9.109,6.2c0,0 0.004,-0.004 0.006,-0.006c-0.001,0 -0.001,-0 -0,-0.001c0,-0 0.001,-0 0.001,0c0.003,0.003 0.731,0.682 0.731,0.682l-5.486,5.486l1.654,1.639l-4,-0l-0,-4l1.639,1.654l5.455,-5.454Z"/>
        <path d="M12.015,10l-0,-2l-1,-0l-0,2l1,-0Zm-6,-5l2,-0l-0,-1l-2,-0l-0,1Zm4,-0l1,-0l-0,1l1,-0l-0,-1c-0,-0.265 -0.106,-0.52 -0.293,-0.707c-0.188,-0.188 -0.442,-0.293 -0.707,-0.293l-1,-0l-0,1Z"/>
        <path d="M1.015,4c-0.266,-0 -0.52,0.105 -0.708,0.293c-0.187,0.187 -0.292,0.442 -0.292,0.707c-0,2.26 -0,7.74 -0,10c-0,0.265 0.105,0.52 0.292,0.707c0.188,0.188 0.442,0.293 0.708,0.293c2.26,-0 7.74,-0 10,-0c0.552,-0 1,-0.448 1,-1c-0,-0.873 -0,-2 -0,-2l-1,-0l-0,2l-10,0l-0,-10l2,-0l-0,-1c-0,-0 -1.128,-0 -2,-0Z"/>
        <path d="M4.015,10l1,-1l-0,-8l10,-0l-0,10l-8,-0l-1,1l9,-0c0.265,-0 0.519,-0.105 0.707,-0.293c0.188,-0.187 0.293,-0.442 0.293,-0.707l-0,-10c-0,-0.265 -0.105,-0.52 -0.293,-0.707c-0.188,-0.188 -0.442,-0.293 -0.707,-0.293c-2.26,-0 -7.74,-0 -10,-0c-0.265,-0 -0.52,0.105 -0.707,0.293c-0.188,0.187 -0.293,0.442 -0.293,0.707l-0,9Z"/>
    </g>
</svg>
