<?xml version="1.0" encoding="UTF-8" standalone="no"?>
<!DOCTYPE svg PUBLIC "-//W3C//DTD SVG 1.1//EN" "http://www.w3.org/Graphics/SVG/1.1/DTD/svg11.dtd">
<svg width="16px" height="16px" version="1.1" xmlns="http://www.w3.org/2000/svg" xmlns:xlink="http://www.w3.org/1999/xlink" xml:space="preserve" xmlns:serif="http://www.serif.com/" style="fill-rule:evenodd;clip-rule:evenodd;stroke-linejoin:round;stroke-miterlimit:2;">
    <g transform="matrix(1,0,0,1,-210,-350)">
        <g id="merge_levels_tlv" transform="matrix(1,0,0,1,100,120)">
            <g id="bg" transform="matrix(0.110345,0,0,0.121212,93.7793,211.091)">
                <rect x="147" y="156" width="145" height="132" style="fill:rgb(135,135,135);fill-opacity:0;"/>
            </g>
            <g transform="matrix(1,0,0,1,-99,-120)">
                <path d="M211,351L211,360L224,360L224,357L225,357L225,360C225,360.552 224.552,361 224,361L211,361C210.448,361 210,360.552 210,360L210,357L211,357L211,354L210,354L210,351C210,350.448 210.448,350 211,350L221.876,350C222.276,350 222.659,350.159 222.941,350.441C223.397,350.897 224.105,351.605 224.561,352.061C224.842,352.342 225,352.723 225,353.121C225,353.534 225,354 225,354L224,354L224,353L222,353L222,351L211,351Z"/>
            </g>
            <g transform="matrix(1,7.66906e-17,-7.66906e-17,1,102,223)">
                <path d="M9,12.999L8.99,12.999L8.955,12L13,12L13,10L15.5,12.5L13,15L13,13L9,12.999Z"/>
            </g>
            <g transform="matrix(-1,7.66906e-17,7.66906e-17,1,134.955,223)">
                <path d="M9,12.999L8.99,12.999L8.955,12L13,12L13,10L15.5,12.5L13,15L13,13L9,12.999Z"/>
            </g>
            <g transform="matrix(1,0,0,1,-100,-120)">
                <path d="M219,358L218,358L218,360L219,360L219,358ZM219,354L218,354L218,357L219,357L219,354ZM219,351L218,351L218,353L219,353L219,351Z" style="fill-opacity:0.5;"/>
            </g>
            <g transform="matrix(1,0,0,1,106,226)">
                <path d="M18.854,19.854C18.907,19.8 18.949,19.734 18.974,19.658L19.974,16.658C20.062,16.396 19.92,16.113 19.658,16.026C19.396,15.938 19.113,16.08 19.026,16.342L18.5,17.919L17.974,16.342C17.887,16.08 17.604,15.938 17.342,16.026C17.08,16.113 16.938,16.396 17.026,16.658L18.026,19.658C18.051,19.734 18.093,19.8 18.146,19.854C18.2,19.907 18.266,19.949 18.342,19.974C18.393,19.992 18.446,20 18.497,20L18.503,20C18.554,20 18.607,19.992 18.658,19.974C18.734,19.949 18.8,19.907 18.854,19.854ZM11.5,16L9.5,16C9.224,16 9,16.224 9,16.5C9,16.776 9.224,17 9.5,17L10,17L10,19.5C10,19.776 10.224,20 10.5,20C10.776,20 11,19.776 11,19.5L11,17L11.5,17C11.776,17 12,16.776 12,16.5C12,16.224 11.776,16 11.5,16ZM14,19L14,16.5C14,16.224 13.776,16 13.5,16C13.224,16 13,16.224 13,16.5L13,19.5C13,19.776 13.224,20 13.5,20L15.5,20C15.776,20 16,19.776 16,19.5C16,19.224 15.776,19 15.5,19L14,19Z"/>
            </g>
        </g>
    </g>
</svg>
