<?xml version="1.0" encoding="UTF-8" standalone="no"?>
<!DOCTYPE svg PUBLIC "-//W3C//DTD SVG 1.1//EN" "http://www.w3.org/Graphics/SVG/1.1/DTD/svg11.dtd">
<svg width="16px" height="16px" version="1.1" xmlns="http://www.w3.org/2000/svg" xmlns:xlink="http://www.w3.org/1999/xlink" xml:space="preserve" xmlns:serif="http://www.serif.com/" style="fill-rule:evenodd;clip-rule:evenodd;stroke-linejoin:round;stroke-miterlimit:2;">
    <g transform="matrix(1,0,0,1,-30,-130)">
        <g id="messagecenter">
            <g id="bg" transform="matrix(0.110345,0,0,0.121212,13.7793,111.091)">
                <rect x="147" y="156" width="145" height="132" style="fill:rgb(135,135,135);fill-opacity:0;"/>
            </g>
            <g transform="matrix(1,0,0,1,28,128)">
                <path d="M8.881,15.006C8.881,15.006 4.907,15.003 2.999,15.002C2.447,15.001 2,14.554 2,14.002L2,3C2,2.448 2.448,2 3,2C5.873,2 14.127,2 17,2C17.552,2 18,2.448 18,3C18,5.422 18.001,11.581 18.001,14.002C18.001,14.554 17.554,15.001 17.002,15.002C15.542,15.003 12.998,15.006 12.998,15.006L13.024,18L8.881,15.006ZM10,11.5C10,11.367 9.947,11.24 9.854,11.146C9.76,11.053 9.633,11 9.5,11C8.542,11 6.458,11 5.5,11C5.367,11 5.24,11.053 5.146,11.146C5.053,11.24 5,11.367 5,11.5C5,11.633 5.053,11.76 5.146,11.854C5.24,11.947 5.367,12 5.5,12C6.458,12 8.542,12 9.5,12C9.633,12 9.76,11.947 9.854,11.854C9.947,11.76 10,11.633 10,11.5ZM15,8.5C15,8.367 14.947,8.24 14.854,8.146C14.76,8.053 14.633,8 14.5,8C12.793,8 7.207,8 5.5,8C5.367,8 5.24,8.053 5.146,8.146C5.053,8.24 5,8.367 5,8.5C5,8.633 5.053,8.76 5.146,8.854C5.24,8.947 5.367,9 5.5,9C7.207,9 12.793,9 14.5,9C14.633,9 14.76,8.947 14.854,8.854C14.947,8.76 15,8.633 15,8.5ZM15,5.5C15,5.367 14.947,5.24 14.854,5.146C14.76,5.053 14.633,5 14.5,5C12.793,5 7.207,5 5.5,5C5.367,5 5.24,5.053 5.146,5.146C5.053,5.24 5,5.367 5,5.5C5,5.633 5.053,5.76 5.146,5.854C5.24,5.947 5.367,6 5.5,6C7.207,6 12.793,6 14.5,6C14.633,6 14.76,5.947 14.854,5.854C14.947,5.76 15,5.633 15,5.5Z"/>
            </g>
        </g>
    </g>
</svg>
