<?xml version="1.0" encoding="UTF-8" standalone="no"?>
<!DOCTYPE svg PUBLIC "-//W3C//DTD SVG 1.1//EN" "http://www.w3.org/Graphics/SVG/1.1/DTD/svg11.dtd">
<svg width="16px" height="16px" version="1.1" xmlns="http://www.w3.org/2000/svg" xmlns:xlink="http://www.w3.org/1999/xlink" xml:space="preserve" xmlns:serif="http://www.serif.com/" style="fill-rule:evenodd;clip-rule:evenodd;stroke-linejoin:round;stroke-miterlimit:2;">
    <g transform="matrix(0.727273,0,0,0.727273,0,0)">
        <rect x="0" y="0" width="22" height="22" style="fill-opacity:0;"/>
    </g>
    <g transform="matrix(1,0,0,1,-3,-3)">
        <g transform="matrix(1,0,0,1,2,1)">
            <path d="M11.379,4C11.777,4 12.158,4.158 12.439,4.439C13.387,5.387 14.613,6.613 15.561,7.561C15.842,7.842 16,8.223 16,8.621L16,17L15,17L15,9L11,9L11,5L5,5L5,17L16,17C16,17.552 15.552,18 15,18L5.5,18C4.672,18 4,17.328 4,16.5L4,5.5C4,5.102 4.158,4.721 4.439,4.439C4.721,4.158 5.102,4 5.5,4L11.379,4Z" style="fill:black;fill-opacity:0.8;"/>
        </g>
        <g transform="matrix(1,0,0,1,2,2)">
            <path d="M3,14.915C2.418,14.708 2,14.153 2,13.5L2,2.5C2,2.102 2.158,1.721 2.439,1.439C2.721,1.158 3.102,1 3.5,1L9.379,1C9.777,1 10.158,1.158 10.439,1.439L11,2L3,2L3,14.915Z" style="fill:black;fill-opacity:0.8;"/>
        </g>
    </g>
</svg>
