<?xml version="1.0" encoding="UTF-8" standalone="no"?>
<!DOCTYPE svg PUBLIC "-//W3C//DTD SVG 1.1//EN" "http://www.w3.org/Graphics/SVG/1.1/DTD/svg11.dtd">
<svg width="16px" height="16px" version="1.1" xmlns="http://www.w3.org/2000/svg" xmlns:xlink="http://www.w3.org/1999/xlink" xml:space="preserve" xmlns:serif="http://www.serif.com/" style="fill-rule:evenodd;clip-rule:evenodd;stroke-linejoin:round;stroke-miterlimit:2;">
    <g transform="matrix(1,0,0,1,-130,-250)">
        <g id="new_document" transform="matrix(1,0,0,1,20,20)">
            <g id="bg" transform="matrix(0.110345,0,0,0.121212,93.7793,211.091)">
                <rect x="147" y="156" width="145" height="132" style="fill:rgb(135,135,135);fill-opacity:0;"/>
            </g>
            <g>
                <path d="M120,231.5L123.5,235L120,235L120,231.5Z"/>
            </g>
            <g id="add" transform="matrix(1,0,0,1,112,232)">
                <g transform="matrix(1,0,0,1,-132,-252)">
                    <path d="M138.759,265L133,265C132.448,265 132,264.552 132,264L132,252C132,251.448 132.448,251 133,251L140,251C140.265,251 140.52,251.105 140.707,251.293L143.707,254.293C143.895,254.48 144,254.735 144,255L144,258.256C143.681,258.144 143.347,258.066 143,258.028L143,255L140,252L133,252L133,264L138.256,264C138.382,264.356 138.552,264.692 138.759,265Z"/>
                </g>
                <g id="add1" serif:id="add" transform="matrix(1,0,0,1,-7,-7)">
                    <path d="M17.5,14C19.432,14 21,15.568 21,17.5C21,19.432 19.432,21 17.5,21C15.568,21 14,19.432 14,17.5C14,15.568 15.568,14 17.5,14ZM18,17L20,17L20,18L18,18L18,20L17,20L17,18L15,18L15,17L17,17L17,15L18,15L18,17Z"/>
                </g>
            </g>
        </g>
    </g>
</svg>
