<?xml version="1.0" encoding="UTF-8" standalone="no"?>
<!DOCTYPE svg PUBLIC "-//W3C//DTD SVG 1.1//EN" "http://www.w3.org/Graphics/SVG/1.1/DTD/svg11.dtd">
<svg width="100%" height="100%" viewBox="0 0 16 16" version="1.1" xmlns="http://www.w3.org/2000/svg" xmlns:xlink="http://www.w3.org/1999/xlink" xml:space="preserve" xmlns:serif="http://www.serif.com/" style="fill-rule:evenodd;clip-rule:evenodd;stroke-linejoin:round;stroke-miterlimit:2;">
    <g id="new_level">
        <rect id="bg" x="0.001" y="-0.04" width="16" height="16" style="fill:#878787;fill-opacity:0;"/>
        <path id="ad" d="M12.501,8.96c1.932,-0 3.5,1.568 3.5,3.5c0,1.932 -1.568,3.5 -3.5,3.5c-1.932,-0 -3.5,-1.568 -3.5,-3.5c0,-1.932 1.568,-3.5 3.5,-3.5Zm-0.5,3l-2,-0l0,1l2,-0l0,2l1,-0l0,-2l2,-0l0,-1l-2,-0l0,-2l-1,-0l0,2Z"/>
        <path d="M8.76,14.96l-6.759,-0l0,-14l8,-0l4,4l0,3.256c-0.318,-0.112 -0.653,-0.19 -1,-0.229l0,-3.027l-3,-0l0,-3l-7,-0l0,12l5.256,-0c0.126,0.356 0.296,0.691 0.503,1Z"/>
    </g>
</svg>
