<?xml version="1.0" encoding="UTF-8"?>
<svg width="16" height="16" clip-rule="evenodd" fill-rule="evenodd" stroke-linejoin="round" stroke-miterlimit="2" version="1.1" xml:space="preserve" xmlns="http://www.w3.org/2000/svg">
    <rect width="20" height="20" fill-opacity="0"/>
    <g transform="translate(-2,-2)">
        
            <path d="m4.5 16c-0.398 0-0.779-0.158-1.061-0.439-0.281-0.282-0.439-0.663-0.439-1.061v-9c0-0.828 0.672-1.5 1.5-1.5h3c0.828 0 1.5 0.672 1.5 1.5v1.5h6.5c0.828 0 1.5 0.672 1.5 1.5v6c0 0.398-0.158 0.779-0.439 1.061-0.282 0.281-0.663 0.439-1.061 0.439zm3.5-8v-2.5c0-0.276-0.224-0.5-0.5-0.5h-3c-0.276 0-0.5 0.224-0.5 0.5v9c0 0.133 0.053 0.26 0.146 0.354 0.094 0.093 0.221 0.146 0.354 0.146h11c0.276 0 0.5-0.224 0.5-0.5v-6c0-0.276-0.224-0.5-0.5-0.5z"/>
        
    </g>
    <rect x="10" y="2.5" width="1" height="3"/>
    <path d="m 13.5,2 c 0.398,0 0.779,0.158 1.061,0.439 C 14.842,2.721 15,3.102 15,3.5 V 7 H 14 V 3.5 C 14,3.367 13.947,3.24 13.854,3.146 13.76,3.053 13.633,3 13.5,3 H 5 V 2 Z"/>
</svg>