<?xml version="1.0" encoding="UTF-8" standalone="no"?>
<!DOCTYPE svg PUBLIC "-//W3C//DTD SVG 1.1//EN" "http://www.w3.org/Graphics/SVG/1.1/DTD/svg11.dtd">
<svg width="16px" height="16px" version="1.1" xmlns="http://www.w3.org/2000/svg" xmlns:xlink="http://www.w3.org/1999/xlink" xml:space="preserve" xmlns:serif="http://www.serif.com/" style="fill-rule:evenodd;clip-rule:evenodd;stroke-linejoin:round;stroke-miterlimit:2;">
    <g transform="matrix(1,0,0,1,-190,-210)">
        <g id="new_toonz_raster_level" transform="matrix(1,0,0,1,80,-20)">
            <g id="bg" transform="matrix(0.110345,0,0,0.121212,93.7793,211.091)">
                <rect x="147" y="156" width="145" height="132" style="fill:rgb(135,135,135);fill-opacity:0;"/>
            </g>
            <g>
                <g transform="matrix(1,0,0,1,1,0)">
                    <path d="M120,231.5L123.5,235L120,235L120,231.5Z"/>
                </g>
                <path d="M125,235C125,234.735 124.895,234.48 124.707,234.293L121.707,231.293C121.52,231.105 121.265,231 121,231L112,231C111.448,231 111,231.448 111,232L111,244C111,244.552 111.448,245 112,245L124,245C124.552,245 125,244.552 125,244L125,235ZM124,235L121,232L112,232L112,244L124,244L124,235Z"/>
            </g>
            <g transform="matrix(1,0,0,1,108.142,227)">
                <path d="M9.929,8C7.72,8 5.358,9.791 5.358,12C5.358,14.209 7.72,16 9.929,16C10.298,16 10.596,15.702 10.596,15.333C10.596,15.16 10.529,15.004 10.422,14.884C10.32,14.769 10.253,14.613 10.253,14.444C10.253,14.076 10.551,13.778 10.92,13.778L11.707,13.778C12.933,13.778 14.5,12.782 14.5,11.556C14.5,9.591 12.138,8 9.929,8ZM7.941,14.024C7.381,14.024 6.929,13.572 6.929,13.012C6.929,12.452 7.381,12 7.941,12C8.501,12 8.953,12.452 8.953,13.012C8.953,13.572 8.501,14.024 7.941,14.024ZM11.928,12C11.375,12 10.929,11.554 10.929,11.001C10.929,10.448 11.375,10.001 11.928,10.001C12.481,10.001 12.928,10.448 12.928,11.001C12.928,11.554 12.481,12 11.928,12ZM8.953,10.999C8.4,10.999 7.954,10.552 7.954,9.999C7.954,9.446 8.4,9 8.953,9C9.506,9 9.953,9.446 9.953,9.999C9.953,10.552 9.506,10.999 8.953,10.999Z"/>
            </g>
        </g>
    </g>
</svg>
