<?xml version="1.0" encoding="UTF-8" standalone="no"?>
<!DOCTYPE svg PUBLIC "-//W3C//DTD SVG 1.1//EN" "http://www.w3.org/Graphics/SVG/1.1/DTD/svg11.dtd">
<svg width="100%" height="100%" viewBox="0 0 16 16" version="1.1" xmlns="http://www.w3.org/2000/svg" xmlns:xlink="http://www.w3.org/1999/xlink" xml:space="preserve" xmlns:serif="http://www.serif.com/" style="fill-rule:evenodd;clip-rule:evenodd;stroke-linejoin:round;stroke-miterlimit:2;">
    <g id="newpage">
        <rect x="-0" y="0" width="16" height="16" style="fill-opacity:0;"/>
        <path d="M2.5,14c-0.398,0 -0.779,-0.158 -1.061,-0.439c-0.281,-0.282 -0.439,-0.663 -0.439,-1.061l0,-9c0,-0.828 0.672,-1.5 1.5,-1.5l3,0c0.828,0 1.5,0.672 1.5,1.5l0,1.5l6.5,0c0.828,0 1.5,0.672 1.5,1.5l0,6c0,0.398 -0.158,0.779 -0.439,1.061c-0.282,0.281 -0.663,0.439 -1.061,0.439l-11,0Zm3.5,-8l0,-2.5c0,-0.276 -0.224,-0.5 -0.5,-0.5l-3,0c-0.276,0 -0.5,0.224 -0.5,0.5l0,9c0,0.133 0.053,0.26 0.146,0.354c0.094,0.093 0.221,0.146 0.354,0.146l11,0c0.276,0 0.5,-0.224 0.5,-0.5l0,-6c0,-0.276 -0.224,-0.5 -0.5,-0.5l-7.5,0Z"/>
        <path d="M13.5,2c0.398,0 0.779,0.158 1.061,0.439c0.281,0.282 0.439,0.663 0.439,1.061l0,3.5l-1,0l0,-3.5c0,-0.133 -0.053,-0.26 -0.146,-0.354c-0.094,-0.093 -0.221,-0.146 -0.354,-0.146l-8.5,0l0,-1l8.5,0Z"/>
    </g>
</svg>
