<?xml version="1.0" encoding="UTF-8" standalone="no"?>
<svg
   width="16px"
   height="16px"
   version="1.1"
   xml:space="preserve"
   style="fill-rule:evenodd;clip-rule:evenodd;stroke-linejoin:round;stroke-miterlimit:2;"
   id="svg20"
   sodipodi:docname="next_nav_tag.svg"
   inkscape:version="1.1.2 (b8e25be833, 2022-02-05)"
   xmlns:inkscape="http://www.inkscape.org/namespaces/inkscape"
   xmlns:sodipodi="http://sodipodi.sourceforge.net/DTD/sodipodi-0.dtd"
   xmlns="http://www.w3.org/2000/svg"
   xmlns:svg="http://www.w3.org/2000/svg"><defs
   id="defs24" /><sodipodi:namedview
   id="namedview22"
   pagecolor="#ffffff"
   bordercolor="#666666"
   borderopacity="1.0"
   inkscape:pageshadow="2"
   inkscape:pageopacity="0.0"
   inkscape:pagecheckerboard="0"
   showgrid="true"
   inkscape:zoom="44.9375"
   inkscape:cx="8"
   inkscape:cy="7.9888734"
   inkscape:window-width="1920"
   inkscape:window-height="1141"
   inkscape:window-x="-7"
   inkscape:window-y="-7"
   inkscape:window-maximized="1"
   inkscape:current-layer="svg20"><inkscape:grid
     type="xygrid"
     id="grid158" /></sodipodi:namedview>
    
<rect
   x="0"
   y="0"
   width="16"
   height="16"
   style="clip-rule:evenodd;fill-opacity:0;fill-rule:evenodd;stroke-linejoin:round;stroke-miterlimit:2"
   id="rect2" /><path
   id="path10088"
   inkscape:transform-center-y="0.39999918"
   d="M 11.5,16.000001 9,13 V 7 h 5 v 6 z"
   sodipodi:nodetypes="cccccc"
   style="clip-rule:evenodd;fill-rule:evenodd;stroke-width:0.640749;stroke-linejoin:round;stroke-miterlimit:2" /><g
   id="bg-3"
   transform="translate(-110,-390)"
   style="clip-rule:evenodd;fill-rule:evenodd;stroke-linejoin:round;stroke-miterlimit:2"><rect
     x="110"
     y="390"
     width="16"
     height="16"
     style="fill-opacity:0"
     id="rect2-5" /></g><g
   transform="translate(-110,-510)"
   id="g10"
   style="clip-rule:evenodd;fill-rule:evenodd;stroke-linejoin:round;stroke-miterlimit:2"><path
     d="M 126,517.086 C 125.841,517.03 125.672,517 125.5,517 H 125 v -3 c 0,-0.552 -0.448,-1 -1,-1 -2.577,0 -9.423,0 -12,0 -0.552,0 -1,0.448 -1,1 0,1.916 0,6.084 0,8 0,0.552 0.448,1 1,1 h 5 v 2.5 c 0,0.175 0.03,0.344 0.085,0.5 H 110 v -16 h 16 z M 118,523 v 2.5 z m -5,1 h -2 v 1 h 2 z m 3,0 h -2 v 1 h 2 z m 0,-13 h -2 v 1 h 2 z m 3,0 h -2 v 1 h 2 z m -6,0 h -2 v 1 h 2 z m 9,0 h -2 v 1 h 2 z m 3,0 h -2 v 1 h 2 z"
     id="path8" /></g><path
   sodipodi:type="star"
   style="clip-rule:evenodd;fill:#000000;fill-opacity:1;fill-rule:evenodd;stroke-linejoin:round;stroke-miterlimit:2"
   id="path254"
   inkscape:flatsided="false"
   sodipodi:sides="3"
   sodipodi:cx="2"
   sodipodi:cy="8"
   sodipodi:r1="3"
   sodipodi:r2="1.5"
   sodipodi:arg1="0"
   sodipodi:arg2="1.0471976"
   inkscape:rounded="0"
   inkscape:randomized="0"
   inkscape:transform-center-x="-0.83333335"
   transform="matrix(1.1111111,0,0,1.5396007,1.4444446,-4.3168056)"
   d="M 5,8 2.7499999,9.2990381 0.5,10.598076 l 0,-2.5980761 0,-2.5980761 2.2500001,1.2990381 z" /></svg>
