<?xml version="1.0" encoding="UTF-8" standalone="no"?>
<!DOCTYPE svg PUBLIC "-//W3C//DTD SVG 1.1//EN" "http://www.w3.org/Graphics/SVG/1.1/DTD/svg11.dtd">
<svg width="16px" height="16px" version="1.1" xmlns="http://www.w3.org/2000/svg" xmlns:xlink="http://www.w3.org/1999/xlink" xml:space="preserve" xmlns:serif="http://www.serif.com/" style="fill-rule:evenodd;clip-rule:evenodd;stroke-linejoin:round;stroke-miterlimit:2;">
    <g transform="matrix(1,0,0,1,-10,-230)">
        <g id="on_3s" transform="matrix(1,0,0,1,-892,210)">
            <g id="bg" transform="matrix(0.110345,0,0,0.121212,885.779,1.09097)">
                <rect x="147" y="156" width="145" height="132" style="fill:rgb(135,135,135);fill-opacity:0;"/>
            </g>
            <g transform="matrix(11.7068,0,0,11.0703,911.594,32.8704)">
                <path d="M0.047,-0.099C0.041,-0.112 0.042,-0.126 0.048,-0.138C0.054,-0.151 0.066,-0.159 0.079,-0.161C0.079,-0.162 0.08,-0.163 0.081,-0.163C0.101,-0.166 0.12,-0.154 0.127,-0.135C0.133,-0.116 0.144,-0.1 0.158,-0.088C0.181,-0.07 0.212,-0.061 0.252,-0.061C0.292,-0.061 0.322,-0.069 0.342,-0.085C0.361,-0.102 0.371,-0.121 0.371,-0.143C0.371,-0.163 0.362,-0.179 0.345,-0.19C0.333,-0.198 0.303,-0.208 0.255,-0.22C0.191,-0.236 0.146,-0.25 0.121,-0.262C0.096,-0.274 0.078,-0.29 0.065,-0.311C0.052,-0.332 0.045,-0.355 0.045,-0.381C0.045,-0.404 0.051,-0.425 0.061,-0.445C0.072,-0.465 0.086,-0.481 0.104,-0.494C0.118,-0.504 0.137,-0.513 0.16,-0.52C0.184,-0.527 0.209,-0.53 0.236,-0.53C0.277,-0.53 0.313,-0.524 0.344,-0.513C0.374,-0.501 0.397,-0.485 0.412,-0.465C0.416,-0.459 0.42,-0.452 0.424,-0.444C0.431,-0.432 0.431,-0.416 0.425,-0.403C0.418,-0.389 0.406,-0.38 0.392,-0.379C0.392,-0.378 0.391,-0.378 0.39,-0.378C0.372,-0.375 0.354,-0.385 0.346,-0.403C0.341,-0.416 0.333,-0.427 0.322,-0.436C0.303,-0.451 0.277,-0.458 0.243,-0.458C0.202,-0.458 0.174,-0.451 0.156,-0.438C0.139,-0.425 0.13,-0.409 0.13,-0.391C0.13,-0.38 0.134,-0.369 0.141,-0.36C0.148,-0.351 0.16,-0.343 0.175,-0.337C0.184,-0.334 0.209,-0.326 0.252,-0.314C0.315,-0.298 0.358,-0.284 0.383,-0.274C0.407,-0.263 0.426,-0.248 0.44,-0.228C0.454,-0.207 0.461,-0.182 0.461,-0.152C0.461,-0.123 0.453,-0.095 0.436,-0.07C0.419,-0.044 0.394,-0.024 0.362,-0.01C0.33,0.005 0.293,0.012 0.252,0.012C0.185,0.012 0.134,-0.002 0.098,-0.03C0.076,-0.048 0.059,-0.071 0.047,-0.099Z" style="fill-rule:nonzero;"/>
            </g>
            <g transform="matrix(0.75,0,0,1,244.75,0)">
                <path d="M889,23.75C889,23.336 888.552,23 888,23C887.448,23 887,23.336 887,23.75L887,25.25C887,25.664 887.448,26 888,26C888.552,26 889,25.664 889,25.25L889,23.75Z"/>
            </g>
            <g transform="matrix(1.33333,0,0,1.33333,892,18)">
                <path d="M12.75,9.75L12.75,8.625C12.75,8.002 12.247,7.5 11.625,7.5C12.247,7.5 12.75,6.998 12.75,6.375L12.75,5.25C12.75,4.417 12.075,3.75 11.25,3.75L9,3.75C8.586,3.75 8.25,4.086 8.25,4.5C8.25,4.914 8.586,5.25 9,5.25L11.25,5.25L11.25,6.75L10.5,6.75C10.301,6.75 10.11,6.829 9.97,6.97C9.829,7.11 9.75,7.301 9.75,7.5C9.75,7.914 10.086,8.25 10.5,8.25L11.25,8.25L11.25,9.75L9,9.75C8.586,9.75 8.25,10.086 8.25,10.5C8.25,10.914 8.586,11.25 9,11.25L11.25,11.25C12.075,11.25 12.75,10.583 12.75,9.75Z" style="fill-rule:nonzero;"/>
            </g>
        </g>
    </g>
</svg>
