<?xml version="1.0" encoding="UTF-8" standalone="no"?>
<!DOCTYPE svg PUBLIC "-//W3C//DTD SVG 1.1//EN" "http://www.w3.org/Graphics/SVG/1.1/DTD/svg11.dtd">
<svg width="16px" height="16px" version="1.1" xmlns="http://www.w3.org/2000/svg" xmlns:xlink="http://www.w3.org/1999/xlink" xml:space="preserve" xmlns:serif="http://www.serif.com/" style="fill-rule:evenodd;clip-rule:evenodd;stroke-linejoin:round;stroke-miterlimit:2;">
    <g transform="matrix(1,0,0,1,-10,-310)">
        <g id="on_with_empty">
            <g id="bg" transform="matrix(0.110345,0,0,0.121212,-6.22069,291.091)">
                <rect x="147" y="156" width="145" height="132" style="fill:rgb(135,135,135);fill-opacity:0;"/>
            </g>
            <g transform="matrix(11.7068,0,0,11.0703,19.594,322.87)">
                <path d="M0.047,-0.099C0.041,-0.112 0.042,-0.126 0.048,-0.138C0.054,-0.151 0.066,-0.159 0.079,-0.161C0.079,-0.162 0.08,-0.163 0.081,-0.163C0.101,-0.166 0.12,-0.154 0.127,-0.135C0.133,-0.116 0.144,-0.1 0.158,-0.088C0.181,-0.07 0.212,-0.061 0.252,-0.061C0.292,-0.061 0.322,-0.069 0.342,-0.085C0.361,-0.102 0.371,-0.121 0.371,-0.143C0.371,-0.163 0.362,-0.179 0.345,-0.19C0.333,-0.198 0.303,-0.208 0.255,-0.22C0.191,-0.236 0.146,-0.25 0.121,-0.262C0.096,-0.274 0.078,-0.29 0.065,-0.311C0.052,-0.332 0.045,-0.355 0.045,-0.381C0.045,-0.404 0.051,-0.425 0.061,-0.445C0.072,-0.465 0.086,-0.481 0.104,-0.494C0.118,-0.504 0.137,-0.513 0.16,-0.52C0.184,-0.527 0.209,-0.53 0.236,-0.53C0.277,-0.53 0.313,-0.524 0.344,-0.513C0.374,-0.501 0.397,-0.485 0.412,-0.465C0.416,-0.459 0.42,-0.452 0.424,-0.444C0.431,-0.432 0.431,-0.416 0.425,-0.403C0.418,-0.389 0.406,-0.38 0.392,-0.379C0.392,-0.378 0.391,-0.378 0.39,-0.378C0.372,-0.375 0.354,-0.385 0.346,-0.403C0.341,-0.416 0.333,-0.427 0.322,-0.436C0.303,-0.451 0.277,-0.458 0.243,-0.458C0.202,-0.458 0.174,-0.451 0.156,-0.438C0.139,-0.425 0.13,-0.409 0.13,-0.391C0.13,-0.38 0.134,-0.369 0.141,-0.36C0.148,-0.351 0.16,-0.343 0.175,-0.337C0.184,-0.334 0.209,-0.326 0.252,-0.314C0.315,-0.298 0.358,-0.284 0.383,-0.274C0.407,-0.263 0.426,-0.248 0.44,-0.228C0.454,-0.207 0.461,-0.182 0.461,-0.152C0.461,-0.123 0.453,-0.095 0.436,-0.07C0.419,-0.044 0.394,-0.024 0.362,-0.01C0.33,0.005 0.293,0.012 0.252,0.012C0.185,0.012 0.134,-0.002 0.098,-0.03C0.076,-0.048 0.059,-0.071 0.047,-0.099Z" style="fill-rule:nonzero;"/>
            </g>
            <g transform="matrix(0.75,0,0,1,-647.25,290)">
                <path d="M889,23.75C889,23.336 888.552,23 888,23C887.448,23 887,23.336 887,23.75L887,25.25C887,25.664 887.448,26 888,26C888.552,26 889,25.664 889,25.25L889,23.75Z"/>
            </g>
            <g transform="matrix(1,0,-0.176327,1,56.5206,0)">
                <path d="M15,317L15,315.5C15,315.224 15.224,315 15.5,315C15.776,315 16,315.224 16,315.5L16,317L17.5,317C17.776,317 18,317.224 18,317.5C18,317.776 17.776,318 17.5,318L16,318L16,320L17.5,320C17.776,320 18,320.224 18,320.5C18,320.776 17.776,321 17.5,321L16,321L16,322.5C16,322.776 15.776,323 15.5,323C15.224,323 15,322.776 15,322.5L15,321L13,321L13,322.5C13,322.776 12.776,323 12.5,323C12.224,323 12,322.776 12,322.5L12,321L10.5,321C10.224,321 10,320.776 10,320.5C10,320.224 10.224,320 10.5,320L12,320L12,318L10.5,318C10.224,318 10,317.776 10,317.5C10,317.224 10.224,317 10.5,317L12,317L12,315.5C12,315.224 12.224,315 12.5,315C12.776,315 13,315.224 13,315.5L13,317L15,317ZM13,318L13,320L15,320L15,318L13,318Z"/>
            </g>
        </g>
    </g>
</svg>
