<?xml version="1.0" encoding="UTF-8" standalone="no"?>
<!DOCTYPE svg PUBLIC "-//W3C//DTD SVG 1.1//EN" "http://www.w3.org/Graphics/SVG/1.1/DTD/svg11.dtd">
<svg width="16px" height="16px" version="1.1" xmlns="http://www.w3.org/2000/svg" xmlns:xlink="http://www.w3.org/1999/xlink" xml:space="preserve" xmlns:serif="http://www.serif.com/" style="fill-rule:evenodd;clip-rule:evenodd;stroke-linejoin:round;stroke-miterlimit:2;">
    <g transform="matrix(1,0,0,1,-30,-150)">
        <g id="opentoonz">
            <g id="bg" transform="matrix(0.110345,0,0,0.121212,13.7793,131.091)">
                <rect x="147" y="156" width="145" height="132" style="fill:rgb(135,135,135);fill-opacity:0;"/>
            </g>
            <path d="M41,166L31,166C30.448,166 30,165.552 30,165C30,162.127 30,153.873 30,151C30,150.448 30.448,150 31,150L45,150C45.265,150 45.52,150.105 45.707,150.293C45.895,150.48 46,150.735 46,151L46,156L39.583,156C38.811,154.235 37.049,153 35,153C32.24,153 30,155.24 30,158C30,160.76 32.24,163 35,163C37.76,163 40,160.76 40,158L41,158L41,166ZM42,162L46,162L42,166L42,162ZM46,161L43,161L43,158L46,158L46,161ZM35,155C36.656,155 38,156.344 38,158C38,159.656 36.656,161 35,161C33.344,161 32,159.656 32,158C32,156.344 33.344,155 35,155ZM44.5,151L42.5,151C42.224,151 42,151.224 42,151.5C42,151.776 42.224,152 42.5,152L44.5,152C44.776,152 45,151.776 45,151.5C45,151.224 44.776,151 44.5,151ZM33.5,151L31.5,151C31.224,151 31,151.224 31,151.5C31,151.776 31.224,152 31.5,152L33.5,152C33.776,152 34,151.776 34,151.5C34,151.224 33.776,151 33.5,151ZM38.5,151L37.5,151C37.224,151 37,151.224 37,151.5C37,151.776 37.224,152 37.5,152L38.5,152C38.776,152 39,151.776 39,151.5C39,151.224 38.776,151 38.5,151Z"/>
        </g>
    </g>
</svg>
