<?xml version="1.0" encoding="UTF-8" standalone="no"?>
<!DOCTYPE svg PUBLIC "-//W3C//DTD SVG 1.1//EN" "http://www.w3.org/Graphics/SVG/1.1/DTD/svg11.dtd">
<svg width="16px" height="16px" version="1.1" xmlns="http://www.w3.org/2000/svg" xmlns:xlink="http://www.w3.org/1999/xlink" xml:space="preserve" xmlns:serif="http://www.serif.com/" style="fill-rule:evenodd;clip-rule:evenodd;stroke-linejoin:round;stroke-miterlimit:2;">
    <g transform="matrix(1,0,0,1,-210,-290)">
        <g id="output" transform="matrix(1,0,0,1,180,-60)">
            <g id="bg" transform="matrix(0.110345,0,0,0.121212,13.7793,331.091)">
                <rect x="147" y="156" width="145" height="132" style="fill:rgb(135,135,135);fill-opacity:0;"/>
            </g>
            <g transform="matrix(1,0,0,1,28,348)">
                <path d="M9,8L9,3.5C9,3.224 9.224,3 9.5,3L13.5,3C13.776,3 14,3.224 14,3.5L14,4.5C14,4.776 13.776,5 13.5,5L11,5L11,15L13.5,15C13.776,15 14,15.224 14,15.5L14,16.5C14,16.776 13.776,17 13.5,17L9.5,17C9.224,17 9,16.776 9,16.5L9,12L6,12L6,8L9,8ZM7,9L7,11L9,11L9,9L7,9Z"/>
            </g>
        </g>
    </g>
</svg>
