<?xml version="1.0" encoding="UTF-8" standalone="no"?>
<!DOCTYPE svg PUBLIC "-//W3C//DTD SVG 1.1//EN" "http://www.w3.org/Graphics/SVG/1.1/DTD/svg11.dtd">
<svg width="100%" height="100%" viewBox="0 0 16 16" version="1.1" xmlns="http://www.w3.org/2000/svg" xmlns:xlink="http://www.w3.org/1999/xlink" xml:space="preserve" xmlns:serif="http://www.serif.com/" style="fill-rule:evenodd;clip-rule:evenodd;stroke-linejoin:round;stroke-miterlimit:2;">
    <g id="output_settings">
        <rect id="bg" x="0.014" y="-0.01" width="16" height="16" style="fill:#878787;fill-opacity:0;"/>
        <path d="M11.976,7.015c-0.316,-0.033 -0.636,-0.033 -0.952,0c-0.151,0.504 -0.273,1.015 -0.366,1.533c-0.224,0.064 -0.439,0.153 -0.643,0.266c-0.432,-0.3 -0.879,-0.575 -1.342,-0.825c-0.248,0.2 -0.474,0.426 -0.674,0.674c0.25,0.463 0.525,0.91 0.825,1.342c-0.113,0.204 -0.202,0.419 -0.266,0.643c-0.518,0.093 -1.029,0.215 -1.533,0.366c-0.033,0.316 -0.033,0.636 0,0.952c0.504,0.151 1.015,0.273 1.533,0.366c0.064,0.224 0.153,0.439 0.266,0.643c-0.3,0.432 -0.575,0.879 -0.825,1.342c0.2,0.248 0.426,0.474 0.674,0.674c0.463,-0.25 0.91,-0.525 1.342,-0.825c0.204,0.113 0.419,0.202 0.643,0.266c0.093,0.518 0.215,1.029 0.366,1.533c0.316,0.033 0.636,0.033 0.952,-0c0.151,-0.504 0.273,-1.015 0.366,-1.533c0.224,-0.064 0.439,-0.153 0.643,-0.266c0.432,0.3 0.879,0.575 1.342,0.825c0.248,-0.2 0.474,-0.426 0.674,-0.674c-0.25,-0.463 -0.525,-0.91 -0.825,-1.342c0.113,-0.204 0.202,-0.419 0.266,-0.643c0.518,-0.093 1.029,-0.215 1.533,-0.366c0.033,-0.316 0.033,-0.636 -0,-0.952c-0.504,-0.151 -1.015,-0.273 -1.533,-0.366c-0.064,-0.224 -0.153,-0.439 -0.266,-0.643c0.3,-0.432 0.575,-0.879 0.825,-1.342c-0.2,-0.248 -0.426,-0.474 -0.674,-0.674c-0.463,0.25 -0.91,0.525 -1.342,0.825c-0.204,-0.113 -0.419,-0.202 -0.643,-0.266c-0.093,-0.518 -0.215,-1.029 -0.366,-1.533Zm-0.476,2.585c1.043,0 1.89,0.847 1.89,1.89c-0,1.043 -0.847,1.89 -1.89,1.89c-1.043,0 -1.89,-0.847 -1.89,-1.89c0,-1.043 0.847,-1.89 1.89,-1.89Z"/>
        <path d="M6.399,9.99l-5.385,0c-0.551,0 -1,-0.448 -1,-1l0,-7c0,-0.552 0.449,-1 1,-1l9,0c0.552,0 1,0.448 1,1l0,3.821c-0.039,0.003 -0.078,0.007 -0.117,0.011c-0.481,0.051 -0.884,0.386 -1.023,0.849c-0.053,0.177 -0.103,0.355 -0.149,0.534c-0.159,-0.094 -0.32,-0.184 -0.483,-0.272c-0.425,-0.23 -0.947,-0.181 -1.323,0.123c-0.314,0.253 -0.6,0.539 -0.853,0.853c-0.304,0.376 -0.353,0.898 -0.123,1.323c0.088,0.163 0.178,0.324 0.272,0.483c-0.179,0.046 -0.357,0.096 -0.534,0.149c-0.1,0.03 -0.195,0.073 -0.282,0.126Zm5.616,-4.177l-0,-1.823c0.265,0 0.52,0.105 0.707,0.293c0.187,0.187 0.292,0.441 0.292,0.706l0,1.424c-0.189,-0.326 -0.525,-0.55 -0.911,-0.591c-0.029,-0.003 -0.059,-0.006 -0.088,-0.009Zm1.999,1.018l0,-0.841c0.553,0 1,0.448 1,1l0,0.015c-0.293,-0.205 -0.66,-0.266 -1,-0.174Zm-7.169,7.159l-1.831,0c-0.552,-0 -1,-0.448 -1,-1l2.385,0c0.087,0.053 0.182,0.096 0.282,0.126c0.177,0.053 0.355,0.103 0.534,0.149c-0.094,0.159 -0.184,0.32 -0.272,0.483c-0.042,0.078 -0.075,0.159 -0.098,0.242Zm-1.023,-2l-2.808,0c-0.552,-0 -1,-0.448 -1,-1l3.808,0c-0.029,0.333 -0.029,0.667 -0,1Zm2.021,-6.927l-4.05,-2.578c-0.156,-0.099 -0.354,-0.105 -0.516,-0.016c-0.162,0.089 -0.263,0.259 -0.263,0.444l0,5.154c0,0.185 0.101,0.355 0.263,0.444c0.162,0.089 0.36,0.083 0.516,-0.016l4.05,-2.578c0.146,-0.093 0.234,-0.254 0.234,-0.427c0,-0.173 -0.088,-0.334 -0.234,-0.427Z"/>
    </g>
</svg>
