<?xml version="1.0" encoding="UTF-8" standalone="no"?>
<!DOCTYPE svg PUBLIC "-//W3C//DTD SVG 1.1//EN" "http://www.w3.org/Graphics/SVG/1.1/DTD/svg11.dtd">
<svg width="16px" height="16px" version="1.1" xmlns="http://www.w3.org/2000/svg" xmlns:xlink="http://www.w3.org/1999/xlink" xml:space="preserve" xmlns:serif="http://www.serif.com/" style="fill-rule:evenodd;clip-rule:evenodd;stroke-linejoin:round;stroke-miterlimit:2;">
    <g transform="matrix(1,0,0,1,-70,-510)">
        <g id="output_settings" transform="matrix(1,0,0,1,-0.000385861,80)">
            <g id="bg" transform="matrix(0.110345,0,0,0.121212,53.7793,411.091)">
                <rect x="147" y="156" width="145" height="132" style="fill:rgb(135,135,135);fill-opacity:0;"/>
            </g>
            <path d="M79.001,438C78.601,438.3 78.249,438.657 77.955,439.062C77.737,439.362 77.703,439.757 77.866,440.09C77.909,440.177 77.954,440.261 78.001,440.344C77.909,440.369 77.817,440.397 77.726,440.428C77.375,440.548 77.119,440.852 77.062,441.218C76.979,441.736 76.979,442.265 77.062,442.782C77.119,443.149 77.375,443.452 77.726,443.572C77.817,443.604 77.909,443.632 78.001,443.657C77.954,443.739 77.909,443.824 77.866,443.91C77.703,444.243 77.737,444.638 77.955,444.939C77.97,444.959 77.985,444.98 78,445L71,445L71,438L79.001,438ZM74.502,439L75.388,440.614L77.002,441.5L75.388,442.386L74.502,444L73.616,442.386L72.002,441.5L73.616,440.614L74.502,439ZM71,437L71,436.037C70.985,435.208 71.491,434.422 72.313,434.122L74.75,433.23L74.75,435.36L73,436L85,436L85,437L71,437ZM77.75,434.263L76.25,434.811L76.25,432.682L77.75,432.133L77.75,434.263ZM80.75,433.166L79.25,433.714L79.25,431.585L80.75,431.036L80.75,433.166ZM82.25,430.488L83.583,430L84.27,431.878L82.25,432.617L82.25,430.488Z"/>
            <g id="cog" transform="matrix(0.571444,0,0,0.571444,-102.005,413.428)">
                <path d="M323.095,43.086C322.37,42.971 321.63,42.971 320.905,43.086C320.699,43.689 320.589,44.31 320.575,44.947C320.178,45.059 319.795,45.218 319.435,45.419C318.974,44.979 318.458,44.618 317.886,44.337C317.291,44.769 316.769,45.291 316.337,45.886C316.618,46.458 316.979,46.974 317.419,47.435C317.218,47.795 317.059,48.178 316.947,48.575C316.31,48.589 315.689,48.699 315.086,48.905C314.971,49.63 314.971,50.37 315.086,51.095C315.689,51.301 316.31,51.411 316.947,51.425C317.059,51.822 317.218,52.205 317.419,52.565C316.979,53.026 316.618,53.542 316.337,54.114C316.769,54.709 317.291,55.231 317.886,55.663C318.458,55.382 318.974,55.021 319.435,54.581C319.795,54.782 320.178,54.941 320.575,55.053C320.589,55.69 320.699,56.311 320.905,56.914C321.63,57.029 322.37,57.029 323.095,56.914C323.301,56.311 323.411,55.69 323.425,55.053C323.822,54.941 324.205,54.782 324.565,54.581C325.026,55.021 325.542,55.382 326.114,55.663C326.709,55.231 327.231,54.709 327.663,54.114C327.382,53.542 327.021,53.026 326.581,52.565C326.782,52.205 326.941,51.822 327.053,51.425C327.69,51.411 328.311,51.301 328.914,51.095C329.029,50.37 329.029,49.63 328.914,48.905C328.311,48.699 327.69,48.589 327.053,48.575C326.941,48.178 326.782,47.795 326.581,47.435C327.021,46.974 327.382,46.458 327.663,45.886C327.231,45.291 326.709,44.769 326.114,44.337C325.542,44.618 325.026,44.979 324.565,45.419C324.205,45.218 323.822,45.059 323.425,44.947C323.411,44.31 323.301,43.689 323.095,43.086ZM322,46.53C323.915,46.53 325.47,48.085 325.47,50C325.47,51.915 323.915,53.47 322,53.47C320.085,53.47 318.53,51.915 318.53,50C318.53,48.085 320.085,46.53 322,46.53Z"/>
            </g>
        </g>
    </g>
</svg>
