<?xml version="1.0" encoding="UTF-8" standalone="no"?>
<!DOCTYPE svg PUBLIC "-//W3C//DTD SVG 1.1//EN" "http://www.w3.org/Graphics/SVG/1.1/DTD/svg11.dtd">
<svg width="16px" height="16px" version="1.1" xmlns="http://www.w3.org/2000/svg" xmlns:xlink="http://www.w3.org/1999/xlink" xml:space="preserve" xmlns:serif="http://www.serif.com/" style="fill-rule:evenodd;clip-rule:evenodd;stroke-linejoin:round;stroke-miterlimit:2;">
    <g transform="matrix(1,0,0,1,-190,-350)">
        <g id="paint_check" transform="matrix(1,0,0,1,140,-180)">
            <g id="bg" transform="matrix(0.110345,0,0,0.121212,33.7793,511.091)">
                <rect x="147" y="156" width="145" height="132" style="fill:rgb(135,135,135);fill-opacity:0;"/>
            </g>
            <g transform="matrix(0.836128,0,0,0.836128,56.7581,538.602)">
                <path d="M4.447,7.401L10.033,1.845C10.268,1.611 10.648,1.612 10.881,1.847C11.115,2.082 11.114,2.462 10.879,2.695L4.867,8.675C4.754,8.788 4.601,8.851 4.442,8.85C4.283,8.849 4.13,8.786 4.018,8.672L0.462,5.084C0.229,4.849 0.23,4.469 0.466,4.236C0.701,4.003 1.081,4.004 1.314,4.24L4.447,7.401Z"/>
            </g>
            <g transform="matrix(1,0,0,1,-140,180)">
                <path d="M197.428,365.98C194.442,365.769 191.908,363.915 190.735,361.313L190.72,361.28C190.252,360.283 190,359.171 190,358C190,353.585 193.585,350 198,350L198.027,350C199.188,350.004 200.291,350.256 201.28,350.72C204.065,351.96 206,354.756 206,358C206,358.016 206,358.032 206,358.048C205.67,357.982 205.33,357.982 205,358.049C205,358.033 205,358.016 205,358C205,356.071 204.218,354.323 202.951,353.061C202.984,353.369 203,353.683 203,354C203,356.856 201.666,359.404 199.588,361.053L199.277,360.739C198.308,359.757 196.722,359.751 195.741,360.722C195.133,361.323 194.899,362.159 195.038,362.941C194.697,362.98 194.351,363 194,363C193.683,363 193.369,362.984 193.061,362.951C193.923,363.817 195.013,364.457 196.233,364.775L197.428,365.98ZM196.882,352.33C197.487,352.939 196.984,354.422 195.759,355.64C194.534,356.858 193.048,357.353 192.443,356.745C191.838,356.136 192.341,354.653 193.566,353.435C194.791,352.217 196.277,351.722 196.882,352.33Z"/>
            </g>
        </g>
    </g>
</svg>
