<?xml version="1.0" encoding="UTF-8" standalone="no"?>
<!DOCTYPE svg PUBLIC "-//W3C//DTD SVG 1.1//EN" "http://www.w3.org/Graphics/SVG/1.1/DTD/svg11.dtd">
<svg width="100%" height="100%" viewBox="0 0 16 16" version="1.1" xmlns="http://www.w3.org/2000/svg" xmlns:xlink="http://www.w3.org/1999/xlink" xml:space="preserve" xmlns:serif="http://www.serif.com/" style="fill-rule:evenodd;clip-rule:evenodd;stroke-linejoin:round;stroke-miterlimit:2;">
    <g id="paste_into">
        <rect id="bg" x="-0" y="-0.004" width="16" height="16" style="fill:#878787;fill-opacity:0;"/>
        <path d="M9,0.996l-0,1c-0,0.552 -0.448,1 -1,1l-4,-0c-0.552,-0 -1,-0.448 -1,-1l-0,-1c0,-0.553 0.448,-1 1,-1l4,-0c0.552,-0 1,0.447 1,1Zm-1,-0l-4,-0l-0,1l4,-0l-0,-1Z"/>
        <path d="M10,14.996l-9,-0c-0.552,-0 -1,-0.448 -1,-1l0,-12c0,-0.553 0.448,-1 1,-1l3,-0l0,1l-3,-0l0,12l10,-0l-1,1Zm1,-7.121l0,-5.879l-3,-0l0,-1l3,-0c0.552,-0 1,0.447 1,1l0,6.879l-1,-1Z"/>
        <path id="cell_down_arrow" d="M13.879,13.167c-0,0 -4.761,-4.759 -6.052,-6.05c-0.179,-0.179 -0.466,-0.184 -0.651,-0.012c-0.015,0.014 -0.03,0.029 -0.045,0.043c-0.093,0.087 -0.147,0.207 -0.149,0.334c-0.003,0.127 0.047,0.25 0.137,0.34c1.327,1.327 6.053,6.052 6.053,6.052l-2.122,2.122l4.95,-0l-0,-4.95l-2.121,2.121Z"/>
    </g>
</svg>
