<?xml version="1.0" encoding="UTF-8" standalone="no"?>
<!DOCTYPE svg PUBLIC "-//W3C//DTD SVG 1.1//EN" "http://www.w3.org/Graphics/SVG/1.1/DTD/svg11.dtd">
<svg width="100%" height="100%" viewBox="0 0 16 16" version="1.1" xmlns="http://www.w3.org/2000/svg" xmlns:xlink="http://www.w3.org/1999/xlink" xml:space="preserve" xmlns:serif="http://www.serif.com/" style="fill-rule:evenodd;clip-rule:evenodd;stroke-linejoin:round;stroke-miterlimit:2;">
    <g id="paste_color">
        <rect id="bg" x="-0.04" y="-0.004" width="16" height="16" style="fill:#878787;fill-opacity:0;"/>
        <circle cx="10.5" cy="8.496" r="3.5"/>
        <path d="M14.624,9.715c0.836,0.64 1.376,1.648 1.376,2.781c0,1.931 -1.568,3.5 -3.5,3.5c-1.921,-0 -3.483,-1.552 -3.5,-3.47c0.467,0.175 0.973,0.27 1.5,0.27c1.95,-0 3.598,-1.301 4.124,-3.081Z" style="fill-opacity:0.5;"/>
        <path d="M9.721,15.776c-0.38,0.142 -0.791,0.22 -1.221,0.22c-1.932,-0 -3.5,-1.569 -3.5,-3.5c-0,-1.133 0.54,-2.141 1.376,-2.781c0.307,1.039 0.996,1.914 1.904,2.463c-0.053,0.109 -0.081,0.231 -0.08,0.355c0.011,1.299 0.6,2.462 1.521,3.243Z" style="fill-opacity:0.5;"/>
        <path d="M4.759,14.996l-3.799,-0c-0.553,-0 -1,-0.448 -1,-1l-0,-12c-0,-0.553 0.447,-1 1,-1l2,-0c-0,-0.553 0.447,-1 1,-1l4,-0c0.552,-0 1,0.447 1,1l2,-0c0.552,-0 1,0.447 1,1l-0,2.242c-0.319,-0.109 -0.654,-0.184 -1,-0.219l-0,-2.023l-2,-0l-0.001,0.013c-0.006,0.546 -0.451,0.987 -0.999,0.987l-4,-0c-0.553,-0 -1,-0.448 -1,-1l-2,-0l-0,12l3.296,-0c0.126,0.356 0.296,0.691 0.503,1Zm3.201,-14l-4,-0l-0,1l4,-0l-0,-1Z"/>
    </g>
</svg>
