<?xml version="1.0" encoding="UTF-8" standalone="no"?>
<!DOCTYPE svg PUBLIC "-//W3C//DTD SVG 1.1//EN" "http://www.w3.org/Graphics/SVG/1.1/DTD/svg11.dtd">
<svg width="16px" height="16px" version="1.1" xmlns="http://www.w3.org/2000/svg" xmlns:xlink="http://www.w3.org/1999/xlink" xml:space="preserve" xmlns:serif="http://www.serif.com/" style="fill-rule:evenodd;clip-rule:evenodd;stroke-linejoin:round;stroke-miterlimit:2;">
    <g transform="matrix(1,0,0,1,-90,-510)">
        <g id="paste_into" transform="matrix(1,0,0,1,0,40)">
            <g id="bg" transform="matrix(0.110345,0,0,0.121212,73.7797,451.091)">
                <rect x="147" y="156" width="145" height="132" style="fill:rgb(135,135,135);fill-opacity:0;"/>
            </g>
            <g transform="matrix(1,0,0,1,0,-40)">
                <path d="M98,525L98,524L92,524L92,512L94,512C94,512.552 94.448,513 95,513L99,513C99.548,513 99.993,512.559 100,512.013L100,512C100,512 102,512 102,512L102,514L103,514L103,512C103,511.448 102.552,511 102,511L100,511C100,510.448 99.552,510 99,510L95,510C94.448,510 94,510.448 94,511L92,511C91.448,511 91,511.448 91,512L91,524C91,524.552 91.448,525 92,525L98,525ZM99,511L95,511L95,512L99,512L99,511Z"/>
            </g>
            <g transform="matrix(1,0,0,-1,-1.00038,1000.01)">
                <path d="M103.999,523.01L103.999,523.02C103.999,523.548 103.79,524.054 103.417,524.427C103.044,524.8 102.538,525.01 102.01,525.01L96,525.01L96,524.01L102.045,524.01C102.573,524.01 103,523.583 103,523.055C103,521.362 103,522.01 103,522.01L101,522.01L103.5,519.51L106,522.01L104,522.01L103.999,523.01Z"/>
            </g>
            <g transform="matrix(1,0,0,1,0,-40)">
                <path d="M105.013,520L103.349,521.664C102.88,522.133 102.12,522.133 101.651,521.664L99.987,520L99.6,520C99.269,520 99,520.336 99,520.75L99,525.25C99,525.664 99.269,526 99.6,526L105.4,526C105.731,526 106,525.664 106,525.25L106,520.75C106,520.336 105.731,520 105.4,520L105.013,520Z"/>
            </g>
        </g>
    </g>
</svg>
