<?xml version="1.0" encoding="UTF-8" standalone="no"?>
<!DOCTYPE svg PUBLIC "-//W3C//DTD SVG 1.1//EN" "http://www.w3.org/Graphics/SVG/1.1/DTD/svg11.dtd">
<svg width="100%" height="100%" viewBox="0 0 16 16" version="1.1" xmlns="http://www.w3.org/2000/svg" xmlns:xlink="http://www.w3.org/1999/xlink" xml:space="preserve" xmlns:serif="http://www.serif.com/" style="fill-rule:evenodd;clip-rule:evenodd;stroke-linejoin:round;stroke-miterlimit:2;">
    <g id="paste_name">
        <rect id="bg" x="0.042" y="-0.004" width="16" height="16" style="fill:#878787;fill-opacity:0;"/>
        <path d="M14.006,15.121c-0.674,0.499 -1.57,0.879 -3.003,0.879c-1.555,0 -2.651,-0.277 -3.29,-0.932c-0.456,-0.468 -0.713,-1.131 -0.713,-2.072c0,-0.745 0.141,-1.668 0.807,-2.297c0.443,-0.418 1.124,-0.724 2.193,-0.724c1.94,-0 3.893,0.034 4.004,0.036c0.001,-0.298 0.002,-0.64 0.001,-0.987c-0.067,-0.467 -0.365,-0.997 -1.284,-1.613c-0.735,-0.493 -1.939,-0.521 -2.66,-0.432c-0.006,0.001 -0.013,0.002 -0.02,0.002c-0.689,0.057 -1.688,0.536 -2.258,0.927c-0.227,0.156 -0.539,0.098 -0.695,-0.129c-0.156,-0.228 -0.098,-0.539 0.129,-0.696c0.687,-0.471 1.898,-1.026 2.732,-1.098c0.909,-0.11 2.408,-0.023 3.33,0.596c1.312,0.88 1.642,1.692 1.723,2.354c0.003,0.02 0.004,0.04 0.004,0.061c0,0.991 -0.005,1.952 -0.006,2.001l0.005,4.003l0.492,0c0.276,-0 0.5,0.224 0.5,0.5c0,0.276 -0.224,0.5 -0.5,0.5l-0.991,-0c-0.276,0 -0.5,-0.224 -0.5,-0.5l-0,-0.379Zm-0.006,-4.11c-0.003,0 -0.006,0 -0.009,0c-0,0 -2.003,-0.036 -3.991,-0.036c-0.728,-0 -1.205,0.167 -1.507,0.452c-0.45,0.424 -0.493,1.066 -0.493,1.569c0,0.618 0.129,1.066 0.429,1.374c0.495,0.507 1.369,0.63 2.574,0.63c1.608,0 2.384,-0.591 3.001,-1.208l-0.004,-2.781Z"/>
        <path d="M12.042,4.074c-0.338,-0.056 -0.676,-0.091 -1,-0.109l-0,-1.969l-2,-0l-0,0.013c-0.007,0.546 -0.452,0.987 -1,0.987l-4,-0c-0.552,-0 -1,-0.448 -1,-1l-2,-0l-0,12l4.033,-0c0.058,0.364 0.147,0.696 0.264,1l-4.297,-0c-0.552,-0 -1,-0.448 -1,-1l-0,-12c-0,-0.553 0.448,-1 1,-1l2,-0c-0,-0.553 0.448,-1 1,-1l4,-0c0.552,-0 1,0.447 1,1l2,-0c0.552,-0 1,0.447 1,1l-0,2.078Zm-4,-3.078l-4,-0l-0,1l4,-0l-0,-1Z"/>
    </g>
</svg>
