<?xml version="1.0" encoding="UTF-8" standalone="no"?>
<!DOCTYPE svg PUBLIC "-//W3C//DTD SVG 1.1//EN" "http://www.w3.org/Graphics/SVG/1.1/DTD/svg11.dtd">
<svg width="100%" height="100%" viewBox="0 0 16 16" version="1.1" xmlns="http://www.w3.org/2000/svg" xmlns:xlink="http://www.w3.org/1999/xlink" xml:space="preserve" xmlns:serif="http://www.serif.com/" style="fill-rule:evenodd;clip-rule:evenodd;stroke-linejoin:round;stroke-miterlimit:2;">
    <g id="paste_color_and_name">
        <rect id="bg" x="-0.083" y="-0.004" width="16" height="16" style="fill:#878787;fill-opacity:0;"/>
        <path d="M8.917,0.996l0,1c0,0.552 -0.447,1 -1,1l-4,-0c-0.552,-0 -1,-0.448 -1,-1l0,-1c0,-0.553 0.448,-1 1,-1l4,-0c0.553,-0 1,0.447 1,1Zm-1,-0l-4,-0l0,1l4,-0l0,-1Z"/>
        <circle cx="11.5" cy="9.859" r="2.864"/>
        <path d="M14.997,10.956c0.614,0.525 1.003,1.305 1.003,2.176c0,1.581 -1.283,2.864 -2.864,2.864c-1.519,-0 -2.764,-1.186 -2.858,-2.682c0.383,0.135 0.794,0.209 1.222,0.209c1.64,-0 3.03,-1.08 3.497,-2.567Z" style="fill-opacity:0.5;"/>
        <path d="M10.704,15.87c-0.266,0.082 -0.548,0.126 -0.84,0.126c-1.581,-0 -2.864,-1.283 -2.864,-2.864c-0,-0.871 0.389,-1.651 1.003,-2.176c0.264,0.84 0.823,1.551 1.555,2.01c-0.059,0.122 -0.087,0.259 -0.078,0.398c0.063,0.995 0.523,1.883 1.224,2.506Z" style="fill-opacity:0.5;"/>
        <path d="M6.171,11.991c-0.058,0.005 -0.117,0.008 -0.177,0.009l-0.003,0c-0.476,0.006 -1.004,-0.009 -1.468,-0.123c-0.508,-0.126 -0.94,-0.371 -1.215,-0.779c-0.184,-0.275 -0.302,-0.628 -0.304,-1.088l0,-0.002c0,-1.073 0.65,-1.587 1.306,-1.827c0.523,-0.192 1.047,-0.191 1.146,-0.189l0.004,-0l2.527,-0.001c0.001,-0.369 0.004,-0.713 0.007,-0.998c0.004,-0.325 -0.251,-0.543 -0.561,-0.704c-0.42,-0.219 -0.963,-0.323 -1.445,-0.318c-1.223,0.013 -2.19,0.907 -2.19,0.907c-0.203,0.187 -0.519,0.174 -0.706,-0.029c-0.187,-0.204 -0.173,-0.52 0.03,-0.707c-0,0 1.263,-1.154 2.855,-1.171c0.778,-0.008 1.669,0.213 2.256,0.638c0.453,0.329 0.739,0.772 0.76,1.311c-0.619,0.529 -1.07,1.251 -1.259,2.071l-2.274,0.001c-0.009,0 -0.018,-0 -0.027,-0.001c-0.097,-0.001 -0.438,0.004 -0.779,0.129c-0.322,0.118 -0.65,0.362 -0.65,0.887c0.001,0.224 0.045,0.399 0.134,0.533c0.138,0.205 0.371,0.303 0.625,0.366c0.383,0.095 0.821,0.099 1.214,0.095c0.266,-0.005 0.526,-0.064 0.769,-0.15c-0.251,0.342 -0.447,0.726 -0.575,1.14Z"/>
        <path d="M11,6.028l-0,-4.032l-3,-0l-0,-1l3,-0c0.552,-0 1,0.447 1,1l-0,4.032c-0.164,-0.021 -0.331,-0.032 -0.5,-0.032c-0.169,-0 -0.336,0.011 -0.5,0.032Zm-4.523,8.963l-5.477,0c-0.265,0 -0.52,-0.105 -0.707,-0.292c-0.188,-0.188 -0.293,-0.442 -0.293,-0.708l-0,-11.995c0,-0.553 0.448,-1 1,-1l3,-0l-0,1l-3,-0l-0,11.995l5.096,0c0.081,0.355 0.21,0.69 0.381,1Z"/>
    </g>
</svg>
