<?xml version="1.0" encoding="UTF-8" standalone="no"?>
<!DOCTYPE svg PUBLIC "-//W3C//DTD SVG 1.1//EN" "http://www.w3.org/Graphics/SVG/1.1/DTD/svg11.dtd">
<svg width="16px" height="16px" version="1.1" xmlns="http://www.w3.org/2000/svg" xmlns:xlink="http://www.w3.org/1999/xlink" xml:space="preserve" xmlns:serif="http://www.serif.com/" style="fill-rule:evenodd;clip-rule:evenodd;stroke-linejoin:round;stroke-miterlimit:2;">
    <g transform="matrix(1,0,0,1,-90,-530)">
        <g id="paste_above_after">
            <g id="bg" transform="matrix(0.110345,0,0,0.121212,73.7797,511.091)">
                <rect x="147" y="156" width="145" height="132" style="fill:rgb(135,135,135);fill-opacity:0;"/>
            </g>
            <g transform="matrix(1,0,0,1,81,531)">
                <path d="M20,6L15,6L17.5,3.5L20,6Z"/>
            </g>
            <g transform="matrix(1,0,0,1,86,529)">
                <path d="M17,15L17,10L19.5,12.5L17,15Z"/>
            </g>
            <path d="M96,545L96,544L92,544L92,532L94,532C94,532.552 94.448,533 95,533L99,533C99.548,533 99.993,532.559 100,532.013L100,532C100,532 102,532 102,532L102,536.303L102.849,537.151C102.906,537.209 102.956,537.271 103,537.337L103,532C103,531.448 102.552,531 102,531L100,531C100,530.448 99.552,530 99,530L95,530C94.448,530 94,530.448 94,531L92,531C91.448,531 91,531.448 91,532L91,544C91,544.552 91.448,545 92,545L96,545ZM99,531L95,531L95,532L99,532L99,531Z"/>
            <path d="M102,539C102,538.735 101.895,538.48 101.707,538.293C101.52,538.105 101.265,538 101,538L96,538C95.735,538 95.48,538.105 95.293,538.293C95.105,538.48 95,538.735 95,539L95,545L101,545C101.265,545 101.52,544.895 101.707,544.707C101.895,544.52 102,544.265 102,544L102,539ZM100,543.5C100,543.224 99.776,543 99.5,543C98.945,543 98.055,543 97.5,543C97.224,543 97,543.224 97,543.5C97,543.776 97.224,544 97.5,544C98.055,544 98.945,544 99.5,544C99.776,544 100,543.776 100,543.5ZM100,541.5C100,541.367 99.947,541.24 99.854,541.146C99.76,541.053 99.633,541 99.5,541C98.945,541 98.055,541 97.5,541C97.367,541 97.24,541.053 97.146,541.146C97.053,541.24 97,541.367 97,541.5C97,541.633 97.053,541.76 97.146,541.854C97.24,541.947 97.367,542 97.5,542C98.055,542 98.945,542 99.5,542C99.633,542 99.76,541.947 99.854,541.854C99.947,541.76 100,541.633 100,541.5ZM100,539.5C100,539.367 99.947,539.24 99.854,539.146C99.76,539.053 99.633,539 99.5,539C98.945,539 98.055,539 97.5,539C97.367,539 97.24,539.053 97.146,539.146C97.053,539.24 97,539.367 97,539.5C97,539.633 97.053,539.76 97.146,539.854C97.24,539.947 97.367,540 97.5,540C98.055,540 98.945,540 99.5,540C99.633,540 99.76,539.947 99.854,539.854C99.947,539.76 100,539.633 100,539.5Z"/>
        </g>
    </g>
</svg>
