<?xml version="1.0" encoding="UTF-8" standalone="no"?>
<!DOCTYPE svg PUBLIC "-//W3C//DTD SVG 1.1//EN" "http://www.w3.org/Graphics/SVG/1.1/DTD/svg11.dtd">
<svg width="100%" height="100%" viewBox="0 0 16 16" version="1.1" xmlns="http://www.w3.org/2000/svg" xmlns:xlink="http://www.w3.org/1999/xlink" xml:space="preserve" xmlns:serif="http://www.serif.com/" style="fill-rule:evenodd;clip-rule:evenodd;stroke-linejoin:round;stroke-miterlimit:2;">
    <g id="paste_above_after">
        <rect id="bg" x="0" y="-0.004" width="16" height="16" style="fill:#878787;fill-opacity:0;"/>
        <path d="M3.484,14.996l-2.484,-0c-0.552,-0 -1,-0.448 -1,-1l0,-12c0,-0.553 0.448,-1 1,-1l3,-0l0,1l-3,-0l0,12l2.045,-0c0.07,0.361 0.22,0.703 0.439,1Zm7.516,-10.135l0,-2.865l-3,-0l0,-1l3,-0c0.552,-0 1,0.447 1,1l0,1.677c-0.01,0.011 -0.02,0.023 -0.03,0.035l-0.97,1.153Z"/>
        <path d="M9,0.996l0,1c-0,0.552 -0.448,1 -1,1l-4,-0c-0.552,-0 -1,-0.448 -1,-1l0,-1c-0,-0.553 0.448,-1 1,-1l4,-0c0.552,-0 1,0.447 1,1Zm-1,-0l-4,-0l0,1l4,-0l0,-1Z"/>
        <path id="cell_down_arrow" d="M13.001,8.996l-0.001,-1.029l-2,0l2.5,-2.971l2.5,2.971l-2,0l-0,1.529c-0,0.01 -0,0.021 -0,0.031c-0,0.127 -0.052,0.249 -0.143,0.337c-0.091,0.089 -0.215,0.136 -0.342,0.131c-0.005,0 -0.01,0 -0.015,0l-8,0.001c-0.276,-0 -0.5,-0.224 -0.5,-0.5c-0,-0.276 0.224,-0.5 0.5,-0.5l7.501,-0Zm0.027,4l0,-2l2.972,2.5l-2.972,2.5l0,-2l-7.56,-0c-0.127,-0 -0.248,-0.052 -0.337,-0.143c-0.088,-0.092 -0.135,-0.215 -0.131,-0.342l0.002,-0.062c0.009,-0.253 0.216,-0.452 0.468,-0.452l7.558,-0.001Z"/>
    </g>
</svg>
