<?xml version="1.0" encoding="UTF-8" standalone="no"?>
<!DOCTYPE svg PUBLIC "-//W3C//DTD SVG 1.1//EN" "http://www.w3.org/Graphics/SVG/1.1/DTD/svg11.dtd">
<svg width="100%" height="100%" viewBox="0 0 16 16" version="1.1" xmlns="http://www.w3.org/2000/svg" xmlns:xlink="http://www.w3.org/1999/xlink" xml:space="preserve" xmlns:serif="http://www.serif.com/" style="fill-rule:evenodd;clip-rule:evenodd;stroke-linejoin:round;stroke-miterlimit:2;">
    <g id="paste_numbers">
        <rect id="bg" x="0" y="-0.004" width="16" height="16" style="fill:#878787;fill-opacity:0;"/>
        <path d="M9,0.996l0,1c0,0.552 -0.448,1 -1,1l-4,-0c-0.552,-0 -1,-0.448 -1,-1l0,-1c0,-0.553 0.448,-1 1,-1l4,-0c0.552,-0 1,0.447 1,1Zm-1,-0l-4,-0l0,1l4,-0l0,-1Z"/>
        <path d="M6,14.996l-5,-0c-0.552,-0 -1,-0.448 -1,-1l0,-12c0,-0.553 0.448,-1 1,-1l3,-0l0,1l-3,-0l0,12l4,-0c0,0.552 0.448,1 1,1Zm5,-10l0,-3l-3,-0l0,-1l3,-0c0.552,-0 1,0.447 1,1l0,3l-1,-0Z"/>
        <path d="M15,5.996l0,8c0,0.552 -0.448,1 -1,1l-8,-0c-0.552,-0 -1,-0.448 -1,-1l0,-8c0,-0.552 0.448,-1 1,-1l8,-0c0.552,-0 1,0.448 1,1Zm-6.058,6l2,-0l-0.353,2l1,-0l0.353,-2l2,-0l0.176,-1l-2,-0l0.353,-2l2,-0l0.176,-1l-2,-0l0.353,-2l-1,-0l-0.353,2l-2,-0l0.353,-2l-1,-0l-0.353,2l-2,-0l-0.176,1l2,-0l-0.353,2l-2,-0l-0.176,1l2,-0l-0.353,2l1,-0l0.353,-2Zm2.176,-1l-2,-0l0.353,-2l2,-0l-0.353,2Z"/>
    </g>
</svg>
