<?xml version="1.0" encoding="UTF-8" standalone="no"?>
<!DOCTYPE svg PUBLIC "-//W3C//DTD SVG 1.1//EN" "http://www.w3.org/Graphics/SVG/1.1/DTD/svg11.dtd">
<svg width="16px" height="16px" version="1.1" xmlns="http://www.w3.org/2000/svg" xmlns:xlink="http://www.w3.org/1999/xlink" xml:space="preserve" xmlns:serif="http://www.serif.com/" style="fill-rule:evenodd;clip-rule:evenodd;stroke-linejoin:round;stroke-miterlimit:2;">
    <g transform="matrix(1,0,0,1,-90,-470)">
        <g id="paste">
            <g id="bg" transform="matrix(0.110345,0,0,0.121212,73.7797,451.091)">
                <rect x="147" y="156" width="145" height="132" style="fill:rgb(135,135,135);fill-opacity:0;"/>
            </g>
            <g transform="matrix(1,0,0,1,-1,0)">
                <path d="M93,485L105.002,485C105.555,485 106.002,484.552 106.002,484L106.002,477C106.002,476.448 105.555,476 105.002,476L104,476L104,472C104,471.448 103.552,471 103,471L101,471C101,470.448 100.552,470 100,470L96,470C95.448,470 95,470.448 95,471L93,471C92.448,471 92,471.448 92,472L92,484C92,484.552 92.448,485 93,485ZM105.002,484L105.002,477L99,477L99,484L105.002,484ZM103,476L103,472C103,472 101,472 101,472L101,472.013C100.993,472.559 100.548,473 100,473L96,473C95.448,473 95,472.552 95,472L93,472L93,484L98,484L98,477C98,476.448 98.448,476 99,476L103,476ZM100,471L96,471L96,472L100,472L100,471Z"/>
            </g>
            <path d="M104,477L98,477L98,484L104,484L104,477ZM103,482.5C103,482.367 102.947,482.24 102.854,482.146C102.76,482.053 102.633,482 102.5,482L99.5,482C99.367,482 99.24,482.053 99.146,482.146C99.053,482.24 99,482.367 99,482.5C99,482.633 99.053,482.76 99.146,482.854C99.24,482.947 99.367,483 99.5,483L102.5,483C102.633,483 102.76,482.947 102.854,482.854C102.947,482.76 103,482.633 103,482.5ZM103,480.5C103,480.367 102.947,480.24 102.854,480.146C102.76,480.053 102.633,480 102.5,480L99.5,480C99.367,480 99.24,480.053 99.146,480.146C99.053,480.24 99,480.367 99,480.5C99,480.633 99.053,480.76 99.146,480.854C99.24,480.947 99.367,481 99.5,481L102.5,481C102.633,481 102.76,480.947 102.854,480.854C102.947,480.76 103,480.633 103,480.5ZM103,478.5C103,478.367 102.947,478.24 102.854,478.146C102.76,478.053 102.633,478 102.5,478L99.5,478C99.367,478 99.24,478.053 99.146,478.146C99.053,478.24 99,478.367 99,478.5C99,478.633 99.053,478.76 99.146,478.854C99.24,478.947 99.367,479 99.5,479L102.5,479C102.633,479 102.76,478.947 102.854,478.854C102.947,478.76 103,478.633 103,478.5Z"/>
        </g>
    </g>
</svg>
