<?xml version="1.0" encoding="UTF-8" standalone="no"?>
<!DOCTYPE svg PUBLIC "-//W3C//DTD SVG 1.1//EN" "http://www.w3.org/Graphics/SVG/1.1/DTD/svg11.dtd">
<svg width="100%" height="100%" viewBox="0 0 16 16" version="1.1" xmlns="http://www.w3.org/2000/svg" xmlns:xlink="http://www.w3.org/1999/xlink" xml:space="preserve" xmlns:serif="http://www.serif.com/" style="fill-rule:evenodd;clip-rule:evenodd;stroke-linejoin:round;stroke-miterlimit:2;">
    <g id="paste">
        <rect id="bg" x="0" y="-0" width="16" height="16" style="fill:#878787;fill-opacity:0;"/>
        <path d="M9,1l0,1c0,0.552 -0.448,1 -1,1l-4,-0c-0.552,-0 -1,-0.448 -1,-1l0,-1c0,-0.552 0.448,-1 1,-1l4,-0c0.552,-0 1,0.448 1,1Zm-1,-0l-4,-0l0,1l4,-0l0,-1Z"/>
        <path d="M15,7l0,7c0,0.552 -0.448,1 -1,1l-6,-0c-0.552,-0 -1,-0.448 -1,-1l0,-7c0,-0.552 0.448,-1 1,-1l6,-0c0.552,-0 1,0.448 1,1Zm-2,1.5c0,-0.276 -0.224,-0.5 -0.5,-0.5l-3,-0c-0.276,-0 -0.5,0.224 -0.5,0.5c0,0.276 0.224,0.5 0.5,0.5l3,-0c0.276,-0 0.5,-0.224 0.5,-0.5Zm0,2c0,-0.276 -0.224,-0.5 -0.5,-0.5l-3,-0c-0.276,-0 -0.5,0.224 -0.5,0.5c0,0.276 0.224,0.5 0.5,0.5l3,-0c0.276,-0 0.5,-0.224 0.5,-0.5Zm0,2c0,-0.276 -0.224,-0.5 -0.5,-0.5l-3,-0c-0.276,-0 -0.5,0.224 -0.5,0.5c0,0.276 0.224,0.5 0.5,0.5l3,-0c0.276,-0 0.5,-0.224 0.5,-0.5Z"/>
        <path d="M12,13l0,1c0,0.552 -0.448,1 -1,1l-10,-0c-0.552,0 -1,-0.448 -1,-1l0,-12c0,-0.552 0.448,-1 1,-1l3,-0l0,1l-3,-0l0,12l10,-0l0,-1l1,-0Zm-1,-5l0,-6l-3,-0l0,-1l3,-0c0.552,0 1,0.448 1,1l0,6l-1,-0Z"/>
    </g>
</svg>
