<?xml version="1.0" encoding="UTF-8" standalone="no"?>
<!DOCTYPE svg PUBLIC "-//W3C//DTD SVG 1.1//EN" "http://www.w3.org/Graphics/SVG/1.1/DTD/svg11.dtd">
<svg width="16px" height="16px" version="1.1" xmlns="http://www.w3.org/2000/svg" xmlns:xlink="http://www.w3.org/1999/xlink" xml:space="preserve" xmlns:serif="http://www.serif.com/" style="fill-rule:evenodd;clip-rule:evenodd;stroke-linejoin:round;stroke-miterlimit:2;">
    <g transform="matrix(1,0,0,1,-70,-110)">
        <g id="pause">
            <g id="bg" transform="matrix(0.110345,0,0,0.121212,53.7793,91.0909)">
                <rect x="147" y="156" width="145" height="132" style="fill:rgb(135,135,135);fill-opacity:0;"/>
            </g>
            <g transform="matrix(1,0,0,1.2,68,106)">
                <path d="M8,5C8.552,5 9,5.373 9,5.833L9,14.167C9,14.627 8.552,15 8,15L7,15C6.448,15 6,14.627 6,14.167L6,5.833C6,5.373 6.448,5 7,5L8,5ZM13,5C13.552,5 14,5.373 14,5.833L14,14.167C14,14.627 13.552,15 13,15L12,15C11.448,15 11,14.627 11,14.167L11,5.833C11,5.373 11.448,5 12,5L13,5Z"/>
            </g>
        </g>
    </g>
</svg>
