<?xml version="1.0" encoding="UTF-8" standalone="no"?>
<!DOCTYPE svg PUBLIC "-//W3C//DTD SVG 1.1//EN" "http://www.w3.org/Graphics/SVG/1.1/DTD/svg11.dtd">
<svg width="16px" height="16px" version="1.1" xmlns="http://www.w3.org/2000/svg" xmlns:xlink="http://www.w3.org/1999/xlink" xml:space="preserve" xmlns:serif="http://www.serif.com/" style="fill-rule:evenodd;clip-rule:evenodd;stroke-linejoin:round;stroke-miterlimit:2;">
    <g transform="matrix(1,0,0,1,-110,-90)">
        <g id="pickscreen">
            <g id="bg" transform="matrix(0.110345,0,0,0.121212,93.7793,71.0909)">
                <rect x="147" y="156" width="145" height="132" style="fill:rgb(135,135,135);fill-opacity:0;"/>
            </g>
            <g transform="matrix(0.665993,0,0,0.665993,112.668,88.6678)">
                <path d="M11.306,7.176L10.257,6.127L12.373,4.012L13.775,5.414L16.604,2.586C17.384,1.805 18.651,1.805 19.432,2.586C20.213,3.366 20.213,4.633 19.432,5.414L16.604,8.242L18.018,9.657L15.902,11.772L14.842,10.712L6.314,19.24C5.321,20.232 3.713,20.232 2.721,19.24C2.72,19.24 2.72,19.239 2.719,19.239C1.76,18.279 1.759,16.723 2.72,15.762L11.306,7.176ZM12.013,7.883L3.427,16.47C2.858,17.039 2.858,17.961 3.427,18.531C3.428,18.531 3.428,18.532 3.429,18.532C4.03,19.134 5.005,19.134 5.606,18.533L14.134,10.005L12.013,7.883Z"/>
            </g>
            <path d="M118.562,92L111,92C110.448,92 110,92.448 110,93C110,95.577 110,102.423 110,105C110,105.552 110.448,106 111,106L123,106C123.552,106 124,105.552 124,105C124,102.744 124,97.452 124,97.452C123.711,97.679 123.342,97.755 123,97.68L123,105L111,105L111,94.001L117.947,94.001L118.515,93.433C118.375,93.234 118.299,92.995 118.299,92.748C118.299,92.475 118.393,92.211 118.562,92Z"/>
        </g>
    </g>
</svg>
