<?xml version="1.0" encoding="UTF-8" standalone="no"?>
<!DOCTYPE svg PUBLIC "-//W3C//DTD SVG 1.1//EN" "http://www.w3.org/Graphics/SVG/1.1/DTD/svg11.dtd">
<svg width="16px" height="16px" version="1.1" xmlns="http://www.w3.org/2000/svg" xmlns:xlink="http://www.w3.org/1999/xlink" xml:space="preserve" xmlns:serif="http://www.serif.com/" style="fill-rule:evenodd;clip-rule:evenodd;stroke-linejoin:round;stroke-miterlimit:2;">
    <g transform="matrix(1,0,0,1,-70,-130)">
        <g id="play">
            <g id="bg" transform="matrix(0.110345,0,0,0.121212,53.7793,111.091)">
                <rect x="147" y="156" width="145" height="132" style="fill:rgb(135,135,135);fill-opacity:0;"/>
            </g>
            <g transform="matrix(1.34517,0,0,1.29007,64.929,126.389)">
                <path d="M7.109,4.456C6.877,4.308 6.595,4.314 6.367,4.472C6.14,4.629 6,4.915 6,5.224L6,12.776C6,13.085 6.14,13.371 6.367,13.528C6.595,13.686 6.877,13.692 7.109,13.544C8.655,12.561 11.446,10.784 13.043,9.768C13.284,9.615 13.434,9.32 13.434,9C13.434,8.68 13.284,8.385 13.043,8.232C11.446,7.216 8.655,5.439 7.109,4.456Z" style="fill-rule:nonzero;"/>
            </g>
        </g>
    </g>
</svg>
