<?xml version="1.0" encoding="UTF-8" standalone="no"?>
<!DOCTYPE svg PUBLIC "-//W3C//DTD SVG 1.1//EN" "http://www.w3.org/Graphics/SVG/1.1/DTD/svg11.dtd">
<svg width="100%" height="100%" viewBox="0 0 16 16" version="1.1" xmlns="http://www.w3.org/2000/svg" xmlns:xlink="http://www.w3.org/1999/xlink" xml:space="preserve" xmlns:serif="http://www.serif.com/" style="fill-rule:evenodd;clip-rule:evenodd;stroke-linejoin:round;stroke-miterlimit:2;">
    <g id="prev_drawing">
        <rect id="bg" x="0.002" y="-0" width="15.999" height="16" style="fill:#878787;fill-opacity:0;"/>
        <path d="M7.002,10l5,-0l-0,-2l-5,-0l-0,-3l-4,4l4,4l-0,-3Z"/>
        <path d="M7.002,10l-0,3l-4,-4l4,-4l-0,3l5,-0l-0,2l-5,-0Zm-1.405,-0.526c0.066,-0.176 0.164,-0.337 0.287,-0.474c-0.123,-0.137 -0.221,-0.298 -0.287,-0.474l-0.474,0.474l0.474,0.474Z"/>
        <path d="M15.001,1l0,13c0,0.552 -0.447,1 -1,1l-12.999,-0c-0.552,-0 -1,-0.448 -1,-1l0,-13c0,-0.552 0.448,-1 1,-1l12.999,-0c0.553,-0 1,0.448 1,1Zm-1,-0l-12.999,-0l0,13l12.999,-0l0,-13Z"/>
        <path d="M5.002,2.3c0,-0.166 -0.134,-0.3 -0.3,-0.3l-2.4,-0c-0.165,-0 -0.3,0.134 -0.3,0.3l0,0.4c0,0.166 0.135,0.3 0.3,0.3l2.4,-0c0.166,-0 0.3,-0.134 0.3,-0.3l0,-0.4Z"/>
        <path d="M8.502,2.5c-0,-0.133 -0.053,-0.26 -0.147,-0.354c-0.093,-0.093 -0.221,-0.146 -0.353,-0.146l-1,-0c-0.133,-0 -0.26,0.053 -0.354,0.146c-0.093,0.094 -0.146,0.221 -0.146,0.354c-0,0.133 0.053,0.26 0.146,0.354c0.094,0.093 0.221,0.146 0.354,0.146l1,-0c0.132,0 0.26,-0.053 0.353,-0.146c0.094,-0.094 0.147,-0.221 0.147,-0.354Z"/>
        <path d="M13.002,2.3c-0,-0.166 -0.135,-0.3 -0.3,-0.3l-2.4,-0c-0.166,-0 -0.3,0.134 -0.3,0.3l-0,0.4c-0,0.166 0.134,0.3 0.3,0.3l2.4,-0c0.165,-0 0.3,-0.134 0.3,-0.3l-0,-0.4Z"/>
    </g>
</svg>
