<?xml version="1.0" encoding="UTF-8" standalone="no"?>
<!DOCTYPE svg PUBLIC "-//W3C//DTD SVG 1.1//EN" "http://www.w3.org/Graphics/SVG/1.1/DTD/svg11.dtd">
<svg width="16px" height="16px" version="1.1" xmlns="http://www.w3.org/2000/svg" xmlns:xlink="http://www.w3.org/1999/xlink" xml:space="preserve" xmlns:serif="http://www.serif.com/" style="fill-rule:evenodd;clip-rule:evenodd;stroke-linejoin:round;stroke-miterlimit:2;">
    <g transform="matrix(1,0,0,1,-70,-350)">
        <g id="preview_settings" transform="matrix(1,0,0,1,0,20.002)">
            <g id="bg" transform="matrix(0.110345,0,0,0.121212,53.7793,311.089)">
                <rect x="147" y="156" width="145" height="132" style="fill:rgb(135,135,135);fill-opacity:0;"/>
            </g>
            <g id="preview" transform="matrix(1,0,0,1,35,-107)">
                <path d="M35,442.492C35,442.492 37.061,439 40.501,439C43.939,439 46,442.492 46,442.492C46,442.492 43.948,446 40.501,446C37.052,446 35,442.492 35,442.492ZM40.5,440C41.88,440 43,441.12 43,442.5C43,443.88 41.88,445 40.5,445C39.12,445 38,443.88 38,442.5C38,441.12 39.12,440 40.5,440ZM40.5,441.252C41.189,441.252 41.748,441.811 41.748,442.5C41.748,443.189 41.189,443.748 40.5,443.748C39.811,443.748 39.252,443.189 39.252,442.5C39.252,441.811 39.811,441.252 40.5,441.252Z"/>
            </g>
            <g transform="matrix(1,0,0,1,-0.000135,-180)">
                <g id="cog_bg" transform="matrix(0.826922,0,0,0.758004,13.2308,125.016)">
                    <rect x="77" y="517" width="11" height="12" style="fill:rgb(163,97,97);fill-opacity:0;"/>
                </g>
                <path id="cog" d="M82.547,518.143C82.649,518.458 82.703,518.783 82.711,519.115C82.712,519.161 82.742,519.2 82.786,519.213C83.005,519.275 83.217,519.362 83.415,519.473C83.455,519.495 83.505,519.489 83.538,519.458C83.778,519.228 84.046,519.037 84.34,518.886C84.634,519.106 84.894,519.366 85.115,519.659C84.963,519.955 84.772,520.222 84.543,520.463C84.511,520.496 84.505,520.545 84.527,520.585C84.638,520.784 84.726,520.995 84.788,521.214C84.8,521.258 84.84,521.289 84.885,521.29C85.218,521.297 85.542,521.352 85.858,521.453C85.909,521.816 85.909,522.185 85.858,522.547C85.542,522.649 85.218,522.703 84.885,522.711C84.84,522.712 84.8,522.742 84.788,522.786C84.726,523.005 84.638,523.217 84.527,523.415C84.505,523.455 84.511,523.505 84.543,523.538C84.772,523.778 84.963,524.046 85.115,524.341C84.894,524.634 84.634,524.894 84.341,525.115C84.046,524.963 83.778,524.772 83.538,524.543C83.505,524.511 83.455,524.505 83.415,524.527C83.217,524.638 83.005,524.726 82.786,524.788C82.742,524.8 82.712,524.84 82.711,524.885C82.703,525.218 82.649,525.542 82.547,525.858C82.185,525.909 81.816,525.909 81.453,525.858C81.351,525.542 81.297,525.218 81.29,524.885C81.289,524.84 81.258,524.8 81.214,524.788C80.995,524.726 80.784,524.638 80.585,524.527C80.545,524.505 80.496,524.511 80.463,524.543C80.222,524.772 79.955,524.963 79.66,525.115C79.366,524.894 79.106,524.634 78.886,524.341C79.037,524.046 79.228,523.778 79.458,523.538C79.489,523.505 79.495,523.455 79.473,523.415C79.362,523.217 79.274,523.005 79.213,522.786C79.2,522.742 79.161,522.712 79.115,522.711C78.783,522.703 78.458,522.649 78.143,522.547C78.091,522.185 78.091,521.816 78.142,521.453C78.458,521.352 78.783,521.297 79.115,521.29C79.161,521.289 79.2,521.258 79.213,521.214C79.274,520.995 79.362,520.784 79.473,520.585C79.495,520.545 79.489,520.496 79.458,520.463C79.228,520.222 79.037,519.955 78.886,519.66C79.106,519.366 79.366,519.106 79.659,518.886C79.955,519.037 80.222,519.228 80.463,519.458C80.496,519.489 80.545,519.495 80.585,519.473C80.784,519.362 80.995,519.275 81.214,519.213C81.258,519.2 81.289,519.161 81.29,519.115C81.297,518.783 81.351,518.458 81.453,518.143C81.816,518.091 82.184,518.091 82.547,518.143L82.547,518.143ZM82,520.444C81.142,520.444 80.444,521.142 80.444,522C80.444,522.859 81.142,523.556 82,523.556C82.859,523.556 83.556,522.859 83.556,522C83.556,521.142 82.859,520.444 82,520.444Z"/>
            </g>
        </g>
    </g>
</svg>
