<?xml version="1.0" encoding="UTF-8" standalone="no"?>
<svg
   width="16px"
   height="16px"
   version="1.1"
   xml:space="preserve"
   style="fill-rule:evenodd;clip-rule:evenodd;stroke-linejoin:round;stroke-miterlimit:2;"
   id="svg10"
   sodipodi:docname="projects_folder.svg"
   inkscape:version="1.1.2 (b8e25be833, 2022-02-05)"
   xmlns:inkscape="http://www.inkscape.org/namespaces/inkscape"
   xmlns:sodipodi="http://sodipodi.sourceforge.net/DTD/sodipodi-0.dtd"
   xmlns="http://www.w3.org/2000/svg"
   xmlns:svg="http://www.w3.org/2000/svg"
   xmlns:rdf="http://www.w3.org/1999/02/22-rdf-syntax-ns#"
   xmlns:cc="http://creativecommons.org/ns#"
   xmlns:dc="http://purl.org/dc/elements/1.1/"><metadata
   id="metadata16"><rdf:RDF><cc:Work
       rdf:about=""><dc:format>image/svg+xml</dc:format><dc:type
         rdf:resource="http://purl.org/dc/dcmitype/StillImage" /></cc:Work></rdf:RDF></metadata><defs
   id="defs14" /><sodipodi:namedview
   pagecolor="#ffffff"
   bordercolor="#666666"
   borderopacity="1"
   objecttolerance="10"
   gridtolerance="10"
   guidetolerance="10"
   inkscape:pageopacity="0"
   inkscape:pageshadow="2"
   inkscape:window-width="1920"
   inkscape:window-height="1141"
   id="namedview12"
   showgrid="true"
   inkscape:zoom="45.6875"
   inkscape:cx="8"
   inkscape:cy="9.4555404"
   inkscape:window-x="-7"
   inkscape:window-y="-7"
   inkscape:window-maximized="1"
   inkscape:current-layer="svg10"
   inkscape:pagecheckerboard="0"><inkscape:grid
     type="xygrid"
     id="grid823" /></sodipodi:namedview>
    
    
<path
   style="color:#000000;clip-rule:nonzero;fill:#000000;fill-opacity:0.8;fill-rule:nonzero;stroke-linejoin:miter;-inkscape-stroke:none"
   d="M 3,9.5 A 0.50005,0.50005 0 0 0 2.5,10 v 1 A 0.50005,0.50005 0 0 0 3,11.5 H 4 A 0.50005,0.50005 0 0 0 4.5,11 V 10 A 0.50005,0.50005 0 0 0 4,9.5 Z"
   id="path3773" /><path
   style="color:#000000;clip-rule:nonzero;fill:#000000;fill-opacity:0.8;fill-rule:nonzero;stroke-linejoin:miter;-inkscape-stroke:none"
   d="M 3,5.5 A 0.50005,0.50005 0 0 0 2.5,6 V 7 A 0.50005,0.50005 0 0 0 3,7.5 H 4 A 0.50005,0.50005 0 0 0 4.5,7 V 6 A 0.50005,0.50005 0 0 0 4,5.5 Z"
   id="path3668" /><g
   id="rect1031"><path
     style="color:#000000;clip-rule:nonzero;fill:#ffffff;fill-opacity:0;fill-rule:nonzero;stroke-linejoin:miter;-inkscape-stroke:none"
     d="M 1,2 V 4 14 H 15 V 4 H 7 L 5,2 Z"
     id="path2560" /><path
     style="color:#000000;clip-rule:nonzero;fill:#000000;fill-opacity:0.8;fill-rule:nonzero;stroke-linejoin:miter;-inkscape-stroke:none"
     d="M 1,1.5 C 0.72386906,1.5000276 0.50002761,1.7238691 0.5,2 v 2 10 c 2.761e-5,0.276131 0.22386906,0.499972 0.5,0.5 h 14 c 0.276131,-2.8e-5 0.499972,-0.223869 0.5,-0.5 V 4 C 15.499972,3.7238691 15.276131,3.5000276 15,3.5 H 7.2070312 L 5.3535156,1.6464844 C 5.2597597,1.5527163 5.1325995,1.5000255 5,1.5 Z m 6,3 h 7.5 v 9 h -13 v -9 c 1.6556381,-0.080228 4.4346962,0.026255 5.5,0 z"
     id="path2562"
     sodipodi:nodetypes="ccccccccccccccccccc" /></g><path
   style="color:#000000;clip-rule:nonzero;fill:#000000;fill-opacity:0.8;fill-rule:nonzero;stroke-linejoin:miter;-inkscape-stroke:none"
   d="M 13,5.5 A 0.50005,0.50005 0 0 1 13.5,6 V 7 A 0.50005,0.50005 0 0 1 13,7.5 H 6 A 0.50005,0.50005 0 0 1 5.5,7 V 6 A 0.50005,0.50005 0 0 1 6,5.5 Z"
   id="path3785" /><path
   style="color:#000000;clip-rule:nonzero;fill:#000000;fill-opacity:0.8;fill-rule:nonzero;stroke-linejoin:miter;-inkscape-stroke:none"
   d="M 6,9.5 C 5.7238691,9.5000276 5.5000276,9.7238691 5.5,10 v 1 c 2.76e-5,0.276131 0.2238691,0.499972 0.5,0.5 h 7 c 0.276131,-2.8e-5 0.499972,-0.223869 0.5,-0.5 V 10 C 13.499972,9.7238691 13.276131,9.5000276 13,9.5 Z"
   id="path3779"
   sodipodi:nodetypes="ccccccccc" /></svg>
