<?xml version="1.0" encoding="UTF-8" standalone="no"?>
<!DOCTYPE svg PUBLIC "-//W3C//DTD SVG 1.1//EN" "http://www.w3.org/Graphics/SVG/1.1/DTD/svg11.dtd">
<svg width="100%" height="100%" viewBox="0 0 16 16" version="1.1" xmlns="http://www.w3.org/2000/svg" xmlns:xlink="http://www.w3.org/1999/xlink" xml:space="preserve" xmlns:serif="http://www.serif.com/" style="fill-rule:evenodd;clip-rule:evenodd;stroke-linejoin:round;stroke-miterlimit:2;">
    <g id="project_settings">
        <rect id="bg" x="0" y="0" width="16" height="16" style="fill:#878787;fill-opacity:0;"/>
        <path d="M11.976,7.025c-0.316,-0.033 -0.636,-0.033 -0.952,0c-0.151,0.504 -0.273,1.015 -0.366,1.533c-0.224,0.064 -0.439,0.153 -0.643,0.266c-0.432,-0.3 -0.879,-0.575 -1.342,-0.825c-0.248,0.2 -0.474,0.426 -0.674,0.674c0.25,0.463 0.525,0.91 0.825,1.342c-0.113,0.204 -0.202,0.419 -0.266,0.643c-0.518,0.093 -1.029,0.215 -1.533,0.366c-0.033,0.316 -0.033,0.636 0,0.952c0.504,0.151 1.015,0.273 1.533,0.366c0.064,0.224 0.153,0.439 0.266,0.643c-0.3,0.432 -0.575,0.879 -0.825,1.342c0.2,0.248 0.426,0.474 0.674,0.674c0.463,-0.25 0.91,-0.525 1.342,-0.825c0.204,0.113 0.419,0.202 0.643,0.266c0.093,0.518 0.215,1.029 0.366,1.533c0.316,0.033 0.636,0.033 0.952,-0c0.151,-0.504 0.273,-1.015 0.366,-1.533c0.224,-0.064 0.439,-0.153 0.643,-0.266c0.432,0.3 0.879,0.575 1.342,0.825c0.248,-0.2 0.474,-0.426 0.674,-0.674c-0.25,-0.463 -0.525,-0.91 -0.825,-1.342c0.113,-0.204 0.202,-0.419 0.266,-0.643c0.518,-0.093 1.029,-0.215 1.533,-0.366c0.033,-0.316 0.033,-0.636 -0,-0.952c-0.504,-0.151 -1.015,-0.273 -1.533,-0.366c-0.064,-0.224 -0.153,-0.439 -0.266,-0.643c0.3,-0.432 0.575,-0.879 0.825,-1.342c-0.2,-0.248 -0.426,-0.474 -0.674,-0.674c-0.463,0.25 -0.91,0.525 -1.342,0.825c-0.204,-0.113 -0.419,-0.202 -0.643,-0.266c-0.093,-0.518 -0.215,-1.029 -0.366,-1.533Zm-0.476,2.585c1.043,0 1.89,0.847 1.89,1.89c-0,1.043 -0.847,1.89 -1.89,1.89c-1.043,-0 -1.89,-0.847 -1.89,-1.89c0,-1.043 0.847,-1.89 1.89,-1.89Z"/>
        <path id="locator" d="M6.207,13l-5.707,0c-0.276,0 -0.5,-0.224 -0.5,-0.5l-0,-11c0,-0.133 0.053,-0.26 0.146,-0.354c0.094,-0.093 0.221,-0.146 0.354,-0.146l4.5,-0l2,2l6.5,-0c0.276,0 0.5,0.224 0.5,0.5l0,3.101c-0.75,-0.384 -1.6,-0.601 -2.5,-0.601l1.5,-0l0,-1.993l-0.151,0l-1.983,1.983l-1.697,0l1.982,-1.983l-2.334,0l-1.982,1.983l-1.697,0l1.982,-1.983l-2.13,0l-1.983,1.983l-1.735,0l1.983,-1.983l-0.007,-0.007l-2.268,-0l-0,2l10.52,0c-3.036,0 -5.5,2.464 -5.5,5.5c0,0.52 0.072,1.023 0.207,1.5Z"/>
    </g>
</svg>
