<?xml version="1.0" encoding="UTF-8" standalone="no"?>
<!DOCTYPE svg PUBLIC "-//W3C//DTD SVG 1.1//EN" "http://www.w3.org/Graphics/SVG/1.1/DTD/svg11.dtd">
<svg width="100%" height="100%" viewBox="0 0 16 16" version="1.1" xmlns="http://www.w3.org/2000/svg" xmlns:xlink="http://www.w3.org/1999/xlink" xml:space="preserve" xmlns:serif="http://www.serif.com/" style="fill-rule:evenodd;clip-rule:evenodd;stroke-linejoin:round;stroke-miterlimit:2;">
    <g id="quit">
        <rect id="bg" x="0" y="0" width="16" height="16" style="fill:#878787;fill-opacity:0;"/>
        <path d="M8,1.5c0,-0.276 -0.224,-0.5 -0.5,-0.5c-0.276,0 -0.5,0.224 -0.5,0.5l0,6c0,0.276 0.224,0.5 0.5,0.5c0.276,0 0.5,-0.224 0.5,-0.5l0,-6Z"/>
        <path d="M10,3.303c-0,-0.18 0.094,-0.346 0.248,-0.438c0.155,-0.092 0.346,-0.096 0.504,-0.01c1.938,1.137 3.248,3.239 3.248,5.645c0,3.587 -2.913,6.5 -6.5,6.5c-3.587,0 -6.5,-2.913 -6.5,-6.5c0,-2.41 1.314,-4.515 3.265,-5.638c0.153,-0.082 0.337,-0.078 0.486,0.012c0.149,0.089 0.241,0.25 0.241,0.423c0.008,0.164 0.008,0.29 0.008,0.3c-0,0 -0,0.001 -0.001,0.001c-1.783,0.909 -3.004,2.764 -3.004,4.902c-0,3.038 2.467,5.505 5.505,5.505c3.038,0 5.505,-2.467 5.505,-5.505c0,-2.035 -1.107,-3.814 -2.751,-4.767c-0.155,-0.087 -0.251,-0.251 -0.251,-0.429c-0.003,-0 -0.003,-0.001 -0.003,-0.001Z"/>
    </g>
</svg>
