<?xml version="1.0" encoding="UTF-8" standalone="no"?>
<!DOCTYPE svg PUBLIC "-//W3C//DTD SVG 1.1//EN" "http://www.w3.org/Graphics/SVG/1.1/DTD/svg11.dtd">
<svg width="16px" height="16px" version="1.1" xmlns="http://www.w3.org/2000/svg" xmlns:xlink="http://www.w3.org/1999/xlink" xml:space="preserve" xmlns:serif="http://www.serif.com/" style="fill-rule:evenodd;clip-rule:evenodd;stroke-linejoin:round;stroke-miterlimit:2;">
    <g transform="matrix(1,0,0,1,-170,-190)">
        <g id="quit" transform="matrix(1,0,0,1,60,100)">
            <g id="bg" transform="matrix(0.110345,0,0,0.121212,93.7793,71.0909)">
                <rect x="147" y="156" width="145" height="132" style="fill:rgb(135,135,135);fill-opacity:0;"/>
            </g>
            <g transform="matrix(0.857143,0,0,0.866667,109.429,89.2667)">
                <path d="M14.037,4.963C14.259,4.74 14.62,4.733 14.851,4.947C16.174,6.225 17,8.017 17,10C17,13.863 13.863,17 10,17C6.137,17 3,13.863 3,10C3,8.017 3.826,6.225 5.153,4.951C5.382,4.739 5.739,4.746 5.96,4.966C6.098,5.098 6.25,5.25 6.389,5.389C6.5,5.5 6.56,5.651 6.557,5.807C6.553,5.963 6.486,6.111 6.37,6.217C5.37,7.168 4.75,8.513 4.75,10C4.75,12.898 7.102,15.25 10,15.25C12.898,15.25 15.25,12.898 15.25,10C15.25,8.513 14.63,7.168 13.635,6.213C13.52,6.108 13.453,5.962 13.45,5.807C13.446,5.653 13.506,5.504 13.616,5.394C13.75,5.25 13.902,5.098 14.037,4.963ZM10.583,2C10.738,2 10.886,2.061 10.996,2.169C11.105,2.277 11.167,2.424 11.167,2.577C11.167,3.881 11.167,7.042 11.167,8.346C11.167,8.499 11.105,8.646 10.996,8.754C10.886,8.862 10.738,8.923 10.583,8.923C10.227,8.923 9.773,8.923 9.417,8.923C9.262,8.923 9.114,8.862 9.004,8.754C8.895,8.646 8.833,8.499 8.833,8.346C8.833,7.042 8.833,3.881 8.833,2.577C8.833,2.424 8.895,2.277 9.004,2.169C9.114,2.061 9.262,2 9.417,2C9.773,2 10.227,2 10.583,2Z"/>
            </g>
        </g>
    </g>
</svg>
