<?xml version="1.0" encoding="UTF-8" standalone="no"?>
<!DOCTYPE svg PUBLIC "-//W3C//DTD SVG 1.1//EN" "http://www.w3.org/Graphics/SVG/1.1/DTD/svg11.dtd">
<svg width="100%" height="100%" viewBox="0 0 16 16" version="1.1" xmlns="http://www.w3.org/2000/svg" xmlns:xlink="http://www.w3.org/1999/xlink" xml:space="preserve" xmlns:serif="http://www.serif.com/" style="fill-rule:evenodd;clip-rule:evenodd;stroke-linejoin:round;stroke-miterlimit:2;">
    <g id="recordaudio">
        <rect id="bg" x="-0.011" y="0" width="16" height="16" style="fill:#878787;fill-opacity:0;"/>
        <path d="M14,6l0,1c0,3.311 -2.689,6 -6,6c-3.311,0 -6,-2.689 -6,-6l0,-1l1,0l0,1c0,2.76 2.24,5 5,5c2.76,0 5,-2.24 5,-5l0,-1l1,0Z"/>
        <rect x="7" y="12" width="2" height="4"/>
        <path d="M10.989,3c0,-1.656 -1.344,-3 -3,-3c-1.656,0 -3,1.344 -3,3l0,4c0,1.656 1.344,3 3,3c1.656,0 3,-1.344 3,-3l0,-4Z" style="fill-opacity:0.75;"/>
    </g>
</svg>
