<?xml version="1.0" encoding="UTF-8" standalone="no"?>
<!DOCTYPE svg PUBLIC "-//W3C//DTD SVG 1.1//EN" "http://www.w3.org/Graphics/SVG/1.1/DTD/svg11.dtd">
<svg width="16px" height="16px" version="1.1" xmlns="http://www.w3.org/2000/svg" xmlns:xlink="http://www.w3.org/1999/xlink" xml:space="preserve" xmlns:serif="http://www.serif.com/" style="fill-rule:evenodd;clip-rule:evenodd;stroke-linejoin:round;stroke-miterlimit:2;">
    <g transform="matrix(1,0,0,1,-210,-310)">
        <g id="reload_level" transform="matrix(1,0,0,1,100,80)">
            <g id="restore" transform="matrix(6.12323e-17,-1,1,6.12323e-17,-200,463)">
                <path d="M220.213,324.797C220.574,324.938 220.964,325.022 221.371,325.036L221.419,325.038L221.458,325.038L221.5,325.039L221.543,325.038L221.586,325.038L221.629,325.036L221.671,325.035L221.712,325.032L221.75,325.03L221.792,325.027L221.834,325.023L221.866,325.02L221.907,325.015L221.95,325.01L221.994,325.004L222.035,324.998L222.076,324.992L222.107,324.987L222.148,324.979L222.193,324.971L222.232,324.963L222.272,324.954L222.312,324.945L222.351,324.936L222.387,324.926L222.425,324.916L222.464,324.906L222.502,324.894L222.54,324.883L222.576,324.872L222.613,324.86L222.651,324.847L222.688,324.834L222.725,324.821C222.834,324.78 222.942,324.734 223.046,324.684L223.086,324.664C224.095,324.156 224.829,323.18 225,322.02C225.006,321.98 224.994,321.94 224.968,321.909C224.942,321.879 224.903,321.861 224.863,321.861L223.296,321.861L225.332,319.418C225.67,320.036 225.861,320.746 225.861,321.5C225.861,322.299 225.646,323.048 225.27,323.693C224.781,324.532 224.018,325.194 223.105,325.556L223.104,325.557C223.078,325.567 223.052,325.577 223.026,325.586L223.023,325.588C222.998,325.597 222.972,325.606 222.946,325.615L222.942,325.617C222.917,325.626 222.891,325.635 222.866,325.643L222.846,325.65L222.822,325.657L222.778,325.671L222.762,325.676L222.739,325.683L222.696,325.695L222.655,325.706L222.613,325.718L222.571,325.729L222.53,325.739L222.486,325.749L222.448,325.758L222.406,325.767L222.391,325.77L222.362,325.776L222.318,325.785L222.275,325.793L222.257,325.796L222.234,325.8L222.189,325.807L222.148,325.813L222.125,325.817L222.104,325.82L222.059,325.826C222.032,325.829 222.004,325.833 221.977,325.836L221.927,325.841L221.91,325.842L221.886,325.845L221.839,325.848L221.796,325.852L221.775,325.853L221.753,325.854C221.669,325.859 221.585,325.861 221.5,325.861L221.5,325.861C221.407,325.861 221.316,325.859 221.225,325.853L221.219,325.852C221.021,325.84 220.827,325.814 220.638,325.776L220.607,325.77C220.25,325.695 219.908,325.577 219.589,325.421C219.589,325.421 220.017,324.993 220.164,324.846C220.192,324.815 220.212,324.798 220.213,324.797L220.213,324.797ZM217.651,323.551C217.454,323.183 217.308,322.783 217.224,322.361L217.221,322.346L217.215,322.314L217.208,322.281L217.203,322.248L217.197,322.214L217.192,322.181L217.187,322.148L217.182,322.114L217.177,322.081L217.173,322.047L217.169,322.014L217.165,321.98L217.161,321.946L217.158,321.912L217.155,321.878L217.152,321.844L217.15,321.81L217.147,321.776L217.145,321.742L217.144,321.707L217.142,321.673L217.141,321.638L217.14,321.604L217.139,321.569L217.139,321.535C217.139,321.523 217.139,321.512 217.139,321.5C217.139,320.701 217.354,319.952 217.73,319.307C218.219,318.468 218.982,317.806 219.895,317.444L219.896,317.443C219.922,317.433 219.948,317.423 219.974,317.414L219.977,317.412C220.002,317.403 220.028,317.394 220.054,317.385L220.058,317.383C220.083,317.374 220.109,317.365 220.134,317.357L220.154,317.35L220.178,317.343L220.222,317.329L220.238,317.324L220.261,317.317L220.304,317.305L220.345,317.294L220.387,317.282L220.429,317.271L220.47,317.261L220.514,317.251L220.552,317.242L220.594,317.233L220.609,317.23L220.638,317.224L220.682,317.215L220.725,317.207L220.743,317.204L220.766,317.2L220.811,317.193L220.852,317.187L220.875,317.183L220.896,317.18L220.941,317.174C220.968,317.171 220.996,317.167 221.023,317.164L221.073,317.159L221.09,317.158L221.114,317.155L221.161,317.152L221.204,317.148L221.225,317.147L221.247,317.146C221.331,317.141 221.415,317.139 221.5,317.139L221.5,317.139C221.593,317.139 221.684,317.141 221.775,317.147L221.781,317.148C221.979,317.16 222.173,317.186 222.362,317.224L222.39,317.23C222.748,317.304 223.091,317.423 223.411,317.579C223.411,317.579 222.793,318.197 222.787,318.203C222.787,318.203 222.787,318.203 222.787,318.203C222.513,318.096 222.223,318.022 221.92,317.986L221.874,317.981L221.832,317.977L221.79,317.973L221.748,317.97L221.706,317.967L221.665,317.965L221.624,317.964L221.582,317.962L221.541,317.962L221.5,317.961L221.457,317.962L221.414,317.962L221.371,317.964L221.329,317.965L221.288,317.968L221.25,317.97L221.208,317.973L221.166,317.977L221.134,317.98L221.093,317.985L221.05,317.99L221.006,317.996L220.965,318.002L220.924,318.008L220.893,318.013L220.852,318.021L220.807,318.029L220.768,318.037L220.728,318.046L220.688,318.055L220.649,318.064L220.613,318.074L220.575,318.084L220.536,318.094L220.498,318.106L220.46,318.117L220.424,318.128L220.387,318.14L220.349,318.153L220.312,318.166L220.275,318.179C220.166,318.22 220.058,318.266 219.954,318.316L219.914,318.336C218.905,318.844 218.171,319.82 218,320.98C217.994,321.02 218.006,321.06 218.032,321.091C218.058,321.121 218.097,321.139 218.137,321.139L219.704,321.139L217.668,323.582L217.651,323.551Z"/>
            </g>
            <g id="bg" transform="matrix(0.110345,0,0,0.121212,93.7793,211.091)">
                <rect x="147" y="156" width="145" height="132" style="fill:rgb(135,135,135);fill-opacity:0;"/>
            </g>
            <g transform="matrix(1,0,0,1,0,0.0680213)">
                <path d="M120,231.5L123.5,235L120,235L120,231.5Z"/>
            </g>
            <g transform="matrix(1,0,0,1,-100,-80.068)">
                <path d="M217,325.068L213,325.068C212.448,325.068 212,324.62 212,324.068L212,312.068C212,311.516 212.448,311.068 213,311.068L220,311.068C220.265,311.068 220.52,311.173 220.707,311.361L223.707,314.361C223.895,314.548 224,314.803 224,315.068L224,316.461C223.683,316.299 223.349,316.167 223,316.068L223,315.068L220,312.068L213,312.068L213,324.068L216.32,324.068C216.51,324.427 216.739,324.762 217,325.068Z"/>
            </g>
        </g>
    </g>
</svg>
