<?xml version="1.0" encoding="UTF-8" standalone="no"?>
<!DOCTYPE svg PUBLIC "-//W3C//DTD SVG 1.1//EN" "http://www.w3.org/Graphics/SVG/1.1/DTD/svg11.dtd">
<svg width="100%" height="100%" viewBox="0 0 16 16" version="1.1" xmlns="http://www.w3.org/2000/svg" xmlns:xlink="http://www.w3.org/1999/xlink" xml:space="preserve" xmlns:serif="http://www.serif.com/" style="fill-rule:evenodd;clip-rule:evenodd;stroke-linecap:round;stroke-linejoin:round;stroke-miterlimit:2;">
    <g id="remove_unused_levels">
        <rect id="bg" x="0.001" y="-0.04" width="16" height="16" style="fill:#878787;fill-opacity:0;"/>
        <path id="deselect" d="M1.001,0.96l14,14" style="fill:none;stroke:#000;stroke-width:1.5px;"/>
        <path d="M13.001,12.02l1,1l0,1.94l-4,-0l0,-1l3,-0l0,-1.94Zm0,-3.06l0,-2l1,-0l0,2l-1,-0Zm-3,-4l0,-4l4,4l-4,-0Zm-2,-4l0,1l-2,-0l0,-1l2,-0Zm-6,8l1,-0l0,2l-1,-0l0,-2Zm0,4l1,-0l0,1l1,-0l0,1l-2,-0l0,-2Zm0,-8l1,-0l0,2l-1,-0l0,-2Zm6,10l-2,-0l0,-1l2,-0l0,1Z"/>
    </g>
</svg>
