<?xml version="1.0" encoding="UTF-8" standalone="no"?>
<!DOCTYPE svg PUBLIC "-//W3C//DTD SVG 1.1//EN" "http://www.w3.org/Graphics/SVG/1.1/DTD/svg11.dtd">
<svg width="16px" height="16px" version="1.1" xmlns="http://www.w3.org/2000/svg" xmlns:xlink="http://www.w3.org/1999/xlink" xml:space="preserve" xmlns:serif="http://www.serif.com/" style="fill-rule:evenodd;clip-rule:evenodd;stroke-linejoin:round;stroke-miterlimit:2;">
    <g transform="matrix(1,0,0,1,-170,-230)">
        <g id="remove_level" transform="matrix(1,0,0,1,60,0)">
            <g id="bg" transform="matrix(0.110345,0,0,0.121212,93.7793,211.091)">
                <rect x="147" y="156" width="145" height="132" style="fill:rgb(135,135,135);fill-opacity:0;"/>
            </g>
            <path d="M120,231.5L123.5,235L120,235L120,231.5Z"/>
            <g id="bin" transform="matrix(1,0,0,1,104,225)">
                <path d="M19,13L21.5,13C21.633,13 21.76,13.053 21.854,13.146C21.947,13.24 22,13.367 22,13.5C22,13.776 21.776,14 21.5,14L21,14L21,20.5C21,20.776 20.776,21 20.5,21L14.5,21C14.224,21 14,20.776 14,20.5L14,14L13.5,14C13.224,14 13,13.776 13,13.5C13,13.367 13.053,13.24 13.146,13.146C13.24,13.053 13.367,13 13.5,13C14.353,13 16,13 16,13L16,12.5C16,12.367 16.053,12.24 16.146,12.146C16.24,12.053 16.367,12 16.5,12C17.055,12 17.945,12 18.5,12C18.633,12 18.76,12.053 18.854,12.146C18.947,12.24 19,12.367 19,12.5C19,12.75 19,13 19,13ZM15,14L15,20L20,20L20,14L15,14ZM19,15.5C19,15.367 18.947,15.24 18.854,15.146C18.76,15.053 18.633,15 18.5,15C18.367,15 18.24,15.053 18.146,15.146C18.053,15.24 18,15.367 18,15.5C18,16.269 18,17.731 18,18.5C18,18.633 18.053,18.76 18.146,18.854C18.24,18.947 18.367,19 18.5,19C18.633,19 18.76,18.947 18.854,18.854C18.947,18.76 19,18.633 19,18.5C19,17.731 19,16.269 19,15.5ZM17,15.5C17,15.367 16.947,15.24 16.854,15.146C16.76,15.053 16.633,15 16.5,15C16.367,15 16.24,15.053 16.146,15.146C16.053,15.24 16,15.367 16,15.5C16,16.269 16,17.731 16,18.5C16,18.633 16.053,18.76 16.146,18.854C16.24,18.947 16.367,19 16.5,19C16.633,19 16.76,18.947 16.854,18.854C16.947,18.76 17,18.633 17,18.5C17,17.731 17,16.269 17,15.5Z"/>
            </g>
            <g transform="matrix(1,0,0,1,-60,0)">
                <path d="M183,236.086L183,235L180,232L173,232L173,244L177,244L177,245L173,245C172.448,245 172,244.552 172,244L172,232C172,231.448 172.448,231 173,231L180,231C180.265,231 180.52,231.105 180.707,231.293L183.707,234.293C183.895,234.48 184,234.735 184,235L184,237L183.914,237C183.84,236.791 183.72,236.599 183.561,236.439C183.401,236.28 183.209,236.16 183,236.086ZM183,237.5L183,238C183,238 183,237.5 183,237.5Z"/>
            </g>
        </g>
    </g>
</svg>
