<?xml version="1.0" encoding="UTF-8" standalone="no"?>
<!DOCTYPE svg PUBLIC "-//W3C//DTD SVG 1.1//EN" "http://www.w3.org/Graphics/SVG/1.1/DTD/svg11.dtd">
<svg width="16px" height="16px" version="1.1" xmlns="http://www.w3.org/2000/svg" xmlns:xlink="http://www.w3.org/1999/xlink" xml:space="preserve" xmlns:serif="http://www.serif.com/" style="fill-rule:evenodd;clip-rule:evenodd;stroke-linejoin:round;stroke-miterlimit:2;">
    <g transform="matrix(1,0,0,1,-110,-510)">
        <g id="remove_frame" transform="matrix(1,0,0,1,112,512)">
            <g id="bg" transform="matrix(1,0,0,1,-112,-392)">
                <rect x="110" y="390" width="16" height="16" style="fill-opacity:0;"/>
            </g>
            <g id="bin" transform="matrix(1,0,0,1,-8,-7)">
                <path d="M19,13L21.5,13C21.633,13 21.76,13.053 21.854,13.146C21.947,13.24 22,13.367 22,13.5C22,13.776 21.776,14 21.5,14L21,14L21,20.5C21,20.776 20.776,21 20.5,21L14.5,21C14.224,21 14,20.776 14,20.5L14,14L13.5,14C13.224,14 13,13.776 13,13.5C13,13.367 13.053,13.24 13.146,13.146C13.24,13.053 13.367,13 13.5,13C14.353,13 16,13 16,13L16,12.5C16,12.367 16.053,12.24 16.146,12.146C16.24,12.053 16.367,12 16.5,12C17.055,12 17.945,12 18.5,12C18.633,12 18.76,12.053 18.854,12.146C18.947,12.24 19,12.367 19,12.5C19,12.75 19,13 19,13ZM15,14L15,20L20,20L20,14L15,14ZM19,15.5C19,15.367 18.947,15.24 18.854,15.146C18.76,15.053 18.633,15 18.5,15C18.367,15 18.24,15.053 18.146,15.146C18.053,15.24 18,15.367 18,15.5C18,16.269 18,17.731 18,18.5C18,18.633 18.053,18.76 18.146,18.854C18.24,18.947 18.367,19 18.5,19C18.633,19 18.76,18.947 18.854,18.854C18.947,18.76 19,18.633 19,18.5C19,17.731 19,16.269 19,15.5ZM17,15.5C17,15.367 16.947,15.24 16.854,15.146C16.76,15.053 16.633,15 16.5,15C16.367,15 16.24,15.053 16.146,15.146C16.053,15.24 16,15.367 16,15.5C16,16.269 16,17.731 16,18.5C16,18.633 16.053,18.76 16.146,18.854C16.24,18.947 16.367,19 16.5,19C16.633,19 16.76,18.947 16.854,18.854C16.947,18.76 17,18.633 17,18.5C17,17.731 17,16.269 17,15.5Z"/>
            </g>
            <g transform="matrix(1,0,0,1,-112,-512)">
                <path d="M126,517.086C125.841,517.03 125.672,517 125.5,517L125,517L125,514C125,513.448 124.552,513 124,513C121.423,513 114.577,513 112,513C111.448,513 111,513.448 111,514C111,515.916 111,520.084 111,522C111,522.552 111.448,523 112,523L117,523L117,525.5C117,525.675 117.03,525.844 117.085,526L110,526L110,510L126,510L126,517.086ZM118,523L118,525.5L118,523ZM113,524L111,524L111,525L113,525L113,524ZM116,524L114,524L114,525L116,525L116,524ZM116,511L114,511L114,512L116,512L116,511ZM119,511L117,511L117,512L119,512L119,511ZM113,511L111,511L111,512L113,512L113,511ZM122,511L120,511L120,512L122,512L122,511ZM125,511L123,511L123,512L125,512L125,511Z"/>
            </g>
        </g>
    </g>
</svg>
