<?xml version="1.0" encoding="UTF-8" standalone="no"?>
<!DOCTYPE svg PUBLIC "-//W3C//DTD SVG 1.1//EN" "http://www.w3.org/Graphics/SVG/1.1/DTD/svg11.dtd">
<svg width="100%" height="100%" viewBox="0 0 16 16" version="1.1" xmlns="http://www.w3.org/2000/svg" xmlns:xlink="http://www.w3.org/1999/xlink" xml:space="preserve" xmlns:serif="http://www.serif.com/" style="fill-rule:evenodd;clip-rule:evenodd;stroke-linejoin:round;stroke-miterlimit:2;">
    <g id="remove_cells">
        <rect id="bg" x="0.007" y="-0" width="15.999" height="16" style="fill:#878787;fill-opacity:0;"/>
        <rect x="9.006" y="10" width="5" height="5" style="fill-opacity:0.25;"/>
        <path id="bin" d="M13.006,9l2.499,-0c0.133,-0 0.26,0.053 0.354,0.146c0.094,0.094 0.146,0.221 0.146,0.354c0,0.276 -0.223,0.5 -0.5,0.5l-0.5,-0l0,5.5c0,0.276 -0.223,0.5 -0.499,0.5l-6,-0c-0.276,-0 -0.5,-0.224 -0.5,-0.5l-0,-5.5l-0.5,-0c-0.276,-0 -0.5,-0.224 -0.5,-0.5c0,-0.133 0.053,-0.26 0.146,-0.354c0.094,-0.093 0.221,-0.146 0.354,-0.146l2.5,-0l-0,-0.5c-0,-0.133 0.053,-0.26 0.146,-0.354c0.094,-0.093 0.221,-0.146 0.354,-0.146l2,-0c0.132,-0 0.259,0.053 0.353,0.146c0.094,0.094 0.147,0.221 0.147,0.354l-0,0.5Zm-4,1l-0,5l5,-0l-0,-5l-5,-0Zm2,1l-0,3l-1,-0l-0,-3l1,-0Zm2,-0l-0,3l-1,-0l-0,-3l1,-0Z"/>
        <path d="M7.006,11l-3,0l0,-7l9,0l-0,3.072c-0.147,-0.047 -0.301,-0.072 -0.458,-0.072l-0.542,-0l-0,-2l-7,0l0,5l1,-0l1,1Z" style="fill-opacity:0.5;"/>
        <path d="M7.006,15l-6,-0c-0.552,-0 -0.999,-0.448 -0.999,-1l-0,-11c-0,-0.552 0.447,-1 0.999,-1l0,1l0,11l6,-0l0,1Zm0,-2l-4,-0c-0.552,-0 -1,-0.448 -1,-1l0,-11c0,-0.552 0.448,-1 1,-1l10.994,0c0.267,0 0.522,0.106 0.709,0.295c0.188,0.188 0.293,0.444 0.291,0.71l-0.026,6.995l-1.003,-0l0.035,-7l-11,-0l0,11l4,0l0,1Zm-1,-10.7l0,0.4c0,0.166 -0.134,0.3 -0.3,0.3l-1.4,-0c-0.165,-0 -0.3,-0.134 -0.3,-0.3l0,-0.4c0,-0.166 0.135,-0.3 0.3,-0.3l1.4,-0c0.166,-0 0.3,0.134 0.3,0.3Zm7,0l-0,0.4c-0,0.166 -0.135,0.3 -0.3,0.3l-1.4,-0c-0.166,-0 -0.3,-0.134 -0.3,-0.3l-0,-0.4c-0,-0.166 0.134,-0.3 0.3,-0.3l1.4,-0c0.165,-0 0.3,0.134 0.3,0.3Zm-4,0.2c-0,0.276 -0.224,0.5 -0.5,0.5c-0.276,-0 -0.5,-0.224 -0.5,-0.5c-0,-0.276 0.224,-0.5 0.5,-0.5c0.276,-0 0.5,0.224 0.5,0.5Z"/>
    </g>
</svg>
