<?xml version="1.0" encoding="UTF-8" standalone="no"?>
<!DOCTYPE svg PUBLIC "-//W3C//DTD SVG 1.1//EN" "http://www.w3.org/Graphics/SVG/1.1/DTD/svg11.dtd">
<svg width="100%" height="100%" viewBox="0 0 16 16" version="1.1" xmlns="http://www.w3.org/2000/svg" xmlns:xlink="http://www.w3.org/1999/xlink" xml:space="preserve" xmlns:serif="http://www.serif.com/" style="fill-rule:evenodd;clip-rule:evenodd;stroke-linecap:round;stroke-linejoin:round;stroke-miterlimit:2;">
    <g id="remove_empty_columns">
        <rect id="remove_unused_columns" x="-0" y="0" width="16" height="16" style="fill:#878787;fill-opacity:0;"/>
        <path d="M5,1.939l-0.939,-0.939l0.939,0l0,0.939Zm6.061,6.061l-0.061,-0.061l0,-2.939l1,0l0,3l-0.939,0Zm-3.061,6l0,1l-2,0l-0,-1l2,0Zm3,-2l1,0l0,3l-3,0l-0,-1l2,0l0,-2Zm-7,2l1,0l0,1l-2,0l0,-3l1,-0l0,2Zm0,-5l0,2l-1,-0l0,-2l1,-0Zm0,-4l0,3l-1,-0l0,-3l1,-0Zm6,-3l-0,-1l2,0l0,3l-1,0l0,-2l-1,0Zm-4,0l0,-1l3,0l0,1l-3,0Z"/>
        <path d="M11,4l-4,0l1,1l3,0l-0,-1Z" style="fill-opacity:0.5;"/>
        <rect x="4" y="11" width="7" height="1" style="fill-opacity:0.5;"/>
        <rect x="4" y="8" width="4" height="1" style="fill-opacity:0.5;"/>
        <path id="deselect" d="M1,1l14,14" style="fill:none;stroke:#000;stroke-width:1.5px;"/>
    </g>
</svg>
