<?xml version="1.0" encoding="UTF-8" standalone="no"?>
<!DOCTYPE svg PUBLIC "-//W3C//DTD SVG 1.1//EN" "http://www.w3.org/Graphics/SVG/1.1/DTD/svg11.dtd">
<svg width="16px" height="16px" version="1.1" xmlns="http://www.w3.org/2000/svg" xmlns:xlink="http://www.w3.org/1999/xlink" xml:space="preserve" xmlns:serif="http://www.serif.com/" style="fill-rule:evenodd;clip-rule:evenodd;stroke-linejoin:round;stroke-miterlimit:2;">
    <g transform="matrix(1,0,0,1,-150,-30)">
        <g id="remove_cells" transform="matrix(1,0,0,1,40,20)">
            <g id="bg" transform="matrix(0.110345,0,0,0.121212,93.7793,-8.90909)">
                <rect x="147" y="156" width="145" height="132" style="fill:rgb(135,135,135);fill-opacity:0;"/>
            </g>
            <g transform="matrix(1,0,0,1,117,5.99952)">
                <g id="bin" transform="matrix(1,0,0,1,-13,-0.999516)">
                    <path d="M19,13L21.5,13C21.633,13 21.76,13.053 21.854,13.146C21.947,13.24 22,13.367 22,13.5C22,13.776 21.776,14 21.5,14L21,14L21,20.5C21,20.776 20.776,21 20.5,21L14.5,21C14.224,21 14,20.776 14,20.5L14,14L13.5,14C13.224,14 13,13.776 13,13.5C13,13.367 13.053,13.24 13.146,13.146C13.24,13.053 13.367,13 13.5,13C14.353,13 16,13 16,13L16,12.5C16,12.367 16.053,12.24 16.146,12.146C16.24,12.053 16.367,12 16.5,12C17.055,12 17.945,12 18.5,12C18.633,12 18.76,12.053 18.854,12.146C18.947,12.24 19,12.367 19,12.5C19,12.75 19,13 19,13ZM15,14L15,20L20,20L20,14L15,14ZM19,15.5C19,15.367 18.947,15.24 18.854,15.146C18.76,15.053 18.633,15 18.5,15C18.367,15 18.24,15.053 18.146,15.146C18.053,15.24 18,15.367 18,15.5C18,16.269 18,17.731 18,18.5C18,18.633 18.053,18.76 18.146,18.854C18.24,18.947 18.367,19 18.5,19C18.633,19 18.76,18.947 18.854,18.854C18.947,18.76 19,18.633 19,18.5C19,17.731 19,16.269 19,15.5ZM17,15.5C17,15.367 16.947,15.24 16.854,15.146C16.76,15.053 16.633,15 16.5,15C16.367,15 16.24,15.053 16.146,15.146C16.053,15.24 16,15.367 16,15.5C16,16.269 16,17.731 16,18.5C16,18.633 16.053,18.76 16.146,18.854C16.24,18.947 16.367,19 16.5,19C16.633,19 16.76,18.947 16.854,18.854C16.947,18.76 17,18.633 17,18.5C17,17.731 17,16.269 17,15.5Z"/>
                </g>
                <g transform="matrix(1,0,0,1,-157,-25.9995)">
                    <path d="M157.085,46L152.008,46C150.899,46 150,45.101 150,43.992C150,41.875 150,38.626 150,37C150,36.448 150.448,36 151,36L151,43.963C151,44.238 151.109,44.502 151.304,44.696C151.498,44.891 151.762,45 152.037,45L157,45L157,45.5C157,45.675 157.03,45.844 157.085,46ZM157,44L153.965,44C152.88,44 152,43.12 152,42.035L152,34C152,33.448 152.448,33 153,33L153,41.951C153,42.53 153.47,43 154.049,43L157,43L157,44ZM165,37L165.5,37C165.672,37 165.841,37.03 166,37.086L166,31.984C166,30.888 165.112,30 164.016,30C161.793,30 158.207,30 155.984,30C154.888,30 154,30.888 154,31.984L154,40.016C154,41.112 154.888,42 155.984,42L157,42L157,41L156.017,41C155.748,41 155.489,40.893 155.298,40.702C155.107,40.511 155,40.252 155,39.983L155,32.017C155,31.748 155.107,31.489 155.298,31.298C155.489,31.107 155.748,31 156.017,31C157.935,31 162.065,31 163.983,31C164.252,31 164.511,31.107 164.702,31.298C164.893,31.489 165,31.748 165,32.017L165,37ZM156,38.5L156,39L156.085,39C156.03,38.844 156,38.675 156,38.5ZM164,37L164,34L156,34L156,38.5L156,38.5C156,38.102 156.158,37.721 156.439,37.439C156.599,37.28 156.791,37.16 157,37.086L157,35L163,35L163,36.086C163.209,36.16 163.401,36.28 163.561,36.439C163.72,36.599 163.84,36.791 163.914,37L164,37ZM157,38.5C157,38.5 157,38.5 157,38.5ZM158,32.5C158,32.367 157.947,32.24 157.854,32.146C157.76,32.053 157.633,32 157.5,32C156.945,32 157.055,32 156.5,32C156.367,32 156.24,32.053 156.146,32.146C156.053,32.24 156,32.367 156,32.5C156,32.633 156.053,32.76 156.146,32.854C156.24,32.947 156.367,33 156.5,33C157.055,33 156.945,33 157.5,33C157.633,33 157.76,32.947 157.854,32.854C157.947,32.76 158,32.633 158,32.5ZM161,32.5C161,32.367 160.947,32.24 160.854,32.146C160.76,32.053 160.633,32 160.5,32C160.195,32 159.805,32 159.5,32C159.367,32 159.24,32.053 159.146,32.146C159.053,32.24 159,32.367 159,32.5C159,32.633 159.053,32.76 159.146,32.854C159.24,32.947 159.367,33 159.5,33C159.805,33 160.195,33 160.5,33C160.633,33 160.76,32.947 160.854,32.854C160.947,32.76 161,32.633 161,32.5ZM164,32.5C164,32.367 163.947,32.24 163.854,32.146C163.76,32.053 163.633,32 163.5,32C162.945,32 163.055,32 162.5,32C162.367,32 162.24,32.053 162.146,32.146C162.053,32.24 162,32.367 162,32.5C162,32.633 162.053,32.76 162.146,32.854C162.24,32.947 162.367,33 162.5,33C163.055,33 162.945,33 163.5,33C163.633,33 163.76,32.947 163.854,32.854C163.947,32.76 164,32.633 164,32.5Z"/>
                </g>
            </g>
        </g>
    </g>
</svg>
