<?xml version="1.0" encoding="UTF-8" standalone="no"?>
<!DOCTYPE svg PUBLIC "-//W3C//DTD SVG 1.1//EN" "http://www.w3.org/Graphics/SVG/1.1/DTD/svg11.dtd">
<svg width="16px" height="16px" version="1.1" xmlns="http://www.w3.org/2000/svg" xmlns:xlink="http://www.w3.org/1999/xlink" xml:space="preserve" xmlns:serif="http://www.serif.com/" style="fill-rule:evenodd;clip-rule:evenodd;stroke-linejoin:round;stroke-miterlimit:2;">
    <g transform="matrix(1,0,0,1,-130,-30)">
        <g id="remove_cell" transform="matrix(-1,0,0,1,256,20)">
            <g id="bg" transform="matrix(0.110345,0,0,0.121212,93.7793,-8.90909)">
                <rect x="147" y="156" width="145" height="132" style="fill:rgb(135,135,135);fill-opacity:0;"/>
            </g>
            <g transform="matrix(-1,0,0,1,256,-20)">
                <path d="M137,45L137,44L133.017,44C132.747,44 132.489,43.893 132.298,43.702C132.107,43.511 132,43.252 132,42.983L132,33.017C132,32.748 132.107,32.489 132.298,32.298C132.489,32.107 132.748,32 133.017,32C135.282,32 140.718,32 142.983,32C143.252,32 143.511,32.107 143.702,32.298C143.893,32.489 144,32.747 144,33.017L144,37L145,37L145,32.984C145,32.457 144.791,31.953 144.419,31.581C144.047,31.209 143.543,31 143.016,31C140.353,31 135.647,31 132.984,31C132.457,31 131.953,31.209 131.581,31.581C131.209,31.953 131,32.457 131,32.984L131,43.016C131,43.543 131.209,44.047 131.581,44.419C131.953,44.791 132.457,45 132.984,45L137,45ZM143,36L143,35L133,35L133,43L137,43L137,42L134,42L134,36L143,36ZM136,33.5C136,33.367 135.947,33.24 135.854,33.146C135.76,33.053 135.633,33 135.5,33C134.945,33 134.055,33 133.5,33C133.367,33 133.24,33.053 133.146,33.146C133.053,33.24 133,33.367 133,33.5C133,33.633 133.053,33.76 133.146,33.854C133.24,33.947 133.367,34 133.5,34C134.055,34 134.945,34 135.5,34C135.633,34 135.76,33.947 135.854,33.854C135.947,33.76 136,33.633 136,33.5ZM139,33.5C139,33.367 138.947,33.24 138.854,33.146C138.76,33.053 138.633,33 138.5,33C138.195,33 137.805,33 137.5,33C137.367,33 137.24,33.053 137.146,33.146C137.053,33.24 137,33.367 137,33.5C137,33.633 137.053,33.76 137.146,33.854C137.24,33.947 137.367,34 137.5,34C137.805,34 138.195,34 138.5,34C138.633,34 138.76,33.947 138.854,33.854C138.947,33.76 139,33.633 139,33.5ZM143,33.5C143,33.367 142.947,33.24 142.854,33.146C142.76,33.053 142.633,33 142.5,33C141.945,33 141.055,33 140.5,33C140.367,33 140.24,33.053 140.146,33.146C140.053,33.24 140,33.367 140,33.5C140,33.633 140.053,33.76 140.146,33.854C140.24,33.947 140.367,34 140.5,34C141.055,34 141.945,34 142.5,34C142.633,34 142.76,33.947 142.854,33.854C142.947,33.76 143,33.633 143,33.5Z"/>
            </g>
            <g transform="matrix(-1,0,0,1,132,5)">
                <path id="bin" d="M19,13L21.5,13C21.633,13 21.76,13.053 21.854,13.146C21.947,13.24 22,13.367 22,13.5C22,13.776 21.776,14 21.5,14L21,14L21,20.5C21,20.776 20.776,21 20.5,21L14.5,21C14.224,21 14,20.776 14,20.5L14,14L13.5,14C13.224,14 13,13.776 13,13.5C13,13.367 13.053,13.24 13.146,13.146C13.24,13.053 13.367,13 13.5,13C14.353,13 16,13 16,13L16,12.5C16,12.367 16.053,12.24 16.146,12.146C16.24,12.053 16.367,12 16.5,12C17.055,12 17.945,12 18.5,12C18.633,12 18.76,12.053 18.854,12.146C18.947,12.24 19,12.367 19,12.5C19,12.75 19,13 19,13ZM15,14L15,20L20,20L20,14L15,14ZM19,15.5C19,15.367 18.947,15.24 18.854,15.146C18.76,15.053 18.633,15 18.5,15C18.367,15 18.24,15.053 18.146,15.146C18.053,15.24 18,15.367 18,15.5C18,16.269 18,17.731 18,18.5C18,18.633 18.053,18.76 18.146,18.854C18.24,18.947 18.367,19 18.5,19C18.633,19 18.76,18.947 18.854,18.854C18.947,18.76 19,18.633 19,18.5C19,17.731 19,16.269 19,15.5ZM17,15.5C17,15.367 16.947,15.24 16.854,15.146C16.76,15.053 16.633,15 16.5,15C16.367,15 16.24,15.053 16.146,15.146C16.053,15.24 16,15.367 16,15.5C16,16.269 16,17.731 16,18.5C16,18.633 16.053,18.76 16.146,18.854C16.24,18.947 16.367,19 16.5,19C16.633,19 16.76,18.947 16.854,18.854C16.947,18.76 17,18.633 17,18.5C17,17.731 17,16.269 17,15.5Z"/>
            </g>
        </g>
    </g>
</svg>
