<?xml version="1.0" encoding="UTF-8" standalone="no"?>
<!DOCTYPE svg PUBLIC "-//W3C//DTD SVG 1.1//EN" "http://www.w3.org/Graphics/SVG/1.1/DTD/svg11.dtd">
<svg width="100%" height="100%" viewBox="0 0 16 16" version="1.1" xmlns="http://www.w3.org/2000/svg" xmlns:xlink="http://www.w3.org/1999/xlink" xml:space="preserve" xmlns:serif="http://www.serif.com/" style="fill-rule:evenodd;clip-rule:evenodd;stroke-linejoin:round;stroke-miterlimit:2;">
    <g id="remove_cell">
        <rect id="bg" x="0.009" y="0" width="15.999" height="16" style="fill:#878787;fill-opacity:0;"/>
        <rect x="9.009" y="10" width="5" height="5" style="fill-opacity:0.25;"/>
        <path id="bin" d="M13.008,9l2.5,-0c0.133,-0 0.26,0.053 0.354,0.146c0.093,0.094 0.146,0.221 0.146,0.354c0,0.276 -0.224,0.5 -0.5,0.5l-0.5,-0l0,5.5c0,0.276 -0.224,0.5 -0.5,0.5l-5.999,-0c-0.276,-0 -0.5,-0.224 -0.5,-0.5l-0,-5.5l-0.5,-0c-0.276,-0 -0.5,-0.224 -0.5,-0.5c-0,-0.133 0.052,-0.26 0.146,-0.354c0.094,-0.093 0.221,-0.146 0.354,-0.146l2.5,-0l-0,-0.5c-0,-0.133 0.052,-0.26 0.146,-0.354c0.094,-0.093 0.221,-0.146 0.354,-0.146l1.999,-0c0.133,-0 0.26,0.053 0.354,0.146c0.094,0.094 0.146,0.221 0.146,0.354l0,0.5Zm-3.999,1l-0,5l4.999,-0l0,-5l-4.999,-0Zm1.999,1l0,3l-0.999,-0l-0,-3l0.999,0Zm2,0l0,3l-1,-0l0,-3l1,0Z"/>
        <path d="M7.009,13l-5,-0l0,-9l10.999,-0l0,3.086c-0.159,-0.056 -0.328,-0.086 -0.5,-0.086l-0.5,-0l0,-2l-8.999,-0l0,7l4,-0l-0,1Z" style="fill-opacity:0.5;"/>
        <path d="M7.009,15l-6,-0c-0.552,-0 -1,-0.448 -1,-1l0,-13c0,-0.552 0.448,-1 1,-1l12.999,-0c0.553,-0 1,0.448 1,1l0,7l-1,-0l0,-7l-12.999,-0l0,13l6,-0l-0,1Zm1.5,-12.5c-0,0.133 -0.053,0.26 -0.147,0.354c-0.094,0.093 -0.221,0.146 -0.353,0.146l-1,-0c-0.133,0 -0.26,-0.053 -0.354,-0.146c-0.094,-0.094 -0.146,-0.221 -0.146,-0.354c-0,-0.133 0.052,-0.26 0.146,-0.354c0.094,-0.093 0.221,-0.146 0.354,-0.146l1,-0c0.132,-0 0.259,0.053 0.353,0.146c0.094,0.094 0.147,0.221 0.147,0.354Z"/>
        <path d="M5.009,2.3c-0,-0.166 -0.135,-0.3 -0.3,-0.3l-2.4,-0c-0.165,-0 -0.3,0.134 -0.3,0.3l0,0.4c0,0.166 0.135,0.3 0.3,0.3l2.4,-0c0.165,-0 0.3,-0.134 0.3,-0.3l-0,-0.4Z"/>
        <path d="M13.008,2.3c0,-0.166 -0.134,-0.3 -0.3,-0.3l-2.399,-0c-0.166,-0 -0.3,0.134 -0.3,0.3l-0,0.4c-0,0.166 0.134,0.3 0.3,0.3l2.399,-0c0.166,-0 0.3,-0.134 0.3,-0.3l0,-0.4Z"/>
    </g>
</svg>
