<?xml version="1.0" encoding="UTF-8" standalone="no"?>
<!DOCTYPE svg PUBLIC "-//W3C//DTD SVG 1.1//EN" "http://www.w3.org/Graphics/SVG/1.1/DTD/svg11.dtd">
<svg width="100%" height="100%" viewBox="0 0 16 16" version="1.1" xmlns="http://www.w3.org/2000/svg" xmlns:xlink="http://www.w3.org/1999/xlink" xml:space="preserve" xmlns:serif="http://www.serif.com/" style="fill-rule:evenodd;clip-rule:evenodd;stroke-linejoin:round;stroke-miterlimit:2;">
    <g id="remove_frame">
        <rect id="bg" x="0.011" y="0" width="16" height="16" style="fill-opacity:0;"/>
        <rect x="9.033" y="10" width="5" height="5" style="fill-opacity:0.25;"/>
        <path id="bin" d="M13.033,9l2.5,-0c0.132,-0 0.26,0.053 0.353,0.146c0.094,0.094 0.147,0.221 0.147,0.354c-0,0.276 -0.224,0.5 -0.5,0.5l-0.5,-0l-0,5.5c-0,0.276 -0.224,0.5 -0.5,0.5l-6,0c-0.276,-0 -0.5,-0.224 -0.5,-0.5l-0,-5.5l-0.5,-0c-0.276,-0 -0.5,-0.224 -0.5,-0.5c-0,-0.133 0.052,-0.26 0.146,-0.354c0.094,-0.093 0.221,-0.146 0.354,-0.146l2.5,-0l-0,-0.5c-0,-0.133 0.052,-0.26 0.146,-0.354c0.094,-0.093 0.221,-0.146 0.354,-0.146l2,-0c0.132,-0 0.26,0.053 0.353,0.146c0.094,0.094 0.147,0.221 0.147,0.354l-0,0.5Zm-4,1l-0,5l5,-0l-0,-5l-5,-0Zm2,1l-0,3l-1,-0l-0,-3l1,0Zm2,0l-0,3l-1,-0l-0,-3l1,0Z"/>
        <path d="M7.033,14l-6.022,0l-0,-13l14,0l-0,7l-1.064,0c-0.074,-0.209 -0.194,-0.401 -0.354,-0.561c-0.281,-0.281 -0.662,-0.439 -1.06,-0.439l-0.522,0l-0,-3c-0,-0.552 -0.448,-1 -1,-1l-6,-0c-0.553,0 -1,0.448 -1,1l-0,7c-0,0.552 0.447,1 1,1l2.022,0l-0,2Zm7,-9l-1,0l-0,2l1,0l-0,-2Zm-11,6l-1,0l-0,2l1,0l-0,-2Zm-0,-9l-1,0l-0,2l1,0l-0,-2Zm11,0l-1,0l-0,2l1,0l-0,-2Zm-11,3l-1,0l-0,2l1,0l-0,-2Zm-0,3l-1,0l-0,2l1,0l-0,-2Z"/>
    </g>
</svg>
