<?xml version="1.0" encoding="UTF-8" standalone="no"?>
<!DOCTYPE svg PUBLIC "-//W3C//DTD SVG 1.1//EN" "http://www.w3.org/Graphics/SVG/1.1/DTD/svg11.dtd">
<svg width="16px" height="16px" version="1.1" xmlns="http://www.w3.org/2000/svg" xmlns:xlink="http://www.w3.org/1999/xlink" xml:space="preserve" xmlns:serif="http://www.serif.com/" style="fill-rule:evenodd;clip-rule:evenodd;stroke-linejoin:round;stroke-miterlimit:2;">
    <g transform="matrix(1,0,0,1,-210,-30)">
        <g id="remove_vector_overflow" transform="matrix(1,0,0,1,200,0)">
            <g id="bg" transform="matrix(0.110345,0,0,0.121212,-6.22069,11.0909)">
                <rect x="147" y="156" width="145" height="132" style="fill:rgb(135,135,135);fill-opacity:0;"/>
            </g>
            <g transform="matrix(1,0,0,1,-200,0)">
                <path d="M215,33L213,33L213,34L215,34L215,33ZM212,33.084L210,33.084L210,34L212,34L212,33.084ZM223,33L221,33L221,34L223,34L223,33ZM226,33L224,33L224,34L226,34L226,33Z"/>
            </g>
            <g transform="matrix(1,0,0,1,-200,0)">
                <path d="M217.956,34C217.97,34 217.985,34 218,34C218.015,34 218.03,34 218.044,34L218.044,34L220.163,34C221.274,34.739 222.259,35.631 222.988,36.651C223.013,36.686 223.034,36.723 223.051,36.762L223.08,36.808L223.093,36.828L223.107,36.852L223.134,36.896L223.15,36.921L223.162,36.942C223.179,36.97 223.195,36.997 223.211,37.025L223.223,37.046L223.239,37.075L223.264,37.12L223.275,37.141L223.29,37.168L223.313,37.212L223.327,37.237L223.339,37.262L223.363,37.309L223.376,37.334L223.387,37.357C223.401,37.385 223.415,37.413 223.428,37.442L223.439,37.466L223.453,37.496L223.474,37.542L223.485,37.565L223.497,37.593L223.517,37.638L223.528,37.665L223.539,37.691L223.559,37.739L223.57,37.767L223.584,37.801L223.597,37.834L223.615,37.882L223.623,37.903L223.634,37.934L223.652,37.982L223.661,38.007L223.671,38.036L223.686,38.082L223.696,38.111L223.705,38.137L223.72,38.185L223.73,38.217L223.741,38.252L223.751,38.286L223.766,38.335L223.772,38.358L223.781,38.389L223.794,38.438L223.802,38.465L223.809,38.494L223.821,38.541L223.829,38.573L223.838,38.609L223.846,38.646L223.858,38.698L223.863,38.718L223.87,38.752L223.88,38.803L223.885,38.828L223.891,38.859L223.901,38.909L223.906,38.938L223.911,38.967L223.919,39.015L223.925,39.05L223.931,39.087L223.936,39.123L223.944,39.176L223.947,39.199L223.951,39.233L223.958,39.284L223.961,39.311L223.964,39.343L223.97,39.393L223.973,39.425L223.975,39.453L223.98,39.505L223.982,39.539L223.985,39.577L223.988,39.613L223.991,39.667L223.992,39.691L223.994,39.725L223.996,39.777L223.997,39.807L223.998,39.838L223.999,39.888L224,39.923L224,39.961L224,40C224,43.299 221.332,45.979 218.039,46L218,46C214.689,46 212,43.311 212,40L212,39.944L212,39.923L212.001,39.887L212.002,39.833L212.003,39.807L212.004,39.774L212.006,39.722L212.008,39.691L212.009,39.662L212.012,39.612L212.015,39.577L212.018,39.539L212.02,39.501L212.025,39.447L212.027,39.425L212.031,39.39L212.036,39.338L212.039,39.311L212.043,39.28L212.049,39.23L212.053,39.199L212.057,39.171L212.064,39.119L212.069,39.087L212.075,39.05L212.081,39.014L212.09,38.962L212.094,38.938L212.1,38.906L212.109,38.856L212.115,38.828L212.121,38.798L212.131,38.75L212.137,38.718L212.143,38.692L212.154,38.644L212.162,38.609L212.171,38.573L212.179,38.54L212.192,38.489L212.198,38.465L212.207,38.434L212.22,38.386L212.228,38.358L212.236,38.33L212.249,38.284L212.259,38.252L212.27,38.217L212.281,38.182L212.297,38.132L212.304,38.111L212.314,38.079L212.331,38.032L212.339,38.007L212.35,37.978L212.366,37.932L212.377,37.903L212.387,37.877L212.405,37.83L212.416,37.801L212.43,37.767L212.443,37.734L212.463,37.687L212.472,37.665L212.485,37.636L212.504,37.59L212.515,37.565L212.527,37.538L212.548,37.494L212.561,37.466L212.572,37.442C212.585,37.413 212.599,37.385 212.613,37.357L212.624,37.334L212.639,37.304L212.662,37.259L212.673,37.237L212.688,37.21L212.711,37.166L212.725,37.141L212.738,37.117L212.762,37.073L212.777,37.046L212.789,37.025C212.805,36.997 212.821,36.97 212.838,36.942L212.85,36.921L212.867,36.894L212.896,36.846L212.907,36.828L212.922,36.804L212.949,36.762C212.966,36.723 212.987,36.686 213.012,36.651C213.741,35.631 214.726,34.739 215.837,34L217.956,34L217.956,34Z" style="fill-opacity:0.2;"/>
            </g>
            <g transform="matrix(1,0,0,1,-200,0)">
                <path d="M212.949,36.762C212.966,36.723 212.987,36.686 213.012,36.651C213.741,35.631 214.726,34.739 215.837,34L217.956,34C216.765,34.699 215.603,35.523 214.688,36.5L214.693,36.5C213.805,37.406 213.2,38.62 213.2,40C213.2,42.649 215.351,44.8 218,44.8C220.649,44.8 222.8,42.649 222.8,40C222.8,38.62 222.282,37.524 221.311,36.5L221.312,36.5C220.397,35.523 219.235,34.699 218.044,34L220.163,34C221.274,34.739 222.259,35.631 222.988,36.651C223.013,36.686 223.034,36.723 223.051,36.762C223.651,37.696 224,38.808 224,40C224,43.311 221.311,46 218,46C214.689,46 212,43.311 212,40C212,38.808 212.349,37.696 212.949,36.762Z"/>
            </g>
            <g transform="matrix(1,0,0,1,-200,0)">
                <path d="M215.837,34L217.956,34L218,33.97L218.044,34L220.163,34L219.22,33.309C221.389,32.283 223.546,31.197 223.546,31.197C223.865,31.107 224.05,30.775 223.96,30.456C223.869,30.138 223.537,29.952 223.219,30.042C223.219,30.042 220.25,31.37 218.214,32.472C218.143,32.511 218.071,32.55 218,32.59C217.929,32.55 217.857,32.511 217.786,32.472C215.75,31.37 212.786,30.047 212.786,30.047C212.468,29.956 212.136,30.142 212.045,30.46C211.955,30.779 212.14,31.111 212.459,31.201C212.459,31.201 214.611,32.283 216.78,33.309L215.837,34Z" style="fill-opacity:0.5;"/>
            </g>
        </g>
    </g>
</svg>
