<?xml version="1.0" encoding="UTF-8" standalone="no"?>
<!DOCTYPE svg PUBLIC "-//W3C//DTD SVG 1.1//EN" "http://www.w3.org/Graphics/SVG/1.1/DTD/svg11.dtd">
<svg width="100%" height="100%" viewBox="0 0 16 16" version="1.1" xmlns="http://www.w3.org/2000/svg" xmlns:xlink="http://www.w3.org/1999/xlink" xml:space="preserve" xmlns:serif="http://www.serif.com/" style="fill-rule:evenodd;clip-rule:evenodd;stroke-linejoin:round;stroke-miterlimit:2;">
    <g id="rename">
        <rect id="rename1" serif:id="rename" x="-0.014" y="0" width="16" height="16" style="fill:#878787;fill-opacity:0;"/>
        <path d="M8.986,13.001l-0,-10.001c-0,-0.265 0.105,-0.52 0.293,-0.707c0.187,-0.188 0.442,-0.293 0.707,-0.293c0.5,0 1,0 1,0l-0,-0.502c-0,-0.132 -0.053,-0.259 -0.146,-0.352c-0.093,-0.094 -0.22,-0.146 -0.352,-0.146c-0.958,0 -3.047,0 -4.005,0c-0.132,0 -0.258,0.052 -0.352,0.146c-0.093,0.093 -0.145,0.22 -0.145,0.352c-0,0.25 -0,0.502 -0,0.502l1,0c0.552,0 1,0.448 1,1c-0,2.26 -0,7.74 -0,10c-0,0.265 -0.106,0.52 -0.293,0.707c-0.188,0.188 -0.442,0.293 -0.707,0.293c-0.5,0 -1,0 -1,0l-0,0.502c-0,0.132 0.052,0.259 0.146,0.352c0.093,0.094 0.22,0.146 0.352,0.146c0.957,0 3.046,0 4.004,0c0.132,-0 0.259,-0.052 0.352,-0.146c0.093,-0.093 0.146,-0.22 0.146,-0.352c-0,-0.25 -0,-0.502 -0,-0.502l-1.001,0c-0.265,-0 -0.519,-0.105 -0.707,-0.293c-0.187,-0.187 -0.292,-0.441 -0.292,-0.706Zm-2,-9.001l-6.012,0c-0.546,-0 -0.988,0.442 -0.988,0.988c-0,1.537 -0,4.487 -0,6.024c-0,0.546 0.442,0.988 0.988,0.988c1.929,0 6.012,0 6.012,0l-0,-1l-6,0l-0,-6l6,0l-0,-1Zm3,0l-0,1l5,0l-0,6l-5,0l-0,1l5.012,0c0.546,0 0.988,-0.442 0.988,-0.988c-0,-1.537 -0,-4.487 -0,-6.024c-0,-0.546 -0.442,-0.988 -0.988,-0.988c-1.703,0 -5.012,0 -5.012,0Z"/>
        <rect x="1.986" y="6" width="5" height="4" style="fill-opacity:0.5;"/>
    </g>
</svg>
