<?xml version="1.0" encoding="UTF-8" standalone="no"?>
<!DOCTYPE svg PUBLIC "-//W3C//DTD SVG 1.1//EN" "http://www.w3.org/Graphics/SVG/1.1/DTD/svg11.dtd">
<svg width="16px" height="16px" version="1.1" xmlns="http://www.w3.org/2000/svg" xmlns:xlink="http://www.w3.org/1999/xlink" xml:space="preserve" xmlns:serif="http://www.serif.com/" style="fill-rule:evenodd;clip-rule:evenodd;stroke-linejoin:round;stroke-miterlimit:2;">
    <g transform="matrix(1,0,0,1,-70,-410)">
        <g id="render">
            <g id="bg" transform="matrix(0.110345,0,0,0.121212,53.7793,391.091)">
                <rect x="147" y="156" width="145" height="132" style="fill:rgb(135,135,135);fill-opacity:0;"/>
            </g>
            <g transform="matrix(1,0,0,1,-1,-5)">
                <path d="M86,417C86,416.448 85.552,416 85,416L76,416C75.448,416 75,416.448 75,417L75,424C75,424.552 75.448,425 76,425L85,425C85.552,425 86,424.552 86,424L86,417ZM83.5,420.5L79,423L79,418L83.5,420.5Z"/>
            </g>
            <g transform="matrix(1,0,0,-1,-1,836)">
                <path d="M84,414L74,414C73.448,414 73,414.448 73,415C73,417.146 73,422 73,422L74,422L74,415L84,415L84,414Z"/>
            </g>
            <g transform="matrix(1,0,0,-1,-1,836)">
                <path d="M82,412L72,412C71.448,412 71,412.448 71,413C71,415.146 71,420 71,420L72,420L72,413L82,413L82,412Z"/>
            </g>
        </g>
    </g>
</svg>
