<?xml version="1.0" encoding="UTF-8" standalone="no"?>
<!DOCTYPE svg PUBLIC "-//W3C//DTD SVG 1.1//EN" "http://www.w3.org/Graphics/SVG/1.1/DTD/svg11.dtd">
<svg width="16px" height="16px" version="1.1" xmlns="http://www.w3.org/2000/svg" xmlns:xlink="http://www.w3.org/1999/xlink" xml:space="preserve" xmlns:serif="http://www.serif.com/" style="fill-rule:evenodd;clip-rule:evenodd;stroke-linejoin:round;stroke-miterlimit:2;">
    <g transform="matrix(1,0,0,1,-130,-430)">
        <g id="render_add" transform="matrix(1,0,0,1,60,-0.028)">
            <g id="bg" transform="matrix(0.110345,0,0,0.121212,53.7793,411.119)">
                <rect x="147" y="156" width="145" height="132" style="fill:rgb(135,135,135);fill-opacity:0;"/>
            </g>
            <g transform="matrix(1,0,0,1,-79.9955,0.028)">
                <path d="M151,438C151,438 163.426,438 162.502,438C160.019,438 158.002,440.016 158.002,442.5C158.002,443.425 158.282,444.285 158.761,445L151,445L151,438ZM154.502,439L155.388,440.614L157.002,441.5L155.388,442.386L154.502,444L153.616,442.386L152.002,441.5L153.616,440.614L154.502,439ZM151,437L151,436.037C150.985,435.208 151.491,434.422 152.313,434.122L154.75,433.23L154.75,435.36L153,436L165,436L165,437L151,437ZM157.75,434.263L156.25,434.811L156.25,432.682L157.75,432.133L157.75,434.263ZM160.75,433.166L159.25,433.714L159.25,431.585L160.75,431.036L160.75,433.166ZM162.25,430.488L163.583,430L164.27,431.878L162.25,432.617L162.25,430.488Z"/>
            </g>
            <g id="add" transform="matrix(1,0,0,1,65,425.028)">
                <path d="M17.5,14C19.432,14 21,15.568 21,17.5C21,19.432 19.432,21 17.5,21C15.568,21 14,19.432 14,17.5C14,15.568 15.568,14 17.5,14ZM18,17L20,17L20,18L18,18L18,20L17,20L17,18L15,18L15,17L17,17L17,15L18,15L18,17Z"/>
            </g>
        </g>
    </g>
</svg>
