<?xml version="1.0" encoding="UTF-8" standalone="no"?>
<!DOCTYPE svg PUBLIC "-//W3C//DTD SVG 1.1//EN" "http://www.w3.org/Graphics/SVG/1.1/DTD/svg11.dtd">
<svg width="16px" height="16px" version="1.1" xmlns="http://www.w3.org/2000/svg" xmlns:xlink="http://www.w3.org/1999/xlink" xml:space="preserve" xmlns:serif="http://www.serif.com/" style="fill-rule:evenodd;clip-rule:evenodd;stroke-linejoin:round;stroke-miterlimit:2;">
    <g transform="matrix(1,0,0,1,-70,-530)">
        <g id="render_clapboard" transform="matrix(1,0,0,1,0.000385861,99.972)">
            <g id="bg" transform="matrix(0.110345,0,0,0.121212,53.7793,411.119)">
                <rect x="147" y="156" width="145" height="132" style="fill:rgb(135,135,135);fill-opacity:0;"/>
            </g>
            <g transform="matrix(1,0,0,1,-59.9977,0.028)">
                <path d="M135.5,439L136.386,440.614L138,441.5L136.386,442.386L135.5,444L134.614,442.386L133,441.5L134.614,440.614L135.5,439ZM140.5,439L141.032,439.968L142,440.5L141.032,441.032L140.5,442L139.968,441.032L139,440.5L139.968,439.968L140.5,439ZM144.998,445L130.998,445L130.998,438L144.998,438L144.998,445ZM137.748,434.263L136.248,434.811L136.248,432.682L137.748,432.133L137.748,434.263ZM140.748,433.166L139.248,433.714L139.248,431.585L140.748,431.036L140.748,433.166ZM142.248,430.488L143.581,430L144.268,431.878L142.248,432.617L142.248,430.488ZM130.998,437L130.998,436.037C130.983,435.208 131.489,434.422 132.311,434.122L134.748,433.23L134.748,435.36L132.998,436L144.998,436L144.998,437L130.998,437Z"/>
            </g>
        </g>
    </g>
</svg>
