<?xml version="1.0" encoding="UTF-8" standalone="no"?>
<!DOCTYPE svg PUBLIC "-//W3C//DTD SVG 1.1//EN" "http://www.w3.org/Graphics/SVG/1.1/DTD/svg11.dtd">
<svg width="16px" height="16px" version="1.1" xmlns="http://www.w3.org/2000/svg" xmlns:xlink="http://www.w3.org/1999/xlink" xml:space="preserve" xmlns:serif="http://www.serif.com/" style="fill-rule:evenodd;clip-rule:evenodd;stroke-linejoin:round;stroke-miterlimit:2;">
    <g transform="matrix(1,0,0,1,-90,-430)">
        <g id="renumber" transform="matrix(1,0,0,1,-20.1001,420)">
            <g id="bg" transform="matrix(0.110345,0,0,0.121212,93.8794,-8.90909)">
                <rect x="147" y="156" width="145" height="132" style="fill:rgb(135,135,135);fill-opacity:0;"/>
            </g>
            <g transform="matrix(1,0,0,1,-105.9,0)">
                <path d="M218,24C218,23.448 217.552,23 217,23C216.448,23 216,23.448 216,24C216,24.552 216.448,25 217,25C217.552,25 218,24.552 218,24ZM220,21C220,20.448 219.552,20 219,20L217,20C216.448,20 216,20.448 216,21C216,21.552 216.448,22 217,22L219,22C219.552,22 220,21.552 220,21ZM222,18C222,17.448 221.552,17 221,17L217,17C216.448,17 216,17.448 216,18C216,18.552 216.448,19 217,19L221,19C221.552,19 222,18.552 222,18ZM224,15C224,14.448 223.552,14 223,14L217,14C216.448,14 216,14.448 216,15C216,15.552 216.448,16 217,16L223,16C223.552,16 224,15.552 224,15ZM226,12C226,11.448 225.552,11 225,11L217,11C216.448,11 216,11.448 216,12C216,12.552 216.448,13 217,13L225,13C225.552,13 226,12.552 226,12Z"/>
            </g>
            <g transform="matrix(-3.06166e-16,1,1,3.06166e-16,111.1,10)">
                <path d="M12,13C12,13 2.85,12.999 1.233,12.999C1.097,12.999 0.986,12.892 0.981,12.756C0.977,12.622 0.971,12.455 0.966,12.311C0.963,12.23 0.993,12.15 1.05,12.092C1.107,12.033 1.185,12 1.266,12C3.06,12 12,12 12,12L12,10L14.5,12.5L12,15L12,13Z"/>
            </g>
        </g>
    </g>
</svg>
