<?xml version="1.0" encoding="UTF-8" standalone="no"?>
<!DOCTYPE svg PUBLIC "-//W3C//DTD SVG 1.1//EN" "http://www.w3.org/Graphics/SVG/1.1/DTD/svg11.dtd">
<svg width="100%" height="100%" viewBox="0 0 16 16" version="1.1" xmlns="http://www.w3.org/2000/svg" xmlns:xlink="http://www.w3.org/1999/xlink" xml:space="preserve" xmlns:serif="http://www.serif.com/" style="fill-rule:evenodd;clip-rule:evenodd;stroke-linejoin:round;stroke-miterlimit:2;">
    <g id="renumber">
        <rect id="renumber1" serif:id="renumber" x="0" y="0" width="16" height="16" style="fill:#878787;fill-opacity:0;"/>
        <path d="M2,14c0,-0.552 -0.448,-1 -1,-1c-0.552,0 -1,0.448 -1,1c0,0.552 0.448,1 1,1c0.552,0 1,-0.448 1,-1Zm2,-3c-0,-0.552 -0.448,-1 -1,-1l-2,0c-0.552,0 -1,0.448 -1,1c0,0.552 0.448,1 1,1l2,0c0.552,0 1,-0.448 1,-1Zm2,-3c-0,-0.552 -0.448,-1 -1,-1l-4,0c-0.552,0 -1,0.448 -1,1c0,0.552 0.448,1 1,1l4,0c0.552,0 1,-0.448 1,-1Zm2,-3c-0,-0.552 -0.448,-1 -1,-1l-6,0c-0.552,0 -1,0.448 -1,1c0,0.552 0.448,1 1,1l6,0c0.552,0 1,-0.448 1,-1Zm2,-3c0,-0.552 -0.448,-1 -1,-1l-8,0c-0.552,0 -1,0.448 -1,1c0,0.552 0.448,1 1,1l8,0c0.552,0 1,-0.448 1,-1Z"/>
        <path id="cell_down_arrow" d="M13,11.028c-0,0 -0.001,-6.732 -0.001,-8.558c0,-0.252 -0.2,-0.459 -0.452,-0.468c-0.021,-0 -0.041,-0.001 -0.062,-0.002c-0.127,-0.004 -0.251,0.043 -0.342,0.131c-0.091,0.089 -0.143,0.21 -0.143,0.337c-0,1.877 -0,8.56 -0,8.56l-3,0l3.5,3.5l3.5,-3.5l-3,0Z"/>
    </g>
</svg>
