<?xml version="1.0" encoding="UTF-8" standalone="no"?>
<!DOCTYPE svg PUBLIC "-//W3C//DTD SVG 1.1//EN" "http://www.w3.org/Graphics/SVG/1.1/DTD/svg11.dtd">
<svg width="16px" height="16px" version="1.1" xmlns="http://www.w3.org/2000/svg" xmlns:xlink="http://www.w3.org/1999/xlink" xml:space="preserve" xmlns:serif="http://www.serif.com/" style="fill-rule:evenodd;clip-rule:evenodd;stroke-linejoin:round;stroke-miterlimit:2;">
    <g transform="matrix(1,0,0,1,-30,-70)">
        <g id="repeat" transform="matrix(1,0,0,1,0,-0.0075)">
            <g id="bg" transform="matrix(0.110345,0,0,0.121212,13.7793,51.0984)">
                <rect x="147" y="156" width="145" height="132" style="fill:rgb(135,135,135);fill-opacity:0;"/>
            </g>
            <g transform="matrix(1,0,0,1,28,68.0072)">
                <path d="M10,15C12.76,15 15,12.76 15,10C15,9.475 14.919,8.97 14.769,8.494L15.549,7.715C15.84,8.419 16,9.191 16,10C16,13.311 13.311,16 10,16L10,17.38C10.04,17.545 9.996,17.725 9.868,17.854C9.673,18.049 9.356,18.049 9.161,17.854L7.146,15.839C7.112,15.804 7.083,15.766 7.061,15.725L7.028,15.651L7.006,15.562L7,15.486L7.006,15.409L7.028,15.32L7.061,15.246C7.083,15.205 7.112,15.167 7.146,15.132L9.146,13.132C9.342,12.937 9.658,12.937 9.854,13.132C9.951,13.23 10,13.358 10,13.486L10,15ZM10,2.612C9.995,2.431 10.004,2.277 10.132,2.149C10.327,1.954 10.644,1.954 10.839,2.149L12.854,4.153C12.888,4.188 12.917,4.227 12.939,4.268L12.972,4.342L12.994,4.431L13,4.507L12.994,4.583L12.972,4.672L12.939,4.746C12.917,4.787 12.888,4.826 12.854,4.861L10.854,6.861C10.658,7.056 10.342,7.056 10.146,6.861C10.049,6.763 10,6.635 10,6.507L10,5C7.24,5 5,7.24 5,10C5,10.525 5.081,11.03 5.231,11.506L4.451,12.285C4.16,11.581 4,10.809 4,10C4,6.689 6.689,4 10,4L10,2.612Z"/>
            </g>
        </g>
    </g>
</svg>
