<?xml version="1.0" encoding="UTF-8" standalone="no"?>
<!DOCTYPE svg PUBLIC "-//W3C//DTD SVG 1.1//EN" "http://www.w3.org/Graphics/SVG/1.1/DTD/svg11.dtd">
<svg width="16px" height="16px" version="1.1" xmlns="http://www.w3.org/2000/svg" xmlns:xlink="http://www.w3.org/1999/xlink" xml:space="preserve" xmlns:serif="http://www.serif.com/" style="fill-rule:evenodd;clip-rule:evenodd;stroke-linejoin:round;stroke-miterlimit:2;">
    <g transform="matrix(1,0,0,1,-130,-170)">
        <g id="replace_parent_directory" transform="matrix(1,0,0,1,100,-180)">
            <g id="bg" transform="matrix(0.110345,0,0,0.121212,13.7793,331.091)">
                <rect x="147" y="156" width="145" height="132" style="fill:rgb(135,135,135);fill-opacity:0;"/>
            </g>
            <g transform="matrix(1,0,0,1,-100,180)">
                <path d="M143,176L143,179L142,179L142,177L135,177L135,179L134,179L134,176L138,176L138,175L135,175L135,170L138,170L138,171L142,171L142,175L139,175L139,176L143,176Z"/>
            </g>
            <g transform="matrix(1,0,0,1,-87,127)">
                <g transform="matrix(1,0,0,1,1,-1)">
                    <path d="M120,232.5L122.5,235L120,235L120,232.5Z"/>
                </g>
                <path d="M124,234C124,233.735 123.895,233.48 123.707,233.293L121.707,231.293C121.52,231.105 121.265,231 121,231L118,231C117.448,231 117,231.448 117,232L117,238C117,238.552 117.448,239 118,239L123,239C123.552,239 124,238.552 124,238L124,234ZM123,234L121,232L118,232L118,238L123,238L123,234Z"/>
            </g>
            <g transform="matrix(1,0,0,1,-78,127)">
                <g transform="matrix(1,0,0,1,1,-1)">
                    <path d="M120,232.5L122.5,235L120,235L120,232.5Z"/>
                </g>
                <path d="M124,234C124,233.735 123.895,233.48 123.707,233.293L121.707,231.293C121.52,231.105 121.265,231 121,231L118,231C117.448,231 117,231.448 117,232L117,238C117,238.552 117.448,239 118,239L123,239C123.552,239 124,238.552 124,238L124,234ZM123,234L121,232L118,232L118,238L123,238L123,234Z"/>
            </g>
        </g>
    </g>
</svg>
