<?xml version="1.0" encoding="UTF-8" standalone="no"?>
<!DOCTYPE svg PUBLIC "-//W3C//DTD SVG 1.1//EN" "http://www.w3.org/Graphics/SVG/1.1/DTD/svg11.dtd">
<svg width="100%" height="100%" viewBox="0 0 16 16" version="1.1" xmlns="http://www.w3.org/2000/svg" xmlns:xlink="http://www.w3.org/1999/xlink" xml:space="preserve" xmlns:serif="http://www.serif.com/" style="fill-rule:evenodd;clip-rule:evenodd;stroke-linejoin:round;stroke-miterlimit:2;">
    <g id="replace_parent_directory">
        <rect id="bg" x="0" y="0" width="16" height="16" style="fill:#878787;fill-opacity:0;"/>
        <path d="M8,12l-1,0l0,-1l-5.48,0c-0.138,0 -0.27,-0.055 -0.368,-0.152c-0.097,-0.098 -0.152,-0.23 -0.152,-0.368c0,-1.723 0,-7.237 0,-8.96c-0,-0.138 0.055,-0.27 0.152,-0.368c0.098,-0.097 0.23,-0.152 0.368,-0.152c1.279,0 4.48,0 4.48,0l2,2l5.48,0c0.138,-0 0.27,0.055 0.368,0.152c0.097,0.098 0.152,0.23 0.152,0.368c0,1.447 0,5.513 0,6.96c-0,0.138 -0.055,0.27 -0.152,0.368c-0.098,0.097 -0.23,0.152 -0.368,0.152c-1.457,0 -5.48,0 -5.48,0l0,1Z"/>
        <rect x="9" y="14" width="5" height="1"/>
        <rect x="1" y="14" width="5" height="1"/>
        <path d="M10,12l-0,4l-5,0l-0,-4l5,0Zm-1,1l-3,-0l-0,2l3,0l-0,-2Z"/>
    </g>
</svg>
