<?xml version="1.0" encoding="UTF-8" standalone="no"?>
<!DOCTYPE svg PUBLIC "-//W3C//DTD SVG 1.1//EN" "http://www.w3.org/Graphics/SVG/1.1/DTD/svg11.dtd">
<svg width="100%" height="100%" viewBox="0 0 16 16" version="1.1" xmlns="http://www.w3.org/2000/svg" xmlns:xlink="http://www.w3.org/1999/xlink" xml:space="preserve" xmlns:serif="http://www.serif.com/" style="fill-rule:evenodd;clip-rule:evenodd;stroke-linejoin:round;stroke-miterlimit:2;">
    <g id="reset_cropbox">
        <rect id="bg" x="0" y="0" width="16" height="16" style="fill:#878787;fill-opacity:0;"/>
        <path d="M9.037,14l3.463,-0c0.828,-0 1.5,-0.672 1.5,-1.5c0,-0.828 -0.672,-1.5 -1.5,-1.5l-1.5,-0l-0,2l-2.667,-2l-0.003,-0l-1.33,-1l4,-3l-0,2l1.5,-0c1.932,-0 3.5,1.568 3.5,3.5c0,1.932 -1.568,3.5 -3.5,3.5l-3.463,-0l0,-2Z"/>
        <path d="M9.037,14l3.463,-0c0.828,-0 1.5,-0.672 1.5,-1.5c0,-0.828 -0.672,-1.5 -1.5,-1.5l-1.5,-0l-0,2l-2.667,-2l-0.003,-0l-1.33,-1l4,-3l-0,2l1.5,-0c1.932,-0 3.5,1.568 3.5,3.5c0,1.932 -1.568,3.5 -3.5,3.5l-3.463,-0l0,-2Z"/>
        <path d="M11,5.5l0,-0.499l-0.998,-0.001l-2.759,0l-1.243,0l-1,0l-1,0l-1,0l-1,0l-2,0l0,-2l3,0l0,-3l2,0l-0,3.001l1,-0.001l1.243,0l3.757,0c0.53,-0 1.039,0.211 1.414,0.586c0.375,0.375 0.586,0.884 0.586,1.415l-0,2.524c-0.164,-0.017 -0.331,-0.025 -0.5,-0.025l-0,-0.5c0,-0.568 -0.321,-1.088 -0.829,-1.342c-0.212,-0.106 -0.442,-0.158 -0.671,-0.158Zm-3.081,7.5l-2.919,0c-0.53,0 -1.039,-0.211 -1.414,-0.586c-0.375,-0.375 -0.586,-0.884 -0.586,-1.414l0,-4.999l2,-0l0,4.999l0.882,0.001c0.065,0.072 0.137,0.138 0.216,0.198l1.33,1c0.022,0.016 0.044,0.032 0.067,0.047l0.691,0.519c-0.098,0.067 -0.187,0.146 -0.267,0.235Z"/>
    </g>
</svg>
