<?xml version="1.0" encoding="UTF-8" standalone="no"?>
<!DOCTYPE svg PUBLIC "-//W3C//DTD SVG 1.1//EN" "http://www.w3.org/Graphics/SVG/1.1/DTD/svg11.dtd">
<svg width="16px" height="16px" version="1.1" xmlns="http://www.w3.org/2000/svg" xmlns:xlink="http://www.w3.org/1999/xlink" xml:space="preserve" xmlns:serif="http://www.serif.com/" style="fill-rule:evenodd;clip-rule:evenodd;stroke-linejoin:round;stroke-miterlimit:2;">
    <g transform="matrix(1,0,0,1,-190,-250)">
        <g id="resequence" transform="matrix(1,0,0,1,160,-100)">
            <g id="bg" transform="matrix(0.110345,0,0,0.121212,13.7793,331.091)">
                <rect x="147" y="156" width="145" height="132" style="fill:rgb(135,135,135);fill-opacity:0;"/>
            </g>
            <g id="restore" transform="matrix(1,0,0,1,-59.9999,220)">
                <path d="M101.5,145.861L101.221,145.853L100.699,145.788C100.308,145.715 99.935,145.59 99.589,145.421C99.589,145.421 100.213,144.797 100.213,144.797C100.612,144.953 101.046,145.039 101.5,145.039C103.453,145.039 105.038,143.454 105.038,141.5C105.038,139.546 103.453,137.961 101.5,137.961C99.723,137.961 98.252,139.273 98,140.98C97.994,141.02 98.006,141.06 98.032,141.091C98.058,141.121 98.097,141.139 98.137,141.139L99.704,141.139C99.704,141.139 97.668,143.582 97.668,143.582C97.33,142.964 97.139,142.254 97.139,141.5L97.166,141.015C97.189,140.804 97.227,140.598 97.279,140.397C97.264,140.458 97.291,140.355 97.291,140.355C97.291,140.355 97.291,140.355 97.291,140.355C97.773,138.581 99.348,137.255 101.247,137.146C101.244,137.146 101.5,137.139 101.5,137.139C101.795,137.139 102.083,137.168 102.362,137.224C102.362,137.224 102.362,137.224 102.362,137.224C103.602,137.473 104.653,138.249 105.27,139.307C105.646,139.952 105.861,140.701 105.861,141.5C105.861,142.299 105.646,143.048 105.27,143.693C104.653,144.751 103.602,145.527 102.362,145.776C102.362,145.776 102.362,145.776 102.362,145.776C102.083,145.832 101.795,145.861 101.5,145.861ZM101.138,141.861L101.138,139.139C101.138,139.139 101.861,139.139 101.861,139.139C101.861,139.139 101.861,141 101.861,141C101.861,141.077 101.923,141.139 102,141.139L103.861,141.139C103.861,141.139 103.861,141.861 103.861,141.861L101.138,141.861Z"/>
            </g>
            <g transform="matrix(1,0,0,1,-160,100)">
                <path d="M196.144,260L191,260L191,261L195.965,261L195.967,260.962L195.975,260.971L195.978,260.89L195.973,260.884C195.98,260.816 195.989,260.749 195.999,260.682C196.017,260.541 196.048,260.383 196.091,260.205L196.13,260.053L196.13,260.054L196.119,260.095L196.149,260.102L196.13,260.054L196.133,260.04C196.136,260.027 196.14,260.014 196.144,260ZM196.137,260.028L196.133,260.04L196.134,260.042L196.13,260.054L196.172,260.109L196.188,260.113L196.134,260.042L196.139,260.026L196.137,260.028ZM197.233,257L194,257L194,258L197.179,258C197.485,257.623 196.84,257.287 197.233,257ZM204,254L198,254L198,255L204,255L204,254Z" style="fill-opacity:0.5;"/>
            </g>
            <g transform="matrix(1,0,0,1,-160,100)">
                <path d="M196.532,264L196.126,264L196.126,264L190.5,264C190.224,264 190,263.776 190,263.5L190,257.496C190,257.222 190.222,257 190.496,257L193,257L193,254.5L193.002,254.5C193.023,254.221 193.256,254 193.541,254C194.634,254 197,254 197,254L197,251.531C197,251.238 197.238,251 197.531,251C198.989,251 203.041,251 204.483,251C204.62,251 204.752,251.055 204.849,251.152C204.946,251.249 205,251.38 205,251.518L205,257.179C204.692,256.929 204.357,256.712 204,256.532L204,252L198,252L198,257.18C197.623,257.486 197.286,257.84 197,258.234L197,255L194,255L194,263L196.144,263C196.241,263.348 196.372,263.683 196.532,264ZM193,263L191,263L191,258L193,258L193,263Z"/>
            </g>
        </g>
    </g>
</svg>
