<?xml version="1.0" encoding="UTF-8" standalone="no"?>
<!DOCTYPE svg PUBLIC "-//W3C//DTD SVG 1.1//EN" "http://www.w3.org/Graphics/SVG/1.1/DTD/svg11.dtd">
<svg width="16px" height="16px" version="1.1" xmlns="http://www.w3.org/2000/svg" xmlns:xlink="http://www.w3.org/1999/xlink" xml:space="preserve" xmlns:serif="http://www.serif.com/" style="fill-rule:evenodd;clip-rule:evenodd;stroke-linejoin:round;stroke-miterlimit:2;">
    <g transform="matrix(1,0,0,1,-90,-130)">
        <g id="reset_cropbox" transform="matrix(1,0,0,1,0,20)">
            <g id="bg" transform="matrix(0.110345,0,0,0.121212,73.7797,91.0909)">
                <rect x="147" y="156" width="145" height="132" style="fill:rgb(135,135,135);fill-opacity:0;"/>
            </g>
            <g id="restore" transform="matrix(1,0,0,1,0,-20)">
                <path d="M101.5,145.861L101.221,145.853L100.699,145.788C100.308,145.715 99.935,145.59 99.589,145.421C99.589,145.421 100.213,144.797 100.213,144.797C100.612,144.953 101.046,145.039 101.5,145.039C103.453,145.039 105.038,143.454 105.038,141.5C105.038,139.546 103.453,137.961 101.5,137.961C99.723,137.961 98.252,139.273 98,140.98C97.994,141.02 98.006,141.06 98.032,141.091C98.058,141.121 98.097,141.139 98.137,141.139L99.704,141.139C99.704,141.139 97.668,143.582 97.668,143.582C97.33,142.964 97.139,142.254 97.139,141.5L97.166,141.015C97.189,140.804 97.227,140.598 97.279,140.397C97.264,140.458 97.291,140.355 97.291,140.355C97.291,140.355 97.291,140.355 97.291,140.355C97.773,138.581 99.348,137.255 101.247,137.146C101.244,137.146 101.5,137.139 101.5,137.139C101.795,137.139 102.083,137.168 102.362,137.224C102.362,137.224 102.362,137.224 102.362,137.224C103.602,137.473 104.653,138.249 105.27,139.307C105.646,139.952 105.861,140.701 105.861,141.5C105.861,142.299 105.646,143.048 105.27,143.693C104.653,144.751 103.602,145.527 102.362,145.776C102.362,145.776 102.362,145.776 102.362,145.776C102.083,145.832 101.795,145.861 101.5,145.861ZM101.138,141.861L101.138,139.139C101.138,139.139 101.861,139.139 101.861,139.139C101.861,139.139 101.861,141 101.861,141C101.861,141.077 101.923,141.139 102,141.139L103.861,141.139C103.861,141.139 103.861,141.861 103.861,141.861L101.138,141.861Z"/>
            </g>
            <g transform="matrix(1,0,0,1,0,-20)">
                <path d="M96.023,141C96.008,141.165 96,141.332 96,141.5C96,142.02 96.072,142.523 96.207,143L95,143C94.47,143 93.961,142.789 93.586,142.414C93.211,142.039 93,141.53 93,141L93,135L90,135L90,133L93,133L93,130L95,130L95,141L96.023,141ZM101,136.023L101,135L96,135L96,133L101,133C101.53,133 102.039,133.211 102.414,133.586C102.789,133.961 103,134.47 103,135L103,136.208C102.864,136.169 102.726,136.136 102.586,136.108C102.235,136.037 101.872,136 101.5,136L101.496,136C101.496,136 101.475,136 101.463,136L101.455,136L101.455,136.005L101.455,136L101.435,136.001L101.428,136L101.401,136.002L101.394,136.001L101.386,136.001L101.384,136.001L101.365,136.002L101.36,136.002L101.351,136.002L101.349,136.002L101.33,136.003L101.325,136.003L101.317,136.003L101.315,136.003L101.296,136.004L101.291,136.004L101.283,136.004L101.28,136.004L101.261,136.006L101.256,136.005L101.248,136.006L101.246,136.006L101.226,136.007L101.221,136.007L101.214,136.008L101.212,136.007L101.191,136.009L101.182,136.009C101.121,136.013 101.06,136.017 101,136.023Z"/>
            </g>
        </g>
    </g>
</svg>
