<?xml version="1.0" encoding="UTF-8" standalone="no"?>
<!DOCTYPE svg PUBLIC "-//W3C//DTD SVG 1.1//EN" "http://www.w3.org/Graphics/SVG/1.1/DTD/svg11.dtd">
<svg width="16px" height="16px" version="1.1" xmlns="http://www.w3.org/2000/svg" xmlns:xlink="http://www.w3.org/1999/xlink" xml:space="preserve" xmlns:serif="http://www.serif.com/" style="fill-rule:evenodd;clip-rule:evenodd;stroke-linejoin:round;stroke-miterlimit:2;">
    <g transform="matrix(1,0,0,1,-170,-170)">
        <g id="reset" transform="matrix(1,0,0,1,60,80)">
            <g id="bg" transform="matrix(0.110345,0,0,0.121212,93.7793,71.0909)">
                <rect x="147" y="156" width="145" height="132" style="fill:rgb(135,135,135);fill-opacity:0;"/>
            </g>
            <g transform="matrix(0.705882,0,0,0.705882,23.9412,78.0588)">
                <path d="M137.5,26.125C137.5,24.952 136.548,24 135.375,24L131.125,24C129.952,24 129,24.952 129,26.125L129,30.375C129,31.548 129.952,32.5 131.125,32.5L135.375,32.5C136.548,32.5 137.5,31.548 137.5,30.375L137.5,26.125Z"/>
            </g>
        </g>
    </g>
</svg>
