<?xml version="1.0" encoding="UTF-8" standalone="no"?>
<!DOCTYPE svg PUBLIC "-//W3C//DTD SVG 1.1//EN" "http://www.w3.org/Graphics/SVG/1.1/DTD/svg11.dtd">
<svg width="16px" height="16px" version="1.1" xmlns="http://www.w3.org/2000/svg" xmlns:xlink="http://www.w3.org/1999/xlink" xml:space="preserve" xmlns:serif="http://www.serif.com/" style="fill-rule:evenodd;clip-rule:evenodd;stroke-linejoin:round;stroke-miterlimit:2;">
    <g transform="matrix(1,0,0,1,-210,-330)">
        <g id="revert_level_to_cleanup" transform="matrix(1,0,0,1,100,100)">
            <g id="bg" transform="matrix(0.110345,0,0,0.121212,93.7793,211.091)">
                <rect x="147" y="156" width="145" height="132" style="fill:rgb(135,135,135);fill-opacity:0;"/>
            </g>
            <g id="restore" transform="matrix(1,0,0,1,20.0001,100)">
                <path d="M101.5,145.861L101.221,145.853L100.699,145.788C100.308,145.715 99.935,145.59 99.589,145.421C99.589,145.421 100.213,144.797 100.213,144.797C100.612,144.953 101.046,145.039 101.5,145.039C103.453,145.039 105.038,143.454 105.038,141.5C105.038,139.546 103.453,137.961 101.5,137.961C99.723,137.961 98.252,139.273 98,140.98C97.994,141.02 98.006,141.06 98.032,141.091C98.058,141.121 98.097,141.139 98.137,141.139L99.704,141.139C99.704,141.139 97.668,143.582 97.668,143.582C97.33,142.964 97.139,142.254 97.139,141.5L97.166,141.015C97.189,140.804 97.227,140.598 97.279,140.397C97.264,140.458 97.291,140.355 97.291,140.355C97.291,140.355 97.291,140.355 97.291,140.355C97.773,138.581 99.348,137.255 101.247,137.146C101.244,137.146 101.5,137.139 101.5,137.139C101.795,137.139 102.083,137.168 102.362,137.224C102.362,137.224 102.362,137.224 102.362,137.224C103.602,137.473 104.653,138.249 105.27,139.307C105.646,139.952 105.861,140.701 105.861,141.5C105.861,142.299 105.646,143.048 105.27,143.693C104.653,144.751 103.602,145.527 102.362,145.776C102.362,145.776 102.362,145.776 102.362,145.776C102.083,145.832 101.795,145.861 101.5,145.861ZM101.138,141.861L101.138,139.139C101.138,139.139 101.861,139.139 101.861,139.139C101.861,139.139 101.861,141 101.861,141C101.861,141.077 101.923,141.139 102,141.139L103.861,141.139C103.861,141.139 103.861,141.861 103.861,141.861L101.138,141.861Z"/>
            </g>
            <g transform="matrix(1,0,0,1,0,0.0680213)">
                <path d="M120,231.5L123.5,235L120,235L120,231.5Z"/>
            </g>
            <g transform="matrix(1,0,0,1,-100,-80.068)">
                <path d="M217,325.068L213,325.068C212.448,325.068 212,324.62 212,324.068L212,312.068C212,311.516 212.448,311.068 213,311.068L220,311.068C220.265,311.068 220.52,311.173 220.707,311.361L223.707,314.361C223.895,314.548 224,314.803 224,315.068L224,316.461C223.683,316.299 223.349,316.167 223,316.068L223,315.068L220,312.068L213,312.068L213,324.068L216.32,324.068C216.51,324.427 216.739,324.762 217,325.068Z"/>
            </g>
        </g>
    </g>
</svg>
