<?xml version="1.0" encoding="UTF-8" standalone="no"?>
<!DOCTYPE svg PUBLIC "-//W3C//DTD SVG 1.1//EN" "http://www.w3.org/Graphics/SVG/1.1/DTD/svg11.dtd">
<svg width="100%" height="100%" viewBox="0 0 16 16" version="1.1" xmlns="http://www.w3.org/2000/svg" xmlns:xlink="http://www.w3.org/1999/xlink" xml:space="preserve" xmlns:serif="http://www.serif.com/" style="fill-rule:evenodd;clip-rule:evenodd;stroke-linejoin:round;stroke-miterlimit:2;">
    <g id="revert_level_to_cleanup">
        <rect id="bg" x="0.001" y="-0.04" width="16" height="16" style="fill:#878787;fill-opacity:0;"/>
        <path d="M9.038,13.96l3.463,-0c0.828,-0 1.5,-0.672 1.5,-1.5c0,-0.828 -0.672,-1.5 -1.5,-1.5l-1.5,-0l0,2l-2.667,-2l-0.003,-0l-1.33,-1l4,-3l0,2l1.5,-0c1.932,-0 3.5,1.568 3.5,3.5c0,1.932 -1.568,3.5 -3.5,3.5l-3.463,-0l0,-2Z"/>
        <path d="M7.038,14.96l-5.037,0l0,-14l8,0l4,4l0,2.256c-0.318,-0.112 -0.653,-0.19 -1,-0.229l0,-2.027l-3,0l0,-3l-7,0l0,12l4.037,0l0,1Z"/>
    </g>
</svg>
