<?xml version="1.0" encoding="UTF-8" standalone="no"?>
<!DOCTYPE svg PUBLIC "-//W3C//DTD SVG 1.1//EN" "http://www.w3.org/Graphics/SVG/1.1/DTD/svg11.dtd">
<svg width="16px" height="16px" version="1.1" xmlns="http://www.w3.org/2000/svg" xmlns:xlink="http://www.w3.org/1999/xlink" xml:space="preserve" xmlns:serif="http://www.serif.com/" style="fill-rule:evenodd;clip-rule:evenodd;stroke-linejoin:round;stroke-miterlimit:2;">
    <g transform="matrix(1,0,0,1,-30,-310)">
        <g id="reverse">
            <g id="bg" transform="matrix(0.110345,0,0,0.121212,13.7793,291.091)">
                <rect x="147" y="156" width="145" height="132" style="fill:rgb(135,135,135);fill-opacity:0;"/>
            </g>
            <g transform="matrix(6.12323e-17,-1,-1,-6.12323e-17,355,417)">
                <path d="M102,321C102.001,320.366 102.001,312.787 102.001,310.5C102.001,310.367 102.054,310.24 102.147,310.146C102.241,310.053 102.368,310 102.501,310C102.501,310 102.501,310 102.501,310C102.634,310 102.761,310.053 102.855,310.146C102.948,310.24 103.001,310.367 103.001,310.5C103.001,312.787 103.001,320.366 103.002,321L105.682,321L102.5,324.182L99.318,321L102,321Z"/>
            </g>
            <g transform="matrix(-6.12323e-17,1,1,6.12323e-17,-279,219)">
                <path d="M102,321C102.001,320.366 102.001,312.787 102.001,310.5C102.001,310.367 102.054,310.24 102.147,310.146C102.241,310.053 102.368,310 102.501,310C102.501,310 102.501,310 102.501,310C102.634,310 102.761,310.053 102.855,310.146C102.948,310.24 103.001,310.367 103.001,310.5C103.001,312.787 103.001,320.366 103.002,321L105.682,321L102.5,324.182L99.318,321L102,321Z"/>
            </g>
        </g>
    </g>
</svg>
