<?xml version="1.0" encoding="UTF-8" standalone="no"?>
<!DOCTYPE svg PUBLIC "-//W3C//DTD SVG 1.1//EN" "http://www.w3.org/Graphics/SVG/1.1/DTD/svg11.dtd">
<svg width="16px" height="16px" version="1.1" xmlns="http://www.w3.org/2000/svg" xmlns:xlink="http://www.w3.org/1999/xlink" xml:space="preserve" xmlns:serif="http://www.serif.com/" style="fill-rule:evenodd;clip-rule:evenodd;stroke-linejoin:round;stroke-miterlimit:2;">
    <g transform="matrix(1,0,0,1,-50,-390)">
        <g id="revert_scene" transform="matrix(1,0,0,1,-20.0004,19.99)">
            <g id="bg" transform="matrix(0.110345,0,0,0.121212,53.7793,351.101)">
                <rect x="147" y="156" width="145" height="132" style="fill:rgb(135,135,135);fill-opacity:0;"/>
            </g>
            <g id="restore" transform="matrix(1,0,0,1,-20.0031,240.036)">
                <path d="M101.5,145.861L101.221,145.853L100.699,145.788C100.308,145.715 99.935,145.59 99.589,145.421C99.589,145.421 100.213,144.797 100.213,144.797C100.612,144.953 101.046,145.039 101.5,145.039C103.453,145.039 105.038,143.454 105.038,141.5C105.038,139.546 103.453,137.961 101.5,137.961C99.723,137.961 98.252,139.273 98,140.98C97.994,141.02 98.006,141.06 98.032,141.091C98.058,141.121 98.097,141.139 98.137,141.139L99.704,141.139C99.704,141.139 97.668,143.582 97.668,143.582C97.33,142.964 97.139,142.254 97.139,141.5L97.166,141.015C97.189,140.804 97.227,140.598 97.279,140.397C97.264,140.458 97.291,140.355 97.291,140.355C97.291,140.355 97.291,140.355 97.291,140.355C97.773,138.581 99.348,137.255 101.247,137.146C101.244,137.146 101.5,137.139 101.5,137.139C101.795,137.139 102.083,137.168 102.362,137.224C102.362,137.224 102.362,137.224 102.362,137.224C103.602,137.473 104.653,138.249 105.27,139.307C105.646,139.952 105.861,140.701 105.861,141.5C105.861,142.299 105.646,143.048 105.27,143.693C104.653,144.751 103.602,145.527 102.362,145.776C102.362,145.776 102.362,145.776 102.362,145.776C102.083,145.832 101.795,145.861 101.5,145.861ZM101.138,141.861L101.138,139.139C101.138,139.139 101.861,139.139 101.861,139.139C101.861,139.139 101.861,141 101.861,141C101.861,141.077 101.923,141.139 102,141.139L103.861,141.139C103.861,141.139 103.861,141.861 103.861,141.861L101.138,141.861Z"/>
            </g>
            <g transform="matrix(1,0,0,1,-19.9996,280.01)">
                <path d="M97.197,98C97.009,98.228 96.839,98.472 96.69,98.728C96.69,98.728 96.69,98.728 96.69,98.729C96.411,99.207 96.201,99.731 96.074,100.286C96.04,100.433 96.015,100.566 95.998,100.687C95.957,100.96 95.935,101.241 95.935,101.526L95.935,101.572C95.935,101.557 95.935,101.541 95.935,101.526C95.935,101.855 95.936,101.778 95.937,101.654L95.936,101.638L95.937,101.669L95.938,101.716L95.94,101.764L95.942,101.811L95.945,101.858L95.948,101.905L95.951,101.952L95.955,101.999L95.959,102.046L95.964,102.092L95.969,102.139L95.974,102.185L95.975,102.195C96.067,102.964 96.317,103.684 96.69,104.323C96.69,104.323 96.69,104.323 96.69,104.323C96.828,104.561 96.984,104.787 97.154,105L90,105L90,98L97.197,98ZM95.935,101.588L95.936,101.619L95.935,101.588ZM98.266,97L90,97L90,96.037C89.985,95.208 90.491,94.422 91.313,94.122L93.75,93.23L93.75,95.36L92,96L100.867,96C100.708,96.018 100.552,96.042 100.398,96.073C100.319,96.089 100.24,96.107 100.161,96.126L100.141,96.131L100.117,96.138C99.442,96.31 98.816,96.606 98.266,97ZM96.75,94.263L95.25,94.811L95.25,92.682L96.75,92.133L96.75,94.263ZM99.75,93.166L98.25,93.714L98.25,91.585L99.75,91.036L99.75,93.166ZM101.25,90.488L102.583,90L103.27,91.878L101.25,92.617L101.25,90.488Z"/>
            </g>
        </g>
    </g>
</svg>
