<?xml version="1.0" encoding="UTF-8" standalone="no"?>
<!DOCTYPE svg PUBLIC "-//W3C//DTD SVG 1.1//EN" "http://www.w3.org/Graphics/SVG/1.1/DTD/svg11.dtd">
<svg width="100%" height="100%" viewBox="0 0 16 16" version="1.1" xmlns="http://www.w3.org/2000/svg" xmlns:xlink="http://www.w3.org/1999/xlink" xml:space="preserve" xmlns:serif="http://www.serif.com/" style="fill-rule:evenodd;clip-rule:evenodd;stroke-linejoin:round;stroke-miterlimit:2;">
    <g id="save_default_settings">
        <rect id="bg" x="0" y="0" width="16" height="16" style="fill:#878787;fill-opacity:0;"/>
        <path id="sv" d="M16,9l0,7.01l-9,-0l0,-9l7,-0.01l2,2Zm-4.5,3.01c-0.828,-0 -1.5,0.672 -1.5,1.5c0,0.828 0.672,1.5 1.5,1.5c0.828,-0 1.5,-0.672 1.5,-1.5c0,-0.828 -0.672,-1.5 -1.5,-1.5Zm1.5,-4l-4,-0l0,2l4,-0l0,-2Z"/>
        <path d="M5.5,11.981c-0.385,-0.117 -0.825,-0.266 -1.065,-0.4c-0.461,0.44 -0.977,0.801 -1.549,1.082c-0.595,-0.432 -1.117,-0.954 -1.549,-1.549c0.281,-0.572 0.642,-1.088 1.082,-1.549c-0.201,-0.36 -0.36,-0.743 -0.472,-1.14c-0.637,-0.014 -1.258,-0.124 -1.861,-0.33c-0.115,-0.725 -0.115,-1.465 -0,-2.19c0.603,-0.206 1.224,-0.316 1.861,-0.33c0.112,-0.397 0.271,-0.78 0.472,-1.14c-0.44,-0.461 -0.801,-0.977 -1.082,-1.549c0.432,-0.595 0.954,-1.117 1.549,-1.549c0.572,0.281 1.088,0.642 1.549,1.082c0.36,-0.201 0.743,-0.36 1.14,-0.472c0.014,-0.637 0.124,-1.258 0.33,-1.861c0.725,-0.115 1.465,-0.115 2.19,0c0.206,0.603 0.316,1.224 0.33,1.861c0.397,0.112 0.78,0.271 1.14,0.472c0.461,-0.44 0.977,-0.801 1.549,-1.082c0.595,0.432 1.117,0.954 1.549,1.549c-0.281,0.572 -0.642,1.088 -1.082,1.549c0.188,0.338 0.34,0.697 0.451,1.068l-1.9,0.003c-0.559,-1.168 -1.752,-1.976 -3.132,-1.976c-1.915,0 -3.47,1.555 -3.47,3.47c-0,1.378 0.805,2.57 1.97,3.13l0,1.851Z"/>
    </g>
</svg>
