<?xml version="1.0" encoding="UTF-8" standalone="no"?>
<!DOCTYPE svg PUBLIC "-//W3C//DTD SVG 1.1//EN" "http://www.w3.org/Graphics/SVG/1.1/DTD/svg11.dtd">
<svg width="100%" height="100%" viewBox="0 0 16 16" version="1.1" xmlns="http://www.w3.org/2000/svg" xmlns:xlink="http://www.w3.org/1999/xlink" xml:space="preserve" xmlns:serif="http://www.serif.com/" style="fill-rule:evenodd;clip-rule:evenodd;stroke-linejoin:round;stroke-miterlimit:2;">
    <g id="saveall">
        <rect id="bg" x="-0" y="0" width="16" height="16" style="fill:#878787;fill-opacity:0;"/>
        <path id="save_small" d="M12.889,0l3.111,3.111c-0,0 -0,5.566 -0,7.889c-0,0.552 -0.448,1 -1,1c-2.258,0 -7.728,0 -9.985,0c-0.265,0 -0.52,-0.105 -0.707,-0.293c-0.188,-0.187 -0.293,-0.442 -0.293,-0.707c-0,-2.26 -0,-7.74 -0,-10c-0,-0.265 0.105,-0.52 0.293,-0.707c0.187,-0.188 0.442,-0.293 0.707,-0.293c2.32,0 7.874,0 7.874,0Zm-0.889,3.996l-0,-1.996l-6,0l0,2l6,-0.004Zm-2,6.004c1.107,-0 2,-0.893 2,-2c-0,-1.107 -0.893,-2 -2,-2c-1.107,0 -2,0.893 -2,2c-0,1.107 0.893,2 2,2Z"/>
        <path id="save_small1" serif:id="save_small" d="M14,13c-0,0.552 -0.448,1 -1,1l-9.985,0c-0.265,0 -0.52,-0.105 -0.707,-0.293c-0.188,-0.187 -0.293,-0.442 -0.293,-0.707l-0,-10c-0,-0.265 0.105,-0.52 0.293,-0.707c0.187,-0.188 0.442,-0.293 0.707,-0.293l-0,10c-0,0.265 0.105,0.52 0.293,0.707c0.187,0.188 0.442,0.293 0.707,0.293l9.985,0Z"/>
        <path id="save_small2" serif:id="save_small" d="M12,15c-0,0.552 -0.448,1 -1,1l-9.985,0c-0.265,0 -0.52,-0.105 -0.707,-0.293c-0.188,-0.187 -0.293,-0.442 -0.293,-0.707l-0,-10c-0,-0.265 0.105,-0.52 0.293,-0.707c0.187,-0.188 0.442,-0.293 0.707,-0.293l-0,10c-0,0.265 0.105,0.52 0.293,0.707c0.187,0.188 0.442,0.293 0.707,0.293l9.985,0Z"/>
    </g>
</svg>
