<?xml version="1.0" encoding="UTF-8" standalone="no"?>
<!DOCTYPE svg PUBLIC "-//W3C//DTD SVG 1.1//EN" "http://www.w3.org/Graphics/SVG/1.1/DTD/svg11.dtd">
<svg width="100%" height="100%" viewBox="0 0 16 16" version="1.1" xmlns="http://www.w3.org/2000/svg" xmlns:xlink="http://www.w3.org/1999/xlink" xml:space="preserve" xmlns:serif="http://www.serif.com/" style="fill-rule:evenodd;clip-rule:evenodd;stroke-linejoin:round;stroke-miterlimit:2;">
    <g id="saveas">
        <rect id="bg" x="0" y="0" width="16" height="16" style="fill:#878787;fill-opacity:0;"/>
        <path id="edit" d="M14.121,12l-3.275,3.275l-2.846,0.725l0.725,-2.846l3.275,-3.275l2.121,2.121Zm-1.242,-3l0.532,-0.533c0.286,-0.285 0.671,-0.447 1.072,-0.451c0.4,-0.003 0.783,0.153 1.064,0.434l0.003,0.003c0.281,0.281 0.437,0.664 0.434,1.064c-0.004,0.401 -0.166,0.786 -0.451,1.072l-0.533,0.532l-2.121,-2.121Z"/>
        <path d="M6.707,15l-4.707,0c-0.552,-0 -1,-0.448 -1,-1l-0,-12c0,-0.552 0.448,-1 1,-1l9.889,-0l3.111,3.111l0,2.448c-0.173,-0.029 -0.35,-0.044 -0.529,-0.043c-0.792,0.007 -1.555,0.326 -2.12,0.891l-0.533,0.532c-0.157,0.157 -0.271,0.34 -0.344,0.535c-0.195,0.073 -0.378,0.187 -0.535,0.344l-0.952,0.952c-0.113,-0.998 -0.958,-1.77 -1.987,-1.77c-1.107,0 -2,0.893 -2,2c0,1.029 0.772,1.874 1.77,1.987l-0.106,0.106c-0.19,0.191 -0.326,0.429 -0.393,0.691l-0.564,2.216Zm3.293,-10.005l0,-1.995l-7,0l0,2l7,-0.005Z"/>
        <path d="M6.707,15l-4.707,0c-0.552,-0 -1,-0.448 -1,-1l-0,-12c0,-0.552 0.448,-1 1,-1l9.889,-0l3.111,3.111l0,2.448c-0.173,-0.029 -0.35,-0.044 -0.529,-0.043c-0.792,0.007 -1.555,0.326 -2.12,0.891l-0.533,0.532c-0.157,0.157 -0.271,0.34 -0.344,0.535c-0.195,0.073 -0.378,0.187 -0.535,0.344l-0.952,0.952c-0.113,-0.998 -0.958,-1.77 -1.987,-1.77c-1.107,0 -2,0.893 -2,2c0,1.029 0.772,1.874 1.77,1.987l-0.106,0.106c-0.19,0.191 -0.326,0.429 -0.393,0.691l-0.564,2.216Zm3.293,-10.005l0,-1.995l-7,0l0,2l7,-0.005Zm-3.684,7.489c-0.795,-0.539 -1.316,-1.449 -1.316,-2.484c0,-1.66 1.34,-3 3,-3c0.918,0 1.738,0.41 2.288,1.057c0.136,-0.129 0.284,-0.239 0.438,-0.329c0.104,-0.177 0.233,-0.344 0.385,-0.496l0.533,-0.533c0.64,-0.64 1.472,-1.042 2.356,-1.152l0,-1.022l-2.525,-2.525l-1.475,0c0.553,0 1,0.448 1,1l0,1.995c0,0.552 -0.447,1 -0.999,1l-7,0.005c-0.265,-0 -0.52,-0.106 -0.707,-0.293c-0.188,-0.188 -0.294,-0.442 -0.294,-0.707l0,9l3.93,0l0.372,-1.463c0.005,-0.018 0.009,-0.035 0.014,-0.053Zm-4.316,-9.484c0,-0.552 0.448,-1 1,-1l-1,-0l0,1Z"/>
    </g>
</svg>
