<?xml version="1.0" encoding="UTF-8" standalone="no"?>
<!DOCTYPE svg PUBLIC "-//W3C//DTD SVG 1.1//EN" "http://www.w3.org/Graphics/SVG/1.1/DTD/svg11.dtd">
<svg width="16px" height="16px" version="1.1" xmlns="http://www.w3.org/2000/svg" xmlns:xlink="http://www.w3.org/1999/xlink" xml:space="preserve" xmlns:serif="http://www.serif.com/" style="fill-rule:evenodd;clip-rule:evenodd;stroke-linejoin:round;stroke-miterlimit:2;">
    <g transform="matrix(1,0,0,1,-150,-70)">
        <g id="saveall" transform="matrix(1,0,0,1,40,0)">
            <g id="bg" transform="matrix(0.110345,0,0,0.121212,93.7793,51.0909)">
                <rect x="147" y="156" width="145" height="132" style="fill:rgb(135,135,135);fill-opacity:0;"/>
            </g>
            <g transform="matrix(1.03704,0,0,1.03704,109.667,67.6667)">
                <path d="M12.75,2.25C12.75,2.25 8.598,2.25 6.073,2.25C5.027,2.25 4.179,3.098 4.179,4.145C4.179,6.294 4.179,9.778 4.179,11.927C4.179,12.429 4.378,12.911 4.734,13.266C5.089,13.622 5.571,13.821 6.073,13.821C8.222,13.821 11.706,13.821 13.855,13.821C14.902,13.821 15.75,12.973 15.75,11.927C15.75,9.402 15.75,5.25 15.75,5.25L12.75,2.25ZM12.351,3.214L14.786,5.649C14.786,5.649 14.786,11.927 14.786,11.927C14.786,12.441 14.369,12.857 13.855,12.857L6.073,12.857C5.827,12.857 5.59,12.759 5.415,12.585C5.241,12.41 5.143,12.173 5.143,11.927L5.143,4.145C5.143,3.631 5.559,3.214 6.073,3.214L12.351,3.214Z"/>
            </g>
            <g transform="matrix(1,0,0,1,-40,0)">
                <path d="M151,84.005C151,84.269 151.105,84.522 151.291,84.709C151.478,84.895 151.731,85 151.995,85C154.343,85 160.035,85 160.035,85L160.037,85L161.747,85C161.41,85.597 160.77,86 160.035,86C157.806,86 154.194,86 151.965,86C151.444,86 150.944,85.793 150.576,85.425C150.207,85.056 150,84.556 150,84.035C150,81.806 150,78.194 150,75.965C150,75.23 150.403,74.59 151,74.253L151,84.005Z"/>
            </g>
            <g transform="matrix(1,0,0,1,-40,0)">
                <path d="M153,81.969C153,82.243 153.109,82.505 153.302,82.698C153.495,82.891 153.757,83 154.031,83C156.401,83 162.035,83 162.035,83L162.037,83L163.747,83C163.41,83.597 162.77,84 162.035,84C159.806,84 156.194,84 153.965,84C153.444,84 152.944,83.793 152.576,83.425C152.207,83.056 152,82.556 152,82.035C152,79.806 152,76.194 152,73.965C152,73.23 152.403,72.59 153,72.253L153,81.969Z"/>
            </g>
            <g transform="matrix(0.444249,0,0,0.444249,116.001,72.6695)">
                <path d="M9,16.501C11.491,16.501 13.501,14.491 13.501,12C13.501,9.509 11.491,7.499 9,7.499C6.509,7.499 4.499,9.509 4.499,12C4.499,14.491 6.509,16.501 9,16.501ZM9,14.25C7.755,14.25 6.75,13.245 6.75,12C6.75,10.755 7.755,9.75 9,9.75C10.245,9.75 11.25,10.755 11.25,12C11.25,13.245 10.245,14.25 9,14.25Z"/>
            </g>
            <g transform="matrix(1.24435,0,0,1.03704,110.8,67.6666)">
                <path d="M9,7.065L4.179,7.071L4.179,4.179L9,4.179L9,7.065ZM8.197,6.102L4.983,6.106C4.983,6.106 4.983,5.143 4.983,5.143C4.983,5.143 8.197,5.143 8.197,5.143L8.197,6.102Z"/>
            </g>
         </g>
     </g>
</svg>
