<?xml version="1.0" encoding="UTF-8" standalone="no"?>
<!DOCTYPE svg PUBLIC "-//W3C//DTD SVG 1.1//EN" "http://www.w3.org/Graphics/SVG/1.1/DTD/svg11.dtd">
<svg width="16px" height="16px" version="1.1" xmlns="http://www.w3.org/2000/svg" xmlns:xlink="http://www.w3.org/1999/xlink" xml:space="preserve" xmlns:serif="http://www.serif.com/" style="fill-rule:evenodd;clip-rule:evenodd;stroke-linejoin:round;stroke-miterlimit:2;">
    <g transform="matrix(1,0,0,1,-2,-2)">
        <rect x="0" y="0" width="20" height="20" style="fill-opacity:0;"/>
    </g>
    <g transform="matrix(1.03704,0,0,1.03704,-1.333,-1.31264)">
        <g transform="matrix(1,0,0,1,0.964287,0.964287)">
            <path d="M12.75,2.25L3.75,2.25C2.917,2.25 2.25,2.925 2.25,3.75L2.25,14.25C2.25,15.075 2.918,15.75 3.75,15.75L14.25,15.75C15.075,15.75 15.75,15.075 15.75,14.25L15.75,5.25L12.75,2.25ZM9,14.25C7.755,14.25 6.75,13.245 6.75,12C6.75,10.755 7.755,9.75 9,9.75C10.245,9.75 11.25,10.755 11.25,12C11.25,13.245 10.245,14.25 9,14.25ZM10.929,7.065L4.179,7.071L4.179,4.179L10.929,4.179L10.929,7.065Z" style="fill-rule:nonzero;"/>
        </g>
        <g transform="matrix(0.964283,0,0,0.964283,-0.643177,-0.66281)">
            <path d="M13.889,3.021L4.556,3.021C3.692,3.021 3,3.721 3,4.576L3,15.465C3,15.633 3.027,15.794 3.076,15.945C2.45,15.743 2,15.155 2,14.465L2,3.576C2,2.721 2.692,2.021 3.556,2.021L12.889,2.021L13.889,3.021Z" style="fill-rule:nonzero;"/>
        </g>
    </g>
</svg>
