<?xml version="1.0" encoding="UTF-8" standalone="no"?>
<!DOCTYPE svg PUBLIC "-//W3C//DTD SVG 1.1//EN" "http://www.w3.org/Graphics/SVG/1.1/DTD/svg11.dtd">
<svg width="100%" height="100%" viewBox="0 0 16 16" version="1.1" xmlns="http://www.w3.org/2000/svg" xmlns:xlink="http://www.w3.org/1999/xlink" xml:space="preserve" xmlns:serif="http://www.serif.com/" style="fill-rule:evenodd;clip-rule:evenodd;stroke-linejoin:round;stroke-miterlimit:2;">
    <g id="save_all_levels">
        <rect x="0.001" y="-0.04" width="16" height="16" style="fill:#878787;fill-opacity:0;"/>
        <path d="M12.001,0.46l2.5,2.5l-2.5,-0l-0,-2.5Z"/>
        <path id="sv" d="M16.001,8.95l0,7.01l-9,-0l0,-9l7,-0.01l2,2Zm-4.5,3.01c-0.828,-0 -1.5,0.672 -1.5,1.5c0,0.828 0.672,1.5 1.5,1.5c0.828,-0 1.5,-0.672 1.5,-1.5c0,-0.828 -0.672,-1.5 -1.5,-1.5Zm1.5,-4l-4,-0l0,2l4,-0l0,-2Z"/>
        <path d="M6.001,11.96l-2,-0l-0,-12l8,-0l3,3l-1,-0l-2,-2l-7,-0l-0,10l1,-0l-0,1Z"/>
        <path d="M6.001,13.96l-4,-0l-0,-11l1,-0l-0,10l3,-0l-0,1Z"/>
        <path d="M6.001,15.96l-6,-0l-0,-10l1,-0l-0,9l5,-0l-0,1Z"/>
        <rect x="14.001" y="2.96" width="1" height="3"/>
    </g>
</svg>
