<?xml version="1.0" encoding="UTF-8" standalone="no"?>
<!DOCTYPE svg PUBLIC "-//W3C//DTD SVG 1.1//EN" "http://www.w3.org/Graphics/SVG/1.1/DTD/svg11.dtd">
<svg width="16px" height="16px" version="1.1" xmlns="http://www.w3.org/2000/svg" xmlns:xlink="http://www.w3.org/1999/xlink" xml:space="preserve" xmlns:serif="http://www.serif.com/" style="fill-rule:evenodd;clip-rule:evenodd;stroke-linejoin:round;stroke-miterlimit:2;">
    <g transform="matrix(1,0,0,1,-70,-370)">
        <g id="save_previewed_frames" transform="matrix(1,0,0,1,0,39.952)">
            <g id="bg" transform="matrix(0.110345,0,0,0.121212,53.7793,311.139)">
                <rect x="147" y="156" width="145" height="132" style="fill:rgb(135,135,135);fill-opacity:0;"/>
            </g>
            <g id="preview" transform="matrix(1,0,0,1,0,-19.95)">
                <path d="M76,358.975C75.837,358.991 75.671,359 75.501,359C72.052,359 70,355.492 70,355.492C70,355.492 72.061,352 75.501,352C78.939,352 81,355.492 81,355.492C81,355.492 80.882,355.694 80.655,356L77.95,356C77.983,355.838 78,355.671 78,355.5C78,354.12 76.88,353 75.5,353C74.12,353 73,354.12 73,355.5C73,356.88 74.12,358 75.5,358C75.671,358 75.838,357.983 76,357.95L76,358.975ZM76,356.643C75.847,356.711 75.678,356.748 75.5,356.748C74.811,356.748 74.252,356.189 74.252,355.5C74.252,354.811 74.811,354.252 75.5,354.252C76.189,354.252 76.748,354.811 76.748,355.5C76.748,355.678 76.711,355.847 76.643,356L76.643,356C76.472,356 76.309,356.068 76.188,356.188C76.068,356.309 76,356.472 76,356.643L76,356.643Z"/>
            </g>
            <g transform="matrix(1,0,0,1,0,-19.95)">
                <path d="M86,358C86,357.735 85.895,357.48 85.707,357.293C85.52,357.105 85.265,357 85,357L78,357C77.735,357 77.48,357.105 77.293,357.293C77.105,357.48 77,357.735 77,358L77,365C77,365.265 77.105,365.52 77.293,365.707C77.48,365.895 77.735,366 78,366L85,366C85.265,366 85.52,365.895 85.707,365.707C85.895,365.52 86,365.265 86,365L86,358ZM85,365L82.5,360L80,365L78,365C78,365 78,358 78,358L85,358L85,365ZM80,359C80.552,359 81,359.448 81,360C81,360.552 80.552,361 80,361C79.448,361 79,360.552 79,360C79,359.448 79.448,359 80,359Z"/>
            </g>
        </g>
    </g>
</svg>
