<?xml version="1.0" encoding="UTF-8" standalone="no"?>
<!DOCTYPE svg PUBLIC "-//W3C//DTD SVG 1.1//EN" "http://www.w3.org/Graphics/SVG/1.1/DTD/svg11.dtd">
<svg width="100%" height="100%" viewBox="0 0 16 16" version="1.1" xmlns="http://www.w3.org/2000/svg" xmlns:xlink="http://www.w3.org/1999/xlink" xml:space="preserve" xmlns:serif="http://www.serif.com/" style="fill-rule:evenodd;clip-rule:evenodd;stroke-linejoin:round;stroke-miterlimit:2;">
    <g id="save_and_render">
        <rect id="bg" x="-0" y="-0.01" width="16" height="16" style="fill:#878787;fill-opacity:0;"/>
        <path id="sv" d="M16,8.99l-0,7.01l-9,-0l-0,-9l7,-0.01l2,2Zm-4.5,3.01c-0.828,-0 -1.5,0.672 -1.5,1.5c-0,0.828 0.672,1.5 1.5,1.5c0.828,-0 1.5,-0.672 1.5,-1.5c-0,-0.828 -0.672,-1.5 -1.5,-1.5Zm1.5,-4l-4,-0l-0,2l4,-0l-0,-2Z"/>
        <path d="M6,9.99l-5,0c-0.552,0 -1,-0.448 -1,-1l-0,-7c-0,-0.552 0.448,-1 1,-1l9,0c0.552,0 1,0.448 1,1l-0,4.004l-3.3,0.005l0.128,-0.082c0.146,-0.093 0.235,-0.254 0.235,-0.427c-0,-0.173 -0.089,-0.334 -0.235,-0.427l-4.049,-2.578c-0.156,-0.099 -0.354,-0.105 -0.516,-0.016c-0.162,0.089 -0.263,0.259 -0.263,0.444l-0,5.154c0,0.185 0.101,0.355 0.263,0.444c0.162,0.089 0.36,0.083 0.516,-0.016l2.221,-1.414l0,2.909Zm6,-3.997l0.001,-2.003c0.264,0 0.519,0.105 0.706,0.293c0.188,0.187 0.293,0.441 0.293,0.706l-0,1.002l-1,0.002Zm-6,7.997l-1,0c-0.552,-0 -1,-0.448 -1,-1l2,0l0,1Zm0,-2l-3,0c-0.552,-0 -1,-0.448 -1,-1l4,0l0,1Z"/>
    </g>
</svg>
