<?xml version="1.0" encoding="UTF-8" standalone="no"?>
<!DOCTYPE svg PUBLIC "-//W3C//DTD SVG 1.1//EN" "http://www.w3.org/Graphics/SVG/1.1/DTD/svg11.dtd">
<svg width="16px" height="16px" version="1.1" xmlns="http://www.w3.org/2000/svg" xmlns:xlink="http://www.w3.org/1999/xlink" xml:space="preserve" xmlns:serif="http://www.serif.com/" style="fill-rule:evenodd;clip-rule:evenodd;stroke-linejoin:round;stroke-miterlimit:2;">
    <g transform="matrix(0.8,0,0,0.8,-4.44089e-16,-4.44089e-16)">
        <rect x="0" y="0" width="20" height="20" style="fill-opacity:0;"/>
    </g>
    <g transform="matrix(0.64305,0,0,0.64305,-336.39,13.4234)">
        <path d="M545.213,-10C544.991,-10 544.779,-9.911 544.623,-9.754L543.717,-8.842L546.842,-5.717L547.752,-6.623C548.082,-6.953 548.082,-7.473 547.752,-7.803L545.802,-9.753C545.647,-9.911 545.434,-10 545.213,-10ZM542.658,-7.78L533.992,0.888L533.992,4.007L537.113,4.007L545.778,-4.657L542.658,-7.78ZM535,1L536,1L536,2L537,2L537,3L535,3L535,1Z" style="fill-rule:nonzero;"/>
    </g>
    <g transform="matrix(0.5,0,0,0.5,-183,-14.9585)">
        <path d="M393.74,41.001C393.407,41.001 393.089,41.134 392.855,41.37L385.351,48.888C384.504,48.015 383.317,47.473 382,47.473C379.418,47.473 377.333,49.557 377.333,52.139C377.333,53.456 377.876,54.644 378.749,55.491L376.917,57.324L376.917,59.917L371.111,59.917C369.384,59.917 368,58.517 368,56.806L368,35.028C368,33.317 369.384,31.917 371.111,31.917L389.778,31.917L396,38.139L396,42.748L394.623,41.371C394.39,41.135 394.072,41.002 393.74,41.001ZM392.889,59.917L389.999,59.917L396,53.917L396,56.806C396,58.517 394.6,59.917 392.889,59.917ZM386,35.917L371.985,35.917L371.985,41.917L385.985,41.917L385.985,41.903L386,41.903L386,35.917Z" style="fill-rule:nonzero;"/>
    </g>
</svg>
