<?xml version="1.0" encoding="UTF-8" standalone="no"?>
<!DOCTYPE svg PUBLIC "-//W3C//DTD SVG 1.1//EN" "http://www.w3.org/Graphics/SVG/1.1/DTD/svg11.dtd">
<svg width="16px" height="16px" version="1.1" xmlns="http://www.w3.org/2000/svg" xmlns:xlink="http://www.w3.org/1999/xlink" xml:space="preserve" xmlns:serif="http://www.serif.com/" style="fill-rule:evenodd;clip-rule:evenodd;stroke-linejoin:round;stroke-miterlimit:2;">
    <g transform="matrix(1,0,0,1,-130,-310)">
        <g id="save_all_levels" transform="matrix(1,0,0,1,20,80)">
            <g id="bg" transform="matrix(0.110345,0,0,0.121212,93.7793,211.091)">
                <rect x="147" y="156" width="145" height="132" style="fill:rgb(135,135,135);fill-opacity:0;"/>
            </g>
            <g transform="matrix(1,0,0,1,1,-2)">
                <path d="M120,232.5L122.5,235L120,235L120,232.5Z"/>
            </g>
            <g transform="matrix(1,0,0,1,20,-80)">
                <path d="M106,319L104,317L98,317C97.735,317 97.48,317.105 97.293,317.293C97.105,317.48 97,317.735 97,318C97,319.732 97,323.268 97,325C97,325.265 97.105,325.52 97.293,325.707C97.48,325.895 97.735,326 98,326L105,326C105.265,326 105.52,325.895 105.707,325.707C105.895,325.52 106,325.265 106,325C106,323.066 106,319 106,319ZM99,318L99,320L103,320L103,318L103.586,318L105,319.414L105,325C105,325 98,325 98,325C98,325 98,318 98,318L99,318ZM101.5,321C102.328,321 103,321.672 103,322.5C103,323.328 102.328,324 101.5,324C100.672,324 100,323.328 100,322.5C100,321.672 100.672,321 101.5,321ZM102,318L100,318L100,319L102,319L102,318Z"/>
            </g>
            <g transform="matrix(1,0,0,1,1,-83)">
                <path d="M115,325L114,325C113.448,325 113,324.552 113,324L113,314C113,313.448 113.448,313 114,313L120,313C120.265,313 120.52,313.105 120.707,313.293L122.707,315.293C122.895,315.48 123,315.735 123,316C123,316 122,316 122,316L120,314L114,314L114,324L115,324L115,325Z"/>
            </g>
            <g transform="matrix(1,0,0,1,-1,-81)">
                <path d="M117,325L114,325C113.448,325 113,324.552 113,324L113,315C113,314.448 113.448,314 114,314L114,324L117,324L117,325Z"/>
            </g>
            <g transform="matrix(1,0,0,1,-3,-79)">
                <path d="M119,325L114,325C113.448,325 113,324.552 113,324L113,316C113,315.448 113.448,315 114,315L114,324L119,324L119,325Z"/>
            </g>
            <g transform="matrix(1,0,0,0.75,-20,-1.75)">
                <rect x="143" y="313" width="1" height="4"/>
            </g>
        </g>
    </g>
</svg>
