<?xml version="1.0" encoding="UTF-8" standalone="no"?>
<!DOCTYPE svg PUBLIC "-//W3C//DTD SVG 1.1//EN" "http://www.w3.org/Graphics/SVG/1.1/DTD/svg11.dtd">
<svg width="100%" height="100%" viewBox="0 0 16 16" version="1.1" xmlns="http://www.w3.org/2000/svg" xmlns:xlink="http://www.w3.org/1999/xlink" xml:space="preserve" xmlns:serif="http://www.serif.com/" style="fill-rule:evenodd;clip-rule:evenodd;stroke-linejoin:round;stroke-miterlimit:2;">
    <g id="save_scene_as">
        <rect id="bg" x="0" y="-0.01" width="16" height="16" style="fill:#878787;fill-opacity:0;"/>
        <path id="edit" d="M14.369,11.772l-3.551,3.551l-2.818,0.697l0.697,-2.818l3.55,-3.551l2.122,2.121Zm-1.394,-2.849l0.334,-0.334c0.281,-0.281 0.662,-0.439 1.06,-0.439c0.397,0 0.778,0.158 1.059,0.439l0.003,0.003c0.281,0.281 0.438,0.662 0.438,1.059c0,0.397 -0.157,0.778 -0.438,1.059l-0.334,0.334l-2.122,-2.121Z"/>
        <path id="clapboard" d="M7.256,15.02l-6.247,0l0,-7.993l-0.02,0l0,-4l2.02,0l2,2l-1.982,1.983l0.99,0l1.982,-1.983l2.131,0l-1.983,1.983l1.697,0l1.983,-1.983l2.334,0l-1.983,1.983l1.697,0l1.983,-1.983l1.151,0l0,2.23c-0.197,-0.05 -0.402,-0.076 -0.609,-0.076c-0.663,0 -1.298,0.263 -1.767,0.732c-0.003,0.003 -0.006,0.006 -0.009,0.009l-0.088,0.088c-3.205,0 -10.527,0 -10.527,0l0,6.01c0,0 2.672,0 5.494,0l-0.247,1Zm0.497,-11.409l-2.587,0.583l-1.673,-1.674l2.586,-0.582l1.674,1.673Zm-0.288,-1.985l2.695,-0.607l1.673,1.673l-2.695,0.607l-1.673,-1.673Zm4.08,-0.919l3.047,-0.686l0.439,1.951l-1.813,0.408l-1.673,-1.673Z"/>
    </g>
</svg>
