<?xml version="1.0" encoding="UTF-8" standalone="no"?>
<!DOCTYPE svg PUBLIC "-//W3C//DTD SVG 1.1//EN" "http://www.w3.org/Graphics/SVG/1.1/DTD/svg11.dtd">
<svg width="16px" height="16px" version="1.1" xmlns="http://www.w3.org/2000/svg" xmlns:xlink="http://www.w3.org/1999/xlink" xml:space="preserve" xmlns:serif="http://www.serif.com/" style="fill-rule:evenodd;clip-rule:evenodd;stroke-linejoin:round;stroke-miterlimit:2;">
    <g transform="matrix(1,0,0,1,-130,-70)">
        <g id="save" transform="matrix(1,0,0,1,20,0)">
            <g id="bg" transform="matrix(0.110345,0,0,0.121212,93.7793,51.0909)">
                <rect x="147" y="156" width="145" height="132" style="fill:rgb(135,135,135);fill-opacity:0;"/>
            </g>
            <g transform="matrix(1.03704,0,0,1.03704,108.667,68.6666)">
                <path d="M12.75,2.25C12.75,2.25 7.169,2.25 4.145,2.25C3.098,2.25 2.25,3.098 2.25,4.145C2.25,6.716 2.25,11.284 2.25,13.855C2.25,14.902 3.098,15.75 4.145,15.75C6.716,15.75 11.284,15.75 13.855,15.75C14.902,15.75 15.75,14.902 15.75,13.855C15.75,10.831 15.75,5.25 15.75,5.25L12.75,2.25ZM12.351,3.214L14.786,5.649C14.786,5.649 14.786,13.855 14.786,13.855C14.786,14.369 14.369,14.786 13.855,14.786L4.145,14.786C3.631,14.786 3.214,14.369 3.214,13.855C3.214,13.855 3.214,4.145 3.214,4.145C3.214,3.631 3.631,3.214 4.145,3.214L12.351,3.214Z"/>
            </g>
            <g transform="matrix(0.888889,0,0,0.888889,110,69.3333)">
                <path d="M9,15.375C10.867,15.375 12.375,13.867 12.375,12C12.375,10.132 10.867,8.625 9,8.625C7.132,8.625 5.625,10.132 5.625,12C5.625,13.867 7.132,15.375 9,15.375ZM9,14.25C7.755,14.25 6.75,13.245 6.75,12C6.75,10.755 7.755,9.75 9,9.75C10.245,9.75 11.25,10.755 11.25,12C11.25,13.245 10.245,14.25 9,14.25Z"/>
            </g>
            <g transform="matrix(1.03704,0,0,1.03704,108.667,68.6666)">
                <path d="M10.929,7.065L4.179,7.071L4.179,4.179L10.929,4.179L10.929,7.065ZM9.965,6.102L5.143,6.106C5.143,6.106 5.143,5.143 5.143,5.143C5.143,5.143 9.965,5.143 9.965,5.143L9.965,6.102Z"/>
            </g>
        </g>
     </g>
</svg>
