<?xml version="1.0" encoding="UTF-8" standalone="no"?>
<!DOCTYPE svg PUBLIC "-//W3C//DTD SVG 1.1//EN" "http://www.w3.org/Graphics/SVG/1.1/DTD/svg11.dtd">
<svg width="16px" height="16px" version="1.1" xmlns="http://www.w3.org/2000/svg" xmlns:xlink="http://www.w3.org/1999/xlink" xml:space="preserve" xmlns:serif="http://www.serif.com/" style="fill-rule:evenodd;clip-rule:evenodd;stroke-linejoin:round;stroke-miterlimit:2;">
    <g transform="matrix(1,0,0,1,-50,-410)">
        <g id="save_scene_as" transform="matrix(1,0,0,1,-39.9997,100)">
            <g id="bg" transform="matrix(0.110345,0,0,0.121212,73.7797,291.091)">
                <rect x="147" y="156" width="145" height="132" style="fill:rgb(135,135,135);fill-opacity:0;"/>
            </g>
            <g transform="matrix(1,0,0,1,-40,-20)">
                <path d="M137,346L139.414,346C139.679,346 139.934,345.895 140.121,345.707L145.707,340.121C146.098,339.731 146.098,339.098 145.707,338.707L144.293,337.293C143.902,336.902 143.269,336.902 142.879,337.293L137.293,342.879C137.105,343.066 137,343.321 137,343.586L137,346ZM138,345L139.414,345L145,339.414L143.586,338L138,343.586L138,345Z"/>
            </g>
            <g transform="matrix(1,0,0,1,-40,-20)">
                <path d="M140.475,338L136.444,342.03C136.032,342.443 135.8,343.002 135.8,343.586L135.8,345L130,345L130,338L140.475,338ZM141.475,337L141,337L130,337L130,336.037C129.985,335.208 130.491,334.422 131.313,334.122L133.75,333.23L133.75,335.36L132,336L142.668,336C142.437,336.106 142.22,336.254 142.03,336.444L141.475,337ZM136.75,334.263L135.25,334.811L135.25,332.682L136.75,332.133L136.75,334.263ZM139.75,333.166L138.25,333.714L138.25,331.585L139.75,331.036L139.75,333.166ZM141.25,330.488L142.583,330L143.27,331.878L141.25,332.617L141.25,330.488Z"/>
            </g>
        </g>
    </g>
</svg>
