<?xml version="1.0" encoding="UTF-8" standalone="no"?>
<!DOCTYPE svg PUBLIC "-//W3C//DTD SVG 1.1//EN" "http://www.w3.org/Graphics/SVG/1.1/DTD/svg11.dtd">
<svg width="16px" height="16px" version="1.1" xmlns="http://www.w3.org/2000/svg" xmlns:xlink="http://www.w3.org/1999/xlink" xml:space="preserve" xmlns:serif="http://www.serif.com/" style="fill-rule:evenodd;clip-rule:evenodd;stroke-linejoin:round;stroke-miterlimit:2;">
    <g transform="matrix(1,0,0,1,-170,-70)">
        <g id="saveas" transform="matrix(1,0,0,1,60,0)">
            <g id="bg" transform="matrix(0.110345,0,0,0.121212,93.7793,51.0909)">
                <rect x="147" y="156" width="145" height="132" style="fill:rgb(135,135,135);fill-opacity:0;"/>
            </g>
            <g transform="matrix(1.03704,0,0,1.03704,108.667,68.6666)">
                <path d="M10.929,7.065L4.179,7.071L4.179,4.179L10.929,4.179L10.929,7.065ZM9.965,6.102L5.143,6.106C5.143,6.106 5.143,5.143 5.143,5.143C5.143,5.143 9.965,5.143 9.965,5.143L9.965,6.102Z"/>
            </g>
            <g transform="matrix(1,0,0,1,-60,0)">
                <path d="M177,85L179.414,85C179.679,85 179.934,84.895 180.121,84.707L185.707,79.121C186.098,78.731 186.098,78.098 185.707,77.707L184.293,76.293C183.902,75.902 183.269,75.902 182.879,76.293L177.293,81.879C177.105,82.066 177,82.321 177,82.586L177,85ZM185,78.414L183.586,77L178,82.586L178,84L179.414,84L185,78.414Z"/>
            </g>
            <g transform="matrix(1,0,0,1,-60,0)">
                <path d="M177,82.83C175.834,82.419 175,81.309 175,80C175,78.34 176.34,77 178,77C179.132,77 180.115,77.623 180.626,78.546L179.874,79.298C179.59,78.539 178.859,78 178,78C176.893,78 176,78.893 176,80C176,80.859 176.539,81.59 177.298,81.874L177.293,81.879C177.105,82.066 177,82.321 177,82.586L177,82.83Z"/>
            </g>
            <g transform="matrix(1,0,0,1,-60,0)">
                <path d="M175.8,85L172.965,85C171.88,85 171,84.12 171,83.035C171,80.368 171,75.632 171,72.965C171,71.88 171.88,71 172.965,71C176.101,71 181.889,71 181.889,71L185,74.111L185,75.315C184.705,75.066 184.359,74.908 184,74.839L184,74.525L181.475,72L172.965,72C172.432,72 172,72.432 172,72.965C172,72.965 172,83.035 172,83.035C172,83.568 172.432,84 172.965,84L175.8,84L175.8,85ZM185,81.525L185,83.035C185,84.12 184.12,85 183.035,85L181.525,85L182.525,84L183.035,84C183.568,84 184,83.568 184,83.035L184,82.525L185,81.525Z"/>
            </g>
        </g>
     </g>
</svg>
