<?xml version="1.0" encoding="UTF-8" standalone="no"?>
<!DOCTYPE svg PUBLIC "-//W3C//DTD SVG 1.1//EN" "http://www.w3.org/Graphics/SVG/1.1/DTD/svg11.dtd">
<svg width="100%" height="100%" viewBox="0 0 16 16" version="1.1" xmlns="http://www.w3.org/2000/svg" xmlns:xlink="http://www.w3.org/1999/xlink" xml:space="preserve" xmlns:serif="http://www.serif.com/" style="fill-rule:evenodd;clip-rule:evenodd;stroke-linejoin:round;stroke-miterlimit:2;">
    <g id="scanner_settings">
        <rect id="bg" x="0.017" y="0" width="16" height="16" style="fill:#878787;fill-opacity:0;"/>
        <path d="M12.169,7.05c-0.443,-0.067 -0.895,-0.067 -1.338,0c-0.079,0.5 -0.136,1.003 -0.173,1.508c-0.224,0.064 -0.439,0.153 -0.643,0.266c-0.383,-0.331 -0.779,-0.645 -1.189,-0.944c-0.36,0.267 -0.679,0.586 -0.946,0.946c0.299,0.41 0.613,0.806 0.944,1.189c-0.113,0.204 -0.202,0.419 -0.266,0.643c-0.505,0.037 -1.008,0.094 -1.508,0.173c-0.067,0.443 -0.067,0.895 0,1.338c0.5,0.079 1.003,0.136 1.508,0.173c0.064,0.224 0.153,0.439 0.266,0.643c-0.331,0.383 -0.645,0.779 -0.944,1.189c0.267,0.36 0.586,0.679 0.946,0.946c0.41,-0.299 0.806,-0.613 1.189,-0.944c0.204,0.113 0.419,0.202 0.643,0.266c0.037,0.505 0.094,1.008 0.173,1.508c0.443,0.067 0.895,0.067 1.338,-0c0.079,-0.5 0.136,-1.003 0.173,-1.508c0.224,-0.064 0.439,-0.153 0.643,-0.266c0.383,0.331 0.779,0.645 1.189,0.944c0.36,-0.267 0.679,-0.586 0.946,-0.946c-0.299,-0.41 -0.613,-0.806 -0.944,-1.189c0.113,-0.204 0.202,-0.419 0.266,-0.643c0.505,-0.037 1.008,-0.094 1.508,-0.173c0.067,-0.443 0.067,-0.895 -0,-1.338c-0.5,-0.079 -1.003,-0.136 -1.508,-0.173c-0.064,-0.224 -0.153,-0.439 -0.266,-0.643c0.331,-0.383 0.645,-0.779 0.944,-1.189c-0.267,-0.36 -0.586,-0.679 -0.946,-0.946c-0.41,0.299 -0.806,0.613 -1.189,0.944c-0.204,-0.113 -0.419,-0.202 -0.643,-0.266c-0.037,-0.505 -0.094,-1.008 -0.173,-1.508Zm-0.669,2.875c0.869,0 1.575,0.706 1.575,1.575c-0,0.869 -0.706,1.575 -1.575,1.575c-0.869,-0 -1.575,-0.706 -1.575,-1.575c0,-0.869 0.706,-1.575 1.575,-1.575Z"/>
        <path id="Scanner" d="M5.819,11.97l-4.025,-0c-0.977,-0 -1.777,-0.8 -1.777,-1.778l-0,-2.556c-0,-0.978 0.8,-1.666 1.777,-1.666l8.659,-0c-0.275,0.148 -0.486,0.401 -0.579,0.711c-0.053,0.177 -0.103,0.355 -0.149,0.534c-0.159,-0.094 -0.32,-0.184 -0.483,-0.272c-0.425,-0.23 -0.947,-0.181 -1.323,0.123c-0.314,0.253 -0.6,0.539 -0.853,0.853c-0.304,0.376 -0.353,0.898 -0.123,1.323c0.088,0.163 0.178,0.324 0.272,0.483c-0.179,0.046 -0.357,0.096 -0.534,0.149c-0.463,0.139 -0.798,0.542 -0.849,1.023c-0.038,0.356 -0.042,0.716 -0.013,1.073Zm6.728,-6l0.447,-0c0,-0 -8.865,-3.207 -11.683,-4.226c-0.225,-0.082 -0.408,-0.249 -0.51,-0.466c-0.101,-0.217 -0.11,-0.465 -0.028,-0.689c0.001,-0.001 0.001,-0.001 0.001,-0.002c0.171,-0.464 0.685,-0.702 1.15,-0.532c3.003,1.097 13.026,4.759 13.026,4.759c0.622,0.178 1.067,0.889 1.067,1.6l-0,1.62c-0.025,-0.04 -0.053,-0.078 -0.083,-0.115c-0.253,-0.314 -0.539,-0.6 -0.853,-0.853c-0.376,-0.304 -0.898,-0.353 -1.323,-0.123c-0.163,0.088 -0.324,0.178 -0.483,0.272c-0.046,-0.179 -0.096,-0.357 -0.149,-0.534c-0.093,-0.31 -0.304,-0.563 -0.579,-0.711Zm-0.796,1.037c-0.14,0.007 -0.28,0.021 -0.419,0.04c-0.125,0.017 -0.243,0.057 -0.349,0.116c0.014,-0.046 0.027,-0.092 0.041,-0.138c0.242,-0.025 0.485,-0.032 0.727,-0.018Zm-2.876,1.103c-0.282,0.228 -0.537,0.485 -0.763,0.767c-0.038,-0.068 -0.076,-0.136 -0.113,-0.204c0.2,-0.248 0.426,-0.474 0.674,-0.674c0.067,0.037 0.135,0.074 0.202,0.111Zm-1.703,2.871c-0.054,0.102 -0.092,0.215 -0.108,0.334c-0.027,0.193 -0.042,0.388 -0.046,0.583c-0.026,-0.291 -0.024,-0.584 0.007,-0.874c0.049,-0.015 0.098,-0.029 0.147,-0.043Zm-3.155,-2.011c-0,-0.552 -0.448,-1 -1.001,-1c-0.552,-0 -0.999,0.448 -1,1c-0,0.552 0.448,0.999 1,1c0.553,0 1.001,-0.448 1.001,-1Z" style="fill-rule:nonzero;"/>
    </g>
</svg>
