<?xml version="1.0" encoding="UTF-8" standalone="no"?>
<!DOCTYPE svg PUBLIC "-//W3C//DTD SVG 1.1//EN" "http://www.w3.org/Graphics/SVG/1.1/DTD/svg11.dtd">
<svg width="16px" height="16px" version="1.1" xmlns="http://www.w3.org/2000/svg" xmlns:xlink="http://www.w3.org/1999/xlink" xml:space="preserve" xmlns:serif="http://www.serif.com/" style="fill-rule:evenodd;clip-rule:evenodd;stroke-linejoin:round;stroke-miterlimit:2;">
    <g transform="matrix(1,0,0,1,-50,-10)">
        <g id="scanner_settings" transform="matrix(1,0,0,1,19.9999,-521)">
            <g id="bg" transform="matrix(0.110345,0,0,0.121212,13.7794,512.091)">
                <rect x="147" y="156" width="145" height="132" style="fill:rgb(135,135,135);fill-opacity:0;"/>
            </g>
            <g transform="matrix(1,0,0,1,-40.0001,20.9697)">
                <g id="cog_bg" transform="matrix(0.826922,0,0,0.758004,13.2308,125.016)">
                    <rect x="77" y="517" width="11" height="12" style="fill:rgb(163,97,97);fill-opacity:0;"/>
                </g>
                <path id="cog" d="M82.547,518.143C82.649,518.458 82.703,518.783 82.711,519.115C82.712,519.161 82.742,519.2 82.786,519.213C83.005,519.275 83.217,519.362 83.415,519.473C83.455,519.495 83.505,519.489 83.538,519.458C83.778,519.228 84.046,519.037 84.34,518.886C84.634,519.106 84.894,519.366 85.115,519.659C84.963,519.955 84.772,520.222 84.543,520.463C84.511,520.496 84.505,520.545 84.527,520.585C84.638,520.784 84.726,520.995 84.788,521.214C84.8,521.258 84.84,521.289 84.885,521.29C85.218,521.297 85.542,521.352 85.858,521.453C85.909,521.816 85.909,522.185 85.858,522.547C85.542,522.649 85.218,522.703 84.885,522.711C84.84,522.712 84.8,522.742 84.788,522.786C84.726,523.005 84.638,523.217 84.527,523.415C84.505,523.455 84.511,523.505 84.543,523.538C84.772,523.778 84.963,524.046 85.115,524.341C84.894,524.634 84.634,524.894 84.341,525.115C84.046,524.963 83.778,524.772 83.538,524.543C83.505,524.511 83.455,524.505 83.415,524.527C83.217,524.638 83.005,524.726 82.786,524.788C82.742,524.8 82.712,524.84 82.711,524.885C82.703,525.218 82.649,525.542 82.547,525.858C82.185,525.909 81.816,525.909 81.453,525.858C81.351,525.542 81.297,525.218 81.29,524.885C81.289,524.84 81.258,524.8 81.214,524.788C80.995,524.726 80.784,524.638 80.585,524.527C80.545,524.505 80.496,524.511 80.463,524.543C80.222,524.772 79.955,524.963 79.66,525.115C79.366,524.894 79.106,524.634 78.886,524.341C79.037,524.046 79.228,523.778 79.458,523.538C79.489,523.505 79.495,523.455 79.473,523.415C79.362,523.217 79.274,523.005 79.213,522.786C79.2,522.742 79.161,522.712 79.115,522.711C78.783,522.703 78.458,522.649 78.143,522.547C78.091,522.185 78.091,521.816 78.142,521.453C78.458,521.352 78.783,521.297 79.115,521.29C79.161,521.289 79.2,521.258 79.213,521.214C79.274,520.995 79.362,520.784 79.473,520.585C79.495,520.545 79.489,520.496 79.458,520.463C79.228,520.222 79.037,519.955 78.886,519.66C79.106,519.366 79.366,519.106 79.659,518.886C79.955,519.037 80.222,519.228 80.463,519.458C80.496,519.489 80.545,519.495 80.585,519.473C80.784,519.362 80.995,519.275 81.214,519.213C81.258,519.2 81.289,519.161 81.29,519.115C81.297,518.783 81.351,518.458 81.453,518.143C81.816,518.091 82.184,518.091 82.547,518.143L82.547,518.143ZM82,520.444C81.142,520.444 80.444,521.142 80.444,522C80.444,522.859 81.142,523.556 82,523.556C82.859,523.556 83.556,522.859 83.556,522C83.556,521.142 82.859,520.444 82,520.444Z"/>
                <g id="Scanner" transform="matrix(1,0,0,1,20.0001,500.03)">
                    <path d="M56.904,21.97C56.904,21.731 56.921,21.492 56.954,21.254C57.019,20.8 57.337,20.422 57.774,20.281L57.86,20.255L57.818,20.178C57.608,19.77 57.65,19.277 57.926,18.909C58.214,18.525 58.555,18.184 58.939,17.896C59.306,17.62 59.798,17.578 60.207,17.788L60.285,17.83L60.31,17.745C60.451,17.308 60.829,16.989 61.284,16.924C61.758,16.857 62.241,16.857 62.715,16.924C62.815,16.938 62.911,16.964 63,17.001L63.171,17.087C63.417,17.237 63.601,17.471 63.69,17.745L63.715,17.829L63.792,17.788C64.2,17.578 64.693,17.62 65.06,17.896C65.412,18.16 65.728,18.468 66,18.813L66,16.414C66,15.703 65.556,14.992 64.933,14.814C64.933,14.814 54.91,11.152 51.907,10.055C51.442,9.885 50.928,10.123 50.757,10.587C50.757,10.588 50.757,10.588 50.756,10.589C50.674,10.813 50.684,11.061 50.785,11.278C50.886,11.495 51.069,11.662 51.294,11.744C54.113,12.763 62.978,15.97 62.978,15.97L51.778,15.97C50.8,15.97 50,16.658 50,17.636L50,20.192C50,21.17 50.8,21.97 51.778,21.97L56.904,21.97ZM54,18.97C54,19.522 53.552,19.97 53,19.97C52.447,19.969 51.999,19.522 51.999,18.97C52.001,18.418 52.447,17.97 53,17.97C53.552,17.97 54,18.418 54,18.97Z" style="fill-rule:nonzero;"/>
                </g>
            </g>
        </g>
    </g>
</svg>
