<?xml version="1.0" encoding="UTF-8" standalone="no"?>
<!DOCTYPE svg PUBLIC "-//W3C//DTD SVG 1.1//EN" "http://www.w3.org/Graphics/SVG/1.1/DTD/svg11.dtd">
<svg width="100%" height="100%" viewBox="0 0 16 16" version="1.1" xmlns="http://www.w3.org/2000/svg" xmlns:xlink="http://www.w3.org/1999/xlink" xml:space="preserve" xmlns:serif="http://www.serif.com/" style="fill-rule:evenodd;clip-rule:evenodd;stroke-linejoin:round;stroke-miterlimit:2;">
    <g id="scanner_define">
        <rect id="bg" x="-0" y="0" width="16" height="16" style="fill:#878787;fill-opacity:0;"/>
        <path id="Scanner" d="M8.246,11.97l-6.468,-0c-0.978,-0 -1.778,-0.8 -1.778,-1.778l-0,-2.556c-0,-0.978 0.8,-1.666 1.778,-1.666l11.2,-0c-0,-0 -8.865,-3.207 -11.684,-4.226c-0.225,-0.082 -0.408,-0.249 -0.509,-0.466c-0.101,-0.217 -0.111,-0.465 -0.029,-0.689c0.001,-0.001 0.001,-0.001 0.001,-0.002c0.171,-0.464 0.685,-0.702 1.15,-0.532c3.003,1.097 13.026,4.759 13.026,4.759c0.623,0.178 1.067,0.889 1.067,1.6l-0,1.259c-0.825,-1.02 -2.087,-1.673 -3.5,-1.673c-2.484,-0 -4.5,2.016 -4.5,4.5c-0,0.515 0.086,1.009 0.246,1.47Zm-4.246,-3c-0,-0.552 -0.448,-1 -1,-1c-0.553,-0 -0.999,0.448 -1.001,1c0,0.552 0.448,0.999 1.001,1c0.552,0 1,-0.448 1,-1Z" style="fill-rule:nonzero;"/>
        <path id="find" d="M10.404,13.303c0.585,0.438 1.31,0.697 2.096,0.697c1.932,0 3.5,-1.568 3.5,-3.5c-0,-1.932 -1.568,-3.5 -3.5,-3.5c-1.932,0 -3.5,1.568 -3.5,3.5c-0,0.786 0.259,1.511 0.697,2.096l-2.551,2.551c-0.195,0.195 -0.195,0.512 0,0.707c0.195,0.195 0.512,0.195 0.707,-0l2.551,-2.551Zm2.096,-5.303c1.38,0 2.5,1.12 2.5,2.5c-0,1.38 -1.12,2.5 -2.5,2.5c-1.38,0 -2.5,-1.12 -2.5,-2.5c-0,-1.38 1.12,-2.5 2.5,-2.5Z"/>
    </g>
</svg>
