<?xml version="1.0" encoding="UTF-8" standalone="no"?>
<!DOCTYPE svg PUBLIC "-//W3C//DTD SVG 1.1//EN" "http://www.w3.org/Graphics/SVG/1.1/DTD/svg11.dtd">
<svg width="16px" height="16px" version="1.1" xmlns="http://www.w3.org/2000/svg" xmlns:xlink="http://www.w3.org/1999/xlink" xml:space="preserve" xmlns:serif="http://www.serif.com/" style="fill-rule:evenodd;clip-rule:evenodd;stroke-linejoin:round;stroke-miterlimit:2;">
    <g transform="matrix(1,0,0,1,-50,-450)">
        <g id="scene_export" transform="matrix(1,0,0,1,-40,140)">
            <g id="bg" transform="matrix(0.110345,0,0,0.121212,73.7797,291.091)">
                <rect x="147" y="156" width="145" height="132" style="fill:rgb(135,135,135);fill-opacity:0;"/>
            </g>
            <g transform="matrix(1,0,0,1,0,-20)">
                <path d="M106,342L106,345.5C106,345.776 105.776,346 105.5,346L99.5,346C99.224,346 99,345.776 99,345.5L99,342L101,342L101,343L100,343L100,345L105,345L105,343L104,343L104,342L106,342ZM102,341C102.001,341.695 102.001,342.724 102.001,344L103.001,344C103.001,342.724 103.001,341.695 103.002,341L105.682,341L102.5,337.818L99.318,341L102,341Z"/>
            </g>
            <g transform="matrix(1,0,0,1,0,-20)">
                <path d="M100.621,338L98.47,340.151C98.198,340.423 98.077,340.803 98.131,341.173C97.926,341.388 97.8,341.679 97.8,342L97.8,345L90,345L90,338L100.621,338ZM99,345L99,342L101,342L101,343L100,343L100,345L104,345L99,345ZM102.318,338L99.318,341L102,341C102.001,341.695 102.001,342.724 102.001,344L103.001,344C103.001,342.724 103.001,341.695 103.002,341L104,341L104,339.318L102.682,338L102.318,338ZM101,337L90,337L90,336.037C89.985,335.208 90.491,334.422 91.313,334.122L93.75,333.23L93.75,335.36L92,336L104,336L104,337L104,337L104,337L101,337L101,337ZM96.75,334.263L95.25,334.811L95.25,332.682L96.75,332.133L96.75,334.263ZM99.75,333.166L98.25,333.714L98.25,331.585L99.75,331.036L99.75,333.166ZM101.25,330.488L102.583,330L103.27,331.878L101.25,332.617L101.25,330.488Z"/>
            </g>
        </g>
    </g>
</svg>
