<?xml version="1.0" encoding="UTF-8" standalone="no"?>
<!DOCTYPE svg PUBLIC "-//W3C//DTD SVG 1.1//EN" "http://www.w3.org/Graphics/SVG/1.1/DTD/svg11.dtd">
<svg width="100%" height="100%" viewBox="0 0 16 16" version="1.1" xmlns="http://www.w3.org/2000/svg" xmlns:xlink="http://www.w3.org/1999/xlink" xml:space="preserve" xmlns:serif="http://www.serif.com/" style="fill-rule:evenodd;clip-rule:evenodd;stroke-linejoin:round;stroke-miterlimit:2;">
    <g id="scene_export">
        <rect id="bg" x="0" y="-0" width="16" height="16" style="fill:#878787;fill-opacity:0;"/>
        <path id="export" d="M11.514,16c-2.476,-0 -4.486,-2.01 -4.486,-4.486c-0,-2.476 2.01,-4.486 4.486,-4.486c2.476,-0 4.486,2.01 4.486,4.486c0,2.476 -2.01,4.486 -4.486,4.486Zm-0.106,-7.984c-0.099,0.019 -0.194,0.068 -0.269,0.148l-2.828,2.938c-0.189,0.2 -0.181,0.517 0.02,0.706c0.2,0.19 0.517,0.181 0.707,-0.019l2.001,-2.065l-0,4.768c-0,0.276 0.224,0.5 0.5,0.5c0.276,0 0.5,-0.224 0.5,-0.5l-0,-4.758l2.008,2.033c0.193,0.198 0.51,0.201 0.707,0.008c0.197,-0.193 0.2,-0.51 0.007,-0.707l-2.872,-2.917c-0.129,-0.132 -0.314,-0.177 -0.481,-0.135Z"/>
        <path id="clapboard" d="M7.278,14.999l-6.294,-0l0,-7.993l-0.02,0l0,-4l2.02,0l2,2l-1.982,1.983l0.99,-0l1.982,-1.983l2.131,0l-0.494,0.494l-0.111,0l0,0.111l-1.378,1.378l1.697,-0l1.983,-1.983l2.334,0l-1.037,1.037c-0.992,0.074 -1.911,0.413 -2.687,0.946c-0.411,0.282 -0.781,0.619 -1.101,1l-5.327,0l0,6.01l4.638,-0c0.182,0.358 0.403,0.693 0.656,1Zm5.408,-8.846l1.147,-1.147l1.151,0l0,2.26c-0.656,-0.537 -1.44,-0.926 -2.298,-1.113Zm-4.958,-2.563l-2.587,0.583l-1.673,-1.674l2.586,-0.582l1.674,1.673Zm-0.288,-1.985l2.695,-0.607l1.673,1.673l-2.695,0.607l-1.673,-1.673Zm4.08,-0.919l3.047,-0.686l0.439,1.951l-1.813,0.408l-1.673,-1.673Z"/>
    </g>
</svg>
