<?xml version="1.0" encoding="UTF-8" standalone="no"?>
<!DOCTYPE svg PUBLIC "-//W3C//DTD SVG 1.1//EN" "http://www.w3.org/Graphics/SVG/1.1/DTD/svg11.dtd">
<svg width="16px" height="16px" version="1.1" xmlns="http://www.w3.org/2000/svg" xmlns:xlink="http://www.w3.org/1999/xlink" xml:space="preserve" xmlns:serif="http://www.serif.com/" style="fill-rule:evenodd;clip-rule:evenodd;stroke-linejoin:round;stroke-miterlimit:2;">
    <g transform="matrix(1,0,0,1,-30,-290)">
        <g id="scenecast">
            <g id="bg" transform="matrix(0.110345,0,0,0.121212,13.7793,271.091)">
                <rect x="147" y="156" width="145" height="132" style="fill:rgb(135,135,135);fill-opacity:0;"/>
            </g>
            <g transform="matrix(1,0,0,1,28,289)">
                <path d="M3,17C2.448,17 2,16.552 2,16L2,2C2,1.448 2.448,1 3,1L17,1C17.552,1 18,1.448 18,2L18,16C18,16.552 17.552,17 17,17L3,17ZM14,15L12,15L12,16L14,16L14,15ZM5,15L3,15L3,16L5,16L5,15ZM8,15L6,15L6,16L8,16L8,15ZM11,15L9,15L9,16L11,16L11,15ZM15,15L15,16L17,16L17,15L15,15ZM17,5C17,4.448 16.552,4 16,4C13.423,4 6.577,4 4,4C3.448,4 3,4.448 3,5C3,6.916 3,11.084 3,13C3,13.552 3.448,14 4,14C6.577,14 13.423,14 16,14C16.552,14 17,13.552 17,13C17,11.084 17,6.916 17,5ZM8,2L6,2L6,3L8,3L8,2ZM11,2L9,2L9,3L11,3L11,2ZM5,2L3,2L3,3L5,3L5,2ZM14,2L12,2L12,3L14,3L14,2ZM17,2L15,2L15,3L17,3L17,2Z"/>
            </g>
            <g transform="matrix(6.53145e-17,1.06667,-1.16667,7.14377e-17,58.3333,292.333)">
                <path d="M5.313,14L9.063,20L1.563,20L5.313,14Z"/>
            </g>
        </g>
    </g>
</svg>
