<?xml version="1.0" encoding="UTF-8" standalone="no"?>
<!DOCTYPE svg PUBLIC "-//W3C//DTD SVG 1.1//EN" "http://www.w3.org/Graphics/SVG/1.1/DTD/svg11.dtd">
<svg width="100%" height="100%" viewBox="0 0 16 16" version="1.1" xmlns="http://www.w3.org/2000/svg" xmlns:xlink="http://www.w3.org/1999/xlink" xml:space="preserve" xmlns:serif="http://www.serif.com/" style="fill-rule:evenodd;clip-rule:evenodd;stroke-linejoin:round;stroke-miterlimit:2;">
    <g id="scene_settings">
        <rect id="bg" x="0" y="-0.01" width="16" height="16" style="fill:#878787;fill-opacity:0;"/>
        <path d="M11.976,7.015c-0.316,-0.033 -0.636,-0.033 -0.952,0c-0.151,0.504 -0.273,1.015 -0.366,1.533c-0.224,0.064 -0.439,0.153 -0.643,0.266c-0.432,-0.3 -0.879,-0.575 -1.342,-0.825c-0.248,0.2 -0.474,0.426 -0.674,0.674c0.25,0.463 0.525,0.91 0.825,1.342c-0.113,0.204 -0.202,0.419 -0.266,0.643c-0.518,0.093 -1.029,0.215 -1.533,0.366c-0.033,0.316 -0.033,0.636 0,0.952c0.504,0.151 1.015,0.273 1.533,0.366c0.064,0.224 0.153,0.439 0.266,0.643c-0.3,0.432 -0.575,0.879 -0.825,1.342c0.2,0.248 0.426,0.474 0.674,0.674c0.463,-0.25 0.91,-0.525 1.342,-0.825c0.204,0.113 0.419,0.202 0.643,0.266c0.093,0.518 0.215,1.029 0.366,1.533c0.316,0.033 0.636,0.033 0.952,-0c0.151,-0.504 0.273,-1.015 0.366,-1.533c0.224,-0.064 0.439,-0.153 0.643,-0.266c0.432,0.3 0.879,0.575 1.342,0.825c0.248,-0.2 0.474,-0.426 0.674,-0.674c-0.25,-0.463 -0.525,-0.91 -0.825,-1.342c0.113,-0.204 0.202,-0.419 0.266,-0.643c0.518,-0.093 1.029,-0.215 1.533,-0.366c0.033,-0.316 0.033,-0.636 -0,-0.952c-0.504,-0.151 -1.015,-0.273 -1.533,-0.366c-0.064,-0.224 -0.153,-0.439 -0.266,-0.643c0.3,-0.432 0.575,-0.879 0.825,-1.342c-0.2,-0.248 -0.426,-0.474 -0.674,-0.674c-0.463,0.25 -0.91,0.525 -1.342,0.825c-0.204,-0.113 -0.419,-0.202 -0.643,-0.266c-0.093,-0.518 -0.215,-1.029 -0.366,-1.533Zm-0.476,2.585c1.043,0 1.89,0.847 1.89,1.89c-0,1.043 -0.847,1.89 -1.89,1.89c-1.043,0 -1.89,-0.847 -1.89,-1.89c0,-1.043 0.847,-1.89 1.89,-1.89Z"/>
        <path id="clapboard" d="M7.277,14.989l-6.263,-0l0,-7.993l-0.02,0l-0,-4l2.02,0l2,2l-1.982,1.983l0.989,-0l1.983,-1.983l2.131,0l-1.983,1.983l1.697,-0l1.983,-1.983l2.334,0l-1.006,1.006c-0.074,0.005 -0.147,0.011 -0.221,0.019c-0.401,0.043 -0.737,0.322 -0.852,0.708c-0.078,0.26 -0.149,0.522 -0.212,0.786c-0.232,-0.142 -0.467,-0.277 -0.707,-0.406c-0.354,-0.191 -0.789,-0.151 -1.103,0.102c-0.284,0.23 -0.544,0.487 -0.778,0.768c-2.739,0 -5.273,0 -5.273,0l0,6.01c0,-0 2.405,-0 5.062,-0c-0.113,0.323 -0.053,0.685 0.166,0.957c0.012,0.014 0.024,0.029 0.035,0.043Zm5.346,-8.753l1.24,-1.24l1.151,0l0,2.246c-0.012,-0.01 -0.025,-0.021 -0.037,-0.031c-0.314,-0.253 -0.749,-0.293 -1.104,-0.102c-0.239,0.129 -0.474,0.264 -0.706,0.406c-0.063,-0.264 -0.134,-0.526 -0.212,-0.786c-0.059,-0.199 -0.177,-0.369 -0.332,-0.493Zm-4.866,-2.656l-2.586,0.583l-1.674,-1.674l2.587,-0.582l1.673,1.673Zm-0.288,-1.985l2.696,-0.607l1.673,1.673l-2.695,0.607l-1.674,-1.673Zm4.081,-0.919l3.046,-0.686l0.44,1.951l-1.813,0.408l-1.673,-1.673Z"/>
    </g>
</svg>
