<?xml version="1.0" encoding="UTF-8" standalone="no"?>
<!DOCTYPE svg PUBLIC "-//W3C//DTD SVG 1.1//EN" "http://www.w3.org/Graphics/SVG/1.1/DTD/svg11.dtd">
<svg width="100%" height="100%" viewBox="0 0 16 16" version="1.1" xmlns="http://www.w3.org/2000/svg" xmlns:xlink="http://www.w3.org/1999/xlink" xml:space="preserve" xmlns:serif="http://www.serif.com/" style="fill-rule:evenodd;clip-rule:evenodd;stroke-linecap:round;stroke-linejoin:round;stroke-miterlimit:1.5;">
    <g id="select_all">
        <rect id="bg" x="0" y="0" width="16" height="16" style="fill:#878787;fill-opacity:0;"/>
        <path id="fileobject" d="M16,1.046l-0,10c0,0.553 -0.448,1 -1,1l-10,0c-0.552,0 -1,-0.447 -1,-1l0,-10c0,-0.552 0.448,-1 1,-1l10,0c0.552,0 1,0.448 1,1Zm-1,0l-10,0l-0,10l10,0l0,-10Z"/>
        <path d="M7.453,5.329l2.176,2.176l3.918,-3.917" style="fill:none;stroke:#000;stroke-width:1.46px;"/>
        <path d="M12,13.046l0,2c0,0.553 -0.448,1 -1,1l-10,0c-0.552,0 -1,-0.447 -1,-1l0,-10c0,-0.552 0.448,-1 1,-1l2,0l0,1l-2,0l0,10l10,0l0,-2l1,0Z"/>
    </g>
</svg>
