<?xml version="1.0" encoding="UTF-8" standalone="no"?>
<!DOCTYPE svg PUBLIC "-//W3C//DTD SVG 1.1//EN" "http://www.w3.org/Graphics/SVG/1.1/DTD/svg11.dtd">
<svg width="16px" height="16px" version="1.1" xmlns="http://www.w3.org/2000/svg" xmlns:xlink="http://www.w3.org/1999/xlink" xml:space="preserve" xmlns:serif="http://www.serif.com/" style="fill-rule:evenodd;clip-rule:evenodd;stroke-linejoin:round;stroke-miterlimit:2;">
    <g transform="matrix(1,0,0,1,-110,-190)">
        <g id="separate_colors">
            <g id="bg" transform="matrix(0.110345,0,0,0.121212,93.7793,171.091)">
                <rect x="147" y="156" width="145" height="132" style="fill:rgb(135,135,135);fill-opacity:0;"/>
            </g>
            <g transform="matrix(1,0,0,1,9,0)">
                <rect x="111" y="191" width="5" height="5" style="fill:rgb(255,39,69);"/>
                <path d="M117,191C117,190.448 116.552,190 116,190L111,190C110.448,190 110,190.448 110,191L110,196C110,196.552 110.448,197 111,197L116,197C116.552,197 117,196.552 117,196L117,191ZM116,191L111,191L111,196L116,196L116,191Z"/>
            </g>
            <g transform="matrix(1,0,0,1,0,9)">
                <rect x="111" y="191" width="5" height="5" style="fill:rgb(0,115,255);"/>
                <path d="M117,191C117,190.448 116.552,190 116,190L111,190C110.448,190 110,190.448 110,191L110,196C110,196.552 110.448,197 111,197L116,197C116.552,197 117,196.552 117,196L117,191ZM116,191L111,191L111,196L116,196L116,191Z"/>
            </g>
            <g transform="matrix(1,0,0,1,9,9)">
                <rect x="111" y="191" width="5" height="5" style="fill:rgb(102,210,0);"/>
                <path d="M117,191C117,190.448 116.552,190 116,190L111,190C110.448,190 110,190.448 110,191L110,196C110,196.552 110.448,197 111,197L116,197C116.552,197 117,196.552 117,196L117,191ZM116,191L111,191L111,196L116,196L116,191Z"/>
            </g>
            <rect x="111" y="191" width="5" height="5" style="fill:rgb(24,24,24);"/>
            <path d="M117,191C117,190.448 116.552,190 116,190L111,190C110.448,190 110,190.448 110,191L110,196C110,196.552 110.448,197 111,197L116,197C116.552,197 117,196.552 117,196L117,191ZM116,191L111,191L111,196L116,196L116,191Z"/>
        </g>
    </g>
</svg>
