<?xml version="1.0" encoding="UTF-8" standalone="no"?>
<!DOCTYPE svg PUBLIC "-//W3C//DTD SVG 1.1//EN" "http://www.w3.org/Graphics/SVG/1.1/DTD/svg11.dtd">
<svg width="100%" height="100%" viewBox="0 0 16 16" version="1.1" xmlns="http://www.w3.org/2000/svg" xmlns:xlink="http://www.w3.org/1999/xlink" xml:space="preserve" xmlns:serif="http://www.serif.com/" style="fill-rule:evenodd;clip-rule:evenodd;stroke-linejoin:round;stroke-miterlimit:2;">
    <g id="separate_colors">
        <rect id="bg" x="-0" y="0" width="16" height="16" style="fill:#878787;fill-opacity:0;"/>
        <rect x="9" y="1" width="5" height="5" style="fill:#ff2745;"/>
        <path d="M14,1l-0,5l-5,-0l0,-5l5,0Zm-1,1l-3,-0l-0,3l3,0l-0,-3Z"/>
        <rect x="1" y="9" width="5" height="5" style="fill:#0073ff;"/>
        <path d="M6,9l-0,5l-5,0l-0,-5l5,0Zm-1,1l-3,-0l-0,3l3,0l-0,-3Z"/>
        <path d="M7,7l-0,-7l1,0l-0,7l7,0l-0,1l-7,0l-0,7l-1,0l-0,-7l-7,0l-0,-1l7,0Z"/>
        <rect x="9" y="9" width="5" height="5" style="fill:#66d200;"/>
        <path d="M14,9l-0,5l-5,0l0,-5l5,0Zm-1,1l-3,-0l-0,3l3,0l-0,-3Z"/>
        <rect x="1" y="1" width="5" height="5" style="fill:#181818;"/>
        <path d="M6,1l-0,5l-5,0l-0,-5l5,0Zm-1,1l-3,-0l-0,3l3,0l-0,-3Z"/>
    </g>
</svg>
