<?xml version="1.0" encoding="UTF-8" standalone="no"?>
<!DOCTYPE svg PUBLIC "-//W3C//DTD SVG 1.1//EN" "http://www.w3.org/Graphics/SVG/1.1/DTD/svg11.dtd">
<svg width="100%" height="100%" viewBox="0 0 16 16" version="1.1" xmlns="http://www.w3.org/2000/svg" xmlns:xlink="http://www.w3.org/1999/xlink" xml:space="preserve" xmlns:serif="http://www.serif.com/" style="fill-rule:evenodd;clip-rule:evenodd;stroke-linejoin:round;stroke-miterlimit:2;">
    <g id="set_cropbox">
        <rect id="bg" x="-0" y="0" width="16" height="16" style="fill:#878787;fill-opacity:0;"/>
        <path id="crop" d="M5,3l6,0c0.53,-0 1.039,0.211 1.414,0.586c0.375,0.375 0.586,0.884 0.586,1.414l-0.001,5l-1.999,-0l-0,-5l-11,0l-0,-2l3,0l-0,-3l2,0l-0,3Zm-0,2.985l-0,5.015l11,-0l-0,2l-3.001,-0l0,3l-1.999,0l-0,-3l-6,-0c-0.531,0 -1.04,-0.211 -1.415,-0.586c-0.375,-0.375 -0.585,-0.884 -0.585,-1.414l-0,-5.015l2,-0Z"/>
    </g>
</svg>
