<?xml version="1.0" encoding="UTF-8" standalone="no"?>
<!DOCTYPE svg PUBLIC "-//W3C//DTD SVG 1.1//EN" "http://www.w3.org/Graphics/SVG/1.1/DTD/svg11.dtd">
<svg width="16px" height="16px" version="1.1" xmlns="http://www.w3.org/2000/svg" xmlns:xlink="http://www.w3.org/1999/xlink" xml:space="preserve" xmlns:serif="http://www.serif.com/" style="fill-rule:evenodd;clip-rule:evenodd;stroke-linejoin:round;stroke-miterlimit:2;">
    <g transform="matrix(1,0,0,1,-110,-390)">
        <g id="set_key">
            <rect id="bg" x="110" y="390" width="16" height="16" style="fill-opacity:0;"/>
            <g transform="matrix(1.08333,0,0,1.08333,106.583,386.583)">
                <g transform="matrix(1,0,0,1,-0.461484,-0.461521)">
                    <path d="M11,5L17,11L11,17L5,11L11,5Z" style="fill-opacity:0.25;"/>
                </g>
                <g transform="matrix(1,0,0,1,-0.461484,-0.461503)">
                    <path d="M11,5L17,11L11,17L5,11L11,5ZM6.305,11L11,15.695L15.695,11L11,6.305L6.305,11Z"/>
                </g>
            </g>
        </g>
    </g>
</svg>
