<?xml version="1.0" encoding="UTF-8" standalone="no"?>
<!DOCTYPE svg PUBLIC "-//W3C//DTD SVG 1.1//EN" "http://www.w3.org/Graphics/SVG/1.1/DTD/svg11.dtd">
<svg width="16px" height="16px" version="1.1" xmlns="http://www.w3.org/2000/svg" xmlns:xlink="http://www.w3.org/1999/xlink" xml:space="preserve" xmlns:serif="http://www.serif.com/" style="fill-rule:evenodd;clip-rule:evenodd;stroke-linejoin:round;stroke-miterlimit:2;">
    <g transform="matrix(1,0,0,1,-2,-2)">
        <rect x="0" y="0" width="20" height="20" style="fill-opacity:0;"/>
    </g>
    <g transform="matrix(1,0,0,1,-5,-5)">
        <g transform="matrix(1,0,0,1,5,5)">
            <path d="M7.028,11C7.276,8.751 9.185,7 11.5,7C13.984,7 16,9.016 16,11.5C16,13.984 13.984,16 11.5,16C10.724,16 9.994,15.803 9.357,15.457L10.18,14.634C10.586,14.805 11.032,14.9 11.5,14.9C13.377,14.9 14.9,13.377 14.9,11.5C14.9,9.623 13.377,8.1 11.5,8.1C9.793,8.1 8.379,9.36 8.137,11L10,11L7.5,14L5,11L7.028,11ZM11,12L11,9L12,9L12,11L14,11L14,12L11,12Z"/>
        </g>
        <g transform="matrix(1,0,0,1,5,5)">
            <path d="M5.196,12.797C4.798,13.141 4.361,13.429 3.886,13.663C3.291,13.231 2.769,12.709 2.337,12.114C2.618,11.542 2.979,11.026 3.419,10.565C3.218,10.205 3.059,9.822 2.947,9.425C2.31,9.411 1.689,9.301 1.086,9.095C0.971,8.37 0.971,7.63 1.086,6.905C1.689,6.699 2.31,6.589 2.947,6.575C3.059,6.178 3.218,5.795 3.419,5.435C2.979,4.974 2.618,4.458 2.337,3.886C2.769,3.291 3.291,2.769 3.886,2.337C4.458,2.618 4.974,2.979 5.435,3.419C5.795,3.218 6.178,3.059 6.575,2.947C6.589,2.31 6.699,1.689 6.905,1.086C7.63,0.971 8.37,0.971 9.095,1.086C9.301,1.689 9.411,2.31 9.425,2.947C9.822,3.059 10.205,3.218 10.565,3.419C11.026,2.979 11.542,2.618 12.114,2.337C12.709,2.769 13.231,3.291 13.663,3.886C13.382,4.458 13.021,4.974 12.581,5.435C12.716,5.676 12.832,5.928 12.927,6.187C12.472,6.065 11.994,6 11.5,6C11.284,6 11.071,6.012 10.861,6.037C10.235,5.127 9.187,4.53 8,4.53C6.085,4.53 4.53,6.085 4.53,8C4.53,8.744 4.765,9.434 5.165,10L5,10C4.612,10 4.259,10.224 4.094,10.576C3.93,10.927 3.983,11.342 4.232,11.64L5.196,12.797Z"/>
        </g>
    </g>
</svg>
