<?xml version="1.0" encoding="UTF-8" standalone="no"?>
<!DOCTYPE svg PUBLIC "-//W3C//DTD SVG 1.1//EN" "http://www.w3.org/Graphics/SVG/1.1/DTD/svg11.dtd">
<svg width="100%" height="100%" viewBox="0 0 16 16" version="1.1" xmlns="http://www.w3.org/2000/svg" xmlns:xlink="http://www.w3.org/1999/xlink" xml:space="preserve" xmlns:serif="http://www.serif.com/" style="fill-rule:evenodd;clip-rule:evenodd;stroke-linejoin:round;stroke-miterlimit:2;">
    <g id="settings_reset">
        <rect x="0" y="0" width="16" height="16" style="fill-opacity:0;"/>
        <path d="M2.037,14l3.463,-0c0.828,-0 1.5,-0.672 1.5,-1.5c-0,-0.828 -0.672,-1.5 -1.5,-1.5l-1.5,-0l-0,2l-2.667,-2l-0.003,-0l-1.33,-1l4,-3l-0,2l1.5,-0c1.932,-0 3.5,1.568 3.5,3.5c-0,1.932 -1.568,3.5 -3.5,3.5l-3.463,-0l0,-2Z"/>
        <path d="M10.479,12.037c-0.056,-0.609 -0.222,-1.188 -0.477,-1.714c1.427,-0.431 2.468,-1.756 2.468,-3.323c0,-1.915 -1.555,-3.47 -3.47,-3.47c-1.915,-0 -3.47,1.555 -3.47,3.47c-0,0.17 0.012,0.337 0.036,0.5c-0.022,0 -0.044,-0 -0.066,-0l-0,-0.5c0,-0.568 -0.321,-1.088 -0.829,-1.342c-0.222,-0.111 -0.463,-0.163 -0.702,-0.158c0.11,-0.37 0.262,-0.728 0.45,-1.065c-0.44,-0.461 -0.801,-0.977 -1.082,-1.549c0.432,-0.595 0.954,-1.117 1.549,-1.549c0.572,0.281 1.088,0.642 1.549,1.082c0.36,-0.201 0.743,-0.36 1.14,-0.472c0.014,-0.637 0.124,-1.258 0.33,-1.861c0.725,-0.115 1.465,-0.115 2.19,-0c0.206,0.603 0.316,1.224 0.33,1.861c0.397,0.112 0.78,0.271 1.14,0.472c0.461,-0.44 0.977,-0.801 1.549,-1.082c0.595,0.432 1.117,0.954 1.549,1.549c-0.281,0.572 -0.642,1.088 -1.082,1.549c0.201,0.36 0.36,0.743 0.472,1.14c0.637,0.014 1.258,0.124 1.861,0.33c0.115,0.725 0.115,1.465 -0,2.19c-0.603,0.206 -1.224,0.316 -1.861,0.33c-0.112,0.397 -0.271,0.78 -0.472,1.14c0.44,0.461 0.801,0.977 1.082,1.549c-0.432,0.595 -0.954,1.117 -1.549,1.549c-0.572,-0.281 -1.088,-0.642 -1.549,-1.082c-0.344,0.192 -0.708,0.345 -1.086,0.456Z"/>
    </g>
</svg>
