<?xml version="1.0" encoding="UTF-8" standalone="no"?>
<!DOCTYPE svg PUBLIC "-//W3C//DTD SVG 1.1//EN" "http://www.w3.org/Graphics/SVG/1.1/DTD/svg11.dtd">
<svg width="16px" height="16px" version="1.1" xmlns="http://www.w3.org/2000/svg" xmlns:xlink="http://www.w3.org/1999/xlink" xml:space="preserve" xmlns:serif="http://www.serif.com/" style="fill-rule:evenodd;clip-rule:evenodd;stroke-linejoin:round;stroke-miterlimit:2;">
    <g transform="matrix(1,0,0,1,-210,-170)">
        <g id="settings_reset" transform="matrix(1,0,0,1,180,-180)">
            <g id="bg" transform="matrix(0.110345,0,0,0.121212,13.7793,331.091)">
                <rect x="147" y="156" width="145" height="132" style="fill:rgb(135,135,135);fill-opacity:0;"/>
            </g>
            <g id="restore" transform="matrix(1,0,0,1,-59.9999,220)">
                <path d="M101.5,145.861L101.221,145.853L100.699,145.788C100.308,145.715 99.935,145.59 99.589,145.421C99.589,145.421 100.213,144.797 100.213,144.797C100.612,144.953 101.046,145.039 101.5,145.039C103.453,145.039 105.038,143.454 105.038,141.5C105.038,139.546 103.453,137.961 101.5,137.961C99.723,137.961 98.252,139.273 98,140.98C97.994,141.02 98.006,141.06 98.032,141.091C98.058,141.121 98.097,141.139 98.137,141.139L99.704,141.139C99.704,141.139 97.668,143.582 97.668,143.582C97.33,142.964 97.139,142.254 97.139,141.5L97.166,141.015C97.189,140.804 97.227,140.598 97.279,140.397C97.264,140.458 97.291,140.355 97.291,140.355C97.291,140.355 97.291,140.355 97.291,140.355C97.773,138.581 99.348,137.255 101.247,137.146C101.244,137.146 101.5,137.139 101.5,137.139C101.795,137.139 102.083,137.168 102.362,137.224C102.362,137.224 102.362,137.224 102.362,137.224C103.602,137.473 104.653,138.249 105.27,139.307C105.646,139.952 105.861,140.701 105.861,141.5C105.861,142.299 105.646,143.048 105.27,143.693C104.653,144.751 103.602,145.527 102.362,145.776C102.362,145.776 102.362,145.776 102.362,145.776C102.083,145.832 101.795,145.861 101.5,145.861ZM101.138,141.861L101.138,139.139C101.138,139.139 101.861,139.139 101.861,139.139C101.861,139.139 101.861,141 101.861,141C101.861,141.077 101.923,141.139 102,141.139L103.861,141.139C103.861,141.139 103.861,141.861 103.861,141.861L101.138,141.861Z"/>
            </g>
            <g transform="matrix(1,0,0,1,-180,180)">
                <path d="M215.973,182.121C215.973,182.121 215.663,182.085 215.575,182.053C215.178,181.941 214.795,181.782 214.435,181.581C213.974,182.021 213.458,182.382 212.886,182.663C212.291,182.231 211.769,181.709 211.337,181.114C211.618,180.542 211.979,180.026 212.419,179.565C212.218,179.205 212.059,178.822 211.947,178.425C211.31,178.411 210.689,178.301 210.086,178.095C209.971,177.37 209.971,176.63 210.086,175.905C210.689,175.699 211.31,175.589 211.947,175.575C212.059,175.178 212.218,174.795 212.419,174.435C211.979,173.974 211.618,173.458 211.337,172.886C211.769,172.291 212.291,171.769 212.886,171.337C213.458,171.618 213.974,171.979 214.435,172.419C214.795,172.218 215.178,172.059 215.575,171.947C215.589,171.31 215.699,170.689 215.905,170.086C216.63,169.971 217.37,169.971 218.095,170.086C218.301,170.689 218.411,171.31 218.425,171.947C218.822,172.059 219.205,172.218 219.565,172.419C220.026,171.979 220.542,171.618 221.114,171.337C221.709,171.769 222.231,172.291 222.663,172.886C222.382,173.458 222.021,173.974 221.581,174.435C221.782,174.795 221.941,175.178 222.053,175.575C222.105,175.791 222.104,175.793 222.14,175.962C221.639,175.926 221.876,175.939 221.5,175.939L221.458,175.939C221.458,175.939 221.219,175.946 221.219,175.946L221.233,175.946L221.178,175.948C220.893,175.964 220.613,176.002 220.341,176.06C219.93,174.601 218.589,173.53 217,173.53C215.085,173.53 213.53,175.085 213.53,177C213.53,178.589 214.6,179.93 216.059,180.341C216.032,180.464 216.012,180.578 215.999,180.682C215.989,180.749 215.98,180.816 215.973,180.884L215.967,180.962C215.967,180.962 215.941,181.422 215.941,181.422C215.941,181.422 215.941,181.449 215.939,181.5C215.944,181.898 215.973,182.121 215.973,182.121Z"/>
            </g>
         </g>
     </g>
</svg>
