<?xml version="1.0" encoding="UTF-8" standalone="no"?>
<!DOCTYPE svg PUBLIC "-//W3C//DTD SVG 1.1//EN" "http://www.w3.org/Graphics/SVG/1.1/DTD/svg11.dtd">
<svg width="100%" height="100%" viewBox="0 0 16 16" version="1.1" xmlns="http://www.w3.org/2000/svg" xmlns:xlink="http://www.w3.org/1999/xlink" xml:space="preserve" xmlns:serif="http://www.serif.com/" style="fill-rule:evenodd;clip-rule:evenodd;stroke-linejoin:round;stroke-miterlimit:2;">
    <g id="shift_and_trace_reset">
        <rect id="bg" x="-0.011" y="0" width="16" height="16" style="fill:#808080;fill-opacity:0;"/>
        <path d="M9.069,14l3.463,0c0.828,0 1.5,-0.672 1.5,-1.5c-0,-0.828 -0.672,-1.5 -1.5,-1.5l-1.5,0l-0,2l-2.667,-2l-0.004,0l-1.329,-1l4,-3l-0,2l1.5,0c1.931,0 3.5,1.568 3.5,3.5c-0,1.932 -1.569,3.5 -3.5,3.5l-3.463,0l0,-2Z"/>
        <path d="M5.713,10.716c-0.292,0.129 -0.641,0.185 -0.945,0.148c-0.159,-0.036 -0.31,-0.116 -0.433,-0.24l-1.9,-1.9c-0.35,-0.349 -0.35,-0.917 -0,-1.266l0.844,-0.844l0.549,-3.842c0.054,-0.378 0.227,-0.728 0.494,-1.001l0.013,-0.012l0.316,-0.317c1.923,-1.923 5.044,-1.923 6.966,-0c1.543,1.542 1.847,3.856 0.915,5.704l-0,-0.146c-0,-0.426 -0.181,-0.825 -0.486,-1.105c0.327,-1.326 -0.027,-2.785 -1.062,-3.82c-1.573,-1.573 -4.126,-1.573 -5.699,0l-0.317,0.317l4.161,4.16l-2.997,2.248c-0.378,0.283 -0.6,0.727 -0.6,1.199c-0,0.254 0.064,0.5 0.181,0.717Zm-3.595,2.124c-0.174,0.175 -0.458,0.175 -0.633,0l-1.266,-1.266c-0.175,-0.175 -0.175,-0.459 -0,-0.633c0.174,-0.175 0.458,-0.175 0.633,-0l1.266,1.266c0.175,0.175 0.175,0.459 0,0.633Zm-0.493,-3.867l2.38,2.38c0.183,0.183 0.183,0.481 -0,0.664c-0.183,0.183 -0.48,0.183 -0.664,-0l-2.38,-2.381c-0.183,-0.183 -0.183,-0.48 0,-0.663c0.183,-0.183 0.48,-0.183 0.664,-0Z"/>
    </g>
</svg>
