<?xml version="1.0" encoding="UTF-8" standalone="no"?>
<!DOCTYPE svg PUBLIC "-//W3C//DTD SVG 1.1//EN" "http://www.w3.org/Graphics/SVG/1.1/DTD/svg11.dtd">
<svg width="16px" height="16px" version="1.1" xmlns="http://www.w3.org/2000/svg" xmlns:xlink="http://www.w3.org/1999/xlink" xml:space="preserve" xmlns:serif="http://www.serif.com/" style="fill-rule:evenodd;clip-rule:evenodd;stroke-linejoin:round;stroke-miterlimit:2;">
    <g transform="matrix(1,0,0,1,-70,-10)">
        <g id="shift_and_trace">
            <g id="bg" transform="matrix(0.110345,0,0,0.121212,53.7793,-8.90909)">
                <rect x="147" y="156" width="145" height="132" style="fill:rgb(135,135,135);fill-opacity:0;"/>
            </g>
            <g transform="matrix(0.781097,0.781097,-0.781097,0.781097,79.1443,5.13923)">
                <path d="M9,17.5C9,17.224 8.776,17 8.5,17L6.5,17C6.224,17 6,17.224 6,17.5C6,17.776 6.224,18 6.5,18L8.5,18C8.776,18 9,17.776 9,17.5ZM10,15.5C10,15.224 9.776,15 9.5,15L5.5,15C5.224,15 5,15.224 5,15.5C5,15.776 5.224,16 5.5,16L9.5,16C9.776,16 10,15.776 10,15.5ZM12,7L12,6.5C12,4.016 9.984,2 7.5,2C5.016,2 3,4.016 3,6.5L3,7L12,7ZM2,7L2,6.5C2,3.464 4.464,1 7.5,1C10.536,1 13,3.464 13,6.5C13,7.257 12.754,7.994 12.3,8.6L10,11.667L10,13C10,13.552 9.552,14 9,14L6,14C5.448,14 5,13.552 5,13L5,11.667L2.4,8.2C2.14,7.854 2,7.433 2,7L2.418,7L2,7Z"/>
            </g>
        </g>
    </g>
</svg>
