<?xml version="1.0" encoding="UTF-8" standalone="no"?>
<!DOCTYPE svg PUBLIC "-//W3C//DTD SVG 1.1//EN" "http://www.w3.org/Graphics/SVG/1.1/DTD/svg11.dtd">
<svg width="16px" height="16px" version="1.1" xmlns="http://www.w3.org/2000/svg" xmlns:xlink="http://www.w3.org/1999/xlink" xml:space="preserve" xmlns:serif="http://www.serif.com/" style="fill-rule:evenodd;clip-rule:evenodd;stroke-linejoin:round;stroke-miterlimit:2;">
    <g transform="matrix(1,0,0,1,-70,-50)">
        <g id="shift_and_trace_reset">
            <g id="bg" transform="matrix(0.110345,0,0,0.121212,53.7793,31.0909)">
                <rect x="147" y="156" width="145" height="132" style="fill:rgb(135,135,135);fill-opacity:0;"/>
            </g>
            <g id="restore" transform="matrix(1,0,0,1,-19.9998,-80)">
                <path d="M101.5,137C101.804,137 102.102,137.03 102.389,137.088C103.669,137.345 104.753,138.145 105.39,139.237C105.778,139.902 106,140.675 106,141.5C106,142.325 105.778,143.098 105.39,143.763C104.753,144.855 103.669,145.655 102.389,145.912C102.102,145.97 101.804,146 101.5,146L101.467,146L101.434,146L101.387,145.999L101.349,145.998L101.31,145.996L101.276,145.994L101.243,145.993L101.205,145.99L101.166,145.988L101.133,145.985L101.1,145.982L101.065,145.979L101.025,145.975L100.992,145.972L100.96,145.968L100.927,145.964L100.887,145.958L100.853,145.954L100.82,145.949L100.787,145.944L100.751,145.938L100.716,145.932L100.683,145.926C100.211,145.839 99.765,145.679 99.357,145.457L100.18,144.634C100.586,144.805 101.032,144.9 101.5,144.9C103.377,144.9 104.9,143.377 104.9,141.5C104.9,139.623 103.377,138.1 101.5,138.1C99.793,138.1 98.379,139.36 98.137,141L100,141L97.647,143.824C97.236,143.146 97,142.35 97,141.5C97,141.331 97.009,141.164 97.028,141L97.028,141C97.052,140.782 97.091,140.569 97.145,140.362L97.157,140.319C97.655,138.488 99.28,137.12 101.239,137.007L101.271,137.006L101.3,137.004L101.329,137.003L101.358,137.002L101.386,137.001L101.415,137.001L101.443,137L101.472,137L101.5,137ZM101,142L101,139L102,139L102,141L104,141L104,142L101,142Z"/>
            </g>
            <path d="M72.031,62.84C72.206,62.666 72.206,62.382 72.031,62.207L70.764,60.941C70.59,60.766 70.306,60.766 70.131,60.941C69.956,61.115 69.956,61.399 70.131,61.574L71.398,62.84C71.572,63.015 71.856,63.015 72.031,62.84ZM73.931,62.207C74.105,62.032 74.105,61.749 73.931,61.574L71.398,59.041C71.223,58.866 70.939,58.866 70.764,59.041C70.59,59.216 70.59,59.499 70.764,59.674L73.297,62.207C73.472,62.382 73.756,62.382 73.931,62.207ZM76.326,59.631C75.789,60.045 75.34,60.487 74.988,60.88C74.724,60.911 74.449,60.826 74.247,60.624L72.347,58.724C71.998,58.375 71.998,57.807 72.347,57.458L73.192,56.614L73.741,52.772C73.794,52.394 73.967,52.044 74.234,51.771L74.247,51.759L74.564,51.442C76.486,49.519 79.607,49.519 81.53,51.442C82.807,52.72 83.236,54.526 82.815,56.159C82.527,56.088 82.23,56.04 81.926,56.016C82.306,54.66 81.963,53.142 80.896,52.075C79.323,50.502 76.77,50.502 75.197,52.075L74.88,52.392L79.059,56.571C77.798,57.197 76.81,58.294 76.326,59.631Z"/>
        </g>
    </g>
</svg>
