<?xml version="1.0" encoding="UTF-8" standalone="no"?>
<!DOCTYPE svg PUBLIC "-//W3C//DTD SVG 1.1//EN" "http://www.w3.org/Graphics/SVG/1.1/DTD/svg11.dtd">
<svg width="16px" height="16px" version="1.1" xmlns="http://www.w3.org/2000/svg" xmlns:xlink="http://www.w3.org/1999/xlink" xml:space="preserve" xmlns:serif="http://www.serif.com/" style="fill-rule:evenodd;clip-rule:evenodd;stroke-linejoin:round;stroke-miterlimit:2;">
    <g transform="matrix(1,0,0,1,-70,-30)">
        <g id="shift_and_trace_no_shift">
            <g id="bg" transform="matrix(0.110345,0,0,0.121212,53.7793,11.0909)">
                <rect x="147" y="156" width="145" height="132" style="fill:rgb(135,135,135);fill-opacity:0;"/>
            </g>
            <g id="preview" transform="matrix(1,0,0,1,39.9577,-400)">
                <path d="M35,442.492C35,442.492 37.061,439 40.501,439C43.939,439 46,442.492 46,442.492C46,442.492 43.948,446 40.501,446C37.052,446 35,442.492 35,442.492ZM40.5,440C41.88,440 43,441.12 43,442.5C43,443.88 41.88,445 40.5,445C39.12,445 38,443.88 38,442.5C38,441.12 39.12,440 40.5,440ZM40.5,441.252C41.189,441.252 41.748,441.811 41.748,442.5C41.748,443.189 41.189,443.748 40.5,443.748C39.811,443.748 39.252,443.189 39.252,442.5C39.252,441.811 39.811,441.252 40.5,441.252Z"/>
            </g>
            <path d="M72.031,42.84C72.206,42.666 72.206,42.382 72.031,42.207L70.764,40.941C70.59,40.766 70.306,40.766 70.131,40.941C69.956,41.115 69.956,41.399 70.131,41.574L71.398,42.84C71.572,43.015 71.856,43.015 72.031,42.84ZM73.772,42.31C73.794,42.161 73.845,42.016 73.924,41.882C73.924,41.882 73.96,41.824 74.029,41.721C74.007,41.668 73.974,41.617 73.931,41.574L71.398,39.041C71.223,38.866 70.939,38.866 70.764,39.041C70.59,39.216 70.59,39.499 70.764,39.674L73.297,42.207C73.426,42.335 73.612,42.369 73.772,42.31ZM74.681,40.864C74.522,40.828 74.371,40.748 74.247,40.624L72.347,38.724C71.998,38.375 71.998,37.807 72.347,37.458L73.192,36.614L73.741,32.772C73.794,32.394 73.967,32.044 74.234,31.771L74.247,31.759L74.564,31.442C76.486,29.519 79.607,29.519 81.53,31.442C83.314,33.227 83.442,36.044 81.913,37.977C81.576,37.894 81.224,37.837 80.858,37.813L80.896,37.774C82.469,36.201 82.469,33.648 80.896,32.075C79.323,30.502 76.77,30.502 75.197,32.075L74.88,32.392L80.291,37.802C77.634,37.876 75.681,39.68 74.681,40.864Z"/>
        </g>
    </g>
</svg>
