<?xml version="1.0" encoding="UTF-8" standalone="no"?>
<!DOCTYPE svg PUBLIC "-//W3C//DTD SVG 1.1//EN" "http://www.w3.org/Graphics/SVG/1.1/DTD/svg11.dtd">
<svg width="100%" height="100%" viewBox="0 0 16 16" version="1.1" xmlns="http://www.w3.org/2000/svg" xmlns:xlink="http://www.w3.org/1999/xlink" xml:space="preserve" xmlns:serif="http://www.serif.com/" style="fill-rule:evenodd;clip-rule:evenodd;stroke-linejoin:round;stroke-miterlimit:2;">
    <g id="shift_and_trace">
        <rect id="bg" x="-0" y="-0" width="16" height="16" style="fill:#878787;fill-opacity:0;"/>
        <path id="shift" d="M2.547,15.838c0.216,-0.215 0.216,-0.565 0,-0.781l-1.562,-1.562c-0.216,-0.216 -0.565,-0.216 -0.781,0c-0.216,0.216 -0.216,0.566 -0,0.781l1.562,1.562c0.216,0.216 0.566,0.216 0.781,0Zm2.344,-0.781c0.215,-0.215 0.215,-0.565 -0,-0.781l-3.125,-3.124c-0.215,-0.216 -0.565,-0.216 -0.781,-0c-0.216,0.215 -0.216,0.565 0,0.781l3.124,3.124c0.216,0.216 0.566,0.216 0.782,0Zm8.201,-5.077l0.391,-0.39c1.94,-1.941 1.94,-5.09 -0,-7.03c-1.941,-1.941 -5.09,-1.941 -7.03,-0l-0.391,0.39l7.03,7.03Zm-7.811,-7.811l0.391,-0.39c2.371,-2.372 6.22,-2.372 8.592,-0c2.371,2.371 2.371,6.22 -0,8.592c-0.592,0.591 -1.359,0.974 -2.187,1.093l-4.193,0.599l-1.041,1.041c-0.431,0.432 -1.131,0.432 -1.562,0l-2.343,-2.343c-0.431,-0.431 -0.431,-1.131 -0,-1.562l1.041,-1.041l0.677,-4.739c0.067,-0.473 0.287,-0.912 0.625,-1.25l0.327,0.327l-0.327,-0.327Z"/>
    </g>
</svg>
