<?xml version="1.0" encoding="UTF-8" standalone="no"?>
<!DOCTYPE svg PUBLIC "-//W3C//DTD SVG 1.1//EN" "http://www.w3.org/Graphics/SVG/1.1/DTD/svg11.dtd">
<svg width="100%" height="100%" viewBox="0 0 16 16" version="1.1" xmlns="http://www.w3.org/2000/svg" xmlns:xlink="http://www.w3.org/1999/xlink" xml:space="preserve" xmlns:serif="http://www.serif.com/" style="fill-rule:evenodd;clip-rule:evenodd;stroke-linejoin:round;stroke-miterlimit:2;">
    <g id="shift_and_trace_no_shift">
        <rect id="bg" x="0.011" y="0" width="16" height="16" style="fill:#878787;fill-opacity:0;"/>
        <path id="preview" d="M4.968,12.492c0,0 2.061,-3.492 5.501,-3.492c3.439,-0 5.499,3.492 5.499,3.492c0,0 -2.052,3.508 -5.499,3.508c-3.448,-0 -5.501,-3.508 -5.501,-3.508Zm5.5,-2.492c1.38,-0 2.5,1.12 2.5,2.5c0,1.38 -1.12,2.5 -2.5,2.5c-1.379,-0 -2.5,-1.12 -2.5,-2.5c0,-1.38 1.121,-2.5 2.5,-2.5Zm0,1.252c0.689,0 1.248,0.559 1.248,1.248c0,0.689 -0.559,1.248 -1.248,1.248c-0.688,-0 -1.248,-0.559 -1.248,-1.248c0,-0.689 0.56,-1.248 1.248,-1.248Z"/>
        <path d="M2.041,12.84c0.175,-0.174 0.175,-0.458 0,-0.633l-1.266,-1.266c-0.175,-0.175 -0.459,-0.175 -0.633,-0c-0.175,0.174 -0.175,0.458 -0,0.633l1.266,1.266c0.175,0.175 0.459,0.175 0.633,0Zm1.741,-0.53c0.023,-0.149 0.074,-0.294 0.153,-0.428c-0,0 0.035,-0.058 0.104,-0.161c-0.022,-0.053 -0.054,-0.104 -0.098,-0.147l-2.533,-2.533c-0.175,-0.175 -0.458,-0.175 -0.633,-0c-0.175,0.175 -0.175,0.458 -0,0.633l2.533,2.533c0.128,0.128 0.315,0.162 0.474,0.103Zm0.909,-1.446c-0.159,-0.036 -0.31,-0.116 -0.433,-0.24l-1.9,-1.9c-0.35,-0.349 -0.35,-0.917 0,-1.266l0.844,-0.844l0.549,-3.842c0.054,-0.378 0.227,-0.728 0.494,-1.001l0.013,-0.012l0.316,-0.317c1.923,-1.923 5.044,-1.923 6.966,-0c1.785,1.785 1.913,4.602 0.384,6.535c-0.338,-0.083 -0.69,-0.14 -1.056,-0.164l0.039,-0.039c1.573,-1.573 1.573,-4.126 -0,-5.699c-1.573,-1.573 -4.126,-1.573 -5.699,0l-0.317,0.317l5.411,5.41c-2.657,0.074 -4.61,1.878 -5.611,3.062Z"/>
    </g>
</svg>
