<?xml version="1.0" encoding="UTF-8" standalone="no"?>
<!DOCTYPE svg PUBLIC "-//W3C//DTD SVG 1.1//EN" "http://www.w3.org/Graphics/SVG/1.1/DTD/svg11.dtd">
<svg width="100%" height="100%" viewBox="0 0 16 16" version="1.1" xmlns="http://www.w3.org/2000/svg" xmlns:xlink="http://www.w3.org/1999/xlink" xml:space="preserve" xmlns:serif="http://www.serif.com/" style="fill-rule:evenodd;clip-rule:evenodd;stroke-linejoin:round;stroke-miterlimit:2;">
    <g id="shift_and_trace_edit">
        <rect id="bg" x="-0.011" y="0" width="16" height="16" style="fill:#878787;fill-opacity:0;"/>
        <path d="M12.989,9l-1,0l0,2l2,0l0,-1l2,1.5l-2,1.5l0,-1l-2,0l0,2l1,0l-1.5,2l-1.5,-2l1,0l0,-2l-2,0l0,1l-2,-1.5l2,-1.5l0,1l2,0l0,-2l-1,0l1.5,-2l1.5,2Z"/>
        <path d="M2.025,12.869c0.175,-0.176 0.175,-0.46 -0,-0.635l-1.27,-1.269c-0.175,-0.175 -0.459,-0.175 -0.634,-0c-0.175,0.175 -0.175,0.459 -0,0.634l1.269,1.27c0.175,0.175 0.46,0.175 0.635,-0Zm1.904,-0.635c0.175,-0.175 0.175,-0.459 -0,-0.635l-2.539,-2.538c-0.175,-0.175 -0.459,-0.175 -0.635,-0c-0.175,0.175 -0.175,0.459 0,0.634l2.539,2.539c0.175,0.175 0.459,0.175 0.635,-0Zm0.317,-10.472l0.317,-0.317c1.927,-1.927 5.055,-1.927 6.981,0c1.402,1.401 1.784,3.438 1.147,5.185c-0.247,-0.235 -0.51,-0.423 -0.769,-0.532c0.412,-1.377 0.075,-2.931 -1.012,-4.018c-1.577,-1.577 -4.136,-1.577 -5.712,-0l-0.317,0.317l4.968,4.968c-0.412,0.53 -0.932,1.174 -2.154,2.246l-1.334,0.19l-0.846,0.846c-0.35,0.351 -0.919,0.351 -1.269,0l-1.904,-1.904c-0.35,-0.35 -0.35,-0.919 0,-1.269l0.846,-0.846l0.55,-3.85c0.054,-0.379 0.228,-0.73 0.495,-1.003l0.013,-0.013Z"/>
    </g>
</svg>
