<?xml version="1.0" encoding="UTF-8" standalone="no"?>
<!DOCTYPE svg PUBLIC "-//W3C//DTD SVG 1.1//EN" "http://www.w3.org/Graphics/SVG/1.1/DTD/svg11.dtd">
<svg width="16px" height="16px" version="1.1" xmlns="http://www.w3.org/2000/svg" xmlns:xlink="http://www.w3.org/1999/xlink" xml:space="preserve" xmlns:serif="http://www.serif.com/" style="fill-rule:evenodd;clip-rule:evenodd;stroke-linejoin:round;stroke-miterlimit:2;">
    <g transform="matrix(1,0,0,1,-70,-70)">
        <g id="shift_and_trace_edit">
            <g id="bg" transform="matrix(0.110345,0,0,0.121212,53.7793,51.0909)">
                <rect x="147" y="156" width="145" height="132" style="fill:rgb(135,135,135);fill-opacity:0;"/>
            </g>
            <path d="M83,79L82,79L82,81L84,81L84,80L86,81.5L84,83L84,82L82,82L82,84L83,84L81.5,86L80,84L81,84L81,82L79,82L79,83L77,81.5L79,80L79,81L81,81L81,79L80,79L81.5,77L83,79Z"/>
            <path d="M72.035,82.869C72.21,82.693 72.21,82.409 72.035,82.234L70.766,80.965C70.591,80.79 70.307,80.79 70.131,80.965C69.956,81.14 69.956,81.424 70.131,81.599L71.401,82.869C71.576,83.044 71.86,83.044 72.035,82.869ZM73.939,82.234C74.114,82.059 74.114,81.775 73.939,81.599L71.401,79.061C71.225,78.886 70.941,78.886 70.766,79.061C70.591,79.236 70.591,79.52 70.766,79.695L73.305,82.234C73.48,82.409 73.764,82.409 73.939,82.234ZM74.257,71.762L74.574,71.445C76.501,69.518 79.628,69.518 81.555,71.445C82.956,72.846 83.338,74.883 82.701,76.63C82.454,76.395 82.192,76.207 81.933,76.098C82.345,74.721 82.007,73.167 80.92,72.08C79.344,70.503 76.785,70.503 75.209,72.08L74.891,72.397L79.859,77.365C79.447,77.895 78.928,78.539 77.706,79.611L76.372,79.801L75.526,80.647C75.176,80.998 74.607,80.998 74.257,80.647L72.353,78.743C72.002,78.393 72.002,77.824 72.353,77.474L73.199,76.628L73.749,72.778C73.803,72.399 73.976,72.048 74.244,71.775L74.257,71.762Z"/>
        </g>
    </g>
</svg>
