<?xml version="1.0" encoding="UTF-8" standalone="no"?>
<!DOCTYPE svg PUBLIC "-//W3C//DTD SVG 1.1//EN" "http://www.w3.org/Graphics/SVG/1.1/DTD/svg11.dtd">
<svg width="16px" height="16px" version="1.1" xmlns="http://www.w3.org/2000/svg" xmlns:xlink="http://www.w3.org/1999/xlink" xml:space="preserve" xmlns:serif="http://www.serif.com/" style="fill-rule:evenodd;clip-rule:evenodd;stroke-linejoin:round;stroke-miterlimit:2;">
    <g transform="matrix(1,0,0,1,-110,-470)">
        <g id="shortcuts">
            <g id="bg" transform="matrix(1,0,0,1,0,80)">
                <rect x="110" y="390" width="16" height="16" style="fill-opacity:0;"/>
            </g>
            <path d="M125,474C125,472.896 124.104,472 123,472L112,472C110.896,472 110,472.896 110,474L110,482C110,483.104 110.896,484 112,484L123,484C124.104,484 125,483.104 125,482L125,474ZM124,474L124,482C124,482.552 123.552,483 123,483C123,483 112,483 112,483C111.448,483 111,482.552 111,482L111,474C111,473.448 111.448,473 112,473L123,473C123.552,473 124,473.448 124,474ZM120,481C120,480.448 119.552,480 119,480L116,480C115.448,480 115,480.448 115,481C115,481.552 115.448,482 116,482L119,482C119.552,482 120,481.552 120,481ZM123,480.5C123,480.224 122.776,480 122.5,480L121.5,480C121.224,480 121,480.224 121,480.5L121,481.5C121,481.776 121.224,482 121.5,482L122.5,482C122.776,482 123,481.776 123,481.5L123,480.5ZM114,480.5C114,480.224 113.776,480 113.5,480L112.5,480C112.224,480 112,480.224 112,480.5L112,481.5C112,481.776 112.224,482 112.5,482L113.5,482C113.776,482 114,481.776 114,481.5L114,480.5ZM114,477.5C114,477.224 113.776,477 113.5,477L112.5,477C112.224,477 112,477.224 112,477.5L112,478.5C112,478.776 112.224,479 112.5,479L113.5,479C113.776,479 114,478.776 114,478.5L114,477.5ZM123,477.5C123,477.224 122.776,477 122.5,477L121.5,477C121.224,477 121,477.224 121,477.5L121,478.5C121,478.776 121.224,479 121.5,479L122.5,479C122.776,479 123,478.776 123,478.5L123,477.5ZM117,477.5C117,477.224 116.776,477 116.5,477L115.5,477C115.224,477 115,477.224 115,477.5L115,478.5C115,478.776 115.224,479 115.5,479L116.5,479C116.776,479 117,478.776 117,478.5L117,477.5ZM120,477.5C120,477.224 119.776,477 119.5,477L118.5,477C118.224,477 118,477.224 118,477.5L118,478.5C118,478.776 118.224,479 118.5,479L119.5,479C119.776,479 120,478.776 120,478.5L120,477.5ZM114,474.5C114,474.224 113.776,474 113.5,474L112.5,474C112.224,474 112,474.224 112,474.5L112,475.5C112,475.776 112.224,476 112.5,476L113.5,476C113.776,476 114,475.776 114,475.5L114,474.5ZM123,474.5C123,474.224 122.776,474 122.5,474L121.5,474C121.224,474 121,474.224 121,474.5L121,475.5C121,475.776 121.224,476 121.5,476L122.5,476C122.776,476 123,475.776 123,475.5L123,474.5ZM117,474.5C117,474.224 116.776,474 116.5,474L115.5,474C115.224,474 115,474.224 115,474.5L115,475.5C115,475.776 115.224,476 115.5,476L116.5,476C116.776,476 117,475.776 117,475.5L117,474.5ZM120,474.5C120,474.224 119.776,474 119.5,474L118.5,474C118.224,474 118,474.224 118,474.5L118,475.5C118,475.776 118.224,476 118.5,476L119.5,476C119.776,476 120,475.776 120,475.5L120,474.5Z"/>
        </g>
    </g>
</svg>
