<?xml version="1.0" encoding="UTF-8" standalone="no"?>
<!DOCTYPE svg PUBLIC "-//W3C//DTD SVG 1.1//EN" "http://www.w3.org/Graphics/SVG/1.1/DTD/svg11.dtd">
<svg width="100%" height="100%" viewBox="0 0 16 16" version="1.1" xmlns="http://www.w3.org/2000/svg" xmlns:xlink="http://www.w3.org/1999/xlink" xml:space="preserve" xmlns:serif="http://www.serif.com/" style="fill-rule:evenodd;clip-rule:evenodd;stroke-linejoin:round;stroke-miterlimit:2;">
    <g id="keyboard">
        <rect id="bg" x="0" y="0" width="16" height="16" style="fill:#878787;fill-opacity:0;"/>
        <path d="M15,4l0,9c0,0.552 -0.448,1 -1,1l-13,0c-0.552,0 -1,-0.448 -1,-1l0,-9c0,-0.552 0.448,-1 1,-1l13,0c0.552,0 1,0.448 1,1Zm-14,0l0,9l13,-0l0,-9l-13,0Z"/>
        <path d="M4,5.5l0,1c0,0.276 -0.224,0.5 -0.5,0.5l-1,0c-0.276,0 -0.5,-0.224 -0.5,-0.5l0,-1c0,-0.276 0.224,-0.5 0.5,-0.5l1,0c0.276,0 0.5,0.224 0.5,0.5Zm3,0l0,1c0,0.276 -0.224,0.5 -0.5,0.5l-1,0c-0.276,0 -0.5,-0.224 -0.5,-0.5l0,-1c0,-0.276 0.224,-0.5 0.5,-0.5l1,0c0.276,0 0.5,0.224 0.5,0.5Zm3,0l0,1c0,0.276 -0.224,0.5 -0.5,0.5l-1,0c-0.276,0 -0.5,-0.224 -0.5,-0.5l0,-1c0,-0.276 0.224,-0.5 0.5,-0.5l1,0c0.276,0 0.5,0.224 0.5,0.5Zm3,0l0,1c0,0.276 -0.224,0.5 -0.5,0.5l-1,0c-0.276,0 -0.5,-0.224 -0.5,-0.5l0,-1c0,-0.276 0.224,-0.5 0.5,-0.5l1,0c0.276,0 0.5,0.224 0.5,0.5Zm0,3l0,1c0,0.276 -0.224,0.5 -0.5,0.5l-1,0c-0.276,0 -0.5,-0.224 -0.5,-0.5l0,-1c0,-0.276 0.224,-0.5 0.5,-0.5l1,0c0.276,0 0.5,0.224 0.5,0.5Zm-3,0l0,1c0,0.276 -0.224,0.5 -0.5,0.5l-1,0c-0.276,0 -0.5,-0.224 -0.5,-0.5l0,-1c0,-0.276 0.224,-0.5 0.5,-0.5l1,0c0.276,0 0.5,0.224 0.5,0.5Zm-3,0l0,1c0,0.276 -0.224,0.5 -0.5,0.5l-1,0c-0.276,0 -0.5,-0.224 -0.5,-0.5l0,-1c0,-0.276 0.224,-0.5 0.5,-0.5l1,0c0.276,0 0.5,0.224 0.5,0.5Zm-3,0l0,1c0,0.276 -0.224,0.5 -0.5,0.5l-1,0c-0.276,0 -0.5,-0.224 -0.5,-0.5l0,-1c0,-0.276 0.224,-0.5 0.5,-0.5l1,0c0.276,0 0.5,0.224 0.5,0.5Z"/>
        <path d="M11,11.5c0,-0.276 -0.224,-0.5 -0.5,-0.5l-6,0c-0.276,0 -0.5,0.224 -0.5,0.5c0,0.276 0.224,0.5 0.5,0.5l6,0c0.276,0 0.5,-0.224 0.5,-0.5Z"/>
    </g>
</svg>
