<?xml version="1.0" encoding="UTF-8" standalone="no"?>
<!DOCTYPE svg PUBLIC "-//W3C//DTD SVG 1.1//EN" "http://www.w3.org/Graphics/SVG/1.1/DTD/svg11.dtd">
<svg width="100%" height="100%" viewBox="0 0 16 16" version="1.1" xmlns="http://www.w3.org/2000/svg" xmlns:xlink="http://www.w3.org/1999/xlink" xml:space="preserve" xmlns:serif="http://www.serif.com/" style="fill-rule:evenodd;clip-rule:evenodd;stroke-linejoin:round;stroke-miterlimit:2;">
    <g id="show_folder_contents">
        <rect id="bg" x="0" y="0" width="16" height="16" style="fill:#878787;fill-opacity:0;"/>
        <path d="M14,12.5c0,0.276 -0.224,0.5 -0.5,0.5l-13.104,0l-0.395,-0.341l-0.001,-11.159c-0,-0.133 0.053,-0.26 0.146,-0.354c0.094,-0.093 0.221,-0.146 0.354,-0.146l4.5,0l2,2l6.5,0c0.276,0 0.5,0.224 0.5,0.5l0,9Zm-13,-0.499l12,-0.001l0,-8l-6,0c-0.265,0 -0.52,-0.105 -0.707,-0.293l-1.707,-1.707l-3.586,0l-0,10.001Z"/>
        <path d="M15.965,6.383c0.088,-0.276 -0.065,-0.5 -0.341,-0.5l-13,-0c-0.276,-0 -0.571,0.224 -0.659,0.5l-1.94,6.117c-0.088,0.276 0.065,0.5 0.341,0.5l13,0c0.276,0 0.571,-0.224 0.659,-0.5l1.94,-6.117Z"/>
    </g>
</svg>
