<?xml version="1.0" encoding="UTF-8" standalone="no"?>
<!DOCTYPE svg PUBLIC "-//W3C//DTD SVG 1.1//EN" "http://www.w3.org/Graphics/SVG/1.1/DTD/svg11.dtd">
<svg width="16px" height="16px" version="1.1" xmlns="http://www.w3.org/2000/svg" xmlns:xlink="http://www.w3.org/1999/xlink" xml:space="preserve" xmlns:serif="http://www.serif.com/" style="fill-rule:evenodd;clip-rule:evenodd;stroke-linejoin:round;stroke-miterlimit:2;">
    <g transform="matrix(1,0,0,1,-210,-110)">
        <g id="star" transform="matrix(1,0,0,1,200,80)">
            <g id="bg" transform="matrix(0.110345,0,0,0.121212,-6.22069,11.0909)">
                <rect x="147" y="156" width="145" height="132" style="fill:rgb(135,135,135);fill-opacity:0;"/>
            </g>
            <g transform="matrix(1,0,0,1,-200,-79.8316)">
                <path d="M218.951,110.691C218.817,110.279 218.433,110 218,110C217.567,110 217.183,110.279 217.049,110.691L215.702,114.837C215.702,114.837 211.343,114.837 211.343,114.837C210.909,114.837 210.525,115.116 210.392,115.528C210.258,115.94 210.404,116.391 210.755,116.646L214.282,119.208C214.282,119.208 212.934,123.354 212.934,123.354C212.801,123.766 212.947,124.217 213.298,124.472C213.648,124.727 214.123,124.727 214.473,124.472L218,121.91C218,121.91 221.527,124.472 221.527,124.472C221.877,124.727 222.352,124.727 222.702,124.472C223.053,124.217 223.199,123.766 223.066,123.354L221.718,119.208C221.718,119.208 225.245,116.646 225.245,116.646C225.596,116.391 225.742,115.94 225.608,115.528C225.475,115.116 225.091,114.837 224.657,114.837L220.298,114.837C220.298,114.837 218.951,110.691 218.951,110.691ZM218,111L219.572,115.837L224.657,115.837L220.543,118.826L222.114,123.663L218,120.674L213.886,123.663L215.457,118.826L211.343,115.837L216.428,115.837L218,111Z"/>
            </g>
        </g>
    </g>
</svg>
