<?xml version="1.0" encoding="UTF-8" standalone="no"?>
<!DOCTYPE svg PUBLIC "-//W3C//DTD SVG 1.1//EN" "http://www.w3.org/Graphics/SVG/1.1/DTD/svg11.dtd">
<svg width="16px" height="16px" version="1.1" xmlns="http://www.w3.org/2000/svg" xmlns:xlink="http://www.w3.org/1999/xlink" xml:space="preserve" xmlns:serif="http://www.serif.com/" style="fill-rule:evenodd;clip-rule:evenodd;stroke-linejoin:round;stroke-miterlimit:2;">
    <g transform="matrix(1,0,0,1,-10,-530)">
        <g id="step_2">
            <g id="bg" transform="matrix(0.110345,0,0,0.121212,-6.22069,511.091)">
                <rect x="147" y="156" width="145" height="132" style="fill:rgb(135,135,135);fill-opacity:0;"/>
            </g>
            <g transform="matrix(1,0,0,1,-871,488)">
                <path d="M881,50C881,49.448 881.448,49 882,49C882.873,49 884,49 884,49L884,47C884,46.448 884.448,46 885,46C885.552,46 886,46.448 886,47C886,47.873 886,49 886,49L888,49C888.552,49 889,49.448 889,50C889,50.552 888.552,51 888,51C887.127,51 886,51 886,51L886,53C886,53.552 885.552,54 885,54C884.448,54 884,53.552 884,53C884,52.127 884,51 884,51L882,51C881.448,51 881,50.552 881,50Z"/>
            </g>
            <g transform="matrix(1.33333,0,0,1.33333,9,528)">
                <path d="M12.75,10.5C12.75,10.086 12.414,9.75 12,9.75L9.75,9.75L9.75,8.25L11.25,8.25C12.075,8.25 12.75,7.582 12.75,6.75L12.75,5.25C12.75,4.417 12.075,3.75 11.25,3.75L9,3.75C8.586,3.75 8.25,4.086 8.25,4.5C8.25,4.914 8.586,5.25 9,5.25L11.25,5.25L11.25,6.75L9.75,6.75C8.925,6.75 8.25,7.418 8.25,8.25L8.25,10.5C8.25,10.699 8.329,10.89 8.47,11.03C8.61,11.171 8.801,11.25 9,11.25L12,11.25C12.199,11.25 12.39,11.171 12.53,11.03C12.671,10.89 12.75,10.699 12.75,10.5Z" style="fill-rule:nonzero;"/>
            </g>
        </g>
    </g>
</svg>
