<?xml version="1.0" encoding="UTF-8" standalone="no"?>
<svg
   xmlns:dc="http://purl.org/dc/elements/1.1/"
   xmlns:cc="http://creativecommons.org/ns#"
   xmlns:rdf="http://www.w3.org/1999/02/22-rdf-syntax-ns#"
   xmlns:svg="http://www.w3.org/2000/svg"
   xmlns="http://www.w3.org/2000/svg"
   xmlns:sodipodi="http://sodipodi.sourceforge.net/DTD/sodipodi-0.dtd"
   xmlns:inkscape="http://www.inkscape.org/namespaces/inkscape"
   width="16px"
   height="16px"
   version="1.1"
   xml:space="preserve"
   style="fill-rule:evenodd;clip-rule:evenodd;stroke-linejoin:round;stroke-miterlimit:2;"
   id="svg12"
   sodipodi:docname="stop_frame_hold.svg"
   inkscape:version="0.92.4 (5da689c313, 2019-01-14)"><metadata
   id="metadata18"><rdf:RDF><cc:Work
       rdf:about=""><dc:format>image/svg+xml</dc:format><dc:type
         rdf:resource="http://purl.org/dc/dcmitype/StillImage" /></cc:Work></rdf:RDF></metadata><defs
   id="defs16">
        
    </defs><sodipodi:namedview
   pagecolor="#ffffff"
   bordercolor="#666666"
   borderopacity="1"
   objecttolerance="10"
   gridtolerance="10"
   guidetolerance="10"
   inkscape:pageopacity="0"
   inkscape:pageshadow="2"
   inkscape:window-width="1672"
   inkscape:window-height="865"
   id="namedview14"
   showgrid="true"
   inkscape:zoom="41.7193"
   inkscape:cx="11.121506"
   inkscape:cy="7.0977181"
   inkscape:window-x="0"
   inkscape:window-y="0"
   inkscape:window-maximized="0"
   inkscape:current-layer="svg12"
   inkscape:snap-grids="true"><inkscape:grid
     type="xygrid"
     id="grid827" /></sodipodi:namedview>
    <g
   transform="matrix(-1,0,0,1,126,-10)"
   id="add_cell">
            <g
   transform="matrix(0.110345,0,0,0.121212,93.7793,-8.90909)"
   id="bg">
                <rect
   id="rect2"
   style="fill:#878787;fill-opacity:0"
   height="132"
   width="145"
   y="156"
   x="147" />
            </g>
            <g
   id="g7"
   transform="matrix(-1,0,0,1,256,0)">
                <path
   inkscape:connector-curvature="0"
   id="path5"
   d="m 145,21 v -8.016 c 0,-0.527 -0.209,-1.031 -0.581,-1.403 C 144.047,11.209 143.543,11 143.016,11 h -10.032 c -0.527,0 -1.031,0.209 -1.403,0.581 -0.372,0.372 -0.581,0.876 -0.581,1.403 v 10.032 c 0,0.527 0.209,1.031 0.581,1.403 0.372,0.372 0.876,0.581 1.403,0.581 H 141 c 0.265,0 0.52,-0.105 0.707,-0.293 l 3,-3 C 144.895,21.52 145,21.265 145,21 Z m -1,-1 v -6.983 c 0,-0.27 -0.107,-0.528 -0.298,-0.719 C 143.511,12.107 143.252,12 142.983,12 h -9.966 c -0.269,0 -0.528,0.107 -0.719,0.298 -0.191,0.191 -0.298,0.45 -0.298,0.719 v 9.966 c 0,0.269 0.107,0.528 0.298,0.719 0.191,0.191 0.449,0.298 0.719,0.298 H 140 v -4 z m -3,1 v 3 l 3,-3 z m -5,-7.5 c 0,-0.133 -0.053,-0.26 -0.146,-0.354 C 135.76,13.053 135.633,13 135.5,13 h -2 c -0.133,0 -0.26,0.053 -0.354,0.146 C 133.053,13.24 133,13.367 133,13.5 c 0,0.133 0.053,0.26 0.146,0.354 0.094,0.093 0.221,0.146 0.354,0.146 h 2 c 0.133,0 0.26,-0.053 0.354,-0.146 C 135.947,13.76 136,13.633 136,13.5 Z m 3,0 c 0,-0.133 -0.053,-0.26 -0.146,-0.354 C 138.76,13.053 138.633,13 138.5,13 h -1 c -0.133,0 -0.26,0.053 -0.354,0.146 C 137.053,13.24 137,13.367 137,13.5 c 0,0.133 0.053,0.26 0.146,0.354 0.094,0.093 0.221,0.146 0.354,0.146 h 1 c 0.133,0 0.26,-0.053 0.354,-0.146 C 138.947,13.76 139,13.633 139,13.5 Z m 4,0 c 0,-0.133 -0.053,-0.26 -0.146,-0.354 C 142.76,13.053 142.633,13 142.5,13 h -2 c -0.133,0 -0.26,0.053 -0.354,0.146 C 140.053,13.24 140,13.367 140,13.5 c 0,0.133 0.053,0.26 0.146,0.354 0.094,0.093 0.221,0.146 0.354,0.146 h 2 c 0.133,0 0.26,-0.053 0.354,-0.146 C 142.947,13.76 143,13.633 143,13.5 Z"
   sodipodi:nodetypes="sssssssssssccscssssssssscccccccscsscscsscsscsscscsscsscsscscsscs" />
            </g>
        </g>
<path
   style="fill:none;stroke:#000000;stroke-width:1px;stroke-linecap:round;stroke-linejoin:miter;stroke-opacity:1"
   d="m 4,6 6.256939,4.520606"
   id="path4542"
   inkscape:connector-curvature="0"
   sodipodi:nodetypes="cc" /><path
   style="clip-rule:evenodd;fill:none;fill-rule:evenodd;stroke:#000000;stroke-width:1px;stroke-linecap:round;stroke-linejoin:miter;stroke-miterlimit:2;stroke-opacity:1"
   d="M 12,6 4,12"
   id="path4542-0"
   inkscape:connector-curvature="0"
   sodipodi:nodetypes="cc" /></svg>