<?xml version="1.0" encoding="UTF-8" standalone="no"?>
<!DOCTYPE svg PUBLIC "-//W3C//DTD SVG 1.1//EN" "http://www.w3.org/Graphics/SVG/1.1/DTD/svg11.dtd">
<svg width="16px" height="16px" version="1.1" xmlns="http://www.w3.org/2000/svg" xmlns:xlink="http://www.w3.org/1999/xlink" xml:space="preserve" xmlns:serif="http://www.serif.com/" style="fill-rule:evenodd;clip-rule:evenodd;stroke-linejoin:round;stroke-miterlimit:2;">
    <g transform="matrix(1,0,0,1,-70,-330)">
        <g id="stop" transform="matrix(1,0,0,1,-2.84217e-14,-120.034)">
            <g id="bg" transform="matrix(0.110345,0,0,0.121212,53.7793,431.125)">
                <rect x="147" y="156" width="145" height="132" style="fill:rgb(135,135,135);fill-opacity:0;"/>
            </g>
            <g id="CONSOLE" transform="matrix(1.2,0,0,1.2,-258,350)">
                <path d="M285,85.833C285,85.373 284.627,85 284.167,85L275.833,85C275.373,85 275,85.373 275,85.833L275,94.167C275,94.627 275.373,95 275.833,95L284.167,95C284.627,95 285,94.627 285,94.167L285,85.833Z"/>
            </g>
        </g>
    </g>
</svg>
