<?xml version="1.0" encoding="UTF-8" standalone="no"?>
<!DOCTYPE svg PUBLIC "-//W3C//DTD SVG 1.1//EN" "http://www.w3.org/Graphics/SVG/1.1/DTD/svg11.dtd">
<svg width="16px" height="16px" version="1.1" xmlns="http://www.w3.org/2000/svg" xmlns:xlink="http://www.w3.org/1999/xlink" xml:space="preserve" xmlns:serif="http://www.serif.com/" style="fill-rule:evenodd;clip-rule:evenodd;stroke-linejoin:round;stroke-miterlimit:2;">
    <g transform="matrix(1,0,0,1,-210,-270)">
        <g id="sub_xsheet_saveas" transform="matrix(1,0,0,1,180,-80)">
            <g id="bg" transform="matrix(0.110345,0,0,0.121212,13.7793,331.091)">
                <rect x="147" y="156" width="145" height="132" style="fill:rgb(135,135,135);fill-opacity:0;"/>
            </g>
            <g transform="matrix(1,0,0,1,-93,118)">
                <g transform="matrix(0.471405,0.471405,-0.676198,0.676198,259.374,-64.8646)">
                    <path d="M195.5,314.739C195.5,314.162 194.828,313.694 194,313.694L191,313.694C190.172,313.694 189.5,314.162 189.5,314.739L189.5,323C189.5,323.277 189.658,323.543 189.939,323.739L191.439,324.785C192.025,325.194 192.975,325.194 193.561,324.785L195.061,323.739C195.342,323.543 195.5,323.277 195.5,323L195.5,314.739ZM194,314.739L191,314.739L191,323L192.5,324.046L194,323L194,314.739Z"/>
                </g>
                <g transform="matrix(1,0,0,1,-87,-38)">
                    <path d="M216.474,280L211,280L211,281L215.879,281C215.98,280.636 216.173,280.302 216.444,280.03L216.474,280ZM218.171,280L217.293,280.879C217.255,280.916 217.221,280.957 217.19,281L218.586,281L219,280.586L219,280L218.171,280ZM219.474,277L214,277L214,278L218.474,278L219.474,277ZM221.171,277L220.171,278L221.586,278L222,277.586L222,277L221.171,277ZM223.556,275C223.576,275 223.596,275 223.615,275L223.556,275ZM222.667,274L218,274L218,275L221.474,275L222.03,274.444C222.22,274.254 222.437,274.106 222.667,274Z" style="fill-opacity:0.5;"/>
                </g>
                <g transform="matrix(1,0,0,1,-87,-38)">
                    <path d="M216.04,284L210.5,284C210.224,284 210,283.776 210,283.5L210,277.496C210,277.222 210.222,277 210.496,277L213,277L213,274.5L213.002,274.5C213.023,274.221 213.256,274 213.541,274C214.634,274 217,274 217,274L217,271.531C217,271.238 217.238,271 217.531,271C218.989,271 223.041,271 224.483,271C224.62,271 224.752,271.055 224.849,271.152C224.946,271.249 225,271.38 225,271.518L225,274.315C224.705,274.066 224.359,273.908 224,273.839L224,272L218,272L218,278.475L217,279.475L217,275L214,275L214,283L215.8,283C215.8,283.36 215.887,283.7 216.04,284ZM218,284L218,283L217,283L217,283C217,283.552 217.448,284 218,284ZM213,283L211,283L211,278L213,278L213,283ZM218,280.172L218,281.172L217.293,281.879C217.275,281.896 217.262,281.938 217.254,282L217,282L217,281.586C217,281.321 217.105,281.066 217.293,280.879L218,280.172ZM224.269,275.27L224.275,275.276L224.269,275.27ZM224.25,275.253L224.257,275.259L224.25,275.253ZM224.232,275.237L224.239,275.243L224.232,275.237ZM224.213,275.221L224.221,275.227L224.213,275.221ZM224.194,275.206L224.202,275.212L224.194,275.206ZM224.175,275.192L224.182,275.197L224.175,275.192ZM224.155,275.178L224.162,275.183L224.155,275.178ZM224.135,275.164L224.141,275.168L224.135,275.164ZM224.11,275.148L224.116,275.152L224.11,275.148ZM224.087,275.135L224.096,275.14L224.087,275.135ZM224.066,275.123L224.075,275.128L224.066,275.123ZM224.045,275.111L224.055,275.117L224.045,275.111ZM224.024,275.101L224.034,275.106L224.024,275.101ZM224.003,275.091L224.014,275.096L224.003,275.091Z"/>
                </g>
            </g>
        </g>
    </g>
</svg>
