<?xml version="1.0" encoding="UTF-8" standalone="no"?>
<!DOCTYPE svg PUBLIC "-//W3C//DTD SVG 1.1//EN" "http://www.w3.org/Graphics/SVG/1.1/DTD/svg11.dtd">
<svg width="100%" height="100%" viewBox="0 0 16 16" version="1.1" xmlns="http://www.w3.org/2000/svg" xmlns:xlink="http://www.w3.org/1999/xlink" xml:space="preserve" xmlns:serif="http://www.serif.com/" style="fill-rule:evenodd;clip-rule:evenodd;stroke-linejoin:round;stroke-miterlimit:2;">
    <g id="sub_collapse">
        <rect id="bg" x="-0" y="0" width="16" height="16" style="fill:#878787;fill-opacity:0;"/>
        <path d="M4.035,7l0,-1l-4,-0l0,9l15,-0l0,-9l-4,-0l0,1l3,-0l0,7l-13,-0l0,-7l3,-0Z"/>
        <rect x="10.035" y="0" width="3" height="3"/>
        <rect x="6.035" y="0" width="3" height="3"/>
        <rect x="2" y="0" width="3.035" height="3"/>
        <path id="contrast_arrow" d="M6.035,4l2.965,-0.001l0,4.003l2.518,-0.002l-4,5l-4,-5l2.517,0.003l0,-4.003Z"/>
    </g>
</svg>
