<?xml version="1.0" encoding="UTF-8" standalone="no"?>
<!DOCTYPE svg PUBLIC "-//W3C//DTD SVG 1.1//EN" "http://www.w3.org/Graphics/SVG/1.1/DTD/svg11.dtd">
<svg width="100%" height="100%" viewBox="0 0 16 16" version="1.1" xmlns="http://www.w3.org/2000/svg" xmlns:xlink="http://www.w3.org/1999/xlink" xml:space="preserve" xmlns:serif="http://www.serif.com/" style="fill-rule:evenodd;clip-rule:evenodd;stroke-linejoin:round;stroke-miterlimit:2;">
    <g id="sub_xsheet">
        <rect id="bg" x="-0.009" y="-0" width="16" height="16" style="fill:#878787;fill-opacity:0;"/>
        <path d="M14.991,10l-14,0l0,1l14,-0l0,-1Zm0,-3l-11,0l0,1l11,-0l0,-1Zm0,-3l-7,-0l0,1l7,0l0,-1Z" style="fill-opacity:0.5;"/>
        <path d="M14.991,14l-15,-0l0,-7l3,0l0,-3l4,0l0,-3l8,-0l0,13Zm-1,-5c0,-2.166 0,-7 0,-7l-6,0l0,11l6,0l0,-3l0,-1Zm-7,4l0,-8l-3,0l0,8l3,0Zm-4,0l0,-5l-2,0l0,5l2,0Z"/>
    </g>
</svg>
