<?xml version="1.0" encoding="UTF-8" standalone="no"?>
<!DOCTYPE svg PUBLIC "-//W3C//DTD SVG 1.1//EN" "http://www.w3.org/Graphics/SVG/1.1/DTD/svg11.dtd">
<svg width="100%" height="100%" viewBox="0 0 16 16" version="1.1" xmlns="http://www.w3.org/2000/svg" xmlns:xlink="http://www.w3.org/1999/xlink" xml:space="preserve" xmlns:serif="http://www.serif.com/" style="fill-rule:evenodd;clip-rule:evenodd;stroke-linejoin:round;stroke-miterlimit:2;">
    <g id="sub_edit_in_place">
        <rect id="bg" x="-0" y="0" width="16" height="16" style="fill:#878787;fill-opacity:0;"/>
        <path d="M4.874,14l-4.874,0l0,-7l3,0l0,-3l4,0l0,-3l8,0l-0,8.844c-0.273,-0.313 -0.608,-0.659 -1,-1l-0,-0.844c-0,-2.166 -0,-6 -0,-6l-6,0l-0,6.546c-0.356,0.159 -0.69,0.344 -1,0.544l-0,-4.09l-3,0l-0,8l0.139,0c0.024,0.041 0.277,0.454 0.735,1Zm-1.874,-1l-0,-5l-2,0l-0,5l2,0Z"/>
        <path d="M10.501,8l-6.501,0l-0,-1l11,0l-0,1l-4.499,0Zm-4.677,2c-0.381,0.348 -0.702,0.696 -0.959,1l-3.865,0l-0,-1l4.824,0Zm9.176,-6l-0,1l-7,0l-0,-1l7,0Z" style="fill-opacity:0.5;"/>
        <path id="preview" d="M5,12.492c-0,0 2.06,-3.492 5.501,-3.492c3.438,0 5.499,3.492 5.499,3.492c-0,0 -2.053,3.508 -5.499,3.508c-3.449,0 -5.501,-3.508 -5.501,-3.508Zm5.5,-2.492c1.379,0 2.5,1.12 2.5,2.5c-0,1.38 -1.121,2.5 -2.5,2.5c-1.38,0 -2.5,-1.12 -2.5,-2.5c-0,-1.38 1.12,-2.5 2.5,-2.5Zm-0,1.252c0.688,0 1.247,0.559 1.247,1.248c0,0.689 -0.559,1.248 -1.247,1.248c-0.689,-0 -1.248,-0.559 -1.248,-1.248c-0,-0.689 0.559,-1.248 1.248,-1.248Z"/>
    </g>
</svg>
