<?xml version="1.0" encoding="UTF-8" standalone="no"?>
<!DOCTYPE svg PUBLIC "-//W3C//DTD SVG 1.1//EN" "http://www.w3.org/Graphics/SVG/1.1/DTD/svg11.dtd">
<svg width="16px" height="16px" version="1.1" xmlns="http://www.w3.org/2000/svg" xmlns:xlink="http://www.w3.org/1999/xlink" xml:space="preserve" xmlns:serif="http://www.serif.com/" style="fill-rule:evenodd;clip-rule:evenodd;stroke-linejoin:round;stroke-miterlimit:2;">
    <g transform="matrix(1,0,0,1,-190,-270)">
        <g id="sub_edit_in_place" transform="matrix(1,0,0,1,160,-80)">
            <g id="bg" transform="matrix(0.110345,0,0,0.121212,13.7793,331.091)">
                <rect x="147" y="156" width="145" height="132" style="fill:rgb(135,135,135);fill-opacity:0;"/>
            </g>
            <g id="preview" transform="matrix(1,0,0,1,0,-80)">
                <path d="M35,442.492C35,442.492 37.061,439 40.501,439C43.939,439 46,442.492 46,442.492C46,442.492 43.948,446 40.501,446C37.052,446 35,442.492 35,442.492ZM40.5,440C41.88,440 43,441.12 43,442.5C43,443.88 41.88,445 40.5,445C39.12,445 38,443.88 38,442.5C38,441.12 39.12,440 40.5,440ZM40.5,441.252C41.189,441.252 41.748,441.811 41.748,442.5C41.748,443.189 41.189,443.748 40.5,443.748C39.811,443.748 39.252,443.189 39.252,442.5C39.252,441.811 39.811,441.252 40.5,441.252Z"/>
            </g>
            <g transform="matrix(1,0,0,1,-160,80)">
                <path d="M194.619,284L190.5,284C190.224,284 190,283.776 190,283.5L190,277.496C190,277.222 190.222,277 190.496,277L193,277L193,274.5L193.002,274.5C193.023,274.221 193.256,274 193.541,274C194.634,274 197,274 197,274L197,271.531C197,271.238 197.238,271 197.531,271C198.989,271 203.041,271 204.483,271C204.62,271 204.752,271.055 204.849,271.152C204.946,271.249 205,271.38 205,271.518L205,279.586C204.697,279.333 204.363,279.084 204,278.857L204,272L198,272L198,278.331C197.646,278.484 197.312,278.663 197,278.858L197,275L194,275L194,281.829C193.978,281.864 193.967,281.882 193.967,281.882C193.745,282.257 193.744,282.722 193.964,283.098C193.964,283.098 194.19,283.475 194.619,284ZM193,283L191,283L191,278L193,278L193,283Z"/>
            </g>
            <g transform="matrix(1,0,0,1,-160,80)">
                <path d="M195.537,280L191,280L191,281L194.609,281C194.853,280.702 195.164,280.354 195.537,280ZM197.218,280.126C196.952,280.384 196.722,280.678 196.536,281L196.197,281C196.488,280.707 196.83,280.405 197.218,280.126ZM198.954,278C199.439,277.873 199.956,277.8 200.501,277.8C201.045,277.8 201.561,277.873 202.046,278L204,278L204,277L194,277L194,278L198.954,278ZM204,274L198,274L198,275L204,275L204,274Z" style="fill-opacity:0.5;"/>
            </g>
        </g>
    </g>
</svg>
