<?xml version="1.0" encoding="UTF-8" standalone="no"?>
<!DOCTYPE svg PUBLIC "-//W3C//DTD SVG 1.1//EN" "http://www.w3.org/Graphics/SVG/1.1/DTD/svg11.dtd">
<svg width="100%" height="100%" viewBox="0 0 16 16" version="1.1" xmlns="http://www.w3.org/2000/svg" xmlns:xlink="http://www.w3.org/1999/xlink" xml:space="preserve" xmlns:serif="http://www.serif.com/" style="fill-rule:evenodd;clip-rule:evenodd;stroke-linejoin:round;stroke-miterlimit:2;">
    <g id="subcamera">
        <rect id="bg" x="-0" y="-0" width="16" height="16" style="fill:#878787;fill-opacity:0;"/>
        <path d="M16,1l-0,1c-0,0.552 -0.448,1 -1,1l-1,-0c-0.552,0 -1,-0.448 -1,-1l-0,-1c-0,-0.552 0.448,-1 1,-1l1,-0c0.552,0 1,0.448 1,1Zm-1,-0l-1,-0l-0,1l1,-0l-0,-1Z"/>
        <path d="M3,1l-0,1c-0,0.552 -0.448,1 -1,1l-1,-0c-0.552,0 -1,-0.448 -1,-1l-0,-1c-0,-0.552 0.448,-1 1,-1l1,-0c0.552,0 1,0.448 1,1Zm-1,-0l-1,-0l-0,1l1,-0l-0,-1Z"/>
        <path d="M3,14l-0,1c-0,0.552 -0.448,1 -1,1l-1,-0c-0.552,0 -1,-0.448 -1,-1l-0,-1c-0,-0.552 0.448,-1 1,-1l1,-0c0.552,0 1,0.448 1,1Zm-1,-0l-1,-0l-0,1l1,-0l-0,-1Z"/>
        <path d="M16,14l-0,1c0,0.552 -0.448,1 -1,1l-1,-0c-0.552,0 -1,-0.448 -1,-1l-0,-1c-0,-0.552 0.448,-1 1,-1l1,-0c0.552,0 1,0.448 1,1Zm-1,-0l-1,-0l-0,1l1,-0l-0,-1Z"/>
        <path d="M1,14l0,-12l1,-0l-0,12l-1,-0Zm1,-13l12,-0l0,1l-12,-0l0,-1Zm13,1l-0,12l-1,0l0,-12l1,-0Zm-1,13l-12,-0l-0,-1l12,0l-0,1Z"/>
        <path d="M9.003,9.37c0.002,0.168 -0.018,0.325 -0.122,0.444c-0.105,0.118 -0.247,0.186 -0.396,0.186l-3.929,-0c-0.148,-0 -0.289,-0.066 -0.394,-0.183c-0.103,-0.117 -0.162,-0.276 -0.162,-0.442l-0,-2.75c-0,-0.166 0.059,-0.325 0.162,-0.443c0.105,-0.116 0.246,-0.182 0.394,-0.182l3.906,0c0.147,0 0.289,0.066 0.393,0.183c0.103,0.117 0.146,0.276 0.146,0.442l-0.001,1.375l2.017,-2l1,0l0,4l-1,-0l-2.017,-2c-0,-0 0.001,0.504 0.003,1.37Z"/>
    </g>
</svg>
