<?xml version="1.0" encoding="UTF-8" standalone="no"?>
<!DOCTYPE svg PUBLIC "-//W3C//DTD SVG 1.1//EN" "http://www.w3.org/Graphics/SVG/1.1/DTD/svg11.dtd">
<svg width="16px" height="16px" version="1.1" xmlns="http://www.w3.org/2000/svg" xmlns:xlink="http://www.w3.org/1999/xlink" xml:space="preserve" xmlns:serif="http://www.serif.com/" style="fill-rule:evenodd;clip-rule:evenodd;stroke-linejoin:round;stroke-miterlimit:2;">
    <g transform="matrix(1,0,0,1,-190,-10)">
        <g id="subcamera" transform="matrix(1,0,0,1,80,0)">
            <g id="bg" transform="matrix(0.110345,0,0,0.121212,93.7793,-8.90909)">
                <rect x="147" y="156" width="145" height="132" style="fill:rgb(135,135,135);fill-opacity:0;"/>
            </g>
            <g transform="matrix(1,0,0,1,109,9)">
                <path d="M13,2L13,1L17,1L17,5L16,5L16,13L17,13L17,17L13,17L13,16L5,16L5,17L1,17L1,13L2,13L2,5L1,5L1,1L5,1L5,2L13,2ZM16,14L14,14L14,16L16,16L16,14ZM4,14L2,14L2,16L4,16L4,14ZM13,4L5,4L5,5L4,5L4,13L5,13L5,14L13,14L13,13L14,13L14,5L13,5L13,4ZM4,2L2,2L2,4L4,4L4,2ZM16,2L14,2L14,4L16,4L16,2Z"/>
            </g>
            <g transform="matrix(1.11111,0,0,1.25,105.351,1.25)">
                <path d="M12.287,14.496C12.289,14.63 12.271,14.756 12.177,14.851C12.083,14.946 11.955,15 11.821,15L8.284,15C8.151,15 8.024,14.947 7.93,14.854C7.837,14.76 7.784,14.633 7.784,14.5L7.784,12.3C7.784,12.167 7.837,12.04 7.93,11.946C8.024,11.853 8.151,11.8 8.284,11.8L11.8,11.8C11.933,11.8 12.06,11.853 12.154,11.946C12.247,12.04 12.285,12.167 12.285,12.3L12.284,13.4L14.1,11.8L15,11.8L15,15L14.1,15L12.284,13.4C12.284,13.4 12.286,13.803 12.287,14.496Z"/>
            </g>
        </g>
     </g>
</svg>
