<?xml version="1.0" encoding="UTF-8" standalone="no"?>
<!DOCTYPE svg PUBLIC "-//W3C//DTD SVG 1.1//EN" "http://www.w3.org/Graphics/SVG/1.1/DTD/svg11.dtd">
<svg width="100%" height="100%" viewBox="0 0 16 16" version="1.1" xmlns="http://www.w3.org/2000/svg" xmlns:xlink="http://www.w3.org/1999/xlink" xml:space="preserve" xmlns:serif="http://www.serif.com/" style="fill-rule:evenodd;clip-rule:evenodd;stroke-linejoin:round;stroke-miterlimit:2;">
    <g id="tasks">
        <rect x="0" y="0" width="16" height="16" style="fill:#878787;fill-opacity:0;"/>
        <path id="tick" d="M10.477,14.788l4.671,-4.645c0.196,-0.196 0.514,-0.195 0.709,0.002c0.196,0.196 0.195,0.514 -0.002,0.709l-5.026,5c-0.095,0.094 -0.223,0.147 -0.356,0.146c-0.133,-0.001 -0.261,-0.054 -0.354,-0.149l-2.974,-3c-0.194,-0.196 -0.194,-0.514 0.004,-0.709c0.196,-0.195 0.514,-0.194 0.709,0.003l2.619,2.643Z"/>
        <path d="M7.867,15l-5.867,0l0,-14l12,0l0,8.874l-1,0.995l0,-8.869l-10,-0c0,-0 0,12 0,12l3.876,0l0.991,1Z"/>
        <path d="M7,3l0,3l-3,-0l0,-3l3,-0Zm-1,1l-1,0l0,1l1,-0l0,-1Z"/>
        <path d="M7,7l0,3l-3,-0l0,-3l3,-0Zm-1,1l-1,0l0,1l1,-0l0,-1Z"/>
        <rect x="8" y="4" width="4" height="1"/>
        <rect x="8" y="8" width="4" height="1"/>
    </g>
</svg>
