<?xml version="1.0" encoding="UTF-8" standalone="no"?>
<!DOCTYPE svg PUBLIC "-//W3C//DTD SVG 1.1//EN" "http://www.w3.org/Graphics/SVG/1.1/DTD/svg11.dtd">
<svg width="100%" height="100%" viewBox="0 0 16 16" version="1.1" xmlns="http://www.w3.org/2000/svg" xmlns:xlink="http://www.w3.org/1999/xlink" xml:space="preserve" xmlns:serif="http://www.serif.com/" style="fill-rule:evenodd;clip-rule:evenodd;stroke-linejoin:round;stroke-miterlimit:2;">
    <g id="timeline">
        <rect x="-0" y="0" width="16" height="16" style="fill:#878787;fill-opacity:0;"/>
        <path d="M6,3.2l-0,10.8l-1,-0l-0,-10.8l-2,-3.2l5,-0l-2,3.2Z"/>
        <path d="M4,14l-4,-0l-0,-13c-0,-0 2.137,0.009 2.214,0.007l0.621,0.993l-1.835,-0l-0,11l3,-0l-0,1Zm3,-1l8,-0l-0,-11l-6.835,-0l0.625,-1l7.21,-0l-0,13l-9,-0l-0,-1Z"/>
        <path d="M4,10l-0,1l-3,-0l-0,-1l3,-0Zm3,-0l8,-0l-0,1l-8,-0l-0,-1Zm-3,-4l-0,1l-3,-0l-0,-1l3,-0Zm3,-0l8,-0l-0,1l-8,-0l-0,-1Zm-3,-2.216l-0,0.216l-3,-0l-0,-2l1.835,-0l1.165,1.784Zm4.165,-1.784l6.835,-0l-0,2l-8,-0l-0,-0.456l1.165,-1.544Z" style="fill-opacity:0.5;"/>
    </g>
</svg>
