<?xml version="1.0" encoding="UTF-8" standalone="no"?>
<!DOCTYPE svg PUBLIC "-//W3C//DTD SVG 1.1//EN" "http://www.w3.org/Graphics/SVG/1.1/DTD/svg11.dtd">
<svg width="100%" height="100%" viewBox="0 0 16 16" version="1.1" xmlns="http://www.w3.org/2000/svg" xmlns:xlink="http://www.w3.org/1999/xlink" xml:space="preserve" xmlns:serif="http://www.serif.com/" style="fill-rule:evenodd;clip-rule:evenodd;stroke-linejoin:round;stroke-miterlimit:2;">
    <g id="toggle_fullscreen">
        <rect id="bg" x="-0" y="0" width="16" height="16" style="fill:#878787;fill-opacity:0;"/>
        <path d="M14.001,14l-0,-7l0.999,-0l0,8l-7.999,-0l-0,-1l7,-0Zm-13.001,-13l8.001,-0l-0,1l-7,-0l-0,7l-1,-0l-0.001,-8Z"/>
        <path d="M9.282,7.428l-0.707,-0.708l3.597,-3.596l-2.125,-2.125l4.952,0.002l0.001,4.952l-2.121,-2.122l-3.597,3.597Z"/>
        <path d="M6.718,8.572l0.707,0.708l-3.597,3.596l2.125,2.125l-4.952,-0.002l-0.001,-4.952l2.121,2.122l3.597,-3.597Z"/>
    </g>
</svg>
