<?xml version="1.0" encoding="UTF-8" standalone="no"?>
<!DOCTYPE svg PUBLIC "-//W3C//DTD SVG 1.1//EN" "http://www.w3.org/Graphics/SVG/1.1/DTD/svg11.dtd">
<svg width="16px" height="16px" version="1.1" xmlns="http://www.w3.org/2000/svg" xmlns:xlink="http://www.w3.org/1999/xlink" xml:space="preserve" xmlns:serif="http://www.serif.com/" style="fill-rule:evenodd;clip-rule:evenodd;stroke-linejoin:round;stroke-miterlimit:2;">
    <g transform="matrix(1,0,0,1,-50,-310)">
        <g id="toggle_fullscreen">
            <g id="bg" transform="matrix(0.110345,0,0,0.121212,33.7793,291.091)">
                <rect x="147" y="156" width="145" height="132" style="fill:rgb(135,135,135);fill-opacity:0;"/>
            </g>
            <g transform="matrix(1,9.42809e-07,9.42809e-07,1,47.0006,307)">
                <path d="M17,17L17,10L17.999,10L17.999,17C17.999,17.265 17.859,17.52 17.672,17.707C17.484,17.895 17.23,18 16.965,18L10,18L10,17L17,17ZM4,5.035C4,4.77 4.105,4.516 4.293,4.328C4.48,4.141 4.735,4 5,4L12,4L12,5L5,5L5,12L4,12L4,5.035Z"/>
            </g>
            <g transform="matrix(0.707106,-0.707106,0.707107,0.707107,44.1538,318.414)">
                <path d="M11.395,10L11.395,9L16.481,9L16.481,5.995L19.981,9.498L16.481,13L16.481,10L11.395,10Z"/>
            </g>
            <g transform="matrix(-0.707106,0.707106,-0.707107,-0.707107,71.8462,317.586)">
                <path d="M11.395,10L11.395,9L16.481,9L16.481,5.995L19.981,9.498L16.481,13L16.481,10L11.395,10Z"/>
            </g>
        </g>
    </g>
</svg>
