<?xml version="1.0" encoding="UTF-8" standalone="no"?>
<!DOCTYPE svg PUBLIC "-//W3C//DTD SVG 1.1//EN" "http://www.w3.org/Graphics/SVG/1.1/DTD/svg11.dtd">
<svg width="16px" height="16px" version="1.1" xmlns="http://www.w3.org/2000/svg" xmlns:xlink="http://www.w3.org/1999/xlink" xml:space="preserve" xmlns:serif="http://www.serif.com/" style="fill-rule:evenodd;clip-rule:evenodd;stroke-linejoin:round;stroke-miterlimit:2;">
    <g transform="matrix(1,0,0,1,-210,-50)">
        <g id="tool" transform="matrix(1,0,0,1,200,20.1001)">
            <g transform="matrix(0.707107,0.707107,-0.707107,0.707107,-92.0409,-154.675)">
                <path d="M212,50.615L212,53C212,53.552 212.448,54 213,54L215,54C215.552,54 216,53.552 216,53L216,50.674C217.139,51.367 217.9,52.62 217.9,54.05C217.9,56.23 216.13,58 213.95,58C211.77,58 210,56.23 210,54.05C210,52.579 210.806,51.295 212,50.615Z"/>
            </g>
            <g transform="matrix(0.707107,-0.707107,0.707107,0.707107,-28.7785,31.1393)">
                <g transform="matrix(1.17865,0,0,1.14902,-240.643,-28.9446)">
                    <path d="M229,61.75C229,61.336 228.664,61 228.25,61L226.75,61C226.336,61 226,61.336 226,61.75C226,61.75 226.399,62.603 226.399,63.083C226.399,63.667 226,65.25 226,65.25C226,65.664 226.336,66 226.75,66L228.25,66C228.664,66 229,65.664 229,65.25C229,65.25 228.535,63.495 228.535,62.912C228.535,62.495 229,61.75 229,61.75Z"/>
                </g>
                <g transform="matrix(0.5,0,0,1,-86.5,-20.1001)">
                    <path d="M229,49.77C229,49.553 228.899,49.339 228.705,49.146C228.673,49.113 228.639,49.079 228.605,49.045C228.49,48.93 228.256,48.858 228,48.858C227.744,48.858 227.51,48.93 227.395,49.045C227.361,49.079 227.327,49.113 227.295,49.146C227.101,49.339 227,49.553 227,49.77C227,51.498 227,64 227,64L229,64L229,49.77Z"/>
                </g>
                <g transform="matrix(0.707107,0.707107,-0.707107,0.707107,-84.8401,-157.304)">
                    <path d="M214.833,58.364L217.661,61.193L213.442,65.412C212.662,66.192 211.394,66.192 210.614,65.412C209.833,64.631 209.833,63.364 210.614,62.583L214.833,58.364ZM212.735,63.29C213.126,63.68 213.126,64.314 212.735,64.704C212.345,65.095 211.711,65.095 211.321,64.704C210.931,64.314 210.931,63.68 211.321,63.29C211.711,62.9 212.345,62.9 212.735,63.29Z"/>
                </g>
            </g>
        </g>
    </g>
</svg>
