<?xml version="1.0" encoding="UTF-8" standalone="no"?>
<!DOCTYPE svg PUBLIC "-//W3C//DTD SVG 1.1//EN" "http://www.w3.org/Graphics/SVG/1.1/DTD/svg11.dtd">
<svg width="16px" height="16px" version="1.1" xmlns="http://www.w3.org/2000/svg" xmlns:xlink="http://www.w3.org/1999/xlink" xml:space="preserve" xmlns:serif="http://www.serif.com/" style="fill-rule:evenodd;clip-rule:evenodd;stroke-linejoin:round;stroke-miterlimit:2;">
    <g transform="matrix(1,0,0,1,-110,-70)">
        <g id="tracking_options">
            <g id="bg" transform="matrix(0.110345,0,0,0.121212,93.7793,51.0909)">
                <rect x="147" y="156" width="145" height="132" style="fill:rgb(135,135,135);fill-opacity:0;"/>
            </g>
            <g id="cog" transform="matrix(1,0,0,1,39.9999,-440)">
                <path d="M82.547,518.143C82.649,518.458 82.703,518.783 82.711,519.115C82.712,519.161 82.742,519.2 82.786,519.213C83.005,519.275 83.217,519.362 83.415,519.473C83.455,519.495 83.505,519.489 83.538,519.458C83.778,519.228 84.046,519.037 84.34,518.886C84.634,519.106 84.894,519.366 85.115,519.659C84.963,519.955 84.772,520.222 84.543,520.463C84.511,520.496 84.505,520.545 84.527,520.585C84.638,520.784 84.726,520.995 84.788,521.214C84.8,521.258 84.84,521.289 84.885,521.29C85.218,521.297 85.542,521.352 85.858,521.453C85.909,521.816 85.909,522.185 85.858,522.547C85.542,522.649 85.218,522.703 84.885,522.711C84.84,522.712 84.8,522.742 84.788,522.786C84.726,523.005 84.638,523.217 84.527,523.415C84.505,523.455 84.511,523.505 84.543,523.538C84.772,523.778 84.963,524.046 85.115,524.341C84.894,524.634 84.634,524.894 84.341,525.115C84.046,524.963 83.778,524.772 83.538,524.543C83.505,524.511 83.455,524.505 83.415,524.527C83.217,524.638 83.005,524.726 82.786,524.788C82.742,524.8 82.712,524.84 82.711,524.885C82.703,525.218 82.649,525.542 82.547,525.858C82.185,525.909 81.816,525.909 81.453,525.858C81.351,525.542 81.297,525.218 81.29,524.885C81.289,524.84 81.258,524.8 81.214,524.788C80.995,524.726 80.784,524.638 80.585,524.527C80.545,524.505 80.496,524.511 80.463,524.543C80.222,524.772 79.955,524.963 79.66,525.115C79.366,524.894 79.106,524.634 78.886,524.341C79.037,524.046 79.228,523.778 79.458,523.538C79.489,523.505 79.495,523.455 79.473,523.415C79.362,523.217 79.274,523.005 79.213,522.786C79.2,522.742 79.161,522.712 79.115,522.711C78.783,522.703 78.458,522.649 78.143,522.547C78.091,522.185 78.091,521.816 78.142,521.453C78.458,521.352 78.783,521.297 79.115,521.29C79.161,521.289 79.2,521.258 79.213,521.214C79.274,520.995 79.362,520.784 79.473,520.585C79.495,520.545 79.489,520.496 79.458,520.463C79.228,520.222 79.037,519.955 78.886,519.66C79.106,519.366 79.366,519.106 79.659,518.886C79.955,519.037 80.222,519.228 80.463,519.458C80.496,519.489 80.545,519.495 80.585,519.473C80.784,519.362 80.995,519.275 81.214,519.213C81.258,519.2 81.289,519.161 81.29,519.115C81.297,518.783 81.351,518.458 81.453,518.143C81.816,518.091 82.184,518.091 82.547,518.143L82.547,518.143ZM82,520.444C81.142,520.444 80.444,521.142 80.444,522C80.444,522.859 81.142,523.556 82,523.556C82.859,523.556 83.556,522.859 83.556,522C83.556,521.142 82.859,520.444 82,520.444Z"/>
            </g>
            <path d="M118.551,85.751L118.547,85.755C118.39,85.912 118.177,86 117.955,86C117.733,86 117.52,85.912 117.363,85.755C117.206,85.598 117.118,85.384 117.118,85.163L117.118,84.56C114.17,84.167 111.832,81.83 111.439,78.882L110.882,78.882C110.395,78.882 110,78.487 110,78C110,77.513 110.395,77.118 110.882,77.118L111.439,77.118C111.832,74.17 114.17,71.833 117.118,71.44L117.118,70.837C117.118,70.616 117.206,70.402 117.363,70.245C117.52,70.088 117.733,70 117.955,70C118.177,70 118.39,70.088 118.547,70.245C118.704,70.402 118.792,70.616 118.792,70.837L118.792,71.429C121.782,71.786 124.161,74.14 124.559,77.118L125.118,77.118C125.605,77.118 126,77.513 126,78C126,78.223 125.917,78.427 125.78,78.582C125.562,78.341 125.321,78.121 125.06,77.926C124.693,77.65 124.2,77.608 123.792,77.818L123.715,77.859L123.69,77.775C123.601,77.501 123.417,77.267 123.172,77.118L123.666,77.118C123.281,74.629 121.293,72.667 118.792,72.32L118.792,73.192C118.792,73.414 118.704,73.627 118.547,73.784C118.39,73.941 118.177,74.029 117.955,74.029C117.733,74.029 117.52,73.941 117.363,73.784C117.206,73.627 117.118,73.414 117.118,73.192L117.118,72.333C114.658,72.713 112.712,74.658 112.332,77.118L113.147,77.118C113.634,77.118 114.029,77.513 114.029,78C114.029,78.487 113.634,78.882 113.147,78.882L112.332,78.882C112.712,81.341 114.658,83.287 117.118,83.667L117.118,83.172C117.265,83.413 117.496,83.6 117.775,83.69L117.86,83.715L117.818,83.793C117.608,84.202 117.65,84.694 117.926,85.061C118.113,85.31 118.322,85.541 118.551,85.751ZM117.057,80.942C115.812,80.543 114.911,79.376 114.911,78C114.911,76.295 116.295,74.911 118,74.911C119.376,74.911 120.543,75.813 120.942,77.057C120.646,77.196 120.414,77.454 120.31,77.775L120.285,77.86L120.207,77.818L120.197,77.813C120.102,76.683 119.154,75.795 118,75.795C116.783,75.795 115.795,76.783 115.795,78C115.795,79.154 116.683,80.102 117.813,80.197L117.818,80.208L117.86,80.285L117.774,80.311C117.453,80.414 117.196,80.646 117.057,80.942Z"/>
        </g>
    </g>
</svg>
