<?xml version="1.0" encoding="UTF-8" standalone="no"?>
<!DOCTYPE svg PUBLIC "-//W3C//DTD SVG 1.1//EN" "http://www.w3.org/Graphics/SVG/1.1/DTD/svg11.dtd">
<svg width="16px" height="16px" version="1.1" xmlns="http://www.w3.org/2000/svg" xmlns:xlink="http://www.w3.org/1999/xlink" xml:space="preserve" xmlns:serif="http://www.serif.com/" style="fill-rule:evenodd;clip-rule:evenodd;stroke-linejoin:round;stroke-miterlimit:2;">
    <g transform="matrix(1,0,0,1,-190,-450)">
        <g id="transparency_check" transform="matrix(1,0,0,1,140,20)">
            <g id="bg" transform="matrix(0.110345,0,0,0.121212,33.7793,411.091)">
                <rect x="147" y="156" width="145" height="132" style="fill:rgb(135,135,135);fill-opacity:0;"/>
            </g>
            <g transform="matrix(0.836128,0,0,0.836128,56.7581,438.602)">
                <path d="M4.447,7.401L10.033,1.845C10.268,1.611 10.648,1.612 10.881,1.847C11.115,2.082 11.114,2.462 10.879,2.695L4.867,8.675C4.754,8.788 4.601,8.851 4.442,8.85C4.283,8.849 4.13,8.786 4.018,8.672L0.462,5.084C0.229,4.849 0.23,4.469 0.466,4.236C0.701,4.003 1.081,4.004 1.314,4.24L4.447,7.401Z"/>
            </g>
            <g transform="matrix(1,0,0,1,-140,-20)">
                <path d="M197,460.049C196.539,460.142 196.1,460.367 195.741,460.722C195.652,460.81 195.571,460.903 195.498,461L193,461L193,457L197,457L197,460.049ZM201,453L201,457L197,457L197,453L201,453Z" style="fill:rgb(153,153,153);"/>
            </g>
            <g transform="matrix(1,0,0,1,-140,-20)">
                <path d="M195.494,463.994L192,464C190.896,464 190,463.104 190,462L190,452C190,450.896 190.896,450 192,450L202,450C203.104,450 204,450.896 204,452L204,458.498C203.908,458.568 203.82,458.644 203.736,458.727L202.002,460.452L202.002,451.999L191.999,451.999L191.999,462.001L195.049,462.001C194.911,462.683 195.059,463.412 195.494,463.994ZM197,460.049L197,457L193.002,457L193.002,453.001L197,453.001L197,457L200.999,457L200.999,460.999L199.535,460.999L199.277,460.739C198.662,460.116 197.799,459.886 197,460.049Z"/>
            </g>
        </g>
    </g>
</svg>
