<?xml version="1.0" encoding="UTF-8" standalone="no"?>
<!DOCTYPE svg PUBLIC "-//W3C//DTD SVG 1.1//EN" "http://www.w3.org/Graphics/SVG/1.1/DTD/svg11.dtd">
<svg width="16px" height="16px" version="1.1" xmlns="http://www.w3.org/2000/svg" xmlns:xlink="http://www.w3.org/1999/xlink" xml:space="preserve" xmlns:serif="http://www.serif.com/" style="fill-rule:evenodd;clip-rule:evenodd;stroke-linecap:round;stroke-linejoin:round;stroke-miterlimit:1.5;">
    <g transform="matrix(1,0,0,1,-10,-30)">
        <g id="type_erase_segment">
            <g id="bg" transform="matrix(0.110345,0,0,0.121212,-6.22069,11.0909)">
                <rect x="147" y="156" width="145" height="132" style="fill:rgb(135,135,135);fill-opacity:0;"/>
            </g>
            <g transform="matrix(1,0,0,0.47619,3,31)">
                <rect x="17" y="10.5" width="2" height="10.5" style="fill-opacity:0.5;"/>
            </g>
            <g transform="matrix(1,0,0,1,5,25)">
                <path d="M15,17L11,17L11,15L21,15L21,17L17,17L17,21L15,21L15,17Z"/>
            </g>
            <g transform="matrix(1,0,0,1,5,26)">
                <path d="M14,12.5C14,12.367 13.958,12.24 13.885,12.146C13.812,12.053 13.712,12 13.608,12L7.43,12C7.326,12 7.226,12.053 7.152,12.146C7.08,12.24 7.038,12.367 7.038,12.5C7.038,12.633 7.08,12.76 7.152,12.854C7.226,12.947 7.326,13 7.43,13L13.608,13C13.712,13 13.812,12.947 13.885,12.854C13.958,12.76 14,12.633 14,12.5ZM21,12.5C21,12.367 20.959,12.24 20.886,12.146C20.812,12.053 20.712,12 20.608,12L18.393,12C18.288,12 18.189,12.053 18.115,12.146C18.042,12.24 18,12.367 18,12.5C18,12.633 18.042,12.76 18.115,12.854C18.189,12.947 18.288,13 18.393,13L20.608,13C20.712,13 20.812,12.947 20.886,12.854C20.959,12.76 21,12.633 21,12.5Z"/>
            </g>
            <g transform="matrix(0.4353,0.4353,-0.517501,0.517501,9.73719,-24.4637)">
                <path d="M78.024,47.028C78.01,46.559 77.555,46.185 76.998,46.185L71.771,46.185C71.499,46.185 71.238,46.276 71.045,46.438C70.853,46.6 70.745,46.819 70.745,47.048L70.745,57.693C70.745,57.924 70.855,58.146 71.052,58.308C71.248,58.471 71.513,58.56 71.789,58.556C73.073,58.537 75.084,58.508 75.084,58.508L78.302,55.802C78.302,55.802 78.095,49.569 78.024,47.028Z" style="fill:none;stroke:black;stroke-width:1.48px;"/>
            </g>
            <g transform="matrix(0.406426,0.395017,-0.516734,0.531658,11.7442,-22.175)">
                <path d="M77.961,46.576L70.706,46.576L70.745,51.533L77.982,51.571L77.961,46.576Z" style="stroke:black;stroke-width:0.92px;"/>
            </g>
        </g>
    </g>
</svg>
