<?xml version="1.0" encoding="UTF-8" standalone="no"?>
<!DOCTYPE svg PUBLIC "-//W3C//DTD SVG 1.1//EN" "http://www.w3.org/Graphics/SVG/1.1/DTD/svg11.dtd">
<svg width="16px" height="16px" version="1.1" xmlns="http://www.w3.org/2000/svg" xmlns:xlink="http://www.w3.org/1999/xlink" xml:space="preserve" xmlns:serif="http://www.serif.com/" style="fill-rule:evenodd;clip-rule:evenodd;stroke-linejoin:round;stroke-miterlimit:2;">
    <g transform="matrix(1,0,0,1,-10,-10)">
        <g id="type_normal">
            <g id="bg" transform="matrix(0.110345,0,0,0.121212,-6.22069,-8.90909)">
                <rect x="147" y="156" width="145" height="132" style="fill:rgb(135,135,135);fill-opacity:0;"/>
            </g>
            <g transform="matrix(1,0,0,1,0.514926,0)">
                <path d="M22.985,15C23.261,15 23.485,15.224 23.485,15.5C23.485,15.776 23.261,16 22.985,16L19.985,16C19.709,16 19.485,15.776 19.485,15.5C19.485,15.224 19.709,15 19.985,15L22.985,15ZM13.985,15C14.261,15 14.485,15.224 14.485,15.5C14.485,15.776 14.261,16 13.985,16L10.985,16C10.709,16 10.485,15.776 10.485,15.5C10.485,15.224 10.709,15 10.985,15L13.985,15ZM22.339,11.853C22.534,11.658 22.534,11.342 22.339,11.146C22.143,10.951 21.827,10.951 21.632,11.146L19.631,13.147C19.436,13.342 19.436,13.658 19.631,13.854C19.827,14.049 20.143,14.049 20.338,13.854L22.339,11.853ZM12.338,11.146C12.143,10.951 11.827,10.951 11.632,11.146C11.436,11.342 11.436,11.658 11.631,11.853L13.632,13.854C13.827,14.049 14.144,14.049 14.339,13.854C14.534,13.658 14.534,13.342 14.339,13.147L12.338,11.146ZM17.485,10.5C17.485,10.224 17.261,10 16.985,10C16.709,10 16.485,10.224 16.485,10.5L16.485,13.5C16.485,13.776 16.709,14 16.985,14C17.261,14 17.485,13.776 17.485,13.5L17.485,10.5Z"/>
            </g>
            <g transform="matrix(0.534216,-0.230103,0.271094,0.629384,-2.85208,7.13623)">
                <path d="M26,22L32.6,35L27.5,32.936L27.5,38.929L24.5,38.929L24.5,32.936L19.4,35L26,22Z"/>
            </g>
        </g>
    </g>
</svg>
