<?xml version="1.0" encoding="UTF-8" standalone="no"?>
<!DOCTYPE svg PUBLIC "-//W3C//DTD SVG 1.1//EN" "http://www.w3.org/Graphics/SVG/1.1/DTD/svg11.dtd">
<svg width="100%" height="100%" viewBox="0 0 16 16" version="1.1" xmlns="http://www.w3.org/2000/svg" xmlns:xlink="http://www.w3.org/1999/xlink" xml:space="preserve" xmlns:serif="http://www.serif.com/" style="fill-rule:evenodd;clip-rule:evenodd;stroke-linejoin:round;stroke-miterlimit:2;">
    <g id="uncache_fx">
        <rect id="bg" x="0" y="0" width="16" height="16" style="fill-opacity:0;"/>
        <path d="M7.251,10.766l-2.017,-2.017c0,-0 -0.891,1.278 -1.844,2.398c-0.956,1.125 -2.39,3.853 -2.39,3.853c-0,0 2.746,-1.415 3.871,-2.372c1.12,-0.953 2.38,-1.862 2.38,-1.862Z"/>
        <path d="M0.486,1.53c-0.292,-0.292 -0.292,-0.768 0,-1.06c0.293,-0.293 0.768,-0.293 1.061,-0l14,14c0.293,0.292 0.293,0.768 -0,1.06c-0.293,0.293 -0.768,0.293 -1.061,0l-14,-14Z"/>
        <path d="M5.651,2.573c0.992,-0.973 2.351,-1.573 3.849,-1.573c3.036,0 5.5,2.464 5.5,5.5c0,1.498 -0.6,2.857 -1.573,3.849l-7.776,-7.776Zm6.579,8.701c-0.804,0.462 -1.737,0.726 -2.73,0.726c-3.036,0 -5.5,-2.464 -5.5,-5.5c0,-0.993 0.264,-1.926 0.726,-2.73l7.504,7.504Z" style="fill-opacity:0.25;"/>
        <path d="M11.6,4.263c0.78,0.781 0.939,1.89 0.353,2.475c-0.585,0.586 -1.694,0.427 -2.475,-0.353c-0.78,-0.781 -0.939,-1.89 -0.353,-2.475c0.585,-0.586 1.694,-0.427 2.475,0.353Z"/>
        <path d="M5.651,2.573c0.992,-0.973 2.351,-1.573 3.849,-1.573c3.036,0 5.5,2.464 5.5,5.5c0,1.498 -0.6,2.857 -1.573,3.849l-0.707,-0.707c0.792,-0.811 1.28,-1.92 1.28,-3.142c0,-2.484 -2.016,-4.5 -4.5,-4.5c-1.222,0 -2.331,0.488 -3.142,1.28l-0.707,-0.707Zm6.579,8.701c-0.804,0.462 -1.737,0.726 -2.73,0.726c-3.036,0 -5.5,-2.464 -5.5,-5.5c0,-0.993 0.264,-1.926 0.726,-2.73l0.738,0.738c-0.297,0.601 -0.464,1.277 -0.464,1.992c0,2.484 2.016,4.5 4.5,4.5c0.715,0 1.391,-0.167 1.992,-0.464l0.738,0.738Z"/>
    </g>
</svg>
