<?xml version="1.0" encoding="UTF-8" standalone="no"?>
<!DOCTYPE svg PUBLIC "-//W3C//DTD SVG 1.1//EN" "http://www.w3.org/Graphics/SVG/1.1/DTD/svg11.dtd">
<svg width="100%" height="100%" viewBox="0 0 16 16" version="1.1" xmlns="http://www.w3.org/2000/svg" xmlns:xlink="http://www.w3.org/1999/xlink" xml:space="preserve" xmlns:serif="http://www.serif.com/" style="fill-rule:evenodd;clip-rule:evenodd;stroke-linejoin:round;stroke-miterlimit:2;">
    <g id="ungroup">
        <rect id="bg" x="0" y="-0" width="16" height="16" style="fill:#878787;fill-opacity:0;"/>
        <path d="M11,5l1.999,-0l-0,-0.501c-0,-0.276 0.224,-0.5 0.5,-0.5l2,-0c0.277,-0 0.501,0.224 0.501,0.5l0,2c0,0.277 -0.224,0.501 -0.501,0.501l-0.499,0l-0,5.999l0.499,-0c0.277,-0 0.501,0.224 0.501,0.5l0,2c0,0.277 -0.224,0.501 -0.501,0.501l-2,0c-0.276,0 -0.5,-0.224 -0.5,-0.501l0,-0.5l-5.999,0l0,0.5c0,0.277 -0.224,0.501 -0.5,0.501l-2,0c-0.277,0 -0.501,-0.224 -0.501,-0.501l-0,-2c-0,-0.276 0.224,-0.5 0.501,-0.5l0.5,0l-0,-1.999l-0,-1l-0,-3l-0.5,0c-0.277,0 -0.501,-0.224 -0.501,-0.501l-0,-2c-0,-0.276 0.224,-0.5 0.501,-0.5l2,-0c0.276,-0 0.5,0.224 0.5,0.5l0,0.501l3,-0l1,-0Zm-5,6l-0,1.999l0.5,-0c0.276,-0 0.5,0.224 0.5,0.5l-0,0.5l5.999,0l-0,-0.5c-0,-0.276 0.224,-0.5 0.5,-0.5l0.501,-0l-0,-5.999l-0.501,0c-0.276,0 -0.5,-0.224 -0.5,-0.501l-0,-0.5l-1.999,0.001l-1,-0l-3,-0.001l0,0.5c0,0.277 -0.224,0.501 -0.5,0.501l-0.501,0l0.001,3l-0,1Zm5,-4l0,1.999l0.5,0c0.276,0 0.501,0.225 0.501,0.501l-0,2c-0,0.276 -0.225,0.501 -0.501,0.501l-2,-0c-0.276,-0 -0.501,-0.225 -0.501,-0.501l0.001,-0.5l-2,-0l0,-1l2,-0l-0.001,-0.5c0,-0.276 0.225,-0.501 0.501,-0.501l0.5,0l0,-1.999l1,-0Zm-1,3l0.001,0.999l0.998,0l0.001,-0.999l-1,0Zm-4.001,4l-0.999,0l0,0.999l0.999,-0l-0,-0.999Zm8.001,-0l0,0.999l0.999,-0l0,-0.999l-0.999,-0Zm0.999,-8.001l-0,-0.999l-0.999,-0l-0,0.999l0.999,0Zm-9,-0.999l-0.999,0l-0,0.999l0.999,0l0,-0.999Zm-1.999,6l-1,-0l0.001,0.5c-0,0.276 -0.225,0.501 -0.501,0.501l-2,-0c-0.276,-0 -0.501,-0.225 -0.501,-0.501l0,-2c0,-0.276 0.225,-0.501 0.501,-0.501l0.5,0.001l0,-5.999l-0.5,-0c-0.276,-0 -0.501,-0.225 -0.501,-0.501l0,-2c0,-0.276 0.225,-0.501 0.501,-0.501l2,0c0.276,0 0.501,0.225 0.501,0.501l-0,0.5l5.998,0l0,-0.5c0,-0.276 0.225,-0.501 0.501,-0.501l2,0c0.276,0 0.501,0.225 0.501,0.501l-0,2c-0,0.276 -0.225,0.501 -0.501,0.501l-0.5,-0l0,0.999l-1,-0l0,-0.999l-0.5,-0c-0.276,-0 -0.501,-0.225 -0.501,-0.501l0,-0.5l-5.998,-0l-0,0.5c-0,0.276 -0.225,0.501 -0.501,0.501l-0.5,-0l0,5.999l0.5,-0.001c0.276,0 0.501,0.225 0.501,0.501l-0.001,0.5l1,-0l0,1Zm-2,-10l-0.999,0.001l-0.001,0.999l1,-0l-0,-1Zm-0.001,9.001l-0.998,-0l-0,0.998l0.998,0l0,-0.998Zm9.001,-8.001l-0.001,-0.999l-0.999,-0.001l0,1l1,-0Z"/>
    </g>
</svg>
