<?xml version="1.0" encoding="UTF-8" standalone="no"?>
<!DOCTYPE svg PUBLIC "-//W3C//DTD SVG 1.1//EN" "http://www.w3.org/Graphics/SVG/1.1/DTD/svg11.dtd">
<svg width="16px" height="16px" version="1.1" xmlns="http://www.w3.org/2000/svg" xmlns:xlink="http://www.w3.org/1999/xlink" xml:space="preserve" xmlns:serif="http://www.serif.com/" style="fill-rule:evenodd;clip-rule:evenodd;stroke-linejoin:round;stroke-miterlimit:2;">
    <g transform="matrix(1,0,0,1,-10,-110)">
        <g id="ungroup">
            <g id="bg" transform="matrix(0.110345,0,0,0.121212,-6.22069,91.0909)">
                <rect x="147" y="156" width="145" height="132" style="fill:rgb(135,135,135);fill-opacity:0;"/>
            </g>
            <g transform="matrix(0.571429,0,0,0.8,13.3571,112.5)">
                <path d="M6.375,2.5C6.375,2.155 5.983,1.875 5.5,1.875L2,1.875C1.517,1.875 1.125,2.155 1.125,2.5L1.125,5C1.125,5.345 1.517,5.625 2,5.625L5.5,5.625C5.983,5.625 6.375,5.345 6.375,5L6.375,2.5ZM2.875,3.125L2.875,4.375L4.625,4.375L4.625,3.125L2.875,3.125Z"/>
            </g>
            <g transform="matrix(0.571429,0,0,0.8,22.3571,112.5)">
                <path d="M6.375,2.5C6.375,2.155 5.983,1.875 5.5,1.875L2,1.875C1.517,1.875 1.125,2.155 1.125,2.5L1.125,5C1.125,5.345 1.517,5.625 2,5.625L5.5,5.625C5.983,5.625 6.375,5.345 6.375,5L6.375,2.5ZM2.875,3.125L2.875,4.375L4.625,4.375L4.625,3.125L2.875,3.125Z"/>
            </g>
            <g transform="matrix(0.571429,0,0,0.8,22.3571,121.5)">
                <path d="M6.375,2.5C6.375,2.155 5.983,1.875 5.5,1.875L2,1.875C1.517,1.875 1.125,2.155 1.125,2.5L1.125,5C1.125,5.345 1.517,5.625 2,5.625L5.5,5.625C5.983,5.625 6.375,5.345 6.375,5L6.375,2.5ZM2.875,3.125L2.875,4.375L4.625,4.375L4.625,3.125L2.875,3.125Z"/>
            </g>
            <g transform="matrix(0.571429,0,0,0.8,13.3571,121.5)">
                <path d="M6.375,2.5C6.375,2.155 5.983,1.875 5.5,1.875L2,1.875C1.517,1.875 1.125,2.155 1.125,2.5L1.125,5C1.125,5.345 1.517,5.625 2,5.625L5.5,5.625C5.983,5.625 6.375,5.345 6.375,5L6.375,2.5ZM2.875,3.125L2.875,4.375L4.625,4.375L4.625,3.125L2.875,3.125Z"/>
            </g>
            <g transform="matrix(0.571429,0,0,0.8,18.3571,117.5)">
                <path d="M6.375,2.5C6.375,2.155 5.983,1.875 5.5,1.875L2,1.875C1.517,1.875 1.125,2.155 1.125,2.5L1.125,5C1.125,5.345 1.517,5.625 2,5.625L5.5,5.625C5.983,5.625 6.375,5.345 6.375,5L6.375,2.5ZM2.875,3.125L2.875,4.375L4.625,4.375L4.625,3.125L2.875,3.125Z"/>
            </g>
            <g transform="matrix(0.571429,0,0,0.8,18.3571,108.5)">
                <path d="M6.375,2.5C6.375,2.155 5.983,1.875 5.5,1.875L2,1.875C1.517,1.875 1.125,2.155 1.125,2.5L1.125,5C1.125,5.345 1.517,5.625 2,5.625L5.5,5.625C5.983,5.625 6.375,5.345 6.375,5L6.375,2.5ZM2.875,3.125L2.875,4.375L4.625,4.375L4.625,3.125L2.875,3.125Z"/>
            </g>
            <g transform="matrix(0.571429,0,0,0.8,9.35714,108.5)">
                <path d="M6.375,2.5C6.375,2.155 5.983,1.875 5.5,1.875L2,1.875C1.517,1.875 1.125,2.155 1.125,2.5L1.125,5C1.125,5.345 1.517,5.625 2,5.625L5.5,5.625C5.983,5.625 6.375,5.345 6.375,5L6.375,2.5ZM2.875,3.125L2.875,4.375L4.625,4.375L4.625,3.125L2.875,3.125Z"/>
            </g>
            <g transform="matrix(0.571429,0,0,0.8,9.35714,117.5)">
                <path d="M6.375,2.5C6.375,2.155 5.983,1.875 5.5,1.875L2,1.875C1.517,1.875 1.125,2.155 1.125,2.5L1.125,5C1.125,5.345 1.517,5.625 2,5.625L5.5,5.625C5.983,5.625 6.375,5.345 6.375,5L6.375,2.5ZM2.875,3.125L2.875,4.375L4.625,4.375L4.625,3.125L2.875,3.125Z"/>
            </g>
            <g transform="matrix(1,0,0,1,8,108)">
                <g transform="matrix(1,0,0,1,0,-1)">
                    <rect x="8" y="17" width="8" height="1"/>
                </g>
                <g transform="matrix(1,0,0,1,-1,0)">
                    <rect x="17" y="8" width="1" height="8"/>
                </g>
            </g>
            <g transform="matrix(1,0,0,1,7,107)">
                <g transform="matrix(1,0,0,1,1,1)">
                    <rect x="4" y="12" width="2" height="1"/>
                </g>
                <g transform="matrix(1,0,0,1,1,1)">
                    <rect x="9" y="12" width="3" height="1"/>
                </g>
                <g transform="matrix(1,0,0,1,0,1)">
                    <rect x="13" y="4" width="1" height="2"/>
                </g>
                <g transform="matrix(1,0,0,1,0,1)">
                    <rect x="13" y="8" width="1" height="2"/>
                </g>
            </g>
            <g transform="matrix(1,0,0,0.888889,11,108.889)">
                <rect x="4" y="8" width="1" height="9"/>
            </g>
            <g transform="matrix(1,0,0,0.888889,7,104.889)">
                <rect x="4" y="8" width="1" height="9"/>
            </g>
            <g transform="matrix(0.888889,0,0,1,8.88889,111)">
                <rect x="8" y="4" width="9" height="1"/>
            </g>
            <g transform="matrix(0.888884,0,0,1,4.88893,107)">
                <rect x="8" y="4" width="9" height="1"/>
            </g>
        </g>
    </g>
</svg>
