<?xml version="1.0" encoding="UTF-8" standalone="no"?>
<!DOCTYPE svg PUBLIC "-//W3C//DTD SVG 1.1//EN" "http://www.w3.org/Graphics/SVG/1.1/DTD/svg11.dtd">
<svg width="16px" height="16px" version="1.1" xmlns="http://www.w3.org/2000/svg" xmlns:xlink="http://www.w3.org/1999/xlink" xml:space="preserve" xmlns:serif="http://www.serif.com/" style="fill-rule:evenodd;clip-rule:evenodd;stroke-linejoin:round;stroke-miterlimit:2;">
    <g transform="matrix(1,0,0,1,-190,-130)">
        <g id="use_subcamera_preview_on" transform="matrix(1,0,0,1,80,40)">
            <g id="bg" transform="matrix(0.110345,0,0,0.121212,93.7793,71.0909)">
                <rect x="147" y="156" width="145" height="132" style="fill:rgb(135,135,135);fill-opacity:0;"/>
            </g>
            <g transform="matrix(1,0,0,1,110.5,91.9875)">
                <g id="toggle">
                    <path id="toggle1" serif:id="toggle" d="M15.5,11C15.5,9.344 14.156,8 12.5,8L9.5,8C7.844,8 6.5,9.344 6.5,11C6.5,12.656 7.844,14 9.5,14L12.5,14C14.156,14 15.5,12.656 15.5,11ZM12.5,9C13.604,9 14.5,9.902 14.5,11.012C14.5,12.123 13.604,13.025 12.5,13.025C11.396,13.025 10.5,12.123 10.5,11.012C10.5,9.902 11.396,9 12.5,9Z"/>
                </g>
            </g>
            <g transform="matrix(1,0,0,1,108,88)">
                <path d="M3,15L4,15L4,16L2,16L2,14L3,14L3,15ZM7.5,15L5.5,15L5.5,16L7.5,16L7.5,15ZM3,10.5L2,10.5L2,12.5L3,12.5L3,10.5ZM17,12.126L17,10.5L18,10.5L18,12.5L17.937,12.5C17.645,12.338 17.331,12.211 17,12.126ZM3,6.5L2,6.5L2,8.5L3,8.5L3,6.5ZM18,6.5L17,6.5L17,8.5L18,8.5L18,6.5ZM4,3L4,4L3,4L3,5L2,5L2,3L4,3ZM18,5L17,5L17,4L16,4L16,3L18,3L18,5ZM11,3L9,3L9,4L11,4L11,3ZM14.5,3L12.5,3L12.5,4L14.5,4L14.5,3ZM7.5,3L5.5,3L5.5,4L7.5,4L7.5,3Z"/>
            </g>
            <g transform="matrix(1,0,0,1,-80,-40)">
                <path d="M196.401,141.253C193.613,140.38 192,137.491 192,137.491C192,137.491 194.248,133.5 198.001,133.5C201.752,133.5 204,137.491 204,137.491C204,137.491 203.611,138.187 202.884,139L200.598,139C200.854,138.559 201,138.046 201,137.5C201,135.844 199.656,134.5 198,134.5C196.344,134.5 195,135.844 195,137.5C195,138.812 195.844,139.928 197.018,140.335C196.772,140.61 196.564,140.918 196.401,141.253ZM198,136C198.828,136 199.5,136.672 199.5,137.5C199.5,138.328 198.828,139 198,139C197.172,139 196.5,138.328 196.5,137.5C196.5,136.672 197.172,136 198,136Z"/>
            </g>
        </g>
    </g>
</svg>
