<?xml version="1.0" encoding="UTF-8" standalone="no"?>
<!DOCTYPE svg PUBLIC "-//W3C//DTD SVG 1.1//EN" "http://www.w3.org/Graphics/SVG/1.1/DTD/svg11.dtd">
<svg width="100%" height="100%" viewBox="0 0 16 16" version="1.1" xmlns="http://www.w3.org/2000/svg" xmlns:xlink="http://www.w3.org/1999/xlink" xml:space="preserve" xmlns:serif="http://www.serif.com/" style="fill-rule:evenodd;clip-rule:evenodd;stroke-linejoin:round;stroke-miterlimit:2;">
    <g id="view_file">
        <rect id="bg" x="0.001" y="-0.04" width="16" height="16" style="fill:#878787;fill-opacity:0;"/>
        <path id="find" d="M10.405,13.263c0.585,0.437 1.31,0.697 2.096,0.697c1.932,-0 3.5,-1.568 3.5,-3.5c0,-1.932 -1.568,-3.5 -3.5,-3.5c-1.932,-0 -3.5,1.568 -3.5,3.5c0,0.785 0.259,1.511 0.697,2.095l-2.551,2.551c-0.195,0.195 -0.195,0.512 0,0.707c0.195,0.196 0.512,0.196 0.707,0l2.551,-2.55Zm2.096,-5.303c1.38,-0 2.5,1.12 2.5,2.5c0,1.38 -1.12,2.5 -2.5,2.5c-1.38,-0 -2.5,-1.12 -2.5,-2.5c0,-1.38 1.12,-2.5 2.5,-2.5Z"/>
        <path d="M6.087,14.96l-4.086,-0l0,-14l8,-0l4,4l0,1.256c-0.318,-0.112 -0.653,-0.19 -1,-0.229l0,-1.027l-3,-0l0,-3l-7,-0l0,12l3.879,-0c-0.256,0.256 -0.44,0.439 -0.44,0.439c-0.163,0.164 -0.281,0.356 -0.353,0.561Z"/>
    </g>
</svg>
