<?xml version="1.0" encoding="UTF-8" standalone="no"?>
<!DOCTYPE svg PUBLIC "-//W3C//DTD SVG 1.1//EN" "http://www.w3.org/Graphics/SVG/1.1/DTD/svg11.dtd">
<svg width="16px" height="16px" version="1.1" xmlns="http://www.w3.org/2000/svg" xmlns:xlink="http://www.w3.org/1999/xlink" xml:space="preserve" xmlns:serif="http://www.serif.com/" style="fill-rule:evenodd;clip-rule:evenodd;stroke-linejoin:round;stroke-miterlimit:2;">
    <g transform="matrix(1,0,0,1,-170,-530)">
        <g id="view_guided_drawing_on" transform="matrix(1,0,0,1,140,180)">
            <g id="bg" transform="matrix(0.110345,0,0,0.121212,13.7793,331.091)">
                <rect x="147" y="156" width="145" height="132" style="fill:rgb(135,135,135);fill-opacity:0;"/>
            </g>
            <g transform="matrix(1.6,0,0,1.6,-251.6,78)">
                <path d="M183.5,170C184.88,170 186,171.12 186,172.5C186,173.88 184.88,175 183.5,175C182.12,175 181,173.88 181,172.5C181,171.12 182.12,170 183.5,170ZM183.5,170.625C184.535,170.625 185.375,171.465 185.375,172.5C185.375,173.535 184.535,174.375 183.5,174.375C182.465,174.375 181.625,173.535 181.625,172.5C181.625,171.465 182.465,170.625 183.5,170.625Z"/>
            </g>
            <g transform="matrix(1,0,0,1,-140,180)">
                <circle cx="182" cy="174" r="3" style="fill-opacity:0.2;"/>
            </g>
            <g transform="matrix(1,0,0,1,-140,180)">
                <path d="M182,172.605C182,172.835 181.853,173.039 181.635,173.114C181.36,173.181 181.154,173.396 181.058,173.663C181.005,173.844 180.839,173.968 180.65,173.968C180.362,174 180,174 180,174C180,173.095 180.603,172.329 181.428,172.083C181.56,172.052 181.699,172.082 181.805,172.166C181.911,172.25 181.973,172.378 181.973,172.514C182,172.544 182,172.575 182,172.605Z"/>
            </g>
            <g id="toggle" transform="matrix(-1,0,0,1,52.5,351.988)">
                <path d="M15.5,11C15.5,9.344 14.156,8 12.5,8L9.5,8C7.844,8 6.5,9.344 6.5,11C6.5,12.656 7.844,14 9.5,14L12.5,14C14.156,14 15.5,12.656 15.5,11ZM12.5,9C13.604,9 14.5,9.902 14.5,11.012C14.5,12.123 13.604,13.025 12.5,13.025C11.396,13.025 10.5,12.123 10.5,11.012C10.5,9.902 11.396,9 12.5,9Z"/>
            </g>
            <g transform="matrix(1,0,0,1,-160,180)">
                <path d="M197.855,179.376C196.74,178.666 196,177.419 196,176C196,174.641 196.679,173.439 197.716,172.716C197.265,173.364 197,174.151 197,175C197,176.766 198.147,178.266 199.736,178.796C199.052,178.838 198.412,179.045 197.855,179.376Z"/>
            </g>
            <g transform="matrix(1,0,0,1,-160,180)">
                <path d="M195.923,183.999C193.751,183.958 192,182.182 192,180C192,178.641 192.679,177.439 193.716,176.716C193.265,177.364 193,178.151 193,179C193,180.791 194.179,182.308 195.803,182.818C195.801,182.874 195.8,182.931 195.8,182.988C195.8,183.336 195.843,183.675 195.923,183.999Z" style="fill-opacity:0.4;"/>
            </g>
            <g transform="matrix(1,0,0,1,-160,180)">
                <path d="M196.07,181.504C194.836,180.822 194,179.508 194,178C194,176.641 194.679,175.439 195.716,174.716C195.265,175.364 195,176.151 195,177C195,178.378 195.699,179.595 196.761,180.314C196.47,180.667 196.235,181.068 196.07,181.504Z" style="fill-opacity:0.65;"/>
            </g>
            <g transform="matrix(1,0,0,1,-160,180)">
                <path d="M196.42,185.184C195.748,185.696 194.909,186 194,186C191.792,186 190,184.208 190,182C190,180.641 190.679,179.439 191.716,178.716C191.265,179.364 191,180.151 191,181C191,183.208 192.792,185 195,185C195.424,185 195.833,184.934 196.216,184.811C196.278,184.939 196.346,185.064 196.42,185.184Z" style="fill-opacity:0.2;"/>
            </g>
        </g>
    </g>
</svg>
