<?xml version="1.0" encoding="UTF-8" standalone="no"?>
<!DOCTYPE svg PUBLIC "-//W3C//DTD SVG 1.1//EN" "http://www.w3.org/Graphics/SVG/1.1/DTD/svg11.dtd">
<svg width="16px" height="16px" version="1.1" xmlns="http://www.w3.org/2000/svg" xmlns:xlink="http://www.w3.org/1999/xlink" xml:space="preserve" xmlns:serif="http://www.serif.com/" style="fill-rule:evenodd;clip-rule:evenodd;stroke-linejoin:round;stroke-miterlimit:2;">
    <g transform="matrix(1,0,0,1,-150,-250)">
        <g id="view_file" transform="matrix(1,0,0,1,40,20)">
            <g id="bg" transform="matrix(0.110345,0,0,0.121212,93.7793,211.091)">
                <rect x="147" y="156" width="145" height="132" style="fill:rgb(135,135,135);fill-opacity:0;"/>
            </g>
            <g>
                <path d="M120,231.5L123.5,235L120,235L120,231.5Z"/>
            </g>
            <g id="add" transform="matrix(1,0,0,1,112,232)">
                <g id="preview" transform="matrix(1,0,0,1,-32,-432)">
                    <path d="M35,442.492C35,442.492 37.061,439 40.501,439C43.939,439 46,442.492 46,442.492C46,442.492 43.948,446 40.501,446C37.052,446 35,442.492 35,442.492ZM40.5,440C41.88,440 43,441.12 43,442.5C43,443.88 41.88,445 40.5,445C39.12,445 38,443.88 38,442.5C38,441.12 39.12,440 40.5,440ZM40.5,441.252C41.189,441.252 41.748,441.811 41.748,442.5C41.748,443.189 41.189,443.748 40.5,443.748C39.811,443.748 39.252,443.189 39.252,442.5C39.252,441.811 39.811,441.252 40.5,441.252Z"/>
                </g>
                <g transform="matrix(1,0,0,1,-152,-252)">
                    <path d="M155.543,265L153,265C152.448,265 152,264.552 152,264L152,252C152,251.448 152.448,251 153,251L160,251C160.265,251 160.52,251.105 160.707,251.293L163.707,254.293C163.895,254.48 164,254.735 164,255L164,258.857C163.688,258.663 163.354,258.483 163,258.33L163,255L160,252L153,252L153,264L154.618,264C154.862,264.299 155.172,264.647 155.543,265Z"/>
                </g>
            </g>
        </g>
    </g>
</svg>
