<?xml version="1.0" encoding="UTF-8" standalone="no"?>
<!DOCTYPE svg PUBLIC "-//W3C//DTD SVG 1.1//EN" "http://www.w3.org/Graphics/SVG/1.1/DTD/svg11.dtd">
<svg width="16px" height="16px" version="1.1" xmlns="http://www.w3.org/2000/svg" xmlns:xlink="http://www.w3.org/1999/xlink" xml:space="preserve" xmlns:serif="http://www.serif.com/" style="fill-rule:evenodd;clip-rule:evenodd;stroke-linejoin:round;stroke-miterlimit:2;">
    <rect x="0" y="0" width="16" height="16" style="fill-opacity:0;"/>
    <g transform="matrix(0.8,0,0,0.8,1.4,1.8)">
        <path d="M7,10C7,9.735 6.895,9.48 6.707,9.293C6.52,9.105 6.265,9 6,9L3,9C2.735,9 2.48,9.105 2.293,9.293C2.105,9.48 2,9.735 2,10L2,13C2,13.265 2.105,13.52 2.293,13.707C2.48,13.895 2.735,14 3,14L6,14C6.265,14 6.52,13.895 6.707,13.707C6.895,13.52 7,13.265 7,13L7,10Z" style="fill:black;"/>
    </g>
    <g transform="matrix(0.8,0,0,0.8,1.8,1.8)">
        <path d="M14,10C14,9.735 13.895,9.48 13.707,9.293C13.52,9.105 13.265,9 13,9L10,9C9.735,9 9.48,9.105 9.293,9.293C9.105,9.48 9,9.735 9,10L9,13C9,13.265 9.105,13.52 9.293,13.707C9.48,13.895 9.735,14 10,14L13,14C13.265,14 13.52,13.895 13.707,13.707C13.895,13.52 14,13.265 14,13L14,10Z" style="fill:black;"/>
    </g>
    <g transform="matrix(0.8,0,0,0.8,1.4,1.4)">
        <path d="M7,3C7,2.735 6.895,2.48 6.707,2.293C6.52,2.105 6.265,2 6,2L3,2C2.735,2 2.48,2.105 2.293,2.293C2.105,2.48 2,2.735 2,3L2,6C2,6.265 2.105,6.52 2.293,6.707C2.48,6.895 2.735,7 3,7L6,7C6.265,7 6.52,6.895 6.707,6.707C6.895,6.52 7,6.265 7,6L7,3Z" style="fill:black;"/>
    </g>
    <g transform="matrix(0.8,0,0,0.8,1.8,1.4)">
        <path d="M14,3C14,2.735 13.895,2.48 13.707,2.293C13.52,2.105 13.265,2 13,2L10,2C9.735,2 9.48,2.105 9.293,2.293C9.105,2.48 9,2.735 9,3L9,6C9,6.265 9.105,6.52 9.293,6.707C9.48,6.895 9.735,7 10,7L13,7C13.265,7 13.52,6.895 13.707,6.707C13.895,6.52 14,6.265 14,6L14,3Z" style="fill:black;"/>
    </g>
</svg>
