<?xml version="1.0" encoding="UTF-8" standalone="no"?>
<!DOCTYPE svg PUBLIC "-//W3C//DTD SVG 1.1//EN" "http://www.w3.org/Graphics/SVG/1.1/DTD/svg11.dtd">
<svg width="16px" height="16px" version="1.1" xmlns="http://www.w3.org/2000/svg" xmlns:xlink="http://www.w3.org/1999/xlink" xml:space="preserve" xmlns:serif="http://www.serif.com/" style="fill-rule:evenodd;clip-rule:evenodd;stroke-linejoin:round;stroke-miterlimit:2;">
    <g transform="matrix(1,0,0,1,-189,-490)">
        <g id="view_vector_as_raster" transform="matrix(1,0,0,1,139,380.002)">
            <g id="bg" transform="matrix(0.110345,0,0,0.121212,33.7793,91.0909)">
                <rect x="147" y="156" width="145" height="132" style="fill:rgb(135,135,135);fill-opacity:0;"/>
            </g>
            <g transform="matrix(0.836128,0,0,0.836128,56.7581,118.602)">
                <path d="M4.447,7.401L10.033,1.845C10.268,1.611 10.648,1.612 10.881,1.847C11.115,2.082 11.114,2.462 10.879,2.695L4.867,8.675C4.754,8.788 4.601,8.851 4.442,8.85C4.283,8.849 4.13,8.786 4.018,8.672L0.462,5.084C0.229,4.849 0.23,4.469 0.466,4.236C0.701,4.003 1.081,4.004 1.314,4.24L4.447,7.401Z"/>
            </g>
            <g transform="matrix(1,0,0,1,-139,-380.002)">
                <path d="M196,500.05C195.539,500.144 195.1,500.369 194.741,500.724C193.757,501.697 193.752,503.282 194.724,504.263L196,505.55L196,505.94C192.056,505.447 189,502.078 189,498.002C189,493.925 192.056,490.556 196,490.064L196,500.05ZM197,500.05L197,490.002L200,490.002L200,492.002L203,492.002L203,495.002L205,495.002L205,498.05C204.208,497.89 203.352,498.115 202.736,498.729L199.486,501.961L198.277,500.741C197.916,500.375 197.469,500.144 197,500.05Z"/>
            </g>
        </g>
    </g>
</svg>
