<?xml version="1.0" encoding="UTF-8" standalone="no"?>
<!DOCTYPE svg PUBLIC "-//W3C//DTD SVG 1.1//EN" "http://www.w3.org/Graphics/SVG/1.1/DTD/svg11.dtd">
<svg width="100%" height="100%" viewBox="0 0 16 16" version="1.1" xmlns="http://www.w3.org/2000/svg" xmlns:xlink="http://www.w3.org/1999/xlink" xml:space="preserve" xmlns:serif="http://www.serif.com/" style="fill-rule:evenodd;clip-rule:evenodd;stroke-linejoin:round;stroke-miterlimit:2;">
    <g id="zoom_reset">
        <rect id="bg" x="-0.015" y="0" width="16" height="16" style="fill:#878787;fill-opacity:0;"/>
        <path id="mag_glass" d="M6.48,1c-3.023,0 -5.495,2.472 -5.495,5.495c0,3.024 2.472,5.496 5.495,5.496c1.111,-0 2.196,-0.341 3.11,-0.975l3.677,3.679c0.188,0.195 0.448,0.305 0.719,0.305c0.548,0 0.999,-0.451 0.999,-0.999c-0,-0.271 -0.11,-0.531 -0.305,-0.718l-3.678,-3.679c0.634,-0.912 0.973,-1.998 0.973,-3.109c0,-3.023 -2.471,-5.495 -5.495,-5.495Zm0,0.99c2.471,0 4.505,2.035 4.505,4.505c0,2.471 -2.034,4.506 -4.505,4.506c-2.471,-0 -4.505,-2.035 -4.505,-4.506c0,-2.47 2.034,-4.505 4.505,-4.505Z" style="fill-rule:nonzero;"/>
        <path d="M8.985,5c-0,-0.552 -0.448,-1 -1,-1l-3,0c-0.552,0 -1,0.448 -1,1l0,3c0,0.552 0.448,1 1,1l3,0c0.552,0 1,-0.448 1,-1l-0,-3Z"/>
    </g>
</svg>
