<?xml version="1.0" encoding="UTF-8" standalone="no"?><!DOCTYPE svg PUBLIC "-//W3C//DTD SVG 1.1//EN" "http://www.w3.org/Graphics/SVG/1.1/DTD/svg11.dtd"><svg width="100%" height="100%" viewBox="0 0 16 16" version="1.1" xmlns="http://www.w3.org/2000/svg" xmlns:xlink="http://www.w3.org/1999/xlink" xml:space="preserve" style="fill-rule:evenodd;clip-rule:evenodd;stroke-linecap:round;stroke-linejoin:round;stroke-miterlimit:1.5;"><path d="M2,9l4,4l8,-10" style="fill:none;stroke:#ececec;stroke-width:3px;"/><path d="M15.298,3.751c0.103,0.178 0.17,0.376 0.193,0.583c0.015,0.14 0.011,0.281 -0.013,0.42c-0.028,0.165 -0.085,0.326 -0.166,0.474c-0.037,0.065 -0.048,0.08 -0.09,0.142c-2.589,3.429 -5.367,6.712 -8.051,10.067c-0.109,0.13 -0.23,0.244 -0.375,0.334c-0.407,0.256 -0.926,0.299 -1.371,0.115c-0.157,-0.066 -0.295,-0.158 -0.425,-0.268c-1.39,-1.314 -2.708,-2.704 -4.061,-4.057c-0.051,-0.055 -0.065,-0.067 -0.112,-0.126c-0.105,-0.131 -0.187,-0.281 -0.243,-0.44c-0.065,-0.185 -0.093,-0.383 -0.082,-0.579c0.014,-0.236 0.084,-0.464 0.2,-0.664c0.037,0.064 0.079,0.125 0.125,0.183c0.047,0.059 0.061,0.071 0.112,0.126c1.353,1.353 2.671,2.743 4.061,4.057c0.13,0.11 0.268,0.202 0.425,0.268c0.445,0.184 0.964,0.141 1.371,-0.115c0.145,-0.09 0.266,-0.204 0.375,-0.334c2.684,-3.355 5.462,-6.638 8.051,-10.067c0.036,-0.054 0.05,-0.072 0.076,-0.119Z" style="fill-opacity:0.501961;"/></svg>