<?xml version="1.0" encoding="UTF-8" standalone="no"?>
<!DOCTYPE svg PUBLIC "-//W3C//DTD SVG 1.1//EN" "http://www.w3.org/Graphics/SVG/1.1/DTD/svg11.dtd">
<svg width="100%" height="100%" viewBox="0 0 80 80" version="1.1" xmlns="http://www.w3.org/2000/svg" xmlns:xlink="http://www.w3.org/1999/xlink" xml:space="preserve" xmlns:serif="http://www.serif.com/" style="fill-rule:evenodd;clip-rule:evenodd;stroke-linejoin:round;stroke-miterlimit:2;">
    <g id="add" transform="matrix(1,0,0,1,-6,-6)">
        <g id="add_mask" transform="matrix(1,0,0,1,-7,-7)">
            <circle cx="17.5" cy="17.5" r="4.5" style="fill:rgb(255,0,0);fill-opacity:0.5;"/>
        </g>
        <g id="add1" serif:id="add" transform="matrix(1,0,0,1,-7,-7)">
            <path d="M17.5,14C19.432,14 21,15.568 21,17.5C21,19.432 19.432,21 17.5,21C15.568,21 14,19.432 14,17.5C14,15.568 15.568,14 17.5,14ZM18,17L20,17L20,18L18,18L18,20L17,20L17,18L15,18L15,17L17,17L17,15L18,15L18,17Z"/>
        </g>
    </g>
    <g id="cog" transform="matrix(1,0,0,1,1,0)">
        <g id="cog_mask" transform="matrix(0.571444,0,0,0.571444,-169.005,-23.572)">
            <path d="M319.101,43.002C319.145,42.841 319.194,42.68 319.249,42.52C319.459,41.907 319.99,41.459 320.631,41.358C321.537,41.214 322.463,41.214 323.369,41.358C324.01,41.459 324.541,41.907 324.751,42.52C324.806,42.68 324.855,42.841 324.899,43.002C325.043,42.919 325.191,42.841 325.342,42.766C325.925,42.48 326.617,42.54 327.142,42.921C327.886,43.461 328.539,44.114 329.079,44.858C329.46,45.383 329.52,46.075 329.234,46.658C329.159,46.809 329.081,46.957 328.998,47.101C329.159,47.145 329.32,47.194 329.48,47.249C330.093,47.459 330.541,47.99 330.642,48.631C330.786,49.537 330.786,50.463 330.642,51.369C330.541,52.01 330.093,52.541 329.48,52.751C329.32,52.806 329.159,52.855 328.998,52.899C329.081,53.043 329.159,53.191 329.234,53.342C329.52,53.925 329.46,54.617 329.079,55.142C328.539,55.886 327.886,56.539 327.142,57.079C326.617,57.46 325.925,57.52 325.342,57.234C325.191,57.159 325.043,57.081 324.899,56.998C324.855,57.159 324.806,57.32 324.751,57.48C324.541,58.093 324.01,58.541 323.369,58.642C322.463,58.786 321.537,58.786 320.631,58.642C319.99,58.541 319.459,58.093 319.249,57.48C319.194,57.32 319.145,57.159 319.101,56.998C318.957,57.081 318.809,57.159 318.658,57.234C318.075,57.52 317.383,57.46 316.858,57.079C316.114,56.539 315.461,55.886 314.921,55.142C314.54,54.617 314.48,53.925 314.766,53.342C314.841,53.191 314.919,53.043 315.002,52.899C314.841,52.855 314.68,52.806 314.52,52.751C313.907,52.541 313.459,52.01 313.358,51.369C313.214,50.463 313.214,49.537 313.358,48.631C313.459,47.99 313.907,47.459 314.52,47.249C314.68,47.194 314.841,47.145 315.002,47.101C314.919,46.957 314.841,46.809 314.766,46.658C314.48,46.075 314.54,45.383 314.921,44.858C315.461,44.114 316.114,43.461 316.858,42.921C317.383,42.54 318.075,42.48 318.658,42.766C318.809,42.841 318.957,42.919 319.101,43.002Z" style="fill:rgb(255,0,0);fill-opacity:0.5;"/>
        </g>
        <g id="cog1" serif:id="cog" transform="matrix(0.571444,0,0,0.571444,-169.005,-23.5719)">
            <path d="M323.095,43.086C322.37,42.971 321.63,42.971 320.905,43.086C320.699,43.689 320.589,44.31 320.575,44.947C320.178,45.059 319.795,45.218 319.435,45.419C318.974,44.979 318.458,44.618 317.886,44.337C317.291,44.769 316.769,45.291 316.337,45.886C316.618,46.458 316.979,46.974 317.419,47.435C317.218,47.795 317.059,48.178 316.947,48.575C316.31,48.589 315.689,48.699 315.086,48.905C314.971,49.63 314.971,50.37 315.086,51.095C315.689,51.301 316.31,51.411 316.947,51.425C317.059,51.822 317.218,52.205 317.419,52.565C316.979,53.026 316.618,53.542 316.337,54.114C316.769,54.709 317.291,55.231 317.886,55.663C318.458,55.382 318.974,55.021 319.435,54.581C319.795,54.782 320.178,54.941 320.575,55.053C320.589,55.69 320.699,56.311 320.905,56.914C321.63,57.029 322.37,57.029 323.095,56.914C323.301,56.311 323.411,55.69 323.425,55.053C323.822,54.941 324.205,54.782 324.565,54.581C325.026,55.021 325.542,55.382 326.114,55.663C326.709,55.231 327.231,54.709 327.663,54.114C327.382,53.542 327.021,53.026 326.581,52.565C326.782,52.205 326.941,51.822 327.053,51.425C327.69,51.411 328.311,51.301 328.914,51.095C329.029,50.37 329.029,49.63 328.914,48.905C328.311,48.699 327.69,48.589 327.053,48.575C326.941,48.178 326.782,47.795 326.581,47.435C327.021,46.974 327.382,46.458 327.663,45.886C327.231,45.291 326.709,44.769 326.114,44.337C325.542,44.618 325.026,44.979 324.565,45.419C324.205,45.218 323.822,45.059 323.425,44.947C323.411,44.31 323.301,43.689 323.095,43.086ZM322,46.53C323.915,46.53 325.47,48.085 325.47,50C325.47,51.915 323.915,53.47 322,53.47C320.085,53.47 318.53,51.915 318.53,50C318.53,48.085 320.085,46.53 322,46.53Z"/>
        </g>
    </g>
    <g id="checkmark" transform="matrix(1,0,0,1,3,1)">
        <g transform="matrix(0.836128,0,0,0.836128,8.75748,10.6019)">
            <path d="M4.447,7.401L10.033,1.845C10.268,1.611 10.648,1.612 10.881,1.847C11.115,2.082 11.114,2.462 10.879,2.695L4.867,8.675C4.754,8.788 4.601,8.851 4.442,8.85C4.283,8.849 4.13,8.786 4.018,8.672L0.462,5.084C0.229,4.849 0.23,4.469 0.466,4.236C0.701,4.003 1.081,4.004 1.314,4.24L4.447,7.401Z"/>
        </g>
        <g transform="matrix(0.836128,0,0,0.836128,8.75748,10.6019)">
            <path d="M4.459,4.015L3.013,2.556C1.853,1.382 -0.043,1.374 -1.216,2.536C-2.393,3.699 -2.399,5.595 -1.237,6.768C-1.237,6.768 2.319,10.356 2.319,10.356C2.871,10.918 3.633,11.237 4.427,11.242C5.224,11.247 5.992,10.933 6.558,10.366C6.554,10.371 12.566,4.391 12.566,4.391C13.736,3.231 13.744,1.335 12.578,0.161C11.414,-1.011 9.518,-1.018 8.345,0.15L4.459,4.015ZM4.447,7.401L10.033,1.845C10.268,1.611 10.648,1.612 10.881,1.847C11.115,2.082 11.114,2.462 10.879,2.695L4.867,8.675C4.754,8.788 4.601,8.851 4.442,8.85C4.283,8.849 4.13,8.786 4.018,8.672L0.462,5.084C0.229,4.849 0.23,4.469 0.466,4.236C0.701,4.003 1.081,4.004 1.314,4.24L4.447,7.401Z" style="fill:rgb(255,0,0);fill-opacity:0.5;"/>
        </g>
    </g>
    <g id="bin" transform="matrix(1,0,0,1,1,-0.000484)">
        <g id="bin1" serif:id="bin" transform="matrix(1,0,0,1,-13,-0.999516)">
            <path d="M19,13L21.5,13C21.633,13 21.76,13.053 21.854,13.146C21.947,13.24 22,13.367 22,13.5C22,13.776 21.776,14 21.5,14L21,14L21,20.5C21,20.776 20.776,21 20.5,21L14.5,21C14.224,21 14,20.776 14,20.5L14,14L13.5,14C13.224,14 13,13.776 13,13.5C13,13.367 13.053,13.24 13.146,13.146C13.24,13.053 13.367,13 13.5,13C14.353,13 16,13 16,13L16,12.5C16,12.367 16.053,12.24 16.146,12.146C16.24,12.053 16.367,12 16.5,12C17.055,12 17.945,12 18.5,12C18.633,12 18.76,12.053 18.854,12.146C18.947,12.24 19,12.367 19,12.5C19,12.75 19,13 19,13ZM15,14L15,20L20,20L20,14L15,14ZM19,15.5C19,15.367 18.947,15.24 18.854,15.146C18.76,15.053 18.633,15 18.5,15C18.367,15 18.24,15.053 18.146,15.146C18.053,15.24 18,15.367 18,15.5C18,16.269 18,17.731 18,18.5C18,18.633 18.053,18.76 18.146,18.854C18.24,18.947 18.367,19 18.5,19C18.633,19 18.76,18.947 18.854,18.854C18.947,18.76 19,18.633 19,18.5C19,17.731 19,16.269 19,15.5ZM17,15.5C17,15.367 16.947,15.24 16.854,15.146C16.76,15.053 16.633,15 16.5,15C16.367,15 16.24,15.053 16.146,15.146C16.053,15.24 16,15.367 16,15.5C16,16.269 16,17.731 16,18.5C16,18.633 16.053,18.76 16.146,18.854C16.24,18.947 16.367,19 16.5,19C16.633,19 16.76,18.947 16.854,18.854C16.947,18.76 17,18.633 17,18.5C17,17.731 17,16.269 17,15.5Z"/>
        </g>
        <g transform="matrix(1,0,0,1,-13,-0.999516)">
            <path d="M15.086,12L13.5,12C13.102,12 12.721,12.158 12.439,12.439C12.158,12.721 12,13.102 12,13.5L13,14.5C13,14.5 12,13.5 12,13.5C12,14.153 12.417,14.709 13,14.914L13,20.5C13,21.328 13.672,22 14.5,22L20.5,22C21.328,22 22,21.328 22,20.5L22,14.914C22.567,14.714 22.978,14.182 22.999,13.551L23,13.5C23,13.102 22.842,12.721 22.561,12.439C22.279,12.158 21.898,12 21.5,12L19.914,12C19.84,11.791 19.72,11.599 19.561,11.439C19.279,11.158 18.898,11 18.5,11C17.945,11 17.055,11 16.5,11C16.102,11 15.721,11.158 15.439,11.439C15.28,11.599 15.16,11.791 15.086,12ZM19,13L21.5,13C21.633,13 21.76,13.053 21.854,13.146C21.947,13.24 22,13.367 22,13.5C22,13.776 21.776,14 21.5,14L21,14L21,20.5C21,20.776 20.776,21 20.5,21L14.5,21C14.224,21 14,20.776 14,20.5L14,14L13.5,14C13.224,14 13,13.776 13,13.5C13,13.367 13.053,13.24 13.146,13.146C13.24,13.053 13.367,13 13.5,13C14.353,13 16,13 16,13L16,12.5C16,12.367 16.053,12.24 16.146,12.146C16.24,12.053 16.367,12 16.5,12C17.055,12 17.945,12 18.5,12C18.633,12 18.76,12.053 18.854,12.146C18.947,12.24 19,12.367 19,12.5C19,12.75 19,13 19,13ZM15,14L15,20L20,20L20,14L15,14ZM16.5,15C16.5,15 16,15 16,15L16,15.5C16,16.269 16,17.731 16,18.5C16,18.633 16.053,18.76 16.146,18.854C16.24,18.947 16.367,19 16.5,19C16.633,19 16.76,18.947 16.854,18.854C16.947,18.76 17,18.633 17,18.5C17,17.731 17,16.269 17,15.5C17,15.367 16.947,15.24 16.854,15.146C16.76,15.053 16.633,15 16.5,15ZM18.5,15C18.5,15 17.914,15 17.914,15C17.97,15.159 18,15.328 18,15.5L18,15.866L18,15.593L18,18.5C18,18.633 18.053,18.76 18.146,18.854C18.24,18.947 18.367,19 18.5,19C18.633,19 18.76,18.947 18.854,18.854C18.947,18.76 19,18.633 19,18.5C19,17.731 19,16.269 19,15.5C19,15.367 18.947,15.24 18.854,15.146C18.76,15.053 18.633,15 18.5,15ZM18,15.5L18,15.5L18,15.5Z" style="fill:rgb(255,0,0);fill-opacity:0.5;"/>
        </g>
    </g>
    <g id="save_small" transform="matrix(1,0,0,1,1,0)">
        <g transform="matrix(1,0,0,1,-28,-316)">
            <path d="M106,319L104,317L98,317C97.735,317 97.48,317.105 97.293,317.293C97.105,317.48 97,317.735 97,318C97,319.732 97,323.268 97,325C97,325.265 97.105,325.52 97.293,325.707C97.48,325.895 97.735,326 98,326L105,326C105.265,326 105.52,325.895 105.707,325.707C105.895,325.52 106,325.265 106,325C106,323.066 106,319 106,319ZM99,318L99,320L103,320L103,318L103.586,318L105,319.414L105,325C105,325 98,325 98,325C98,325 98,318 98,318L99,318ZM101.5,321C102.328,321 103,321.672 103,322.5C103,323.328 102.328,324 101.5,324C100.672,324 100,323.328 100,322.5C100,321.672 100.672,321 101.5,321ZM102,318L100,318L100,319L102,319L102,318Z"/>
        </g>
        <g transform="matrix(1,0,0,1,-28,-316)">
            <path d="M107,319C107,318.735 106.895,318.48 106.707,318.293L104.707,316.293C104.52,316.105 104.265,316 104,316L98,316C97.47,316 96.961,316.211 96.586,316.586C96.211,316.961 96,317.47 96,318C96,319.732 96,323.268 96,325C96,325.53 96.211,326.039 96.586,326.414C96.961,326.789 97.47,327 98,327C99.732,327 103.268,327 105,327C105.53,327 106.039,326.789 106.414,326.414C106.789,326.039 107,325.53 107,325C107,323.066 107,319 107,319ZM106,319L104,317L98,317C97.735,317 97.48,317.105 97.293,317.293C97.105,317.48 97,317.735 97,318C97,319.732 97,323.268 97,325C97,325.265 97.105,325.52 97.293,325.707C97.48,325.895 97.735,326 98,326L105,326C105.265,326 105.52,325.895 105.707,325.707C105.895,325.52 106,325.265 106,325C106,323.066 106,319 106,319ZM99,318L99,320L103,320L103,318L103.586,318L105,319.414L105,325C105,325 98,325 98,325C98,325 98,318 98,318L99,318ZM101.5,321C102.328,321 103,321.672 103,322.5C103,323.328 102.328,324 101.5,324C100.672,324 100,323.328 100,322.5C100,321.672 100.672,321 101.5,321ZM102,318L100,318L100,319L102,319L102,318Z" style="fill:rgb(255,0,0);fill-opacity:0.5;"/>
        </g>
    </g>
    <g id="subxsheet" transform="matrix(1,0,0,1,33,-338)">
        <g transform="matrix(1,0,0,1,-33,338)">
            <path d="M65.004,16.425C64.983,16.702 65,17.052 65,16.5L65,18L63.496,18C62.67,18 62,18.669 62,19.496L62,25.5C62,26.328 62.672,27 63.5,27L77.5,26.999C78.328,26.999 79,26.327 79,25.499L79,13.517C79,13.115 78.84,12.729 78.556,12.444C78.271,12.16 77.885,12 77.483,12L70.531,12C69.685,12 69,12.685 69,13.531L69,15C69,15 66.541,15 66.541,15C65.729,15 65.064,15.628 65.004,16.425Z" style="fill:rgb(255,0,0);fill-opacity:0.5;"/>
        </g>
        <g transform="matrix(1,0,0,1,-180,120)">
            <path d="M224,240L211,240L211,241L224,241L224,240ZM224,237L214,237L214,238L224,238L224,237ZM224,234L218,234L218,235L224,235L224,234Z" style="fill-opacity:0.5;"/>
        </g>
        <g transform="matrix(1,0,0,1,-180,99.9995)">
            <path d="M225,263.5C225,263.776 224.776,264 224.5,264C221.949,264 210.5,264.001 210.5,264.001C210.224,264.001 210,263.777 210,263.501L210,257.497C210,257.223 210.222,257 210.496,257L213,257.001L213,254.501L213.002,254.501C213.023,254.221 213.256,254.001 213.541,254.001C214.634,254.001 217,254.001 217,254.001L217,251.532C217,251.239 217.238,251.001 217.531,251.001C218.989,251.001 223.041,251.001 224.483,251.001C224.62,251.001 224.752,251.055 224.849,251.152C224.946,251.249 225,251.381 225,251.518L225,263.5ZM217,255.001L214,255.001L214,263.001L215,263.001L215,263L217,263L217,255.001ZM213,263.001L211,263.001L211,258.001L213,258.001L213,263.001ZM224,259.127L224,259.127C224,255.801 224,252.001 224,252.001L218,252.001L218,263L224,263L224,259.127Z"/>
        </g>
    </g>
    <g id="restore" transform="matrix(6.12323e-17,-1,1,6.12323e-17,-247,296)">
        <path d="M220.213,324.797C220.574,324.938 220.964,325.022 221.371,325.036L221.419,325.038L221.458,325.038L221.5,325.039L221.543,325.038L221.586,325.038L221.629,325.036L221.671,325.035L221.712,325.032L221.75,325.03L221.792,325.027L221.834,325.023L221.866,325.02L221.907,325.015L221.95,325.01L221.994,325.004L222.035,324.998L222.076,324.992L222.107,324.987L222.148,324.979L222.193,324.971L222.232,324.963L222.272,324.954L222.312,324.945L222.351,324.936L222.387,324.926L222.425,324.916L222.464,324.906L222.502,324.894L222.54,324.883L222.576,324.872L222.613,324.86L222.651,324.847L222.688,324.834L222.725,324.821C222.834,324.78 222.942,324.734 223.046,324.684L223.086,324.664C224.095,324.156 224.829,323.18 225,322.02C225.006,321.98 224.994,321.94 224.968,321.909C224.942,321.879 224.903,321.861 224.863,321.861L223.296,321.861L225.332,319.418C225.67,320.036 225.861,320.746 225.861,321.5C225.861,322.299 225.646,323.048 225.27,323.693C224.781,324.532 224.018,325.194 223.105,325.556L223.104,325.557C223.078,325.567 223.052,325.577 223.026,325.586L223.023,325.588C222.998,325.597 222.972,325.606 222.946,325.615L222.942,325.617C222.917,325.626 222.891,325.635 222.866,325.643L222.846,325.65L222.822,325.657L222.778,325.671L222.762,325.676L222.739,325.683L222.696,325.695L222.655,325.706L222.613,325.718L222.571,325.729L222.53,325.739L222.486,325.749L222.448,325.758L222.406,325.767L222.391,325.77L222.362,325.776L222.318,325.785L222.275,325.793L222.257,325.796L222.234,325.8L222.189,325.807L222.148,325.813L222.125,325.817L222.104,325.82L222.059,325.826C222.032,325.829 222.004,325.833 221.977,325.836L221.927,325.841L221.91,325.842L221.886,325.845L221.839,325.848L221.796,325.852L221.775,325.853L221.753,325.854C221.669,325.859 221.585,325.861 221.5,325.861L221.5,325.861C221.407,325.861 221.316,325.859 221.225,325.853L221.219,325.852C221.021,325.84 220.827,325.814 220.638,325.776L220.607,325.77C220.25,325.695 219.908,325.577 219.589,325.421C219.589,325.421 220.017,324.993 220.164,324.846C220.192,324.815 220.212,324.798 220.213,324.797L220.213,324.797ZM217.651,323.551C217.454,323.183 217.308,322.783 217.224,322.361L217.221,322.346L217.215,322.314L217.208,322.281L217.203,322.248L217.197,322.214L217.192,322.181L217.187,322.148L217.182,322.114L217.177,322.081L217.173,322.047L217.169,322.014L217.165,321.98L217.161,321.946L217.158,321.912L217.155,321.878L217.152,321.844L217.15,321.81L217.147,321.776L217.145,321.742L217.144,321.707L217.142,321.673L217.141,321.638L217.14,321.604L217.139,321.569L217.139,321.535C217.139,321.523 217.139,321.512 217.139,321.5C217.139,320.701 217.354,319.952 217.73,319.307C218.219,318.468 218.982,317.806 219.895,317.444L219.896,317.443C219.922,317.433 219.948,317.423 219.974,317.414L219.977,317.412C220.002,317.403 220.028,317.394 220.054,317.385L220.058,317.383C220.083,317.374 220.109,317.365 220.134,317.357L220.154,317.35L220.178,317.343L220.222,317.329L220.238,317.324L220.261,317.317L220.304,317.305L220.345,317.294L220.387,317.282L220.429,317.271L220.47,317.261L220.514,317.251L220.552,317.242L220.594,317.233L220.609,317.23L220.638,317.224L220.682,317.215L220.725,317.207L220.743,317.204L220.766,317.2L220.811,317.193L220.852,317.187L220.875,317.183L220.896,317.18L220.941,317.174C220.968,317.171 220.996,317.167 221.023,317.164L221.073,317.159L221.09,317.158L221.114,317.155L221.161,317.152L221.204,317.148L221.225,317.147L221.247,317.146C221.331,317.141 221.415,317.139 221.5,317.139L221.5,317.139C221.593,317.139 221.684,317.141 221.775,317.147L221.781,317.148C221.979,317.16 222.173,317.186 222.362,317.224L222.39,317.23C222.748,317.304 223.091,317.423 223.411,317.579C223.411,317.579 222.793,318.197 222.787,318.203C222.787,318.203 222.787,318.203 222.787,318.203C222.513,318.096 222.223,318.022 221.92,317.986L221.874,317.981L221.832,317.977L221.79,317.973L221.748,317.97L221.706,317.967L221.665,317.965L221.624,317.964L221.582,317.962L221.541,317.962L221.5,317.961L221.457,317.962L221.414,317.962L221.371,317.964L221.329,317.965L221.288,317.968L221.25,317.97L221.208,317.973L221.166,317.977L221.134,317.98L221.093,317.985L221.05,317.99L221.006,317.996L220.965,318.002L220.924,318.008L220.893,318.013L220.852,318.021L220.807,318.029L220.768,318.037L220.728,318.046L220.688,318.055L220.649,318.064L220.613,318.074L220.575,318.084L220.536,318.094L220.498,318.106L220.46,318.117L220.424,318.128L220.387,318.14L220.349,318.153L220.312,318.166L220.275,318.179C220.166,318.22 220.058,318.266 219.954,318.316L219.914,318.336C218.905,318.844 218.171,319.82 218,320.98C217.994,321.02 218.006,321.06 218.032,321.091C218.058,321.121 218.097,321.139 218.137,321.139L219.704,321.139L217.668,323.582L217.651,323.551Z"/>
    </g>
    <g transform="matrix(1,0,0,1,-8.5,1.1191e-13)">
        <g id="import">
            <path d="M36.5,8L36.5,6.5C36.5,6.224 36.724,6 37,6C37.276,6 37.5,6.224 37.5,6.5L37.5,8.5C37.5,8.776 37.276,9 37,9L31,9C30.724,9 30.5,8.776 30.5,8.5L30.5,6.5C30.5,6.224 30.724,6 31,6C31.276,6 31.5,6.224 31.5,6.5L31.5,8L36.5,8ZM33.5,4C33.501,3.305 33.501,2.276 33.501,1L34.501,1C34.501,2.276 34.501,3.305 34.502,4L37.182,4L34,7.182L30.818,4L33.5,4Z"/>
        </g>
    </g>
    <g id="export" transform="matrix(1,0,0,1,-16.5,-2.81802)">
        <g transform="matrix(1,0,0,-1,-52,328)">
            <path d="M102,321C102.001,320.305 102.001,319.276 102.001,318L103.001,318C103.001,319.276 103.001,320.305 103.002,321L105.682,321L102.5,324.182L99.318,321L102,321Z"/>
        </g>
        <g transform="matrix(1,0,0,1,-52,-334)">
            <path d="M105.5,342C105.633,342 105.76,342.053 105.854,342.146C105.947,342.24 106,342.367 106,342.5L106,345.5C106,345.776 105.776,346 105.5,346L99.5,346C99.224,346 99,345.776 99,345.5L99,342.5C99,342.367 99.053,342.24 99.146,342.146C99.24,342.053 99.367,342 99.5,342C100.092,342 101,342 101,342L101,343L100,343L100,345L105,345L105,343L104,343L104,342L105.5,342Z"/>
        </g>
    </g>
    <g transform="matrix(1,0,0,1,-33.551,-344)">
        <path d="M86,357L77,357L77,366L86,366L86,357ZM85,365L82.5,360L80,365L78,365C78,365 78,358 78,358L85,358L85,365ZM80,359C80.552,359 81,359.448 81,360C81,360.552 80.552,361 80,361C79.448,361 79,360.552 79,360C79,359.448 79.448,359 80,359Z"/>
    </g>
    <g id="edit" transform="matrix(1,0,0,1,-53,-66.5005)">
        <path d="M83,79L82,79L82,81L84,81L84,80L86,81.5L84,83L84,82L82,82L82,84L83,84L81.5,86L80,84L81,84L81,82L79,82L79,83L77,81.5L79,80L79,81L81,81L81,79L80,79L81.5,77L83,79Z"/>
    </g>
    <g id="camera" transform="matrix(1.11111,0,0,1.25,60.2597,15.25)">
        <path d="M12.287,15.296C12.289,15.43 12.271,15.556 12.177,15.651C12.083,15.746 11.955,15.8 11.821,15.8L6.484,15.8C6.351,15.8 6.224,15.747 6.13,15.654C6.037,15.56 5.984,15.433 5.984,15.3L5.984,11.5C5.984,11.367 6.037,11.24 6.13,11.146C6.224,11.053 6.351,11 6.484,11L11.8,11C11.933,11 12.06,11.053 12.154,11.146C12.247,11.24 12.285,11.367 12.285,11.5L12.284,12.6L15,11L15.9,11L15.9,15.8L15,15.8L12.284,14.2C12.284,14.2 12.286,14.603 12.287,15.296Z"/>
    </g>
    <g id="preview" transform="matrix(1,0,0,1,32.5,-401)">
        <path d="M35,442.492C35,442.492 37.061,439 40.501,439C43.939,439 46,442.492 46,442.492C46,442.492 43.948,446 40.501,446C37.052,446 35,442.492 35,442.492ZM40.5,440C41.88,440 43,441.12 43,442.5C43,443.88 41.88,445 40.5,445C39.12,445 38,443.88 38,442.5C38,441.12 39.12,440 40.5,440ZM40.5,441.252C41.189,441.252 41.748,441.811 41.748,442.5C41.748,443.189 41.189,443.748 40.5,443.748C39.811,443.748 39.252,443.189 39.252,442.5C39.252,441.811 39.811,441.252 40.5,441.252Z"/>
    </g>
    <g id="restore1" serif:id="restore" transform="matrix(1,0,0,1,-27.4999,-89.5)">
        <path d="M101.5,145.861L101.221,145.853L100.699,145.788C100.308,145.715 99.935,145.59 99.589,145.421C99.589,145.421 100.213,144.797 100.213,144.797C100.612,144.953 101.046,145.039 101.5,145.039C103.453,145.039 105.038,143.454 105.038,141.5C105.038,139.546 103.453,137.961 101.5,137.961C99.723,137.961 98.252,139.273 98,140.98C97.994,141.02 98.006,141.06 98.032,141.091C98.058,141.121 98.097,141.139 98.137,141.139L99.704,141.139C99.704,141.139 97.668,143.582 97.668,143.582C97.33,142.964 97.139,142.254 97.139,141.5L97.166,141.015C97.189,140.804 97.227,140.598 97.279,140.397C97.264,140.458 97.291,140.355 97.291,140.355C97.291,140.355 97.291,140.355 97.291,140.355C97.773,138.581 99.348,137.255 101.247,137.146C101.244,137.146 101.5,137.139 101.5,137.139C101.795,137.139 102.083,137.168 102.362,137.224C102.362,137.224 102.362,137.224 102.362,137.224C103.602,137.473 104.653,138.249 105.27,139.307C105.646,139.952 105.861,140.701 105.861,141.5C105.861,142.299 105.646,143.048 105.27,143.693C104.653,144.751 103.602,145.527 102.362,145.776C102.362,145.776 102.362,145.776 102.362,145.776C102.083,145.832 101.795,145.861 101.5,145.861ZM101.138,141.861L101.138,139.139C101.138,139.139 101.861,139.139 101.861,139.139C101.861,139.139 101.861,141 101.861,141C101.861,141.077 101.923,141.139 102,141.139L103.861,141.139C103.861,141.139 103.861,141.861 103.861,141.861L101.138,141.861Z"/>
    </g>
    <g id="focus" transform="matrix(1,0,0,1,-28.5,-178.25)">
        <path d="M101.931,238.036L101.931,238.096L101.99,238.104C103.492,238.319 104.681,239.508 104.896,241.01L104.904,241.069L105.931,241.069C105.931,241.069 105.931,241.931 105.931,241.931C105.931,241.931 104.904,241.931 104.904,241.931L104.896,241.99C104.681,243.492 103.492,244.681 101.99,244.896L101.931,244.904L101.931,245.931C101.931,245.931 101.069,245.931 101.069,245.931C101.069,245.931 101.069,244.904 101.069,244.904L101.01,244.896C99.508,244.681 98.319,243.492 98.104,241.99L98.096,241.931L97.069,241.931C97.069,241.931 97.069,241.069 97.069,241.069C97.069,241.069 98.096,241.069 98.096,241.069L98.104,241.01C98.319,239.508 99.508,238.319 101.01,238.104L101.069,238.096L101.069,237.069C101.069,237.069 101.931,237.069 101.931,237.069C101.931,237.069 101.931,238.036 101.931,238.036ZM102.014,238.982L101.931,238.965L101.931,239.931C101.931,239.931 101.069,239.931 101.069,239.931C101.069,239.931 101.069,238.965 101.069,238.965L100.986,238.982C99.98,239.187 99.187,239.98 98.982,240.986L98.965,241.069L99.931,241.069C99.931,241.069 99.931,241.931 99.931,241.931C99.931,241.931 98.965,241.931 98.965,241.931L98.982,242.014C99.187,243.02 99.98,243.813 100.986,244.018L101.069,244.035L101.069,243.069C101.069,243.069 101.931,243.069 101.931,243.069C101.931,243.069 101.931,244.035 101.931,244.035L102.014,244.018C103.02,243.813 103.813,243.02 104.018,242.014L104.035,241.931L103.069,241.931C103.069,241.931 103.069,241.069 103.069,241.069C103.069,241.069 104.035,241.069 104.035,241.069L104.018,240.986C103.813,239.98 103.02,239.187 102.014,238.982Z"/>
    </g>
    <g id="locator" transform="matrix(1,0,0,1,22.0004,-468.5)">
        <g id="locator1" serif:id="locator" transform="matrix(1,0,0,1,-60.0004,300)">
            <path d="M103.524,244.231L105.123,245.83C105.331,246.038 105.658,246.049 105.854,245.854C106.049,245.658 106.038,245.331 105.83,245.123L104.231,243.524C104.651,242.959 104.9,242.258 104.9,241.5C104.9,239.623 103.377,238.1 101.5,238.1C99.623,238.1 98.1,239.623 98.1,241.5C98.1,243.377 99.623,244.9 101.5,244.9C102.258,244.9 102.959,244.651 103.524,244.231ZM101.5,238.9C102.935,238.9 104.1,240.065 104.1,241.5C104.1,242.935 102.935,244.1 101.5,244.1C100.065,244.1 98.9,242.935 98.9,241.5C98.9,240.065 100.065,238.9 101.5,238.9Z"/>
        </g>
        <g id="locator_bg" transform="matrix(1,0,0,1,-60.0004,300)">
            <rect x="97" y="237" width="9" height="9" style="fill-opacity:0;"/>
        </g>
    </g>
    <g id="info" transform="matrix(1,0,0,1,-78,-228)">
        <path d="M121.5,297C123.984,297 126,299.016 126,301.5C126,303.984 123.984,306 121.5,306C119.016,306 117,303.984 117,301.5C117,299.016 119.016,297 121.5,297ZM122,301L121,301L121,304L122,304L122,301ZM122,299L121,299L121,300L122,300L122,299Z"/>
    </g>
    <g id="arrow" transform="matrix(-3.06166e-16,-1,1,-3.06166e-16,-7,87.25)">
        <path d="M11,12.999L10.99,12.999C10.462,12.999 9.956,12.79 9.583,12.417C9.21,12.044 9,11.538 9,11.01L9,9L10,9L10,11.045C10,11.573 10.427,12 10.955,12L13,12L13,10L15.5,12.5L13,15L13,13L11,12.999Z"/>
    </g>
    <g id="pencil">
        <path d="M9,76.086L9,78.5L11.414,78.5C11.679,78.5 11.934,78.395 12.121,78.207L17.707,72.621C18.098,72.231 18.098,71.598 17.707,71.207L16.293,69.793C15.902,69.402 15.269,69.402 14.879,69.793L9.293,75.379C9.105,75.566 9,75.821 9,76.086ZM17,71.914L15.586,70.5L10,76.086L10,77.5L11.414,77.5L17,71.914Z"/>
    </g>
    <g id="toggle">
        <g id="toggle_mask" transform="matrix(1,0,0,1,-11,8)">
            <path d="M22,18C22,15.792 20.208,14 18,14L15,14C12.792,14 11,15.792 11,18C11,20.208 12.792,22 15,22L18,22C20.208,22 22,20.208 22,18Z" style="fill:rgb(255,0,0);fill-opacity:0.5;"/>
        </g>
        <g id="toggle1" serif:id="toggle" transform="matrix(1,0,0,1,-5.5,14.9875)">
            <path d="M15.5,11C15.5,9.344 14.156,8 12.5,8L9.5,8C7.844,8 6.5,9.344 6.5,11C6.5,12.656 7.844,14 9.5,14L12.5,14C14.156,14 15.5,12.656 15.5,11ZM12.5,9C13.604,9 14.5,9.902 14.5,11.012C14.5,12.123 13.604,13.025 12.5,13.025C11.396,13.025 10.5,12.123 10.5,11.012C10.5,9.902 11.396,9 12.5,9Z"/>
        </g>
    </g>
    <g id="exclusive">
        <g id="exclusive_mask" transform="matrix(1,0,0,1,2,9)">
            <path d="M17.594,15.648L19.186,13.419C19.439,13.065 19.891,12.915 20.305,13.048C20.719,13.18 21,13.565 21,14L21,21C21,21.552 20.552,22 20,22L11,22C10.448,22 10,21.552 10,21L10,14C10,13.565 10.281,13.18 10.695,13.048C11.109,12.915 11.561,13.065 11.814,13.419L13.406,15.648L14.632,13.504C14.81,13.192 15.141,13 15.5,13C15.859,13 16.19,13.192 16.368,13.504L17.594,15.648ZM20,21L20,14L17.5,17.5L15.5,14L13.5,17.5L11,14L11,21L20,21Z" style="fill:rgb(255,0,0);fill-opacity:0.5;"/>
        </g>
        <g id="exclusive1" serif:id="exclusive" transform="matrix(1,0,0,1,2,9)">
            <path d="M20,21L20,14L17.5,17.5L15.5,14L13.5,17.5L11,14L11,21L20,21Z"/>
        </g>
    </g>
    <g id="explode">
        <g id="explode_mask" transform="matrix(1,0,0,1,16,17)">
            <path d="M14.953,12.679L14.953,12.5C14.953,11.646 15.646,10.953 16.5,10.953C17.354,10.953 18.047,11.646 18.047,12.5L18.047,12.765L18.82,11.992C19.424,11.388 20.404,11.388 21.008,11.992C21.612,12.596 21.612,13.576 21.008,14.18L20.235,14.953L20.5,14.953C21.354,14.953 22.047,15.646 22.047,16.5C22.047,17.354 21.354,18.047 20.5,18.047L20.321,18.047L21.094,18.82C21.698,19.424 21.698,20.404 21.094,21.008C20.49,21.612 19.51,21.612 18.906,21.008L18.047,20.149L18.047,20.5C18.047,21.354 17.354,22.047 16.5,22.047C15.646,22.047 14.953,21.354 14.953,20.5L14.953,20.235L14.18,21.008C13.576,21.612 12.596,21.612 11.992,21.008C11.388,20.404 11.388,19.424 11.992,18.82L12.765,18.047L12.586,18.047C11.732,18.047 11.039,17.354 11.039,16.5C11.039,15.646 11.732,14.953 12.586,14.953L12.851,14.953L11.992,14.094C11.388,13.49 11.388,12.51 11.992,11.906C12.596,11.302 13.576,11.302 14.18,11.906L14.953,12.679ZM17,18.5C17,18.224 16.776,18 16.5,18C16.224,18 16,18.224 16,18.5L16,20.5C16,20.776 16.224,21 16.5,21C16.776,21 17,20.776 17,20.5L17,18.5ZM14.854,18.853C15.049,18.658 15.049,18.341 14.854,18.146C14.659,17.951 14.342,17.951 14.147,18.146L12.732,19.561C12.537,19.756 12.537,20.073 12.732,20.268C12.927,20.463 13.244,20.463 13.439,20.268L14.854,18.853ZM18.939,18.146C18.744,17.951 18.427,17.951 18.232,18.146C18.037,18.341 18.037,18.658 18.232,18.853L19.647,20.268C19.842,20.463 20.159,20.463 20.354,20.268C20.549,20.073 20.549,19.756 20.354,19.561L18.939,18.146ZM17.056,15.944C16.884,16.011 16.696,16.047 16.5,16.047C16.341,16.047 16.187,16.023 16.043,15.978C16.101,16.141 16.133,16.317 16.133,16.5C16.133,16.683 16.101,16.859 16.043,17.022C16.187,16.977 16.341,16.953 16.5,16.953C16.696,16.953 16.884,16.989 17.056,17.056C16.989,16.884 16.953,16.696 16.953,16.5C16.953,16.304 16.989,16.116 17.056,15.944ZM14.586,17C14.862,17 15.086,16.776 15.086,16.5C15.086,16.224 14.862,16 14.586,16L12.586,16C12.31,16 12.086,16.224 12.086,16.5C12.086,16.776 12.31,17 12.586,17L14.586,17ZM20.5,17C20.776,17 21,16.776 21,16.5C21,16.224 20.776,16 20.5,16L18.5,16C18.224,16 18,16.224 18,16.5C18,16.776 18.224,17 18.5,17L20.5,17ZM20.268,13.439C20.463,13.244 20.463,12.927 20.268,12.732C20.073,12.537 19.756,12.537 19.561,12.732L18.146,14.147C17.951,14.342 17.951,14.659 18.146,14.854C18.341,15.049 18.658,15.049 18.853,14.854L20.268,13.439ZM17,12.5C17,12.224 16.776,12 16.5,12C16.224,12 16,12.224 16,12.5L16,14.5C16,14.776 16.224,15 16.5,15C16.776,15 17,14.776 17,14.5L17,12.5ZM14.147,14.768C14.342,14.963 14.659,14.963 14.854,14.768C15.049,14.573 15.049,14.256 14.854,14.061L13.439,12.646C13.244,12.451 12.927,12.451 12.732,12.646C12.537,12.841 12.537,13.158 12.732,13.353L14.147,14.768Z" style="fill:rgb(255,0,0);fill-opacity:0.5;"/>
        </g>
        <g id="explode1" serif:id="explode" transform="matrix(1,0,0,1,16,17)">
            <path d="M17,18.5C17,18.224 16.776,18 16.5,18C16.224,18 16,18.224 16,18.5L16,20.5C16,20.776 16.224,21 16.5,21C16.776,21 17,20.776 17,20.5L17,18.5ZM14.854,18.853C15.049,18.658 15.049,18.341 14.854,18.146C14.659,17.951 14.342,17.951 14.147,18.146L12.732,19.561C12.537,19.756 12.537,20.073 12.732,20.268C12.927,20.463 13.244,20.463 13.439,20.268L14.854,18.853ZM18.939,18.146C18.744,17.951 18.427,17.951 18.232,18.146C18.037,18.341 18.037,18.658 18.232,18.853L19.647,20.268C19.842,20.463 20.159,20.463 20.354,20.268C20.549,20.073 20.549,19.756 20.354,19.561L18.939,18.146ZM14.586,17C14.862,17 15.086,16.776 15.086,16.5C15.086,16.224 14.862,16 14.586,16L12.586,16C12.31,16 12.086,16.224 12.086,16.5C12.086,16.776 12.31,17 12.586,17L14.586,17ZM20.5,17C20.776,17 21,16.776 21,16.5C21,16.224 20.776,16 20.5,16L18.5,16C18.224,16 18,16.224 18,16.5C18,16.776 18.224,17 18.5,17L20.5,17ZM20.268,13.439C20.463,13.244 20.463,12.927 20.268,12.732C20.073,12.537 19.756,12.537 19.561,12.732L18.146,14.147C17.951,14.342 17.951,14.659 18.146,14.854C18.341,15.049 18.658,15.049 18.853,14.854L20.268,13.439ZM17,12.5C17,12.224 16.776,12 16.5,12C16.224,12 16,12.224 16,12.5L16,14.5C16,14.776 16.224,15 16.5,15C16.776,15 17,14.776 17,14.5L17,12.5ZM14.147,14.768C14.342,14.963 14.659,14.963 14.854,14.768C15.049,14.573 15.049,14.256 14.854,14.061L13.439,12.646C13.244,12.451 12.927,12.451 12.732,12.646C12.537,12.841 12.537,13.158 12.732,13.353L14.147,14.768Z"/>
        </g>
    </g>
    <g id="movement" transform="matrix(1,0,0,1,-4.00916,27)">
        <g id="movement_mask" transform="matrix(1,0,0,1,3.00916,-27)">
            <path d="M5.174,36.034C5.056,35.712 4.991,35.363 4.991,35C4.991,33.344 6.335,32 7.991,32C9.647,32 10.991,33.344 10.991,35C10.991,35.412 10.908,35.804 10.758,36.161C11.282,36.313 11.736,36.626 12.067,37.187C12.484,37.9 12.246,38.819 11.533,39.238C11.196,39.436 10.814,39.487 10.46,39.412C10.565,39.557 10.661,39.724 10.747,39.915C10.877,40.204 11.019,40.813 10.993,41.608C10.966,42.435 10.273,43.085 9.445,43.058C8.728,43.035 8.146,42.513 8.02,41.832L7.983,41.849C7.612,42.004 6.688,42.284 6.48,42.381L6.421,42.407C6.22,42.601 5.983,42.807 5.696,43.036C4.834,43.723 3.885,43.945 3.283,43.934C2.652,43.922 2.207,43.674 1.953,43.438C1.563,43.076 1.148,42.662 1.014,41.708C0.9,40.888 1.471,40.13 2.289,40.016C2.902,39.929 3.482,40.226 3.783,40.723L3.826,40.69C4.524,40.133 4.73,39.823 5.003,39.198L5.06,39.07L5.012,39.031C4.961,39.026 4.912,39.022 4.864,39.02C4.83,39.019 4.779,39.022 4.747,39.024C4.296,39.719 3.366,39.916 2.675,39.467C1.978,39.016 1.78,38.085 2.229,37.393C2.983,36.227 3.932,35.944 5.174,36.034ZM7.01,36.743C6.402,36.4 5.991,35.748 5.991,35C5.991,33.896 6.887,33 7.991,33C9.095,33 9.991,33.896 9.991,35C9.991,36.104 9.095,37 7.991,37C7.976,37 7.961,37 7.946,36.999C7.943,37.261 7.854,37.534 7.748,37.8C8.309,37.477 8.987,37.104 9.449,37.069C9.721,37.049 10.018,37.028 10.287,37.076C10.657,37.141 10.982,37.316 11.204,37.691C11.343,37.929 11.264,38.236 11.026,38.376C10.788,38.516 10.482,38.436 10.342,38.199C10.27,38.077 10.145,38.059 10.022,38.05C9.858,38.037 9.685,38.054 9.525,38.066C9.159,38.094 8.638,38.441 8.2,38.695C7.936,38.847 7.698,38.978 7.523,39.044C7.409,39.087 7.309,39.108 7.226,39.114C7.1,39.411 6.965,39.703 6.835,40.001C6.809,40.06 6.784,40.117 6.759,40.172C6.935,40.111 7.095,40.052 7.207,40.005C7.475,39.892 8.063,39.569 8.591,39.548C9.091,39.528 9.559,39.708 9.835,40.326C9.931,40.539 10.013,40.99 9.994,41.575C9.985,41.851 9.754,42.068 9.478,42.059C9.202,42.05 8.986,41.819 8.994,41.543C9.007,41.166 8.984,40.872 8.922,40.735C8.831,40.529 8.649,40.532 8.48,40.568C8.124,40.643 7.774,40.851 7.596,40.927C7.217,41.086 6.272,41.375 6.059,41.474C6.005,41.499 5.949,41.513 5.894,41.519C5.68,41.744 5.417,41.98 5.073,42.254C4.438,42.76 3.745,42.942 3.302,42.934C2.988,42.928 2.76,42.823 2.634,42.706C2.377,42.467 2.093,42.199 2.005,41.57C1.967,41.297 2.157,41.044 2.431,41.006C2.704,40.967 2.957,41.158 2.995,41.431C3.033,41.697 3.153,41.824 3.266,41.928C3.302,41.931 3.373,41.935 3.427,41.929C3.712,41.9 4.092,41.757 4.45,41.472C5.325,40.774 5.578,40.381 5.919,39.6C6.032,39.343 6.148,39.09 6.259,38.835C6.155,38.725 6.016,38.58 5.857,38.434C5.669,38.263 5.448,38.071 5.215,38.046C4.672,37.987 4.229,37.985 3.909,38.479C3.759,38.711 3.449,38.777 3.218,38.627C2.986,38.477 2.919,38.167 3.069,37.936C3.631,37.067 4.367,36.949 5.322,37.051C5.639,37.085 5.963,37.245 6.25,37.461C6.4,37.574 6.54,37.701 6.662,37.821C6.714,37.703 6.769,37.583 6.819,37.462C6.884,37.303 6.946,37.145 6.946,36.989C6.946,36.9 6.969,36.816 7.01,36.743ZM3.342,40.932C3.339,40.932 3.335,40.933 3.332,40.933C3.329,40.934 3.326,40.934 3.326,40.934L3.342,40.932ZM7.991,34C8.543,34 8.991,34.448 8.991,35C8.991,35.552 8.543,36 7.991,36C7.439,36 6.991,35.552 6.991,35C6.991,34.448 7.439,34 7.991,34Z" style="fill:rgb(255,0,0);fill-opacity:0.5;"/>
        </g>
        <g id="movement1" serif:id="movement" transform="matrix(1,0,0,1,3.00916,-27)">
            <path d="M7.01,36.743C6.402,36.4 5.991,35.748 5.991,35C5.991,33.896 6.887,33 7.991,33C9.095,33 9.991,33.896 9.991,35C9.991,36.104 9.095,37 7.991,37C7.976,37 7.961,37 7.946,36.999C7.943,37.261 7.854,37.534 7.748,37.8C8.309,37.477 8.987,37.104 9.449,37.069C9.721,37.049 10.018,37.028 10.287,37.076C10.657,37.141 10.982,37.316 11.204,37.691C11.343,37.929 11.264,38.236 11.026,38.376C10.788,38.516 10.482,38.436 10.342,38.199C10.27,38.077 10.145,38.059 10.022,38.05C9.858,38.037 9.685,38.054 9.525,38.066C9.159,38.094 8.638,38.441 8.2,38.695C7.936,38.847 7.698,38.978 7.523,39.044C7.409,39.087 7.309,39.108 7.226,39.114C7.1,39.411 6.965,39.703 6.835,40.001C6.809,40.06 6.784,40.117 6.759,40.172C6.935,40.111 7.095,40.052 7.207,40.005C7.475,39.892 8.063,39.569 8.591,39.548C9.091,39.528 9.559,39.708 9.835,40.326C9.931,40.539 10.013,40.99 9.994,41.575C9.985,41.851 9.754,42.068 9.478,42.059C9.202,42.05 8.986,41.819 8.994,41.543C9.007,41.166 8.984,40.872 8.922,40.735C8.831,40.529 8.649,40.532 8.48,40.568C8.124,40.643 7.774,40.851 7.596,40.927C7.217,41.086 6.272,41.375 6.059,41.474C6.005,41.499 5.949,41.513 5.894,41.519C5.68,41.744 5.417,41.98 5.073,42.254C4.438,42.76 3.745,42.942 3.302,42.934C2.988,42.928 2.76,42.823 2.634,42.706C2.377,42.467 2.093,42.199 2.005,41.57C1.967,41.297 2.157,41.044 2.431,41.006C2.704,40.967 2.957,41.158 2.995,41.431C3.033,41.697 3.153,41.824 3.266,41.928C3.302,41.931 3.373,41.935 3.427,41.929C3.712,41.9 4.092,41.757 4.45,41.472C5.325,40.774 5.578,40.381 5.919,39.6C6.032,39.343 6.148,39.09 6.259,38.835C6.155,38.725 6.016,38.58 5.857,38.434C5.669,38.263 5.448,38.071 5.215,38.046C4.672,37.987 4.229,37.985 3.909,38.479C3.759,38.711 3.449,38.777 3.218,38.627C2.986,38.477 2.919,38.167 3.069,37.936C3.631,37.067 4.367,36.949 5.322,37.051C5.639,37.085 5.963,37.245 6.25,37.461C6.4,37.574 6.54,37.701 6.662,37.821C6.714,37.703 6.769,37.583 6.819,37.462C6.884,37.303 6.946,37.145 6.946,36.989C6.946,36.9 6.969,36.816 7.01,36.743ZM7.991,34C8.543,34 8.991,34.448 8.991,35C8.991,35.552 8.543,36 7.991,36C7.439,36 6.991,35.552 6.991,35C6.991,34.448 7.439,34 7.991,34Z"/>
        </g>
    </g>
    <g id="load" transform="matrix(1,0,0,1,-5,-1)">
        <g id="load_mask" transform="matrix(1,0,0,1,34,-8)">
            <path d="M14,13.878L14,10.5C14,9.672 14.672,9 15.5,9C16.328,9 17,9.672 17,10.5L17,13.878L17.441,13.437C18.027,12.854 18.973,12.854 19.563,13.441C19.998,13.878 20.109,14.514 19.895,15.053C20.532,15.226 21,15.809 21,16.5L21,19.5C21,20.328 20.328,21 19.5,21L11.5,21C10.672,21 10,20.328 10,19.5L10,16.5C10,15.809 10.468,15.226 11.105,15.053C10.892,14.514 11.003,13.877 11.441,13.437C12.027,12.854 12.973,12.854 13.559,13.437L14,13.878ZM19,19L19,16.5C19,16.224 19.224,16 19.5,16C19.776,16 20,16.224 20,16.5L20,19.5C20,19.776 19.776,20 19.5,20L11.5,20C11.224,20 11,19.776 11,19.5L11,16.5C11,16.224 11.224,16 11.5,16C11.776,16 12,16.224 12,16.5L12,19L19,19ZM13,18L13.878,18L13,17.122L13,18ZM17.118,18L18,18L18,17.12L17.118,18ZM15,16.293L15,10.5C15,10.224 15.224,10 15.5,10C15.776,10 16,10.224 16,10.5L16,16.293L18.146,14.146C18.342,13.951 18.658,13.951 18.854,14.146C19.049,14.342 19.049,14.658 18.854,14.854L15.815,17.888L15.796,17.903C15.763,17.927 15.728,17.947 15.692,17.962L15.691,17.962C15.632,17.987 15.567,18 15.5,18C15.433,18 15.368,17.987 15.309,17.962L15.308,17.962C15.249,17.937 15.194,17.901 15.146,17.854L12.146,14.854C11.951,14.658 11.951,14.342 12.146,14.146C12.342,13.951 12.658,13.951 12.854,14.146L15,16.293Z" style="fill:rgb(255,0,0);fill-opacity:0.5;"/>
        </g>
        <g id="load1" serif:id="load" transform="matrix(1,0,0,1,34,-8)">
            <path d="M19,19L19,16.5C19,16.224 19.224,16 19.5,16C19.776,16 20,16.224 20,16.5L20,19.5C20,19.776 19.776,20 19.5,20L11.5,20C11.224,20 11,19.776 11,19.5L11,16.5C11,16.224 11.224,16 11.5,16C11.776,16 12,16.224 12,16.5L12,19L19,19ZM15,16.293L15,10.5C15,10.224 15.224,10 15.5,10C15.776,10 16,10.224 16,10.5L16,16.293L18.146,14.146C18.342,13.951 18.658,13.951 18.854,14.146C19.049,14.342 19.049,14.658 18.854,14.854L15.815,17.888L15.796,17.903C15.763,17.927 15.728,17.947 15.692,17.962L15.691,17.962C15.632,17.987 15.567,18 15.5,18C15.433,18 15.368,17.987 15.309,17.962L15.308,17.962C15.249,17.937 15.194,17.901 15.146,17.854L12.146,14.854C11.951,14.658 11.951,14.342 12.146,14.146C12.342,13.951 12.658,13.951 12.854,14.146L15,16.293Z"/>
        </g>
    </g>
    <g id="export1" serif:id="export">
        <g id="export_mask" transform="matrix(1,0,0,1,41,-9)">
            <path d="M14.971,9.096C15.137,9.034 15.316,9 15.5,9C15.684,9 15.862,9.033 16.027,9.096C16.043,9.102 16.06,9.108 16.077,9.115C16.183,9.159 16.287,9.217 16.384,9.288L16.522,9.404C16.522,9.404 19.561,12.438 19.563,12.441C20.146,13.027 20.146,13.973 19.559,14.563C18.973,15.146 18.027,15.146 17.441,14.563L17,14.122L17,17.5C17,17.675 16.97,17.844 16.914,18L18,18L18,16.5C18,15.672 18.672,15 19.5,15C20.328,15 21,15.672 21,16.5L21,19.5C21,20.328 20.328,21 19.5,21L11.5,21C10.672,21 10,20.328 10,19.5L10,16.5C10,15.672 10.672,15 11.5,15C12.328,15 13,15.672 13,16.5L13,18L14.086,18C14.03,17.844 14,17.675 14,17.5L14,14.122L13.559,14.563C12.973,15.146 12.027,15.146 11.437,14.559C10.854,13.973 10.854,13.027 11.437,12.441L14.446,9.431C14.586,9.295 14.746,9.19 14.918,9.117C14.936,9.11 14.953,9.103 14.971,9.096ZM19,19L19,16.5C19,16.224 19.224,16 19.5,16C19.776,16 20,16.224 20,16.5L20,19.5C20,19.776 19.776,20 19.5,20L11.5,20C11.224,20 11,19.776 11,19.5L11,16.5C11,16.224 11.224,16 11.5,16C11.776,16 12,16.224 12,16.5L12,19L19,19ZM15,11.707L15,17.5C15,17.776 15.224,18 15.5,18C15.776,18 16,17.776 16,17.5L16,11.707L18.146,13.854C18.342,14.049 18.658,14.049 18.854,13.854C19.049,13.658 19.049,13.342 18.854,13.146L15.815,10.112L15.796,10.097C15.763,10.073 15.728,10.053 15.692,10.038L15.691,10.038C15.632,10.013 15.567,10 15.5,10C15.433,10 15.368,10.013 15.309,10.038L15.308,10.038C15.249,10.063 15.194,10.099 15.146,10.146L12.146,13.146C11.951,13.342 11.951,13.658 12.146,13.854C12.342,14.049 12.658,14.049 12.854,13.854L15,11.707Z" style="fill:rgb(255,0,0);fill-opacity:0.51;"/>
        </g>
        <g id="export2" serif:id="export" transform="matrix(1,0,0,1,41,-9)">
            <path d="M19,19L19,16.5C19,16.224 19.224,16 19.5,16C19.776,16 20,16.224 20,16.5L20,19.5C20,19.776 19.776,20 19.5,20L11.5,20C11.224,20 11,19.776 11,19.5L11,16.5C11,16.224 11.224,16 11.5,16C11.776,16 12,16.224 12,16.5L12,19L19,19ZM15,11.707L15,17.5C15,17.776 15.224,18 15.5,18C15.776,18 16,17.776 16,17.5L16,11.707L18.146,13.854C18.342,14.049 18.658,14.049 18.854,13.854C19.049,13.658 19.049,13.342 18.854,13.146L15.815,10.112L15.796,10.097C15.763,10.073 15.728,10.053 15.692,10.038L15.691,10.038C15.632,10.013 15.567,10 15.5,10C15.433,10 15.368,10.013 15.309,10.038L15.308,10.038C15.249,10.063 15.194,10.099 15.146,10.146L12.146,13.146C11.951,13.342 11.951,13.658 12.146,13.854C12.342,14.049 12.658,14.049 12.854,13.854L15,11.707Z"/>
        </g>
    </g>
    <g id="restore2" serif:id="restore" transform="matrix(1,0,0,1,20.0998,5.1)">
        <g id="restore_mask" transform="matrix(1,0,0,1,-30,-4)">
            <path d="M43.268,24.615C43.218,24.271 43.345,23.704 43.345,23.704C43.136,23.955 42.826,24.1 42.5,24.1C42.174,24.1 41.864,23.955 41.655,23.704L39.155,20.704C38.882,20.376 38.823,19.92 39.004,19.533C39.185,19.147 39.573,18.9 40,18.9L41.133,18.9C41.822,16.588 43.965,14.9 46.5,14.9C49.591,14.9 52.1,17.409 52.1,20.5C52.1,23.591 49.591,26.1 46.5,26.1C45.534,26.1 44.625,25.855 43.832,25.424C43.527,25.258 43.318,24.958 43.268,24.615Z" style="fill:rgb(255,0,0);fill-opacity:0.5;"/>
        </g>
        <g id="restore3" serif:id="restore" transform="matrix(1,0,0,1,-30,-4)">
            <path d="M42.028,20C42.276,17.751 44.185,16 46.5,16C48.984,16 51,18.016 51,20.5C51,22.984 48.984,25 46.5,25C45.724,25 44.994,24.803 44.357,24.457L45.18,23.634C45.586,23.805 46.032,23.9 46.5,23.9C48.377,23.9 49.9,22.377 49.9,20.5C49.9,18.623 48.377,17.1 46.5,17.1C44.793,17.1 43.379,18.36 43.137,20L45,20L42.5,23L40,20L42.028,20ZM46,21L46,18L47,18L47,20L49,20L49,21L46,21Z"/>
        </g>
    </g>
    <g id="window" transform="matrix(1,0,0,1,-1,0)">
        <g id="window_mask" transform="matrix(1,0,0,1,0,45.001)">
            <path d="M16.5,19.001C17.165,19.001 17.802,18.736 18.27,18.266C18.737,17.798 19,17.163 19,16.5L19,3.5C19,2.12 17.88,0.999 16.5,0.999L3.5,0.999C2.835,0.999 2.198,1.264 1.73,1.734C1.264,2.199 1,2.836 1,3.5L1,16.5C1,17.163 1.263,17.798 1.733,18.268C2.198,18.736 2.835,19.001 3.5,19.001L16.5,19.001ZM16.5,18.001C16.898,18.001 17.28,17.843 17.56,17.561C17.842,17.279 18,16.898 18,16.5L18,3.5C18,2.672 17.328,1.999 16.5,1.999L3.5,1.999C3.102,1.999 2.72,2.157 2.44,2.439C2.158,2.72 2,3.102 2,3.5L2,16.5C2,16.898 2.158,17.279 2.44,17.561C2.72,17.843 3.102,18.001 3.5,18.001L16.5,18.001ZM17,5L3,5L3,15.985C3,16.25 3.105,16.504 3.293,16.692C3.48,16.88 3.735,16.986 4,16.986L16,16.986C16.265,16.986 16.52,16.88 16.707,16.692C16.895,16.504 17,16.25 17,15.985L17,5ZM16,6L4,6L4,15.985L4.001,15.986L16,15.986L16,6ZM17,3.5C17,3.224 16.776,3 16.5,3L14.5,3C14.224,3 14,3.224 14,3.5C14,3.776 14.224,4 14.5,4L16.5,4C16.776,4 17,3.776 17,3.5Z" style="fill:rgb(255,0,0);fill-opacity:0.5;"/>
        </g>
        <g id="window1" serif:id="window" transform="matrix(1,0,0,1,0,45.001)">
            <path d="M16.5,18.001C16.898,18.001 17.28,17.843 17.56,17.561C17.842,17.279 18,16.898 18,16.5L18,3.5C18,2.672 17.328,1.999 16.5,1.999L3.5,1.999C3.102,1.999 2.72,2.157 2.44,2.439C2.158,2.72 2,3.102 2,3.5L2,16.5C2,16.898 2.158,17.279 2.44,17.561C2.72,17.843 3.102,18.001 3.5,18.001L16.5,18.001ZM17,5L3,5L3,15.985C3,16.25 3.105,16.504 3.293,16.692C3.48,16.88 3.735,16.986 4,16.986L16,16.986C16.265,16.986 16.52,16.88 16.707,16.692C16.895,16.504 17,16.25 17,15.985L17,5ZM17,3.5C17,3.224 16.776,3 16.5,3L14.5,3C14.224,3 14,3.224 14,3.5C14,3.776 14.224,4 14.5,4L16.5,4C16.776,4 17,3.776 17,3.5Z"/>
        </g>
    </g>
    <g id="tlv" transform="matrix(1,0,0,1,-12.5001,-6.99964)">
        <g id="tlv_mask" transform="matrix(1,0,0,1,17,26.9999)">
            <path d="M16.568,18.447L16.077,16.974C15.815,16.189 16.24,15.339 17.026,15.077C17.554,14.901 18.112,15.036 18.5,15.383C18.888,15.036 19.446,14.901 19.974,15.077C20.76,15.339 21.185,16.189 20.923,16.974L19.923,19.974C19.847,20.203 19.72,20.401 19.561,20.561C19.401,20.72 19.203,20.847 18.974,20.923C18.82,20.975 18.662,20.999 18.508,21L18.492,21C18.338,20.999 18.18,20.975 18.026,20.923C17.797,20.847 17.598,20.72 17.44,20.562C17.28,20.402 17.153,20.203 17.077,19.974L16.986,19.703C16.887,20.435 16.259,21 15.5,21L13.5,21C12.672,21 12,20.328 12,19.5L12,17.914L12,19.5C12,20.328 11.328,21 10.5,21C9.672,21 9,20.328 9,19.5L9,17.914C8.418,17.708 8,17.153 8,16.5C8,15.672 8.672,15 9.5,15L11.5,15C11.884,15 12.235,15.145 12.5,15.382C12.765,15.145 13.116,15 13.5,15C14.328,15 15,15.672 15,16.5L15,18L15.5,18C15.918,18 16.296,18.171 16.568,18.447ZM19.56,20.562L19.562,20.56L19.56,20.562ZM18.854,19.854C18.907,19.8 18.949,19.734 18.974,19.658L19.974,16.658C20.062,16.396 19.92,16.113 19.658,16.026C19.396,15.938 19.113,16.08 19.026,16.342L18.5,17.919L17.974,16.342C17.887,16.08 17.604,15.938 17.342,16.026C17.08,16.113 16.938,16.396 17.026,16.658L18.026,19.658C18.051,19.734 18.093,19.8 18.146,19.854C18.2,19.907 18.266,19.949 18.342,19.974C18.393,19.992 18.446,20 18.497,20L18.503,20C18.554,20 18.607,19.992 18.658,19.974C18.734,19.949 18.8,19.907 18.854,19.854ZM12,16.5C12,16.224 11.776,16 11.5,16L9.5,16C9.224,16 9,16.224 9,16.5C9,16.776 9.224,17 9.5,17L10,17L10,19.5C10,19.776 10.224,20 10.5,20C10.776,20 11,19.776 11,19.5L11,17L11.5,17C11.776,17 12,16.776 12,16.5ZM13,16.5L13,19.5C13,19.776 13.224,20 13.5,20L15.5,20C15.776,20 16,19.776 16,19.5C16,19.224 15.776,19 15.5,19L14,19L14,16.5C14,16.224 13.776,16 13.5,16C13.224,16 13,16.224 13,16.5Z" style="fill:rgb(255,0,0);fill-opacity:0.5;"/>
        </g>
        <g id="tlv1" serif:id="tlv" transform="matrix(1,0,0,1,17,26.9999)">
            <path d="M18.854,19.854C18.907,19.8 18.949,19.734 18.974,19.658L19.974,16.658C20.062,16.396 19.92,16.113 19.658,16.026C19.396,15.938 19.113,16.08 19.026,16.342L18.5,17.919L17.974,16.342C17.887,16.08 17.604,15.938 17.342,16.026C17.08,16.113 16.938,16.396 17.026,16.658L18.026,19.658C18.051,19.734 18.093,19.8 18.146,19.854C18.2,19.907 18.266,19.949 18.342,19.974C18.393,19.992 18.446,20 18.497,20L18.503,20C18.554,20 18.607,19.992 18.658,19.974C18.734,19.949 18.8,19.907 18.854,19.854ZM11.5,16L9.5,16C9.224,16 9,16.224 9,16.5C9,16.776 9.224,17 9.5,17L10,17L10,19.5C10,19.776 10.224,20 10.5,20C10.776,20 11,19.776 11,19.5L11,17L11.5,17C11.776,17 12,16.776 12,16.5C12,16.224 11.776,16 11.5,16ZM14,19L14,16.5C14,16.224 13.776,16 13.5,16C13.224,16 13,16.224 13,16.5L13,19.5C13,19.776 13.224,20 13.5,20L15.5,20C15.776,20 16,19.776 16,19.5C16,19.224 15.776,19 15.5,19L14,19Z"/>
        </g>
    </g>
    <g id="save" transform="matrix(1.03704,0,0,1.03704,17.6662,37.6666)">
        <path id="save_mask" d="M12.468,5.425C12.287,5.244 12.042,5.143 11.786,5.143L5.679,5.143C4.311,5.143 3.215,6.252 3.215,7.607L3.215,14.25C3.215,15.605 4.312,16.714 5.679,16.714L12.321,16.714C13.676,16.714 14.785,15.605 14.785,14.25L14.785,8.143C14.785,7.887 14.684,7.642 14.503,7.461L12.468,5.425ZM11.786,6.107L5.679,6.107C4.846,6.107 4.179,6.782 4.179,7.607L4.179,14.25C4.179,15.075 4.847,15.75 5.679,15.75L12.321,15.75C13.146,15.75 13.821,15.075 13.821,14.25L13.821,8.143L11.786,6.107ZM9,13.801C7.933,13.801 7.071,12.94 7.071,11.873C7.071,10.806 7.933,9.944 9,9.944C10.067,9.944 10.929,10.806 10.929,11.873C10.929,12.94 10.067,13.801 9,13.801ZM9,12.837C8.467,12.837 8.035,12.406 8.035,11.873C8.035,11.339 8.466,10.908 9,10.908C9.534,10.908 9.965,11.339 9.965,11.873C9.965,12.406 9.533,12.837 9,12.837ZM10.929,8.994L6.108,9L6.108,7.072L10.929,7.072L10.929,8.994Z" style="fill:rgb(255,0,0);fill-opacity:0.5;"/>
        <path id="save1" serif:id="save" d="M11.786,6.107L5.679,6.107C4.846,6.107 4.179,6.782 4.179,7.607L4.179,14.25C4.179,15.075 4.847,15.75 5.679,15.75L12.321,15.75C13.146,15.75 13.821,15.075 13.821,14.25L13.821,8.143L11.786,6.107ZM9,13.801C7.933,13.801 7.071,12.94 7.071,11.873C7.071,10.806 7.933,9.944 9,9.944C10.067,9.944 10.929,10.806 10.929,11.873C10.929,12.94 10.067,13.801 9,13.801ZM10.929,8.994L6.108,9L6.108,7.072L10.929,7.072L10.929,8.994Z" style="fill-rule:nonzero;"/>
    </g>
    <g id="saveas" transform="matrix(1,0,0,1,26,33.9788)">
        <g id="saveas_mask" transform="matrix(1,0,0,1,-26,-33.9788)">
            <path d="M38.568,54.825C38.403,54.938 38.206,55 38.003,55L36.556,55C35.138,55 34,53.85 34,52.444L34,45.555C34,44.15 35.137,43 36.556,43L42.889,43C43.154,43 43.409,43.105 43.596,43.293L45.536,45.233C45.843,45.54 45.917,46.011 45.718,46.397L45.701,46.429L46.584,47.313C47.145,47.874 47.145,48.757 46.584,49.317L46.128,49.771C46.034,49.865 45.926,49.936 45.811,49.984C45.782,50.053 45.744,50.12 45.699,50.182C45.888,50.366 46,50.622 46,50.897L46,52.444C46,53.85 44.85,55 43.445,55L41.898,55C41.625,55 41.371,54.889 41.187,54.702C41.01,54.844 40.789,54.923 40.56,54.923L39,54.923C38.845,54.923 38.698,54.888 38.568,54.825ZM44.829,45.94C44.757,45.928 44.683,45.922 44.608,45.922C44.231,45.922 43.87,46.073 43.604,46.34L43.151,46.796C43.058,46.89 42.987,46.997 42.939,47.112C42.823,47.162 42.716,47.233 42.624,47.325L41.4,48.549C41.04,48.196 40.546,47.979 40,47.979C38.894,47.979 38,48.872 38,49.979C38,50.525 38.217,51.019 38.571,51.379L38.293,51.657C38.105,51.845 38,52.099 38,52.364L38,53.923C38,53.949 38.001,53.974 38.003,54L36.556,54C35.693,54 35,53.3 35,52.444L35,45.555C35,44.7 35.692,44 36.556,44L42.889,44L44.829,45.94ZM45,50.897L45,52.444C45,53.3 44.3,54 43.445,54L41.898,54L45,50.897ZM43.331,48.032L39,52.364L39,53.923L40.56,53.923L44.891,49.593L43.331,48.032ZM40.004,52.919L40,52.923L40.004,52.919L40.004,52.92L40.503,52.92L40.503,53.42L39.504,53.42L39.504,52.42L40.004,52.42L40.004,52.919ZM40.693,49.256C40.514,49.084 40.269,48.979 40,48.979C39.447,48.979 39,49.425 39,49.979C39,50.248 39.105,50.492 39.278,50.671L40.693,49.256ZM44.608,46.922C44.497,46.922 44.391,46.967 44.313,47.045L43.861,47.501L45.423,49.063L45.877,48.61C46.042,48.445 46.042,48.185 45.877,48.02L44.903,47.046C44.825,46.967 44.719,46.922 44.608,46.922ZM42.001,46.993L37.001,46.999L37.001,45L42.001,45L42.001,46.993Z" style="fill:rgb(255,0,0);fill-opacity:0.5;"/>
        </g>
        <g id="saveas1" serif:id="saveas" transform="matrix(1,0,0,1,-26,-33.9788)">
            <path d="M44.829,45.94C44.757,45.928 44.683,45.922 44.608,45.922C44.231,45.922 43.87,46.073 43.604,46.34L43.151,46.796C43.058,46.89 42.987,46.997 42.939,47.112C42.823,47.162 42.716,47.233 42.624,47.325L41.4,48.549C41.04,48.196 40.546,47.979 40,47.979C38.894,47.979 38,48.872 38,49.979C38,50.525 38.217,51.019 38.571,51.379L38.293,51.657C38.105,51.845 38,52.099 38,52.364L38,53.923C38,53.949 38.001,53.974 38.003,54L36.556,54C35.693,54 35,53.3 35,52.444L35,45.555C35,44.7 35.692,44 36.556,44L42.889,44L44.829,45.94ZM45,50.897L45,52.444C45,53.3 44.3,54 43.445,54L41.898,54L45,50.897ZM43.331,48.032L39,52.364L39,53.923L40.56,53.923L44.891,49.593L43.331,48.032ZM39.504,52.42L40.004,52.42L40.004,52.92L40.503,52.92L40.503,53.42L39.504,53.42L39.504,52.42ZM44.608,46.922C44.497,46.922 44.391,46.967 44.313,47.045L43.861,47.501L45.423,49.063L45.877,48.61C46.042,48.445 46.042,48.185 45.877,48.02L44.903,47.046C44.825,46.967 44.719,46.922 44.608,46.922ZM37.001,47L42.001,47L42.001,45L37.001,45L37.001,47Z" style="fill-rule:nonzero;"/>
        </g>
    </g>
    <g id="playaction">
        <g id="playaction_mask" transform="matrix(1,0,0,1,9.00024,43)">
            <path d="M17.5,13C15.016,13 13,15.016 13,17.5C13,19.984 15.016,22 17.5,22C19.984,22 22,19.984 22,17.5C22,15.016 19.984,13 17.5,13ZM17.5,14C19.432,14 21,15.568 21,17.5C21,19.432 19.432,21 17.5,21C15.568,21 14,19.432 14,17.5C14,15.568 15.568,14 17.5,14ZM20,17.5L16,15L16,20L20,17.5ZM17,18.196L18.113,17.5L17,16.804L17,18.196Z" style="fill:rgb(255,0,0);fill-opacity:0.5;"/>
        </g>
        <g id="playaction1" serif:id="playaction" transform="matrix(1,0,0,1,9.00024,43)">
            <path d="M17.5,14C19.432,14 21,15.568 21,17.5C21,19.432 19.432,21 17.5,21C15.568,21 14,19.432 14,17.5C14,15.568 15.568,14 17.5,14ZM20,17.5L16,15L16,20L20,17.5Z"/>
        </g>
    </g>
    <g id="swap" transform="matrix(1,0,0,1,26,46)">
        <g id="swap_mask" transform="matrix(1,0,0,1,-26,-46)">
            <path d="M41.5,58L41.5,57C41.5,56.596 41.744,56.231 42.117,56.076C42.491,55.921 42.921,56.007 43.207,56.293L45.707,58.793C46.098,59.183 46.098,59.817 45.707,60.207L43.868,62.046C44.518,62.21 45,62.799 45,63.5L45,63.501C45,64.328 44.329,64.999 43.502,64.999L39,65L39,66C39,66.404 38.756,66.769 38.383,66.924C38.009,67.079 37.579,66.993 37.293,66.707L34.793,64.207C34.402,63.817 34.402,63.183 34.793,62.793L36.632,60.954C35.982,60.791 35.5,60.202 35.5,59.501L35.5,59.5C35.5,58.672 36.172,58 37,58L41.5,58ZM43.502,63.999C43.777,63.999 44,63.776 44,63.501L44,63.5C44,63.224 43.776,63 43.5,63L38,63L38,61L35.5,63.5L38,66L38,64C38,64 41.754,63.999 43.502,63.999ZM39,61L39,62L41.5,62L41.5,61L39,61ZM36.998,59.999C36.723,59.999 36.5,59.776 36.5,59.501L36.5,59.5C36.5,59.224 36.724,59 37,59L42.5,59L42.5,57L45,59.5L42.5,62L42.5,60C42.5,60 38.746,59.999 36.998,59.999Z" style="fill:rgb(255,0,0);fill-opacity:0.5;"/>
        </g>
        <g id="swap1" serif:id="swap" transform="matrix(1,0,0,1,-26,-46)">
            <path d="M43.502,63.999C43.777,63.999 44,63.776 44,63.501L44,63.5C44,63.224 43.776,63 43.5,63L38,63L38,61L35.5,63.5L38,66L38,64C38,64 41.754,63.999 43.502,63.999ZM36.998,59.999C36.723,59.999 36.5,59.776 36.5,59.501L36.5,59.5C36.5,59.224 36.724,59 37,59L42.5,59L42.5,57L45,59.5L42.5,62L42.5,60C42.5,60 38.746,59.999 36.998,59.999Z"/>
        </g>
    </g>
    <g id="curved_right_arrow" transform="matrix(1,0,0,1,37.0112,15.9982)">
        <g id="curved_right_arrow_mask" transform="matrix(1,0,0,1,-37.0112,-15.9982)">
            <path d="M50.526,33.002L49.232,31.707C48.946,31.421 48.86,30.991 49.015,30.617C49.17,30.244 49.534,30 49.939,30L55,30C55.552,30 56,30.448 56,31L56,36.061C56,36.466 55.756,36.83 55.383,36.985C55.009,37.14 54.579,37.054 54.293,36.768L52.69,35.165C51.237,36.156 49.047,37.174 46.397,36.965C44.343,36.803 41.984,35.916 39.49,33.597C38.884,33.033 38.849,32.083 39.413,31.477C39.976,30.871 40.926,30.836 41.533,31.4C43.387,33.124 45.106,33.854 46.633,33.974C48.205,34.099 49.539,33.588 50.526,33.002ZM52.082,33.143L49.939,31L55,31L55,36.061L52.789,33.85C51.538,34.85 49.299,36.191 46.476,35.968C44.598,35.82 42.451,34.985 40.171,32.864C39.969,32.676 39.957,32.36 40.145,32.158C40.333,31.956 40.65,31.944 40.852,32.132C42.919,34.054 44.852,34.837 46.555,34.971C49.007,35.165 50.96,34.026 52.082,33.143Z" style="fill:rgb(255,0,0);fill-opacity:0.5;"/>
        </g>
        <g id="curved_right_arrow1" serif:id="curved_right_arrow" transform="matrix(1,0,0,1,-37.0112,-15.9982)">
            <path d="M52.082,33.143L49.939,31L55,31L55,36.061L52.789,33.85C51.538,34.85 49.299,36.191 46.476,35.968C44.598,35.82 42.451,34.985 40.171,32.864C39.969,32.676 39.957,32.36 40.145,32.158C40.333,31.956 40.65,31.944 40.852,32.132C42.919,34.054 44.852,34.837 46.555,34.971C49.007,35.165 50.96,34.026 52.082,33.143Z" style="fill-rule:nonzero;"/>
        </g>
    </g>
    <g id="playaction2" serif:id="playaction">
        <g id="playaction2_mask" transform="matrix(6.53145e-17,1.06667,-1.16667,7.14377e-17,46.3333,64.3334)">
            <path d="M7.064,13.575C6.897,13.308 6.586,13.143 6.25,13.143C5.914,13.143 5.603,13.308 5.436,13.575L1.686,19.575C1.52,19.84 1.521,20.166 1.689,20.43C1.857,20.694 2.166,20.857 2.5,20.857L10,20.857C10.334,20.857 10.643,20.694 10.811,20.43C10.979,20.166 10.98,19.84 10.814,19.575L7.064,13.575ZM6.25,14L10,20L2.5,20L6.25,14Z" style="fill:rgb(255,0,0);fill-opacity:0.5;"/>
        </g>
        <g id="playaction21" serif:id="playaction2" transform="matrix(6.53145e-17,1.06667,-1.16667,7.14377e-17,46.3333,64.3334)">
            <path d="M6.25,14L10,20L2.5,20L6.25,14Z"/>
        </g>
    </g>
    <g id="document">
        <g id="document_mask" transform="matrix(1,0,0,1,47,39)">
            <path d="M19,18L19,7.621C19,6.957 18.737,6.322 18.268,5.854C17.32,4.906 16.094,3.68 15.146,2.732C14.678,2.263 14.043,2 13.379,2L5,2C3.896,2 3,2.896 3,4L3,18C3,19.104 3.896,20 5,20L17,20C18.104,20 19,19.104 19,18Z" style="fill:rgb(255,0,0);fill-opacity:0.5;"/>
        </g>
        <g id="document1" serif:id="document" transform="matrix(1,0,0,1,47,39)">
            <path d="M18,18C18,18.552 17.552,19 17,19L5,19C4.448,19 4,18.552 4,18L4,4C4,3.448 4.448,3 5,3L13.379,3C13.777,3 14.158,3.158 14.439,3.439C15.387,4.387 16.613,5.613 17.561,6.561C17.842,6.842 18,7.223 18,7.621L18,18ZM17,18L17,8L13,8L13,4L5,4L5,18L17,18Z"/>
        </g>
    </g>
    <g id="loop">
        <g id="loop_mask" transform="matrix(1,0,0,1,41,51)">
            <path d="M13.638,17.896L13.696,17.892C13.696,17.892 13.7,17.892 13.692,17.892C13.692,17.892 13.728,17.889 13.722,17.89C13.722,17.89 13.727,17.889 13.721,17.89C13.721,17.89 13.756,17.887 13.75,17.887C13.75,17.887 13.753,17.887 13.748,17.887C13.748,17.887 13.785,17.883 13.777,17.884C13.777,17.884 13.778,17.884 13.775,17.885C13.775,17.885 13.812,17.88 13.801,17.881C13.814,17.88 13.827,17.878 13.828,17.878C13.828,17.878 13.85,17.875 13.848,17.875C13.848,17.875 13.868,17.872 13.858,17.874C13.858,17.874 13.88,17.87 13.877,17.871C13.877,17.871 13.895,17.868 13.887,17.869C13.887,17.869 13.909,17.865 13.905,17.866C13.905,17.866 13.923,17.863 13.915,17.864C13.915,17.864 13.938,17.86 13.933,17.861C13.933,17.861 13.95,17.858 13.944,17.859C13.944,17.859 13.967,17.855 13.961,17.856C13.961,17.856 13.977,17.853 13.971,17.854C13.971,17.854 13.995,17.849 13.988,17.85C13.988,17.85 14.003,17.847 13.999,17.848C13.999,17.848 14.024,17.843 14.016,17.845C14.016,17.845 14.028,17.842 14.025,17.842C14.025,17.842 14.052,17.836 14.043,17.838L14.202,17.796C14.202,17.796 14.207,17.794 14.2,17.796C14.2,17.796 14.232,17.786 14.227,17.788C14.227,17.788 14.232,17.786 14.226,17.788C14.226,17.788 14.258,17.778 14.253,17.78C14.253,17.78 14.256,17.779 14.251,17.78C14.251,17.78 14.285,17.769 14.278,17.771C14.278,17.771 14.279,17.771 14.28,17.77C14.714,17.621 15.092,17.351 15.373,17L15,17C14.612,17 14.259,16.776 14.094,16.424C13.93,16.073 13.983,15.658 14.232,15.36L14.765,14.72C14.784,14.697 14.805,14.675 14.826,14.653L16.972,12.507C17.17,12.309 17.443,12.203 17.724,12.216C18.005,12.228 18.267,12.359 18.447,12.574L20.768,15.36C21.017,15.658 21.07,16.073 20.906,16.424C20.741,16.776 20.388,17 20,17L18.792,17C18.699,17.331 18.575,17.649 18.425,17.95L18.411,17.977C18.411,17.977 18.409,17.982 18.411,17.977L18.396,18.007C18.396,18.007 18.395,18.01 18.397,18.005L18.335,18.122C17.668,19.349 16.548,20.294 15.203,20.731L15.035,20.783C15.035,20.783 15.034,20.783 15.038,20.782L15.026,20.785C15.026,20.785 15.007,20.79 15.009,20.79L14.604,20.889L14.594,20.891L14.093,20.968L14.085,20.969C14.085,20.969 14.071,20.971 14.073,20.97L13.603,20.999L13.596,20.999C13.596,20.999 13.582,20.999 13.583,20.999L13.5,21C12.577,21 11.707,20.772 10.943,20.37C10.662,20.222 10.467,19.949 10.42,19.635C10.372,19.321 10.477,19.002 10.701,18.778L11.529,17.95C11.812,17.667 12.237,17.58 12.608,17.729C12.884,17.839 13.185,17.9 13.499,17.9L13.528,17.9C13.528,17.9 13.532,17.9 13.524,17.9C13.524,17.9 13.559,17.899 13.554,17.899C13.554,17.899 13.56,17.899 13.553,17.899C13.553,17.899 13.588,17.898 13.582,17.899C13.582,17.899 13.588,17.898 13.582,17.899C13.582,17.899 13.617,17.897 13.61,17.898C13.61,17.898 13.615,17.897 13.61,17.898L13.638,17.896ZM13.568,21L13.571,21C13.566,21 13.568,21 13.568,21ZM13.603,20.999L13.605,20.999C13.6,20.999 13.603,20.999 13.603,20.999ZM13.891,20.986L13.893,20.986C13.888,20.986 13.891,20.986 13.891,20.986ZM13.988,20.979L13.991,20.978L13.988,20.979ZM14.023,20.975L14.028,20.975C14.022,20.975 14.023,20.975 14.023,20.975ZM14.092,20.968L14.094,20.968C14.09,20.969 14.092,20.968 14.092,20.968ZM14.373,20.931L14.375,20.931C14.37,20.931 14.373,20.931 14.373,20.931ZM14.503,20.908L14.505,20.908C14.502,20.909 14.503,20.908 14.503,20.908ZM14.57,20.896L14.573,20.895C14.568,20.896 14.57,20.896 14.57,20.896ZM14.605,20.889L14.604,20.889L14.605,20.889ZM15.067,20.773L15.07,20.772C15.066,20.773 15.067,20.773 15.067,20.773ZM15.164,20.743L15.165,20.743C15.163,20.744 15.164,20.743 15.164,20.743ZM13.5,20C12.745,20 12.033,19.814 11.409,19.485L12.236,18.657C12.627,18.814 13.054,18.9 13.5,18.9L14.171,18.834L14.605,18.716C15.788,18.309 16.676,17.268 16.863,16L15,16L15.533,15.36L17.679,13.215L20,16L17.972,16C17.913,16.536 17.76,17.044 17.529,17.506L17.456,17.645C16.911,18.649 15.994,19.422 14.891,19.781L14.323,19.925L13.5,20ZM13.397,10.001L13.404,10.001C13.404,10.001 13.418,10.001 13.417,10.001L13.467,10L13.5,10C14.416,10 15.281,10.225 16.041,10.621C16.323,10.769 16.518,11.042 16.566,11.356C16.615,11.671 16.51,11.99 16.285,12.215L15.456,13.044C15.174,13.326 14.752,13.413 14.382,13.267C14.109,13.159 13.812,13.1 13.501,13.1L13.472,13.1C13.472,13.1 13.468,13.1 13.476,13.1C13.476,13.1 13.441,13.101 13.446,13.101C13.446,13.101 13.44,13.101 13.447,13.101C13.447,13.101 13.412,13.102 13.418,13.101C13.418,13.101 13.412,13.102 13.418,13.101C13.418,13.101 13.383,13.103 13.39,13.102C13.39,13.102 13.385,13.103 13.39,13.102L13.362,13.104L13.304,13.108C13.304,13.108 13.3,13.108 13.308,13.108C13.308,13.108 13.272,13.111 13.278,13.11C13.278,13.11 13.273,13.111 13.279,13.11C13.279,13.11 13.244,13.113 13.25,13.113C13.25,13.113 13.247,13.113 13.252,13.113C13.252,13.113 13.215,13.117 13.223,13.116C13.223,13.116 13.222,13.116 13.225,13.115C13.225,13.115 13.188,13.12 13.199,13.119C13.186,13.12 13.173,13.122 13.172,13.122C13.172,13.122 13.15,13.125 13.152,13.125C13.152,13.125 13.132,13.128 13.142,13.126C13.142,13.126 13.12,13.13 13.123,13.129C13.123,13.129 13.105,13.132 13.113,13.131C13.113,13.131 13.091,13.135 13.095,13.134C13.095,13.134 13.077,13.137 13.085,13.136C13.085,13.136 13.062,13.14 13.067,13.139C13.067,13.139 13.05,13.142 13.056,13.141C13.056,13.141 13.033,13.145 13.039,13.144C13.039,13.144 13.023,13.147 13.029,13.146C13.029,13.146 13.005,13.151 13.012,13.15C13.012,13.15 12.997,13.153 13.001,13.152C13.001,13.152 12.976,13.157 12.984,13.155C12.984,13.155 12.972,13.158 12.975,13.158C12.975,13.158 12.948,13.164 12.957,13.162L12.798,13.204C12.798,13.204 12.793,13.206 12.8,13.204C12.8,13.204 12.768,13.214 12.773,13.212C12.773,13.212 12.768,13.214 12.774,13.212C12.774,13.212 12.742,13.222 12.747,13.22C12.747,13.22 12.744,13.221 12.749,13.22C12.749,13.22 12.715,13.231 12.722,13.229C12.722,13.229 12.721,13.229 12.72,13.23C12.286,13.379 11.908,13.649 11.627,14L12,14C12.388,14 12.741,14.224 12.906,14.576C13.07,14.927 13.017,15.342 12.768,15.64L12.339,16.155C12.32,16.178 12.3,16.2 12.278,16.222L10.019,18.481C9.82,18.68 9.547,18.786 9.266,18.773C8.986,18.76 8.723,18.63 8.543,18.414L6.232,15.64C5.983,15.342 5.93,14.927 6.094,14.576C6.259,14.224 6.612,14 7,14L8.208,14C8.301,13.669 8.425,13.351 8.575,13.05L8.589,13.023C8.589,13.023 8.591,13.018 8.589,13.023L8.604,12.993C8.604,12.993 8.605,12.99 8.603,12.995L8.665,12.878C9.332,11.651 10.452,10.706 11.797,10.269L11.965,10.217C11.965,10.217 11.966,10.217 11.962,10.218L11.974,10.215C11.974,10.215 11.993,10.21 11.991,10.21L12.396,10.111L12.406,10.109L12.907,10.032L12.915,10.031C12.915,10.031 12.929,10.029 12.927,10.03L13.397,10.001ZM18.381,18.036L18.381,18.035C18.38,18.038 18.381,18.036 18.381,18.036ZM13.638,17.896L13.637,17.896C13.64,17.896 13.638,17.896 13.638,17.896ZM9.53,17.556L11.571,15.515L12,15L10.137,15C10.324,13.732 11.212,12.691 12.395,12.284L12.829,12.166L13.5,12.1C13.941,12.1 14.362,12.184 14.749,12.337L15.578,11.508C14.956,11.184 14.249,11 13.5,11L13.472,11L12.677,11.075L12.109,11.219C11.006,11.578 10.089,12.351 9.544,13.355L9.471,13.494C9.24,13.956 9.087,14.464 9.028,15L7,15L9.312,17.774L9.508,17.578L9.891,17.578C9.774,17.578 9.652,17.578 9.53,17.556ZM13.362,13.104L13.363,13.104C13.36,13.104 13.362,13.104 13.362,13.104ZM8.666,12.875L8.665,12.878L8.666,12.875ZM11.836,10.257L11.835,10.257C11.837,10.256 11.836,10.257 11.836,10.257ZM11.933,10.227L11.93,10.228C11.934,10.227 11.933,10.227 11.933,10.227ZM11.998,10.208L11.995,10.209L11.998,10.208ZM12.396,10.111L12.395,10.111L12.396,10.111ZM12.43,10.104L12.427,10.105C12.432,10.104 12.43,10.104 12.43,10.104ZM12.463,10.098L12.46,10.099C12.465,10.098 12.463,10.098 12.463,10.098ZM12.497,10.092L12.495,10.092C12.498,10.091 12.497,10.092 12.497,10.092ZM12.627,10.069L12.625,10.069C12.63,10.069 12.627,10.069 12.627,10.069ZM12.908,10.032L12.906,10.032C12.91,10.031 12.908,10.032 12.908,10.032ZM12.942,10.028L12.939,10.028C12.944,10.028 12.942,10.028 12.942,10.028ZM12.977,10.025L12.972,10.025C12.978,10.025 12.977,10.025 12.977,10.025ZM13.077,10.016L13.073,10.016C13.079,10.016 13.077,10.016 13.077,10.016ZM13.109,10.014L13.107,10.014C13.112,10.014 13.109,10.014 13.109,10.014ZM13.397,10.001L13.395,10.001C13.4,10.001 13.397,10.001 13.397,10.001ZM13.432,10L13.429,10C13.434,10 13.432,10 13.432,10ZM13.468,10L13.465,10C13.469,10 13.468,10 13.468,10Z" style="fill:rgb(255,0,0);fill-opacity:0.5;"/>
        </g>
        <g id="loop1" serif:id="loop" transform="matrix(1,0,0,1,41,51)">
            <path d="M13.5,20C12.745,20 12.033,19.814 11.409,19.485L12.236,18.657C12.627,18.814 13.054,18.9 13.5,18.9L13.541,18.9L13.623,18.898L13.738,18.892L13.779,18.889L13.857,18.881L13.933,18.873C13.946,18.871 13.959,18.869 13.972,18.868L14.013,18.862L14.093,18.848L14.132,18.841L14.155,18.837L14.171,18.834L14.195,18.829L14.235,18.82L14.274,18.811L14.282,18.81C14.341,18.796 14.399,18.78 14.457,18.763L14.498,18.751L14.535,18.739L14.571,18.728L14.605,18.716C15.788,18.309 16.676,17.268 16.863,16L15,16L15.533,15.36L17.679,13.215L20,16L17.972,16C17.913,16.536 17.76,17.044 17.529,17.506L17.516,17.531L17.503,17.557L17.494,17.573L17.469,17.621L17.456,17.645C16.911,18.649 15.994,19.422 14.891,19.781L14.85,19.794L14.801,19.809L14.776,19.816L14.751,19.824L14.731,19.829C14.687,19.842 14.642,19.854 14.598,19.865L14.567,19.873L14.525,19.883L14.475,19.894L14.424,19.905L14.372,19.915L14.347,19.92L14.323,19.925C14.296,19.93 14.269,19.935 14.242,19.939L14.206,19.945L14.157,19.952L14.113,19.959L14.061,19.965L14.008,19.972L13.982,19.974L13.955,19.977L13.929,19.98L13.903,19.982L13.868,19.985L13.817,19.989L13.76,19.993L13.716,19.995L13.608,19.999L13.581,19.999L13.554,20L13.5,20ZM14.749,12.337C14.362,12.184 13.941,12.1 13.5,12.1L13.459,12.1L13.377,12.102L13.338,12.104L13.262,12.108L13.221,12.111L13.143,12.119L13.067,12.127C13.054,12.129 13.041,12.131 13.028,12.132L12.987,12.138L12.907,12.152L12.868,12.159L12.845,12.163L12.829,12.166L12.805,12.171L12.765,12.18L12.726,12.189L12.718,12.19C12.659,12.204 12.601,12.22 12.543,12.237L12.502,12.249L12.465,12.261L12.429,12.272L12.395,12.284C11.212,12.691 10.324,13.732 10.137,15L12,15L11.571,15.515L9.312,17.774L7,15L9.028,15C9.087,14.464 9.24,13.956 9.471,13.494L9.484,13.469L9.497,13.443L9.506,13.427L9.531,13.379L9.544,13.355C10.089,12.351 11.006,11.578 12.109,11.219L12.15,11.206L12.199,11.191L12.224,11.184L12.249,11.176L12.269,11.171C12.313,11.158 12.358,11.146 12.402,11.135L12.433,11.127L12.475,11.117L12.525,11.106L12.576,11.095L12.628,11.085L12.653,11.08L12.677,11.075C12.704,11.07 12.731,11.065 12.758,11.061L12.794,11.055L12.843,11.048L12.887,11.041L12.939,11.035L12.992,11.028L13.018,11.026L13.045,11.023L13.071,11.02L13.097,11.018L13.132,11.015L13.183,11.011L13.24,11.007L13.284,11.005L13.392,11.001L13.419,11.001L13.446,11L13.5,11C14.249,11 14.956,11.184 15.578,11.508L14.749,12.337Z"/>
        </g>
    </g>
</svg>
