<?xml version="1.0" encoding="UTF-8" standalone="no"?>
<!DOCTYPE svg PUBLIC "-//W3C//DTD SVG 1.1//EN" "http://www.w3.org/Graphics/SVG/1.1/DTD/svg11.dtd">
<svg width="80px" height="80px" version="1.1" xmlns="http://www.w3.org/2000/svg" xmlns:xlink="http://www.w3.org/1999/xlink" xml:space="preserve" xmlns:serif="http://www.serif.com/" style="fill-rule:evenodd;clip-rule:evenodd;stroke-linejoin:round;stroke-miterlimit:2;">
    <g id="add" transform="matrix(1,0,0,1,-6,-6)">
        <g id="add_mask" transform="matrix(1,0,0,1,-7,-7)">
            <circle cx="17.5" cy="17.5" r="4.5" style="fill:rgb(255,0,0);fill-opacity:0.5;"/>
        </g>
        <g id="add1" serif:id="add" transform="matrix(1,0,0,1,-7,-7)">
            <path d="M17.5,14C19.432,14 21,15.568 21,17.5C21,19.432 19.432,21 17.5,21C15.568,21 14,19.432 14,17.5C14,15.568 15.568,14 17.5,14ZM18,17L20,17L20,18L18,18L18,20L17,20L17,18L15,18L15,17L17,17L17,15L18,15L18,17Z"/>
        </g>
    </g>
    <g id="cog" transform="matrix(1,0,0,1,1,0)">
        <g id="cog_mask" transform="matrix(0.571444,0,0,0.571444,-169.005,-23.572)">
            <path d="M319.101,43.002C319.145,42.841 319.194,42.68 319.249,42.52C319.459,41.907 319.99,41.459 320.631,41.358C321.537,41.214 322.463,41.214 323.369,41.358C324.01,41.459 324.541,41.907 324.751,42.52C324.806,42.68 324.855,42.841 324.899,43.002C325.043,42.919 325.191,42.841 325.342,42.766C325.925,42.48 326.617,42.54 327.142,42.921C327.886,43.461 328.539,44.114 329.079,44.858C329.46,45.383 329.52,46.075 329.234,46.658C329.159,46.809 329.081,46.957 328.998,47.101C329.159,47.145 329.32,47.194 329.48,47.249C330.093,47.459 330.541,47.99 330.642,48.631C330.786,49.537 330.786,50.463 330.642,51.369C330.541,52.01 330.093,52.541 329.48,52.751C329.32,52.806 329.159,52.855 328.998,52.899C329.081,53.043 329.159,53.191 329.234,53.342C329.52,53.925 329.46,54.617 329.079,55.142C328.539,55.886 327.886,56.539 327.142,57.079C326.617,57.46 325.925,57.52 325.342,57.234C325.191,57.159 325.043,57.081 324.899,56.998C324.855,57.159 324.806,57.32 324.751,57.48C324.541,58.093 324.01,58.541 323.369,58.642C322.463,58.786 321.537,58.786 320.631,58.642C319.99,58.541 319.459,58.093 319.249,57.48C319.194,57.32 319.145,57.159 319.101,56.998C318.957,57.081 318.809,57.159 318.658,57.234C318.075,57.52 317.383,57.46 316.858,57.079C316.114,56.539 315.461,55.886 314.921,55.142C314.54,54.617 314.48,53.925 314.766,53.342C314.841,53.191 314.919,53.043 315.002,52.899C314.841,52.855 314.68,52.806 314.52,52.751C313.907,52.541 313.459,52.01 313.358,51.369C313.214,50.463 313.214,49.537 313.358,48.631C313.459,47.99 313.907,47.459 314.52,47.249C314.68,47.194 314.841,47.145 315.002,47.101C314.919,46.957 314.841,46.809 314.766,46.658C314.48,46.075 314.54,45.383 314.921,44.858C315.461,44.114 316.114,43.461 316.858,42.921C317.383,42.54 318.075,42.48 318.658,42.766C318.809,42.841 318.957,42.919 319.101,43.002Z" style="fill:rgb(255,0,0);fill-opacity:0.5;"/>
        </g>
        <g id="cog1" serif:id="cog" transform="matrix(0.571444,0,0,0.571444,-169.005,-23.5719)">
            <path d="M323.095,43.086C322.37,42.971 321.63,42.971 320.905,43.086C320.699,43.689 320.589,44.31 320.575,44.947C320.178,45.059 319.795,45.218 319.435,45.419C318.974,44.979 318.458,44.618 317.886,44.337C317.291,44.769 316.769,45.291 316.337,45.886C316.618,46.458 316.979,46.974 317.419,47.435C317.218,47.795 317.059,48.178 316.947,48.575C316.31,48.589 315.689,48.699 315.086,48.905C314.971,49.63 314.971,50.37 315.086,51.095C315.689,51.301 316.31,51.411 316.947,51.425C317.059,51.822 317.218,52.205 317.419,52.565C316.979,53.026 316.618,53.542 316.337,54.114C316.769,54.709 317.291,55.231 317.886,55.663C318.458,55.382 318.974,55.021 319.435,54.581C319.795,54.782 320.178,54.941 320.575,55.053C320.589,55.69 320.699,56.311 320.905,56.914C321.63,57.029 322.37,57.029 323.095,56.914C323.301,56.311 323.411,55.69 323.425,55.053C323.822,54.941 324.205,54.782 324.565,54.581C325.026,55.021 325.542,55.382 326.114,55.663C326.709,55.231 327.231,54.709 327.663,54.114C327.382,53.542 327.021,53.026 326.581,52.565C326.782,52.205 326.941,51.822 327.053,51.425C327.69,51.411 328.311,51.301 328.914,51.095C329.029,50.37 329.029,49.63 328.914,48.905C328.311,48.699 327.69,48.589 327.053,48.575C326.941,48.178 326.782,47.795 326.581,47.435C327.021,46.974 327.382,46.458 327.663,45.886C327.231,45.291 326.709,44.769 326.114,44.337C325.542,44.618 325.026,44.979 324.565,45.419C324.205,45.218 323.822,45.059 323.425,44.947C323.411,44.31 323.301,43.689 323.095,43.086ZM322,46.53C323.915,46.53 325.47,48.085 325.47,50C325.47,51.915 323.915,53.47 322,53.47C320.085,53.47 318.53,51.915 318.53,50C318.53,48.085 320.085,46.53 322,46.53Z"/>
        </g>
    </g>
    <g id="checkmark" transform="matrix(1,0,0,1,3,1)">
        <g id="checkmark_mask" transform="matrix(0.836128,0,0,0.836128,8.75709,10.6019)">
            <path d="M4.456,4.864L8.769,0.574C9.705,-0.357 11.221,-0.353 12.152,0.583C13.083,1.519 13.079,3.035 12.143,3.966L6.131,9.946C5.681,10.394 5.071,10.644 4.435,10.642C3.8,10.64 3.192,10.385 2.745,9.934L-0.811,6.346C-1.74,5.408 -1.733,3.892 -0.796,2.963C0.142,2.034 1.658,2.041 2.587,2.978L4.456,4.864Z" style="fill:rgb(255,0,0);fill-opacity:0.5;"/>
        </g>
        <g transform="matrix(0.836128,0,0,0.836128,8.75748,10.6019)">
            <path d="M4.447,7.401L10.033,1.845C10.268,1.611 10.648,1.612 10.881,1.847C11.115,2.082 11.114,2.462 10.879,2.695L4.867,8.675C4.754,8.788 4.601,8.851 4.442,8.85C4.283,8.849 4.13,8.786 4.018,8.672L0.462,5.084C0.229,4.849 0.23,4.469 0.466,4.236C0.701,4.003 1.081,4.004 1.314,4.24L4.447,7.401Z"/>
        </g>
    </g>
    <g id="bin" transform="matrix(1,0,0,1,1,0)">
        <g id="bin_mask" transform="matrix(1,0,0,1,-13,-0.999516)">
            <path d="M20,12L23,12L23,15L22,15L22,22L13,22L13,15L12,15L12,12L15,12L15,11L20,11L20,12Z" style="fill:rgb(255,0,0);fill-opacity:0.5;"/>
        </g>
        <g id="bin1" serif:id="bin" transform="matrix(1,0,0,1,-13,-1)">
            <path d="M19,13L22,13L22,14L21,14L21,21L14,21L14,14L13,14L13,13L16,13L16,12L19,12L19,13ZM15,14L15,20L20,20L20,14L15,14ZM19,15L18,15L18,19L19,19L19,15ZM17,15L16,15L16,19L17,19L17,15Z"/>
        </g>
    </g>
    <g id="preview">
        <g id="preview_mask" transform="matrix(1,0,0,1,17,-10.5)">
            <path d="M7.129,15.5C6.958,15.804 6.957,16.174 7.127,16.478C7.127,16.478 8.021,18.088 9.642,19.373C10.774,20.269 12.248,21 14.001,21C15.752,21 17.227,20.269 18.358,19.373C19.979,18.088 20.873,16.478 20.873,16.478C21.043,16.174 21.042,15.804 20.871,15.5C20.871,15.5 18.276,11 14.001,11C9.724,11 7.129,15.5 7.129,15.5ZM8,15.991C8,15.991 10.248,12 14.001,12C17.752,12 20,15.991 20,15.991C20,15.991 17.761,20 14.001,20C10.239,20 8,15.991 8,15.991ZM14,13C15.656,13 17,14.344 17,16C17,17.656 15.656,19 14,19C12.344,19 11,17.656 11,16C11,14.344 12.344,13 14,13ZM14,14.5C14.828,14.5 15.5,15.172 15.5,16C15.5,16.828 14.828,17.5 14,17.5C13.172,17.5 12.5,16.828 12.5,16C12.5,15.172 13.172,14.5 14,14.5Z" style="fill:rgb(255,0,0);fill-opacity:0.5;"/>
        </g>
        <g id="preview1" serif:id="preview" transform="matrix(1,0,0,1,17,-10.5)">
            <path d="M8,15.991C8,15.991 10.248,12 14.001,12C17.752,12 20,15.991 20,15.991C20,15.991 17.761,20 14.001,20C10.239,20 8,15.991 8,15.991ZM14,13C15.656,13 17,14.344 17,16C17,17.656 15.656,19 14,19C12.344,19 11,17.656 11,16C11,14.344 12.344,13 14,13ZM14,14.5C14.828,14.5 15.5,15.172 15.5,16C15.5,16.828 14.828,17.5 14,17.5C13.172,17.5 12.5,16.828 12.5,16C12.5,15.172 13.172,14.5 14,14.5Z"/>
        </g>
    </g>
    <g id="edit" transform="matrix(1,0,0,1,-1,0)">
        <g id="edit_mask" transform="matrix(1,0,0,1,18,5)">
            <path d="M12,7C12,6.448 12.448,6 13,6L14,6C14.552,6 15,6.448 15,7C15.552,7 16,7.448 16,8C16.552,8 17,8.448 17,9L17,10L18,10C18.552,10 19,10.448 19,11C19.552,11 20,11.448 20,12C20.552,12 21,12.448 21,13L21,14C21,14.552 20.552,15 20,15C20,15.552 19.552,16 19,16C19,16.552 18.552,17 18,17L17,17C17,17 17,18 17,18C17,18.552 16.552,19 16,19C16,19.552 15.552,20 15,20C15,20.552 14.552,21 14,21L13,21C12.448,21 12,20.552 12,20C11.448,20 11,19.552 11,19C10.448,19 10,18.552 10,18L10,17C10,17 9,17 9,17C8.448,17 8,16.552 8,16C7.448,16 7,15.552 7,15C6.448,15 6,14.552 6,14L6,13C6,12.448 6.448,12 7,12C7,11.448 7.448,11 8,11C8,10.448 8.448,10 9,10L10,10C10,10 10,9 10,9C10,8.448 10.448,8 11,8C11,7.448 11.448,7 12,7ZM10,13L13,13L13,10L11,10L11,9L12,9L12,8L13,8L13,7L14,7L14,8L15,8L15,9L16,9L16,10L14,10L14,13L17,13L17,11L18,11L18,12L19,12L19,13L20,13L20,14L19,14L19,15L18,15L18,16L17,16L17,14L14,14L14,17L16,17L16,18L15,18L15,19L14,19L14,20L13,20L13,19L12,19L12,18L11,18L11,17L13,17L13,14L10,14L10,16L9,16L9,15L8,15L8,14L7,14L7,13L8,13L8,12L9,12L9,11L10,11L10,13ZM12,15L11,15L11,16L12,16L12,15ZM15,15L15,16L16,16L16,15L15,15ZM15,11L15,12L16,12L16,11L15,11ZM11,11L11,12L12,12L12,11L11,11Z" style="fill:rgb(255,0,0);fill-opacity:0.5;"/>
        </g>
        <g id="edit1" serif:id="edit" transform="matrix(1,0,0,1,18,5)">
            <path d="M10,13L13,13L13,10L11,10L11,9L12,9L12,8L13,8L13,7L14,7L14,8L15,8L15,9L16,9L16,10L14,10L14,13L17,13L17,11L18,11L18,12L19,12L19,13L20,13L20,14L19,14L19,15L18,15L18,16L17,16L17,14L14,14L14,17L16,17L16,18L15,18L15,19L14,19L14,20L13,20L13,19L12,19L12,18L11,18L11,17L13,17L13,14L10,14L10,16L9,16L9,15L8,15L8,14L7,14L7,13L8,13L8,12L9,12L9,11L10,11L10,13Z"/>
        </g>
    </g>
    <g id="toggle">
        <g id="toggle_mask" transform="matrix(1,0,0,1,-11,8)">
            <path d="M22,18C22,15.792 20.208,14 18,14L15,14C12.792,14 11,15.792 11,18C11,20.208 12.792,22 15,22L18,22C20.208,22 22,20.208 22,18Z" style="fill:rgb(255,0,0);fill-opacity:0.5;"/>
        </g>
        <g id="toggle1" serif:id="toggle" transform="matrix(1,0,0,1,-5.5,14.9875)">
            <path d="M15.5,11C15.5,9.344 14.156,8 12.5,8L9.5,8C7.844,8 6.5,9.344 6.5,11C6.5,12.656 7.844,14 9.5,14L12.5,14C14.156,14 15.5,12.656 15.5,11ZM12.5,9C13.604,9 14.5,9.902 14.5,11.012C14.5,12.123 13.604,13.025 12.5,13.025C11.396,13.025 10.5,12.123 10.5,11.012C10.5,9.902 11.396,9 12.5,9Z"/>
        </g>
    </g>
    <g id="exclusive">
        <g id="exclusive_mask" transform="matrix(1,0,0,1,2,9)">
            <path d="M17.594,15.648L19.186,13.419C19.439,13.065 19.891,12.915 20.305,13.048C20.719,13.18 21,13.565 21,14L21,21C21,21.552 20.552,22 20,22L11,22C10.448,22 10,21.552 10,21L10,14C10,13.565 10.281,13.18 10.695,13.048C11.109,12.915 11.561,13.065 11.814,13.419L13.406,15.648L14.632,13.504C14.81,13.192 15.141,13 15.5,13C15.859,13 16.19,13.192 16.368,13.504L17.594,15.648ZM20,21L20,14L17.5,17.5L15.5,14L13.5,17.5L11,14L11,21L20,21Z" style="fill:rgb(255,0,0);fill-opacity:0.5;"/>
        </g>
        <g id="exclusive1" serif:id="exclusive" transform="matrix(1,0,0,1,2,9)">
            <path d="M20,21L20,14L17.5,17.5L15.5,14L13.5,17.5L11,14L11,21L20,21Z"/>
        </g>
    </g>
    <g id="explode">
        <g id="explode_mask" transform="matrix(1,0,0,1,16,17)">
            <path d="M14.953,12.679L14.953,12.5C14.953,11.646 15.646,10.953 16.5,10.953C17.354,10.953 18.047,11.646 18.047,12.5L18.047,12.765L18.82,11.992C19.424,11.388 20.404,11.388 21.008,11.992C21.612,12.596 21.612,13.576 21.008,14.18L20.235,14.953L20.5,14.953C21.354,14.953 22.047,15.646 22.047,16.5C22.047,17.354 21.354,18.047 20.5,18.047L20.321,18.047L21.094,18.82C21.698,19.424 21.698,20.404 21.094,21.008C20.49,21.612 19.51,21.612 18.906,21.008L18.047,20.149L18.047,20.5C18.047,21.354 17.354,22.047 16.5,22.047C15.646,22.047 14.953,21.354 14.953,20.5L14.953,20.235L14.18,21.008C13.576,21.612 12.596,21.612 11.992,21.008C11.388,20.404 11.388,19.424 11.992,18.82L12.765,18.047L12.586,18.047C11.732,18.047 11.039,17.354 11.039,16.5C11.039,15.646 11.732,14.953 12.586,14.953L12.851,14.953L11.992,14.094C11.388,13.49 11.388,12.51 11.992,11.906C12.596,11.302 13.576,11.302 14.18,11.906L14.953,12.679ZM17,18.5C17,18.224 16.776,18 16.5,18C16.224,18 16,18.224 16,18.5L16,20.5C16,20.776 16.224,21 16.5,21C16.776,21 17,20.776 17,20.5L17,18.5ZM14.854,18.853C15.049,18.658 15.049,18.341 14.854,18.146C14.659,17.951 14.342,17.951 14.147,18.146L12.732,19.561C12.537,19.756 12.537,20.073 12.732,20.268C12.927,20.463 13.244,20.463 13.439,20.268L14.854,18.853ZM18.939,18.146C18.744,17.951 18.427,17.951 18.232,18.146C18.037,18.341 18.037,18.658 18.232,18.853L19.647,20.268C19.842,20.463 20.159,20.463 20.354,20.268C20.549,20.073 20.549,19.756 20.354,19.561L18.939,18.146ZM17.056,15.944C16.884,16.011 16.696,16.047 16.5,16.047C16.341,16.047 16.187,16.023 16.043,15.978C16.101,16.141 16.133,16.317 16.133,16.5C16.133,16.683 16.101,16.859 16.043,17.022C16.187,16.977 16.341,16.953 16.5,16.953C16.696,16.953 16.884,16.989 17.056,17.056C16.989,16.884 16.953,16.696 16.953,16.5C16.953,16.304 16.989,16.116 17.056,15.944ZM14.586,17C14.862,17 15.086,16.776 15.086,16.5C15.086,16.224 14.862,16 14.586,16L12.586,16C12.31,16 12.086,16.224 12.086,16.5C12.086,16.776 12.31,17 12.586,17L14.586,17ZM20.5,17C20.776,17 21,16.776 21,16.5C21,16.224 20.776,16 20.5,16L18.5,16C18.224,16 18,16.224 18,16.5C18,16.776 18.224,17 18.5,17L20.5,17ZM20.268,13.439C20.463,13.244 20.463,12.927 20.268,12.732C20.073,12.537 19.756,12.537 19.561,12.732L18.146,14.147C17.951,14.342 17.951,14.659 18.146,14.854C18.341,15.049 18.658,15.049 18.853,14.854L20.268,13.439ZM17,12.5C17,12.224 16.776,12 16.5,12C16.224,12 16,12.224 16,12.5L16,14.5C16,14.776 16.224,15 16.5,15C16.776,15 17,14.776 17,14.5L17,12.5ZM14.147,14.768C14.342,14.963 14.659,14.963 14.854,14.768C15.049,14.573 15.049,14.256 14.854,14.061L13.439,12.646C13.244,12.451 12.927,12.451 12.732,12.646C12.537,12.841 12.537,13.158 12.732,13.353L14.147,14.768Z" style="fill:rgb(255,0,0);fill-opacity:0.5;"/>
        </g>
        <g id="explode1" serif:id="explode" transform="matrix(1,0,0,1,16,17)">
            <path d="M17,18.5C17,18.224 16.776,18 16.5,18C16.224,18 16,18.224 16,18.5L16,20.5C16,20.776 16.224,21 16.5,21C16.776,21 17,20.776 17,20.5L17,18.5ZM14.854,18.853C15.049,18.658 15.049,18.341 14.854,18.146C14.659,17.951 14.342,17.951 14.147,18.146L12.732,19.561C12.537,19.756 12.537,20.073 12.732,20.268C12.927,20.463 13.244,20.463 13.439,20.268L14.854,18.853ZM18.939,18.146C18.744,17.951 18.427,17.951 18.232,18.146C18.037,18.341 18.037,18.658 18.232,18.853L19.647,20.268C19.842,20.463 20.159,20.463 20.354,20.268C20.549,20.073 20.549,19.756 20.354,19.561L18.939,18.146ZM14.586,17C14.862,17 15.086,16.776 15.086,16.5C15.086,16.224 14.862,16 14.586,16L12.586,16C12.31,16 12.086,16.224 12.086,16.5C12.086,16.776 12.31,17 12.586,17L14.586,17ZM20.5,17C20.776,17 21,16.776 21,16.5C21,16.224 20.776,16 20.5,16L18.5,16C18.224,16 18,16.224 18,16.5C18,16.776 18.224,17 18.5,17L20.5,17ZM20.268,13.439C20.463,13.244 20.463,12.927 20.268,12.732C20.073,12.537 19.756,12.537 19.561,12.732L18.146,14.147C17.951,14.342 17.951,14.659 18.146,14.854C18.341,15.049 18.658,15.049 18.853,14.854L20.268,13.439ZM17,12.5C17,12.224 16.776,12 16.5,12C16.224,12 16,12.224 16,12.5L16,14.5C16,14.776 16.224,15 16.5,15C16.776,15 17,14.776 17,14.5L17,12.5ZM14.147,14.768C14.342,14.963 14.659,14.963 14.854,14.768C15.049,14.573 15.049,14.256 14.854,14.061L13.439,12.646C13.244,12.451 12.927,12.451 12.732,12.646C12.537,12.841 12.537,13.158 12.732,13.353L14.147,14.768Z"/>
        </g>
    </g>
    <g id="movement" transform="matrix(1,0,0,1,-4.00916,27)">
        <g id="movement_mask" transform="matrix(1,0,0,1,3.00916,-27)">
            <path d="M5.174,36.034C5.056,35.712 4.991,35.363 4.991,35C4.991,33.344 6.335,32 7.991,32C9.647,32 10.991,33.344 10.991,35C10.991,35.412 10.908,35.804 10.758,36.161C11.282,36.313 11.736,36.626 12.067,37.187C12.484,37.9 12.246,38.819 11.533,39.238C11.196,39.436 10.814,39.487 10.46,39.412C10.565,39.557 10.661,39.724 10.747,39.915C10.877,40.204 11.019,40.813 10.993,41.608C10.966,42.435 10.273,43.085 9.445,43.058C8.728,43.035 8.146,42.513 8.02,41.832L7.983,41.849C7.612,42.004 6.688,42.284 6.48,42.381L6.421,42.407C6.22,42.601 5.983,42.807 5.696,43.036C4.834,43.723 3.885,43.945 3.283,43.934C2.652,43.922 2.207,43.674 1.953,43.438C1.563,43.076 1.148,42.662 1.014,41.708C0.9,40.888 1.471,40.13 2.289,40.016C2.902,39.929 3.482,40.226 3.783,40.723L3.826,40.69C4.524,40.133 4.73,39.823 5.003,39.198L5.06,39.07L5.012,39.031C4.961,39.026 4.912,39.022 4.864,39.02C4.83,39.019 4.779,39.022 4.747,39.024C4.296,39.719 3.366,39.916 2.675,39.467C1.978,39.016 1.78,38.085 2.229,37.393C2.983,36.227 3.932,35.944 5.174,36.034ZM7.01,36.743C6.402,36.4 5.991,35.748 5.991,35C5.991,33.896 6.887,33 7.991,33C9.095,33 9.991,33.896 9.991,35C9.991,36.104 9.095,37 7.991,37C7.976,37 7.961,37 7.946,36.999C7.943,37.261 7.854,37.534 7.748,37.8C8.309,37.477 8.987,37.104 9.449,37.069C9.721,37.049 10.018,37.028 10.287,37.076C10.657,37.141 10.982,37.316 11.204,37.691C11.343,37.929 11.264,38.236 11.026,38.376C10.788,38.516 10.482,38.436 10.342,38.199C10.27,38.077 10.145,38.059 10.022,38.05C9.858,38.037 9.685,38.054 9.525,38.066C9.159,38.094 8.638,38.441 8.2,38.695C7.936,38.847 7.698,38.978 7.523,39.044C7.409,39.087 7.309,39.108 7.226,39.114C7.1,39.411 6.965,39.703 6.835,40.001C6.809,40.06 6.784,40.117 6.759,40.172C6.935,40.111 7.095,40.052 7.207,40.005C7.475,39.892 8.063,39.569 8.591,39.548C9.091,39.528 9.559,39.708 9.835,40.326C9.931,40.539 10.013,40.99 9.994,41.575C9.985,41.851 9.754,42.068 9.478,42.059C9.202,42.05 8.986,41.819 8.994,41.543C9.007,41.166 8.984,40.872 8.922,40.735C8.831,40.529 8.649,40.532 8.48,40.568C8.124,40.643 7.774,40.851 7.596,40.927C7.217,41.086 6.272,41.375 6.059,41.474C6.005,41.499 5.949,41.513 5.894,41.519C5.68,41.744 5.417,41.98 5.073,42.254C4.438,42.76 3.745,42.942 3.302,42.934C2.988,42.928 2.76,42.823 2.634,42.706C2.377,42.467 2.093,42.199 2.005,41.57C1.967,41.297 2.157,41.044 2.431,41.006C2.704,40.967 2.957,41.158 2.995,41.431C3.033,41.697 3.153,41.824 3.266,41.928C3.302,41.931 3.373,41.935 3.427,41.929C3.712,41.9 4.092,41.757 4.45,41.472C5.325,40.774 5.578,40.381 5.919,39.6C6.032,39.343 6.148,39.09 6.259,38.835C6.155,38.725 6.016,38.58 5.857,38.434C5.669,38.263 5.448,38.071 5.215,38.046C4.672,37.987 4.229,37.985 3.909,38.479C3.759,38.711 3.449,38.777 3.218,38.627C2.986,38.477 2.919,38.167 3.069,37.936C3.631,37.067 4.367,36.949 5.322,37.051C5.639,37.085 5.963,37.245 6.25,37.461C6.4,37.574 6.54,37.701 6.662,37.821C6.714,37.703 6.769,37.583 6.819,37.462C6.884,37.303 6.946,37.145 6.946,36.989C6.946,36.9 6.969,36.816 7.01,36.743ZM3.342,40.932C3.339,40.932 3.335,40.933 3.332,40.933C3.329,40.934 3.326,40.934 3.326,40.934L3.342,40.932ZM7.991,34C8.543,34 8.991,34.448 8.991,35C8.991,35.552 8.543,36 7.991,36C7.439,36 6.991,35.552 6.991,35C6.991,34.448 7.439,34 7.991,34Z" style="fill:rgb(255,0,0);fill-opacity:0.5;"/>
        </g>
        <g id="movement1" serif:id="movement" transform="matrix(1,0,0,1,3.00916,-27)">
            <path d="M7.01,36.743C6.402,36.4 5.991,35.748 5.991,35C5.991,33.896 6.887,33 7.991,33C9.095,33 9.991,33.896 9.991,35C9.991,36.104 9.095,37 7.991,37C7.976,37 7.961,37 7.946,36.999C7.943,37.261 7.854,37.534 7.748,37.8C8.309,37.477 8.987,37.104 9.449,37.069C9.721,37.049 10.018,37.028 10.287,37.076C10.657,37.141 10.982,37.316 11.204,37.691C11.343,37.929 11.264,38.236 11.026,38.376C10.788,38.516 10.482,38.436 10.342,38.199C10.27,38.077 10.145,38.059 10.022,38.05C9.858,38.037 9.685,38.054 9.525,38.066C9.159,38.094 8.638,38.441 8.2,38.695C7.936,38.847 7.698,38.978 7.523,39.044C7.409,39.087 7.309,39.108 7.226,39.114C7.1,39.411 6.965,39.703 6.835,40.001C6.809,40.06 6.784,40.117 6.759,40.172C6.935,40.111 7.095,40.052 7.207,40.005C7.475,39.892 8.063,39.569 8.591,39.548C9.091,39.528 9.559,39.708 9.835,40.326C9.931,40.539 10.013,40.99 9.994,41.575C9.985,41.851 9.754,42.068 9.478,42.059C9.202,42.05 8.986,41.819 8.994,41.543C9.007,41.166 8.984,40.872 8.922,40.735C8.831,40.529 8.649,40.532 8.48,40.568C8.124,40.643 7.774,40.851 7.596,40.927C7.217,41.086 6.272,41.375 6.059,41.474C6.005,41.499 5.949,41.513 5.894,41.519C5.68,41.744 5.417,41.98 5.073,42.254C4.438,42.76 3.745,42.942 3.302,42.934C2.988,42.928 2.76,42.823 2.634,42.706C2.377,42.467 2.093,42.199 2.005,41.57C1.967,41.297 2.157,41.044 2.431,41.006C2.704,40.967 2.957,41.158 2.995,41.431C3.033,41.697 3.153,41.824 3.266,41.928C3.302,41.931 3.373,41.935 3.427,41.929C3.712,41.9 4.092,41.757 4.45,41.472C5.325,40.774 5.578,40.381 5.919,39.6C6.032,39.343 6.148,39.09 6.259,38.835C6.155,38.725 6.016,38.58 5.857,38.434C5.669,38.263 5.448,38.071 5.215,38.046C4.672,37.987 4.229,37.985 3.909,38.479C3.759,38.711 3.449,38.777 3.218,38.627C2.986,38.477 2.919,38.167 3.069,37.936C3.631,37.067 4.367,36.949 5.322,37.051C5.639,37.085 5.963,37.245 6.25,37.461C6.4,37.574 6.54,37.701 6.662,37.821C6.714,37.703 6.769,37.583 6.819,37.462C6.884,37.303 6.946,37.145 6.946,36.989C6.946,36.9 6.969,36.816 7.01,36.743ZM7.991,34C8.543,34 8.991,34.448 8.991,35C8.991,35.552 8.543,36 7.991,36C7.439,36 6.991,35.552 6.991,35C6.991,34.448 7.439,34 7.991,34Z"/>
        </g>
    </g>
    <g id="load" transform="matrix(1,0,0,1,-5,-1)">
        <g id="load_mask" transform="matrix(1,0,0,1,34,-8)">
            <path d="M14,13.878L14,10.5C14,9.672 14.672,9 15.5,9C16.328,9 17,9.672 17,10.5L17,13.878L17.441,13.437C18.027,12.854 18.973,12.854 19.563,13.441C19.998,13.878 20.109,14.514 19.895,15.053C20.532,15.226 21,15.809 21,16.5L21,19.5C21,20.328 20.328,21 19.5,21C19.5,21 11.5,21 11.5,21C10.672,21 10,20.328 10,19.5C10,19.5 10,16.5 10,16.5C10,15.809 10.468,15.226 11.105,15.053C10.892,14.514 11.003,13.877 11.441,13.437C12.027,12.854 12.973,12.854 13.559,13.437L14,13.878ZM19,19L19,16.5C19,16.224 19.224,16 19.5,16C19.776,16 20,16.224 20,16.5L20,19.5C20,19.776 19.776,20 19.5,20L11.5,20C11.224,20 11,19.776 11,19.5L11,16.5C11,16.224 11.224,16 11.5,16C11.776,16 12,16.224 12,16.5L12,19L19,19ZM13,18L13.878,18L13,17.122L13,18ZM17.118,18L18,18L18,17.12L17.118,18ZM15,16.293L15,10.5C15,10.224 15.224,10 15.5,10C15.776,10 16,10.224 16,10.5L16,16.293L18.146,14.146C18.342,13.951 18.658,13.951 18.854,14.146C19.049,14.342 19.049,14.658 18.854,14.854L15.815,17.888L15.796,17.903C15.763,17.927 15.728,17.947 15.692,17.962L15.691,17.962C15.632,17.987 15.567,18 15.5,18C15.433,18 15.368,17.987 15.309,17.962L15.308,17.962C15.249,17.937 15.194,17.901 15.146,17.854L12.146,14.854C11.951,14.658 11.951,14.342 12.146,14.146C12.342,13.951 12.658,13.951 12.854,14.146L15,16.293Z" style="fill:rgb(255,0,0);fill-opacity:0.5;"/>
        </g>
        <g id="load1" serif:id="load" transform="matrix(1,0,0,1,34,-8)">
            <path d="M19,19L19,16.5C19,16.224 19.224,16 19.5,16C19.776,16 20,16.224 20,16.5L20,19.5C20,19.776 19.776,20 19.5,20L11.5,20C11.224,20 11,19.776 11,19.5L11,16.5C11,16.224 11.224,16 11.5,16C11.776,16 12,16.224 12,16.5L12,19L19,19ZM15,16.293L15,10.5C15,10.224 15.224,10 15.5,10C15.776,10 16,10.224 16,10.5L16,16.293L18.146,14.146C18.342,13.951 18.658,13.951 18.854,14.146C19.049,14.342 19.049,14.658 18.854,14.854L15.815,17.888L15.796,17.903C15.763,17.927 15.728,17.947 15.692,17.962L15.691,17.962C15.632,17.987 15.567,18 15.5,18C15.433,18 15.368,17.987 15.309,17.962L15.308,17.962C15.249,17.937 15.194,17.901 15.146,17.854L12.146,14.854C11.951,14.658 11.951,14.342 12.146,14.146C12.342,13.951 12.658,13.951 12.854,14.146L15,16.293Z"/>
        </g>
    </g>
    <g id="export">
        <g id="export_mask" transform="matrix(1,0,0,1,41,-9)">
            <path d="M14.971,9.096C15.137,9.034 15.316,9 15.5,9C15.684,9 15.862,9.033 16.027,9.096C16.043,9.102 16.06,9.108 16.077,9.115C16.183,9.159 16.287,9.217 16.384,9.288L16.522,9.404C16.522,9.404 19.561,12.438 19.563,12.441C20.146,13.027 20.146,13.973 19.559,14.563C18.973,15.146 18.027,15.146 17.441,14.563L17,14.122L17,17.5C17,17.675 16.97,17.844 16.914,18L18,18L18,16.5C18,15.672 18.672,15 19.5,15C20.328,15 21,15.672 21,16.5C21,16.5 21,19.5 21,19.5C21,20.328 20.328,21 19.5,21L11.5,21C10.672,21 10,20.328 10,19.5L10,16.5C10,15.672 10.672,15 11.5,15C12.328,15 13,15.672 13,16.5L13,18L14.086,18C14.03,17.844 14,17.675 14,17.5L14,14.122L13.559,14.563C12.973,15.146 12.027,15.146 11.437,14.559C10.854,13.973 10.854,13.027 11.437,12.441L14.446,9.431C14.586,9.295 14.746,9.19 14.918,9.117C14.936,9.11 14.953,9.103 14.971,9.096ZM19,19L19,16.5C19,16.224 19.224,16 19.5,16C19.776,16 20,16.224 20,16.5L20,19.5C20,19.776 19.776,20 19.5,20L11.5,20C11.224,20 11,19.776 11,19.5L11,16.5C11,16.224 11.224,16 11.5,16C11.776,16 12,16.224 12,16.5L12,19L19,19ZM15,11.707L15,17.5C15,17.776 15.224,18 15.5,18C15.776,18 16,17.776 16,17.5L16,11.707L18.146,13.854C18.342,14.049 18.658,14.049 18.854,13.854C19.049,13.658 19.049,13.342 18.854,13.146L15.815,10.112L15.796,10.097C15.763,10.073 15.728,10.053 15.692,10.038L15.691,10.038C15.632,10.013 15.567,10 15.5,10C15.433,10 15.368,10.013 15.309,10.038L15.308,10.038C15.249,10.063 15.194,10.099 15.146,10.146L12.146,13.146C11.951,13.342 11.951,13.658 12.146,13.854C12.342,14.049 12.658,14.049 12.854,13.854L15,11.707Z" style="fill:rgb(255,0,0);fill-opacity:0.51;"/>
        </g>
        <g id="export1" serif:id="export" transform="matrix(1,0,0,1,41,-9)">
            <path d="M19,19L19,16.5C19,16.224 19.224,16 19.5,16C19.776,16 20,16.224 20,16.5L20,19.5C20,19.776 19.776,20 19.5,20L11.5,20C11.224,20 11,19.776 11,19.5L11,16.5C11,16.224 11.224,16 11.5,16C11.776,16 12,16.224 12,16.5L12,19L19,19ZM15,11.707L15,17.5C15,17.776 15.224,18 15.5,18C15.776,18 16,17.776 16,17.5L16,11.707L18.146,13.854C18.342,14.049 18.658,14.049 18.854,13.854C19.049,13.658 19.049,13.342 18.854,13.146L15.815,10.112L15.796,10.097C15.763,10.073 15.728,10.053 15.692,10.038L15.691,10.038C15.632,10.013 15.567,10 15.5,10C15.433,10 15.368,10.013 15.309,10.038L15.308,10.038C15.249,10.063 15.194,10.099 15.146,10.146L12.146,13.146C11.951,13.342 11.951,13.658 12.146,13.854C12.342,14.049 12.658,14.049 12.854,13.854L15,11.707Z"/>
        </g>
    </g>
    <g id="restore" transform="matrix(1,0,0,1,30,4)">
        <g id="restore_mask" transform="matrix(1,0,0,1,-30,-4)">
            <path d="M43.268,24.615C43.218,24.271 43.345,23.704 43.345,23.704C43.136,23.955 42.826,24.1 42.5,24.1C42.174,24.1 41.864,23.955 41.655,23.704L39.155,20.704C38.882,20.376 38.823,19.92 39.004,19.533C39.185,19.147 39.573,18.9 40,18.9L41.133,18.9C41.822,16.588 43.965,14.9 46.5,14.9C49.591,14.9 52.1,17.409 52.1,20.5C52.1,23.591 49.591,26.1 46.5,26.1C45.534,26.1 44.625,25.855 43.832,25.424C43.527,25.258 43.318,24.958 43.268,24.615Z" style="fill:rgb(255,0,0);fill-opacity:0.5;"/>
        </g>
        <g id="restore1" serif:id="restore" transform="matrix(1,0,0,1,-30,-4)">
            <path d="M42.028,20C42.276,17.751 44.185,16 46.5,16C48.984,16 51,18.016 51,20.5C51,22.984 48.984,25 46.5,25C45.724,25 44.994,24.803 44.357,24.457L45.18,23.634C45.586,23.805 46.032,23.9 46.5,23.9C48.377,23.9 49.9,22.377 49.9,20.5C49.9,18.623 48.377,17.1 46.5,17.1C44.793,17.1 43.379,18.36 43.137,20L45,20L42.5,23L40,20L42.028,20ZM46,21L46,18L47,18L47,20L49,20L49,21L46,21Z"/>
        </g>
    </g>
    <g id="window" transform="matrix(1,0,0,1,-1,0)">
        <g id="window_mask" transform="matrix(1,0,0,1,0,45.001)">
            <path d="M16.5,19.001C17.165,19.001 17.802,18.736 18.27,18.266C18.737,17.798 19,17.163 19,16.5L19,3.5C19,2.12 17.88,0.999 16.5,0.999L3.5,0.999C2.835,0.999 2.198,1.264 1.73,1.734C1.264,2.199 1,2.836 1,3.5L1,16.5C1,17.163 1.263,17.798 1.733,18.268C2.198,18.736 2.835,19.001 3.5,19.001C3.5,19.001 16.5,19.001 16.5,19.001ZM16.5,18.001C16.898,18.001 17.28,17.843 17.56,17.561C17.842,17.279 18,16.898 18,16.5L18,3.5C18,2.672 17.328,1.999 16.5,1.999L3.5,1.999C3.102,1.999 2.72,2.157 2.44,2.439C2.158,2.72 2,3.102 2,3.5L2,16.5C2,16.898 2.158,17.279 2.44,17.561C2.72,17.843 3.102,18.001 3.5,18.001L16.5,18.001ZM17,5L3,5L3,15.985C3,16.25 3.105,16.504 3.293,16.692C3.48,16.88 3.735,16.986 4,16.986L16,16.986C16.265,16.986 16.52,16.88 16.707,16.692C16.895,16.504 17,16.25 17,15.985L17,5ZM16,6L4,6L4,15.985L4.001,15.986L16,15.986L16,6ZM17,3.5C17,3.224 16.776,3 16.5,3L14.5,3C14.224,3 14,3.224 14,3.5C14,3.776 14.224,4 14.5,4L16.5,4C16.776,4 17,3.776 17,3.5Z" style="fill:rgb(255,0,0);fill-opacity:0.5;"/>
        </g>
        <g id="window1" serif:id="window" transform="matrix(1,0,0,1,0,45.001)">
            <path d="M16.5,18.001C16.898,18.001 17.28,17.843 17.56,17.561C17.842,17.279 18,16.898 18,16.5L18,3.5C18,2.672 17.328,1.999 16.5,1.999L3.5,1.999C3.102,1.999 2.72,2.157 2.44,2.439C2.158,2.72 2,3.102 2,3.5L2,16.5C2,16.898 2.158,17.279 2.44,17.561C2.72,17.843 3.102,18.001 3.5,18.001L16.5,18.001ZM17,5L3,5L3,15.985C3,16.25 3.105,16.504 3.293,16.692C3.48,16.88 3.735,16.986 4,16.986L16,16.986C16.265,16.986 16.52,16.88 16.707,16.692C16.895,16.504 17,16.25 17,15.985L17,5ZM17,3.5C17,3.224 16.776,3 16.5,3L14.5,3C14.224,3 14,3.224 14,3.5C14,3.776 14.224,4 14.5,4L16.5,4C16.776,4 17,3.776 17,3.5Z"/>
        </g>
    </g>
    <g id="tlv" transform="matrix(1,0,0,1,-12.5001,-6.99964)">
        <g id="tlv_mask" transform="matrix(1,0,0,1,17,26.9999)">
            <path d="M16.568,18.447L16.077,16.974C15.815,16.189 16.24,15.339 17.026,15.077C17.554,14.901 18.112,15.036 18.5,15.383C18.888,15.036 19.446,14.901 19.974,15.077C20.76,15.339 21.185,16.189 20.923,16.974C20.923,16.974 19.923,19.974 19.923,19.974C19.847,20.203 19.72,20.401 19.561,20.561C19.401,20.72 19.203,20.847 18.974,20.923C18.82,20.975 18.662,20.999 18.508,21L18.492,21C18.338,20.999 18.18,20.975 18.026,20.923C17.797,20.847 17.598,20.72 17.44,20.562C17.28,20.402 17.153,20.203 17.077,19.974L16.986,19.703C16.887,20.435 16.259,21 15.5,21L13.5,21C12.672,21 12,20.328 12,19.5L12,17.914C12,17.914 12,19.5 12,19.5C12,20.328 11.328,21 10.5,21C9.672,21 9,20.328 9,19.5L9,17.914C8.418,17.708 8,17.153 8,16.5C8,15.672 8.672,15 9.5,15L11.5,15C11.884,15 12.235,15.145 12.5,15.382C12.765,15.145 13.116,15 13.5,15C14.328,15 15,15.672 15,16.5L15,18L15.5,18C15.918,18 16.296,18.171 16.568,18.447ZM19.56,20.562L19.562,20.56L19.56,20.562ZM18.854,19.854C18.907,19.8 18.949,19.734 18.974,19.658L19.974,16.658C20.062,16.396 19.92,16.113 19.658,16.026C19.396,15.938 19.113,16.08 19.026,16.342L18.5,17.919L17.974,16.342C17.887,16.08 17.604,15.938 17.342,16.026C17.08,16.113 16.938,16.396 17.026,16.658L18.026,19.658C18.051,19.734 18.093,19.8 18.146,19.854C18.2,19.907 18.266,19.949 18.342,19.974C18.393,19.992 18.446,20 18.497,20L18.503,20C18.554,20 18.607,19.992 18.658,19.974C18.734,19.949 18.8,19.907 18.854,19.854ZM12,16.5C12,16.224 11.776,16 11.5,16L9.5,16C9.224,16 9,16.224 9,16.5C9,16.776 9.224,17 9.5,17L10,17L10,19.5C10,19.776 10.224,20 10.5,20C10.776,20 11,19.776 11,19.5L11,17L11.5,17C11.776,17 12,16.776 12,16.5ZM13,16.5L13,19.5C13,19.776 13.224,20 13.5,20L15.5,20C15.776,20 16,19.776 16,19.5C16,19.224 15.776,19 15.5,19L14,19L14,16.5C14,16.224 13.776,16 13.5,16C13.224,16 13,16.224 13,16.5Z" style="fill:rgb(255,0,0);fill-opacity:0.5;"/>
        </g>
        <g id="tlv1" serif:id="tlv" transform="matrix(1,0,0,1,17,26.9999)">
            <path d="M18.854,19.854C18.907,19.8 18.949,19.734 18.974,19.658L19.974,16.658C20.062,16.396 19.92,16.113 19.658,16.026C19.396,15.938 19.113,16.08 19.026,16.342L18.5,17.919L17.974,16.342C17.887,16.08 17.604,15.938 17.342,16.026C17.08,16.113 16.938,16.396 17.026,16.658L18.026,19.658C18.051,19.734 18.093,19.8 18.146,19.854C18.2,19.907 18.266,19.949 18.342,19.974C18.393,19.992 18.446,20 18.497,20L18.503,20C18.554,20 18.607,19.992 18.658,19.974C18.734,19.949 18.8,19.907 18.854,19.854ZM11.5,16L9.5,16C9.224,16 9,16.224 9,16.5C9,16.776 9.224,17 9.5,17L10,17L10,19.5C10,19.776 10.224,20 10.5,20C10.776,20 11,19.776 11,19.5L11,17L11.5,17C11.776,17 12,16.776 12,16.5C12,16.224 11.776,16 11.5,16ZM14,19L14,16.5C14,16.224 13.776,16 13.5,16C13.224,16 13,16.224 13,16.5L13,19.5C13,19.776 13.224,20 13.5,20L15.5,20C15.776,20 16,19.776 16,19.5C16,19.224 15.776,19 15.5,19L14,19Z"/>
        </g>
    </g>
    <g id="save" transform="matrix(1.03704,0,0,1.03704,17.6662,37.6666)">
        <path id="save_mask" d="M12.468,5.425C12.287,5.244 12.042,5.143 11.786,5.143L5.679,5.143C4.311,5.143 3.215,6.252 3.215,7.607C3.215,7.607 3.215,14.25 3.215,14.25C3.215,15.605 4.312,16.714 5.679,16.714L12.321,16.714C13.676,16.714 14.785,15.605 14.785,14.25L14.785,8.143C14.785,7.887 14.684,7.642 14.503,7.461L12.468,5.425ZM11.786,6.107L5.679,6.107C4.846,6.107 4.179,6.782 4.179,7.607L4.179,14.25C4.179,15.075 4.847,15.75 5.679,15.75L12.321,15.75C13.146,15.75 13.821,15.075 13.821,14.25L13.821,8.143L11.786,6.107ZM9,13.801C7.933,13.801 7.071,12.94 7.071,11.873C7.071,10.806 7.933,9.944 9,9.944C10.067,9.944 10.929,10.806 10.929,11.873C10.929,12.94 10.067,13.801 9,13.801ZM9,12.837C8.467,12.837 8.035,12.406 8.035,11.873C8.035,11.339 8.466,10.908 9,10.908C9.534,10.908 9.965,11.339 9.965,11.873C9.965,12.406 9.533,12.837 9,12.837ZM10.929,8.994L6.108,9L6.108,7.072L10.929,7.072L10.929,8.994Z" style="fill:rgb(255,0,0);fill-opacity:0.5;"/>
        <path id="save1" serif:id="save" d="M11.786,6.107L5.679,6.107C4.846,6.107 4.179,6.782 4.179,7.607L4.179,14.25C4.179,15.075 4.847,15.75 5.679,15.75L12.321,15.75C13.146,15.75 13.821,15.075 13.821,14.25L13.821,8.143L11.786,6.107ZM9,13.801C7.933,13.801 7.071,12.94 7.071,11.873C7.071,10.806 7.933,9.944 9,9.944C10.067,9.944 10.929,10.806 10.929,11.873C10.929,12.94 10.067,13.801 9,13.801ZM10.929,8.994L6.108,9L6.108,7.072L10.929,7.072L10.929,8.994Z" style="fill-rule:nonzero;"/>
    </g>
    <g id="saveas" transform="matrix(1,0,0,1,26,33.9788)">
        <g id="saveas_mask" transform="matrix(1,0,0,1,-26,-33.9788)">
            <path d="M38.568,54.825C38.403,54.938 38.206,55 38.003,55C38.003,55 36.556,55 36.556,55C35.138,55 34,53.85 34,52.444C34,52.444 34,45.555 34,45.555C34,44.15 35.137,43 36.556,43L42.889,43C43.154,43 43.409,43.105 43.596,43.293L45.536,45.233C45.843,45.54 45.917,46.011 45.718,46.397L45.701,46.429L46.584,47.313C47.145,47.874 47.145,48.757 46.584,49.317L46.128,49.771C46.034,49.865 45.926,49.936 45.811,49.984C45.782,50.053 45.744,50.12 45.699,50.182C45.888,50.366 46,50.622 46,50.897L46,52.444C46,53.85 44.85,55 43.445,55L41.898,55C41.625,55 41.371,54.889 41.187,54.702C41.01,54.844 40.789,54.923 40.56,54.923L39,54.923C38.845,54.923 38.698,54.888 38.568,54.825ZM44.829,45.94C44.757,45.928 44.683,45.922 44.608,45.922C44.231,45.922 43.87,46.073 43.604,46.34L43.151,46.796C43.058,46.89 42.987,46.997 42.939,47.112C42.823,47.162 42.716,47.233 42.624,47.325L41.4,48.549C41.04,48.196 40.546,47.979 40,47.979C38.894,47.979 38,48.872 38,49.979C38,50.525 38.217,51.019 38.571,51.379L38.293,51.657C38.105,51.845 38,52.099 38,52.364L38,53.923C38,53.949 38.001,53.974 38.003,54L36.556,54C35.693,54 35,53.3 35,52.444L35,45.555C35,44.7 35.692,44 36.556,44L42.889,44L44.829,45.94ZM45,50.897L45,52.444C45,53.3 44.3,54 43.445,54L41.898,54L45,50.897ZM43.331,48.032L39,52.364L39,53.923L40.56,53.923L44.891,49.593L43.331,48.032ZM40.004,52.919L40,52.923L40.004,52.919L40.004,52.92L40.503,52.92L40.503,53.42L39.504,53.42L39.504,52.42L40.004,52.42L40.004,52.919ZM40.693,49.256C40.514,49.084 40.269,48.979 40,48.979C39.447,48.979 39,49.425 39,49.979C39,50.248 39.105,50.492 39.278,50.671L40.693,49.256ZM44.608,46.922C44.497,46.922 44.391,46.967 44.313,47.045L43.861,47.501L45.423,49.063L45.877,48.61C46.042,48.445 46.042,48.185 45.877,48.02L44.903,47.046C44.825,46.967 44.719,46.922 44.608,46.922ZM42.001,46.993L37.001,46.999L37.001,45L42.001,45L42.001,46.993Z" style="fill:rgb(255,0,0);fill-opacity:0.5;"/>
        </g>
        <g id="saveas1" serif:id="saveas" transform="matrix(1,0,0,1,-26,-33.9788)">
            <path d="M44.829,45.94C44.757,45.928 44.683,45.922 44.608,45.922C44.231,45.922 43.87,46.073 43.604,46.34L43.151,46.796C43.058,46.89 42.987,46.997 42.939,47.112C42.823,47.162 42.716,47.233 42.624,47.325L41.4,48.549C41.04,48.196 40.546,47.979 40,47.979C38.894,47.979 38,48.872 38,49.979C38,50.525 38.217,51.019 38.571,51.379L38.293,51.657C38.105,51.845 38,52.099 38,52.364L38,53.923C38,53.949 38.001,53.974 38.003,54L36.556,54C35.693,54 35,53.3 35,52.444L35,45.555C35,44.7 35.692,44 36.556,44L42.889,44L44.829,45.94ZM45,50.897L45,52.444C45,53.3 44.3,54 43.445,54L41.898,54L45,50.897ZM43.331,48.032L39,52.364L39,53.923L40.56,53.923L44.891,49.593L43.331,48.032ZM39.504,52.42L40.004,52.42L40.004,52.92L40.503,52.92L40.503,53.42L39.504,53.42L39.504,52.42ZM44.608,46.922C44.497,46.922 44.391,46.967 44.313,47.045L43.861,47.501L45.423,49.063L45.877,48.61C46.042,48.445 46.042,48.185 45.877,48.02L44.903,47.046C44.825,46.967 44.719,46.922 44.608,46.922ZM37.001,47L42.001,47L42.001,45L37.001,45L37.001,47Z" style="fill-rule:nonzero;"/>
        </g>
    </g>
    <g id="playaction">
        <g id="playaction_mask" transform="matrix(1,0,0,1,9.00024,43)">
            <path d="M17.5,13C15.016,13 13,15.016 13,17.5C13,19.984 15.016,22 17.5,22C19.984,22 22,19.984 22,17.5C22,15.016 19.984,13 17.5,13ZM17.5,14C19.432,14 21,15.568 21,17.5C21,19.432 19.432,21 17.5,21C15.568,21 14,19.432 14,17.5C14,15.568 15.568,14 17.5,14ZM20,17.5L16,15L16,20L20,17.5ZM17,18.196L18.113,17.5L17,16.804L17,18.196Z" style="fill:rgb(255,0,0);fill-opacity:0.5;"/>
        </g>
        <g id="playaction1" serif:id="playaction" transform="matrix(1,0,0,1,9.00024,43)">
            <path d="M17.5,14C19.432,14 21,15.568 21,17.5C21,19.432 19.432,21 17.5,21C15.568,21 14,19.432 14,17.5C14,15.568 15.568,14 17.5,14ZM20,17.5L16,15L16,20L20,17.5Z"/>
        </g>
    </g>
    <g id="swap" transform="matrix(1,0,0,1,26,46)">
        <g id="swap_mask" transform="matrix(1,0,0,1,-26,-46)">
            <path d="M41.5,58L41.5,57C41.5,56.596 41.744,56.231 42.117,56.076C42.491,55.921 42.921,56.007 43.207,56.293L45.707,58.793C46.098,59.183 46.098,59.817 45.707,60.207L43.868,62.046C44.518,62.21 45,62.799 45,63.5L45,63.501C45,64.328 44.329,64.999 43.502,64.999L39,65L39,66C39,66.404 38.756,66.769 38.383,66.924C38.009,67.079 37.579,66.993 37.293,66.707L34.793,64.207C34.402,63.817 34.402,63.183 34.793,62.793L36.632,60.954C35.982,60.791 35.5,60.202 35.5,59.501L35.5,59.5C35.5,58.672 36.172,58 37,58L41.5,58ZM43.502,63.999C43.777,63.999 44,63.776 44,63.501L44,63.5C44,63.224 43.776,63 43.5,63L38,63L38,61L35.5,63.5L38,66L38,64C38,64 41.754,63.999 43.502,63.999ZM39,61L39,62L41.5,62L41.5,61L39,61ZM36.998,59.999C36.723,59.999 36.5,59.776 36.5,59.501L36.5,59.5C36.5,59.224 36.724,59 37,59L42.5,59L42.5,57L45,59.5L42.5,62L42.5,60C42.5,60 38.746,59.999 36.998,59.999Z" style="fill:rgb(255,0,0);fill-opacity:0.5;"/>
        </g>
        <g id="swap1" serif:id="swap" transform="matrix(1,0,0,1,-26,-46)">
            <path d="M43.502,63.999C43.777,63.999 44,63.776 44,63.501L44,63.5C44,63.224 43.776,63 43.5,63L38,63L38,61L35.5,63.5L38,66L38,64C38,64 41.754,63.999 43.502,63.999ZM36.998,59.999C36.723,59.999 36.5,59.776 36.5,59.501L36.5,59.5C36.5,59.224 36.724,59 37,59L42.5,59L42.5,57L45,59.5L42.5,62L42.5,60C42.5,60 38.746,59.999 36.998,59.999Z"/>
        </g>
    </g>
    <g id="curved_right_arrow" transform="matrix(1,0,0,1,37.0112,15.9982)">
        <g id="curved_right_arrow_mask" transform="matrix(1,0,0,1,-37.0112,-15.9982)">
            <path d="M50.526,33.002L49.232,31.707C48.946,31.421 48.86,30.991 49.015,30.617C49.17,30.244 49.534,30 49.939,30L55,30C55.552,30 56,30.448 56,31L56,36.061C56,36.466 55.756,36.83 55.383,36.985C55.009,37.14 54.579,37.054 54.293,36.768L52.69,35.165C51.237,36.156 49.047,37.174 46.397,36.965C44.343,36.803 41.984,35.916 39.49,33.597C38.884,33.033 38.849,32.083 39.413,31.477C39.976,30.871 40.926,30.836 41.533,31.4C43.387,33.124 45.106,33.854 46.633,33.974C48.205,34.099 49.539,33.588 50.526,33.002ZM52.082,33.143L49.939,31L55,31L55,36.061L52.789,33.85C51.538,34.85 49.299,36.191 46.476,35.968C44.598,35.82 42.451,34.985 40.171,32.864C39.969,32.676 39.957,32.36 40.145,32.158C40.333,31.956 40.65,31.944 40.852,32.132C42.919,34.054 44.852,34.837 46.555,34.971C49.007,35.165 50.96,34.026 52.082,33.143Z" style="fill:rgb(255,0,0);fill-opacity:0.5;"/>
        </g>
        <g id="curved_right_arrow1" serif:id="curved_right_arrow" transform="matrix(1,0,0,1,-37.0112,-15.9982)">
            <path d="M52.082,33.143L49.939,31L55,31L55,36.061L52.789,33.85C51.538,34.85 49.299,36.191 46.476,35.968C44.598,35.82 42.451,34.985 40.171,32.864C39.969,32.676 39.957,32.36 40.145,32.158C40.333,31.956 40.65,31.944 40.852,32.132C42.919,34.054 44.852,34.837 46.555,34.971C49.007,35.165 50.96,34.026 52.082,33.143Z" style="fill-rule:nonzero;"/>
        </g>
    </g>
    <g id="playaction2" serif:id="playaction">
        <g id="playaction2_mask" transform="matrix(6.53145e-17,1.06667,-1.16667,7.14377e-17,46.3333,64.3334)">
            <path d="M7.064,13.575C6.897,13.308 6.586,13.143 6.25,13.143C5.914,13.143 5.603,13.308 5.436,13.575L1.686,19.575C1.52,19.84 1.521,20.166 1.689,20.43C1.857,20.694 2.166,20.857 2.5,20.857L10,20.857C10.334,20.857 10.643,20.694 10.811,20.43C10.979,20.166 10.98,19.84 10.814,19.575L7.064,13.575ZM6.25,14L10,20L2.5,20L6.25,14Z" style="fill:rgb(255,0,0);fill-opacity:0.5;"/>
        </g>
        <g id="playaction21" serif:id="playaction2" transform="matrix(6.53145e-17,1.06667,-1.16667,7.14377e-17,46.3333,64.3334)">
            <path d="M6.25,14L10,20L2.5,20L6.25,14Z"/>
        </g>
    </g>
    <g id="document">
        <g id="document_mask" transform="matrix(1,0,0,1,47,39)">
            <path d="M19,18L19,7.621C19,6.957 18.737,6.322 18.268,5.854C17.32,4.906 16.094,3.68 15.146,2.732C14.678,2.263 14.043,2 13.379,2C13.379,2 7.417,2 5,2C3.896,2 3,2.896 3,4L3,18C3,19.104 3.896,20 5,20L17,20C18.104,20 19,19.104 19,18Z" style="fill:rgb(255,0,0);fill-opacity:0.5;"/>
        </g>
        <g id="document1" serif:id="document" transform="matrix(1,0,0,1,47,39)">
            <path d="M18,18C18,18.552 17.552,19 17,19L5,19C4.448,19 4,18.552 4,18L4,4C4,3.448 4.448,3 5,3L13.379,3C13.777,3 14.158,3.158 14.439,3.439C15.387,4.387 16.613,5.613 17.561,6.561C17.842,6.842 18,7.223 18,7.621L18,18ZM17,18L17,8L13,8L13,4L5,4L5,18L17,18Z"/>
        </g>
    </g>
    <g id="loop">
        <g id="loop_mask" transform="matrix(1,0,0,1,41,51)">
            <path d="M13.638,17.896L13.696,17.892C13.696,17.892 13.7,17.892 13.692,17.892C13.692,17.892 13.728,17.889 13.722,17.89C13.722,17.89 13.727,17.889 13.721,17.89C13.721,17.89 13.756,17.887 13.75,17.887C13.75,17.887 13.753,17.887 13.748,17.887C13.748,17.887 13.785,17.883 13.777,17.884C13.777,17.884 13.778,17.884 13.775,17.885C13.775,17.885 13.812,17.88 13.801,17.881C13.814,17.88 13.827,17.878 13.828,17.878C13.828,17.878 13.85,17.875 13.848,17.875C13.848,17.875 13.868,17.872 13.858,17.874C13.858,17.874 13.88,17.87 13.877,17.871C13.877,17.871 13.895,17.868 13.887,17.869C13.887,17.869 13.909,17.865 13.905,17.866C13.905,17.866 13.923,17.863 13.915,17.864C13.915,17.864 13.938,17.86 13.933,17.861C13.933,17.861 13.95,17.858 13.944,17.859C13.944,17.859 13.967,17.855 13.961,17.856C13.961,17.856 13.977,17.853 13.971,17.854C13.971,17.854 13.995,17.849 13.988,17.85C13.988,17.85 14.003,17.847 13.999,17.848C13.999,17.848 14.024,17.843 14.016,17.845C14.016,17.845 14.028,17.842 14.025,17.842C14.025,17.842 14.052,17.836 14.043,17.838L14.202,17.796C14.202,17.796 14.207,17.794 14.2,17.796C14.2,17.796 14.232,17.786 14.227,17.788C14.227,17.788 14.232,17.786 14.226,17.788C14.226,17.788 14.258,17.778 14.253,17.78C14.253,17.78 14.256,17.779 14.251,17.78C14.251,17.78 14.285,17.769 14.278,17.771C14.278,17.771 14.279,17.771 14.28,17.77C14.714,17.621 15.092,17.351 15.373,17L15,17C14.612,17 14.259,16.776 14.094,16.424C13.93,16.073 13.983,15.658 14.232,15.36L14.765,14.72C14.784,14.697 14.805,14.675 14.826,14.653L16.972,12.507C17.17,12.309 17.443,12.203 17.724,12.216C18.005,12.228 18.267,12.359 18.447,12.574L20.768,15.36C21.017,15.658 21.07,16.073 20.906,16.424C20.741,16.776 20.388,17 20,17L18.792,17C18.699,17.331 18.575,17.649 18.425,17.95L18.411,17.977C18.411,17.977 18.409,17.982 18.411,17.977L18.396,18.007C18.396,18.007 18.395,18.01 18.397,18.005L18.335,18.122C17.668,19.349 16.548,20.294 15.203,20.731L15.035,20.783C15.035,20.783 15.034,20.783 15.038,20.782L15.026,20.785C15.026,20.785 15.007,20.79 15.009,20.79L14.604,20.889L14.594,20.891L14.093,20.968L14.085,20.969C14.085,20.969 14.071,20.971 14.073,20.97L13.603,20.999L13.596,20.999C13.596,20.999 13.582,20.999 13.583,20.999L13.5,21C12.577,21 11.707,20.772 10.943,20.37C10.662,20.222 10.467,19.949 10.42,19.635C10.372,19.321 10.477,19.002 10.701,18.778L11.529,17.95C11.812,17.667 12.237,17.58 12.608,17.729C12.884,17.839 13.185,17.9 13.499,17.9L13.528,17.9C13.528,17.9 13.532,17.9 13.524,17.9C13.524,17.9 13.559,17.899 13.554,17.899C13.554,17.899 13.56,17.899 13.553,17.899C13.553,17.899 13.588,17.898 13.582,17.899C13.582,17.899 13.588,17.898 13.582,17.899C13.582,17.899 13.617,17.897 13.61,17.898C13.61,17.898 13.615,17.897 13.61,17.898L13.638,17.896ZM13.568,21L13.571,21C13.566,21 13.568,21 13.568,21ZM13.603,20.999L13.605,20.999C13.6,20.999 13.603,20.999 13.603,20.999ZM13.891,20.986L13.893,20.986C13.888,20.986 13.891,20.986 13.891,20.986ZM13.988,20.979L13.991,20.978C13.988,20.979 13.988,20.979 13.988,20.979ZM14.023,20.975L14.028,20.975C14.022,20.975 14.023,20.975 14.023,20.975ZM14.092,20.968L14.094,20.968C14.09,20.969 14.092,20.968 14.092,20.968ZM14.373,20.931L14.375,20.931C14.37,20.931 14.373,20.931 14.373,20.931ZM14.503,20.908L14.505,20.908C14.502,20.909 14.503,20.908 14.503,20.908ZM14.57,20.896L14.573,20.895C14.568,20.896 14.57,20.896 14.57,20.896ZM14.605,20.889C14.605,20.889 14.604,20.889 14.604,20.889L14.605,20.889ZM15.067,20.773L15.07,20.772C15.066,20.773 15.067,20.773 15.067,20.773ZM15.164,20.743L15.165,20.743C15.163,20.744 15.164,20.743 15.164,20.743ZM13.5,20C12.745,20 12.033,19.814 11.409,19.485L12.236,18.657C12.627,18.814 13.054,18.9 13.5,18.9L14.171,18.834L14.605,18.716C15.788,18.309 16.676,17.268 16.863,16L15,16L15.533,15.36L17.679,13.215L20,16L17.972,16C17.913,16.536 17.76,17.044 17.529,17.506L17.456,17.645C16.911,18.649 15.994,19.422 14.891,19.781L14.323,19.925L13.5,20ZM13.397,10.001L13.404,10.001C13.404,10.001 13.418,10.001 13.417,10.001L13.467,10L13.5,10C14.416,10 15.281,10.225 16.041,10.621C16.323,10.769 16.518,11.042 16.566,11.356C16.615,11.671 16.51,11.99 16.285,12.215L15.456,13.044C15.174,13.326 14.752,13.413 14.382,13.267C14.109,13.159 13.812,13.1 13.501,13.1L13.472,13.1C13.472,13.1 13.468,13.1 13.476,13.1C13.476,13.1 13.441,13.101 13.446,13.101C13.446,13.101 13.44,13.101 13.447,13.101C13.447,13.101 13.412,13.102 13.418,13.101C13.418,13.101 13.412,13.102 13.418,13.101C13.418,13.101 13.383,13.103 13.39,13.102C13.39,13.102 13.385,13.103 13.39,13.102L13.362,13.104L13.304,13.108C13.304,13.108 13.3,13.108 13.308,13.108C13.308,13.108 13.272,13.111 13.278,13.11C13.278,13.11 13.273,13.111 13.279,13.11C13.279,13.11 13.244,13.113 13.25,13.113C13.25,13.113 13.247,13.113 13.252,13.113C13.252,13.113 13.215,13.117 13.223,13.116C13.223,13.116 13.222,13.116 13.225,13.115C13.225,13.115 13.188,13.12 13.199,13.119C13.186,13.12 13.173,13.122 13.172,13.122C13.172,13.122 13.15,13.125 13.152,13.125C13.152,13.125 13.132,13.128 13.142,13.126C13.142,13.126 13.12,13.13 13.123,13.129C13.123,13.129 13.105,13.132 13.113,13.131C13.113,13.131 13.091,13.135 13.095,13.134C13.095,13.134 13.077,13.137 13.085,13.136C13.085,13.136 13.062,13.14 13.067,13.139C13.067,13.139 13.05,13.142 13.056,13.141C13.056,13.141 13.033,13.145 13.039,13.144C13.039,13.144 13.023,13.147 13.029,13.146C13.029,13.146 13.005,13.151 13.012,13.15C13.012,13.15 12.997,13.153 13.001,13.152C13.001,13.152 12.976,13.157 12.984,13.155C12.984,13.155 12.972,13.158 12.975,13.158C12.975,13.158 12.948,13.164 12.957,13.162L12.798,13.204C12.798,13.204 12.793,13.206 12.8,13.204C12.8,13.204 12.768,13.214 12.773,13.212C12.773,13.212 12.768,13.214 12.774,13.212C12.774,13.212 12.742,13.222 12.747,13.22C12.747,13.22 12.744,13.221 12.749,13.22C12.749,13.22 12.715,13.231 12.722,13.229C12.722,13.229 12.721,13.229 12.72,13.23C12.286,13.379 11.908,13.649 11.627,14L12,14C12.388,14 12.741,14.224 12.906,14.576C13.07,14.927 13.017,15.342 12.768,15.64L12.339,16.155C12.32,16.178 12.3,16.2 12.278,16.222L10.019,18.481C9.82,18.68 9.547,18.786 9.266,18.773C8.986,18.76 8.723,18.63 8.543,18.414L6.232,15.64C5.983,15.342 5.93,14.927 6.094,14.576C6.259,14.224 6.612,14 7,14L8.208,14C8.301,13.669 8.425,13.351 8.575,13.05L8.589,13.023C8.589,13.023 8.591,13.018 8.589,13.023L8.604,12.993C8.604,12.993 8.605,12.99 8.603,12.995L8.665,12.878C9.332,11.651 10.452,10.706 11.797,10.269L11.965,10.217C11.965,10.217 11.966,10.217 11.962,10.218L11.974,10.215C11.974,10.215 11.993,10.21 11.991,10.21L12.396,10.111L12.406,10.109L12.907,10.032L12.915,10.031C12.915,10.031 12.929,10.029 12.927,10.03L13.397,10.001ZM18.381,18.036L18.381,18.035C18.38,18.038 18.381,18.036 18.381,18.036ZM13.638,17.896L13.637,17.896C13.64,17.896 13.638,17.896 13.638,17.896ZM9.53,17.556L11.571,15.515L12,15L10.137,15C10.324,13.732 11.212,12.691 12.395,12.284L12.829,12.166L13.5,12.1C13.941,12.1 14.362,12.184 14.749,12.337L15.578,11.508C14.956,11.184 14.249,11 13.5,11C13.491,11 13.481,11 13.472,11L12.677,11.075L12.109,11.219C11.006,11.578 10.089,12.351 9.544,13.355L9.471,13.494C9.24,13.956 9.087,14.464 9.028,15L7,15L9.312,17.774L9.508,17.578L9.891,17.578C9.774,17.578 9.652,17.578 9.53,17.556ZM13.362,13.104L13.363,13.104C13.36,13.104 13.362,13.104 13.362,13.104ZM8.666,12.875L8.665,12.878C8.666,12.875 8.666,12.875 8.666,12.875ZM11.836,10.257L11.835,10.257C11.837,10.256 11.836,10.257 11.836,10.257ZM11.933,10.227L11.93,10.228C11.934,10.227 11.933,10.227 11.933,10.227ZM11.998,10.208L11.995,10.209C11.998,10.208 11.998,10.208 11.998,10.208ZM12.396,10.111L12.395,10.111C12.395,10.111 12.396,10.111 12.396,10.111ZM12.43,10.104L12.427,10.105C12.432,10.104 12.43,10.104 12.43,10.104ZM12.463,10.098L12.46,10.099C12.465,10.098 12.463,10.098 12.463,10.098ZM12.497,10.092L12.495,10.092C12.498,10.091 12.497,10.092 12.497,10.092ZM12.627,10.069L12.625,10.069C12.63,10.069 12.627,10.069 12.627,10.069ZM12.908,10.032L12.906,10.032C12.91,10.031 12.908,10.032 12.908,10.032ZM12.942,10.028L12.939,10.028C12.944,10.028 12.942,10.028 12.942,10.028ZM12.977,10.025L12.972,10.025C12.978,10.025 12.977,10.025 12.977,10.025ZM13.077,10.016L13.073,10.016C13.079,10.016 13.077,10.016 13.077,10.016ZM13.109,10.014L13.107,10.014C13.112,10.014 13.109,10.014 13.109,10.014ZM13.397,10.001L13.395,10.001C13.4,10.001 13.397,10.001 13.397,10.001ZM13.432,10L13.429,10C13.434,10 13.432,10 13.432,10ZM13.468,10L13.465,10C13.469,10 13.468,10 13.468,10Z" style="fill:rgb(255,0,0);fill-opacity:0.5;"/>
        </g>
        <g id="loop1" serif:id="loop" transform="matrix(1,0,0,1,41,51)">
            <path d="M13.5,20C12.745,20 12.033,19.814 11.409,19.485L12.236,18.657C12.627,18.814 13.054,18.9 13.5,18.9L13.541,18.9L13.582,18.899L13.623,18.898L13.662,18.896L13.7,18.894L13.738,18.892L13.779,18.889L13.818,18.885L13.857,18.881L13.895,18.877L13.933,18.873C13.946,18.871 13.959,18.869 13.972,18.868L14.013,18.862L14.053,18.855L14.093,18.848L14.132,18.841L14.155,18.837L14.171,18.834L14.195,18.829L14.235,18.82L14.274,18.811L14.282,18.81C14.341,18.796 14.399,18.78 14.457,18.763L14.498,18.751L14.535,18.739L14.571,18.728L14.605,18.716C15.788,18.309 16.676,17.268 16.863,16L15,16L15.533,15.36L17.679,13.215L20,16L17.972,16C17.913,16.536 17.76,17.044 17.529,17.506L17.516,17.531L17.503,17.557L17.494,17.573L17.469,17.621L17.456,17.645C16.911,18.649 15.994,19.422 14.891,19.781L14.85,19.794L14.801,19.809L14.776,19.816L14.751,19.824L14.731,19.829C14.687,19.842 14.642,19.854 14.598,19.865L14.567,19.873L14.525,19.883L14.475,19.894L14.424,19.905L14.398,19.91L14.372,19.915L14.347,19.92L14.323,19.925C14.296,19.93 14.269,19.935 14.242,19.939L14.206,19.945L14.157,19.952L14.113,19.959L14.061,19.965L14.008,19.972L13.982,19.974L13.955,19.977L13.929,19.98L13.903,19.982L13.868,19.985L13.817,19.989L13.76,19.993L13.716,19.995L13.662,19.997L13.608,19.999L13.581,19.999L13.554,20L13.527,20L13.5,20ZM14.749,12.337C14.362,12.184 13.941,12.1 13.5,12.1L13.459,12.1L13.418,12.101L13.377,12.102L13.338,12.104L13.3,12.106L13.262,12.108L13.221,12.111L13.182,12.115L13.143,12.119L13.105,12.123L13.067,12.127C13.054,12.129 13.041,12.131 13.028,12.132L12.987,12.138L12.947,12.145L12.907,12.152L12.868,12.159L12.845,12.163L12.829,12.166L12.805,12.171L12.765,12.18L12.726,12.189L12.718,12.19C12.659,12.204 12.601,12.22 12.543,12.237L12.502,12.249L12.465,12.261L12.429,12.272L12.395,12.284C11.212,12.691 10.324,13.732 10.137,15L12,15L11.571,15.515L9.312,17.774L7,15L9.028,15C9.087,14.464 9.24,13.956 9.471,13.494L9.484,13.469L9.497,13.443L9.506,13.427L9.531,13.379L9.544,13.355C10.089,12.351 11.006,11.578 12.109,11.219L12.15,11.206L12.199,11.191L12.224,11.184L12.249,11.176L12.269,11.171C12.313,11.158 12.358,11.146 12.402,11.135L12.433,11.127L12.475,11.117L12.525,11.106L12.576,11.095L12.602,11.09L12.628,11.085L12.653,11.08L12.677,11.075C12.704,11.07 12.731,11.065 12.758,11.061L12.794,11.055L12.843,11.048L12.887,11.041L12.939,11.035L12.992,11.028L13.018,11.026L13.045,11.023L13.071,11.02L13.097,11.018L13.132,11.015L13.183,11.011L13.24,11.007L13.284,11.005L13.338,11.003L13.392,11.001L13.419,11.001L13.446,11L13.472,11C13.481,11 13.491,11 13.5,11C14.249,11 14.956,11.184 15.578,11.508L14.749,12.337Z"/>
        </g>
    </g>
</svg>
