<?xml version="1.0" encoding="UTF-8" standalone="no"?>
<!DOCTYPE svg PUBLIC "-//W3C//DTD SVG 1.1//EN" "http://www.w3.org/Graphics/SVG/1.1/DTD/svg11.dtd">
<svg width="17px" height="17px" viewBox="0 0 17 17" version="1.1" xmlns="http://www.w3.org/2000/svg" xmlns:xlink="http://www.w3.org/1999/xlink" xml:space="preserve" xmlns:serif="http://www.serif.com/" style="fill-rule:evenodd;clip-rule:evenodd;stroke-linejoin:round;stroke-miterlimit:2;">
    <rect id="rect5" x="0" y="0" width="17" height="17" style="fill:rgb(33,33,33);fill-opacity:0;"/>
    <path d="M6,10L6,9L4.5,9C3.12,9 2,7.88 2,6.5C2,5.12 3.12,4 4.5,4C5.709,4 6.718,4.859 6.95,6L8,6C8,4.344 9.344,3 11,3C12.656,3 14,4.344 14,6C14,7.656 12.656,9 11,9L9,9L9,10L10.487,10C10.77,10 11,10.285 11,10.636L11,12L14,10L15,10L15,15L14,15L11,13L11,14.364C11,14.715 10.77,15 10.487,15L4.513,15C4.23,15 4,14.715 4,14.364L4,13L2,13L2,11L4,11L4,10.636C4,10.285 4.23,10 4.513,10L6,10ZM4.5,5.5C5.052,5.5 5.5,5.948 5.5,6.5C5.5,7.052 5.052,7.5 4.5,7.5C3.948,7.5 3.5,7.052 3.5,6.5C3.5,5.948 3.948,5.5 4.5,5.5ZM11,5C11.552,5 12,5.448 12,6C12,6.552 11.552,7 11,7C10.448,7 10,6.552 10,6C10,5.448 10.448,5 11,5Z" style="fill:none;stroke:rgb(44,44,44);stroke-opacity:0.76;stroke-width:2px;"/>
    <path d="M6,10L6,9L4.5,9C3.12,9 2,7.88 2,6.5C2,5.12 3.12,4 4.5,4C5.709,4 6.718,4.859 6.95,6L8,6C8,4.344 9.344,3 11,3C12.656,3 14,4.344 14,6C14,7.656 12.656,9 11,9L9,9L9,10L10.487,10C10.77,10 11,10.285 11,10.636L11,12L14,10L15,10L15,15L14,15L11,13L11,14.364C11,14.715 10.77,15 10.487,15L4.513,15C4.23,15 4,14.715 4,14.364L4,13L2,13L2,11L4,11L4,10.636C4,10.285 4.23,10 4.513,10L6,10ZM4.5,5.5C5.052,5.5 5.5,5.948 5.5,6.5C5.5,7.052 5.052,7.5 4.5,7.5C3.948,7.5 3.5,7.052 3.5,6.5C3.5,5.948 3.948,5.5 4.5,5.5ZM11,5C11.552,5 12,5.448 12,6C12,6.552 11.552,7 11,7C10.448,7 10,6.552 10,6C10,5.448 10.448,5 11,5Z" style="fill:rgb(230,230,230);"/>
</svg>
