<?xml version="1.0" encoding="utf-8"?>
<!-- Generator: Adobe Illustrator 21.0.2, SVG Export Plug-In . SVG Version: 6.00 Build 0)  -->
<svg version="1.1"
	 id="svg2" inkscape:version="0.91 r13725" sodipodi:docname="camera_on.svg" xmlns:cc="http://creativecommons.org/ns#" xmlns:dc="http://purl.org/dc/elements/1.1/" xmlns:inkscape="http://www.inkscape.org/namespaces/inkscape" xmlns:rdf="http://www.w3.org/1999/02/22-rdf-syntax-ns#" xmlns:sodipodi="http://sodipodi.sourceforge.net/DTD/sodipodi-0.dtd" xmlns:svg="http://www.w3.org/2000/svg"
	 xmlns="http://www.w3.org/2000/svg" xmlns:xlink="http://www.w3.org/1999/xlink" x="0px" y="0px" viewBox="0 0 17 17"
	 style="enable-background:new 0 0 17 17;" xml:space="preserve">
<style type="text/css">
	.st0{fill:none;}
	.st1{fill:none;stroke:#404040;stroke-width:2;stroke-linecap:square;stroke-miterlimit:1.5;}
	.st2{fill:#FFFFFF;}
</style>
<sodipodi:namedview  bordercolor="#666666" borderopacity="1" gridtolerance="10" guidetolerance="10" id="namedview19" inkscape:current-layer="svg2" inkscape:cx="-0.44915254" inkscape:cy="8.5" inkscape:pageopacity="0" inkscape:pageshadow="2" inkscape:window-height="480" inkscape:window-maximized="0" inkscape:window-width="796" inkscape:window-x="737" inkscape:window-y="109" inkscape:zoom="13.882353" objecttolerance="10" pagecolor="#ffffff" showgrid="false">
	</sodipodi:namedview>
<rect id="rect5" y="0" class="st0" width="17" height="17"/>
<g id="g7">
	<path id="path9" inkscape:connector-curvature="0" class="st1" d="M11,8v5H5V8H11z M15,9v3h-1l-2-1.5L14,9H15z"/>
	<path id="path11" inkscape:connector-curvature="0" class="st2" d="M11,8v5H5V8H11z M15,9v3h-1l-2-1.5L14,9H15z"/>
</g>
<g id="g13">
	<path id="path15" inkscape:connector-curvature="0" class="st1" d="M4,6c1.1,0,2,0.9,2,2s-0.9,2-2,2S2,9.1,2,8S2.9,6,4,6z M9,3
		c1.1,0,2,0.9,2,2s-0.9,2-2,2S7,6.1,7,5S7.9,3,9,3z"/>
	<path id="path17" inkscape:connector-curvature="0" class="st2" d="M4,6c1.1,0,2,0.9,2,2s-0.9,2-2,2S2,9.1,2,8S2.9,6,4,6z M9,3
		c1.1,0,2,0.9,2,2s-0.9,2-2,2S7,6.1,7,5S7.9,3,9,3z"/>
</g>
</svg>
