<?xml version="1.0" encoding="utf-8"?>
<!-- Generator: Adobe Illustrator 21.0.2, SVG Export Plug-In . SVG Version: 6.00 Build 0)  -->
<svg version="1.1"
	 id="svg2" inkscape:version="0.91 r13725" sodipodi:docname="centerselection_on.svg" xmlns:cc="http://creativecommons.org/ns#" xmlns:dc="http://purl.org/dc/elements/1.1/" xmlns:inkscape="http://www.inkscape.org/namespaces/inkscape" xmlns:rdf="http://www.w3.org/1999/02/22-rdf-syntax-ns#" xmlns:sodipodi="http://sodipodi.sourceforge.net/DTD/sodipodi-0.dtd" xmlns:svg="http://www.w3.org/2000/svg"
	 xmlns="http://www.w3.org/2000/svg" xmlns:xlink="http://www.w3.org/1999/xlink" x="0px" y="0px" viewBox="0 0 17 17"
	 style="enable-background:new 0 0 17 17;" xml:space="preserve">
<style type="text/css">
	.st0{fill:none;}
	.st1{fill:none;stroke:#404040;stroke-width:2;stroke-linecap:round;stroke-linejoin:round;stroke-miterlimit:1.5;}
	.st2{fill:#FFFFFF;}
</style>
<sodipodi:namedview  bordercolor="#666666" borderopacity="1" gridtolerance="10" guidetolerance="10" id="namedview19" inkscape:current-layer="svg2" inkscape:cx="-0.44915254" inkscape:cy="8.5" inkscape:pageopacity="0" inkscape:pageshadow="2" inkscape:window-height="480" inkscape:window-maximized="0" inkscape:window-width="796" inkscape:window-x="0" inkscape:window-y="0" inkscape:zoom="13.882353" objecttolerance="10" pagecolor="#ffffff" showgrid="false">
	</sodipodi:namedview>
<rect id="rect4" y="0" class="st0" width="17" height="17"/>
<path id="path15" inkscape:connector-curvature="0" class="st1" d="M9,15H8v-2c-2.1-0.2-3.7-1.9-4-4H2V8h2c0.2-2.1,1.9-3.7,4-4V2h1
	v2c2.1,0.2,3.7,1.9,4,4h2v1h-2c-0.2,2.1-1.9,3.7-4,4V15z M8.5,5C10.4,5,12,6.6,12,8.5S10.4,12,8.5,12S5,10.4,5,8.5S6.6,5,8.5,5z"/>
<path class="st2" d="M9,15H8v-2c-2.1-0.2-3.7-1.9-4-4H2V8h2c0.2-2.1,1.9-3.7,4-4V2h1v2c2.1,0.2,3.7,1.9,4,4h2v1h-2
	c-0.2,2.1-1.9,3.7-4,4V15z M8.5,5C6.6,5,5,6.6,5,8.5S6.6,12,8.5,12S12,10.4,12,8.5S10.4,5,8.5,5z"/>
<g id="g7">
	<path id="path9" inkscape:connector-curvature="0" class="st1" d="M6,8h2V6h1v2h2v1H9v2H8V9H6V8z"/>
	<path id="path11" inkscape:connector-curvature="0" class="st2" d="M6,8h2V6h1v2h2v1H9v2H8V9H6V8z"/>
</g>
</svg>
