<?xml version="1.0" encoding="utf-8"?>
<!-- Generator: Adobe Illustrator 21.0.2, SVG Export Plug-In . SVG Version: 6.00 Build 0)  -->
<svg version="1.1"
	 id="svg2" inkscape:version="0.91 r13725" sodipodi:docname="cleanup.svg" xmlns:cc="http://creativecommons.org/ns#" xmlns:dc="http://purl.org/dc/elements/1.1/" xmlns:inkscape="http://www.inkscape.org/namespaces/inkscape" xmlns:rdf="http://www.w3.org/1999/02/22-rdf-syntax-ns#" xmlns:sodipodi="http://sodipodi.sourceforge.net/DTD/sodipodi-0.dtd" xmlns:svg="http://www.w3.org/2000/svg"
	 xmlns="http://www.w3.org/2000/svg" xmlns:xlink="http://www.w3.org/1999/xlink" x="0px" y="0px" viewBox="0 0 60 60"
	 style="enable-background:new 0 0 60 60;" xml:space="preserve">
<style type="text/css">
	.st0{fill:#EBEBEB;}
	.st1{fill:#404040;}
	.st2{fill:#F2F2B3;}
	.st3{fill:#A18C4F;}
	.st4{fill:url(#SVGID_1_);}
	.st5{fill:#8C8C8C;}
	.st6{fill:#D5E4E5;}
</style>
<sodipodi:namedview  bordercolor="#666666" borderopacity="1" gridtolerance="10" guidetolerance="10" id="namedview35" inkscape:current-layer="svg2" inkscape:cx="30" inkscape:cy="30" inkscape:pageopacity="0" inkscape:pageshadow="2" inkscape:window-height="500" inkscape:window-maximized="0" inkscape:window-width="1109" inkscape:window-x="0" inkscape:window-y="0" inkscape:zoom="3.9333333" objecttolerance="10" pagecolor="#ffffff" showgrid="false">
	</sodipodi:namedview>
<g id="g4">
	<rect id="rect6" y="0" class="st0" width="60" height="60"/>
	<path id="path8" inkscape:connector-curvature="0" class="st1" d="M60,60H0V0h60V60z M1,1v58h58V1H1z"/>
</g>
<g id="g10">
	<path id="path12" inkscape:connector-curvature="0" class="st2" d="M49,28.2c0-1.2-1-2.3-2.3-2.3H12.3C11,26,10,27,10,28.2v11.5
		c0,1.2,1,2.3,2.3,2.3h34.5c1.2,0,2.3-1,2.3-2.3V28.2z"/>
	<path id="path14" inkscape:connector-curvature="0" class="st2" d="M13,32h1v10h-1V32z M15,32h1v10h-1V32z M19,32h1v10h-1V32z
		 M22,42h-1V32h1V42z M26,42h-1V32h1V42z M28,42h-1V32h1V42z M32,42h-1V32h1V42z M34,42h-1V32h1V42z M38,42h-1V32h1V42z M40,42h-1
		V32h1V42z M44,42h-1V32h1V42z M46,42h-1V32h1V42z M11,32h1v9h-1V32z M17,32h1v9h-1V32z M24,41h-1v-9h1V41z M30,41h-1v-9h1V41z
		 M36,41h-1v-9h1V41z M42,41h-1v-9h1V41z M48,41h-1v-9h1V41z"/>
	<path id="path16" inkscape:connector-curvature="0" class="st3" d="M40,42h-1V32h1V42z M38,42h-1V32h1V42z M34,42h-1V32h1V42z
		 M32,42h-1V32h1V42z M28,42h-1V32h1V42z M26,42h-1V32h1V42z M22,42h-1V32h1V42z M20,42h-1V32h1V42z M16,42h-1V32h1V42z M14,42h-1
		V32h1V42z M44,42h-1V32h1V42z M46,42h-1V32h1V42z M12,41h-1v-9h1V41z M18,41h-1v-9h1V41z M24,41h-1v-9h1V41z M30,41h-1v-9h1V41z
		 M36,41h-1v-9h1V41z M42,41h-1v-9h1V41z M48,41h-1v-9h1V41z"/>
	
		<linearGradient id="SVGID_1_" gradientUnits="userSpaceOnUse" x1="-454.0385" y1="273.0244" x2="-453.0641" y2="273.0244" gradientTransform="matrix(39 0 0 -9 17718 2485.72)">
		<stop  offset="0" style="stop-color:#74AAAA"/>
		<stop  offset="0.73" style="stop-color:#E1F1F1"/>
		<stop  offset="1" style="stop-color:#A6E0E0"/>
	</linearGradient>
	<path class="st4" d="M12.3,32.5c-1,0-1.8-0.8-1.8-1.8v-4.5c0-1,0.8-1.8,1.8-1.8h34.5c1,0,1.8,0.8,1.8,1.8v4.5c0,1-0.8,1.8-1.8,1.8
		H12.3z"/>
	<path class="st5" d="M46.8,25c0.7,0,1.3,0.6,1.3,1.3v4.5c0,0.7-0.6,1.3-1.3,1.3H12.3c-0.7,0-1.3-0.6-1.3-1.3v-4.5
		c0-0.7,0.6-1.3,1.3-1.3H46.8 M46.8,24H12.3C11,24,10,25,10,26.2v4.5c0,1.2,1,2.3,2.3,2.3h34.5c1.2,0,2.3-1,2.3-2.3v-4.5
		C49,25,48,24,46.8,24L46.8,24z"/>
	<path class="st6" d="M12.3,28.5c-1,0-1.8-0.8-1.8-1.8v-4.5c0-1,0.8-1.8,1.8-1.8h34.5c1,0,1.8,0.8,1.8,1.8v4.5c0,1-0.8,1.8-1.8,1.8
		H12.3z"/>
	<path class="st5" d="M46.8,21c0.7,0,1.3,0.6,1.3,1.3v4.5c0,0.7-0.6,1.3-1.3,1.3H12.3c-0.7,0-1.3-0.6-1.3-1.3v-4.5
		c0-0.7,0.6-1.3,1.3-1.3H46.8 M46.8,20H12.3C11,20,10,21,10,22.2v4.5c0,1.2,1,2.3,2.3,2.3h34.5c1.2,0,2.3-1,2.3-2.3v-4.5
		C49,21,48,20,46.8,20L46.8,20z"/>
</g>
</svg>
