<?xml version="1.0" encoding="UTF-8" standalone="no"?>
<svg
   xmlns:dc="http://purl.org/dc/elements/1.1/"
   xmlns:cc="http://creativecommons.org/ns#"
   xmlns:rdf="http://www.w3.org/1999/02/22-rdf-syntax-ns#"
   xmlns:svg="http://www.w3.org/2000/svg"
   xmlns="http://www.w3.org/2000/svg"
   xml:space="preserve"
   style="enable-background:new 0 0 18 18;"
   viewBox="0 0 18 18"
   y="0px"
   x="0px"
   id="svg2"
   version="1.1"><metadata
     id="metadata15"><rdf:RDF><cc:Work
         rdf:about=""><dc:format>image/svg+xml</dc:format><dc:type
           rdf:resource="http://purl.org/dc/dcmitype/StillImage" /><dc:title></dc:title></cc:Work></rdf:RDF></metadata><defs
     id="defs13" /><style
     id="style2"
     type="text/css">
	.st0{fill:none;}
	.st1{fill:#FFFFFF;}
	.st2{fill:#808080;}
	.st3{fill:#484848;}
</style><rect
     height="18"
     width="18"
     class="st0"
     y="0"
     id="rect4" /><path
     d="M4,11h2v2H4V11z M7,11h2v2H7V11z M10,11h2v2h-2V11z M15,11v2h-2  v-2H15z M4,8h2v2H4V8z M7,8h2v2H7V8z M10,8h2v2h-2V8z M13,8h2v2h-2V8z M4,5h2v2H4V5z M7,5h2v2H7V5z M10,5h2v2h-2V5z M13,5h2v2h-2V5z  "
     class="st1"
     id="path6" /><path
     style="fill:#303030;fill-opacity:1"
     d="M16,14H3V4h13V14z M4,11v2h2v-2H4z M7,11v2h2v-2H7z M10,11v2h2  v-2H10z M13,11v2h2v-2H13z M4,8v2h2V8H4z M7,8v2h2V8H7z M10,8v2h2V8H10z M13,8v2h2V8H13z M4,5v2h2V5H4z M7,5v2h2V5H7z M10,5v2h2V5  H10z M13,5v2h2V5H13z"
     class="st3"
     id="path10" /><path
     d="M15,6h-1V5h1V4h-1V3h3v3h-1V5h-1V6z"
     class="st1"
     id="path12" /><path
     style="fill:#303030;fill-opacity:1"
     d="M18,7h-5V2h5V7z M14,3v1h1v1h-1v1h1V5h1v1h1V3H14z"
     class="st3"
     id="path14" /></svg>