<?xml version="1.0" encoding="utf-8"?>
<!-- Generator: Adobe Illustrator 21.0.2, SVG Export Plug-In . SVG Version: 6.00 Build 0)  -->
<svg version="1.1"
	 id="svg2" inkscape:version="0.91 r13725" sodipodi:docname="dragpalette.svg" xmlns:cc="http://creativecommons.org/ns#" xmlns:dc="http://purl.org/dc/elements/1.1/" xmlns:inkscape="http://www.inkscape.org/namespaces/inkscape" xmlns:rdf="http://www.w3.org/1999/02/22-rdf-syntax-ns#" xmlns:sodipodi="http://sodipodi.sourceforge.net/DTD/sodipodi-0.dtd" xmlns:svg="http://www.w3.org/2000/svg"
	 xmlns="http://www.w3.org/2000/svg" xmlns:xlink="http://www.w3.org/1999/xlink" x="0px" y="0px" viewBox="0 0 18 18"
	 style="enable-background:new 0 0 18 18;" xml:space="preserve">
<style type="text/css">
	.st0{fill:none;}
	.st1{fill:url(#path6_1_);}
	.st2{fill:#808080;}
	.st3{fill:#484848;}
	.st4{fill:#D8D8D8;}
</style>
<rect id="rect4" y="0" class="st0" width="18" height="18"/>
<linearGradient id="path6_1_" gradientUnits="userSpaceOnUse" x1="-469.2865" y1="242.0611" x2="-468.2865" y2="242.0611" gradientTransform="matrix(11 -8 -8 -11 7102.6401 -1078.62)">
	<stop  offset="0" style="stop-color:#D8D8D8"/>
	<stop  offset="1" style="stop-color:#939393"/>
</linearGradient>
<path id="path6" inkscape:connector-curvature="0" class="st1" d="M4,11h2v2H4V11z M7,11h2v2H7V11z M10,11h2v2h-2V11z M15,11v2h-2
	v-2H15z M4,8h2v2H4V8z M7,8h2v2H7V8z M10,8h2v2h-2V8z M13,8h2v2h-2V8z M4,5h2v2H4V5z M7,5h2v2H7V5z M10,5h2v2h-2V5z M13,5h2v2h-2V5z
	"/>
<path id="path8" inkscape:connector-curvature="0" class="st2" d="M17.5,16h-2v-1h2C17.5,15.3,17.5,15.7,17.5,16z M14.5,16h-2v-1h2
	C14.5,15.3,14.5,15.7,14.5,16z M11.5,16h-2v-1h2C11.5,15.3,11.5,15.7,11.5,16z M8.5,16h-2v-1h2C8.5,15.3,8.5,15.7,8.5,16z M5.5,16
	h-2v-1h2C5.5,15.3,5.5,15.7,5.5,16z M2,15h0.5v1H1v-1.5h1C2,14.7,2,14.8,2,15z M18,14.5h-1v-2h1C18,13.2,18,13.8,18,14.5z M2,13.5H1
	v-2h1C2,12.2,2,12.8,2,13.5z M18,11.5h-1v-2h1C18,10.2,18,10.8,18,11.5z M2,10.5H1v-2h1C2,9.2,2,9.8,2,10.5z M18,8.5h-1V7h1
	C18,7.5,18,8,18,8.5z M2,7.5H1v-2h1C2,6.2,2,6.8,2,7.5z M2,4.5H1v-2h1C2,3.2,2,3.8,2,4.5z M13.5,3h-2V2h2C13.5,2.3,13.5,2.7,13.5,3z
	 M10.5,3h-2V2h2C10.5,2.3,10.5,2.7,10.5,3z M7.5,3h-2V2h2C7.5,2.3,7.5,2.7,7.5,3z M4.5,3h-2V2h2C4.5,2.3,4.5,2.7,4.5,3z"/>
<path id="path10" inkscape:connector-curvature="0" class="st3" d="M16,14H3V4h13V14z M4,11v2h2v-2H4z M7,11v2h2v-2H7z M10,11v2h2
	v-2H10z M13,11v2h2v-2H13z M4,8v2h2V8H4z M7,8v2h2V8H7z M10,8v2h2V8H10z M13,8v2h2V8H13z M4,5v2h2V5H4z M7,5v2h2V5H7z M10,5v2h2V5
	H10z M13,5v2h2V5H13z"/>
<path id="path12" inkscape:connector-curvature="0" class="st4" d="M15,6h-1V5h1V4h-1V3h3v3h-1V5h-1V6z"/>
<path id="path14" inkscape:connector-curvature="0" class="st3" d="M18,7h-5V2h5V7z M14,3v1h1v1h-1v1h1V5h1v1h1V3H14z"/>
</svg>
