<?xml version="1.0" encoding="UTF-8" standalone="no"?>
<svg
   xmlns:dc="http://purl.org/dc/elements/1.1/"
   xmlns:cc="http://creativecommons.org/ns#"
   xmlns:rdf="http://www.w3.org/1999/02/22-rdf-syntax-ns#"
   xmlns:svg="http://www.w3.org/2000/svg"
   xmlns="http://www.w3.org/2000/svg"
   version="1.1"
   id="svg2"
   x="0px"
   y="0px"
   viewBox="0 0 18 18"
   style="enable-background:new 0 0 18 18;"
   xml:space="preserve"><metadata
     id="metadata20"><rdf:RDF><cc:Work
         rdf:about=""><dc:format>image/svg+xml</dc:format><dc:type
           rdf:resource="http://purl.org/dc/dcmitype/StillImage" /><dc:title></dc:title></cc:Work></rdf:RDF></metadata><defs
     id="defs18" /><style
     type="text/css"
     id="style2">
	.st0{fill:none;}
	.st1{fill:url(#path6_1_);}
	.st2{fill:#808080;}
	.st3{fill:#484848;}
	.st4{fill:#D8D8D8;}
</style><rect
     id="rect4"
     y="0"
     class="st0"
     width="18"
     height="18" /><linearGradient
     id="path6_1_"
     gradientUnits="userSpaceOnUse"
     x1="-469.2865"
     y1="242.0611"
     x2="-468.2865"
     y2="242.0611"
     gradientTransform="matrix(11 -8 -8 -11 7102.6401 -1078.62)"><stop
       offset="0"
       style="stop-color:#D8D8D8"
       id="stop5" /><stop
       offset="1"
       style="stop-color:#939393"
       id="stop7" /></linearGradient><path
     id="path6"
     class="st1"
     d="M4,11h2v2H4V11z M7,11h2v2H7V11z M10,11h2v2h-2V11z M15,11v2h-2  v-2H15z M4,8h2v2H4V8z M7,8h2v2H7V8z M10,8h2v2h-2V8z M13,8h2v2h-2V8z M4,5h2v2H4V5z M7,5h2v2H7V5z M10,5h2v2h-2V5z M13,5h2v2h-2V5z  "
     style="fill:#e6e6e6;fill-opacity:1" /><path
     id="path10"
     class="st3"
     d="M16,14H3V4h13V14z M4,11v2h2v-2H4z M7,11v2h2v-2H7z M10,11v2h2  v-2H10z M13,11v2h2v-2H13z M4,8v2h2V8H4z M7,8v2h2V8H7z M10,8v2h2V8H10z M13,8v2h2V8H13z M4,5v2h2V5H4z M7,5v2h2V5H7z M10,5v2h2V5  H10z M13,5v2h2V5H13z"
     style="fill:#303030;fill-opacity:1" /><path
     id="path12"
     class="st4"
     d="M15,6h-1V5h1V4h-1V3h3v3h-1V5h-1V6z"
     style="fill:#e6e6e6;fill-opacity:1" /><path
     id="path14"
     class="st3"
     d="M18,7h-5V2h5V7z M14,3v1h1v1h-1v1h1V5h1v1h1V3H14z"
     style="fill:#303030;fill-opacity:1" /></svg>