<?xml version="1.0" encoding="UTF-8" standalone="no"?>
<svg
   xmlns:dc="http://purl.org/dc/elements/1.1/"
   xmlns:cc="http://creativecommons.org/ns#"
   xmlns:rdf="http://www.w3.org/1999/02/22-rdf-syntax-ns#"
   xmlns:svg="http://www.w3.org/2000/svg"
   xmlns="http://www.w3.org/2000/svg"
   xmlns:sodipodi="http://sodipodi.sourceforge.net/DTD/sodipodi-0.dtd"
   xmlns:inkscape="http://www.inkscape.org/namespaces/inkscape"
   version="1.1"
   id="svg2"
   inkscape:version="0.91 r13725"
   sodipodi:docname="edit_center.svg"
   x="0px"
   y="0px"
   viewBox="0 0 17 17"
   xml:space="preserve"
   width="17"
   height="17"><metadata
     id="metadata3385"><rdf:RDF><cc:Work
         rdf:about=""><dc:format>image/svg+xml</dc:format><dc:type
           rdf:resource="http://purl.org/dc/dcmitype/StillImage" /><dc:title></dc:title></cc:Work></rdf:RDF></metadata><defs
     id="defs3383" /><sodipodi:namedview
     pagecolor="#ffffff"
     bordercolor="#666666"
     borderopacity="1"
     objecttolerance="10"
     gridtolerance="10"
     guidetolerance="10"
     inkscape:pageopacity="0"
     inkscape:pageshadow="2"
     inkscape:window-width="1242"
     inkscape:window-height="912"
     id="namedview3381"
     showgrid="true"
     inkscape:zoom="54.411765"
     inkscape:cx="8.5"
     inkscape:cy="9.8651764"
     inkscape:window-x="57"
     inkscape:window-y="44"
     inkscape:window-maximized="0"
     inkscape:current-layer="svg2"><inkscape:grid
       type="xygrid"
       id="grid3387" /></sodipodi:namedview><style
     type="text/css"
     id="style3355">
	.st0{fill:#FFFFFF;stroke:#000000;stroke-width:2;stroke-miterlimit:10;}
	.st1{fill:#FFFFFF;}
</style><path
     class="st0"
     d="M 12,8.5 C 12,6.6 10.4,5 8.5,5 6.6,5 5,6.6 5,8.5 5,10.4 6.6,12 8.5,12 10.4,12 12,10.4 12,8.5 Z m 1,0 C 13,11 11,13 8.5,13 6,13 4,11 4,8.5 4,6 6,4 8.5,4 11,4 13,6 13,8.5 Z"
     id="path3357"
     inkscape:connector-curvature="0"
     style="fill:#ffffff;stroke:#000000;stroke-width:2;stroke-miterlimit:10" /><circle
     class="st0"
     cx="8.5"
     cy="8.5"
     r="1.5"
     id="circle3359"
     style="fill:#ffffff;stroke:#000000;stroke-width:2;stroke-miterlimit:10" /><path
     class="st0"
     d="m 12.4,8.5 0,0 C 12.4,8.2 12.6,8 12.9,8 l 2.6,0 C 15.8,8 16,8.2 16,8.5 l 0,0 C 16,8.8 15.8,9 15.5,9 L 12.9,9 C 12.6,9 12.4,8.8 12.4,8.5 Z"
     id="path3361"
     inkscape:connector-curvature="0"
     style="fill:#ffffff;stroke:#000000;stroke-width:2;stroke-miterlimit:10" /><path
     class="st0"
     d="m 1,8.5 0,0 C 1,8.2 1.2,8 1.5,8 l 2.6,0 c 0.3,0 0.5,0.2 0.5,0.5 l 0,0 C 4.6,8.8 4.4,9 4.1,9 L 1.5,9 C 1.2,9 1,8.8 1,8.5 Z"
     id="path3363"
     inkscape:connector-curvature="0"
     style="fill:#ffffff;stroke:#000000;stroke-width:2;stroke-miterlimit:10" /><path
     class="st0"
     d="m 8.5,4.6 0,0 C 8.2,4.6 8,4.4 8,4.1 L 8,1.5 C 8,1.2 8.2,1 8.5,1 l 0,0 C 8.8,1 9,1.2 9,1.5 L 9,4.1 C 9,4.4 8.8,4.6 8.5,4.6 Z"
     id="path3365"
     inkscape:connector-curvature="0"
     style="fill:#ffffff;stroke:#000000;stroke-width:2;stroke-miterlimit:10" /><path
     class="st0"
     d="m 8.5,16 0,0 C 8.2,16 8,15.8 8,15.5 l 0,-2.6 c 0,-0.3 0.2,-0.5 0.5,-0.5 l 0,0 c 0.3,0 0.5,0.2 0.5,0.5 l 0,2.6 C 9,15.8 8.8,16 8.5,16 Z"
     id="path3367"
     inkscape:connector-curvature="0"
     style="fill:#ffffff;stroke:#000000;stroke-width:2;stroke-miterlimit:10" /><path
     class="st1"
     d="m 8.5,4.6 0,0 C 8.2,4.6 8,4.4 8,4.1 L 8,1.5 C 8,1.2 8.2,1 8.5,1 l 0,0 C 8.8,1 9,1.2 9,1.5 L 9,4.1 C 9,4.4 8.8,4.6 8.5,4.6 Z"
     id="path3369"
     inkscape:connector-curvature="0"
     style="fill:#ffffff" /><path
     class="st1"
     d="m 8.5,16 0,0 C 8.2,16 8,15.8 8,15.5 l 0,-2.6 c 0,-0.3 0.2,-0.5 0.5,-0.5 l 0,0 c 0.3,0 0.5,0.2 0.5,0.5 l 0,2.6 C 9,15.8 8.8,16 8.5,16 Z"
     id="path3371"
     inkscape:connector-curvature="0"
     style="fill:#ffffff" /><path
     class="st1"
     d="m 12.4,8.5 0,0 C 12.4,8.2 12.6,8 12.9,8 l 2.6,0 C 15.8,8 16,8.2 16,8.5 l 0,0 C 16,8.8 15.8,9 15.5,9 L 12.9,9 C 12.6,9 12.4,8.8 12.4,8.5 Z"
     id="path3373"
     inkscape:connector-curvature="0"
     style="fill:#ffffff" /><path
     class="st1"
     d="m 1,8.5 0,0 C 1,8.2 1.2,8 1.5,8 l 2.6,0 c 0.3,0 0.5,0.2 0.5,0.5 l 0,0 C 4.6,8.8 4.4,9 4.1,9 L 1.5,9 C 1.2,9 1,8.8 1,8.5 Z"
     id="path3375"
     inkscape:connector-curvature="0"
     style="fill:#ffffff" /><path
     class="st1"
     d="M 12,8.5 C 12,6.6 10.4,5 8.5,5 6.6,5 5,6.6 5,8.5 5,10.4 6.6,12 8.5,12 10.4,12 12,10.4 12,8.5 Z m 1,0 C 13,11 11,13 8.5,13 6,13 4,11 4,8.5 4,6 6,4 8.5,4 11,4 13,6 13,8.5 Z"
     id="path3377"
     inkscape:connector-curvature="0"
     style="fill:#ffffff" /><circle
     class="st1"
     cx="8.5"
     cy="8.5"
     r="1.5"
     id="circle3379"
     style="fill:#ffffff" /></svg>