<?xml version="1.0" encoding="utf-8"?>
<svg version="1.1"
	 id="svg2" inkscape:version="0.91 r13725" sodipodi:docname="edit_rotation.svg" xmlns:cc="http://creativecommons.org/ns#" xmlns:dc="http://purl.org/dc/elements/1.1/" xmlns:inkscape="http://www.inkscape.org/namespaces/inkscape" xmlns:rdf="http://www.w3.org/1999/02/22-rdf-syntax-ns#" xmlns:sodipodi="http://sodipodi.sourceforge.net/DTD/sodipodi-0.dtd" xmlns:svg="http://www.w3.org/2000/svg"
	 xmlns="http://www.w3.org/2000/svg" xmlns:xlink="http://www.w3.org/1999/xlink" x="0px" y="0px" viewBox="0 0 17 17"
	 style="enable-background:new 0 0 17 17;" xml:space="preserve">
<style type="text/css">
	.st0{fill:none;stroke:#000000;stroke-width:2;stroke-miterlimit:10;}
	.st1{fill:#FFFFFF;}
</style>
<sodipodi:namedview  bordercolor="#666666" borderopacity="1" fit-margin-bottom="0" fit-margin-left="0" fit-margin-right="0" fit-margin-top="0" gridtolerance="10" guidetolerance="10" id="namedview6" inkscape:current-layer="svg2" inkscape:cx="7.6725821" inkscape:cy="8.0000004" inkscape:pageopacity="0" inkscape:pageshadow="2" inkscape:snap-global="false" inkscape:window-height="895" inkscape:window-maximized="0" inkscape:window-width="998" inkscape:window-x="0" inkscape:window-y="0" inkscape:zoom="29.687501" objecttolerance="10" pagecolor="#ffffff" showgrid="true">
	<inkscape:grid  id="grid3333" type="xygrid"></inkscape:grid>
</sodipodi:namedview>
<path id="path4_2_" inkscape:connector-curvature="0" class="st0" d="M13.6,4.9c0,0.3-0.2,0.5-0.4,0.6l-2.4,0.3
	c-0.3,0-0.6,0-0.6-0.3c0-0.3,0.3-0.7,0.5-0.7l1.2-0.1c-1.1-1-2.5-1.5-4-1.3C7.6,3.3,7.3,3.3,7,3.4C4.6,4.2,3.1,6.6,3.4,9.2
	c0.2,1.4,0.8,2.7,1.9,3.7c1.1,0.9,2.4,1.3,3.8,1.2c0.3,0,0.6-0.1,0.9-0.2c2.4-0.7,3.9-3.2,3.6-5.8l0-0.2c0-0.3,0.1-0.6,0.3-0.6
	c0.2-0.1,0.5,0.1,0.6,0.4L14.6,8c0.3,3.2-1.5,6.1-4.3,6.9c-0.3,0.1-0.7,0.2-1.1,0.2c-3.4,0.4-6.4-2.2-6.8-5.8
	C2.1,6.2,3.9,3.3,6.7,2.4c0.3-0.1,0.7-0.2,1.1-0.2c1.8-0.2,3.5,0.4,4.7,1.6l-0.2-1.4c0-0.3,0.2-0.5,0.4-0.6c0.3,0,0.5,0.2,0.5,0.5
	L13.6,4.9L13.6,4.9z"/>
<path id="path4_1_" inkscape:connector-curvature="0" class="st1" d="M13.6,4.9c0,0.3-0.2,0.5-0.4,0.6l-2.4,0.3
	c-0.3,0-0.6,0-0.6-0.3c0-0.3,0.3-0.7,0.5-0.7l1.2-0.1c-1.1-1-2.5-1.5-4-1.3C7.6,3.3,7.3,3.3,7,3.4C4.6,4.2,3.1,6.6,3.4,9.2
	c0.2,1.4,0.8,2.7,1.9,3.7c1.1,0.9,2.4,1.3,3.8,1.2c0.3,0,0.6-0.1,0.9-0.2c2.4-0.7,3.9-3.2,3.6-5.8l0-0.2c0-0.3,0.1-0.6,0.3-0.6
	c0.2-0.1,0.5,0.1,0.6,0.4L14.6,8c0.3,3.2-1.5,6.1-4.3,6.9c-0.3,0.1-0.7,0.2-1.1,0.2c-3.4,0.4-6.4-2.2-6.8-5.8
	C2.1,6.2,3.9,3.3,6.7,2.4c0.3-0.1,0.7-0.2,1.1-0.2c1.8-0.2,3.5,0.4,4.7,1.6l-0.2-1.4c0-0.3,0.2-0.5,0.4-0.6c0.3,0,0.5,0.2,0.5,0.5
	L13.6,4.9L13.6,4.9z"/>
</svg>
