<?xml version="1.0" encoding="UTF-8" standalone="no"?>

<svg
   xmlns:ns2="http://ns.adobe.com/AdobeIllustrator/10.0/"
   xmlns:dc="http://purl.org/dc/elements/1.1/"
   xmlns:cc="http://creativecommons.org/ns#"
   xmlns:rdf="http://www.w3.org/1999/02/22-rdf-syntax-ns#"
   xmlns:svg="http://www.w3.org/2000/svg"
   xmlns="http://www.w3.org/2000/svg"
   xmlns:sodipodi="http://sodipodi.sourceforge.net/DTD/sodipodi-0.dtd"
   xmlns:inkscape="http://www.inkscape.org/namespaces/inkscape"
   version="1.1"
   id="svg2"
   inkscape:version="0.91 r13725"
   ns2:pageBounds="0 600 800 0"
   ns2:rulerOrigin="0 0"
   ns2:viewOrigin="387 312"
   sodipodi:docname="edit_all.svg"
   x="0px"
   y="0px"
   viewBox="0 0 17 17"
   xml:space="preserve"
   width="17"
   height="17"><metadata
     id="metadata23"><rdf:RDF><cc:Work
         rdf:about=""><dc:format>image/svg+xml</dc:format><dc:type
           rdf:resource="http://purl.org/dc/dcmitype/StillImage" /><dc:title></dc:title></cc:Work></rdf:RDF></metadata><defs
     id="defs21" /><style
     type="text/css"
     id="style3">
	.st0{fill:none;stroke:#000000;stroke-width:3;}
	.st1{fill:none;stroke:#000000;stroke-width:3;stroke-linecap:round;stroke-linejoin:round;}
	.st2{fill:none;stroke:#FFFFFF;stroke-width:0.988;}
	.st3{fill:none;stroke:#FFFFFF;}
	.st4{fill:#7F7F7F;stroke:#FFFFFF;}
	.st5{fill:#7F7F7F;stroke:#FFFFFF;stroke-linecap:round;stroke-linejoin:round;}
</style><sodipodi:namedview
     bordercolor="#666666"
     borderopacity="1"
     gridtolerance="10"
     guidetolerance="10"
     id="namedview4191"
     inkscape:current-layer="svg2"
     inkscape:cx="4.7691892"
     inkscape:cy="8.5"
     inkscape:pageopacity="0"
     inkscape:pageshadow="2"
     inkscape:window-height="689"
     inkscape:window-maximized="0"
     inkscape:window-width="1232"
     inkscape:window-x="141"
     inkscape:window-y="48"
     inkscape:zoom="54.411765"
     objecttolerance="10"
     pagecolor="#ffffff"
     showgrid="true"><inkscape:grid
       id="grid4197"
       type="xygrid" /></sodipodi:namedview><path
     id="path11"
     inkscape:connector-curvature="0"
     ns2:knockout="Off"
     class="st0"
     d="m 10.5,8.5 c 0,1.1 -0.9,2 -2,2 -1.1,0 -2,-0.9 -2,-2 0,-1.1 0.9,-2 2,-2 1.1,0 2,0.9 2,2 z"
     style="fill:none;stroke:#000000;stroke-width:3" /><path
     id="path13"
     inkscape:connector-curvature="0"
     ns2:knockout="Off"
     class="st0"
     d="M 3.4,13.6 8.7,8.3"
     style="fill:none;stroke:#000000;stroke-width:3" /><path
     id="path15"
     inkscape:connector-curvature="0"
     ns2:knockout="Off"
     class="st0"
     d="M 13.6,13.6 8.4,8.4"
     style="fill:none;stroke:#000000;stroke-width:3" /><path
     id="path17"
     inkscape:connector-curvature="0"
     ns2:knockout="Off"
     class="st0"
     d="m 8.5,8.4 0,-5"
     style="fill:none;stroke:#000000;stroke-width:3" /><path
     id="path19"
     inkscape:connector-curvature="0"
     ns2:knockout="Off"
     class="st0"
     d="m 4.5,14.5 -2,0 0,-2 2,0 0,2 z"
     style="fill:none;stroke:#000000;stroke-width:3" /><path
     id="path21"
     inkscape:connector-curvature="0"
     ns2:knockout="Off"
     class="st1"
     d="m 13.6,14.5 -2.1,0 1.9,-2 2.1,0 -1.9,2 z"
     style="fill:none;stroke:#000000;stroke-width:3;stroke-linecap:round;stroke-linejoin:round" /><path
     id="path23"
     inkscape:connector-curvature="0"
     ns2:knockout="Off"
     class="st0"
     d="m 8.5,1.5 c 0.6,0 1,0.4 1,1 0,0.6 -0.4,1 -1,1 -0.6,0 -1,-0.4 -1,-1 0,-0.6 0.4,-1 1,-1 z"
     style="fill:none;stroke:#000000;stroke-width:3" /><path
     id="path11_1_"
     inkscape:connector-curvature="0"
     ns2:knockout="Off"
     class="st2"
     d="m 10.5,8.5 c 0,1.1 -0.9,2 -2,2 -1.1,0 -2,-0.9 -2,-2 0,-1.1 0.9,-2 2,-2 1.1,0 2,0.9 2,2 z"
     style="fill:none;stroke:#ffffff;stroke-width:0.98799998" /><path
     id="path13_1_"
     inkscape:connector-curvature="0"
     ns2:knockout="Off"
     class="st3"
     d="M 3.4,13.6 8.7,8.3"
     style="fill:none;stroke:#ffffff" /><path
     id="path15_1_"
     inkscape:connector-curvature="0"
     ns2:knockout="Off"
     class="st3"
     d="M 13.6,13.6 8.4,8.4"
     style="fill:none;stroke:#ffffff" /><path
     id="path17_1_"
     inkscape:connector-curvature="0"
     ns2:knockout="Off"
     class="st3"
     d="m 8.5,8.4 0,-5"
     style="fill:none;stroke:#ffffff" /><path
     id="path19_1_"
     inkscape:connector-curvature="0"
     ns2:knockout="Off"
     class="st4"
     d="m 4.5,14.5 -2,0 0,-2 2,0 0,2 z"
     style="fill:#7f7f7f;stroke:#ffffff" /><path
     id="path21_1_"
     inkscape:connector-curvature="0"
     ns2:knockout="Off"
     class="st5"
     d="m 13.6,14.5 -2.1,0 1.9,-2 2.1,0 -1.9,2 z"
     style="fill:#7f7f7f;stroke:#ffffff;stroke-linecap:round;stroke-linejoin:round" /><path
     id="path23_1_"
     inkscape:connector-curvature="0"
     ns2:knockout="Off"
     class="st4"
     d="m 8.5,1.5 c 0.6,0 1,0.4 1,1 0,0.6 -0.4,1 -1,1 -0.6,0 -1,-0.4 -1,-1 0,-0.6 0.4,-1 1,-1 z"
     style="fill:#7f7f7f;stroke:#ffffff" /></svg>