<?xml version="1.0" encoding="UTF-8" standalone="no"?>
<svg
   xmlns:dc="http://purl.org/dc/elements/1.1/"
   xmlns:cc="http://creativecommons.org/ns#"
   xmlns:rdf="http://www.w3.org/1999/02/22-rdf-syntax-ns#"
   xmlns:svg="http://www.w3.org/2000/svg"
   xmlns="http://www.w3.org/2000/svg"
   xmlns:sodipodi="http://sodipodi.sourceforge.net/DTD/sodipodi-0.dtd"
   xmlns:inkscape="http://www.inkscape.org/namespaces/inkscape"
   version="1.1"
   id="svg2"
   inkscape:version="0.91 r13725"
   sodipodi:docname="edit_position.svg"
   x="0px"
   y="0px"
   viewBox="0 0 17 17"
   xml:space="preserve"
   width="17"
   height="17"><metadata
     id="metadata33"><rdf:RDF><cc:Work
         rdf:about=""><dc:format>image/svg+xml</dc:format><dc:type
           rdf:resource="http://purl.org/dc/dcmitype/StillImage" /><dc:title></dc:title></cc:Work></rdf:RDF></metadata><defs
     id="defs31" /><style
     type="text/css"
     id="style3">
	.st0{fill:#FFFFFF;}
</style><sodipodi:namedview
     bordercolor="#666666"
     borderopacity="1"
     gridtolerance="10"
     guidetolerance="10"
     id="namedview17"
     inkscape:current-layer="svg2"
     inkscape:cx="14.076256"
     inkscape:cy="4.5168741"
     inkscape:pageopacity="0"
     inkscape:pageshadow="2"
     inkscape:window-height="841"
     inkscape:window-maximized="0"
     inkscape:window-width="1412"
     inkscape:window-x="0"
     inkscape:window-y="0"
     inkscape:zoom="22.627417"
     objecttolerance="10"
     pagecolor="#ffffff"
     showgrid="true"><inkscape:grid
       id="grid3349"
       type="xygrid" /></sodipodi:namedview><rect
     id="rect4"
     x="7"
     y="3"
     width="3"
     height="11" /><rect
     id="rect4_2_"
     x="3"
     y="6.9840002"
     width="11"
     height="3" /><g
     id="g9"
     transform="matrix(1,0,0,1.010101,1.05,-0.050505)"><path
       d="m 9.5,5 -4,0 C 5.1,5 4.8,4.8 4.6,4.5 4.4,4.2 4.4,3.8 4.6,3.5 l 2,-3 c 0.4,-0.6 1.3,-0.6 1.7,0 l 2,3 c 0.2,0.3 0.2,0.7 0,1 C 10.1,4.8 9.9,5 9.5,5 Z"
       id="path11"
       inkscape:connector-curvature="0" /><polygon
       id="polygon12_1_"
       class="st0"
       points="5.5,4 7.5,1 9.5,4 "
       style="fill:#ffffff" /></g><g
     id="g14"
     transform="matrix(1,0,0,1.010101,0.95,0.88888905)"><path
       d="m 5.5,11 4,0 c 0.4,0 0.7,0.2 0.9,0.5 0.2,0.3 0.2,0.7 0,1 l -2,3 c -0.4,0.6 -1.3,0.6 -1.7,0 l -2,-3 C 4.5,12.2 4.5,11.8 4.7,11.5 4.9,11.2 5.1,11 5.5,11 Z"
       id="path16"
       inkscape:connector-curvature="0" /><polygon
       id="polygon12_2_"
       class="st0"
       points="7.5,15 5.5,12 9.5,12 "
       style="fill:#ffffff" /></g><g
     id="g19"
     transform="matrix(1.010101,0,0,1,-0.05050505,-0.05)"><path
       d="m 5,6.5 0,4 c 0,0.4 -0.2,0.7 -0.5,0.9 -0.3,0.2 -0.7,0.2 -1,0 l -3,-2 C -0.1,9 -0.1,8.1 0.5,7.7 l 3,-2 C 3.8,5.5 4.2,5.5 4.5,5.7 4.8,5.9 5,6.2 5,6.5 Z"
       id="path21"
       inkscape:connector-curvature="0" /><polygon
       id="polygon12_3_"
       class="st0"
       points="1,8.5 4,6.5 4,10.5 "
       style="fill:#ffffff" /></g><g
     id="g24"
     transform="matrix(1.010101,0,0,1,0.88888889,0.05)"><path
       d="m 11,10.5 0,-4 c 0,-0.4 0.2,-0.7 0.5,-0.9 0.3,-0.2 0.7,-0.2 1,0 l 3,2 c 0.6,0.4 0.6,1.3 0,1.7 l -3,2 c -0.3,0.2 -0.7,0.2 -1,0 C 11.2,11.1 11,10.9 11,10.5 Z"
       id="path26"
       inkscape:connector-curvature="0" /><polygon
       id="polygon12_4_"
       class="st0"
       points="15,8.5 12,10.5 12,6.5 "
       style="fill:#ffffff" /></g><rect
     id="rect4_1_"
     x="8"
     y="3"
     class="st0"
     width="1"
     height="11"
     style="fill:#ffffff" /><rect
     id="rect6_1_"
     x="3"
     y="8"
     class="st0"
     width="11"
     height="1"
     style="fill:#ffffff" /></svg>