<?xml version="1.0" encoding="utf-8"?>
<!-- Generator: Adobe Illustrator 21.0.2, SVG Export Plug-In . SVG Version: 6.00 Build 0)  -->
<svg version="1.1"
	 id="svg2" inkscape:version="0.91 r13725" sodipodi:docname="fit_on.svg" xmlns:cc="http://creativecommons.org/ns#" xmlns:dc="http://purl.org/dc/elements/1.1/" xmlns:inkscape="http://www.inkscape.org/namespaces/inkscape" xmlns:rdf="http://www.w3.org/1999/02/22-rdf-syntax-ns#" xmlns:sodipodi="http://sodipodi.sourceforge.net/DTD/sodipodi-0.dtd" xmlns:svg="http://www.w3.org/2000/svg"
	 xmlns="http://www.w3.org/2000/svg" xmlns:xlink="http://www.w3.org/1999/xlink" x="0px" y="0px" viewBox="0 0 17 17"
	 style="enable-background:new 0 0 17 17;" xml:space="preserve">
<style type="text/css">
	.st0{fill:none;}
	.st1{fill:none;stroke:#404040;stroke-width:2;stroke-linecap:square;stroke-miterlimit:3;}
	.st2{fill:#FFFFFF;}
</style>
<g>
	<rect id="rect5" class="st0" width="17" height="17"/>
	<g id="g7">
		<path id="path9" inkscape:connector-curvature="0" class="st1" d="M10,15H7l1.5-2L10,15z M6,6h5v5H6V6z M13,8.5L15,7v3L13,8.5z
			 M4,8.5L2,7v3L4,8.5z M8.5,4L7,2h3L8.5,4z"/>
		<path id="path11" inkscape:connector-curvature="0" class="st2" d="M10,15H7l1.5-2L10,15z M6,6h5v5H6V6z M13,8.5L15,7v3L13,8.5z
			 M4,8.5L2,7v3L4,8.5z M8.5,4L7,2h3L8.5,4z"/>
	</g>
</g>
</svg>
