<?xml version="1.0" encoding="utf-8"?>
<!-- Generator: Adobe Illustrator 21.0.2, SVG Export Plug-In . SVG Version: 6.00 Build 0)  -->
<svg version="1.1"
	 id="svg2" inkscape:version="0.91 r13725" sodipodi:docname="fit_off.svg" xmlns:cc="http://creativecommons.org/ns#" xmlns:dc="http://purl.org/dc/elements/1.1/" xmlns:inkscape="http://www.inkscape.org/namespaces/inkscape" xmlns:rdf="http://www.w3.org/1999/02/22-rdf-syntax-ns#" xmlns:sodipodi="http://sodipodi.sourceforge.net/DTD/sodipodi-0.dtd" xmlns:svg="http://www.w3.org/2000/svg"
	 xmlns="http://www.w3.org/2000/svg" xmlns:xlink="http://www.w3.org/1999/xlink" x="0px" y="0px" viewBox="0 0 17 17"
	 style="enable-background:new 0 0 17 17;" xml:space="preserve">
<style type="text/css">
	.st0{fill:none;stroke:#404040;stroke-width:2;stroke-linecap:square;stroke-miterlimit:3;}
	.st1{fill:#EBEBEB;}
</style>
<sodipodi:namedview  bordercolor="#666666" borderopacity="1" fit-margin-left="0" gridtolerance="10" guidetolerance="10" id="namedview13" inkscape:current-layer="svg2" inkscape:cx="2.5762712" inkscape:cy="8.9796988" inkscape:pageopacity="0" inkscape:pageshadow="2" inkscape:window-height="601" inkscape:window-maximized="0" inkscape:window-width="1233" inkscape:window-x="0" inkscape:window-y="0" inkscape:zoom="13.882353" objecttolerance="10" pagecolor="#ffffff" showgrid="false">
	</sodipodi:namedview>
<g id="g7" transform="translate(-2,0)">
	<path id="path9" inkscape:connector-curvature="0" class="st0" d="M12,15H9l1.5-2L12,15z M8,6h5v5H8V6z M15,8.5L17,7v3L15,8.5z
		 M6,8.5L4,7v3L6,8.5z M10.5,4L9,2h3L10.5,4z"/>
	<path id="path11" inkscape:connector-curvature="0" class="st1" d="M12,15H9l1.5-2L12,15z M8,6h5v5H8V6z M15,8.5L17,7v3L15,8.5z
		 M6,8.5L4,7v3L6,8.5z M10.5,4L9,2h3L10.5,4z"/>
</g>
</svg>
