<?xml version="1.0" encoding="utf-8"?>
<!-- Generator: Adobe Illustrator 21.0.2, SVG Export Plug-In . SVG Version: 6.00 Build 0)  -->
<svg version="1.1"
	 id="svg2" inkscape:version="0.91 r13725" sodipodi:docname="folder_open.svg" xmlns:cc="http://creativecommons.org/ns#" xmlns:dc="http://purl.org/dc/elements/1.1/" xmlns:inkscape="http://www.inkscape.org/namespaces/inkscape" xmlns:rdf="http://www.w3.org/1999/02/22-rdf-syntax-ns#" xmlns:sodipodi="http://sodipodi.sourceforge.net/DTD/sodipodi-0.dtd" xmlns:svg="http://www.w3.org/2000/svg"
	 xmlns="http://www.w3.org/2000/svg" xmlns:xlink="http://www.w3.org/1999/xlink" x="0px" y="0px" viewBox="0 0 21 17"
	 style="enable-background:new 0 0 21 17;" xml:space="preserve">
<style type="text/css">
	.st0{fill:none;}
	.st1{fill:#FFFFFF;}
	.st2{fill:#242424;}
	.st3{fill:#FFA200;}
</style>
<sodipodi:namedview  bordercolor="#666666" borderopacity="1" gridtolerance="10" guidetolerance="10" id="namedview14" inkscape:current-layer="svg2" inkscape:cx="10.5" inkscape:cy="8.5" inkscape:pageopacity="0" inkscape:pageshadow="2" inkscape:window-height="500" inkscape:window-maximized="0" inkscape:window-width="1109" inkscape:window-x="0" inkscape:window-y="0" inkscape:zoom="13.882353" objecttolerance="10" pagecolor="#ffffff" showgrid="false">
	</sodipodi:namedview>
<rect id="rect4_1_" y="0" class="st0" width="21" height="17"/>
<path id="path6_1_" inkscape:connector-curvature="0" class="st1" d="M3.3,3.4h3.9l0.5,1.8h5l1.9,8.2H5.4L3.3,3.4L3.3,3.4z"/>
<path id="path8_1_" inkscape:connector-curvature="0" class="st2" d="M7.9,5h6l2.1,9H5L2.7,3h4.7L7.9,5z M3.8,4l2.1,9h9L13,6H7
	L6.5,4H3.8L3.8,4z"/>
<path id="path10_1_" inkscape:connector-curvature="0" class="st3" d="M18.6,5.6H8.4l-2.2,7.9h9.6C15.7,13.4,18.6,5.6,18.6,5.6z"/>
<path id="path12_1_" inkscape:connector-curvature="0" class="st2" d="M15.9,14H5.4l2.5-9H19L15.9,14z M8.7,6l-1.9,7h8.4l2.6-7H8.7z
	"/>
<g>
	<polygon class="st2" points="12,10 9.4,10 9.7,9 12.3,9 	"/>
	<g>
		<polygon class="st2" points="11,11.5 15,9.5 12.2,7.5 		"/>
	</g>
</g>
</svg>
