<?xml version="1.0" encoding="utf-8"?>
<!-- Generator: Adobe Illustrator 21.0.2, SVG Export Plug-In . SVG Version: 6.00 Build 0)  -->
<svg version="1.1"
	 id="svg2" inkscape:version="0.91 r13725" sodipodi:docname="fx_on.svg" xmlns:cc="http://creativecommons.org/ns#" xmlns:dc="http://purl.org/dc/elements/1.1/" xmlns:inkscape="http://www.inkscape.org/namespaces/inkscape" xmlns:rdf="http://www.w3.org/1999/02/22-rdf-syntax-ns#" xmlns:sodipodi="http://sodipodi.sourceforge.net/DTD/sodipodi-0.dtd" xmlns:svg="http://www.w3.org/2000/svg"
	 xmlns="http://www.w3.org/2000/svg" xmlns:xlink="http://www.w3.org/1999/xlink" x="0px" y="0px" viewBox="0 0 17 17"
	 style="enable-background:new 0 0 17 17;" xml:space="preserve">
<style type="text/css">
	.st0{fill:none;}
	.st1{fill:none;stroke:#404040;stroke-width:2;stroke-miterlimit:3;}
	.st2{fill:#FFFFFF;}
</style>
<sodipodi:namedview  bordercolor="#666666" borderopacity="1" gridtolerance="10" guidetolerance="10" id="namedview11" inkscape:current-layer="svg2" inkscape:cx="-0.44915254" inkscape:cy="8.5" inkscape:pageopacity="0" inkscape:pageshadow="2" inkscape:window-height="480" inkscape:window-maximized="0" inkscape:window-width="796" inkscape:window-x="0" inkscape:window-y="0" inkscape:zoom="13.882353" objecttolerance="10" pagecolor="#ffffff" showgrid="false">
	</sodipodi:namedview>
<rect id="rect4" x="-2" y="0" class="st0" width="21" height="17"/>
<g id="Layer1">
	<path id="path7" inkscape:connector-curvature="0" class="st1" d="M8,4h0.2L10,6.5L11.8,4h2.7l-3.3,4.5l3.2,4.5h-2.5l-2-2.5l-2,2.5
		H5.5L9,8.5L7,6H3v1h4v2H3v4H1V4H8z"/>
	<path id="path9" inkscape:connector-curvature="0" class="st2" d="M8,4h0.2L10,6.5L11.8,4h2.7l-3.3,4.5l3.2,4.5h-2.5l-2-2.5l-2,2.5
		H5.5L9,8.5L7,6H3v1h4v2H3v4H1V4H8z"/>
</g>
</svg>
