<?xml version="1.0" encoding="UTF-8" standalone="no"?>
<!DOCTYPE svg PUBLIC "-//W3C//DTD SVG 1.1//EN" "http://www.w3.org/Graphics/SVG/1.1/DTD/svg11.dtd">
<svg width="11px" height="10px" version="1.1" xmlns="http://www.w3.org/2000/svg" xmlns:xlink="http://www.w3.org/1999/xlink" xml:space="preserve" xmlns:serif="http://www.serif.com/" style="fill-rule:evenodd;clip-rule:evenodd;stroke-linecap:round;stroke-linejoin:round;stroke-miterlimit:1.5;">
    <g transform="matrix(0.909091,0,0,1,-350,-299.5)">
        <g transform="matrix(0.825,0,0,0.875,69.3,39.5)">
            <path d="M390.667,298.286L396,304L384,304L389.333,298.286L390.667,298.286Z" style="fill:rgb(235,235,235);stroke:black;stroke-width:2.45px;"/>
        </g>
        <g transform="matrix(0.825,0,0,1,69.3,0.5)">
            <rect x="384" y="305" width="12" height="3" style="fill:rgb(235,235,235);stroke:black;stroke-width:2.26px;"/>
        </g>
    </g>
    <g transform="matrix(0.909091,0,0,1,-350,-299.5)">
        <g transform="matrix(0.825,0,0,0.875,69.3,39.5)">
            <path d="M390.667,298.286L396,304L384,304L389.333,298.286L390.667,298.286Z" style="fill:rgb(235,235,235);"/>
        </g>
        <g transform="matrix(0.825,0,0,1,69.3,0.5)">
            <rect x="384" y="305" width="12" height="3" style="fill:rgb(235,235,235);"/>
        </g>
    </g>
</svg>
