<?xml version="1.0" encoding="UTF-8" standalone="no"?>
<!DOCTYPE svg PUBLIC "-//W3C//DTD SVG 1.1//EN" "http://www.w3.org/Graphics/SVG/1.1/DTD/svg11.dtd">
<svg width="11px" height="8px" viewBox="0 0 11 8" version="1.1" xmlns="http://www.w3.org/2000/svg" xmlns:xlink="http://www.w3.org/1999/xlink" xml:space="preserve" xmlns:serif="http://www.serif.com/" style="fill-rule:evenodd;clip-rule:evenodd;stroke-linejoin:round;stroke-miterlimit:2;">
    <g transform="matrix(0.9,0,0,1,1,-1.11022e-16)">
        <path d="M5,1C5,1 8.952,4.556 9.829,5.346C9.938,5.445 10,5.578 10,5.718C10,5.922 10,6.235 10,6.501C10,6.776 9.752,7 9.445,7C7.695,7 2.305,7 0.555,7C0.248,7 0,6.776 0,6.501C-0,6.235 -0,5.922 -0,5.718C-0,5.578 0.062,5.445 0.171,5.346C1.048,4.556 5,1 5,1Z" style="fill:rgb(235,235,235);"/>
    </g>
    <g transform="matrix(0.9,0,0,1,1,-1.11022e-16)">
        <path d="M5.786,0.293C5.352,-0.098 4.648,-0.098 4.214,0.293C4.214,0.293 0.263,3.849 -0.615,4.639C-0.932,4.925 -1.111,5.313 -1.111,5.718L-1.111,6.501C-1.111,7.329 -0.365,8 0.555,8C2.305,8 7.695,8 9.445,8C10.365,8 11.111,7.329 11.111,6.501L11.111,5.718C11.111,5.313 10.932,4.925 10.615,4.639C9.737,3.849 5.786,0.293 5.786,0.293ZM5,1C5,1 8.952,4.556 9.829,5.346C9.938,5.445 10,5.578 10,5.718C10,5.922 10,6.235 10,6.501C10,6.776 9.752,7 9.445,7C7.695,7 2.305,7 0.555,7C0.248,7 0,6.776 0,6.501C-0,6.235 -0,5.922 -0,5.718C-0,5.578 0.062,5.445 0.171,5.346C1.048,4.556 5,1 5,1Z"/>
    </g>
</svg>