<?xml version="1.0" encoding="UTF-8" standalone="no"?><!DOCTYPE svg PUBLIC "-//W3C//DTD SVG 1.1//EN" "http://www.w3.org/Graphics/SVG/1.1/DTD/svg11.dtd"><svg width="100%" height="100%" viewBox="0 0 18 18" version="1.1" xmlns="http://www.w3.org/2000/svg" xmlns:xlink="http://www.w3.org/1999/xlink" xml:space="preserve" style="fill-rule:evenodd;clip-rule:evenodd;stroke-linejoin:round;stroke-miterlimit:1.41421;"><rect x="0" y="0" width="18" height="18" style="fill:none;"/><path d="M17,2.28c0,-0.706 -0.574,-1.28 -1.28,-1.28l-13.44,0c-0.706,0 -1.28,0.574 -1.28,1.28l0,13.44c0,0.706 0.574,1.28 1.28,1.28l13.44,0c0.706,0 1.28,-0.574 1.28,-1.28l0,-13.44l0,0Z" style="fill:#7ec9dc;"/><path d="M17,14l0,2l-16,0l0,-2l16,0Zm-16,-4l16,0l0,2l-16,0l0,-2Zm0,-4l16,0l0,2l-16,0l0,-2Zm0,-4l16,0l0,2l-16,0l0,-2Z" style="fill:#2c88a0;"/><path d="M8,9.855c-1.445,-0.431 -2.5,-1.771 -2.5,-3.355c0,-1.932 1.568,-3.5 3.5,-3.5c1.932,0 3.5,1.568 3.5,3.5c0,1.584 -1.055,2.924 -2.5,3.355l0,2.145l2,0l0,2l-2,0l0,1l-2,0l0,-5.145Zm1,-1.355c1.104,0 2,-0.896 2,-2c0,-1.104 -0.896,-2 -2,-2c-1.104,0 -2,0.896 -2,2c0,1.104 0.896,2 2,2Z" style="fill:#f5f5f5;"/></svg>