<?xml version="1.0" encoding="UTF-8" standalone="no"?>
<!DOCTYPE svg PUBLIC "-//W3C//DTD SVG 1.1//EN" "http://www.w3.org/Graphics/SVG/1.1/DTD/svg11.dtd">
<svg width="18px" height="18px" version="1.1" xmlns="http://www.w3.org/2000/svg" xmlns:xlink="http://www.w3.org/1999/xlink" xml:space="preserve" xmlns:serif="http://www.serif.com/" style="fill-rule:evenodd;clip-rule:evenodd;">
    <g transform="matrix(-0.122799,0.992432,-0.992432,-0.122799,301.596,-158.186)">
        <g id="g5436">
            <g id="use4999">
                <g id="path4747" transform="matrix(1,0,0,1,-4.64425e-06,9.62864e-07)">
                    <path d="M204.475,262.975C203.564,262.988 202.694,263.356 202.051,264C200.962,265.091 200.716,266.78 201.449,268.137L195.686,273.9L197.1,275.314L197.631,274.783L199.576,276.729L200.637,275.668L198.691,273.723L199.752,272.662L201.697,274.607L202.758,273.547L200.813,271.602L202.861,269.553C204.219,270.286 205.909,270.04 207,268.949C208.357,267.592 208.357,265.358 207,264C206.332,263.331 205.42,262.961 204.475,262.975ZM204.555,264.475C205.075,264.482 205.572,264.693 205.939,265.061C206.715,265.836 206.715,267.113 205.939,267.889C205.164,268.664 203.887,268.664 203.111,267.889C202.336,267.113 202.336,265.836 203.111,265.061C203.493,264.678 204.014,264.467 204.555,264.475Z" style="fill:none;fill-rule:nonzero;stroke:black;stroke-opacity:0.7;stroke-width:2px;"/>
                </g>
                <path id="path4728" d="M204.475,262.975C203.564,262.988 202.694,263.356 202.051,264C200.962,265.091 200.716,266.78 201.449,268.137L195.686,273.9L197.1,275.314L197.631,274.783L199.576,276.729L200.637,275.668L198.691,273.723L199.752,272.662L201.697,274.607L202.758,273.547L200.813,271.602L202.861,269.553C204.219,270.286 205.909,270.04 207,268.949C208.357,267.592 208.357,265.358 207,264C206.332,263.331 205.42,262.961 204.475,262.975ZM204.555,264.475C205.075,264.482 205.572,264.693 205.939,265.061C206.715,265.836 206.715,267.113 205.939,267.889C205.164,268.664 203.887,268.664 203.111,267.889C202.336,267.113 202.336,265.836 203.111,265.061C203.493,264.678 204.014,264.467 204.555,264.475Z" style="fill:rgb(235,235,235);fill-rule:nonzero;"/>
            </g>
        </g>
    </g>
</svg>
