<?xml version="1.0" encoding="utf-8"?>
<!-- Generator: Adobe Illustrator 21.0.2, SVG Export Plug-In . SVG Version: 6.00 Build 0)  -->
<svg version="1.1"
	 id="svg2" inkscape:version="0.91 r13725" sodipodi:docname="keyframe_modified.svg" xmlns:cc="http://creativecommons.org/ns#" xmlns:dc="http://purl.org/dc/elements/1.1/" xmlns:inkscape="http://www.inkscape.org/namespaces/inkscape" xmlns:rdf="http://www.w3.org/1999/02/22-rdf-syntax-ns#" xmlns:sodipodi="http://sodipodi.sourceforge.net/DTD/sodipodi-0.dtd" xmlns:svg="http://www.w3.org/2000/svg"
	 xmlns="http://www.w3.org/2000/svg" xmlns:xlink="http://www.w3.org/1999/xlink" x="0px" y="0px" viewBox="0 0 15 15"
	 style="enable-background:new 0 0 15 15;" xml:space="preserve">
<style type="text/css">
	.st0{fill:#F3FF75;}
	.st1{fill:#ACA43E;}
	.st2{fill:#313131;}
	.st3{fill:#FBFFCB;}
	.st4{fill-opacity:0.2314;}
</style>
<sodipodi:namedview  bordercolor="#666666" borderopacity="1" gridtolerance="10" guidetolerance="10" id="namedview19" inkscape:current-layer="svg2" inkscape:cx="7.5" inkscape:cy="7.5" inkscape:pageopacity="0" inkscape:pageshadow="2" inkscape:window-height="500" inkscape:window-maximized="0" inkscape:window-width="1109" inkscape:window-x="0" inkscape:window-y="0" inkscape:zoom="15.733333" objecttolerance="10" pagecolor="#ffffff" showgrid="false">
	</sodipodi:namedview>
<g id="path9" inkscape:connector-curvature="0">
	<path class="st0" d="M1.2,14.5c-0.4,0-0.7-0.3-0.7-0.7V1.2c0-0.4,0.3-0.7,0.7-0.7h12.6c0.4,0,0.7,0.3,0.7,0.7v12.6
		c0,0.4-0.3,0.7-0.7,0.7H1.2z"/>
	<path class="st1" d="M13.8,1C13.9,1,14,1.1,14,1.2v12.6c0,0.1-0.1,0.2-0.2,0.2H1.2C1.1,14,1,13.9,1,13.8V1.2C1,1.1,1.1,1,1.2,1
		H13.8 M13.8,0H1.2C0.5,0,0,0.5,0,1.2v12.6C0,14.5,0.5,15,1.2,15h12.6c0.7,0,1.2-0.5,1.2-1.2V1.2C15,0.5,14.5,0,13.8,0L13.8,0z"/>
</g>
<path class="st2" d="M8,13H6V7.8C4.8,7.4,4,6.3,4,5c0-1.7,1.3-3,3-3s3,1.3,3,3c0,1.3-0.8,2.4-2,2.8V10h2v2H8V13z"/>
<circle class="st0" cx="7" cy="5" r="1.5"/>
<path id="path15" inkscape:connector-curvature="0" class="st3" d="M1,13h12V1h1v13H1V13z"/>
<path id="path17" inkscape:connector-curvature="0" class="st4" d="M2,13H1V1h12v1H2V13z"/>
</svg>
