<?xml version="1.0" encoding="UTF-8" standalone="no"?><!DOCTYPE svg PUBLIC "-//W3C//DTD SVG 1.1//EN" "http://www.w3.org/Graphics/SVG/1.1/DTD/svg11.dtd"><svg width="100%" height="100%" viewBox="0 0 18 18" version="1.1" xmlns="http://www.w3.org/2000/svg" xmlns:xlink="http://www.w3.org/1999/xlink" xml:space="preserve" style="fill-rule:evenodd;clip-rule:evenodd;stroke-linejoin:round;stroke-miterlimit:1.41421;"><rect x="0" y="0" width="18" height="18" style="fill:none;"/><g><path d="M11.283,1.751c0.184,0.009 0.365,0.034 0.542,0.084c0.348,0.1 0.67,0.285 0.931,0.536c0.1,0.096 0.188,0.201 0.269,0.312c0.083,0.121 0.165,0.242 0.243,0.366c0.104,0.173 0.194,0.352 0.266,0.539c0.131,0.339 0.2,0.695 0.217,1.056c0.022,0.785 0.002,1.571 0.002,2.356c-0.004,0.122 -0.029,0.239 -0.086,0.349c-0.042,0.08 -0.099,0.152 -0.167,0.212c-0.056,0.05 -0.12,0.092 -0.189,0.123c-0.311,0.14 -0.688,0.047 -0.898,-0.221c-0.096,-0.122 -0.145,-0.265 -0.159,-0.418c-0.024,-0.792 0.033,-1.586 -0.004,-2.378c-0.02,-0.308 -0.114,-0.599 -0.278,-0.86c-0.063,-0.098 -0.124,-0.197 -0.196,-0.289c-0.136,-0.163 -0.327,-0.258 -0.539,-0.268c-1.164,-0.018 -2.329,-0.053 -3.491,0.001c-0.219,0.018 -0.413,0.125 -0.543,0.302c-0.073,0.105 -0.146,0.212 -0.212,0.322c-0.149,0.258 -0.229,0.543 -0.238,0.841c-0.007,0.761 0,1.523 0,2.284c-0.004,0.122 -0.029,0.239 -0.086,0.349c-0.042,0.08 -0.099,0.152 -0.167,0.212c-0.255,0.227 -0.642,0.25 -0.923,0.056c-0.062,-0.043 -0.118,-0.095 -0.164,-0.154c-0.096,-0.122 -0.145,-0.265 -0.159,-0.418c-0.024,-0.805 -0.021,-1.611 0.001,-2.416c0.021,-0.455 0.129,-0.899 0.331,-1.308c0.112,-0.225 0.253,-0.432 0.395,-0.639c0.041,-0.056 0.041,-0.055 0.084,-0.11c0.088,-0.105 0.182,-0.204 0.286,-0.293c0.259,-0.219 0.567,-0.378 0.895,-0.461c0.156,-0.04 0.315,-0.059 0.475,-0.067c1.187,-0.019 2.375,-0.019 3.562,0l0,0Z" style="fill:none;stroke:#404040;stroke-width:1.5px;"/><path d="M11.283,1.751c0.184,0.009 0.365,0.034 0.542,0.084c0.348,0.1 0.67,0.285 0.931,0.536c0.1,0.096 0.188,0.201 0.269,0.312c0.083,0.121 0.165,0.242 0.243,0.366c0.104,0.173 0.194,0.352 0.266,0.539c0.131,0.339 0.2,0.695 0.217,1.056c0.022,0.785 0.002,1.571 0.002,2.356c-0.004,0.122 -0.029,0.239 -0.086,0.349c-0.042,0.08 -0.099,0.152 -0.167,0.212c-0.056,0.05 -0.12,0.092 -0.189,0.123c-0.311,0.14 -0.688,0.047 -0.898,-0.221c-0.096,-0.122 -0.145,-0.265 -0.159,-0.418c-0.024,-0.792 0.033,-1.586 -0.004,-2.378c-0.02,-0.308 -0.114,-0.599 -0.278,-0.86c-0.063,-0.098 -0.124,-0.197 -0.196,-0.289c-0.136,-0.163 -0.327,-0.258 -0.539,-0.268c-1.164,-0.018 -2.329,-0.053 -3.491,0.001c-0.219,0.018 -0.413,0.125 -0.543,0.302c-0.073,0.105 -0.146,0.212 -0.212,0.322c-0.149,0.258 -0.229,0.543 -0.238,0.841c-0.007,0.761 0,1.523 0,2.284c-0.004,0.122 -0.029,0.239 -0.086,0.349c-0.042,0.08 -0.099,0.152 -0.167,0.212c-0.255,0.227 -0.642,0.25 -0.923,0.056c-0.062,-0.043 -0.118,-0.095 -0.164,-0.154c-0.096,-0.122 -0.145,-0.265 -0.159,-0.418c-0.024,-0.805 -0.021,-1.611 0.001,-2.416c0.021,-0.455 0.129,-0.899 0.331,-1.308c0.112,-0.225 0.253,-0.432 0.395,-0.639c0.041,-0.056 0.041,-0.055 0.084,-0.11c0.088,-0.105 0.182,-0.204 0.286,-0.293c0.259,-0.219 0.567,-0.378 0.895,-0.461c0.156,-0.04 0.315,-0.059 0.475,-0.067c1.187,-0.019 2.375,-0.019 3.562,0l0,0Z" style="fill:url(#_Linear1);fill-rule:nonzero;"/></g><rect x="4" y="8" width="11" height="8" style="fill:url(#_Linear2);"/><path d="M15.065,7.002l0.066,0.007l0.064,0.01l0.064,0.015l0.062,0.019l0.062,0.023l0.059,0.027l0.058,0.031l0.056,0.035l0.053,0.038l0.05,0.041l0.048,0.045l0.045,0.048l0.041,0.05l0.038,0.053l0.035,0.056l0.031,0.058l0.027,0.059l0.023,0.062l0.019,0.062l0.015,0.064l0.01,0.064l0.007,0.066l0.002,0.065l0,8l-0.002,0.065l-0.007,0.066l-0.01,0.064l-0.015,0.064l-0.019,0.062l-0.023,0.062l-0.027,0.059l-0.031,0.058l-0.035,0.056l-0.038,0.053l-0.041,0.05l-0.045,0.048l-0.048,0.045l-0.05,0.041l-0.053,0.038l-0.056,0.035l-0.058,0.031l-0.059,0.027l-0.062,0.023l-0.062,0.019l-0.064,0.015l-0.064,0.01l-0.066,0.007l-0.065,0.002l-11,0l-0.065,-0.002l-0.066,-0.007l-0.064,-0.01l-0.064,-0.015l-0.062,-0.019l-0.062,-0.023l-0.059,-0.027l-0.058,-0.031l-0.056,-0.035l-0.053,-0.038l-0.05,-0.041l-0.048,-0.045l-0.045,-0.048l-0.041,-0.05l-0.038,-0.053l-0.035,-0.056l-0.031,-0.058l-0.027,-0.059l-0.023,-0.062l-0.019,-0.062l-0.015,-0.064l-0.01,-0.064l-0.007,-0.066l-0.002,-0.065l0,-8l0.002,-0.065l0.007,-0.066l0.01,-0.064l0.015,-0.064l0.019,-0.062l0.023,-0.062l0.027,-0.059l0.031,-0.058l0.035,-0.056l0.038,-0.053l0.041,-0.05l0.045,-0.048l0.048,-0.045l0.05,-0.041l0.053,-0.038l0.056,-0.035l0.058,-0.031l0.059,-0.027l0.062,-0.023l0.062,-0.019l0.064,-0.015l0.064,-0.01l0.066,-0.007l0.065,-0.002l11,0l0.065,0.002Zm-11.065,0.998l0,8l11,0l0,-8l-11,0Z" style="fill:#404040;"/><path d="M8.5,10.451c0,-0.12 0.047,-0.234 0.132,-0.319c0.085,-0.085 0.199,-0.132 0.319,-0.132c0.321,0 0.752,0 1.078,0c0.26,0 0.471,0.211 0.471,0.471c0,0.31 0,0.714 0,1.029c0,0.133 -0.053,0.26 -0.146,0.354c-0.094,0.093 -0.221,0.146 -0.354,0.146c0,0 0,0.937 0,1.528c0,0.125 -0.05,0.245 -0.138,0.334c-0.089,0.088 -0.209,0.138 -0.334,0.138c-0.002,0 -0.005,0 -0.008,0c-0.287,0 -0.52,-0.233 -0.52,-0.52c0,-0.593 0,-1.48 0,-1.48c-0.133,0 -0.26,-0.053 -0.354,-0.146c-0.093,-0.094 -0.146,-0.221 -0.146,-0.354c0,-0.322 0,-0.737 0,-1.049l0,0Z" style="fill:#404040;"/><defs><linearGradient id="_Linear1" x1="0" y1="0" x2="1" y2="0" gradientUnits="userSpaceOnUse" gradientTransform="matrix(4.28626e-16,-7,7,4.28626e-16,5.23722,8)"><stop offset="0" style="stop-color:#747474;stop-opacity:1"/><stop offset="0.47" style="stop-color:#ccc;stop-opacity:1"/><stop offset="1" style="stop-color:#ccc;stop-opacity:1"/></linearGradient><linearGradient id="_Linear2" x1="0" y1="0" x2="1" y2="0" gradientUnits="userSpaceOnUse" gradientTransform="matrix(11,0,0,11,4,12)"><stop offset="0" style="stop-color:#a2a2a2;stop-opacity:1"/><stop offset="0.5" style="stop-color:#d8d8d8;stop-opacity:1"/><stop offset="1" style="stop-color:#a2a2a2;stop-opacity:1"/></linearGradient></defs></svg>