<?xml version="1.0" encoding="UTF-8" standalone="no"?>
<svg
   xmlns:dc="http://purl.org/dc/elements/1.1/"
   xmlns:cc="http://creativecommons.org/ns#"
   xmlns:rdf="http://www.w3.org/1999/02/22-rdf-syntax-ns#"
   xmlns:svg="http://www.w3.org/2000/svg"
   xmlns="http://www.w3.org/2000/svg"
   id="svg4489"
   version="1.1"
   viewBox="0 0 18 18"
   height="100%"
   width="100%">
  <defs
     id="defs4483" />
  <metadata
     id="metadata4486">
    <rdf:RDF>
      <cc:Work
         rdf:about="">
        <dc:format>image/svg+xml</dc:format>
        <dc:type
           rdf:resource="http://purl.org/dc/dcmitype/StillImage" />
        <dc:title></dc:title>
      </cc:Work>
    </rdf:RDF>
  </metadata>
  <g
     transform="translate(0,-1106.5197)"
     id="layer1" />
  <rect
     x="0"
     y="17.000002"
     width="1.0000001"
     height="1.0000001"
     style="clip-rule:evenodd;fill:none;fill-rule:evenodd;stroke-width:0.05555556;stroke-linejoin:round;stroke-miterlimit:1.41420996"
     id="rect2" />
  <path
     style="clip-rule:evenodd;fill:#303030;fill-opacity:0.78431373;fill-rule:evenodd;stroke:#303030;stroke-width:2;stroke-linecap:butt;stroke-linejoin:round;stroke-miterlimit:1.41420996;stroke-dasharray:none;stroke-opacity:1;paint-order:markers stroke fill"
     d="M 12.5,2 C 10.567766,1.9999997 9.0010783,3.565813 9,5.4980469 V 7 h 1 V 5.4980469 C 10.001078,4.118098 11.120051,2.9999996 12.5,3 c 1.379949,-4e-7 2.498922,1.118098 2.5,2.4980469 V 7 h 1 V 5.4980469 C 15.998922,3.565813 14.432234,1.9999997 12.5,2 Z M 3,8 v 7 h 9 V 8 Z"
     id="path4509" />
  <path
     id="path4491"
     d="m 12.500001,2.0000002 c -1.932234,-3e-7 -3.4989219,1.5658129 -3.5000003,3.4980469 V 7.0000006 H 10.000001 V 5.4980471 c 0.0011,-1.379949 1.12005,-2.4980473 2.5,-2.4980469 1.37995,-4e-7 2.498922,1.1180979 2.5,2.4980469 v 1.5019535 h 1 V 5.4980471 c -0.0011,-1.932234 -1.567766,-3.4980472 -3.5,-3.4980469 z"
     style="clip-rule:evenodd;fill:#e6e6e6;fill-opacity:1;fill-rule:evenodd;stroke:none;stroke-width:2.00000024;stroke-linecap:butt;stroke-linejoin:round;stroke-miterlimit:1.41420996;stroke-dasharray:none;stroke-opacity:1;paint-order:markers stroke fill" />
  <path
     id="path4493"
     d="M 3.0000002,8.0000006 V 15.000001 H 12.000001 V 8.0000006 Z"
     style="clip-rule:evenodd;fill:#e6e6e6;fill-opacity:1;fill-rule:evenodd;stroke:none;stroke-width:2.00000024;stroke-linecap:butt;stroke-linejoin:round;stroke-miterlimit:1.41420996;stroke-dasharray:none;stroke-opacity:1;paint-order:markers stroke fill" />
  <circle
     r="1.5"
     cy="10.500001"
     cx="7.5"
     id="path820"
     style="fill:#303030;fill-opacity:1;stroke:none;stroke-width:2;stroke-linecap:round;stroke-linejoin:round;stroke-miterlimit:4;stroke-dasharray:none;stroke-opacity:1;paint-order:normal" />
  <rect
     y="11"
     x="6.749999"
     height="3"
     width="1.5"
     id="rect822"
     style="fill:#303030;fill-opacity:1;stroke:none;stroke-width:2;stroke-linecap:round;stroke-linejoin:round;stroke-miterlimit:4;stroke-dasharray:none;stroke-opacity:1;paint-order:normal" />
</svg>
