<?xml version="1.0" encoding="utf-8"?>
<!-- Generator: Adobe Illustrator 21.0.2, SVG Export Plug-In . SVG Version: 6.00 Build 0)  -->
<svg version="1.1"
	 id="svg2" inkscape:version="0.91 r13725" sodipodi:docname="magpie.svg" xmlns:cc="http://creativecommons.org/ns#" xmlns:dc="http://purl.org/dc/elements/1.1/" xmlns:inkscape="http://www.inkscape.org/namespaces/inkscape" xmlns:rdf="http://www.w3.org/1999/02/22-rdf-syntax-ns#" xmlns:sodipodi="http://sodipodi.sourceforge.net/DTD/sodipodi-0.dtd" xmlns:svg="http://www.w3.org/2000/svg"
	 xmlns="http://www.w3.org/2000/svg" xmlns:xlink="http://www.w3.org/1999/xlink" x="0px" y="0px" viewBox="0 0 60 60"
	 style="enable-background:new 0 0 60 60;" xml:space="preserve">
<style type="text/css">
	.st0{fill:#EBEBEB;}
	.st1{fill:#404040;}
	.st2{fill:#FFFFFF;}
</style>
<rect id="rect6" y="0" class="st0" width="60" height="60"/>
<path id="path8" inkscape:connector-curvature="0" class="st1" d="M60,60H0V0h60V60z M1,1v58h58V1H1z"/>
<path class="st2" d="M26.9,39.6H14c-2.6,0-4.6-2.1-4.6-4.6V17c0-2.6,2.1-4.6,4.6-4.6h32c2.5,0,4.6,2.1,4.6,4.6v18
	c0,2.5-2.1,4.6-4.6,4.6H32.5l-5.6,11.7V39.6z"/>
<path class="st1" d="M46,12.7c2.3,0,4.3,1.9,4.3,4.3v18c0,2.3-1.9,4.3-4.3,4.3H32.8h-0.5l-0.2,0.4l-4.8,10V40v-0.8h-0.8H14
	c-2.3,0-4.3-1.9-4.3-4.3V17c0-2.4,1.9-4.3,4.3-4.3H46 M46,12c-8.1,0-23.9,0-32,0c-2.8,0-5,2.3-5,5c0,5.1,0,12.9,0,18
	c0,2.8,2.2,5,5,5h12.5v13l6.3-13H46c2.8,0,5-2.2,5-5c0-5.1,0-12.9,0-18C51,14.2,48.8,12,46,12L46,12z"/>
</svg>
