<?xml version="1.0" encoding="utf-8"?>
<!-- Generator: Adobe Illustrator 21.0.2, SVG Export Plug-In . SVG Version: 6.00 Build 0)  -->
<svg version="1.1" xmlns="http://www.w3.org/2000/svg" xmlns:xlink="http://www.w3.org/1999/xlink" x="0px" y="0px"
	 viewBox="0 0 17 17" style="enable-background:new 0 0 17 17;" xml:space="preserve">
<style type="text/css">
	.st0{fill:none;}
	.st1{fill:none;stroke:#404040;stroke-width:2;stroke-linecap:square;stroke-miterlimit:3;}
	.st2{fill:#FFFFFF;}
	.st3{fill:none;stroke:#404040;stroke-width:2;stroke-linecap:square;stroke-miterlimit:1.4142;}
	.st4{display:none;}
	.st5{display:inline;}
	.st6{fill:#E6E6E6;}
	.st7{fill:#EBEBEB;}
</style>
<g id="svg2" inkscape:version="0.91 r13725" sodipodi:docname="maximizenodes_on.svg" xmlns:cc="http://creativecommons.org/ns#" xmlns:dc="http://purl.org/dc/elements/1.1/" xmlns:inkscape="http://www.inkscape.org/namespaces/inkscape" xmlns:rdf="http://www.w3.org/1999/02/22-rdf-syntax-ns#" xmlns:sodipodi="http://sodipodi.sourceforge.net/DTD/sodipodi-0.dtd" xmlns:svg="http://www.w3.org/2000/svg">
	
		<sodipodi:namedview  bordercolor="#666666" borderopacity="1" gridtolerance="10" guidetolerance="10" id="namedview19" inkscape:current-layer="svg2" inkscape:cx="-0.44915254" inkscape:cy="8.5" inkscape:pageopacity="0" inkscape:pageshadow="2" inkscape:window-height="480" inkscape:window-maximized="0" inkscape:window-width="796" inkscape:window-x="0" inkscape:window-y="0" inkscape:zoom="13.882353" objecttolerance="10" pagecolor="#ffffff" showgrid="false">
		</sodipodi:namedview>
	<rect id="rect4" x="-2" y="0" class="st0" width="21" height="17"/>
	<g id="Layer1">
		<g id="g7">
			<g id="g9">
				<path id="path11" inkscape:connector-curvature="0" class="st1" d="M12,9L8.5,5L5,9H12z"/>
				<path id="path13" inkscape:connector-curvature="0" class="st2" d="M12,9L8.5,5L5,9H12z"/>
			</g>
		</g>
		<rect id="rect15" x="1" y="11" class="st3" width="15" height="2"/>
		<rect id="rect17" x="1" y="11" class="st2" width="15" height="2"/>
	</g>
</g>
<g id="レイヤー_2" class="st4">
	<g id="Layer1_1_" class="st5">
		<g id="g7_1_">
			<path id="path9" inkscape:connector-curvature="0" class="st1" d="M16,10.5h-1v-1h1V10.5z M2,10.5H1v-1h1V10.5z M12,9.5l-3.5-4
				L5,9.5H12z M16,8.5h-1v-1h1V8.5z M2,8.5H1v-1h1V8.5z M16,6.5h-1v-1h1V6.5z M2,6.5H1v-1h1V6.5z M2,4.5H1v-1h1V4.5z M4,4.5H3v-1h1
				V4.5z M6,4.5H5v-1h1V4.5z M8,4.5H7v-1h1V4.5z M10,4.5H9v-1h1V4.5z M12,4.5h-1v-1h1V4.5z M14,4.5h-1v-1h1V4.5z M16,4.5h-1v-1h1
				V4.5z"/>
			<path id="path11_1_" inkscape:connector-curvature="0" class="st6" d="M16,10.5h-1v-1h1V10.5z M2,10.5H1v-1h1V10.5z M12,9.5
				l-3.5-4L5,9.5H12z M16,8.5h-1v-1h1V8.5z M2,8.5H1v-1h1V8.5z M16,6.5h-1v-1h1V6.5z M2,6.5H1v-1h1V6.5z M2,4.5H1v-1h1V4.5z M4,4.5
				H3v-1h1V4.5z M6,4.5H5v-1h1V4.5z M8,4.5H7v-1h1V4.5z M10,4.5H9v-1h1V4.5z M12,4.5h-1v-1h1V4.5z M14,4.5h-1v-1h1V4.5z M16,4.5h-1
				v-1h1V4.5z"/>
		</g>
		<rect id="rect13" x="1" y="11.5" class="st3" width="15" height="2"/>
		<rect id="rect15_1_" x="1" y="11.5" class="st7" width="15" height="2"/>
	</g>
</g>
<g id="レイヤー_3">
</g>
</svg>
