<?xml version="1.0" encoding="utf-8"?>
<!-- Generator: Adobe Illustrator 21.0.2, SVG Export Plug-In . SVG Version: 6.00 Build 0)  -->
<svg version="1.1"
	 id="svg2" inkscape:version="0.91 r13725" sodipodi:docname="maximizenodes_off.svg" xmlns:cc="http://creativecommons.org/ns#" xmlns:dc="http://purl.org/dc/elements/1.1/" xmlns:inkscape="http://www.inkscape.org/namespaces/inkscape" xmlns:rdf="http://www.w3.org/1999/02/22-rdf-syntax-ns#" xmlns:sodipodi="http://sodipodi.sourceforge.net/DTD/sodipodi-0.dtd" xmlns:svg="http://www.w3.org/2000/svg"
	 xmlns="http://www.w3.org/2000/svg" xmlns:xlink="http://www.w3.org/1999/xlink" x="0px" y="0px" viewBox="0 0 17 17"
	 style="enable-background:new 0 0 17 17;" xml:space="preserve">
<style type="text/css">
	.st0{fill:none;}
	.st1{fill:none;stroke:#404040;stroke-width:2;stroke-linecap:square;stroke-miterlimit:3;}
	.st2{fill:#E6E6E6;}
	.st3{fill:none;stroke:#404040;stroke-width:2;stroke-linecap:square;stroke-miterlimit:1.4142;}
	.st4{fill:#EBEBEB;}
</style>
<sodipodi:namedview  bordercolor="#666666" borderopacity="1" gridtolerance="10" guidetolerance="10" id="namedview17" inkscape:current-layer="svg2" inkscape:cx="-0.44915254" inkscape:cy="8.5" inkscape:pageopacity="0" inkscape:pageshadow="2" inkscape:window-height="480" inkscape:window-maximized="0" inkscape:window-width="796" inkscape:window-x="0" inkscape:window-y="0" inkscape:zoom="13.882353" objecttolerance="10" pagecolor="#ffffff" showgrid="false">
	</sodipodi:namedview>
<rect id="rect4" x="-2" y="0" class="st0" width="21" height="17"/>
<g id="Layer1">
	<g id="g7">
		<path id="path9" inkscape:connector-curvature="0" class="st1" d="M16,10h-1V9h1V10z M2,10H1V9h1V10z M12,9L8.5,5L5,9H12z M16,8
			h-1V7h1V8z M2,8H1V7h1V8z M16,6h-1V5h1V6z M2,6H1V5h1V6z M2,4H1V3h1V4z M4,4H3V3h1V4z M6,4H5V3h1V4z M8,4H7V3h1V4z M10,4H9V3h1V4z
			 M12,4h-1V3h1V4z M14,4h-1V3h1V4z M16,4h-1V3h1V4z"/>
		<path id="path11" inkscape:connector-curvature="0" class="st2" d="M16,10h-1V9h1V10z M2,10H1V9h1V10z M12,9L8.5,5L5,9H12z M16,8
			h-1V7h1V8z M2,8H1V7h1V8z M16,6h-1V5h1V6z M2,6H1V5h1V6z M2,4H1V3h1V4z M4,4H3V3h1V4z M6,4H5V3h1V4z M8,4H7V3h1V4z M10,4H9V3h1V4z
			 M12,4h-1V3h1V4z M14,4h-1V3h1V4z M16,4h-1V3h1V4z"/>
	</g>
	<rect id="rect13" x="1" y="11" class="st3" width="15" height="2"/>
	<rect id="rect15" x="1" y="11" class="st4" width="15" height="2"/>
</g>
</svg>
