<?xml version="1.0" encoding="utf-8"?>
<!-- Generator: Adobe Illustrator 21.0.2, SVG Export Plug-In . SVG Version: 6.00 Build 0)  -->
<svg version="1.1"
	 id="svg2" inkscape:version="0.91 r13725" sodipodi:docname="newfolder.svg" xmlns:cc="http://creativecommons.org/ns#" xmlns:dc="http://purl.org/dc/elements/1.1/" xmlns:inkscape="http://www.inkscape.org/namespaces/inkscape" xmlns:rdf="http://www.w3.org/1999/02/22-rdf-syntax-ns#" xmlns:sodipodi="http://sodipodi.sourceforge.net/DTD/sodipodi-0.dtd" xmlns:svg="http://www.w3.org/2000/svg"
	 xmlns="http://www.w3.org/2000/svg" xmlns:xlink="http://www.w3.org/1999/xlink" x="0px" y="0px" viewBox="0 0 17 17"
	 style="enable-background:new 0 0 17 17;" xml:space="preserve">
<style type="text/css">
	.st0{fill:#FFFFFF;}
	.st1{fill:#242424;}
	.st2{fill:#FFA200;}
	.st3{fill:#89D185;}
	.st4{fill:#303030;}
</style>
<sodipodi:namedview  bordercolor="#666666" borderopacity="1" gridtolerance="10" guidetolerance="10" id="namedview18" inkscape:current-layer="svg2" inkscape:cx="10.5" inkscape:cy="8.5" inkscape:pageopacity="0" inkscape:pageshadow="2" inkscape:window-height="480" inkscape:window-maximized="0" inkscape:window-width="796" inkscape:window-x="0" inkscape:window-y="0" inkscape:zoom="13.882353" objecttolerance="10" pagecolor="#ffffff" showgrid="false">
	</sodipodi:namedview>
<g>
	<path id="path6" inkscape:connector-curvature="0" class="st0" d="M1.5,3.4h4.2l0.2,1.8h5l0.8,8.2H2.5L1.5,3.4
		C1.5,3.4,1.5,3.4,1.5,3.4z"/>
	<path id="path8" inkscape:connector-curvature="0" class="st1" d="M6.1,5h6l0.9,9h-11L0.9,3h5L6.1,5z M2,4L3,13h9l-0.7-7h-6L5,4H2
		C2,4,2,4,2,4z"/>
	<path id="path10" inkscape:connector-curvature="0" class="st2" d="M15.1,5.6H6l-2.2,7.9h9.6L15.1,5.6C15.1,5.6,15.1,5.6,15.1,5.6z
		"/>
	<path id="path12" inkscape:connector-curvature="0" class="st1" d="M13.6,14H3.1l2.5-9h9.9L13.6,14z M6.3,6l-1.9,7h8.4l1.5-7H6.3z"
		/>
	<path id="path14" inkscape:connector-curvature="0" class="st3" d="M10.1,11h2V9h1v2h2v1h-2v2h-1v-2h-2V11z"/>
	<path id="path16" inkscape:connector-curvature="0" class="st4" d="M14.1,10h2v3h-2v2h-3v-2h-2v-3h2V8h3V10z M12.1,9v2h-2v1h2v2h1
		v-2h2v-1h-2V9H12.1z"/>
</g>
</svg>
