<?xml version="1.0" encoding="UTF-8" standalone="no"?>
<svg
   xmlns:dc="http://purl.org/dc/elements/1.1/"
   xmlns:cc="http://creativecommons.org/ns#"
   xmlns:rdf="http://www.w3.org/1999/02/22-rdf-syntax-ns#"
   xmlns:svg="http://www.w3.org/2000/svg"
   xmlns="http://www.w3.org/2000/svg"
   id="svg23"
   style="fill-rule:evenodd;clip-rule:evenodd;stroke-linejoin:round;stroke-miterlimit:1.41421;"
   xml:space="preserve"
   version="1.1"
   viewBox="0 0 18 18"
   height="100%"
   width="100%"><metadata
     id="metadata27"><rdf:RDF><cc:Work
         rdf:about=""><dc:format>image/svg+xml</dc:format><dc:type
           rdf:resource="http://purl.org/dc/dcmitype/StillImage" /><dc:title></dc:title></cc:Work></rdf:RDF></metadata><rect
     id="rect2"
     style="fill:none;"
     height="18"
     width="18"
     y="0"
     x="0" /><path
     id="path4"
     style="fill:#ffffff;fill-opacity:1"
     d="M15,6l-11,0l0,4l3,3l8,0l0,-7Z" /><path
     id="path6"
     style="fill:#303030;fill-opacity:1"
     d="M16,5l0,9l-9.414,0l-3.586,-3.586l0,-5.414l13,0Zm-12,1l0,4l3,3l8,0l0,-7l-11,0Z" /><path
     id="path8"
     style="fill:#fff;"
     d="M7,10l-3,0l3,3l0,-3Z" /><path
     id="path10"
     style="fill:#303030;fill-opacity:1"
     d="M8,9l0,4l-1,0l0,-3l-4,0l0,-1l5,0Z" /><rect
     id="rect12"
     style="fill:#fff;"
     height="1"
     width="4"
     y="4"
     x="5" /><path
     id="path14"
     style="fill:#303030;fill-opacity:1"
     d="M10,6l-6,0l0,-3l6,0l0,3Zm-5,-2l0,1l4,0l0,-1l-4,0Z" /><defs
     id="defs21"><linearGradient
       gradientTransform="matrix(-4,5,-5,-4,10,9)"
       gradientUnits="userSpaceOnUse"
       y2="0"
       x2="1"
       y1="0"
       x1="0"
       id="_Linear1"><stop
         id="stop16"
         style="stop-color:#e6e6e6;stop-opacity:1"
         offset="0" /><stop
         id="stop18"
         style="stop-color:#989898;stop-opacity:1"
         offset="1" /></linearGradient></defs></svg>