<?xml version="1.0" encoding="UTF-8" standalone="no"?><!DOCTYPE svg PUBLIC "-//W3C//DTD SVG 1.1//EN" "http://www.w3.org/Graphics/SVG/1.1/DTD/svg11.dtd"><svg width="100%" height="100%" viewBox="0 0 18 18" version="1.1" xmlns="http://www.w3.org/2000/svg" xmlns:xlink="http://www.w3.org/1999/xlink" xml:space="preserve" style="fill-rule:evenodd;clip-rule:evenodd;stroke-linejoin:round;stroke-miterlimit:1.41421;"><rect x="0" y="0" width="18" height="18" style="fill:none;"/><path d="M15,6l-11,0l0,4l3,3l8,0l0,-7Z" style="fill:#fff;"/><path d="M16,5l0,9l-9.414,0l-3.586,-3.586l0,-5.414l13,0Zm-12,1l0,4l3,3l8,0l0,-7l-11,0Z" style="fill:#404040;"/><path d="M7,10l-3,0l3,3l0,-3Z" style="fill:#fff;"/><path d="M8,9l0,4l-1,0l0,-3l-4,0l0,-1l5,0Z" style="fill:#404040;"/><rect x="5" y="4" width="4" height="1" style="fill:#fff;"/><path d="M10,6l-6,0l0,-3l6,0l0,3Zm-5,-2l0,1l4,0l0,-1l-4,0Z" style="fill:#404040;"/></svg>