<?xml version="1.0" encoding="UTF-8" standalone="no"?>
<svg
   xmlns:dc="http://purl.org/dc/elements/1.1/"
   xmlns:cc="http://creativecommons.org/ns#"
   xmlns:rdf="http://www.w3.org/1999/02/22-rdf-syntax-ns#"
   xmlns:svg="http://www.w3.org/2000/svg"
   xmlns="http://www.w3.org/2000/svg"
   width="100%"
   height="100%"
   viewBox="0 0 18 18"
   version="1.1"
   xml:space="preserve"
   style="fill-rule:evenodd;clip-rule:evenodd;stroke-linejoin:round;stroke-miterlimit:1.41421;"
   id="svg19"><metadata
     id="metadata23"><rdf:RDF><cc:Work
         rdf:about=""><dc:format>image/svg+xml</dc:format><dc:type
           rdf:resource="http://purl.org/dc/dcmitype/StillImage" /><dc:title></dc:title></cc:Work></rdf:RDF></metadata><rect
     x="0"
     y="0"
     width="18"
     height="18"
     style="fill:none;"
     id="rect2" /><path
     d="M15,6l-11,0l0,4l3,3l8,0l0,-7Z"
     style="fill:#e6e6e6;fill-opacity:1"
     id="path4" /><path
     d="M16,5l0,9l-9.414,0l-3.586,-3.586l0,-5.414l13,0Zm-12,1l0,4l3,3l8,0l0,-7l-11,0Z"
     style="fill:#303030;fill-opacity:1"
     id="path6" /><path
     d="M7,10l-3,0l3,3l0,-3Z"
     style="fill:#fff;"
     id="path8" /><path
     d="M8,9l0,4l-1,0l0,-3l-4,0l0,-1l5,0Z"
     style="fill:#303030;fill-opacity:1"
     id="path10" /><defs
     id="defs17"><linearGradient
       id="_Linear1"
       x1="0"
       y1="0"
       x2="1"
       y2="0"
       gradientUnits="userSpaceOnUse"
       gradientTransform="matrix(-4,5,-5,-4,10,9)"><stop
         offset="0"
         style="stop-color:#e6e6e6;stop-opacity:1"
         id="stop12" /><stop
         offset="1"
         style="stop-color:#989898;stop-opacity:1"
         id="stop14" /></linearGradient></defs></svg>