<?xml version="1.0" encoding="utf-8"?>
<!-- Generator: Adobe Illustrator 21.0.2, SVG Export Plug-In . SVG Version: 6.00 Build 0)  -->
<svg version="1.1"
	 id="svg2" inkscape:version="0.91 r13725" sodipodi:docname="opacitycheck_off.svg" xmlns:cc="http://creativecommons.org/ns#" xmlns:dc="http://purl.org/dc/elements/1.1/" xmlns:inkscape="http://www.inkscape.org/namespaces/inkscape" xmlns:rdf="http://www.w3.org/1999/02/22-rdf-syntax-ns#" xmlns:sodipodi="http://sodipodi.sourceforge.net/DTD/sodipodi-0.dtd" xmlns:svg="http://www.w3.org/2000/svg"
	 xmlns="http://www.w3.org/2000/svg" xmlns:xlink="http://www.w3.org/1999/xlink" x="0px" y="0px" viewBox="0 0 17 17"
	 style="enable-background:new 0 0 17 17;" xml:space="preserve">
<style type="text/css">
	.st0{fill:#FFFFFF;}
	.st1{fill:none;stroke:#FF4D00;stroke-width:2;stroke-linejoin:round;stroke-miterlimit:1.4142;}
</style>
<sodipodi:namedview  bordercolor="#666666" borderopacity="1" gridtolerance="10" guidetolerance="10" id="namedview13" inkscape:current-layer="svg2" inkscape:cx="10.5" inkscape:cy="8.5" inkscape:pageopacity="0" inkscape:pageshadow="2" inkscape:window-height="480" inkscape:window-maximized="0" inkscape:window-width="796" inkscape:window-x="0" inkscape:window-y="0" inkscape:zoom="13.882353" objecttolerance="10" pagecolor="#ffffff" showgrid="false">
	</sodipodi:namedview>
<g>
	<g id="Layer1">
		<path id="path7" inkscape:connector-curvature="0" class="st0" d="M16,2.2C16,1.5,15.5,1,14.8,1H2.2C1.5,1,1,1.5,1,2.2v12.6
			C1,15.5,1.5,16,2.2,16h12.6c0.7,0,1.2-0.5,1.2-1.2V2.2C16,2.2,16,2.2,16,2.2z"/>
		<path id="path9" inkscape:connector-curvature="0" class="st1" d="M12.6,3.5c0.1,0,0.3,0,0.4,0.1c0.1,0,0.1,0.1,0.2,0.1
			c0.1,0.1,0.1,0.1,0.2,0.2c0.2,0.3,0.2,0.7,0,1c-0.1,0.1-0.1,0.2-0.2,0.3c-0.1,0.1-0.3,0.2-0.4,0.2c-0.1,0-0.1,0-0.2,0
			c-0.1,0-0.3,0-0.4,0c-0.1,0-0.1,0-0.2,0c-0.3,0-0.5,0.1-0.8,0.2c-0.4,0.1-0.9,0.3-1.3,0.5c-1.2,0.5-2.2,1.4-3,2.4
			C6.5,9,6.2,9.6,6,10.2c-0.2,0.6-0.4,1.1-0.5,1.7c0,0.2,0,0.4-0.1,0.5c0,0.1,0,0.2,0,0.2c0,0,0,0,0,0.1C5.3,13,5.2,13.2,5,13.3
			c-0.1,0.1-0.2,0.1-0.3,0.2c-0.3,0.1-0.7,0-0.9-0.3c-0.1-0.1-0.1-0.1-0.2-0.2c-0.1-0.1-0.1-0.2-0.1-0.3c0-0.1,0-0.1,0-0.2
			c0-0.1,0-0.2,0-0.3c0-0.3,0.1-0.6,0.1-1C3.8,10.6,4,10,4.2,9.4c0.4-1,1-1.9,1.7-2.8C6.8,5.7,7.9,4.9,9,4.4
			c0.7-0.3,1.4-0.6,2.2-0.7c0.4-0.1,0.8-0.1,1.2-0.2C12.5,3.5,12.5,3.5,12.6,3.5L12.6,3.5z"/>
		<path id="path11" inkscape:connector-curvature="0" d="M12.6,3.5c0.1,0,0.3,0,0.4,0.1c0.1,0,0.1,0.1,0.2,0.1
			c0.1,0.1,0.1,0.1,0.2,0.2c0.2,0.3,0.2,0.7,0,1c-0.1,0.1-0.1,0.2-0.2,0.3c-0.1,0.1-0.3,0.2-0.4,0.2c-0.1,0-0.1,0-0.2,0
			c-0.1,0-0.3,0-0.4,0c-0.1,0-0.1,0-0.2,0c-0.3,0-0.5,0.1-0.8,0.2c-0.4,0.1-0.9,0.3-1.3,0.5c-1.2,0.5-2.2,1.4-3,2.4
			C6.5,9,6.2,9.6,6,10.2c-0.2,0.6-0.4,1.1-0.5,1.7c0,0.2,0,0.4-0.1,0.5c0,0.1,0,0.2,0,0.2c0,0,0,0,0,0.1C5.3,13,5.2,13.2,5,13.3
			c-0.1,0.1-0.2,0.1-0.3,0.2c-0.3,0.1-0.7,0-0.9-0.3c-0.1-0.1-0.1-0.1-0.2-0.2c-0.1-0.1-0.1-0.2-0.1-0.3c0-0.1,0-0.1,0-0.2
			c0-0.1,0-0.2,0-0.3c0-0.3,0.1-0.6,0.1-1C3.8,10.6,4,10,4.2,9.4c0.4-1,1-1.9,1.7-2.8C6.8,5.7,7.9,4.9,9,4.4
			c0.7-0.3,1.4-0.6,2.2-0.7c0.4-0.1,0.8-0.1,1.2-0.2C12.5,3.5,12.5,3.5,12.6,3.5L12.6,3.5z"/>
	</g>
</g>
</svg>
