<?xml version="1.0" encoding="UTF-8" standalone="no"?>
<svg
   xmlns:dc="http://purl.org/dc/elements/1.1/"
   xmlns:cc="http://creativecommons.org/ns#"
   xmlns:rdf="http://www.w3.org/1999/02/22-rdf-syntax-ns#"
   xmlns:svg="http://www.w3.org/2000/svg"
   xmlns="http://www.w3.org/2000/svg"
   height="15"
   width="20"
   xml:space="preserve"
   viewBox="0 0 20 15"
   y="0px"
   x="0px"
   id="svg2"
   version="1.1"><metadata
     id="metadata32"><rdf:RDF><cc:Work
         rdf:about=""><dc:format>image/svg+xml</dc:format><dc:type
           rdf:resource="http://purl.org/dc/dcmitype/StillImage" /><dc:title></dc:title></cc:Work></rdf:RDF></metadata><defs
     id="defs30" /><style
     id="style2"
     type="text/css">
	.st0{fill:#92FF00;stroke:#404040;stroke-width:2;stroke-linecap:square;stroke-miterlimit:1.5;}
	.st1{fill:#FFD200;}
</style><path
     id="rect7"
     d="M 4,3.9999999 V 6 H 6 V 3.9999999 Z m 3,0 V 6 H 9 V 3.9999999 Z m 3,0 V 6 h 2 V 3.9999999 Z m 3,0 V 6 h 2 V 3.9999999 Z m -3,3 v 2 h 2 v -2 z M 4,7 V 8.9999999 H 6 V 7 Z M 7,7 V 8.9999999 H 9 V 7 Z m 6,0 v 1.9999999 h 2 V 7 Z M 4,9.9999999 V 12 H 6 V 9.9999999 Z m 3,0 V 12 H 9 V 9.9999999 Z m 3,0 V 12 h 2 V 9.9999999 Z m 3,0 V 12 h 2 V 9.9999999 Z"
     style="fill:none;fill-opacity:1;stroke:#303030;stroke-width:2;stroke-linecap:square;stroke-miterlimit:1.5;stroke-opacity:1" /><path
     id="rect9"
     d="M 4,4 V 6 H 6 V 4 Z M 7,4 V 6 H 9 V 4 Z m 3,0 v 2 h 2 V 4 Z m 3,0 v 2 h 2 V 4 Z M 4,7 V 9 H 6 V 7 Z M 7,7 V 9 H 9 V 7 Z m 3,0 v 2 h 2 V 7 Z m 3,0 v 2 h 2 V 7 Z m -9,3 v 2 h 2 v -2 z m 3,0 v 2 h 2 v -2 z m 3,0 v 2 h 2 v -2 z m 3,0 v 2 h 2 v -2 z"
     style="fill:#bfbfbf;fill-opacity:1" /></svg>