<?xml version="1.0" encoding="utf-8"?>
<!-- Generator: Adobe Illustrator 21.0.2, SVG Export Plug-In . SVG Version: 6.00 Build 0)  -->
<svg version="1.1"
	 id="svg2" inkscape:version="0.91 r13725" sodipodi:docname="paramanim_off.svg" xmlns:cc="http://creativecommons.org/ns#" xmlns:dc="http://purl.org/dc/elements/1.1/" xmlns:inkscape="http://www.inkscape.org/namespaces/inkscape" xmlns:rdf="http://www.w3.org/1999/02/22-rdf-syntax-ns#" xmlns:sodipodi="http://sodipodi.sourceforge.net/DTD/sodipodi-0.dtd" xmlns:svg="http://www.w3.org/2000/svg"
	 xmlns="http://www.w3.org/2000/svg" xmlns:xlink="http://www.w3.org/1999/xlink" x="0px" y="0px" viewBox="0 0 21 17"
	 style="enable-background:new 0 0 21 17;" xml:space="preserve">
<style type="text/css">
	.st0{fill:none;}
	.st1{fill:none;stroke:#A2A2A2;stroke-width:2;stroke-linecap:square;stroke-miterlimit:1.5;}
	.st2{fill:#E6E6E6;}
	.st3{fill:#404040;stroke:#404040;stroke-width:0.5;stroke-linejoin:round;stroke-miterlimit:1.4142;}
</style>
<sodipodi:namedview  bordercolor="#666666" borderopacity="1" gridtolerance="10" guidetolerance="10" id="namedview15" inkscape:current-layer="svg2" inkscape:cx="10.5" inkscape:cy="8.5" inkscape:pageopacity="0" inkscape:pageshadow="2" inkscape:window-height="500" inkscape:window-maximized="0" inkscape:window-width="1109" inkscape:window-x="0" inkscape:window-y="0" inkscape:zoom="13.882353" objecttolerance="10" pagecolor="#ffffff" showgrid="false">
	</sodipodi:namedview>
<rect id="rect5" y="0" class="st0" width="21" height="17"/>
<g id="g7">
	<rect id="rect9" x="5" y="3" class="st1" width="11" height="10"/>
	<rect id="rect11" x="5" y="3" class="st2" width="11" height="10"/>
</g>
<path id="path13" inkscape:connector-curvature="0" class="st3" d="M15,4.6c0.1,0,0.1,0,0.2,0.1c0.2,0.1,0.2,0.4,0.1,0.6
	c-0.1,0.1-0.2,0.1-0.2,0.1c-0.1,0-0.2,0-0.3,0c-0.1,0-0.3,0-0.4,0.1c-0.4,0.1-0.7,0.2-1,0.4C13.1,6,13,6.1,12.8,6.2
	c-1.4,1.4-2.7,2.8-4.1,4.1c-0.2,0.1-0.3,0.3-0.5,0.4c-0.4,0.3-0.9,0.5-1.4,0.6c-0.3,0.1-0.6,0.1-0.8,0.1l0,0c-0.1,0-0.1,0-0.2-0.1
	c-0.2-0.1-0.2-0.4-0.1-0.6c0.1-0.1,0.2-0.1,0.2-0.1c0.1,0,0.2,0,0.3,0c0.1,0,0.3,0,0.4-0.1c0.4-0.1,0.7-0.2,1-0.4
	C7.9,10,8,9.9,8.2,9.8c1.4-1.4,2.7-2.8,4.1-4.1c0.1-0.1,0.3-0.2,0.4-0.4c0.4-0.3,0.9-0.5,1.3-0.6c0.2-0.1,0.5-0.1,0.7-0.1
	C14.9,4.6,15,4.6,15,4.6z"/>
</svg>
