<?xml version="1.0" encoding="UTF-8" standalone="no"?>
<!DOCTYPE svg PUBLIC "-//W3C//DTD SVG 1.1//EN" "http://www.w3.org/Graphics/SVG/1.1/DTD/svg11.dtd">
<svg width="21px" height="17px" version="1.1" xmlns="http://www.w3.org/2000/svg" xmlns:xlink="http://www.w3.org/1999/xlink" xml:space="preserve" xmlns:serif="http://www.serif.com/" style="fill-rule:evenodd;clip-rule:evenodd;stroke-linecap:square;stroke-miterlimit:1.5;">
    <rect id="rect5" x="0" y="0" width="21" height="17" style="fill:none;"/>
    <g id="g7">
        <rect id="rect9" x="5" y="3" width="11" height="10" style="fill:none;stroke:rgb(77,77,77);stroke-width:2px;"/>
        <rect id="rect11" x="5" y="3" width="11" height="10" style="fill:rgb(230,230,230);"/>
    </g>
    <path id="path13" d="M15,4.6C15.1,4.6 15.1,4.6 15.2,4.7C15.4,4.8 15.4,5.1 15.3,5.3C15.2,5.4 15.1,5.4 15.1,5.4L14.8,5.4C14.7,5.4 14.5,5.4 14.4,5.5C14,5.6 13.7,5.7 13.4,5.9C13.1,6 13,6.1 12.8,6.2C11.4,7.6 10.1,9 8.7,10.3C8.5,10.4 8.4,10.6 8.2,10.7C7.8,11 7.3,11.2 6.8,11.3C6.5,11.4 6.2,11.4 6,11.4C5.9,11.4 5.9,11.4 5.8,11.3C5.6,11.2 5.6,10.9 5.7,10.7C5.8,10.6 5.9,10.6 5.9,10.6L6.2,10.6C6.3,10.6 6.5,10.6 6.6,10.5C7,10.4 7.3,10.3 7.6,10.1C7.9,10 8,9.9 8.2,9.8C9.6,8.4 10.9,7 12.3,5.7C12.4,5.6 12.6,5.5 12.7,5.3C13.1,5 13.6,4.8 14,4.7C14.2,4.6 14.5,4.6 14.7,4.6L15,4.6Z" style="fill:rgb(64,64,64);fill-rule:nonzero;stroke:rgb(64,64,64);stroke-width:0.5px;stroke-linecap:butt;stroke-linejoin:round;stroke-miterlimit:1.4142;"/>
</svg>
