<?xml version="1.0" encoding="utf-8"?>
<!-- Generator: Adobe Illustrator 21.0.2, SVG Export Plug-In . SVG Version: 6.00 Build 0)  -->
<svg version="1.1"
	 id="svg2" inkscape:version="0.91 r13725" sodipodi:docname="preview_checkboard_over.svg" xmlns:cc="http://creativecommons.org/ns#" xmlns:dc="http://purl.org/dc/elements/1.1/" xmlns:inkscape="http://www.inkscape.org/namespaces/inkscape" xmlns:rdf="http://www.w3.org/1999/02/22-rdf-syntax-ns#" xmlns:sodipodi="http://sodipodi.sourceforge.net/DTD/sodipodi-0.dtd" xmlns:svg="http://www.w3.org/2000/svg"
	 xmlns="http://www.w3.org/2000/svg" xmlns:xlink="http://www.w3.org/1999/xlink" x="0px" y="0px" viewBox="0 0 17 17"
	 style="enable-background:new 0 0 17 17;" xml:space="preserve">
<style type="text/css">
	.st0{fill:#FFFFFF;}
	.st1{fill:#FFDC00;}
	.st2{fill:none;stroke:#000000;stroke-width:2;stroke-linecap:square;stroke-miterlimit:1.5;}
	.st3{fill:#A2A2A2;}
</style>
<sodipodi:namedview  bordercolor="#666666" borderopacity="1" gridtolerance="10" guidetolerance="10" id="namedview21" inkscape:current-layer="svg2" inkscape:cx="10.5" inkscape:cy="8.5" inkscape:pageopacity="0" inkscape:pageshadow="2" inkscape:window-height="480" inkscape:window-maximized="0" inkscape:window-width="796" inkscape:window-x="0" inkscape:window-y="0" inkscape:zoom="13.882353" objecttolerance="10" pagecolor="#ffffff" showgrid="false">
	</sodipodi:namedview>
<g>
	<g id="Layer1">
		<g id="g7">
			<polygon class="st0" points="2.2,14.8 14.8,14.8 14.8,2.2 2.2,2.2 2.2,2.2 			"/>
			<path class="st1" d="M15,16H2c-0.6,0-1-0.5-1-1V2c0-0.6,0.5-1,1-1h13c0.6,0,1,0.5,1,1v13C16,15.6,15.6,16,15,16z M2.5,14.5h12
				v-12h-12l0,0V14.5z"/>
		</g>
		<g id="g13">
			<rect id="rect15" x="5" y="5" class="st2" width="7" height="7"/>
			<rect id="rect17" x="5" y="5" class="st0" width="7" height="7"/>
		</g>
		<path id="path19" inkscape:connector-curvature="0" class="st3" d="M12,9H9v3H5V8h3V5h4V9z"/>
	</g>
</g>
</svg>
