<?xml version="1.0" encoding="utf-8"?>
<!-- Generator: Adobe Illustrator 21.0.2, SVG Export Plug-In . SVG Version: 6.00 Build 0)  -->
<svg version="1.1"
	 id="svg2" inkscape:version="0.91 r13725" sodipodi:docname="reorder_off.svg" xmlns:cc="http://creativecommons.org/ns#" xmlns:dc="http://purl.org/dc/elements/1.1/" xmlns:inkscape="http://www.inkscape.org/namespaces/inkscape" xmlns:rdf="http://www.w3.org/1999/02/22-rdf-syntax-ns#" xmlns:sodipodi="http://sodipodi.sourceforge.net/DTD/sodipodi-0.dtd" xmlns:svg="http://www.w3.org/2000/svg"
	 xmlns="http://www.w3.org/2000/svg" xmlns:xlink="http://www.w3.org/1999/xlink" x="0px" y="0px" viewBox="0 0 17 17"
	 style="enable-background:new 0 0 17 17;" xml:space="preserve">
<style type="text/css">
	.st0{fill:none;stroke:#404040;stroke-width:2;stroke-linecap:square;stroke-miterlimit:1.5;}
	.st1{fill:#EBEBEB;}
	.st2{fill:#404040;}
</style>
<sodipodi:namedview  bordercolor="#666666" borderopacity="1" gridtolerance="10" guidetolerance="10" id="namedview15" inkscape:current-layer="svg2" inkscape:cx="-2.4491525" inkscape:cy="8.5" inkscape:pageopacity="0" inkscape:pageshadow="2" inkscape:window-height="480" inkscape:window-maximized="0" inkscape:window-width="796" inkscape:window-x="0" inkscape:window-y="0" inkscape:zoom="13.882353" objecttolerance="10" pagecolor="#ffffff" showgrid="false">
	</sodipodi:namedview>
<g id="g7">
	<path id="path9" inkscape:connector-curvature="0" class="st0" d="M14,13h-2v-1h2V13z M5,13H3v-1h2V13z M14,9h-2V8h2V9z M5,9H3V8h2
		V9z M14,5h-2V4h2V5z M5,5H3V4h2V5z"/>
	<path id="path11" inkscape:connector-curvature="0" class="st1" d="M14,13h-2v-1h2V13z M5,13H3v-1h2V13z M14,9h-2V8h2V9z M5,9H3V8
		h2V9z M14,5h-2V4h2V5z M5,5H3V4h2V5z"/>
</g>
<path id="path13" inkscape:connector-curvature="0" class="st2" d="M9,12h1v1H9V12z M7,12h1v1H7V12z M9,8h1v1H9V8z M8,8v1H7V8H8z
	 M7,4h1v1H7V4z M9,4h1v1H9V4z"/>
</svg>
