<?xml version="1.0" encoding="utf-8"?>
<!-- Generator: Adobe Illustrator 21.0.2, SVG Export Plug-In . SVG Version: 6.00 Build 0)  -->
<svg version="1.1"
	 id="svg2" inkscape:version="0.91 r13725" sodipodi:docname="resetsize_off.svg" xmlns:cc="http://creativecommons.org/ns#" xmlns:dc="http://purl.org/dc/elements/1.1/" xmlns:inkscape="http://www.inkscape.org/namespaces/inkscape" xmlns:rdf="http://www.w3.org/1999/02/22-rdf-syntax-ns#" xmlns:sodipodi="http://sodipodi.sourceforge.net/DTD/sodipodi-0.dtd" xmlns:svg="http://www.w3.org/2000/svg"
	 xmlns="http://www.w3.org/2000/svg" xmlns:xlink="http://www.w3.org/1999/xlink" x="0px" y="0px" viewBox="0 0 17 17"
	 style="enable-background:new 0 0 17 17;" xml:space="preserve">
<style type="text/css">
	.st0{fill:none;stroke:#404040;stroke-width:2;stroke-linecap:square;stroke-miterlimit:1.5;}
	.st1{fill:#E6E6E6;}
</style>
<sodipodi:namedview  bordercolor="#666666" borderopacity="1" gridtolerance="10" guidetolerance="10" id="namedview25" inkscape:current-layer="svg2" inkscape:cx="-2.4491525" inkscape:cy="8.5" inkscape:pageopacity="0" inkscape:pageshadow="2" inkscape:window-height="480" inkscape:window-maximized="0" inkscape:window-width="796" inkscape:window-x="0" inkscape:window-y="0" inkscape:zoom="13.882353" objecttolerance="10" pagecolor="#ffffff" showgrid="false">
	</sodipodi:namedview>
<g id="g7">
	<path id="path9" inkscape:connector-curvature="0" class="st0" d="M1,13h1v1H1V13z M3,13h1v1H3V13z M5,13h1v1H5V13z M7,13h1v1H7V13
		z M9,13h1v1H9V13z M11,13h1v1h-1V13z M13,13h1v1h-1V13z M15,13h1v1h-1V13z M1,11h1v1H1V11z M15,11h1v1h-1V11z M1,9h1v1H1V9z M15,9
		h1v1h-1V9z M1,7h1v1H1V7z M15,7h1v1h-1V7z M1,5h1v1H1V5z M15,5h1v1h-1V5z M1,3h1v1H1V3z M15,3h1v1h-1V3z M13,3h1v1h-1V3z M11,3h1v1
		h-1V3z M9,3h1v1H9V3z M7,3h1v1H7V3z M5,3h1v1H5V3z M4,3v1H3V3H4z"/>
	<path id="path11" inkscape:connector-curvature="0" class="st1" d="M1,13h1v1H1V13z M3,13h1v1H3V13z M5,13h1v1H5V13z M7,13h1v1H7
		V13z M9,13h1v1H9V13z M11,13h1v1h-1V13z M13,13h1v1h-1V13z M15,13h1v1h-1V13z M1,11h1v1H1V11z M15,11h1v1h-1V11z M1,9h1v1H1V9z
		 M15,9h1v1h-1V9z M1,7h1v1H1V7z M15,7h1v1h-1V7z M1,5h1v1H1V5z M15,5h1v1h-1V5z M1,3h1v1H1V3z M15,3h1v1h-1V3z M13,3h1v1h-1V3z
		 M11,3h1v1h-1V3z M9,3h1v1H9V3z M7,3h1v1H7V3z M5,3h1v1H5V3z M4,3v1H3V3H4z"/>
</g>
<g id="g13">
	<rect id="rect15" x="4" y="6" class="st0" width="9" height="5"/>
	<rect id="rect17" x="4" y="6" class="st1" width="9" height="5"/>
</g>
<g id="g19">
	<rect id="rect21" x="6" y="8" class="st0" width="5" height="1"/>
	<rect id="rect23" x="6" y="8" class="st1" width="5" height="1"/>
</g>
</svg>
