<?xml version="1.0" encoding="UTF-8" standalone="no"?><!DOCTYPE svg PUBLIC "-//W3C//DTD SVG 1.1//EN" "http://www.w3.org/Graphics/SVG/1.1/DTD/svg11.dtd"><svg width="100%" height="100%" viewBox="0 0 18 18" version="1.1" xmlns="http://www.w3.org/2000/svg" xmlns:xlink="http://www.w3.org/1999/xlink" xml:space="preserve" style="fill-rule:evenodd;clip-rule:evenodd;stroke-linejoin:round;stroke-miterlimit:1.41421;"><rect x="0" y="0" width="18" height="18" style="fill:none;"/><rect x="5" y="2" width="7" height="5" style="fill:#404040;"/><path d="M5,2l0,5l7,0l0,-5l1,0l2,2l0,12l-13,0l0,-14l3,0Zm2.8,3.75l-1.4,0l0,-2.5l1.4,0l0,2.5Z" style="fill:#fff;"/><rect x="4" y="10" width="9" height="6" style="fill:#bdbdbd;"/><path d="M3,16l0,-7l11,0l0,7l-1,0l0,-6l-9,0l0,6l-1,0Z" style="fill:#404040;"/><path d="M2,16l13,0l0,-12l-2,-2l-11,0l0,14Zm-1,-15l12.5,0l2.5,2.5l0,13.5l-15,0l0,-16Z" style="fill:#404040;"/><g><path d="M16,7.323l-10,6.414l1.263,1.263l8.737,-4l0,-3.677Z" style="fill:#303030;fill-opacity:0.34902;"/><path d="M8.314,10.323l-1.814,4.177l4.227,-2l-2.413,-2.177Z" style="fill:#404040;"/><path d="M8.352,10.324l0.065,0.004l0.032,0.004l0.032,0.005l0.032,0.006l0.032,0.007l0.032,0.008l0.031,0.009l0.031,0.01l0.03,0.011l0.03,0.012l0.03,0.013l0.029,0.014l0.029,0.015l0.028,0.016l0.056,0.034l0.052,0.038l0.026,0.021l0.048,0.042l0.024,0.023l1.414,1.414l0.023,0.024l0.042,0.048l0.021,0.026l0.038,0.052l0.034,0.056l0.016,0.028l0.015,0.029l0.014,0.029l0.013,0.03l0.012,0.03l0.011,0.03l0.01,0.031l0.009,0.031l0.008,0.032l0.007,0.032l0.006,0.032l0.005,0.032l0.004,0.032l0.004,0.065l0.001,0.032l0,0.033l-0.002,0.032l-0.002,0.032l-0.004,0.033l-0.004,0.032l-0.006,0.032l-0.006,0.032l-0.008,0.031l-0.009,0.031l-0.009,0.031l-0.011,0.031l-0.012,0.03l-0.012,0.03l-0.014,0.03l-0.014,0.029l-0.016,0.028l-0.016,0.028l-0.018,0.028l-0.018,0.027l-0.019,0.026l-0.02,0.026l-0.02,0.025l-0.022,0.024l-0.022,0.024l-0.023,0.022l-0.024,0.023l-0.025,0.021l-0.025,0.02l-0.025,0.02l-0.027,0.019l-0.027,0.018l-0.028,0.017l-0.028,0.016l-0.028,0.015l-0.029,0.015l-2.677,1.262l-0.03,0.014l-0.03,0.012l-0.031,0.012l-0.031,0.01l-0.031,0.01l-0.032,0.008l-0.032,0.008l-0.032,0.006l-0.032,0.005l-0.032,0.005l-0.033,0.003l-0.033,0.002l-0.032,0.001l-0.033,0l-0.033,-0.001l-0.032,-0.002l-0.033,-0.004l-0.032,-0.004l-0.033,-0.005l-0.032,-0.007l-0.031,-0.007l-0.032,-0.009l-0.031,-0.009l-0.031,-0.011l-0.031,-0.011l-0.03,-0.013l-0.03,-0.013l-0.029,-0.015l-0.029,-0.015l-0.028,-0.016l-0.028,-0.018l-0.027,-0.018l-0.027,-0.019l-0.026,-0.02l-0.025,-0.021l-0.025,-0.021l-0.023,-0.022l-0.024,-0.024l-0.022,-0.023l-0.021,-0.025l-0.021,-0.025l-0.02,-0.026l-0.019,-0.027l-0.018,-0.027l-0.018,-0.028l-0.016,-0.028l-0.015,-0.029l-0.015,-0.029l-0.013,-0.03l-0.013,-0.03l-0.011,-0.031l-0.011,-0.031l-0.009,-0.031l-0.009,-0.032l-0.007,-0.031l-0.007,-0.032l-0.005,-0.033l-0.004,-0.032l-0.004,-0.033l-0.002,-0.032l-0.001,-0.033l0,-0.033l0.001,-0.032l0.002,-0.033l0.003,-0.033l0.005,-0.032l0.005,-0.032l0.006,-0.032l0.008,-0.032l0.008,-0.032l0.01,-0.031l0.01,-0.031l0.012,-0.031l0.012,-0.03l0.014,-0.03l1.262,-2.677l0.015,-0.029l0.015,-0.028l0.016,-0.028l0.017,-0.028l0.018,-0.027l0.019,-0.027l0.02,-0.025l0.02,-0.025l0.021,-0.025l0.023,-0.024l0.022,-0.023l0.024,-0.022l0.024,-0.022l0.025,-0.02l0.026,-0.02l0.026,-0.019l0.027,-0.018l0.028,-0.018l0.028,-0.016l0.028,-0.016l0.029,-0.014l0.03,-0.014l0.03,-0.012l0.03,-0.012l0.031,-0.011l0.031,-0.009l0.031,-0.009l0.031,-0.008l0.032,-0.006l0.032,-0.006l0.032,-0.004l0.033,-0.004l0.032,-0.002l0.032,-0.002l0.033,0l0.032,0.001Zm-1.301,3.676l2.677,-1.263l-0.663,-0.663l0.079,-0.167l-0.167,0.079l-0.663,-0.663l-1.263,2.677Z" style="fill:#404040;"/><path d="M15.536,4.101l-7.222,7.222l1.414,1.414l7.222,-7.222l-1.414,-1.414Z" style="fill:#fff;"/><path d="M15.623,3.104l0.058,0.007l0.057,0.01l0.057,0.014l0.056,0.016l0.054,0.02l0.054,0.023l0.051,0.026l0.05,0.029l0.049,0.032l0.047,0.035l0.044,0.037l0.043,0.04l1.415,1.415l0.04,0.042l0.037,0.044l0.035,0.047l0.032,0.049l0.029,0.05l0.026,0.052l0.023,0.054l0.02,0.054l0.015,0.056l0.014,0.057l0.011,0.057l0.007,0.058l0.003,0.058l0,0.058l-0.003,0.058l-0.008,0.058l-0.01,0.057l-0.014,0.057l-0.015,0.055l-0.02,0.055l-0.023,0.053l-0.026,0.052l-0.029,0.051l-0.032,0.048l-0.035,0.047l-0.037,0.045l-0.04,0.042l-7.223,7.222l-0.042,0.04l-0.045,0.038l-0.047,0.034l-0.048,0.032l-0.05,0.03l-0.052,0.026l-0.054,0.023l-0.055,0.02l-0.055,0.016l-0.057,0.014l-0.057,0.01l-0.058,0.007l-0.058,0.003l-0.058,0l-0.058,-0.003l-0.058,-0.007l-0.057,-0.01l-0.057,-0.014l-0.056,-0.016l-0.054,-0.02l-0.054,-0.023l-0.052,-0.026l-0.05,-0.03l-0.049,-0.032l-0.046,-0.034l-0.045,-0.038l-0.042,-0.04l-1.414,-1.414l-0.04,-0.042l-0.038,-0.045l-0.034,-0.046l-0.032,-0.049l-0.03,-0.05l-0.026,-0.052l-0.023,-0.054l-0.02,-0.054l-0.016,-0.056l-0.014,-0.057l-0.01,-0.057l-0.007,-0.058l-0.003,-0.058l0,-0.058l0.003,-0.058l0.007,-0.058l0.01,-0.057l0.014,-0.057l0.016,-0.055l0.02,-0.055l0.023,-0.054l0.026,-0.052l0.03,-0.05l0.032,-0.048l0.034,-0.047l0.038,-0.045l0.04,-0.042l7.222,-7.223l0.042,-0.04l0.045,-0.037l0.047,-0.035l0.048,-0.032l0.051,-0.029l0.052,-0.026l0.053,-0.023l0.055,-0.02l0.055,-0.016l0.057,-0.014l0.057,-0.01l0.058,-0.007l0.058,-0.003l0.058,0l0.057,0.003l0.001,0Zm-7.309,8.219l1.414,1.414l7.222,-7.222l-1.414,-1.414l-7.222,7.222Z" style="fill:#404040;"/></g></svg>