<?xml version="1.0" encoding="UTF-8" standalone="no"?><!DOCTYPE svg PUBLIC "-//W3C//DTD SVG 1.1//EN" "http://www.w3.org/Graphics/SVG/1.1/DTD/svg11.dtd"><svg width="100%" height="100%" viewBox="0 0 18 18" version="1.1" xmlns="http://www.w3.org/2000/svg" xmlns:xlink="http://www.w3.org/1999/xlink" xml:space="preserve" style="fill-rule:evenodd;clip-rule:evenodd;stroke-linejoin:round;stroke-miterlimit:1.41421;"><rect x="0" y="0" width="18" height="18" style="fill:none;"/><rect x="5" y="2" width="7" height="5" style="fill:#404040;"/><path d="M5,2l0,5l7,0l0,-5l1,0l2,2l0,12l-13,0l0,-14l3,0Zm2.8,3.75l-1.4,0l0,-2.5l1.4,0l0,2.5Z" style="fill:#d8d8d8;"/><rect x="4" y="10" width="9" height="6" style="fill:#bdbdbd;"/><path d="M3,16l0,-7l11,0l0,7l-1,0l0,-6l-9,0l0,6l-1,0Z" style="fill:#404040;"/><path d="M2,16l13,0l0,-12l-2,-2l-11,0l0,14Zm-1,-15l12.5,0l2.5,2.5l0,13.5l-15,0l0,-16Z" style="fill:#404040;"/></svg>