<?xml version="1.0" encoding="UTF-8" standalone="no"?>
<!-- Generator: Adobe Illustrator 21.0.2, SVG Export Plug-In . SVG Version: 6.00 Build 0)  -->

<svg
   xmlns:dc="http://purl.org/dc/elements/1.1/"
   xmlns:cc="http://creativecommons.org/ns#"
   xmlns:rdf="http://www.w3.org/1999/02/22-rdf-syntax-ns#"
   xmlns:svg="http://www.w3.org/2000/svg"
   xmlns="http://www.w3.org/2000/svg"
   xmlns:sodipodi="http://sodipodi.sourceforge.net/DTD/sodipodi-0.dtd"
   xmlns:inkscape="http://www.inkscape.org/namespaces/inkscape"
   version="1.1"
   id="svg2"
   inkscape:version="0.91 r13725"
   sodipodi:docname="schematic_link_small.svg"
   x="0px"
   y="0px"
   viewBox="0 0 28 14"
   xml:space="preserve"
   width="28"
   height="14"><metadata
     id="metadata24"><rdf:RDF><cc:Work
         rdf:about=""><dc:format>image/svg+xml</dc:format><dc:type
           rdf:resource="http://purl.org/dc/dcmitype/StillImage" /><dc:title></dc:title></cc:Work></rdf:RDF></metadata><defs
     id="defs22" /><style
     type="text/css"
     id="style3">
	.st0{fill:#A2A2A2;}
	.st1{fill:#B7B7B7;}
	.st2{fill:#777777;}
</style><sodipodi:namedview
     bordercolor="#666666"
     borderopacity="1"
     gridtolerance="10"
     guidetolerance="10"
     id="namedview13"
     inkscape:current-layer="g6"
     inkscape:cx="18.932776"
     inkscape:cy="8.3475969"
     inkscape:pageopacity="0"
     inkscape:pageshadow="2"
     inkscape:window-height="572"
     inkscape:window-maximized="0"
     inkscape:window-width="1197"
     inkscape:window-x="0"
     inkscape:window-y="0"
     inkscape:zoom="16.857143"
     objecttolerance="10"
     pagecolor="#ffffff"
     showgrid="false" /><g
     id="g6"
     transform="matrix(1,0,0,1.2857143,0,-4)"><g
       id="g4161"
       transform="matrix(0.77777778,0,0,0.77777777,0,3.1111112)"><rect
         style="fill:#a2a2a2"
         x="0"
         height="14"
         width="36"
         class="st0"
         y="0"
         id="rect4" /><g
         id="Layer1"><g
           id="g10"><path
             inkscape:connector-curvature="0"
             id="path12"
             d="m 5.8,9.7 3.9,0 0,1.7 -6.2,0 0,-8.6 2.3,0 0,6.9 z" /><path
             inkscape:connector-curvature="0"
             id="path14"
             d="m 13.8,2.6 0,1.9 -2.1,0 0,-1.9 2.1,0 z m 0,2.4 0,6.4 -2.1,0 0,-6.4 2.1,0 z" /><path
             inkscape:connector-curvature="0"
             id="path16"
             d="m 22.6,11.4 -2.1,0 0,-3.6 c 0,-0.4 0,-0.7 -0.1,-0.9 C 20.4,6.7 20.3,6.6 20.1,6.5 20,6.4 19.8,6.3 19.5,6.3 c -0.7,0 -1.1,0.5 -1.1,1.5 l 0,3.6 -2.1,0 0,-6.4 2,0 0,1.1 c 0.3,-0.5 0.6,-0.8 1,-1 0.4,-0.2 0.7,-0.2 1,-0.2 0.7,0 1.2,0.2 1.6,0.5 0.4,0.3 0.6,1 0.6,1.9 l 0,4.1 z" /><path
             inkscape:connector-curvature="0"
             id="path18"
             d="m 30,7.2 2.3,4.2 -2.3,0 -1.5,-2.9 -1.2,1.3 0,1.6 -2,0 0,-8.6 2,0 0,5.2 0.3,-0.3 C 27.7,7.5 27.8,7.4 27.9,7.3 L 30,5 32,5 30,7.2 Z" /></g></g></g></g></svg>