<?xml version="1.0" encoding="utf-8"?>
<!-- Generator: Adobe Illustrator 21.0.2, SVG Export Plug-In . SVG Version: 6.00 Build 0)  -->
<svg version="1.1"
	 id="svg2" inkscape:version="0.91 r13725" sodipodi:docname="schematic_thumbtoggle_on.svg" xmlns:cc="http://creativecommons.org/ns#" xmlns:dc="http://purl.org/dc/elements/1.1/" xmlns:inkscape="http://www.inkscape.org/namespaces/inkscape" xmlns:rdf="http://www.w3.org/1999/02/22-rdf-syntax-ns#" xmlns:sodipodi="http://sodipodi.sourceforge.net/DTD/sodipodi-0.dtd" xmlns:svg="http://www.w3.org/2000/svg"
	 xmlns="http://www.w3.org/2000/svg" xmlns:xlink="http://www.w3.org/1999/xlink" x="0px" y="0px" viewBox="0 0 16 16"
	 style="enable-background:new 0 0 16 16;" xml:space="preserve">
<style type="text/css">
	.st0{fill:none;}
	.st1{opacity:0.502;fill:#FFFFFF;}
	.st2{fill:#2E2E2E;}
</style>
<rect id="rect5" y="0" class="st0" width="16" height="16"/>
<path class="st1" d="M1,15.5c-0.2,0-0.3-0.1-0.4-0.2s-0.1-0.3,0-0.5l7-14C7.6,0.6,7.8,0.5,8,0.5s0.4,0.1,0.4,0.3l7,14
	c0.1,0.2,0.1,0.3,0,0.5c-0.1,0.1-0.3,0.2-0.4,0.2H1z"/>
<path class="st2" d="M8,1l7,14H1L8,1 M8,0C7.6,0,7.3,0.2,7.1,0.6l-7,14c-0.2,0.3-0.1,0.7,0,1S0.7,16,1,16h14c0.3,0,0.7-0.2,0.9-0.5
	s0.2-0.7,0-1l-7-14C8.7,0.2,8.4,0,8,0L8,0z"/>
</svg>
