<?xml version="1.0" encoding="utf-8"?>
<!-- Generator: Adobe Illustrator 21.0.2, SVG Export Plug-In . SVG Version: 6.00 Build 0)  -->
<svg version="1.1"
	 id="svg2" inkscape:version="0.91 r13725" sodipodi:docname="schematic_thumbtoggle_off.svg" xmlns:cc="http://creativecommons.org/ns#" xmlns:dc="http://purl.org/dc/elements/1.1/" xmlns:inkscape="http://www.inkscape.org/namespaces/inkscape" xmlns:rdf="http://www.w3.org/1999/02/22-rdf-syntax-ns#" xmlns:sodipodi="http://sodipodi.sourceforge.net/DTD/sodipodi-0.dtd" xmlns:svg="http://www.w3.org/2000/svg"
	 xmlns="http://www.w3.org/2000/svg" xmlns:xlink="http://www.w3.org/1999/xlink" x="0px" y="0px" viewBox="0 0 16 16"
	 style="enable-background:new 0 0 16 16;" xml:space="preserve">
<style type="text/css">
	.st0{fill:none;}
	.st1{opacity:0.502;fill:#FFFFFF;}
	.st2{fill:#2E2E2E;}
</style>
<rect id="rect5" y="0" class="st0" width="16" height="16"/>
<path class="st1" d="M1,15.5c-0.1,0-0.2,0-0.3-0.1c-0.1-0.1-0.2-0.3-0.2-0.4V1c0-0.2,0.1-0.3,0.2-0.4c0.1,0,0.2-0.1,0.3-0.1
	c0.1,0,0.2,0,0.2,0.1l14,7c0.2,0.1,0.3,0.3,0.3,0.4s-0.1,0.4-0.3,0.4l-14,7C1.2,15.5,1.1,15.5,1,15.5z"/>
<path class="st2" d="M1,1l14,7L1,15V1 M1,0C0.8,0,0.6,0.1,0.5,0.1C0.2,0.3,0,0.7,0,1v14c0,0.3,0.2,0.7,0.5,0.9C0.6,15.9,0.8,16,1,16
	c0.2,0,0.3,0,0.4-0.1l14-7C15.8,8.7,16,8.4,16,8s-0.2-0.7-0.6-0.9l-14-7C1.3,0,1.2,0,1,0L1,0z"/>
</svg>
