<?xml version="1.0" encoding="utf-8"?>
<!-- Generator: Adobe Illustrator 10.0, SVG Export Plug-In . SVG Version: 3.0.0 Build 76)  -->
<!DOCTYPE svg PUBLIC "-//W3C//DTD SVG 1.0//EN"    "http://www.w3.org/TR/2001/REC-SVG-20010904/DTD/svg10.dtd" [
	<!ENTITY ns_flows "http://ns.adobe.com/Flows/1.0/">
	<!ENTITY ns_extend "http://ns.adobe.com/Extensibility/1.0/">
	<!ENTITY ns_ai "http://ns.adobe.com/AdobeIllustrator/10.0/">
	<!ENTITY ns_graphs "http://ns.adobe.com/Graphs/1.0/">
	<!ENTITY ns_vars "http://ns.adobe.com/Variables/1.0/">
	<!ENTITY ns_imrep "http://ns.adobe.com/ImageReplacement/1.0/">
	<!ENTITY ns_sfw "http://ns.adobe.com/SaveForWeb/1.0/">
	<!ENTITY ns_custom "http://ns.adobe.com/GenericCustomNamespace/1.0/">
	<!ENTITY ns_adobe_xpath "http://ns.adobe.com/XPath/1.0/">
	<!ENTITY ns_svg "http://www.w3.org/2000/svg">
	<!ENTITY ns_xlink "http://www.w3.org/1999/xlink">
]>
<svg 
	 xmlns:x="&ns_extend;" xmlns:i="&ns_ai;" xmlns:graph="&ns_graphs;" i:viewOrigin="382.083 307.4688" i:rulerOrigin="0 0" i:pageBounds="0 600 800 0"
	 xmlns="&ns_svg;" xmlns:xlink="&ns_xlink;" xmlns:a="http://ns.adobe.com/AdobeSVGViewerExtensions/3.0/" width="37" height="17"
	 viewBox="0 0 37 17" overflow="visible" enable-background="new 0 0 37 17" xml:space="preserve">
	<metadata>
		<variableSets  xmlns="&ns_vars;">
			<variableSet  varSetName="binding1" locked="none">
				<variables></variables>
				<v:sampleDataSets  xmlns="&ns_custom;" xmlns:v="&ns_vars;"></v:sampleDataSets>
			</variableSet>
		</variableSets>
		<sfw  xmlns="&ns_sfw;">
			<slices></slices>
			<sliceSourceBounds  y="290.469" x="382.083" width="37" height="17" bottomLeftOrigin="true"></sliceSourceBounds>
		</sfw>
	</metadata>
	<g id="Layer_1" i:layer="yes" i:dimmedPercent="50" i:rgbTrio="#4F008000FFFF">
		<path i:knockout="Off" fill="none" d="M37,17H0V0h37V17z"/>
		<path i:knockout="Off" fill="#E3FFBB" stroke="#000000" stroke-width="0.8" stroke-linecap="round" stroke-linejoin="round" d="
			M17.313,10.235l-2.298,1.129"/>
		<path i:knockout="Off" fill="#E3FFBB" stroke="#000000" stroke-width="0.8" stroke-linecap="round" stroke-linejoin="round" d="
			M14.321,9.352l2.846-1.197"/>
		<g i:knockout="Off">
			<g>
				<path i:knockout="Off" d="M32.876,13.607c-2.909,1.838-6.646-0.775-8.357-2.002c-0.602-0.486-1.051-0.865-1.376-1.163
					c-0.271-0.25,0.385,0.291,1.376,1.163c0.432,0.4,1.046,0.75,1.778,1.163c-0.874-0.61-1.556-1.307-2.012-1.859l-1.21-0.95
					c-1.721-1.513-3.424-2.93-5.121-4.471c-0.659-0.588-2.386-1.355-3.249-1.527c3.65,0.815,5.689,3.792,8.345,5.71l-0.187-0.197
					l-3.937-3.501L18.24,5.364l0.687,0.608c0.604,0.504,1.222,0.953,1.889,1.49l1.202,1.112l0.846,0.898l0.587,0.518l0.204,0.127
					l-0.005-0.01c-0.364-0.635-4.803-5.334-6.197-5.91c-0.899-0.565-1.935-0.369-2.969-0.624c-0.372,0.022-0.692-0.045-0.979,0.04
					c-0.026,0.048-0.167,0.09-0.305,0.133c-0.732-0.051-1.481,0.226-1.955,0.604C10.87,4.424,9.522,4.794,9.572,5.066
					c0.203,0.609,0.025,0.14-0.595,1.052C8.934,6.234,9.029,6.684,8.951,6.903C8.653,7.655,8.678,7.938,8.803,8.794
					c0.151,1.263-0.021,1.603,0.578,2.615c-0.057,0.17,1.226,1.584,1.186,1.563c1.035,1.051,1.949,1.024,3.02,1.42
					c1.176-0.415,2.938-0.313,3.895-1.732c0.718-1.406,0.54-2.022,0.44-3.415c-0.201-0.347-0.408-0.58-0.506-0.813
					c-0.136-0.218-0.551-0.611-0.934-0.794l0.18-0.076c-0.136-0.069-0.425-0.2-0.578-0.261c-0.151-0.061-0.099-0.092-0.042-0.123
					c0.11-0.061,0.239-0.119-0.044-0.279c-0.765-0.369-1.453-0.406-2.063-0.266c-0.547,0.104-1.3,0.481-1.921,1.224L11.99,8.12
					c-0.114,0.172-0.105,0.285-0.164,0.429c0.072,0.148,0.212,0.21,0.261,0.308c0.322,0.228,0.37,0.891,0.741,0.972
					c0.118,0.078,0.492-0.72,0.819-0.581c0.073,0.021,0.079,0.166,0.16,0.258c0.16-0.062,0.203,0.058,0.268,0.178l0.031-0.001
					c0.021,0.046,0.099,0.165,0.1,0.164c0.513,0.038,0.889,0.188,0.944,0.331c0.051,0.063,0.227,0.107,0.386,0.155
					c0.112,0.004,0.043,0.189,0.027,0.245c0.128,0.05,0.273-0.003,0.413,0.005c0.082,0.708-0.316,0.917,0.013,1.229
					c-0.239,0.214-0.175,0.48-0.656,0.722c-0.639,0.275-1.604,0.58-2.438,0.383c-0.532,0.088-0.79-0.396-1.211-0.533
					c-0.176-0.045-0.22-0.244-0.314-0.367c-2.018-3.133-0.686-7.207,3.075-6.919c3.834,0.38,6.818,4.645,9.743,6.611
					c3.002,2.424,5.99,3.199,7.624,2.844C32.04,14.499,32.622,14.08,32.876,13.607z"/>
			</g>
		</g>
		<g>
			<path i:knockout="Off" fill="#BEBEBE" d="M32.075,13.607c-2.909,1.838-6.646-0.775-8.357-2.002
				c-0.601-0.486-1.051-0.865-1.376-1.163c-0.271-0.25,0.385,0.291,1.376,1.163c0.432,0.4,1.046,0.75,1.778,1.162
				c-0.873-0.609-1.556-1.306-2.012-1.859l-1.21-0.949c-1.721-1.513-3.424-2.931-5.12-4.471c-0.659-0.589-2.387-1.355-3.25-1.527
				c3.651,0.815,5.689,3.791,8.345,5.709l-0.187-0.196l-3.936-3.502L17.44,5.363l0.687,0.608c0.603,0.504,1.221,0.954,1.888,1.491
				l1.203,1.112l0.845,0.898l0.587,0.518l0.204,0.127l-0.005-0.01c-0.364-0.635-4.802-5.334-6.197-5.91
				c-0.899-0.565-1.935-0.369-2.969-0.624c-0.372,0.022-0.692-0.045-0.979,0.04c-0.025,0.048-0.167,0.09-0.305,0.133
				c-0.732-0.051-1.481,0.226-1.955,0.604c-0.374,0.071-1.722,0.442-1.672,0.715c0.203,0.609,0.025,0.14-0.594,1.053
				C8.133,6.235,8.229,6.684,8.151,6.903C7.853,7.655,7.878,7.938,8.003,8.794c0.151,1.263-0.021,1.603,0.578,2.615
				c-0.057,0.17,1.226,1.584,1.186,1.563c1.035,1.051,1.949,1.024,3.02,1.42c1.176-0.415,2.938-0.313,3.895-1.732
				c0.718-1.406,0.54-2.022,0.44-3.415c-0.201-0.347-0.408-0.58-0.506-0.813c-0.136-0.218-0.551-0.611-0.935-0.794l0.181-0.076
				c-0.136-0.069-0.425-0.2-0.578-0.261c-0.151-0.061-0.099-0.092-0.042-0.123c0.11-0.061,0.239-0.119-0.044-0.279
				c-0.765-0.369-1.453-0.406-2.063-0.266c-0.547,0.104-1.3,0.481-1.921,1.224L11.19,8.12c-0.114,0.172-0.105,0.285-0.164,0.429
				c0.072,0.148,0.212,0.21,0.261,0.308c0.322,0.228,0.37,0.891,0.741,0.972c0.118,0.078,0.492-0.72,0.818-0.581
				c0.074,0.021,0.08,0.166,0.161,0.258c0.16-0.062,0.203,0.058,0.268,0.178l0.031-0.001c0.021,0.046,0.099,0.165,0.1,0.164
				c0.513,0.038,0.889,0.188,0.944,0.331c0.051,0.063,0.227,0.107,0.386,0.155c0.112,0.004,0.044,0.189,0.027,0.245
				c0.128,0.05,0.273-0.003,0.413,0.005c0.082,0.708-0.316,0.916,0.013,1.228c-0.239,0.215-0.175,0.48-0.656,0.723
				c-0.639,0.275-1.604,0.58-2.438,0.383c-0.532,0.088-0.79-0.396-1.211-0.533c-0.176-0.045-0.22-0.244-0.314-0.367
				c-2.018-3.133-0.687-7.208,3.075-6.919c3.834,0.379,6.816,4.645,9.742,6.611c3.003,2.423,5.99,3.2,7.624,2.844
				C31.239,14.499,31.821,14.08,32.075,13.607z"/>
		</g>
		<path i:knockout="Off" fill="#EFEFEF" stroke="#000000" stroke-width="0.8" stroke-linecap="round" stroke-linejoin="round" d="
			M15.016,11.364l-6.05,2.97l-1.047-2.287l6.402-2.695"/>
		<path i:knockout="Off" fill="#EFEFEF" stroke="#000000" stroke-width="0.8" stroke-linecap="round" stroke-linejoin="round" d="
			M17.167,8.154l7.985-3.362l0.594,1.303l-8.433,4.141"/>
		<path i:knockout="Off" fill="#E69A00" stroke="#000000" stroke-width="0.92" d="M8.993,13.854l-0.754-1.633l4.703-1.952l0.6,1.3
			L8.993,13.854z"/>
		<path i:knockout="Off" fill="#999999" d="M8.993,13.854l-0.754-1.633l4.703-1.952l0.6,1.3L8.993,13.854z"/>
		<path i:knockout="Off" fill="none" stroke="#000000" stroke-width="0.42" stroke-linecap="round" stroke-linejoin="round" d="
			M25.513,8.482c0.009,0.173-0.08,0.949-0.062,1.156"/>
		<path i:knockout="Off" fill="none" stroke="#000000" stroke-width="0.42" stroke-linecap="round" stroke-linejoin="round" d="
			M28.074,6.571c0.281,0.102,0.869,0.562,1.07,0.721"/>
		<path i:knockout="Off" fill="none" stroke="#000000" stroke-width="0.42" stroke-linecap="round" stroke-linejoin="round" d="
			M23.027,3.415c-0.261-0.129-0.733-0.589-0.991-0.719"/>
		<path i:knockout="Off" fill="none" stroke="#000000" stroke-width="0.42" stroke-linecap="round" stroke-linejoin="round" d="
			M28.111,3.477c0.184-0.096,0.849-0.272,1.033-0.404"/>
		<path i:knockout="Off" fill="none" stroke="#000000" stroke-width="0.42" stroke-linecap="round" stroke-linejoin="round" d="
			M25.14,1.974c0.055-0.284-0.015-0.881,0.078-1.161"/>
	</g>
</svg>
