<?xml version="1.0" encoding="utf-8"?>
<!-- Generator: Adobe Illustrator 21.0.2, SVG Export Plug-In . SVG Version: 6.00 Build 0)  -->
<svg version="1.1"
	 id="svg2" inkscape:version="0.91 r13725" sodipodi:docname="studiopalette.svg" xmlns:cc="http://creativecommons.org/ns#" xmlns:dc="http://purl.org/dc/elements/1.1/" xmlns:inkscape="http://www.inkscape.org/namespaces/inkscape" xmlns:rdf="http://www.w3.org/1999/02/22-rdf-syntax-ns#" xmlns:sodipodi="http://sodipodi.sourceforge.net/DTD/sodipodi-0.dtd" xmlns:svg="http://www.w3.org/2000/svg"
	 xmlns="http://www.w3.org/2000/svg" xmlns:xlink="http://www.w3.org/1999/xlink" x="0px" y="0px" viewBox="0 0 21 17"
	 style="enable-background:new 0 0 21 17;" xml:space="preserve">
<style type="text/css">
	.st0{fill:#92FF00;stroke:#404040;stroke-width:2;stroke-linecap:square;stroke-miterlimit:1.5;}
	.st1{fill:#92FF00;}
	.st2{fill:none;stroke:#000000;stroke-width:2;stroke-linecap:square;stroke-miterlimit:1.5;}
	.st3{fill:#FFFFFF;}
</style>
<sodipodi:namedview  bordercolor="#666666" borderopacity="1" gridtolerance="10" guidetolerance="10" id="namedview59" inkscape:current-layer="svg2" inkscape:cx="10.5" inkscape:cy="8.5" inkscape:pageopacity="0" inkscape:pageshadow="2" inkscape:window-height="500" inkscape:window-maximized="0" inkscape:window-width="1109" inkscape:window-x="0" inkscape:window-y="0" inkscape:zoom="13.882353" objecttolerance="10" pagecolor="#ffffff" showgrid="false">
	</sodipodi:namedview>
<g>
	<rect id="rect7" x="5" y="5" class="st0" width="2" height="2"/>
	<rect id="rect9" x="5" y="5" class="st1" width="2" height="2"/>
	<rect id="rect11" x="8" y="5" class="st0" width="2" height="2"/>
	<rect id="rect13" x="8" y="5" class="st1" width="2" height="2"/>
	<rect id="rect15" x="11" y="5" class="st0" width="2" height="2"/>
	<rect id="rect17" x="11" y="5" class="st1" width="2" height="2"/>
	<rect id="rect19" x="14" y="5" class="st0" width="2" height="2"/>
	<rect id="rect21" x="14" y="5" class="st1" width="2" height="2"/>
	<rect id="rect23" x="5" y="8" class="st0" width="2" height="2"/>
	<rect id="rect25" x="5" y="8" class="st1" width="2" height="2"/>
	<rect id="rect27" x="8" y="8" class="st0" width="2" height="2"/>
	<rect id="rect29" x="8" y="8" class="st1" width="2" height="2"/>
	<rect id="rect31" x="11" y="8" class="st0" width="2" height="2"/>
	<rect id="rect33" x="11" y="8" class="st1" width="2" height="2"/>
	<rect id="rect35" x="14" y="8" class="st0" width="2" height="2"/>
	<rect id="rect37" x="14" y="8" class="st1" width="2" height="2"/>
	<rect id="rect39" x="5" y="11" class="st0" width="2" height="2"/>
	<rect id="rect41" x="5" y="11" class="st1" width="2" height="2"/>
	<rect id="rect43" x="8" y="11" class="st0" width="2" height="2"/>
	<rect id="rect45" x="8" y="11" class="st1" width="2" height="2"/>
	<rect id="rect47" x="11" y="11" class="st0" width="2" height="2"/>
	<rect id="rect49" x="11" y="11" class="st1" width="2" height="2"/>
	<rect id="rect51" x="14" y="11" class="st0" width="2" height="2"/>
	<rect id="rect53" x="14" y="11" class="st1" width="2" height="2"/>
	<path id="path55" inkscape:connector-curvature="0" class="st2" d="M13,12h2v-1h1v2h-3V12z M14,10h1v1h-1V10z M13,8h3v1h-2v1h-1V8z
		"/>
	<path id="path57" inkscape:connector-curvature="0" class="st3" d="M13,12h2v-1h1v2h-3V12z M14,10h1v1h-1V10z M13,8h3v1h-2v1h-1V8z
		"/>
</g>
</svg>
