<?xml version="1.0" encoding="UTF-8" standalone="no"?>
<svg
   xmlns:dc="http://purl.org/dc/elements/1.1/"
   xmlns:cc="http://creativecommons.org/ns#"
   xmlns:rdf="http://www.w3.org/1999/02/22-rdf-syntax-ns#"
   xmlns:svg="http://www.w3.org/2000/svg"
   xmlns="http://www.w3.org/2000/svg"
   xml:space="preserve"
   style="enable-background:new 0 0 21 17;"
   viewBox="0 0 21 17"
   y="0px"
   x="0px"
   id="svg2"
   version="1.1"><metadata
     id="metadata36"><rdf:RDF><cc:Work
         rdf:about=""><dc:format>image/svg+xml</dc:format><dc:type
           rdf:resource="http://purl.org/dc/dcmitype/StillImage" /><dc:title></dc:title></cc:Work></rdf:RDF></metadata><defs
     id="defs34" /><style
     id="style2"
     type="text/css">
	.st0{fill:#92FF00;stroke:#404040;stroke-width:2;stroke-linecap:square;stroke-miterlimit:1.5;}
	.st1{fill:#92FF00;}
	.st2{fill:none;stroke:#000000;stroke-width:2;stroke-linecap:square;stroke-miterlimit:1.5;}
	.st3{fill:#FFFFFF;}
</style><path
     id="rect7"
     d="M 5 5 L 5 7 L 7 7 L 7 5 L 5 5 z M 8 5 L 8 7 L 10 7 L 10 5 L 8 5 z M 11 5 L 11 7 L 13 7 L 13 5 L 11 5 z M 14 5 L 14 7 L 16 7 L 16 5 L 14 5 z M 5 8 L 5 10 L 7 10 L 7 8 L 5 8 z M 8 8 L 8 10 L 10 10 L 10 8 L 8 8 z M 11 8 L 11 10 L 13 10 L 13 8 L 11 8 z M 14 8 L 14 10 L 16 10 L 16 8 L 14 8 z M 5 11 L 5 13 L 7 13 L 7 11 L 5 11 z M 8 11 L 8 13 L 10 13 L 10 11 L 8 11 z M 11 11 L 11 13 L 13 13 L 13 11 L 11 11 z M 14 11 L 14 13 L 16 13 L 16 11 L 14 11 z "
     style="fill:#92ff00;stroke:#303030;stroke-width:2;stroke-linecap:square;stroke-miterlimit:1.5;stroke-opacity:1" /><rect
     id="rect9"
     x="5"
     y="5"
     class="st1"
     width="2"
     height="2"
     style="fill:#92ff00" /><rect
     id="rect13"
     x="8"
     y="5"
     class="st1"
     width="2"
     height="2"
     style="fill:#92ff00" /><rect
     id="rect17"
     x="11"
     y="5"
     class="st1"
     width="2"
     height="2"
     style="fill:#92ff00" /><rect
     id="rect21"
     x="14"
     y="5"
     class="st1"
     width="2"
     height="2"
     style="fill:#92ff00" /><rect
     id="rect25"
     x="5"
     y="8"
     class="st1"
     width="2"
     height="2"
     style="fill:#92ff00" /><rect
     id="rect29"
     x="8"
     y="8"
     class="st1"
     width="2"
     height="2"
     style="fill:#92ff00" /><rect
     id="rect33"
     x="11"
     y="8"
     class="st1"
     width="2"
     height="2"
     style="fill:#92ff00" /><rect
     id="rect37"
     x="14"
     y="8"
     class="st1"
     width="2"
     height="2"
     style="fill:#92ff00" /><rect
     id="rect41"
     x="5"
     y="11"
     class="st1"
     width="2"
     height="2"
     style="fill:#92ff00" /><rect
     id="rect45"
     x="8"
     y="11"
     class="st1"
     width="2"
     height="2"
     style="fill:#92ff00" /><rect
     id="rect49"
     x="11"
     y="11"
     class="st1"
     width="2"
     height="2"
     style="fill:#92ff00" /><rect
     id="rect53"
     x="14"
     y="11"
     class="st1"
     width="2"
     height="2"
     style="fill:#92ff00" /><g
     transform="translate(-7.589413,1.4261984)"
     id="g876"><path
       style="fill:none;stroke:#000000;stroke-width:2;stroke-linecap:square;stroke-miterlimit:1.5"
       d="m 20.589413,10.573802 h 2 V 9.5738016 h 1 v 2.0000004 h -3 z m 1,-2.0000004 h 1 v 1 h -1 z m -1,-2 h 3 v 1 h -2 v 1 h -1 z"
       class="st2"
       id="path55" /><path
       style="fill:#ffffff"
       d="m 20.589413,10.573802 h 2 V 9.5738016 h 1 v 2.0000004 h -3 z m 1,-2.0000004 h 1 v 1 h -1 z m -1,-2 h 3 v 1 h -2 v 1 h -1 z"
       class="st3"
       id="path57" /></g></svg>