<?xml version="1.0" encoding="utf-8"?>
<!-- Generator: Adobe Illustrator 10.0, SVG Export Plug-In . SVG Version: 3.0.0 Build 76)  -->
<!DOCTYPE svg PUBLIC "-//W3C//DTD SVG 1.0//EN"    "http://www.w3.org/TR/2001/REC-SVG-20010904/DTD/svg10.dtd" [
	<!ENTITY ns_flows "http://ns.adobe.com/Flows/1.0/">
	<!ENTITY ns_extend "http://ns.adobe.com/Extensibility/1.0/">
	<!ENTITY ns_ai "http://ns.adobe.com/AdobeIllustrator/10.0/">
	<!ENTITY ns_graphs "http://ns.adobe.com/Graphs/1.0/">
	<!ENTITY ns_vars "http://ns.adobe.com/Variables/1.0/">
	<!ENTITY ns_imrep "http://ns.adobe.com/ImageReplacement/1.0/">
	<!ENTITY ns_sfw "http://ns.adobe.com/SaveForWeb/1.0/">
	<!ENTITY ns_custom "http://ns.adobe.com/GenericCustomNamespace/1.0/">
	<!ENTITY ns_adobe_xpath "http://ns.adobe.com/XPath/1.0/">
	<!ENTITY ns_svg "http://www.w3.org/2000/svg">
	<!ENTITY ns_xlink "http://www.w3.org/1999/xlink">
]>
<svg 
	 xmlns:x="&ns_extend;" xmlns:i="&ns_ai;" xmlns:graph="&ns_graphs;" i:viewOrigin="382.083 306.4688" i:rulerOrigin="0 0" i:pageBounds="0 600 800 0"
	 xmlns="&ns_svg;" xmlns:xlink="&ns_xlink;" xmlns:a="http://ns.adobe.com/AdobeSVGViewerExtensions/3.0/" width="37" height="17"
	 viewBox="0 0 37 17" overflow="visible" enable-background="new 0 0 37 17" xml:space="preserve">
	<metadata>
		<variableSets  xmlns="http://ns.adobe.com/Variables/1.0/">
			<variableSet  varSetName="binding1" locked="none">
				<variables></variables>
				<v:sampleDataSets  xmlns="http://ns.adobe.com/GenericCustomNamespace/1.0/" xmlns:v="http://ns.adobe.com/Variables/1.0/">
					</v:sampleDataSets>
			</variableSet>
		</variableSets>
		<sfw  xmlns="&ns_sfw;">
			<slices></slices>
			<sliceSourceBounds  y="289.469" x="382.083" width="37" height="17" bottomLeftOrigin="true"></sliceSourceBounds>
		</sfw>
	</metadata>
	<g id="Layer_1" i:knockout="Off" i:layer="yes" i:dimmedPercent="50" i:rgbTrio="#4F008000FFFF">
		<path i:knockout="Off" fill="none" d="M37,17H0V0h37V17z"/>
		<g>
			<path i:knockout="Off" fill="none" d="M8.306,13.402c0.125-0.09,0.255-0.183,0.379-0.271c-0.122,0.014-0.243,0.024-0.364,0.034
				C8.316,13.243,8.311,13.322,8.306,13.402z"/>
			<path i:knockout="Off" fill="none" d="M8.321,13.166c0.005-0.071,0.009-0.146,0.014-0.215c-0.112,0.08-0.23,0.164-0.344,0.246
				C8.1,13.19,8.211,13.176,8.321,13.166z"/>
			<path i:knockout="Off" fill="#808080" d="M25.569,2.06l0.019,0.02c0.029,0.012,0.065,0.018,0.093,0.032l-0.004-0.013
				C25.639,2.085,25.609,2.074,25.569,2.06z"/>
			<path i:knockout="Off" fill="#808080" d="M16.749,11.097c-0.001,0.001-0.002,0.001-0.002,0.001c0.001,0,0.002,0.001,0.003,0.001
				L16.749,11.097z"/>
			<path i:knockout="Off" fill="#CCCCCC" d="M15.099,4.897c-0.063,0.042-0.111,0.074-0.168,0.112
				c0.094-0.028,0.188-0.052,0.281-0.081C15.172,4.918,15.141,4.909,15.099,4.897z"/>
			<path i:knockout="Off" fill="none" d="M22.715,4.459c-0.92-0.299-1.458-0.465-2.343-0.734c-0.705,0.498-1.141,0.796-1.879,1.292
				l0.17,0.803l0.236,1.109c0.935,0.266,1.49,0.429,2.469,0.734c0.731-0.467,1.169-0.75,1.875-1.223l-0.059-0.218L22.715,4.459z
				 M21.25,7.279c-0.769-0.237-1.152-0.35-1.919-0.573c-0.14-0.632-0.209-0.945-0.348-1.576c0.612-0.411,0.912-0.617,1.5-1.026
				c0.74,0.227,1.111,0.342,1.853,0.581c0.168,0.642,0.252,0.964,0.419,1.607C22.167,6.685,21.866,6.882,21.25,7.279z"/>
			<path i:knockout="Off" fill="none" d="M26.867,7.82L27,7.73c0.031-0.021,0.054-0.036,0.083-0.056
				c-0.015-0.071-0.028-0.139-0.043-0.207c-0.079,0.053-0.147,0.101-0.235,0.161l-0.098,0.066l-0.109-0.044
				c-1.034-0.412-1.556-0.602-2.595-0.961c0,0-0.111-0.038-0.111-0.039l-0.029-0.113l-0.298-1.094l-0.317-1.169l-0.04-0.147
				l0.124-0.09c0.8-0.581,1.167-0.861,1.872-1.425l0.095-0.077l0.117,0.041c0.331,0.118,0.602,0.216,0.858,0.31
				c-0.01-0.036-0.017-0.077-0.028-0.11c-0.248-0.09-0.509-0.185-0.826-0.297l-0.107-0.037l-0.03-0.11l-0.103-0.363
				c-0.046-0.006-0.098-0.004-0.146-0.007l0.093,0.332c0,0,0.04,0.142,0.04,0.143l-0.113,0.091c-0.752,0.605-1.132,0.891-1.89,1.447
				L23.07,4.042l-0.108-0.036c-1.014-0.334-1.528-0.494-2.545-0.805c0,0-0.121-0.038-0.121-0.037l-0.007-0.028
				c-0.056,0.02-0.113,0.042-0.17,0.062l-0.077,0.056c-0.81,0.576-1.233,0.866-2.091,1.445c0,0-0.086,0.058-0.087,0.057l-0.1-0.028
				l-1.04-0.296c-0.053,0.019-0.105,0.037-0.158,0.055l1.09,0.308l0.129,0.037l0.027,0.13l0.14,0.686l0.306,1.508l0.031,0.149
				l-0.128,0.082l-1.487,0.952l-0.813,0.52c0,0-0.081,0.051-0.082,0.051l-0.093-0.023l-2.089-0.522l-0.618-0.153l-0.146-0.037
				l-0.021-0.147l-0.113-0.836l-0.19-1.387l-0.02-0.138l0.07-0.046c-0.112,0.023-0.223,0.038-0.335,0.059l0.09,0.024l0.019,0.148
				l0.141,1.099l0.144,1.131c0,0,0.018,0.137,0.017,0.138l-0.115,0.076l-2.435,1.617c0,0-0.079,0.052-0.081,0.054L9.913,9.94
				L8.617,9.645C8.612,9.692,8.608,9.74,8.603,9.789c0,0.006-0.001,0.012-0.002,0.018l1.101,0.246c0,0,0.156,0.034,0.158,0.034
				l0.016,0.16l0.225,2.295l0.013,0.131l-0.107,0.074c-0.139,0.096-0.252,0.175-0.375,0.26c0.469-0.073,0.944-0.162,1.424-0.267
				l-0.555-0.114c0,0-0.158-0.032-0.16-0.032l-0.017-0.161l-0.242-2.281c0,0-0.014-0.134-0.015-0.133l0.112-0.074l2.447-1.625
				l0.081-0.054l0.094,0.022l0.388,0.094l2.337,0.576c0,0,0.143,0.035,0.141,0.035l0.025,0.145l0.367,2.188
				c0.087-0.029,0.175-0.058,0.262-0.087l-0.275-1.554l-0.103-0.582l-0.026-0.146l0.126-0.079l0.979-0.62l1.327-0.844l0.083-0.055
				l0.096,0.026c1.081,0.304,1.629,0.461,2.715,0.795l0.122,0.036l0.027,0.125l0.132,0.55l0.139,0.59
				c0.054-0.017,0.109-0.033,0.163-0.049l-0.15-0.619l-0.103-0.425l-0.038-0.154l0.135-0.085c0.844-0.534,1.271-0.805,2.095-1.354
				l0.091-0.061l0.104,0.035c1.097,0.378,1.613,0.57,2.632,0.973c0,0,0.103,0.041,0.103,0.04l0.03,0.106l0.317,1.13
				c0.058,0.025,0.127,0.036,0.183,0.065l-0.313-1.106C26.911,7.977,26.867,7.821,26.867,7.82z M23.623,6.721
				c-0.832,0.558-1.259,0.833-2.103,1.371l-0.087,0.056l-0.099-0.031c-1.095-0.34-1.632-0.496-2.688-0.797
				c0,0-0.128-0.036-0.128-0.037l-0.028-0.131l-0.264-1.239l-0.201-0.949l-0.031-0.147l0.124-0.083
				c0.856-0.577,1.279-0.865,2.085-1.434l0.091-0.063l0.104,0.031c0.998,0.304,1.523,0.466,2.568,0.807l0.115,0.038l0.03,0.116
				l0.501,1.88l0.1,0.371l0.041,0.153L23.623,6.721z"/>
			<path i:knockout="Off" fill="none" d="M9.412,5.939C9.242,5.938,9.074,5.933,8.907,5.923C8.9,6.046,8.893,6.175,8.886,6.291
				C9.046,6.184,9.22,6.067,9.412,5.939z"/>
			<path i:knockout="Off" fill="none" d="M11.453,6.314c0.077,0.641,0.114,0.961,0.189,1.605C10.953,8.374,10.605,8.604,9.9,9.079
				c-0.491-0.112-0.828-0.19-1.202-0.278C8.686,8.936,8.673,9.068,8.661,9.198l1.259,0.288l2.243-1.488l-0.126-0.995l-0.122-0.952
				L11.89,6.045l-0.73-0.198c-0.385,0.047-0.766,0.072-1.145,0.088C10.501,6.065,10.864,6.159,11.453,6.314z"/>
			<path i:knockout="Off" fill="none" d="M22.556,8.581c0.616-0.389,0.917-0.58,1.504-0.965c0.761,0.268,1.141,0.406,1.896,0.697
				c0.049,0.175,0.091,0.326,0.13,0.468c0.148,0.016,0.306,0.021,0.442,0.052l-0.202-0.719c-0.904-0.359-1.435-0.554-2.409-0.89
				c-0.719,0.476-1.156,0.757-1.876,1.212l0.066,0.269l0.145,0.601c0.158-0.044,0.303-0.074,0.456-0.114
				C22.662,9.009,22.615,8.819,22.556,8.581z"/>
			<path i:knockout="Off" fill="none" d="M17.461,4.171l0.324,0.092c0.25-0.168,0.464-0.313,0.662-0.448
				C18.121,3.935,17.793,4.052,17.461,4.171z"/>
			<path i:knockout="Off" fill="none" d="M11.257,11.925c-0.078-0.651-0.112-0.976-0.183-1.625c0.711-0.476,1.063-0.708,1.758-1.161
				c0.781,0.186,1.173,0.279,1.963,0.474c0.1,0.635,0.15,0.95,0.252,1.591c-0.539,0.344-0.875,0.559-1.325,0.853
				c0.424-0.124,0.846-0.253,1.267-0.386c0.187-0.119,0.39-0.248,0.61-0.388l-0.323-1.926l-2.192-0.54l-0.293-0.07L10.54,10.24
				l0.21,1.984l1.336,0.276c0.286-0.071,0.571-0.142,0.857-0.22C12.342,12.151,11.936,12.066,11.257,11.925z"/>
			<path i:knockout="Off" fill="none" d="M16.976,5.42c0.122,0.628,0.185,0.941,0.306,1.57c-0.647,0.418-0.977,0.63-1.646,1.063
				c-0.778-0.202-1.163-0.302-1.933-0.495c-0.091-0.635-0.139-0.953-0.232-1.586c0.597-0.392,0.931-0.611,1.459-0.962
				c-0.376,0.113-0.752,0.222-1.128,0.32l-0.556,0.368l-0.278,0.182l0.17,1.249l0.094,0.685l0.472,0.118l1.999,0.503l0.733-0.469
				l1.359-0.869l-0.278-1.359l-0.113-0.555l-1.57-0.442L15.81,4.734c-0.199,0.064-0.397,0.133-0.598,0.194
				C15.88,5.114,16.264,5.22,16.976,5.42z"/>
			<path i:knockout="Off" fill="none" d="M24.213,2.112c-0.529,0.423-0.799,0.63-1.352,1.042c-0.563-0.182-0.911-0.294-1.375-0.439
				c-0.177,0.06-0.356,0.122-0.538,0.186c0.729,0.224,1.248,0.387,2.044,0.649c0.647-0.475,1.035-0.77,1.668-1.278l-0.089-0.317
				c-0.123,0.008-0.256,0.027-0.39,0.045C24.192,2.04,24.201,2.071,24.213,2.112z"/>
			<path i:knockout="Off" fill="none" d="M26.492,6.788c-0.737-0.289-1.109-0.426-1.854-0.69c-0.181-0.655-0.271-0.983-0.453-1.637
				c0.551-0.403,0.82-0.605,1.346-1.014c0.349,0.125,0.611,0.22,0.871,0.318c-0.015-0.117-0.029-0.249-0.044-0.375
				c-0.291-0.108-0.601-0.221-0.973-0.353c-0.605,0.483-0.991,0.776-1.668,1.27l0.276,1.021l0.268,0.983
				c0.928,0.322,1.468,0.519,2.391,0.886C26.755,7.126,26.85,7.062,26.94,7c-0.033-0.15-0.065-0.302-0.098-0.457
				C26.737,6.617,26.623,6.697,26.492,6.788z"/>
			<path i:knockout="Off" fill="none" d="M8.911,5.858L8.819,5.92c0.029,0.002,0.059,0.001,0.088,0.003
				C8.908,5.902,8.909,5.88,8.911,5.858z"/>
			<path i:knockout="Off" fill="none" d="M8.951,10.754c0.057,0.662,0.086,0.994,0.148,1.658c-0.3,0.21-0.536,0.376-0.764,0.539
				c-0.005,0.068-0.009,0.144-0.014,0.215c0.121-0.01,0.242-0.021,0.364-0.034c0.292-0.206,0.599-0.421,0.964-0.674l-0.198-2.006
				l-0.893-0.199c-0.013,0.133-0.026,0.269-0.039,0.409C8.653,10.69,8.79,10.72,8.951,10.754z"/>
			<path i:knockout="Off" fill="none" d="M7.991,13.197c-0.025,0.019-0.052,0.037-0.078,0.057l0.25,0.251
				c0.047-0.034,0.096-0.069,0.143-0.103c0.005-0.08,0.01-0.159,0.015-0.236C8.211,13.176,8.1,13.19,7.991,13.197z"/>
			<path i:knockout="Off" fill="none" d="M17.236,10.849c-0.118-0.637-0.177-0.947-0.294-1.58c0.675-0.425,1.005-0.634,1.656-1.047
				c0.781,0.217,1.171,0.328,1.956,0.563c0.09,0.391,0.152,0.665,0.22,0.964c0.157-0.05,0.31-0.095,0.464-0.143l-0.145-0.612
				l-0.101-0.425c-0.962-0.295-1.521-0.456-2.487-0.727l-1.245,0.79l-0.852,0.541l0.077,0.435l0.264,1.488
				c0.211-0.071,0.418-0.141,0.627-0.212C17.327,10.872,17.288,10.862,17.236,10.849z"/>
			<path i:knockout="Off" fill="#808080" d="M24.292,6.423l-0.031-0.113c-0.039-0.014-0.069-0.024-0.111-0.039L24.292,6.423z"/>
			<path i:knockout="Off" fill="#808080" d="M25.298,2.536l-0.095,0.077c-0.705,0.564-1.072,0.844-1.872,1.425l-0.124,0.09
				l0.04,0.147l0.317,1.169l0.298,1.094l0.029,0.113c0,0.001,0.111,0.039,0.111,0.039c1.039,0.359,1.561,0.549,2.595,0.961
				l0.109,0.044l0.098-0.066c0.088-0.06,0.156-0.107,0.235-0.161c-0.032-0.156-0.064-0.307-0.097-0.454
				C26.942,7.01,26.941,7.005,26.94,7c-0.091,0.062-0.186,0.127-0.289,0.197c0.04,0.016,0.07,0.027,0.111,0.044l-0.207,0.022
				c0.036-0.024,0.062-0.042,0.096-0.066c-0.923-0.367-1.463-0.563-2.391-0.886l0.031,0.113l-0.143-0.152
				c0.042,0.015,0.072,0.025,0.111,0.039l-0.268-0.983l-0.276-1.021c-0.044,0.032-0.077,0.057-0.124,0.091l0.084-0.238l0.04,0.147
				c0.677-0.493,1.063-0.786,1.668-1.27c-0.041-0.015-0.073-0.026-0.116-0.042l0.214-0.036c-0.036,0.029-0.063,0.05-0.098,0.078
				c0.372,0.132,0.682,0.245,0.973,0.353c-0.012-0.105-0.023-0.201-0.036-0.313c-0.012-0.069-0.031-0.128-0.048-0.19
				c-0.257-0.094-0.527-0.192-0.858-0.31L25.298,2.536z"/>
			<path i:knockout="Off" fill="#808080" d="M23.593,4.397c0.047-0.034,0.08-0.059,0.124-0.091l-0.04-0.147L23.593,4.397z"/>
			<path i:knockout="Off" fill="#808080" d="M25.269,2.995c0.043,0.016,0.075,0.027,0.116,0.042
				c0.034-0.028,0.062-0.049,0.098-0.078L25.269,2.995z"/>
			<path i:knockout="Off" fill="#808080" d="M26.763,7.24c-0.041-0.017-0.071-0.028-0.111-0.044
				c-0.034,0.023-0.06,0.042-0.096,0.066L26.763,7.24z"/>
			<path i:knockout="Off" fill="#CCCCCC" d="M24.185,4.461c0.183,0.654,0.272,0.982,0.453,1.637c0.745,0.264,1.117,0.401,1.854,0.69
				c0.131-0.091,0.245-0.171,0.351-0.246c-0.139-0.664-0.277-1.424-0.441-2.777c-0.26-0.098-0.522-0.193-0.871-0.318
				C25.005,3.856,24.735,4.058,24.185,4.461z"/>
			<path i:knockout="Off" fill="#808080" d="M20.417,3.201c1.017,0.311,1.531,0.471,2.545,0.805l0.108,0.036l0.093-0.068
				c0.758-0.556,1.138-0.842,1.89-1.447l0.113-0.091c0-0.001-0.04-0.143-0.04-0.143l-0.093-0.332
				c-0.146-0.01-0.295-0.018-0.462-0.006l0.089,0.317c0.04-0.032,0.071-0.057,0.113-0.09L24.7,2.415l-0.04-0.143
				C24.027,2.78,23.64,3.075,22.992,3.55c0.039,0.013,0.068,0.022,0.108,0.035l-0.199,0.032c0.034-0.025,0.059-0.043,0.091-0.067
				c-0.796-0.262-1.315-0.425-2.044-0.649c-0.218,0.078-0.436,0.154-0.659,0.235l0.007,0.028
				C20.296,3.163,20.417,3.201,20.417,3.201z"/>
			<path i:knockout="Off" fill="#808080" d="M24.773,2.182C24.731,2.216,24.7,2.24,24.66,2.272l0.04,0.143L24.773,2.182z"/>
			<path i:knockout="Off" fill="#808080" d="M23.101,3.585c-0.04-0.013-0.069-0.022-0.108-0.035
				c-0.032,0.023-0.057,0.042-0.091,0.067L23.101,3.585z"/>
			<path i:knockout="Off" fill="#CCCCCC" d="M24.213,2.112c-0.012-0.042-0.021-0.072-0.031-0.111
				c-0.765,0.107-1.686,0.37-2.695,0.714c0.464,0.146,0.813,0.257,1.375,0.439C23.414,2.742,23.684,2.535,24.213,2.112z"/>
			<path i:knockout="Off" fill="#808080" d="M25.312,2.442l0.107,0.037c0.317,0.113,0.578,0.207,0.826,0.297
				c-0.1-0.297-0.262-0.509-0.49-0.641c-0.021-0.012-0.052-0.014-0.074-0.025l0.027,0.096l-0.12-0.127
				c-0.124-0.05-0.256-0.091-0.409-0.11l0.103,0.363L25.312,2.442z"/>
			<path i:knockout="Off" fill="#808080" d="M25.708,2.207l-0.027-0.096c-0.027-0.014-0.063-0.02-0.093-0.032L25.708,2.207z"/>
			<path i:knockout="Off" fill="#808080" d="M21.906,8.521c0.05-0.031,0.088-0.056,0.135-0.085l-0.038-0.155L21.906,8.521z"/>
			<path i:knockout="Off" fill="#808080" d="M23.815,7.188c0.038,0.013,0.065,0.023,0.102,0.036
				c0.033-0.022,0.059-0.039,0.093-0.061L23.815,7.188z"/>
			<path i:knockout="Off" fill="#808080" d="M26.694,7.781c0,0.001-0.103-0.04-0.103-0.04c-1.019-0.403-1.535-0.595-2.632-0.973
				l-0.104-0.035l-0.091,0.061c-0.824,0.549-1.251,0.82-2.095,1.354l-0.135,0.085l0.038,0.154l0.103,0.425l0.15,0.619
				c0.14-0.041,0.288-0.088,0.425-0.126l-0.145-0.601l-0.066-0.269c-0.047,0.029-0.085,0.054-0.135,0.085l0.097-0.24l0.038,0.155
				c0.72-0.455,1.157-0.736,1.876-1.212c-0.036-0.013-0.063-0.022-0.102-0.036l0.194-0.025c-0.034,0.022-0.06,0.039-0.093,0.061
				c0.975,0.336,1.505,0.531,2.409,0.89l-0.029-0.105l0.13,0.145c-0.037-0.015-0.064-0.025-0.101-0.039l0.202,0.719
				c0.187,0.042,0.351,0.112,0.514,0.185l-0.317-1.13L26.694,7.781z"/>
			<path i:knockout="Off" fill="#808080" d="M26.297,8.009l0.029,0.105c0.036,0.014,0.063,0.024,0.101,0.039L26.297,8.009z"/>
			<path i:knockout="Off" fill="#CCCCCC" d="M24.06,7.616c-0.587,0.385-0.888,0.576-1.504,0.965c0.06,0.238,0.106,0.428,0.152,0.61
				c1.31-0.337,2.455-0.508,3.378-0.41c-0.039-0.142-0.081-0.293-0.13-0.468C25.2,8.022,24.82,7.884,24.06,7.616z"/>
			<path i:knockout="Off" fill="#808080" d="M27.343,9.162c-0.093-0.617-0.179-1.087-0.26-1.487C27.054,7.694,27.031,7.71,27,7.73
				l-0.133,0.09c0,0.001,0.044,0.156,0.044,0.156l0.313,1.106c0.003,0.002,0.007,0.002,0.01,0.004
				C27.273,9.108,27.306,9.139,27.343,9.162z"/>
			<path i:knockout="Off" fill="#BB1E00" d="M17.778,4.268l0.01,0.003c0.003-0.001,0.005-0.003,0.007-0.005l-0.01-0.003
				C17.783,4.265,17.781,4.266,17.778,4.268z"/>
			<path i:knockout="Off" fill="#BB1E00" d="M17.785,4.263l0.01,0.003c0.257-0.173,0.478-0.323,0.682-0.462
				c-0.01,0.004-0.02,0.007-0.03,0.011C18.25,3.949,18.035,4.095,17.785,4.263z"/>
			<path i:knockout="Off" fill="#BB1E00" d="M17.785,4.263l-0.324-0.092c-0.003,0.001-0.007,0.002-0.01,0.003l0.327,0.093
				C17.781,4.266,17.783,4.265,17.785,4.263z"/>
			<path i:knockout="Off" fill="#808080" d="M16.282,9.253l0.125-0.079l-0.026-0.146L16.282,9.253z"/>
			<path i:knockout="Off" fill="#808080" d="M21.394,8.341l-0.027-0.125L21.244,8.18c-1.086-0.334-1.635-0.491-2.715-0.795
				l-0.096-0.026L18.35,7.413l-1.327,0.844l-0.979,0.62l-0.126,0.079l0.026,0.146l0.103,0.582l0.275,1.554
				c0.115-0.038,0.23-0.076,0.344-0.114l-0.057-0.061c0.051,0.013,0.088,0.022,0.137,0.034c0,0,0.001,0,0.002-0.001l-0.264-1.488
				l-0.077-0.435l-0.125,0.079l0.1-0.226l0.026,0.146l0.852-0.541l1.245-0.79c-0.034-0.01-0.06-0.018-0.096-0.027l0.18-0.026
				l-0.084,0.054c0.966,0.271,1.525,0.432,2.487,0.727l-0.029-0.125l0.15,0.162c-0.045-0.014-0.077-0.023-0.121-0.037l0.101,0.425
				l0.145,0.612c0.145-0.044,0.285-0.084,0.427-0.126l-0.139-0.59L21.394,8.341z"/>
			<path i:knockout="Off" fill="#808080" d="M20.963,8.444l0.029,0.125c0.044,0.014,0.076,0.023,0.121,0.037L20.963,8.444z"/>
			<path i:knockout="Off" fill="#808080" d="M18.409,7.815c0.036,0.01,0.062,0.018,0.096,0.027l0.084-0.054L18.409,7.815z"/>
			<path i:knockout="Off" fill="#808080" d="M16.609,11.063l0.057,0.061c0.027-0.009,0.054-0.018,0.081-0.026
				C16.697,11.086,16.66,11.076,16.609,11.063z"/>
			<path i:knockout="Off" fill="#CCCCCC" d="M18.598,8.222c-0.651,0.413-0.981,0.622-1.656,1.047
				c0.117,0.633,0.176,0.943,0.294,1.58c0.052,0.014,0.091,0.023,0.14,0.036c0.24-0.082,0.483-0.164,0.719-0.244
				c0.928-0.316,1.824-0.62,2.678-0.892c-0.067-0.299-0.13-0.573-0.22-0.964C19.77,8.55,19.379,8.438,18.598,8.222z"/>
			<path i:knockout="Off" fill="#808080" d="M15.668,8.993c0.002,0-0.141-0.035-0.141-0.035L13.19,8.382l-0.388-0.094l-0.094-0.022
				l-0.081,0.054L10.18,9.944l-0.112,0.074c0.001-0.001,0.015,0.133,0.015,0.133l0.242,2.281l0.017,0.161
				c0.002,0,0.16,0.032,0.16,0.032l0.555,0.114c0.342-0.074,0.685-0.152,1.03-0.239l-1.336-0.276l0.017,0.16l-0.177-0.193
				l0.16,0.033l-0.21-1.984l-0.111,0.073l0.097-0.207l0.014,0.134l2.251-1.494l-0.095-0.023l0.175-0.03l-0.08,0.054l0.293,0.07
				l2.192,0.54l-0.024-0.145l0.167,0.18l-0.143-0.035l0.323,1.926c0.044-0.028,0.079-0.051,0.125-0.08l-0.101,0.226L15.6,11.282
				c-0.22,0.14-0.424,0.269-0.61,0.388c0.359-0.113,0.715-0.228,1.07-0.345l-0.367-2.188L15.668,8.993z"/>
			<path i:knockout="Off" fill="#808080" d="M10.429,10.313l0.111-0.073l-0.014-0.134L10.429,10.313z"/>
			<path i:knockout="Off" fill="#808080" d="M15.252,9.212l0.024,0.145l0.143,0.035L15.252,9.212z"/>
			<path i:knockout="Off" fill="#808080" d="M10.767,12.385l-0.017-0.16l-0.16-0.033L10.767,12.385z"/>
			<path i:knockout="Off" fill="#808080" d="M12.696,8.723l0.095,0.023l0.08-0.054L12.696,8.723z"/>
			<path i:knockout="Off" fill="#808080" d="M15.725,11.202c-0.046,0.029-0.081,0.052-0.125,0.08l0.024,0.146L15.725,11.202z"/>
			<path i:knockout="Off" fill="#CCCCCC" d="M14.795,9.612c-0.79-0.194-1.182-0.288-1.963-0.474
				c-0.695,0.453-1.047,0.686-1.758,1.161c0.071,0.649,0.105,0.974,0.183,1.625c0.679,0.142,1.085,0.227,1.687,0.356
				c0.26-0.071,0.519-0.149,0.779-0.226c0.45-0.294,0.786-0.509,1.325-0.853C14.945,10.563,14.895,10.247,14.795,9.612z"/>
			<path i:knockout="Off" fill="#808080" d="M22.684,4.343l0.031,0.116c0.041,0.014,0.072,0.023,0.115,0.038L22.684,4.343z"/>
			<path i:knockout="Off" fill="#808080" d="M23.284,6.594l0.091-0.241c-0.049,0.033-0.086,0.057-0.132,0.088L23.284,6.594z"/>
			<path i:knockout="Off" fill="#808080" d="M21.468,7.694c-0.037-0.012-0.063-0.02-0.1-0.03c-0.03,0.02-0.054,0.034-0.086,0.055
				L21.468,7.694z"/>
			<path i:knockout="Off" fill="#808080" d="M18.927,7.06l-0.028-0.13c-0.045-0.013-0.081-0.023-0.128-0.037L18.927,7.06z"/>
			<path i:knockout="Off" fill="#808080" d="M20.269,3.693c0.038,0.012,0.066,0.021,0.104,0.032c0.032-0.022,0.057-0.04,0.09-0.063
				L20.269,3.693z"/>
			<path i:knockout="Off" fill="#808080" d="M18.368,5.101c0.046-0.031,0.081-0.054,0.125-0.084l-0.031-0.146L18.368,5.101z"/>
			<path i:knockout="Off" fill="#808080" d="M23.614,6.108l-0.501-1.88l-0.03-0.116l-0.115-0.038
				c-1.045-0.341-1.57-0.503-2.568-0.807l-0.104-0.031l-0.091,0.063c-0.806,0.569-1.229,0.857-2.085,1.434l-0.124,0.083l0.031,0.147
				l0.201,0.949l0.264,1.239l0.028,0.131c0,0.001,0.128,0.037,0.128,0.037c1.056,0.301,1.593,0.457,2.688,0.797l0.099,0.031
				l0.087-0.056c0.844-0.538,1.271-0.813,2.103-1.371l0.132-0.089l-0.041-0.153L23.614,6.108z M23.284,6.594l-0.041-0.153
				c-0.706,0.473-1.144,0.756-1.875,1.223c0.036,0.011,0.063,0.019,0.1,0.03l-0.186,0.024c0.032-0.021,0.056-0.035,0.086-0.055
				c-0.979-0.306-1.534-0.468-2.469-0.734l0.028,0.13l-0.156-0.167c0.047,0.014,0.083,0.024,0.128,0.037L18.663,5.82l-0.17-0.803
				c-0.044,0.03-0.078,0.053-0.125,0.084l0.094-0.23l0.031,0.146c0.739-0.496,1.174-0.794,1.879-1.292
				c-0.037-0.011-0.065-0.02-0.104-0.032l0.193-0.031c-0.033,0.023-0.058,0.041-0.09,0.063c0.885,0.269,1.423,0.435,2.343,0.734
				l-0.031-0.116l0.146,0.154c-0.043-0.014-0.074-0.024-0.115-0.038l0.47,1.764l0.059,0.218c0.046-0.031,0.083-0.056,0.132-0.088
				L23.284,6.594z"/>
			<path i:knockout="Off" fill="#CCCCCC" d="M20.483,4.104c-0.588,0.409-0.888,0.615-1.5,1.026c0.139,0.631,0.208,0.944,0.348,1.576
				c0.767,0.223,1.15,0.336,1.919,0.573c0.616-0.397,0.917-0.594,1.505-0.987c-0.167-0.643-0.251-0.965-0.419-1.607
				C21.595,4.446,21.224,4.331,20.483,4.104z"/>
			<path i:knockout="Off" fill="#808080" d="M12.851,5.956l0.117-0.077l-0.019-0.138L12.851,5.956z"/>
			<path i:knockout="Off" fill="#808080" d="M13.253,7.963l-0.021-0.149l-0.146-0.036L13.253,7.963z"/>
			<path i:knockout="Off" fill="#808080" d="M17.377,5.052l0.027,0.131l0.129,0.037L17.377,5.052z"/>
			<path i:knockout="Off" fill="#808080" d="M17.922,7.016l-0.127,0.081l0.03,0.149L17.922,7.016z"/>
			<path i:knockout="Off" fill="#808080" d="M15.797,8.458l-0.094-0.023l-0.08,0.051L15.797,8.458z"/>
			<path i:knockout="Off" fill="#808080" d="M12.509,5.801l0.19,1.387l0.113,0.836l0.021,0.147l0.146,0.037l0.618,0.153l2.089,0.522
				l0.093,0.023c0.001,0,0.082-0.051,0.082-0.051l0.813-0.52l1.487-0.952l0.128-0.082l-0.031-0.149l-0.306-1.508l-0.14-0.686
				l-0.027-0.13l-0.129-0.037l-1.09-0.308c-0.251,0.086-0.504,0.166-0.757,0.248l0.024,0.007l1.57,0.442l-0.027-0.131l0.156,0.168
				l-0.129-0.037l0.113,0.555l0.278,1.359l0.127-0.081l-0.097,0.23l-0.03-0.149l-1.359,0.869l-0.733,0.469l0.094,0.023l-0.174,0.027
				l0.08-0.051l-1.999-0.503l-0.472-0.118l0.021,0.149l-0.167-0.186l0.146,0.036l-0.094-0.685l-0.17-1.249l-0.117,0.077l0.098-0.215
				l0.019,0.138l0.278-0.182l0.556-0.368c-0.415,0.107-0.829,0.204-1.243,0.288l-0.07,0.046L12.509,5.801z"/>
			<path i:knockout="Off" fill="#CCCCCC" d="M13.703,7.558c0.77,0.193,1.155,0.293,1.933,0.495c0.669-0.433,0.999-0.645,1.646-1.063
				c-0.121-0.629-0.184-0.942-0.306-1.57c-0.712-0.201-1.096-0.307-1.764-0.492c-0.094,0.029-0.188,0.053-0.281,0.081
				c-0.528,0.351-0.862,0.57-1.459,0.962C13.564,6.604,13.612,6.922,13.703,7.558z"/>
			<path i:knockout="Off" fill="#808080" d="M17.864,4.756c0.001,0.001,0.087-0.057,0.087-0.057
				c0.858-0.579,1.281-0.869,2.091-1.445l0.077-0.056c-0.009,0.004-0.019,0.007-0.027,0.011l-0.053,0.037
				c-0.803,0.572-1.227,0.862-2.09,1.443c0,0-0.086,0.058-0.086,0.057l-0.101-0.027l-1.024-0.292
				c-0.004,0.002-0.009,0.003-0.013,0.005l1.04,0.296L17.864,4.756z"/>
			<path i:knockout="Off" fill="#808080" d="M17.703,4.328l0.186-0.029l-0.018-0.005l-0.153,0.023
				C17.713,4.321,17.709,4.324,17.703,4.328z"/>
			<path i:knockout="Off" fill="#808080" d="M17.872,4.294l0.016-0.002l-0.092-0.026c-0.002,0.002-0.004,0.003-0.007,0.005
				L17.872,4.294z"/>
			<path i:knockout="Off" fill="#808080" d="M17.778,4.268C17.75,4.287,17.729,4.301,17.7,4.32l0.019-0.003
				c0.026-0.017,0.044-0.03,0.069-0.047L17.778,4.268z"/>
			<path i:knockout="Off" fill="#808080" d="M17.719,4.317l0.153-0.023l-0.083-0.024C17.763,4.287,17.745,4.3,17.719,4.317z"/>
			<path i:knockout="Off" fill="#808080" d="M18.478,3.803c-0.204,0.139-0.425,0.289-0.682,0.462l0.092,0.026l-0.016,0.002
				l0.018,0.005l-0.186,0.029c0.006-0.004,0.01-0.007,0.016-0.011L17.7,4.32c0.029-0.02,0.05-0.034,0.078-0.053l-0.327-0.093
				c-0.237,0.085-0.474,0.17-0.713,0.252l1.024,0.292l0.101,0.027c0,0.001,0.086-0.057,0.086-0.057
				c0.863-0.581,1.287-0.871,2.09-1.443l0.053-0.037c-0.283,0.104-0.568,0.208-0.856,0.315C18.986,3.617,18.731,3.71,18.478,3.803z"
				/>
			<path i:knockout="Off" fill="#808080" d="M12.279,7.921l-0.116,0.077l0.018,0.137L12.279,7.921z"/>
			<path i:knockout="Off" fill="#808080" d="M11.895,5.905l0.019,0.146l0.145,0.04L11.895,5.905z"/>
			<path i:knockout="Off" fill="#808080" d="M10.012,9.508L9.919,9.486L9.839,9.54L10.012,9.508z"/>
			<path i:knockout="Off" fill="#808080" d="M10.005,9.962c0.002-0.002,0.081-0.054,0.081-0.054l2.435-1.617l0.115-0.076
				c0.001-0.001-0.017-0.138-0.017-0.138l-0.144-1.131l-0.141-1.099l-0.019-0.148l-0.09-0.024c-0.356,0.066-0.712,0.129-1.064,0.172
				l0.73,0.198l0.024,0.006l-0.019-0.146l0.164,0.186l-0.145-0.04l0.122,0.952l0.126,0.995l0.116-0.077L12.18,8.135l-0.018-0.137
				L9.919,9.486l0.093,0.021L9.839,9.54l0.081-0.054L8.661,9.198C8.646,9.348,8.632,9.496,8.617,9.645L9.913,9.94L10.005,9.962z"/>
			<path i:knockout="Off" fill="#CCCCCC" d="M8.698,8.801C9.072,8.889,9.409,8.967,9.9,9.079c0.705-0.475,1.053-0.705,1.742-1.159
				c-0.075-0.645-0.112-0.965-0.189-1.605c-0.589-0.155-0.952-0.249-1.438-0.378C9.813,5.944,9.612,5.941,9.412,5.939
				C9.22,6.067,9.046,6.184,8.886,6.291C8.822,7.359,8.76,8.123,8.698,8.801z"/>
			<path i:knockout="Off" fill="#808080" d="M9.435,10.292l0.016,0.16l0.158,0.035L9.435,10.292z"/>
			<path i:knockout="Off" fill="#808080" d="M9.755,12.384c-0.04,0.027-0.068,0.048-0.106,0.074l0.013,0.131L9.755,12.384z"/>
			<path i:knockout="Off" fill="#808080" d="M10.114,12.673l-0.013-0.131l-0.225-2.295l-0.016-0.16
				c-0.002,0-0.158-0.034-0.158-0.034L8.601,9.807c-0.014,0.146-0.029,0.295-0.043,0.446l0.893,0.199l-0.016-0.16l0.174,0.195
				l-0.158-0.035l0.198,2.006c0.038-0.026,0.067-0.047,0.106-0.074l-0.094,0.205l-0.013-0.131c-0.365,0.253-0.671,0.468-0.964,0.674
				c0.313-0.033,0.628-0.075,0.948-0.125c0.123-0.085,0.236-0.164,0.375-0.26L10.114,12.673z"/>
			<path i:knockout="Off" fill="#CCCCCC" d="M9.099,12.412c-0.062-0.664-0.091-0.996-0.148-1.658
				C8.79,10.72,8.653,10.69,8.519,10.662C8.46,11.285,8.4,11.996,8.335,12.951C8.563,12.788,8.799,12.622,9.099,12.412z"/>
			<path i:knockout="Off" fill="#CCCCCC" d="M7.869,13.209l0.044,0.045c0.026-0.02,0.052-0.038,0.078-0.057
				C7.951,13.2,7.909,13.207,7.869,13.209z"/>
		</g>
		<path id="XMLID_2_" i:knockout="Off" fill="none" stroke="#000000" stroke-width="0.8" d="M27.952,10.685
			c-1.146-4.615-11.975,2.475-20.061,2.924C8.136,9.699,8.316,9.463,8.53,5.512c7.354,0.689,17.375-7.119,18.185-2.504
			C27.188,7.256,27.441,6.475,27.952,10.685z"/>
		<path i:knockout="Off" d="M23.331,12.434l-0.192-2.792l-0.886,0.061l0.192,2.793L23.331,12.434z"/>
		<g>
			<defs>
				<path id="XMLID_1_" d="M22.799,11.754c0,1.543,1.197,2.793,2.674,2.793c1.478,0,2.672-1.25,2.672-2.793
					s-1.194-2.793-2.672-2.793C23.996,8.961,22.799,10.211,22.799,11.754z"/>
			</defs>
			<clipPath id="XMLID_3_">
				<use xlink:href="#XMLID_1_" />
			</clipPath>
		</g>
		<g>
			<defs>
				<path id="XMLID_4_" d="M22.799,11.754c0,1.543,1.197,2.793,2.674,2.793c1.478,0,2.672-1.25,2.672-2.793
					s-1.194-2.793-2.672-2.793C23.996,8.961,22.799,10.211,22.799,11.754z"/>
			</defs>
			<clipPath id="XMLID_5_">
				<use xlink:href="#XMLID_4_" />
			</clipPath>
		</g>
		<g>
			<defs>
				<path id="XMLID_6_" d="M22.799,11.754c0,1.543,1.197,2.793,2.674,2.793c1.478,0,2.672-1.25,2.672-2.793
					s-1.194-2.793-2.672-2.793C23.996,8.961,22.799,10.211,22.799,11.754z"/>
			</defs>
			<clipPath id="XMLID_7_">
				<use xlink:href="#XMLID_6_" />
			</clipPath>
		</g>
		<g>
			<defs>
				<path id="XMLID_8_" d="M22.799,11.754c0,1.543,1.197,2.793,2.674,2.793c1.478,0,2.672-1.25,2.672-2.793
					s-1.194-2.793-2.672-2.793C23.996,8.961,22.799,10.211,22.799,11.754z"/>
			</defs>
			<clipPath id="XMLID_9_">
				<use xlink:href="#XMLID_8_" />
			</clipPath>
		</g>
		<g>
			<defs>
				<path id="XMLID_10_" d="M22.799,11.754c0,1.543,1.197,2.793,2.674,2.793c1.478,0,2.672-1.25,2.672-2.793
					s-1.194-2.793-2.672-2.793C23.996,8.961,22.799,10.211,22.799,11.754z"/>
			</defs>
			<clipPath id="XMLID_11_">
				<use xlink:href="#XMLID_10_" />
			</clipPath>
		</g>
		<g>
			<defs>
				<path id="XMLID_12_" d="M22.799,11.754c0,1.543,1.197,2.793,2.674,2.793c1.478,0,2.672-1.25,2.672-2.793
					s-1.194-2.793-2.672-2.793C23.996,8.961,22.799,10.211,22.799,11.754z"/>
			</defs>
			<clipPath id="XMLID_13_">
				<use xlink:href="#XMLID_12_" />
			</clipPath>
		</g>
		<g>
			<defs>
				<path id="XMLID_14_" d="M22.799,11.754c0,1.543,1.197,2.793,2.674,2.793c1.478,0,2.672-1.25,2.672-2.793
					s-1.194-2.793-2.672-2.793C23.996,8.961,22.799,10.211,22.799,11.754z"/>
			</defs>
			<clipPath id="XMLID_15_">
				<use xlink:href="#XMLID_14_" />
			</clipPath>
		</g>
		<path i:knockout="Off" d="M22.398,11.754c0,1.762,1.379,3.193,3.073,3.193c1.693,0,3.072-1.433,3.072-3.193
			c0-1.76-1.379-3.191-3.072-3.191C23.777,8.562,22.398,9.993,22.398,11.754z"/>
		<g>
			<defs>
				<path id="XMLID_16_" d="M22.972,11.754c0,1.381,1.12,2.5,2.501,2.5c1.382,0,2.499-1.119,2.499-2.5s-1.117-2.5-2.499-2.5
					C24.092,9.254,22.972,10.373,22.972,11.754z"/>
			</defs>
			
				<radialGradient id="XMLID_17_" cx="25.4717" cy="11.7539" r="2.7336" fx="25.4717" fy="11.7539" gradientTransform="matrix(0.9353 0 0 0.8951 1.6472 1.2332)" gradientUnits="userSpaceOnUse">
				<stop  offset="0.0056" style="stop-color:#000000"/>
				<stop  offset="0.1122" style="stop-color:#030303"/>
				<stop  offset="0.2045" style="stop-color:#0E0E0E"/>
				<stop  offset="0.2915" style="stop-color:#202020"/>
				<stop  offset="0.3752" style="stop-color:#393939"/>
				<stop  offset="0.456" style="stop-color:#595959"/>
				<stop  offset="0.4663" style="stop-color:#5E5E5E"/>
				<stop  offset="0.5681" style="stop-color:#878787"/>
				<stop  offset="0.7962" style="stop-color:#EEEEEE"/>
				<stop  offset="0.8315" style="stop-color:#FFFFFF"/>
				<a:midPointStop  offset="0.0056" style="stop-color:#000000"/>
				<a:midPointStop  offset="0.7358" style="stop-color:#000000"/>
				<a:midPointStop  offset="0.4663" style="stop-color:#5E5E5E"/>
				<a:midPointStop  offset="0.5227" style="stop-color:#5E5E5E"/>
				<a:midPointStop  offset="0.8315" style="stop-color:#FFFFFF"/>
			</radialGradient>
			<use xlink:href="#XMLID_16_"  fill="url(#XMLID_17_)"/>
			<clipPath id="XMLID_18_">
				<use xlink:href="#XMLID_16_" />
			</clipPath>
		</g>
	</g>
</svg>
