<?xml version="1.0" encoding="utf-8"?>
<!-- Generator: Adobe Illustrator 21.0.2, SVG Export Plug-In . SVG Version: 6.00 Build 0)  -->
<svg version="1.1"
	 id="svg2" inkscape:version="0.91 r13725" sodipodi:docname="tmsg_error.svg" xmlns:cc="http://creativecommons.org/ns#" xmlns:dc="http://purl.org/dc/elements/1.1/" xmlns:inkscape="http://www.inkscape.org/namespaces/inkscape" xmlns:rdf="http://www.w3.org/1999/02/22-rdf-syntax-ns#" xmlns:sodipodi="http://sodipodi.sourceforge.net/DTD/sodipodi-0.dtd" xmlns:svg="http://www.w3.org/2000/svg"
	 xmlns="http://www.w3.org/2000/svg" xmlns:xlink="http://www.w3.org/1999/xlink" x="0px" y="0px" viewBox="0 0 13 13"
	 style="enable-background:new 0 0 13 13;" xml:space="preserve">
<style type="text/css">
	.st0{fill:none;}
	.st1{fill:#E00000;}
	.st2{fill:#404040;}
	.st3{fill:#FFFFFF;}
</style>
<rect id="rect4" y="0" class="st0" width="13" height="13"/>
<circle id="circle8" class="st1" cx="6.5" cy="6.5" r="6"/>
<path class="st2" d="M6.5,0.7c3.2,0,5.8,2.6,5.8,5.8s-2.6,5.8-5.8,5.8S0.8,9.7,0.8,6.5S3.3,0.7,6.5,0.7 M6.5,0C2.9,0,0,2.9,0,6.5
	S2.9,13,6.5,13S13,10.1,13,6.5S10.1,0,6.5,0L6.5,0z"/>
<path id="path12" inkscape:connector-curvature="0" class="st3" d="M6.5,5c0.6-0.6,1.2-1.2,1.8-1.8C8.5,3.1,8.6,3.1,8.8,3
	C8.8,3,8.9,3,9,3c0,0,0,0,0.1,0c0.1,0,0.3,0,0.4,0.1c0.1,0,0.2,0.1,0.2,0.2C10,3.6,10.1,3.9,10,4.3c0,0.2-0.1,0.3-0.2,0.4
	C9.2,5.3,8.6,5.9,8,6.5c0.6,0.6,1.2,1.2,1.8,1.8C9.8,8.4,9.9,8.6,10,8.7C10,8.8,10,9,10,9.1c0,0.1,0,0.2-0.1,0.3
	c0,0.1-0.1,0.2-0.2,0.3c-0.2,0.3-0.6,0.4-1,0.3c-0.2,0-0.3-0.1-0.4-0.2C7.7,9.2,7.1,8.6,6.5,8C5.9,8.6,5.3,9.2,4.7,9.7
	C4.6,9.8,4.4,9.9,4.3,10C4.2,10,4,10,3.9,10c-0.1,0-0.2,0-0.3-0.1c-0.1,0-0.2-0.1-0.3-0.2C3,9.5,2.9,9.1,3,8.7
	c0-0.2,0.1-0.3,0.2-0.4C3.8,7.7,4.4,7.1,5,6.5C4.4,5.9,3.8,5.3,3.3,4.7C3.2,4.6,3.1,4.4,3,4.3C3,4.2,3,4.1,3,4
	c0-0.3,0.2-0.7,0.5-0.8C3.6,3.1,3.8,3,3.9,3C3.9,3,4,3,4,3c0.2,0,0.3,0.1,0.5,0.2c0.1,0,0.1,0.1,0.1,0.1C5.3,3.8,5.9,4.4,6.5,5
	L6.5,5z"/>
</svg>
