<?xml version="1.0" encoding="utf-8"?>
<!-- Generator: Adobe Illustrator 21.0.2, SVG Export Plug-In . SVG Version: 6.00 Build 0)  -->
<svg version="1.1"
	 id="svg2" inkscape:version="0.91 r13725" sodipodi:docname="unknown.svg" xmlns:cc="http://creativecommons.org/ns#" xmlns:dc="http://purl.org/dc/elements/1.1/" xmlns:inkscape="http://www.inkscape.org/namespaces/inkscape" xmlns:rdf="http://www.w3.org/1999/02/22-rdf-syntax-ns#" xmlns:sodipodi="http://sodipodi.sourceforge.net/DTD/sodipodi-0.dtd" xmlns:svg="http://www.w3.org/2000/svg"
	 xmlns="http://www.w3.org/2000/svg" xmlns:xlink="http://www.w3.org/1999/xlink" x="0px" y="0px" viewBox="0 0 60 60"
	 style="enable-background:new 0 0 60 60;" xml:space="preserve">
<style type="text/css">
	.st0{fill:#EBEBEB;}
	.st1{fill:#404040;}
	.st2{enable-background:new    ;}
	.st3{fill:#AD1717;}
</style>
<g id="g4">
	<rect id="rect6" y="0" class="st0" width="60" height="60"/>
	<path id="path8" inkscape:connector-curvature="0" class="st1" d="M60,60H0V0h60V60z M1,1v58h58V1H1z"/>
</g>
<g class="st2">
	<path class="st3" d="M32.9,38.9h-5.5v-3.8c0-1.3,0.3-2.3,0.8-3c0.5-0.7,1.7-1.8,3.4-3.1c2.7-2.1,4-4.2,4-6.5c0-1.7-0.5-3.1-1.6-4.1
		s-2.4-1.5-4.1-1.5c-3.9,0-6.2,2.7-6.9,8.1l-6.2-1.1c0.4-4,1.9-7.2,4.5-9.5c2.6-2.3,5.7-3.4,9.3-3.4c3.6,0,6.6,1.1,8.9,3.2
		c2.4,2.1,3.5,4.8,3.5,8c0,1.6-0.3,3.1-1,4.5c-0.7,1.4-1.4,2.5-2.2,3.3c-0.8,0.8-2.6,2.2-5.3,4.1c-0.8,0.5-1.2,1.1-1.4,1.6
		C33,36,32.9,37.2,32.9,38.9z M34,42.9V50h-6.7v-7.1H34z"/>
</g>
</svg>
