<?xml version="1.0" encoding="utf-8"?>
<!-- Generator: Adobe Illustrator 21.0.2, SVG Export Plug-In . SVG Version: 6.00 Build 0)  -->
<svg version="1.1"
	 id="svg2" inkscape:version="0.91 r13725" sodipodi:docname="viewcamera_on.svg" xmlns:cc="http://creativecommons.org/ns#" xmlns:dc="http://purl.org/dc/elements/1.1/" xmlns:inkscape="http://www.inkscape.org/namespaces/inkscape" xmlns:rdf="http://www.w3.org/1999/02/22-rdf-syntax-ns#" xmlns:sodipodi="http://sodipodi.sourceforge.net/DTD/sodipodi-0.dtd" xmlns:svg="http://www.w3.org/2000/svg"
	 xmlns="http://www.w3.org/2000/svg" xmlns:xlink="http://www.w3.org/1999/xlink" x="0px" y="0px" viewBox="0 0 17 17"
	 style="enable-background:new 0 0 17 17;" xml:space="preserve">
<style type="text/css">
	.st0{fill:#FFDC00;}
	.st1{fill:#C8C8C8;stroke:#404040;stroke-width:2;stroke-linecap:square;stroke-miterlimit:1.5;}
	.st2{fill:#C8C8C8;}
</style>
<sodipodi:namedview  bordercolor="#666666" borderopacity="1" gridtolerance="10" guidetolerance="10" id="namedview23" inkscape:current-layer="svg2" inkscape:cx="8.5" inkscape:cy="8" inkscape:pageopacity="0" inkscape:pageshadow="2" inkscape:window-height="480" inkscape:window-maximized="0" inkscape:window-width="796" inkscape:window-x="0" inkscape:window-y="0" inkscape:zoom="14.75" objecttolerance="10" pagecolor="#ffffff" showgrid="false">
	</sodipodi:namedview>
<g id="Layer1" transform="translate(0,1)">
	<rect id="rect6_1_" x="2" y="1" class="st0" width="13" height="13"/>
	<path id="path7" inkscape:connector-curvature="0" class="st0" d="M15,15H2c-0.6,0-1-0.5-1-1V1c0-0.6,0.5-1,1-1h13c0.6,0,1,0.5,1,1
		v13C16,14.6,15.6,15,15,15z M2.5,13.5h12v-12h-12l0,0V13.5z"/>
	<g id="g11">
		<path id="path13" inkscape:connector-curvature="0" class="st1" d="M11,7v5H5V7H11z M15,8v3h-1l-2-1.5L14,8H15z"/>
		<path id="path15" inkscape:connector-curvature="0" class="st2" d="M11,7v5H5V7H11z M15,8v3h-1l-2-1.5L14,8H15z"/>
	</g>
	<g id="g17">
		<path id="path19" inkscape:connector-curvature="0" class="st1" d="M4,5c1.1,0,2,0.9,2,2S5.1,9,4,9S2,8.1,2,7S2.9,5,4,5z M9,2
			c1.1,0,2,0.9,2,2s-0.9,2-2,2S7,5.1,7,4S7.9,2,9,2z"/>
		<path id="path21" inkscape:connector-curvature="0" class="st2" d="M4,5c1.1,0,2,0.9,2,2S5.1,9,4,9S2,8.1,2,7S2.9,5,4,5z M9,2
			c1.1,0,2,0.9,2,2s-0.9,2-2,2S7,5.1,7,4S7.9,2,9,2z"/>
	</g>
</g>
</svg>
