<?xml version="1.0" encoding="UTF-8" standalone="no"?>
<svg
   xmlns:dc="http://purl.org/dc/elements/1.1/"
   xmlns:cc="http://creativecommons.org/ns#"
   xmlns:rdf="http://www.w3.org/1999/02/22-rdf-syntax-ns#"
   xmlns:svg="http://www.w3.org/2000/svg"
   xmlns="http://www.w3.org/2000/svg"
   xml:space="preserve"
   style="enable-background:new 0 0 22 17;"
   viewBox="0 0 22 17"
   y="0px"
   x="0px"
   id="svg10"
   version="1.1"><metadata
   id="metadata13"><rdf:RDF><cc:Work
       rdf:about=""><dc:format>image/svg+xml</dc:format><dc:type
         rdf:resource="http://purl.org/dc/dcmitype/StillImage" /><dc:title></dc:title></cc:Work></rdf:RDF></metadata><defs
   id="defs11" />
<style
   id="style2"
   type="text/css">
	.st0{fill:#FFFFFF;fill-opacity:0.4919;}
	.st1{fill:none;stroke:#2F2F2F;stroke-width:2;stroke-linecap:round;stroke-linejoin:round;stroke-miterlimit:1.5;}
	.st2{fill:#9B9B9B;}
</style>
<rect
   style="fill:#ffffff;fill-opacity:0.39215687"
   height="13"
   width="18"
   class="st0"
   y="2"
   x="2"
   id="rect2" />
<g
   id="g8">
	<path
   d="M19.5,1C20.3,1,21,1.7,21,2.5v12c0,0.8-0.7,1.5-1.5,1.5h-17   C1.7,16,1,15.3,1,14.5v-12C1,1.7,1.7,1,2.5,1H19.5z M18.6,2H3.3C2.6,2,2,2.6,2,3.3v10.4C2,14.4,2.6,15,3.3,15h15.3   c0.7,0,1.4-0.6,1.4-1.3V3.3C20,2.6,19.4,2,18.6,2L18.6,2z"
   class="st1"
   id="path4" />
	<path
   d="M19.5,1C20.3,1,21,1.7,21,2.5v12c0,0.8-0.7,1.5-1.5,1.5h-17   C1.7,16,1,15.3,1,14.5v-12C1,1.7,1.7,1,2.5,1H19.5z M18.6,2H3.3C2.6,2,2,2.6,2,3.3v10.4C2,14.4,2.6,15,3.3,15h15.3   c0.7,0,1.4-0.6,1.4-1.3V3.3C20,2.6,19.4,2,18.6,2L18.6,2z"
   class="st2"
   id="path6" />
</g>
</svg>