<?xml version="1.0" encoding="UTF-8" standalone="no"?>
<!DOCTYPE svg PUBLIC "-//W3C//DTD SVG 1.1//EN" "http://www.w3.org/Graphics/SVG/1.1/DTD/svg11.dtd">
<svg width="10px" height="16px" version="1.1" xmlns="http://www.w3.org/2000/svg" xmlns:xlink="http://www.w3.org/1999/xlink" xml:space="preserve" xmlns:serif="http://www.serif.com/" style="fill-rule:evenodd;clip-rule:evenodd;stroke-linecap:square;">
    <path id="rect4492" d="M2.969,0.938L7.031,0.938C8.148,0.938 9.062,1.717 9.062,2.67L9.062,13.33C9.062,14.283 8.148,15.062 7.031,15.062L2.969,15.062C1.852,15.062 0.938,14.283 0.938,13.33L0.938,2.67C0.938,1.717 1.852,0.938 2.969,0.938Z" style="fill:none;fill-rule:nonzero;stroke:rgb(140,140,140);stroke-width:1.88px;"/>
    <path id="rect4490" d="M3,1L7,1C8.1,1 9,1.771 9,2.714L9,13.286C9,14.229 8.1,15 7,15L3,15C1.9,15 1,14.229 1,13.286L1,2.714C1,1.771 1.9,1 3,1Z" style="fill:white;fill-rule:nonzero;"/>
</svg>
