<?xml version="1.0" encoding="UTF-8" standalone="no"?>
<!DOCTYPE svg PUBLIC "-//W3C//DTD SVG 1.1//EN" "http://www.w3.org/Graphics/SVG/1.1/DTD/svg11.dtd">
<svg width="18px" height="17px" version="1.1" xmlns="http://www.w3.org/2000/svg" xmlns:xlink="http://www.w3.org/1999/xlink" xml:space="preserve" xmlns:serif="http://www.serif.com/" style="fill-rule:evenodd;clip-rule:evenodd;stroke-linejoin:round;stroke-miterlimit:2;">
    <rect x="0" y="0" width="18" height="17" style="fill:white;fill-opacity:0;"/>
    <g transform="matrix(0.848485,0,0,0.848485,1.36364,1.36364)">
        <path d="M9,3.375C5.25,3.375 2.047,5.708 0.75,9C2.047,12.293 5.25,14.625 9,14.625C12.75,14.625 15.953,12.293 17.25,9C15.953,5.708 12.75,3.375 9,3.375ZM9,13.125C6.723,13.125 4.875,11.277 4.875,9C4.875,6.723 6.723,4.875 9,4.875C11.277,4.875 13.125,6.723 13.125,9C13.125,11.277 11.277,13.125 9,13.125ZM9,6.643C7.696,6.643 6.643,7.696 6.643,9C6.643,10.304 7.696,11.357 9,11.357C10.304,11.357 11.357,10.304 11.357,9C11.357,7.696 10.304,6.643 9,6.643Z" style="fill-opacity:0.8;fill-rule:nonzero;"/>
    </g>
</svg>
