<?xml version="1.0" encoding="UTF-8" standalone="no"?>
<svg
   width="15px"
   height="15px"
   version="1.1"
   xml:space="preserve"
   style="fill-rule:evenodd;clip-rule:evenodd;stroke-linejoin:round;stroke-miterlimit:2;"
   id="svg2"
   sodipodi:docname="toggle_camerastand_button_rollover.svg"
   inkscape:version="1.4.2 (f4327f4, 2025-05-13)"
   xmlns:inkscape="http://www.inkscape.org/namespaces/inkscape"
   xmlns:sodipodi="http://sodipodi.sourceforge.net/DTD/sodipodi-0.dtd"
   xmlns="http://www.w3.org/2000/svg"
   xmlns:svg="http://www.w3.org/2000/svg"><defs
   id="defs2" /><sodipodi:namedview
   id="namedview2"
   pagecolor="#ffffff"
   bordercolor="#666666"
   borderopacity="1.0"
   inkscape:showpageshadow="2"
   inkscape:pageopacity="0.0"
   inkscape:pagecheckerboard="0"
   inkscape:deskcolor="#d1d1d1"
   inkscape:zoom="59.8"
   inkscape:cx="7.5083612"
   inkscape:cy="7.5167224"
   inkscape:window-width="1920"
   inkscape:window-height="1141"
   inkscape:window-x="-7"
   inkscape:window-y="-7"
   inkscape:window-maximized="1"
   inkscape:current-layer="svg2" />
    <g
   transform="matrix(0.833333,0,0,0.833333,0,0)"
   id="g1">
        <path
   d="M18,2C18,0.896 17.104,0 16,0L2,0C0.896,0 0,0.896 0,2L0,16C0,17.104 0.896,18 2,18L16,18C17.104,18 18,17.104 18,16L18,2Z"
   style="fill:black;fill-opacity:0.2;"
   id="path1" />
    </g><g
   id="g2"
   transform="matrix(0.95177309,0,0,0.95175892,0.34171765,0.34186007)"
   style="clip-rule:evenodd;fill-rule:evenodd;stroke-linejoin:round;stroke-miterlimit:2"><path
     d="m 7.5299272,1.02993 c 3.5870708,0 6.4999978,2.9129272 6.4999978,6.4999971 0,3.5870699 -2.912927,6.4999969 -6.4999978,6.4999969 -3.58707,0 -6.4999972,-2.912927 -6.4999972,-6.4999969 0,-3.5870699 2.9129272,-6.4999971 6.4999972,-6.4999971 z"
     style="clip-rule:evenodd;fill:none;fill-rule:evenodd;stroke:#000000;stroke-width:1.19786px;stroke-linejoin:round;stroke-miterlimit:2"
     id="path1-5" /><g
     transform="translate(-1.47007,-1.470069)"
     id="g3"
     style="clip-rule:evenodd;fill-rule:evenodd;stroke-linejoin:round;stroke-miterlimit:2">
        <rect
   x="5"
   y="6"
   width="8"
   height="6"
   id="rect2" />
    </g></g>
    
</svg>
