<?xml version="1.0" encoding="UTF-8" standalone="no"?>
<!DOCTYPE svg PUBLIC "-//W3C//DTD SVG 1.1//EN" "http://www.w3.org/Graphics/SVG/1.1/DTD/svg11.dtd">
<svg width="16px" height="16px" version="1.1" xmlns="http://www.w3.org/2000/svg" xmlns:xlink="http://www.w3.org/1999/xlink" xml:space="preserve" xmlns:serif="http://www.serif.com/" style="fill-rule:evenodd;clip-rule:evenodd;stroke-linecap:round;stroke-linejoin:round;stroke-miterlimit:1.5;">
    <g transform="matrix(0.727273,0,0,0.727273,0,0)">
        <rect x="0" y="0" width="22" height="22" style="fill-opacity:0;"/>
    </g>
    <g transform="matrix(1,0,0,1,-3,-2)">
        <path d="M9.5,6.5L17,6.5C17.133,6.5 17.26,6.553 17.354,6.646C17.447,6.74 17.5,6.867 17.5,7L17.5,9.5L4.5,9.5L4.5,5C4.5,4.867 4.553,4.74 4.646,4.646C4.74,4.553 4.867,4.5 5,4.5L9,4.5C9.133,4.5 9.26,4.553 9.354,4.646C9.447,4.74 9.5,4.867 9.5,5C9.5,5.592 9.5,6.5 9.5,6.5Z" style="fill:none;stroke:white;stroke-width:1px;"/>
    </g>
    <g transform="matrix(1,0,0,1,-5,-5)">
        <path d="M17.5,14C19.432,14 21,15.568 21,17.5C21,19.432 19.432,21 17.5,21C15.568,21 14,19.432 14,17.5C14,15.568 15.568,14 17.5,14ZM18,17L20,17L20,18L18,18L18,20L17,20L17,18L15,18L15,17L17,17L17,15L18,15L18,17Z" style="fill:white;"/>
    </g>
    <path d="M7,5L15,5L15,8.759C14.285,8.279 13.425,8 12.5,8C10.016,8 8,10.016 8,12.5C8,13.026 8.09,13.531 8.256,14L2,14C1.448,14 1,13.552 1,13L1,4L7,4L7,5Z" style="fill:white;"/>
</svg>

