<?xml version="1.0" encoding="UTF-8" standalone="no"?>
<!DOCTYPE svg PUBLIC "-//W3C//DTD SVG 1.1//EN" "http://www.w3.org/Graphics/SVG/1.1/DTD/svg11.dtd">
<svg width="16px" height="16px" version="1.1" xmlns="http://www.w3.org/2000/svg" xmlns:xlink="http://www.w3.org/1999/xlink" xml:space="preserve" xmlns:serif="http://www.serif.com/" style="fill-rule:evenodd;clip-rule:evenodd;stroke-linejoin:round;stroke-miterlimit:2;">
    <rect x="0" y="0" width="16" height="16" style="fill-opacity:0;"/>
    <g transform="matrix(1,-1.22799e-07,1.22799e-07,1,-607.001,-20.0001)">
        <path d="M621,31C621.552,31 622,31.448 622,32L622,33C622,33.552 621.552,34 621,34L620,34C619.448,34 619,33.552 619,33L619,32C619,31.448 619.448,31 620,31L621,31ZM616,31C616.552,31 617,31.448 617,32L617,33C617,33.552 616.552,34 616,34L615,34C614.448,34 614,33.552 614,33L614,32C614,31.448 614.448,31 615,31L616,31ZM610,28C610,27.448 610.448,27 611,27L620,27C620.552,27 621,27.448 621,28L621,31L620,31L620,28L611,28L611,31C611.552,31 612,31.448 612,32L612,33C612,33.552 611.552,34 611,34L610,34C609.448,34 609,33.552 609,33L609,32C609,31.448 609.448,31 610,31L610,28ZM615,28L616,28L616,31L615,31L615,28ZM615,25L616,25L616,27L615,27L615,25ZM616,22C616.552,22 617,22.448 617,23L617,24C617,24.552 616.552,25 616,25L615,25C614.448,25 614,24.552 614,24L614,23C614,22.448 614.448,22 615,22L616,22Z" style="fill:white;"/>
    </g>
</svg>

