<?xml version="1.0" encoding="UTF-8" standalone="no"?>
<!DOCTYPE svg PUBLIC "-//W3C//DTD SVG 1.1//EN" "http://www.w3.org/Graphics/SVG/1.1/DTD/svg11.dtd">
<svg width="16px" height="16px" version="1.1" xmlns="http://www.w3.org/2000/svg" xmlns:xlink="http://www.w3.org/1999/xlink" xml:space="preserve" xmlns:serif="http://www.serif.com/" style="fill-rule:evenodd;clip-rule:evenodd;stroke-linejoin:round;stroke-miterlimit:2;">
    <g transform="matrix(0.888889,0,0,0.888889,-7.10543e-15,-5.32907e-15)">
        <path d="M9,2.25C5.273,2.25 2.25,5.273 2.25,9C2.25,12.727 5.273,15.75 9,15.75C9.623,15.75 10.125,15.247 10.125,14.625C10.125,14.333 10.012,14.07 9.833,13.868C9.66,13.672 9.548,13.41 9.548,13.125C9.548,12.503 10.05,12 10.673,12L12,12C14.07,12 15.75,10.32 15.75,8.25C15.75,4.935 12.727,2.25 9,2.25ZM4.875,9C4.252,9 3.75,8.498 3.75,7.875C3.75,7.252 4.252,6.75 4.875,6.75C5.498,6.75 6,7.252 6,7.875C6,8.498 5.498,9 4.875,9ZM7.125,6C6.502,6 6,5.498 6,4.875C6,4.252 6.502,3.75 7.125,3.75C7.748,3.75 8.25,4.252 8.25,4.875C8.25,5.498 7.748,6 7.125,6ZM10.875,6C10.253,6 9.75,5.498 9.75,4.875C9.75,4.252 10.253,3.75 10.875,3.75C11.498,3.75 12,4.252 12,4.875C12,5.498 11.498,6 10.875,6ZM13.125,9C12.503,9 12,8.498 12,7.875C12,7.252 12.503,6.75 13.125,6.75C13.747,6.75 14.25,7.252 14.25,7.875C14.25,8.498 13.747,9 13.125,9Z" style="fill:white;fill-rule:nonzero;"/>
    </g>
</svg>

