<?xml version="1.0" encoding="UTF-8" standalone="no"?>
<svg
   xmlns:dc="http://purl.org/dc/elements/1.1/"
   xmlns:cc="http://creativecommons.org/ns#"
   xmlns:rdf="http://www.w3.org/1999/02/22-rdf-syntax-ns#"
   xmlns:svg="http://www.w3.org/2000/svg"
   xmlns="http://www.w3.org/2000/svg"
   width="100%"
   height="100%"
   viewBox="0 0 18 18"
   version="1.1"
   id="svg4489">
  <defs
     id="defs4483" />
  <metadata
     id="metadata4486">
    <rdf:RDF>
      <cc:Work
         rdf:about="">
        <dc:format>image/svg+xml</dc:format>
        <dc:type
           rdf:resource="http://purl.org/dc/dcmitype/StillImage" />
        <dc:title></dc:title>
      </cc:Work>
    </rdf:RDF>
  </metadata>
  <g
     id="layer1"
     transform="translate(0,-1106.5197)" />
  <rect
     id="rect2"
     style="clip-rule:evenodd;fill:none;fill-rule:evenodd;stroke-width:0.05555556;stroke-linejoin:round;stroke-miterlimit:1.41420996"
     height="1.0000001"
     width="1.0000001"
     y="17.000002"
     x="0" />
  <path
     id="path4493"
     d="m 9.5000008,3.0000001 c -1.9322341,-3e-7 -3.4989225,1.56386 -3.5000003,3.4960941 V 7.0000004 H 7.0000006 V 6.4960942 c 0.00108,-1.379949 1.1200512,-2.4960945 2.5000002,-2.496094 1.3799492,-5e-7 2.4989222,1.116145 2.5000002,2.496094 v 0.5039062 h 1 V 6.4960942 C 12.998923,4.5638601 11.432235,2.9999998 9.5000008,3.0000001 Z M 5.0000004,8.0000005 V 15.000001 H 14.000001 V 8.0000005 Z"
     style="clip-rule:evenodd;fill:#fbfbfb;fill-opacity:1;fill-rule:evenodd;stroke:#303030;stroke-width:2.00000024;stroke-linecap:butt;stroke-linejoin:round;stroke-miterlimit:1.41420996;stroke-dasharray:none;stroke-opacity:1;paint-order:markers stroke fill" />
  <g
     style="clip-rule:evenodd;fill:#e6e6e6;fill-opacity:1;fill-rule:evenodd;stroke-linejoin:round;stroke-miterlimit:1.41420996"
     id="g4491"
     transform="scale(0.05555556)">
    <path
       style="fill:#e6e6e6;fill-opacity:1;stroke:none;stroke-width:36;stroke-linecap:butt;stroke-linejoin:round;stroke-miterlimit:1.41420996;stroke-dasharray:none;stroke-opacity:0.27638191;paint-order:markers stroke fill"
       d="M 90,144 V 270 H 252 V 144 Z"
       id="rect4488" />
    <path
       style="fill:#e6e6e6;fill-opacity:1;stroke:none;stroke-width:36;stroke-linecap:butt;stroke-linejoin:round;stroke-miterlimit:1.41420996;stroke-dasharray:none;stroke-opacity:0.27638191;paint-order:markers stroke fill"
       d="m 171,54 c -34.78021,-5e-6 -62.98059,28.18463 -63,62.96484 V 126 h 18 v -9.03516 C 126.01941,92.12576 146.16091,71.999992 171,72 c 24.83909,-8e-6 44.98059,20.12576 45,44.96484 V 126 h 18 v -9.03516 C 233.98059,82.18463 205.78021,53.999995 171,54 Z"
       id="path4509" />
  </g>
  <circle
     style="fill:#303030;fill-opacity:1;stroke:none;stroke-width:2;stroke-linecap:round;stroke-linejoin:round;stroke-miterlimit:4;stroke-dasharray:none;stroke-opacity:1;paint-order:normal"
     id="path820"
     cx="9.500001"
     cy="10.500001"
     r="1.5" />
  <rect
     style="fill:#303030;fill-opacity:1;stroke:none;stroke-width:2;stroke-linecap:round;stroke-linejoin:round;stroke-miterlimit:4;stroke-dasharray:none;stroke-opacity:1;paint-order:normal"
     id="rect822"
     width="1.5"
     height="3"
     x="8.75"
     y="11" />
</svg>
