<?xml version="1.0" encoding="UTF-8" standalone="no"?>
<svg
   xmlns:dc="http://purl.org/dc/elements/1.1/"
   xmlns:cc="http://creativecommons.org/ns#"
   xmlns:rdf="http://www.w3.org/1999/02/22-rdf-syntax-ns#"
   xmlns:svg="http://www.w3.org/2000/svg"
   xmlns="http://www.w3.org/2000/svg"
   width="100%"
   height="100%"
   viewBox="0 0 22 17"
   version="1.1"
   xml:space="preserve"
   style="fill-rule:evenodd;clip-rule:evenodd;stroke-linecap:round;stroke-linejoin:round;stroke-miterlimit:1.5;"
   id="svg10"><metadata
     id="metadata16"><rdf:RDF><cc:Work
         rdf:about=""><dc:format>image/svg+xml</dc:format><dc:type
           rdf:resource="http://purl.org/dc/dcmitype/StillImage" /><dc:title></dc:title></cc:Work></rdf:RDF></metadata><defs
     id="defs14" /><rect
     x="2"
     y="2"
     width="18"
     height="13"
     style="fill-opacity:0.49186993;fill:#ffffff"
     id="rect2" /><g
     id="g8"><path
       d="M19.5,1c0.828,0 1.5,0.672 1.5,1.5l0,12c0,0.828 -0.672,1.5 -1.5,1.5l-17,0c-0.828,0 -1.5,-0.672 -1.5,-1.5l0,-12c0,-0.828 0.672,-1.5 1.5,-1.5l17,0Zm-0.85,1l-15.3,0c-0.745,0 -1.35,0.583 -1.35,1.3l0,10.4c0,0.717 0.605,1.3 1.35,1.3l15.3,0c0.745,0 1.35,-0.583 1.35,-1.3l0,-10.4c0,-0.717 -0.605,-1.3 -1.35,-1.3l0,0Z"
       style="fill:none;stroke:#434343;stroke-width:2px;"
       id="path4" /><path
       d="M19.5,1c0.828,0 1.5,0.672 1.5,1.5l0,12c0,0.828 -0.672,1.5 -1.5,1.5l-17,0c-0.828,0 -1.5,-0.672 -1.5,-1.5l0,-12c0,-0.828 0.672,-1.5 1.5,-1.5l17,0Zm-0.85,1l-15.3,0c-0.745,0 -1.35,0.583 -1.35,1.3l0,10.4c0,0.717 0.605,1.3 1.35,1.3l15.3,0c0.745,0 1.35,-0.583 1.35,-1.3l0,-10.4c0,-0.717 -0.605,-1.3 -1.35,-1.3l0,0Z"
       style="fill:#9b9b9b;"
       id="path6" /></g></svg>