<?xml version="1.0" encoding="UTF-8" standalone="no"?>
<svg
   xmlns:dc="http://purl.org/dc/elements/1.1/"
   xmlns:cc="http://creativecommons.org/ns#"
   xmlns:rdf="http://www.w3.org/1999/02/22-rdf-syntax-ns#"
   xmlns:svg="http://www.w3.org/2000/svg"
   xmlns="http://www.w3.org/2000/svg"
   width="100%"
   height="100%"
   viewBox="0 0 15 15"
   version="1.1"
   id="svg4489">
  <defs
     id="defs4483" />
  <metadata
     id="metadata4486">
    <rdf:RDF>
      <cc:Work
         rdf:about="">
        <dc:format>image/svg+xml</dc:format>
        <dc:type
           rdf:resource="http://purl.org/dc/dcmitype/StillImage" />
        <dc:title></dc:title>
      </cc:Work>
    </rdf:RDF>
  </metadata>
  <g
     id="layer1"
     transform="translate(0,-1106.5197)" />
  <path
     d="m 12.466459,8.13701 c 0.02674,-0.20802 0.04678,-0.416 0.04678,-0.63702 0,-0.22098 -0.02005,-0.42899 -0.04678,-0.63697 L 13.876434,5.7905 c 0.126965,-0.0975 0.160375,-0.273 0.08019,-0.41599 L 12.620155,3.1255 c -0.08019,-0.143 -0.260611,-0.195 -0.407623,-0.143 l -1.663902,0.65 C 10.201152,3.37249 9.8269414,3.158 9.4193173,2.9955 L 9.1653881,1.273 C 9.1453391,1.117 9.0050124,1 8.8379533,1 H 6.1650076 C 5.9979488,1 5.8576196,1.117 5.8375725,1.273 L 5.5836433,2.9955 C 5.1760201,3.158 4.8018087,3.379 4.4543269,3.6325 l -1.6639045,-0.65 c -0.153694,-0.0584 -0.3274349,0 -0.4076231,0.143 L 1.0463299,5.37451 C 0.95945965,5.5175 0.99955275,5.693 1.1265179,5.7905 l 1.4099752,1.07252 c -0.026729,0.20798 -0.046777,0.4225 -0.046777,0.63697 0,0.21452 0.020047,0.429 0.046777,0.63702 l -1.4099752,1.0725 c -0.12696451,0.0974 -0.16037613,0.27301 -0.080188,0.416 l 1.3364694,2.24901 c 0.080187,0.143 0.2606115,0.195 0.4076231,0.143 l 1.6639045,-0.65001 c 0.3474819,0.26 0.7216933,0.47451 1.1293165,0.637 l 0.2539291,1.7225 c 0.020047,0.156 0.1603763,0.273 0.3274351,0.273 h 2.6729385 c 0.1670589,0 0.3073876,-0.117 0.3274345,-0.273 L 9.41931,12.00451 c 0.4076239,-0.16249 0.781834,-0.3835 1.129317,-0.637 l 1.663902,0.65001 c 0.153695,0.0584 0.327436,0 0.407624,-0.143 l 1.336469,-2.24901 c 0.08019,-0.14299 0.04678,-0.3185 -0.08019,-0.416 z m -4.9649821,1.638 c -1.2896929,0 -2.3388215,-1.0205 -2.3388215,-2.27502 0,-1.25449 1.0491286,-2.27499 2.3388215,-2.27499 1.2896928,0 2.3388221,1.0205 2.3388221,2.27499 0,1.25452 -1.0491293,2.27502 -2.3388221,2.27502 z"
     id="path4497"
     style="fill:none;fill-opacity:1;stroke:#000000;stroke-width:2;stroke-miterlimit:4;stroke-dasharray:none;stroke-opacity:0.54901961" />
  <path
     style="fill:#e6e6e6;fill-opacity:1;stroke-width:1"
     id="path4"
     d="m 12.466459,8.13701 c 0.02674,-0.20802 0.04678,-0.416 0.04678,-0.63702 0,-0.22098 -0.02005,-0.42899 -0.04678,-0.63697 L 13.876434,5.7905 c 0.126965,-0.0975 0.160375,-0.273 0.08019,-0.41599 L 12.620155,3.1255 c -0.08019,-0.143 -0.260611,-0.195 -0.407623,-0.143 l -1.663902,0.65 C 10.201152,3.37249 9.8269414,3.158 9.4193173,2.9955 L 9.1653881,1.273 C 9.1453391,1.117 9.0050124,1 8.8379533,1 H 6.1650076 C 5.9979488,1 5.8576196,1.117 5.8375725,1.273 L 5.5836433,2.9955 C 5.1760201,3.158 4.8018087,3.379 4.4543269,3.6325 l -1.6639045,-0.65 c -0.153694,-0.0584 -0.3274349,0 -0.4076231,0.143 L 1.0463299,5.37451 C 0.95945965,5.5175 0.99955275,5.693 1.1265179,5.7905 l 1.4099752,1.07252 c -0.026729,0.20798 -0.046777,0.4225 -0.046777,0.63697 0,0.21452 0.020047,0.429 0.046777,0.63702 l -1.4099752,1.0725 c -0.12696451,0.0974 -0.16037613,0.27301 -0.080188,0.416 l 1.3364694,2.24901 c 0.080187,0.143 0.2606115,0.195 0.4076231,0.143 l 1.6639045,-0.65001 c 0.3474819,0.26 0.7216933,0.47451 1.1293165,0.637 l 0.2539291,1.7225 c 0.020047,0.156 0.1603763,0.273 0.3274351,0.273 h 2.6729385 c 0.1670589,0 0.3073876,-0.117 0.3274345,-0.273 L 9.41931,12.00451 c 0.4076239,-0.16249 0.781834,-0.3835 1.129317,-0.637 l 1.663902,0.65001 c 0.153695,0.0584 0.327436,0 0.407624,-0.143 l 1.336469,-2.24901 c 0.08019,-0.14299 0.04678,-0.3185 -0.08019,-0.416 z m -4.9649821,1.638 c -1.2896929,0 -2.3388215,-1.0205 -2.3388215,-2.27502 0,-1.25449 1.0491286,-2.27499 2.3388215,-2.27499 1.2896928,0 2.3388221,1.0205 2.3388221,2.27499 0,1.25452 -1.0491293,2.27502 -2.3388221,2.27502 z" />
</svg>
