<?xml version="1.0" encoding="utf-8"?>
<!-- Generator: Adobe Illustrator 21.0.2, SVG Export Plug-In . SVG Version: 6.00 Build 0)  -->
<svg version="1.1"
	 id="svg6" inkscape:version="0.91 r13725" sodipodi:docname="layer_header_lock.svg" xmlns:cc="http://creativecommons.org/ns#" xmlns:dc="http://purl.org/dc/elements/1.1/" xmlns:inkscape="http://www.inkscape.org/namespaces/inkscape" xmlns:rdf="http://www.w3.org/1999/02/22-rdf-syntax-ns#" xmlns:sodipodi="http://sodipodi.sourceforge.net/DTD/sodipodi-0.dtd" xmlns:svg="http://www.w3.org/2000/svg"
	 xmlns="http://www.w3.org/2000/svg" xmlns:xlink="http://www.w3.org/1999/xlink" x="0px" y="0px" viewBox="0 0 18 18"
	 style="enable-background:new 0 0 18 18;" xml:space="preserve">
<style type="text/css">
	.st0{fill:none;}
	.st1{fill:#FBFBFB;stroke:#303030;stroke-width:2;stroke-linejoin:round;stroke-miterlimit:1.4142;}
	.st2{fill:#E6E6E6;}
	.st3{fill:#303030;}
</style>
<rect id="rect2" x="2" y="17" class="st0" width="1" height="1"/>
<path id="path4493" inkscape:connector-curvature="0" class="st1" d="M11.5,3C9.6,3,8,4.6,8,6.5V7h1V6.5C9,5.1,10.1,4,11.5,4
	C12.9,4,14,5.1,14,6.5V7h1V6.5C15,4.6,13.4,3,11.5,3z M7,8v7h9V8H7z"/>
<g id="g4491" transform="matrix(0.05555556,0,0,0.05555556,-8e-7,-1.4e-6)">
	<path id="rect4488" inkscape:connector-curvature="0" class="st2" d="M126,144v126h162V144H126z"/>
	<path id="path4509" inkscape:connector-curvature="0" class="st2" d="M207,54c-34.8,0-63,28.2-63,63v9h18v-9c0-24.8,20.2-45,45-45
		c24.8,0,45,20.1,45,45v9h18v-9C270,82.2,241.8,54,207,54z"/>
</g>
<circle id="path820" class="st3" cx="11.5" cy="10.5" r="1.5"/>
<rect id="rect822" x="10.7" y="11" class="st3" width="1.5" height="3"/>
</svg>
