<?xml version="1.0" encoding="utf-8"?>
<!-- Generator: Adobe Illustrator 21.0.2, SVG Export Plug-In . SVG Version: 6.00 Build 0)  -->
<svg version="1.1"
	 id="svg4489" inkscape:version="0.91 r13725" sodipodi:docname="cam_unlock.svg" xmlns:cc="http://creativecommons.org/ns#" xmlns:dc="http://purl.org/dc/elements/1.1/" xmlns:inkscape="http://www.inkscape.org/namespaces/inkscape" xmlns:rdf="http://www.w3.org/1999/02/22-rdf-syntax-ns#" xmlns:sodipodi="http://sodipodi.sourceforge.net/DTD/sodipodi-0.dtd" xmlns:svg="http://www.w3.org/2000/svg"
	 xmlns="http://www.w3.org/2000/svg" xmlns:xlink="http://www.w3.org/1999/xlink" x="0px" y="0px" viewBox="0 0 18 18"
	 style="enable-background:new 0 0 18 18;" xml:space="preserve">
<style type="text/css">
	.st0{fill:none;}
	.st1{fill:#303030;fill-opacity:0.7843;stroke:#303030;stroke-width:2;stroke-linejoin:round;stroke-miterlimit:1.4142;}
	.st2{fill:#E6E6E6;}
	.st3{fill:#303030;}
</style>
<rect id="rect2" x="1" y="17" class="st0" width="1" height="1"/>
<path id="path4509" inkscape:connector-curvature="0" class="st1" d="M13.5,2C11.6,2,10,3.6,10,5.5V7h1V5.5C11,4.1,12.1,3,13.5,3
	C14.9,3,16,4.1,16,5.5V7h1V5.5C17,3.6,15.4,2,13.5,2z M4,8v7h9V8H4z"/>
<path id="path4491" inkscape:connector-curvature="0" class="st2" d="M13.5,2C11.6,2,10,3.6,10,5.5V7h1V5.5C11,4.1,12.1,3,13.5,3
	C14.9,3,16,4.1,16,5.5V7h1V5.5C17,3.6,15.4,2,13.5,2z"/>
<path id="path4493" inkscape:connector-curvature="0" class="st2" d="M4,8v7h9V8L4,8z"/>
<circle id="path820" class="st3" cx="8.5" cy="10.5" r="1.5"/>
<rect id="rect822" x="7.7" y="11" class="st3" width="1.5" height="3"/>
</svg>
