<?xml version="1.0" encoding="UTF-8" standalone="no"?>
<svg
   xmlns:dc="http://purl.org/dc/elements/1.1/"
   xmlns:cc="http://creativecommons.org/ns#"
   xmlns:rdf="http://www.w3.org/1999/02/22-rdf-syntax-ns#"
   xmlns:svg="http://www.w3.org/2000/svg"
   xmlns="http://www.w3.org/2000/svg"
   width="100%"
   height="100%"
   viewBox="0 0 18 18"
   version="1.1"
   xml:space="preserve"
   style="fill-rule:evenodd;clip-rule:evenodd;stroke-linejoin:round;stroke-miterlimit:1.41421;"
   id="svg10"><metadata
     id="metadata16"><rdf:RDF><cc:Work
         rdf:about=""><dc:format>image/svg+xml</dc:format><dc:type
           rdf:resource="http://purl.org/dc/dcmitype/StillImage" /><dc:title></dc:title></cc:Work></rdf:RDF></metadata><defs
     id="defs14" /><rect
     x="0"
     y="0"
     width="18"
     height="18"
     style="fill:none;"
     id="rect2" /><path
     id="path4"
     style="fill:#e6e6e6;fill-opacity:1"
     d="M 4,9 13,4 V 14 Z" /><path
     id="path6"
     style="fill-opacity:0.54901963;fill:#000000"
     d="m 12.934,3.002 -0.063,0.006 -0.062,0.01 -0.061,0.014 -0.061,0.018 -0.059,0.022 -0.058,0.025 -0.056,0.029 -9,5 L 3.461,8.158 3.409,8.193 3.36,8.232 3.313,8.273 3.269,8.318 3.228,8.365 3.189,8.414 3.154,8.466 3.123,8.52 3.094,8.576 3.07,8.633 3.049,8.692 3.031,8.752 3.018,8.813 3.008,8.875 3.002,8.937 3,9 3.002,9.063 3.008,9.125 3.018,9.187 3.031,9.248 3.049,9.308 3.07,9.367 3.094,9.424 3.123,9.48 3.154,9.534 3.189,9.586 3.228,9.635 3.269,9.682 3.313,9.727 3.36,9.768 l 0.049,0.039 0.052,0.035 0.053,0.032 9,5 0.056,0.029 0.058,0.025 0.059,0.022 0.061,0.018 0.061,0.014 0.062,0.01 0.063,0.006 0.063,0.002 0.063,-0.002 0.062,-0.006 0.062,-0.009 0.062,-0.014 0.06,-0.017 0.06,-0.021 0.058,-0.025 0.056,-0.029 0.054,-0.032 0.052,-0.035 0.05,-0.038 0.047,-0.042 0.045,-0.044 0.042,-0.047 0.038,-0.05 0.036,-0.052 0.032,-0.054 0.028,-0.056 0.025,-0.058 0.022,-0.059 0.017,-0.061 0.014,-0.061 0.01,-0.062 0.006,-0.063 L 14,14 V 4 L 13.998,3.937 13.992,3.874 13.982,3.812 13.968,3.751 13.951,3.69 13.929,3.631 13.904,3.573 13.876,3.517 13.844,3.463 13.808,3.411 13.77,3.361 13.728,3.314 13.683,3.27 13.636,3.228 13.586,3.19 13.534,3.155 13.48,3.123 13.424,3.094 13.366,3.069 13.306,3.048 13.246,3.031 13.184,3.017 13.122,3.008 13.06,3.002 12.997,3 Z M 13,14 4,9 13,4 Z" /></svg>