<?xml version="1.0" encoding="UTF-8" standalone="no"?>
<!DOCTYPE svg PUBLIC "-//W3C//DTD SVG 1.1//EN" "http://www.w3.org/Graphics/SVG/1.1/DTD/svg11.dtd">
<svg width="18px" height="17px" version="1.1" xmlns="http://www.w3.org/2000/svg" xmlns:xlink="http://www.w3.org/1999/xlink" xml:space="preserve" xmlns:serif="http://www.serif.com/" style="fill-rule:evenodd;clip-rule:evenodd;stroke-linejoin:round;stroke-miterlimit:2;">
    <path d="M9,0.706C4.698,0.706 1.206,4.198 1.206,8.5C1.206,12.802 4.698,16.294 9,16.294C13.302,16.294 16.794,12.802 16.794,8.5C16.794,4.198 13.302,0.706 9,0.706ZM9,2.294C12.424,2.294 15.206,5.076 15.206,8.5C15.206,11.924 12.424,14.706 9,14.706C5.576,14.706 2.794,11.924 2.794,8.5C2.794,5.076 5.576,2.294 9,2.294ZM13,5L5,5L5,12L13,12L13,5Z"/>
    <g transform="matrix(1,0,0,1,0,4.2858e-06)">
        <rect x="10" y="9" width="8" height="8"/>
    </g>
    <g transform="matrix(1,0,0,1,0,4.2858e-06)">
        <path d="M17,14L15,14L15,16L17,16L17,14ZM13,16L11,16L11,14L13,14L13,16ZM15,12L13,12L13,14L15,14L15,12ZM17,10L15,10L15,12L17,12L17,10ZM13,10L11,10L11,12L13,12L13,10Z" style="fill:white;"/>
    </g>
    <g transform="matrix(1,0,0,1,0,4.2858e-06)">
        <path d="M15,14L13,14L13,16L15,16L15,14ZM17,12L15,12L15,14L17,14L17,12ZM13,12L11,12L11,14L13,14L13,12ZM15,10L13,10L13,12L15,12L15,10Z" style="fill:rgb(102,102,102);"/>
    </g>
</svg>
