<?xml version="1.0" encoding="UTF-8" standalone="no"?>
<svg
   xmlns:dc="http://purl.org/dc/elements/1.1/"
   xmlns:cc="http://creativecommons.org/ns#"
   xmlns:rdf="http://www.w3.org/1999/02/22-rdf-syntax-ns#"
   xmlns:svg="http://www.w3.org/2000/svg"
   xmlns="http://www.w3.org/2000/svg"
   xml:space="preserve"
   style="enable-background:new 0 0 10 16;"
   viewBox="0 0 10 16"
   y="0px"
   x="0px"
   id="svg4553"
   version="1.1"><metadata
   id="metadata10"><rdf:RDF><cc:Work
       rdf:about=""><dc:format>image/svg+xml</dc:format><dc:type
         rdf:resource="http://purl.org/dc/dcmitype/StillImage" /><dc:title></dc:title></cc:Work></rdf:RDF></metadata><defs
   id="defs8" />
<style
   id="style2"
   type="text/css">
	.st0{fill:none;stroke:#626262;stroke-width:2;stroke-linecap:square;}
	.st1{fill:#9D9D9D;}
</style>

<path
   style="fill:none;stroke:#626262;stroke-width:1.87562358;stroke-linecap:square"
   d="m 2.968906,1.9378118 h 4.062188 c 1.1171019,0 2.0310942,0.7794242 2.0310942,1.7320538 v 8.6602684 c 0,0.95263 -0.9139923,1.732054 -2.0310942,1.732054 H 2.968906 c -1.1171019,0 -2.03109418,-0.779424 -2.03109418,-1.732054 V 3.6698656 c 0,-0.9526296 0.91399228,-1.7320538 2.03109418,-1.7320538 z"
   class="st0"
   id="rect4492" />
<path
   style="fill:#9d9d9d;stroke-width:0.92582011"
   d="M 3,2 H 7 C 8.1,2 9,2.7714285 9,3.7142857 V 12.285715 C 9,13.228572 8.1,14 7,14 H 3 C 1.9,14 1,13.228572 1,12.285715 V 3.7142857 C 1,2.7714285 1.9,2 3,2 Z"
   class="st1"
   id="rect4490" />
</svg>