<?xml version="1.0" encoding="UTF-8" standalone="no"?>
<svg
   xmlns:dc="http://purl.org/dc/elements/1.1/"
   xmlns:cc="http://creativecommons.org/ns#"
   xmlns:rdf="http://www.w3.org/1999/02/22-rdf-syntax-ns#"
   xmlns:svg="http://www.w3.org/2000/svg"
   xmlns="http://www.w3.org/2000/svg"
   width="100%"
   height="100%"
   viewBox="0 0 15 15"
   version="1.1"
   id="svg4489">
  <defs
     id="defs4483" />
  <metadata
     id="metadata4486">
    <rdf:RDF>
      <cc:Work
         rdf:about="">
        <dc:format>image/svg+xml</dc:format>
        <dc:type
           rdf:resource="http://purl.org/dc/dcmitype/StillImage" />
        <dc:title></dc:title>
      </cc:Work>
    </rdf:RDF>
  </metadata>
  <g
     id="layer1"
     transform="translate(0,-1106.5197)" />
  <path
     style="fill:none;fill-opacity:1;stroke:#000000;stroke-width:2;stroke-linecap:round;stroke-linejoin:round;stroke-miterlimit:4;stroke-dasharray:none;stroke-opacity:0.54901961;paint-order:markers stroke fill"
     d="M 2,1 C 1.446,1 1,1.4460072 1,2 v 2 2 4 c 0,0 0,1 1,1 H 3 V 9 7 5 C 3,4.44601 3.446,4 4,4 h 5 c 0.554,0 1,0.44601 1,1 v 1 h 2 V 4 C 12,3.44601 11.554,3 11,3 H 6 V 2 C 6,1.4460072 5.554,1 5,1 Z M 5,5 C 4.446,5 4,5.44601 4,6 v 2 5 c 0,0 0,1 1,1 h 8 c 0,0 1,0 1,-1 V 8 C 14,7.44601 13.554,7 13,7 H 9 V 6 C 9,5.44601 8.554,5 8,5 Z"
     id="path4487" />
  <path
     style="fill:#e6e6e6;fill-opacity:1;stroke:none;stroke-width:2;stroke-linecap:round;stroke-linejoin:round;stroke-miterlimit:4;stroke-dasharray:none;stroke-opacity:1;paint-order:markers stroke fill"
     d="M 2,1 C 1.446,1 1,1.4460072 1,2 v 2 2 4 c 0,0 0,1 1,1 H 3 V 9 7 5 C 3,4.44601 3.446,4 4,4 h 5 c 0.554,0 1,0.44601 1,1 v 1 h 2 V 4 C 12,3.44601 11.554,3 11,3 H 6 V 2 C 6,1.4460072 5.554,1 5,1 Z"
     id="rect4508" />
  <path
     id="rect4521"
     d="M 5,5 C 4.446,5 4,5.44601 4,6 v 2 5 c 0,0 0,1 1,1 h 8 c 0,0 1,0 1,-1 V 8 C 14,7.44601 13.554,7 13,7 H 9 V 6 C 9,5.44601 8.554,5 8,5 Z"
     style="fill:#5db8e6;fill-opacity:1;stroke:none;stroke-width:2;stroke-linecap:round;stroke-linejoin:round;stroke-miterlimit:4;stroke-dasharray:none;stroke-opacity:1;paint-order:markers stroke fill" />
</svg>
