<?xml version="1.0" encoding="UTF-8" standalone="no"?><!DOCTYPE svg PUBLIC "-//W3C//DTD SVG 1.1//EN" "http://www.w3.org/Graphics/SVG/1.1/DTD/svg11.dtd"><svg width="100%" height="100%" viewBox="0 0 14 17" version="1.1" xmlns="http://www.w3.org/2000/svg" xmlns:xlink="http://www.w3.org/1999/xlink" xml:space="preserve" style="fill-rule:evenodd;clip-rule:evenodd;stroke-linejoin:round;stroke-miterlimit:1.41421;"><path d="M7,5l4,0l0,4l3,0l0,1l-3,0l0,4l-9,0l0,-9l4,0l0,-5l1,0l0,5Zm-4,1l0,7l7,0l0,-7c-2.333,0 -4.667,0 -7,0Z"/><path d="M7,9l2,0l0,1l-2,0l0,2l-1,0l0,-2l-2,0l0,-1l2,0l0,-2l1,0c0,0.667 0,1.333 0,2Z" style="fill-rule:nonzero;"/></svg>