<?xml version="1.0" encoding="utf-8"?>
<!-- Generator: Adobe Illustrator 21.0.2, SVG Export Plug-In . SVG Version: 6.00 Build 0)  -->
<svg version="1.1"
	 id="svg6" inkscape:version="0.91 r13725" sodipodi:docname="x_lock_off.svg" xmlns:cc="http://creativecommons.org/ns#" xmlns:dc="http://purl.org/dc/elements/1.1/" xmlns:inkscape="http://www.inkscape.org/namespaces/inkscape" xmlns:rdf="http://www.w3.org/1999/02/22-rdf-syntax-ns#" xmlns:sodipodi="http://sodipodi.sourceforge.net/DTD/sodipodi-0.dtd" xmlns:svg="http://www.w3.org/2000/svg"
	 xmlns="http://www.w3.org/2000/svg" xmlns:xlink="http://www.w3.org/1999/xlink" x="0px" y="0px" viewBox="0 0 17 17"
	 style="enable-background:new 0 0 17 17;" xml:space="preserve">
<style type="text/css">
	.st0{fill-opacity:0.313;}
</style>
<g id="g4491" transform="matrix(0.05555556,0,0,0.05555556,-1.0000008,-1.000001)">
	<path id="path4509" inkscape:connector-curvature="0" class="st0" d="M171,54c-34.8,0-63,28.2-63,63v9h18v-9c0-24.8,20.2-45,45-45
		c24.8,0,45,20.1,45,45v9h18v-9C234,82.2,205.8,54,171,54z"/>
</g>
<path id="rect845" inkscape:connector-curvature="0" class="st0" d="M4,7v7h9V7H4z M8.5,8C9.3,8,10,8.7,10,9.5c0,0.5-0.3,1-0.8,1.3
	V13H7.8v-2.2C7.3,10.5,7,10,7,9.5C7,8.7,7.7,8,8.5,8z"/>
</svg>
