<?xml version="1.0" encoding="UTF-8" standalone="no"?>
<svg
   xmlns:dc="http://purl.org/dc/elements/1.1/"
   xmlns:cc="http://creativecommons.org/ns#"
   xmlns:rdf="http://www.w3.org/1999/02/22-rdf-syntax-ns#"
   xmlns:svg="http://www.w3.org/2000/svg"
   xmlns="http://www.w3.org/2000/svg"
   xmlns:sodipodi="http://sodipodi.sourceforge.net/DTD/sodipodi-0.dtd"
   xmlns:inkscape="http://www.inkscape.org/namespaces/inkscape"
   id="svg6"
   style="fill-rule:evenodd;clip-rule:evenodd;stroke-linejoin:round;stroke-miterlimit:1.41421;"
   xml:space="preserve"
   version="1.1"
   viewBox="0 0 17 17"
   height="100%"
   width="100%"
   sodipodi:docname="x_lock_off.svg"
   inkscape:version="0.92.2 (5c3e80d, 2017-08-06)"><sodipodi:namedview
     pagecolor="#ffffff"
     bordercolor="#666666"
     borderopacity="1"
     objecttolerance="10"
     gridtolerance="10"
     guidetolerance="10"
     inkscape:pageopacity="0"
     inkscape:pageshadow="2"
     inkscape:window-width="640"
     inkscape:window-height="480"
     id="namedview9"
     showgrid="false"
     inkscape:zoom="13.882353"
     inkscape:cx="8.5"
     inkscape:cy="8.5"
     inkscape:current-layer="svg6" /><metadata
     id="metadata12"><rdf:RDF><cc:Work
         rdf:about=""><dc:format>image/svg+xml</dc:format><dc:type
           rdf:resource="http://purl.org/dc/dcmitype/StillImage" /><dc:title /></cc:Work></rdf:RDF></metadata><defs
     id="defs10" /><rect
     id="rect2"
     style="clip-rule:evenodd;fill:none;fill-rule:evenodd;stroke-width:0.05555556;stroke-linejoin:round;stroke-miterlimit:1.41420996"
     height="1.0000001"
     width="1.0000001"
     y="16.000004"
     x="-1.0000007" /><g
     style="clip-rule:evenodd;fill:#000000;fill-opacity:0.31300813;fill-rule:evenodd;stroke-linejoin:round;stroke-miterlimit:1.41420996"
     id="g4491"
     transform="matrix(0.05555556,0,0,0.05555556,-1.0000008,-1.000001)"><path
       style="fill:#000000;fill-opacity:0.31300813;stroke:none;stroke-width:36;stroke-linecap:butt;stroke-linejoin:round;stroke-miterlimit:1.41420996;stroke-dasharray:none;stroke-opacity:0.27638191;paint-order:markers stroke fill"
       d="m 171,54 c -34.78021,-5e-6 -62.98059,28.18463 -63,62.96484 V 126 h 18 v -9.03516 C 126.01941,92.12576 146.16091,71.999992 171,72 c 24.83909,-8e-6 44.98059,20.12576 45,44.96484 V 126 h 18 v -9.03516 C 233.98059,82.18463 205.78021,53.999995 171,54 Z"
       id="path4509" /></g><path
     id="rect845"
     d="m 4,7 v 7 h 9 V 7 Z M 8.5,8 A 1.5,1.5 0 0 1 10,9.5 1.5,1.5 0 0 1 9.25,10.796875 V 13 H 7.75 V 10.796875 A 1.5,1.5 0 0 1 7,9.5 1.5,1.5 0 0 1 8.5,8 Z"
     style="fill:#000000;fill-opacity:0.31300813;stroke:none;stroke-width:2;stroke-linecap:round;stroke-linejoin:round;stroke-miterlimit:4;stroke-dasharray:none;stroke-opacity:1;paint-order:normal" /></svg>