<?xml version="1.0" encoding="UTF-8" standalone="no"?>
<!DOCTYPE svg PUBLIC "-//W3C//DTD SVG 1.1//EN" "http://www.w3.org/Graphics/SVG/1.1/DTD/svg11.dtd">
<svg width="20px" height="20px" version="1.1" xmlns="http://www.w3.org/2000/svg" xmlns:xlink="http://www.w3.org/1999/xlink" xml:space="preserve" xmlns:serif="http://www.serif.com/" style="fill-rule:evenodd;clip-rule:evenodd;stroke-linejoin:round;stroke-miterlimit:2;">
    <g transform="matrix(1.375,0,0,1.375,-1,-1)">
        <rect x="0" y="0" width="16" height="16" style="fill-opacity:0;"/>
    </g>
    <g transform="matrix(1.08333,0,0,1.08333,-1.91663,-1.91663)">
        <g transform="matrix(0.92308,0,0,0.92308,0.384617,0.384617)">
            <path d="M11.5,5L18,11.5L11.5,18L5,11.5L11.5,5ZM11.5,9C12.88,9 14,10.12 14,11.5C14,12.88 12.88,14 11.5,14C10.12,14 9,12.88 9,11.5C9,10.12 10.12,9 11.5,9Z" style="fill:white;"/>
        </g>
        <path d="M11,5L17,11L11,17L5,11L11,5ZM6.305,11L11,15.695L15.695,11L11,6.305L6.305,11Z" style="fill:white;"/>
    </g>
</svg>

