<?xml version="1.0" encoding="UTF-8" standalone="no"?>
<svg
   xmlns:dc="http://purl.org/dc/elements/1.1/"
   xmlns:cc="http://creativecommons.org/ns#"
   xmlns:rdf="http://www.w3.org/1999/02/22-rdf-syntax-ns#"
   xmlns:svg="http://www.w3.org/2000/svg"
   xmlns="http://www.w3.org/2000/svg"
   xml:space="preserve"
   style="enable-background:new 0 0 18 18;"
   viewBox="0 0 18 18"
   y="0px"
   x="0px"
   id="svg4489"
   version="1.1"><metadata
   id="metadata3765"><rdf:RDF><cc:Work
       rdf:about=""><dc:format>image/svg+xml</dc:format><dc:type
         rdf:resource="http://purl.org/dc/dcmitype/StillImage" /><dc:title></dc:title></cc:Work></rdf:RDF></metadata><defs
   id="defs3763" />
<style
   id="style3752"
   type="text/css">
	.st0{fill:#FBFBFB;stroke:#303030;stroke-width:2;stroke-linejoin:round;stroke-miterlimit:1.4142;}
	.st1{fill:#E6E6E6;}
	.st2{fill:#303030;}
</style>
<rect
       y="0.0010595216"
       x="0.0010592251"
       height="17.997881"
       width="17.997881"
       id="rect829"
       style="clip-rule:evenodd;fill:#e6e6e6;fill-opacity:0.29019608;fill-rule:evenodd;stroke:none;stroke-width:2;stroke-linecap:round;stroke-linejoin:round;stroke-miterlimit:1.41420996;stroke-dasharray:none;stroke-opacity:1" />  
<path
   style="fill:#fbfbfb;stroke:#303030;stroke-width:2;stroke-linejoin:round;stroke-miterlimit:1.41419995"
   d="M 8.5,3 C 6.6,3 5,4.6 5,6.5 V 7 H 6 V 6.5 C 6,5.1 7.1,4 8.5,4 9.9,4 11,5.1 11,6.5 V 7 h 1 V 6.5 C 12,4.6 10.4,3 8.5,3 Z M 4,8 v 7 h 9 V 8 Z"
   class="st0"
   id="path4493" />
<g
   transform="matrix(0.05555556,0,0,0.05555556,-0.5,0)"
   id="g4491">
	<path
   style="fill:#e6e6e6"
   d="M 81,144 V 270 H 243 V 144 Z"
   class="st1"
   id="rect4488" />
	<path
   style="fill:#e6e6e6"
   d="m 162,54 c -34.8,0 -63,28.2 -63,63 v 9 h 18 v -9 c 0,-24.8 20.2,-45 45,-45 24.8,0 45,20.1 45,45 v 9 h 18 v -9 C 225,82.2 196.8,54 162,54 Z"
   class="st1"
   id="path4509" />
</g>
<circle
   style="fill:#303030"
   r="1.5"
   cy="10.5"
   cx="8.5"
   class="st2"
   id="path820" />
<rect
   style="fill:#303030"
   height="3"
   width="1.5"
   class="st2"
   y="11"
   x="7.8000002"
   id="rect822" />
</svg>