<?xml version="1.0" encoding="UTF-8" standalone="no"?>
<svg
   xmlns:dc="http://purl.org/dc/elements/1.1/"
   xmlns:cc="http://creativecommons.org/ns#"
   xmlns:rdf="http://www.w3.org/1999/02/22-rdf-syntax-ns#"
   xmlns:svg="http://www.w3.org/2000/svg"
   xmlns="http://www.w3.org/2000/svg"
   version="1.1"
   id="svg4553"
   x="0px"
   y="0px"
   viewBox="0 0 10 16"
   style="enable-background:new 0 0 10 16;"
   xml:space="preserve"><metadata
   id="metadata10"><rdf:RDF><cc:Work
       rdf:about=""><dc:format>image/svg+xml</dc:format><dc:type
         rdf:resource="http://purl.org/dc/dcmitype/StillImage" /><dc:title></dc:title></cc:Work></rdf:RDF></metadata><defs
   id="defs8" />
<style
   type="text/css"
   id="style2">
	.st0{fill:none;stroke:#3E3E3E;stroke-width:2;stroke-linecap:square;}
	.st1{fill:#BBBBBB;}
</style>

<path
   style="fill:none;stroke:#3e3e3e;stroke-width:1.8756237;stroke-linecap:square"
   id="rect4492"
   class="st0"
   d="m 2.9689059,1.9378114 h 4.0621882 c 1.1171018,0 2.0310941,0.7794242 2.0310941,1.7320539 v 8.6602687 c 0,0.952629 -0.9139923,1.732054 -2.0310941,1.732054 H 2.9689059 c -1.1171018,0 -2.03109404,-0.779425 -2.03109404,-1.732054 V 3.6698653 c 0,-0.9526297 0.91399224,-1.7320539 2.03109404,-1.7320539 z" />
<path
   style="fill:#bbbbbb;stroke-width:0.92582005"
   id="rect4490"
   class="st1"
   d="M 3,2 H 7 C 8.1000001,2 9,2.7714286 9,3.7142858 V 12.285714 C 9,13.228571 8.1000001,14 7,14 H 3 C 1.8999999,14 1,13.228571 1,12.285714 V 3.7142858 C 1,2.7714286 1.8999999,2 3,2 Z" />
</svg>