<?xml version="1.0" encoding="UTF-8" standalone="no"?>
<svg
   xmlns:dc="http://purl.org/dc/elements/1.1/"
   xmlns:cc="http://creativecommons.org/ns#"
   xmlns:rdf="http://www.w3.org/1999/02/22-rdf-syntax-ns#"
   xmlns:svg="http://www.w3.org/2000/svg"
   xmlns="http://www.w3.org/2000/svg"
   version="1.1"
   id="svg6"
   x="0px"
   y="0px"
   viewBox="0 0 17 17"
   style="enable-background:new 0 0 17 17;"
   xml:space="preserve"><metadata
   id="metadata13"><rdf:RDF><cc:Work
       rdf:about=""><dc:format>image/svg+xml</dc:format><dc:type
         rdf:resource="http://purl.org/dc/dcmitype/StillImage" /><dc:title></dc:title></cc:Work></rdf:RDF></metadata><defs
   id="defs11" />
<style
   type="text/css"
   id="style2">
	.st0{fill:none;}
	.st1{fill:#BBBBBB;fill-opacity:0.4471;}
</style>

<g
   style="fill:#000000;fill-opacity:0.35294119"
   id="g4491"
   transform="matrix(0.05555556,0,0,0.05555556,-3.5000009,-1.000001)">
    <path
   id="path4509"
   class="st1"
   d="m 216,54 c -34.8,0 -63,28.2 -63,63 v 9 h 18 v -9 c 0,-24.8 20.2,-45 45,-45 24.8,0 45,20.1 45,45 v 9 h 18 v -9 C 279,82.2 250.8,54 216,54 Z"
   style="fill:#000000;fill-opacity:0.35294119" />
</g>
<path
   id="rect845"
   class="st1"
   d="m 4,7 v 7 h 9 V 7 Z M 8.5,8 C 9.3,8 10,8.7 10,9.5 10,10 9.7,10.5 9.2,10.8 V 13 H 7.7 V 10.8 C 7.3,10.5 7,10 7,9.5 7,8.7 7.7,8 8.5,8 Z"
   style="fill:#000000;fill-opacity:0.35294119;stroke-width:0.94868332" />
</svg>