<?xml version="1.0" encoding="UTF-8" standalone="no"?>
<!DOCTYPE svg PUBLIC "-//W3C//DTD SVG 1.1//EN" "http://www.w3.org/Graphics/SVG/1.1/DTD/svg11.dtd">
<svg width="20px" height="20px" version="1.1" xmlns="http://www.w3.org/2000/svg" xmlns:xlink="http://www.w3.org/1999/xlink" xml:space="preserve" xmlns:serif="http://www.serif.com/" style="fill-rule:evenodd;clip-rule:evenodd;stroke-linejoin:round;stroke-miterlimit:2;">
    <rect x="0" y="0" width="20" height="20" style="fill-opacity:0;"/>
    <g transform="matrix(1,0,0,1,-1,-1)">
        <rect x="4" y="4" width="14" height="14" style="fill:rgb(64,64,64);"/>
    </g>
    <g transform="matrix(1.06667,0,0,1.06667,0.93333,0.93333)">
        <path d="M15,16L2,16C1.4,16 1,15.5 1,15L1,2C1,1.4 1.5,1 2,1L15,1C15.6,1 16,1.5 16,2L16,15C16,15.6 15.6,16 15,16ZM2.875,14.125L14.125,14.125L14.125,2.875L2.875,2.875L2.875,14.125Z" style="fill:rgb(255,221,0);fill-rule:nonzero;"/>
    </g>
    <g transform="matrix(1.1,0,0,1.1,0.65,0.65)">
        <path d="M13.5,8.5C13.5,11.3 11.3,13.5 8.5,13.5C5.7,13.5 3.5,11.3 3.5,8.5C3.5,5.7 5.7,3.5 8.5,3.5C11.3,3.5 13.5,5.7 13.5,8.5Z" style="fill:rgb(0,0,255);fill-rule:nonzero;stroke:rgb(3,3,3);stroke-width:0.91px;"/>
    </g>
</svg>
