<?xml version="1.0" encoding="UTF-8" standalone="no"?>
<!DOCTYPE svg PUBLIC "-//W3C//DTD SVG 1.1//EN" "http://www.w3.org/Graphics/SVG/1.1/DTD/svg11.dtd">
<svg width="20px" height="11px" version="1.1" xmlns="http://www.w3.org/2000/svg" xmlns:xlink="http://www.w3.org/1999/xlink" xml:space="preserve" xmlns:serif="http://www.serif.com/" style="fill-rule:evenodd;clip-rule:evenodd;stroke-linejoin:round;stroke-miterlimit:2;">
    <g transform="matrix(1,0,0,1,-1,0)">
        <path d="M19,6.222C19,7.204 18.204,8 17.222,8L4.778,8C3.796,8 3,7.204 3,6.222L3,0L19,0L19,6.222Z" style="fill:rgb(255,221,0);"/>
    </g>
    <g id="path10" transform="matrix(0.909091,0,0,-0.909091,0.45455,7.27273)">
        <path d="M16,8L5,8C5,5 7.5,2.5 10.5,2.5C13.5,2.5 16,5 16,8Z" style="fill:white;fill-rule:nonzero;"/>
        <path d="M16,9.1C16.608,9.1 17.1,8.608 17.1,8C17.1,4.4 14.1,1.4 10.5,1.4C6.9,1.4 3.9,4.4 3.9,8C3.9,8.608 4.392,9.1 5,9.1L16,9.1ZM16,8L5,8C5,5 7.5,2.5 10.5,2.5C13.5,2.5 16,5 16,8Z" style="fill:rgb(26,26,26);"/>
    </g>
</svg>
