<?xml version="1.0" encoding="UTF-8" standalone="no"?>
<!DOCTYPE svg PUBLIC "-//W3C//DTD SVG 1.1//EN" "http://www.w3.org/Graphics/SVG/1.1/DTD/svg11.dtd">
<svg width="20px" height="20px" version="1.1" xmlns="http://www.w3.org/2000/svg" xmlns:xlink="http://www.w3.org/1999/xlink" xml:space="preserve" xmlns:serif="http://www.serif.com/" style="fill-rule:evenodd;clip-rule:evenodd;stroke-linejoin:round;stroke-miterlimit:2;">
    <rect x="0" y="0" width="20" height="20" style="fill-opacity:0;"/>
    <g transform="matrix(1.34517,0,0,1.29007,-3.07106,-1.61066)">
        <path d="M7.109,4.456C6.877,4.308 6.595,4.314 6.367,4.472C6.14,4.629 6,4.915 6,5.224L6,12.776C6,13.085 6.14,13.371 6.367,13.528C6.595,13.686 6.877,13.692 7.109,13.544C8.655,12.561 11.446,10.784 13.043,9.768C13.284,9.615 13.434,9.32 13.434,9C13.434,8.68 13.284,8.385 13.043,8.232C11.446,7.216 8.655,5.439 7.109,4.456Z" style="fill:black;fill-rule:nonzero;"/>
    </g>
</svg>
