<?xml version="1.0" encoding="UTF-8" standalone="no"?>
<!DOCTYPE svg PUBLIC "-//W3C//DTD SVG 1.1//EN" "http://www.w3.org/Graphics/SVG/1.1/DTD/svg11.dtd">
<svg width="20px" height="20px" version="1.1" xmlns="http://www.w3.org/2000/svg" xmlns:xlink="http://www.w3.org/1999/xlink" xml:space="preserve" xmlns:serif="http://www.serif.com/" style="fill-rule:evenodd;clip-rule:evenodd;stroke-linejoin:round;stroke-miterlimit:2;">
    <rect x="0" y="0" width="20" height="20" style="fill-opacity:0;"/>
    <g transform="matrix(0.642857,0,0,0.642857,-115.357,-34.979)">
        <g transform="matrix(0.893554,0,0,0.893554,20.7571,7.45125)">
            <rect x="188" y="63" width="14" height="14" style="fill:rgb(252,252,252);"/>
        </g>
        <g transform="matrix(1.55556,0,0,1.55556,177.889,52.8562)">
            <path d="M18,6.021C18,4.917 17.104,4.021 16,4.021L6,4.021C4.896,4.021 4,4.917 4,6.021L4,16.021C4,17.125 4.896,18.021 6,18.021L16,18.021C17.104,18.021 18,17.125 18,16.021L18,6.021ZM16,6.021L6,6.021L6,16.021L16,16.021L16,6.021Z" style="fill:black;"/>
        </g>
    </g>
</svg>
