<?xml version="1.0" encoding="UTF-8" standalone="no"?>
<!DOCTYPE svg PUBLIC "-//W3C//DTD SVG 1.1//EN" "http://www.w3.org/Graphics/SVG/1.1/DTD/svg11.dtd">
<svg width="20px" height="20px" version="1.1" xmlns="http://www.w3.org/2000/svg" xmlns:xlink="http://www.w3.org/1999/xlink" xml:space="preserve" xmlns:serif="http://www.serif.com/" style="fill-rule:evenodd;clip-rule:evenodd;stroke-linejoin:round;stroke-miterlimit:2;">
    <rect x="0" y="0" width="20" height="20" style="fill-opacity:0;"/>
    <g transform="matrix(1,0,0,1,-1,-1)">
        <path d="M12.779,16.904C12.844,17.12 12.997,17.298 13.2,17.394C13.404,17.491 13.638,17.498 13.846,17.412C16.345,16.288 18,13.793 18,11C18,8.207 16.345,5.712 13.841,4.602C13.636,4.518 13.406,4.524 13.207,4.619C13.007,4.714 12.857,4.889 12.793,5.101L12.779,5.097C12.672,5.453 12.854,5.832 13.199,5.971C15.187,6.826 16.5,8.795 16.5,11C16.5,13.205 15.187,15.173 13.204,16.039C12.865,16.177 12.686,16.55 12.791,16.9L12.779,16.904ZM7,9L11,5L11,17L7,13L5,13C4.448,13 4,12.552 4,12L4,10C4,9.448 4.448,9 5,9L7,9ZM11.971,13.931C12.051,14.171 12.235,14.363 12.472,14.452C12.71,14.541 12.974,14.517 13.192,14.388C14.294,13.633 15,12.378 15,11C15,9.622 14.294,8.367 13.174,7.642C12.965,7.519 12.712,7.496 12.485,7.581C12.257,7.667 12.081,7.85 12.005,8.08L11.971,8.07C11.868,8.383 12.001,8.725 12.289,8.886C13.034,9.311 13.5,10.115 13.5,11C13.5,11.885 13.035,12.688 12.302,13.135C12.024,13.29 11.895,13.621 11.995,13.923L11.971,13.931Z" style="fill:black;"/>
    </g>
</svg>
