<?xml version="1.0" encoding="UTF-8" standalone="no"?>
<!DOCTYPE svg PUBLIC "-//W3C//DTD SVG 1.1//EN" "http://www.w3.org/Graphics/SVG/1.1/DTD/svg11.dtd">
<svg width="20px" height="20px" version="1.1" xmlns="http://www.w3.org/2000/svg" xmlns:xlink="http://www.w3.org/1999/xlink" xml:space="preserve" xmlns:serif="http://www.serif.com/" style="fill-rule:evenodd;clip-rule:evenodd;stroke-linejoin:round;stroke-miterlimit:2;">
    <rect x="0" y="0" width="20" height="20" style="fill-opacity:0;"/>
    <g transform="matrix(0.707107,-0.707107,0.595478,0.595478,-5.13173,13.0919)">
        <path d="M13,0.891C13,0.654 12.921,0.428 12.78,0.261C12.64,0.094 12.449,0 12.25,0L12.249,0C12.05,0 11.86,0.094 11.719,0.261C11.579,0.427 11.5,0.654 11.5,0.889L11.5,21.109C11.5,21.346 11.579,21.572 11.72,21.739C11.86,21.906 12.051,22 12.25,22C12.449,22 12.64,21.906 12.78,21.739C12.921,21.572 13,21.346 13,21.109L13,0.891Z" style="fill:black;"/>
    </g>
    <g transform="matrix(1,0,0,1,-1,-1)">
        <path d="M14.969,14.808L16.033,15.872C15.418,16.511 14.679,17.038 13.846,17.412C13.638,17.498 13.404,17.491 13.2,17.394C12.997,17.298 12.844,17.12 12.779,16.904L12.791,16.9C12.686,16.55 12.865,16.177 13.204,16.039C13.878,15.745 14.475,15.323 14.969,14.808ZM8.081,7.919L11,10.839L11,17L7,13L5,13C4.448,13 4,12.552 4,12L4,10C4,9.448 4.448,9 5,9L7,9L8.081,7.919ZM15.859,13.577C16.271,12.801 16.5,11.921 16.5,11C16.5,8.795 15.187,6.826 13.199,5.971C12.854,5.832 12.672,5.453 12.779,5.097L12.793,5.101C12.857,4.889 13.007,4.714 13.207,4.619C13.406,4.524 13.636,4.518 13.841,4.602C16.345,5.712 18,8.207 18,11C18,12.332 17.624,13.596 16.959,14.676L15.859,13.577ZM12.847,12.686L13.918,13.757C13.702,13.993 13.459,14.206 13.192,14.388C12.974,14.517 12.71,14.541 12.472,14.452C12.235,14.363 12.051,14.171 11.971,13.931L11.995,13.923C11.895,13.621 12.024,13.29 12.302,13.135C12.505,13.011 12.689,12.859 12.847,12.686ZM13.492,11.209C13.498,11.14 13.5,11.07 13.5,11C13.5,10.115 13.034,9.311 12.289,8.886C12.001,8.725 11.868,8.383 11.971,8.07L12.005,8.08C12.081,7.85 12.257,7.667 12.485,7.581C12.712,7.496 12.965,7.519 13.174,7.642C14.294,8.367 15,9.622 15,11C15,11.505 14.905,11.994 14.73,12.448L13.492,11.209ZM9.141,6.859L11,5L11,8.718L9.141,6.859Z" style="fill:black;"/>
    </g>
</svg>
