<?xml version="1.0" encoding="UTF-8" standalone="no"?>
<!DOCTYPE svg PUBLIC "-//W3C//DTD SVG 1.1//EN" "http://www.w3.org/Graphics/SVG/1.1/DTD/svg11.dtd">
<svg width="20px" height="20px" version="1.1" xmlns="http://www.w3.org/2000/svg" xmlns:xlink="http://www.w3.org/1999/xlink" xml:space="preserve" xmlns:serif="http://www.serif.com/" style="fill-rule:evenodd;clip-rule:evenodd;stroke-linejoin:round;stroke-miterlimit:2;">
    <rect x="0" y="0" width="20" height="20" style="fill-opacity:0;"/>
    <g transform="matrix(1,0,0,0.999997,3.5,5)">
        <g>
            <path d="M15.5,11C15.5,9.344 14.156,8 12.5,8L9.5,8C7.844,8 6.5,9.344 6.5,11C6.5,12.656 7.844,14 9.5,14L12.5,14C14.156,14 15.5,12.656 15.5,11ZM12.5,9C13.604,9 14.5,9.902 14.5,11.012C14.5,12.123 13.604,13.025 12.5,13.025C11.396,13.025 10.5,12.123 10.5,11.012C10.5,9.902 11.396,9 12.5,9Z" style="fill:black;"/>
        </g>
    </g>
    <path d="M3,15L4,15L4,16L2,16L2,14L3,14L3,15ZM7.5,15L5.5,15L5.5,16L7.5,16L7.5,15ZM3,10.5L2,10.5L2,12.5L3,12.5L3,10.5ZM17,12.126L17,10.5L18,10.5L18,12.5L17.937,12.5C17.645,12.338 17.331,12.211 17,12.126ZM3,6.5L2,6.5L2,8.5L3,8.5L3,6.5ZM18,6.5L17,6.5L17,8.5L18,8.5L18,6.5ZM4,3L4,4L3,4L3,5L2,5L2,3L4,3ZM18,5L17,5L17,4L16,4L16,3L18,3L18,5ZM11,3L9,3L9,4L11,4L11,3ZM14.5,3L12.5,3L12.5,4L14.5,4L14.5,3ZM7.5,3L5.5,3L5.5,4L7.5,4L7.5,3Z" style="fill:black;"/>
    <path d="M9.879,13.499C6.191,13.414 4,9.491 4,9.491C4,9.491 6.248,5.5 10.001,5.5C13.752,5.5 16,9.491 16,9.491C16,9.491 15.234,10.861 13.847,12L13,12C11.739,12 10.613,12.585 9.879,13.499ZM10,6.5C11.656,6.5 13,7.844 13,9.5C13,11.156 11.656,12.5 10,12.5C8.344,12.5 7,11.156 7,9.5C7,7.844 8.344,6.5 10,6.5ZM10,8C10.828,8 11.5,8.672 11.5,9.5C11.5,10.328 10.828,11 10,11C9.172,11 8.5,10.328 8.5,9.5C8.5,8.672 9.172,8 10,8Z" style="fill:black;"/>
</svg>
